<svg id="Filled_outline" height="60" viewBox="0 0 128 128" width="60" xmlns="http://www.w3.org/2000/svg" data-name="Filled outline"><g id="Color"><path d="m100.5 7.5v80a6 6 0 0 1 -6 6h-61a6 6 0 0 1 -6-6v-64.375a6 6 0 0 1 1.761-4.247l15.654-15.625a6 6 0 0 1 4.239-1.753h45.346a6 6 0 0 1 6 6z" fill="#bbdefb"/><path d="m42 20.5a4.5 4.5 0 0 0 4.5-4.5v-13.874a6 6 0 0 0 -1.585 1.127l-15.654 15.625a5.991 5.991 0 0 0 -1.149 1.622z" fill="#90caf9"/><path d="m69.529 126.5h-6.57a18 18 0 0 1 -11.444-4.107l-17.621-14.514-24.177-15.028a12 12 0 0 1 -3.841-16.551l2.355-3.77a12 12 0 0 1 16.388-3.907l28.954 17.519a6.006 6.006 0 0 0 3.092.858h17.335l11 29-6.985 6.985a12 12 0 0 1 -8.486 3.515z" fill="#ffccbc"/><path d="m45.59 81.278-15.571 24.932a2.71 2.71 0 0 1 -3.683.883l-18.623-11.314a12 12 0 0 1 -3.965-16.584l5.619-9.053a12 12 0 0 1 16.35-3.973c7.69 4.595 17.233 10.3 18.988 11.38a2.694 2.694 0 0 1 .885 3.729z" fill="#2196f3"/><path d="m44.705 77.549c-.679-.416-2.532-1.531-4.985-3l-18.13 29.662 4.751 2.887a2.71 2.71 0 0 0 3.683-.883l15.566-24.937a2.694 2.694 0 0 0 -.885-3.729z" fill="#eceff1"/><path d="m103.99 69.256-29.99 17.744-4.525-.006a12 12 0 0 0 -9.069 4.122l-6.551 7.529a5.4 5.4 0 0 0 -.238 6.939 5.238 5.238 0 0 0 7.579.528l6.054-5.55a3 3 0 0 1 4.273.222l13.477 15.216 7-7 26.263-16.19a12 12 0 0 0 3.905-16.533l-1.868-3.012a12 12 0 0 0 -16.31-4.009z" fill="#ffccbc"/><path d="m82.41 81.278 15.571 24.932a2.71 2.71 0 0 0 3.683.883l18.623-11.314a12 12 0 0 0 3.965-16.584l-5.619-9.053a12 12 0 0 0 -16.35-3.973c-7.69 4.595-17.233 10.3-18.988 11.38a2.694 2.694 0 0 0 -.885 3.729z" fill="#2196f3"/><path d="m83.3 77.549c.679-.416 2.532-1.531 4.985-3l18.13 29.662-4.751 2.887a2.71 2.71 0 0 1 -3.683-.883l-15.571-24.937a2.694 2.694 0 0 1 .89-3.729z" fill="#eceff1"/></g><g id="Outline"><path d="m70.5 11h21a1.5 1.5 0 0 0 0-3h-21a1.5 1.5 0 0 0 0 3z"/><path d="m91.5 16h-13a1.5 1.5 0 0 0 0 3h13a1.5 1.5 0 0 0 0-3z"/><path d="m36.5 31h55a1.5 1.5 0 0 0 0-3h-55a1.5 1.5 0 0 0 0 3z"/><path d="m36.5 41h55a1.5 1.5 0 0 0 0-3h-55a1.5 1.5 0 0 0 0 3z"/><path d="m93 49.5a1.5 1.5 0 0 0 -1.5-1.5h-55a1.5 1.5 0 0 0 0 3h55a1.5 1.5 0 0 0 1.5-1.5z"/><path d="m90.373 62.005a8.7 8.7 0 0 0 -3.481 1.388c-2.316 1.386-4.243 2.045-5.325-.43a3.676 3.676 0 0 0 -2.2-2.217c-1.293-.678-4.852 1.093-7.1 2.662-2.113 1.337-2.865 1.723-3.18 1.391-.245-.262-.394-1.816.347-4.383a1.5 1.5 0 0 0 -2.883-.832c-1.035 3.173-1.279 8.151 2.689 8.369 1.841.01 4.031-1.688 5.879-2.791 2.661-1.629 3.359-1.546 3.368-1.562a3.84 3.84 0 0 1 .406.7c1.869 4.294 6.342 3.835 9.5 1.69a6.752 6.752 0 0 1 2.24-1 1.5 1.5 0 0 0 -.254-2.99z"/><path d="m125.526 78.4-5.618-9.053a13.557 13.557 0 0 0 -17.908-4.724v-57.123a7.508 7.508 0 0 0 -7.5-7.5h-45.347a7.45 7.45 0 0 0 -5.3 2.192l-15.653 15.624a7.449 7.449 0 0 0 -2.2 5.309v41.5a13.556 13.556 0 0 0 -17.908 4.726l-5.618 9.049a13.562 13.562 0 0 0 4.46 18.657l18.632 11.32a4.227 4.227 0 0 0 5.178-.693l2.273 1.412 17.544 14.451a19.542 19.542 0 0 0 12.398 4.453h6.57a13.408 13.408 0 0 0 9.546-3.954l13.862-13.861 4.219-2.6a4.231 4.231 0 0 0 5.287.792l18.623-11.314a13.563 13.563 0 0 0 4.46-18.663zm-80.526-73.112v10.712a3 3 0 0 1 -3 3h-10.737zm-16 17.837a4.493 4.493 0 0 1 .159-1.125h12.841a6.006 6.006 0 0 0 6-6v-12.832a4.493 4.493 0 0 1 1.153-.168h45.347a4.505 4.505 0 0 1 4.5 4.5v58.884c-6.314 3.774-14.836 8.873-16.487 9.886a4.2 4.2 0 0 0 -1.763 4.993l-7.159 4.237c-2.83-.006-13.9 0-16.926 0a4.5 4.5 0 0 1 -2.315-.641l-6.938-4.2a4.184 4.184 0 0 0 -1.923-4.39c-1.653-1.012-10.175-6.111-16.489-9.885zm-20.508 71.375a10.549 10.549 0 0 1 -3.47-14.511l5.619-9.053a10.554 10.554 0 0 1 14.306-3.476c3.592 2.146 8.661 5.176 12.7 7.6l-16.561 27.1zm20.257 10.915a1.216 1.216 0 0 1 -1.634.4l-3.466-2.106 16.57-27.109c1.786 1.072 3.146 1.891 3.7 2.233a1.2 1.2 0 0 1 .394 1.655zm48.205 16.513a10.43 10.43 0 0 1 -7.425 3.072h-6.57a16.538 16.538 0 0 1 -10.49-3.764l-17.621-14.515a1.662 1.662 0 0 0 -.162-.117l-2.265-1.404 13.643-21.849 6.736 4.077a7.506 7.506 0 0 0 3.865 1.072h4.328a13.566 13.566 0 0 0 -1.719 1.631l-6.551 7.529a6.925 6.925 0 0 0 -.26 8.882 6.778 6.778 0 0 0 9.747.676l6.054-5.55a1.508 1.508 0 0 1 2.136.111l12.541 14.159zm14.259-14.2a1.473 1.473 0 0 0 -.274.216l-5.873 5.874-12.42-14.029a4.526 4.526 0 0 0 -6.41-.332l-6.053 5.549a3.754 3.754 0 0 1 -5.412-.38 3.9 3.9 0 0 1 .215-5l6.552-7.526a10.487 10.487 0 0 1 7.811-3.6c.161-.018 4.494.007 4.651 0a1.5 1.5 0 0 0 .764-.209l7.489-4.432 13.247 21.219zm9.682-1.917a1.215 1.215 0 0 1 -1.642-.39l-15.57-24.937a1.2 1.2 0 0 1 .4-1.656c.557-.342 1.917-1.161 3.7-2.232l16.57 27.11zm6.02-3.658-16.561-27.1c4.038-2.419 9.107-5.449 12.7-7.6a10.553 10.553 0 0 1 14.306 3.476l5.619 9.053a10.55 10.55 0 0 1 -3.47 14.511z"/></g></svg>