<?xml version="1.0" encoding="iso-8859-1"?>
<!-- Generator: Adobe Illustrator 19.0.0, SVG Export Plug-In . SVG Version: 6.00 Build 0)  -->
<svg version="1.1" id="Capa_1" xmlns="http://www.w3.org/2000/svg" xmlns:xlink="http://www.w3.org/1999/xlink" x="0px" y="0px"
	 viewBox="0 0 512 512" style="enable-background:new 0 0 512 512;" xml:space="preserve">
<path style="fill:#00C3FF;" d="M326.267,197.526c0,88.028-71.365,159.381-159.381,159.381c-3.034,0-6.056-0.08-9.045-0.251
	C74.022,351.969,7.505,282.52,7.505,197.526c0-88.028,71.353-159.381,159.381-159.381c63.974,0,119.154,37.695,144.531,92.1
	C320.941,150.684,326.267,173.483,326.267,197.526z"/>
<path style="fill:#00A8EE;" d="M326.267,197.526c0,88.028-71.365,159.381-159.381,159.381c-3.034,0-6.056-0.08-9.045-0.251
	c-2.509-12.363-3.832-25.16-3.832-38.265c0-94.05,67.931-172.224,157.408-188.146C320.941,150.684,326.267,173.483,326.267,197.526z
	"/>
<path style="fill:#22D5FF;" d="M248.766,197.526c0,45.223-36.657,81.88-81.88,81.88c-2.965,0-5.908-0.16-8.794-0.468
	c-41.094-4.391-73.087-39.167-73.087-81.413c0-45.223,36.658-81.88,81.88-81.88c31.388,0,58.659,17.667,72.402,43.603
	C245.345,170.666,248.766,183.691,248.766,197.526z"/>
<path style="fill:#00C3FF;" d="M248.766,197.526c0,45.223-36.657,81.88-81.88,81.88c-2.965,0-5.908-0.16-8.794-0.468
	c10.436-49.774,40.25-92.419,81.196-119.69C245.345,170.666,248.766,183.691,248.766,197.526z"/>
<circle style="fill:#FEDC63;" cx="345.12" cy="318.389" r="159.38"/>
<circle style="fill:#FFE497;" cx="345.12" cy="318.389" r="81.88"/>
<path d="M475.477,214.189c-23.191-28.977-55.738-49.634-91.646-58.165c-4.035-0.958-8.072,1.534-9.03,5.563
	c-0.957,4.029,1.533,8.072,5.563,9.03C449.037,186.934,497,247.702,497,318.392c0,83.748-68.135,151.883-151.883,151.883
	S193.234,402.14,193.234,318.392s68.135-151.883,151.883-151.883c4.143,0,7.5-3.357,7.5-7.5s-3.357-7.5-7.5-7.5
	c-5.917,0-11.762,0.315-17.522,0.919c-9.393-33.453-29.366-63.612-56.716-85.429c-29.818-23.787-65.781-36.36-103.999-36.36
	c-20.942,0-41.375,3.837-60.731,11.405c-3.858,1.509-5.763,5.858-4.254,9.717c1.509,3.857,5.857,5.763,9.716,4.254
	c17.608-6.885,36.203-10.376,55.269-10.376c67.987,0,126.907,44.482,145.767,109.052c-11.904,2.357-23.355,5.986-34.209,10.735
	c-6.478-22.503-19.775-42.792-38.047-57.755c-20.655-16.916-46.762-26.232-73.511-26.232c-64.012,0-116.09,52.078-116.09,116.09
	s52.078,116.09,116.09,116.09c3.826,0,7.652-0.217,11.45-0.599c-0.057,1.785-0.095,3.574-0.095,5.372
	c0,10.36,0.957,20.5,2.773,30.343c-4.686,0.439-9.413,0.674-14.127,0.674C83.133,349.409,15,281.276,15,197.529
	c0-50.535,25.035-97.621,66.969-125.955c3.432-2.319,4.334-6.981,2.015-10.414c-2.319-3.431-6.98-4.333-10.414-2.016
	C27.503,90.272,0,142.005,0,197.529c0,92.018,74.862,166.88,166.88,166.88c5.857,0,11.738-0.312,17.55-0.92
	c19.722,70.181,84.289,121.786,160.687,121.786c92.02,0,166.883-74.863,166.883-166.883
	C512,280.624,499.029,243.617,475.477,214.189z M166.88,298.619c-55.741,0-101.09-45.349-101.09-101.09s45.349-101.09,101.09-101.09
	c45.997,0,86.481,31.6,97.877,75.734c-45.83,25.288-78.569,71.492-85.255,125.655C175.332,298.35,171.104,298.619,166.88,298.619z"
	/>
<path d="M435.294,379.373c3.581,2.081,8.172,0.866,10.254-2.715c10.245-17.624,15.66-37.771,15.66-58.266
	c0-64.013-52.078-116.091-116.091-116.091s-116.09,52.078-116.09,116.091c0,64.012,52.078,116.09,116.09,116.09
	c27.511,0,54.191-9.796,75.128-27.583c3.156-2.682,3.541-7.415,0.859-10.572c-2.681-3.156-7.413-3.541-10.572-0.859
	c-18.228,15.486-41.459,24.015-65.415,24.015c-55.741,0-101.09-45.349-101.09-101.09s45.349-101.091,101.09-101.091
	s101.091,45.35,101.091,101.091c0,17.849-4.713,35.39-13.629,50.727C430.498,372.7,431.713,377.291,435.294,379.373z"/>
<path d="M338.746,290.88h22.735c1.199,0,2.175,0.976,2.175,2.175c0,4.143,3.357,7.5,7.5,7.5s7.5-3.357,7.5-7.5
	c0-9.471-7.705-17.175-17.175-17.175h-8.222v-14.427c0-4.143-3.357-7.5-7.5-7.5s-7.5,3.357-7.5,7.5v14.439
	c-14.047,0.261-25.396,11.761-25.396,25.87c0,14.271,11.611,25.882,25.883,25.882h14.028c6,0,10.882,4.882,10.882,10.882
	c0,6.001-4.882,10.883-10.882,10.883h-22.736c-1.199,0-2.175-0.976-2.175-2.175c0-4.143-3.357-7.5-7.5-7.5s-7.5,3.357-7.5,7.5
	c0,9.47,7.705,17.175,17.175,17.175h8.222v14.426c0,4.143,3.357,7.5,7.5,7.5s7.5-3.357,7.5-7.5v-14.438
	c14.048-0.261,25.396-11.762,25.396-25.871c0-14.271-11.61-25.882-25.882-25.882h-14.028c-6.001,0-10.883-4.882-10.883-10.882
	S332.745,290.88,338.746,290.88z"/>
<path d="M185.734,193.007c4.142,0,7.5-3.357,7.5-7.5s-3.358-7.5-7.5-7.5h-34.986v-0.508c0-15.875,12.915-28.79,28.79-28.79
	c4.142,0,7.5-3.357,7.5-7.5s-3.358-7.5-7.5-7.5c-24.146,0-43.79,19.645-43.79,43.79v0.508H122.89c-4.142,0-7.5,3.357-7.5,7.5
	s3.358,7.5,7.5,7.5h12.858v8.192H122.89c-4.142,0-7.5,3.357-7.5,7.5s3.358,7.5,7.5,7.5h12.858v1.352
	c0,24.146,19.644,43.79,43.79,43.79c4.142,0,7.5-3.357,7.5-7.5s-3.358-7.5-7.5-7.5c-15.875,0-28.79-12.915-28.79-28.79v-1.352
	h34.986c4.142,0,7.5-3.357,7.5-7.5s-3.358-7.5-7.5-7.5h-34.986v-8.192H185.734z"/>
<path d="M329.907,81.464c1.465,1.464,3.385,2.196,5.304,2.196s3.839-0.732,5.304-2.196c2.929-2.93,2.929-7.678,0-10.607
	l-7.634-7.633c31.856,4.025,56.58,31.272,56.58,64.204c0,4.143,3.357,7.5,7.5,7.5s7.5-3.357,7.5-7.5
	c0-41.512-31.892-75.7-72.458-79.389l8.512-8.511c2.929-2.93,2.929-7.678,0-10.607c-2.93-2.928-7.678-2.928-10.607,0L308.939,49.89
	c-2.929,2.93-2.929,7.678,0,10.607L329.907,81.464z"/>
<path d="M168.942,426.343c-2.929-2.928-7.678-2.928-10.606,0c-2.929,2.93-2.929,7.678,0,10.607l7.634,7.633
	c-31.857-4.024-56.581-31.272-56.581-64.204c0-4.143-3.358-7.5-7.5-7.5s-7.5,3.357-7.5,7.5c0,41.512,31.892,75.7,72.459,79.389
	l-8.512,8.511c-2.929,2.93-2.929,7.678,0,10.607c1.464,1.464,3.384,2.196,5.303,2.196s3.839-0.732,5.303-2.196l20.969-20.969
	c2.929-2.93,2.929-7.678,0-10.607L168.942,426.343z"/>
<path d="M429.894,62.691h4.407v4.407c0,4.143,3.357,7.5,7.5,7.5s7.5-3.357,7.5-7.5v-4.407h4.407c4.143,0,7.5-3.357,7.5-7.5
	s-3.357-7.5-7.5-7.5h-4.407v-4.407c0-4.143-3.357-7.5-7.5-7.5s-7.5,3.357-7.5,7.5v4.407h-4.407c-4.143,0-7.5,3.357-7.5,7.5
	S425.751,62.691,429.894,62.691z"/>
<path d="M53.885,412.18v-4.407h4.407c4.142,0,7.5-3.357,7.5-7.5s-3.358-7.5-7.5-7.5h-4.407v-4.407c0-4.143-3.358-7.5-7.5-7.5
	s-7.5,3.357-7.5,7.5v4.407h-4.407c-4.142,0-7.5,3.357-7.5,7.5s3.358,7.5,7.5,7.5h4.407v4.407c0,4.143,3.358,7.5,7.5,7.5
	S53.885,416.323,53.885,412.18z"/>
<path d="M456.871,108.146c-4.143,0-7.5,3.357-7.5,7.5s3.357,7.5,7.5,7.5h4.407v4.407c0,4.143,3.357,7.5,7.5,7.5s7.5-3.357,7.5-7.5
	v-4.407h4.407c4.143,0,7.5-3.357,7.5-7.5s-3.357-7.5-7.5-7.5h-4.407v-4.407c0-4.143-3.357-7.5-7.5-7.5s-7.5,3.357-7.5,7.5v4.407
	H456.871z"/>
<path d="M82.106,445.116H77.7v-4.407c0-4.143-3.358-7.5-7.5-7.5s-7.5,3.357-7.5,7.5v4.407h-4.407c-4.142,0-7.5,3.357-7.5,7.5
	s3.358,7.5,7.5,7.5H62.7v4.407c0,4.143,3.358,7.5,7.5,7.5s7.5-3.357,7.5-7.5v-4.407h4.407c4.142,0,7.5-3.357,7.5-7.5
	S86.249,445.116,82.106,445.116z"/>
<g>
</g>
<g>
</g>
<g>
</g>
<g>
</g>
<g>
</g>
<g>
</g>
<g>
</g>
<g>
</g>
<g>
</g>
<g>
</g>
<g>
</g>
<g>
</g>
<g>
</g>
<g>
</g>
<g>
</g>
</svg>
