<?xml version="1.0" encoding="utf-8"?>
<!-- Generator: Adobe Illustrator 24.3.0, SVG Export Plug-In . SVG Version: 6.00 Build 0)  -->
<svg version="1.1"
	 id="Layer_1" image-rendering="optimizeQuality" text-rendering="geometricPrecision" shape-rendering="geometricPrecision"
	 xmlns="http://www.w3.org/2000/svg" xmlns:xlink="http://www.w3.org/1999/xlink" x="0px" y="0px" viewBox="0 0 122.9 122.9"
	 style="enable-background:new 0 0 122.9 122.9;" xml:space="preserve">
<style type="text/css">
	.st0{fill-rule:evenodd;clip-rule:evenodd;}
	.st1{fill-rule:evenodd;clip-rule:evenodd;fill:#F9B75F;}
	.st2{fill-rule:evenodd;clip-rule:evenodd;fill:#E6E6E6;}
	.st3{fill-rule:evenodd;clip-rule:evenodd;fill:#EF7A6A;}
</style>
<g id="Layer_x0020_1">
	<path class="st0" d="M53.4,116.4c-1.7,0-3.1-1.3-3.1-3.1V90.5C34.2,84,22.9,68.3,22.9,50C23,26,42.5,6.5,66.6,6.5
		S110.2,26,110.2,50c0,18.3-11.3,33.8-27.3,40.3v22.9c0,2.5-3,3.9-4.9,2.4l-11.5-9l-11.4,9C54.6,116.2,53.9,116.4,53.4,116.4z
		 M56.3,92.5v14.8l8.4-6.7c1.2-0.8,2.7-0.8,3.8,0l8.4,6.7V92.3C70.1,94.1,63,94.1,56.3,92.5z M66.6,81c-3.9,0-3.9-6,0-6
		c13.9,0,25.2-11.1,25.2-25c0-13.8-11.3-25-25.2-25c-13.8,0-25,11.3-25,25c0,4.1-6,4.1-6,0C35.6,32.9,49.4,19,66.5,19
		S97.7,33,97.7,50C97.8,67.3,83.7,81,66.6,81z M76.4,68.1c-1.3,0-8.1-3.7-9.8-4.4l-8.4,4.1c-2.2,1-4.7-0.8-4.4-3.1l1.3-9.3l-6.4-6.9
		c-1.7-1.7-0.8-4.7,1.7-5.1l9.3-1.7l4.5-8.1c1.2-2.1,4.2-2.1,5.4,0l4.5,8.1l9.3,1.7c2.4,0.4,3.4,3.4,1.7,5.1l-6.4,6.7l1.3,9.4
		C79.6,66.6,78.2,68.1,76.4,68.1z M66.6,57.3c1.3,0,4.5,2,6,2.7c-1.2-7.7-1.7-5.9,3.7-11.4c-7.6-1.4-5.9-0.2-9.7-7
		c-3.7,6.9-2,5.6-9.7,7c5.4,5.6,4.7,3.8,3.8,11.4C62,59.3,65.3,57.3,66.6,57.3z M66.6,12.6c-20.7,0-37.4,16.8-37.4,37.4
		c0,20.8,16.8,37.5,37.4,37.5c20.8,0,37.5-16.8,37.5-37.5S87.4,12.6,66.6,12.6z"/>
	<path class="st1" d="M66.6,25c-13.8,0-25,11.3-25,25c0,4.1-6,4.1-6,0c-0.1-17.1,13.8-31,30.9-31S97.7,33,97.7,50
		c0,17.1-13.9,31.1-31.1,31.1c-3.9,0-3.9-6,0-6c13.9,0,25.2-11.1,25.2-25S80.5,25,66.6,25z M66.6,12.6c-20.7,0-37.4,16.8-37.4,37.4
		c0,20.8,16.8,37.5,37.4,37.5c20.8,0,37.5-16.8,37.5-37.5S87.4,12.6,66.6,12.6z M50.2,43.5l9.3-1.7l4.5-8.1c1.2-2.1,4.2-2.1,5.4,0
		l4.5,8.1l9.3,1.7c2.4,0.4,3.4,3.4,1.7,5.1l-6.4,6.7l1.2,9.3c0.2,1.8-1.3,3.4-3.1,3.4c-1.3,0-8.1-3.7-9.8-4.4l-8.4,4.1
		c-2.2,1-4.7-0.8-4.4-3.1l1.3-9.3l-6.4-6.7C46.9,46.9,47.9,44,50.2,43.5z"/>
	<path class="st2" d="M66.6,41.4c-3.7,6.9-2,5.6-9.7,7c5.4,5.6,4.7,3.8,3.8,11.4c1.4-0.7,4.7-2.7,5.9-2.7s4.5,2,6,2.7
		c-1.2-7.7-1.7-5.9,3.7-11.4C68.7,47.1,70.4,48.3,66.6,41.4z"/>
	<path class="st3" d="M76.8,92.3C70.1,94,62.9,94,56.3,92.5v14.8l8.4-6.7c1.2-0.8,2.7-0.8,3.8,0l8.4,6.7L76.8,92.3L76.8,92.3z"/>
</g>
</svg>
