<?xml version="1.0" encoding="utf-8"?>
<!-- Generator: Adobe Illustrator 24.3.0, SVG Export Plug-In . SVG Version: 6.00 Build 0)  -->
<svg version="1.1" id="Layer_1" xmlns="http://www.w3.org/2000/svg" xmlns:xlink="http://www.w3.org/1999/xlink" x="0px" y="0px"
	 viewBox="0 0 480 480" style="enable-background:new 0 0 480 480;" xml:space="preserve">
<style type="text/css">
	.st0{fill:#348FD9;}
	.st1{fill:#5DA6D8;}
	.st2{fill:#8CDAE0;}
	.st3{fill:#9FE4ED;}
	.st4{fill:#5AC6D4;}
	.st5{fill:#E0E0DE;}
	.st6{fill:#95573A;}
	.st7{fill:#EBEBE9;}
	.st8{fill:#8F4D2E;}
	.st9{fill:#FFB531;}
	.st10{fill:#3FB7C7;}
	.st11{fill:#47B649;}
	.st12{fill:#F98500;}
</style>
<path class="st0" d="M96,40v432h320V40H96z"/>
<path class="st1" d="M400,96l-56-56H96v416h304V96z"/>
<path class="st2" d="M64,440h320V80L312,8H64V440z"/>
<path class="st3" d="M384,80h-72V8L384,80z"/>
<path class="st4" d="M384,176L120,440h264V176z"/>
<path class="st0" d="M352,408H192c-4.4,0-8-3.6-8-8v-64c0-4.4,3.6-8,8-8h160c4.4,0,8,3.6,8,8v64C360,404.4,356.4,408,352,408z
	 M200,392h144v-48H200V392z"/>
<path class="st0" d="M216,360h32v16h-32V360z"/>
<path class="st0" d="M264,360h64v16h-64V360z"/>
<path class="st5" d="M248,264l48-48l112,112l-48,48L248,264z"/>
<path class="st6" d="M424,144c-26.5,0-48,21.5-48,48v4l-72,76l40,40l76-72h4c26.5,0,48-21.5,48-48S450.5,144,424,144z"/>
<path class="st7" d="M224,288l24-24l112,112l-24,24L224,288z"/>
<path class="st8" d="M443.7,148.2C410.6,232,358.8,272,324.1,292l19.9,20l76-72h4c22.6,0,42.1-15.8,46.9-37.9
	S464.3,157.5,443.7,148.2z"/>
<path class="st9" d="M255,83.2c2.5-5.2,1.4-11.4-2.6-15.5c-4.1-4.1-10.3-5.1-15.5-2.6c-1.9-5.4-7.1-9.1-12.8-9.1
	c-5.8,0-10.9,3.6-12.8,9.1c-5.2-2.5-11.4-1.4-15.5,2.7s-5.1,10.3-2.6,15.5c-5.4,1.9-9.1,7.1-9.1,12.8c0,5.8,3.6,10.9,9.1,12.8
	c-2.5,5.2-1.4,11.4,2.7,15.5c4.1,4.1,10.3,5.1,15.5,2.6c1.9,5.4,7.1,9.1,12.8,9.1c5.8,0,10.9-3.6,12.8-9.1
	c5.2,2.5,11.4,1.4,15.5-2.7c4.1-4.1,5.1-10.3,2.6-15.5c5.4-1.9,9-7.1,9-12.8C264,90.3,260.4,85.2,255,83.2z"/>
<path class="st4" d="M200,144c0-32.3-17.6-62-46-77.4s-62.9-14-90,3.7v147.4c27,17.6,61.6,19.1,90,3.7C182.4,206,200,176.3,200,144z
	"/>
<path class="st4" d="M328,80h56v16h-56V80z"/>
<g>
	<path class="st10" d="M152,232h80v16h-80V232z"/>
	<path class="st10" d="M104,264h96v16h-96V264z"/>
	<path class="st10" d="M104,200h168v16H104V200z"/>
	<path class="st10" d="M104,296h48v16h-48V296z"/>
	<path class="st10" d="M104,328h64v16h-64V328z"/>
	<path class="st10" d="M104,360h64v16h-64V360z"/>
	<path class="st10" d="M104,392h64v16h-64V392z"/>
	<path class="st10" d="M104,232h32v16h-32V232z"/>
	<path class="st10" d="M168,296h32v16h-32V296z"/>
	<path class="st10" d="M168,160h32v16h-32V160z"/>
	<path class="st10" d="M216,160h64v16h-64V160z"/>
</g>
<path class="st11" d="M184,128c0,48.6-39.4,88-88,88S8,176.6,8,128s39.4-88,88-88S184,79.4,184,128z"/>
<path class="st9" d="M64,176c-2.1,0-4.2-0.8-5.7-2.3l-24-24l11.3-11.3L64,156.7l74.3-74.3l11.3,11.3l-80,80
	C68.2,175.2,66.1,176,64,176z"/>
<path class="st12" d="M198.2,126.1c-1.2-5.8-3-11.4-5.3-16.8C190.2,115.5,192.5,122.6,198.2,126.1z"/>
<path class="st12" d="M192.5,108.5c-2.3-5.1-5-10-8.2-14.6C183.3,100.1,186.7,106.2,192.5,108.5z"/>
<path d="M424,120V40c0-4.4-3.6-8-8-8h-32v16h24v72H424z"/>
<path d="M56,240v200c0,4.4,3.6,8,8,8h320c4.4,0,8-3.6,8-8v-56h-16v48H72V240H56z"/>
<path d="M315.3,0.8c-0.2-0.1-0.5-0.2-0.7-0.3c-0.7-0.2-1.4-0.4-2.1-0.4c-0.2,0-0.3-0.1-0.5-0.1H64c-4.4,0-8,3.6-8,8v16h16v-8h232v64
	c0,4.4,3.6,8,8,8h64v40h16V80c0-0.2-0.1-0.3-0.1-0.5c0-0.7-0.2-1.4-0.4-2.1c-0.1-0.3-0.2-0.5-0.3-0.7c-0.4-0.9-0.9-1.7-1.6-2.3
	l-72-72C317,1.7,316.2,1.2,315.3,0.8z M364.7,72H320V27.3L364.7,72z"/>
<path d="M184,336v64c0,4.4,3.6,8,8,8h104v-16h-96v-48h40v-16h-48C187.6,328,184,331.6,184,336z"/>
<path d="M216,360h48v16h-48V360z"/>
<path d="M424,136c-30.9,0-56,25.1-56,56v0.8l-40.8,43.1l-25.5-25.5c-3.1-3.1-8.2-3.1-11.3,0l-72,72c-3.1,3.1-3.1,8.2,0,11.3l112,112
	c3.1,3.1,8.2,3.1,11.3,0l24-24l42.3-42.3V464H96v16h320c4.4,0,8-3.6,8-8V280h-16v36.7l-27.9-27.9l43.1-40.8h0.8
	c30.9,0,56-25.1,56-56S454.9,136,424,136z M336,388.7L235.3,288l12.7-12.7L348.7,376L336,388.7z M396.7,328L360,364.7L259.3,264
	l36.7-36.7l20.2,20.2l-18,19c-3,3.2-2.9,8.1,0.2,11.2l40,40c3.1,3.1,8,3.1,11.2,0.2l19-18L396.7,328z M424,232h-4
	c-2,0-4,0.8-5.5,2.2l-70.3,66.6l-29-29l66.6-70.3c1.4-1.5,2.2-3.5,2.2-5.5v-4c0-22.1,17.9-40,40-40s40,17.9,40,40S446.1,232,424,232
	z"/>
<path d="M152,232h80v16h-80V232z"/>
<path d="M104,264h96v16h-96V264z"/>
<path d="M176,200h96v16h-96V200z"/>
<path d="M104,296h48v16h-48V296z"/>
<path d="M104,328h64v16h-64V328z"/>
<path d="M104,360h64v16h-64V360z"/>
<path d="M104,392h64v16h-64V392z"/>
<path d="M104,232h32v16h-32V232z"/>
<path d="M168,296h32v16h-32V296z"/>
<path d="M200,160h80v16h-80V160z"/>
<path d="M96,224c51.7-0.1,94-41,95.8-92.6c4.3,3.6,9.9,5.4,15.5,4.8c4.1,4.9,10.2,7.8,16.7,7.8s12.5-2.9,16.7-7.8
	c6.4,0.6,12.7-1.7,17.3-6.3c4.5-4.5,6.8-10.9,6.3-17.3c4.9-4.1,7.8-10.2,7.8-16.7c0-6.4-2.9-12.5-7.8-16.7
	c0.6-6.4-1.7-12.7-6.3-17.3s-10.9-6.8-17.3-6.3c-4.1-4.9-10.2-7.8-16.7-7.8s-12.5,2.9-16.7,7.8c-6.4-0.6-12.7,1.7-17.3,6.3
	c-4.5,4.5-6.8,10.9-6.3,17.3c-1.2,1-2.3,2.1-3.2,3.3c-22.1-41.2-71-60.5-115.4-45.4C20.6,52.3-6.4,97.4,1.3,143.7S49,224,96,224z
	 M195.7,90.7c2.1-0.8,3.8-2.4,4.7-4.5s0.8-4.4-0.2-6.5s-0.6-4.7,1.1-6.4c1.7-1.7,4.3-2.1,6.4-1.1c2,1,4.4,1,6.5,0.2
	c2.1-0.9,3.7-2.6,4.5-4.7c0.8-2.2,2.9-3.7,5.3-3.7s4.5,1.5,5.3,3.7c0.8,2.1,2.4,3.8,4.5,4.7c2.1,0.9,4.4,0.8,6.5-0.2
	s4.7-0.6,6.4,1.1s2.1,4.3,1.1,6.4c-1,2-1,4.4-0.2,6.5c0.9,2.1,2.6,3.7,4.7,4.5c2.2,0.8,3.7,2.9,3.7,5.3s-1.5,4.5-3.7,5.3
	c-2.1,0.8-3.8,2.4-4.7,4.5s-0.8,4.4,0.2,6.5c1.1,2.1,0.7,4.7-1.1,6.4c-1.7,1.7-4.3,2.2-6.4,1.1c-2-1-4.4-1-6.5-0.2
	c-2.1,0.9-3.7,2.6-4.5,4.7c-0.8,2.2-2.9,3.7-5.3,3.7c-2.4,0-4.5-1.5-5.3-3.7c-0.8-2.1-2.4-3.8-4.5-4.7c-1-0.4-2-0.6-3.1-0.6
	c-1.2,0-2.4,0.3-3.4,0.8c-2.1,1-4.7,0.6-6.4-1.1s-2.1-4.3-1.1-6.4c1-2,1-4.4,0.2-6.5c-0.9-2.1-2.6-3.7-4.7-4.5
	c-2.2-0.8-3.7-2.9-3.7-5.3C192,93.7,193.5,91.6,195.7,90.7L195.7,90.7z M96,48c44.2,0,80,35.8,80,80s-35.8,80-80,80s-80-35.8-80-80
	C16.1,83.8,51.8,48.1,96,48z"/>
<path d="M58.4,173.7c3.1,3.1,8.2,3.1,11.3,0l80-80l-11.3-11.3L64,156.7l-18.3-18.3l-11.3,11.3L58.4,173.7z"/>
</svg>
