<?xml version="1.0" encoding="utf-8"?>
<!-- Generator: Adobe Illustrator 24.3.0, SVG Export Plug-In . SVG Version: 6.00 Build 0)  -->
<svg version="1.1" id="Filled_Expand" xmlns="http://www.w3.org/2000/svg" xmlns:xlink="http://www.w3.org/1999/xlink" x="0px"
	 y="0px" viewBox="0 0 512 512" style="enable-background:new 0 0 512 512;" xml:space="preserve">
<style type="text/css">
	.st0{fill:#6A7F91;}
	.st1{fill:#788D9E;}
	.st2{fill:#F5C0A6;}
	.st3{fill:#FCD4C5;}
	.st4{fill:#F9C9B2;}
	.st5{fill:#F5FDFF;}
	.st6{fill:#EBB69D;}
	.st7{fill:#E6F5FA;}
</style>
<g>
	<path class="st0" d="M352.8,153.2l88,152.4l63.2-36.5V65.9L352.8,153.2z"/>
	<path class="st1" d="M352.8,153.2l88,152.4l63.2-36.5V65.9L352.8,153.2z"/>
	<path class="st0" d="M360.8,167.1l80,138.6l63.2-36.5V84.4L360.8,167.1z"/>
	<path class="st2" d="M281.5,406.8l66.3-38.3c22.5-13,40.2-32.9,50.4-56.8l34.6-20l-72-124.7l-34.6,20l-28.4-4.3
		c-14.4-2.2-29,0.6-41.6,7.8l-63.7,36.8"/>
	<path class="st3" d="M259.7,379.5l28.3,33.7c7.1,8.5,6,21.1-2.5,28.2c0,0,0,0,0,0c-8.5,7.1-21.1,6-28.2-2.5l-26.9-32.1l8.3,9.6
		l-74.5-47.8c-22.5-13-40.2-32.9-50.4-56.8l-34.6-20l72-124.7l34.6,20l28.4-4.3c14.4-2.2,29,0.6,41.6,7.8l63.7,36.8"/>
	<path class="st3" d="M300.2,241.1l90,107.2c7.1,8.5,6,21.1-2.5,28.2c-8.5,7.1-21.1,6-28.2-2.4l-90-107.3"/>
	<path class="st3" d="M269.6,266.8l98.5,117.4c7.1,8.5,6,21.1-2.5,28.2c-8.5,7.1-21.1,6-28.2-2.5L239,292.5"/>
	<path class="st3" d="M239,292.5l90,107.2c7.1,8.5,6,21.1-2.5,28.2c-8.5,7.1-21.1,6-28.2-2.5l-90-107.2"/>
	<path class="st4" d="M311.8,335.8c-2.1-2.5-1.8-6.3,0.7-8.5c0,0,0,0,0,0c2.5-2.1,6.3-1.8,8.4,0.7l47.1,56.1
		c7.1,8.5,6,21.1-2.5,28.2c-1.6,1.3-3.4,2.3-5.3,3.1c4.7-7.3,4.1-16.9-1.5-23.5L311.8,335.8z"/>
	<g>
		<path class="st2" d="M121.8,348.4l14-16.7c7.1-8.5,19.7-9.6,28.2-2.5l0,0c8.5,7.1,9.6,19.7,2.5,28.2l-14,16.7
			c-7.1,8.5-19.7,9.6-28.2,2.5l0,0C115.8,369.5,114.7,356.8,121.8,348.4z"/>
		<path class="st2" d="M143.9,384.2l22.5-26.9c7.1-8.5,19.7-9.6,28.2-2.5l0,0c8.5,7.1,9.6,19.7,2.5,28.2L174.6,410
			c-7.1,8.5-19.7,9.6-28.2,2.5l0,0C137.9,405.3,136.8,392.7,143.9,384.2z"/>
		<path class="st2" d="M183.1,399.8l14-16.7c7.1-8.5,19.7-9.6,28.2-2.5l0,0c8.5,7.1,9.6,19.7,2.5,28.2l-14,16.7
			c-7.1,8.5-19.7,9.6-28.2,2.5l0,0C177.1,420.9,176,408.3,183.1,399.8z"/>
		<path class="st2" d="M224,413.3l3.7-4.5c7.1-8.5,19.7-9.6,28.2-2.5c0,0,0,0,0,0c8.5,7.1,9.6,19.7,2.5,28.2l-3.7,4.5
			c-7.1,8.5-19.7,9.6-28.2,2.5C218,434.4,216.9,421.8,224,413.3C224,413.3,224,413.3,224,413.3L224,413.3z"/>
		<path class="st2" d="M326.1,187.1l-28.4-4.3c-14.4-2.2-29,0.6-41.6,7.8l-66.9,38.6c-9.6,5.5-12.8,17.8-7.3,27.3
			c5.5,9.6,17.8,12.8,27.3,7.3l52-30c17.7,30.6,56.8,41.1,87.4,23.4c0,0,0,0,0,0"/>
	</g>
	<path class="st5" d="M352.7,153.2l41.6-24l88,152.4l-41.6,24L352.7,153.2z"/>
	<path class="st1" d="M159.2,153.2l-88,152.4L8,269.2V65.9L159.2,153.2z"/>
	<path class="st0" d="M8,269.2l63.2,36.5l80-138.6L8,84.4V269.2z"/>
	<path class="st5" d="M29.7,281.7l88-152.4l41.6,24l-88,152.4L29.7,281.7z"/>
	<path class="st4" d="M290.4,353.8c-2.1-2.5-5.9-2.9-8.4-0.7c0,0,0,0,0,0c-2.5,2.1-2.9,5.9-0.7,8.5c0,0,0,0,0,0l38.6,46
		c5.6,6.7,6.2,16.2,1.5,23.5c1.9-0.7,3.7-1.8,5.2-3.1c8.5-7.1,9.6-19.7,2.5-28.2c0,0,0,0,0,0L290.4,353.8z"/>
	<path class="st4" d="M250.5,387.2c-2.1-2.5-1.8-6.3,0.7-8.5c0,0,0,0,0,0c2.5-2.1,6.3-1.8,8.5,0.7l28.3,33.7
		c7.1,8.5,6,21.1-2.5,28.2c-1.6,1.3-3.4,2.3-5.3,3.1c4.7-7.3,4.1-16.9-1.5-23.5L250.5,387.2z"/>
	<path class="st6" d="M157.2,349.6l-14,16.7c-5.6,6.7-14.9,8.9-22.9,5.5c1.1,1.7,2.4,3.3,3.9,4.6c8.5,7.1,21.1,6,28.2-2.4
		c0,0,0,0,0,0l14-16.7c7.1-8.3,6.2-20.7-2-27.8c-1.7-1.5-3.6-2.6-5.7-3.4C163.4,333.4,162.8,342.9,157.2,349.6L157.2,349.6z"/>
	<path class="st6" d="M187.9,375.3l-22.5,26.9c-5.6,6.7-14.9,8.9-22.9,5.5c5.7,9.3,17.8,12.2,27.1,6.5c1.9-1.2,3.6-2.6,5-4.4
		l22.5-26.9c7.1-8.3,6.2-20.7-2.1-27.9c-1.7-1.4-3.6-2.6-5.6-3.4C194.1,359.1,193.5,368.6,187.9,375.3z"/>
	<path class="st6" d="M218.5,401l-14,16.7c-5.6,6.7-14.9,8.9-22.9,5.5c5.7,9.3,17.8,12.2,27.1,6.5c1.9-1.2,3.6-2.6,5-4.4l14-16.7
		c7.1-8.3,6.2-20.7-2.1-27.9c-1.7-1.4-3.6-2.6-5.6-3.4C224.7,384.8,224.1,394.3,218.5,401z"/>
	<path class="st6" d="M249.2,426.7l-3.7,4.5c-5.6,6.7-14.9,8.9-22.9,5.5c5.7,9.3,17.9,12.2,27.2,6.5c1.9-1.2,3.6-2.6,4.9-4.3
		l3.7-4.5c7.1-8.5,6-21.1-2.5-28.2c-1.6-1.3-3.3-2.3-5.2-3.1C255.4,410.5,254.8,420,249.2,426.7L249.2,426.7z"/>
	<path class="st7" d="M29.7,281.7l80-138.6l41.6,24l-80,138.6L29.7,281.7z"/>
	<path class="st5" d="M352.7,153.2l41.6-24l88,152.4l-41.6,24L352.7,153.2z"/>
	<path class="st7" d="M360.8,167.1l41.6-24l80,138.6l-41.6,24L360.8,167.1z"/>
	<path d="M501,60.8l-151.2,87.3c-2.9,1.7-3.9,5.3-2.2,8.2l5,8.7l-27.6,16l-26.4-4c-14.6-2.2-29.5,0.3-42.6,7
		c-13.1-6.8-28-9.2-42.6-7l-26.4,4l-27.6-15.9l5-8.7c1.7-2.9,0.7-6.5-2.2-8.2L11,60.8c-2.9-1.7-6.5-0.7-8.2,2.2
		C2.3,63.9,2,64.9,2,66v203.2c0,2.1,1.1,4.1,3,5.2l63.2,36.5c2.9,1.7,6.5,0.7,8.2-2.2c0,0,0,0,0,0l5-8.7l27.7,16
		c3.6,7.9,7.9,15.4,13.1,22.4l-5,6c-9.2,10.9-7.9,27.3,3,36.5c4.3,3.6,9.6,5.7,15.1,6.1c-4.4,10.5-1.5,22.6,7.2,29.9
		c8.7,7.3,21.2,8,30.7,1.9c1.3,5.4,4.3,10.2,8.5,13.7c9.4,7.9,23,8.1,32.6,0.6c3.9,13.8,18.2,21.8,32,18c3.6-1,6.9-2.8,9.7-5.2
		c10.9,9.2,27.3,7.9,36.5-3c2.4-2.8,4.2-6.2,5.2-9.8c11.2,8.8,27.5,6.8,36.3-4.4c2.3-2.9,3.9-6.3,4.8-9.9c12,7.8,28,4.4,35.7-7.6
		c4.7-7.2,5.5-16.3,2.1-24.2c14.3-0.9,25.1-13.2,24.3-27.4c-0.3-5.6-2.5-10.9-6.1-15.1l-5-6c5.1-7,9.5-14.5,13.1-22.4l27.7-16l5,8.7
		c1.7,2.9,5.3,3.9,8.2,2.2c0,0,0,0,0,0l63.2-36.5c1.9-1.1,3-3.1,3-5.2V66c0-3.3-2.7-6-6-6C502.9,60,501.9,60.3,501,60.8L501,60.8z
		 M14,265.7V76.3l95.5,55.1l-82,142L14,265.7z M69,297.5l-31.2-18l82-142l31.2,18L69,297.5z M128.1,371.9c-5.9-5-6.7-13.8-1.7-19.7
		c0,0,0,0,0,0l14-16.7c5-5.9,13.8-6.7,19.7-1.7c0,0,0,0,0,0c5.9,5,6.7,13.8,1.7,19.7l-14,16.7C142.8,376.1,134,376.9,128.1,371.9z
		 M170,406c-5,5.9-13.8,6.7-19.7,1.7c0,0,0,0,0,0c-5.9-5-6.7-13.8-1.7-19.7c0,0,0,0,0,0l22.5-26.9c5-5.9,13.8-6.7,19.7-1.7
		s6.7,13.8,1.7,19.7L170,406z M223.1,404.9l-14,16.7c-5,5.9-13.8,6.7-19.7,1.7c0,0,0,0,0,0c-5.9-5-6.7-13.8-1.7-19.7l14-16.7
		c5-5.9,13.8-6.7,19.7-1.7S228.1,399,223.1,404.9L223.1,404.9z M253.8,430.6l-3.7,4.5c-5,5.9-13.8,6.7-19.7,1.7
		c-5.9-5-6.7-13.8-1.7-19.7l3.8-4.5c5-5.9,13.8-6.7,19.7-1.7S258.7,424.7,253.8,430.6L253.8,430.6z M383.9,371.9
		c-5.9,5-14.7,4.2-19.7-1.7l-40.3-48.1c-2.1-2.6-5.9-3-8.4-0.9c-2.6,2.1-3,5.9-0.9,8.4c0,0,0.1,0.1,0.1,0.1l48.9,58.2
		c5,5.9,4.2,14.8-1.7,19.7S347,412,342,406l-48.9-58.2c-2-2.6-5.8-3.1-8.4-1c-2.6,2-3.1,5.8-1,8.4c0.1,0.1,0.2,0.2,0.3,0.3
		l40.3,48.1c5,5.9,4.2,14.8-1.7,19.7s-14.8,4.2-19.7-1.7l-38.6-46c-2.1-2.6-5.9-3-8.4-0.9c-2.6,2.1-3,5.9-0.9,8.4
		c0,0,0.1,0.1,0.1,0.1l28.3,33.7c5,5.9,4.2,14.7-1.7,19.7c-5.1,4.3-12.6,4.4-17.8,0.2c8.5-11.4,6.2-27.6-5.2-36.1
		c-5.8-4.4-13.3-6.1-20.4-4.7c0.1-7.8-3.2-15.2-9.2-20.2c-6-5-13.8-7-21.5-5.5c0.1-7.8-3.2-15.2-9.2-20.2c-6-5-13.8-7-21.5-5.5
		c0.1-7.8-3.2-15.2-9.2-20.2c-11-9.2-27.4-7.8-36.6,3.2l-1,1.2c-4.2-6.1-7.8-12.7-10.8-19.5c-0.5-1.2-1.4-2.2-2.5-2.8l-29.4-17
		l66-114.3l29.4,17c1.2,0.7,2.6,0.9,3.9,0.7l28.4-4.3c9.3-1.4,18.8-0.5,27.6,2.6L186.2,224c-12.4,7.2-16.7,23.1-9.5,35.5
		c7.2,12.4,23.1,16.7,35.5,9.5l47-27.1c13.4,19.2,35.6,30.4,59,29.8l67.4,80.4C390.6,358.1,389.8,366.9,383.9,371.9L383.9,371.9z
		 M395.1,306.6c-1.1,0.7-2,1.6-2.5,2.8c-2.9,6.8-6.5,13.4-10.8,19.5l-49.4-59c6.7-1.6,13.2-4.1,19.2-7.6c2.9-1.7,3.9-5.3,2.2-8.2
		c-1.7-2.9-5.3-3.9-8.2-2.2c-27.7,16-63.2,6.5-79.2-21.2c-1.7-2.9-5.3-3.8-8.2-2.2l-52,30c-6.7,3.9-15.3,1.6-19.1-5.1
		c-3.9-6.7-1.6-15.3,5.1-19.1l66.8-38.6c11.4-6.6,24.7-9.1,37.7-7.1l28.4,4.3c1.3,0.2,2.7-0.1,3.9-0.7l29.4-17l66,114.3L395.1,306.6
		z M442.9,297.5l-82-142l31.2-18l82,142L442.9,297.5z M498,265.7l-13.5,7.8l-82-142L498,76.3L498,265.7z"/>
</g>
</svg>
