<svg clip-rule="evenodd" fill-rule="evenodd" height="512" stroke-linejoin="round" stroke-miterlimit="2" viewBox="0 0 64 64" width="512" xmlns="http://www.w3.org/2000/svg"><path d="m30 60v-55.9c0-1.2.9-2.1 2.1-2.1h27.9c1.1 0 2 .9 2 2.1v55.9c0 1.1-.9 2.1-2.1 2.1h-27.8c-1.1 0-2.1-.9-2.1-2.1z" fill="#7ad7ee" fill-rule="nonzero"/><g transform="translate(0 -.05)"><path d="m30 60c16.647-9.262 26.367-29.019 30-58 1.1 0 2 .9 2 2.1v55.9c0 1.1-.9 2.1-2.1 2.1h-27.8c-1.1 0-2.1-.9-2.1-2.1z" fill="#4bc3ef" fill-rule="nonzero"/></g><g fill-rule="nonzero"><path d="m38 2v2.1c0 1 .9 1.9 1.9 1.9h12.1c1.1 0 2-.9 2-1.9v-2.1z" fill="#615260"/><path d="m46 46h-36.026c-1.256 0-2.274-1.018-2.274-2.274v-23.726c0-1.1.9-2 2-2h36.3z" fill="#3ec2a3"/><path d="m46 42h-34v-18c1.1 0 2-.9 2-2h32z" fill="#4ce1a1"/><path d="m46 38c-3.3 0-6-2.7-6-6s2.7-6 6-6z" fill="#3ec2a3"/><path d="m22 58v-2l.9-3.7c.5-1.5.8-3.1.8-4.7v-14.6c0-1.7-1.3-3-3-3s-3 1.3-3 3v6.4c0 1.1-1.2 1.8-2.2 1.3l-7.8-4.7v-14l-5.1 11.8c-.6 1.4-.8 3-.5 4.5l3.9 17.7v2z" fill="#ffd18d"/><path d="m22 58v-2l.9-3.7c.5-1.5.8-3.1.8-4.7v-14.6c0-1.7-1.3-3-3-3s-3 1.3-3 3v6.4c0 1.1-1.2 1.8-2.2 1.3.809 9.904-2.96 14.276-9.5 15.3v2z" fill="#fbbd80"/><path d="m5 62h18c.5 0 1-.4 1-1v-2c0-.5-.4-1-1-1h-18c-.5 0-1 .4-1 1v2c0 .6.4 1 1 1z" fill="#615260"/></g><g transform="translate(0 .05)"><path d="m4 59c11.626 1.375 18.398-.752 19 3 .5 0 1-.4 1-1v-2c0-.5-.4-1-1-1h-18c-.5 0-1 .4-1 1z" fill="#453744" fill-rule="nonzero"/></g><g transform="matrix(1.142 0 0 .901 14.385 25.642)"><ellipse cx="14.552" cy="7.109" rx=".876" ry="1.109"/><g transform="matrix(.876 0 0 1.109 -12.598 -28.449)"><g><path d="m62 49c-.6 0-1 .4-1 1v10c0 .5-.4 1.1-1.1 1.1h-27.8c-.5 0-1.1-.4-1.1-1.1v-10c0-.6-.4-1-1-1s-1 .4-1 1v10c0 1.7 1.4 3.1 3.1 3.1h27.8c1.7 0 3.1-1.4 3.1-3.1v-10c0-.6-.4-1-1-1z" fill-rule="nonzero"/></g><g><path d="m62 43c-.6 0-1 .4-1 1v2c0 .6.4 1 1 1s1-.4 1-1v-2c0-.5-.4-1-1-1z" fill-rule="nonzero"/></g><g><path d="m60 1h-15.1c-.6 0-1 .4-1 1s.4 1 1 1h8.1v1.1c0 .4-.4.9-1 .9h-12.1c-.4 0-.9-.5-.9-.9v-1.1h2.5c.6 0 1-.4 1-1s-.4-1-1-1h-9.4c-1.7 0-3.1 1.4-3.1 3.1v9.9c0 .6.4 1 1 1s1-.4 1-1v-9.9c0-.6.5-1.1 1.1-1.1h4.9v1.1c0 1.5 1.4 2.9 2.9 2.9h12.1c1.6 0 3-1.3 3-2.9v-1.1h5c.6 0 1 .5 1 1.1v35.9c0 .6.4 1 1 1s1-.4 1-1v-35.9c0-1.7-1.3-3.1-3-3.1z" fill-rule="nonzero"/></g><g><path d="m23 57v-.9l.8-3.5c.6-1.7.9-3.4.9-5v-.6h18.3c.6 0 1-.4 1-1s-.4-1-1-1h-18.3v-2h18.3c.6 0 1-.4 1-1s-.4-1-1-1h-18.3v-8c0-2.2-1.8-4-4-4s-4 1.8-4 4v6.4c0 .5-.5.5-.7.4l-3-1.8v-7.7c0-.6-.4-1-1-1s-1 .4-1 1v6.5l-2.3-1.4v-15.4c0-.6.4-1 1-1h33.3c.6 0 1-.4 1-1s-.4-1-1-1h-33.3c-1.7 0-3 1.3-3 3v1.8l-5 11.6c-.7 1.6-.9 3.4-.6 5.1l.8 3.7c.1.5.7.9 1.2.8s.9-.7.8-1.2l-.8-3.7c-.3-1.3-.1-2.7.4-3.9l3.2-7.4v9.2c0 .4.2.7.5.9l7.9 4.7c.8.4 1.7.4 2.5-.1.7-.5 1.2-1.2 1.2-2.1v-6.4c0-1.1.9-2 2-2s2 .9 2 2v14.6c0 1.4-.3 2.9-.8 4.5l-.9 3.9v1h-14.1v-1c0-.1-2.2-10.2-2.2-10.2-.1-.5-.7-.9-1.2-.8s-.9.7-.8 1.2l2.2 9.9v.9c-1.1 0-2 .9-2 2v2c0 1.2.8 2 2 2h2.7c.6 0 1-.4 1-1s-.4-1-1-1h-2.7v-2h18v2h-11c-.6 0-1 .4-1 1s.4 1 1 1h11c1.1 0 2-.9 2-2v-2c0-1.1-.9-2-2-2z" fill-rule="nonzero"/></g><g><path d="m47 50v-36c0-.6-.4-1-1-1s-1 .4-1 1v36c0 .6.4 1 1 1s1-.4 1-1z" fill-rule="nonzero"/></g><g><path d="m43 21h-29c-.6 0-1 .4-1 1s-.4 1-1 1-1 .4-1 1v2.1c0 .6.4 1 1 1s1-.4 1-1v-1.3c.9-.3 1.5-1 1.8-1.8h28.2c.6 0 1-.4 1-1s-.4-1-1-1z" fill-rule="nonzero"/></g><g><path d="m43.5 27.7c.5-.3.6-.9.4-1.4-.3-.5-.9-.6-1.4-.4-2.2 1.3-3.5 3.6-3.5 6.1s1.3 4.8 3.5 6.1c.2.1.9.3 1.4-.4.3-.5.1-1.1-.4-1.4-1.5-.9-2.5-2.5-2.5-4.3s1-3.4 2.5-4.3z" fill-rule="nonzero"/></g></g></g></svg>