<svg id="Layer_1" enable-background="new 0 0 512 512" height="512" viewBox="0 0 512 512" width="512" xmlns="http://www.w3.org/2000/svg"><g clip-rule="evenodd" fill-rule="evenodd"><g><g><path d="m303.788 55.771c21.19 5.043 41.429 13.445 59.977 24.865l38.973-17.309 45.934 45.933-17.304 38.961c11.424 18.551 19.826 38.798 24.87 59.993l39.762 15.306v64.96l-39.772 15.309c-5.043 21.19-13.445 41.429-24.866 59.977l17.309 38.973-45.933 45.935-38.962-17.304c-18.551 11.424-38.797 19.826-59.992 24.869l-15.304 39.761h-64.96l-15.309-39.772c-21.19-5.043-41.428-13.445-59.976-24.865l-38.974 17.31-45.934-45.933 17.304-38.961c-11.424-18.551-19.825-38.799-24.868-59.993l-39.763-15.306v-64.96l39.768-15.307c5.043-21.192 13.444-41.434 24.866-59.982l-17.307-38.969 45.933-45.935 38.974 17.31c18.548-11.42 38.786-19.822 59.977-24.865l15.309-39.772h64.959z" fill="#ffe177"/><path d="m148.235 431.363-38.974 17.31-5.905-5.905 36.584-16.248c2.729 1.681 5.495 3.295 8.295 4.843zm155.553-375.592c21.19 5.043 41.429 13.445 59.977 24.865l-10.905 4.844c-18.548-11.42-47.082-24.666-68.272-29.708l-15.31-39.772h19.201zm-200.433 13.461 5.905-5.905 38.974 17.31c-2.8 1.549-5.566 3.163-8.296 4.843zm286.087 0 13.296-5.905 45.934 45.933-17.304 38.961c11.424 18.551 19.826 38.798 24.87 59.993l39.762 15.306v64.96l-39.772 15.309c-5.043 21.19-13.445 41.429-24.866 59.977l17.309 38.973-45.933 45.935-13.296-5.905 40.027-40.03-17.309-38.973c11.421-18.548 19.822-38.787 24.865-59.977l39.772-15.309v-64.96l-39.762-15.305c-5.044-21.196-13.445-41.442-24.869-59.993l17.304-38.961zm-25.664 362.136c-18.551 11.424-38.797 19.826-59.992 24.869l-15.306 39.763h-19.2l15.305-39.763c21.195-5.043 49.737-18.289 68.287-29.713z" fill="#ffd064"/><ellipse cx="256" cy="256" fill="#eceff1" rx="123.192" ry="123.192" transform="matrix(.987 -.16 .16 .987 -37.701 44.312)"/><path d="m256 132.808c-68.043 0-123.193 55.149-123.193 123.192s55.15 123.192 123.193 123.192c2.81 0 5.596-.103 8.359-.288-64.144-4.297-114.835-57.671-114.835-122.904s50.691-118.607 114.834-122.904c-2.762-.185-5.548-.288-8.358-.288z" fill="#d1d1d6"/></g><g><path d="m281.859 303.698v-75.876h17.154c.803 0 1.49-.442 1.822-1.172.333-.73.216-1.539-.311-2.144l-41.503-47.733c-.787-.906-1.82-1.376-3.021-1.376s-2.233.471-3.021 1.376l-41.503 47.733c-.527.606-.644 1.414-.311 2.144.333.731 1.02 1.172 1.822 1.172h17.154v75.876c0 2.755 2.247 5.003 5.003 5.003h41.712c2.755-.001 5.003-2.248 5.003-5.003z" fill="#8ac9fe"/><path d="m281.859 303.698v-75.876h-10v75.876c0 2.755-2.247 5.003-5.003 5.003h10c2.755-.001 5.003-2.248 5.003-5.003zm7.153-75.876c.803 0 1.49-.442 1.822-1.172s.216-1.539-.311-2.144l-39.523-45.457 1.98-2.277c.788-.906 1.82-1.376 3.021-1.376s2.233.471 3.021 1.376l41.503 47.733c.527.606.644 1.414.311 2.144s-1.02 1.172-1.822 1.172h-10.002z" fill="#60b7ff"/></g></g><path d="m289.868 338.701c0 4.42-3.577 8-8.002 8h-51.714c-4.42 0-8.002-3.58-8.002-8 0-4.411 3.582-8 8.002-8h51.714c4.425 0 8.002 3.589 8.002 8zm-8.001-118.87c-4.42 0-7.997 3.58-7.997 8v72.87h-35.72v-72.87c0-4.42-3.577-8-7.997-8h-3.991l29.851-34.34 29.851 34.34zm-19.816-51.78c-1.52-1.75-3.723-2.751-6.039-2.751-2.321 0-4.523 1-6.044 2.751l-47.398 54.53c-2.061 2.361-2.551 5.711-1.247 8.561 1.294 2.85 4.147 4.69 7.277 4.69h13.551v72.868c0 4.42 3.582 8 8.002 8h51.714c4.424 0 8.002-3.58 8.002-8v-72.868h13.551c3.13 0 5.983-1.84 7.277-4.69 1.304-2.85.814-6.2-1.247-8.561zm-6.039 203.149c63.519 0 115.187-51.68 115.187-115.199 0-63.509-51.667-115.19-115.187-115.19-63.524 0-115.191 51.68-115.191 115.19-.001 63.519 51.667 115.199 115.191 115.199zm0-246.388c-72.34 0-131.195 58.849-131.195 131.189 0 72.339 58.855 131.199 131.195 131.199 72.335 0 131.19-58.86 131.19-131.199 0-72.34-58.855-131.189-131.19-131.189zm232.021 158.179v-53.969l-34.643-13.342c-2.495-.939-4.33-3.039-4.942-5.609-4.848-20.379-12.868-39.77-23.878-57.65-1.388-2.25-1.572-5.031-.499-7.439l15.067-33.941-38.159-38.17-33.96 15.08c-2.41 1.07-5.192.89-7.441-.5-17.877-11.01-37.269-19.05-57.626-23.889-2.57-.61-4.669-2.451-5.62-4.911l-13.33-34.648h-53.983l-13.33 34.648c-.951 2.46-3.05 4.301-5.615 4.911-20.362 4.839-39.755 12.879-57.631 23.889-2.25 1.39-5.032 1.57-7.441.5l-33.96-15.08-38.159 38.17 15.081 33.95c1.068 2.41.875 5.19-.504 7.441-11.009 17.879-19.049 37.269-23.897 57.639-.612 2.559-2.452 4.661-4.909 5.609l-34.644 13.341v53.969l34.642 13.33c2.457.951 4.288 3.05 4.9 5.621 4.848 20.379 12.897 39.77 23.897 57.65 1.388 2.24 1.572 5.029.499 7.439l-15.067 33.941 38.159 38.17 33.96-15.091c2.41-1.07 5.192-.879 7.441.5 17.877 11.012 37.269 19.05 57.631 23.9 2.565.611 4.664 2.451 5.615 4.911l13.33 34.64h53.983l13.33-34.63c.951-2.47 3.05-4.301 5.611-4.909 20.376-4.85 39.778-12.891 57.65-23.9 2.25-1.381 5.037-1.57 7.446-.5l33.942 15.08 38.159-38.17-15.081-33.961c-1.068-2.409-.875-5.189.504-7.439 11.009-17.881 19.039-37.271 23.887-57.63.612-2.57 2.448-4.67 4.895-5.609zm10.826-66.93-35.867-13.81c-4.942-19.17-12.52-37.489-22.612-54.58l15.599-35.16c1.365-3.021.706-6.561-1.647-8.901l-45.934-45.94c-2.325-2.341-5.869-2.99-8.896-1.649l-35.17 15.619c-17.091-10.07-35.41-17.66-54.562-22.619l-13.81-35.892c-1.191-3.087-4.161-5.13-7.47-5.13h-64.96c-3.309 0-6.279 2.043-7.47 5.13l-13.81 35.892c-19.152 4.959-37.472 12.549-54.562 22.619l-35.17-15.619c-3.027-1.351-6.571-.691-8.905 1.649l-45.935 45.94c-2.339 2.34-2.998 5.88-1.648 8.901l15.608 35.169c-10.059 17.09-17.66 35.41-22.617 54.571l-35.885 13.81c-3.088 1.189-5.126 4.149-5.126 7.459v64.961c0 3.309 2.038 6.281 5.126 7.47l35.871 13.81c4.971 19.17 12.572 37.49 22.631 54.579l-15.608 35.16c-1.351 3.021-.692 6.561 1.648 8.901l45.935 45.929c2.349 2.34 5.879 3 8.905 1.66l35.17-15.619c17.091 10.059 35.41 17.66 54.562 22.619l13.81 35.89c1.191 3.091 4.161 5.121 7.47 5.121h64.96c3.309 0 6.279-2.03 7.47-5.121l13.81-35.879c19.162-4.96 37.491-12.561 54.581-22.63l35.151 15.619c3.027 1.34 6.571.69 8.905-1.66l45.925-45.929c2.354-2.341 3.012-5.88 1.647-8.91l-15.599-35.16c10.044-17.101 17.669-35.421 22.612-54.571l35.867-13.81c3.107-1.189 5.13-4.161 5.13-7.47v-64.96c0-3.309-2.024-6.269-5.13-7.459z"/></g></svg>