<svg id="Layer_1" enable-background="new 0 0 512 512" viewBox="0 0 512 512" xmlns="http://www.w3.org/2000/svg"><g clip-rule="evenodd" fill-rule="evenodd"><g><g><g><path d="m319.151 465.145-.134-88.758c-.025-16.658 2.175-32.311 14.547-43.461 13.792-12.433 38.866-31.262 58.168-54.083 8.525-7.686 21.396-8.114 29.511.001 8.116 8.116 8.382 19.087.003 29.512l6.566-8.082c7.523-9.262 11.537-19.44 11.493-31.373l-.326-85.451c-.251-66.422 48.502-48.009 49.135-25.607l4.457 157.304c.408 14.467-4.801 27.031-15.036 37.264l-71.151 71.151v41.563c0 7.991-6.518 14.509-14.509 14.509h-58.214c-7.985-.001-14.498-6.506-14.51-14.489z" fill="#f6dccd"/><path d="m424.35 282.659c4.894 7.565 4.024 16.828-3.105 25.696-11.607 11.683-23.296 23.297-34.941 34.942-3.119 3.119-8.176 3.119-11.296 0-3.119-3.119-3.119-8.176 0-11.296z" fill="#f1cbbc"/><path d="m319.151 465.145-.134-88.759c-.025-16.658 2.175-32.311 14.547-43.461 7.379-6.652 17.987-15.135 29.213-25.08v171.789h-29.117c-7.984-.001-14.497-6.505-14.509-14.489z" fill="#f1cbbc"/><path d="m304.442 446.355 123.657 1.062c5.979.051 10.829 4.985 10.778 10.964l-.204 23.804c-.051 5.979-4.985 10.829-10.964 10.778l-123.657-1.062c-5.979-.052-10.829-4.986-10.778-10.965l.205-23.804c.05-5.978 4.984-10.828 10.963-10.777z" fill="#d1d1d6"/><path d="m384.496 455.584 21.887.188 21.643.186c5.967.051 10.809 4.965 10.778 10.928l.073-8.504c.051-5.979-4.799-10.913-10.778-10.964l-21.716-.186-43.606-.375-43.654-.375-14.681-.126c-5.179-.045-9.574 3.59-10.69 8.449l25.417.218 43.606.374 21.716.187z" fill="#b1b1b5"/></g><g><path d="m192.801 465.145.134-88.758c.025-16.658-2.175-32.311-14.547-43.461-13.792-12.433-38.866-31.262-58.167-54.083-8.525-7.686-21.396-8.114-29.511.001-8.116 8.116-8.382 19.087-.003 29.512l-6.566-8.082c-7.523-9.262-11.537-19.44-11.493-31.373l.326-85.451c.251-66.422-48.502-48.009-49.135-25.607l-4.457 157.304c-.408 14.467 4.801 27.031 15.036 37.264l71.151 71.151v41.563c0 7.991 6.518 14.509 14.509 14.509h58.214c7.984-.001 14.498-6.506 14.509-14.489z" fill="#f6dccd"/><path d="m87.603 282.659c-4.894 7.565-4.024 16.828 3.104 25.696 11.606 11.683 23.296 23.297 34.941 34.942 3.119 3.119 8.176 3.119 11.296 0 3.119-3.119 3.119-8.176 0-11.296z" fill="#f1cbbc"/><path d="m192.802 465.145.134-88.759c.025-16.658-2.175-32.311-14.547-43.461-7.379-6.652-17.987-15.135-29.213-25.08v171.789h29.117c7.983-.001 14.497-6.505 14.509-14.489z" fill="#f1cbbc"/><path d="m207.51 446.355-123.657 1.062c-5.979.051-10.829 4.985-10.778 10.964l.204 23.804c.051 5.979 4.985 10.829 10.965 10.778l123.657-1.062c5.979-.052 10.829-4.986 10.778-10.965l-.205-23.804c-.051-5.978-4.985-10.828-10.964-10.777z" fill="#d1d1d6"/><path d="m127.456 455.584-21.887.188-21.643.186c-5.967.051-10.809 4.965-10.778 10.928l-.073-8.504c-.051-5.979 4.799-10.913 10.778-10.964l21.716-.186 43.606-.375 43.654-.375 14.681-.126c5.179-.045 9.574 3.59 10.69 8.449l-25.417.218-43.606.374-21.716.187z" fill="#b1b1b5"/></g></g><g><path d="m320.874 169.904-49.054 40.68 26.307 61.08c.846 1.962 3.542 2.162 4.669.348l16.982-27.365 31.551 6.462c2.096.428 3.801-1.667 2.955-3.632z" fill="#fe646f"/><path d="m320.874 169.904-6.486 5.379 31.094 72.192c.365.848.255 1.719-.156 2.402l6.004 1.23c2.096.428 3.801-1.667 2.955-3.632zm-24.352 98.033 15.446-24.891 7.81 1.6-16.982 27.365c-1.126 1.815-3.824 1.614-4.669-.348z" fill="#fd4755"/><path d="m248.505 207.428-35.27 75.756c-.901 1.937-3.604 2.059-4.677.212l-16.181-27.846-31.726 5.544c-2.107.368-3.752-1.777-2.848-3.716l34.884-74.926z" fill="#fe646f"/><path d="m248.505 207.429-35.27 75.755c-.902 1.937-3.604 2.059-4.677.212l-16.181-27.846-31.726 5.544c-2.107.367-3.751-1.777-2.848-3.716l2.145-4.606 27.975-4.888 16.181 27.846c1.073 1.847 3.776 1.725 4.677-.212l33.084-71.06z" fill="#fd4755"/><path d="m269.432 20.711c21.09 15.786 16.307 14.045 42.61 15.509 10.103.562 18.308 7.447 20.616 17.299 2.18 9.305 3.246 21.037 10.35 27.704l12.322 11.565c7.378 6.924 9.238 17.473 4.673 26.503-11.884 23.51-11 18.498-7.874 44.655 1.201 10.047-4.155 19.323-13.456 23.307-24.216 10.371-20.317 7.099-34.736 29.146-5.538 8.468-15.603 12.131-25.289 9.204-25.216-7.621-20.127-7.621-45.344 0-9.686 2.927-19.751-.736-25.289-9.204-14.419-22.047-10.52-18.775-34.736-29.146-9.301-3.984-14.657-13.26-13.456-23.307 3.127-26.157 4.01-21.145-7.874-44.655-4.565-9.03-2.705-19.579 4.673-26.503 19.208-18.028 16.663-13.62 22.672-39.269 2.308-9.852 10.513-16.737 20.616-17.299 26.302-1.463 21.52.278 42.61-15.509 8.1-6.063 18.812-6.063 26.912 0z" fill="#ffe177"/><path d="m269.432 20.711c21.09 15.786 16.307 14.045 42.61 15.509 10.103.562 18.308 7.447 20.616 17.299 2.18 9.305 3.246 21.037 10.35 27.704l12.322 11.565c7.378 6.924 9.238 17.473 4.673 26.503-11.884 23.51-11 18.498-7.874 44.655 1.201 10.047-4.155 19.323-13.456 23.307-24.216 10.371-20.317 7.099-34.736 29.147-5.375 8.218-15.014 11.911-24.432 9.445 5.159-1.386 9.757-4.642 12.899-9.445 14.419-22.048 10.52-18.776 34.736-29.147 9.301-3.984 14.657-13.26 13.456-23.307-3.127-26.157-4.01-21.145 7.874-44.655 4.565-9.03 2.705-19.579-4.673-26.503l-12.322-11.565c-7.104-6.667-8.171-18.4-10.35-27.704-2.308-9.852-10.513-16.737-20.616-17.299-26.302-1.463-21.52.278-42.61-15.509-2.382-1.783-4.989-3.041-7.689-3.775 6.483-1.763 13.503-.505 19.222 3.775zm-19.223 199.914c-3.852.876-8.819 2.535-16.905 4.979-4.192 1.267-8.454 1.298-12.39.241.286-.075.571-.155.857-.241 17.131-5.178 20.277-6.836 28.438-4.979z" fill="#ffd064"/><ellipse cx="255.976" cy="121.381" fill="#eceff1" rx="62.846" ry="62.846" transform="matrix(.968 -.251 .251 .968 -22.263 68.09)"/><path d="m255.976 58.535c1.691 0 3.365.069 5.022.2-32.36 2.559-57.824 29.629-57.824 62.647s25.464 60.088 57.824 62.647c-1.657.131-3.331.199-5.022.199-34.709 0-62.846-28.137-62.846-62.846s28.137-62.847 62.846-62.847z" fill="#d1d1d6"/></g></g><path d="m413.525 103.362v-24.53c0-4.41 3.589-8 7.999-8 4.421 0 8 3.59 8 8v24.53c0 4.42-3.58 8.001-8.001 8.001-4.408-.001-7.999-3.58-7.998-8.001zm-41.29-41.29c0-4.42 3.579-8 7.999-8h24.53c4.41 0 8 3.58 8 8 0 4.41-3.59 8-8 8h-24.529c-4.42 0-8.001-3.59-8-8zm41.29-16.77v-24.53c0-4.42 3.589-7.999 7.999-7.999 4.421-.001 8 3.58 8 8v24.53c0 4.419-3.58 8-8.001 8-4.408-.001-7.999-3.58-7.998-8.001zm16.77 16.77c0-4.42 3.579-8 7.999-8h24.53c4.42 0 8 3.58 8 8 0 4.41-3.58 8-8 8h-24.529c-4.42 0-8.001-3.59-8-8zm-389.11 0c0-4.42 3.579-8 8-8h24.531c4.42 0 7.999 3.58 7.999 8 .001 4.41-3.58 8-8 8h-24.53c-4.421 0-8.001-3.59-8-8zm41.289 41.29v-24.53c0-4.41 3.59-8 8-8 4.42 0 8 3.59 8 8v24.53c0 4.42-3.58 8.001-8 8.001-4.41-.001-8-3.58-8-8.001zm0-58.06v-24.53c0-4.42 3.59-7.999 8-7.999 4.42-.001 8 3.58 8 8v24.53c0 4.419-3.58 8-8 8-4.41-.001-8-3.58-8-8.001zm16.771 16.77c0-4.42 3.579-8 7.999-8h24.53c4.42 0 8 3.58 8 8 .001 4.41-3.58 8-8 8h-24.53c-4.419 0-8-3.59-7.999-8zm188.28 37.37c2.97 3.281 2.719 8.341-.551 11.311l-35.04 31.8c-1.53 1.39-3.46 2.07-5.38 2.07-2.049-.001-4.1-.78-5.66-2.34l-16.14-16.15c-3.13-3.12-3.13-8.189 0-11.31 3.121-3.12 8.19-3.12 11.31 0l10.76 10.759 29.401-26.68c3.27-2.97 8.329-2.73 11.3.54zm-31.52 75.84c30.08.001 54.55-24.47 54.55-54.56 0-30.08-24.469-54.55-54.55-54.55-30.08 0-54.56 24.47-54.56 54.55-.001 30.09 24.479 54.56 54.56 54.56zm70.549-54.56c0-38.9-31.65-70.55-70.55-70.55-38.91 0-70.56 31.65-70.56 70.55 0 38.91 31.65 70.56 70.56 70.56 38.901 0 70.55-31.65 70.55-70.56zm-70.549 90.07c4.89 0 9.78 1.37 18.68 4.12 1.85.57 3.9 1.2 6.2 1.9 6.25 1.89 12.59-.43 16.16-5.89 1.32-2.01 2.481-3.82 3.53-5.43 10.11-15.66 11.451-16.79 28.63-24.02 1.77-.75 3.75-1.59 5.96-2.53 6-2.57 9.38-8.42 8.6-14.9-.28-2.39-.55-4.521-.79-6.43-2.32-18.5-2.01-20.22 6.49-36.8.88-1.72 1.86-3.631 2.95-5.78 2.94-5.82 1.77-12.47-2.99-16.94-1.76-1.64-3.33-3.1-4.74-4.41-13.67-12.68-14.54-14.19-18.69-32.37-.43-1.88-.9-3.97-1.45-6.31-1.49-6.35-6.659-10.69-13.18-11.06-2.4-.13-4.549-.24-6.47-.33-18.62-.93-20.259-1.53-35.12-12.78-1.53-1.17-3.24-2.46-5.17-3.91-5.22-3.91-11.979-3.911-17.2 0-1.93 1.45-3.64 2.739-5.18 3.91-14.85 11.25-16.489 11.85-35.11 12.78-1.93.09-4.069.2-6.47.33-6.52.37-11.689 4.7-13.18 11.06-.55 2.34-1.03 4.429-1.45 6.31-4.15 18.18-5.019 19.689-18.69 32.37-1.41 1.31-2.979 2.77-4.74 4.41-4.76 4.47-5.93 11.12-2.99 16.94 1.09 2.15 2.07 4.06 2.95 5.78 8.5 16.58 8.811 18.3 6.49 36.8-.24 1.91-.51 4.04-.8 6.43-.77 6.48 2.61 12.33 8.6 14.9 2.22.94 4.2 1.78 5.97 2.53 17.18 7.23 18.521 8.36 28.63 24.02 1.04 1.61 2.211 3.42 3.53 5.43 3.57 5.46 9.91 7.77 16.16 5.89 2.3-.7 4.35-1.33 6.19-1.9 8.909-2.75 13.8-4.12 18.69-4.12zm-45.45 58.28-10.939-18.82c-1.681-2.9-4.991-4.43-8.291-3.86l-21.439 3.75 21.33-45.83c1.71 2 3.669 5.04 6.78 9.86 1.061 1.64 2.24 3.46 3.57 5.51 5.811 8.87 15.45 13.84 25.59 13.74zm110.56-33.49c-3.281-.67-6.631.77-8.401 3.62l-11.479 18.49-10.65-24.74c7.95-1.45 15.159-6.09 19.849-13.27 1.34-2.04 2.52-3.87 3.58-5.51 4.19-6.5 6.3-9.76 8.5-11.6.79-.66 1.75-1.28 2.99-1.94l16.93 39.32zm-28.51 42.52c1.179 2.74 3.779 4.59 6.749 4.81.2.02.4.02.6.02 2.75 0 5.33-1.42 6.8-3.78l16.611-26.78 30.88 6.33c2.919.6 5.929-.479 7.809-2.79s2.32-5.48 1.14-8.22l-23.04-53.49c.43-.18.86-.36 1.31-.56 12.491-5.35 19.8-18.01 18.19-31.5-.289-2.43-.56-4.58-.8-6.52-.97-7.67-1.45-11.52-.95-14.35.5-2.84 2.27-6.29 5.8-13.16.891-1.74 1.88-3.68 2.98-5.86 6.13-12.13 3.6-26.52-6.31-35.82-1.78-1.67-3.38-3.15-4.81-4.48-5.669-5.26-8.51-7.9-9.95-10.39s-2.3-6.27-4.02-13.81c-.429-1.9-.92-4.02-1.47-6.4-3.099-13.23-14.3-22.63-27.87-23.38-2.44-.14-4.61-.25-6.56-.34-7.719-.391-11.6-.58-14.3-1.56-2.699-.991-5.79-3.33-11.95-8-1.56-1.181-3.3-2.49-5.25-3.96-10.879-8.14-25.5-8.14-36.38 0-1.959 1.47-3.69 2.78-5.25 3.96-6.16 4.669-9.25 7.01-11.95 8-2.7.979-6.58 1.17-14.3 1.56-1.949.09-4.12.2-6.56.34-13.569.75-24.77 10.15-27.87 23.38-.549 2.38-1.04 4.5-1.47 6.4-1.72 7.54-2.58 11.32-4.02 13.81s-4.29 5.13-9.95 10.39c-1.43 1.33-3.03 2.81-4.81 4.48-9.909 9.3-12.45 23.69-6.32 35.82 1.111 2.18 2.1 4.12 2.99 5.86 3.531 6.87 5.3 10.33 5.8 13.16.501 2.83.01 6.68-.95 14.35-.239 1.94-.51 4.1-.8 6.52-1.619 13.49 5.69 26.15 18.19 31.5 2.241.97 4.25 1.81 6.05 2.57.21.09.41.17.62.26l-28.31 60.81c-1.26 2.7-.91 5.88.9 8.24 1.821 2.37 4.8 3.53 7.73 3.02l31.05-5.43 15.83 27.25c1.44 2.47 4.08 3.98 6.92 3.98h.36c2.98-.14 5.64-1.92 6.89-4.62l28.42-61.041c4.25-1.27 6.86-1.91 9-1.91 2.88 0 6.58 1.15 13.97 3.43.731.22 1.5.46 2.3.71zm-90.24 191.26c1.51 3.83-.35 8.16-4.17 9.68-3.83 1.509-8.16-.35-9.67-4.17-1.519-3.83.34-8.16 4.16-9.67 3.83-1.52 8.159.341 9.68 4.16zm7.359 17.56c1.59-.01 2.93-1.37 2.91-2.97l-.201-23.96c-.01-1.05-.559-1.75-.89-2.07-.33-.32-1.029-.85-2.06-.85 0 0-.01 0-.02 0l-124.49 1.07c-1.05 0-1.749.56-2.07.88-.32.33-.86 1.04-.85 2.089l.2 23.96c.01 1.59 1.361 2.92 2.95 2.92h.021zm-97.449-60.78c0-2.12-.84-4.16-2.34-5.66l-71.63-71.63c-8.84-8.83-13.151-19.48-12.801-31.63l4.481-158.37c.189-6.46 7.989-12.93 15.549-12.93.071-.001.14 0 .21 0 11.18.179 17.81 14.56 17.72 38.45l-.33 86.03c-.05 13.54 4.32 25.53 13.37 36.68l5.911 7.24c.039.039.079.08.109.12.04.04.07.08.1.12 7.85 8.859 15.88 16.63 24.38 24.86 3.861 3.73 7.85 7.59 11.83 11.57 1.561 1.56 3.61 2.34 5.66 2.34 2.041 0 4.09-.78 5.65-2.34 3.131-3.13 3.13-8.19 0-11.32-4.069-4.06-8.1-7.97-12.01-11.75-8.179-7.92-15.92-15.41-23.29-23.7-5.08-6.86-5.04-12.95.13-18.12 4.86-4.86 12.67-4.85 18.33-.03 14.741 17.31 32.22 32.05 46.29 43.91 4.901 4.12 9.13 7.69 12.64 10.85 10.57 9.53 12.02 23.8 12 37.81l-.08 62.64-71.88.62v-15.76zm110.49 20.37c-3.62-3.55-8.351-5.46-13.441-5.44l-9.169.069.08-62.48c.02-16.861-2.021-35.95-17.291-49.71-3.71-3.35-8.24-7.16-13.04-11.2-13.73-11.58-30.83-25.99-44.77-42.48-.229-.27-.48-.53-.75-.77-11.93-10.75-29.81-10.63-40.73.28-1.38 1.389-2.6 2.85-3.66 4.36-.59-2.79-.87-5.67-.86-8.68l.331-86.03c.18-50.07-25.571-54.38-33.461-54.5-.16-.01-.31-.01-.47-.01-16.14 0-31.11 13.46-31.54 28.48l-4.49 158.36c-.46 16.5 5.58 31.51 17.479 43.4l69.291 69.29v12.59l-11.44.1c-5.05.04-9.791 2.05-13.34 5.67-3.549 3.61-5.49 8.38-5.44 13.43l.201 23.97c.089 10.39 8.569 18.78 18.949 18.78h.16l124.491-1.07c10.45-.09 18.869-8.66 18.779-19.109l-.2-23.96c-.049-5.05-2.06-9.789-5.669-13.34zm86.88 22.85c1.52-3.82 5.85-5.68 9.67-4.16 3.83 1.51 5.69 5.84 4.17 9.67-1.52 3.82-5.85 5.68-9.67 4.17-3.821-1.52-5.691-5.85-4.17-9.68zm18.21-28.08-.08-62.64c-.02-14 1.419-28.28 11.999-37.81 3.51-3.16 7.74-6.73 12.64-10.85 14.071-11.86 31.55-26.6 46.29-43.91 5.661-4.82 13.47-4.83 18.33.03 5.17 5.17 5.21 11.27.13 18.12-7.37 8.29-15.11 15.78-23.29 23.69-3.899 3.78-7.94 7.69-12.01 11.77-3.129 3.12-3.13 8.19 0 11.31 1.56 1.56 3.61 2.34 5.65 2.34 2.05 0 4.1-.78 5.66-2.34 3.981-3.98 7.97-7.84 11.83-11.58 8.5-8.22 16.53-15.99 24.37-24.84.04-.05.07-.09.11-.14.03-.04.07-.07.1-.11l5.931-7.26c9.039-11.13 13.409-23.12 13.359-36.66l-.329-86.03c-.09-23.89 6.539-38.27 17.719-38.45.07-.001.14 0 .21 0 7.551-.001 15.36 6.47 15.54 12.93l4.49 158.37c.34 12.15-3.96 22.8-12.801 31.63l-71.63 71.63c-1.5 1.5-2.34 3.54-2.34 5.66v15.76zm102.099 19.83c.02-1.6-1.319-2.96-2.919-2.97l-124.491-1.07c-.01 0-.02 0-.02 0-1.59 0-2.939 1.329-2.949 2.92l-.21 23.96c-.01 1.6 1.331 2.96 2.92 2.97l124.499 1.07h.02c1.03 0 1.73-.53 2.06-.85.33-.33.881-1.021.891-2.07zm55.07-100.95c11.9-11.89 17.94-26.9 17.47-43.4l-4.48-158.361c-.43-15.16-15.73-28.719-32.01-28.469-7.899.12-33.65 4.43-33.46 54.5l.331 86.03c.01 3.01-.27 5.89-.861 8.68-1.06-1.51-2.28-2.97-3.67-4.36-10.91-10.901-28.79-11.03-40.72-.28-.269.24-.52.5-.75.77-13.939 16.49-31.04 30.9-44.77 42.47-4.799 4.04-9.33 7.86-13.04 11.21-15.269 13.76-17.31 32.85-17.29 49.71l.081 62.48-9.171-.07c-.06 0-.11 0-.17 0-10.369 0-18.85 8.39-18.94 18.78l-.21 23.96c-.039 5.05 1.89 9.82 5.45 13.44 3.55 3.61 8.29 5.63 13.34 5.67l124.49 1.07c.06-.001.11 0 .17 0 4.98 0 9.69-1.93 13.26-5.44 3.621-3.56 5.63-8.29 5.68-13.34l.201-23.97c.09-10.44-8.331-19.01-18.781-19.1l-11.44-.1v-12.59z" fill="#242222"/></g></svg>