<svg height="512" viewBox="0 0 64 64" width="512" xmlns="http://www.w3.org/2000/svg"><g id="_15-google_play" data-name="15-google play"><rect fill="#e5e6e8" height="62" rx="6" width="62" x="1" y="1"/><path d="m57 1h-50a6 6 0 0 0 -6 6v10a22 22 0 0 0 22 22h18a22 22 0 0 0 22-22v-10a6 6 0 0 0 -6-6z" fill="#f2f2f2"/><path d="m57 1h-50a6 6 0 0 0 -6 6v4a6 6 0 0 1 6-6h50a6 6 0 0 1 6 6v-4a6 6 0 0 0 -6-6z" fill="#fafafa"/><path d="m57 59h-50a6 6 0 0 1 -6-6v4a6 6 0 0 0 6 6h50a6 6 0 0 0 6-6v-4a6 6 0 0 1 -6 6z" fill="#b8b8ba"/><path d="m49.28 28.99a3.494 3.494 0 0 1 0 6.02l-7.15 4.21-.13-.22-7-7 7-7 .13-.22z" fill="#ffdf64"/><path d="m14 53 21-21 7 7 .13.22-24.39 14.35a3.225 3.225 0 0 1 -1.6.43 3.138 3.138 0 0 1 -2.22-.92z" fill="#d74838"/><path d="m16.14 10a3.225 3.225 0 0 1 1.6.43l24.39 14.35-.13.22-7 7-21-21-.08-.08a3.138 3.138 0 0 1 2.22-.92z" fill="#62d96e"/><path d="m14 11 21 21-21 21-.08.08a3.138 3.138 0 0 1 -.92-2.22v-37.72a3.138 3.138 0 0 1 .92-2.22z" fill="#01b5ff"/><path d="m49.28 35.01-7.15 4.21-24.39 14.35a3.225 3.225 0 0 1 -1.6.43 3.141 3.141 0 0 1 -3.14-3.14v3a3.141 3.141 0 0 0 3.14 3.14 3.225 3.225 0 0 0 1.6-.43l24.39-14.35 7.15-4.21a3.474 3.474 0 0 0 1.374-4.51 3.473 3.473 0 0 1 -1.374 1.51z" fill="#b8b8ba"/><path d="m39.607 41.862 10.176-5.986a4.5 4.5 0 0 0 0-7.752l-31.538-18.552a4.144 4.144 0 0 0 -6.245 3.572v3.856h2v-3.856a2.127 2.127 0 0 1 .1-.626l19.486 19.482-19.486 19.482a2.127 2.127 0 0 1 -.1-.626v-27.856h-2v27.856a4.145 4.145 0 0 0 6.245 3.573l19.662-11.567-1.014-1.724-19.663 11.562a2.063 2.063 0 0 1 -1.712.192l19.482-19.478 5.564 5.564-1.97 1.16zm-24.089-30.762a2.127 2.127 0 0 1 .626-.1 2.151 2.151 0 0 1 1.087.3l23.333 13.721-5.564 5.565zm20.896 20.9 5.931-5.931 6.424 3.779a2.5 2.5 0 0 1 0 4.3l-6.425 3.78z"/><path d="m12 19h2v2h-2z"/><path d="m62 57a5.006 5.006 0 0 1 -5 5h-50a5.006 5.006 0 0 1 -5-5v-50a5.006 5.006 0 0 1 5-5h2v-2h-2a7.008 7.008 0 0 0 -7 7v50a7.008 7.008 0 0 0 7 7h50a7.008 7.008 0 0 0 7-7v-2h-2z"/><path d="m57 0h-42v2h42c4.351 0 5 5.639 5 9v42h2v-42c0-9.928-4.9-11-7-11z"/><path d="m11 0h2v2h-2z"/></g></svg>