<svg height="35" viewBox="0 0 64 64" width="35" xmlns="http://www.w3.org/2000/svg"><g id="Smartphone-Mobilephone-Payment-Online_Payment-Money" data-name="Smartphone-Mobilephone-Payment-Online Payment-Money"><rect fill="#5aaae7" height="58" rx="6" width="36" x="22" y="3"/><path d="m42 18v28a1 1 0 0 1 -1 1h-19v-30h19a1 1 0 0 1 1 1z" fill="#3d9ae2"/><path d="m40 20v20a5 5 0 0 0 -5 5h-6a5 5 0 0 0 -5-5v-20a5 5 0 0 0 5-5h6a5 5 0 0 0 5 5z" fill="#00ccb3"/><path d="m22 45h-3a1 1 0 0 1 -1-1v-28a1 1 0 0 1 1-1h3a1 1 0 0 0 -1 1v28a1 1 0 0 0 1 1z" fill="#009986"/><path d="m24 44v-28a1 1 0 0 1 1-1h-3a1 1 0 0 0 -1 1v28a1 1 0 0 0 1 1h3a1 1 0 0 1 -1-1z" fill="#00b39d"/><path d="m42 53a2.006 2.006 0 0 1 2 2 2.015 2.015 0 0 1 -2 2h-4a2.006 2.006 0 0 1 -2-2 2.015 2.015 0 0 1 2-2z" fill="#e6e7e8"/><path d="m29 45h-4a1 1 0 0 1 -1-1v-4a5 5 0 0 1 5 5z" fill="#009986"/><path d="m40 40v4a1 1 0 0 1 -1 1h-4a5 5 0 0 1 5-5z" fill="#009986"/><circle cx="32" cy="30" fill="#ffd422" r="4"/><path d="m26 23a1.955 1.955 0 0 1 -.59 1.41 2.005 2.005 0 0 1 -1.41.6l-4-.01a6 6 0 0 1 -.34 2 5.461 5.461 0 0 1 -.35.78 5.636 5.636 0 0 1 -.31.53 5.514 5.514 0 0 1 -1 1.15v9.54h-12v-16l5-.01 4-1.99h9a2.006 2.006 0 0 1 2 2z" fill="#ffc477"/><path d="m25 15h4a5 5 0 0 1 -5 5v-4a1 1 0 0 1 1-1z" fill="#009986"/><path d="m40 16v4a5 5 0 0 1 -5-5h4a1 1 0 0 1 1 1z" fill="#009986"/><path d="m52 2h-24a7.008 7.008 0 0 0 -7 7v3h2v-3a5.006 5.006 0 0 1 5-5h24a5.006 5.006 0 0 1 5 5v46a5.006 5.006 0 0 1 -5 5h-24a5.006 5.006 0 0 1 -5-5v-7h-2v7a7.008 7.008 0 0 0 7 7h24a7.008 7.008 0 0 0 7-7v-46a7.008 7.008 0 0 0 -7-7z"/><path d="m31 6h2v2h-2z"/><path d="m35 6h10v2h-10z"/><path d="m38 52a3 3 0 0 0 0 6h4a3 3 0 0 0 0-6zm5 3a1 1 0 0 1 -1 1h-4a1 1 0 0 1 0-2h4a1 1 0 0 1 1 1z"/><path d="m39 12v2h-20a2.006 2.006 0 0 0 -2 2v4h-2a1.138 1.138 0 0 0 -.45.1l-3.78 1.9h-4.77a1 1 0 0 0 -1 1v16a1 1 0 0 0 1 1h11v4a2.006 2.006 0 0 0 2 2h20v2h2v-36zm-14 4h2.87a4.013 4.013 0 0 1 -2.87 2.86zm-3 0h1v4h-1zm-3 0h1v4h-1zm1 28h-1v-14.13a6.761 6.761 0 0 0 .83-1.01c.07-.09.11-.19.17-.28zm3 0h-1v-18h1zm1-19.99-3-.01h-1a1 1 0 0 0 -1 1 4.935 4.935 0 0 1 -.58 2.33c-.08.15-.16.29-.25.43a4.938 4.938 0 0 1 -4.17 2.24l-.01 2h.05a7.056 7.056 0 0 0 2.64-.52c.11-.05.21-.12.32-.17v6.69h-10v-14h4a1 1 0 0 0 .45-.11l3.78-1.89h8.77a.957.957 0 0 1 .71.29.984.984 0 0 1 .29.7.954.954 0 0 1 -.31.72 1 1 0 0 1 -.69.3zm1 19.99v-2.86a4.017 4.017 0 0 1 2.86 2.86zm14 0h-2.86a4.017 4.017 0 0 1 2.86-2.86zm0-4.91a5.992 5.992 0 0 0 -4.91 4.91h-4.18a5.992 5.992 0 0 0 -4.91-4.91v-13.27a2.873 2.873 0 0 0 1.11-.7 2.982 2.982 0 0 0 .01-4.24 2.11 2.11 0 0 0 -.23-.19 6 6 0 0 0 4.02-4.69h4.18a5.992 5.992 0 0 0 4.91 4.91zm0-20.23a4.017 4.017 0 0 1 -2.86-2.86h2.86z"/><path d="m32 35a5 5 0 1 0 -5-5 5.006 5.006 0 0 0 5 5zm0-8a3 3 0 1 1 -3 3 3 3 0 0 1 3-3z"/></g></svg>