<svg width="60" height="60" version="1.1" id="Layer_1" xmlns="http://www.w3.org/2000/svg" xmlns:xlink="http://www.w3.org/1999/xlink" x="0px" y="0px"
	 viewBox="0 0 512 512" style="enable-background:new 0 0 512 512;" xml:space="preserve">
<style type="text/css">
	.st0{fill:#CBAFAF;}
	.st1{fill:#A7A2D3;}
	.st2{fill:#8078BC;}
	.st3{fill:#F1D0A5;}
	.st4{fill:#F1B986;}
	.st5{fill:#EFECEF;}
	.st6{fill:#D3CED5;}
	.st7{fill:#B78E8E;}
</style>
<g id="Capa_1">
	<path id="Vector" class="st0" d="M169.5,162.7h243.2v35.8H169.5V162.7z"/>
	<path id="Vector_2" class="st1" d="M131.3,7.5v174.9h38.2v-19.6h243.2v19.6h38.2V7.5H131.3z"/>
	<path id="Vector_3" class="st2" d="M410.9,7.5v128.4c0,14.6-11.8,26.4-26.4,26.4H131.3v20h38.2v-19.6h243.2v19.6h38.2V7.5H410.9z"
		/>
	<path id="Vector_4" class="st3" d="M371.8,408.5h6.9c13.3,0,24-10.7,24-24c0-13.3-10.7-24-24-24H370c13.3,0,24-10.7,24-24
		c0-13.3-10.7-24-24-24h-32.2v-24c0-13.3-10.7-24-24-24h-6v48h-38.4v-48h-19.2c-30.1,0-57.6,11.1-78.7,29.4
		c-8.2,7.1-18.8,10.9-29.7,10.9h-19.5v159.6h19.5c10.9,0,21.5,3.8,29.7,10.9c21.1,18.3,48.6,29.4,78.7,29.4h97.6
		c13.3,0,24-10.7,24-24c0-13.3-10.7-24-24-24h24c13.3,0,24-10.7,24-24C395.8,419.2,385.1,408.5,371.8,408.5z"/>
	<path id="Vector_5" class="st4" d="M371.8,408.5h6.3c13.5,0,24.8-11,24.5-24.5c-0.2-13-10.9-23.5-24-23.5H370
		c13.1,0,23.8-10.5,24-23.5c0.3-13.5-11.1-24.5-24.5-24.5h-31.6v-24c0-6.1-2.3-11.7-6-15.9v147.1c0,35.8-29.1,64.9-64.9,64.9h-56.8
		c-11.3,0-22.3-1.6-32.7-4.5c20.2,15.4,45.4,24.5,72.7,24.5h97.6c13.3,0,24-10.7,24-24c0-13.3-10.7-24-24-24h23.5
		c13.5,0,24.8-11,24.5-24.5C395.6,419,384.9,408.5,371.8,408.5z"/>
	<path id="Vector_6" class="st5" d="M61.1,291.5h61.2v186H61.1V291.5z"/>
	<path id="Vector_7" class="st6" d="M92.3,291.5v143.8c0,12.2-9.9,22.1-22.1,22.1h-9v20h61.2v-186H92.3z"/>
	<path id="Vector_8" class="st7" d="M269.4,198.6h38.4v113.9h-38.4V198.6z"/>
	<path id="Vector_9" d="M450.9,29.6c4.1,0,7.5-3.4,7.5-7.5V7.5c0-4.1-3.4-7.5-7.5-7.5H131.3c-4.1,0-7.5,3.4-7.5,7.5v174.9
		c0,4.1,3.4,7.5,7.5,7.5H162v8.7c0,4.1,3.4,7.5,7.5,7.5h92.4v50.9h-11.7c-30.7,0-60.4,11.1-83.6,31.2c-6.7,5.8-15.5,9-24.8,9h-12
		v-5.7c0-4.1-3.4-7.5-7.5-7.5H61.1c-4.1,0-7.5,3.4-7.5,7.5v186c0,4.1,3.4,7.5,7.5,7.5h61.2c4.1,0,7.5-3.4,7.5-7.5v-5.7h12
		c9.3,0,18.1,3.2,24.8,9c23.2,20.1,52.9,31.2,83.6,31.2h97.6c17.4,0,31.5-14.1,31.5-31.5c0-6.1-1.7-11.8-4.8-16.6
		c16.1-1.4,28.8-14.9,28.8-31.4c0-8.1-3.1-15.6-8.2-21.2c9-5.5,15-15.5,15-26.9c0-11.8-6.6-22.2-16.2-27.5
		c4.7-5.5,7.6-12.7,7.6-20.5c0-17.4-14.1-31.5-31.5-31.5h-24.7v-16.5c0-16.9-13.3-30.7-30-31.5v-50.9h97.4c4.1,0,7.5-3.4,7.5-7.5
		v-8.7h30.7c4.1,0,7.5-3.4,7.5-7.5V57.1c0-4.1-3.4-7.5-7.5-7.5s-7.5,3.4-7.5,7.5v117.8h-23.2v-12.1c0-4.1-3.4-7.5-7.5-7.5H230.8
		c-4.1,0-7.5,3.4-7.5,7.5s3.4,7.5,7.5,7.5h174.4v20.8c-34.3,0-198.1,0-228.2,0v-20.8h18.8c4.1,0,7.5-3.4,7.5-7.5s-3.4-7.5-7.5-7.5
		h-26.3c-4.1,0-7.5,3.4-7.5,7.5v12.1h-23.2V15h304.6v7.1C443.4,26.2,446.8,29.6,450.9,29.6z M370,320c9.1,0,16.5,7.4,16.5,16.5
		S379.1,353,370,353c0,0-48.8,0-48.8,0c-4.1,0-7.5,3.4-7.5,7.5c0,4.1,3.4,7.5,7.5,7.5h57.5c9.1,0,16.5,7.4,16.5,16.5
		c0,9.1-7.4,16.5-16.5,16.5c-14.2,0-42.2,0-57.5,0c-4.1,0-7.5,3.4-7.5,7.5c0,4.1,3.4,7.5,7.5,7.5h50.6c9.1,0,16.5,7.4,16.5,16.5
		s-7.4,16.5-16.5,16.5c-16.3,0-35,0-50.6,0c-4.1,0-7.5,3.4-7.5,7.5c0,4.1,3.4,7.5,7.5,7.5h26.6c9.1,0,16.5,7.4,16.5,16.5
		c0,9.1-7.4,16.5-16.5,16.5h-97.6c-27.1,0-53.3-9.8-73.7-27.5c-9.4-8.2-21.7-12.7-34.6-12.7h-12v-17.7c0-4.1-3.4-7.5-7.5-7.5
		c-4.1,0-7.5,3.4-7.5,7.5V470H68.6V299h46.2v105.1c0,4.1,3.4,7.5,7.5,7.5c4.1,0,7.5-3.4,7.5-7.5v-91.9h12c12.9,0,25.2-4.5,34.6-12.7
		c20.4-17.7,46.6-27.5,73.7-27.5h11.7v33h-12.7c-4.1,0-7.5,3.4-7.5,7.5s3.4,7.5,7.5,7.5C323.5,320,296.1,320,370,320z M330.3,288.4
		V305h-15V272C323.7,272.8,330.3,279.9,330.3,288.4z M300.3,206.1V305h-23.4v-98.9H300.3z"/>
	<path id="Vector_10" d="M260.8,64.9c0-12.9-10.5-23.4-23.4-23.4H208c-4.1,0-7.5,3.4-7.5,7.5v74.4c0,4.1,3.4,7.5,7.5,7.5h29.3
		c12.9,0,23.4-10.5,23.4-23.4v-5.4c0-6.1-2.4-11.7-6.2-15.9c3.9-4.2,6.2-9.8,6.2-15.9V64.9z M215.5,56.5h21.8c4.6,0,8.4,3.8,8.4,8.4
		v5.4c0,4.6-3.8,8.4-8.4,8.4h-21.8V56.5z M245.8,107.6c0,4.6-3.8,8.4-8.4,8.4h-21.8V93.8h21.8c4.6,0,8.4,3.8,8.4,8.4V107.6z"/>
	<path id="Vector_11" d="M328.9,41.5c-4.1,0-7.5,3.4-7.5,7.5v74.4c0,4.1,3.4,7.5,7.5,7.5h26.6c14.4,0,26.1-11.7,26.1-26.1V67.7
		c0-14.4-11.7-26.1-26.1-26.1H328.9z M366.7,67.7v37.2c0,6.1-5,11.1-11.1,11.1h-19.1V56.5h19.1C361.7,56.5,366.7,61.5,366.7,67.7z"
		/>
	<path id="Vector_12" d="M283.6,49v74.4c0,4.1,3.4,7.5,7.5,7.5s7.5-3.4,7.5-7.5V49c0-4.1-3.4-7.5-7.5-7.5S283.6,44.9,283.6,49z"/>
</g>
</svg>
