<svg width="60" height="60" version="1.1" id="Layer_1" xmlns="http://www.w3.org/2000/svg" xmlns:xlink="http://www.w3.org/1999/xlink" x="0px" y="0px"
	 viewBox="0 0 512 512" style="enable-background:new 0 0 512 512;" xml:space="preserve">
<style type="text/css">
	.st0{fill:#8099FF;}
	.st1{fill:#6B88FF;}
	.st2{fill:#8986A6;}
	.st3{fill:#DADDED;}
	.st4{fill:#FDEF85;}
	.st5{fill:#D6F3FF;}
	.st6{fill:#BAEBFF;}
	.st7{fill:#FDE73F;}
	.st8{fill:#FFFFFF;}
	.st9{fill:#C7FF80;}
	.st10{fill:#A9F745;}
	.st11{fill:#FF5757;}
	.st12{fill:#F23838;}
	.st13{fill:#060606;}
</style>
<g id="Layer_1_1_">
	<g id="Group">
		<g id="Group_2">
			<g id="Group_3">
				<g id="Group_4">
					<g id="Group_5">
						<g id="Group_6">
							<path id="Vector" class="st0" d="M98.4,440v-46.4c0-9.6,2.7-18.9,7.9-27l24.6-38.5l125-17.2l125,17.2l24.6,38.5
								c5.2,8.1,7.9,17.4,7.9,27V440l-157.5,15.3L98.4,440z"/>
							<path id="Vector_2" class="st1" d="M405.6,366.6l-24.6-38.5h-40l24.6,38.5c5.2,8.1,7.9,17.4,7.9,27V440h40v-46.4
								C413.5,384,410.7,374.7,405.6,366.6z"/>
							<path id="Vector_3" class="st2" d="M98.4,470.6v24.6c0,5.1,4.2,9.3,9.3,9.3h28.7c5.1,0,9.3-4.2,9.3-9.3v-35.9H98.4
								L98.4,470.6z"/>
							<path id="Vector_4" class="st2" d="M366.2,470.6v24.6c0,5.1,4.2,9.3,9.3,9.3h28.7c5.1,0,9.3-4.2,9.3-9.3v-35.9h-47.3
								L366.2,470.6L366.2,470.6z"/>
							<path id="Vector_5" class="st3" d="M418.4,470.6H93.6c-5.2,0-9.5-4.2-9.5-9.5v-11.7c0-5.2,4.2-9.5,9.5-9.5h324.9
								c5.2,0,9.5,4.2,9.5,9.5v11.7C427.9,466.4,423.6,470.6,418.4,470.6z"/>
						</g>
					</g>
					<g id="Group_7">
						<path id="Vector_6" class="st4" d="M148.6,397.5c21.6,0,41.2,12.8,49.9,32.6l4.4,10h-74l0.4-23.6
							C129.4,405.9,138,397.5,148.6,397.5z"/>
						<path id="Vector_7" class="st4" d="M363.4,397.5c-21.6,0-41.2,12.8-49.9,32.6l-4.4,10h74l-0.4-23.6
							C382.6,405.9,374,397.5,363.4,397.5z"/>
					</g>
					<g id="Group_8">
						<path id="Vector_8" class="st0" d="M402.8,338.2c13.9,0,25.1-7.7,25.1-17.1c0-9.4-11.2-17.1-25.1-17.1
							c-13.9,0-25.1,7.7-25.1,17.1C377.6,330.6,388.9,338.2,402.8,338.2z"/>
						<path id="Vector_9" class="st0" d="M109.2,338.2c13.9,0,25.1-7.7,25.1-17.1c0-9.4-11.2-17.1-25.1-17.1s-25.1,7.7-25.1,17.1
							C84.1,330.6,95.4,338.2,109.2,338.2z"/>
					</g>
				</g>
				<g id="Group_9">
					<path id="Vector_10" class="st0" d="M330.2,225.7H181.7c-15.2,0-28.4,10.4-32,25.2L256,267l106.2-16.2
						C358.6,236.1,345.4,225.7,330.2,225.7z"/>
					<path id="Vector_11" class="st1" d="M330.2,225.7h-40c15.2,0,28.4,10.4,32,25.2h40C358.6,236.1,345.4,225.7,330.2,225.7z"/>
					<path id="Vector_12" class="st5" d="M149.7,250.8l-18.8,77.3h250l-18.8-77.3H149.7z"/>
					<path id="Vector_13" class="st6" d="M362.2,250.8h-40l18.8,77.3h40L362.2,250.8z"/>
				</g>
			</g>
			<g id="Group_10">
				<path id="Vector_14" class="st4" d="M24.7,113.4C14,102.1,7.5,86.9,7.5,70.2c0-34.7,28.1-62.8,62.8-62.8S133,35.6,133,70.2
					c0,16.8-6.6,32-17.3,43.2L24.7,113.4z"/>
				<path id="Vector_15" class="st7" d="M115.7,113.5C126.4,102.2,133,87,133,70.2c0-34.7-28.1-62.8-62.8-62.8c-7,0-13.7,1.2-20,3.3
					C75.1,19.1,93,42.6,93,70.2c0,6.9-1.1,13.6-3.2,19.8L115.7,113.5z"/>
				<g id="Group_11">
					<g id="Group_12">
						<path id="Vector_16" class="st8" d="M70.3,133c17.9,0,34-7.5,45.5-19.5c-9.3-16.3-26.1-27.3-45.5-27.3
							c-19.7,0-36.8,11-45.6,27.1C36.1,125.4,52.3,133,70.3,133z"/>
					</g>
					<path id="Vector_17" class="st8" d="M70.2,86.4c13.4,0,24.2-10.8,24.2-24.2C94.5,48.8,83.6,38,70.2,38C56.9,38,46,48.8,46,62.2
						C46,75.5,56.9,86.4,70.2,86.4z"/>
				</g>
			</g>
			<g id="Group_13">
				<path id="Vector_18" class="st9" d="M210.4,113.4c-10.6-11.2-17.2-26.4-17.2-43.1c0-34.7,28.1-62.8,62.8-62.8
					c34.7,0,62.7,28.1,62.7,62.8c0,16.8-6.6,32-17.3,43.2L210.4,113.4z"/>
				<path id="Vector_19" class="st10" d="M301.5,113.5c10.7-11.3,17.3-26.5,17.3-43.2c0-34.7-28.1-62.8-62.8-62.8
					c-7,0-13.7,1.2-20,3.3c24.8,8.4,42.7,31.8,42.7,59.5c0,6.9-1.1,13.6-3.2,19.8L301.5,113.5z"/>
				<g id="Group_14">
					<g id="Group_15">
						<path id="Vector_20" class="st8" d="M256,133c17.9,0,34-7.5,45.5-19.5c-9.3-16.3-26.1-27.3-45.5-27.3
							c-19.7,0-36.8,11-45.6,27.1C221.9,125.4,238,133,256,133z"/>
					</g>
					<path id="Vector_21" class="st8" d="M256,86.4c13.4,0,24.2-10.8,24.2-24.2c0-13.4-10.8-24.2-24.2-24.2s-24.2,10.8-24.2,24.2
						C231.8,75.5,242.6,86.4,256,86.4z"/>
				</g>
			</g>
			<g id="Group_16">
				<path id="Vector_22" class="st11" d="M504.5,70.2c0,16.8-6.6,32-17.3,43.2c-11.4,12-27.6,4.8-45.5,4.8c-18,0-34.2,7.2-45.6-4.9
					C385.5,102.1,379,86.9,379,70.2c0-34.7,28.1-62.8,62.8-62.8S504.5,35.6,504.5,70.2z"/>
				<path id="Vector_23" class="st12" d="M441.8,7.5c-7,0-13.7,1.2-20,3.3c24.8,8.4,42.7,31.8,42.7,59.5c0,9-1.9,17.5-5.3,25.3
					c-7.1,16.1,16.6,30,28,18c10.7-11.3,17.3-26.5,17.3-43.2C504.5,35.6,476.4,7.5,441.8,7.5z"/>
				<g id="Group_17">
					<g id="Group_18">
						<path id="Vector_24" class="st8" d="M441.8,133c17.9,0,34-7.5,45.5-19.5c-9.3-16.3-26.1-27.3-45.5-27.3
							c-19.7,0-36.8,11-45.6,27.1C407.6,125.4,423.8,133,441.8,133z"/>
					</g>
					<path id="Vector_25" class="st8" d="M441.7,86.4c13.4,0,24.2-10.8,24.2-24.2c0-13.4-10.8-24.2-24.2-24.2
						c-13.4,0-24.2,10.8-24.2,24.2C417.5,75.5,428.4,86.4,441.7,86.4z"/>
				</g>
			</g>
		</g>
		<g id="Group_19">
			<path id="Vector_26" class="st13" d="M286.3,403.4h-60.5c-4.1,0-7.5,3.4-7.5,7.5s3.4,7.5,7.5,7.5h60.5c4.1,0,7.5-3.4,7.5-7.5
				S290.4,403.4,286.3,403.4z"/>
			<path id="Vector_27" class="st13" d="M492.9,118.3c11.8-12.6,19.1-29.5,19.1-48.1C512,31.5,480.5,0,441.7,0
				c-38.7,0-70.2,31.5-70.2,70.2c0,35.4,27.5,66.2,62.7,69.9v80.5c0,12.5-10.2,22.7-22.7,22.7h-43.9c-6.1-15.1-20.8-25.2-37.4-25.2
				h-66.7v-78.1c35.2-3.7,62.8-34.4,62.8-69.9C326.2,31.5,294.7,0,256,0c-38.7,0-70.2,31.5-70.2,70.2c0,35.4,27.5,66.2,62.7,69.9
				v78.1h-66.8c-16.7,0-31.3,10.1-37.4,25.2H99.9c-12.5,0-22.7-10.2-22.7-22.7v-80.4c35.5-3.4,63.4-34.2,63.4-69.9
				C140.5,31.5,109,0,70.2,0c-9.4,0-9.8,15,0,15c30.5,0,55.2,24.8,55.2,55.2c0,11.3-3.4,21.9-9.3,30.7c-6.2-7.5-14-13.4-22.6-17.3
				c5.2-5.7,8.4-13.2,8.4-21.5c0-17.5-14.2-31.7-31.7-31.7c-17.5,0-31.7,14.2-31.7,31.7c0,8.2,3.1,15.7,8.3,21.4
				c-8.8,3.8-16.6,9.6-22.7,17.2C18.4,91.9,15,81.5,15,70.2c0-17.6,8.1-33.7,22.2-44.2c7.5-5.6-1.1-17.9-9-12
				C10.3,27.4,0,47.9,0,70.2C0,105.5,27.2,136,62.1,140v80.6c0,20.8,16.9,37.7,37.7,37.7h40.3l-10.6,43.5
				c-5.5-3.3-12.6-5.3-20.4-5.3c-18.3,0-32.6,10.8-32.6,24.6c0,17.1,19.7,25,34.2,24.6L100,362.6c-5.9,9.3-9.1,20-9.1,31v39.2
				c-8.1,1.3-14.3,8.3-14.3,16.7v11.7c0,8.4,6.2,15.4,14.3,16.7v17.3c0,9.3,7.5,16.8,16.8,16.8h28.7c9.3,0,16.8-7.5,16.8-16.8v-17.1
				h148.3c9.4,0,9.8-15,0-15H145.7H93.6c-1.1,0-2-0.9-2-2v-11.7c0-1.1,0.9-2,2-2h324.9c1.1,0,2,0.9,2,2v11.7c0,1.1-0.9,2-2,2h-52.3
				h-19.3c-9.4,0-9.8,15,0,15h11.8v17.1c0,9.3,7.5,16.8,16.8,16.8h28.7c9.3,0,16.8-7.5,16.8-16.8v-17.3c8.1-1.2,14.4-8.3,14.4-16.7
				v-11.7c0-8.5-6.3-15.5-14.4-16.7v-39.1c0-11-3.1-21.7-9.1-31l-10.8-16.9c0.6,0,1.1,0,1.7,0c18.3,0,32.6-10.8,32.6-24.6
				c0-13.8-14.3-24.6-32.6-24.6c-7.8,0-14.9,2-20.5,5.3l-10.6-43.5h39.8c20.8,0,37.7-16.9,37.7-37.7v-80.5
				C465.3,138.4,482.3,130.8,492.9,118.3z M253.3,125.4c-12.1-0.6-24.1-5.4-33.3-13.3c7.8-10.9,20.2-17.6,33.6-18.3
				c1.6,0.1,3.1,0.1,4.7,0c13.3,0.7,25.3,7.4,33.5,18.5C281.2,121.3,267.2,126.1,253.3,125.4z M239.3,62.2c0-9.2,7.5-16.7,16.7-16.7
				c9.2,0,16.7,7.5,16.7,16.7c0,8.5-6.4,15.6-14.7,16.6c-0.7,0-1.3,0-2,0c-0.7,0-1.3,0-2,0C245.7,77.7,239.3,70.7,239.3,62.2z
				 M256,15c30.5,0,55.2,24.8,55.2,55.2c0,11.3-3.4,21.9-9.3,30.7c-6.2-7.5-14-13.4-22.6-17.3c5.2-5.7,8.4-13.2,8.4-21.5
				c0-17.5-14.2-31.7-31.7-31.7s-31.7,14.2-31.7,31.7c0,8.2,3.1,15.7,8.3,21.4c-8.8,3.8-16.6,9.6-22.7,17.2
				c-5.8-8.7-9.2-19.2-9.2-30.4C200.7,39.8,225.5,15,256,15z M53.5,62.2c0-9.2,7.5-16.7,16.7-16.7c9.2,0,16.7,7.5,16.7,16.7
				c0,8.5-6.4,15.6-14.7,16.6c-0.7,0-1.3,0-2,0c-0.7,0-1.3,0-2,0C60,77.7,53.5,70.7,53.5,62.2z M67.9,93.8
				c15.5,1.1,28.5,5.4,38.1,18.5c-20.3,17.3-51.5,17.3-71.8-0.2C42.1,101.3,54.6,94.5,67.9,93.8z M370.2,320.7H141.8
				c0-1.3-0.2-2.5-0.5-3.7l14.2-58.6h200.7l14.3,58.8C370.3,318.3,370.2,319.5,370.2,320.7z M181.7,233.2h148.5
				c8.2,0,15.7,3.9,20.4,10.2H161.3C166,237.1,173.5,233.2,181.7,233.2z M109.2,330.7c-10.1,0-17.6-5.1-17.6-9.6
				c0-4.5,7.5-9.6,17.6-9.6c9.6,0,21,5.3,13.5,15.5C119.6,329.2,114.8,330.7,109.2,330.7z M138.2,478.1v17.1c0,1-0.8,1.8-1.8,1.8
				h-28.7c-1,0-1.8-0.8-1.8-1.8v-17.1H138.2z M136.5,432.5l0.2-15.9c0.1-6.4,5.4-11.6,11.8-11.6c18.5,0,35.2,10.8,42.8,27.6
				L136.5,432.5z M320.6,432.5c7.6-16.8,24.3-27.6,42.8-27.6c6.4,0,11.7,5.2,11.8,11.6l0.2,15.9L320.6,432.5L320.6,432.5z
				 M406,495.2c0,1-0.8,1.8-1.8,1.8h-28.7c-1,0-1.8-0.8-1.8-1.8v-17.1H406V495.2z M399.3,370.7c4.4,6.9,6.7,14.8,6.7,22.9v38.9
				h-15.5l-0.2-16.2C390,401.8,378,390,363.4,390c-24.6,0-46.9,14.6-56.8,37.1l-2.4,5.5h-96.4l-2.4-5.5
				c-9.9-22.5-32.2-37.1-56.8-37.1c-14.6,0-26.6,11.8-26.8,26.4l-0.2,16.2h-15.6v-38.9c0-8.1,2.3-16.1,6.7-22.9
				c7.3-11.4,23.1-35,23.1-35h240.6C376.3,335.7,392,359.3,399.3,370.7z M402.8,311.6c10.1,0,17.6,5.1,17.6,9.6
				c0,4.5-7.5,9.6-17.6,9.6C383,330.7,382,311.6,402.8,311.6z M441.7,15c30.5,0,55.2,24.8,55.2,55.2c0,11.3-3.4,21.9-9.3,30.7
				c-6.2-7.5-14-13.4-22.6-17.3c5.2-5.7,8.4-13.2,8.4-21.5c0-17.5-14.2-31.7-31.7-31.7c-17.5,0-31.7,14.2-31.7,31.7
				c0,8.2,3.1,15.7,8.3,21.4c-8.8,3.8-16.6,9.6-22.7,17.2c-5.8-8.7-9.2-19.2-9.2-30.4C386.5,39.8,411.3,15,441.7,15z M450.3,124.8
				c-15.8,2.4-32.3-2.2-44.5-12.7c7.8-10.9,20.2-17.6,33.6-18.3c1.6,0.1,3.1,0.1,4.7,0c13.3,0.7,25.3,7.4,33.5,18.5
				C469.9,118.8,460.6,123.2,450.3,124.8z M425,62.2c0-9.2,7.5-16.7,16.7-16.7c9.2,0,16.7,7.5,16.7,16.7c0,8.5-6.4,15.6-14.7,16.6
				c-0.7,0-1.3,0-2,0c-0.7,0-1.3,0-2,0C431.5,77.7,425,70.7,425,62.2z"/>
		</g>
	</g>
</g>
</svg>
