<svg width="60" height="60" version="1.1" id="Layer_1" xmlns="http://www.w3.org/2000/svg" xmlns:xlink="http://www.w3.org/1999/xlink" x="0px" y="0px"
	 viewBox="0 0 512 512" style="enable-background:new 0 0 512 512;" xml:space="preserve">
<style type="text/css">
	.st0{fill:#8176BE;}
	.st1{fill:#16191E;}
	.st2{fill:#EFCBBD;}
	.st3{fill:#8E7E8D;}
	.st4{fill:#F45876;}
	.st5{fill:#FF94B3;}
	.st6{fill:#6ED3FF;}
	.st7{fill:#FFCE44;}
</style>
<g id="Layer_4">
	<g>
		<g>
			<circle class="st0" cx="443" cy="457.6" r="45.3"/>
			<path class="st1" d="M443,512c-30,0-54.4-24.4-54.4-54.4s24.4-54.4,54.4-54.4c30,0,54.4,24.4,54.4,54.4S473,512,443,512z
				 M443,421.4c-20,0-36.3,16.3-36.3,36.3s16.3,36.3,36.3,36.3s36.3-16.3,36.3-36.3S463,421.4,443,421.4z"/>
		</g>
		<g>
			<path class="st2" d="M296.8,102.5c16.8,5.6,34.2-6.9,34.2-24.7V36.9l-34.2-20l-27.2,43.5L296.8,102.5z"/>
			<path class="st1" d="M305.1,112.9c-3.7,0-7.5-0.6-11.2-1.8c-2-0.7-3.6-1.9-4.7-3.7l-27.2-42.1c-1.9-3-1.9-6.7-0.1-9.7l27.2-43.5
				c2.6-4.1,8-5.5,12.3-3l34.2,20.1c2.8,1.6,4.5,4.6,4.5,7.8v40.8c0,11.4-5.3,21.8-14.6,28.5C319.4,110.6,312.3,112.9,305.1,112.9
				L305.1,112.9z M302.5,94.5c4.4,0.7,8.8-0.4,12.5-3c4.5-3.2,7-8.2,7-13.7V42.1l-22.2-13l-19.5,31.1L302.5,94.5z"/>
		</g>
		<g>
			<path class="st2" d="M212,36.9v40.8c0,17.8-17.4,30.3-34.2,24.7l-33-32.1l33-53.5L212,36.9z"/>
			<path class="st1" d="M186.1,112.9c-3.7,0-7.5-0.6-11.2-1.8c-1.3-0.4-2.5-1.2-3.5-2.1l-33-32.1c-3-3-3.6-7.6-1.4-11.3l33-53.5
				c2.6-4.2,8-5.6,12.3-3.1l34.2,20.1c2.8,1.6,4.5,4.6,4.5,7.8v40.8c0,11.4-5.3,21.8-14.6,28.5C200.4,110.6,193.3,112.9,186.1,112.9
				L186.1,112.9z M182.4,94.4c4.7,1,9.5,0,13.5-2.8c4.5-3.2,7-8.2,7-13.7V42.1l-22.1-12.9L156.3,69L182.4,94.4z"/>
		</g>
		<g>
			<path class="st3" d="M300.1,312.4c-5.1,0-127.4,0-133.4,0c-18.8,0-39.9,0-47.1,0c-6.7,0-12.3-5.4-12.3-12c0-3.8,0-8,0-12
				c0-6.6,2.7-12.7,7.2-17.2c2.2-2.2,205.3-19.6,208-20.7L300.1,312.4z"/>
			<path class="st1" d="M300.1,321.5H119.6c-11.8,0-21.4-9.5-21.4-21.1v-12c0-8.9,3.5-17.2,9.9-23.6c3.5-3.5,3.6-3.6,138.9-16.1
				c33.9-3.1,69-6.4,73.5-7.1c2.9-0.7,6.1,0.1,8.3,2.2c2.6,2.5,3.5,6.3,2.3,9.7l-22.5,62.1C307.3,319.1,303.9,321.5,300.1,321.5
				L300.1,321.5z M119.4,279.4c-2,2.6-3,5.8-3,9v12c0,1.6,1.5,3,3.2,3h174.1l15.4-42.4c-10.9,1.1-29.1,2.8-60.4,5.6
				C202.2,270.9,133.6,277.3,119.4,279.4L119.4,279.4z"/>
		</g>
		<g>
			<path class="st0" d="M234.5,454.7c-1.5,26.9-23.9,48.3-51.1,48.3c-26.8,0-48.7-20.5-51-46.7"/>
			<path class="st1" d="M183.4,512c-31,0-57.4-24.2-60.1-55c-0.4-5,3.3-9.4,8.2-9.8c5-0.5,9.4,3.3,9.8,8.2
				c1.9,21.6,20.3,38.4,42,38.4c22.3,0,40.8-17.4,42.1-39.7c0.3-5,4.6-8.8,9.6-8.5c5,0.3,8.8,4.6,8.5,9.6
				C241.8,487,215.3,512,183.4,512L183.4,512z"/>
		</g>
		<g>
			<path class="st4" d="M451.8,396.6l-23.7-147h22.6c3.5,0,6.7-1.3,9.1-3.7c2.3-2.4,3.7-5.7,3.7-9.1c0-11.8,0-29.3,0-41.2
				c0-3.5-1.4-6.7-3.7-9.1c-2.4-2.4-5.7-3.7-9.1-3.7c-10.4,0-25.5,0-38.5,0c-3.2,0-6.2,0.5-9,1.7L386.7,234v131.5
				c0,26.3-21.3,47.7-47.7,47.7c0,0,0,0-0.1,0c-13.7,0-26.9-6-36-16.4c-9.2-10.2-13.4-24.1-11.7-37.8c3.1-24.6,6-48.3,6-48.3
				c-12.5,0-41.6,0-63.6,0l-66.7,1.6c-35,7.3-61,38.2-61,75.1v64.1h280.9L451.8,396.6z"/>
			<path class="st1" d="M386.7,460.8H105.8c-5,0-9.1-4.1-9.1-9.1v-64.1c0-40.4,28.7-75.7,68.2-84c0.5-0.1,1.1-0.2,1.6-0.2l66.7-1.6
				h63.8c2.6,0,5.1,1.1,6.8,3.1c1.7,1.9,2.5,4.5,2.2,7.1l-6,48.3c-1.4,11.2,2,22.3,9.5,30.6c7.5,8.5,18.2,13.4,29.3,13.4
				c21.5,0,38.8-17.3,38.8-38.7V234c0-1,0.2-1.9,0.5-2.9l16.6-49.6c0.8-2.5,2.7-4.5,5.1-5.5c3.8-1.6,7.9-2.4,12.5-2.4h38.5
				c5.9,0,11.4,2.3,15.6,6.4c4.2,4.4,6.4,9.9,6.4,15.5v41.2c0,5.7-2.2,11.1-6.2,15.4c-4.3,4.3-9.8,6.6-15.7,6.6h-12l22,136.5
				c0.5,3.1-0.7,6.3-3.1,8.4l-65.1,55C390.9,460,388.9,460.8,386.7,460.8L386.7,460.8z M114.8,442.6h268.6l58.7-49.6l-22.9-142
				c-0.4-2.6,0.3-5.3,2-7.3c1.7-2,4.2-3.2,6.9-3.2h22.6c1.1,0,2-0.3,2.7-1.1c0.3-0.3,1.1-1.4,1.1-2.7v-41.2c0-1.4-0.8-2.4-1.2-2.9
				c-0.6-0.6-1.4-0.9-2.6-0.9h-38.5c-0.7,0-1.3,0-2,0.1l-14.6,43.6v130c0,31.3-25.5,56.8-56.8,56.8c-16.4,0-32-7.1-43-19.4
				c-10.9-12.1-16-28.5-13.9-44.9l4.7-38.1h-53.3l-65.7,1.6c-30.8,6.8-53,34.5-53,66.1L114.8,442.6L114.8,442.6z"/>
		</g>
		<g>
			<path class="st5" d="M489.3,426.1c-7.8-15.7-23.9-25.6-41.4-25.6c-2.7,0-5.4,0-8.2,0c-23.5,0-44,16-49.7,38.8
				c-1.8,7.2-3.1,12.4-3.1,12.4s29.6,0,48.5,0c10.1,0,20-3,28.4-8.6C474.9,435.7,489.3,426.1,489.3,426.1L489.3,426.1z"/>
			<path class="st1" d="M435.3,460.8h-48.5c-2.8,0-5.4-1.3-7.1-3.5c-1.7-2.2-2.3-5.1-1.6-7.8l3.1-12.4c6.7-26.9,30.8-45.7,58.5-45.7
				h8.2c21.1,0,40.1,11.7,49.6,30.6c2,4.1,0.7,9.1-3.1,11.6l-25.5,17C458.8,457.3,447.3,460.8,435.3,460.8L435.3,460.8z
				 M398.4,442.6h36.9c8.4,0,16.4-2.5,23.4-7.1l18.2-12.1c-7-8.7-17.5-13.9-29.1-13.9h-8.2c-19.4,0-36.2,13.1-40.9,32L398.4,442.6z"
				/>
		</g>
		<g>
			<path class="st1" d="M178.5,422.3H157c-5,0-9.1-4.1-9.1-9.1c0-5,4.1-9.1,9.1-9.1h21.5c5,0,9.1,4.1,9.1,9.1
				C187.6,418.3,183.5,422.3,178.5,422.3z"/>
		</g>
		<g>
			<path class="st3" d="M289.8,99V65.3c0-18.7,15.1-33.7,33.7-33.7h5.2C321,18.1,306.5,9.1,289.8,9.1c-24.9,0-45,20.1-45,45
				S265,99,289.8,99L289.8,99z"/>
			<path class="st1" d="M289.8,108.1c-29.8,0-54.1-24.3-54.1-54.1C235.8,24.3,260,0,289.8,0c19.3,0,37.2,10.4,46.8,27
				c1.6,2.8,1.6,6.3,0,9.1s-4.6,4.5-7.8,4.5h-5.2c-13.6,0-24.7,11.1-24.7,24.7v33.7C298.9,104.1,294.8,108.1,289.8,108.1
				L289.8,108.1z M289.8,18.1c-19.8,0-35.9,16.1-35.9,35.9c0,16.7,11.4,30.7,26.9,34.8V65.3c0-19,12.4-35.1,29.6-40.7
				C304.4,20.5,297.3,18.1,289.8,18.1z"/>
		</g>
		<g>
			<path class="st6" d="M216.9,236.6l23.2-120c8.1-13.2,26.1-15.9,37.7-5.8l88.2,68l28.3,6.2c3.5,0.6,6.7,2,9.2,4.1
				c4.7,3.7,7.7,9.5,7.7,15.9v0.1c0,11.1-9.1,20.1-20.3,20.1l-3.5-1l-2.3-0.6l-44.4-11.1L303,175h-12.5l-0.1,50.3l42.4,10.3
				c11.6,3,19.7,13.3,19.7,25.4v109.6c0,11.2-8.9,20.1-20.1,20.1h-9.5c-11.2,0-20.3-8.9-20.3-20.1v-58.2v-37L235,264.8l-1.6-0.3"/>
			<path class="st1" d="M332.4,399.7h-9.5c-16.2,0-29.3-13.1-29.3-29.2v-87.5l-61.8-9.6c-4.9-0.9-8.2-5.6-7.2-10.6
				c0.9-4.9,5.6-8.2,10.6-7.3l1.6,0.3l67.3,10.4c4.4,0.7,7.7,4.5,7.7,9v95.2c0,6.2,4.9,11.1,11.2,11.1h9.5c6.2,0,11.1-4.9,11.1-11.1
				V261c0-7.8-5.3-14.6-12.9-16.6l-42.3-10.3c-4.1-1-6.9-4.6-6.9-8.8l0.1-50.3c0-5,4.1-9,9.1-9H303c2.4,0,4.7,1,6.4,2.7l35.9,35.9
				l46.6,11.7c5.7-0.5,10.1-5.3,10.1-11c0-3.6-1.6-6.8-4.2-8.9c-1.5-1.3-3.1-2-5-2.3l-28.9-6.3c-1.3-0.3-2.5-0.9-3.6-1.7l-88.1-68
				c-3.9-3.4-8.7-4.7-13.3-4c-4.1,0.6-7.8,2.9-10.3,6.2l-22.9,118.2c-1,4.9-5.7,8.1-10.6,7.2c-4.9-1-8.1-5.7-7.2-10.6l23.2-120
				c0.2-1.1,0.6-2.1,1.2-3c5.2-8.5,13.9-14.3,23.8-15.8c9.9-1.6,20,1.3,27.6,7.9l86.1,66.5l26.4,5.8c4.6,0.7,9.3,2.8,13.1,6
				c6.8,5.3,10.9,13.9,10.9,22.8c0,16.2-13.2,29.3-29.3,29.3c-0.8,0-1.7-0.1-2.5-0.3l-5.6-1.5l-44.3-11c-1.6-0.4-3.1-1.2-4.2-2.4
				l-34.7-34.7l-0.1,33.8l35.4,8.6c15.7,4,26.6,18.1,26.6,34.2v109.6C361.6,386.6,348.5,399.7,332.4,399.7z"/>
		</g>
		<g>
			<path class="st6" d="M99.8,227.2l21.3-110.7c8.1-13.1,26.1-15.8,37.7-5.7l7.4,6.6c13.7,12.2,20,30.6,16.5,48.6l-11.3,59.2
				l42.3,10.4c11.7,3,19.7,13.4,19.7,25.3v109.6c0,11.1-9,20.1-20.1,20.1h-9.5c-11.2,0-20.3-9.1-20.3-20.3v-58.2v-36.9l-67.7-10.5
				c0,0-0.1-0.1-0.4-0.2c-9.8-5.4-15.7-15.7-15.7-26.8L99.8,227.2L99.8,227.2z"/>
			<path class="st1" d="M213.3,399.8h-9.5c-16.2,0-29.3-13.2-29.3-29.3v-87.3l-60-9.3c-1-0.2-2-0.5-2.9-1
				c-13.1-7.2-20.9-20.5-20.9-35v-10.6c0-0.6,0.1-1.2,0.2-1.7l21.3-110.7c0.2-1.1,0.6-2.1,1.2-3c5.2-8.5,13.9-14.3,23.9-15.8
				c9.9-1.6,20,1.4,27.5,8l7.4,6.6c16,14.2,23.4,36.1,19.4,57.1l-9.7,50.8l34,8.3c15.7,4,26.6,18,26.6,34.1v109.6
				C242.5,386.7,229.4,399.8,213.3,399.8L213.3,399.8z M119,256.1l66,10.3c4.4,0.7,7.7,4.5,7.7,9v95.1c0,6.2,5,11.2,11.2,11.2h9.5
				c6.1,0,11.1-5,11.1-11.1V260.9c0-7.8-5.3-14.6-12.9-16.5L169.2,234c-4.7-1.2-7.7-5.8-6.7-10.5l11.3-59.3
				c2.8-14.8-2.4-30.1-13.6-40.1l-7.4-6.6c-3.5-3-8.1-4.3-12.8-3.7c-4.2,0.6-7.9,2.8-10.3,6.1l-20.8,108v9.8
				C108.9,245.3,112.7,252.3,119,256.1L119,256.1z"/>
		</g>
		<g>
			<path class="st7" d="M216.9,236.6l73.6-11.3l42.4,10.3c11.6,3,19.7,13.3,19.7,25.4v109.6c0,11.2-8.9,20.1-20.1,20.1h-9.5
				c-11.2,0-20.3-8.9-20.3-20.1v-58.2v-37L235,264.8l-1.6-0.3"/>
			<path class="st1" d="M332.4,399.7h-9.5c-16.2,0-29.3-13.1-29.3-29.2v-87.5l-61.8-9.6c-4.9-0.9-8.2-5.6-7.2-10.6
				c0.9-4.9,5.6-8.2,10.6-7.3l1.6,0.3l67.3,10.4c4.4,0.7,7.7,4.5,7.7,9v95.2c0,6.2,4.9,11.1,11.2,11.1h9.5c6.2,0,11.1-4.9,11.1-11.1
				V261c0-7.8-5.3-14.6-12.9-16.6l-40.5-9.9l-71.8,11c-5,0.8-9.6-2.6-10.3-7.6c-0.8-4.9,2.6-9.6,7.6-10.3l73.6-11.3
				c1.2-0.2,2.4-0.2,3.5,0.2l42.4,10.3c15.7,4,26.6,18.1,26.6,34.2v109.6C361.6,386.6,348.5,399.7,332.4,399.7L332.4,399.7z"/>
		</g>
		<g>
			<path class="st7" d="M171.4,225.2l42.3,10.4c11.7,3,19.7,13.4,19.7,25.3v109.6c0,11.1-9,20.1-20.1,20.1h-9.5
				c-11.2,0-20.3-9.1-20.3-20.3v-58.2v-36.9l-67.7-10.5c0,0-0.1-0.1-0.4-0.2c-9.8-5.4-15.7-15.7-15.7-26.8L171.4,225.2z"/>
			<path class="st1" d="M213.3,399.8h-9.5c-16.2,0-29.3-13.2-29.3-29.3v-87.3l-60-9.3c-1-0.2-2-0.5-2.9-1
				c-13.1-7.2-20.9-20.5-20.9-35c0-4.4,3.2-8.2,7.5-8.9l71.6-12.6c1.2-0.2,2.5-0.2,3.7,0.1l42.3,10.4c15.7,4,26.6,18,26.6,34.1
				v109.6C242.5,386.7,229.4,399.8,213.3,399.8z M119,256.1l66,10.3c4.4,0.7,7.7,4.5,7.7,9v95.1c0,6.2,5,11.2,11.2,11.2h9.5
				c6.1,0,11.1-5,11.1-11.1V260.9c0-7.8-5.3-14.6-12.9-16.5l-40.4-9.9l-60.9,10.7C111.8,249.7,114.8,253.6,119,256.1z"/>
		</g>
		<g>
			<path class="st3" d="M170.8,99V65.3c0-18.7,15.1-33.7,33.7-33.7h5.2c-7.8-13.5-22.3-22.5-38.9-22.5c-24.9,0-45,20.1-45,45
				S145.9,99,170.8,99L170.8,99z"/>
			<path class="st1" d="M170.8,108.1c-29.8,0-54.1-24.3-54.1-54.1C116.7,24.3,141,0,170.8,0c19.3,0,37.2,10.4,46.8,27
				c1.6,2.8,1.6,6.3,0,9.1s-4.6,4.5-7.8,4.5h-5.2c-13.6,0-24.7,11.1-24.7,24.7v33.7C179.8,104.1,175.8,108.1,170.8,108.1
				L170.8,108.1z M170.8,18.1c-19.8,0-35.9,16.1-35.9,35.9c0,16.7,11.4,30.7,26.9,34.8V65.3c0-19,12.4-35.1,29.6-40.7
				C185.4,20.5,178.2,18.1,170.8,18.1z"/>
		</g>
		<g>
			<path class="st1" d="M305.1,112.9c-3.7,0-7.5-0.6-11.2-1.8c-4.7-1.6-7.3-6.7-5.7-11.5c1.6-4.7,6.7-7.3,11.5-5.7
				c5.2,1.7,10.8,0.9,15.3-2.3c4.5-3.2,7-8.2,7-13.7V36.9c0-5,4.1-9.1,9.1-9.1s9.1,4.1,9.1,9.1v40.8c0,11.4-5.3,21.8-14.6,28.5
				C319.4,110.6,312.3,112.9,305.1,112.9L305.1,112.9z"/>
		</g>
		<g>
			<path class="st1" d="M186.1,112.9c-3.7,0-7.5-0.6-11.2-1.8c-4.7-1.6-7.3-6.7-5.7-11.5c1.6-4.7,6.7-7.3,11.5-5.7
				c5.2,1.7,10.8,0.9,15.3-2.3c4.5-3.2,7-8.2,7-13.7V36.9c0-5,4.1-9.1,9.1-9.1c5,0,9.1,4.1,9.1,9.1v40.8c0,11.4-5.3,21.8-14.6,28.5
				C200.4,110.6,193.3,112.9,186.1,112.9L186.1,112.9z"/>
		</g>
		<g>
			<path class="st1" d="M253.6,276.7c-5,0-9.3-4.2-9.3-9.2s4.1-9.1,9.1-9.1c2.2,0,4.1,0.8,5.7,2c2.2,1.7,3.6,4.2,3.6,7.2
				C262.6,272.7,258.6,276.7,253.6,276.7L253.6,276.7z M262.4,267.5h0.1H262.4z"/>
		</g>
		<g>
			<path class="st1" d="M76.9,369.9H61.6c-5,0-9.1-4.1-9.1-9.1c0-5,4.1-9.1,9.1-9.1h15.3c5,0,9.1,4.1,9.1,9.1
				C85.9,365.8,81.9,369.9,76.9,369.9z"/>
		</g>
		<g>
			<path class="st1" d="M74.9,408.8H22.7c-5,0-9.1-4.1-9.1-9.1c0-5,4.1-9.1,9.1-9.1h52.2c5,0,9.1,4.1,9.1,9.1S79.9,408.8,74.9,408.8
				z"/>
		</g>
	</g>
</g>
</svg>
