<svg width="475" height="428" version="1.1" id="Layer_1" xmlns="http://www.w3.org/2000/svg" xmlns:xlink="http://www.w3.org/1999/xlink" x="0px" y="0px"
	 viewBox="0 0 460.46 414.65" style="enable-background:new 0 0 460.46 414.65;" xml:space="preserve">
<style type="text/css">
	.st0{fill:#EBEBEB;}
	.st1{fill:#E6E6E6;}
	.st2{fill:#F5F5F5;}
	.st3{fill:#FAFAFA;}
	.st4{fill:#FFFFFF;}
	.st5{fill:#F0F0F0;}
	.st6{fill:#E0E0E0;}
	.st7{display:none;}
	.st8{display:inline;}
	.st9{fill:#407BFF;}
	.st10{opacity:0.9;fill:#FFFFFF;enable-background:new    ;}
	.st11{fill:#00AA13;}
	.st12{opacity:0.2;fill:#FFFFFF;enable-background:new    ;}
	.st13{opacity:0.1;enable-background:new    ;}
	.st14{opacity:0.1;fill:#00AA13;enable-background:new    ;}
	.st15{fill:#FFC3BD;}
	.st16{fill:none;}
	.st17{fill:#263238;}
	.st18{opacity:0.2;enable-background:new    ;}
	.st19{opacity:0.2;}
	.st20{opacity:0.15;fill:#FFFFFF;enable-background:new    ;}
</style>
<g id="Background_Complete">
	<g>
		<rect x="11.89" y="359.07" class="st0" width="464.31" height="0.31"/>
		<rect x="340.58" y="367.44" class="st0" width="90.66" height="0.31"/>
		<rect x="58.36" y="369.5" class="st0" width="10.68" height="0.31"/>
		<rect x="432.46" y="378.85" class="st0" width="23.58" height="0.31"/>
		<rect x="176.78" y="374.69" class="st0" width="59.79" height="0.31"/>
		<rect x="135.88" y="374.69" class="st0" width="29.95" height="0.31"/>
		<rect x="23.52" y="369.5" class="st0" width="12.73" height="0.31"/>
	</g>
	<g>
		<g>
			<g>
				<g>
					<rect x="24.43" y="5.61" class="st1" width="189.19" height="221.68"/>
					<rect x="20.22" y="5.61" class="st2" width="189.19" height="221.68"/>
					<rect x="24.43" y="227.29" class="st1" width="189.19" height="7.17"/>
					<rect x="12.66" y="227.29" class="st2" width="189.19" height="7.17"/>
					<rect x="27.78" y="12.66" class="st3" width="174.06" height="207.55"/>
					<polygon class="st4" points="184.75,220.22 154.9,12.67 107.25,12.67 137.11,220.22"/>
					<polygon class="st4" points="125.99,220.22 96.13,12.67 63.33,12.67 93.19,220.22"/>
					<rect x="27.79" y="12.67" class="st1" width="3.18" height="207.55"/>
					<rect x="23.36" y="191.21" class="st2" width="182.92" height="9.47"/>
				</g>
			</g>
		</g>
		<g>
			<g>
				<rect x="284.54" y="66.59" class="st1" width="29.19" height="292.48"/>
				<polygon class="st5" points="290.09,359.07 284.55,359.07 284.55,343.31 295.9,343.31 				"/>
				<rect x="431.27" y="66.59" class="st1" width="29.19" height="292.48"/>
				<rect x="284.54" y="66.6" class="st5" width="151.57" height="284.71"/>
				<path class="st6" d="M353.33,330.33h-59.35c-3.18,0-5.77-2.59-5.77-5.77V76.33c0-3.18,2.59-5.77,5.77-5.77h59.35
					c3.18,0,5.77,2.59,5.77,5.77v248.22C359.11,327.73,356.52,330.33,353.33,330.33z M293.98,71.84c-2.47,0-4.48,2.01-4.48,4.48
					v248.22c0,2.47,2.01,4.48,4.48,4.48h59.35c2.47,0,4.48-2.01,4.48-4.48V76.33c0-2.47-2.01-4.48-4.48-4.48h-59.35V71.84z"/>
				<path class="st6" d="M426.68,330.33h-59.35c-3.18,0-5.77-2.59-5.77-5.77V76.33c0-3.18,2.59-5.77,5.77-5.77h59.35
					c3.18,0,5.77,2.59,5.77,5.77v248.22C432.45,327.73,429.86,330.33,426.68,330.33z M367.31,71.84c-2.47,0-4.48,2.01-4.48,4.48
					v248.22c0,2.47,2.01,4.48,4.48,4.48h59.35c2.47,0,4.48-2.01,4.48-4.48V76.33c0-2.47-2.01-4.48-4.48-4.48h-59.35V71.84z"/>
				<path class="st3" d="M377.76,201.35c0,2.73-2.21,4.93-4.93,4.93c-2.72,0-4.93-2.21-4.93-4.93c0-2.73,2.21-4.93,4.93-4.93
					C375.55,196.42,377.76,198.62,377.76,201.35z"/>
				<path class="st3" d="M352.76,201.35c0,2.73-2.21,4.93-4.93,4.93s-4.93-2.21-4.93-4.93c0-2.73,2.21-4.93,4.93-4.93
					S352.76,198.62,352.76,201.35z"/>
				<polygon class="st5" points="430.56,359.07 436.11,359.07 436.11,343.31 424.75,343.31 				"/>
			</g>
			<g>
				<polygon class="st1" points="378.89,24.55 332.37,24.55 351.76,17.96 398.26,17.96 				"/>
				<rect x="389.99" y="24.56" class="st0" width="46.5" height="42.04"/>
				<rect x="324.57" y="46.39" class="st0" width="12.42" height="20.21"/>
				<rect x="309.18" y="46.38" class="st2" width="15.39" height="20.21"/>
				<polygon class="st0" points="389.98,24.55 436.48,24.55 417.11,20.19 370.61,20.19 				"/>
				<rect x="332.37" y="24.55" class="st2" width="57.61" height="42.04"/>
			</g>
		</g>
		<g>
			<polygon class="st2" points="149.61,359.07 189.49,359.07 184.79,263.11 149.61,263.11 			"/>
			<g>
				<polygon class="st1" points="23.49,359.07 176.63,359.07 187.22,259.89 34.08,259.89 				"/>
				<polygon class="st5" points="19.05,359.07 172.19,359.07 182.78,259.89 29.65,259.89 				"/>
				<polygon class="st3" points="165.01,348.09 174.69,270.88 36.83,270.88 27.15,348.09 				"/>
			</g>
		</g>
	</g>
</g>
<g id="Background_Simple" class="st7">
	<g class="st8">
		<path class="st9" d="M387.06,86.32c-26.01-19.73-51.83,10.9-79.14,13.48c-32.74,3.1-43.39-9.24-64.76-28.37
			c-31.51-28.21-64.44-65.36-113.85-60.13C-3.35,25.35,5.33,173.93,79.77,237.1c48.27,40.97,99.49,13.76,158.93,14.67
			c53.58,0.81,138.75,45.97,190.72,14.41c46.29-28.11,30.85-91.34-15.64-105.39c-15.05-4.55-24.18-17.09-22.69-32.35
			C392.48,114.11,400.98,96.89,387.06,86.32z"/>
		<path class="st10" d="M387.06,86.32c-26.01-19.73-51.83,10.9-79.14,13.48c-32.74,3.1-43.39-9.24-64.76-28.37
			c-31.51-28.21-64.44-65.36-113.85-60.13C-3.35,25.35,5.33,173.93,79.77,237.1c48.27,40.97,99.49,13.76,158.93,14.67
			c53.58,0.81,138.75,45.97,190.72,14.41c46.29-28.11,30.85-91.34-15.64-105.39c-15.05-4.55-24.18-17.09-22.69-32.35
			C392.48,114.11,400.98,96.89,387.06,86.32z"/>
	</g>
</g>
<g id="Shadow_1_">
	<ellipse id="_x3C_Path_x3E__361_" class="st2" cx="238.21" cy="400.65" rx="238.21" ry="13.91"/>
</g>
<g id="Browser">
	<g>
		
			<rect x="358.78" y="103.81" transform="matrix(0.05 -0.9987 0.9987 0.05 250.4045 472.1836)" class="st11" width="29.25" height="1.31"/>
		
			<rect x="366.83" y="129.74" transform="matrix(0.05 -0.9987 0.9987 0.05 223.2649 495.5161)" class="st11" width="10.54" height="1.31"/>
		<path class="st11" d="M341.67,325.84h-125.6c-9.14,0-16.24-7.48-15.79-16.62L214.3,31.56c0.47-9.14,8.32-16.62,17.46-16.62h125.6
			c9.14,0,16.24,7.48,15.79,16.62l-14.01,277.65C358.67,318.36,350.81,325.84,341.67,325.84z"/>
		<path class="st12" d="M307.86,299.44h-37.88c-5.6,0-10.79-2.2-14.58-6.19c-3.81-4.01-5.74-9.3-5.45-14.91l6.72-133.3
			c0.59-11.6,10.49-21.03,22.1-21.03h37.88c5.6,0,10.79,2.2,14.58,6.19c3.81,4.01,5.74,9.3,5.45,14.91l-6.72,133.3
			C329.38,290,319.46,299.44,307.86,299.44z M278.77,125.39c-10.87,0-20.16,8.85-20.71,19.72l-6.72,133.3
			c-0.26,5.23,1.54,10.16,5.07,13.88c3.54,3.71,8.35,5.76,13.58,5.76h37.88c10.87,0,20.16-8.85,20.71-19.72l6.72-133.3
			c0.26-5.23-1.54-10.16-5.07-13.88c-3.54-3.71-8.35-5.76-13.58-5.76H278.77z"/>
		<path class="st13" d="M276.08,160.83h-32.02c-9.14,0-16.24-7.48-15.79-16.62l1.61-32.02c0.47-9.14,8.32-16.62,17.46-16.62h32.02
			c9.14,0,16.24,7.48,15.79,16.62l-1.61,32.02C293.08,153.35,285.22,160.83,276.08,160.83z"/>
		<path class="st4" d="M266.76,151.02h-32.02c-9.14,0-16.24-7.48-15.79-16.62l1.61-32.02c0.47-9.14,8.32-16.62,17.46-16.62h32.02
			c9.14,0,16.24,7.48,15.79,16.62l-1.61,32.02C283.76,143.54,275.91,151.02,266.76,151.02z"/>
		<path class="st13" d="M321.05,284.67h-22.81c-6.51,0-11.57-5.33-11.24-11.84l1.15-22.81c0.33-6.51,5.92-11.84,12.45-11.84h22.81
			c6.51,0,11.57,5.33,11.24,11.84l-1.15,22.81C333.16,279.35,327.56,284.67,321.05,284.67z"/>
		<path class="st4" d="M314.4,277.68h-22.81c-6.51,0-11.57-5.33-11.24-11.84l1.15-22.81c0.33-6.51,5.92-11.84,12.45-11.84h22.81
			c6.51,0,11.57,5.33,11.24,11.84l-1.15,22.81C326.51,272.35,320.92,277.68,314.4,277.68z"/>
		<path class="st4" d="M238.38,208.61h-16.46c-4.71,0-8.35-3.85-8.12-8.55l0.84-16.46c0.23-4.71,4.28-8.55,8.98-8.55h16.46
			c4.71,0,8.35,3.85,8.12,8.55l-0.84,16.46C247.12,204.75,243.08,208.61,238.38,208.61z"/>
		<path class="st4" d="M343.96,208.61H327.5c-4.71,0-8.35-3.85-8.12-8.55l0.84-16.46c0.23-4.71,4.28-8.55,8.98-8.55h16.46
			c4.71,0,8.35,3.85,8.12,8.55l-0.84,16.46C352.71,204.75,348.66,208.61,343.96,208.61z"/>
		<path class="st4" d="M291.17,208.61h-16.46c-4.71,0-8.35-3.85-8.12-8.55l0.84-16.46c0.23-4.71,4.28-8.55,8.98-8.55h16.46
			c4.71,0,8.35,3.85,8.12,8.55l-0.84,16.46C299.92,204.75,295.87,208.61,291.17,208.61z"/>
		<path class="st4" d="M352.41,63.35H231.83c-5.1,0-9.07-4.18-8.81-9.28l0.01-0.22c0.26-5.1,4.64-9.28,9.74-9.28h120.58
			c5.1,0,9.07,4.18,8.81,9.28l-0.01,0.22C361.9,59.17,357.51,63.35,352.41,63.35z"/>
		<polygon class="st11" points="346.99,48.69 348.53,52.15 352.33,52.71 349.43,55.41 349.88,59.23 346.55,57.43 343.04,59.23 
			343.89,55.41 341.24,52.71 345.1,52.15 		"/>
		<path class="st14" d="M238.79,53.96c-0.1,1.92-1.72,3.46-3.64,3.46c-1.92,0-3.39-1.55-3.29-3.46c0.1-1.92,1.72-3.46,3.64-3.46
			C237.42,50.5,238.89,52.04,238.79,53.96z"/>
		<path class="st14" d="M247.69,53.96c-0.1,1.92-1.72,3.46-3.64,3.46c-1.92,0-3.39-1.55-3.29-3.46c0.1-1.92,1.72-3.46,3.64-3.46
			C246.31,50.5,247.79,52.04,247.69,53.96z"/>
		<path class="st14" d="M256.57,53.96c-0.1,1.92-1.72,3.46-3.64,3.46c-1.92,0-3.38-1.55-3.29-3.46c0.1-1.92,1.72-3.46,3.64-3.46
			C255.2,50.5,256.67,52.04,256.57,53.96z"/>
		<polygon class="st12" points="282.73,29.89 289.68,35.35 290.23,24.44 		"/>
		<polygon class="st12" points="304.88,29.89 297.37,35.35 297.93,24.44 		"/>
		<path class="st12" d="M347.98,105.04h-43.86c-0.96,0-1.84-0.38-2.48-1.06c-0.65-0.68-0.98-1.58-0.93-2.54
			c0.1-1.97,1.78-3.56,3.73-3.56h43.86c0.96,0,1.84,0.37,2.48,1.06c0.65,0.69,0.98,1.58,0.93,2.54
			C351.61,103.45,349.94,105.04,347.98,105.04z M304.44,98.58c-1.6,0-2.97,1.3-3.05,2.9c-0.04,0.76,0.22,1.49,0.74,2.03
			c0.52,0.54,1.22,0.84,1.98,0.84h43.86c1.6,0,2.97-1.3,3.05-2.9c0.04-0.76-0.22-1.49-0.74-2.03c-0.52-0.54-1.22-0.84-1.98-0.84
			H304.44z"/>
		<path class="st12" d="M347.49,114.86h-43.86c-0.96,0-1.84-0.38-2.48-1.06c-0.65-0.69-0.98-1.58-0.93-2.54
			c0.1-1.97,1.78-3.56,3.73-3.56h43.86c0.96,0,1.84,0.38,2.48,1.06c0.65,0.69,0.98,1.58,0.93,2.54
			C351.12,113.26,349.44,114.86,347.49,114.86z M303.95,108.4c-1.6,0-2.97,1.3-3.05,2.9c-0.04,0.76,0.22,1.49,0.74,2.03
			c0.52,0.54,1.22,0.84,1.98,0.84h43.86c1.6,0,2.97-1.3,3.05-2.9c0.04-0.76-0.22-1.49-0.74-2.03c-0.52-0.54-1.22-0.84-1.98-0.84
			L303.95,108.4L303.95,108.4z"/>
		<path class="st12" d="M228.33,281.86c-0.96,0-1.84-0.38-2.48-1.06c-0.65-0.69-0.98-1.58-0.93-2.54l2.21-43.86
			c0.1-1.97,1.78-3.56,3.73-3.56c0.96,0,1.84,0.38,2.48,1.06c0.65,0.68,0.98,1.58,0.93,2.54l-2.21,43.86
			C231.96,280.26,230.28,281.86,228.33,281.86z M230.86,231.54c-1.6,0-2.97,1.3-3.05,2.9l-2.21,43.86l0,0
			c-0.04,0.76,0.22,1.49,0.74,2.03c0.52,0.54,1.22,0.84,1.98,0.84c1.6,0,2.97-1.3,3.05-2.9l2.21-43.86
			c0.04-0.76-0.22-1.49-0.74-2.03C232.33,231.83,231.62,231.54,230.86,231.54z M225.26,278.28L225.26,278.28L225.26,278.28z"/>
	</g>
</g>
<g id="Character_1_">
	<g>
		<g>
			<g>
				<path class="st15" d="M113.36,144.75l5.86,5.11l-10.82,4.89c0,0-0.53-2.54-0.82-6.51c-0.12-1.66,1.09-3.11,2.75-3.24
					L113.36,144.75z"/>
				<polygon class="st15" points="121.39,160.26 111.79,160.26 108.4,154.75 119.22,149.85 				"/>
			</g>
			<g>
				<g>
					<line class="st16" x1="74.24" y1="60.05" x2="74.24" y2="60.05"/>
				</g>
			</g>
			<g>
				<g>
					<path class="st15" d="M176.22,68.52c4.1,5.18,8.34,10.5,12.58,15.66c4.24,5.18,8.58,10.27,13.02,15.04l1.68,1.76l0.64,0.65
						c0.14,0.16,0.37,0.33,0.57,0.5c0.86,0.7,2.03,1.46,3.29,2.15c2.57,1.38,5.52,2.63,8.55,3.73c6.07,2.24,12.59,4.18,18.99,5.98
						l-0.95,7.22c-7.14-0.15-14.07-0.86-21.16-2.35c-3.54-0.77-7.09-1.71-10.74-3.18c-1.83-0.75-3.7-1.61-5.61-2.89
						c-0.49-0.34-0.96-0.64-1.46-1.06l-0.74-0.6l-0.53-0.47l-2.01-1.81c-5.27-4.85-10.09-9.96-14.69-15.2
						c-4.62-5.26-8.96-10.6-13.17-16.27L176.22,68.52z"/>
				</g>
				<polygon class="st15" points="247.05,112.78 249.69,122.94 239.38,122.35 241.72,111.03 				"/>
				<path class="st15" d="M232.73,113.99l8.99-2.96l-2.33,11.33c0,0-7.95,2.32-10.8-3.49L232.73,113.99z"/>
				<path class="st15" d="M124.87,72.86c-1.86,6.41-3.82,12.85-5.81,19.23l-2.95,9.55l-1.41,4.73l-0.68,2.33l-0.57,2.13
					c-0.22,0.84-0.34,2.27-0.39,3.7c-0.05,1.46-0.02,3.01,0.05,4.58c0.15,3.16,0.41,6.41,0.74,9.69c0.68,6.54,1.47,13.22,2.29,19.83
					l-7.05,1.79c-2.42-6.49-4.46-13-6.11-19.74c-0.8-3.38-1.55-6.79-2.09-10.33c-0.26-1.78-0.49-3.6-0.61-5.5
					c-0.12-1.93-0.18-3.88,0.16-6.38c0.1-0.7,0.17-1.01,0.26-1.49l0.25-1.33l0.52-2.58c0.36-1.71,0.75-3.39,1.14-5.05
					c0.79-3.34,1.61-6.65,2.49-9.94c1.74-6.59,3.65-13.06,5.75-19.55L124.87,72.86z"/>
				<path class="st15" d="M160.73,31.31c0,0,0.79,4.85,2.24,7.47c-1.61,0.92-3.77-0.23-3.77-0.23L160.73,31.31z"/>
				<path class="st15" d="M134.36,32.26c-0.86,8.92,0.41,17.56-1.58,25.31c0,0,2.21,7.2,15.39,7.2c14.5,0,6.65-7.2,6.65-7.2
					c-7.99-1.89-8.01-7.76-6.84-13.27L134.36,32.26z"/>
				<path class="st11" d="M129.96,60.04c-1.13-2.27-1.88-5.5,0.45-6.31c2.57-0.9,16.29-1.19,21.27,0.49c4.98,1.68,3.76,6.3,3.76,6.3
					L129.96,60.04z"/>
				<path class="st11" d="M103.62,384.01c-0.96-0.22-1.94-0.66-2.6-1.01c-0.09-0.05-0.15-0.14-0.14-0.25
					c0.01-0.1,0.07-0.18,0.17-0.22c0.43-0.15,4.24-1.4,5.25-0.55c0.16,0.14,0.33,0.38,0.26,0.79c-0.1,0.55-0.37,0.95-0.81,1.17
					C105.16,384.23,104.4,384.2,103.62,384.01z M101.8,382.82c1.67,0.76,3.03,1.02,3.71,0.68c0.29-0.15,0.48-0.42,0.54-0.81
					c0.04-0.2-0.02-0.27-0.09-0.32C105.43,381.92,103.33,382.37,101.8,382.82z"/>
				<path class="st11" d="M101.06,383.02c-0.05-0.01-0.09-0.04-0.12-0.07c-0.06-0.06-0.09-0.16-0.06-0.25
					c0.04-0.12,1-3.03,2.42-3.73c0.37-0.18,0.75-0.21,1.12-0.07l0,0c0.57,0.21,0.64,0.6,0.63,0.82c-0.05,1.2-2.65,2.97-3.86,3.3
					C101.15,383.03,101.11,383.03,101.06,383.02z M104.13,379.33c-0.2-0.05-0.41-0.02-0.61,0.09c-0.92,0.44-1.66,2.1-1.98,2.95
					c1.25-0.55,2.97-1.95,3-2.67c0-0.06,0.01-0.22-0.29-0.33l0,0C104.21,379.36,104.17,379.34,104.13,379.33z"/>
				<path class="st11" d="M170.73,391.51c-0.98,0-2.04-0.21-2.78-0.38c-0.1-0.02-0.17-0.1-0.18-0.21c-0.01-0.11,0.02-0.2,0.11-0.26
					c0.38-0.25,3.81-2.35,4.98-1.74c0.18,0.1,0.41,0.29,0.43,0.71c0.04,0.57-0.14,1.01-0.52,1.33
					C172.29,391.37,171.53,391.51,170.73,391.51z M168.68,390.77c1.79,0.36,3.18,0.29,3.76-0.2c0.26-0.21,0.37-0.52,0.34-0.91
					c-0.01-0.2-0.09-0.26-0.16-0.29C172.02,389.06,170.07,389.97,168.68,390.77z"/>
				<path class="st11" d="M168.02,391.13c-0.05,0-0.1-0.01-0.14-0.04c-0.07-0.05-0.12-0.14-0.11-0.23c0.01-0.14,0.26-3.18,1.5-4.19
					c0.32-0.26,0.68-0.37,1.07-0.32l0,0c0.6,0.07,0.76,0.44,0.8,0.66c0.22,1.18-1.89,3.5-3,4.1
					C168.1,391.13,168.05,391.13,168.02,391.13z M170.16,386.84c-0.21,0-0.39,0.07-0.58,0.22c-0.79,0.64-1.13,2.43-1.25,3.32
					c1.09-0.82,2.44-2.58,2.31-3.28c-0.01-0.06-0.04-0.21-0.37-0.26l0,0C170.23,386.84,170.19,386.84,170.16,386.84z"/>
				<polygon class="st15" points="156.6,390.75 166.31,390.75 166.41,368.29 156.71,368.29 				"/>
				<polygon class="st15" points="89.05,382.44 98.38,384.15 105.08,362.06 95.74,360.34 				"/>
				<path class="st17" d="M100.15,381.67l-10.6-2.51c-0.38-0.09-0.77,0.1-0.93,0.45l-3.53,8.02c-0.37,0.84,0.16,1.83,1.04,2.01
					c3.71,0.81,5.55,1.02,10.22,2.13c2.86,0.68,8.72,2.37,12.68,3.32c3.87,0.92,5.26-2.9,3.7-3.64c-6.95-3.33-9.26-6.18-11.18-8.85
					C101.23,382.13,100.72,381.8,100.15,381.67z"/>
				<path class="st17" d="M166.2,389.63h-10.59c-0.39,0-0.72,0.27-0.8,0.66l-1.58,8.62c-0.16,0.9,0.55,1.74,1.46,1.72
					c3.82-0.06,9.32-0.29,14.13-0.29c5.61,0,7.62,0.31,14.2,0.31c3.98,0,4.93-4.03,3.26-4.39c-7.65-1.66-11-1.84-17.7-5.88
					C167.83,389.95,167.03,389.63,166.2,389.63z"/>
				<path class="st17" d="M114.93,61.1c-9.46,9.03-12.27,29.29-12.27,29.29l17.09,8.38c0,0,5.2-10.46,8.45-21.81
					C131.6,65.05,121.76,54.58,114.93,61.1z"/>
				<path class="st18" d="M123.42,74.49l-8.7,21.78l5.02,2.49c0,0,2.8-5.66,5.6-13.17L123.42,74.49z"/>
				<path class="st17" d="M174.76,103.09c-0.07,10.82-0.72,24.29-2.33,41h-51.87c-0.64-7.62,2.54-43.53-5.17-79.49
					c-0.58-2.68,1.22-5.3,3.92-5.71c3.3-0.52,7.83-1.11,12.25-1.31c6.61-0.32,16.2-0.53,22.04,0c7.7,0.7,15.03,2.69,15.03,2.69
					s4.44,4.8,5.79,27.34C174.65,92.05,174.8,97.17,174.76,103.09z"/>
				<path class="st11" d="M125.52,57.34l-2.27,0.27c-0.38,0.05-0.65,0.39-0.59,0.77c0.7,4.62,6.6,32.2,50.32,72.45
					c0.42,0.38,1.11,0.12,1.14-0.44l0.17-2.54c0.01-0.21-0.07-0.41-0.22-0.54c-44.04-40.27-47.55-64.89-47.8-69.32
					C126.26,57.59,125.91,57.29,125.52,57.34z"/>
				<path class="st11" d="M153.59,110.09l19.9,19.15l-2.3,1.45c-3.06,1.92-6.92,2-10.05,0.22l-5.26-2.99
					c-4.1-2.33-5.97-7.26-4.42-11.72L153.59,110.09z"/>
				<path class="st17" d="M160.18,127.27c0.17,0.38,0.97,0.32,1.79-0.15c0.82-0.47,1.35-1.15,1.18-1.55
					c-0.17-0.39-0.97-0.32-1.79,0.15C160.54,126.19,160.01,126.88,160.18,127.27z"/>
				<path class="st18" d="M174.76,103.09c-3.13-5.73-8.83-17.22-8.03-23.77l7.65,8.29C174.65,92.05,174.8,97.17,174.76,103.09z"/>
				<path class="st17" d="M158.43,69.04c-0.82,9.2,20.14,31.46,20.14,31.46l16.79-13.67c0,0-6.9-11.97-15.69-20.47
					C169.85,56.87,159.36,58.68,158.43,69.04z"/>
				<g class="st19">
					<polygon points="166.41,368.3 166.36,380.78 156.65,380.78 156.7,368.3 					"/>
					<polygon points="95.74,360.35 105.08,362.06 101.63,373.45 92.28,371.74 					"/>
				</g>
				<path class="st15" d="M135.74,21.82c-1.43,9.55-2.73,15.05,0.95,21.06c5.54,9.04,17.95,7.64,22.16-1.18
					c3.8-7.95,5.48-22.22-2.85-28.27C147.81,7.48,137.17,12.28,135.74,21.82z"/>
				<path class="st17" d="M152.96,30.67c-0.07,2.72-7.04,11.59-12.99,12.69c-6.43,1.19-8.07-0.63-9.09-9.39
					c-1.18-10.07-4.55-10.07-6.01-16.5c-1.84-8.1,6.08-15.47,15.47-11c8.13,3.87,15.65-3.75,21.25-6.01
					c5.6-2.27,6.46,4.21,2.73,8.58c-3.7,4.31,2.17,1.68,3.88,3.53c3.08,3.3-1.97,10.7-14.53,13.64
					C155.83,28.52,152.96,30.67,152.96,30.67z"/>
				<path class="st15" d="M149.99,27.72c-0.01,2.54,1,5.04,2.3,6.73c1.94,2.54,4.21,1.3,4.77-1.51c0.49-2.53,0.07-6.9-2.41-8.45
					C152.22,22.96,150.01,24.81,149.99,27.72z"/>
				<g>
					<path class="st11" d="M154.02,144.09c0,0-8.15,74.11-13.11,101.87c-5.44,30.41-33.63,125.83-33.63,125.83l-17.37-3.7
						c0,0,19.4-89.28,22.02-119.38c2.84-32.67,8.62-104.62,8.62-104.62H154.02z"/>
					<path class="st20" d="M154.02,144.09c0,0-8.15,74.11-13.11,101.87c-5.44,30.41-33.63,125.83-33.63,125.83l-17.37-3.7
						c0,0,19.4-89.28,22.02-119.38c2.84-32.67,8.62-104.62,8.62-104.62H154.02z"/>
				</g>
				<path class="st17" d="M111.17,365.93c0.07,0.01-2.96,6.34-2.96,6.34l-19.55-4.16l1.4-5.92L111.17,365.93z"/>
				<path class="st18" d="M148.09,170.49c-12.63,2.49-9.45,49.95-6.98,74.35c3-17.25,7.09-50.44,9.85-74.01
					C150.11,170.42,149.15,170.28,148.09,170.49z"/>
				<g>
					<path class="st11" d="M172.43,144.09c0,0,4.14,72.5,4.23,102.07c0.09,30.76-6.77,131.47-6.77,131.47h-16.43
						c0,0-4.42-98.91-6.31-129.12c-2.06-32.94-8.81-104.43-8.81-104.43h34.09V144.09z"/>
					<path class="st20" d="M172.43,144.09c0,0,4.14,72.5,4.23,102.07c0.09,30.76-6.77,131.47-6.77,131.47h-16.43
						c0,0-4.42-98.91-6.31-129.12c-2.06-32.94-8.81-104.43-8.81-104.43h34.09V144.09z"/>
				</g>
				<path class="st17" d="M172.8,371.09c0.07,0-0.66,6.82-0.66,6.82h-19.99l-0.77-6.08L172.8,371.09z"/>
			</g>
		</g>
	</g>
</g>
</svg>
