<svg width="525" height="462" version="1.1" xmlns="http://www.w3.org/2000/svg" xmlns:xlink="http://www.w3.org/1999/xlink" x="0px" y="0px"
	 viewBox="0 0 427.33 375.89" style="enable-background:new 0 0 427.33 375.89;" xml:space="preserve">
<style type="text/css">
	.st0{fill:#EBEBEB;}
	.st1{fill:#E6E6E6;}
	.st2{fill:#F5F5F5;}
	.st3{fill:#FAFAFA;}
	.st4{fill:#FFFFFF;}
	.st5{fill:#F0F0F0;}
	.st6{fill:#E0E0E0;}
	.st7{display:none;}
	.st8{display:inline;}
	.st9{fill:#407BFF;}
	.st10{opacity:0.9;fill:#FFFFFF;}
	.st11{fill:#00AA13;}
	.st12{opacity:0.2;fill:#FFFFFF;}
	.st13{opacity:0.1;}
	.st14{opacity:0.1;fill:#00AA13;}
	.st15{fill:#FFC3BD;}
	.st16{opacity:0.2;}
	.st17{fill:#263238;}
	.st18{opacity:0.15;fill:#FFFFFF;}
</style>
<g id="Background_Complete">
	<g>
		<rect x="7.67" y="330.73" class="st0" width="417" height="0.25"/>
		<rect x="298" y="337.54" class="st0" width="73.79" height="0.25"/>
		<rect x="68.28" y="339.22" class="st0" width="8.69" height="0.25"/>
		<rect x="372.79" y="346.83" class="st0" width="19.19" height="0.25"/>
		<rect x="164.67" y="343.44" class="st0" width="48.67" height="0.25"/>
		<rect x="131.38" y="343.44" class="st0" width="24.38" height="0.25"/>
		<rect x="17.13" y="339.22" class="st0" width="33.15" height="0.25"/>
		<path class="st0" d="M201.68,286.13H8.58c-3.15,0-5.71-2.56-5.71-5.71V8.99c0-3.15,2.56-5.71,5.71-5.71h193.1
			c3.15,0,5.71,2.56,5.71,5.71v271.43C207.39,283.57,204.83,286.13,201.68,286.13z M8.58,3.54c-3.01,0-5.46,2.45-5.46,5.46v271.43
			c0,3.01,2.45,5.46,5.46,5.46h193.1c3.01,0,5.46-2.45,5.46-5.46V8.99c0-3.01-2.45-5.46-5.46-5.46H8.58z"/>
		<path class="st0" d="M417.98,286.13h-193.1c-3.15,0-5.71-2.56-5.71-5.71V8.99c0-3.15,2.56-5.71,5.71-5.71h193.1
			c3.15,0,5.71,2.56,5.71,5.71v271.43C423.69,283.57,421.12,286.13,417.98,286.13z M224.88,3.54c-3.01,0-5.46,2.45-5.46,5.46v271.43
			c0,3.01,2.45,5.46,5.46,5.46h193.1c3.01,0,5.46-2.45,5.46-5.46V8.99c0-3.01-2.45-5.46-5.46-5.46H224.88z"/>
	</g>
	<g>
		<g>
			<g>
				<g>
					
						<rect x="40.67" y="43.02" transform="matrix(-1 -1.224647e-16 1.224647e-16 -1 235.3277 266.4811)" class="st1" width="153.99" height="180.44"/>
					
						<rect x="37.24" y="43.02" transform="matrix(-1 -1.224647e-16 1.224647e-16 -1 228.4703 266.4811)" class="st2" width="153.99" height="180.44"/>
					
						<rect x="40.67" y="223.46" transform="matrix(-1 -1.224647e-16 1.224647e-16 -1 235.3277 452.7606)" class="st1" width="153.99" height="5.84"/>
					
						<rect x="31.09" y="223.46" transform="matrix(-1 -1.224647e-16 1.224647e-16 -1 216.1615 452.7606)" class="st2" width="153.99" height="5.84"/>
					
						<rect x="29.76" y="62.4" transform="matrix(-1.836970e-16 1 -1 -1.836970e-16 247.4758 19.0053)" class="st3" width="168.94" height="141.68"/>
					<polygon class="st4" points="171.16,217.71 146.86,48.77 108.08,48.77 132.38,217.71 					"/>
					<polygon class="st4" points="123.33,217.71 99.03,48.77 72.33,48.77 96.63,217.71 					"/>
					
						<rect x="-39.78" y="131.94" transform="matrix(-1.836970e-16 1 -1 -1.836970e-16 177.9337 88.5474)" class="st1" width="168.94" height="2.59"/>
					
						<rect x="39.79" y="194.1" transform="matrix(-1 -1.224647e-16 1.224647e-16 -1 228.4703 395.9089)" class="st2" width="148.89" height="7.71"/>
				</g>
			</g>
		</g>
		<g>
			<g>
				
					<rect x="252.39" y="92.67" transform="matrix(-1 -1.224647e-16 1.224647e-16 -1 528.5349 423.3984)" class="st1" width="23.76" height="238.07"/>
				<polygon class="st5" points="256.9,330.73 252.39,330.73 252.39,317.9 261.63,317.9 				"/>
				
					<rect x="371.82" y="92.67" transform="matrix(-1 -1.224647e-16 1.224647e-16 -1 767.3966 423.3984)" class="st1" width="23.76" height="238.07"/>
				
					<rect x="252.39" y="92.67" transform="matrix(-1 -1.224647e-16 1.224647e-16 -1 628.1441 417.0783)" class="st5" width="123.37" height="231.74"/>
				<path class="st6" d="M308.38,307.33h-48.31c-2.59,0-4.7-2.11-4.7-4.7V100.59c0-2.59,2.11-4.7,4.7-4.7h48.31
					c2.59,0,4.7,2.11,4.7,4.7v202.04C313.08,305.22,310.97,307.33,308.38,307.33z M260.07,96.93c-2.01,0-3.65,1.64-3.65,3.65v202.04
					c0,2.01,1.64,3.65,3.65,3.65h48.31c2.01,0,3.65-1.64,3.65-3.65V100.59c0-2.01-1.64-3.65-3.65-3.65H260.07z"/>
				<path class="st6" d="M368.08,307.33h-48.31c-2.59,0-4.7-2.11-4.7-4.7V100.59c0-2.59,2.11-4.7,4.7-4.7h48.31
					c2.59,0,4.7,2.11,4.7,4.7v202.04C372.78,305.22,370.67,307.33,368.08,307.33z M319.76,96.93c-2.01,0-3.65,1.64-3.65,3.65v202.04
					c0,2.01,1.64,3.65,3.65,3.65h48.31c2.01,0,3.65-1.64,3.65-3.65V100.59c0-2.01-1.64-3.65-3.65-3.65H319.76z"/>
				<path class="st3" d="M328.26,202.35c0,2.22-1.8,4.01-4.01,4.01s-4.01-1.8-4.01-4.01c0-2.22,1.8-4.01,4.01-4.01
					S328.26,200.13,328.26,202.35z"/>
				<path class="st3" d="M307.91,202.35c0,2.22-1.8,4.01-4.01,4.01s-4.01-1.8-4.01-4.01c0-2.22,1.8-4.01,4.01-4.01
					S307.91,200.13,307.91,202.35z"/>
				<polygon class="st5" points="371.24,330.73 375.76,330.73 375.76,317.9 366.51,317.9 				"/>
			</g>
			<g>
				<polygon class="st1" points="329.18,58.44 291.32,58.44 307.1,53.08 344.95,53.08 				"/>
				
					<rect x="338.21" y="58.44" transform="matrix(-1 -1.224647e-16 1.224647e-16 -1 714.2783 151.1111)" class="st0" width="37.85" height="34.22"/>
				
					<rect x="284.97" y="76.21" transform="matrix(-1 -1.224647e-16 1.224647e-16 -1 580.0472 168.8806)" class="st0" width="10.11" height="16.45"/>
				<rect x="272.44" y="76.21" class="st2" width="12.53" height="16.45"/>
				<polygon class="st0" points="338.21,58.44 376.06,58.44 360.29,54.89 322.44,54.89 				"/>
				<rect x="291.32" y="58.44" class="st2" width="46.89" height="34.22"/>
			</g>
		</g>
		<g>
			<polygon class="st2" points="142.56,330.73 175.02,330.73 171.19,252.62 142.56,252.62 			"/>
			<g>
				<polygon class="st1" points="39.9,330.73 164.55,330.73 173.17,250 48.52,250 				"/>
				<polygon class="st5" points="36.29,330.73 160.94,330.73 169.56,250 44.91,250 				"/>
				<polygon class="st3" points="155.09,321.79 162.97,258.94 50.76,258.94 42.88,321.79 				"/>
			</g>
		</g>
	</g>
</g>
<g id="Background_Simple" class="st7">
	<g class="st8">
		<path class="st9" d="M335.83,108.72c-21.17-16.06-42.19,8.87-64.42,10.97c-26.65,2.52-35.32-7.52-52.71-23.09
			c-25.65-22.96-52.45-53.2-92.67-48.94C18.05,59.09,25.12,180.03,85.71,231.45c39.29,33.35,80.98,11.2,129.36,11.94
			c43.61,0.66,112.94,37.42,155.24,11.73c37.68-22.88,25.11-74.35-12.73-85.78c-12.25-3.7-19.68-13.91-18.47-26.33
			C340.24,131.34,347.16,117.32,335.83,108.72z"/>
		<path class="st10" d="M335.83,108.72c-21.17-16.06-42.19,8.87-64.42,10.97c-26.65,2.52-35.32-7.52-52.71-23.09
			c-25.65-22.96-52.45-53.2-92.67-48.94C18.05,59.09,25.12,180.03,85.71,231.45c39.29,33.35,80.98,11.2,129.36,11.94
			c43.61,0.66,112.94,37.42,155.24,11.73c37.68-22.88,25.11-74.35-12.73-85.78c-12.25-3.7-19.68-13.91-18.47-26.33
			C340.24,131.34,347.16,117.32,335.83,108.72z"/>
	</g>
</g>
<g id="Shadow_1_">
	<ellipse id="_x3C_Path_x3E__361_" class="st2" cx="214.67" cy="364.57" rx="193.89" ry="11.32"/>
</g>
<g id="Browser">
	<g>
		
			<rect x="312.83" y="122.94" transform="matrix(0.05 -0.9987 0.9987 0.05 185.17 441.627)" class="st11" width="23.81" height="1.07"/>
		
			<rect x="319.38" y="144.05" transform="matrix(0.05 -0.9987 0.9987 0.05 163.0786 460.6159)" class="st11" width="8.58" height="1.07"/>
		<path class="st11" d="M298.89,303.68H196.66c-7.44,0-13.22-6.09-12.85-13.53l11.4-226c0.38-7.44,6.77-13.53,14.21-13.53h102.23
			c7.44,0,13.22,6.09,12.85,13.53l-11.4,226C312.72,297.59,306.33,303.68,298.89,303.68z"/>
		<path class="st12" d="M271.37,282.19h-30.83c-4.56,0-8.78-1.79-11.87-5.04c-3.1-3.26-4.67-7.57-4.44-12.14l5.47-108.5
			c0.48-9.44,8.54-17.12,17.99-17.12h30.83c4.56,0,8.78,1.79,11.87,5.04c3.1,3.26,4.67,7.57,4.44,12.14l-5.47,108.5
			C288.88,274.51,280.81,282.19,271.37,282.19z M247.69,140.52c-8.85,0-16.41,7.2-16.86,16.05l-5.47,108.5
			c-0.21,4.26,1.25,8.27,4.13,11.3c2.88,3.02,6.8,4.69,11.05,4.69h30.83c8.85,0,16.41-7.2,16.86-16.05l5.47-108.5
			c0.21-4.26-1.25-8.27-4.13-11.3c-2.88-3.02-6.8-4.69-11.05-4.69H247.69z"/>
		<path class="st13" d="M245.5,169.37h-26.06c-7.44,0-13.22-6.09-12.85-13.53l1.31-26.06c0.38-7.44,6.77-13.53,14.21-13.53h26.06
			c7.44,0,13.22,6.09,12.85,13.53l-1.31,26.06C259.34,163.28,252.94,169.37,245.5,169.37z"/>
		<path class="st4" d="M237.91,161.38h-26.06c-7.44,0-13.22-6.09-12.85-13.53l1.31-26.06c0.38-7.44,6.77-13.53,14.21-13.53h26.06
			c7.44,0,13.22,6.09,12.85,13.53l-1.31,26.06C251.75,155.29,245.36,161.38,237.91,161.38z"/>
		<path class="st13" d="M282.1,270.17h-18.57c-5.3,0-9.42-4.34-9.15-9.64l0.94-18.57c0.27-5.3,4.82-9.64,10.13-9.64h18.57
			c5.3,0,9.42,4.34,9.15,9.64l-0.94,18.57C291.96,265.84,287.4,270.17,282.1,270.17z"/>
		<path class="st4" d="M276.69,264.48h-18.57c-5.3,0-9.42-4.34-9.15-9.64l0.94-18.57c0.27-5.3,4.82-9.64,10.13-9.64h18.57
			c5.3,0,9.42,4.34,9.15,9.64l-0.94,18.57C286.55,260.14,282,264.48,276.69,264.48z"/>
		<path class="st4" d="M214.81,208.26h-13.4c-3.83,0-6.8-3.13-6.61-6.96l0.68-13.4c0.19-3.83,3.48-6.96,7.31-6.96h13.4
			c3.83,0,6.8,3.13,6.61,6.96l-0.68,13.4C221.93,205.12,218.64,208.26,214.81,208.26z"/>
		<path class="st4" d="M300.75,208.26h-13.4c-3.83,0-6.8-3.13-6.61-6.96l0.68-13.4c0.19-3.83,3.48-6.96,7.31-6.96h13.4
			c3.83,0,6.8,3.13,6.61,6.96l-0.68,13.4C307.87,205.12,304.58,208.26,300.75,208.26z"/>
		<path class="st4" d="M257.78,208.26h-13.4c-3.83,0-6.8-3.13-6.61-6.96l0.68-13.4c0.19-3.83,3.48-6.96,7.31-6.96h13.4
			c3.83,0,6.8,3.13,6.61,6.96l-0.68,13.4C264.9,205.12,261.61,208.26,257.78,208.26z"/>
		<path class="st4" d="M307.63,90.02h-98.15c-4.15,0-7.38-3.4-7.17-7.55l0.01-0.18c0.21-4.15,3.78-7.55,7.93-7.55h98.15
			c4.15,0,7.38,3.4,7.17,7.55l-0.01,0.18C315.35,86.62,311.78,90.02,307.63,90.02z"/>
		<polygon class="st11" points="303.22,78.09 304.47,80.91 307.56,81.36 305.2,83.56 305.57,86.67 302.86,85.2 300,86.67 
			300.69,83.56 298.54,81.36 301.68,80.91 		"/>
		<path class="st14" d="M215.15,82.38c-0.08,1.56-1.4,2.82-2.96,2.82c-1.56,0-2.76-1.26-2.68-2.82c0.08-1.56,1.4-2.82,2.96-2.82
			C214.03,79.56,215.23,80.82,215.15,82.38z"/>
		<path class="st14" d="M222.39,82.38c-0.08,1.56-1.4,2.82-2.96,2.82c-1.56,0-2.76-1.26-2.68-2.82c0.08-1.56,1.4-2.82,2.96-2.82
			C221.27,79.56,222.47,80.82,222.39,82.38z"/>
		<path class="st14" d="M229.62,82.38c-0.08,1.56-1.4,2.82-2.96,2.82c-1.56,0-2.75-1.26-2.68-2.82c0.08-1.56,1.4-2.82,2.96-2.82
			C228.5,79.56,229.7,80.82,229.62,82.38z"/>
		<polygon class="st12" points="250.91,62.79 256.57,67.23 257.02,58.35 		"/>
		<polygon class="st12" points="268.94,62.79 262.83,67.23 263.28,58.35 		"/>
		<path class="st12" d="M304.02,123.96h-35.7c-0.78,0-1.5-0.31-2.02-0.86c-0.53-0.55-0.8-1.29-0.76-2.07c0.08-1.6,1.45-2.9,3.04-2.9
			h35.7c0.78,0,1.5,0.3,2.02,0.86c0.53,0.56,0.8,1.29,0.76,2.07C306.98,122.66,305.62,123.96,304.02,123.96z M268.58,118.7
			c-1.3,0-2.42,1.06-2.48,2.36c-0.03,0.62,0.18,1.21,0.6,1.65c0.42,0.44,0.99,0.68,1.61,0.68h35.7c1.3,0,2.42-1.06,2.48-2.36
			c0.03-0.62-0.18-1.21-0.6-1.65c-0.42-0.44-0.99-0.68-1.61-0.68H268.58z"/>
		<path class="st12" d="M303.62,131.95h-35.7c-0.78,0-1.5-0.31-2.02-0.86c-0.53-0.56-0.8-1.29-0.76-2.07c0.08-1.6,1.45-2.9,3.04-2.9
			h35.7c0.78,0,1.5,0.31,2.02,0.86c0.53,0.56,0.8,1.29,0.76,2.07C306.58,130.65,305.21,131.95,303.62,131.95z M268.18,126.69
			c-1.3,0-2.42,1.06-2.48,2.36c-0.03,0.62,0.18,1.21,0.6,1.65c0.42,0.44,0.99,0.68,1.61,0.68h35.7c1.3,0,2.42-1.06,2.48-2.36
			c0.03-0.62-0.18-1.21-0.6-1.65c-0.42-0.44-0.99-0.68-1.61-0.68H268.18z"/>
		<path class="st12" d="M206.63,267.88c-0.78,0-1.5-0.31-2.02-0.86c-0.53-0.56-0.8-1.29-0.76-2.07l1.8-35.7
			c0.08-1.6,1.45-2.9,3.04-2.9c0.78,0,1.5,0.31,2.02,0.86c0.53,0.55,0.8,1.29,0.76,2.07l-1.8,35.7
			C209.59,266.58,208.22,267.88,206.63,267.88z M208.69,226.92c-1.3,0-2.42,1.06-2.48,2.36l-1.8,35.7l0,0
			c-0.03,0.62,0.18,1.21,0.6,1.65c0.42,0.44,0.99,0.68,1.61,0.68c1.3,0,2.42-1.06,2.48-2.36l1.8-35.7c0.03-0.62-0.18-1.21-0.6-1.65
			C209.89,227.16,209.31,226.92,208.69,226.92z M204.13,264.97L204.13,264.97L204.13,264.97z"/>
	</g>
</g>
<g id="Character_1_">
	<g>
		<g>
			<g>
				<path class="st15" d="M113.05,156.28l4.77,4.16l-8.81,3.98c0,0-0.43-2.07-0.67-5.3c-0.1-1.35,0.89-2.53,2.24-2.64L113.05,156.28
					z"/>
				<polygon class="st15" points="119.59,168.9 111.77,168.9 109.01,164.42 117.82,160.43 				"/>
			</g>
			<g>
				<g>
					<line class="st16" x1="81.21" y1="87.34" x2="81.21" y2="87.34"/>
				</g>
			</g>
			<g>
				<g>
					<path class="st15" d="M164.22,94.23c3.34,4.22,6.79,8.55,10.24,12.75c3.45,4.22,6.98,8.36,10.6,12.24l1.37,1.43l0.52,0.53
						c0.11,0.13,0.3,0.27,0.46,0.41c0.7,0.57,1.65,1.19,2.68,1.75c2.09,1.12,4.49,2.14,6.96,3.04c4.94,1.82,10.25,3.4,15.46,4.87
						l-0.77,5.88c-5.81-0.12-11.45-0.7-17.22-1.91c-2.88-0.63-5.77-1.39-8.74-2.59c-1.49-0.61-3.01-1.31-4.57-2.35
						c-0.4-0.28-0.78-0.52-1.19-0.86l-0.6-0.49l-0.43-0.38l-1.64-1.47c-4.29-3.95-8.21-8.11-11.96-12.37
						c-3.76-4.28-7.29-8.63-10.72-13.24L164.22,94.23z"/>
				</g>
				<polygon class="st15" points="221.87,130.26 224.02,138.53 215.63,138.05 217.53,128.83 				"/>
				<path class="st15" d="M210.21,131.24l7.32-2.41l-1.9,9.22c0,0-6.47,1.89-8.79-2.84L210.21,131.24z"/>
				<path class="st15" d="M122.42,97.76c-1.51,5.22-3.11,10.46-4.73,15.65l-2.4,7.77l-1.15,3.85l-0.55,1.9l-0.46,1.73
					c-0.18,0.68-0.28,1.85-0.32,3.01c-0.04,1.19-0.02,2.45,0.04,3.73c0.12,2.57,0.33,5.22,0.6,7.89c0.55,5.32,1.2,10.76,1.86,16.14
					l-5.74,1.46c-1.97-5.28-3.63-10.58-4.97-16.07c-0.65-2.75-1.26-5.53-1.7-8.41c-0.21-1.45-0.4-2.93-0.5-4.48
					c-0.1-1.57-0.15-3.16,0.13-5.19c0.08-0.57,0.14-0.82,0.21-1.21l0.2-1.08l0.42-2.1c0.29-1.39,0.61-2.76,0.93-4.11
					c0.64-2.72,1.31-5.41,2.03-8.09c1.42-5.36,2.97-10.63,4.68-15.91L122.42,97.76z"/>
				<path class="st15" d="M151.61,63.94c0,0,0.64,3.95,1.82,6.08c-1.31,0.75-3.07-0.19-3.07-0.19L151.61,63.94z"/>
				<path class="st15" d="M130.14,64.72c-0.7,7.26,0.33,14.29-1.29,20.6c0,0,1.8,5.86,12.53,5.86c11.8,0,5.41-5.86,5.41-5.86
					c-6.5-1.54-6.52-6.32-5.57-10.8L130.14,64.72z"/>
				<path class="st11" d="M126.56,87.33c-0.92-1.85-1.53-4.48,0.37-5.14c2.09-0.73,13.26-0.97,17.31,0.4
					c4.05,1.37,3.06,5.13,3.06,5.13L126.56,87.33z"/>
				<path class="st11" d="M105.12,351.03c-0.78-0.18-1.58-0.54-2.12-0.82c-0.07-0.04-0.12-0.11-0.11-0.2
					c0.01-0.08,0.06-0.15,0.14-0.18c0.35-0.12,3.45-1.14,4.27-0.45c0.13,0.11,0.27,0.31,0.21,0.64c-0.08,0.45-0.3,0.77-0.66,0.95
					C106.38,351.21,105.76,351.18,105.12,351.03z M103.64,350.06c1.36,0.62,2.47,0.83,3.02,0.55c0.24-0.12,0.39-0.34,0.44-0.66
					c0.03-0.16-0.02-0.22-0.07-0.26C106.6,349.33,104.89,349.69,103.64,350.06z"/>
				<path class="st11" d="M103.04,350.22c-0.04-0.01-0.07-0.03-0.1-0.06c-0.05-0.05-0.07-0.13-0.05-0.2
					c0.03-0.1,0.81-2.47,1.97-3.04c0.3-0.15,0.61-0.17,0.91-0.06h0c0.46,0.17,0.52,0.49,0.51,0.67c-0.04,0.98-2.16,2.42-3.14,2.69
					C103.11,350.23,103.08,350.23,103.04,350.22z M105.54,347.22c-0.16-0.04-0.33-0.02-0.5,0.07c-0.75,0.36-1.35,1.71-1.61,2.4
					c1.02-0.45,2.42-1.59,2.44-2.17c0-0.05,0.01-0.18-0.24-0.27l0,0C105.6,347.24,105.57,347.23,105.54,347.22z"/>
				<path class="st11" d="M159.75,357.13c-0.8,0-1.66-0.17-2.26-0.31c-0.08-0.02-0.14-0.08-0.15-0.17s0.02-0.16,0.09-0.21
					c0.31-0.2,3.1-1.91,4.05-1.42c0.15,0.08,0.33,0.24,0.35,0.58c0.03,0.46-0.11,0.82-0.42,1.08
					C161.02,357.02,160.4,357.13,159.75,357.13z M158.08,356.53c1.46,0.29,2.59,0.24,3.06-0.16c0.21-0.17,0.3-0.42,0.28-0.74
					c-0.01-0.16-0.07-0.21-0.13-0.24C160.8,355.14,159.21,355.88,158.08,356.53z"/>
				<path class="st11" d="M157.54,356.82c-0.04,0-0.08-0.01-0.11-0.03c-0.06-0.04-0.1-0.11-0.09-0.19c0.01-0.11,0.21-2.59,1.22-3.41
					c0.26-0.21,0.55-0.3,0.87-0.26c0,0,0,0,0,0c0.49,0.06,0.62,0.36,0.65,0.54c0.18,0.96-1.54,2.85-2.44,3.34
					C157.61,356.82,157.57,356.82,157.54,356.82z M159.28,353.33c-0.17,0-0.32,0.06-0.47,0.18c-0.64,0.52-0.92,1.98-1.02,2.7
					c0.89-0.67,1.99-2.1,1.88-2.67c-0.01-0.05-0.03-0.17-0.3-0.21l0,0C159.34,353.33,159.31,353.33,159.28,353.33z"/>
				<polygon class="st15" points="148.25,356.51 156.15,356.51 156.23,338.23 148.34,338.23 				"/>
				<polygon class="st15" points="93.26,349.75 100.86,351.14 106.31,333.16 98.71,331.76 				"/>
				<path class="st17" d="M102.3,349.12l-8.63-2.04c-0.31-0.07-0.63,0.08-0.76,0.37l-2.87,6.53c-0.3,0.68,0.13,1.49,0.85,1.64
					c3.02,0.66,4.52,0.83,8.32,1.73c2.33,0.55,7.1,1.93,10.32,2.7c3.15,0.75,4.28-2.36,3.01-2.96c-5.66-2.71-7.54-5.03-9.1-7.2
					C103.18,349.5,102.76,349.23,102.3,349.12z"/>
				<path class="st17" d="M156.06,355.6l-8.62,0c-0.32,0-0.59,0.22-0.65,0.54l-1.29,7.02c-0.13,0.73,0.45,1.42,1.19,1.4
					c3.11-0.05,7.59-0.24,11.5-0.24c4.57,0,6.2,0.25,11.56,0.25c3.24,0,4.01-3.28,2.65-3.57c-6.23-1.35-8.95-1.5-14.41-4.79
					C157.39,355.86,156.74,355.6,156.06,355.6z"/>
				<path class="st17" d="M114.33,88.19c-7.7,7.35-9.99,23.84-9.99,23.84l13.91,6.82c0,0,4.23-8.51,6.88-17.75
					C127.9,91.41,119.89,82.88,114.33,88.19z"/>
				<path class="st16" d="M121.24,99.09l-7.08,17.73l4.09,2.03c0,0,2.28-4.61,4.56-10.72L121.24,99.09z"/>
				<path class="st17" d="M163.03,122.37c-0.06,8.81-0.59,19.77-1.9,33.37h-42.22c-0.52-6.2,2.07-35.43-4.21-64.7
					c-0.47-2.18,0.99-4.31,3.19-4.65c2.69-0.42,6.37-0.9,9.97-1.07c5.38-0.26,13.19-0.43,17.94,0c6.27,0.57,12.23,2.19,12.23,2.19
					s3.61,3.91,4.71,22.25C162.94,113.38,163.06,117.55,163.03,122.37z"/>
				<path class="st11" d="M122.95,85.13l-1.85,0.22c-0.31,0.04-0.53,0.32-0.48,0.63c0.57,3.76,5.37,26.21,40.96,58.97
					c0.34,0.31,0.9,0.1,0.93-0.36l0.14-2.07c0.01-0.17-0.06-0.33-0.18-0.44c-35.85-32.78-38.7-52.82-38.91-56.42
					C123.55,85.33,123.27,85.09,122.95,85.13z"/>
				<path class="st11" d="M145.8,128.07L162,143.66l-1.87,1.18c-2.49,1.56-5.63,1.63-8.18,0.18l-4.28-2.43
					c-3.34-1.9-4.86-5.91-3.6-9.54L145.8,128.07z"/>
				<path class="st17" d="M151.16,142.05c0.14,0.31,0.79,0.26,1.46-0.12c0.67-0.38,1.1-0.94,0.96-1.26s-0.79-0.26-1.46,0.12
					C151.45,141.17,151.02,141.73,151.16,142.05z"/>
				<path class="st16" d="M163.03,122.37c-2.55-4.66-7.19-14.02-6.54-19.35l6.23,6.75C162.94,113.38,163.06,117.55,163.03,122.37z"
					/>
				<path class="st17" d="M149.74,94.65c-0.67,7.49,16.39,25.61,16.39,25.61l13.67-11.13c0,0-5.62-9.74-12.77-16.66
					C159.03,84.75,150.49,86.22,149.74,94.65z"/>
				<g class="st16">
					<polygon points="156.23,338.24 156.19,348.4 148.29,348.4 148.33,338.24 					"/>
					<polygon points="98.71,331.77 106.31,333.16 103.5,342.43 95.89,341.04 					"/>
				</g>
				<path class="st15" d="M131.27,56.22c-1.16,7.77-2.22,12.25,0.77,17.14c4.51,7.36,14.61,6.22,18.04-0.96
					c3.09-6.47,4.46-18.09-2.32-23.01C141.09,44.55,132.43,48.45,131.27,56.22z"/>
				<path class="st17" d="M145.28,63.42c-0.06,2.21-5.73,9.43-10.57,10.33c-5.23,0.97-6.57-0.51-7.4-7.64
					c-0.96-8.2-3.7-8.2-4.89-13.43c-1.5-6.59,4.95-12.59,12.59-8.95c6.62,3.15,12.74-3.05,17.3-4.89c4.56-1.85,5.26,3.43,2.22,6.98
					c-3.01,3.51,1.77,1.37,3.16,2.87c2.51,2.69-1.6,8.71-11.83,11.1C147.62,61.67,145.28,63.42,145.28,63.42z"/>
				<path class="st15" d="M142.87,61.02c-0.01,2.07,0.81,4.1,1.87,5.48c1.58,2.07,3.43,1.06,3.88-1.23c0.4-2.06,0.06-5.62-1.96-6.88
					C144.68,57.15,142.88,58.65,142.87,61.02z"/>
				<g>
					<path class="st11" d="M146.15,155.74c0,0-6.63,60.32-10.67,82.92c-4.43,24.75-27.37,102.42-27.37,102.42l-14.14-3.01
						c0,0,15.79-72.67,17.92-97.17c2.31-26.59,7.02-85.16,7.02-85.16H146.15z"/>
					<path class="st18" d="M146.15,155.74c0,0-6.63,60.32-10.67,82.92c-4.43,24.75-27.37,102.42-27.37,102.42l-14.14-3.01
						c0,0,15.79-72.67,17.92-97.17c2.31-26.59,7.02-85.16,7.02-85.16H146.15z"/>
				</g>
				<path class="st17" d="M111.27,336.31c0.06,0.01-2.41,5.16-2.41,5.16l-15.91-3.39l1.14-4.82L111.27,336.31z"/>
				<path class="st16" d="M141.32,177.23c-10.28,2.03-7.69,40.66-5.68,60.52c2.44-14.04,5.77-41.06,8.02-60.24
					C142.96,177.17,142.18,177.06,141.32,177.23z"/>
				<g>
					<path class="st11" d="M161.13,155.74c0,0,3.37,59.01,3.44,83.08c0.07,25.04-5.51,107.01-5.51,107.01h-13.37
						c0,0-3.6-80.51-5.14-105.1c-1.68-26.81-7.17-85-7.17-85H161.13z"/>
					<path class="st18" d="M161.13,155.74c0,0,3.37,59.01,3.44,83.08c0.07,25.04-5.51,107.01-5.51,107.01h-13.37
						c0,0-3.6-80.51-5.14-105.1c-1.68-26.81-7.17-85-7.17-85H161.13z"/>
				</g>
				<path class="st17" d="M161.43,340.51c0.06,0-0.54,5.55-0.54,5.55h-16.27l-0.63-4.95L161.43,340.51z"/>
			</g>
		</g>
	</g>
</g>
</svg>
