<?xml version="1.0" encoding="utf-8"?>
<!-- Generator: Adobe Illustrator 24.3.0, SVG Export Plug-In . SVG Version: 6.00 Build 0)  -->
<svg version="1.1" id="Layer_1" xmlns="http://www.w3.org/2000/svg" xmlns:xlink="http://www.w3.org/1999/xlink" x="0px" y="0px"
	 viewBox="0 0 60 60" style="enable-background:new 0 0 60 60;" xml:space="preserve">
<style type="text/css">
	.st0{fill:#69B0EE;}
	.st1{fill:#EAB54E;}
	.st2{fill:#F2C55A;}
	.st3{fill:#F6C863;}
	.st4{fill:#575B6D;}
	.st5{fill:#419BE9;}
</style>
<path class="st0" d="M56.4,48.3V60H3.5V48.3c0.3-2.2,1.2-4.3,2.6-6l0.2-0.2c1.2-1.3,2.6-2.3,4.2-2.9c3.6-1.3,8.8-3.1,11.4-4l1.5-0.5
	h0.1h13l1.5,0.5c2.5,0.9,7.7,2.6,11.3,4c1.9,0.7,3.6,1.9,4.8,3.5C55.4,44.4,56.2,46.3,56.4,48.3z"/>
<path class="st1" d="M23.4,32.7v5.1c0,0.6,0.1,1.2,0.3,1.8c0.2,0.6,0.6,1.1,1,1.5c0.4,0.4,0.9,0.8,1.5,1c0.6,0.2,1.1,0.3,1.8,0.3h4
	c0.6,0,1.2-0.1,1.8-0.3c0.6-0.2,1.1-0.6,1.5-1c0.4-0.4,0.8-0.9,1-1.5c0.2-0.6,0.3-1.2,0.3-1.8v-5.1H23.4z"/>
<path class="st2" d="M19.4,20.1c0,0-2.1-1.5-2.9-0.1c-0.8,1.4,0.6,6,2.9,6 M40.6,20.1c0,0,2.1-1.5,2.9-0.1c0.8,1.4-0.6,6-2.9,6"/>
<path class="st3" d="M42,15.9c0.1,3.1-0.3,6.2-1.3,9.1c0,0-0.6,5-2.3,6.1c0,0-3.3,4.5-8.5,4.5s-8.5-4.5-8.5-4.5
	C19.8,30,19.1,25,19.1,25c-0.9-2.9-1.4-6-1.3-9.1C24.7,2.8,32.7,2.9,42,15.9z"/>
<path class="st4" d="M42,21.9h-0.7c0.2-1.8,0.1-3.6-0.2-5.4c-0.2-1.5-0.9-2.8-2.1-3.8c-1.1-1-2.6-1.5-4.1-1.4
	c-1.7,0.1-3.4,0.4-5.1,1.1c-1.6-0.6-3.3-1-5.1-1.1c-1.5,0-2.9,0.5-4.1,1.4c-1.1,1-1.9,2.3-2.1,3.8c-0.3,1.8-0.4,3.6-0.2,5.4h-0.7
	c0,0-2.3-6.3-1.6-10.2c0.6-3.3,1.4-5.8,3.2-7.7c0.2-0.2,0.4-0.3,0.6-0.4c0.2-0.1,0.5,0,0.7,0c0.2,0.1,0.4,0.1,0.7,0.1
	c0.2,0,0.4-0.1,0.6-0.3c1.9-1.8,4.3-2.9,6.8-3.4c2-0.2,4,0,5.9,0.6c1.7,0.5,3.2,1.2,4.6,2.2c2.6,2.1,3.6,4.8,4.3,8.8
	C44.2,15.6,42,21.9,42,21.9z"/>
<path class="st5" d="M38.1,35.6c0,2.1-0.8,4.2-2.4,5.7c-1.5,1.5-3.6,2.4-5.7,2.4c-2.1,0-4.2-0.8-5.7-2.4c-1.5-1.5-2.4-3.6-2.4-5.7
	v-0.2l1.5-0.5c0,0.2,0,0.5,0,0.7c0.1,1.7,0.8,3.3,2,4.5c1.2,1.2,2.9,1.8,4.6,1.8c1.7,0,3.3-0.7,4.6-1.8c1.2-1.2,2-2.8,2-4.5v-0.7
	l1.5,0.5L38.1,35.6z"/>
<path class="st5" d="M12.3,60l-0.6,0l-0.6,0v0l-0.1-12l-4.9-5.6l0.2-0.2l5.3,5.4l0.1,0.1l0,0.2L12.3,60z"/>
<path class="st5" d="M47.7,60l0.6,0l0.6,0v0l0.1-12l4.9-5.6l-0.2-0.2l-5.3,5.4l-0.1,0.1l0,0.2L47.7,60z"/>
</svg>
