<svg width="338" height="313" version="1.1" id="object" xmlns="http://www.w3.org/2000/svg" xmlns:xlink="http://www.w3.org/1999/xlink" x="0px" y="0px"
	 viewBox="0 0 2165.48 2008.86" style="enable-background:new 0 0 2165.48 2008.86;" xml:space="preserve">
<style type="text/css">
	.st0{fill:#FF7097;}
	.st1{fill:#C2D2F5;}
	.st2{fill:#00AA13;}
	.st3{fill:#6BD6D3;}
	.st4{fill:#069110;}
	.st5{fill:#03660A;}
	.st6{fill:#A6FFAA;}
	.st7{fill:#FFFFFF;}
	.st8{fill:#E3F7FF;}
	.st9{fill:#FF9A22;}
	.st10{fill:#FF8B00;}
	.st11{fill:#008409;}
	.st12{fill:#C7F0FF;}
	.st13{fill:#6AD6FF;}
	.st14{fill:#FF5482;}
	.st15{fill:#2EC3F5;}
	.st16{fill:#1B31C3;}
	.st17{fill:url(#SVGID_1_);}
	.st18{fill:#FFB5C8;}
	.st19{fill:#0E386C;}
	.st20{fill:#895640;}
	.st21{fill:#0A1A89;}
	.st22{fill:#FFA1B9;}
	.st23{fill:#007708;}
	.st24{fill:#333333;}
	.st25{fill:#E5004F;}
	.st26{fill:#0076FF;}
	.st27{fill:#1AC126;}
</style>
<path id="XMLID_465_" class="st0" d="M1252.8,865.8v107.74c0,11.36,8.22,23.22,19.58,23.22h50.03
	c9.21,38.58,25.86,79.5,49.28,115.04l-34.58,33.26c-8.03,8.03-8.03,21.05,0,29.08l76.19,76.18c8.03,8.03,21.06,8.03,29.09,0
	l35.38-35.38c35.86,22.84,75.99,38.87,117.15,47.44v48.91c0,11.36,9.17,22.42,20.53,22.42h107.74c11.36,0,20.92-11.06,20.92-22.42
	v-50.03c41.16-9.21,80.65-25.9,116.2-49.31l34.41,34.55c8.03,8.03,21.05,7.96,29.08-0.07l76.18-76.33c8.03-8.03,8.03-21.35,0-29.38
	l-35.38-35.96c22.84-35.86,38.87-77.15,47.44-118.3h48.91c11.36,0,20.11-6.87,20.11-18.23V860.51c0-11.36-8.76-18.08-20.11-18.08
	h-50.03c-9.21-46.3-25.86-82.07-49.27-117.62l34.59-35.83c8.03-8.03,8.05-21.05,0.02-29.08l-76.15-76.18
	c-8.03-8.03-20.99-8.03-29.02,0l-35.25,35.38c-35.86-22.84-75.73-38.87-116.88-47.44v-48.91c0-11.36-9.71-22.42-21.07-22.42h-107.74
	c-11.36,0-20.39,11.06-20.39,22.42v50.03c-41.16,9.21-80.92,25.86-116.46,49.27l-34.68-34.59c-8.03-8.03-21.05-8.04-29.08-0.01
	l-76.18,76.17c-8.03,8.03-8.03,21.02,0,29.05l35.38,35.32c-22.84,35.86-38.87,73.29-47.44,117.02h-48.91
	C1261.02,845,1252.8,854.44,1252.8,865.8z M1488.85,917.02c0-98.35,79.73-178.08,178.08-178.08c98.35,0,178.08,79.73,178.08,178.08
	s-79.73,178.08-178.08,178.08C1568.58,1095.11,1488.85,1015.38,1488.85,917.02z"/>
<path id="XMLID_459_" class="st1" d="M0,811.71v92.41c0,9.74,7.05,19.92,16.8,19.92h42.91c7.9,33.1,22.19,68.19,42.27,98.68
	l-29.67,28.53c-6.89,6.89-6.89,18.06,0,24.95l65.35,65.35c6.89,6.89,18.06,6.89,24.95,0l30.35-30.34
	c30.76,19.59,65.18,33.34,100.49,40.69v41.95c0,9.74,7.87,19.23,17.61,19.23h92.41c9.74,0,17.94-9.49,17.94-19.23v-42.91
	c35.3-7.9,69.18-22.22,99.67-42.3l29.51,29.63c6.89,6.89,18.06,6.83,24.95-0.06l65.35-65.47c6.89-6.89,6.89-18.31,0-25.2
	l-30.34-30.84c19.59-30.76,33.34-66.17,40.69-101.48h41.95c9.74,0,17.25-5.89,17.25-15.63v-92.41c0-9.74-7.51-15.51-17.25-15.51
	h-42.91c-7.9-39.71-22.18-70.4-42.26-100.89l29.67-30.73c6.89-6.89,6.9-18.06,0.01-24.95l-65.32-65.35c-6.89-6.89-18-6.89-24.89,0
	l-30.24,30.34C486.5,580.51,452.31,566.76,417,559.4v-41.95c0-9.74-8.33-19.23-18.07-19.23h-92.41c-9.74,0-17.49,9.49-17.49,19.23
	v42.91c-35.3,7.9-69.41,22.18-99.9,42.27l-29.74-29.67c-6.89-6.89-18.06-6.9-24.95-0.01L69.1,638.28c-6.89,6.89-6.89,18.03,0,24.92
	l30.34,30.29c-19.59,30.76-33.34,62.86-40.69,100.37H16.8C7.05,793.87,0,801.97,0,811.71z M202.47,855.65
	c0-84.36,68.39-152.75,152.75-152.75c84.36,0,152.75,68.39,152.75,152.75c0,84.36-68.39,152.75-152.75,152.75
	C270.86,1008.4,202.47,940.01,202.47,855.65z"/>
<g id="XMLID_441_">
	<g id="XMLID_443_">
		<path id="XMLID_447_" class="st2" d="M1594.9,1669.46H226.53v-853.8c0-33.6,27.24-60.84,60.84-60.84h1246.69
			c33.6,0,60.84,27.24,60.84,60.84V1669.46z"/>
		
			<rect id="XMLID_446_" x="528" y="602.57" transform="matrix(-1.836970e-16 1 -1 -1.836970e-16 2122.8608 301.4253)" class="st3" width="765.43" height="1219.16"/>
		<path id="XMLID_445_" class="st4" d="M1710,1669.46H111.44c-9.22,0-16.7,7.48-16.7,16.7v29.62c0,25.69,20.83,46.52,46.52,46.52
			h1538.92c25.69,0,46.52-20.83,46.52-46.52v-29.62C1726.7,1676.94,1719.22,1669.46,1710,1669.46z"/>
		<path id="XMLID_444_" class="st5" d="M1271.57,1669.46H549.86v23.16c0,12.85,10.41,23.26,23.26,23.26h675.19
			c12.85,0,23.26-10.41,23.26-23.26V1669.46z"/>
	</g>
</g>
<path class="st6" d="M1435.03,1768.7c0,7.19,1.2,14.1,3.41,20.55h727.03c0-44.22-35.85-80.07-80.07-80.07
	c-15.47,0-29.92,4.39-42.16,12c-13.03-44.07-53.81-76.2-102.09-76.2c-17.94,0-34.85,4.43-49.67,12.29
	c-20.34-57.24-74.99-98.21-139.19-98.21c-59.83,0-111.36,35.57-134.55,86.73c-4.3-0.55-8.69-0.82-13.14-0.82
	c-42.69,0-79.52,25.13-96.49,61.42c-3.25-0.52-6.58-0.79-9.98-0.79C1463.28,1705.6,1435.03,1733.85,1435.03,1768.7z"/>
<g>
	<path class="st7" d="M1520.3,1348.66c-35.01,17.08-48.84,48.18-48.84,48.18s7.14-58.27-52.33-83.24
		c-59.46-24.97-96.33,15.46-96.33,15.46s1.19-107.03-115.35-126.06c-116.54-19.03-141.52,98.7-141.52,98.7
		c-64.27-88.61-87.4-478.56-93.67-578.47h-75.81c-6.27,99.91-29.4,489.86-93.67,578.47c0,0-24.97-117.73-141.52-98.7
		c-116.54,19.03-115.35,126.06-115.35,126.06s-36.87-40.43-96.33-15.46c-59.46,24.97-52.33,83.24-52.33,83.24s-25.8-58-96.12-59.08
		v257.1H1520.3V1348.66z"/>
	<path class="st8" d="M1065.93,1495.49c0,0,24.97-117.73,141.52-98.7c116.54,19.03,115.35,126.06,115.35,126.06
		s36.87-40.43,96.33-15.46c59.46,24.97,52.33,83.24,52.33,83.24s13.84-31.09,48.84-48.18v52.4H301.14v-63.31
		c70.31,1.08,96.12,59.08,96.12,59.08s-7.14-58.27,52.33-83.24c59.46-24.97,96.33,15.46,96.33,15.46s-1.19-107.03,115.35-126.06
		c116.54-19.03,141.52,98.7,141.52,98.7s-5.49-154.98,131.87-154.98S1065.93,1495.49,1065.93,1495.49z"/>
	<g>
		<path id="XMLID_601_" class="st9" d="M966.32,625.11c0,0,25.76,28.91,25.76,83.05c0,54.15-26.57,81.43-30.64,81.43
			c-4.07,0-8.96-6.51-8.96-6.51s-9.77,38.27-19.95,38.27s-23.61-51.3-26.46-53.74c-2.85-2.44-4.07,4.48-11.81,5.29
			c-7.74,0.81-17.04-30.53-17.04-66.77l0-0.25c0.3-53.53,25.75-80.77,25.75-80.77H966.32z"/>
		<path id="XMLID_600_" class="st10" d="M950.84,629.25c0,0,16.33,35.48,16.33,72.92c0,37.45-8.73,46.46-12.67,46.46
			s-8.45-10.14-8.45-10.14s-4.22,18.86-11.54,18.86s-13.23-23.09-14.64-29c0,0-2.25,4.79-7.04,4.79c-4.79,0-10.7-23.28-10.7-47.11
			c0-23.84,17.17-60.91,17.17-60.91L950.84,629.25z"/>
		<path id="XMLID_607_" class="st5" d="M934.65,590.99h53.71c0,0-1.4,20.96-7.45,29.81c-6.06,8.85-31.02,12.58-46.25,12.58
			c-15.23,0-40.2-3.73-46.25-12.58c-6.06-8.85-7.45-29.81-7.45-29.81H934.65z"/>
		<g id="XMLID_602_">
			<path id="XMLID_604_" class="st5" d="M844.4,317.11c0,0-75.66,34.92-112.76,154.22s-21.82,154.22,17.46,112.03
				c39.28-42.19,96.02-75.66,124.39-75.66L844.4,317.11z"/>
			<path id="XMLID_603_" class="st5" d="M1024.89,317.11c0,0,75.66,34.92,112.76,154.22s21.82,154.22-17.46,112.03
				c-39.28-42.19-96.02-75.66-124.39-75.66L1024.89,317.11z"/>
		</g>
		<path id="XMLID_609_" class="st4" d="M831.92,196.18C853.05,92.56,914,0,934.65,0s81.02,92.56,102.14,196.18
			c21.13,103.62,18.79,258.01-7.41,328.97c-22.49,60.92-34.65,73.38-57.75,73.38c-23.1,0-36.98,0-36.98,0s-14.46,0-37.57,0
			c-23.1,0-35.26-12.46-57.75-73.38C813.13,454.19,810.79,299.8,831.92,196.18z"/>
		<path id="XMLID_608_" class="st5" d="M934.36,107.86c-34.9,0-57.05-5.51-70.1-10.61C889.94,40.19,921.04,0,934.65,0
			c13.61,0,44.44,40.17,69.94,97.2C991.56,102.32,969.38,107.86,934.36,107.86z"/>
		
			<ellipse id="XMLID_606_" transform="matrix(0.7071 -0.7071 0.7071 0.7071 127.0171 721.676)" class="st5" cx="934.65" cy="207.51" rx="69.89" ry="69.89"/>
		
			<ellipse id="XMLID_605_" transform="matrix(0.7071 -0.7071 0.7071 0.7071 127.0171 721.676)" class="st7" cx="934.65" cy="207.51" rx="45.95" ry="45.95"/>
	</g>
</g>
<g>
	<path id="XMLID_440_" class="st11" d="M1877.84,1862.38H1535c-34.06,0-61.67-27.61-61.67-61.67v-735.17
		c0-34.06,27.61-61.67,61.67-61.67h342.84c34.06,0,61.67,27.61,61.67,61.67v735.17C1939.51,1834.77,1911.9,1862.38,1877.84,1862.38z
		"/>
	<path id="XMLID_439_" class="st12" d="M1904.97,1797.93h-397.1c-4.58,0-8.29-3.71-8.29-8.29v-687.76c0-4.58,3.71-8.29,8.29-8.29
		h397.1c4.58,0,8.29,3.71,8.29,8.29v687.76C1913.25,1794.22,1909.54,1797.93,1904.97,1797.93z"/>
	<path id="XMLID_438_" class="st5" d="M1786.12,1066.83h-159.39c-5.87,0-10.63-4.76-10.63-10.63l0,0c0-5.87,4.76-10.63,10.63-10.63
		h159.39c5.87,0,10.63,4.76,10.63,10.63l0,0C1796.74,1062.07,1791.98,1066.83,1786.12,1066.83z"/>
	<circle id="XMLID_437_" class="st5" cx="1843.08" cy="1056.2" r="10.03"/>
	<g>
		<path id="XMLID_454_" class="st13" d="M1579.88,1658.14l-38.4,66.51c-2.51,4.34,0.63,9.77,5.64,9.77h76.8
			c5.01,0,8.15-5.43,5.64-9.77l-38.4-66.51C1588.65,1653.8,1582.38,1653.8,1579.88,1658.14z"/>
		<path id="XMLID_453_" class="st14" d="M1662.61,1601.81l-70.92,122.84c-2.51,4.34,0.63,9.77,5.64,9.77h141.84
			c5.01,0,8.15-5.43,5.64-9.77l-70.92-122.84C1671.38,1597.46,1665.12,1597.46,1662.61,1601.81z"/>
		<path id="XMLID_452_" class="st7" d="M1763.16,1626.67l-56.56,97.97c-2.51,4.34,0.63,9.77,5.64,9.77h113.13
			c5.01,0,8.15-5.43,5.64-9.77l-56.56-97.97C1771.93,1622.33,1765.66,1622.33,1763.16,1626.67z"/>
	</g>
	<g>
		<path id="XMLID_458_" class="st7" d="M1783.67,1461.78h-234.8c-3.32,0-6.02-2.69-6.02-6.02v-0.85c0-3.32,2.69-6.02,6.02-6.02
			h234.8c3.32,0,6.02,2.69,6.02,6.02v0.85C1789.69,1459.08,1787,1461.78,1783.67,1461.78z"/>
		<path id="XMLID_457_" class="st7" d="M1863.97,1498.78h-315.1c-3.32,0-6.02-2.69-6.02-6.02v-0.85c0-3.32,2.69-6.02,6.02-6.02
			h315.1c3.32,0,6.02,2.69,6.02,6.02v0.85C1869.99,1496.08,1867.29,1498.78,1863.97,1498.78z"/>
		<path id="XMLID_456_" class="st7" d="M1832.74,1535.78h-283.87c-3.32,0-6.02-2.69-6.02-6.02v-0.85c0-3.32,2.69-6.02,6.02-6.02
			h283.87c3.32,0,6.02,2.69,6.02,6.02v0.85C1838.76,1533.09,1836.06,1535.78,1832.74,1535.78z"/>
		<path id="XMLID_455_" class="st7" d="M1813.18,1572.36h-264.31c-3.32,0-6.02-2.69-6.02-6.02v0c0-3.32,2.69-6.02,6.02-6.02h264.31
			c3.32,0,6.02,2.69,6.02,6.02v0C1819.2,1569.67,1816.5,1572.36,1813.18,1572.36z"/>
	</g>
	<g>
		<path id="XMLID_451_" class="st13" d="M1836.91,1243.39l0.06-0.05l-0.06,0.01c-13.87-56.04-62.59-98.32-121.85-102.53
			c-2.58-0.18-4.39,2.52-3.2,4.83l15.21,29.48c0.49,0.95,0.49,2.08,0,3.03l-15.68,30.38c-1.05,2.04,0.25,4.47,2.52,4.78
			c24.72,3.36,44.91,20.97,51.99,44.3c0.34,1.11,1.21,1.98,2.33,2.27l36.01,9.26c1.04,0.27,2.14,0.01,2.96-0.68l29.36-24.8
			l0.41-0.09C1836.95,1243.53,1836.93,1243.46,1836.91,1243.39z"/>
		<path id="XMLID_450_" class="st7" d="M1840.88,1276.04c0-6.9-0.52-13.69-1.52-20.31c-0.39-2.56-3.44-3.72-5.42-2.04l-25.25,21.33
			c-0.82,0.69-1.92,0.94-2.96,0.68l-33.24-8.54c-2.23-0.57-4.3,1.24-4.11,3.54c0.15,1.77,0.23,3.55,0.23,5.36
			c0,21.24-10.46,40.03-26.5,51.52l0.19,0.3l4.02,38.74c0.11,1.06,0.73,2.01,1.66,2.54l33.45,18.92l0.08,0.12
			c0.02-0.01,0.04-0.03,0.06-0.04l0.32,0.18l-0.18-0.28C1817.44,1363.61,1840.88,1322.57,1840.88,1276.04z"/>
		<path id="XMLID_449_" class="st14" d="M1740.73,1370.26l-3.57-34.4c-0.24-2.27-2.64-3.61-4.7-2.63
			c-8.23,3.92-17.43,6.12-27.16,6.12c-11.71,0-22.67-3.18-32.08-8.72l0.02-0.02l-0.03,0.02c-0.01-0.01-0.02-0.01-0.03-0.02
			l-0.04,0.06l-33.75,19.23c-0.93,0.53-1.55,1.48-1.65,2.54l-3.89,38.74l-0.04,0.06c20.76,12.91,45.26,20.38,71.5,20.38
			c23.79,0,46.13-6.14,65.57-16.9c2.27-1.26,2.3-4.52,0.04-5.79l-28.52-16.12C1741.46,1372.27,1740.84,1371.33,1740.73,1370.26z"/>
		<path id="XMLID_448_" class="st7" d="M1702.5,1140.51L1702.5,1140.51L1702.5,1140.51L1702.5,1140.51L1702.5,1140.51
			c-60.06,1.22-110.52,41.5-127.03,96.47c-0.74,2.47,1.5,4.82,4,4.18l32.28-8.3c1.04-0.27,2.14-0.01,2.96,0.68l26,21.95
			c1.76,1.49,4.43,0.75,5.23-1.41c8.41-22.73,29.49-39.31,54.67-41.16c1.15-0.08,2.19-0.74,2.72-1.77l17.04-32.98
			c0.49-0.95,0.49-2.08,0-3.03L1702.5,1140.51z"/>
		<path id="XMLID_442_" class="st15" d="M1642,1276.04c0-3.71,0.32-7.33,0.93-10.87l0.06,0.01l-0.05-0.04
			c0.01-0.07,0.02-0.14,0.03-0.21l-0.38-0.09l-29.38-24.8c-0.82-0.69-1.92-0.94-2.95-0.68l-35.79,9.19
			c-1.25,0.32-2.21,1.33-2.45,2.6c-1.5,8.07-2.28,16.38-2.28,24.88c0,44.12,21.08,83.32,53.72,108.07c2.07,1.57,5.06,0.28,5.32-2.31
			l3.27-33.05c0.11-1.06,0.72-2.01,1.65-2.54l29.67-16.97c1.98-1.14,2.23-3.87,0.5-5.37C1650.47,1312.28,1642,1295.15,1642,1276.04z
			"/>
	</g>
</g>
<g>
	<path class="st16" d="M1989.38,1369.34l104.23-20.47c2.31-0.45,4.39,1.5,4.07,3.84l-12.98,96.39c-0.2,1.51-1.37,2.7-2.87,2.94
		l-93.11,14.9c-2.12,0.34-4.03-1.32-3.99-3.47l1.85-90.82C1986.64,1371.03,1987.8,1369.65,1989.38,1369.34z"/>
	<path class="st12" d="M1995.45,1375.33l88.22-16.54c2.31-0.43,4.36,1.52,4.04,3.85l-10.98,80.5c-0.2,1.49-1.36,2.68-2.84,2.93
		l-77.24,12.87c-2.1,0.35-4.01-1.27-4.01-3.39v-76.83C1992.65,1377.06,1993.83,1375.63,1995.45,1375.33z"/>
	<linearGradient id="SVGID_1_" gradientUnits="userSpaceOnUse" x1="1930.8302" y1="1468.5793" x2="2084.3726" y2="1468.5793">
		<stop  offset="5.618000e-03" style="stop-color:#94CEFF"/>
		<stop  offset="0.3275" style="stop-color:#97CFFF"/>
		<stop  offset="0.5188" style="stop-color:#9FD3FE"/>
		<stop  offset="0.676" style="stop-color:#ADDAFD"/>
		<stop  offset="0.8146" style="stop-color:#C1E3FB"/>
		<stop  offset="0.9399" style="stop-color:#DBEFF9"/>
		<stop  offset="0.9986" style="stop-color:#EAF6F7"/>
	</linearGradient>
	<path class="st17" d="M2084.37,1456.7v-5.07l-153.54,25.92v7.98l150.67-25.44C2083.16,1459.81,2084.37,1458.38,2084.37,1456.7z"/>
	<path class="st18" d="M2010.59,1415.74c5.98,11.96,35.89,61.82,23.93,73.78c-11.96,11.96-35.73,6.67-45.78-22.59
		c-10.05-29.26-14.04-51.19-14.04-51.19H2010.59z"/>
	<path class="st18" d="M1890.95,1210.35c-9.97,11.96-11.96,83.75-3.99,93.72c7.98,9.97,21.93,5.98,21.93,5.98l3.99,43.87l43.87-5.98
		c0,0-7.98-33.9-3.99-51.85c3.99-17.95,25.92-67.8,3.99-81.76C1934.82,1200.38,1890.95,1210.35,1890.95,1210.35z"/>
	<path class="st18" d="M1823.15,1367.88c0,0-7.98,7.98-35.89,3.99c-27.92-3.99-77.77-25.92-77.77-25.92s-5.98-19.94-1.99-27.92
		s0-25.92-5.98-11.96c-5.98,13.96-5.98,21.93-11.96,19.94s-31.9-45.86-37.89-41.87c-5.98,3.99,13.96,31.9,11.96,37.89
		c-1.99,5.98-1.99,29.91,3.99,35.89c5.98,5.98,111.67,53.84,111.67,53.84s31.9,7.98,57.83-1.99S1823.15,1367.88,1823.15,1367.88z"/>
	<path class="st19" d="M1924.85,1944.16c0,0,9.97,61.82,3.99,63.81c-5.98,1.99-78.31,0-78.31,0l-2.02-7.13
		c0,0,34.46-14.8,36.46-24.77c1.99-9.97,9.97-35.89,9.97-35.89L1924.85,1944.16z"/>
	<path class="st19" d="M1964.73,1946.16c0,0-1.99,57.83,3.99,61.82c5.98,3.99,79.76,1.99,83.75,0c3.99-1.99-39.88-15.95-47.86-25.92
		s-11.96-35.89-11.96-35.89H1964.73z"/>
	<path class="st2" d="M1855.06,1527.4c0,0-3.99,81.76,0,101.7c3.99,19.94,7.98,81.76,15.95,141.58
		c7.98,59.82,17.95,143.57,13.96,155.54c-3.99,11.96-3.99,31.9-3.99,31.9s32.96,16.58,46.39,3.3c13.43-13.27-0.53-39.2-0.53-39.2
		s3.99-71.79-1.99-101.7c-5.98-29.91-5.98-185.45,0-187.44c5.98-1.99,9.97,131.61,15.95,147.56c5.98,15.95,3.99,75.77,7.98,103.69
		c3.99,27.92-1.99,85.74,9.97,89.73c11.96,3.99,30.6,0.16,38.23-8.89c7.63-9.05-0.34-23.01-0.34-32.98c0-9.97,1.99-99.7-5.98-135.6
		c-7.98-35.89,5.98-159.52,3.99-189.43c-1.99-29.91-19.94-95.71-19.94-95.71h-119.64V1527.4z"/>
	<path class="st14" d="M1960.74,1312.05c0,0-53.84,0-59.82,5.98c-5.98,5.98-7.98,23.93-7.98,23.93l73.78-1.99L1960.74,1312.05z"/>
	<path class="st20" d="M1970.71,1331.99c0,0-15.95-7.98-35.89-5.98s-61.82,11.96-81.76,17.95c-19.94,5.98-53.84,5.98-55.83,13.96
		s9.97,65.8,23.93,67.8c13.96,1.99,31.9-3.99,31.9-3.99s-25.92,87.74-15.95,99.7c9.97,11.96,17.31,21.09,17.31,21.09
		s42.51-7.13,72.42-7.13c29.91,0,54.26,0.99,54.26,0.99s13.54-4.98,11.54-14.95c-1.99-9.97-7.89-45-7.89-45s45.78-12.83,45.78-36.76
		c0,0-13.96-27.92-17.95-41.88c-3.99-13.96-3.99-41.88-17.95-51.85C1980.68,1335.97,1970.71,1331.99,1970.71,1331.99z"/>
	<path class="st21" d="M1950.77,1202.37c0,0-21.93-9.97-43.87-5.98c-21.93,3.99-47.86,1.99-43.87,25.92
		c3.48,20.91,15.87,17.04,19.9,23.47c4.03,6.44,10.01,32.36,10.01,32.36s-7.98-25.92-1.99-29.91c5.98-3.99,13.96,3.99,13.96,11.96
		s-1.99,23.93,7.98,29.91c9.97,5.98,39.88,5.98,39.88,5.98s9.97-23.93,13.96-29.91C1970.71,1260.2,1986.66,1222.31,1950.77,1202.37z
		"/>
</g>
<path class="st4" d="M475.45,1060.82c0,2.67-0.45,5.23-1.27,7.63H204.31c0-16.41,13.31-29.72,29.72-29.72
	c5.74,0,11.11,1.63,15.65,4.45c4.84-16.36,19.97-28.29,37.9-28.29c6.66,0,12.93,1.65,18.44,4.56c7.55-21.25,27.83-36.45,51.67-36.45
	c22.21,0,41.34,13.2,49.94,32.19c1.6-0.2,3.23-0.3,4.88-0.3c15.85,0,29.52,9.33,35.82,22.8c1.21-0.19,2.44-0.29,3.7-0.29
	C464.96,1037.4,475.45,1047.89,475.45,1060.82z"/>
<path class="st12" d="M550.98,276.74c0,4.92-0.82,9.65-2.33,14.06H51.3c0-30.25,24.53-54.78,54.78-54.78c10.58,0,20.47,3,28.84,8.21
	c8.92-30.15,36.81-52.13,69.84-52.13c12.27,0,23.84,3.03,33.98,8.41c13.92-39.15,51.3-67.18,95.22-67.18
	c40.93,0,76.18,24.33,92.04,59.33c2.94-0.38,5.94-0.56,8.99-0.56c29.2,0,54.4,17.19,66,42.01c2.22-0.35,4.5-0.54,6.83-0.54
	C531.66,233.58,550.98,252.9,550.98,276.74z"/>
<path class="st12" d="M1747.4,339.8c0,3.08-0.52,6.05-1.46,8.81h-311.73c0-18.96,15.37-34.33,34.33-34.33
	c6.63,0,12.83,1.88,18.07,5.14c5.59-18.9,23.07-32.67,43.77-32.67c7.69,0,14.94,1.9,21.3,5.27c8.72-24.54,32.15-42.11,59.68-42.11
	c25.65,0,47.75,15.25,57.69,37.19c1.84-0.24,3.73-0.35,5.63-0.35c18.3,0,34.1,10.78,41.37,26.33c1.39-0.22,2.82-0.34,4.28-0.34
	C1735.29,312.75,1747.4,324.86,1747.4,339.8z"/>
<path class="st4" d="M1513.81,1039.28c0,3.43-0.57,6.73-1.63,9.8h-346.74c0-21.09,17.1-38.19,38.19-38.19
	c7.38,0,14.27,2.09,20.11,5.72c6.22-21.02,25.66-36.34,48.69-36.34c8.56,0,16.62,2.11,23.69,5.86c9.7-27.3,35.76-46.84,66.38-46.84
	c28.54,0,53.11,16.97,64.17,41.36c2.05-0.26,4.14-0.39,6.27-0.39c20.36,0,37.93,11.99,46.02,29.29c1.55-0.25,3.14-0.37,4.76-0.37
	C1500.34,1009.19,1513.81,1022.66,1513.81,1039.28z"/>
<g>
	<path class="st22" d="M445.53,1965.87c2.45,1.31,5.4,2.82,8.46,4.35c8.18,4.09,22.49-12.26,26.57-18.4
		c2.56-3.82,12.29-10.85,19.73-15.58c-15.64-29.39,0.72-123.43-25.86-156.13c-22.03-27.11-44.97-2.04-44.97-2.04
		s34.75,91.99,34.75,124.69C464.21,1922.26,459.16,1947,445.53,1965.87z"/>
	<path class="st19" d="M431.51,2002.93c22.49-2.04,34.75-30.66,40.88-32.71c6.13-2.04-4.09,24.53,2.04,24.53
		c6.13,0,16.35,2.04,16.35-6.13s16.35-28.62,10.22-44.97c-0.59-1.57-0.8-4.11-0.72-7.4c-7.44,4.72-17.17,11.75-19.73,15.58
		c-4.09,6.13-18.4,22.49-26.57,18.4c-3.07-1.53-6.01-3.05-8.46-4.35c-9.22,12.78-17.68,21.93-20.16,22.75
		C419.24,1990.66,409.02,2004.97,431.51,2002.93z"/>
	<path class="st19" d="M46.32,1934.2c4.68,0,8.82,3.02,10.23,7.49c4,12.71,12.77,37.82,21.53,44.83c5.32,4.25,9.21,9.46,11.89,13.91
		c2.61,4.34-0.61,9.87-5.68,9.87H23.43c-6.4,0-11.42-5.51-10.82-11.88l6.02-64.22H46.32z"/>
	<path class="st22" d="M261.84,1522.55c0,0,12.26-8.18,20.44-2.04c8.18,6.13,14.31,30.66,14.31,30.66s-16.63,11.77-30.8,5.88
		c-14.17-5.88-34.61-24.28-34.61-24.28l18.4-22.49L261.84,1522.55z"/>
	<path class="st23" d="M143.41,1371.3c13.35,18.55,42.78,81.84,55.03,94.13c12.24,12.29,65.32,51.22,65.32,51.22
		s-7.17,35.62-13.84,36.19c-6.67,0.57-63.82-44.5-71.99-52.69c-8.16-8.19-71.41-75.76-73.43-88.03
		C102.48,1399.84,116.9,1334.45,143.41,1371.3z"/>
	<path class="st18" d="M165.77,1193.44c8.18,4.09,18.4,16.35,16.35,49.06c-2.04,32.71-8.18,57.4-32.71,45.05l-20.44,38.76
		l-34.75-24.53c0,0,18.4-32.71,14.31-47.02c-4.09-14.31-14.31-53.15,4.09-61.32C131.02,1185.27,165.77,1193.44,165.77,1193.44z"/>
	<path class="st19" d="M106.49,1957.64v40.16c0,5.09,4.13,9.22,9.22,9.22h85.4c10.7,0,12.84-15.18,2.54-18.09
		c-0.36-0.1-0.72-0.2-1.09-0.31c-36.79-10.22-40.88-22.49-47.02-30.66c-4.23-5.64-25.98-8.36-39.06-9.51
		C111.11,1947.97,106.49,1952.23,106.49,1957.64z"/>
	<path class="st24" d="M165.77,1649.29l-3.58,317.87c0,0-39.66,6.02-55.7,0c-8.18-3.07-2.04-41.91-4.09-64.39
		c-2.04-22.49,6.13-63.37,4.09-83.81c-2.04-20.44-26.57-190.11-26.57-190.11L165.77,1649.29z"/>
	<path class="st24" d="M137.15,1628.85c0,0-38.84,159.44-44.97,183.97c-6.13,24.53-18.4,145.13-22.49,147.18
		c-4.09,2.04-40.24,8.18-52.83,0c-12.58-8.18,5.81-149.22,11.95-171.71c6.13-22.49,10.22-171.71,10.22-171.71L137.15,1628.85z"/>
	<path class="st2" d="M94.22,1301.78l-4.09,4.09c0,0-20.44,22.49-28.62,36.79c-8.18,14.31-24.53,218.72-30.66,245.3
		c-6.13,26.57,0,55.19,0,55.19c28.62,18.4,151.27,18.4,151.27,18.4s0-61.32,0-85.85s-10.22-171.71-12.26-183.97
		c-2.04-12.26-40.88-65.41-40.88-65.41L94.22,1301.78z"/>
	<path class="st14" d="M14.75,1507.55l34.06,80.64c1.37,3.25,5.13,4.76,8.38,3.35l107.79-46.95l7.38-3.21
		c3.17-1.37,4.64-5.03,3.33-8.22l-35.94-88.04c-1.39-3.43-5.44-4.95-8.73-3.25l-16.7,8.48l-96.59,49.08
		C14.75,1500.94,13.46,1504.48,14.75,1507.55z"/>
	<path class="st25" d="M112.99,1493.99c-0.22,7.65,3.31,14.9,9.46,19.42l42.52,31.17l7.38-3.21c3.17-1.37,4.64-5.03,3.33-8.22
		l-35.94-88.04c-1.39-3.43-5.44-4.95-8.73-3.25l-16.7,8.48L112.99,1493.99z"/>
	<path class="st18" d="M92.18,1545.04c0,0,4.09,10.22,12.26,8.18c8.18-2.04,14.31,3.1,18.4,9.73c4.09,6.63,12.26,8.67,4.09,14.8
		c-8.18,6.13-30.66,18.4-36.79,14.31c-6.13-4.09-20.44-36.79-20.44-36.79L92.18,1545.04z"/>
	<path class="st7" d="M108.53,1289.52l28.4,19.52c2.45,1.68,3.23,4.95,1.81,7.56l-7.44,13.66c-0.14,0.27-0.49,0.33-0.73,0.14
		l-34.71-28.08c-3.35-2.71-4.38-7.37-2.48-11.23l1.34-2.73c1.52-3.11,5.41-4.2,8.33-2.34L108.53,1289.52z"/>
	<path class="st26" d="M150.76,1356.98c0,0,19.09,34.75,19.49,37.86c0.4,3.11-12.66-9.24-14.71-9.24
		c-2.04,0-16.35-30.66-16.35-30.66L150.76,1356.98z"/>
	<path class="st11" d="M95.4,1293.77c-1.61-1.12-3.83-0.32-4.35,1.57c-1.03,3.78-2.22,9.23-0.92,10.53
		c2.04,2.04,32.71,44.97,32.71,44.97l34.7,17.19c0,0-28.57-47.85-40.83-58.07C108.28,1302.93,99.84,1296.87,95.4,1293.77z"/>
	<path class="st27" d="M75.06,1326.2c9.67-5.99,29.56,14.36,29.54,28.67c-0.03,14.31-45.09,69.42-45.12,83.73
		s44.79,100.24,40.69,106.37c-4.1,6.13-26.62,24.48-34.79,20.38c-8.17-4.1-55-108.44-54.97-124.79S45.44,1344.55,75.06,1326.2z"/>
	<path class="st21" d="M151.46,1215.93c5.66-4.72,28.62,0,34.75-8.18c6.13-8.18,10.22-30.66-4.09-30.66
		c-14.31,0-73.59-2.04-79.72,6.13c-6.13,8.18-14.31,32.71-8.18,44.97c6.13,12.26,9.32,33.46,14.88,32.06
		c5.56-1.4,15.78-1.4,13.74-9.58c-2.04-8.18-10.22-24.53,0-26.57c10.22-2.04,10.22,22.49,12.26,22.49
		C137.15,1246.59,139.19,1226.15,151.46,1215.93z"/>
	<path class="st18" d="M427.42,1267.03c0,0-30.66,2.04-30.66,51.1s26.57,32.71,26.57,32.71l8.18,30.66l30.66-12.26
		c0,0-16.35-20.44-10.22-26.57c6.13-6.13,26.57-20.44,20.44-44.97C466.26,1273.17,453.99,1258.86,427.42,1267.03z"/>
	<path class="st14" d="M478.52,1393.77c0,0,53.15,91.99,51.1,118.56c-2.04,26.57-28.62,65.41-28.62,65.41s-44.97-53.15-49.06-61.32
		c-4.09-8.18-2.04-108.34,8.18-116.52C470.35,1391.73,478.52,1393.77,478.52,1393.77z"/>
	<polygon class="st13" points="458.08,1506.2 550.07,1583.88 501.01,1661.55 443.77,1551.17 	"/>
	<path class="st18" d="M325.21,1528.68c0,0-18.4,6.13-24.53,4.09c-6.13-2.04-10.22-14.31-18.4-12.26c-8.18,2.04-4.09,6.13-8.18,8.18
		c-4.09,2.04-18.4,12.26-16.35,18.4c2.04,6.13,18.4,20.44,24.53,18.4c6.13-2.04,18.4-16.35,38.84-14.31
		c20.44,2.04,14.31-24.53,14.31-24.53L325.21,1528.68z"/>
	<path class="st18" d="M378.07,1963.82c2.45,1.31,5.4,2.82,8.46,4.35c8.18,4.09,22.49-12.26,26.57-18.4
		c2.56-3.82,12.29-10.85,19.73-15.58c0.88-30.72,28.15-128.64,17.07-158.18c-12.26-32.71-44.97,4.09-44.97,4.09
		s2.04,85.85,2.04,118.56C406.98,1918.18,391.71,1944.95,378.07,1963.82z"/>
	<path class="st19" d="M364.05,2000.88c22.49-2.04,34.75-30.66,40.88-32.71c6.13-2.04-4.09,24.53,2.04,24.53
		c6.13,0,16.35,2.04,16.35-6.13s16.35-28.62,10.22-44.97c-0.59-1.57-0.8-4.11-0.72-7.4c-7.44,4.72-17.17,11.75-19.73,15.58
		c-4.09,6.13-18.4,22.49-26.57,18.4c-3.07-1.53-6.01-3.05-8.46-4.35c-9.22,12.78-17.68,21.93-20.16,22.75
		C351.79,1988.62,341.56,2002.93,364.05,2000.88z"/>
	<path class="st24" d="M501.01,1596.14h-106.3c0,0,2.04,24.53,6.13,40.88c4.09,16.35-4.09,28.62-2.04,61.32
		c2.04,32.71,2.04,77.68,2.04,85.85s20.44,14.31,32.71,14.31s49.06-4.09,49.06-12.26s-2.04-67.46,4.09-87.9
		C492.83,1677.91,511.23,1634.98,501.01,1596.14z"/>
	<path class="st25" d="M474.43,1365.15c0,0-40.88,8.18-53.15,24.53c-12.26,16.35-28.62,61.32-36.79,71.55s10.22,49.06,10.22,63.37
		s-30.66,71.55,0,71.55s89.94,0,106.3,0c16.35,0-20.44-77.68-16.35-89.94s14.31-83.81,6.13-106.3
		C482.61,1377.42,474.43,1365.15,474.43,1365.15z"/>
	<polygon class="st15" points="474.43,1350.84 415.15,1373.33 415.15,1399.44 476.2,1368.03 	"/>
	<path class="st14" d="M456.04,1391.73c0,0-20.44,0-30.66,34.75c-10.22,34.75-12.26,55.19-28.62,69.5
		c-16.35,14.31-38.84,8.18-44.97,14.31c-6.13,6.13,0,10.22-6.13,10.22c-6.13,0-24.53,2.04-24.53,4.09c0,2.04-4.09,28.62,0,30.66
		c4.09,2.04,22.49-4.09,24.53,0c2.04,4.09-4.09,18.4,22.49,20.44c26.57,2.04,78.66-14.45,81.24-36.86
		c2.57-22.42,16.88-73.52,20.97-96.01C474.43,1420.34,478.52,1393.77,456.04,1391.73z"/>
	<path class="st21" d="M435.6,1258.86c0,0-32.71-2.04-38.84,14.31c-6.13,16.35,6.13,20.44,18.4,20.44c12.26,0,22.49,8.18,22.49,18.4
		s4.09-2.04,8.18-10.22c4.09-8.18,12.26-6.13,12.26,4.09c0,10.22-4.09,14.31-8.18,14.31c-4.09,0,8.32,16.66,5.18,19.57
		c-3.14,2.91,7.08,4.96,13.21-3.22c6.13-8.18,28.62-26.57,16.35-51.1C472.39,1260.9,468.3,1256.81,435.6,1258.86z"/>
</g>
</svg>
