<?xml version="1.0" encoding="utf-8"?>
<!-- Generator: Adobe Illustrator 24.3.0, SVG Export Plug-In . SVG Version: 6.00 Build 0)  -->
<svg version="1.1" id="Layer_1" xmlns="http://www.w3.org/2000/svg" xmlns:xlink="http://www.w3.org/1999/xlink" x="0px" y="0px"
	 viewBox="0 0 500.3 353.4" style="enable-background:new 0 0 500.3 353.4;" xml:space="preserve">
<style type="text/css">
	.st0{fill:#8C9DF4;}
	.st1{fill:#E9E9E9;}
	.st2{fill:#F77D48;}
	.st3{fill:#FFB93E;}
	.st4{fill:#FFA412;}
	.st5{fill:#739AF0;}
	.st6{fill:#163560;}
	.st7{fill:#BDD1F9;}
	.st8{fill:#FFEDDC;}
	.st9{fill:#DB6A1D;}
	.st10{fill:#E5C1A1;}
	.st11{fill:#F9DDBF;}
	.st12{opacity:0.5;fill:#E2810E;enable-background:new    ;}
	.st13{fill:#E2810E;}
	.st14{fill:#FFB27D;}
	.st15{fill:#F99746;}
	.st16{fill:#ED7D2B;}
	.st17{fill:#36599E;}
	.st18{fill:#2B478B;}
	.st19{fill:#E8945B;}
	.st20{fill:#233862;}
	.st21{fill:#FFFFFF;}
	.st22{fill:#B5453C;}
	.st23{fill:#2E3552;}
</style>
<path class="st0" d="M205.6,148.7c-0.4-0.8-0.9-1.7-1.3-2.5l1.3-0.8c0.5,0.9,1,1.7,1.4,2.6L205.6,148.7z M202.7,143.8
	c-0.5-0.8-1.1-1.6-1.6-2.4l1.2-0.9c0.6,0.8,1.1,1.6,1.7,2.4L202.7,143.8z M48.9,160.8c-1,0.1-2,0.2-2.9,0.2l-0.1-1.5
	c0.9-0.1,1.9-0.1,2.9-0.2L48.9,160.8z M51.8,160.5l-0.2-1.5c0.9-0.1,1.9-0.3,2.8-0.5l0.3,1.5C53.7,160.1,52.8,160.3,51.8,160.5z
	 M43,161.2c-1,0-2,0-2.9-0.1l0.1-1.5c0.9,0,1.9,0.1,2.9,0.1L43,161.2z M57.6,159.3l-0.4-1.5c0.9-0.2,1.9-0.5,2.8-0.7l0.4,1.5
	C59.5,158.8,58.5,159.1,57.6,159.3z M37.2,160.9c-1-0.1-2-0.2-2.9-0.4l0.2-1.5c0.9,0.2,1.9,0.3,2.8,0.4L37.2,160.9z M63.2,157.7
	l-0.5-1.5c0.9-0.3,1.8-0.6,2.7-0.9l0.5,1.5C65.1,157.1,64.1,157.4,63.2,157.7z M68.7,155.7l-0.6-1.4c0.9-0.4,1.8-0.7,2.6-1.1
	l0.6,1.4C70.5,154.9,69.6,155.3,68.7,155.7z M31.3,160c-1-0.2-1.9-0.5-2.9-0.7l0.4-1.5c0.9,0.3,1.8,0.5,2.8,0.7L31.3,160z
	 M199.4,139.2c-0.6-0.7-1.2-1.5-1.9-2.2l1.1-1c0.7,0.7,1.3,1.5,1.9,2.2L199.4,139.2z M74,153.3l-0.7-1.4c0.9-0.4,1.7-0.8,2.6-1.3
	l0.7,1.4C75.8,152.4,74.9,152.9,74,153.3z M25.7,158.3c-0.9-0.3-1.8-0.7-2.7-1.1l0.6-1.4c0.9,0.4,1.7,0.7,2.6,1.1L25.7,158.3z
	 M79.2,150.6l-0.8-1.4c0.8-0.5,1.7-0.9,2.5-1.4l0.8,1.3C80.9,149.6,80.1,150.1,79.2,150.6z M195.5,134.9c-0.7-0.7-1.4-1.3-2.1-2
	l1-1.1c0.7,0.7,1.4,1.3,2.1,2L195.5,134.9z M20.3,155.9c-0.9-0.5-1.7-1-2.5-1.5l0.8-1.3c0.8,0.5,1.6,1,2.4,1.4L20.3,155.9z
	 M84.2,147.6l-0.8-1.3c0.8-0.5,1.6-1,2.4-1.6l0.9,1.3C85.9,146.5,85.1,147.1,84.2,147.6z M89.1,144.3l-0.9-1.3
	c0.8-0.5,1.6-1.1,2.3-1.7l0.9,1.2C90.7,143.2,89.9,143.8,89.1,144.3z M15.3,152.7c-0.8-0.6-1.6-1.2-2.3-1.9l1-1.2
	c0.7,0.6,1.4,1.2,2.2,1.8L15.3,152.7z M191.3,131.1c-0.7-0.6-1.5-1.2-2.3-1.8l0.9-1.2c0.8,0.6,1.6,1.2,2.3,1.8L191.3,131.1z
	 M93.8,140.9l-0.9-1.2l0.2-0.2c0.7-0.5,1.4-1.1,2.1-1.6l0.9,1.2c-0.7,0.5-1.4,1-2.1,1.6L93.8,140.9z M186.7,127.7
	c-0.8-0.5-1.6-1-2.4-1.5l0.8-1.3c0.8,0.5,1.7,1,2.5,1.6L186.7,127.7z M10.9,148.8c-0.7-0.7-1.3-1.5-2-2.2l1.2-1
	c0.6,0.7,1.2,1.4,1.9,2.1L10.9,148.8z M98.4,137.4l-0.9-1.3c0.8-0.6,1.6-1.1,2.4-1.7l0.9,1.3C100,136.3,99.2,136.8,98.4,137.4z
	 M181.8,124.7c-0.8-0.5-1.7-0.9-2.6-1.3l0.7-1.4c0.9,0.4,1.8,0.9,2.6,1.3L181.8,124.7z M103.2,134.1l-0.9-1.3
	c0.8-0.5,1.6-1.1,2.5-1.6l0.8,1.3C104.8,133.1,104,133.6,103.2,134.1z M7.1,144.2c-0.6-0.8-1.1-1.6-1.6-2.5l1.3-0.8
	c0.5,0.8,1,1.6,1.5,2.4L7.1,144.2z M108.1,131.1l-0.8-1.3c0.8-0.5,1.7-1,2.5-1.5l0.8,1.3C109.7,130.1,108.9,130.6,108.1,131.1z
	 M176.6,122.2c-0.9-0.4-1.8-0.7-2.7-1.1l0.5-1.5c0.9,0.3,1.8,0.7,2.7,1.1L176.6,122.2z M113.1,128.2l-0.7-1.4
	c0.9-0.5,1.7-0.9,2.6-1.3l0.7,1.4C114.8,127.3,113.9,127.8,113.1,128.2z M171.2,120.2c-0.9-0.3-1.8-0.6-2.8-0.8l0.4-1.5
	c0.9,0.2,1.9,0.5,2.8,0.8L171.2,120.2z M118.2,125.6l-0.7-1.4c0.9-0.4,1.8-0.8,2.7-1.2l0.6,1.4C120,124.8,119.1,125.2,118.2,125.6z
	 M4.1,139.1c-0.4-0.9-0.8-1.8-1.2-2.7l1.4-0.6c0.3,0.9,0.7,1.8,1.1,2.6L4.1,139.1z M165.7,118.8c-0.9-0.2-1.9-0.4-2.8-0.5l0.3-1.5
	c1,0.2,1.9,0.3,2.9,0.5L165.7,118.8z M123.5,123.3l-0.6-1.4c0.9-0.4,1.8-0.7,2.7-1.1l0.5,1.5C125.3,122.6,124.4,123,123.5,123.3z
	 M160,117.8c-0.9-0.1-1.9-0.2-2.9-0.3l0.1-1.5c1,0.1,2,0.2,2.9,0.3L160,117.8z M128.9,121.3l-0.5-1.5c0.9-0.3,1.9-0.6,2.8-0.9
	l0.4,1.5C130.8,120.8,129.8,121,128.9,121.3z M154.3,117.4c-0.9,0-1.9,0-2.9,0l0-1.5c1,0,2,0,2.9,0L154.3,117.4z M134.4,119.7
	l-0.4-1.5c0.9-0.2,1.9-0.5,2.9-0.7l0.3,1.5C136.3,119.3,135.4,119.5,134.4,119.7z M148.6,117.5c-0.9,0.1-1.9,0.1-2.9,0.2l-0.2-1.5
	c1-0.1,2-0.2,2.9-0.2L148.6,117.5z M140,118.5l-0.3-1.5c1-0.2,1.9-0.3,2.9-0.5l0.2,1.5C141.9,118.2,141,118.3,140,118.5z M2,133.6
	c-0.3-0.9-0.5-1.9-0.8-2.9l1.5-0.3c0.2,0.9,0.4,1.9,0.7,2.7L2,133.6z M0.7,127.8c-0.1-0.4-0.1-0.7-0.1-1.1c-0.1-0.6-0.1-1.2-0.2-1.9
	l1.5-0.1c0,0.6,0.1,1.2,0.2,1.8c0,0.3,0.1,0.7,0.1,1L0.7,127.8z M1.8,121.9l-1.5,0c0-1,0-2,0.1-3l1.5,0.1
	C1.8,120,1.8,120.9,1.8,121.9z M2.1,116.2L0.6,116c0.1-1,0.3-1.9,0.4-2.9l1.5,0.2l0,0.1C2.4,114.3,2.2,115.3,2.1,116.2z M3.1,110.6
	l-1.5-0.3c0.2-1,0.5-1.9,0.7-2.8l1.5,0.4C3.6,108.7,3.3,109.6,3.1,110.6z M56.1,102.7c-1,0.1-2,0.1-3,0.1l0.1-1.5
	c0.9,0,1.8,0,2.8-0.1L56.1,102.7z M59.1,102.2l-0.3-1.5c0.9-0.2,1.8-0.5,2.7-0.8l0.5,1.5C61,101.8,60,102,59.1,102.2z M50.1,102.4
	c-1-0.2-2-0.5-2.9-0.9l0.6-1.4c0.8,0.4,1.7,0.6,2.6,0.8L50.1,102.4z M64.7,100.4l-0.6-1.4c0.9-0.4,1.7-0.8,2.5-1.3l0.8,1.3
	C66.5,99.5,65.6,99.9,64.7,100.4z M69.9,97.4L69,96.1c0.8-0.5,1.5-1.1,2.2-1.7l1,1.2C71.5,96.2,70.7,96.8,69.9,97.4z M4.6,105
	l-1.5-0.5c0.3-0.9,0.6-1.9,1-2.8l1.5,0.5C5.2,103.2,4.9,104.1,4.6,105z M44.5,99.9c-0.8-0.6-1.6-1.3-2.2-2.1l1.2-1
	c0.6,0.7,1.2,1.3,2,1.9L44.5,99.9z M74.4,93.5l-1.1-1.1c0.7-0.7,1.3-1.4,1.9-2.1l1.2,1C75.7,92.1,75.1,92.8,74.4,93.5z M6.6,99.6
	L5.2,99c0.4-0.9,0.8-1.8,1.2-2.7L7.8,97C7.4,97.9,7,98.8,6.6,99.6z M40.6,95.3c-0.5-0.9-0.8-1.8-1.2-2.8l1.5-0.5
	c0.3,0.9,0.6,1.8,1,2.5L40.6,95.3z M78.1,88.9L76.8,88c0.5-0.8,1-1.6,1.4-2.5l1.4,0.7C79.1,87.1,78.6,88,78.1,88.9z M9.1,94.5
	l-1.4-0.7c0.5-0.9,0.9-1.7,1.4-2.6l1.3,0.8C10,92.8,9.5,93.6,9.1,94.5z M38.8,89.5c0-0.3-0.1-0.5-0.1-0.8c-0.1-0.7-0.1-1.4-0.2-2.2
	l1.5-0.1c0,0.7,0.1,1.4,0.2,2c0,0.3,0.1,0.5,0.1,0.8L38.8,89.5z M80.7,83.5L79.2,83c0.3-0.9,0.6-1.8,0.8-2.7l1.5,0.3
	C81.3,81.6,81,82.5,80.7,83.5z M12,89.6l-1.3-0.9c0.5-0.8,1.1-1.6,1.7-2.4l1.3,0.9C13.1,88,12.6,88.8,12,89.6z M40.1,83.7l-1.5-0.1
	c0-1,0.1-2,0.2-2.9l1.5,0.2C40.2,81.7,40.1,82.7,40.1,83.7z M81.9,77.6l-1.5-0.1c0.1-0.9,0.1-1.9,0.1-2.8l1.5-0.1
	C82,75.6,82,76.7,81.9,77.6z M15.4,84.9l-1.2-1c0.6-0.8,1.2-1.5,1.9-2.2l1.2,1C16.6,83.4,16,84.2,15.4,84.9z M19.2,80.6l-1.1-1.1
	c0.7-0.7,1.4-1.4,2.1-2.1l1.1,1.1C20.5,79.3,19.8,79.9,19.2,80.6z M40.7,78l-1.5-0.3c0.2-1,0.4-1.9,0.6-2.9l1.5,0.4
	C41.1,76.1,40.9,77.1,40.7,78z M80.1,72c-0.2-0.9-0.5-1.8-0.9-2.6l1.4-0.7c0.5,0.9,0.8,1.9,1,2.9L80.1,72z M23.3,76.7l-1-1.2
	c0.7-0.6,1.5-1.3,2.3-1.9l1,1.2C24.8,75.4,24.1,76,23.3,76.7z M42.1,72.5L40.7,72c0.3-0.9,0.7-1.9,1.1-2.7l1.4,0.6
	C42.8,70.8,42.5,71.7,42.1,72.5z M77.7,67.2c-0.6-0.7-1.2-1.3-2-1.9l0.9-1.2c0.8,0.6,1.6,1.3,2.2,2.1L77.7,67.2z M27.8,73.1
	l-0.9-1.3c0.8-0.6,1.6-1.1,2.4-1.7l0.9,1.3C29.4,72,28.6,72.5,27.8,73.1z M32.6,69.9l-0.8-1.3c0.8-0.5,1.7-1,2.6-1.5l0.7,1.4
	C34.3,69,33.4,69.5,32.6,69.9z M44.5,67.4l-1.4-0.7c0.4-0.8,0.9-1.5,1.3-2.2c-0.5,0.2-1,0.4-1.5,0.6l-0.5-1.4c0.9-0.3,1.8-0.7,2.8-1
	l0.5,1.5c-0.3,0.1-0.5,0.2-0.8,0.3l1.1,0.7C45.4,65.7,44.9,66.6,44.5,67.4z M73.4,63.8c-0.8-0.4-1.7-0.8-2.6-1.1l0.5-1.5
	c1,0.3,1.9,0.7,2.8,1.2L73.4,63.8z M37.7,67.2L37,65.8c0.9-0.4,1.8-0.8,2.7-1.2l0.6,1.4C39.4,66.4,38.5,66.8,37.7,67.2z M68.1,62
	c-0.9-0.2-1.8-0.3-2.8-0.5l0.2-1.5c1,0.1,2,0.3,2.9,0.5L68.1,62z M48.4,63.2L48.1,62c-0.2,0.2-0.3,0.4-0.5,0.6l-1.2-1
	c0.6-0.8,1.2-1.5,1.9-2.3l1.2,1c-0.3,0.3-0.6,0.7-0.9,1c0.8-0.2,1.6-0.4,2.3-0.6l0.3,1.5C50.2,62.7,49.3,62.9,48.4,63.2z M62.5,61.3
	c-0.9,0-1.9,0-2.8,0l-0.1-1.5c1,0,2,0,3,0L62.5,61.3z M54,61.9l-0.3-1.5c1-0.2,2-0.3,2.9-0.4l0.2,1.5C55.9,61.6,54.9,61.8,54,61.9z
	 M51.4,58.4l-1.1-1.1c0.7-0.7,1.4-1.3,2.2-2l1,1.2C52.8,57.1,52.1,57.8,51.4,58.4z M55.7,54.7l-0.9-1.2c0.8-0.6,1.6-1.2,2.4-1.7
	l0.9,1.3C57.3,53.6,56.5,54.2,55.7,54.7z M60.5,51.5l-0.8-1.3c0.8-0.5,1.7-1,2.6-1.5l0.7,1.4C62.1,50.6,61.3,51,60.5,51.5z
	 M65.5,48.8l-0.7-1.4c0.9-0.4,1.8-0.8,2.7-1.2l0.6,1.4C67.2,48,66.4,48.4,65.5,48.8z M70.8,46.5L70.2,45c0.9-0.4,1.8-0.7,2.7-1
	l0.5,1.5C72.6,45.8,71.7,46.1,70.8,46.5z M76.2,44.5l-0.5-1.5c0.9-0.3,1.9-0.6,2.8-0.9l0.4,1.5C78,44,77.1,44.2,76.2,44.5z
	 M81.7,42.9l-0.4-1.5c0.9-0.2,1.9-0.5,2.8-0.7l0.3,1.5C83.6,42.5,82.7,42.7,81.7,42.9z M87.4,41.6l-0.3-1.5c1-0.2,1.9-0.4,2.9-0.5
	l0.3,1.5C89.3,41.3,88.3,41.4,87.4,41.6z M95.9,40.3c0,0-1.1,0.1-2.8,0.3l-0.2-1.5c1.8-0.3,2.9-0.3,2.9-0.3L95.9,40.3z"/>
<path class="st1" d="M93.4,190.9H31.8v158.2h61.6V190.9z"/>
<path class="st1" d="M189.3,139.2h-61.6v210h61.6V139.2z"/>
<path class="st1" d="M282.3,83.4h-67.5v265.8h67.5V83.4z"/>
<path class="st1" d="M367.9,46.6h-61.6v302.6h61.6V46.6z"/>
<path class="st2" d="M282.3,172l129.5-62.7L354,232.4l-9.8-55.9L282.3,172z"/>
<path class="st3" d="M252.5,130c-3.2-13,4.8-26.2,17.8-29.3c13-3.2,26.1,4.8,29.3,17.8s-4.8,26.1-17.8,29.3
	C268.8,151,255.6,143,252.5,130z"/>
<path class="st4" d="M281.3,146c-5.7,1.4-11.7,0.5-16.7-2.6c-5-3.1-8.6-7.9-10-13.7c-1.4-5.7-0.5-11.7,2.6-16.7
	c3.1-5,7.9-8.6,13.7-10c5.7-1.4,11.7-0.5,16.7,2.6c5,3.1,8.6,7.9,10,13.7c1.4,5.7,0.5,11.7-2.6,16.7
	C291.9,141.1,287.1,144.6,281.3,146z M271.2,104.3c-11.1,2.7-18,14-15.3,25.1c2.7,11.1,14,18,25.1,15.3c11.1-2.7,18-14,15.3-25.1
	S282.3,101.6,271.2,104.3z"/>
<path class="st4" d="M280.6,130.1c-0.1-0.5-0.2-0.9-0.4-1.2s-0.4-0.6-0.8-0.9c-0.3-0.3-0.8-0.5-1.3-0.7c-0.5-0.2-1.1-0.4-1.9-0.5
	c-1.2-0.3-2.4-0.6-3.4-0.9c-1-0.3-1.9-0.8-2.7-1.3c-0.8-0.5-1.4-1.2-1.9-1.9c-0.5-0.8-0.8-1.7-0.9-2.8c-0.1-1-0.1-1.9,0.2-2.7
	c0.2-0.8,0.7-1.6,1.2-2.3c0.6-0.7,1.3-1.2,2.1-1.7c0.8-0.5,1.8-0.8,2.9-1.1l-0.4-3.6l2.9-0.4l0.4,3.7c1.1,0,2.1,0.2,3,0.5
	c0.9,0.3,1.7,0.8,2.4,1.4c0.7,0.6,1.2,1.3,1.7,2.2c0.4,0.9,0.7,1.9,0.9,3l-5.3,0.6c-0.2-1.4-0.6-2.3-1.3-2.9
	c-0.7-0.6-1.5-0.8-2.6-0.7c-0.5,0.1-1,0.2-1.4,0.4c-0.4,0.2-0.7,0.5-0.9,0.7c-0.2,0.3-0.4,0.6-0.5,1c-0.1,0.4-0.1,0.8,0,1.2
	c0.1,0.4,0.2,0.8,0.3,1.1c0.2,0.3,0.4,0.6,0.7,0.9c0.3,0.3,0.8,0.5,1.3,0.7c0.5,0.2,1.2,0.4,1.9,0.6c1.2,0.3,2.4,0.6,3.4,1
	c1,0.3,1.9,0.8,2.7,1.3c0.8,0.5,1.4,1.2,1.9,1.9c0.5,0.8,0.8,1.7,0.9,2.8c0.1,1,0.1,1.9-0.2,2.8c-0.3,0.8-0.7,1.6-1.2,2.2
	c-0.6,0.7-1.3,1.2-2.1,1.7c-0.9,0.5-1.8,0.8-2.9,1l0.4,3.4l-2.9,0.4l-0.4-3.4c-1,0-2-0.1-3-0.3c-1-0.2-1.9-0.6-2.7-1.2
	c-0.8-0.6-1.5-1.3-2.1-2.2c-0.6-0.9-0.9-2.1-1.1-3.4l5.3-0.6c0.1,0.8,0.3,1.5,0.6,2c0.3,0.5,0.6,0.9,1.1,1.2
	c0.4,0.3,0.9,0.5,1.4,0.5c0.5,0.1,1,0.1,1.5,0c0.6-0.1,1.1-0.2,1.5-0.4c0.4-0.2,0.8-0.4,1-0.7c0.3-0.3,0.4-0.6,0.5-1
	C280.6,130.9,280.6,130.5,280.6,130.1z"/>
<path class="st3" d="M380.1,61.2c-0.5-13,9.6-24,22.7-24.5c13-0.5,24,9.6,24.5,22.7c0.5,13-9.6,24-22.7,24.5
	C391.6,84.4,380.6,74.3,380.1,61.2z"/>
<path class="st4" d="M404.6,82.1c-5.7,0.2-11.2-1.8-15.5-5.7c-4.2-3.9-6.7-9.2-6.9-15c-0.2-5.7,1.8-11.2,5.7-15.5
	c3.9-4.2,9.2-6.7,15-6.9c5.7-0.2,11.2,1.8,15.5,5.7c4.2,3.9,6.7,9.2,6.9,15c0.2,5.7-1.8,11.2-5.7,15.5
	C415.6,79.4,410.3,81.9,404.6,82.1z M402.9,40.3c-11.2,0.4-19.9,9.9-19.4,21c0.4,11.2,9.9,19.9,21,19.4c11.2-0.4,19.9-9.9,19.4-21
	C423.5,48.6,414.1,39.9,402.9,40.3z"/>
<path class="st4" d="M406.9,66.7c0-0.5,0-0.9-0.1-1.2c-0.1-0.4-0.3-0.7-0.6-1c-0.3-0.3-0.6-0.6-1.1-0.9c-0.5-0.3-1-0.6-1.7-0.9
	c-1.1-0.5-2.2-1-3.1-1.5c-0.9-0.5-1.7-1.1-2.3-1.8c-0.6-0.6-1.1-1.4-1.4-2.2c-0.3-0.8-0.4-1.8-0.3-2.9c0.1-0.9,0.3-1.8,0.7-2.5
	c0.4-0.8,0.9-1.4,1.6-1.9c0.7-0.5,1.4-0.9,2.3-1.2c0.9-0.3,1.9-0.4,3-0.5l0.3-3.6l2.9,0.2l-0.3,3.6c1,0.2,1.9,0.6,2.7,1
	c0.8,0.5,1.5,1.1,2,1.8c0.5,0.7,0.9,1.5,1.2,2.4c0.2,0.9,0.3,1.9,0.2,3l-5.2-0.4c0.1-1.3-0.1-2.4-0.7-3.1c-0.5-0.7-1.3-1.1-2.3-1.2
	c-0.5,0-1,0-1.4,0.1c-0.4,0.1-0.7,0.3-1,0.5c-0.3,0.2-0.5,0.5-0.6,0.9c-0.1,0.3-0.2,0.7-0.3,1.1c0,0.4,0,0.8,0.1,1.1
	c0.1,0.3,0.3,0.7,0.5,1c0.3,0.3,0.6,0.6,1.1,0.9c0.5,0.3,1,0.6,1.7,0.9c1.1,0.5,2.1,1.1,3.1,1.6c0.9,0.5,1.7,1.1,2.3,1.8
	c0.6,0.6,1.1,1.4,1.4,2.2c0.3,0.8,0.4,1.8,0.3,2.8c-0.1,1-0.3,1.8-0.7,2.6c-0.4,0.8-0.9,1.4-1.6,1.9c-0.7,0.5-1.5,0.9-2.4,1.2
	c-0.9,0.3-1.9,0.4-3,0.4l-0.3,3.3l-2.8-0.2l0.3-3.3c-1-0.2-1.9-0.5-2.8-0.9c-0.9-0.4-1.7-1-2.3-1.6c-0.7-0.7-1.2-1.5-1.5-2.5
	c-0.4-1-0.5-2.1-0.4-3.5l5.2,0.4c-0.1,0.8,0,1.5,0.2,2c0.2,0.5,0.4,1,0.8,1.3c0.3,0.3,0.7,0.6,1.2,0.8c0.5,0.2,0.9,0.3,1.4,0.3
	c0.6,0,1.1,0,1.5-0.1c0.4-0.1,0.8-0.3,1.1-0.5c0.3-0.2,0.5-0.5,0.7-0.9C406.8,67.5,406.9,67.1,406.9,66.7z"/>
<path class="st3" d="M346.8,103.1c-0.2-9,7-16.4,16-16.6c9-0.2,16.4,7,16.6,16c0.2,9-7,16.4-16,16.6
	C354.4,119.3,346.9,112.1,346.8,103.1z"/>
<path class="st4" d="M363.3,117.9c-4,0.1-7.7-1.4-10.6-4.2c-2.9-2.8-4.5-6.5-4.5-10.4c-0.1-4,1.4-7.7,4.2-10.6
	c2.8-2.9,6.5-4.5,10.4-4.5c4-0.1,7.7,1.4,10.6,4.2c2.9,2.8,4.5,6.5,4.5,10.4c0.1,4-1.4,7.7-4.2,10.6
	C371,116.2,367.3,117.8,363.3,117.9z M362.8,89.1c-7.7,0.1-13.8,6.5-13.7,14.2c0.1,7.7,6.5,13.9,14.2,13.7
	c7.7-0.1,13.9-6.5,13.7-14.2C376.9,95.1,370.5,88.9,362.8,89.1z"/>
<path class="st4" d="M365.2,107.3c0-0.3,0-0.6-0.1-0.9c-0.1-0.3-0.2-0.5-0.4-0.7s-0.4-0.4-0.7-0.6c-0.3-0.2-0.7-0.4-1.1-0.6
	c-0.8-0.4-1.5-0.7-2.1-1.1c-0.6-0.4-1.2-0.8-1.6-1.2c-0.4-0.5-0.7-1-0.9-1.5c-0.2-0.6-0.3-1.2-0.2-2c0.1-0.6,0.2-1.2,0.5-1.7
	c0.3-0.5,0.7-0.9,1.1-1.3c0.5-0.4,1-0.6,1.6-0.8c0.6-0.2,1.3-0.3,2.1-0.3l0.2-2.5l2,0.2l-0.2,2.5c0.7,0.2,1.3,0.4,1.9,0.8
	c0.5,0.3,1,0.8,1.4,1.2c0.4,0.5,0.6,1.1,0.8,1.7c0.2,0.6,0.2,1.3,0.1,2.1l-3.6-0.4c0.1-0.9,0-1.6-0.4-2.1c-0.4-0.5-0.9-0.8-1.6-0.8
	c-0.4,0-0.7,0-1,0.1c-0.3,0.1-0.5,0.2-0.7,0.4c-0.2,0.2-0.3,0.4-0.4,0.6c-0.1,0.2-0.2,0.5-0.2,0.8c0,0.3,0,0.5,0,0.8
	c0.1,0.2,0.2,0.5,0.4,0.7c0.2,0.2,0.4,0.4,0.7,0.6c0.3,0.2,0.7,0.4,1.2,0.7c0.8,0.4,1.5,0.8,2.1,1.1c0.6,0.4,1.1,0.8,1.6,1.3
	s0.7,1,0.9,1.5c0.2,0.6,0.3,1.2,0.2,2c-0.1,0.7-0.2,1.3-0.5,1.8c-0.3,0.5-0.7,0.9-1.1,1.3c-0.5,0.3-1,0.6-1.6,0.8
	c-0.6,0.2-1.3,0.3-2.1,0.3l-0.2,2.3l-2-0.2l0.2-2.3c-0.7-0.1-1.3-0.4-1.9-0.6c-0.6-0.3-1.1-0.7-1.6-1.2c-0.4-0.5-0.8-1.1-1-1.8
	c-0.2-0.7-0.3-1.5-0.2-2.4l3.6,0.4c-0.1,0.5,0,1,0.1,1.4c0.1,0.4,0.3,0.7,0.5,0.9c0.2,0.2,0.5,0.4,0.8,0.5c0.3,0.1,0.6,0.2,1,0.2
	c0.4,0,0.7,0,1,0s0.6-0.2,0.8-0.3s0.4-0.3,0.5-0.6C365.1,107.9,365.2,107.6,365.2,107.3z"/>
<path class="st3" d="M278.1,52.8c-6.9-20.9,4.4-43.4,25.3-50.3c20.9-6.9,43.4,4.4,50.3,25.3c6.9,20.9-4.4,43.4-25.3,50.3
	C307.5,85,285,73.7,278.1,52.8z"/>
<path class="st4" d="M327.4,75.2c-9.2,3-19,2.3-27.7-2c-8.6-4.3-15.1-11.8-18.1-21c-3-9.2-2.3-19,2-27.7c4.3-8.7,11.8-15.1,21-18.1
	c9.2-3,19-2.3,27.7,2c8.6,4.3,15.1,11.8,18.1,21c3,9.2,2.3,19-2,27.7C344.1,65.7,336.6,72.1,327.4,75.2z M305.3,8.4
	c-17.8,5.9-27.5,25.2-21.6,43.1c5.9,17.8,25.2,27.5,43.1,21.6c17.8-5.9,27.5-25.2,21.6-43.1C342.5,12.2,323.2,2.5,305.3,8.4z"/>
<path class="st4" d="M324.1,49.2c-0.2-0.8-0.4-1.4-0.7-2c-0.3-0.5-0.8-1-1.4-1.4c-0.6-0.4-1.3-0.7-2.2-0.9c-0.9-0.2-1.9-0.4-3.1-0.6
	c-2.1-0.3-4-0.6-5.7-1.1c-1.7-0.4-3.3-1-4.6-1.7c-1.3-0.7-2.4-1.7-3.3-2.9c-0.9-1.2-1.5-2.7-1.9-4.5c-0.3-1.6-0.3-3,0-4.4
	c0.3-1.4,0.9-2.7,1.7-3.8c0.8-1.2,1.9-2.2,3.2-3.1c1.3-0.9,2.8-1.6,4.6-2.1l-1.2-5.9l4.7-1l1.2,6c1.7-0.1,3.4,0,4.9,0.4
	c1.5,0.4,2.9,1,4.1,1.9c1.2,0.9,2.2,2,3,3.4c0.8,1.4,1.4,3,1.8,4.8l-8.6,1.8c-0.5-2.2-1.3-3.8-2.5-4.6c-1.2-0.9-2.6-1.2-4.3-0.8
	c-0.9,0.2-1.6,0.5-2.2,0.8c-0.6,0.4-1.1,0.8-1.4,1.3c-0.3,0.5-0.5,1.1-0.6,1.7c-0.1,0.6,0,1.3,0.1,2c0.1,0.7,0.4,1.3,0.7,1.8
	c0.3,0.5,0.8,0.9,1.3,1.3c0.6,0.4,1.3,0.7,2.2,0.9c0.9,0.2,2,0.5,3.2,0.7c2.1,0.3,4,0.7,5.7,1.1c1.7,0.4,3.3,1,4.6,1.8
	c1.3,0.8,2.4,1.7,3.3,2.9c0.9,1.2,1.5,2.7,1.9,4.4c0.3,1.6,0.3,3.1,0,4.5c-0.3,1.4-0.9,2.7-1.7,3.8c-0.8,1.1-1.9,2.2-3.3,3
	c-1.3,0.9-2.9,1.6-4.6,2.1l1.1,5.5l-4.7,1l-1.1-5.5c-1.7,0.2-3.3,0.1-5-0.1c-1.6-0.2-3.2-0.8-4.6-1.5c-1.4-0.8-2.6-1.9-3.6-3.3
	s-1.8-3.3-2.2-5.5l8.6-1.8c0.3,1.3,0.7,2.4,1.2,3.2c0.5,0.8,1.2,1.4,1.9,1.8c0.7,0.4,1.5,0.6,2.3,0.7c0.8,0.1,1.6,0,2.5-0.2
	c0.9-0.2,1.7-0.5,2.4-0.9c0.7-0.4,1.2-0.8,1.6-1.4c0.4-0.5,0.6-1.1,0.8-1.7C324.2,50.5,324.2,49.9,324.1,49.2z"/>
<path class="st5" d="M168.9,49.4c-3.6,0.9-7,1.7-10.2,2.3c-10.3,1.8-18.3,0.3-21.8-13.5c-3.4-13.8,2.9-18.8,12.9-22.1
	c3.1-1,6.5-1.9,10.1-2.8c7.6-1.9,16.1-1.1,22.8,1.1c6.6,2.2,11.6,5.7,12.5,9.2c1,4-1.7,9.4-6.6,14.4C183.7,43,176.6,47.5,168.9,49.4
	z"/>
<path class="st6" d="M149.9,16.1l-11.7-7.7l-18.5,4l19.3,13.5L149.9,16.1z"/>
<path class="st6" d="M158.7,51.5L152,63.8l-18.2,5.2l10.6-21L158.7,51.5z"/>
<path class="st6" d="M158.8,51.7c-10.3,1.8-18.3,0.3-21.8-13.5c-3.4-13.8,2.9-18.8,12.9-22.1L158.8,51.7z"/>
<path class="st2" d="M112.9,44.2c0,0,5.2-12,14.2-10.2c9.2,1.9,8.1,11.8,1.1,12.7C121.3,47.7,116.9,43.2,112.9,44.2z"/>
<path class="st6" d="M167.8,20.7c4.8-1.2,9.6,1.7,10.8,6.5c1.2,4.8-1.7,9.6-6.5,10.8c-4.8,1.2-9.6-1.7-10.8-6.5
	C160.1,26.8,163,21.9,167.8,20.7z"/>
<path class="st7" d="M170,38.9c-4.3,0-8.1-2.9-9.2-7.2c-1.3-5.1,1.8-10.3,6.9-11.5c5.1-1.3,10.3,1.8,11.5,6.9c0.6,2.5,0.2,5-1.1,7.2
	c-1.3,2.2-3.4,3.7-5.8,4.3C171.5,38.8,170.7,38.9,170,38.9z M170,21.1c-0.7,0-1.3,0.1-2,0.2c-2.2,0.5-4,1.9-5.1,3.8
	c-1.1,1.9-1.5,4.1-0.9,6.3c1.1,4.4,5.6,7.2,10.1,6.1c2.2-0.5,4-1.9,5.1-3.8c1.1-1.9,1.5-4.1,0.9-6.3C177.1,23.6,173.7,21.1,170,21.1
	z"/>
<path class="st2" d="M188.6,38l-5.9-23.6c6.6,2.2,11.6,5.7,12.5,9.2C196.2,27.6,193.5,33.1,188.6,38z"/>
<path class="st3" d="M355.4,344.7v3.8c0,0.3-0.1,0.6-0.3,0.8c-0.2,0.2-0.5,0.4-0.8,0.6c-0.1,0-0.2,0.1-0.3,0.1c-0.1,0-0.2,0-0.3,0
	H281c-0.9,0-1.6-0.5-1.7-1.3c0,0,0-0.1,0-0.1c0,0,0-0.1,0-0.1v-3.8c0,0,0,0,0-0.1c0-0.1,0-0.1,0-0.1c0.1-0.7,0.9-1.3,1.7-1.3h72.6
	c0.1,0,0.2,0,0.3,0c0.1,0,0.2,0,0.3,0.1c0.3,0.1,0.6,0.3,0.8,0.6C355.3,344.1,355.4,344.4,355.4,344.7z"/>
<path class="st4" d="M319.7,350h-38.9c-0.7,0-1.3-0.5-1.5-1.1c0-0.1,0-0.1,0-0.2c0,0,0-0.1,0-0.1c0,0,0-0.1,0-0.1v-3.8
	c0,0,0,0,0-0.1c0,0,0-0.1,0-0.1c0-0.1,0-0.1,0-0.2c0.2-0.6,0.8-1.1,1.5-1.1h34.1C315.5,345.2,316.7,348,319.7,350z"/>
<path class="st4" d="M346.5,343.2h-0.8v6.8h0.8V343.2z"/>
<path class="st4" d="M343.7,343.2h-0.8v6.8h0.8V343.2z"/>
<path class="st4" d="M340.4,343.2h-0.8v6.8h0.8V343.2z"/>
<path class="st4" d="M335.2,343.2h-0.8v6.8h0.8V343.2z"/>
<path class="st4" d="M329.8,343.2H329v6.8h0.8V343.2z"/>
<path class="st4" d="M321.5,343.2h-0.8v6.8h0.8V343.2z"/>
<path class="st4" d="M313.7,343.2h-0.8v6.8h0.8V343.2z"/>
<path class="st4" d="M306.7,343.2h-0.8v6.8h0.8V343.2z"/>
<path class="st4" d="M349.2,343.2h-0.8v6.8h0.8V343.2z"/>
<path class="st4" d="M350.9,343.2h-0.8v6.8h0.8V343.2z"/>
<path class="st4" d="M352.6,343.2h-0.8v6.8h0.8V343.2z"/>
<path class="st4" d="M353.9,343.2v6.7c-0.1,0-0.2,0-0.3,0h-0.5v-6.8h0.5C353.7,343.2,353.8,343.2,353.9,343.2z"/>
<path class="st4" d="M355.1,343.9v5.5c-0.2,0.2-0.5,0.4-0.8,0.6v-6.6C354.6,343.4,354.9,343.6,355.1,343.9z"/>
<path class="st3" d="M347.6,337.9v3.8c0,0.3-0.1,0.6-0.3,0.8c-0.1,0.1-0.1,0.1-0.2,0.2c-0.2,0.2-0.4,0.3-0.7,0.4
	c-0.1,0-0.2,0.1-0.3,0.1c-0.1,0-0.2,0-0.3,0h-72.6c-0.9,0-1.6-0.5-1.7-1.3c0,0,0-0.1,0-0.1c0,0,0,0,0-0.1v-3.8c0,0,0-0.1,0-0.1
	c0,0,0-0.1,0-0.1c0.1-0.7,0.9-1.3,1.7-1.3h72.6c0,0,0.1,0,0.1,0c0,0,0,0,0,0c0,0,0,0,0,0c0,0,0,0,0.1,0c0,0,0,0,0,0
	c0.1,0,0.2,0,0.3,0.1c0.1,0,0.1,0,0.2,0.1h0c0,0,0.1,0,0.1,0.1c0,0,0,0,0.1,0c0,0,0,0,0.1,0c0.1,0,0.1,0.1,0.2,0.2c0,0,0,0,0.1,0.1
	c0,0,0,0,0,0c0,0,0,0,0,0l0,0c0,0,0,0,0.1,0.1C347.5,337.3,347.6,337.6,347.6,337.9z"/>
<path class="st4" d="M311.9,343.2H273c-0.7,0-1.3-0.5-1.5-1.1c0-0.1,0-0.1,0-0.2c0,0,0-0.1,0-0.1c0,0,0,0,0-0.1v-3.8
	c0,0,0-0.1,0-0.1c0,0,0-0.1,0-0.1c0-0.1,0-0.1,0-0.2c0.2-0.6,0.8-1.1,1.5-1.1h34.1c0,0.1,0,0.1,0,0.2
	C307.8,338.6,309.1,341.2,311.9,343.2z"/>
<path class="st4" d="M338.8,336.4h-0.8v6.8h0.8V336.4z"/>
<path class="st4" d="M336,336.4h-0.8v6.8h0.8V336.4z"/>
<path class="st4" d="M332.6,336.4h-0.8v6.8h0.8V336.4z"/>
<path class="st4" d="M327.5,336.4h-0.8v6.8h0.8V336.4z"/>
<path class="st4" d="M322.1,336.4h-0.8v6.8h0.8V336.4z"/>
<path class="st4" d="M313.7,336.4h-0.8v6.8h0.8V336.4z"/>
<path class="st4" d="M305.9,336.4h-0.8v6.8h0.8V336.4z"/>
<path class="st4" d="M299,336.4h-0.8v6.8h0.8V336.4z"/>
<path class="st4" d="M341.4,336.4h-0.8v6.8h0.8V336.4z"/>
<path class="st4" d="M343.2,336.4h-0.8v6.8h0.8V336.4z"/>
<path class="st4" d="M344.9,336.4h-0.8v6.8h0.8V336.4z"/>
<path class="st4" d="M346.2,336.4v6.7c-0.1,0-0.2,0-0.3,0h-0.5v-6.8h0.5C346,336.4,346.1,336.4,346.2,336.4z"/>
<path class="st4" d="M347.3,337.1v5.5c-0.2,0.2-0.5,0.4-0.8,0.6v-6.6C346.8,336.6,347.1,336.8,347.3,337.1z"/>
<path class="st3" d="M351.3,331.3v3.8c0,0.3-0.1,0.6-0.3,0.8c-0.2,0.2-0.5,0.4-0.8,0.6c-0.1,0-0.2,0.1-0.3,0.1c-0.1,0-0.2,0-0.3,0
	H277c-0.3,0-0.6-0.1-0.8-0.2c-0.5-0.2-0.8-0.6-0.9-1.1c0,0,0-0.1,0-0.1c0,0,0,0,0-0.1c0,0,0,0,0-0.1v-3.8c0,0,0,0,0-0.1
	c0,0,0-0.1,0-0.1c0.1-0.7,0.9-1.3,1.7-1.3h72.6c0.1,0,0.2,0,0.3,0c0.1,0,0.2,0,0.3,0.1c0.3,0.1,0.6,0.3,0.8,0.6
	C351.2,330.7,351.3,331,351.3,331.3z"/>
<path class="st4" d="M315.7,336.6h-38.9c-0.3,0-0.5-0.1-0.7-0.2c-0.4-0.2-0.7-0.6-0.8-1.1c0,0,0-0.1,0-0.1c0,0,0,0,0-0.1
	c0,0,0,0,0-0.1v-3.8c0,0,0,0,0-0.1c0,0,0-0.1,0-0.1c0-0.1,0-0.1,0-0.2c0.2-0.6,0.8-1.1,1.5-1.1h34.1c0.5,1.9,1.7,4.6,4.5,6.6
	C315.5,336.5,315.6,336.5,315.7,336.6z"/>
<path class="st4" d="M342.5,329.8h-0.8v6.8h0.8V329.8z"/>
<path class="st4" d="M339.7,329.8h-0.8v6.8h0.8V329.8z"/>
<path class="st4" d="M336.4,329.8h-0.8v6.8h0.8V329.8z"/>
<path class="st4" d="M331.2,329.8h-0.8v6.8h0.8V329.8z"/>
<path class="st4" d="M325.8,329.8H325v6.8h0.8V329.8z"/>
<path class="st4" d="M317.5,329.8h-0.8v6.8h0.8V329.8z"/>
<path class="st4" d="M309.7,329.8h-0.8v6.8h0.8V329.8z"/>
<path class="st4" d="M302.7,329.8h-0.8v6.8h0.8V329.8z"/>
<path class="st4" d="M345.2,329.8h-0.8v6.8h0.8V329.8z"/>
<path class="st4" d="M346.9,329.8h-0.8v6.8h0.8V329.8z"/>
<path class="st4" d="M348.6,329.8h-0.8v6.8h0.8V329.8z"/>
<path class="st4" d="M349.9,329.8v6.7c-0.1,0-0.2,0-0.3,0h-0.5v-6.8h0.5C349.7,329.8,349.8,329.8,349.9,329.8z"/>
<path class="st4" d="M351.1,330.5v5.5c-0.2,0.2-0.5,0.4-0.8,0.6v-6.6C350.6,330,350.8,330.2,351.1,330.5z"/>
<path class="st3" d="M353.1,324.5v3.8c0,0.3-0.1,0.6-0.3,0.8c0,0-0.1,0.1-0.1,0.1c-0.1,0.1-0.3,0.3-0.5,0.4c-0.1,0-0.2,0.1-0.2,0.1
	c-0.1,0-0.2,0.1-0.3,0.1c0,0-0.1,0-0.2,0c-0.1,0-0.1,0-0.2,0h-72.6c-0.9,0-1.6-0.6-1.7-1.3c0,0,0-0.1,0-0.1v-4
	c0-0.7,0.7-1.3,1.5-1.4c0.1,0,0.1,0,0.2,0h72.6c0.1,0,0.1,0,0.2,0c0.1,0,0.1,0,0.2,0c0.1,0,0.2,0,0.3,0.1c0.3,0.1,0.6,0.3,0.8,0.6
	C353,323.9,353.1,324.2,353.1,324.5z"/>
<path class="st4" d="M317.4,329.8h-38.9c-0.7,0-1.3-0.5-1.5-1.1c0-0.1,0-0.1,0-0.2c0,0,0-0.1,0-0.1v-4c0-0.7,0.6-1.3,1.4-1.4
	c0.1,0,0.1,0,0.2,0h34.1c0,0,0,0,0,0C313.2,325,314.5,327.8,317.4,329.8z"/>
<path class="st4" d="M344.3,323h-0.8v6.8h0.8V323z"/>
<path class="st4" d="M341.5,323h-0.8v6.8h0.8V323z"/>
<path class="st4" d="M338.1,323h-0.8v6.8h0.8V323z"/>
<path class="st4" d="M333,323h-0.8v6.8h0.8V323z"/>
<path class="st4" d="M327.6,323h-0.8v6.8h0.8V323z"/>
<path class="st4" d="M319.2,323h-0.8v6.8h0.8V323z"/>
<path class="st4" d="M311.4,323h-0.8v6.8h0.8V323z"/>
<path class="st4" d="M304.5,323h-0.8v6.8h0.8V323z"/>
<path class="st4" d="M346.9,323h-0.8v6.8h0.8V323z"/>
<path class="st4" d="M348.7,323h-0.8v6.8h0.8V323z"/>
<path class="st4" d="M350.4,323h-0.8v6.8h0.8V323z"/>
<path class="st4" d="M351.6,323v6.7c-0.1,0-0.2,0-0.3,0h-0.5V323h0.5C351.4,323,351.5,323,351.6,323z"/>
<path class="st4" d="M352.8,323.7v5.5c-0.2,0.2-0.5,0.4-0.8,0.6v-6.6C352.3,323.2,352.6,323.4,352.8,323.7z"/>
<path class="st3" d="M347.8,317.7v3.8c0,0.3-0.1,0.6-0.3,0.8c-0.2,0.2-0.5,0.4-0.8,0.6c-0.1,0-0.2,0.1-0.3,0.1c0,0-0.1,0-0.1,0h0
	c0,0,0,0-0.1,0c0,0,0,0,0,0c0,0-0.1,0-0.1,0h-72.6c-0.9,0-1.7-0.6-1.8-1.4c0,0,0-0.1,0-0.1v-3.8c0,0,0-0.1,0-0.1c0,0,0,0,0-0.1
	c0.1-0.6,0.6-1.1,1.3-1.3c0,0,0,0,0.1,0c0.1,0,0.2,0,0.4,0H346c0.1,0,0.1,0,0.2,0c0,0,0,0,0.1,0c0,0,0,0,0,0h0c0,0,0.1,0,0.1,0
	c0.1,0,0.2,0,0.3,0.1c0.3,0.1,0.6,0.3,0.8,0.6C347.6,317.1,347.8,317.4,347.8,317.7z"/>
<path class="st4" d="M312.1,323h-38.9c-0.8,0-1.5-0.6-1.6-1.4c0,0,0-0.1,0-0.1v-3.8c0,0,0-0.1,0-0.1c0,0,0,0,0-0.1
	c0.1-0.6,0.6-1.2,1.2-1.3c0,0,0,0,0.1,0c0.1,0,0.2,0,0.3,0h34.1c0,0,0,0,0,0.1C307.9,318.3,309.2,321,312.1,323
	C312.1,323,312.1,323,312.1,323z"/>
<path class="st4" d="M338.9,316.3h-0.8v6.8h0.8V316.3z"/>
<path class="st4" d="M336.1,316.3h-0.8v6.8h0.8V316.3z"/>
<path class="st4" d="M332.8,316.3h-0.8v6.8h0.8V316.3z"/>
<path class="st4" d="M327.6,316.3h-0.8v6.8h0.8V316.3z"/>
<path class="st4" d="M322.2,316.3h-0.8v6.8h0.8V316.3z"/>
<path class="st4" d="M313.9,316.3h-0.8v6.8h0.8V316.3z"/>
<path class="st4" d="M306.1,316.3h-0.8v6.8h0.8V316.3z"/>
<path class="st4" d="M299.1,316.3h-0.8v6.8h0.8V316.3z"/>
<path class="st4" d="M341.6,316.3h-0.8v6.8h0.8V316.3z"/>
<path class="st4" d="M343.3,316.3h-0.8v6.8h0.8V316.3z"/>
<path class="st4" d="M345,316.3h-0.8v6.8h0.8V316.3z"/>
<path class="st4" d="M346.3,316.3v6.7c-0.1,0-0.2,0-0.3,0h-0.5v-6.8h0.5C346.1,316.3,346.2,316.3,346.3,316.3z"/>
<path class="st4" d="M347.4,316.9v5.5c-0.2,0.2-0.5,0.4-0.8,0.6v-6.6C347,316.5,347.2,316.7,347.4,316.9z"/>
<path class="st3" d="M347.6,311v3.8c0,0.3-0.1,0.6-0.3,0.8c-0.1,0.1-0.1,0.1-0.2,0.2c-0.2,0.2-0.4,0.3-0.7,0.4c-0.1,0-0.2,0-0.2,0.1
	h0c0,0,0,0,0,0c0,0,0,0-0.1,0c-0.1,0-0.2,0-0.3,0h-72.6c-0.1,0-0.2,0-0.2,0c0,0-0.1,0-0.1,0c-0.7-0.1-1.3-0.6-1.4-1.2
	c0,0,0-0.1,0-0.1c0,0,0-0.1,0-0.1V311c0,0,0-0.1,0-0.1c0,0,0-0.1,0-0.1c0.1-0.7,0.9-1.3,1.7-1.3h72.6c0,0,0.1,0,0.1,0c0,0,0,0,0,0
	c0,0,0,0,0,0c0,0,0,0,0.1,0c0,0,0,0,0,0c0.1,0,0.2,0,0.3,0.1c0.1,0,0.1,0,0.2,0.1h0c0.2,0.1,0.4,0.2,0.6,0.4c0,0,0,0,0.1,0.1
	C347.5,310.4,347.6,310.7,347.6,311z"/>
<path class="st4" d="M311.9,316.3H273c0,0-0.1,0-0.1,0c0,0-0.1,0-0.1,0c-0.7-0.1-1.3-0.6-1.4-1.3c0,0,0-0.1,0-0.1c0,0,0-0.1,0-0.1
	V311c0,0,0-0.1,0-0.1c0,0,0-0.1,0-0.1c0-0.1,0-0.1,0-0.2c0.2-0.6,0.8-1.1,1.5-1.1h34.1c0,0.1,0,0.1,0,0.2
	C307.8,311.7,309,314.3,311.9,316.3C311.9,316.3,311.9,316.3,311.9,316.3z"/>
<path class="st4" d="M338.8,309.5h-0.8v6.8h0.8V309.5z"/>
<path class="st4" d="M336,309.5h-0.8v6.8h0.8V309.5z"/>
<path class="st4" d="M332.6,309.5h-0.8v6.8h0.8V309.5z"/>
<path class="st4" d="M327.5,309.5h-0.8v6.8h0.8V309.5z"/>
<path class="st4" d="M322.1,309.5h-0.8v6.8h0.8V309.5z"/>
<path class="st4" d="M313.7,309.5h-0.8v6.8h0.8V309.5z"/>
<path class="st4" d="M305.9,309.5h-0.8v6.8h0.8V309.5z"/>
<path class="st4" d="M299,309.5h-0.8v6.8h0.8V309.5z"/>
<path class="st4" d="M341.4,309.5h-0.8v6.8h0.8V309.5z"/>
<path class="st4" d="M343.2,309.5h-0.8v6.8h0.8V309.5z"/>
<path class="st4" d="M344.9,309.5h-0.8v6.8h0.8V309.5z"/>
<path class="st4" d="M346.2,309.5v6.7c-0.1,0-0.2,0-0.3,0h-0.5v-6.8h0.5C346,309.5,346.1,309.5,346.2,309.5z"/>
<path class="st4" d="M347.3,310.2v5.5c-0.2,0.2-0.5,0.4-0.8,0.6v-6.6C346.8,309.7,347.1,309.9,347.3,310.2z"/>
<path class="st3" d="M351.3,304.4v3.8c0,0.3-0.1,0.6-0.3,0.8c-0.2,0.2-0.5,0.4-0.8,0.6c-0.1,0-0.2,0.1-0.3,0.1c-0.1,0-0.2,0-0.3,0
	H277c-0.3,0-0.6-0.1-0.8-0.2c-0.5-0.2-0.8-0.6-0.9-1.1c0,0,0-0.1,0-0.1c0,0,0,0,0-0.1c0,0,0-0.1,0-0.1v-3.8c0,0,0-0.1,0-0.1
	c0,0,0-0.1,0-0.1c0.1-0.7,0.9-1.3,1.7-1.3h72.6c0.1,0,0.2,0,0.3,0c0.1,0,0.2,0,0.3,0.1c0.3,0.1,0.6,0.3,0.8,0.6
	C351.2,303.8,351.3,304.1,351.3,304.4z"/>
<path class="st4" d="M315.7,309.7h-38.9c-0.3,0-0.5-0.1-0.7-0.2c-0.4-0.2-0.7-0.6-0.8-1.1c0,0,0-0.1,0-0.1c0,0,0,0,0-0.1
	c0,0,0-0.1,0-0.1v-3.8c0,0,0-0.1,0-0.1c0,0,0-0.1,0-0.1c0-0.1,0-0.1,0-0.2c0.2-0.6,0.8-1.1,1.5-1.1h34.1c0.5,1.9,1.7,4.6,4.5,6.6
	C315.5,309.6,315.6,309.6,315.7,309.7z"/>
<path class="st4" d="M342.5,302.9h-0.8v6.8h0.8V302.9z"/>
<path class="st4" d="M339.7,302.9h-0.8v6.8h0.8V302.9z"/>
<path class="st4" d="M336.4,302.9h-0.8v6.8h0.8V302.9z"/>
<path class="st4" d="M331.2,302.9h-0.8v6.8h0.8V302.9z"/>
<path class="st4" d="M325.8,302.9H325v6.8h0.8V302.9z"/>
<path class="st4" d="M317.5,302.9h-0.8v6.8h0.8V302.9z"/>
<path class="st4" d="M309.7,302.9h-0.8v6.8h0.8V302.9z"/>
<path class="st4" d="M302.7,302.9h-0.8v6.8h0.8V302.9z"/>
<path class="st4" d="M345.2,302.9h-0.8v6.8h0.8V302.9z"/>
<path class="st4" d="M346.9,302.9h-0.8v6.8h0.8V302.9z"/>
<path class="st4" d="M348.6,302.9h-0.8v6.8h0.8V302.9z"/>
<path class="st4" d="M349.9,302.9v6.7c-0.1,0-0.2,0-0.3,0h-0.5v-6.8h0.5C349.7,302.9,349.8,302.9,349.9,302.9z"/>
<path class="st4" d="M351.1,303.6v5.5c-0.2,0.2-0.5,0.4-0.8,0.6V303C350.6,303.1,350.8,303.3,351.1,303.6z"/>
<path class="st3" d="M357.3,297.6v3.8c0,0.3-0.1,0.6-0.3,0.8l0,0c0,0-0.1,0.1-0.1,0.1c-0.1,0.1-0.2,0.2-0.4,0.3
	c-0.1,0-0.1,0.1-0.2,0.1c0,0,0,0,0,0c0,0-0.1,0-0.1,0c-0.1,0-0.2,0.1-0.3,0.1c-0.1,0-0.2,0-0.3,0h-72.6c-0.9,0-1.6-0.5-1.7-1.3
	c0,0,0-0.1,0-0.1c0,0,0,0,0-0.1v-3.8c0,0,0-0.1,0-0.1c0-0.7,0.7-1.3,1.5-1.4c0.1,0,0.1,0,0.2,0h72.6c0.1,0,0.2,0,0.3,0
	c0.1,0,0.2,0,0.3,0.1c0.3,0.1,0.5,0.3,0.7,0.5c0,0,0.1,0.1,0.1,0.1l0,0C357.2,297,357.3,297.3,357.3,297.6z"/>
<path class="st4" d="M321.6,302.9h-38.9c-0.7,0-1.3-0.5-1.5-1.1c0-0.1,0-0.1,0-0.2c0,0,0-0.1,0-0.1c0,0,0,0,0-0.1v-3.8
	c0,0,0-0.1,0-0.1c0-0.7,0.6-1.3,1.4-1.4c0.1,0,0.1,0,0.2,0h34.1c0,0,0,0,0,0C317.4,298.1,318.7,300.9,321.6,302.9z"/>
<path class="st4" d="M348.5,296.1h-0.8v6.8h0.8V296.1z"/>
<path class="st4" d="M345.7,296.1h-0.8v6.8h0.8V296.1z"/>
<path class="st4" d="M342.3,296.1h-0.8v6.8h0.8V296.1z"/>
<path class="st4" d="M337.2,296.1h-0.8v6.8h0.8V296.1z"/>
<path class="st4" d="M331.8,296.1h-0.8v6.8h0.8V296.1z"/>
<path class="st4" d="M323.4,296.1h-0.8v6.8h0.8V296.1z"/>
<path class="st4" d="M315.6,296.1h-0.8v6.8h0.8V296.1z"/>
<path class="st4" d="M308.7,296.1h-0.8v6.8h0.8V296.1z"/>
<path class="st4" d="M351.1,296.1h-0.8v6.8h0.8V296.1z"/>
<path class="st4" d="M352.9,296.1H352v6.8h0.8V296.1z"/>
<path class="st4" d="M354.6,296.1h-0.8v6.8h0.8V296.1z"/>
<path class="st4" d="M355.8,296.1v6.7c-0.1,0-0.2,0-0.3,0H355v-6.8h0.5C355.6,296.1,355.7,296.1,355.8,296.1z"/>
<path class="st4" d="M357,296.8v5.5c-0.2,0.2-0.5,0.4-0.8,0.6v-6.6C356.5,296.3,356.8,296.5,357,296.8z"/>
<path class="st3" d="M347.8,290.8v3.8c0,0.3-0.1,0.6-0.3,0.8c-0.2,0.2-0.5,0.4-0.8,0.6c-0.1,0-0.2,0.1-0.3,0.1c0,0-0.1,0-0.1,0h0
	c0,0,0,0-0.1,0c0,0,0,0,0,0c0,0-0.1,0-0.1,0h-72.6c-0.6,0-1.2-0.3-1.5-0.7c-0.2-0.2-0.2-0.4-0.3-0.7c0,0,0-0.1,0-0.1v-3.8
	c0,0,0-0.1,0-0.1c0-0.6,0.6-1.2,1.2-1.3c0.2,0,0.3-0.1,0.5-0.1H346c0,0,0.1,0,0.1,0c0,0,0,0,0,0c0.1,0,0.1,0,0.2,0
	c0.1,0,0.2,0,0.3,0.1c0.1,0,0.1,0,0.1,0.1h0c0.2,0.1,0.4,0.2,0.5,0.3c0,0,0,0,0,0c0,0,0,0,0,0c0,0,0.1,0.1,0.1,0.1
	C347.6,290.2,347.8,290.5,347.8,290.8z"/>
<path class="st4" d="M312.1,296.1h-38.9c-0.5,0-1-0.3-1.3-0.7c-0.1-0.2-0.2-0.5-0.3-0.7c0,0,0-0.1,0-0.1v-3.8c0,0,0-0.1,0-0.1
	c0-0.7,0.6-1.2,1.2-1.4c0.1,0,0.2,0,0.3,0h34.1c0,0.1,0,0.1,0,0.2C307.9,291.5,309.2,294.2,312.1,296.1
	C312.1,296.1,312.1,296.1,312.1,296.1z"/>
<path class="st4" d="M338.9,289.4h-0.8v6.8h0.8V289.4z"/>
<path class="st4" d="M336.1,289.4h-0.8v6.8h0.8V289.4z"/>
<path class="st4" d="M332.8,289.4h-0.8v6.8h0.8V289.4z"/>
<path class="st4" d="M327.6,289.4h-0.8v6.8h0.8V289.4z"/>
<path class="st4" d="M322.2,289.4h-0.8v6.8h0.8V289.4z"/>
<path class="st4" d="M313.9,289.4h-0.8v6.8h0.8V289.4z"/>
<path class="st4" d="M306.1,289.4h-0.8v6.8h0.8V289.4z"/>
<path class="st4" d="M299.1,289.4h-0.8v6.8h0.8V289.4z"/>
<path class="st4" d="M341.6,289.4h-0.8v6.8h0.8V289.4z"/>
<path class="st4" d="M343.3,289.4h-0.8v6.8h0.8V289.4z"/>
<path class="st4" d="M345,289.4h-0.8v6.8h0.8V289.4z"/>
<path class="st4" d="M346.3,289.4v6.7c-0.1,0-0.2,0-0.3,0h-0.5v-6.8h0.5C346.1,289.4,346.2,289.4,346.3,289.4z"/>
<path class="st4" d="M347.4,290v5.5c-0.2,0.2-0.5,0.4-0.8,0.6v-6.6C347,289.6,347.2,289.8,347.4,290z"/>
<path class="st3" d="M353.1,284.2v3.8c0,0.3-0.1,0.6-0.3,0.8c-0.2,0.2-0.5,0.4-0.8,0.6c-0.1,0-0.2,0.1-0.3,0.1c-0.1,0-0.2,0-0.3,0
	h-72.6c-0.3,0-0.5-0.1-0.8-0.2c-0.5-0.2-0.9-0.7-1-1.2c0,0,0,0,0-0.1c0,0,0-0.1,0-0.1v-3.8c0,0,0-0.1,0-0.1c0-0.7,0.7-1.3,1.5-1.4
	c0.1,0,0.1,0,0.2,0h72.6c0.1,0,0.2,0,0.3,0c0.1,0,0.2,0,0.3,0.1c0.3,0.1,0.6,0.3,0.8,0.6C353,283.6,353.1,283.9,353.1,284.2z"/>
<path class="st4" d="M317.4,289.5h-38.9c-0.3,0-0.5-0.1-0.7-0.2c-0.5-0.2-0.8-0.7-0.9-1.2c0,0,0,0,0-0.1c0,0,0-0.1,0-0.1v-3.8
	c0,0,0-0.1,0-0.1c0-0.7,0.6-1.3,1.4-1.4c0.1,0,0.1,0,0.2,0h34.1c0,0,0,0,0,0c0.5,1.9,1.8,4.6,4.6,6.6
	C317.3,289.4,317.4,289.5,317.4,289.5z"/>
<path class="st4" d="M344.3,282.7h-0.8v6.8h0.8V282.7z"/>
<path class="st4" d="M341.5,282.7h-0.8v6.8h0.8V282.7z"/>
<path class="st4" d="M338.1,282.7h-0.8v6.8h0.8V282.7z"/>
<path class="st4" d="M333,282.7h-0.8v6.8h0.8V282.7z"/>
<path class="st4" d="M327.6,282.7h-0.8v6.8h0.8V282.7z"/>
<path class="st4" d="M319.2,282.7h-0.8v6.8h0.8V282.7z"/>
<path class="st4" d="M311.4,282.7h-0.8v6.8h0.8V282.7z"/>
<path class="st4" d="M304.5,282.7h-0.8v6.8h0.8V282.7z"/>
<path class="st4" d="M346.9,282.7h-0.8v6.8h0.8V282.7z"/>
<path class="st4" d="M348.7,282.7h-0.8v6.8h0.8V282.7z"/>
<path class="st4" d="M350.4,282.7h-0.8v6.8h0.8V282.7z"/>
<path class="st4" d="M351.6,282.8v6.7c-0.1,0-0.2,0-0.3,0h-0.5v-6.8h0.5C351.4,282.7,351.5,282.7,351.6,282.8z"/>
<path class="st4" d="M352.8,283.4v5.5c-0.2,0.2-0.5,0.4-0.8,0.6v-6.6C352.3,282.9,352.6,283.1,352.8,283.4z"/>
<path class="st3" d="M355.4,277.4v3.8c0,0.3-0.1,0.6-0.3,0.8c-0.2,0.2-0.5,0.4-0.8,0.6c-0.1,0-0.2,0.1-0.3,0.1c0,0-0.1,0-0.1,0
	c0,0,0,0-0.1,0c0,0,0,0-0.1,0c0,0-0.1,0-0.1,0H281c-0.9,0-1.7-0.6-1.8-1.4c0,0,0-0.1,0-0.1v-3.8c0,0,0-0.1,0-0.1
	c0-0.8,0.8-1.4,1.8-1.4h72.6c0.1,0,0.2,0,0.3,0c0.1,0,0.2,0,0.3,0.1c0.3,0.1,0.6,0.3,0.8,0.6C355.3,276.8,355.4,277.1,355.4,277.4z"
	/>
<path class="st4" d="M319.7,282.7h-38.9c-0.8,0-1.5-0.6-1.6-1.4c0,0,0-0.1,0-0.1v-3.8c0,0,0-0.1,0-0.1c0-0.8,0.7-1.4,1.6-1.4h34.1
	C315.5,277.9,316.7,280.7,319.7,282.7C319.7,282.7,319.7,282.7,319.7,282.7z"/>
<path class="st4" d="M346.5,276h-0.8v6.8h0.8V276z"/>
<path class="st4" d="M343.7,276h-0.8v6.8h0.8V276z"/>
<path class="st4" d="M340.4,276h-0.8v6.8h0.8V276z"/>
<path class="st4" d="M335.2,276h-0.8v6.8h0.8V276z"/>
<path class="st4" d="M329.8,276H329v6.8h0.8V276z"/>
<path class="st4" d="M321.5,276h-0.8v6.8h0.8V276z"/>
<path class="st4" d="M313.7,276h-0.8v6.8h0.8V276z"/>
<path class="st4" d="M306.7,276h-0.8v6.8h0.8V276z"/>
<path class="st4" d="M349.2,276h-0.8v6.8h0.8V276z"/>
<path class="st4" d="M350.9,276h-0.8v6.8h0.8V276z"/>
<path class="st4" d="M352.6,276h-0.8v6.8h0.8V276z"/>
<path class="st4" d="M353.9,276v6.7c-0.1,0-0.2,0-0.3,0h-0.5V276h0.5C353.7,276,353.8,276,353.9,276z"/>
<path class="st4" d="M355.1,276.6v5.5c-0.2,0.2-0.5,0.4-0.8,0.6v-6.6C354.6,276.2,354.9,276.4,355.1,276.6z"/>
<path class="st8" d="M332.3,237.3c0,0-3.8,5.4-7.3,5.4c-3.5,0.1-8.8-2.5-8.8-2.5s-3.2-7.2-1-10c0,0,2.2-1,4.5,0.7
	c0.4,0.3,0.8,0.7,1.2,1.1c0.6,0.7,1.2,1,1.8,1.2c2.5,0.8,5.5-1,6.6,0.7c0.6,1,1.4,1.8,1.9,2.3C331.8,237,332.3,237.3,332.3,237.3z"
	/>
<path class="st8" d="M282.6,276.1c0,0,13.5-32.7,37.7-33.3c0,0,22.4,2.5,23.6,33.3H282.6z"/>
<path class="st9" d="M313.7,243.8c0,0,9.7,2.2,12.7,0.9c0,0,0.5-4.1-3.6-3.5c-2.8,0.4-4.6-1-5.7-1.5
	C315.6,238.9,313.3,242.1,313.7,243.8z"/>
<path class="st10" d="M322.2,237.6c-0.6,0.5-2.5-6.6-2.5-6.6c0.4,0.3,0.8,0.7,1.2,1.1c0.6,0.7,1.2,1,1.8,1.2
	C322.7,233.6,322.8,237.2,322.2,237.6z"/>
<path class="st10" d="M331.2,236.4c-0.1,0.1-4.6,2.8-5.2,2.8c-0.6,0,3.3-5.1,3.3-5.1C329.9,235.1,330.6,235.9,331.2,236.4z"/>
<path class="st11" d="M295.8,266.9c-0.2-0.2,9.5-14.4,12.2-14.5c2.7-0.1,8.8,3.1,13.1,3.5c4.4,0.4,8.6-0.8,9.5,1.8
	c0.8,2.6,3.1,11.8,1.7,13.3C330.9,272.4,301.2,271.5,295.8,266.9z"/>
<path class="st12" d="M305,316.3C305,316.3,305,316.3,305,316.3c-0.1,2.3-0.5,4.6-1.1,6.8c0,0,0,0,0,0c-0.1,0.3-0.2,0.6-0.3,1
	c-0.6,2-1.4,4-2.4,5.8c-1.2,2.3-2.8,4.6-4.6,6.6c0,0.1-0.1,0.1-0.1,0.2c-2.2,2.5-4.9,4.8-8,6.6c-0.6,0.4-1.3,0.8-2,1.1
	c-0.5,0.2-0.9,0.5-1.4,0.7c-0.4,0.3-0.9,0.5-1.3,0.7c-1.3,0.8-2.9,1.4-4.6,1.9v-3c0,0,0,0,0-0.1c0,0,0-0.1,0-0.1c0-0.1,0-0.1,0-0.2
	c0.2-0.6,0.8-1.1,1.5-1.1h-7.8c-0.7,0-1.3-0.5-1.5-1.1c0-0.1,0-0.1,0-0.2c0,0,0-0.1,0-0.1c0,0,0-0.1,0-0.1v-3.8c0,0,0-0.1,0-0.1
	c0,0,0-0.1,0-0.1c0-0.1,0-0.1,0-0.2c0.2-0.6,0.8-1.1,1.5-1.1h3c-0.4-0.2-0.7-0.6-0.8-1.1c0,0,0-0.1,0-0.1c0,0,0,0,0-0.1
	c0,0,0-0.1,0-0.1v-3.8c0,0,0-0.1,0-0.1c0,0,0-0.1,0-0.1c0-0.1,0-0.1,0-0.2c0.2-0.6,0.8-1.1,1.5-1.1h1.7c-0.7,0-1.3-0.5-1.5-1.1
	c0-0.1,0-0.1,0-0.2c0,0,0-0.1,0-0.1v-4c0-0.7,0.6-1.3,1.4-1.4h-5.2c-0.8,0-1.5-0.6-1.6-1.4c0,0,0,0,0-0.1v-3.8c0,0,0-0.1,0-0.1
	c0,0,0,0,0-0.1c0.1-0.6,0.6-1.2,1.2-1.3c-0.7-0.1-1.3-0.6-1.4-1.3c0,0,0-0.1,0-0.1c0,0,0-0.1,0-0.1V311c0,0,0-0.1,0-0.1
	c0,0,0-0.1,0-0.1c0-0.1,0-0.1,0-0.2c0.2-0.6,0.8-1.1,1.5-1.1h3c-0.4-0.2-0.7-0.6-0.8-1.1c0,0,0-0.1,0-0.1c0,0,0,0,0-0.1
	c0,0,0-0.1,0-0.1v-3.8c0,0,0-0.1,0-0.1c0,0,0-0.1,0-0.1c0-0.1,0-0.1,0-0.2c0.2-0.6,0.8-1.1,1.5-1.1h5.9c-0.7,0-1.3-0.5-1.5-1.1
	c0-0.1,0-0.1,0-0.2c0,0,0-0.1,0-0.1c0,0,0,0,0-0.1v-3.8c0,0,0,0,0-0.1c0-0.7,0.6-1.3,1.4-1.4h-9.3c-0.5,0-1-0.3-1.3-0.7l0,0l1-6l0,0
	l1.4-8.6c1.6,0.2,3.2,0.5,4.8,1c0.1,0,0.2,0.1,0.3,0.1c0,0,0,0,0,0c0.9,0.3,1.8,0.5,2.7,0.9c0,0,0,0,0,0c4.1,1.5,7.9,3.7,11.3,6.6
	c0.1,0.1,0.1,0.1,0.2,0.2c1.7,1.5,3.3,3.2,4.7,5.1c0.3,0.4,0.6,0.8,0.8,1.1c0.1,0.1,0.2,0.3,0.3,0.4c0,0,0,0,0,0
	c0.4,0.6,0.8,1.3,1.2,1.9c0.9,1.6,1.7,3.2,2.3,4.8c0.8,2.2,1.4,4.4,1.8,6.6c0,0.1,0,0.1,0,0.2C305,311.9,305.1,314.1,305,316.3z"/>
<path class="st13" d="M230,330c-9.5-17.3-3.2-39,14-48.5c17.3-9.5,39-3.2,48.5,14c9.5,17.3,3.2,39-14,48.5
	C261.3,353.6,239.5,347.3,230,330z"/>
<path class="st3" d="M277.1,344.8c-0.4,0.3-0.9,0.5-1.3,0.8c-0.2,0.1-0.3,0.2-0.5,0.2c-0.4,0.2-0.7,0.4-1.1,0.5
	c-17,8.4-37.8,1.9-47-14.8c-8.8-16-4.1-35.8,10.4-46.2c1.2-0.8,2.4-1.6,3.6-2.3c0.5-0.3,0.9-0.5,1.4-0.7c0.4-0.2,0.9-0.4,1.4-0.6
	c1.4-0.6,2.8-1.1,4.3-1.6c2.1-0.6,4.3-1.1,6.5-1.3c6.7-0.7,13.5,0.5,19.5,3.5c6.4,3.1,11.9,8.2,15.6,14.8
	C299.1,313.8,293.4,334.9,277.1,344.8z"/>
<path class="st4" d="M258.8,346.7c-3,0-6-0.4-8.9-1.3c-8.2-2.4-15-7.8-19.1-15.3c-4.1-7.5-5.1-16.1-2.7-24.3
	c2.4-8.2,7.8-15,15.3-19.1c15.5-8.5,35-2.9,43.5,12.6c8.5,15.5,2.9,35-12.6,43.5C269.4,345.3,264.1,346.7,258.8,346.7z M258.7,283.5
	c-5.1,0-10.2,1.2-15,3.9c-7.3,4-12.6,10.6-14.9,18.6c-2.3,8-1.4,16.4,2.6,23.7c4,7.3,10.6,12.6,18.6,14.9c8,2.3,16.4,1.4,23.7-2.6
	c15-8.3,20.5-27.3,12.2-42.3C280.4,289.3,269.7,283.5,258.7,283.5z"/>
<path class="st4" d="M274.5,317.7c-0.1-0.2-0.1-0.3-0.2-0.5c-0.6-1.3-1.3-2.3-2.2-3.1c-1-0.9-2.1-1.6-3.4-2
	c-1.3-0.4-2.7-0.7-4.3-0.8c-1.6-0.1-3.3-0.1-5.2-0.1c-1.2,0-2.1,0-3-0.1c-0.8-0.1-1.5-0.2-2.1-0.5c-0.6-0.2-1-0.5-1.4-0.9
	c-0.4-0.4-0.7-0.9-0.9-1.5c-0.2-0.6-0.4-1.1-0.4-1.7c0-0.6,0.1-1.1,0.3-1.6c0.2-0.5,0.5-1,1-1.4c0.5-0.4,1.1-0.8,1.8-1.1
	c1.4-0.6,2.7-0.6,3.9,0c1.2,0.6,2.2,1.8,3,3.7l7.3-3c-0.6-1.6-1.4-2.9-2.4-4c-1-1.1-2-1.9-3.2-2.5c-1.2-0.6-2.5-0.9-3.9-1
	c-1.4-0.1-2.9,0-4.4,0.4l-2.1-5.1l-4,1.6l2,5c-1.5,0.8-2.7,1.6-3.7,2.6c-1,1-1.8,2.1-2.3,3.2c-0.5,1.2-0.8,2.4-0.9,3.7
	c0,1.3,0.2,2.6,0.8,3.9c0.6,1.5,1.4,2.7,2.4,3.6c1,0.9,2.1,1.6,3.4,2c1.3,0.4,2.7,0.7,4.3,0.8c1.6,0.1,3.3,0.1,5.2,0
	c1.1-0.1,2-0.1,2.8,0c0.8,0.1,1.5,0.2,2.1,0.5c0.6,0.2,1.1,0.6,1.5,1c0.4,0.4,0.7,1,1,1.6c0.2,0.6,0.4,1.2,0.3,1.7
	c0,0.6-0.1,1.1-0.4,1.6c-0.3,0.5-0.6,1-1.2,1.5c-0.5,0.4-1.2,0.8-2,1.1c-0.7,0.3-1.4,0.5-2.1,0.6c-0.7,0.1-1.5,0-2.2-0.2
	c-0.7-0.2-1.4-0.7-2-1.3c-0.6-0.6-1.1-1.5-1.6-2.6l-7.3,3c0.8,1.9,1.7,3.4,2.9,4.4c1.1,1.1,2.4,1.9,3.8,2.4c1.4,0.5,2.8,0.7,4.3,0.6
	c1.5-0.1,3-0.3,4.4-0.7l1.9,4.6l4-1.6l-1.9-4.7c1.5-0.8,2.7-1.6,3.7-2.6c1-0.9,1.7-1.9,2.3-2.9c0-0.1,0.1-0.2,0.1-0.3
	c0.5-1.1,0.8-2.4,0.9-3.7C275.3,320.4,275.1,319.1,274.5,317.7z"/>
<path class="st2" d="M368.5,182.4c-32,26-70.3,46.1-113.9,59.5c-35.4,10.9-74.6,17.6-116.6,19.9c-11.4,0.6-22.6,0.9-33.3,0.9
	c-21.7,0-41.7-1.1-59.1-2.6l7.1-33.4c24,2,52.7,3,83.7,1.3c39.5-2.1,76.3-8.4,109.3-18.6c39.7-12.3,74.5-30.4,103.3-53.8
	L368.5,182.4z"/>
<path class="st6" d="M450.5,115.9c-4.4-2.3-8-0.9-8-0.9c-13.6-1.6-17.6,14.3-17.4,19.7c0.2,5.5,0.8,11.3-5.3,18.4
	c-17.6,20.5,19.2,21.4,19.2,21.4c0.3-16.4,19.9-10.4,19.1-8.7C483.3,171.8,460.6,121.1,450.5,115.9z"/>
<path class="st14" d="M398,184.1c0,0-2.4-3.6-4.3-3.7c-1.9-0.1-5.5-1.1-5.2-0.4c0.3,0.7,2.5,0.8,2.7,1.2c0.2,0.4-3.3,1.1-4.3,1.1
	c-1,0.1-3.4,0-3.3,0.5c0.1,0.5,4.2,2.6,7.2,2.3c2.9-0.3,6.6,0.9,6.6,0.9L398,184.1z"/>
<path class="st15" d="M432.6,185.3c0,0-1.3,2.6-3.7,5.5c-2.8,3.6-7.2,7.7-12.7,8.5c-2.6,0.4-5.2-0.2-7.6-1.2c0,0,0,0,0,0
	c-6.7-3-11.7-9.8-11.7-9.8c-1.2-3.2,0.8-5.4,0.8-5.4s13.5,3,14.8,2.4c1.3-0.6,8.8-22.3,10.6-25c1.8-2.7,7.9-4.1,7.9-4.1L432.6,185.3
	z"/>
<path class="st16" d="M429,190.8c-2.8,3.6-7.2,7.7-12.7,8.5c-2.6,0.4-5.2-0.2-7.6-1.2c0.3,0,6.9,0.9,9.6-3.9
	c2.7-4.9,5.6-12.6,9.7-10C429.7,185.3,429.6,188.1,429,190.8z"/>
<path class="st17" d="M483,331c0,0,4.1,3.8,3.3,6.4c-0.8,2.7-4.5,4.5-5,7.7c-0.5,3.3-2.5,5-4.3,5c-1.8,0-8.6,0-8.6,0s-1.3-2.3,1.9-3
	c3.2-0.7,4.4-4.5,4.2-8.1c-0.2-3.6,0.3-8.3,0.3-8.3l6.8-1.6L483,331z"/>
<path class="st18" d="M448.1,332.6c0,0,1.5,15.9-0.3,16.8l-23.1,0c0,0,0-2.7,3.7-3.3c3.7-0.6,10.2-2.8,11.4-7.6
	C440.8,333.7,448.1,332.6,448.1,332.6z"/>
<path class="st14" d="M464.6,218.4c-4.8-10.7-7.7-13.7-7.1-17.1c0.4-2.5-1.3-46-1.3-46c-0.6-0.2-1.7-0.3-2.3-0.5
	c-2-0.4-3.6-1.8-4.2-3.7c-0.8-2.3-1.5-5.6-1.4-9.8l-0.6,0.1l-10.3,2c0,0,0.2,3.2,0.2,6.3c0,0,0,0.1,0,0.1c0,2.6-1.7,5-4.3,5.7
	c-1.3,0.4-2.4,0.7-2.4,0.7s-3.8,10.8-4.5,21.8c-0.7,11.1,6.8,15.9-0.1,37.9C419.3,238.5,467.2,224.3,464.6,218.4z"/>
<path class="st19" d="M437.4,143.5c0,0,0.2,3.2,0.2,6.3c5.7-0.2,8.8-5.4,10-8.3L437.4,143.5z"/>
<path class="st14" d="M435.4,146.3c0,0,13.6,0.2,13.6-8.2c0-8.5,1.8-14.1-6.9-14.6c-8.7-0.5-10.4,2.7-11,5.6
	C430.4,131.8,431.9,146.1,435.4,146.3z"/>
<path class="st6" d="M435.9,123.3c0,0,3.7,9.9,9.4,11.4c5.7,1.5,8.2-0.1,8.2-0.1s-4.4-3.5-5.3-9.5
	C448.3,125,438.7,118.5,435.9,123.3z"/>
<path class="st6" d="M436.9,124.1c0,0-2.8,1-3.9,3c-1.1,2-2.1,4.6-1.8,7.8c0,0-2.8-6.7,0.3-10.6
	C434.8,120.3,436.9,124.1,436.9,124.1z"/>
<path class="st15" d="M465.9,174.6c0,0,0.3,4.9,0,10.7c-0.2,3.9-4.1,9.1-4.7,10.3c-1.4,3.2-3,3.7-3,3.7l-12.2,3l-4.3,1l-13.5-4
	c0,0-6.1-17.1-3.7-26.8c2.5-9.6,6.2-16.3,6.2-16.3s11,10.8,25.3-0.9L465.9,174.6z"/>
<path class="st20" d="M429.2,201.9c0,0-6.7,20.8-7.1,27.8c-0.4,7.1,12.8,100.5,13.3,103.7c0.5,3.1,4.3,5,4.3,5s1.8,1,4.3,0.3
	c3.5-1,4.6-2.2,4.6-2.2s5.2-66.6,2-90.4c-3.2-23.8-3.3-44.4-3.3-44.4H429.2z"/>
<path class="st18" d="M457.5,201.3c0,0,10.2,13.7,11.1,22.9c0.9,9.2,1.5,41.7,3.5,50.7c2,9,9.4,26.3,9.4,54.4c0,0-0.8,1.6-3.2,2.5
	c-0.8,0.3-1.8,0.5-2.8,0.8c-2,0.5-4-0.5-4.9-2.3c-5-10.1-21-42.7-21.8-49.5c-0.6-4.8-5.6-36.5-16.6-55.1c-2.6-4.5,1.6-22.2,1.6-22.2
	L457.5,201.3z"/>
<path class="st20" d="M428.2,198.7c0,0,2.7,2.1,8,2.2c6.4,0.1,22.1-1.6,22.1-1.6s0.7,2,0.7,4c0,0-19.2,4.9-30.4,0.7
	C428.5,204,427.1,201.3,428.2,198.7z"/>
<path class="st21" d="M434.6,206.4c-1.6,0-2.9-1.5-2.9-3.3c0-1.8,1.3-3.3,2.9-3.3s2.9,1.5,2.9,3.3
	C437.5,205,436.2,206.4,434.6,206.4z M434.6,200.8c-1.1,0-1.9,1-1.9,2.3c0,1.3,0.9,2.3,1.9,2.3s1.9-1,1.9-2.3
	C436.6,201.9,435.7,200.8,434.6,200.8z"/>
<path class="st22" d="M455.5,175.5l-19.7,17.2l23.5,27l19.7-17.2L455.5,175.5z"/>
<path class="st14" d="M453.8,202.5c0,0-7.2,0.8-7.2,2.6c0,1.7,1.8,5.2,2.7,5.4c0.9,0.2,5.9-4.8,5.9-4.8L453.8,202.5z"/>
<path class="st15" d="M456.2,155.3c0,0,9.6,0.7,13.3,9.7c3.7,9,10.7,24.1,10.7,26.6c0,2.5-3.9,10.4-24.9,14.9c0,0-2.2-2.3-2-4.1
	c0,0,13.1-11.3,13.1-12.6c-0.1-2.5-2.2-5.8-13.7-17.3C449.6,169.3,456.2,155.3,456.2,155.3z"/>
<path class="st23" d="M499.6,352.6H18.7c-0.4,0-0.7-0.3-0.7-0.6v-0.6c0-0.3,0.3-0.6,0.7-0.6h480.9c0.4,0,0.7,0.3,0.7,0.6v0.6
	C500.3,352.3,499.9,352.6,499.6,352.6z"/>
</svg>
