<svg width="397" height="337px" version="1.1" id="Layer_1" xmlns="http://www.w3.org/2000/svg" xmlns:xlink="http://www.w3.org/1999/xlink" x="0px" y="0px"
	 viewBox="0 0 388 329" style="enable-background:new 0 0 388 329;" xml:space="preserve">
<style type="text/css">
	.st0{fill:#EBEBEB;}
	.st1{fill:#E6E6E6;}
	.st2{fill:#E0E0E0;}
	.st3{fill:#F0F0F0;}
	.st4{fill:#121212;}
	.st5{fill:#00AA13;}
	.st6{opacity:0.2;enable-background:new    ;}
	.st7{opacity:0.4;fill:#FFFFFF;enable-background:new    ;}
	.st8{fill:#FFFFFF;}
	.st9{opacity:0.7;fill:#FFFFFF;enable-background:new    ;}
	.st10{fill:#7F3E3B;}
	.st11{fill:#263238;}
	.st12{fill:#F5938F;}
	.st13{fill:#FFADA9;}
	.st14{opacity:0.5;enable-background:new    ;}
	.st15{opacity:0.3;enable-background:new    ;}
</style>
<path class="st0" d="M341.9,290.2h-19.2v0.2h19.2V290.2z"/>
<path class="st0" d="M275.1,296.8H261v0.2h14.1V296.8z"/>
<path class="st0" d="M252.1,296.8h-35.4v0.2h35.4V296.8z"/>
<path class="st0" d="M196.1,292.6h-57v0.2h57V292.6z"/>
<path class="st1" d="M273,196.4h30V109h-30V196.4z"/>
<path class="st2" d="M271.7,109h30.8v-4.4h-30.8V109z"/>
<path class="st2" d="M248.6,202.6h42.9v-6.2h-42.9V202.6z"/>
<path class="st3" d="M307.8,59.6H324c1.4,0,2.5-1.1,2.5-2.5V40.7c0-1.4-1.1-2.5-2.5-2.5h-16.2c-1.4,0-2.5,1.1-2.5,2.5v16.4
	C305.3,58.5,306.4,59.6,307.8,59.6z"/>
<path class="st4" d="M193.9,328.6c107.1,0,193.9-5.1,193.9-11.3c0-6.3-86.8-11.3-193.9-11.3S0,311,0,317.2
	C0,323.5,86.8,328.6,193.9,328.6z"/>
<path class="st5" d="M327.7,16.1l-1-0.1c0.2-4-1.1-7.8-3.8-10.6c-2.7-2.9-6.4-4.4-10.3-4.4h-18.1V0h18.1c4.3,0,8.2,1.7,11.1,4.7
	C326.5,7.8,327.9,11.9,327.7,16.1z"/>
<path class="st5" d="M326.2,23.2l-0.6,9.5l1,0.1l0.6-9.5L326.2,23.2z"/>
<path class="st5" d="M296.6,260.8H176.2c-6.8,0-12-5.5-11.6-12.3L179,15.9c0.4-6.8,6.3-12.3,13.1-12.3h120.4c6.8,0,12,5.5,11.6,12.3
	l-14.4,232.5C309.3,255.2,303.4,260.8,296.6,260.8z"/>
<path class="st6" d="M224.7,56.6h-26.3c-3.9,0-6.9-3.2-6.6-7.1l1.3-21.9c0.2-3.9,3.6-7.1,7.5-7.1h26.3c3.9,0,6.9,3.2,6.6,7.1
	l-1.3,21.9C231.9,53.4,228.5,56.6,224.7,56.6z"/>
<path class="st6" d="M232.3,240.3c2.2,0,4.1-1.8,4.2-3.9l2.8-45.1c0.1-2.2-1.5-4-3.7-4h-67.1l-3.3,53H232.3z"/>
<path class="st5" d="M162,166.9h-20.5c-1.5,0-2.8,1.2-2.9,2.7l-1.4,23.2c-0.1,1.5,1.1,2.7,2.6,2.7h20.5c1.5,0,2.8-1.2,2.9-2.7
	l1.4-23.2C164.7,168.2,163.6,166.9,162,166.9z"/>
<path class="st7" d="M162,166.9h-20.5c-1.5,0-2.8,1.2-2.9,2.7l-1.4,23.2c-0.1,1.5,1.1,2.7,2.6,2.7h20.5c1.5,0,2.8-1.2,2.9-2.7
	l1.4-23.2C164.7,168.2,163.6,166.9,162,166.9z"/>
<path class="st8" d="M312.3,8.7c1.9,0,3.6,0.7,4.9,2.1c1.3,1.3,1.9,3.1,1.8,5l-5.3,85.6c-0.1,1.6-1.5,3-3.2,3h-129
	c-0.8,0-1.5-0.3-2-0.8c-0.5-0.5-0.8-1.3-0.7-2l5.3-85.6c0.2-4,3.7-7.2,7.7-7.2L312.3,8.7z M312.3,7.7H191.8c-4.5,0-8.4,3.7-8.7,8.2
	l-5.3,85.6c-0.1,2.2,1.5,3.9,3.7,3.9h129c2.2,0,4-1.8,4.2-3.9l5.3-85.6C320.2,11.4,316.8,7.7,312.3,7.7z"/>
<path class="st8" d="M247.7,115.5h-65.6c-2.9,0-5.3,2.3-5.5,5.2l-2.7,43.9c-0.2,2.9,2,5.2,4.9,5.2h65.6c2.9,0,5.3-2.3,5.5-5.2
	l2.7-43.9C252.8,117.8,250.6,115.5,247.7,115.5z"/>
<path class="st8" d="M228.1,179.1h-65.6c-2.9,0-5.3,2.3-5.5,5.2l-2.7,43.9c-0.2,2.9,2,5.2,4.9,5.2h65.6c2.9,0,5.3-2.3,5.5-5.2
	l2.7-43.9C233.1,181.4,230.9,179.1,228.1,179.1z"/>
<path class="st6" d="M280.4,148c-2.5,0-4.6,2-4.8,4.5l-2.3,38.1c-0.2,2.5,1.7,4.5,4.2,4.5H313l2.9-47.1H280.4z"/>
<path class="st5" d="M329.4,139.7h-57.6c-2.5,0-4.7,2-4.8,4.6l-2.4,38.5c-0.2,2.5,1.8,4.6,4.3,4.6h57.6c2.5,0,4.7-2,4.8-4.6
	l2.4-38.5C333.9,141.7,332,139.7,329.4,139.7z"/>
<path class="st9" d="M329.4,139.7h-57.6c-2.5,0-4.7,2-4.8,4.6l-2.4,38.5c-0.2,2.5,1.8,4.6,4.3,4.6h57.6c2.5,0,4.7-2,4.8-4.6
	l2.4-38.5C333.9,141.7,332,139.7,329.4,139.7z"/>
<path class="st5" d="M271.3,126.3c15.2-14.7,16.2-38.2,2.4-52.4c-13.8-14.3-37.3-13.9-52.5,0.8c-15.2,14.7-16.2,38.2-2.4,52.4
	C232.7,141.4,256.2,141,271.3,126.3z"/>
<path class="st8" d="M269,124c13.8-13.4,14.8-34.7,2.2-47.7c-12.6-13-33.9-12.6-47.7,0.7s-14.8,34.7-2.2,47.7
	C233.9,137.7,255.3,137.3,269,124z"/>
<path class="st5" d="M259.3,91.5c-0.4,6.9-6.3,12.4-13.2,12.4c-6.9,0-12.1-5.6-11.6-12.4c0.4-6.9,6.3-12.4,13.2-12.4
	C254.5,79.1,259.7,84.6,259.3,91.5z"/>
<path class="st5" d="M245.8,109c-9.7,0-18.3,3.8-23.1,9.4c4.4,7.3,12.4,12,21.8,12c9.4,0,18-4.8,23.3-12
	C263.7,112.8,255.5,109,245.8,109z"/>
<path class="st8" d="M219.8,51.7h-26.3c-3.9,0-6.9-3.2-6.6-7.1l1.3-21.9c0.2-3.9,3.6-7.1,7.5-7.1h26.3c3.9,0,6.9,3.2,6.6,7.1
	l-1.3,21.9C227.1,48.6,223.7,51.7,219.8,51.7z"/>
<path class="st5" d="M215.1,33.7l-13.2-8.8l-1.1,17.7L215.1,33.7z"/>
<path class="st8" d="M305.1,35.2h-62.7c-1.7,0-2.9-1.4-2.8-3l0.2-3.8c0.1-1.7,1.5-3,3.2-3h62.7c1.7,0,2.9,1.4,2.8,3l-0.2,3.8
	C308.1,33.9,306.7,35.2,305.1,35.2z"/>
<path class="st8" d="M304,51.7h-62.7c-1.7,0-2.9-1.4-2.8-3l0.2-3.8c0.1-1.7,1.5-3,3.2-3h62.7c1.7,0,2.9,1.4,2.8,3l-0.2,3.8
	C307.1,50.4,305.7,51.7,304,51.7z"/>
<path class="st8" d="M324.8,154.8h-50.2c-1.1,0-1.9-0.9-1.9-2l0.1-1.4c0.1-1.1,1-2,2.1-2h50.2c1.1,0,1.9,0.9,1.9,2l-0.1,1.4
	C326.9,153.9,325.9,154.8,324.8,154.8z"/>
<path class="st8" d="M324.1,166.2h-50.2c-1.1,0-1.9-0.9-1.9-2l0.1-1.4c0.1-1.1,1-2,2.1-2h50.2c1.1,0,1.9,0.9,1.9,2l-0.1,1.4
	C326.1,165.3,325.2,166.2,324.1,166.2z"/>
<path class="st8" d="M323.4,177.6h-50.2c-1.1,0-1.9-0.9-1.9-2l0.1-1.4c0.1-1.1,1-2,2.1-2h50.2c1.1,0,1.9,0.9,1.9,2l-0.1,1.4
	C325.4,176.7,324.5,177.6,323.4,177.6z"/>
<path class="st8" d="M296,246.9c-0.2,2.7-2.5,4.8-5.1,4.8c-2.7,0-4.7-2.2-4.5-4.8s2.5-4.8,5.1-4.8
	C294.1,242.1,296.1,244.2,296,246.9z"/>
<path class="st8" d="M297,229.8c-0.2,2.7-2.5,4.8-5.1,4.8c-2.7,0-4.7-2.2-4.5-4.8s2.5-4.8,5.1-4.8C295.2,225,297.2,227.2,297,229.8z
	"/>
<path class="st8" d="M298.1,212.7c-0.2,2.7-2.5,4.8-5.1,4.8s-4.7-2.2-4.5-4.8c0.2-2.7,2.5-4.8,5.1-4.8S298.2,210.1,298.1,212.7z"/>
<path class="st8" d="M281.4,246.9c-0.2,2.7-2.5,4.8-5.1,4.8c-2.7,0-4.7-2.2-4.5-4.8s2.5-4.8,5.1-4.8
	C279.6,242.1,281.6,244.2,281.4,246.9z"/>
<path class="st8" d="M282.5,229.8c-0.2,2.7-2.5,4.8-5.1,4.8c-2.7,0-4.7-2.2-4.5-4.8s2.5-4.8,5.1-4.8
	C280.6,225,282.6,227.2,282.5,229.8z"/>
<path class="st8" d="M283.5,212.7c-0.2,2.7-2.5,4.8-5.1,4.8c-2.7,0-4.7-2.2-4.5-4.8c0.2-2.7,2.5-4.8,5.1-4.8
	S283.7,210.1,283.5,212.7z"/>
<path class="st10" d="M81.1,102.8l5.6,4.4l-7.5,3.9c0,0-3.5-3.8-1.7-6.9L81.1,102.8z"/>
<path class="st10" d="M87,114.9l-3.4,1c-1.1,0.3-2.3-0.2-2.7-1.2l-1.6-3.5l7.5-3.9l1.7,4.7C88.9,113.2,88.2,114.5,87,114.9z"/>
<path class="st5" d="M104.8,62.6l-3,1.9c-1,0.6-2.1,1.3-3.1,2c-2,1.3-4,2.7-6,4.1c-3.9,2.8-7.7,5.8-10.9,9l-0.6,0.6l-0.2,0.1
	c-0.1,0.1,0,0,0,0c0,0,0,0,0-0.1c0-0.1-0.1,0.1-0.2,0.3c-0.2,0.5-0.4,1.3-0.5,2.3c-0.2,2-0.1,4.3,0.2,6.6c0.5,4.7,1.4,9.7,2.4,14.5
	l-5.7,2.2c-1.3-2.4-2.3-4.8-3.3-7.2c-1-2.5-1.8-5-2.6-7.7c-0.7-2.7-1.3-5.4-1.4-8.6c0-1.6,0-3.3,0.5-5.2c0.3-1,0.7-2.1,1.3-3.2
	c0.2-0.3,0.4-0.6,0.6-0.8l0.3-0.4l0.2-0.2l0.7-0.8c0.9-1.1,1.8-2.1,2.8-3.1c1-1,1.9-2,2.9-2.9c2-1.9,4.1-3.6,6.2-5.3
	c2.1-1.7,4.3-3.2,6.5-4.7c1.1-0.7,2.2-1.5,3.4-2.2c1.1-0.7,2.2-1.4,3.5-2.1L104.8,62.6z"/>
<path class="st11" d="M82.5,102.8c-1.5,0.8-4.7,1.7-6.1,2.1c-0.3,0.1-0.6,0.4-0.5,0.8c0.1,1,0.3,1.7,0.9,1.7c0.6,0.1,6.5-2,6.9-2.8
	c0.2-0.4,0-1.1-0.3-1.6C83.2,102.7,82.8,102.6,82.5,102.8z"/>
<path class="st5" d="M110.7,98.5L98.7,69c-0.9-2.2-3.4-3.3-5.6-2.6L59,77.9c-2.2,0.7-3.3,3.1-2.4,5.3l12,29.5
	c0.9,2.2,3.4,3.3,5.6,2.6l34.1-11.5C110.5,103,111.6,100.6,110.7,98.5z"/>
<path class="st9" d="M110.7,98.5L98.7,69c-0.9-2.2-3.4-3.3-5.6-2.6L59,77.9c-2.2,0.7-3.3,3.1-2.4,5.3l12,29.5
	c0.9,2.2,3.4,3.3,5.6,2.6l34.1-11.5C110.5,103,111.6,100.6,110.7,98.5z"/>
<path class="st11" d="M136.6,30.8c-0.1,0.6,0,1.1,0.4,1.2c0.4,0.1,0.8-0.3,1-0.9c0.1-0.6,0-1.1-0.4-1.2
	C137.1,29.8,136.7,30.2,136.6,30.8z"/>
<path class="st12" d="M136.6,31.9c0,0,0.5,3.7,1.6,5.7c-1.3,0.7-3-0.2-3-0.2L136.6,31.9z"/>
<path class="st11" d="M135.3,27c0.1,0,0.1,0,0.2,0c1.5-0.6,2.6,0.1,2.6,0.2c0.2,0.1,0.4,0.1,0.5-0.1c0.1-0.2,0.1-0.4-0.1-0.5
	c-0.1,0-1.4-1-3.3-0.2c-0.2,0.1-0.3,0.3-0.2,0.5C135.1,26.9,135.2,27,135.3,27z"/>
<path class="st13" d="M115.8,32.9c-0.3,5.6-1.6,15.7-6.3,18.3c0,0,0.1,5.8,10.1,8.3c10.9,2.7,6.6-4.1,6.6-4.1
	c-5.6-2.9-4.4-7.3-2.3-11.2L115.8,32.9z"/>
<path class="st11" d="M107.7,52.7c-0.4-1.9-0.7-4.1,1.2-4.3c2.1-0.2,13.1,1.8,16.5,4c3.4,2.2,1.5,5.4,1.5,5.4L107.7,52.7z"/>
<path class="st5" d="M55.8,295.5c0.6,0.5,1.2,0.9,1.7,0.8c0.2,0,0.5-0.2,0.5-0.6c0-0.2,0-0.5-0.2-0.7c-0.7-0.9-3.2-1.2-3.3-1.2
	c-0.1,0-0.1,0-0.2,0.1c0,0.1,0,0.1,0,0.2C54.6,294.3,55.2,295,55.8,295.5z M57.4,295c0.1,0.1,0.1,0.1,0.2,0.2
	c0.1,0.1,0.1,0.3,0.1,0.4c-0.1,0.3-0.2,0.4-0.3,0.4c-0.5,0.1-1.7-0.9-2.4-1.8C55.7,294.3,56.9,294.5,57.4,295z"/>
<path class="st5" d="M54.4,294.1C54.5,294.1,54.5,294.1,54.4,294.1c0.9,0.2,3.2-0.1,3.6-0.8c0.1-0.1,0.2-0.4-0.1-0.7
	c-0.2-0.2-0.4-0.3-0.7-0.3c-1.1,0-2.7,1.5-2.7,1.6C54.4,293.8,54.4,293.9,54.4,294.1C54.4,294,54.4,294,54.4,294.1z M57.6,292.7
	C57.6,292.7,57.6,292.7,57.6,292.7c0.2,0.2,0.2,0.3,0.1,0.4c-0.2,0.4-1.8,0.8-2.8,0.7c0.5-0.4,1.5-1.2,2.2-1.2
	C57.3,292.6,57.5,292.6,57.6,292.7z"/>
<path class="st5" d="M112.3,309.9c1,0,1.9-0.1,2.2-0.6c0.1-0.2,0.2-0.4-0.1-0.8c-0.1-0.2-0.3-0.3-0.6-0.4c-1.3-0.3-3.8,1.2-3.9,1.2
	c-0.1,0-0.1,0.1-0.1,0.2c0,0.1,0.1,0.1,0.2,0.1C110.4,309.8,111.4,309.9,112.3,309.9z M113.3,308.5c0.1,0,0.2,0,0.4,0
	c0.2,0,0.3,0.1,0.4,0.2c0.2,0.2,0.1,0.3,0.1,0.4c-0.3,0.5-2.2,0.5-3.6,0.3C111.1,309.1,112.4,308.5,113.3,308.5z"/>
<path class="st5" d="M110,309.7C110,309.7,110,309.7,110,309.7c0.9-0.4,2.6-2.1,2.3-2.9c-0.1-0.2-0.2-0.4-0.7-0.5
	c-0.4,0-0.7,0.1-1,0.3c-0.9,0.8-0.9,2.8-0.9,2.9c0,0.1,0,0.1,0.1,0.2C109.9,309.7,109.9,309.7,110,309.7z M111.5,306.7
	c0,0,0.1,0,0.1,0c0.3,0,0.4,0.2,0.4,0.2c0.1,0.5-1,1.8-1.8,2.4c0-0.6,0.2-1.8,0.8-2.3C111.1,306.7,111.2,306.7,111.5,306.7z"/>
<path class="st13" d="M101.7,309.5h7.5l0.8-17.5h-7.5L101.7,309.5z"/>
<path class="st13" d="M46.8,291.9l7.3,1.9l8.1-15.9l-7.3-1.9L46.8,291.9z"/>
<path class="st11" d="M54.7,292.9l-6.5-5.5c-0.2-0.2-0.6-0.2-0.8,0l-5.5,4.1c-0.6,0.4-0.6,1.3,0,1.7c2.3,1.9,3.5,2.7,6.3,5.1
	c1.7,1.5,5.5,5.7,7.7,7.9c2.2,2.2,4.7,0.3,4-0.8c-3.3-5-4.3-8.9-4.7-11.4C55.3,293.6,55,293.2,54.7,292.9z"/>
<path class="st11" d="M109,308.7h-8.2c-0.3,0-0.6,0.2-0.6,0.5l-0.8,6.7c-0.1,0.7,0.5,1.4,1.2,1.3c3-0.1,7.2-0.2,11-0.2
	c4.4,0,5.1,0.2,10.2,0.2c3.1,0,3.6-3.1,2.3-3.4c-6-1.3-7.8-1.4-13.2-4.6C110.3,308.9,109.7,308.7,109,308.7z"/>
<path class="st5" d="M137.2,65.1c-0.6,7.6-3.4,23.8-14.3,56.6l-39.6-7.5c0.8-5.3,7.9-27.6,9.5-52.8c0.5-7,6.7-12.2,13.7-11.3
	c0.1,0,0.1,0,0.2,0c5.1,0.7,12.5,1.9,16.8,3.2c2.8,0.8,6,2.1,8.6,3.2C135.4,58.1,137.5,61.5,137.2,65.1z"/>
<path class="st6" d="M129.7,69.7c-0.3,4.3,1.3,13.4,2.7,20.3c1.3-4.9,2.2-9.1,3-12.7L129.7,69.7z"/>
<path class="st5" d="M137.1,62.8c1,2.4,2,4.9,3,7.4c1.1,2.5,2.2,4.9,3.3,7.3c2.3,4.8,4.7,9.5,7.5,13.6c0.7,1,1.4,2,2.2,2.8l0.1,0.2
	c0,0,0,0,0,0c0,0,0,0-0.1,0c0,0,0,0,0,0.1c0.1,0.1,0.4,0.2,0.7,0.4c0.7,0.3,1.8,0.4,2.9,0.5c1.1,0.1,2.4,0.1,3.6,0.1
	c5-0.2,10.5-1,15.8-1.9l2,5.8c-2.7,1.3-5.3,2.4-8.1,3.3c-2.8,1-5.6,1.8-8.6,2.3c-1.5,0.3-3.1,0.5-4.7,0.6c-1.6,0.1-3.4,0.1-5.4-0.3
	c-1-0.2-2.1-0.5-3.2-1c-0.6-0.3-1.2-0.6-1.7-1c-0.3-0.2-0.6-0.4-0.9-0.7l-0.4-0.4l-0.2-0.2c-1.2-1.2-2.2-2.4-3.2-3.6
	c-3.8-4.8-6.7-9.9-9.4-15c-1.3-2.6-2.6-5.2-3.7-7.8c-1.1-2.7-2.2-5.2-3.2-8.1L137.1,62.8z"/>
<path class="st6" d="M208.5,87.8l-14.2-2.8c-1.1-0.2-2.1,0.5-2.4,1.5l-4.2,15.9c-0.3,1,0.4,2,1.4,2.3l14.2,2.8
	c1,0.2,2.1-0.5,2.4-1.5l4.2-15.9C210.2,89,209.6,88,208.5,87.8z"/>
<path class="st8" d="M203.6,80.5l-14.2-3.1c-1-0.2-2.1,0.4-2.4,1.4l-4.5,15.8c-0.3,1,0.3,2.1,1.4,2.3l14.2,3.1
	c1,0.2,2.1-0.4,2.4-1.4l4.5-15.8C205.2,81.7,204.6,80.7,203.6,80.5z"/>
<path class="st13" d="M174.9,94.3l4.5-6.6l7.1,6.5c0,0-3.7,5-9.2,4.7L174.9,94.3z"/>
<path class="st11" d="M173.4,94c0.8,1.4,1.8,4.6,2.2,6c0.1,0.3,0.5,0.5,0.8,0.5c1-0.2,1.7-0.4,1.7-0.9c0.1-0.6-2.2-6.5-2.9-6.9
	c-0.4-0.2-1.1,0-1.5,0.3C173.4,93.2,173.2,93.6,173.4,94z"/>
<path class="st13" d="M188.1,86.7l0.9,1.7c0.7,1.4,0.4,3.1-0.7,4.2l-1.8,1.6l-7.1-6.5l3.7-2.4C184.8,84.2,187.1,84.9,188.1,86.7z"/>
<path class="st6" d="M110,292.1l-0.4,9.8h-7.5l0.4-9.8H110z"/>
<path class="st6" d="M54.9,275.9l7.3,1.9l-4.5,8.8l-7-2.5L54.9,275.9z"/>
<path class="st13" d="M117.2,24.7c-1.3,7.4-2.5,11.6,0.2,16.2c4.1,7,13.9,5.8,17.4-1c3.2-6.1,4.8-17.1-1.6-21.8
	C127,13.6,118.5,17.3,117.2,24.7z"/>
<path class="st11" d="M129.8,31.9c3.8,1.5,6-3.9,5-5.9c1.2-0.8,6.2-1.9,5.6-5.7c-0.6-3.8-4.3-4.9-7.1-9.9c-0.9,0.5-0.7,3.5-0.7,3.5
	s-2.3-4-8.1-3.9c-5.8,0-8-2.3-8-2.3s0.4,3.8,2.6,4.7c-3.3,0.9-3.3,6.1-7.9,6.6c1.1,2,3.6,1.9,3.6,1.9s-2.7,2.3-2.1,5.2
	s3.6,9.9-0.1,12.3C120.7,41.4,131.4,38.2,129.8,31.9z"/>
<path class="st12" d="M128.1,30.7c-0.5,1.9-0.1,3.9,0.6,5.4c1,2.2,3,1.6,3.9-0.4c0.8-1.8,1.3-5.2-0.3-6.7
	C130.6,27.5,128.6,28.5,128.1,30.7z"/>
<path class="st5" d="M108.8,119.1c0,0-10.2,56.3-14.9,77.9c-5.1,23.6-31.3,86.9-31.3,86.9l-13.1-4.2c0,0,16.4-60.2,23.8-84
	c1.5-25.3,4.7-65.4,10-81.4L108.8,119.1z"/>
<path class="st14" d="M108.8,119.1c0,0-10.2,56.3-14.9,77.9c-5.1,23.6-31.3,86.9-31.3,86.9l-13.1-4.2c0,0,16.4-60.2,23.8-84
	c1.5-25.3,4.7-65.4,10-81.4L108.8,119.1z"/>
<path class="st5" d="M65.3,281.1c0.1,0-3,4.6-3,4.6l-14.8-4.9l1.8-4.4L65.3,281.1z"/>
<path class="st15" d="M104.2,138.7c-9.6,1.5-8.9,30-7.8,45.9c2.8-13.9,6.2-32.2,8.8-45.9C104.7,138.7,104.3,138.7,104.2,138.7z"/>
<path class="st5" d="M122.9,121.7c0,0,2.1,52.4,1.3,75.4c-0.9,23.9-11.7,102.2-11.7,102.2H99.7c0,0-0.3-75.3,2.7-100.3
	c-0.6-25.6-5.5-82.2-5.5-82.2L122.9,121.7z"/>
<path class="st14" d="M122.9,121.7c0,0,2.1,52.4,1.3,75.4c-0.9,23.9-11.7,102.2-11.7,102.2H99.7c0,0-0.3-75.3,2.7-100.3
	c-0.6-25.6-5.5-82.2-5.5-82.2L122.9,121.7z"/>
<path class="st5" d="M114.9,294.2c0.1,0-0.7,5.3-0.7,5.3H98.7l-0.4-4.7L114.9,294.2z"/>
<path class="st11" d="M83.2,112.8c-1.3-0.1-1.4,3.1-1,4c0.4,0.9,6.2,1.5,21.4,4.9c15.3,3.4,19.1,3.6,19.5,3.4
	c0.5-0.2,1.5-4.4,0.5-4.6c-0.9-0.1-16.6-2.7-23.3-4.2C93.8,114.8,85.1,112.9,83.2,112.8z"/>
</svg>
