<svg width="170" height="48" version="1.1" id="Layer_1" xmlns="http://www.w3.org/2000/svg" xmlns:xlink="http://www.w3.org/1999/xlink" x="0px" y="0px"
	 viewBox="0 0 200.06 56" style="enable-background:new 0 0 200.06 56;" xml:space="preserve">
<g>
	<path style="fill:#00A913;" d="M200.06,30.3c-1.58,0.01-3.17,0-4.75,0.02c-0.26,0-0.38-0.13-0.5-0.32
		c-1.05-1.58-2.1-3.16-3.15-4.74c-0.1-0.15-0.21-0.3-0.34-0.49c-1.01,1.72-2.01,3.4-2.98,5.1c-0.19,0.33-0.39,0.46-0.78,0.45
		c-1.33-0.03-2.67-0.01-4-0.01c-0.16,0-0.32,0-0.57,0c0.52-0.83,0.99-1.58,1.47-2.34c1.36-2.15,2.7-4.31,4.09-6.45
		c0.25-0.39,0.21-0.63-0.03-0.99c-1.79-2.65-3.55-5.31-5.33-7.97c-0.09-0.14-0.17-0.28-0.26-0.41c0.11-0.17,0.25-0.11,0.37-0.11
		c1.45-0.01,2.9,0.01,4.35-0.01c0.3,0,0.48,0.1,0.64,0.35c1.12,1.71,2.26,3.41,3.42,5.15c0.93-1.58,1.87-3.11,2.72-4.69
		c0.34-0.62,0.7-0.87,1.42-0.83c1.34,0.07,2.7,0.02,4.07,0.02c0.01,0.23-0.14,0.35-0.23,0.5c-1.75,2.79-3.51,5.57-5.27,8.36
		c-0.14,0.22-0.23,0.38-0.05,0.66c1.87,2.77,3.72,5.55,5.57,8.33c0.03,0.04,0.07,0.07,0.1,0.1C200.06,30.1,200.06,30.2,200.06,30.3z
		"/>
	<path style="fill:#00A913;" d="M38.01,0c0.57,0.25,0.94,0.73,1.33,1.17c0.55,0.6,1.09,1.21,1.62,1.83c0.57,0.67,0.54,1.36-0.07,2
		c-0.81,0.84-1.7,1.59-2.59,2.34c-0.57,0.48-1.32,0.49-1.85-0.06C35.61,6.4,34.8,5.5,34.02,4.57c-0.45-0.54-0.45-1.19,0.01-1.69
		c0.88-0.95,1.86-1.81,2.85-2.64c0.12-0.1,0.28-0.16,0.43-0.24C37.54,0,37.78,0,38.01,0z"/>
	<path style="fill:#00A913;" d="M149.56,18.16c0,1.65,0,3.3,0,4.95c0,4.27-2.98,7.29-7.25,7.4c-1.24,0.03-2.46-0.07-3.63-0.52
		c-2.6-1-3.96-2.96-4.34-5.67c-0.08-0.6-0.09-1.19-0.09-1.79c0-3.31,0.01-6.63-0.01-9.94c0-0.45,0.13-0.56,0.56-0.54
		c1.12,0.03,2.23,0.03,3.35,0c0.44-0.01,0.59,0.09,0.59,0.56c-0.02,3.31-0.01,6.63-0.01,9.94c0,0.4-0.01,0.8,0.05,1.2
		c0.32,2.13,1.79,2.79,3.57,2.61c1.79-0.18,2.73-1.32,2.74-3.24c0.02-3.46,0-6.93,0.01-10.39c0-0.76-0.09-0.66,0.66-0.67
		c1.13-0.01,2.27,0.01,3.4-0.01c0.33-0.01,0.41,0.1,0.41,0.42C149.55,14.36,149.56,16.26,149.56,18.16z"/>
	<path style="fill:#00A913;" d="M131.45,18.28c-1.59,0-3.14,0-4.68,0c-0.17,0-0.26-0.07-0.34-0.22c-0.99-1.73-2.53-2.34-4.44-2.07
		c-1.86,0.26-3.05,1.39-3.55,3.15c-0.57,2-0.48,3.96,0.86,5.7c1.72,2.24,5.69,2.1,7.08-0.46c0.08-0.14,0.12-0.3,0.35-0.3
		c1.56,0.01,3.13,0,4.74,0c-0.81,2.88-2.51,4.91-5.32,5.81c-3.56,1.15-6.93,0.73-9.79-1.86c-1.77-1.61-2.58-3.71-2.73-6.08
		c-0.15-2.46,0.32-4.75,1.86-6.72c1.99-2.54,4.69-3.5,7.84-3.37c2.84,0.12,5.18,1.24,6.87,3.58
		C130.78,16.29,131.18,17.23,131.45,18.28z"/>
	<path style="fill:#00A913;" d="M169.85,21.16c0-2.88,0.01-5.76-0.01-8.65c0-0.37,0.08-0.47,0.46-0.47c3.43,0.02,6.87,0.02,10.3,0
		c0.39,0,0.47,0.11,0.46,0.47c-0.03,0.9-0.02,1.8,0,2.7c0.01,0.34-0.08,0.45-0.43,0.44c-1.93-0.02-3.87,0-5.8-0.02
		c-0.38,0-0.52,0.08-0.5,0.49c0.03,0.93,0.03,1.87,0,2.8c-0.01,0.32,0.09,0.38,0.39,0.38c1.7-0.01,3.4,0.01,5.1-0.02
		c0.38-0.01,0.47,0.1,0.46,0.47c-0.03,0.87-0.03,1.73,0,2.6c0.01,0.36-0.11,0.44-0.45,0.43c-1.68-0.02-3.37,0-5.05-0.02
		c-0.33,0-0.46,0.06-0.45,0.43c0.03,1.03,0.03,2.07,0,3.1c-0.01,0.4,0.13,0.46,0.48,0.46c1.92-0.02,3.83,0.01,5.75-0.02
		c0.43-0.01,0.52,0.12,0.51,0.53c-0.03,0.9-0.02,1.8,0,2.7c0.01,0.29-0.08,0.36-0.36,0.36c-3.5-0.01-7-0.01-10.5,0
		c-0.36,0-0.35-0.17-0.35-0.42C169.85,26.99,169.85,24.07,169.85,21.16z"/>
	<path d="M185.41,38.91c0,1.53,0,3.06,0,4.58c0,1.02,0,1.02-1,1.01c-0.43,0-0.99,0.18-1.25-0.08c-0.27-0.26-0.08-0.82-0.08-1.25
		c-0.01-2.57,0-5.13-0.01-7.7c0-0.36,0.06-0.51,0.46-0.48c0.63,0.05,1.36-0.21,1.86,0.1c0.48,0.29,0.72,0.97,1.06,1.48
		c0.9,1.37,1.8,2.75,2.8,4.1c0-0.14,0-0.27,0-0.41c0-1.62,0.01-3.23-0.01-4.85c0-0.32,0.07-0.44,0.41-0.42
		c0.53,0.03,1.07,0.02,1.6,0c0.27-0.01,0.34,0.08,0.34,0.34c-0.01,2.95-0.01,5.9,0,8.85c0,0.28-0.1,0.34-0.35,0.32
		c-0.2-0.02-0.41-0.04-0.6,0c-1.07,0.22-1.67-0.28-2.21-1.18c-0.9-1.53-1.93-2.97-2.91-4.46C185.48,38.9,185.44,38.91,185.41,38.91z
		"/>
	<path d="M115.19,40.88c-0.86,0-1.68-0.01-2.49,0.01c-0.31,0.01-0.41-0.08-0.39-0.39c0.03-0.43-0.14-0.99,0.08-1.26
		c0.23-0.28,0.81-0.08,1.24-0.09c1.08-0.01,2.17,0.02,3.25-0.01c0.41-0.01,0.51,0.12,0.48,0.5c-0.06,0.87,0.13,1.74-0.36,2.57
		c-1.08,1.84-3.18,2.74-5.41,2.26c-2.02-0.43-3.45-2.05-3.62-4.17c-0.16-2,0.44-3.73,2.28-4.74c1.83-1,3.71-0.93,5.48,0.24
		c0.69,0.45,1.11,1.13,1.39,1.9c0.09,0.24,0.05,0.36-0.25,0.35c-0.65-0.02-1.3-0.01-1.95,0c-0.15,0-0.28-0.01-0.39-0.16
		c-0.66-0.87-1.56-0.96-2.52-0.7c-0.96,0.25-1.45,0.96-1.63,1.89c-0.11,0.56-0.09,1.13,0.07,1.68c0.31,1.11,1.2,1.74,2.43,1.76
		C114.06,42.53,114.85,41.99,115.19,40.88z"/>
	<path d="M160.84,38.25c-0.15,0-0.3-0.01-0.45,0c-0.48,0.05-0.82-0.06-1.17-0.5c-0.92-1.17-2.96-0.87-3.65,0.51
		c-0.47,0.94-0.49,1.93-0.04,2.89c0.75,1.62,2.89,1.8,3.91,0.34c0.13-0.19,0.27-0.26,0.49-0.25c0.62,0.01,1.23,0.03,1.85,0
		c0.36-0.02,0.38,0.11,0.27,0.39c-0.65,1.75-1.93,2.68-3.75,2.93c-2.27,0.31-4.42-0.93-5.14-2.98c-0.82-2.33-0.02-4.84,1.94-6.01
		c2.09-1.25,5.76-0.88,6.91,2.18c0.16,0.44,0.09,0.55-0.36,0.5C161.37,38.23,161.1,38.25,160.84,38.25z"/>
	<path style="fill:#00A913;" d="M34.45,8.69c-0.08,0.95-0.16,1.89-0.24,2.84c-0.07,0.83-0.66,1.4-1.49,1.36
		c-1.28-0.06-2.56-0.17-3.83-0.3c-0.69-0.07-1.21-0.67-1.21-1.38c0.01-1.32,0.12-2.63,0.29-3.93c0.1-0.74,0.62-1.18,1.39-1.17
		c1.33,0.02,2.66,0.15,3.98,0.31c0.7,0.09,1.14,0.67,1.15,1.42c0,0.28-0.04,0.56-0.06,0.85C34.44,8.68,34.44,8.69,34.45,8.69z"/>
	<path style="fill:#00A913;" d="M14.65,25.62c0.03-0.63,0.31-1.06,0.86-1.27c1.26-0.48,2.53-0.92,3.83-1.29
		c0.58-0.17,1.19,0.1,1.43,0.64c0.58,1.31,1,2.68,1.39,4.05c0.17,0.59-0.25,1.3-0.87,1.52c-1.22,0.44-2.45,0.85-3.68,1.24
		c-0.63,0.2-1.32-0.08-1.56-0.67c-0.54-1.31-0.98-2.65-1.36-4.01C14.66,25.76,14.66,25.67,14.65,25.62z"/>
	<path style="fill:#00A913;" d="M12.03,22.95c0,0.6-0.27,1.05-0.82,1.27C10,24.7,8.75,25.12,7.49,25.49
		c-0.77,0.22-1.42-0.15-1.7-0.91c-0.41-1.14-0.81-2.29-1.19-3.44c-0.28-0.83,0.06-1.56,0.88-1.85c1.19-0.43,2.38-0.83,3.59-1.21
		c0.67-0.21,1.33,0.05,1.59,0.67c0.53,1.29,0.96,2.62,1.34,3.96C12.03,22.79,12.03,22.87,12.03,22.95z"/>
	<path style="fill:#00A913;" d="M40.66,29.71c-0.21,0.02-0.44-0.08-0.67-0.19c-1.05-0.52-2.12-1.04-3.16-1.58
		c-0.85-0.44-1.08-1.1-0.67-1.95c0.53-1.11,1.08-2.21,1.63-3.3c0.34-0.67,1.03-0.98,1.72-0.68c1.23,0.55,2.43,1.14,3.62,1.78
		c0.64,0.34,0.85,1.01,0.54,1.68c-0.56,1.22-1.16,2.42-1.78,3.61C41.64,29.52,41.21,29.72,40.66,29.71z"/>
	<path style="fill:#00A913;" d="M14.51,33.19c0.67,0,1.17,0.31,1.4,0.93c0.42,1.17,0.83,2.35,1.19,3.54c0.25,0.8-0.1,1.47-0.89,1.76
		c-1.19,0.43-2.38,0.84-3.59,1.22c-0.72,0.23-1.43-0.13-1.69-0.85c-0.43-1.19-0.83-2.38-1.21-3.59c-0.22-0.7,0.1-1.42,0.73-1.68
		c1.23-0.5,2.5-0.91,3.77-1.3C14.32,33.18,14.44,33.19,14.51,33.19z"/>
	<path style="fill:#00A913;" d="M19.78,40.75c0.04-0.62,0.32-1.05,0.87-1.25c1.24-0.44,2.48-0.86,3.73-1.25
		c0.67-0.21,1.35,0.11,1.59,0.77c0.46,1.26,0.9,2.54,1.29,3.82c0.2,0.64-0.15,1.3-0.79,1.54c-1.23,0.45-2.47,0.88-3.72,1.28
		c-0.66,0.21-1.43-0.15-1.65-0.78c-0.45-1.25-0.86-2.51-1.28-3.77C19.79,41,19.8,40.86,19.78,40.75z"/>
	<path style="fill:#00A913;" d="M34.67,32.09c1.1,0.08,2.15,0.14,3.19,0.23c1.1,0.1,1.58,0.7,1.49,1.81
		c-0.08,1.06-0.17,2.12-0.24,3.18c-0.08,1.06-0.7,1.64-1.77,1.57c-1.13-0.07-2.26-0.16-3.38-0.27c-0.85-0.08-1.37-0.65-1.33-1.5
		c0.04-1.16,0.11-2.33,0.21-3.49C32.94,32.5,33.52,32.06,34.67,32.09z"/>
	<path d="M194.04,39.78c0-1.45,0.01-2.9-0.01-4.35c0-0.31,0.06-0.43,0.4-0.43c1.68,0.02,3.37,0.02,5.05,0c0.32,0,0.4,0.1,0.38,0.4
		c-0.03,0.48,0.16,1.11-0.08,1.4c-0.25,0.31-0.9,0.08-1.38,0.09c-0.58,0.02-1.17,0.02-1.75,0c-0.25-0.01-0.31,0.07-0.3,0.31
		c0.02,0.51-0.17,1.17,0.08,1.5c0.24,0.31,0.93,0.06,1.43,0.1c0.07,0,0.13,0,0.2,0c0.46,0.03,1.11-0.21,1.33,0.1
		c0.23,0.32,0.05,0.93,0.08,1.41c0.01,0.25-0.07,0.31-0.31,0.3c-0.82-0.01-1.63,0.01-2.45-0.01c-0.29-0.01-0.37,0.08-0.35,0.36
		c0.02,0.45,0.02,0.9,0,1.35c-0.02,0.29,0.09,0.36,0.36,0.35c0.92-0.02,1.83,0,2.75-0.01c0.28,0,0.43,0.04,0.4,0.37
		c-0.04,0.48,0.16,1.1-0.08,1.4c-0.25,0.31-0.9,0.09-1.38,0.09c-1.3,0.01-2.6-0.01-3.9,0.02c-0.41,0.01-0.48-0.13-0.48-0.5
		C194.05,42.61,194.04,41.2,194.04,39.78z"/>
	<path style="fill:#00A913;" d="M49.64,18.29c0.02,0.26-0.09,0.52-0.22,0.77c-0.5,1-0.99,1.99-1.49,2.98
		c-0.45,0.89-1.13,1.13-2.03,0.7c-1-0.48-2-0.97-3-1.47c-0.97-0.49-1.21-1.22-0.74-2.19c0.48-0.98,0.97-1.96,1.47-2.94
		c0.45-0.88,1.19-1.13,2.09-0.7c1.05,0.5,2.09,1.02,3.13,1.54C49.41,17.28,49.64,17.67,49.64,18.29z"/>
	<path style="fill:#00A913;" d="M27.57,35.56c-0.79-0.01-1.27-0.31-1.49-0.95c-0.41-1.17-0.81-2.35-1.19-3.54
		c-0.24-0.77,0.08-1.46,0.84-1.73c1.19-0.43,2.38-0.83,3.58-1.21c0.76-0.24,1.42,0.12,1.71,0.88c0.3,0.79,0.56,1.59,0.84,2.39
		c0.06,0.18,0.08,0.35-0.04,0.52c-0.39,0.55-0.5,1.19-0.5,1.85c0,0.45-0.19,0.65-0.6,0.77c-0.89,0.27-1.76,0.59-2.64,0.88
		C27.88,35.5,27.67,35.54,27.57,35.56z"/>
	<path style="fill:#00A913;" d="M22.28,20.4c-0.62,0-1.08-0.31-1.3-0.9c-0.42-1.19-0.84-2.38-1.23-3.58
		c-0.24-0.75,0.07-1.43,0.81-1.7c1.22-0.45,2.44-0.86,3.68-1.26c0.71-0.22,1.39,0.11,1.66,0.83c0.38,0.99,0.7,2.01,1.06,3.01
		c0.07,0.2,0.01,0.31-0.16,0.41c-0.78,0.45-1.26,1.12-1.41,2.02c-0.02,0.14-0.06,0.25-0.22,0.3c-0.91,0.3-1.81,0.67-2.75,0.88
		C22.38,20.4,22.33,20.4,22.28,20.4z"/>
	<path d="M164.37,39.79c0-1.43,0.01-2.87-0.01-4.3c0-0.35,0.06-0.51,0.46-0.48c0.48,0.04,0.97,0.04,1.45,0
		c0.43-0.04,0.48,0.14,0.48,0.51c-0.01,2.25,0,4.5-0.02,6.75c0,0.37,0.09,0.48,0.46,0.46c0.73-0.03,1.47,0,2.2-0.02
		c0.27-0.01,0.39,0.06,0.37,0.35c-0.03,0.46,0.15,1.07-0.08,1.35c-0.24,0.3-0.87,0.09-1.33,0.09c-1.18,0.01-2.37-0.01-3.55,0.01
		c-0.35,0.01-0.45-0.08-0.44-0.44C164.38,42.65,164.37,41.22,164.37,39.79z"/>
	<path style="fill:#00A913;" d="M31.1,36.82c0.16,0.52-0.13,0.79-0.7,0.91c-0.4,0.09-0.79,0.26-1.18,0.38
		c-0.27,0.09-0.37,0.23-0.26,0.52c0.32,0.89,0.62,1.79,0.91,2.69c0.1,0.32,0.27,0.37,0.57,0.27c0.89-0.31,1.79-0.6,2.69-0.91
		c0.15-0.05,0.37-0.1,0.29-0.32c-0.16-0.45,0.1-0.37,0.37-0.33c0.18,0.03,0.36,0.05,0.54,0.07c0.55,0.03,0.68,0.19,0.56,0.72
		c-0.1,0.49-0.37,0.86-0.85,1.03c-1.22,0.42-2.45,0.86-3.68,1.24c-0.74,0.23-1.4-0.12-1.67-0.86c-0.43-1.19-0.84-2.38-1.22-3.58
		c-0.25-0.77,0.09-1.44,0.85-1.73c0.78-0.29,1.58-0.52,2.35-0.83c0.42-0.17,0.49-0.02,0.44,0.35C31.09,36.53,31.1,36.63,31.1,36.82z
		"/>
	<path style="fill:#00A913;" d="M29.29,26.35c-0.1,0.28-0.32,0.34-0.51,0.41c-1.11,0.38-2.23,0.77-3.35,1.12
		c-0.95,0.29-1.63-0.06-1.97-1.01c-0.38-1.06-0.74-2.13-1.09-3.2c-0.3-0.95,0.04-1.63,0.97-1.98c0.51-0.19,1.04-0.35,1.55-0.54
		c0.27-0.1,0.42-0.07,0.35,0.27c-0.02,0.11-0.04,0.23-0.02,0.35c0.09,0.64-0.18,0.96-0.81,1.12c-0.59,0.14-0.65,0.31-0.47,0.86
		c0.26,0.81,0.54,1.6,0.8,2.41c0.1,0.3,0.25,0.38,0.55,0.25c0.85-0.36,1.7-0.47,2.61-0.15C28.31,26.39,28.81,26.32,29.29,26.35z"/>
	<path style="fill:#00A913;" d="M33.5,30.74c-0.19,0.03-0.32-0.07-0.38-0.24c-0.43-1.24-0.85-2.48-1.27-3.71
		c-0.08-0.22,0.05-0.31,0.23-0.35c0.18-0.05,0.38-0.04,0.53-0.13c0.47-0.31,0.63-0.1,0.77,0.35c0.37,1.18,0.77,2.36,1.19,3.53
		c0.13,0.37,0.04,0.47-0.33,0.46C33.99,30.63,33.74,30.7,33.5,30.74z"/>
	<path style="fill:#01AA14;" d="M27.38,13.51c0.51,0.26,0.95,0.46,1.44,0.51c0.22,0.02,0.35,0.16,0.42,0.37
		c0.24,0.73,0.49,1.45,0.74,2.17c0.09,0.27,0.02,0.37-0.26,0.34c-0.31-0.03-0.63-0.06-0.95-0.08c-0.22-0.01-0.31-0.14-0.37-0.34
		C28.07,15.52,27.74,14.57,27.38,13.51z"/>
	<path style="fill:#FEFEFE;" d="M37.83,44.9c0.3,1.41-0.45,2.69-1.84,3.18c-1.91,0.68-3.84,1.31-5.76,1.96
		c-4.17,1.41-8.34,2.82-12.51,4.23c-1.59,0.54-2.89,0.16-3.66-1.05c-0.03-0.05-0.06-0.12-0.13-0.26c1.61,0.57,3.02,0.04,4.46-0.45
		c5.49-1.86,10.98-3.72,16.48-5.56C36.05,46.57,37.11,46.06,37.83,44.9z"/>
	<path style="fill:#00A913;" d="M39.24,44.1c-0.27-0.92-0.6-1.83-0.9-2.75c-0.37-1.11-0.38-1.1-1.54-1.05c-0.02,0-0.03,0-0.05,0
		c-0.25-0.03-0.28,0.09-0.21,0.29c0.1,0.3,0.2,0.6,0.31,0.89c0.17,0.46,0.26,0.93,0.2,1.42c-0.19,1.45-1.11,2.24-2.43,2.68
		c-5.92,1.99-11.84,3.98-17.76,5.98c-2,0.67-3.48-0.04-4.17-2.04c-0.99-2.89-1.97-5.79-2.95-8.68c-2.67-7.9-5.35-15.8-8.02-23.7
		c-0.71-2.1,0.02-3.54,2.13-4.23c0.66-0.22,1.36-0.37,1.98-0.67c1.09-0.53,2.09-0.46,3.12,0.16c0.98,0.58,2.07,0.83,3.22,0.64
		c2.34-0.38,3.91-1.72,4.73-3.94c0.15-0.41,0.34-0.74,0.79-0.89c1.42-0.46,2.83-0.96,4.26-1.41c1.7-0.54,3.13,0.17,3.77,1.83
		c0.18,0.47,0.33,0.96,0.5,1.43c0.15-0.89,0.21-1.78,0.29-2.66c0.03-0.33-0.09-0.57-0.29-0.81c-1.06-1.22-2.96-1.76-4.51-1.25
		C21.06,5.56,20.41,5.78,19.77,6C14.24,7.87,8.72,9.74,3.19,11.6c-1.24,0.42-2.22,1.13-2.79,2.33C0.23,14.31,0.13,14.71,0,15.1
		c0,0.47,0,0.93,0,1.4c0.12,0.37,0.23,0.75,0.36,1.12c2.45,7.27,4.9,14.54,7.36,21.8c1.52,4.5,3.05,8.99,4.57,13.49
		c0.47,1.4,1.37,2.37,2.76,2.87c0.21,0.08,0.46,0.06,0.65,0.21c0.47,0,0.93,0,1.4,0c0.28-0.09,0.56-0.17,0.84-0.27
		c6.19-2.09,12.38-4.17,18.56-6.27C38.8,48.68,39.93,46.43,39.24,44.1z M15.13,9.1c-0.07,0.78-0.88,1.68-1.93,2.14
		c-1.23,0.54-2.43,0.5-3.7-0.24C11.44,10.34,13.28,9.72,15.13,9.1z"/>
	<path style="fill:#00A913;" d="M167.23,24.03c-0.45-1.59-1.55-2.6-3.19-3.06c0.16-0.07,0.28-0.12,0.4-0.17
		c2.77-1.19,3.5-4.95,1.38-7.1c-1.1-1.11-2.48-1.56-3.98-1.59c-2.88-0.06-5.77-0.03-8.65-0.06c-0.43,0-0.35,0.24-0.35,0.48
		c0,5.78,0,11.57-0.01,17.35c0,0.38,0.1,0.46,0.47,0.46c2.8-0.02,5.6-0.01,8.4-0.01c0.64,0,1.26-0.08,1.88-0.23
		C166.98,29.25,167.91,26.41,167.23,24.03z M157.64,15.65c0.97,0.01,1.93-0.03,2.9,0.02c1.21,0.06,1.89,0.72,1.92,1.8
		c0.03,1.09-0.57,1.81-1.65,1.93c-1.06,0.12-2.13,0.03-3.19,0.06c-0.22,0.01-0.28-0.08-0.28-0.29c0.01-0.53,0-1.07,0-1.6
		c0-0.53,0.01-1.07,0-1.6C157.32,15.73,157.39,15.64,157.64,15.65z M162.9,24.9c-0.05,1.06-0.77,1.73-1.95,1.79
		c-0.55,0.03-1.1,0.01-1.65,0.01c0,0.01,0,0.01,0,0.02c-0.55,0-1.1-0.01-1.65,0.01c-0.27,0.01-0.33-0.09-0.33-0.34
		c0.01-1.11,0.01-2.23,0-3.34c0-0.18-0.01-0.33,0.25-0.32c1.2,0.04,2.4-0.1,3.59,0.07C162.33,22.95,162.95,23.76,162.9,24.9z"/>
	<path d="M102.59,11.8c-5.48-0.01-9.51,3.95-9.51,9.33c0,5.37,4.05,9.41,9.41,9.39c5.27-0.02,9.27-4.01,9.34-9.17
		C111.9,15.64,107.6,11.81,102.59,11.8z M105.66,25.27c-1.45,1.31-3.19,1.45-4.96,0.86c-1.79-0.6-2.66-2.01-2.96-3.81
		c-0.2-1.22-0.13-2.43,0.32-3.59c0.81-2.08,2.66-3.08,5.16-2.84c1.94,0.19,3.52,1.73,3.91,3.78c0.09,0.48,0.14,0.95,0.12,1.34
		C107.28,22.72,106.87,24.17,105.66,25.27z"/>
	<path d="M90.82,29.71c-1.18-2.02-2.36-4.05-3.54-6.07c-0.3-0.52-0.3-0.53,0.26-0.74c4.19-1.57,4.36-6.86,1.8-9.17
		c-1.22-1.1-2.69-1.6-4.29-1.63c-2.61-0.06-5.23-0.03-7.85-0.05c-0.31,0-0.39,0.08-0.39,0.39c0.01,5.83,0.01,11.66,0,17.49
		c0,0.34,0.11,0.4,0.42,0.4c1.22-0.02,2.43-0.02,3.65,0c0.36,0.01,0.43-0.11,0.43-0.45c-0.02-2-0.01-4,0-6
		c0-0.14-0.08-0.31,0.08-0.41c0.26-0.16,0.97,0.04,1.13,0.32c1.13,2.05,2.26,4.1,3.4,6.15c0.09,0.16,0.12,0.38,0.4,0.38
		c1.59-0.01,3.19,0,4.84,0C91.03,30.08,90.93,29.89,90.82,29.71z M84.56,20.23c-0.99,0.13-2,0.02-3,0.06
		c-0.24,0.01-0.27-0.12-0.26-0.31c0.01-0.65,0-1.3,0-1.95c0-0.63,0.01-1.27,0-1.9c0-0.23,0.02-0.36,0.31-0.35
		c0.92,0.02,1.83-0.01,2.75,0.02c1.3,0.05,2.04,0.82,2.1,2.12C86.52,19.21,85.84,20.06,84.56,20.23z"/>
	<path d="M73.53,14.22c-1.18-1.46-2.82-2.03-4.62-2.12c-2.58-0.13-5.16-0.02-7.75-0.06c-0.37-0.01-0.35,0.17-0.35,0.43
		c0,2.9,0,5.8,0,8.7c0,2.92,0,5.83-0.01,8.75c0,0.32,0.07,0.42,0.4,0.42c1.2-0.02,2.4-0.02,3.6,0c0.38,0.01,0.5-0.08,0.5-0.49
		c-0.02-1.87,0-3.73-0.02-5.6c0-0.36,0.07-0.47,0.45-0.47c1.41,0,2.83,0.1,4.24-0.17C74.36,22.78,76.31,17.65,73.53,14.22z
		 M68.13,20.19c-0.83,0.04-1.67,0.01-2.5,0.03c-0.27,0.01-0.34-0.08-0.33-0.34c0.02-0.65,0.01-1.3,0.01-1.95
		c0-0.65,0.01-1.3-0.01-1.95c-0.01-0.24,0.07-0.31,0.31-0.31c0.83,0.02,1.67-0.02,2.5,0.02c1.33,0.06,2.09,0.9,2.1,2.24
		C70.21,19.27,69.45,20.12,68.13,20.19z"/>
	<path d="M145.75,39.64c0.7-0.29,1.21-0.74,1.39-1.48c0.38-1.5-0.48-2.83-2.06-3.04c-1.66-0.23-3.33-0.05-4.99-0.1
		c-0.27-0.01-0.24,0.17-0.24,0.34c0,2.95,0,5.9,0,8.85c0,0.23,0.05,0.33,0.3,0.32c1.57-0.01,3.13,0.02,4.7-0.03
		c1.24-0.04,2.2-0.77,2.48-1.75C147.73,41.39,147.16,40.26,145.75,39.64z M142.42,36.9c0.27,0.01,0.53,0,0.8,0c0,0,0,0.01,0,0.01
		c0.25,0,0.5-0.02,0.75,0c0.57,0.07,0.87,0.41,0.88,0.95c0,0.56-0.28,0.9-0.87,0.95c-0.51,0.05-1.03,0.02-1.54,0.03
		c-0.16,0-0.24-0.06-0.24-0.23c0-0.5,0.01-1,0-1.49C142.19,36.95,142.26,36.89,142.42,36.9z M144.03,42.62c-0.25,0.01-0.5,0-0.75,0
		c-1.09,0-1.09,0-1.09-1.07c0-0.96,0-0.96,0.94-0.96c0.3,0,0.6-0.01,0.9,0.01c0.64,0.03,1.05,0.44,1.05,1.03
		C145.09,42.22,144.69,42.59,144.03,42.62z"/>
	<path d="M176.15,34.88c-2.77,0-4.88,2.09-4.89,4.84c0,2.79,2.09,4.89,4.88,4.89c2.79,0,4.9-2.11,4.89-4.89
		C181.02,36.96,178.93,34.89,176.15,34.88z M175.45,42.4c-1.09-0.27-1.62-1.07-1.76-2.12c-0.15-1.13,0.05-2.17,1.06-2.88
		c0.78-0.55,1.99-0.53,2.79,0.01c0.83,0.56,1.07,1.4,1.1,2.27C178.65,41.67,177.25,42.84,175.45,42.4z"/>
	<path d="M124.99,41.17c-0.17-0.28-0.21-0.44,0.17-0.56c0.32-0.1,0.6-0.29,0.84-0.53c0.87-0.87,1.06-1.91,0.71-3.04
		c-0.36-1.18-1.26-1.77-2.43-1.94c-1.51-0.21-3.03-0.05-4.54-0.09c-0.23-0.01-0.28,0.1-0.28,0.3c0,2.97,0.01,5.93,0,8.9
		c0,0.25,0.08,0.31,0.32,0.31c0.57-0.01,1.13-0.02,1.7,0c0.29,0.01,0.37-0.09,0.36-0.37c-0.02-0.9-0.02-1.8,0-2.7
		c0-0.17-0.15-0.42,0.15-0.5c0.28-0.07,0.42,0.09,0.54,0.32c0.53,0.98,1.07,1.95,1.61,2.93c0.1,0.18,0.18,0.33,0.44,0.32
		c0.77-0.02,1.53-0.01,2.38-0.01C126.26,43.35,125.63,42.25,124.99,41.17z M124.45,38.34c-0.07,0.53-0.41,0.87-0.99,0.93
		c-0.46,0.04-0.93,0.01-1.39,0.03c-0.2,0.01-0.26-0.07-0.25-0.26c0.01-0.3,0-0.6,0-0.96c0.04-0.31-0.16-0.89,0.07-1.01
		c0.37-0.19,0.9-0.08,1.36-0.08C124.13,36.99,124.56,37.48,124.45,38.34z"/>
	<path d="M137.94,44.29c-1.08-3-2.17-5.99-3.25-8.99c-0.09-0.24-0.22-0.29-0.44-0.28c-0.67,0.01-1.33,0.02-2,0
		c-0.29-0.01-0.41,0.1-0.5,0.35c-0.42,1.19-0.85,2.37-1.28,3.56c-0.63,1.73-1.24,3.47-1.89,5.2c-0.13,0.34-0.06,0.43,0.29,0.4
		c0.38-0.03,0.77-0.01,1.15-0.01c0.87,0,0.87,0,1.14-0.81c0.06-0.19,0.14-0.37,0.19-0.57c0.06-0.23,0.2-0.31,0.43-0.3
		c0.62,0.01,1.23,0,1.85,0c1.34,0,1.34,0,1.77,1.28c0.02,0.06,0.03,0.13,0.05,0.19c0.04,0.15,0.13,0.2,0.29,0.2
		c0.73-0.01,1.46,0,2.21,0C137.96,44.41,137.96,44.35,137.94,44.29z M134.11,41.05c-0.58,0-1.16-0.01-1.74,0
		c-0.26,0-0.26-0.11-0.19-0.31c0.34-0.99,0.67-1.99,1.04-3.1c0.39,1.14,0.74,2.17,1.09,3.19C134.38,41.04,134.26,41.05,134.11,41.05
		z"/>
	<path style="fill:#00A913;" d="M50.6,30.86c-0.77-0.89-1.57-1.77-2.38-2.63c-0.64-0.68-1.42-0.72-2.13-0.11
		c-0.89,0.78-1.76,1.57-2.62,2.38c-0.69,0.65-0.72,1.41-0.1,2.12c0.79,0.9,1.6,1.78,2.4,2.67c0.28,0.31,0.63,0.47,1.1,0.48
		c0.33-0.02,0.68-0.11,0.96-0.37c0.89-0.8,1.79-1.6,2.66-2.42C51.18,32.34,51.21,31.57,50.6,30.86z M49.34,32.08
		c-0.75,0.66-1.48,1.33-2.23,2c-0.07,0.07-0.14,0.15-0.29,0.13c-0.05-0.04-0.14-0.1-0.2-0.17c-0.66-0.72-1.31-1.46-1.98-2.17
		c-0.18-0.19-0.17-0.32,0.02-0.49c0.74-0.66,1.48-1.33,2.21-2.01c0.21-0.19,0.33-0.13,0.49,0.05c0.65,0.73,1.31,1.46,1.97,2.18
		C49.5,31.77,49.55,31.9,49.34,32.08z"/>
	<path style="fill:#00A913;" d="M14.54,30.1c-0.39-1.2-0.79-2.4-1.22-3.58c-0.28-0.76-1.01-1.1-1.78-0.84
		c-1.18,0.39-2.36,0.8-3.53,1.22c-0.74,0.27-1.11,0.92-0.88,1.67c0.39,1.24,0.81,2.46,1.25,3.68c0.21,0.57,0.66,0.86,1.24,0.88
		c0.13-0.01,0.24,0.01,0.33-0.02c1.32-0.4,2.64-0.81,3.91-1.35C14.5,31.48,14.76,30.78,14.54,30.1z M12.86,30.59
		c-0.96,0.33-1.92,0.65-2.88,0.98c-0.2,0.07-0.31,0.01-0.38-0.19c-0.32-0.96-0.65-1.92-0.98-2.87c-0.07-0.21-0.01-0.34,0.22-0.41
		c0.95-0.31,1.89-0.63,2.83-0.95c0.2-0.07,0.32-0.03,0.39,0.17c0.33,0.99,0.67,1.98,1,2.97c0.01,0.03,0.02,0.06,0.03,0.1
		C13.1,30.53,12.97,30.55,12.86,30.59z"/>
	<path style="fill:#00A913;" d="M24.65,34.99c-0.38-1.1-0.75-2.2-1.14-3.3c-0.33-0.93-0.99-1.26-1.93-0.96
		c-1.12,0.36-2.24,0.75-3.35,1.15c-0.87,0.32-1.2,0.98-0.92,1.86c0.36,1.14,0.75,2.27,1.16,3.4c0.31,0.85,1.01,1.19,1.88,0.9
		c1.14-0.37,2.27-0.76,3.4-1.16c0.64-0.23,0.96-0.69,0.98-1.36C24.74,35.34,24.71,35.16,24.65,34.99z M22.94,35.64
		c-0.92,0.29-1.83,0.6-2.74,0.92c-0.27,0.09-0.4,0.02-0.48-0.24c-0.3-0.9-0.59-1.8-0.91-2.69c-0.11-0.32-0.01-0.44,0.29-0.54
		c0.88-0.28,1.76-0.59,2.64-0.89c0.08-0.03,0.16-0.05,0.26-0.08c0.13-0.02,0.16,0.1,0.2,0.21c0.32,0.94,0.64,1.88,0.97,2.82
		C23.27,35.41,23.22,35.55,22.94,35.64z"/>
	<path style="fill:#00A913;" d="M19.58,20.09c-0.38-1.31-0.78-2.61-1.32-3.86c-0.23-0.53-0.67-0.76-1.23-0.79
		c-0.05,0-0.1,0-0.15,0.02c-1.39,0.39-2.77,0.83-4.09,1.4c-0.59,0.26-0.85,0.94-0.64,1.57c0.4,1.23,0.81,2.46,1.26,3.67
		c0.25,0.68,0.93,1.03,1.62,0.82c1.25-0.38,2.5-0.8,3.73-1.24C19.39,21.44,19.77,20.72,19.58,20.09z M17.85,20.46
		c-0.93,0.32-1.86,0.63-2.78,0.95c-0.24,0.08-0.37,0.04-0.45-0.21c-0.31-0.93-0.61-1.86-0.93-2.79c-0.09-0.25-0.03-0.37,0.21-0.45
		c0.93-0.31,1.85-0.63,2.78-0.95c0.18-0.06,0.36-0.08,0.44,0.17c0.32,0.98,0.65,1.95,0.98,2.93c0.01,0.03,0.01,0.07,0.02,0.08
		C18.13,20.41,17.96,20.42,17.85,20.46z"/>
	<path style="fill:#00A913;" d="M19.69,45.35c-0.39-1.29-0.79-2.58-1.31-3.82c-0.27-0.63-0.88-0.93-1.57-0.72
		c-1.25,0.38-2.5,0.8-3.73,1.25c-0.71,0.26-1.02,0.95-0.79,1.67c0.38,1.2,0.78,2.4,1.21,3.59c0.28,0.78,0.97,1.12,1.76,0.87
		c1.19-0.38,2.36-0.79,3.54-1.2c0.6-0.21,0.88-0.68,0.93-1.32C19.71,45.58,19.72,45.46,19.69,45.35z M18.04,45.72
		c-0.99,0.33-1.98,0.67-2.97,1c-0.03,0.01-0.06,0.02-0.1,0.03c-0.17,0-0.22-0.12-0.26-0.25c-0.32-0.94-0.63-1.89-0.95-2.83
		c-0.08-0.23-0.01-0.34,0.2-0.41c0.94-0.32,1.88-0.64,2.82-0.96c0.24-0.08,0.36,0,0.44,0.24c0.31,0.95,0.64,1.88,0.95,2.83
		C18.23,45.52,18.26,45.65,18.04,45.72z"/>
	<path style="fill:#00A913;" d="M41.59,12.86c-1.03-0.64-2.07-1.26-3.13-1.86c-0.8-0.45-1.48-0.26-1.96,0.52
		c-0.61,0.99-1.21,1.99-1.79,2.99c-0.53,0.92-0.35,1.6,0.56,2.15c0.98,0.6,1.97,1.18,2.95,1.76c0.25,0.15,0.51,0.25,0.82,0.25
		c0.49-0.03,0.91-0.22,1.18-0.68c0.63-1.06,1.27-2.1,1.88-3.17C42.54,14.06,42.36,13.34,41.59,12.86z M40.8,14.2
		c-0.03,0.05-0.06,0.11-0.09,0.16c-0.49,0.83-0.99,1.66-1.47,2.49c-0.16,0.28-0.32,0.33-0.6,0.16c-0.79-0.49-1.59-0.96-2.4-1.43
		c-0.28-0.16-0.31-0.34-0.14-0.61c0.49-0.79,0.96-1.6,1.43-2.4c0.14-0.24,0.28-0.33,0.56-0.16c0.83,0.52,1.68,1.01,2.52,1.52
		C40.7,13.99,40.83,14.03,40.8,14.2z"/>
	<path style="fill:#00A913;" d="M31.91,18.52c-1.13-0.11-2.26-0.19-3.39-0.24c-1.08-0.05-1.64,0.47-1.72,1.56
		c-0.08,1.05-0.15,2.09-0.24,3.14c-0.09,1.1,0.4,1.71,1.51,1.8c1.05,0.09,2.09,0.15,3.14,0.23c1.22,0.07,1.77-0.39,1.87-1.6
		c0.09-1.1,0.18-2.19,0.23-3.29C33.35,19.15,32.87,18.61,31.91,18.52z M31.86,20.62c-0.07,0.81-0.13,1.63-0.17,2.44
		c-0.02,0.44-0.2,0.56-0.63,0.52c-0.86-0.1-1.72-0.14-2.59-0.2c-0.31-0.02-0.52-0.13-0.41-0.59c0.06-0.79,0.13-1.69,0.18-2.59
		c0.02-0.39,0.18-0.51,0.57-0.47c0.81,0.09,1.62,0.13,2.44,0.19C31.88,19.95,31.91,20,31.86,20.62z"/>
</g>
</svg>
