<?xml version="1.0" encoding="utf-8"?>
<!-- Generator: Adobe Illustrator 24.3.0, SVG Export Plug-In . SVG Version: 6.00 Build 0)  -->
<svg version="1.1" id="Layer_1" xmlns="http://www.w3.org/2000/svg" xmlns:xlink="http://www.w3.org/1999/xlink" x="0px" y="0px"
	 viewBox="0 0 64 64" style="enable-background:new 0 0 64 64;" xml:space="preserve">
<style type="text/css">
	.st0{fill:#FFFFFF;}
</style>
<path class="st0" d="M4,61h26c2.2,0,4-1.8,4-4v-7c0-0.6-0.4-1-1-1H2V27h27c1.3,0,1.3-2,0-2H2v-3c0-1.1,0.9-2,2-2
	c1.1,0,2.1-0.4,2.8-1.2c0.5-0.5,0.9-1.1,1-1.8H18c1.3,0,1.3-2,0-2H8v-2h18v2h-1c-1.3,0-1.3,2,0,2h1.1c0.4,1.7,2,3,3.9,3
	c1.1,0,2,0.9,2,2v24c0,1.3,2,1.3,2,0V22c0-1.1-0.4-2.1-1.2-2.8C32.1,18.4,31.1,18,30,18c-1.1,0-2-0.9-2-2v-3c1.1,0,2-0.9,2-2V5
	c0-1.1-0.9-2-2-2H6C4.9,3,4,3.9,4,5v6c0,1.1,0.9,2,2,2v3c0,0.5-0.2,1-0.6,1.4S4.5,18,4,18c-2.2,0-4,1.8-4,4v35C0,59.2,1.8,61,4,61z
	 M6,5h2v3c0,1.3,2,1.3,2,0V5h2v3c0,1.3,2,1.3,2,0V5h2v3c0,1.3,2,1.3,2,0V5h2v3c0,1.3,2,1.3,2,0V5h2v3c0,1.3,2,1.3,2,0V5h2l0,6H6V5z
	 M32,51v6c0,1.1-0.9,2-2,2H4c-1.1,0-2-0.9-2-2v-6H32z M59,40.1c-1.3,0-2.6,0.5-3.5,1.5l-9.9,9.9c-3.1,3.1-0.9,8.5,3.5,8.5
	c1.3,0,2.6-0.5,3.5-1.5l9.9-9.9c0.9-0.9,1.5-2.2,1.5-3.5C64,42.3,61.8,40.1,59,40.1z M51.2,57.1c-1.1,1.1-3.1,1.1-4.2,0
	c-1.2-1.2-1.2-3.1,0-4.2l4.2-4.2l4.2,4.2L51.2,57.1z M61.1,47.2l-4.2,4.2l-4.2-4.2l4.2-4.2C59.7,40.2,63.9,44.4,61.1,47.2z M42,50
	c3.3,0,6-2.7,6-6c0-3.3-2.7-6-6-6c-3.3,0-6,2.7-6,6C36,47.3,38.7,50,42,50z M38.6,42l5.5,5.5C40.5,49.5,36.5,45.5,38.6,42z M45.4,46
	L40,40.6C43.5,38.5,47.5,42.5,45.4,46z"/>
<path class="st0" d="M15,46h4c0.6,0,1-0.4,1-1v-4h4c0.6,0,1-0.4,1-1v-4c0-0.6-0.4-1-1-1h-4v-4c0-0.6-0.4-1-1-1h-4c-0.6,0-1,0.4-1,1
	v4h-4c-0.6,0-1,0.4-1,1v4c0,0.6,0.4,1,1,1h4v4C14,45.6,14.4,46,15,46z M11,39v-2h4c0.6,0,1-0.4,1-1v-4h2v4c0,0.6,0.4,1,1,1h4v2h-4
	c-0.6,0-1,0.4-1,1v4h-2v-4c0-0.6-0.4-1-1-1H11z"/>
</svg>
