<?xml version="1.0" encoding="utf-8"?>
<!-- Generator: Adobe Illustrator 24.3.0, SVG Export Plug-In . SVG Version: 6.00 Build 0)  -->
<svg version="1.1" id="Layer_1" xmlns="http://www.w3.org/2000/svg" xmlns:xlink="http://www.w3.org/1999/xlink" x="0px" y="0px"
	 viewBox="0 0 341.9 299" style="enable-background:new 0 0 341.9 299;" xml:space="preserve">
<style type="text/css">
	.st0{fill:#D1D3D4;}
	.st1{fill:#58595B;}
	.st2{fill:#EACEB6;}
	.st3{fill:#A59F92;}
	.st4{fill:#938D80;}
	.st5{fill:#DDBCA4;}
	.st6{fill:#DBBCA5;}
	.st7{fill:#5C5658;}
	.st8{fill:#424343;}
	.st9{fill:url(#SVGID_1_);}
	.st10{fill:url(#SVGID_2_);}
	.st11{fill:url(#SVGID_3_);}
	.st12{fill:url(#SVGID_4_);}
	.st13{fill:url(#SVGID_5_);}
	.st14{fill:url(#SVGID_6_);}
	.st15{fill:#414042;}
	.st16{fill:#F8DBC1;}
	.st17{fill:#808285;}
	.st18{fill:#89A4D2;}
	.st19{fill:url(#SVGID_7_);}
	.st20{fill:url(#SVGID_8_);}
	.st21{fill:url(#SVGID_9_);}
	.st22{fill:#E6E7E8;}
	.st23{fill:url(#SVGID_10_);}
	.st24{fill:url(#SVGID_11_);}
	.st25{fill:#A7A9AC;}
	.st26{fill:#602D1C;}
	.st27{fill:url(#SVGID_12_);}
	.st28{fill:url(#SVGID_13_);}
	.st29{fill:#EA6B75;}
	.st30{fill:#FFFFFF;}
	.st31{fill:url(#SVGID_14_);}
	.st32{fill:#F1F2F2;}
	.st33{fill:#53A254;}
</style>
<g>
	<g>
		<path class="st0" d="M204.8,268.5l-0.1,0c-7.3-1.7-13-7.4-14.6-14.8l-0.3-1.5h-30.3l-0.5,2c-1.7,7.2-7.4,12.8-14.6,14.4
			c-0.2,0-0.3,0.1-0.5,0.1c-3.5,0.8-3.9,5.7-0.5,7c6.6,2.6,12.3,7.1,16.2,13.1l2.4,3.6c5.9,8.9,18.9,8.9,24.8,0l2.4-3.6
			c3.9-5.9,9.6-10.5,16.2-13.1C208.8,274.3,208.4,269.3,204.8,268.5L204.8,268.5z"/>
		<path class="st1" d="M152,191l-41.2-28l0-0.2L98.1,99.6l0-0.1L112,52l0,0l23.1-47.7c0.1-0.2,0.4-0.3,0.6-0.2
			c0.2,0.1,0.3,0.4,0.2,0.6l-23.1,47.6L99,99.6l12.5,62.9l40.9,27.8L152,191L152,191z"/>
		<path class="st1" d="M201.8,191l-0.5-0.7l40.9-30.3l12.8-64.7l-14.4-45.1L213.2,0.4L214,0l27.3,49.8l14.5,45.5L243,160.5
			L201.8,191z"/>
		<path class="st2" d="M218,44.9c0.1,1.4-1,2.6-2.5,2.7l-32.2,1.4l-14.6,0.6L140,51c-1.4,0.1-2.6-1-2.7-2.5l-1.9-42.4
			c-0.1-1.4,1-2.6,2.5-2.7l29.7-1.3l14.6-0.6L213.4,0c1.4-0.1,2.6,1,2.7,2.5L218,44.9L218,44.9z"/>
		<path class="st2" d="M162,44.8l-47.2,6.4c-1.8,0.2-3.1,1.9-2.8,3.7l6.1,44.9c0.2,1.8,1.9,3.1,3.7,2.8l47.2-6.4
			c1.8-0.3,3.1-1.9,2.8-3.7l-6.1-44.9C165.5,45.9,163.8,44.6,162,44.8z"/>
		<path class="st3" d="M174.3,87.4l-73.7,11.1c-1.5,0.2-2.5,1.6-2.3,3.1l8.8,58.8c0.2,1.5,1.6,2.5,3.1,2.3l73.7-11.1
			c1.5-0.2,2.5-1.6,2.3-3.1l-8.8-58.8C177.1,88.2,175.7,87.2,174.3,87.4z"/>
		<path class="st4" d="M142.9,92.1l-14.4,2.1l9.1,62.5l14.4-2.1L142.9,92.1z"/>
		<path class="st5" d="M158.1,70.2c-0.2-0.1-0.5,0-0.7,0.1l-1.1,0.6c-0.3,0.2-0.8,0.1-1-0.2l-1.4-1.6c-0.4-0.4-1-0.3-1.3,0.1l-1.2,2
			c-0.2,0.3-0.6,0.5-1,0.4l-1.5-0.5c-0.2-0.1-0.4,0-0.6,0.1l-2.3,1.2c-0.3,0.1-0.6,0.1-0.9-0.1l-2-1.6c-0.2-0.1-0.3-0.3-0.3-0.5
			l-3.2-22.4l16.1-2.3l3.5,23.8C159.3,69.9,158.7,70.4,158.1,70.2L158.1,70.2z"/>
		<path class="st1" d="M144.6,133.8c-0.2,0.1-0.5-0.1-0.6-0.3l-11.5-40.7l0-0.1l25.8-90.2c0.1-0.2,0.3-0.4,0.6-0.3s0.4,0.3,0.3,0.6
			l-25.8,89.9c0,0.1,0,0.2,0,0.3l11.4,40.3C145,133.5,144.8,133.8,144.6,133.8L144.6,133.8z"/>
		<path class="st3" d="M238.9,48.1L182.7,46c-1.9-0.1-3.5,1.4-3.6,3.4l-1.7,44.9c-0.1,1.9,1.4,3.5,3.4,3.6l56.2,2.1
			c1.9,0.1,3.5-1.4,3.6-3.4l1.7-44.9C242.3,49.8,240.8,48.2,238.9,48.1z"/>
		<path class="st4" d="M220.1,47.3l-14.6-0.6l-2.3,52.6l14.6,0.6L220.1,47.3z"/>
		<path class="st5" d="M182,15.4l-0.4,0.2c-0.2,0.1-0.4,0.3-0.4,0.6l-0.7,2.4c-0.2,0.6-1,0.9-1.5,0.5l-1.8-1.3
			c-0.3-0.2-0.6-0.2-0.9-0.1l-1.7,0.7c-0.2,0.1-0.5,0.1-0.7,0l-2-0.7c-0.4-0.1-0.8,0-1,0.2l-1,1c-0.3,0.3-0.8,0.4-1.2,0.2
			c-0.3-0.2-0.5-0.5-0.5-0.9l-0.4-16.3l14.6-0.6l0.4,13.2C182.5,14.9,182.3,15.3,182,15.4L182,15.4z"/>
		<path class="st6" d="M253.4,93.1l-77.8-8.5c-1.8-0.2-3.4,1.1-3.6,2.9l-6.7,61.2c-0.2,1.8,1.1,3.4,2.9,3.6l77.8,8.5
			c1.8,0.2,3.4-1.1,3.6-2.9l6.7-61.2C256.4,94.9,255.1,93.3,253.4,93.1z"/>
		<path class="st2" d="M222.5,114.3c-0.2-0.1-0.4-0.1-0.7-0.1l-1.2,0.3c-0.4,0.1-0.8-0.1-0.9-0.4l-1-1.8c-0.3-0.5-0.9-0.6-1.3-0.2
			l-1.6,1.7c-0.3,0.3-0.7,0.3-1,0.1l-1.3-0.8c-0.2-0.1-0.4-0.1-0.6-0.1l-2.5,0.6c-0.3,0.1-0.6,0-0.8-0.3l-1.6-2
			c-0.1-0.2-0.2-0.4-0.2-0.6l2-22.5l16.2,1.4l-2.1,23.9C223.7,114.3,223,114.6,222.5,114.3L222.5,114.3z"/>
		<path class="st1" d="M210.8,118.8c-0.2-0.1-0.4-0.3-0.3-0.5l7.6-29.6c0-0.1,0-0.2,0-0.3l-29.8-87c-0.1-0.2,0-0.5,0.3-0.6
			s0.5,0,0.6,0.3l30,87.4l0,0.1l-7.6,29.9C211.2,118.7,211,118.9,210.8,118.8L210.8,118.8z"/>
		<path class="st7" d="M232.5,157.2c0,0-5.2,11.3-16.1,8.7c-10.9-2.6-12.2-10.3-12.2-10.3s-14.4,13.3-33.4,11.3
			c-19-2.1-18.8-11.8-18.8-11.8s-3.9,8.1-12.5,10.7c-8.6,2.6-19.3-7.6-19.3-7.6l3.4-4.9l2.6-3.8l4.4-4.5c0.9-1,1.6-2.2,1.8-3.6
			c0-0.2,0-0.3,0.1-0.5c0.1-1.1,1.4-1.7,2.5-2c1.2-0.3,2.1-1.3,2.4-2.5l1.2-4.5c0.2-0.7,0.1-1.4-0.3-2c-0.5-0.9-1.1-2.7-0.4-5.9
			c0.8-3.6,3.6-8.1,5.1-10.2c0.6-0.8,0.8-1.8,0.6-2.8v0c-0.3-1.4,0.4-2.8,1.6-3.5c4.8-2.8,17.1-10.2,21.2-12.5
			c0.8-0.5,1.5-1.2,1.8-2c0.2-0.4,0.4-0.9,0.6-1.3c0.6-1.1,3.2-2,3.2-2s10.1-2.7,12.4-0.7c1,0.9,1.6,1.8,1.8,2.6
			c0.4,1,1.2,1.9,2.2,2.4c5.5,2.6,21.3,10.3,23.7,12.7c1.4,1.4,2.1,3,2.5,4.3c0.4,1.5,1.2,3,2.4,4c6.7,6.1,3.3,13,3.3,13l-1.4,7.2
			c-0.1,0.7,0.2,1.4,0.8,1.7c0.9,0.6,2.3,1.6,3.2,3c0.5,0.8,0.6,1.6,0.6,2.2c-0.1,1,0.6,2,1.7,2.2l0.9,0.2c1,0.2,1.9,0.9,2.2,1.8
			l4,10L232.5,157.2L232.5,157.2z"/>
		<path class="st8" d="M232.5,157.2c0,0-5.2,11.3-16.1,8.7c-10.9-2.6-12.2-10.3-12.2-10.3s-14.4,13.3-33.4,11.3
			c-19-2.1-18.8-11.8-18.8-11.8s-3.9,8.1-12.5,10.7c-8.6,2.6-19.3-7.6-19.3-7.6l3.4-4.9l34.4-1.5l74.3,4.5L232.5,157.2z"/>
		
			<linearGradient id="SVGID_1_" gradientUnits="userSpaceOnUse" x1="-1017.1119" y1="-2637.0593" x2="-1018.123" y2="-2519.6931" gradientTransform="matrix(1 0 0 1 1194 2687.1475)">
			<stop  offset="0" style="stop-color:#5C5658"/>
			<stop  offset="0.27" style="stop-color:#575153"/>
			<stop  offset="0.58" style="stop-color:#484345"/>
			<stop  offset="0.92" style="stop-color:#312C2E"/>
			<stop  offset="1" style="stop-color:#2B2729"/>
		</linearGradient>
		<path class="st9" d="M178.1,91.6l-0.4,6.2c-0.1,1.2-0.6,2.4-1.6,3.3c-0.7,0.6-1.3,1.5-1,2.4c0.5,1.7,2.9,6,3,7.2
			c0.1,1.2-0.1,37.6-0.1,37.6l-1.8-3c0,0-0.6-19.9-0.1-25c0.5-5.1-1.7-15.4-1.5-17.6c0.2-2.2,0.7-11.6,0.7-11.6L178.1,91.6z"/>
		
			<linearGradient id="SVGID_2_" gradientUnits="userSpaceOnUse" x1="-997.2007" y1="-2548.9717" x2="-957.8492" y2="-2534.7649" gradientTransform="matrix(1 0 0 1 1194 2687.1475)">
			<stop  offset="0" style="stop-color:#5C5658"/>
			<stop  offset="0.27" style="stop-color:#575153"/>
			<stop  offset="0.58" style="stop-color:#484345"/>
			<stop  offset="0.92" style="stop-color:#312C2E"/>
			<stop  offset="1" style="stop-color:#2B2729"/>
		</linearGradient>
		<path class="st10" d="M208,146.9c0,0,11.4-13.1,16.5,1.1L208,146.9z"/>
		
			<linearGradient id="SVGID_3_" gradientUnits="userSpaceOnUse" x1="-1004.1033" y1="-2562.7275" x2="-969.8264" y2="-2550.3535" gradientTransform="matrix(1 0 0 1 1194 2687.1475)">
			<stop  offset="0" style="stop-color:#5C5658"/>
			<stop  offset="0.27" style="stop-color:#575153"/>
			<stop  offset="0.58" style="stop-color:#484345"/>
			<stop  offset="0.92" style="stop-color:#312C2E"/>
			<stop  offset="1" style="stop-color:#2B2729"/>
		</linearGradient>
		<path class="st11" d="M207.4,114.9l-1.8,2.7c-2.2,3.3-3.6,7-4.1,11l-2,15.9l4.7-0.8l9.1-8.7c0,0-3.6-2-7,0.2
			c-0.5,0.3-1.1-0.2-0.8-0.7c1.6-3.8,4.2-11.5,3.9-19.2C209.2,114.4,207.9,114.1,207.4,114.9L207.4,114.9z"/>
		
			<linearGradient id="SVGID_4_" gradientUnits="userSpaceOnUse" x1="-1067.0306" y1="-2571.6123" x2="-1023.6374" y2="-2549.7141" gradientTransform="matrix(1 0 0 1 1194 2687.1475)">
			<stop  offset="0" style="stop-color:#5C5658"/>
			<stop  offset="0.27" style="stop-color:#575153"/>
			<stop  offset="0.58" style="stop-color:#484345"/>
			<stop  offset="0.92" style="stop-color:#312C2E"/>
			<stop  offset="1" style="stop-color:#2B2729"/>
		</linearGradient>
		<path class="st12" d="M148.6,116.5l4.7,7.6c0.6,0.9,1,1.9,1.2,3l2.5,13.7c0,0-6.5-3.5-8.9-9.8c-1.6-4.1-1.6-10.2-1.4-13.9
			C146.7,116,148,115.6,148.6,116.5L148.6,116.5z"/>
		
			<linearGradient id="SVGID_5_" gradientUnits="userSpaceOnUse" x1="-1071.2183" y1="-2551.6838" x2="-1031.0859" y2="-2537.2012" gradientTransform="matrix(1 0 0 1 1194 2687.1475)">
			<stop  offset="0" style="stop-color:#5C5658"/>
			<stop  offset="0.27" style="stop-color:#575153"/>
			<stop  offset="0.58" style="stop-color:#484345"/>
			<stop  offset="0.92" style="stop-color:#312C2E"/>
			<stop  offset="1" style="stop-color:#2B2729"/>
		</linearGradient>
		<path class="st13" d="M135.9,141.6l12.9,6.9c0.7,0.4,1.5-0.3,1.3-1.1c-1.3-3.9-5.1-11.6-14.1-7.4
			C135.3,140.3,135.3,141.3,135.9,141.6L135.9,141.6z"/>
		
			<linearGradient id="SVGID_6_" gradientUnits="userSpaceOnUse" x1="-1064.0024" y1="-2561.636" x2="-1027.3033" y2="-2543.1206" gradientTransform="matrix(1 0 0 1 1194 2687.1475)">
			<stop  offset="0" style="stop-color:#5C5658"/>
			<stop  offset="0.27" style="stop-color:#575153"/>
			<stop  offset="0.58" style="stop-color:#484345"/>
			<stop  offset="0.92" style="stop-color:#312C2E"/>
			<stop  offset="1" style="stop-color:#2B2729"/>
		</linearGradient>
		<path class="st14" d="M143.6,135.4c-0.9-0.1-1.2-1.3-0.4-1.8c2.2-1.4,5.7-2.9,8.5-1.5c4.5,2.4,5.3,11.4,5.3,11.4
			C152.9,139.6,148.7,136.1,143.6,135.4L143.6,135.4z"/>
		<path class="st15" d="M115.1,149.8l-2.2,0.4c-1.9,0.3-3.2,2-3.1,3.9c0.1,2.1,2,3.7,4.1,3.5l5.3-0.5L115.1,149.8L115.1,149.8z"/>
		<path class="st16" d="M133.2,146.6c0,0-1.9-2.3-4.5-2.1c-1.2,0.1-2,0.5-2.6,0.9c-0.7,0.5-1.6,0.1-2.4,0.1c-0.7,0-1.6,0.1-2.5,0.6
			c-0.5,0.4-1.2,1.1-1.8,1c-0.9-0.3-1.4-0.6-2.2-0.1l-0.9,0.6c-0.3,0.4-0.8,0.6-1.3,0.7c-0.4,0.1-0.8,0.4-1.3,1.3
			c-0.9,1.9-1.4,7.8,1.6,10.2c0,0,0.7,0.5,1.9,0.1c0.4-0.1,0.9-0.2,1.3,0c0.5,0.1,1.3,0.3,2.4,0.2c0.6-0.1,1-0.2,1.3-0.3
			c0.5-0.2,1-0.1,1.4,0.1c0.4,0.2,1.1,0.3,2.1,0.4c1.3,0,2.2-0.3,2.7-0.6c0.5-0.3,1.1-0.4,1.7-0.3c0.3,0,0.6,0.1,1.1,0.1
			c3,0.1,4.5-2.5,4.5-2.5S130.6,153.7,133.2,146.6L133.2,146.6z"/>
		<path class="st15" d="M139,145.1l-3.3,0.5c-2.9,0.5-4.9,3.1-4.8,6c0.2,3.2,3,5.6,6.2,5.3l8.1-0.7L139,145.1z"/>
		<path class="st15" d="M136.5,151.7l-3.7,0.3l-1,1c-1.3,1.3-3,2.1-4.8,2.2l-11.3,0.8c-0.2,0-0.4,0.1-0.4,0.3
			c-0.2,0.4,0,0.8,0.4,0.9l9.4,0.9c3.8,0.4,7.5-1.2,9.8-4.2L136.5,151.7L136.5,151.7z"/>
		<path class="st17" d="M136.1,150.6l-3.7,0.3l-1,1c-1.3,1.3-3,2.1-4.8,2.2l-11.2,0.8c-0.2,0-0.4,0.1-0.4,0.3
			c-0.2,0.4,0,0.8,0.4,0.9l9.4,0.9c3.8,0.4,7.5-1.2,9.8-4.2L136.1,150.6L136.1,150.6z"/>
		<path class="st17" d="M115.5,158.2c0.9,0,1.6-0.7,1.6-1.6c0-0.9-0.7-1.6-1.6-1.6c-0.9,0-1.6,0.7-1.6,1.6
			C113.9,157.5,114.6,158.2,115.5,158.2z"/>
		<path class="st15" d="M235,149.8l2.2,0.4c1.9,0.3,3.2,2,3.1,3.9c-0.1,2.1-2,3.7-4.1,3.5l-5.3-0.5L235,149.8L235,149.8z"/>
		<path class="st16" d="M217,146.6c0,0,1.9-2.3,4.5-2.1c1.2,0.1,2,0.5,2.6,0.9c0.7,0.5,1.6,0.1,2.4,0.1c0.7,0,1.6,0.1,2.5,0.6
			c0.5,0.4,1.2,1.1,1.8,1c0.9-0.3,1.4-0.6,2.2-0.1l0.9,0.6c0.3,0.4,0.8,0.6,1.3,0.7c0.4,0.1,0.8,0.4,1.3,1.3
			c0.9,1.9,1.4,7.8-1.6,10.2c0,0-0.7,0.5-1.9,0.1c-0.4-0.1-0.9-0.2-1.3,0c-0.5,0.1-1.3,0.3-2.4,0.2c-0.6-0.1-1-0.2-1.3-0.3
			c-0.5-0.2-1-0.1-1.4,0.1c-0.4,0.2-1.1,0.3-2.1,0.4c-1.3,0-2.2-0.3-2.7-0.6c-0.5-0.3-1.1-0.4-1.7-0.3c-0.3,0-0.6,0.1-1.1,0.1
			c-3,0.1-4.5-2.5-4.5-2.5S219.6,153.7,217,146.6L217,146.6z"/>
		<path class="st15" d="M211.2,145.1l3.3,0.5c2.9,0.5,4.9,3.1,4.8,6c-0.2,3.2-3,5.6-6.2,5.3l-8.1-0.7L211.2,145.1z"/>
		<path class="st15" d="M213.6,151.7l3.7,0.3l1,1c1.3,1.3,3,2.1,4.8,2.2l11.3,0.8c0.2,0,0.4,0.1,0.4,0.3c0.2,0.4,0,0.8-0.4,0.9
			l-9.4,0.9c-3.8,0.4-7.5-1.2-9.8-4.2L213.6,151.7L213.6,151.7z"/>
		<path class="st17" d="M214,150.6l3.7,0.3l1,1c1.3,1.3,3,2.1,4.8,2.2l11.3,0.8c0.2,0,0.4,0.1,0.4,0.3c0.2,0.4,0,0.8-0.4,0.9
			l-9.4,0.9c-3.8,0.4-7.5-1.2-9.8-4.2L214,150.6L214,150.6z"/>
		<path class="st17" d="M234.6,158.2c0.9,0,1.6-0.7,1.6-1.6c0-0.9-0.7-1.6-1.6-1.6s-1.6,0.7-1.6,1.6
			C233,157.5,233.7,158.2,234.6,158.2z"/>
		<path class="st18" d="M154.1,156.9c0,0-25.3,16.4-30.7,28.6c-5.4,12.2,17.6,50.6,17.6,50.6l1.4,8.3h67.7l2.9-10
			c0,0,13.8-25,14.6-43.8c0.8-18.8-36.5-36.3-36.5-36.3L154.1,156.9L154.1,156.9z"/>
		
			<linearGradient id="SVGID_7_" gradientUnits="userSpaceOnUse" x1="-983.9988" y1="-2495.6628" x2="-984.4799" y2="-2440.1086" gradientTransform="matrix(1 0 0 1 1194 2687.1475)">
			<stop  offset="0" style="stop-color:#6983B7"/>
			<stop  offset="0.57" style="stop-color:#7994C5"/>
			<stop  offset="1" style="stop-color:#89A4D2"/>
		</linearGradient>
		<path class="st19" d="M204.4,217.5l11.6-6.3c1.9-1,4.1,0.7,3.6,2.8c-1.9,7.3-6.2,19.8-14.5,23.2
			C193.2,242,204.5,217.5,204.4,217.5L204.4,217.5z"/>
		
			<linearGradient id="SVGID_8_" gradientUnits="userSpaceOnUse" x1="-1017.3799" y1="-2546.064" x2="-1017.7014" y2="-2508.4314" gradientTransform="matrix(1 0 0 1 1194 2687.1475)">
			<stop  offset="0" style="stop-color:#6983B7"/>
			<stop  offset="0.57" style="stop-color:#7994C5"/>
			<stop  offset="1" style="stop-color:#89A4D2"/>
		</linearGradient>
		<path class="st20" d="M160.3,154c0,0-15.1,5.4-16.9,15.3c-1.1,6.2,65.8,0.9,65.8,0.9s-7.9-12.4-14.6-13.9
			C188,155,160.3,154,160.3,154L160.3,154z"/>
		
			<linearGradient id="SVGID_9_" gradientUnits="userSpaceOnUse" x1="-1057.0272" y1="-2503.1243" x2="-1057.4399" y2="-2455.5762" gradientTransform="matrix(1 0 0 1 1194 2687.1475)">
			<stop  offset="0" style="stop-color:#6983B7"/>
			<stop  offset="0.57" style="stop-color:#7994C5"/>
			<stop  offset="1" style="stop-color:#89A4D2"/>
		</linearGradient>
		<path class="st21" d="M126.7,203.1c1.7,5.5,6.2,14.7,18.2,20.7l2.1-12.9l-17.3-10.1C128.1,199.8,126.2,201.3,126.7,203.1
			L126.7,203.1z"/>
		<path class="st22" d="M215.2,183.3l-5,63.5c-0.5,5.7-4.3,10.6-9.6,12.4l-21.7,7.1c-2.8,0.9-5.8,0.9-8.6,0l-21.7-7.1
			c-5.4-1.8-9.2-6.7-9.6-12.4l-5-63.5c-0.6-6.9,3.9-13.3,10.5-15l12.2-3.1c0.8-0.2,1.5-0.6,2.1-1.1s1.2-1.2,1.5-1.9
			c0.8-1.6,2.2-2.7,3.9-3.1l10.4-2.2l10.4,2.2c0.8,0.2,1.6,0.5,2.3,1.1c0.7,0.5,1.2,1.2,1.6,2c0.8,1.5,2.1,2.6,3.7,3l12.2,3.1
			C211.2,170,215.7,176.3,215.2,183.3L215.2,183.3z"/>
		
			<linearGradient id="SVGID_10_" gradientUnits="userSpaceOnUse" x1="-1019.1387" y1="-2492.0747" x2="-1019.6926" y2="-2531.4307" gradientTransform="matrix(1 0 0 1 1194 2687.1475)">
			<stop  offset="0" style="stop-color:#EA6B75"/>
			<stop  offset="0.31" style="stop-color:#E46670"/>
			<stop  offset="0.73" style="stop-color:#D35965"/>
			<stop  offset="1" style="stop-color:#C54D5B"/>
		</linearGradient>
		<path class="st23" d="M199.7,172.5l-12.6,31c-0.6,1.5-2.1,2.5-3.7,2.5h-17.9c-1.6,0-3.1-1-3.7-2.5l-12.6-31
			c-1-2.6,0.5-5.6,3.2-6.3l4-1c0.7-0.2,1.4-0.5,2-1c0.1,0,0.1-0.1,0.2-0.1c0.6-0.5,1.2-1.2,1.5-1.9c0.8-1.6,2.2-2.7,3.9-3.1
			l10.4-2.2l10.4,2.2c0.8,0.2,1.6,0.6,2.3,1.1c0.7,0.5,1.2,1.2,1.6,2c0.3,0.6,0.7,1.2,1.2,1.6c0.7,0.7,1.5,1.2,2.5,1.4l4,1
			C199.2,166.9,200.7,169.9,199.7,172.5L199.7,172.5z"/>
		
			<linearGradient id="SVGID_11_" gradientUnits="userSpaceOnUse" x1="-1019.1586" y1="-2486.2288" x2="-1019.5347" y2="-2524.1292" gradientTransform="matrix(1 0 0 1 1194 2687.1475)">
			<stop  offset="0" style="stop-color:#EA6B75"/>
			<stop  offset="0.31" style="stop-color:#E46670"/>
			<stop  offset="0.73" style="stop-color:#D35965"/>
			<stop  offset="1" style="stop-color:#C54D5B"/>
		</linearGradient>
		<path class="st24" d="M188.3,165.5l-10.6,10.6c-2,2-5.3,2-7.3,0l-9.6-9.6c-1.1-1.1-1.4-2.9-0.6-4.3c0,0,0,0,0,0
			c0.8-1.6,2.2-2.7,3.9-3.1l10.4-2.2l10.4,2.2c0.8,0.2,1.6,0.6,2.3,1.1c0.7,0.5,1.2,1.2,1.6,2l0,0
			C189.3,163.3,189.2,164.6,188.3,165.5z"/>
		<path class="st7" d="M191.1,86.7c-0.6,0.6-1.4,0.9-2.2,0.9c-0.4,0-0.7-0.1-1.1-0.2l-1.2-0.5c-0.6-0.3-1-0.9-0.9-1.6l2.2-14
			c0.6-3.6-1-7.3-3.9-9.4l-2.8-2.1c-3.5-2.6-8.3-2.6-11.9,0l-2.8,2.1c-3,2.1-4.5,5.8-3.9,9.4l2.2,14c0.1,0.7-0.3,1.3-0.9,1.6
			l-1.2,0.5c-0.4,0.2-0.9,0.2-1.3,0.2c-0.7,0-1.4-0.3-2-0.9c-4.3-4.1-15.4-17.6-5.2-39.9c0,0,6.6-12.5,20.4-13.4c0.3,0,1.5,0,1.9,0
			c13.6,1,20.1,13.4,20.1,13.4C206.5,69.1,195.4,82.6,191.1,86.7L191.1,86.7z"/>
		<path class="st25" d="M196.5,61.2c0,4.7-1,14.3-7.6,26.4c-0.4,0-0.7-0.1-1.1-0.2l-1.2-0.5c-0.6-0.3-1-0.9-0.9-1.6l2.2-14
			c0.6-3.6-1-7.3-3.9-9.4l-2.8-2.1c-3.5-2.6-8.3-2.6-11.9,0l-2.8,2.1c-3,2.1-4.5,5.8-3.9,9.4l2.2,14c0.1,0.7-0.3,1.3-0.9,1.6
			l-1.2,0.5c-0.4,0.2-0.9,0.2-1.3,0.2c-6.7-12.1-7.6-21.6-7.6-26.4c0-2.3,1-4.5,2.7-6.1c3.5-3.2,9.1-6.3,16-7.2
			c0.9-0.1,4.7-0.1,5.6,0c6.9,0.9,12.6,4,16.1,7.2C195.5,56.7,196.5,58.9,196.5,61.2L196.5,61.2z"/>
		<path class="st15" d="M190,85.9l-0.4-0.8l-13.2,4.4L163.2,85l-0.4,0.8c-0.3,0.8,0,1.7,0.8,2.1c2.4,1.3,7.5,3.6,12.7,4v0
			c0,0,0.1,0,0.1,0c0,0,0.1,0,0.1,0v0c5.2-0.3,10.3-2.7,12.7-4C190,87.6,190.3,86.6,190,85.9z"/>
		<path class="st15" d="M183.1,87.4l-6.7,1l-6.7-1c0,0,0,4.3,5,6c0.1,0,0.2,0.1,0.4,0.1c0.9,0.3,1.9,0.3,2.9,0h0
			C183.2,91.9,183.1,87.4,183.1,87.4z"/>
		<path class="st16" d="M158.4,62.1l4,21.9c0.3,1.6,1.4,2.9,3,3.4l9.8,3.2c1,0.3,2.1,0.3,3.1-0.1l8.2-3.4c1.5-0.6,2.5-2,2.7-3.6
			l2.4-22.5c0.2-2.1-1-4-3.1-4.7c-5.6-1.8-17.1-4.2-27.7,1C159,58.2,158,60.2,158.4,62.1L158.4,62.1z"/>
		<path class="st26" d="M184.2,59.7l-1.1-0.4c-1-0.4-2-0.4-3-0.2l-1.4,0.3c-0.4,0.1-0.7-0.2-0.6-0.6l0.2-0.8c0-0.2,0.1-0.3,0.3-0.4
			c0.8-0.4,3.5-1.2,6.2,1.2C185.2,59.2,184.8,59.9,184.2,59.7L184.2,59.7z"/>
		<path class="st26" d="M167.3,67.9c0.5,0,1-0.7,1-1.6c0-0.9-0.4-1.6-1-1.6c-0.5,0-1,0.7-1,1.6C166.4,67.1,166.8,67.9,167.3,67.9z"
			/>
		<path class="st26" d="M182,67.9c0.5,0,1-0.7,1-1.6c0-0.9-0.4-1.6-1-1.6c-0.5,0-1,0.7-1,1.6C181.1,67.1,181.5,67.9,182,67.9z"/>
		
			<linearGradient id="SVGID_12_" gradientUnits="userSpaceOnUse" x1="-1026.4445" y1="-2617.3801" x2="-1016.3571" y2="-2611.189" gradientTransform="matrix(1 0 0 1 1194 2687.1475)">
			<stop  offset="0.17" style="stop-color:#F8DBC1"/>
			<stop  offset="0.27" style="stop-color:#F3D5BB"/>
			<stop  offset="0.4" style="stop-color:#E5C6AA"/>
			<stop  offset="0.55" style="stop-color:#CDAC8F"/>
			<stop  offset="0.72" style="stop-color:#AD8969"/>
			<stop  offset="0.89" style="stop-color:#845C39"/>
			<stop  offset="1" style="stop-color:#683D18"/>
		</linearGradient>
		<path class="st27" d="M172.1,70.6c0.3-0.3,0.7,0,0.6,0.4c-0.2,0.8-0.4,1.6,0,1.9c0.5,0.4,1,1,1.9,1.3c0.3,0.1,0.3,0.5,0,0.6
			c-0.6,0.2-1.4,0.4-2.2,0.1c-1.6-0.6-2-1.8-1.5-3C171.1,71.6,171.6,71.1,172.1,70.6L172.1,70.6z"/>
		<path class="st26" d="M178.1,72.8l-1.1,0.9c-0.1,0.1-0.1,0.3,0.1,0.4c0.6,0.2,1.6,0.2,1.4-1.1C178.4,72.8,178.2,72.7,178.1,72.8
			L178.1,72.8z"/>
		<path class="st26" d="M173.5,81.1c-0.5-0.1-0.4-0.9,0.1-0.9c0.7,0.1,1.5,0.1,2.4,0.1c2.6-0.1,4.4-1.2,5.3-1.9
			c0.4-0.3,0.9-0.2,1.1,0.2s0.1,0.9-0.3,1C180.6,80.4,177.1,81.8,173.5,81.1z"/>
		
			<linearGradient id="SVGID_13_" gradientUnits="userSpaceOnUse" x1="-1020.1088" y1="-2618.9248" x2="-1031.2986" y2="-2636.8818" gradientTransform="matrix(1 0 0 1 1194 2687.1475)">
			<stop  offset="8.000000e-02" style="stop-color:#F8DBC1"/>
			<stop  offset="0.19" style="stop-color:#F3D5BB"/>
			<stop  offset="0.34" style="stop-color:#E5C6AA"/>
			<stop  offset="0.5" style="stop-color:#CDAC8F"/>
			<stop  offset="0.69" style="stop-color:#AD8969"/>
			<stop  offset="0.88" style="stop-color:#845C39"/>
			<stop  offset="1" style="stop-color:#683D18"/>
		</linearGradient>
		<path class="st28" d="M167,59.7c0.4,1.2,1.3,3.6,3.5,5.2c0.6,0.5,1.5-0.1,1.3-0.9l-1.2-4.4c-0.1-0.2-0.3-0.4-0.5-0.4l-2.5-0.2
			C167.1,58.9,166.8,59.3,167,59.7L167,59.7z"/>
		<path class="st26" d="M163.4,60.4c-0.3,0.3,0,0.7,0.4,0.6l1.9-0.7c0.9-0.3,1.8-0.4,2.8-0.1l1.4,0.4c0.4,0.1,0.9-0.3,0.7-0.8
			l-0.1-0.2c-0.1-0.5-0.5-0.9-1-1C168.3,58.1,165.8,57.8,163.4,60.4L163.4,60.4z"/>
		<path class="st29" d="M209.5,143.8l-0.5-0.1c-2.3-0.3-4.4-1-6.4-2.2l0,0c-6.3-3.9-13.1-6.8-21.1-7.9c-0.8-0.1-2.1-0.2-3.2-0.3
			c-2.1-0.1-4.3-0.1-6.4,0c-1.4,0.1-3,0.2-4,0.4c-7.7,1.1-14.2,4-20.4,7.8l0,0c-1.9,1.2-4.1,2-6.4,2.2l-0.5,0.1
			c-1.8,0.2-3.2,1.7-3.2,3.5c0,5.7,4.6,10.4,10.4,10.4h6.9c0.6,0,1.2,0.1,1.8,0.4h0c6.1,2.6,12.3,4,18.5,4.4h0
			c6.2-0.5,12.4-1.9,18.5-4.4h0c0.6-0.2,1.2-0.4,1.8-0.4h6.9c5.7,0,10.4-4.7,10.4-10.4C212.7,145.6,211.3,144,209.5,143.8
			L209.5,143.8z"/>
		<path class="st30" d="M195.6,147.8c1-2-0.1-4.3-2.5-4.9c-3.4-0.9-9.1-1.9-18-1.8c-8.7,0-14.5,1-17.9,1.8c-2.4,0.6-3.7,2.9-2.6,4.9
			c3.4,6.3,9.8,10.1,18.5,12.1h0c1.3,0.3,2.6,0.3,3.9,0c0,0,0.1,0,0.1,0C185.8,158,192.2,154.1,195.6,147.8L195.6,147.8z"/>
		
			<linearGradient id="SVGID_14_" gradientUnits="userSpaceOnUse" x1="-1020.3708" y1="-2435.5095" x2="-1018.4297" y2="-2503.0605" gradientTransform="matrix(1 0 0 1 1194 2687.1475)">
			<stop  offset="0" style="stop-color:#58595B"/>
			<stop  offset="0.24" style="stop-color:#525355"/>
			<stop  offset="0.54" style="stop-color:#444344"/>
			<stop  offset="0.89" style="stop-color:#2B2829"/>
			<stop  offset="1" style="stop-color:#231F20"/>
		</linearGradient>
		<path class="st31" d="M196.6,222.3l-3.8,35.4c-0.3,2.6-2,4.8-4.5,5.6l-3.7,1.2l-5.8,1.9c-2.8,0.9-5.8,0.9-8.6,0l-5.8-1.9l-3.8-1.3
			c-2.4-0.8-4.1-2.9-4.4-5.4l-3.8-35.4c-0.1-0.6-0.1-1.2-0.1-1.7c0-4.2,1.6-8.1,4.3-10.9c1.7-1.7,3.8-3.1,6.2-3.7
			c0.5-0.1,1-0.3,1.5-0.4c6.7-1.6,13.5-1.6,20.2,0c0.5,0.1,1,0.3,1.5,0.4c2.4,0.6,4.6,2,6.2,3.7
			C195.5,212.8,197.1,217.4,196.6,222.3L196.6,222.3z"/>
		<path class="st15" d="M175.3,221.4h-1.5c-7.9,0-14.4,6.4-14.4,14.4v48.8c0,7.9,6.4,14.4,14.4,14.4h1.5c7.9,0,14.4-6.4,14.4-14.4
			v-48.8C189.7,227.9,183.2,221.4,175.3,221.4z"/>
		<path class="st29" d="M182.2,209.3c-5-1.5-10.4-1.5-15.4,0c-5.8,1.7-10,6.6-10.7,12.6l-0.7,5.3c-0.4,3.2,0.7,6.5,3,8.8l7.4,7.4
			c2.3,2.3,5.4,3.6,8.7,3.6c3.3,0,6.4-1.3,8.7-3.6l7.4-7.4c2.3-2.3,3.4-5.6,3-8.8l-0.7-5.3C192.2,215.9,188,211,182.2,209.3z"/>
		<path class="st15" d="M127.3,125.3l4.9,4.9c0.9,0.9,1.1,2.3,0.6,3.4c-0.5,1.1-1.6,1.8-2.8,1.7l-15.4-0.4c-2-0.1-3.4-2-2.8-3.9
			l1-3.4c0.4-1.2,1.4-2,2.6-2.1l9.5-1.1C125.8,124.3,126.7,124.6,127.3,125.3L127.3,125.3z"/>
		<path class="st32" d="M142,147.5c-0.6,0-1.1-0.4-1.3-0.9l-1.6-4.9c-0.7-2.1-2.1-3.9-4.1-5l-4.7-2.7c-0.6-0.4-0.9-1.2-0.5-1.8
			c0.4-0.6,1.2-0.9,1.8-0.5l4.7,2.7c2.5,1.4,4.4,3.7,5.3,6.5l1.6,4.9c0.2,0.7-0.2,1.5-0.9,1.7C142.3,147.4,142.1,147.5,142,147.5z"
			/>
		<path class="st15" d="M222.8,125.3l-4.9,4.9c-0.9,0.9-1.1,2.3-0.6,3.4c0.5,1.1,1.6,1.8,2.8,1.7l15.4-0.4c2-0.1,3.4-2,2.8-3.9
			l-1-3.4c-0.4-1.2-1.4-2-2.6-2.1l-9.5-1.1C224.4,124.3,223.5,124.6,222.8,125.3L222.8,125.3z"/>
		<path class="st32" d="M208.1,147.5c0.6,0,1.1-0.4,1.3-0.9l1.6-4.9c0.7-2.1,2.1-3.9,4.1-5l4.7-2.7c0.6-0.4,0.9-1.2,0.5-1.8
			c-0.4-0.6-1.2-0.9-1.8-0.5l-4.7,2.7c-2.5,1.4-4.4,3.7-5.3,6.5l-1.6,4.9c-0.2,0.7,0.2,1.5,0.9,1.7
			C207.9,147.4,208,147.5,208.1,147.5z"/>
		<path class="st33" d="M-0.3,261.1c0.1-17.5,0.1-42,0.1-52.7c0-3.6,2.5-6.6,5.9-7.4c6.3-1.4,15.4-0.9,15.8,12.7
			c0,0.9,0.6,1.6,1.5,1.8c0.8,0.2,1.9,0.6,2.1,1.7c0.1,0.5,0.2,1,0.3,1.4c0.2,1,1.1,1.7,2.1,1.6c2.1-0.3,5.3-0.4,6.9,1.2
			c0.3,0.3,0.6,0.6,0.8,0.9c0.9,1,2.5,0.7,3.1-0.5c1.2-2.7,3.7-6.2,8.5-5.6c5.5,0.7,9.2,6.3,10.7,9.3c0.5,0.9,1.6,1.3,2.5,0.8
			c1.6-0.8,4-1.6,6-0.4c3.2,1.9,6.5-2.9,10.4-4.3c3-1.1,7.3,2.5,9.3,4.4c0.6,0.5,1.4,0.6,2.1,0.3c1.1-0.5,2.8-1.1,5-0.6
			c1.6,0.4,2.7,1.4,3.4,2.3c1.2,1.5,2.9,2.5,4.8,2.9l5.1,1c0.6,0.1,0.6,1.1,0,1.2C67.4,238,31.4,247.7-0.3,261.1L-0.3,261.1z"/>
		<path class="st33" d="M341.6,213.2v47.9c-30.2-12.7-64.2-22.1-100.8-27.5c-1.3-0.2-1.2-2,0.1-2.1l5.7-0.3c0.3,0,0.6-0.1,0.9-0.3
			c0.9-0.7,3.2-2.2,5.1-1c0.5,0.3,1.2,0.4,1.7,0c1.1-0.7,3-1.6,5.3-0.7c0.9,0.3,1.8-0.2,2-1.1c0.4-1.7,1.4-3.8,4.3-3.9
			c3.6-0.2,6,4.1,7,6.2c0.3,0.6,1,1,1.7,0.9l4.4-0.6c0.9-0.1,1.6-1.1,1.3-2c-0.5-1.9-0.5-5,3.3-8c6-4.5,8,2.5,8,5.6
			c0,3.1,0.9,8.5,6.7,5.3c3.2-1.7,5.2-1.5,6.4-1c0.8,0.4,1.7,0,2.1-0.8c0.8-1.5,2.3-3.5,5.4-4c0.9-0.1,1.5-1,1.3-1.9
			c-0.5-2-0.8-5.2,1.4-6.5c0.3-0.2,0.5-0.4,0.7-0.7c1.3-2.7,8.2-14.9,25.2-4.8C341.3,212.1,341.6,212.6,341.6,213.2L341.6,213.2z"/>
	</g>
</g>
</svg>
