<?xml version="1.0" encoding="utf-8"?>
<!-- Generator: Adobe Illustrator 24.3.0, SVG Export Plug-In . SVG Version: 6.00 Build 0)  -->
<svg version="1.1" id="Layer_1" xmlns="http://www.w3.org/2000/svg" xmlns:xlink="http://www.w3.org/1999/xlink" x="0px" y="0px"
	 viewBox="0 0 332.8 299" style="enable-background:new 0 0 332.8 299;" xml:space="preserve">
<style type="text/css">
	.st0{fill:#161C1C;}
	.st1{fill:#C5CDE3;}
	.st2{fill:#FFFFFF;}
	.st3{fill:#FFCFC5;}
	.st4{fill:#014EB1;}
	.st5{fill:#FF4148;}
	.st6{fill:#FFD24F;}
	.st7{fill:#FFB902;}
	.st8{fill:#FC9B88;}
	.st9{fill:#F23243;}
	.st10{fill:#04B5A4;}
	.st11{fill:#00887D;}
	.st12{fill:#242B2B;}
	.st13{fill:#FFB29F;}
</style>
<path class="st0" d="M36.1,0.3l36.1,1.4L61.8,256.5l-36.1-1.4c-14.6-0.6-25.9-12.8-25.4-27.4L8.7,25.6C9.2,11.1,21.5-0.3,36.1,0.3z"
	/>
<path d="M62.1,256.8l-0.3,0l-36.1-1.4C11,254.8-0.5,242.4,0,227.7l8.3-202C8.9,11.3,20.8,0,35,0c0.3,0,0.7,0,1,0l36.4,1.4l0,0.3
	L62.1,256.8z M35,0.6c-13.9,0-25.5,11-26,25.1l-8.3,202c-0.6,14.4,10.7,26.5,25,27.1l35.7,1.4L71.8,2L36,0.6
	C35.7,0.6,35.4,0.6,35,0.6z"/>
<path class="st1" d="M167.9,31.8l-8.3,202c-0.6,14.6-12.8,25.9-27.4,25.4l-54.7-2.1l-33.8-1.3l-11.5-0.4
	c-14.6-0.6-25.9-12.8-25.4-27.4l8.3-202C15.7,11.3,28,0,42.6,0.5l100,3.9C157.1,5,168.5,17.2,167.9,31.8z"/>
<path d="M133.3,259.5c-0.4,0-0.7,0-1.1,0l-100-3.9c-7.1-0.3-13.7-3.3-18.6-8.5c-4.8-5.2-7.4-12-7.1-19.2l8.3-202
	c0.3-7.1,3.3-13.7,8.5-18.6s12-7.4,19.2-7.1l100,3.9c7.1,0.3,13.7,3.3,18.6,8.5c4.8,5.2,7.4,12,7.1,19.2l0,0l-8.3,202
	c-0.3,7.1-3.3,13.7-8.5,18.6C146.4,257,140,259.5,133.3,259.5z M41.5,0.8c-6.6,0-12.8,2.4-17.7,6.9c-5.1,4.7-8.1,11.2-8.3,18.1
	l-8.3,202c-0.3,7,2.2,13.6,6.9,18.7s11.2,8.1,18.1,8.3l100,3.9c7,0.3,13.6-2.2,18.7-6.9c5.1-4.7,8.1-11.2,8.3-18.1l8.3-202l0,0
	c0.3-7-2.2-13.6-6.9-18.7C156,7.9,149.5,5,142.6,4.7l-100-3.9C42.2,0.8,41.9,0.8,41.5,0.8z"/>
<path class="st2" d="M160.1,31.5l-8.3,202c-0.4,10-8.5,17.9-18.5,17.9c-0.2,0-0.5,0-0.7,0l-53.2-2.1l-35.4-1.4l-11.4-0.4
	c-10.2-0.4-18.2-9-17.8-19.3l8.3-202c0.4-10,8.5-17.9,18.5-17.9c0.2,0,0.5,0,0.7,0l100,3.8c5,0.2,9.5,2.3,12.9,5.9
	C158.5,21.8,160.3,26.5,160.1,31.5z"/>
<path d="M133.3,251.7c-0.2,0-0.5,0-0.8,0l-100-3.9c-5-0.2-9.7-2.3-13.1-6c-3.4-3.7-5.2-8.5-5-13.6l8.3-202C23.1,16,31.3,8,41.5,8
	c0.2,0,0.5,0,0.8,0l100,3.9c5,0.2,9.7,2.3,13.1,6s5.2,8.5,5,13.6l0,0l-8.3,202C151.7,243.7,143.4,251.7,133.3,251.7z M41.5,8.7
	c-9.8,0-17.8,7.7-18.2,17.6l-8.3,202c-0.2,4.9,1.5,9.5,4.9,13.1c3.3,3.6,7.8,5.7,12.7,5.8l100,3.9c0.2,0,0.5,0,0.7,0
	c9.8,0,17.8-7.7,18.2-17.6l8.3-202l0,0c0.2-4.9-1.5-9.5-4.8-13.1s-7.8-5.6-12.7-5.8l-100-3.9C42,8.7,41.8,8.7,41.5,8.7z"/>
<path class="st0" d="M79,15.3l26.2,1c1,0,1.9-0.8,1.9-1.8v-0.2c0-1-0.8-1.9-1.8-1.9l-26.2-1c-1,0-1.9,0.8-1.9,1.8v0.2
	C77.2,14.4,77.9,15.2,79,15.3z"/>
<path d="M154.1,292.8l-17.8-9.6l-4.8-4.2l-19.4,2.9l0,15.2c-0.2,0.8,0.4,1.5,1.2,1.5h41.5c0.7,0,1.3-0.6,1.3-1.3v-1.5
	C156.1,294.5,155.3,293.3,154.1,292.8z"/>
<path class="st3" d="M131.5,278.9l-0.1-14.1l-19.5-2.5l0.2,19.5C120,285.2,127.1,284,131.5,278.9z"/>
<path class="st2" d="M137.3,289.1l-0.6-0.3c1.4-2.7,4-2.9,4.1-2.9l0.1,0.6C140.9,286.5,138.6,286.8,137.3,289.1z M141.2,291.3
	l-0.6-0.3c1.4-2.7,4-2.9,4.1-2.9l0.1,0.6C144.8,288.7,142.5,288.9,141.2,291.3z"/>
<path class="st4" d="M116.1,186.2l-8.6,79.7l28.1,1c0,0,0-0.2,0.1-0.7c0.2-1.5,0.6-5.4,1.2-10.8c2.3-20.7,7.2-66.1,7.4-70.7
	c0.2-6.2-13-66.5-13-66.5l-23.8-9.6l-8.5,21L116.1,186.2z"/>
<path d="M115.2,266.2l20.3,2.3c0.2-1.5,0.6-5.4,1.2-10.8C131.6,263.2,124,265.4,115.2,266.2z"/>
<path class="st4" d="M107.7,270.8c8.7,2.3,17.9,2.8,27.8,1.1c1.8,0.1,3.4-1.3,3.5-3.2c0.1-1.8-1.3-3.4-3.2-3.5
	c-8.4,1.6-17.8,0.8-27.8-1.1c-1.8-0.1-3.4,1.4-3.5,3.2c0,0.9,0.3,1.8,0.9,2.4C105.9,270.4,106.8,270.8,107.7,270.8z M106.9,202
	c-3.6,11.9-19.1,35.8-27.5,47.3l-35.4-1.4l34.7-56.8c0,0-0.8-67,3.1-70.6c7.5-6.7,30.4,2.7,30.4,2.7S112.5,183.1,106.9,202z"/>
<path class="st2" d="M111.3,171.2l-0.6,0c0.4-4.8,0.2-11.6,0-18.1c-0.1-5.4-0.3-10.5,0-13.8l0.6,0c-0.2,3.3-0.1,8.4,0,13.7
	C111.6,159.5,111.7,166.4,111.3,171.2z"/>
<path class="st3" d="M202.6,94.9l-41.3-4.3l-21.4-18.3l-12.9,12.2c0,0,20.2,21.9,29.3,25.2c9.2,3.3,32.7,1.4,46.4-0.1L202.6,94.9
	L202.6,94.9z"/>
<path class="st5" d="M138.2,90.8c-2.1,2.7-3.9,4.5-4.5,4l-5.5-4.8l-12.4-10.7l1-23.8c0,0,13.4,1.8,17.9,6.7S147,74,147,74
	C148.4,75,142.6,85,138.2,90.8z"/>
<path d="M138.2,90.8c-2.1,2.7-3.9,4.5-4.5,4l-5.5-4.8c0.7-8,1.7-18.4,1.7-18.4S132.8,85.1,138.2,90.8z"/>
<path class="st5" d="M136.9,134.7c-3.6,3.5-58.2,5.5-60.9-1.7c-2.5-6.6,2.5-9.3,2.5-9.3c-0.1-1.2-0.2-2.6-0.3-4.1
	c0-0.7-0.1-1.5-0.1-2.3l0,0c-0.1-2.4-0.3-5.1-0.4-7.8c-0.1-3-0.3-6.1-0.4-9.3c-0.1-2.8-0.2-5.6-0.2-8.4c-0.2-14.6,0.6-28.3,4.2-31.2
	c10.5-8.6,44.1-6.5,48.5-1c6.5,8.1,5.7,27.4,5.1,44.3c-0.1,3-0.2,5.9-0.2,8.6c0,2.6,0,5,0.1,7.3
	C134.8,121.1,141.2,130.5,136.9,134.7z"/>
<path d="M134.9,104.1c-0.1,3-0.2,5.9-0.2,8.6c-8.2-0.5-19.6-1.2-19.6-1.2S97.6,93.7,97.3,93c-0.4-0.8-4.2-25.7-4.2-25.7l24.4,34.7
	L134.9,104.1z M97.9,123.6c0,0-14.2,1.6-19.4,0.2c-0.1-1.2-0.2-2.6-0.3-4.1c0-0.7-0.1-1.5-0.1-2.3C78.4,117.7,89.5,123.6,97.9,123.6
	z"/>
<rect x="138.7" y="90.2" class="st6" width="53" height="54.6"/>
<path d="M191.7,145.1h-53c-0.2,0-0.3-0.1-0.3-0.3V90.2c0-0.2,0.1-0.3,0.3-0.3h53c0.2,0,0.3,0.1,0.3,0.3v54.6
	C192,145,191.9,145.1,191.7,145.1z M139,144.5h52.3v-54H139V144.5z"/>
<rect x="191.7" y="90.2" class="st7" width="19.8" height="54.6"/>
<path d="M211.5,145.1h-19.8c-0.2,0-0.3-0.1-0.3-0.3V90.2c0-0.2,0.1-0.3,0.3-0.3h19.8c0.2,0,0.3,0.1,0.3,0.3v54.6
	C211.8,145,211.6,145.1,211.5,145.1z M192,144.5h19.1v-54H192V144.5z"/>
<path d="M194.7,136.8c0,0-0.1,0-0.1,0c-0.2-0.1-0.2-0.2-0.2-0.4l13.7-37.9c0.1-0.2,0.2-0.2,0.4-0.2c0.2,0.1,0.2,0.2,0.2,0.4
	L195,136.6C195,136.7,194.8,136.8,194.7,136.8z"/>
<path d="M208.5,136.8c-0.1,0-0.2-0.1-0.3-0.2l-13.7-37.9c-0.1-0.2,0-0.3,0.2-0.4c0.2-0.1,0.3,0,0.4,0.2l13.7,37.9
	c0.1,0.2,0,0.3-0.2,0.4C208.5,136.8,208.5,136.8,208.5,136.8z"/>
<rect x="160.1" y="90.2" class="st2" width="10.2" height="9.1"/>
<path d="M170.3,99.7h-10.2c-0.2,0-0.3-0.1-0.3-0.3v-9.1c0-0.2,0.1-0.3,0.3-0.3h10.2c0.2,0,0.3,0.1,0.3,0.3v9.1
	C170.6,99.5,170.5,99.7,170.3,99.7z M160.4,99h9.6v-8.5h-9.6V99L160.4,99z"/>
<rect x="199.4" y="90.2" class="st2" width="4.4" height="9.1"/>
<path d="M203.8,99.7h-4.4c-0.2,0-0.3-0.1-0.3-0.3v-9.1c0-0.2,0.1-0.3,0.3-0.3h4.4c0.2,0,0.3,0.1,0.3,0.3v9.1
	C204.1,99.5,204,99.7,203.8,99.7z M199.7,99h3.8v-8.5h-3.8V99z"/>
<path class="st2" d="M157.6,135.7v3c0,0.3,0.2,0.6,0.6,0.6h0.6c0.3,0,0.6,0.2,0.6,0.6s-0.2,0.6-0.6,0.6h-3.5c-0.3,0-0.6-0.2-0.6-0.6
	c0-0.3,0.2-0.6,0.6-0.6h0.6c0.3,0,0.6-0.2,0.6-0.6v-3c-2-0.4-3.6-2.7-3.6-5.4c0-0.6,0.1-1.2,0.2-1.8h8c0.1,0.6,0.2,1.1,0.2,1.8
	C161.2,133,159.6,135.3,157.6,135.7z M150.9,134.5h-1c-0.3,0-0.6,0.3-0.6,0.6v4.5c0,0.3-0.3,0.6-0.6,0.6h-2.1
	c-0.3,0-0.6-0.3-0.6-0.6v-4.5c0-0.3-0.3-0.6-0.6-0.6h-1c-0.5,0-0.7-0.6-0.4-0.9l3.1-3.8c0.2-0.3,0.6-0.3,0.9,0l3.1,3.8
	C151.6,133.9,151.3,134.5,150.9,134.5z"/>
<path class="st3" d="M158.2,122.5c0,0-36.9,1.8-51.4-1.2c-9.5-2-22.7-21.5-22.7-21.5l14.9-17.4c0,0,15.4,22.1,16.9,22.1
	c1.4,0,42.3,5.7,42.3,5.7V122.5L158.2,122.5z"/>
<path class="st5" d="M82.1,60.1c0,0-9.8,6.8-9.6,18.7c0.2,9.5,8.2,23.8,8.2,23.8c1.8,2.4,25.4-15.2,23.5-17.6c0,0-6.1-8.7-11.2-17.8
	C90.2,61.9,82.1,60.1,82.1,60.1z"/>
<path class="st3" d="M177.7,111.5c0.3,1.6-1.8,2.2-3.4,2.3c1.9,0.2,5.1,1.6,5,2.4c-0.2,2.2-4.7,1-6,0.7c1.3,0.3,4.9,2,4.6,2.7
	c-0.5,1.3-4.3,0.6-6,0.3c1.5,0.2,3.4,2.3,2.9,2.8c-1.6,1.8-17.5-0.2-17.7-0.6c-2.3-0.1-1.4-12.4,0.8-12.3c0,0,9.2-4.7,11.5-3.1
	c2.3,1.5-3.6,3.9-3.6,3.9S177.3,109.4,177.7,111.5z"/>
<path d="M121.6,19c0,0,1.1,8.2-4.2,9.4c-5.3,1.2-4.2-4-4.2-4l2.5-6.2h4.7"/>
<path class="st3" d="M96.2,50.9l3.1,6.5l9,0.9l4.9,1.1l-1.4-7.8l0.1-1.9l0.3-5.1l-15.1-9.8c0,0.7,0.1,1.3,0.1,2
	C97.6,44.6,96.2,50.9,96.2,50.9z"/>
<path class="st8" d="M97.1,34.8c0,0.7,0.1,1.3,0.1,2c0.1,0,0.2,0,0.3,0c0.2,0.4,0.3,0.9,0.4,1.4c2,6.9,8.7,11.4,14,11.5l0.3-5.1
	L97.1,34.8z"/>
<path class="st9" d="M96.2,50.9c1.5,3.7,7.4,5.7,12.1,7.4c0,0-1.4,8.4-2.8,8.3c-1.3,0-13.2-4.3-13.1-10.9
	C94.2,54.4,94.7,52.8,96.2,50.9z M108.2,58.3c0,0,2.7,6.3,4.5,6.9c2.1,0.6,3.8-5.3,3.5-8.5l-4.5-5.1
	C112.1,53.8,112.9,55.8,108.2,58.3z"/>
<path class="st3" d="M111.3,47.8C106,48,98.8,43.5,96.7,36.3c-0.1-0.5-0.2-1-0.4-1.4c-1.3-0.1-2.6-0.9-3.6-2.2
	c-1.6-2.1-1.6-4.7,0-5.8c0.9-0.7,2.1-0.7,3.2-0.2c0.9-7.5,5-13.2,10.4-13.6c3.6-0.2,7,1.9,9.4,5.6c0.3,0.4,0.6,0.9,0.8,1.4
	c1.5,2.7,2.5,6.1,2.7,9.8C120,39.5,117,47.5,111.3,47.8z"/>
<path d="M97.7,41.8l-0.2-0.4c0-1.8-0.5-3.6-0.7-5.1c-0.1-0.5-0.2-1-0.4-1.4c-1.3-0.1-2.6-0.9-3.6-2.2c-1.6-2.1-1.6-4.7,0-5.9
	c0.9-0.7,2.1-0.7,3.2-0.2c0,0,2.6,1.4,2.4,3.7l1.8,0.7l1-4.3c0,0,3-2,1.7-4.5c0,0,18,6.8,18.6-3c0.6-9.8-26.3-6.2-27.5-2.4
	c-1.4-0.4-3.2,0-4.2,0.9c-1.4,1.2-1.6,3.6-0.5,5.1C88.6,22,88.6,38.8,97.7,41.8z"/>
<path class="st5" d="M123.1,17.2c1.3,4.9-34,16.3-35.2,11.4C85.3,19,91,7.9,100.5,5.4C110.1,2.8,120.6,7.6,123.1,17.2z"/>
<path d="M91.1,30.1c-0.8,0-1.5-0.1-2-0.2c-0.8-0.2-1.3-0.6-1.5-1.2c-1.2-4.7-0.6-10,1.8-14.5c2.5-4.7,6.4-7.9,11.1-9.1
	c10.2-2.7,20.5,2.7,23,12l0,0c0.2,0.7-0.1,1.4-0.9,2.2C118,23.7,98.8,30.1,91.1,30.1z M105.7,5c-1.7,0-3.4,0.2-5.1,0.7
	C96.1,6.9,92.3,10,90,14.5c-2.3,4.4-3,9.5-1.8,14c0.1,0.3,0.4,0.6,1,0.8c5.4,1.5,28.1-5.7,32.8-10.4c0.4-0.4,0.9-1,0.8-1.6l0,0
	C120.8,9.9,113.7,5,105.7,5z"/>
<path class="st5" d="M123.1,17.2c0,0,11.6,1.4,7.6,4.8c-5.1,4.4-28.1,3.4-28.1,3.4"/>
<path d="M108.2,25.8c-3.1,0-5.4-0.1-5.7-0.1c-0.2,0-0.3-0.2-0.3-0.3c0-0.2,0.2-0.3,0.3-0.3c0.2,0,23,0.9,27.9-3.3
	c0.6-0.5,0.8-0.9,0.7-1.3c-0.5-1.6-6-2.6-8.1-2.9c-0.2,0-0.3-0.2-0.3-0.4c0-0.2,0.2-0.3,0.4-0.3c0.8,0.1,7.9,1,8.7,3.4
	c0.2,0.7-0.1,1.3-0.9,2C127.4,25.3,115.5,25.8,108.2,25.8z"/>
<path class="st3" d="M215.9,105.9c0.2,1.9-0.8,2.8-0.8,2.8s1.1,1.3,0.7,2.6c-0.5,1.3-1.2,1.1-1.2,1.1s1.1,1.1,0.7,2.2
	c-0.5,1-2,1.2-2,1.2s0.7,2.2-0.5,2.6c-1.2,0.4-5.6,1.6-4.9-1.5c-0.5,0.1-2.2-2-0.3-2.7c0,0-1.8-0.5-0.7-2.6c0,0-2.5-0.8-1.7-2.1
	c0.8-1.3,4,0,6.2-2.1c0.1-0.1,0.2-0.9,0.3-1.7c0.1-1,0-2,0-2S215.7,103.9,215.9,105.9z"/>
<path class="st8" d="M213.3,106.3c-0.4,0.7-1.9,1.1-1.9,1.1c0.1-0.1,0.2-0.9,0.3-1.7C211.7,105.6,213.3,106.2,213.3,106.3z
	 M207.5,114.2c2-0.2,4.1-0.5,5.8-1.8C211.9,114,209.5,114.4,207.5,114.2L207.5,114.2z M207.8,116.8c1.5,0,3-0.3,4.3-1.1
	C211.1,116.9,209.3,117.3,207.8,116.8L207.8,116.8z M206.7,111.4c2.2-0.2,4.8-0.5,6.3-2.4C211.8,111.2,208.9,111.6,206.7,111.4
	L206.7,111.4z"/>
<path class="st10" d="M212.5,78.3c0,0,20.2,30.2,29.1,30.8c4.4,0.3,9.5-1.9,14.5-5.1c5.2-3.4,10.3-7.9,14.2-11.8
	c4.5-4.4,7.5-8,7.5-8l-12.6-21.6c0,0-8.8,4.2-11.9,7.5c-3.1,3.3-12.4,14.1-12.4,14.1l-15.5-17.6C223.7,58.2,208.5,76.6,212.5,78.3z"
	/>
<path class="st11" d="M256.2,104c5.2-3.4,10.3-7.9,14.2-11.8c-1.7-4.4-3.4-8.9-3.4-8.9l-7.1-5.1C259.9,78.3,259.2,94.6,256.2,104z"
	/>
<path d="M278.2,294l15.2-8.2l4.1-3.6l16.6,2.5l0,13c0.1,0.7-0.4,1.3-1,1.3h-35.4c-0.6,0-1.1-0.5-1.1-1.1v-1.3
	C276.5,295.5,277.2,294.5,278.2,294z"/>
<path class="st3" d="M297.5,282.2l0-15l16.6,6.5l0,11C307.3,287.5,301.3,286.5,297.5,282.2z"/>
<path class="st2" d="M292.5,290.9c-1.1-2-3-2.2-3.1-2.2l0.1-0.6c0.1,0,2.3,0.2,3.6,2.5L292.5,290.9z M289.2,292.9
	c-1.1-2-3-2.2-3.1-2.2l0.1-0.6c0.1,0,2.3,0.2,3.6,2.5L289.2,292.9z"/>
<path d="M224.3,294l15.2-8.2l4.1-3.6l16.6,2.5l0,13c0.1,0.7-0.4,1.3-1,1.3h-35.4c-0.6,0-1.1-0.5-1.1-1.1v-1.3
	C222.5,295.5,223.2,294.5,224.3,294z"/>
<path class="st3" d="M243.6,282.2l0-15l16.6,6.5l0,11C253.4,287.5,247.3,286.5,243.6,282.2z"/>
<path class="st2" d="M238.5,290.9c-1.1-2-3-2.2-3.1-2.2l0.1-0.6c0.1,0,2.3,0.2,3.6,2.5L238.5,290.9z M235.2,292.8
	c-1.1-2-3-2.2-3.1-2.2l0.1-0.6c0.1,0,2.3,0.2,3.6,2.5L235.2,292.8z"/>
<polygon class="st12" points="237.3,274.5 266.5,275.4 291.1,143.8 277.8,110 264.1,111.2 238.6,266.6 237.9,270.7 "/>
<polygon class="st12" points="281.9,140 279.2,207.5 288.5,157.4 "/>
<path class="st12" d="M277.4,112.9c0,8.9,5.9,43.5,5.9,43.5l6.2,109.6l0.3,4.7l0.3,6.1l30-0.2c0,0-5.5-124.2-5.4-136.9
	c0.2-19.6-6-28.1-6-28.1S277.4,104.1,277.4,112.9z"/>
<path class="st2" d="M284.2,177.1l-1.2-20.7c0,0-1.1-6.7-2.4-14.8l0.6-0.1c1.3,8.1,2.4,14.7,2.4,14.8l1.2,20.7L284.2,177.1z"/>
<path class="st10" d="M259.3,126c9.1,6.2,57.6,7.5,58.4-2.9c0.1-0.6-0.2-2.8-0.6-5.5c-0.3-2.4-0.8-5.3-1.2-8
	c-0.8-4.9-1.6-9.3-1.6-9.3s0-0.3,0.1-0.9l0,0c0.2-1.5,0.6-4.8,1-8.8c0.9-8.5,1.7-19.9,0.4-23.6c-1.7-4.9-8.9-8.1-25.9-8.5
	s-29.1,4.7-30.1,8.2c-1.1,4.2,1.7,33.3,1.1,44.6c-0.1,2.1-0.3,3.7-0.7,4.3C255.9,122.4,258.7,125.7,259.3,126z"/>
<path class="st12" d="M281.8,97.4l26.7,3.7l6-1.7l0,0c0.2-1.5,0.6-4.8,1-8.8l-7.8-7.4l1.7,11.4L281.8,97.4z M279.6,113.8
	c0,0,29.7,3.9,37.5,3.9c-0.3-2.4-0.8-5.3-1.2-8C306.4,110.9,279.6,113.8,279.6,113.8z"/>
<path class="st10" d="M279.6,113.8c0.6-0.1,1.2-0.2,1.7-0.1c6.9,0.8,45.6,4.2,50.6-4c4.4-7.3-7.7-43.5-19.9-47c0,0-7.8,4.3-6.6,12.8
	c0.9,6.2,7.5,21.2,7.5,21.2l-30.1,0.8c-1.2,0-2.4-0.3-3.6-0.7C276.2,95.8,277.1,114.1,279.6,113.8z"/>
<path class="st12" d="M260.3,115.7c0,0,6.8,6.7,22.5,4.5c-0.2,0.6-16.5-2.4-21.7-8.7C260.9,113.6,260.7,115.1,260.3,115.7z"/>
<path d="M289.6,266l0.3,4.7l16.7,0.1C300,269.6,294,268.1,289.6,266z M237.9,270.7l19.2,0.1c-5.9-1.1-14.3-2.3-18.5-4.2L237.9,270.7
	z"/>
<path class="st12" d="M277.1,11.8c0,0-5-2.1-7.2,1.1c-2.1,3.3,2,15.9-2.1,25c-3.6,7.8-4.4,11.9,1.4,15.9s14.7,3.3,16.9-2.2
	S277.1,11.8,277.1,11.8z"/>
<path class="st11" d="M278.5,72.9c3.2,1.7,6.1-4.9,6.1-4.9l1-9.6l-1.2-2.8h-1.9l-4.6,3.7C277.8,59.3,275.3,71.2,278.5,72.9z
	 M284.5,68c0,0,3.1,9.2,6.1,8c3-1.1,9-16.8,9-16.8l-3.7-3.1l-6.7-0.4l-1.7,6.2L284.5,68z"/>
<path class="st3" d="M296,56.1c-3.5,4.8-7.6,8.8-11.4,11.9c-1.2-3.8-2.6-6.2-2.2-10.6L296,56.1z"/>
<polygon class="st3" points="282.3,57.4 296,56.1 295.2,37 294.1,38.9 293.7,39.5 293.6,39.8 293.4,39.9 282.8,45.2 282.8,45.3 
	282.7,53.7 282.7,53.8 "/>
<path class="st8" d="M282.7,53.7L282.7,53.7c2.6-1.7,9-6.7,10.8-13.1c0.1-0.4,0.2-0.8,0.2-1.1c0-0.1,0-0.2,0-0.3l-0.4,0.7l-0.1,0.2
	l-10.4,5.2L282.7,53.7z"/>
<path class="st3" d="M280.3,49.2c5.7,0.8,12-4.2,14.6-11.9c1.3,0,2.7-0.6,3.8-1.8c1.8-1.9,2-4.6,0.6-5.9c-0.8-0.8-2-0.9-3.2-0.5
	c-0.1-7.6-3.7-13.8-9.1-14.7c-4-0.7-8.1,1.7-10.9,6c-1.8,2.6-3.1,5.9-3.7,9.6C270.7,39.6,274.7,48.4,280.3,49.2z"/>
<path class="st12" d="M276,20.3c5,4.8,14.9,7.5,14.9,7.5s0.8,4.4,1.1,5.3c0.3,0.8,2.3,2.8,2.1,0.7c-0.1-2.1,2-4.7,2-4.7
	c1.2-0.4,2.4-0.2,3.2,0.5c1.4,1.3,1.2,3.9-0.6,5.9c-1.1,1.2-2.5,1.9-3.8,1.8l1.1,16.9c0,0,8.3,3,12.3-0.3c2.9-2.5,5.9-7,1.4-11.3
	s-3.5-20.1-6.9-27.5c-3.4-7.4-26-10.2-29.3-0.9C272.5,17.2,273.8,18.2,276,20.3z"/>
<path class="st3" d="M280.2,99.5l-4.7-1.8c0,0-2.5-1.8-6-2.5s-13.1-1.8-13.5-0.5c-0.6,2.3,7,3.3,9.6,3.1c0,0-10.1,1.9-10.2,3
	c-0.1,1.1,11,0,11,0s-9.7,1.6-9.4,3s10.4,0,10.4,0s-8.5,1.8-7.9,3.4s10.2,2,10.2,2s2.2,1.9,4.1,2.2c1.9,0.4,7.9-0.5,7.9-0.5
	C283.7,109.1,282.7,100.7,280.2,99.5z"/>
<path class="st13" d="M261.3,102.2l-0.1-0.6c2.5-0.6,5.1-1,5.1-1l0.1,0.6C266.4,101.1,263.8,101.6,261.3,102.2z"/>
<path class="st13" d="M261.3,101.5l0-0.6c2.6-0.1,5-0.4,5.1-0.4l0.1,0.6C266.3,101.1,263.9,101.4,261.3,101.5z M261.6,99l-0.1-0.6
	c2.1-0.5,4-0.8,4-0.8l0.1,0.6C265.6,98.2,263.7,98.5,261.6,99z"/>
<path class="st13" d="M261.8,97.7c-0.6,0-1.2,0-1.7,0l0-0.6c2,0.1,4.2,0,5.3-0.1l0.1,0.6C264.5,97.7,263.2,97.7,261.8,97.7z"/>
<path class="st12" d="M287.4,274.4c0,1.1,0.4,2.1,1.1,2.8c0.7,0.7,1.7,1.2,2.7,1.2c9.5,0.2,18.9,0.2,28.4,0c2.1,0,3.9-1.8,3.9-4
	c0-1.1-0.4-2-1.1-2.7c-0.7-0.7-1.7-1.1-2.7-1.1c-9.5,0.2-18.9,0.2-28.4,0C289.2,270.5,287.4,272.2,287.4,274.4z M233.9,274.4
	c0,1.1,0.4,2.1,1.1,2.8c0.7,0.7,1.7,1.2,2.7,1.2c9.5,0.2,18.9,0.2,28.4,0c2.1,0,3.9-1.8,3.9-4c0-1.1-0.4-2-1.1-2.7
	c-0.7-0.7-1.7-1.1-2.7-1.1c-9.5,0.2-18.9,0.2-28.4,0C235.6,270.5,233.9,272.2,233.9,274.4z"/>
<path class="st3" d="M205.4,54.7c-1.3,1-0.1,3,1.1,4.1c-1.6-1.2-5.1-2.2-5.6-1.5c-1.3,1.8,3,4,4.2,4.7c-1.2-0.7-5.2-1.7-5.5-1
	c-0.6,1.4,2.9,3.3,4.4,4.3c-1.3-0.8-4.2-0.5-4.2,0.2c0,2.5,13.8,11.8,14.3,11.6c1.9,1.4,9.6-8.7,7.7-10.1c0,0-4-9.9-6.8-10.3
	s0.1,5.5,0.1,5.5S207.2,53.3,205.4,54.7z"/>
<path class="st2" d="M211.8,187.1c-3.2,9.4-13.5,14.5-22.9,11.2c-9.4-3.2-14.5-13.5-11.2-22.9c3.2-9.4,13.5-14.5,22.9-11.3
	C210,167.4,215,177.7,211.8,187.1z"/>
<path d="M194.7,199.7c-2,0-4-0.3-6-1c-9.6-3.3-14.7-13.8-11.5-23.4c1.6-4.6,4.9-8.4,9.3-10.6s9.4-2.5,14.1-0.9
	c9.6,3.3,14.7,13.8,11.5,23.4l0,0c-1.6,4.6-4.9,8.4-9.3,10.6C200.3,199,197.5,199.7,194.7,199.7z M194.7,163.5
	c-7.4,0-14.3,4.6-16.8,12c-3.2,9.3,1.8,19.4,11,22.6c4.5,1.5,9.3,1.2,13.6-0.8c4.3-2.1,7.5-5.7,9-10.2l0,0c3.2-9.3-1.8-19.4-11-22.6
	C198.6,163.8,196.6,163.5,194.7,163.5z"/>
<path class="st10" d="M191.3,187.9c-0.4,0-0.8-0.1-1.1-0.5l-2.7-2.7c-0.6-0.6-0.6-1.6,0-2.2c0.6-0.6,1.6-0.6,2.2,0l1.6,1.6l8.9-8.9
	c0.6-0.6,1.6-0.6,2.2,0c0.6,0.6,0.6,1.6,0,2.2l-10.1,10.1C192.1,187.7,191.7,187.9,191.3,187.9z"/>
<path class="st5" d="M227.8,27.5c0,12-14.5,20.4-14.5,20.4s-14.5-8.4-14.5-20.4c0-8,6.5-14.5,14.5-14.5
	C221.3,13,227.8,19.5,227.8,27.5z"/>
<g>
	<circle class="st9" cx="213.3" cy="27.5" r="9.9"/>
</g>
<g>
	<circle class="st2" cx="213.3" cy="27.5" r="7.9"/>
</g>
</svg>
