<?xml version="1.0" encoding="utf-8"?>
<!-- Generator: Adobe Illustrator 24.3.0, SVG Export Plug-In . SVG Version: 6.00 Build 0)  -->
<svg version="1.1" id="Layer_1" xmlns="http://www.w3.org/2000/svg" xmlns:xlink="http://www.w3.org/1999/xlink" x="0px" y="0px" viewBox="0 0 40 40" style="enable-background:new 0 0 40 40;" xml:space="preserve">
<g>
	<g>
		<rect x="11.6" y="8" fill="#ffffff" width="19.6" height="24"/>
		<path fill="#00AA13" d="M20,0C9,0,0,9,0,20s9,20,20,20s20-9,20-20S31,0,20,0z M30.4,20.6l-14.7,10c-0.1,0.1-0.2,0.1-0.4,0.1
			c-0.1,0-0.2,0-0.3-0.1c-0.2-0.1-0.4-0.3-0.4-0.6V10c0-0.2,0.1-0.5,0.4-0.6c0.2-0.1,0.5-0.1,0.7,0l14.7,10c0.2,0.1,0.3,0.3,0.3,0.6
			S30.6,20.4,30.4,20.6z"/>
	</g>
</g>
</svg>
