<svg width="313" height="267" version="1.1" id="Layer_1" xmlns="http://www.w3.org/2000/svg" xmlns:xlink="http://www.w3.org/1999/xlink" x="0px" y="0px"
	 viewBox="0 0 4415.17 3772.63" style="enable-background:new 0 0 4415.17 3772.63;" xml:space="preserve">
<style type="text/css">
	.st0{fill-rule:evenodd;clip-rule:evenodd;fill:#CCEED0;}
	.st1{fill-rule:evenodd;clip-rule:evenodd;fill:#00800E;}
	.st2{fill-rule:evenodd;clip-rule:evenodd;fill:#00AA13;}
	.st3{fill-rule:evenodd;clip-rule:evenodd;fill:#BF7A00;}
	.st4{fill-rule:evenodd;clip-rule:evenodd;fill:#FFA300;}
	.st5{fill-rule:evenodd;clip-rule:evenodd;fill:#333333;}
	.st6{fill:#FFFFFF;}
	.st7{fill-rule:evenodd;clip-rule:evenodd;fill:#FFFFFF;}
	.st8{fill-rule:evenodd;clip-rule:evenodd;fill:#543B00;}
	.st9{fill-rule:evenodd;clip-rule:evenodd;fill:#6C4E08;}
	.st10{fill-rule:evenodd;clip-rule:evenodd;fill:#77570E;}
	.st11{fill-rule:evenodd;clip-rule:evenodd;fill:#846211;}
	.st12{fill-rule:evenodd;clip-rule:evenodd;fill:#97711A;}
	.st13{fill-rule:evenodd;clip-rule:evenodd;fill:#AA801C;}
	.st14{fill-rule:evenodd;clip-rule:evenodd;fill:#BE8E1E;}
	.st15{fill-rule:evenodd;clip-rule:evenodd;fill:#D19E29;}
	.st16{fill-rule:evenodd;clip-rule:evenodd;fill:#C39221;}
	.st17{fill-rule:evenodd;clip-rule:evenodd;fill:#DEA92E;}
	.st18{fill-rule:evenodd;clip-rule:evenodd;fill:#EDBA45;}
	.st19{fill-rule:evenodd;clip-rule:evenodd;fill:#F2C55F;}
	.st20{fill-rule:evenodd;clip-rule:evenodd;fill:#F1C96E;}
	.st21{fill-rule:evenodd;clip-rule:evenodd;fill:#6A4B06;}
	.st22{fill-rule:evenodd;clip-rule:evenodd;fill:#D09E28;}
	.st23{fill-rule:evenodd;clip-rule:evenodd;fill:#B38315;}
	.st24{fill:#B38315;}
	.st25{fill:#FFF1D1;}
	.st26{fill:none;stroke:#00AA13;stroke-width:50;stroke-linecap:round;stroke-linejoin:round;stroke-miterlimit:10;}
</style>
<g>
	<path class="st0" d="M3770.19,1401.53c-12,9.03-19.5,22.81-20.55,37.79s4.44,29.68,15.06,40.3l0,0
		c96.05,96.05,150.01,226.32,150.01,362.15l0,0c0,135.83-53.96,266.1-150.01,362.15c-20.71,20.71-43.01,39.46-66.62,56.14
		c-48.45,34.26-77.26,89.9-77.26,149.24c-0.01,3.49-0.01,6.97-0.01,10.41c0,19.96,7.93,39.11,22.05,53.23
		c14.12,14.12,33.26,22.05,53.23,22.05l0,0c349.94,0,633.62,283.68,633.62,633.62l0,0c0,168.05-66.76,329.21-185.58,448.04
		c-118.83,118.83-279.99,185.58-448.04,185.58H633.62C283.68,3762.24,0,3478.56,0,3128.62l0,0c0-168.05,66.76-329.21,185.58-448.04
		C304.41,2561.76,465.57,2495,633.62,2495l0,0c19.96,0,39.11-7.93,53.23-22.05s22.05-33.26,22.05-53.23v-6.33
		c0-61.49-29.65-119.21-79.64-155.03c-22.73-16.24-44.23-34.43-64.24-54.44C468.96,2107.88,415,1977.61,415,1841.78l0,0
		c0-135.83,53.96-266.1,150.01-362.15s226.32-150.01,362.15-150.01c0,0,184.22,0,349.07,0c50.52,0,98.8-20.82,133.48-57.56
		c34.68-36.74,52.67-86.15,49.76-136.58c-0.41-7.01-0.62-14.08-0.62-21.2l0,0c0-198.41,160.84-359.24,359.24-359.24h1736.33
		c198.41,0,359.25,160.84,359.25,359.24l0,0C3913.66,1231.71,3857.32,1335.98,3770.19,1401.53L3770.19,1401.53z"/>
	<polygon class="st1" points="2647.07,664.61 2647.07,2819.13 1856.73,2819.13 1856.73,664.61 	"/>
	<polygon class="st1" points="2251.9,0 3046.11,1024.74 1457.69,1024.74 	"/>
	<polygon class="st2" points="2518.18,2819.13 1856.73,2819.13 1856.73,1024.74 1727.85,1024.74 1727.85,664.61 2518.18,664.61 	"/>
	<polygon class="st2" points="2917.23,1024.74 1457.69,1024.74 1727.85,676.16 1727.85,664.61 1736.8,664.61 2187.46,83.15 	"/>
	<polygon class="st1" points="3637.9,2421.26 3637.9,3487.07 3244.65,3487.07 3244.65,2421.26 	"/>
	<polygon class="st1" points="3441.28,2090.58 3836.44,2600.45 3046.11,2600.45 	"/>
	<polygon class="st2" points="3573.77,3487.07 3244.65,3487.07 3244.65,2600.45 3180.53,2600.45 3180.53,2561.26 3573.77,2561.26 	
		"/>
	<polygon class="st1" points="1393.01,1754.18 1393.01,2987.64 910.81,2987.64 910.81,1754.18 	"/>
	<polygon class="st1" points="1151.91,1348.69 1636.47,1973.9 667.35,1973.9 	"/>
	<polygon class="st2" points="1314.38,2987.64 910.81,2987.64 910.81,1973.9 832.18,1973.9 832.18,1754.18 1314.38,1754.18 	"/>
	<polygon class="st2" points="1557.84,1973.9 667.35,1973.9 832.18,1761.22 832.18,1754.18 837.65,1754.18 1112.6,1399.42 	"/>
	<path class="st3" d="M3154.44,3615.02c-61.51,91.99-164.86,147.21-275.52,147.21c-265.72,0.01-806.08,0.01-1071.79,0.01
		c-110.66,0-214.02-55.22-275.53-147.21c-106.82-159.57-165.05-348.42-165.05-543.26c0-538.93,437.55-976.48,976.48-976.48
		s976.48,437.54,976.48,976.48C3319.5,3266.61,3261.27,3455.45,3154.44,3615.02L3154.44,3615.02z"/>
	<path class="st4" d="M1366.55,3071.77c0-495.26,369.5-904.9,847.63-968.04c514.65,27.23,924.16,453.72,924.16,975.1
		c0,255.66-100.26,500.98-279,683.4l-0.01,0.01h-1052.2c-109.39,0-211.65-53.97-273.4-144.07
		C1425.55,3457.94,1366.55,3267.9,1366.55,3071.77L1366.55,3071.77z"/>
	<path class="st4" d="M2640.62,1704.56c5.81-18.38,2.52-38.43-8.88-53.98c-11.39-15.55-29.51-24.74-48.79-24.74
		c-21.13,0-52.16,47.27-100.82,47.27c-50.2,0-78.84-47.27-136.55-47.27c-48.95,0-98.95,30.59-143.31,30.59
		c-35.39,0-66.82-30.59-94.05-30.59c-19.28,0-37.4,9.19-48.79,24.74c-11.39,15.55-14.69,35.6-8.88,53.98
		c44.95,142.16,135.07,427.12,135.07,427.12h319.92C2505.55,2131.67,2595.67,1846.72,2640.62,1704.56L2640.62,1704.56z"/>
	<path class="st3" d="M2451.01,1667.03c9.67,3.7,19.86,6.08,31.13,6.08c48.66,0,79.69-47.27,100.82-47.27c1.47,0,2.94,0.05,4.4,0.16
		c8.8,48.57-24.74,78.92-37.57,150.17c-7.58,42.08-11.62,85.02-18.03,127.32c-6.92,45.66-15.87,90.85-17.55,137.09
		c-1.12,30.91,0.25,72.06-20.94,91.09h-65.7c-36.76-45.26,16.55-163.34,26.04-208.98
		C2471.57,1836.35,2471.84,1750.46,2451.01,1667.03L2451.01,1667.03z"/>
	<path class="st3" d="M2275.33,1640.16c0.3,39.1,0.91,78.3,7.35,117.67c9.47,57.98,21.46,115.51,31.27,173.44
		c9.71,57.32,45.76,130.37,24.72,188.28c-1.7,4.7-3.84,8.7-6.36,12.12h-96.96c-6.93-7.94-12.6-18.37-17.39-31.35
		c-24.17-65.52-4.46-136.05,1.15-202.73c6.71-79.85-9.2-178.81-54.94-250.82c12.14,5.37,24.85,9.67,38.11,9.67
		C2225.41,1656.44,2250.08,1648.12,2275.33,1640.16L2275.33,1640.16z"/>
	<path class="st5" d="M2162.06,2136.79c-9.39-3.01-14.57-13.08-11.56-22.48c3.01-9.39,13.08-14.57,22.48-11.56
		c76.46,24.52,252.23,28.08,327.64-1.83c9.17-3.64,19.57,0.85,23.21,10.03c3.64,9.17-0.85,19.57-10.03,23.2
		C2432.84,2166.25,2244.14,2163.11,2162.06,2136.79L2162.06,2136.79z"/>
	<path class="st5" d="M2150.65,2113.85c3.26-9.31,13.47-14.22,22.78-10.96s14.22,13.47,10.96,22.78
		c-5.37,15.33-6.78,28.28-4.08,39.9c4.24,18.2,18.03,32.61,37.71,47.86c7.8,6.04,9.22,17.28,3.18,25.08s-17.28,9.22-25.08,3.18
		c-27.4-21.23-44.74-42.68-50.64-68.01C2141.43,2156.28,2142.6,2136.81,2150.65,2113.85L2150.65,2113.85z"/>
	<path class="st5" d="M2151.98,2108.93c5.98-7.85,17.2-9.37,25.05-3.39c7.85,5.98,9.37,17.2,3.39,25.05
		c-10.58,13.9-23.72,30.27-34.31,47.82c-9.29,15.38-16.81,31.6-17.31,47.78c-0.69,22.85,6.56,44.04,11.68,66.01
		c16.26,69.77-16.34,112.07-62.42,160.52c-6.8,7.15-18.12,7.43-25.27,0.63c-7.15-6.8-7.43-18.12-0.63-25.27
		c37.06-38.96,66.58-71.65,53.51-127.76c-5.82-24.99-13.38-49.22-12.59-75.21C2094.34,2183.53,2128.15,2140.23,2151.98,2108.93
		L2151.98,2108.93z"/>
	<path class="st6" d="M2350.88,3222.43c144.52,0,226.21-84.04,226.21-186.94c0-121.75-73.05-158.66-215.22-174.37
		c-69.91-9.43-87.19-23.56-87.19-54.98c0-28.28,21.99-47.91,65.19-47.91c43.99,0,66.76,20.42,72.26,60.48h149.24
		c-10.21-118.6-86.4-175.16-221.5-175.16c-134.31,0-217.57,73.83-217.57,175.16c0,113.11,53.41,160.23,212.07,179.08
		c67.55,10.21,88.76,19.64,88.76,54.2c0,32.99-25.92,55.77-72.26,55.77c-66.76,0-84.83-32.99-88.76-73.05h-153.16
		C2113.67,3156.45,2193.79,3222.43,2350.88,3222.43L2350.88,3222.43z"/>
	<path class="st7" d="M2411.28,3085.6v202.32H2279.9v-204.93c13.1,15.15,34.95,24.76,70.98,24.76
		C2378.86,3107.75,2399.4,3099.45,2411.28,3085.6L2411.28,3085.6z M2279.9,2784.56v-206.51h131.39v235.27
		c-6.76-36.51-29.43-55.11-71.4-55.11C2308.84,2758.22,2288.75,2768.36,2279.9,2784.56L2279.9,2784.56z M2411.28,2868.01v152.84
		c-12.61-11.12-36.44-16.95-76.9-23.07c-19.76-2.35-37.89-5.14-54.49-8.43v-159.96c9.22,15.96,32.32,25.03,81.98,31.73
		C2379.4,2863.05,2395.87,2865.31,2411.28,2868.01L2411.28,2868.01z"/>
	<polygon class="st8" points="667.35,2360.27 1457.69,2360.27 1457.69,2471.21 667.35,2471.21 	"/>
	<polygon class="st9" points="667.35,2360.27 1381.07,2360.27 1381.07,2471.21 667.35,2471.21 	"/>
	<polygon class="st10" points="667.35,2360.27 1309.32,2360.27 1309.32,2471.21 667.35,2471.21 	"/>
	<polygon class="st11" points="667.35,2360.27 1242.15,2360.27 1242.15,2471.21 667.35,2471.21 	"/>
	<polygon class="st12" points="667.35,2360.27 1179.26,2360.27 1179.26,2471.21 667.35,2471.21 	"/>
	<polygon class="st13" points="667.35,2360.27 1120.38,2360.27 1120.38,2471.21 667.35,2471.21 	"/>
	<polygon class="st14" points="667.35,2360.27 1065.24,2360.27 1065.24,2471.21 667.35,2471.21 	"/>
	<polygon class="st15" points="667.35,2360.27 1013.62,2360.27 1013.62,2471.21 667.35,2471.21 	"/>
	<polygon class="st16" points="667.35,2360.27 940.33,2360.27 940.33,2471.21 667.35,2471.21 	"/>
	<polygon class="st17" points="667.35,2360.27 874.12,2360.27 874.12,2471.21 667.35,2471.21 	"/>
	<polygon class="st18" points="667.35,2360.27 814.31,2360.27 814.31,2471.21 667.35,2471.21 	"/>
	<polygon class="st19" points="667.35,2360.27 760.27,2360.27 760.27,2471.21 667.35,2471.21 	"/>
	<polygon class="st20" points="667.35,2360.27 711.45,2360.27 711.45,2471.21 667.35,2471.21 	"/>
	<polygon class="st21" points="1457.69,2471.21 1457.69,2474.98 667.35,2474.98 667.35,2471.21 	"/>
	<polygon class="st8" points="667.35,2474.98 1457.69,2474.98 1457.69,2585.92 667.35,2585.92 	"/>
	<polygon class="st9" points="667.35,2474.98 1381.07,2474.98 1381.07,2585.92 667.35,2585.92 	"/>
	<polygon class="st10" points="667.35,2474.98 1309.32,2474.98 1309.32,2585.92 667.35,2585.92 	"/>
	<polygon class="st11" points="667.35,2474.98 1242.15,2474.98 1242.15,2585.92 667.35,2585.92 	"/>
	<polygon class="st12" points="667.35,2474.98 1179.26,2474.98 1179.26,2585.92 667.35,2585.92 	"/>
	<polygon class="st13" points="667.35,2474.98 1120.38,2474.98 1120.38,2585.92 667.35,2585.92 	"/>
	<polygon class="st14" points="667.35,2474.98 1065.24,2474.98 1065.24,2585.92 667.35,2585.92 	"/>
	<polygon class="st15" points="667.35,2474.98 1013.62,2474.98 1013.62,2585.92 667.35,2585.92 	"/>
	<polygon class="st16" points="667.35,2474.98 940.33,2474.98 940.33,2585.92 667.35,2585.92 	"/>
	<polygon class="st17" points="667.35,2474.98 874.12,2474.98 874.12,2585.92 667.35,2585.92 	"/>
	<polygon class="st18" points="667.35,2474.98 814.31,2474.98 814.31,2585.92 667.35,2585.92 	"/>
	<polygon class="st19" points="667.35,2474.98 760.27,2474.98 760.27,2585.92 667.35,2585.92 	"/>
	<polygon class="st20" points="667.35,2474.98 711.45,2474.98 711.45,2585.92 667.35,2585.92 	"/>
	<polygon class="st21" points="1457.69,2585.92 1457.69,2589.7 667.35,2589.7 667.35,2585.92 	"/>
	<polygon class="st8" points="667.35,2589.7 1457.69,2589.7 1457.69,2700.64 667.35,2700.64 	"/>
	<polygon class="st9" points="667.35,2589.7 1381.07,2589.7 1381.07,2700.64 667.35,2700.64 	"/>
	<polygon class="st10" points="667.35,2589.7 1309.32,2589.7 1309.32,2700.64 667.35,2700.64 	"/>
	<polygon class="st11" points="667.35,2589.7 1242.15,2589.7 1242.15,2700.64 667.35,2700.64 	"/>
	<polygon class="st12" points="667.35,2589.7 1179.26,2589.7 1179.26,2700.64 667.35,2700.64 	"/>
	<polygon class="st13" points="667.35,2589.7 1120.38,2589.7 1120.38,2700.64 667.35,2700.64 	"/>
	<polygon class="st14" points="667.35,2589.7 1065.24,2589.7 1065.24,2700.64 667.35,2700.64 	"/>
	<polygon class="st15" points="667.35,2589.7 1013.62,2589.7 1013.62,2700.64 667.35,2700.64 	"/>
	<polygon class="st16" points="667.35,2589.7 940.33,2589.7 940.33,2700.64 667.35,2700.64 	"/>
	<polygon class="st17" points="667.35,2589.7 874.12,2589.7 874.12,2700.64 667.35,2700.64 	"/>
	<polygon class="st18" points="667.35,2589.7 814.31,2589.7 814.31,2700.64 667.35,2700.64 	"/>
	<polygon class="st19" points="667.35,2589.7 760.27,2589.7 760.27,2700.64 667.35,2700.64 	"/>
	<polygon class="st20" points="667.35,2589.7 711.45,2589.7 711.45,2700.64 667.35,2700.64 	"/>
	<polygon class="st21" points="1457.69,2700.64 1457.69,2704.41 667.35,2704.41 667.35,2700.64 	"/>
	<polygon class="st8" points="667.35,2704.41 1457.69,2704.41 1457.69,2815.35 667.35,2815.35 	"/>
	<polygon class="st9" points="667.35,2704.41 1381.07,2704.41 1381.07,2815.35 667.35,2815.35 	"/>
	<polygon class="st10" points="667.35,2704.41 1309.32,2704.41 1309.32,2815.35 667.35,2815.35 	"/>
	<polygon class="st11" points="667.35,2704.41 1242.15,2704.41 1242.15,2815.35 667.35,2815.35 	"/>
	<polygon class="st12" points="667.35,2704.41 1179.26,2704.41 1179.26,2815.35 667.35,2815.35 	"/>
	<polygon class="st13" points="667.35,2704.41 1120.38,2704.41 1120.38,2815.35 667.35,2815.35 	"/>
	<polygon class="st14" points="667.35,2704.41 1065.24,2704.41 1065.24,2815.35 667.35,2815.35 	"/>
	<polygon class="st15" points="667.35,2704.41 1013.62,2704.41 1013.62,2815.35 667.35,2815.35 	"/>
	<polygon class="st16" points="667.35,2704.41 940.33,2704.41 940.33,2815.35 667.35,2815.35 	"/>
	<polygon class="st17" points="667.35,2704.41 874.12,2704.41 874.12,2815.35 667.35,2815.35 	"/>
	<polygon class="st18" points="667.35,2704.41 814.31,2704.41 814.31,2815.35 667.35,2815.35 	"/>
	<polygon class="st19" points="667.35,2704.41 760.27,2704.41 760.27,2815.35 667.35,2815.35 	"/>
	<polygon class="st20" points="667.35,2704.41 711.45,2704.41 711.45,2815.35 667.35,2815.35 	"/>
	<polygon class="st21" points="1457.69,2815.35 1457.69,2819.13 667.35,2819.13 667.35,2815.35 	"/>
	<polygon class="st8" points="667.35,2819.13 1457.69,2819.13 1457.69,2930.07 667.35,2930.07 	"/>
	<polygon class="st9" points="667.35,2819.13 1381.07,2819.13 1381.07,2930.07 667.35,2930.07 	"/>
	<polygon class="st10" points="667.35,2819.13 1309.32,2819.13 1309.32,2930.07 667.35,2930.07 	"/>
	<polygon class="st11" points="667.35,2819.13 1242.15,2819.13 1242.15,2930.07 667.35,2930.07 	"/>
	<polygon class="st12" points="667.35,2819.13 1179.26,2819.13 1179.26,2930.07 667.35,2930.07 	"/>
	<polygon class="st13" points="667.35,2819.13 1120.38,2819.13 1120.38,2930.07 667.35,2930.07 	"/>
	<polygon class="st14" points="667.35,2819.13 1065.24,2819.13 1065.24,2930.07 667.35,2930.07 	"/>
	<polygon class="st15" points="667.35,2819.13 1013.62,2819.13 1013.62,2930.07 667.35,2930.07 	"/>
	<polygon class="st16" points="667.35,2819.13 940.33,2819.13 940.33,2930.07 667.35,2930.07 	"/>
	<polygon class="st17" points="667.35,2819.13 874.12,2819.13 874.12,2930.07 667.35,2930.07 	"/>
	<polygon class="st18" points="667.35,2819.13 814.31,2819.13 814.31,2930.07 667.35,2930.07 	"/>
	<polygon class="st19" points="667.35,2819.13 760.27,2819.13 760.27,2930.07 667.35,2930.07 	"/>
	<polygon class="st20" points="667.35,2819.13 711.45,2819.13 711.45,2930.07 667.35,2930.07 	"/>
	<polygon class="st21" points="1457.69,2930.07 1457.69,2933.85 667.35,2933.85 667.35,2930.07 	"/>
	<polygon class="st8" points="667.35,2933.85 1457.69,2933.85 1457.69,3044.78 667.35,3044.78 	"/>
	<polygon class="st9" points="667.35,2933.85 1381.07,2933.85 1381.07,3044.78 667.35,3044.78 	"/>
	<polygon class="st10" points="667.35,2933.85 1309.32,2933.85 1309.32,3044.78 667.35,3044.78 	"/>
	<polygon class="st11" points="667.35,2933.85 1242.15,2933.85 1242.15,3044.78 667.35,3044.78 	"/>
	<polygon class="st12" points="667.35,2933.85 1179.26,2933.85 1179.26,3044.78 667.35,3044.78 	"/>
	<polygon class="st13" points="667.35,2933.85 1120.38,2933.85 1120.38,3044.78 667.35,3044.78 	"/>
	<polygon class="st14" points="667.35,2933.85 1065.24,2933.85 1065.24,3044.78 667.35,3044.78 	"/>
	<polygon class="st15" points="667.35,2933.85 1013.62,2933.85 1013.62,3044.78 667.35,3044.78 	"/>
	<polygon class="st16" points="667.35,2933.85 940.33,2933.85 940.33,3044.78 667.35,3044.78 	"/>
	<polygon class="st17" points="667.35,2933.85 874.12,2933.85 874.12,3044.78 667.35,3044.78 	"/>
	<polygon class="st18" points="667.35,2933.85 814.31,2933.85 814.31,3044.78 667.35,3044.78 	"/>
	<polygon class="st19" points="667.35,2933.85 760.27,2933.85 760.27,3044.78 667.35,3044.78 	"/>
	<polygon class="st20" points="667.35,2933.85 711.45,2933.85 711.45,3044.78 667.35,3044.78 	"/>
	<polygon class="st21" points="1457.69,3044.78 1457.69,3048.56 667.35,3048.56 667.35,3044.78 	"/>
	<polygon class="st8" points="667.35,3048.56 1457.69,3048.56 1457.69,3159.5 667.35,3159.5 	"/>
	<polygon class="st9" points="667.35,3048.56 1381.07,3048.56 1381.07,3159.5 667.35,3159.5 	"/>
	<polygon class="st10" points="667.35,3048.56 1309.32,3048.56 1309.32,3159.5 667.35,3159.5 	"/>
	<polygon class="st11" points="667.35,3048.56 1242.15,3048.56 1242.15,3159.5 667.35,3159.5 	"/>
	<polygon class="st12" points="667.35,3048.56 1179.26,3048.56 1179.26,3159.5 667.35,3159.5 	"/>
	<polygon class="st13" points="667.35,3048.56 1120.38,3048.56 1120.38,3159.5 667.35,3159.5 	"/>
	<polygon class="st14" points="667.35,3048.56 1065.24,3048.56 1065.24,3159.5 667.35,3159.5 	"/>
	<polygon class="st15" points="667.35,3048.56 1013.62,3048.56 1013.62,3159.5 667.35,3159.5 	"/>
	<polygon class="st16" points="667.35,3048.56 940.33,3048.56 940.33,3159.5 667.35,3159.5 	"/>
	<polygon class="st17" points="667.35,3048.56 874.12,3048.56 874.12,3159.5 667.35,3159.5 	"/>
	<polygon class="st18" points="667.35,3048.56 814.31,3048.56 814.31,3159.5 667.35,3159.5 	"/>
	<polygon class="st19" points="667.35,3048.56 760.27,3048.56 760.27,3159.5 667.35,3159.5 	"/>
	<polygon class="st20" points="667.35,3048.56 711.45,3048.56 711.45,3159.5 667.35,3159.5 	"/>
	<polygon class="st21" points="1457.69,3159.5 1457.69,3163.28 667.35,3163.28 667.35,3159.5 	"/>
	<polygon class="st8" points="667.35,3163.28 1457.69,3163.28 1457.69,3274.22 667.35,3274.22 	"/>
	<polygon class="st9" points="667.35,3163.28 1381.07,3163.28 1381.07,3274.22 667.35,3274.22 	"/>
	<polygon class="st10" points="667.35,3163.28 1309.32,3163.28 1309.32,3274.22 667.35,3274.22 	"/>
	<polygon class="st11" points="667.35,3163.28 1242.15,3163.28 1242.15,3274.22 667.35,3274.22 	"/>
	<polygon class="st12" points="667.35,3163.28 1179.26,3163.28 1179.26,3274.22 667.35,3274.22 	"/>
	<polygon class="st13" points="667.35,3163.28 1120.38,3163.28 1120.38,3274.22 667.35,3274.22 	"/>
	<polygon class="st14" points="667.35,3163.28 1065.24,3163.28 1065.24,3274.22 667.35,3274.22 	"/>
	<polygon class="st15" points="667.35,3163.28 1013.62,3163.28 1013.62,3274.22 667.35,3274.22 	"/>
	<polygon class="st16" points="667.35,3163.28 940.33,3163.28 940.33,3274.22 667.35,3274.22 	"/>
	<polygon class="st17" points="667.35,3163.28 874.12,3163.28 874.12,3274.22 667.35,3274.22 	"/>
	<polygon class="st18" points="667.35,3163.28 814.31,3163.28 814.31,3274.22 667.35,3274.22 	"/>
	<polygon class="st19" points="667.35,3163.28 760.27,3163.28 760.27,3274.22 667.35,3274.22 	"/>
	<polygon class="st20" points="667.35,3163.28 711.45,3163.28 711.45,3274.22 667.35,3274.22 	"/>
	<polygon class="st21" points="1457.69,3274.22 1457.69,3277.99 667.35,3277.99 667.35,3274.22 	"/>
	<polygon class="st8" points="667.35,3277.99 1457.69,3277.99 1457.69,3395.07 667.35,3395.07 	"/>
	<polygon class="st9" points="667.35,3277.99 1381.07,3277.99 1381.07,3395.07 667.35,3395.07 	"/>
	<polygon class="st10" points="667.35,3277.99 1309.32,3277.99 1309.32,3395.07 667.35,3395.07 	"/>
	<polygon class="st11" points="667.35,3277.99 1242.15,3277.99 1242.15,3395.07 667.35,3395.07 	"/>
	<polygon class="st12" points="667.35,3277.99 1179.26,3277.99 1179.26,3395.07 667.35,3395.07 	"/>
	<polygon class="st13" points="667.35,3277.99 1120.38,3277.99 1120.38,3395.07 667.35,3395.07 	"/>
	<polygon class="st14" points="667.35,3277.99 1065.24,3277.99 1065.24,3395.07 667.35,3395.07 	"/>
	<polygon class="st15" points="667.35,3277.99 1013.62,3277.99 1013.62,3395.07 667.35,3395.07 	"/>
	<polygon class="st16" points="667.35,3277.99 940.33,3277.99 940.33,3395.07 667.35,3395.07 	"/>
	<polygon class="st17" points="667.35,3277.99 874.12,3277.99 874.12,3395.07 667.35,3395.07 	"/>
	<polygon class="st18" points="667.35,3277.99 814.31,3277.99 814.31,3395.07 667.35,3395.07 	"/>
	<polygon class="st19" points="667.35,3277.99 760.27,3277.99 760.27,3395.07 667.35,3395.07 	"/>
	<polygon class="st20" points="667.35,3277.99 711.45,3277.99 711.45,3395.07 667.35,3395.07 	"/>
	<polygon class="st21" points="1457.69,3395.07 1457.69,3399.06 667.35,3399.06 667.35,3395.07 	"/>
	<polygon class="st8" points="667.35,3399.06 1457.69,3399.06 1457.69,3516.13 667.35,3516.13 	"/>
	<polygon class="st9" points="667.35,3399.06 1381.07,3399.06 1381.07,3516.13 667.35,3516.13 	"/>
	<polygon class="st10" points="667.35,3399.06 1309.32,3399.06 1309.32,3516.13 667.35,3516.13 	"/>
	<polygon class="st11" points="667.35,3399.06 1242.15,3399.06 1242.15,3516.13 667.35,3516.13 	"/>
	<polygon class="st12" points="667.35,3399.06 1179.26,3399.06 1179.26,3516.13 667.35,3516.13 	"/>
	<polygon class="st13" points="667.35,3399.06 1120.38,3399.06 1120.38,3516.13 667.35,3516.13 	"/>
	<polygon class="st14" points="667.35,3399.06 1065.24,3399.06 1065.24,3516.13 667.35,3516.13 	"/>
	<polygon class="st15" points="667.35,3399.06 1013.62,3399.06 1013.62,3516.13 667.35,3516.13 	"/>
	<polygon class="st16" points="667.35,3399.06 940.33,3399.06 940.33,3516.13 667.35,3516.13 	"/>
	<polygon class="st17" points="667.35,3399.06 874.12,3399.06 874.12,3516.13 667.35,3516.13 	"/>
	<polygon class="st18" points="667.35,3399.06 814.31,3399.06 814.31,3516.13 667.35,3516.13 	"/>
	<polygon class="st19" points="667.35,3399.06 760.27,3399.06 760.27,3516.13 667.35,3516.13 	"/>
	<polygon class="st20" points="667.35,3399.06 711.45,3399.06 711.45,3516.13 667.35,3516.13 	"/>
	<polygon class="st21" points="1457.69,3516.13 1457.69,3520.12 667.35,3520.12 667.35,3516.13 	"/>
	<polygon class="st8" points="667.35,3520.12 1457.69,3520.12 1457.69,3637.19 667.35,3637.19 	"/>
	<polygon class="st9" points="667.35,3520.12 1381.07,3520.12 1381.07,3637.19 667.35,3637.19 	"/>
	<polygon class="st10" points="667.35,3520.12 1309.32,3520.12 1309.32,3637.19 667.35,3637.19 	"/>
	<polygon class="st11" points="667.35,3520.12 1242.15,3520.12 1242.15,3637.19 667.35,3637.19 	"/>
	<polygon class="st12" points="667.35,3520.12 1179.26,3520.12 1179.26,3637.19 667.35,3637.19 	"/>
	<polygon class="st13" points="667.35,3520.12 1120.38,3520.12 1120.38,3637.19 667.35,3637.19 	"/>
	<polygon class="st14" points="667.35,3520.12 1065.24,3520.12 1065.24,3637.19 667.35,3637.19 	"/>
	<polygon class="st15" points="667.35,3520.12 1013.62,3520.12 1013.62,3637.19 667.35,3637.19 	"/>
	<polygon class="st16" points="667.35,3520.12 940.33,3520.12 940.33,3637.19 667.35,3637.19 	"/>
	<polygon class="st17" points="667.35,3520.12 874.12,3520.12 874.12,3637.19 667.35,3637.19 	"/>
	<polygon class="st18" points="667.35,3520.12 814.31,3520.12 814.31,3637.19 667.35,3637.19 	"/>
	<polygon class="st19" points="667.35,3520.12 760.27,3520.12 760.27,3637.19 667.35,3637.19 	"/>
	<polygon class="st20" points="667.35,3520.12 711.45,3520.12 711.45,3637.19 667.35,3637.19 	"/>
	<polygon class="st21" points="1457.69,3637.19 1457.69,3641.18 667.35,3641.18 667.35,3637.19 	"/>
	<polygon class="st8" points="667.35,3641.18 1457.69,3641.18 1457.69,3758.26 667.35,3758.26 	"/>
	<polygon class="st9" points="667.35,3641.18 1381.07,3641.18 1381.07,3758.26 667.35,3758.26 	"/>
	<polygon class="st10" points="667.35,3641.18 1309.32,3641.18 1309.32,3758.26 667.35,3758.26 	"/>
	<polygon class="st11" points="667.35,3641.18 1242.15,3641.18 1242.15,3758.26 667.35,3758.26 	"/>
	<polygon class="st12" points="667.35,3641.18 1179.26,3641.18 1179.26,3758.26 667.35,3758.26 	"/>
	<polygon class="st13" points="667.35,3641.18 1120.38,3641.18 1120.38,3758.26 667.35,3758.26 	"/>
	<polygon class="st14" points="667.35,3641.18 1065.24,3641.18 1065.24,3758.26 667.35,3758.26 	"/>
	<polygon class="st15" points="667.35,3641.18 1013.62,3641.18 1013.62,3758.26 667.35,3758.26 	"/>
	<polygon class="st16" points="667.35,3641.18 940.33,3641.18 940.33,3758.26 667.35,3758.26 	"/>
	<polygon class="st17" points="667.35,3641.18 874.12,3641.18 874.12,3758.26 667.35,3758.26 	"/>
	<polygon class="st18" points="667.35,3641.18 814.31,3641.18 814.31,3758.26 667.35,3758.26 	"/>
	<polygon class="st19" points="667.35,3641.18 760.27,3641.18 760.27,3758.26 667.35,3758.26 	"/>
	<polygon class="st20" points="667.35,3641.18 711.45,3641.18 711.45,3758.26 667.35,3758.26 	"/>
	<polygon class="st21" points="1457.69,3758.26 1457.69,3762.24 667.35,3762.24 667.35,3758.26 	"/>
	<polygon class="st8" points="1366.55,3035.87 2156.88,3035.87 2156.88,3152.94 1366.55,3152.94 	"/>
	<polygon class="st9" points="1366.55,3035.87 2080.26,3035.87 2080.26,3152.94 1366.55,3152.94 	"/>
	<polygon class="st10" points="1366.55,3035.87 2008.52,3035.87 2008.52,3152.94 1366.55,3152.94 	"/>
	<polygon class="st11" points="1366.55,3035.87 1941.35,3035.87 1941.35,3152.94 1366.55,3152.94 	"/>
	<polygon class="st12" points="1366.55,3035.87 1878.45,3035.87 1878.45,3152.94 1366.55,3152.94 	"/>
	<polygon class="st13" points="1366.55,3035.87 1819.57,3035.87 1819.57,3152.94 1366.55,3152.94 	"/>
	<polygon class="st14" points="1366.55,3035.87 1764.44,3035.87 1764.44,3152.94 1366.55,3152.94 	"/>
	<polygon class="st15" points="1366.55,3035.87 1712.81,3035.87 1712.81,3152.94 1366.55,3152.94 	"/>
	<polygon class="st16" points="1366.55,3035.87 1639.52,3035.87 1639.52,3152.94 1366.55,3152.94 	"/>
	<polygon class="st17" points="1366.55,3035.87 1573.31,3035.87 1573.31,3152.94 1366.55,3152.94 	"/>
	<polygon class="st18" points="1366.55,3035.87 1513.5,3035.87 1513.5,3152.94 1366.55,3152.94 	"/>
	<polygon class="st19" points="1366.55,3035.87 1459.46,3035.87 1459.46,3152.94 1366.55,3152.94 	"/>
	<polygon class="st20" points="1366.55,3035.87 1410.65,3035.87 1410.65,3152.94 1366.55,3152.94 	"/>
	<polygon class="st21" points="2156.88,3152.94 2156.88,3156.93 1366.55,3156.93 1366.55,3152.94 	"/>
	<polygon class="st8" points="1366.55,3156.93 2156.88,3156.93 2156.88,3274.01 1366.55,3274.01 	"/>
	<polygon class="st9" points="1366.55,3156.93 2080.26,3156.93 2080.26,3274.01 1366.55,3274.01 	"/>
	<polygon class="st10" points="1366.55,3156.93 2008.52,3156.93 2008.52,3274.01 1366.55,3274.01 	"/>
	<polygon class="st11" points="1366.55,3156.93 1941.35,3156.93 1941.35,3274.01 1366.55,3274.01 	"/>
	<polygon class="st12" points="1366.55,3156.93 1878.45,3156.93 1878.45,3274.01 1366.55,3274.01 	"/>
	<polygon class="st13" points="1366.55,3156.93 1819.57,3156.93 1819.57,3274.01 1366.55,3274.01 	"/>
	<polygon class="st14" points="1366.55,3156.93 1764.44,3156.93 1764.44,3274.01 1366.55,3274.01 	"/>
	<polygon class="st15" points="1366.55,3156.93 1712.81,3156.93 1712.81,3274.01 1366.55,3274.01 	"/>
	<polygon class="st16" points="1366.55,3156.93 1639.52,3156.93 1639.52,3274.01 1366.55,3274.01 	"/>
	<polygon class="st17" points="1366.55,3156.93 1573.31,3156.93 1573.31,3274.01 1366.55,3274.01 	"/>
	<polygon class="st18" points="1366.55,3156.93 1513.5,3156.93 1513.5,3274.01 1366.55,3274.01 	"/>
	<polygon class="st19" points="1366.55,3156.93 1459.46,3156.93 1459.46,3274.01 1366.55,3274.01 	"/>
	<polygon class="st20" points="1366.55,3156.93 1410.65,3156.93 1410.65,3274.01 1366.55,3274.01 	"/>
	<polygon class="st21" points="2156.88,3274.01 2156.88,3277.99 1366.55,3277.99 1366.55,3274.01 	"/>
	<polygon class="st8" points="1366.55,3277.99 2156.88,3277.99 2156.88,3395.07 1366.55,3395.07 	"/>
	<polygon class="st9" points="1366.55,3277.99 2080.26,3277.99 2080.26,3395.07 1366.55,3395.07 	"/>
	<polygon class="st10" points="1366.55,3277.99 2008.52,3277.99 2008.52,3395.07 1366.55,3395.07 	"/>
	<polygon class="st11" points="1366.55,3277.99 1941.35,3277.99 1941.35,3395.07 1366.55,3395.07 	"/>
	<polygon class="st12" points="1366.55,3277.99 1878.45,3277.99 1878.45,3395.07 1366.55,3395.07 	"/>
	<polygon class="st13" points="1366.55,3277.99 1819.57,3277.99 1819.57,3395.07 1366.55,3395.07 	"/>
	<polygon class="st14" points="1366.55,3277.99 1764.44,3277.99 1764.44,3395.07 1366.55,3395.07 	"/>
	<polygon class="st15" points="1366.55,3277.99 1712.81,3277.99 1712.81,3395.07 1366.55,3395.07 	"/>
	<polygon class="st16" points="1366.55,3277.99 1639.52,3277.99 1639.52,3395.07 1366.55,3395.07 	"/>
	<polygon class="st17" points="1366.55,3277.99 1573.31,3277.99 1573.31,3395.07 1366.55,3395.07 	"/>
	<polygon class="st18" points="1366.55,3277.99 1513.5,3277.99 1513.5,3395.07 1366.55,3395.07 	"/>
	<polygon class="st19" points="1366.55,3277.99 1459.46,3277.99 1459.46,3395.07 1366.55,3395.07 	"/>
	<polygon class="st20" points="1366.55,3277.99 1410.65,3277.99 1410.65,3395.07 1366.55,3395.07 	"/>
	<polygon class="st21" points="2156.88,3395.07 2156.88,3399.06 1366.55,3399.06 1366.55,3395.07 	"/>
	<polygon class="st8" points="1366.55,3399.06 2156.88,3399.06 2156.88,3516.13 1366.55,3516.13 	"/>
	<polygon class="st9" points="1366.55,3399.06 2080.26,3399.06 2080.26,3516.13 1366.55,3516.13 	"/>
	<polygon class="st10" points="1366.55,3399.06 2008.52,3399.06 2008.52,3516.13 1366.55,3516.13 	"/>
	<polygon class="st11" points="1366.55,3399.06 1941.35,3399.06 1941.35,3516.13 1366.55,3516.13 	"/>
	<polygon class="st12" points="1366.55,3399.06 1878.45,3399.06 1878.45,3516.13 1366.55,3516.13 	"/>
	<polygon class="st13" points="1366.55,3399.06 1819.57,3399.06 1819.57,3516.13 1366.55,3516.13 	"/>
	<polygon class="st14" points="1366.55,3399.06 1764.44,3399.06 1764.44,3516.13 1366.55,3516.13 	"/>
	<polygon class="st15" points="1366.55,3399.06 1712.81,3399.06 1712.81,3516.13 1366.55,3516.13 	"/>
	<polygon class="st16" points="1366.55,3399.06 1639.52,3399.06 1639.52,3516.13 1366.55,3516.13 	"/>
	<polygon class="st17" points="1366.55,3399.06 1573.31,3399.06 1573.31,3516.13 1366.55,3516.13 	"/>
	<polygon class="st18" points="1366.55,3399.06 1513.5,3399.06 1513.5,3516.13 1366.55,3516.13 	"/>
	<polygon class="st19" points="1366.55,3399.06 1459.46,3399.06 1459.46,3516.13 1366.55,3516.13 	"/>
	<polygon class="st20" points="1366.55,3399.06 1410.65,3399.06 1410.65,3516.13 1366.55,3516.13 	"/>
	<polygon class="st21" points="2156.88,3516.13 2156.88,3520.12 1366.55,3520.12 1366.55,3516.13 	"/>
	<polygon class="st8" points="1366.55,3520.12 2156.88,3520.12 2156.88,3637.19 1366.55,3637.19 	"/>
	<polygon class="st9" points="1366.55,3520.12 2080.26,3520.12 2080.26,3637.19 1366.55,3637.19 	"/>
	<polygon class="st10" points="1366.55,3520.12 2008.52,3520.12 2008.52,3637.19 1366.55,3637.19 	"/>
	<polygon class="st11" points="1366.55,3520.12 1941.35,3520.12 1941.35,3637.19 1366.55,3637.19 	"/>
	<polygon class="st12" points="1366.55,3520.12 1878.45,3520.12 1878.45,3637.19 1366.55,3637.19 	"/>
	<polygon class="st13" points="1366.55,3520.12 1819.57,3520.12 1819.57,3637.19 1366.55,3637.19 	"/>
	<polygon class="st14" points="1366.55,3520.12 1764.44,3520.12 1764.44,3637.19 1366.55,3637.19 	"/>
	<polygon class="st15" points="1366.55,3520.12 1712.81,3520.12 1712.81,3637.19 1366.55,3637.19 	"/>
	<polygon class="st16" points="1366.55,3520.12 1639.52,3520.12 1639.52,3637.19 1366.55,3637.19 	"/>
	<polygon class="st17" points="1366.55,3520.12 1573.31,3520.12 1573.31,3637.19 1366.55,3637.19 	"/>
	<polygon class="st18" points="1366.55,3520.12 1513.5,3520.12 1513.5,3637.19 1366.55,3637.19 	"/>
	<polygon class="st19" points="1366.55,3520.12 1459.46,3520.12 1459.46,3637.19 1366.55,3637.19 	"/>
	<polygon class="st20" points="1366.55,3520.12 1410.65,3520.12 1410.65,3637.19 1366.55,3637.19 	"/>
	<polygon class="st21" points="2156.88,3637.19 2156.88,3641.18 1366.55,3641.18 1366.55,3637.19 	"/>
	<polygon class="st8" points="1366.55,3641.18 2156.88,3641.18 2156.88,3758.26 1366.55,3758.26 	"/>
	<polygon class="st9" points="1366.55,3641.18 2080.26,3641.18 2080.26,3758.26 1366.55,3758.26 	"/>
	<polygon class="st10" points="1366.55,3641.18 2008.52,3641.18 2008.52,3758.26 1366.55,3758.26 	"/>
	<polygon class="st11" points="1366.55,3641.18 1941.35,3641.18 1941.35,3758.26 1366.55,3758.26 	"/>
	<polygon class="st12" points="1366.55,3641.18 1878.45,3641.18 1878.45,3758.26 1366.55,3758.26 	"/>
	<polygon class="st13" points="1366.55,3641.18 1819.57,3641.18 1819.57,3758.26 1366.55,3758.26 	"/>
	<polygon class="st14" points="1366.55,3641.18 1764.44,3641.18 1764.44,3758.26 1366.55,3758.26 	"/>
	<polygon class="st15" points="1366.55,3641.18 1712.81,3641.18 1712.81,3758.26 1366.55,3758.26 	"/>
	<polygon class="st16" points="1366.55,3641.18 1639.52,3641.18 1639.52,3758.26 1366.55,3758.26 	"/>
	<polygon class="st17" points="1366.55,3641.18 1573.31,3641.18 1573.31,3758.26 1366.55,3758.26 	"/>
	<polygon class="st18" points="1366.55,3641.18 1513.5,3641.18 1513.5,3758.26 1366.55,3758.26 	"/>
	<polygon class="st19" points="1366.55,3641.18 1459.46,3641.18 1459.46,3758.26 1366.55,3758.26 	"/>
	<polygon class="st20" points="1366.55,3641.18 1410.65,3641.18 1410.65,3758.26 1366.55,3758.26 	"/>
	<polygon class="st21" points="2156.88,3758.26 2156.88,3762.24 1366.55,3762.24 1366.55,3758.26 	"/>
	<path class="st22" d="M1366.55,3161.85c167.8,0,304.02,136.23,304.02,304.02s-136.23,304.03-304.02,304.03
		s-304.02-136.23-304.02-304.03S1198.75,3161.85,1366.55,3161.85L1366.55,3161.85z"/>
	<path class="st19" d="M1366.55,3206.39c143.21,0,259.48,116.27,259.48,259.48s-116.27,259.48-259.48,259.48
		s-259.48-116.27-259.48-259.48S1223.34,3206.39,1366.55,3206.39L1366.55,3206.39z"/>
	<path class="st23" d="M1359.77,3206.39c139.47,0,252.7,113.23,252.7,252.7s-113.23,252.7-252.7,252.7s-252.7-113.23-252.7-252.7
		C1107.07,3319.62,1220.3,3206.39,1359.77,3206.39L1359.77,3206.39z"/>
	<path class="st19" d="M1365.75,3218.35c136.17,0,246.72,110.55,246.72,246.72s-110.55,246.72-246.72,246.72
		s-246.72-110.55-246.72-246.72C1119.02,3328.9,1229.58,3218.35,1365.75,3218.35L1365.75,3218.35z"/>
	<path class="st17" d="M1540.17,3290.65c44.66,44.66,72.3,106.34,72.3,174.43c0,136.17-110.55,246.72-246.72,246.72
		c-68.08,0-129.76-27.64-174.42-72.3L1540.17,3290.65L1540.17,3290.65z"/>
	<path class="st24" d="M1366.79,3289.1l-0.39,50.85c-22.81,2.76-40.95,10.11-54.35,22.16c-17.7,15.85-26.67,35.89-26.82,60.08
		c-0.21,26.48-15.04,31.09,3.08,43.68c10.01,7.04,51.71,28.63,76.92,34.83c1.72,0.42,3.18,0.86,4.98,1.28l28.52,6.59
		c6.78,1.54,12.62,3.18,17.93,4.9c7.77,2.48,14.18,5.16,18.79,8c7.77,4.95,11.65,11.89,11.57,20.8
		c-0.1,15.25-8.08,25.62-23.88,31.12c-2.14,0.76-4.46,1.38-6.93,1.93c-2.84,0.6-6.07,1.02-9.33,1.38
		c-4.95,0.55-10.24,0.94-16.19,0.89c-5.29-0.05-10.11-0.5-14.65-1.15c-4.07-0.6-7.87-1.41-11.34-2.5
		c-8.94-2.82-15.95-7.25-20.93-13.4c-4.98-6.12-32.29-29.36-33.91-41.72l-29.82,13.59c-0.21,28.1,9.67,50.26,29.71,66.47
		c14.31,11.57,32.56,19,54.61,22.44l-24.56,36.19l75.71,15.61l0.37-50.8c23.41-2.79,42.36-10.32,56.82-22.63
		c18.98-16.19,28.57-36.6,28.75-61.28c0.18-24.06-41.18-64.22-41.18-64.22s-8.27-5.98-28.63-11.03l-14.6-3.6l-31.83-7.87
		c-7.9-1.96-14.1-3.73-19.58-5.42c-6.96-2.16-12.49-4.25-15.54-6.05c-8.52-4.82-12.72-12.07-12.67-21.71
		c0.08-10.5,4.48-18.64,13.19-24.45c4.41-2.92,9.54-5.08,15.43-6.49c0.49-0.13,1.04-0.16,1.54-0.26c5.4-1.17,11.31-1.8,17.91-1.75
		c3.18,0.03,6.23,0.18,9.15,0.47c2.03,0.21,3.96,0.57,5.89,0.91c0.81,0.13,1.72,0.18,2.53,0.36c0.03,0,0.08,0.03,0.1,0.03
		c2.63,0.55,5.11,1.25,7.48,2.06c2.16,0.73,4.2,1.59,6.15,2.55c0.23,0.1,0.5,0.18,0.73,0.31c0.21,0.1,0.47,0.18,0.68,0.31
		c13.14,6.93,0.17,3.29,1.03,19.56l74.19,15.6c-0.76-28.72-11.13-50.67-31.1-65.9c-13.01-9.91-27.86-16.58-44.44-20.15l-23.81-67.48
		L1366.79,3289.1L1366.79,3289.1z"/>
	<path class="st25" d="M1342.59,3273.86l-0.39,50.85c-22.81,2.76-40.95,10.11-54.35,22.16c-17.7,15.85-26.66,35.89-26.82,60.08
		c-0.21,26.48,8.73,46.03,26.85,58.62c10.01,7.04,27.94,13.69,53.15,19.89c1.72,0.42,3.18,0.86,4.98,1.28l28.52,6.59
		c6.78,1.54,12.62,3.18,17.93,4.9c7.77,2.48,14.18,5.16,18.79,8c7.77,4.95,11.65,11.89,11.57,20.8
		c-0.11,15.25-8.08,25.62-23.88,31.12c-2.14,0.76-4.46,1.38-6.93,1.93c-2.84,0.6-6.07,1.02-9.33,1.38
		c-4.95,0.55-10.24,0.94-16.19,0.89c-5.29-0.05-10.11-0.49-14.65-1.15c-4.07-0.6-7.87-1.41-11.34-2.5
		c-8.94-2.81-15.95-7.25-20.93-13.4c-4.98-6.12-8.26-15.38-9.88-27.73l-53.85-0.39c-0.21,28.1,9.67,50.26,29.72,66.47
		c14.31,11.57,32.56,19,54.61,22.44l-0.36,51.43l51.51,0.36l0.36-50.8c23.41-2.79,42.36-10.32,56.82-22.63
		c18.98-16.19,28.57-36.6,28.75-61.28c0.18-24.06-7.77-42.46-23.8-55.29c-10.32-8.26-25.65-14.91-46.01-19.97l-14.6-3.6l-31.83-7.87
		c-7.9-1.96-14.1-3.73-19.58-5.42c-6.96-2.16-12.49-4.25-15.54-6.05c-8.52-4.82-12.72-12.07-12.67-21.71
		c0.08-10.51,4.48-18.64,13.19-24.45c4.41-2.92,9.54-5.08,15.43-6.49c0.5-0.13,1.04-0.16,1.54-0.26c5.4-1.17,11.31-1.8,17.91-1.75
		c3.18,0.03,6.23,0.18,9.15,0.47c2.03,0.21,3.96,0.57,5.89,0.91c0.81,0.13,1.72,0.18,2.53,0.37c0.03,0,0.08,0.03,0.1,0.03
		c2.63,0.55,5.11,1.25,7.48,2.06c2.16,0.73,4.2,1.59,6.15,2.55c0.23,0.1,0.49,0.18,0.73,0.31c0.21,0.1,0.47,0.18,0.68,0.31
		c13.14,6.93,20.18,18.51,21.04,34.77l54.19,0.39c-0.76-28.72-11.13-50.67-31.1-65.9c-13.01-9.9-27.86-16.58-44.44-20.15l0.39-52.24
		L1342.59,3273.86L1342.59,3273.86z"/>
	<polygon class="st8" points="2343.02,3528.78 3076.81,3235.19 3120.3,3343.89 2386.52,3637.48 	"/>
	<polygon class="st9" points="2343.02,3528.78 3005.67,3263.66 3049.16,3372.36 2386.52,3637.48 	"/>
	<polygon class="st10" points="2343.02,3528.78 2939.06,3290.31 2982.55,3399.01 2386.52,3637.48 	"/>
	<polygon class="st11" points="2343.02,3528.78 2876.69,3315.26 2920.18,3423.96 2386.52,3637.48 	"/>
	<polygon class="st12" points="2343.02,3528.78 2818.3,3338.62 2861.79,3447.32 2386.52,3637.48 	"/>
	<polygon class="st13" points="2343.02,3528.78 2763.63,3360.5 2807.12,3469.19 2386.52,3637.48 	"/>
	<polygon class="st14" points="2343.02,3528.78 2712.44,3380.98 2755.93,3489.68 2386.52,3637.48 	"/>
	<polygon class="st15" points="2343.02,3528.78 2664.52,3400.15 2708.01,3508.85 2386.52,3637.48 	"/>
	<polygon class="st16" points="2343.02,3528.78 2596.47,3427.38 2639.96,3536.08 2386.52,3637.48 	"/>
	<polygon class="st17" points="2343.02,3528.78 2534.99,3451.97 2578.49,3560.67 2386.52,3637.48 	"/>
	<polygon class="st18" points="2343.02,3528.78 2479.46,3474.19 2522.95,3582.89 2386.52,3637.48 	"/>
	<polygon class="st19" points="2343.02,3528.78 2429.29,3494.27 2472.78,3602.96 2386.52,3637.48 	"/>
	<polygon class="st20" points="2343.02,3528.78 2383.97,3512.4 2427.46,3621.1 2386.52,3637.48 	"/>
	<polygon class="st21" points="3120.3,3343.89 3121.78,3347.59 2388,3641.18 2386.52,3637.48 	"/>
	<polygon class="st8" points="2343.02,3641.18 3133.36,3641.18 3133.36,3758.26 2343.02,3758.26 	"/>
	<polygon class="st9" points="2343.02,3641.18 3056.74,3641.18 3056.74,3758.26 2343.02,3758.26 	"/>
	<polygon class="st10" points="2343.02,3641.18 2984.99,3641.18 2984.99,3758.26 2343.02,3758.26 	"/>
	<polygon class="st11" points="2343.02,3641.18 2917.82,3641.18 2917.82,3758.26 2343.02,3758.26 	"/>
	<polygon class="st12" points="2343.02,3641.18 2854.93,3641.18 2854.93,3758.26 2343.02,3758.26 	"/>
	<polygon class="st13" points="2343.02,3641.18 2796.05,3641.18 2796.05,3758.26 2343.02,3758.26 	"/>
	<polygon class="st14" points="2343.02,3641.18 2740.91,3641.18 2740.91,3758.26 2343.02,3758.26 	"/>
	<polygon class="st15" points="2343.02,3641.18 2689.29,3641.18 2689.29,3758.26 2343.02,3758.26 	"/>
	<polygon class="st16" points="2343.02,3641.18 2616,3641.18 2616,3758.26 2343.02,3758.26 	"/>
	<polygon class="st17" points="2343.02,3641.18 2549.79,3641.18 2549.79,3758.26 2343.02,3758.26 	"/>
	<polygon class="st18" points="2343.02,3641.18 2489.98,3641.18 2489.98,3758.26 2343.02,3758.26 	"/>
	<polygon class="st19" points="2343.02,3641.18 2435.94,3641.18 2435.94,3758.26 2343.02,3758.26 	"/>
	<polygon class="st20" points="2343.02,3641.18 2387.12,3641.18 2387.12,3758.26 2343.02,3758.26 	"/>
	<polygon class="st21" points="3133.36,3758.26 3133.36,3762.24 2343.02,3762.24 2343.02,3758.26 	"/>
	<polygon class="st8" points="2988.7,3149.42 3768.23,3279.65 3748.94,3395.12 2969.41,3264.9 	"/>
	<polygon class="st9" points="2988.7,3149.42 3692.66,3267.02 3673.37,3382.5 2969.41,3264.9 	"/>
	<polygon class="st10" points="2988.7,3149.42 3621.9,3255.2 3602.61,3370.68 2969.41,3264.9 	"/>
	<polygon class="st11" points="2988.7,3149.42 3555.65,3244.13 3536.35,3359.61 2969.41,3264.9 	"/>
	<polygon class="st12" points="2988.7,3149.42 3493.61,3233.77 3474.32,3349.25 2969.41,3264.9 	"/>
	<polygon class="st13" points="2988.7,3149.42 3435.53,3224.07 3416.24,3339.54 2969.41,3264.9 	"/>
	<polygon class="st14" points="2988.7,3149.42 3381.15,3214.98 3361.86,3330.46 2969.41,3264.9 	"/>
	<polygon class="st15" points="2988.7,3149.42 3330.24,3206.48 3310.95,3321.95 2969.41,3264.9 	"/>
	<polygon class="st16" points="2988.7,3149.42 3257.95,3194.4 3238.66,3309.88 2969.41,3264.9 	"/>
	<polygon class="st17" points="2988.7,3149.42 3192.64,3183.49 3173.35,3298.97 2969.41,3264.9 	"/>
	<polygon class="st18" points="2988.7,3149.42 3133.65,3173.63 3114.35,3289.11 2969.41,3264.9 	"/>
	<polygon class="st19" points="2988.7,3149.42 3080.35,3164.73 3061.06,3280.21 2969.41,3264.9 	"/>
	<polygon class="st20" points="2988.7,3149.42 3032.2,3156.69 3012.91,3272.16 2969.41,3264.9 	"/>
	<polygon class="st21" points="3748.94,3395.12 3748.29,3399.06 2968.76,3268.83 2969.41,3264.9 	"/>
	<polygon class="st8" points="2977.9,3399.06 3768.23,3399.06 3768.23,3516.13 2977.9,3516.13 	"/>
	<polygon class="st9" points="2977.9,3399.06 3691.61,3399.06 3691.61,3516.13 2977.9,3516.13 	"/>
	<polygon class="st10" points="2977.9,3399.06 3619.87,3399.06 3619.87,3516.13 2977.9,3516.13 	"/>
	<polygon class="st11" points="2977.9,3399.06 3552.7,3399.06 3552.7,3516.13 2977.9,3516.13 	"/>
	<polygon class="st12" points="2977.9,3399.06 3489.81,3399.06 3489.81,3516.13 2977.9,3516.13 	"/>
	<polygon class="st13" points="2977.9,3399.06 3430.92,3399.06 3430.92,3516.13 2977.9,3516.13 	"/>
	<polygon class="st14" points="2977.9,3399.06 3375.79,3399.06 3375.79,3516.13 2977.9,3516.13 	"/>
	<polygon class="st15" points="2977.9,3399.06 3324.17,3399.06 3324.17,3516.13 2977.9,3516.13 	"/>
	<polygon class="st16" points="2977.9,3399.06 3250.88,3399.06 3250.88,3516.13 2977.9,3516.13 	"/>
	<polygon class="st17" points="2977.9,3399.06 3184.67,3399.06 3184.67,3516.13 2977.9,3516.13 	"/>
	<polygon class="st18" points="2977.9,3399.06 3124.85,3399.06 3124.85,3516.13 2977.9,3516.13 	"/>
	<polygon class="st19" points="2977.9,3399.06 3070.82,3399.06 3070.82,3516.13 2977.9,3516.13 	"/>
	<polygon class="st20" points="2977.9,3399.06 3022,3399.06 3022,3516.13 2977.9,3516.13 	"/>
	<polygon class="st21" points="3768.23,3516.13 3768.23,3520.12 2977.9,3520.12 2977.9,3516.13 	"/>
	<polygon class="st8" points="2977.9,3520.12 3768.23,3520.12 3768.23,3637.19 2977.9,3637.19 	"/>
	<polygon class="st9" points="2977.9,3520.12 3691.61,3520.12 3691.61,3637.19 2977.9,3637.19 	"/>
	<polygon class="st10" points="2977.9,3520.12 3619.87,3520.12 3619.87,3637.19 2977.9,3637.19 	"/>
	<polygon class="st11" points="2977.9,3520.12 3552.7,3520.12 3552.7,3637.19 2977.9,3637.19 	"/>
	<polygon class="st12" points="2977.9,3520.12 3489.81,3520.12 3489.81,3637.19 2977.9,3637.19 	"/>
	<polygon class="st13" points="2977.9,3520.12 3430.92,3520.12 3430.92,3637.19 2977.9,3637.19 	"/>
	<polygon class="st14" points="2977.9,3520.12 3375.79,3520.12 3375.79,3637.19 2977.9,3637.19 	"/>
	<polygon class="st15" points="2977.9,3520.12 3324.17,3520.12 3324.17,3637.19 2977.9,3637.19 	"/>
	<polygon class="st16" points="2977.9,3520.12 3250.88,3520.12 3250.88,3637.19 2977.9,3637.19 	"/>
	<polygon class="st17" points="2977.9,3520.12 3184.67,3520.12 3184.67,3637.19 2977.9,3637.19 	"/>
	<polygon class="st18" points="2977.9,3520.12 3124.85,3520.12 3124.85,3637.19 2977.9,3637.19 	"/>
	<polygon class="st19" points="2977.9,3520.12 3070.82,3520.12 3070.82,3637.19 2977.9,3637.19 	"/>
	<polygon class="st20" points="2977.9,3520.12 3022,3520.12 3022,3637.19 2977.9,3637.19 	"/>
	<polygon class="st21" points="3768.23,3637.19 3768.23,3641.18 2977.9,3641.18 2977.9,3637.19 	"/>
	<polygon class="st8" points="2977.9,3641.18 3768.23,3641.18 3768.23,3758.26 2977.9,3758.26 	"/>
	<polygon class="st9" points="2977.9,3641.18 3691.61,3641.18 3691.61,3758.26 2977.9,3758.26 	"/>
	<polygon class="st10" points="2977.9,3641.18 3619.87,3641.18 3619.87,3758.26 2977.9,3758.26 	"/>
	<polygon class="st11" points="2977.9,3641.18 3552.7,3641.18 3552.7,3758.26 2977.9,3758.26 	"/>
	<polygon class="st12" points="2977.9,3641.18 3489.81,3641.18 3489.81,3758.26 2977.9,3758.26 	"/>
	<polygon class="st13" points="2977.9,3641.18 3430.92,3641.18 3430.92,3758.26 2977.9,3758.26 	"/>
	<polygon class="st14" points="2977.9,3641.18 3375.79,3641.18 3375.79,3758.26 2977.9,3758.26 	"/>
	<polygon class="st15" points="2977.9,3641.18 3324.17,3641.18 3324.17,3758.26 2977.9,3758.26 	"/>
	<polygon class="st16" points="2977.9,3641.18 3250.88,3641.18 3250.88,3758.26 2977.9,3758.26 	"/>
	<polygon class="st17" points="2977.9,3641.18 3184.67,3641.18 3184.67,3758.26 2977.9,3758.26 	"/>
	<polygon class="st18" points="2977.9,3641.18 3124.85,3641.18 3124.85,3758.26 2977.9,3758.26 	"/>
	<polygon class="st19" points="2977.9,3641.18 3070.82,3641.18 3070.82,3758.26 2977.9,3758.26 	"/>
	<polygon class="st20" points="2977.9,3641.18 3022,3641.18 3022,3758.26 2977.9,3758.26 	"/>
	<polygon class="st21" points="3768.23,3758.26 3768.23,3762.24 2977.9,3762.24 2977.9,3758.26 	"/>
	<line class="st26" x1="43.14" y1="3760.25" x2="4386.56" y2="3747.39"/>
	<g>
		<path class="st19" d="M2187.46,592.3c130.82,0,237.03,106.21,237.03,237.03c0,130.82-106.21,237.03-237.03,237.03
			c-130.82,0-237.03-106.21-237.03-237.03C1950.43,698.51,2056.64,592.3,2187.46,592.3L2187.46,592.3z"/>
		<path class="st23" d="M2181.27,592.3c127.4,0,230.84,103.43,230.84,230.84c0,127.4-103.43,230.84-230.84,230.84
			s-230.84-103.43-230.84-230.84C1950.43,695.74,2053.86,592.3,2181.27,592.3L2181.27,592.3z"/>
		<path class="st19" d="M2186.73,603.22c124.39,0,225.37,100.99,225.37,225.37c0,124.39-100.99,225.37-225.37,225.37
			c-124.39,0-225.37-100.99-225.37-225.37C1961.35,704.21,2062.34,603.22,2186.73,603.22L2186.73,603.22z"/>
		<path class="st17" d="M2346.06,669.27c40.8,40.8,66.04,97.14,66.04,159.33c0,124.39-100.99,225.37-225.37,225.37
			c-62.19,0-118.54-25.25-159.33-66.04L2346.06,669.27L2346.06,669.27z"/>
		<path class="st24" d="M2187.68,667.85l-0.36,46.45c-20.83,2.52-37.41,9.24-49.65,20.24c-16.17,14.48-24.36,32.79-24.5,54.88
			c-0.19,24.19-13.74,28.4,2.81,39.9c9.14,6.43,47.24,26.15,70.26,31.82c1.57,0.38,2.9,0.79,4.55,1.17l26.05,6.02
			c6.19,1.4,11.52,2.9,16.38,4.48c7.1,2.26,12.95,4.71,17.17,7.31c7.1,4.52,10.64,10.86,10.57,19c-0.1,13.93-7.38,23.41-21.81,28.43
			c-1.95,0.69-4.07,1.26-6.33,1.76c-2.6,0.55-5.55,0.93-8.52,1.26c-4.52,0.5-9.36,0.86-14.79,0.81c-4.83-0.05-9.24-0.45-13.38-1.05
			c-3.71-0.55-7.19-1.29-10.36-2.29c-8.17-2.57-14.57-6.62-19.12-12.24c-4.55-5.6-29.5-26.82-30.97-38.11l-27.24,12.42
			c-0.19,25.67,8.83,45.91,27.14,60.72c13.07,10.57,29.74,17.36,49.88,20.5l-22.44,33.05l69.16,14.26l0.33-46.41
			c21.38-2.55,38.69-9.43,51.91-20.67c17.33-14.79,26.1-33.43,26.26-55.98c0.17-21.98-37.62-58.66-37.62-58.66
			s-7.55-5.46-26.15-10.08l-13.33-3.29l-29.07-7.19c-7.21-1.79-12.88-3.4-17.88-4.95c-6.36-1.98-11.41-3.88-14.19-5.52
			c-7.79-4.41-11.62-11.02-11.57-19.83c0.07-9.6,4.1-17.02,12.05-22.33c4.02-2.67,8.71-4.64,14.1-5.93
			c0.45-0.12,0.95-0.14,1.41-0.24c4.93-1.07,10.33-1.64,16.36-1.6c2.9,0.02,5.69,0.17,8.36,0.43c1.86,0.19,3.62,0.52,5.38,0.83
			c0.74,0.12,1.57,0.17,2.31,0.33c0.02,0,0.07,0.02,0.1,0.02c2.4,0.5,4.67,1.14,6.83,1.88c1.98,0.67,3.83,1.45,5.62,2.33
			c0.21,0.1,0.45,0.17,0.67,0.29c0.19,0.1,0.43,0.17,0.62,0.29c12,6.33,0.16,3.01,0.94,17.87l67.77,14.25
			c-0.69-26.24-10.17-46.29-28.41-60.19c-11.88-9.05-25.45-15.14-40.6-18.41l-21.75-61.64L2187.68,667.85L2187.68,667.85z"/>
		<path class="st25" d="M2165.58,653.93l-0.36,46.46c-20.83,2.52-37.41,9.24-49.65,20.24c-16.17,14.48-24.36,32.79-24.5,54.88
			c-0.19,24.19,7.98,42.05,24.53,53.55c9.14,6.43,25.53,12.5,48.55,18.17c1.57,0.38,2.9,0.79,4.55,1.17l26.05,6.02
			c6.19,1.4,11.52,2.91,16.38,4.48c7.1,2.26,12.95,4.71,17.17,7.31c7.1,4.52,10.64,10.86,10.57,19
			c-0.1,13.93-7.38,23.41-21.81,28.43c-1.95,0.69-4.07,1.26-6.33,1.76c-2.6,0.55-5.55,0.93-8.52,1.26
			c-4.52,0.5-9.36,0.86-14.79,0.81c-4.83-0.05-9.24-0.45-13.38-1.05c-3.71-0.55-7.19-1.29-10.36-2.29
			c-8.17-2.57-14.57-6.62-19.12-12.24c-4.55-5.6-7.55-14.05-9.02-25.33l-49.19-0.36c-0.19,25.67,8.83,45.91,27.14,60.72
			c13.07,10.57,29.74,17.36,49.88,20.5l-0.33,46.98l47.05,0.33l0.33-46.41c21.38-2.55,38.69-9.43,51.91-20.67
			c17.33-14.79,26.1-33.43,26.26-55.98c0.17-21.98-7.1-38.79-21.74-50.5c-9.43-7.55-23.43-13.62-42.03-18.24l-13.33-3.29
			l-29.07-7.19c-7.21-1.79-12.88-3.4-17.88-4.95c-6.36-1.98-11.41-3.88-14.19-5.52c-7.79-4.41-11.62-11.02-11.57-19.83
			c0.07-9.6,4.1-17.02,12.05-22.33c4.02-2.67,8.71-4.64,14.1-5.93c0.45-0.12,0.95-0.14,1.4-0.24c4.93-1.07,10.33-1.64,16.36-1.6
			c2.9,0.02,5.69,0.17,8.36,0.43c1.86,0.19,3.62,0.52,5.38,0.83c0.74,0.12,1.57,0.17,2.31,0.33c0.02,0,0.07,0.02,0.1,0.02
			c2.4,0.5,4.67,1.14,6.83,1.88c1.98,0.67,3.83,1.45,5.62,2.33c0.21,0.1,0.45,0.17,0.67,0.29c0.19,0.1,0.43,0.17,0.62,0.29
			c12,6.33,18.43,16.91,19.21,31.76l49.5,0.36c-0.69-26.24-10.17-46.29-28.41-60.19c-11.88-9.05-25.45-15.14-40.6-18.41l0.36-47.72
			L2165.58,653.93L2165.58,653.93z"/>
	</g>
</g>
<polygon class="st2" points="3772.32,2600.45 3046.11,2600.45 3180.53,2427.01 3181.53,2421.26 3184.98,2421.26 3409.21,2131.95 "/>
</svg>
