<svg width="510" height="398" viewBox="0 0 510 398" fill="none" xmlns="http://www.w3.org/2000/svg">
<path d="M441.891 273.606C443.124 270.636 444.377 267.661 447.574 266.157C450.162 264.94 452.865 265.399 455.165 267.129C461.679 272.034 456.003 277.438 463.419 286.739C465.723 289.629 468.512 291.962 469.893 295.349C471.825 300.089 469.523 302.366 465.834 304.636C448.183 315.499 438.93 293.195 439.263 288.093C439.51 284.298 441.098 275.517 441.891 273.606Z" fill="#131313"/>
<path d="M431.261 372.511C432.132 376.452 433.501 379.9 433.686 380.305C433.775 380.499 434.587 381.194 434.684 381.393C434.429 386.245 431.448 389.225 428.628 391.374C429.171 388.912 430.471 386.065 430.272 385.529C429.955 384.675 428.701 380.772 426.15 375.896C428.547 375.541 429.353 374.047 431.261 372.511Z" fill="#F7A491"/>
<path d="M442.155 314.879L457.182 326.306C457.182 326.306 449.742 333.473 446.95 336.137C444.159 338.801 426.94 351.205 426.696 351.814C426.516 352.267 430.614 366.527 433.257 374.139C431.669 375.765 428.171 377.358 426.1 377.883C420.89 367.929 414.488 350.944 414.488 348.638C414.489 344.881 442.155 314.879 442.155 314.879Z" fill="#131313"/>
<path d="M484.308 337.677C483.817 338.156 480.554 344.518 479.313 347.924C477.496 346.778 476.397 345.414 474.367 344.643C475.968 342.322 479.092 336.739 479.349 335.41C479.958 332.257 480.673 331.792 480.673 331.792C480.673 331.792 491.23 335.368 491.933 336.37C492.636 337.372 486.282 335.75 484.308 337.677Z" fill="#F7A491"/>
<path d="M479.226 336.108C478.407 336.111 479.296 332.404 479.484 331.551C479.696 330.59 480.251 330.302 480.389 330.268C480.764 330.176 492.496 334.15 494.479 335.577C494.613 335.673 494.854 335.979 494.891 336.048C495.976 338.076 486.304 338.462 484.912 337.575C483.674 336.787 482.91 336.099 479.226 336.108Z" fill="#3C8F7C"/>
<path d="M438.947 318.254C438.947 318.254 452.062 312.948 452.064 312.947C452.012 312.97 452.144 313.481 452.154 313.521C453.385 318.317 459.949 316.467 462.657 324.795C464.571 330.68 467.373 352.689 467.373 352.689C467.373 352.689 469.36 348.906 475.531 341.945C476.009 341.405 482.089 345.586 482.089 345.586C477.568 357.587 466.465 367.339 464.962 366.649C454.806 361.983 442.606 325.173 442.622 325.176C441.467 322.924 438.947 318.254 438.947 318.254Z" fill="#131313"/>
<path d="M438.461 279.515C438.461 279.515 432.31 269.764 431.24 266.521C430.17 263.279 431.231 247.827 431.333 246.73C431.434 245.632 435.153 242.63 434.567 241.767C433.981 240.904 428.849 240.2 427.987 240.369C427.126 240.537 425.451 240.383 424.766 241.078C424.677 241.169 426.4 245.237 426.364 245.867C426.119 250.172 423.677 263.879 424.476 267.586C425.396 271.847 434.531 285.467 434.531 285.467L438.461 279.515Z" fill="#F7A491"/>
<path d="M460.801 285.194C460.801 285.194 477.257 285.604 480.871 285.901C484.484 286.198 497.595 285.106 498.102 285.047C498.61 284.988 501.969 279.293 502.527 279.904C503.085 280.516 500.658 282.728 501.409 283.302C502.159 283.876 510.223 282.59 510.116 283.187C509.916 284.304 505.211 284.162 505.216 284.701C505.221 285.24 510.14 284.398 510.474 285.293C510.807 286.188 505.742 285.658 505.539 286.058C505.337 286.457 510.237 287.189 509.736 288.021C509.464 288.473 505.394 287.266 505.414 287.882C505.434 288.498 508.403 289.9 508.039 290.391C507.675 290.882 505.709 288.885 503.986 288.86C502.263 288.835 501.03 287.935 498.28 288.691C495.53 289.446 486.157 293.23 480.29 292.952C474.423 292.673 461.458 292.093 461.458 292.093L460.801 285.194Z" fill="#F7A491"/>
<path d="M436.646 302.4C436.423 299.683 436.044 292.35 436.166 291.448C435.344 288.625 432.349 284.441 431.721 283.257C431.721 283.257 435.784 278.648 438.797 278.687C438.797 278.687 442.003 282.74 444.382 283.982C444.417 283.973 445.224 284.342 445.579 284.339C447.876 284.323 455.903 284.079 457.401 284.527L456.552 296.946C456.121 297.658 455.597 311.937 454.709 313.112C453.821 314.287 440.9 319.637 438.759 318.257C438.674 318.203 437.099 307.894 436.646 302.4Z" fill="#50BFA5"/>
<path d="M453.221 284.815C454.701 284.107 465.518 284.13 465.518 284.13C465.518 284.13 467.015 291.6 465.805 293.395C465.805 293.395 456.225 294.823 456.498 295.61L453.221 284.815Z" fill="#50BFA5"/>
<path d="M450.816 279.765C450.816 279.765 449.984 284.073 450.151 285.773C450.317 287.473 449.516 292.949 445.923 292.967C442.331 292.985 445.241 286.004 445.58 284.339C445.918 282.674 445.998 277.519 445.998 277.519L450.816 279.765Z" fill="#F7A491"/>
<path d="M445.924 280.105C445.98 278.695 445.998 277.519 445.998 277.519L450.815 279.765C450.815 279.765 450.645 280.647 450.474 281.769C448.366 282.193 446.838 281.412 445.924 280.105Z" fill="#F47458"/>
<path d="M452.578 267.877C452.578 267.877 454.434 268.908 455.113 271.143C455.791 273.378 455.019 279.145 450.223 280.536C445.428 281.928 443.35 277.361 444.338 273.791C445.325 270.221 447.474 265.7 452.578 267.877Z" fill="#F7A491"/>
<path d="M443.739 272.408C443.833 273.367 444.361 274.099 444.919 274.045C445.477 273.99 445.854 273.168 445.76 272.209C445.665 271.25 445.137 270.517 444.579 270.572C444.021 270.627 443.645 271.449 443.739 272.408Z" fill="#F7A491"/>
<path d="M433.728 380.422C434.004 379.651 437.144 381.971 437.882 382.438C438.713 382.964 438.794 383.585 438.779 383.727C438.74 384.102 431.293 393.961 429.064 395.364C428.854 395.497 428.402 395.516 428.267 395.469C426.987 395.026 428.772 387.107 430.378 385.5C431.415 384.462 432.484 383.894 433.728 380.422Z" fill="#3C8F7C"/>
<path d="M461.051 233.104L447.839 237.807C447.166 238.046 446.654 238.603 446.47 239.296L442.854 252.895C442.39 254.64 440.134 255.09 439.036 253.657L430.481 242.487C430.046 241.919 429.359 241.601 428.646 241.638L414.642 242.368C412.846 242.462 411.719 240.447 412.736 238.958L420.66 227.352C421.063 226.761 421.151 226.008 420.895 225.338L415.856 212.19C415.21 210.503 416.769 208.808 418.495 209.321L431.947 213.318C432.633 213.521 433.373 213.373 433.928 212.922L444.817 204.066C446.214 202.93 448.305 203.897 448.355 205.703L448.744 219.779C448.764 220.496 449.134 221.158 449.734 221.548L461.503 229.223C463.013 230.207 462.745 232.501 461.051 233.104Z" fill="#F7CC7F"/>
<path d="M434.479 241.903C434.971 242.627 432.301 244.923 431.561 246.191L429.885 243.905C430.711 243.743 433.916 241.075 434.479 241.903Z" fill="#F7A491"/>
<path d="M452.016 267.586C452.016 267.586 452.885 274.019 454.963 275.18C457.04 276.341 456.17 279.195 456.17 279.195C456.17 279.195 458.055 272.568 456.412 270.44C454.77 268.312 452.016 267.586 452.016 267.586Z" fill="#131313"/>
<path d="M453.73 276.102C453.166 276.94 453.169 277.929 453.734 278.31C454.3 278.691 455.216 278.321 455.779 277.483C456.343 276.645 456.34 275.656 455.774 275.275C455.208 274.894 454.293 275.264 453.73 276.102Z" fill="#F7A491"/>
<path d="M430.441 242.443C430.453 242.459 430.467 242.472 430.48 242.488L431.088 243.282C430.64 243.16 429.789 242.919 428.959 243.487C428.959 243.487 429.232 242.9 430.441 242.443Z" fill="#F47257"/>
<path d="M69.3997 313.926C69.5615 313.993 67.2597 316.963 65.0176 319.064C63.2096 321.335 61.5139 324.024 60.9307 326.956C60.0434 331.414 60.7813 353.437 60.0089 355.005C53.3745 361.499 48.5701 377.797 47.2212 382.77C46.9583 383.739 46.426 384.612 45.6875 385.292L45.9827 390.911L49.2792 393.951C49.2792 393.951 48.5459 389.372 50.0112 385.976C50.0112 385.976 66.7155 360.648 67.7072 358.712C69.6018 353.198 76.5006 324.95 76.5006 324.95L78.1019 318.457C78.1019 318.457 69.4135 313.931 69.3997 313.926Z" fill="#F7A491"/>
<path d="M42.0781 387.099C42.0781 387.099 44.1644 390.318 44.3428 391.573C44.5212 392.827 45.6324 395.673 46.8615 395.853C47.1406 395.894 51.9208 396.245 51.8861 395.647C51.8594 395.19 50.1292 394.537 49.3256 393.981C47.9367 393.021 45.7813 385.199 45.7813 385.199C45.7813 385.199 42.1683 386.096 42.0781 387.099Z" fill="#F47458"/>
<path d="M83.6773 323.686C83.6773 323.686 94.4366 346.718 94.5052 350.768C94.5639 354.239 92.6246 373.715 93.1661 389.933C93.1855 390.519 93.9264 391.297 95.0045 391.792C95.6113 392.07 98.5413 393.38 98.5413 393.38L98.9439 394.43L88.8531 393.71L88.7094 390.952C88.7094 390.952 84.6933 366.69 85.1029 359.829C85.1672 358.751 85.6906 352.297 85.6906 352.297L73.5566 328.841L81.1882 318.801L83.6773 323.686Z" fill="#F7A491"/>
<path d="M84.6857 271.988C83.0553 267.639 78.7964 265.007 74.3613 265.82C73.0003 263.621 70.731 261.988 68.2626 261.459C63.3928 260.414 56.8074 262.34 56.985 267.503C55.096 270.971 55.0231 275.929 57.914 278.567C56.9083 283.231 61.2708 287.74 66.9418 287.576C68.9166 290.836 72.679 292.933 76.4206 292.486C77.3187 292.379 78.688 292.154 78.9148 292.21C78.6298 292.158 84.9249 296.99 90.2592 289.559C95.7028 281.976 91.8783 272.797 84.6857 271.988Z" fill="#131313"/>
<path d="M84.045 245.904C84.3077 245.281 84.6323 244.686 85.0139 244.127L85.4337 243.513C85.4854 243.405 85.526 243.313 85.5468 243.251C85.7306 242.708 85.5898 240.958 85.5898 240.958L81.9093 241.85L81.1019 243.976C80.2824 243.598 78.8835 240.746 78.3724 241.43C77.7688 242.24 80.0424 245.745 80.2224 246.694C80.4022 247.644 78.2672 262.381 77.6509 265.307C77.0346 268.233 72.8691 276.404 72.8691 276.404L76.6786 281.244C76.6786 281.244 82.7853 268.788 83.1871 264.985C83.2293 264.585 83.277 263.986 83.3278 263.245L84.045 245.904Z" fill="#F7A491"/>
<path d="M58.672 292.052L54.1485 288.212C54.1485 288.212 50.4863 294.326 47.5523 299.311C44.6417 298.259 37.1219 293.35 36.7507 293.124C36.3785 292.898 35.5545 287.35 34.9175 287.645C34.2802 287.94 35.407 290.573 34.6338 290.77C33.8609 290.967 28.0707 287.093 27.9517 287.61C27.7294 288.578 31.4084 290.121 31.2229 290.553C31.0372 290.985 27.5246 288.575 26.9651 289.177C26.4056 289.779 30.4941 291.137 30.5151 291.53C30.5364 291.922 26.5074 290.783 26.6134 291.629C26.671 292.088 30.2194 292.552 29.996 293.04C29.7729 293.528 27.0082 293.609 27.1234 294.132C27.2388 294.655 29.4303 293.742 30.7684 294.329C32.1065 294.916 33.3622 294.627 35.2297 296.203C37.0958 297.777 46.2697 306.769 49.1286 305.998C51.6247 305.325 58.672 292.052 58.672 292.052Z" fill="#F7A491"/>
<path d="M59.0156 351.351C59.0174 351.355 59.0186 351.355 59.0196 351.351C59.0191 351.351 59.0156 351.351 59.0156 351.351Z" fill="#F47458"/>
<path d="M74.4071 286.339C74.6964 284.568 77.4336 280.136 77.8656 279.049C77.8656 279.049 74.6923 275.012 72.1163 275.317C72.1163 275.317 68.6545 281.063 66.6862 281.256C64.7181 281.449 57.7951 281.75 56.5816 282.487C55.3682 283.224 50.2188 291.14 50.2188 291.14C50.2188 291.14 54.8461 295.871 56.7076 295.861C56.7076 295.861 57.6972 293.911 58.0914 293.484C58.3719 294.39 62.683 308.376 62.677 311.543L62.7101 311.57C66.7405 314.843 72.6206 314.086 75.7287 309.895C75.7287 309.895 75.3633 305.535 75.5705 301.515C75.8953 295.217 77.1685 291.87 74.4071 286.339Z" fill="#F47458"/>
<path d="M96.8482 340.442L75.7306 309.896C74.428 310.425 73.1971 310.884 71.8049 311.153C68.777 311.739 65.7448 311.644 62.6789 311.545C62.6786 311.659 62.6727 311.76 62.6609 311.845C62.3083 314.363 58.9722 318.262 58.2846 325.904C57.5039 334.578 57.976 349.645 58.2405 350.634C72.2793 348.925 92.8641 344.628 96.8482 340.442Z" fill="#131313"/>
<path d="M84.5307 243.609C84.5307 243.609 83.2036 244.499 82.0763 244.212C80.9489 243.924 80.4316 243.506 80.4316 243.506C80.4316 243.506 81.0544 244.644 81.9743 245.139C83.5607 245.992 84.5307 243.609 84.5307 243.609Z" fill="#F47458"/>
<path d="M58.3444 237.307L70.6232 234.771C71.2487 234.641 71.8956 234.842 72.3529 235.308L81.3314 244.447C82.483 245.619 84.4185 244.905 84.6066 243.238L86.072 230.242C86.1468 229.58 86.5282 229 87.0925 228.69L98.1667 222.604C99.5874 221.824 99.5319 219.677 98.0728 218.972L86.6996 213.477C86.1204 213.197 85.7092 212.637 85.6007 211.98L83.4666 199.079C83.1929 197.425 81.2232 196.813 80.1335 198.044L71.6389 207.643C71.2061 208.132 70.5707 208.367 69.9394 208.271L57.5462 206.384C55.9565 206.142 54.7944 207.909 55.58 209.376L61.7034 220.803C62.0153 221.385 62.0336 222.09 61.7518 222.688L56.2267 234.422C55.5178 235.928 56.7693 237.632 58.3444 237.307Z" fill="#F7CC7F"/>
<path d="M63.123 276.166C63.123 276.166 63.8658 280.171 63.717 281.751C63.5684 283.33 64.2835 288.421 67.4907 288.438C70.6981 288.455 68.0997 281.965 67.7975 280.417C67.4952 278.869 67.4239 274.077 67.4239 274.077L63.123 276.166Z" fill="#F7A491"/>
<path d="M67.4904 276.481C67.4403 275.171 67.4242 274.077 67.4242 274.077L63.123 276.166C63.123 276.166 63.2751 276.985 63.4277 278.028C65.3105 278.423 66.6747 277.696 67.4904 276.481Z" fill="#F47458"/>
<path d="M61.5525 265.112C61.5525 265.112 59.8952 266.071 59.2894 268.148C58.6833 270.226 59.3731 275.587 63.654 276.88C67.9353 278.174 69.7901 273.929 68.9081 270.61C68.0265 267.291 66.1085 263.088 61.5525 265.112Z" fill="#F7A491"/>
<path d="M69.4415 269.324C69.3576 270.216 68.8861 270.897 68.3879 270.846C67.8898 270.795 67.5539 270.031 67.6379 269.14C67.7216 268.248 68.1933 267.567 68.6915 267.618C69.1896 267.669 69.5255 268.433 69.4415 269.324Z" fill="#F7A491"/>
<path d="M60.5217 272.759C61.0247 273.538 61.0228 274.457 60.5176 274.812C60.0125 275.166 59.1952 274.822 58.6924 274.043C58.1894 273.263 58.1913 272.345 58.6965 271.99C59.2016 271.636 60.019 271.98 60.5217 272.759Z" fill="#F7A491"/>
<path d="M85.1539 238.717C84.3237 238.556 80.8097 241.317 80.8409 241.729C80.8735 242.157 84.3021 240.392 84.3993 240.673C84.4755 240.894 80.5608 241.921 80.7656 242.314C80.9055 242.583 84.4173 241.842 84.5104 242.014C84.6569 242.284 81.5802 242.399 81.7791 242.696C82.0089 243.041 84.9389 242.9 84.9389 242.9C84.9389 242.9 85.528 241.95 85.5888 241.595C85.6149 241.443 85.6165 241.23 85.6023 240.987C85.591 240.792 85.6771 240.623 85.6499 240.403C85.5401 239.514 85.6128 238.806 85.1539 238.717Z" fill="#F7A491"/>
<path d="M80.4713 240.83L79.1631 242.449L78.3002 241.804C78.3002 241.804 78.2284 241.669 78.329 241.444C78.4297 241.22 80.4425 240.23 80.4713 240.83Z" fill="#F7A491"/>
<path d="M88.8187 395.633H101.566C102.038 395.591 102.153 395.21 101.989 394.976C101.652 394.492 100.165 394.137 98.494 393.367C95.5619 393.672 89.1777 391.666 88.7148 390.993C88.4478 392.341 88.5566 395.576 88.8187 395.633Z" fill="#F47458"/>
<path d="M79.2535 242.336C79.2535 242.336 80.9834 243.395 81.6996 244.631C82.416 245.866 82.0852 246.893 82.0852 246.893L79.1211 243.241L79.2535 242.336Z" fill="#F7A491"/>
<path d="M332.622 97.9531C332.314 99.4011 332.035 100.899 331.282 102.112C329.988 103.678 328.766 105.293 327.606 106.95C328.404 106.893 329.207 106.856 330.019 106.856C338.002 106.856 345.431 109.671 350.936 114.781C355.857 119.35 358.567 125.205 358.567 131.268C358.567 137.331 355.857 143.186 350.936 147.755C345.431 152.865 338.002 155.68 330.019 155.68C322.056 155.68 314.646 152.879 309.145 147.794C308.745 148.981 308.346 150.16 307.947 151.346C305.255 152.712 303.363 155.929 303.363 159.681C303.363 164.671 306.709 168.717 310.835 168.717C314.08 168.717 316.835 166.21 317.866 162.714C321.663 163.981 325.752 164.679 330.019 164.679C349.895 164.679 366.008 149.721 366.008 131.268C366.008 113.629 351.282 99.1931 332.622 97.9531Z" fill="#E0973F"/>
<path d="M171.222 97.9531C171.53 99.4011 171.809 100.899 172.562 102.112C173.856 103.678 175.078 105.293 176.239 106.95C175.44 106.893 174.636 106.856 173.826 106.856C165.842 106.856 158.413 109.671 152.908 114.781C147.987 119.35 145.277 125.205 145.277 131.268C145.277 137.331 147.987 143.186 152.908 147.755C158.413 152.865 165.842 155.68 173.826 155.68C181.788 155.68 189.198 152.879 194.699 147.794C195.1 148.981 195.499 150.16 195.897 151.346C198.59 152.712 200.481 155.929 200.481 159.681C200.481 164.671 197.136 168.717 193.009 168.717C189.764 168.717 187.01 166.21 185.978 162.714C182.181 163.981 178.093 164.679 173.826 164.679C153.949 164.679 137.836 149.721 137.836 131.268C137.836 113.629 152.562 99.1931 171.222 97.9531Z" fill="#E0973F"/>
<path d="M337.801 94.1494V103.374C337.801 145.061 304.04 178.863 262.403 178.863C243.225 178.608 230.067 180.593 211.859 172.522C185.624 161.004 166.736 134.61 166.736 103.374V94.1494H337.801Z" fill="#F7CC7F"/>
<path d="M211.858 172.522C211.877 172.53 211.896 172.539 211.915 172.547L239.018 94.1494H210.804L189.08 156.999C195.641 163.506 203.364 168.793 211.858 172.522Z" fill="#FAE0B2"/>
<path d="M229.49 177.812L258.089 94.1494H243.916L216.486 174.403C221.034 176.079 225.303 177.143 229.49 177.812Z" fill="#FAE0B2"/>
<path d="M186.329 154.127L207.718 94.1494H200.98L181.629 148.416C183.105 150.398 184.674 152.304 186.329 154.127Z" fill="#FAE0B2"/>
<path d="M330.331 88.9199H174.633C168.951 88.9199 164.319 92.0859 163.992 96.0757H340.973C340.646 92.0859 336.014 88.9199 330.331 88.9199Z" fill="#F7CC7F"/>
<path d="M223.359 176.653L232.169 221.932H270.691L281.605 176.653H223.359Z" fill="#F7CC7F"/>
<path d="M281.608 176.657L279.145 186.874H225.352L223.361 176.657H281.608Z" fill="#B75742"/>
<path d="M281.608 277.945H223.361L227.728 255.471L232.166 232.666H270.695L276.195 255.471L281.608 277.945Z" fill="#F7CC7F"/>
<path d="M281.608 277.944H223.361L227.728 255.47H276.195L281.608 277.944Z" fill="#B75742"/>
<path d="M277.449 221.932H225.411C223.115 221.932 221.254 223.795 221.254 226.093V228.503C221.254 230.801 223.115 232.665 225.411 232.665H277.449C279.744 232.665 281.605 230.801 281.605 228.503V226.093C281.605 223.795 279.744 221.932 277.449 221.932Z" fill="#FAE0B2"/>
<path d="M285.9 274.88H217.102V262.508C217.102 261.175 218.18 260.095 219.512 260.095H283.49C284.821 260.095 285.9 261.175 285.9 262.508V274.88Z" fill="#F7CC7F"/>
<path d="M308.637 283.718V288.216H194.365V283.718C194.365 278.535 197.525 274.328 201.418 274.328H301.584C305.477 274.328 308.637 278.535 308.637 283.718Z" fill="#F7CC7F"/>
<path d="M221.267 274.328L217.652 288.216H212.883L216.498 274.328H221.267Z" fill="#FAE0B2"/>
<path d="M214.441 274.328L210.826 288.216H206.051L209.672 274.328H214.441Z" fill="#FAE0B2"/>
<path d="M227.341 274.328L223.726 288.216H218.951L222.572 274.328H227.341Z" fill="#FAE0B2"/>
<path d="M351.181 390.971V395.469H159.697V390.971C159.697 385.788 164.992 381.581 171.516 381.581H339.363C345.887 381.581 351.181 385.788 351.181 390.971Z" fill="#F7CC7F"/>
<path d="M204.78 381.581L198.722 395.469H190.73L196.789 381.581H204.78Z" fill="#FAE0B2"/>
<path d="M193.337 381.581L187.279 395.469H179.277L185.345 381.581H193.337Z" fill="#FAE0B2"/>
<path d="M214.954 381.581L208.896 395.469H200.895L206.962 381.581H214.954Z" fill="#FAE0B2"/>
<path d="M301.261 168.099V171.493C301.261 177.371 296.507 182.131 290.645 182.131H213.938C208.066 182.131 203.312 177.371 203.312 171.493V168.099H301.261Z" fill="#F7CC7F"/>
<path d="M324.617 381.581H180.52L182.276 288.219H322.684L324.617 381.581Z" fill="#3C8F7C"/>
<path d="M290.348 381.581H214.785L215.706 288.219H289.334L290.348 381.581Z" fill="#50BFA5"/>
<path d="M480.299 395.47H0.924955C0.325616 395.47 -0.160156 395.956 -0.160156 396.556C-0.160156 397.156 0.325616 397.642 0.924955 397.642H480.299C480.898 397.642 481.384 397.156 481.384 396.556C481.384 395.956 480.898 395.47 480.299 395.47Z" fill="#184655"/>
<path d="M335.299 33.7057C334.898 35.3577 334.173 37.9686 334.173 37.9686C334.231 38.6864 334.442 41.6735 334.694 45.3348L329.319 43.1811C329.319 43.1811 329.384 37.2155 329.144 36.8504C328.941 36.5416 328.6 36.9269 326.953 34.5665C326.477 33.8851 326.388 32.6677 326.388 32.6677C326.388 32.6677 326.29 31.1693 326.626 31.03C326.962 30.8905 327.348 31.1144 327.47 31.373C327.591 31.632 327.56 32.2353 327.682 32.494C327.803 32.7529 328.581 33.0652 328.908 33.0487C329.236 33.0326 328.867 28.6166 328.867 28.6166C328.867 28.6166 328.685 27.3642 328.592 26.9546C328.513 26.6051 328.195 25.5807 328.195 25.5807C328.195 25.5807 327.822 24.0947 328.283 23.981C328.555 23.9142 329.247 25.1216 329.722 26.4031C330.233 27.7832 330.523 29.2468 330.669 29.2269C331.012 29.1808 330.831 26.7595 330.831 26.7595C330.831 26.7595 330.489 25.6505 330.498 25.127C330.175 24.4857 329.96 23.296 330.529 23.1974C330.634 23.1794 331.383 24.6907 331.383 24.6907C331.383 24.6907 331.678 25.7548 331.85 26.2519C332.152 27.129 332.198 28.5142 332.356 29.125C332.487 29.6332 332.606 29.4241 332.66 29.4457C332.702 29.4621 332.629 28.7613 332.545 27.798C332.503 27.313 332.559 26.7533 332.423 26.2007C332.297 25.689 332.226 24.9567 332.193 24.5142C332.101 23.2618 332.889 23.3901 333.161 24.535C333.265 24.9712 333.374 25.4473 333.482 25.9299C333.905 27.8072 333.893 29.616 334.096 29.6308C334.358 29.6505 334.185 26.3575 334.185 26.3575C334.185 26.3575 334.588 24.5347 334.988 26.2263C335.452 28.1892 335.404 29.7898 335.397 29.8606C335.355 30.3402 335.701 32.0537 335.299 33.7057Z" fill="#F8A492"/>
<path d="M334.952 40.9217C334.952 40.9217 328.896 39.4704 328.837 39.9573C327.565 50.6237 326.993 54.4817 326.778 54.5924C326.044 54.9702 316.315 46.063 314.58 45.4595C313.75 45.1709 312.847 45.2188 311.982 45.2444C309.918 45.3053 309.511 45.3129 309.511 45.3129C309.452 45.3166 309.436 45.318 309.436 45.318L309.447 47.2613C311.772 49.3557 317.094 81.079 317.542 81.058C318.043 81.0345 328.563 83.6853 328.378 82.7978C328.348 82.6536 321.246 76.8349 319.232 68.4372C318.555 65.6183 318.221 62.5824 317.855 59.9259C320.192 61.0993 329.322 65.5975 330.768 65.0031C335.269 63.1547 334.952 40.9217 334.952 40.9217Z" fill="#3C8F7C"/>
<path d="M353.066 97.2469C353.066 97.2469 362.854 104.923 363.181 106.284C363.651 108.244 372.614 105.667 370.453 105.269C369.955 105.177 368.364 104.773 368.233 104.703C367.533 104.328 358.824 93.8203 358.824 93.8203L353.066 97.2469Z" fill="#F7A491"/>
<path d="M374.657 105.268L368.408 104.759C368.408 104.759 366.621 106.239 363.188 106.308C363.188 106.308 362.639 107.878 362.901 109.714C362.945 110.03 362.998 110.987 363.317 110.966C364.472 110.887 367.548 110.121 371.053 109.419C371.053 109.419 375.763 108.42 378.484 106.79C381.205 105.161 374.657 105.268 374.657 105.268Z" fill="#B75742"/>
<path d="M309.212 77.9914C309.212 77.9914 316.38 79.1975 324.307 77.3407C333.479 75.1921 343.622 73.206 346.594 74.9359C348.986 76.3281 363.924 98.9268 363.924 98.9268L358.155 103.142L341.707 84.7015C341.707 84.7015 320.723 92.4536 316.01 91.5943C305.277 89.6378 305.124 81.0553 309.212 77.9914Z" fill="#131313"/>
<path d="M317.049 73.4316L324.221 81.9646L310.917 86.023L309.213 77.9915L317.049 73.4316Z" fill="#131313"/>
<path d="M331.623 112.409C331.623 112.409 331.186 124.261 330.916 126.269C330.647 128.267 335.94 134.286 335.264 132.192C335.108 131.711 334.707 130.117 334.707 129.968C334.703 129.174 336.669 115.653 336.669 115.653L331.623 112.409Z" fill="#F7A491"/>
<path d="M338.649 136.51L334.74 130.147C334.74 130.147 332.59 129.277 330.898 126.285C330.898 126.285 329.258 126.548 327.769 127.65C327.512 127.84 325.761 129.121 325.883 129.417C326.332 130.506 328.716 132.837 331.323 135.384C331.323 135.384 335.017 138.367 337.742 139.99C340.467 141.612 338.649 136.51 338.649 136.51Z" fill="#B75742"/>
<path d="M343.238 89.0405C340.732 85.6945 320.503 82.516 320.503 82.516L314.863 71.6621L302.391 79.3627C302.391 79.3627 303.637 89.2994 304.573 91.9543C305.82 95.4924 314.202 95.6724 319.322 95.6199C324.032 95.5714 332.636 96.533 332.636 96.533L329.726 122.237C329.726 122.237 335.447 123.54 337.054 123.329C337.235 123.305 346.356 93.2032 343.238 89.0405Z" fill="#131313"/>
<path d="M309.504 45.334L302.467 45.7274C302.467 45.7274 302.305 45.777 302.256 45.7861C301.683 45.8926 302.204 66.4237 302.715 74.092C303.227 81.7602 304.264 84.9818 304.264 84.9818C304.264 84.9818 313.807 83.2853 316.736 82.1469C317.952 81.6743 320.893 77.9923 320.893 77.9923C320.893 77.9923 317.888 73.9467 316.374 67.3754C315.206 62.3071 313.767 53.3231 312.942 51.4478C311.05 47.1406 309.504 45.334 309.504 45.334Z" fill="#9BC1F9"/>
<path d="M302.665 39.5081L302.465 45.7286C302.465 45.7286 307.02 53.5871 309.359 52.492C311.321 51.5732 309.579 45.5955 309.579 45.5955C309.579 45.5955 309.239 44.2248 308.768 42.6504C308.438 41.5503 308.165 40.3582 308.185 39.4836C308.235 37.3574 302.665 39.5081 302.665 39.5081Z" fill="#F7A491"/>
<path d="M308.187 39.4834C308.236 37.3575 302.666 39.5082 302.666 39.5082L302.646 40.1158C302.834 40.399 303.041 40.6388 303.269 40.8239C304.766 42.041 306.931 42.5891 308.692 42.387C308.398 41.3628 308.168 40.2888 308.187 39.4834Z" fill="#F47458"/>
<path d="M308.104 25.3203C308.104 25.3203 310.425 28.8237 310.599 31.772C310.772 34.7206 310.148 36.7323 310.148 36.7323L302.699 27.8176L308.104 25.3203Z" fill="#184655"/>
<path d="M311.371 31.169C311.476 32.2013 311.075 33.0878 310.476 33.1492C309.876 33.2104 309.305 32.423 309.2 31.3908C309.096 30.3582 309.497 29.4718 310.096 29.4106C310.695 29.3492 311.266 30.1365 311.371 31.169Z" fill="#F48C7F"/>
<path d="M300.29 29.2449C300.119 29.2085 300.136 37.7907 302.621 39.8105C305.105 41.8303 309.43 42.0073 310.692 39.9732C312.089 37.7231 310.761 28.6798 307.065 26.7592C303.37 24.8386 300.29 29.2449 300.29 29.2449Z" fill="#F7A491"/>
<path d="M299.661 23.9241C297.764 25.589 296.846 26.8053 295.562 29.7658C293.984 33.4055 297.115 37.1767 299.74 38.6754C302.365 40.174 302.584 41.9858 302.584 41.9858L302.692 40.8689C302.743 40.4602 302.729 40.1288 302.658 39.8413C302.575 39.5036 302.42 39.2253 302.285 38.9348C302.061 38.4566 301.343 36.8178 301.063 36.3853C300.325 35.2447 300.179 34.9976 300.543 33.9139C300.824 33.0794 300.499 31.2396 300.933 29.8644L304.467 29.1013C304.467 29.1013 306.679 28.5691 307.795 27.2793C311.002 23.5752 304.663 19.4456 299.661 23.9241Z" fill="#184655"/>
<path d="M301.386 34.8535C301.821 35.7952 301.731 36.7642 301.184 37.0175C300.637 37.2707 299.841 36.713 299.406 35.771C298.971 34.8293 299.061 33.8603 299.608 33.607C300.155 33.3535 300.951 33.9115 301.386 34.8535Z" fill="#F7A491"/>
<path d="M277.308 11.1778C277.709 12.8298 278.434 15.441 278.434 15.441C278.376 16.1588 278.165 19.1459 277.913 22.8069L283.288 20.6532C283.288 20.6532 283.223 14.6876 283.463 14.3225C283.666 14.0137 284.006 14.399 285.654 12.0387C286.13 11.3572 286.219 10.1401 286.219 10.1401C286.219 10.1401 286.316 8.64172 285.98 8.50242C285.644 8.36258 285.259 8.58649 285.137 8.84543C285.016 9.10437 285.047 9.70739 284.925 9.96633C284.804 10.2253 284.026 10.5373 283.698 10.5211C283.371 10.505 283.739 6.08897 283.739 6.08897C283.739 6.08897 283.922 4.83684 284.015 4.42701C284.094 4.07753 284.411 3.05336 284.411 3.05336C284.411 3.05336 284.784 1.56707 284.324 1.45337C284.052 1.38627 283.359 2.59395 282.885 3.87544C282.374 5.25556 282.083 6.7192 281.938 6.69953C281.594 6.65346 281.776 4.2322 281.776 4.2322C281.776 4.2322 282.118 3.12314 282.109 2.5996C282.432 1.95831 282.646 0.768701 282.078 0.670082C281.973 0.652029 281.224 2.16309 281.224 2.16309C281.224 2.16309 280.929 3.22715 280.757 3.72455C280.455 4.60161 280.409 5.98658 280.251 6.59769C280.119 7.1056 280 6.89677 279.946 6.91806C279.905 6.9345 279.978 6.23366 280.062 5.27038C280.104 4.7851 280.048 4.22546 280.184 3.67282C280.309 3.1614 280.381 2.42877 280.414 1.98661C280.506 0.734208 279.718 0.862464 279.446 2.00735C279.342 2.44359 279.233 2.91944 279.124 3.40229C278.701 5.27981 278.713 7.08835 278.511 7.10344C278.249 7.12311 278.422 3.82991 278.422 3.82991C278.422 3.82991 278.019 2.00709 277.619 3.69868C277.154 5.66189 277.203 7.26215 277.209 7.33301C277.252 7.81236 276.906 9.52578 277.308 11.1778Z" fill="#F8A492"/>
<path d="M302.465 45.7279C302.465 45.7279 295.489 45.4024 293.689 44.5873C292.598 44.0929 283.633 36.8611 283.633 36.8611L283.734 17.4977L277.43 17.0176C277.43 17.0176 274.161 38.4204 275.293 40.763C276.462 43.1824 289.584 53.1423 292.208 57.4643C293.72 59.9543 296.873 93.8172 297.35 94.1222C300.745 95.8914 311.23 97.6582 310.983 96.585C304.158 66.9273 302.465 45.7279 302.465 45.7279Z" fill="#3C8F7C"/>
<path d="M177.282 132.774C177.684 134.426 178.408 137.037 178.408 137.037C178.351 137.755 178.139 140.742 177.887 144.403L183.262 142.25C183.262 142.25 183.197 136.284 183.437 135.919C183.64 135.61 183.981 135.996 185.628 133.635C186.104 132.954 186.193 131.736 186.193 131.736C186.193 131.736 186.291 130.238 185.955 130.098C185.619 129.959 185.233 130.183 185.112 130.441C184.99 130.701 185.021 131.303 184.899 131.562C184.778 131.821 184 132.133 183.673 132.117C183.345 132.101 183.713 127.685 183.713 127.685C183.713 127.685 183.896 126.433 183.989 126.023C184.068 125.673 184.386 124.649 184.386 124.649C184.386 124.649 184.758 123.163 184.298 123.049C184.026 122.982 183.333 124.19 182.859 125.471C182.348 126.851 182.058 128.315 181.912 128.295C181.569 128.249 181.751 125.828 181.751 125.828C181.751 125.828 182.093 124.719 182.084 124.195C182.407 123.554 182.621 122.364 182.053 122.266C181.948 122.248 181.198 123.759 181.198 123.759C181.198 123.759 180.904 124.823 180.732 125.32C180.429 126.197 180.384 127.583 180.226 128.193C180.094 128.701 179.975 128.492 179.921 128.514C179.879 128.53 179.953 127.829 180.036 126.866C180.079 126.381 180.023 125.821 180.159 125.269C180.284 124.757 180.356 124.024 180.389 123.582C180.481 122.33 179.693 122.458 179.421 123.603C179.317 124.039 179.208 124.515 179.099 124.998C178.677 126.875 178.688 128.684 178.486 128.699C178.224 128.719 178.397 125.425 178.397 125.425C178.397 125.425 177.994 123.603 177.594 125.294C177.13 127.257 177.178 128.858 177.185 128.929C177.227 129.409 176.881 131.123 177.282 132.774Z" fill="#F8A492"/>
<path d="M234.332 128.422C233.931 130.074 233.206 132.685 233.206 132.685C233.263 133.403 233.475 136.39 233.727 140.051L228.353 137.898C228.353 137.898 228.417 131.932 228.177 131.567C227.974 131.258 227.633 131.644 225.986 129.283C225.511 128.602 225.421 127.385 225.421 127.385C225.421 127.385 225.324 125.886 225.66 125.747C225.996 125.607 226.381 125.831 226.503 126.09C226.624 126.349 226.593 126.952 226.715 127.21C226.837 127.469 227.614 127.781 227.941 127.765C228.269 127.749 227.9 123.333 227.9 123.333C227.9 123.333 227.718 122.081 227.625 121.671C227.546 121.322 227.228 120.297 227.228 120.297C227.228 120.297 226.855 118.811 227.316 118.698C227.588 118.631 228.281 119.838 228.755 121.12C229.266 122.5 229.556 123.963 229.702 123.943C230.045 123.897 229.864 121.476 229.864 121.476C229.864 121.476 229.522 120.367 229.53 119.844C229.207 119.202 228.993 118.013 229.561 117.914C229.666 117.896 230.416 119.408 230.416 119.408C230.416 119.408 230.711 120.472 230.882 120.969C231.185 121.846 231.231 123.231 231.389 123.842C231.52 124.35 231.639 124.141 231.693 124.162C231.735 124.179 231.662 123.478 231.578 122.515C231.535 122.029 231.591 121.47 231.456 120.917C231.33 120.406 231.258 119.673 231.226 119.23C231.134 117.978 231.921 118.106 232.193 119.251C232.297 119.688 232.406 120.164 232.515 120.646C232.938 122.524 232.926 124.332 233.128 124.347C233.391 124.367 233.218 121.074 233.218 121.074C233.218 121.074 233.621 119.251 234.021 120.943C234.485 122.906 234.436 124.507 234.43 124.577C234.388 125.056 234.734 126.77 234.332 128.422Z" fill="#F8A492"/>
<path d="M200.791 147.812C200.791 147.812 203.527 144.924 205.727 148.437C205.727 148.437 207.422 147.484 208.611 149.181C208.611 149.181 211.674 148.259 212.417 152.843C212.417 152.843 213.993 152.546 214.201 154.421C214.41 156.296 213.458 157.547 213.458 157.547C213.458 157.547 214.344 158.212 213.941 159.936C213.599 161.402 212.388 161.626 212.388 161.626C212.388 161.626 212.061 164.097 210.99 164.841C209.92 165.585 208.463 165.228 208.463 165.228C208.463 165.228 208.076 166.568 206.827 166.449C205.578 166.33 204.032 165.139 202.635 165.675C201.237 166.211 197.609 165.645 197.609 165.645C197.609 165.645 193.536 163.829 194.755 159.661C194.755 159.661 192.614 157.726 194.487 155.404C194.487 155.404 193.119 151.772 195.825 149.628C198.531 147.484 200.791 147.812 200.791 147.812Z" fill="#131313"/>
<path d="M219.63 268.788C219.63 268.788 222.61 272.487 223.352 272.942C224.095 273.397 223.021 278.772 220.999 279.125C219.859 279.324 219.226 278.067 219.226 278.067L219.553 276.519L215.295 272.127L219.63 268.788Z" fill="#F7A491"/>
<path d="M204.276 269.701C204.276 269.701 206.76 273.752 207.439 274.298C208.117 274.844 206.366 280.038 204.315 280.129C203.159 280.18 202.691 278.853 202.691 278.853L203.213 277.36L199.551 272.459L204.276 269.701Z" fill="#F7A491"/>
<path d="M207.29 274.139C207.29 274.139 205.863 275.96 205.085 276.685C204.08 277.621 202.793 278.536 202.793 278.536C202.793 278.536 201.335 281.184 200.937 282.109C200.05 284.166 199.054 286.459 199.198 287.611C199.244 287.98 200.074 288.372 200.765 288.159C203.643 287.273 211.004 280.532 211.933 278.722C213.005 276.635 207.29 274.139 207.29 274.139Z" fill="#131313"/>
<path d="M186.279 212.448C186.546 211.699 186.803 211.006 187.05 210.354C190.112 211.024 193.571 211.76 197.128 212.518L197.561 225.574C197.559 224.566 194.887 246.396 194.887 246.396C194.887 246.396 201.8 261.72 206.527 270.651C204.587 273.075 203.676 273.857 200.866 275.509C193.527 266.701 183.922 250.582 183.523 247.901C183.294 246.359 183.087 221.438 186.279 212.448Z" fill="#B75742"/>
<path d="M213.607 216.223C212.672 226.396 210.592 245.844 210.766 247.408C211.288 249.358 220.541 267.354 222.206 269.974C220.883 271.968 218.835 274.123 216.635 274.719C216.2 274.836 200.932 253.081 200.099 251.355C199.158 249.403 197.59 238.755 197.562 225.573L197.129 212.518C203.056 213.783 208.506 215.024 213.607 216.223Z" fill="#F47458"/>
<path d="M194.142 169.853L201.119 170.811C201.119 170.811 206.712 170.948 207.404 170.948C208.096 170.948 212.478 196.43 213.747 206.02C215.015 215.61 214.033 217.308 214.033 217.308C214.033 217.308 205.186 219.3 198.642 218.72C191.837 218.116 184.18 214.437 184.18 214.437C184.18 214.437 189.997 196.008 191.15 190.254C192.303 184.501 194.142 169.853 194.142 169.853Z" fill="#96D9C9"/>
<path d="M177.224 138.984C177.224 138.984 176.776 157.983 177.492 159.436C178.533 161.55 190.248 176.539 190.248 176.539C190.248 176.539 184.652 199.988 182.299 208.086C182.062 208.901 181.013 214.169 181.013 214.682C181.013 215.821 185.964 217.267 186.552 217.181C187.078 217.104 191.398 194.799 194.155 183.884C195.09 180.185 196.693 176.69 198.886 173.57L200.804 170.842L186.085 156.072C186.085 156.072 184.272 139.631 184.272 138.269C184.272 137.912 177.938 137.644 177.224 138.984Z" fill="#131313"/>
<path d="M207.151 170.915L225.506 152.191C225.506 152.191 228.063 134.485 228.245 133.819C228.423 133.164 232.981 132.809 234.818 132.63C235.407 132.573 234.51 151.488 233.631 154.659C232.593 158.405 218.72 175.472 218.72 175.472C218.72 175.472 216.233 184.716 216.832 191.496C217.827 202.758 220.508 218.25 220.028 218.736C217.045 220.617 205.597 220.818 204.872 219.65C196.871 206.748 207.151 170.915 207.151 170.915Z" fill="#131313"/>
<path d="M201.254 167.416L200.758 171.095C200.758 171.095 199.649 176.394 201.076 177.415C202.503 178.437 207.145 170.943 207.145 170.943L206.655 161.623L201.254 167.416Z" fill="#F7A491"/>
<path d="M206.812 164.644C205.633 167.823 202.825 169.777 200.832 170.535L201.252 167.416L206.653 161.623L206.812 164.644Z" fill="#F47458"/>
<path d="M214.25 155.289C214.25 156.708 213.444 157.859 212.449 157.859C211.455 157.859 210.648 156.708 210.648 155.289C210.648 153.87 211.455 152.719 212.449 152.719C213.444 152.719 214.25 153.869 214.25 155.289Z" fill="#131313"/>
<path d="M206.656 151.241C207.866 151.241 208.847 150.58 208.847 149.764C208.847 148.948 207.866 148.287 206.656 148.287C205.446 148.287 204.465 148.948 204.465 149.764C204.465 150.58 205.446 151.241 206.656 151.241Z" fill="#131313"/>
<path d="M203.357 151.831C200.461 150.833 197.374 152.759 196.932 155.748C196.739 157.048 196.566 158.681 196.533 160.467C196.455 164.763 198.677 168.945 200.625 168.945C202.574 168.945 207.959 166.164 208.154 160.065C208.274 156.299 206.396 152.879 203.357 151.831Z" fill="#F7A491"/>
<path d="M206.719 160.547C206.719 161.495 207.346 162.263 208.12 162.263C208.894 162.263 209.522 161.495 209.522 160.547C209.522 159.599 208.894 158.831 208.12 158.831C207.346 158.831 206.719 159.599 206.719 160.547Z" fill="#F7A491"/>
<path d="M194.913 149.693C192.901 151.289 192.196 153.715 193.338 155.111C194.481 156.507 197.038 156.344 199.051 154.747C201.064 153.151 201.769 150.726 200.627 149.33C199.484 147.934 196.926 148.097 194.913 149.693Z" fill="#131313"/>
<path d="M202.044 152.258C203.076 152.258 203.913 151.696 203.913 151.002C203.913 150.308 203.076 149.746 202.044 149.746C201.012 149.746 200.176 150.308 200.176 151.002C200.176 151.696 201.012 152.258 202.044 152.258Z" fill="#131313"/>
<path d="M194.617 156.341C194.617 157.233 195.331 157.956 196.213 157.956C197.093 157.956 197.808 157.233 197.808 156.341C197.808 155.449 197.093 154.726 196.213 154.726C195.331 154.726 194.617 155.449 194.617 156.341Z" fill="#131313"/>
<path d="M223.183 272.803C223.183 272.803 222 274.792 221.321 275.61C220.443 276.667 219.284 277.739 219.284 277.739C219.284 277.739 218.176 280.552 217.899 281.52C217.282 283.674 216.585 286.274 216.874 287.398C216.967 287.759 217.76 288.448 218.414 288.021C220.938 286.376 227.682 278.668 228.373 276.754C229.17 274.548 223.183 272.803 223.183 272.803Z" fill="#131313"/>
<path d="M354.561 194.308C354.561 194.308 346.511 195.551 340.566 201.487C334.621 207.422 331.07 216.957 331.07 216.957L343.244 220.511C343.244 220.511 338.379 209.145 354.561 194.308Z" fill="#FAE0B2"/>
<path d="M356.792 200.155L355.92 193.289L349.776 190.117C349.077 189.755 349.094 188.748 349.806 188.412L356.058 185.459L357.174 178.629C357.301 177.851 358.264 177.556 358.803 178.13L363.54 183.171L370.373 182.123C371.151 182.003 371.728 182.829 371.349 183.52L368.025 189.588L371.132 195.77C371.486 196.474 370.88 197.279 370.106 197.132L363.315 195.841L358.403 200.711C357.843 201.266 356.891 200.937 356.792 200.155Z" fill="#F7CC7F"/>
<path d="M142.773 230.857C142.773 230.857 150.823 232.101 156.768 238.037C162.713 243.972 166.264 253.506 166.264 253.506L154.09 257.061C154.09 257.061 158.956 245.694 142.773 230.857Z" fill="#FAE0B2"/>
<path d="M140.544 236.704L141.416 229.838L147.56 226.666C148.259 226.304 148.242 225.297 147.53 224.96L141.278 222.008L140.162 215.177C140.035 214.399 139.072 214.105 138.533 214.679L133.796 219.72L126.963 218.671C126.185 218.552 125.608 219.378 125.987 220.069L129.312 226.137L126.204 232.319C125.85 233.023 126.456 233.828 127.23 233.681L134.021 232.39L138.933 237.26C139.492 237.814 140.444 237.486 140.544 236.704Z" fill="#F7CC7F"/>
<path d="M409.017 200.305L410.9 197.122L409.348 193.764C409.171 193.382 409.509 192.962 409.919 193.054L413.525 193.863L416.235 191.347C416.544 191.061 417.047 191.253 417.086 191.672L417.432 195.356L420.659 197.159C421.027 197.364 421 197.902 420.613 198.07L417.221 199.537L416.506 203.168C416.424 203.581 415.905 203.722 415.626 203.405L413.184 200.629L409.515 201.07C409.097 201.119 408.803 200.668 409.017 200.305Z" fill="#131313"/>
<path d="M227.341 56.2683L229.716 52.2508L227.758 48.0143C227.535 47.5317 227.961 47.0025 228.479 47.1186L233.029 48.1393L236.449 44.9649C236.838 44.6033 237.473 44.8461 237.522 45.3753L237.959 50.0233L242.031 52.298C242.495 52.5572 242.461 53.2362 241.973 53.4472L237.693 55.2994L236.79 59.8797C236.687 60.4014 236.032 60.5787 235.68 60.1796L232.598 56.6763L227.969 57.2321C227.441 57.2955 227.07 56.7261 227.341 56.2683Z" fill="#F79C8D"/>
<path d="M401.692 66.2471L395.419 70.4381L398.927 76.5349L392.93 80.9366L395.565 87.177L391.615 91.2058L393.652 93.2076L398.935 87.8197L396.438 81.9058L402.676 77.3265L399.227 71.33L404.91 67.5323L401.692 66.2471Z" fill="#F48C7F"/>
<path d="M411.326 167.258L406.889 161.154L400.947 164.91L396.311 159.09L390.19 161.978L386.009 158.19L384.094 160.309L389.686 165.376L395.486 162.638L400.309 168.693L406.154 164.998L410.174 170.53L411.326 167.258Z" fill="#F48C7F"/>
<path d="M203.372 40.8191L204.878 33.4217L198.099 31.5652L199.262 24.2122L193.002 21.6384L192.973 15.9932L190.119 16.0077L190.157 23.5579L196.089 25.997L194.88 33.6464L201.547 35.4722L200.182 42.1761L203.372 40.8191Z" fill="#F48C7F"/>
<path d="M144.736 50.6582L147.607 56.0254L153.798 55.6783L156.59 61.9228L163.071 59.5169L166.54 66.439L172.781 64.9608L177.206 71.0746L174.895 72.7514L171.586 68.1802L165.001 69.7403L161.666 63.0863L155.077 65.532L151.996 58.6414L145.949 58.9804L143.289 54.0058L139.365 55.0599L138.625 52.2994L144.736 50.6582Z" fill="#F7CC7F"/>
<path d="M118.031 93.0347L113.461 93.4993L111.903 86.2201L105.138 86.0738L103.082 80.8174L100.424 81.8593L103.173 88.8898L109.585 89.028L111.206 96.6006L118.083 95.9019L118.031 93.0347Z" fill="#50BFA5"/>
<path d="M109.809 171.955L108.099 176.223L100.935 174.227L97.6664 180.159L92.0617 179.542L91.75 182.382L99.2459 183.208L102.344 177.586L109.796 179.663L112.369 173.24L109.809 171.955Z" fill="#50BFA5"/>
<path d="M121.949 124.216C127.019 129.085 127.187 137.149 122.324 142.225C117.46 147.302 109.407 147.471 104.336 142.601C99.265 137.732 99.0968 129.668 103.961 124.591C108.824 119.514 116.878 119.346 121.949 124.216Z" fill="#FFF3D9"/>
<path d="M121.672 134.865L116.259 136.531L114.561 141.94C114.423 142.377 113.845 142.467 113.582 142.092L110.327 137.452L104.664 137.507C104.206 137.511 103.942 136.989 104.217 136.622L107.619 132.089L105.817 126.714C105.671 126.279 106.086 125.866 106.519 126.015L111.877 127.853L116.426 124.476C116.794 124.203 117.314 124.471 117.307 124.929L117.217 130.598L121.83 133.887C122.203 134.152 122.109 134.731 121.672 134.865Z" fill="#FED333"/>
<path d="M454.304 145.415C459.375 150.284 459.543 158.348 454.679 163.424C449.816 168.501 441.762 168.67 436.691 163.8C431.62 158.931 431.452 150.868 436.316 145.791C441.179 140.714 449.233 140.546 454.304 145.415Z" fill="#FFF3D9"/>
<path d="M454.026 156.064L448.613 157.73L446.914 163.139C446.777 163.577 446.199 163.666 445.936 163.291L442.681 158.652L437.018 158.706C436.56 158.711 436.296 158.188 436.571 157.822L439.972 153.288L438.171 147.913C438.025 147.478 438.44 147.065 438.873 147.214L444.23 149.052L448.78 145.675C449.147 145.402 449.668 145.67 449.66 146.128L449.57 151.798L454.184 155.086C454.557 155.351 454.463 155.93 454.026 156.064Z" fill="#FED333"/>
<path d="M396.889 129.436L399.113 133.135C399.354 133.536 399.949 133.487 400.12 133.051L401.7 129.034L405.901 128.059C406.356 127.953 406.492 127.371 406.132 127.074L402.804 124.329L403.176 120.027C403.217 119.561 402.706 119.251 402.312 119.503L398.676 121.823L394.704 120.139C394.274 119.957 393.822 120.348 393.939 120.8L395.02 124.98L392.194 128.241C391.887 128.594 392.118 129.145 392.585 129.174L396.889 129.436Z" fill="#F47458"/>
<path d="M389.082 214.165C389.082 215.589 387.928 216.745 386.505 216.745C385.081 216.745 383.928 215.589 383.928 214.165C383.928 212.739 385.081 211.584 386.505 211.584C387.928 211.584 389.082 212.739 389.082 214.165Z" fill="#50BFA5"/>
<path d="M87.4415 135.942C87.4415 137.367 86.1914 138.522 84.6496 138.522C83.1075 138.522 81.8574 137.367 81.8574 135.942C81.8574 134.517 83.1075 133.361 84.6496 133.361C86.1914 133.361 87.4415 134.517 87.4415 135.942Z" fill="#50BFA5"/>
<path d="M233.441 12.5041L236.824 13.1732C236.824 13.1732 241.77 10.8602 242.147 9.74551C242.524 8.6308 242.351 6.06134 243.075 5.90048C243.8 5.73962 245.246 5.80213 245.8 7.50639C246.203 8.74343 244.803 12.6378 245.141 12.9918C245.353 13.2133 247.286 13.6536 248.704 13.9521C249.637 14.1486 250.38 14.8562 250.635 15.7893L250.636 15.7919C250.808 16.4227 250.522 17.0937 249.95 17.4008L249.06 17.8786L249.479 18.8082C249.79 19.5001 249.492 20.3227 248.812 20.6493L248.119 20.9821L248.423 21.542C248.815 22.2633 248.502 23.1756 247.752 23.4993L247.143 23.7617L247.19 23.9277C247.386 24.618 247.03 25.3498 246.37 25.6136L245.762 25.8564L236.751 24.0732C235.907 23.9059 235.107 23.5647 234.399 23.0703L231.336 21.909C231.006 21.7842 230.818 21.4323 230.893 21.0815L232.605 13.0659C232.688 12.679 233.06 12.4287 233.441 12.5041Z" fill="#96D9C9"/>
</svg>
