<?xml version="1.0" encoding="utf-8"?>
<!-- Generator: Adobe Illustrator 24.3.0, SVG Export Plug-In . SVG Version: 6.00 Build 0)  -->
<svg version="1.1" id="Vrstva_1" xmlns="http://www.w3.org/2000/svg" xmlns:xlink="http://www.w3.org/1999/xlink" x="0px" y="0px"
	 viewBox="0 0 1280 720" style="enable-background:new 0 0 1280 720;" xml:space="preserve">
<style type="text/css">
	.st0{fill:#94DAE1;}
	.st1{fill:url(#SVGID_1_);}
	.st2{fill:url(#SVGID_2_);}
	.st3{fill:url(#SVGID_3_);}
	.st4{fill:url(#SVGID_4_);}
	.st5{fill:url(#SVGID_5_);}
	.st6{fill:url(#SVGID_6_);}
	.st7{fill:url(#SVGID_7_);}
	.st8{fill:url(#SVGID_8_);}
	.st9{fill:url(#SVGID_9_);}
	.st10{fill:url(#SVGID_10_);}
	.st11{fill:url(#SVGID_11_);}
	.st12{fill:url(#SVGID_12_);}
	.st13{fill:url(#SVGID_13_);}
	.st14{fill:url(#SVGID_14_);}
	.st15{fill:url(#SVGID_15_);}
	.st16{fill:#199CB1;}
	.st17{fill:#57BCC8;}
	.st18{fill:#177E9D;}
	.st19{fill:#FFFFFF;}
	.st20{fill:#144665;}
	.st21{fill:#305D81;}
	.st22{fill:#9FD7E0;}
	.st23{fill:#85CDD6;}
	.st24{fill:#E8AC4C;}
	.st25{fill:#95DBE2;}
	.st26{fill:#003853;}
	.st27{fill:#D2E8F2;}
	.st28{fill:#002E4A;}
	.st29{fill:url(#SVGID_16_);}
	.st30{fill:url(#SVGID_17_);}
	.st31{fill:#A0796D;}
	.st32{fill:#B68977;}
	.st33{fill:#D1E7F1;}
	.st34{fill:url(#SVGID_18_);}
	.st35{fill:#E1B39D;}
	.st36{fill:#F0C0A7;}
	.st37{fill:url(#SVGID_19_);}
	.st38{fill:#3F7195;}
	.st39{fill:#68C2D4;}
	.st40{fill:#2B7895;}
	.st41{opacity:0.32;fill:#AECAEC;enable-background:new    ;}
	.st42{fill:#305D80;}
	.st43{fill:#EFBFA6;}
	.st44{fill:#DFB29C;}
	.st45{fill:#EEC0A7;}
	.st46{fill:#013853;}
	.st47{fill:#B6D7E3;}
	.st48{fill:#E0B29C;}
	.st49{fill:url(#SVGID_20_);}
	.st50{fill:#D9AC96;}
	.st51{fill:#EDBDA4;}
</style>
<polygon class="st0" points="1280,258 827.6,430.4 0,430.4 1,720 1280,720 "/>
<polygon class="st0" points="-1,0.2 1280,0 1277,720 0,720 "/>
<g>
	<g>
		
			<linearGradient id="SVGID_1_" gradientUnits="userSpaceOnUse" x1="1164.6534" y1="740.4704" x2="1057.4159" y2="1240.3877" gradientTransform="matrix(1.1135 -2.770000e-02 2.770000e-02 -1.0077 -692.49 1490.3787)">
			<stop  offset="0" style="stop-color:#199DB1"/>
			<stop  offset="1" style="stop-color:#57BCC8"/>
		</linearGradient>
		<polygon class="st1" points="621.6,567.8 573.4,583.1 542.4,449.4 583.2,435.8 		"/>
		
			<linearGradient id="SVGID_2_" gradientUnits="userSpaceOnUse" x1="876.5013" y1="866.9523" x2="1165.0905" y2="885.6382" gradientTransform="matrix(1 0 0 -1 -409.0771 1421)">
			<stop  offset="0" style="stop-color:#199DB1"/>
			<stop  offset="1" style="stop-color:#57BCC8"/>
		</linearGradient>
		<path class="st2" d="M581.2,558.8c2.8,8.6,3.1,18.3-10.4,26.6c-26.8,16.5-119.1,74.7-145.2,91.2c-12.3,7.8-23.3,1.2-33.8-5.1
			c-14-8.5-118-75.7-121.4-81.1c-3.4-5.5-1.6-18.8,5.9-23C281.2,564.7,452,442,467,434.9c9.4-4.5,19-6.5,31.9-2.4
			c18.1,5.7,29.5,10,48.3,15.4C561.6,496.2,578.1,549.3,581.2,558.8z"/>
		
			<linearGradient id="SVGID_3_" gradientUnits="userSpaceOnUse" x1="1052.6375" y1="727.3888" x2="901.2071" y2="809.7256" gradientTransform="matrix(0.9995 3.010000e-02 3.010000e-02 -0.9995 -415.2841 1350.9755)">
			<stop  offset="0" style="stop-color:#199DB1"/>
			<stop  offset="1" style="stop-color:#57BCC8"/>
		</linearGradient>
		<path class="st3" d="M574,576.7c12.4,7.4,16.4,23.4,9,35.8l0,0c-7.4,12.4-23.4,16.4-35.8,9l-102.8-61.9
			c-12.4-7.4,14.9-51.4,27.3-44L574,576.7z"/>
		
			<linearGradient id="SVGID_4_" gradientUnits="userSpaceOnUse" x1="35.586" y1="1013.1151" x2="730.5551" y2="665.0852" gradientTransform="matrix(1 0 0 -1 0 1421)">
			<stop  offset="0" style="stop-color:#199DB1"/>
			<stop  offset="1" style="stop-color:#57BCC8"/>
		</linearGradient>
		<path class="st4" d="M539.2,555.8l-109.1-65.5l0,0H430l-44.1-26.5c-0.4-0.2-0.8-0.4-1.3-0.6c-20.5-12.2-41.7-25-49.5-29.5
			c-9.4-5.5-23.6-6.5-37.3-3.1c-29,7.2-79.8,19.8-79.8,19.8l-41.5,127.5c0,0,15.3,6.6,63,36.6c13.2,8.3,24.3,15.2,35.3,22.1
			c1.2,1.2,2.5,2.2,4,3.1l123.9,76.2c10.1,6.1,23.3,2.9,29.5-7.3c6.1-10.1,2.9-23.3-7.3-29.5L361.2,640c0.5-0.9,1.1-1.8,1.7-2.8
			l90.4,55.5c11.9,7.2,27.4,3.4,34.6-8.5s3.4-27.4-8.5-34.6L388.9,594c0.5-0.8,1-1.7,1.5-2.5l102,62.3c12.3,7.5,28.4,3.5,35.8-8.8
			c7.5-12.3,3.5-28.4-8.8-35.8l-102.3-62.5c0.5-0.8,0.9-1.6,1.4-2.3l93.8,56.3c12.3,7.5,21.5-1.1,28.9-13.5
			C548.6,574.7,551.6,563.3,539.2,555.8z"/>
		<g>
			
				<linearGradient id="SVGID_5_" gradientUnits="userSpaceOnUse" x1="1103.7859" y1="1007.1635" x2="785.2398" y2="941.9685" gradientTransform="matrix(1 0 0 -1 -409.0771 1421)">
				<stop  offset="0" style="stop-color:#199DB1"/>
				<stop  offset="1" style="stop-color:#57BCC8"/>
			</linearGradient>
			<path class="st5" d="M461.2,505.1c-0.8-0.5-36.4-21.8-48-28.3c-0.9,0-54.2,0.8-55.4,0.9c-14.8,22.5-21,32.1-28.8,43.8
				c-14.8,22.3-58.6,20.9-68.8-0.1c3.8-5.6,58.5-85.1,61.2-89.4c5.2-8.4,11.3-10.9,18.8-12.7c10.2-2.5,26.5-6.5,40.8-10.1
				c15.4-3.9,32.3-2.7,42.2,0.3c25.3,7.6,124.1,38.4,124.1,38.4s13.1,44,14.8,49c2.5,8.5-2.8,11.9-8.1,13.9
				C534.3,518,489.7,520.6,461.2,505.1z"/>
			
				<linearGradient id="SVGID_6_" gradientUnits="userSpaceOnUse" x1="3511.7317" y1="1995.0938" x2="3511.7317" y2="2230.3132" gradientTransform="matrix(-0.8253 -0.5646 -0.5646 0.8253 4404.9028 696.398)">
				<stop  offset="0" style="stop-color:#199DB1"/>
				<stop  offset="1" style="stop-color:#57BCC8"/>
			</linearGradient>
			<path class="st6" d="M291.2,476.3l-27.7,40.2c0,0,5.7,3.2,11.2,3.6c5.1,0.4,9.2-4.3,13.4-10.9c0.3-0.4,11.5-17.1,11.7-17.3
				c3.4-5-0.4-10.1-2.4-11.5C295.4,479.2,291.2,476.3,291.2,476.3z"/>
		</g>
		
			<linearGradient id="SVGID_7_" gradientUnits="userSpaceOnUse" x1="1296.0878" y1="-1527.1625" x2="1417.6786" y2="-1382.1885" gradientTransform="matrix(-1.780000e-02 0.912 0.814 -0.2247 1791.3969 -949.9098)">
			<stop  offset="0" style="stop-color:#199DB1"/>
			<stop  offset="1" style="stop-color:#57BCC8"/>
		</linearGradient>
		<path class="st7" d="M581.1,612.9c-2,3.3-9.2,11.5-16.6,6.9c-0.2-0.1-9.6-6-9.8-6.1c-2.9-1.8-1.5-6.2-0.5-7.7c0.8-1.3,4-5.6,5-7.3
			s3.1-6.3,3.9-7.6c0.9-1.5,4.2-4.8,7.1-3.1c0.2,0.1,9.7,5.8,9.9,5.9C588.2,598.8,583.1,609.7,581.1,612.9z"/>
		<g>
			<g>
				<g>
					
						<linearGradient id="SVGID_8_" gradientUnits="userSpaceOnUse" x1="626.3356" y1="819.6257" x2="671.4385" y2="883.392" gradientTransform="matrix(0.9994 -3.490000e-02 -3.490000e-02 -0.9994 -399.8293 1497.6628)">
						<stop  offset="0" style="stop-color:#199DB1"/>
						<stop  offset="1" style="stop-color:#57BCC8"/>
					</linearGradient>
					<path class="st8" d="M207.7,594.3c-8,11-5.6,26.4,5.4,34.4l0,0c11,8,26.4,5.6,34.4-5.4l28.2-38.9c8-11,5.6-26.4-5.4-34.4l0,0
						c-11-8-26.4-5.6-34.4,5.4L207.7,594.3z"/>
				</g>
				
					<linearGradient id="SVGID_9_" gradientUnits="userSpaceOnUse" x1="613.5354" y1="797.1871" x2="711.708" y2="939.7966" gradientTransform="matrix(0.9994 -3.490000e-02 -3.490000e-02 -0.9994 -399.8293 1497.6628)">
					<stop  offset="0" style="stop-color:#199DB1"/>
					<stop  offset="1" style="stop-color:#57BCC8"/>
				</linearGradient>
				<path class="st9" d="M267.4,554.7c3.1,2.3,10.2,10.7,3.3,20.2c-0.2,0.3-9.2,12.3-9.3,12.6c-2.7,3.7-5.7,3.1-7.1,2
					c-1.2-0.9-7.1-5.4-8.7-6.5c-1.6-1.1-7.6-5-8.8-5.8c-1.4-1-2.5-3.5,0.2-7.2c0.2-0.2,8.9-12.4,9.1-12.7
					C253.6,546.9,264.3,552.5,267.4,554.7z"/>
			</g>
			<g>
				
					<linearGradient id="SVGID_10_" gradientUnits="userSpaceOnUse" x1="654.6778" y1="774.5615" x2="716.8882" y2="853.3616" gradientTransform="matrix(0.9994 -3.490000e-02 -3.490000e-02 -0.9994 -400.4602 1498.6843)">
					<stop  offset="0" style="stop-color:#199DB1"/>
					<stop  offset="1" style="stop-color:#57BCC8"/>
				</linearGradient>
				<path class="st10" d="M252.1,626.2c-8,11-5.6,26.4,5.4,34.4l0,0c11,8,26.4,5.6,34.4-5.4l33.3-46.4c8-11,5.6-26.4-5.4-34.4l0,0
					c-11-8-26.4-5.6-34.4,5.4L252.1,626.2z"/>
			</g>
			
				<linearGradient id="SVGID_11_" gradientUnits="userSpaceOnUse" x1="661.8409" y1="770.6876" x2="760.014" y2="913.2975" gradientTransform="matrix(0.9994 -3.490000e-02 -3.490000e-02 -0.9994 -399.8293 1497.6628)">
				<stop  offset="0" style="stop-color:#199DB1"/>
				<stop  offset="1" style="stop-color:#57BCC8"/>
			</linearGradient>
			<path class="st11" d="M316.6,579.5c3.1,2.3,10.2,10.7,3.3,20.2c-0.2,0.3-9.2,12.3-9.3,12.6c-2.7,3.7-5.7,3.1-7.1,2
				c-1.2-0.9-7.1-5.4-8.7-6.5s-7.6-5-8.8-5.8c-1.4-1-2.5-3.5,0.2-7.2c0.2-0.2,8.9-12.4,9.1-12.7
				C302.8,571.6,313.5,577.3,316.6,579.5z"/>
			
				<linearGradient id="SVGID_12_" gradientUnits="userSpaceOnUse" x1="695.0593" y1="734.3039" x2="762.7108" y2="822.1727" gradientTransform="matrix(0.9994 -3.490000e-02 -3.490000e-02 -0.9994 -401.1203 1499.6907)">
				<stop  offset="0" style="stop-color:#199DB1"/>
				<stop  offset="1" style="stop-color:#57BCC8"/>
			</linearGradient>
			<path class="st12" d="M296.8,658.7c-8,11-5.6,26.4,5.4,34.4l0,0c11,8,26.4,5.6,34.4-5.4l33.4-46.3c8-11,5.6-26.4-5.4-34.4l0,0
				c-11-8-26.4-5.6-34.4,5.4L296.8,658.7z"/>
			
				<linearGradient id="SVGID_13_" gradientUnits="userSpaceOnUse" x1="706.0282" y1="736.8884" x2="804.2007" y2="879.4977" gradientTransform="matrix(0.9994 -3.490000e-02 -3.490000e-02 -0.9994 -399.8293 1497.6628)">
				<stop  offset="0" style="stop-color:#199DB1"/>
				<stop  offset="1" style="stop-color:#57BCC8"/>
			</linearGradient>
			<path class="st13" d="M361.9,611.8c3.1,2.3,10.2,10.7,3.3,20.2c-0.2,0.3-9.2,12.3-9.3,12.6c-2.7,3.7-5.7,3.1-7.1,2
				c-1.2-0.9-7.1-5.4-8.7-6.5s-7.6-5-8.8-5.8c-1.4-1-2.5-3.5,0.2-7.2c0.2-0.2,8.9-12.4,9.1-12.7
				C348.2,603.9,358.9,609.5,361.9,611.8z"/>
			<g>
				
					<linearGradient id="SVGID_14_" gradientUnits="userSpaceOnUse" x1="750.7022" y1="725.129" x2="805.6552" y2="796.1517" gradientTransform="matrix(0.9994 -3.490000e-02 -3.490000e-02 -0.9994 -401.7883 1500.5657)">
					<stop  offset="0" style="stop-color:#199DB1"/>
					<stop  offset="1" style="stop-color:#57BCC8"/>
				</linearGradient>
				<path class="st14" d="M342.7,688.2c-6.5,8.9-4.5,21.5,4.4,28l0,0c9,6.5,21.5,4.5,28-4.4l27.1-37.7c6.5-8.9,4.5-21.5-4.4-28l0,0
					c-9-6.5-21.5-4.5-28,4.4L342.7,688.2z"/>
			</g>
			
				<linearGradient id="SVGID_15_" gradientUnits="userSpaceOnUse" x1="757.1652" y1="723.9741" x2="834.061" y2="835.676" gradientTransform="matrix(0.9994 -3.490000e-02 -3.490000e-02 -0.9994 -399.8293 1497.6628)">
				<stop  offset="0" style="stop-color:#199DB1"/>
				<stop  offset="1" style="stop-color:#57BCC8"/>
			</linearGradient>
			<path class="st15" d="M395.7,649.9c2.4,1.8,8,8.4,2.6,15.9c-0.2,0.2-7.2,9.7-7.3,9.8c-2.1,2.9-4.4,2.4-5.5,1.6
				c-1-0.7-5.5-4.2-6.8-5.1c-1.2-0.9-6-3.9-6.9-4.6c-1.1-0.8-1.9-2.8,0.2-5.7c0.1-0.2,7-9.7,7.1-10
				C384.9,643.7,393.3,648.1,395.7,649.9z"/>
		</g>
	</g>
	<g>
		<polygon class="st16" points="980.7,297.6 596.7,430.6 662.5,627 1280,415.3 1280,214.6 		"/>
		<path class="st17" d="M632.1,607.7c8.8-2.9,21.6-7.2,21.6-7.2l-56.9-169.9l-40.7,13.6L613,613.8
			C613,613.8,620.8,611.5,632.1,607.7z"/>
		<path class="st16" d="M670,598.7c2.2,6.7,9.5,10.3,16.2,8.1s10.3-9.5,8-16.1c-2.2-6.7-9.5-10.3-16.2-8.1
			C671.3,584.8,667.7,592,670,598.7z"/>
	</g>
	<g>
		<polygon class="st16" points="1,362.7 198.6,430.6 132.8,627.1 1,580.3 		"/>
		<path class="st17" d="M163.2,607.8c-8.8-2.9-21.6-7.2-21.6-7.2l56.9-169.9l40.7,13.6l-56.9,169.6
			C182.3,613.9,174.5,611.6,163.2,607.8z"/>
		<path class="st17" d="M90.2,586.7c-2.2,6.7-9.5,10.3-16.2,8.1s-10.3-9.5-8.1-16.1c2.2-6.7,9.5-10.3,16.2-8.1
			C88.8,572.8,92.4,580,90.2,586.7z"/>
	</g>
</g>
<g>
	<g>
		<path class="st18" d="M1056.1,336c0-4.2-2.2-7.8-5.4-9.6c-1.7-1-10.1-6.5-12.2-6.3l-276,33.2c-6.3,0.4-11.3,6-11.3,12.5l3.9,283.4
			c0,4.4-0.4,32.5-2.8,40.6c1.9,0.5,30.2,16.8,32.2,16.7l250.9,13.5h8.9c6.3-0.4,11.7-6.9,11.7-13.4L1056.1,336L1056.1,336z"/>
		<path class="st19" d="M1046.1,331.1c0-6.5-5-11.4-11.1-10.9l-272.4,19.4c-6.1,0.4-11.1,6-11.1,12.5l-3.3,354.7
			c0,6.5,5,11.4,11.1,10.9l275.7,1.5c6.1-0.4,11.1-6,11.1-12.5V331.1z"/>
		<path class="st20" d="M872.5,324.4c-1.6-9.9-6.5-21.2,16.8-23.9c0.7-0.1,8.9-0.5,9.7-0.6c23.8-2.1,20.7,9.9,20.3,22.1
			c0,0.4,0.9,1,1.7,1c0.8-0.1,44.1-3,44.1-3v17.5c0,8.8-6.5,16.3-18.9,17.7l-103,7.1c-10.2,0.6-17.5-4-17.3-14.7l0.2-18.1
			c0,0,44.7-3,45.3-3.1C871.8,326.3,872.7,325.8,872.5,324.4z"/>
		<path class="st21" d="M840.6,345.2L840.6,345.2l107.5-7.4c0.8-0.1,1.4-0.8,1.4-1.6c-0.1-0.8-0.8-1.4-1.6-1.4l-107.4,7.4
			c-0.8,0.1-1.4,0.8-1.4,1.6C839.2,344.6,839.8,345.2,840.6,345.2L840.6,345.2z"/>
	</g>
	<g>
		<g>
			<g>
				<path class="st22" d="M791.2,447c-1.9,0.1-3.4,1.7-3.4,3.6v4c0,1.9,1.5,3.3,3.4,3.2l210-11.3c2.1-0.1,3.8-1.8,3.8-3.8v-4.2
					c0-2-1.7-3.5-3.8-3.4L791.2,447z"/>
				<path class="st22" d="M1001.6,658.6c2.1,0,3.8,1.6,3.8,3.6v4.3c0,2-1.7,3.6-3.8,3.7l-224,1.6c-1.9,0-3.4-1.5-3.4-3.4v-4.1
					c0-1.9,1.6-3.5,3.4-3.5L1001.6,658.6z"/>
				<path class="st22" d="M868.5,383.4c-2,0.1-3.5,1.8-3.6,3.7l-0.2,41.7c0,1.9,1.6,3.4,3.5,3.3l131.5-7.9c2.1-0.1,3.8-1.8,3.8-3.8
					v-43c0-2-1.7-3.5-3.8-3.3L868.5,383.4z"/>
				<path class="st22" d="M944.7,472c2.5-0.1,4.5,1.7,4.5,4.1l-0.1,42.7c0,2.4-2,4.5-4.5,4.6l-163.8,6.4c-2.3,0.1-4.2-1.7-4.2-4.1
					l0.3-41.1c0-2.3,1.9-4.3,4.2-4.4L944.7,472z"/>
				<path class="st23" d="M965.2,506.5c-1.4,0-2.6-0.5-3.6-1.4c-0.9-0.9-1.4-2.1-1.4-3.3v-26.2c0-2.7,2.3-5.1,5.1-5.2l35.5-1.8
					c2.9-0.1,5.3,2,5.3,4.8v26.4c0,2.8-2.3,5.1-5.2,5.2l-35.5,1.5C965.3,506.5,965.2,506.5,965.2,506.5L965.2,506.5L965.2,506.5z
					 M1001.1,469.7c-0.1,0-0.1,0-0.2,0l-35.5,1.8c-2.2,0.1-4,1.9-4,4v26.2c0,1,0.4,1.8,1,2.5c0.7,0.7,1.7,1.1,2.7,1.1
					c0.1,0,0.1,0,0.2,0l35.5-1.5c2.3-0.1,4.1-1.9,4.1-4.1v-26.5C1005,471.3,1003.3,469.7,1001.1,469.7L1001.1,469.7z"/>
				<path class="st22" d="M944.6,535.4c2.5-0.1,4.5,1.8,4.5,4.2l-0.1,42.8c0,2.4-2,4.5-4.5,4.5l-164.1,4.2c-2.3,0.1-4.2-1.8-4.2-4.1
					l0.3-41.2c0-2.3,1.9-4.3,4.2-4.4L944.6,535.4z"/>
				<path class="st23" d="M965.2,570.4c-1.4,0-2.7-0.5-3.6-1.5c-0.9-0.9-1.4-2.1-1.4-3.4v-26.3c0-2.7,2.3-5,5.1-5.1l35.6-1.3
					c2.9-0.1,5.3,2.1,5.3,4.9v26.6c0,2.8-2.3,5.1-5.2,5.2l-35.6,1C965.3,570.4,965.2,570.4,965.2,570.4L965.2,570.4z M1001.1,533.9
					c-0.1,0-0.1,0-0.2,0l-35.6,1.3c-2.2,0.1-4,1.9-4,4v26.3c0,1,0.4,1.9,1.1,2.6c0.8,0.8,1.8,1.2,2.9,1.1l35.6-1
					c2.3-0.1,4.1-1.9,4.1-4v-26.6C1005,535.6,1003.2,533.9,1001.1,533.9L1001.1,533.9z"/>
				<path class="st22" d="M944.5,597.3c2.5-0.1,4.5,1.9,4.5,4.3l-0.1,43c0,2.4-2,4.4-4.6,4.5l-164.3,2c-2.3,0-4.2-1.9-4.2-4.2
					l0.3-41.4c0-2.3,1.9-4.3,4.2-4.3L944.5,597.3z"/>
				<path class="st23" d="M965.1,632.7c-1.4,0-2.7-0.5-3.7-1.5c-0.9-0.9-1.4-2.1-1.4-3.4v-26.4c0-2.7,2.3-5,5.2-5.1l35.6-0.8h0.1
					c2.8,0,5.1,2.2,5.1,4.9V627c0,2.8-2.3,5.1-5.2,5.1L965.1,632.7L965.1,632.7L965.1,632.7L965.1,632.7z M1001,596.6l-35.7,0.8
					c-2.2,0.1-4,1.8-4,3.9v26.4c0,1,0.4,1.9,1.1,2.6c0.7,0.7,1.8,1.2,2.8,1.2l35.7-0.6c2.3,0,4.1-1.8,4.1-4v-26.6
					C1005,598.3,1003.2,596.6,1001,596.6L1001,596.6z"/>
				<path class="st19" d="M793.6,614.6C793.6,614.6,793.7,614.6,793.6,614.6l145.2-3c1,0,1.9-0.9,1.9-1.9s-0.9-1.9-1.9-1.9l-145.2,3
					c-1,0-1.9,0.9-1.9,1.9C791.8,613.7,792.6,614.6,793.6,614.6L793.6,614.6z"/>
				<path class="st22" d="M782.1,394L782.1,394l62.9-4.2c1-0.1,1.8-1,1.8-2c-0.1-1-1-1.8-2-1.8l-62.8,4.2c-1,0.1-1.8,1-1.8,2
					C780.3,393.2,781.1,394,782.1,394L782.1,394z"/>
				<path class="st22" d="M781.5,402.7L781.5,402.7l48.6-3.2c1-0.1,1.8-1,1.8-2c-0.1-1-1-1.8-2-1.8l-48.5,3.2c-1,0.1-1.8,1-1.8,2
					C779.7,401.9,780.5,402.7,781.5,402.7L781.5,402.7z"/>
				<path class="st22" d="M781.5,412L781.5,412l48.6-3.2c1-0.1,1.8-1,1.8-2c-0.1-1-1-1.8-2-1.8l-48.5,3.2c-1,0.1-1.8,1-1.8,2
					C779.7,411.2,780.5,412,781.5,412L781.5,412z"/>
			</g>
		</g>
		<path class="st24" d="M975.8,498.3c-1.1,0-2.2-0.5-3.1-1.4c-3.1-3.2-3-12.6-2.9-15.4c0.1-1.3,1.1-2.3,2.4-2.2
			c1.3,0.1,2.3,1.1,2.2,2.4l0,0c0,0-0.1,2.8,0.1,5.8c0.3,4.1,1,5.6,1.3,6c0.7-0.3,2.8-1.4,7.5-6.8c3.1-3.5,5.7-7,5.8-7
			c0.8-1,2.2-1.2,3.3-0.5c1,0.8,1.2,2.2,0.5,3.3c-0.1,0.2-2.9,3.8-6.2,7.5C980.3,497.3,977.6,498.3,975.8,498.3L975.8,498.3z"/>
		<path class="st24" d="M977.7,561.1c-1.1,0-2.2-0.5-3.1-1.4c-3.1-3.2-3-12.6-2.9-15.4c0.1-1.3,1.1-2.3,2.4-2.2
			c1.3,0.1,2.3,1.1,2.2,2.4c0,0.1-0.1,2.8,0.1,5.8c0.3,4.1,1,5.6,1.3,6c0.7-0.3,2.8-1.4,7.5-6.8c3.1-3.5,5.7-7,5.8-7
			c0.8-1,2.2-1.2,3.3-0.5c1,0.8,1.2,2.2,0.5,3.3c-0.1,0.2-2.9,3.8-6.2,7.5C982.3,560.2,979.5,561.1,977.7,561.1L977.7,561.1z"/>
		<path class="st24" d="M978.1,622.8c-1.1,0-2.2-0.5-3.1-1.4c-3.1-3.2-3-12.6-2.9-15.4c0.1-1.3,1.1-2.3,2.4-2.2
			c1.3,0.1,2.3,1.1,2.2,2.4c0,0.1-0.1,2.8,0.1,5.8c0.3,4.1,1,5.6,1.3,6c0.7-0.3,2.8-1.4,7.5-6.8c3.1-3.5,5.7-7,5.8-7
			c0.8-1,2.2-1.2,3.3-0.5c1,0.8,1.2,2.2,0.5,3.3c-0.1,0.2-2.9,3.8-6.2,7.5C982.7,621.8,979.9,622.8,978.1,622.8L978.1,622.8z"/>
		<path class="st19" d="M784.1,494.6C784.1,494.6,784.2,494.6,784.1,494.6l154.1-7.3c1-0.1,1.8-0.9,1.8-2c0-1-0.9-1.9-2-1.8
			l-154,7.3c-1,0.1-1.9,0.9-1.8,2C782.3,493.8,783.1,494.6,784.1,494.6L784.1,494.6z"/>
		<path class="st19" d="M834.6,559.1C834.6,559.1,834.7,559.1,834.6,559.1l105-3.3c1,0,1.9-0.9,1.8-2c0-1-0.9-1.9-2-1.8l-104.9,3.3
			c-1,0-1.9,0.9-1.8,2C832.8,558.3,833.6,559.1,834.6,559.1L834.6,559.1z"/>
	</g>
</g>
<g>
	<path class="st19" d="M1103.3,720c0,0,30.4-15.1,59.6-10.9c43.9,6.3,69-11.6,72.6-40.1c4.9-39-24.3-64.6-79.7-48.8
		C1097,637,1103.3,720,1103.3,720z"/>
	<path class="st25" d="M1019.4,703.1c0,0-5.5-43.7,3.3-83.4c5.9-26.7,23.3-44.1,68.8-52.3s89.1,5.4,98,39.9c8.5,33,2,76.8-40.2,83.5
		c-27.9,4.5-73.7-4.6-94.4-1.7C1039.2,691.4,1019.4,703.1,1019.4,703.1z"/>
	<g>
		<path class="st19" d="M1141.9,616.2c0,1.5-1.2,2.6-2.6,2.6h-76.5c-1.5,0-2.6-1.2-2.6-2.6l0,0c0-1.5,1.2-2.6,2.6-2.6h76.5
			C1140.7,613.6,1141.9,614.7,1141.9,616.2L1141.9,616.2z"/>
		<path class="st19" d="M1141.9,632.4c0,1.5-1.2,2.6-2.6,2.6h-76.5c-1.5,0-2.6-1.2-2.6-2.6l0,0c0-1.5,1.2-2.6,2.6-2.6h76.5
			C1140.7,629.8,1141.9,631,1141.9,632.4L1141.9,632.4z"/>
		<path class="st19" d="M1100.1,648.7c0,1.5-1.2,2.6-2.6,2.6h-34.7c-1.5,0-2.6-1.2-2.6-2.6l0,0c0-1.5,1.2-2.6,2.6-2.6h34.7
			C1098.9,646,1100.1,647.2,1100.1,648.7L1100.1,648.7z"/>
	</g>
</g>
<g>
	<g>
		<path class="st20" d="M658.3,644.6c0,0,4.4,46.4,4.6,50.2c0.2,3.9,28,3.4,27.9-1.6c0-5.1,6.2-70.5,3.4-96
			c-6-53.6-48.7-39.7-65.8-16.5c-3.2,4.4-9.8,8.3-10.6,14.4c-3.5,27.4-0.2,78-1.1,90.7c-1,12.8,29.4,36.3,29.8,4.5
			c4-14.1,10.5-46.2,10.7-46.7C657.3,643,658.3,644.6,658.3,644.6z"/>
	</g>
	<path class="st26" d="M398.6,680.8c0,0-5.8-43.1-28.3-84.8c-12.1-22.4,0.8-25,11.9-26.9c13.8-2.3,30.1-3.1,30.1-3.1l25.6,105.8
		L398.6,680.8z"/>
	<path class="st26" d="M1034.7,694.7c0,0-0.9-42.7,33.9-104.2c7.1-12.6,10.9-20.8-10.5-21c-21.3-0.2-24.3,0.2-33,0.7
		c-4.8,0.3-14,6.5-18.4,16.9c-13.1,31.3-21.6,94.7-21.6,94.7L1034.7,694.7z"/>
	<path class="st27" d="M1069.6,576.6c-14.2,15.3-10.5,65.2-14,80.7c-18.8,3.2-30.4,7.5-55.7,12.7c2.9,9.2,9.4,13.5,9.4,13.5
		s47.5-3.6,66.9-10.2c19.4-6.6,17.2-24.3,17.2-24.3S1083.8,561.3,1069.6,576.6z"/>
	<path class="st26" d="M1201,717.7c0,0-1.8-41,41-116.7c8.8-15.5,13.4-25.6-12.9-25.9c-26.3-0.3-29.8,0.2-40.5,0.8
		c-5.9,0.3-17.2,7.9-22.6,20.8c-16.1,38.5-26.6,116.4-26.6,116.4L1201,717.7z"/>
	<path class="st20" d="M1172.5,679c14.7,16.8,8.8,33.6,7.7,38.9l-151.3-1.6c-0.6-4.2,0.8-5.9,0.1-10.5c26.3-5.2,50-9.4,66.7-10
		C1102,695.2,1136.5,684.4,1172.5,679z"/>
	<path class="st20" d="M473.3,555.6c6.1,13.4,8.5,52.8,17.9,59.3c6,3.1,35.1,16,35.1,16l-4.2,10c0,0-37.5-6.8-48.8-13.2
		c-5.5-3.1-8-17-18.9-39.7C436.7,551,456.2,517.6,473.3,555.6z"/>
	<path class="st28" d="M437.6,493.8c0,0-12.3-4.5-14.2,8.8c-2,13.3,4,33.8-2.5,40.4c-0.1,1.7,4.9,9.7,14.7,4.8
		c12.7-6.3-0.5-34.3-0.7-39.1c-0.2-5.3,2.8-6.5,3.9-7C436.8,498.2,437.6,493.8,437.6,493.8z"/>
	
		<linearGradient id="SVGID_16_" gradientUnits="userSpaceOnUse" x1="414.9067" y1="819.9766" x2="480.0186" y2="819.9766" gradientTransform="matrix(1 0 0 -1 0 1421)">
		<stop  offset="0" style="stop-color:#9FD2E3"/>
		<stop  offset="1" style="stop-color:#FFFFFF"/>
	</linearGradient>
	<path class="st29" d="M417.4,668.6c11.8,4,36.9-3.8,46.7-11c0.5-11.7,1.1-44,8.2-49.9c5.7-4.7,7.6-6.9,7.8-12.8
		c-0.5-5.5-13.3-32.7-18.8-48.8c-5.6-16.1-19.4-13.6-19.4-13.6s-1.5,0.6-2.1,0.9C437.8,540.3,405.9,664.7,417.4,668.6z"/>
	<path class="st20" d="M396.9,567.4c-0.7-3.7,2.4-10.8,7.1-13.8c5.1-3.3,35.7-20.2,35.7-20.2s16.3,41,12,70.1
		c-2.2,14.6-7,42.3-24.4,71.7c-10-0.1-24.5-1.2-35-6.7c6.1-21,20.4-32.5,22.9-54.1C416.9,600.8,397.3,570,396.9,567.4z"/>
	
		<linearGradient id="SVGID_17_" gradientUnits="userSpaceOnUse" x1="1073.2522" y1="775.4467" x2="1136.3876" y2="804.9871" gradientTransform="matrix(1 0 0 -1 0 1421)">
		<stop  offset="0" style="stop-color:#D2E8F2"/>
		<stop  offset="1" style="stop-color:#FFFFFF"/>
	</linearGradient>
	<path class="st30" d="M1137.1,712.5c-10.9-1.9-36.6-11.7-43.4-19c-1.6-2.6-1.4-10-1.4-15.9c-8.2-19.1-18.2-48.2-23.8-62.8
		c-4.9-12.9-1-33.9,3.3-44.7c0.3-0.7-6.9-14-6.6-14.6c8.6-15.4,23.6-24.6,28-26.6s9.7,0.1,9.7,0.1l-0.5,4.7c0,0,30.3,9.3,53.7,50.2
		c17,29.6,22.1,81.7,25.5,114.1C1182.6,707.2,1147.7,714.3,1137.1,712.5z"/>
	<path class="st31" d="M1045.7,532.4c10.9,0.3,23.2,12,28.5,23.9c14.9-7.2,25.2-22.5,28.1-23.1c-9-6.1-9.7-15.5-9.7-15.5
		S1068.2,458.3,1045.7,532.4z"/>
	<path class="st27" d="M1144.6,687.7c-9.6,8.4-52.3-6.6-52.3-6.6v-3.5c-2.4-5.6-8.2-19.8-9.4-22.9c1.7-3,38.3,10.7,35.3-5.2
		c-5.4-28.5-0.4-59.7,12.3-43C1162.1,648,1152,681.2,1144.6,687.7z"/>
	<g>
		<g>
			<path class="st32" d="M1044.1,532.9c5.5-0.3,7.6-0.8,10.8-1.5c7.5-1.7,7.4-10.7,7.4-10.7l0.3-10.4c0,0,7-1,5-8.6
				c-1.4-5.6,10.4-3.6,4.4-5.3c-8.9-2.4-3.1-22-3.1-22l-12.2-2.1l-10,6.6l-12.5,27.1c0,0-0.9,1.7,1.4,2.2c2.1,0.5,2.3,0.9,2.3,0.9
				s1.4,20.5,1.6,21.5C1039.6,531.7,1041.9,533,1044.1,532.9z"/>
		</g>
	</g>
	<path class="st20" d="M926.4,548.2c0,0-17.9,17.6-24.9,38.8s1.8,59.1,3.2,68s35.9,10.6,41.8-15.1
		C952.5,614.1,926.4,548.2,926.4,548.2z"/>
	<path class="st26" d="M436.8,657.6c0,0,4.9-12.3,5.6-15.8c-4.1,2.3-39.2,8.7-39.2,12.3C403.2,667.7,436.8,657.6,436.8,657.6z"/>
	<path class="st20" d="M444.2,629.9l-42.9,3c0,0,13.7-32.8,20.1-49.4c6.3-16.4-18.6-39.5-24.5-19.5c-5.9,20.1-16.9,61.6-17.3,75.7
		c-0.5,14.1,19.6,16.4,47.4,8c14.3-4.3,19.3-5.9,19.3-5.9L444.2,629.9z"/>
	<g>
		<path class="st33" d="M265.6,564.4c0,0,14.6,12.6,16.8,17c2.2,4.4,3.2,12.1,3.2,12.1s14.1,15.1,14.1,22.8s-4.1,14.7-4.1,14.7
			l-0.6,5c0,0,8.3,8.2,6.2,15.3c-2.1,7.1-17.4,5.6-17.4,5.6l-41.6-80.6L265.6,564.4z"/>
		
			<linearGradient id="SVGID_18_" gradientUnits="userSpaceOnUse" x1="258.2176" y1="805.1139" x2="274.2932" y2="842.195" gradientTransform="matrix(1 0 0 -1 0 1421)">
			<stop  offset="0" style="stop-color:#9FD2E3"/>
			<stop  offset="1" style="stop-color:#FFFFFF"/>
		</linearGradient>
		<path class="st34" d="M257.3,552.9l17.7,16.2l-2.3,8.4c0,0,4.6,11,9.6,18.3c5.7,8.4,13.8,18.1,12,27.1c-1.8,8.9-4.1,14.4-4.1,14.4
			l-48.5-78.5L257.3,552.9z"/>
		<path class="st26" d="M258.7,487.2c-1.3,1.6-4.1,5.2-3.8,12.9c-4.1,0.7-4.9,5.5-4.9,7.5c0.2,23.5-1.7,38-27.3,41
			C233.7,536.6,233.2,481.2,258.7,487.2z"/>
		<path class="st35" d="M278,552.2c0,0-6.6-0.1-8.3,5.6c-2.1,7.6-3,9.5-2.4,12.6c0.6,3,7.2,22,7.2,22s-15.2-18-18-21
			c-2.8-3-14-21.6-15.8-24.4s-3.1-5.2-3.1-5.2s10.2-5.4,15.8-15.8c2.8-5.1,7.2-25.4,7.2-25.4l24.2,37.8L278,552.2z"/>
		<path class="st26" d="M287.2,526.1c0,0-7.3-1.6-8-7.2c-0.7-5.7-5-7.1-9-4.4c-4.1,2.7-4.7-4.9-5-2.8c-1.5,10.5-11.8,14.3-11.8,14.3
			s-0.6-7.2-1.1-12.3c-2.1-22.7,12.8-31.3,22.5-32.7c7.3-1,18.7-1.1,32.1,8.5s7.9,22.3-6.8,29.8
			C287.9,525.5,287.2,526.1,287.2,526.1z"/>
		<path class="st36" d="M276.2,513.1c0,0,0.7-11.3-7.8-8.6c-6.8,2.1-4.4,15.1-0.9,17.9c0,0-0.5,7.4,0.2,12.1
			c0.5,3.6,1.3,10.3,6.4,15.8c3.1,3.3,8.4,5.1,9.3,5.4c2.1,0.7,4.2-0.5,4.7-1.2c0.6-0.7,11.7-13.1,11.7-13.1s4.7,2,4.5-1.8
			c-0.6-13.2,14-21.1,7.9-36c-8,5.4-16.2-4.5-23.9,3C280.3,514.4,276.2,513.1,276.2,513.1z"/>
		<path class="st26" d="M216.9,711.5c0,0-8.3-56.4-36.3-107.6c-19.7-36-0.9-32.1,12.7-32.4c13.6-0.3,38.7-0.9,38.7-0.9l31.8,132.9
			L216.9,711.5z"/>
		<path class="st20" d="M227.4,680.5c0,0-1.8,11.5,6.4,21.2S354.2,679,354.2,679l-64.4-18.9L227.4,680.5z"/>
		
			<linearGradient id="SVGID_19_" gradientUnits="userSpaceOnUse" x1="220.1588" y1="794.2269" x2="289.1356" y2="829.0177" gradientTransform="matrix(1 0 0 -1 0 1421)">
			<stop  offset="0" style="stop-color:#9FD2E3"/>
			<stop  offset="1" style="stop-color:#FFFFFF"/>
		</linearGradient>
		<path class="st37" d="M233,543.4l5.1-6.7c0,0,18.4,16.5,22.4,23.6c-0.4,3.5-1.3,7.2-1.2,9.2c5,5,26.4,33.6,30.9,41
			s-0.8,22.5-0.8,22.5s15.1,20.6,16.6,31.5c-30.6,2.1-44.5,18.2-67.8,21.2s-9.1-19.4-15.4-33.3c-6.4-13.9-23-51.8-16.2-78.3
			C212.4,551.6,233,543.4,233,543.4z"/>
		<path class="st35" d="M379.4,638.3c0,0,6.3,0.8,9.2,2.6s0.6,3.5-4.7,3.3c-5.3-0.2-6.5-0.2-6.5-0.2L379.4,638.3z"/>
		<path class="st36" d="M293.8,647l55.5-1.5c0,0,10.1-7.6,14.1-9.8c3.9-2.3,15,0,17.4,1.1s1.7,3.4,1.1,5.6c2,2.4-0.5,5.3,0.3,6.4
			c2.3,1.9-0.2,7.6-0.2,7.6s-25.6,3.6-32.5,3.5c-7-0.2-52.2,4.1-59.7,4.2C288.2,656.1,293.8,647,293.8,647z"/>
		<path class="st26" d="M367.7,637.8c0,0-10.4-17.6-11.3-18.9c-0.9-1.3,2.6-5.4,5.1-1.4c2.4,3.9,12,19.3,12,19.3L367.7,637.8z"/>
		<path class="st26" d="M362.8,625.8c-3.2-4.6-6.7-10.1-7.2-10.8c-0.5-0.8,1.3-2.3,2.1-1.1c0.8,1.2,1.6,2.5,2.3,3.6
			C365.4,626.2,366,630.4,362.8,625.8z"/>
		<path class="st21" d="M204.4,680c0,0-6.5,1.8-7.1-1.2s6.3-6.3,9.5-7.1s25.7-6.5,49.9-6.7s16.1,11.9,0.6,11.7
			C224.8,676.3,204.4,680,204.4,680z"/>
		<path class="st19" d="M298.8,647c-8.3-0.5-19.1-4.3-20.9-5.5s-17.5-35.3-22.6-54.9c-5-19.6-19.2-27.1-27.1-26.7
			c-4.8,0.2-20.8,12.3-6.1,49.6s26.1,49.9,27.5,52.5s5.4,3.8,9.9,4.4c4.4,0.6,37.7-1,37.7-1S294.3,651.8,298.8,647z"/>
		<path class="st38" d="M413.2,662.3c0,0-19.1-14.5-20.6-15.7s-3.4-0.5-8.9,0.3c-5.4,0.8-93.6,13.1-96.5,13.7
			c-0.7,0.1-1.2,0.3-1.5,0.9c-0.6,1.1-0.6,1.3-0.9,2.4c6.2,0.6,54.3,11.5,54.3,11.5L413.2,662.3z"/>
		<path class="st21" d="M411.3,664.3c0,0-19.1-14.5-20.6-15.7s-4.2,0-9.7,0.6c-5.4,0.6-91.5,12.8-94.4,13.4
			c-2.9,0.6-2.7,2.7,3.3,4.6c5.9,1.8,44.8,13.6,44.8,13.6L411.3,664.3z"/>
		<path class="st19" d="M248.8,565.7c0,0,8.2-0.2,11.6-5.4c-3.5-8-22.4-23.6-22.4-23.6l-5.4,5.4L248.8,565.7z"/>
	</g>
	<path class="st27" d="M923,530.9c-5.5,6.3-10.8,13.9-10.8,13.9l5.2,9.6c0,0-6.1,11.6-8.5,22.8c-2.4,11.1-2.7,61.2-0.1,78.6
		c1.1,7.2,47.8,5.8,47.8,5.8L949,522C949,522,928.4,524.6,923,530.9z"/>
	<path class="st35" d="M923.4,546.3c-4.2-6-8.4-18.6-29.4-18.3c-10.7-11.6,10.3-48.4,10.3-48.4l30.3,22.2c0,0-1.9,12.5,8,20.2
		C932.9,538.9,924,547,923.4,546.3z"/>
	<path class="st18" d="M925.2,548.5c0,0-6.5-0.6-7.5,1.6c-0.9,2.2,1.1,8.8,1.1,8.8s-3,13.3-5,27.6c-3.2,24.1-3.8,55.1-3.8,55.1
		l7.9,14.5c0,0,8-11.3,8-15.2c-5.1-35.5-3.6-82.5-3.6-82.5L925.2,548.5z"/>
	<path class="st19" d="M949.3,521.4l-6.1-2.8c0,0-11.3,7.9-23.1,27.9c2.2,3.5,8.9,8.1,8.9,8.1L949.3,521.4z"/>
	<g>
		<path class="st20" d="M949.3,523.8c0,0-3.2,5.6-6.9,13.5c-4.7,10-5.9,31.8-7.6,42.2c-1.6,9.8-3.1,18.7-0.2,30.5
			c2.1,8.4,12,47.1,18.3,57.4c6.3,10.4,49.7,7.7,49.7,7.7s-17.5-64.1-11.1-87.4c6.2-22.3,5.6-38.8-0.3-46
			c-5.7-6.9-29.9-13.3-37.5-17.7C952.1,523.1,949.3,523.8,949.3,523.8z"/>
		<path class="st26" d="M976.1,573.4c23.8-0.5-7.8,97.6-7.8,97.6s-4.4,1.5-14.3,0.3c-1.5-3.8-8.5-22.2-9.9-26.8
			c10.7-6.4,17.2-4.2,21.9-20.3C970.6,607.9,961.3,573.7,976.1,573.4z"/>
		<path class="st21" d="M933,595.4c0,0,13.8-35.8,16.5-40.8c1.4-2.6-6.3-8.9-6.3-8.9l9.4-4.5l0.6-17.6l-3.8-2.3
			c0,0-5.5,6.3-10.5,23.2C930.5,572.4,933,595.4,933,595.4z"/>
	</g>
	<polygon class="st19" points="548.4,626.7 811.1,628.4 1212.5,720 172,719.8 	"/>
	<g>
		<path class="st39" d="M934.5,689.8c0,0,7.2,10.8,12.1,19c0.4,0.6,3.2,0.6,4,0.6c33.8-0.8,87.4-6.4,103.9-7.9c3.9-0.3-1.2-2-1.2-2
			l-29.4-11.4L934.5,689.8z"/>
		<path class="st27" d="M934.7,688.2c0,0,5.9,7.8,15.6,17.2c30.5,1.6,108.2-5.4,108.2-5.4l-33.6-14.1L934.7,688.2z"/>
	</g>
	<path class="st20" d="M906.4,628.4c-1.1-11.7,1.6-53.5,8.3-68.4c-5.6,5.4-14.6,31.1-23.9,46.8c-10.4,17.6-24.3,28.3-23.6,33
		c1.4,8.9,11.9,19.1,27,4.9C897.7,641.4,904.9,629.8,906.4,628.4z"/>
	<g>
		<path class="st40" d="M964.9,685.1c1.8-2.8,15.2-24.1,13.8-25.4c-2.3-2.1-17.8,23.7-19.6,26.6c-0.2,0.2-4.1,7.2-4.1,7.2
			c1.1,1.4,3.9-2.4,5.2-1.8C963.4,687.5,964.8,685.3,964.9,685.1z"/>
		<path class="st32" d="M1029.3,664.3c-8.4,1.4-31.2,7.3-39.9,9.5c-1.5-0.7-4.3-3.9-13.8-6c-12.8-2.8-24.5,16.9-24.5,16.9
			s5.3,1.9,6.8-1.8c4,1.3,11.6-11.2,16.4-3.3c0.4,0.7-12,2.7-13.3,3.2c-3.1,1.1-1.7,4.3-1.7,4.3s17-0.7,24.2-0.4
			c2.6,0.1,5.7-0.4,8.3-2.8c1-0.2,31.5-4.4,40-5.4C1041.3,677.3,1038.4,662.8,1029.3,664.3z"/>
		<path class="st40" d="M971.2,675.8c1.9-2.6,13-18.8,10.3-20.3c-2.7-1.6-14.1,17.2-15.8,20.1c-0.1,0.3-3.9,6.2-3.9,6.2
			c1.2,0,4.6-0.8,5.6-0.8C967.4,681.1,971,676.1,971.2,675.8z"/>
	</g>
	<g>
		<path class="st21" d="M849.9,674.9c0,0,1.6,0.7,4.4,0.4c2.5-0.2,39.8-4.9,49.6-5.7c2.3-0.2,1.5-2.4,0.8-2.6
			c-0.7-0.2-41.4-17.1-42.4-17.4c-1.1-0.4-3.3-0.3-3.3-0.3l-50.7,3.5c0,0-0.3,2.8,1.2,3.5C811.1,656.9,849.9,674.9,849.9,674.9z"/>
		<polygon class="st41" points="872.2,654.7 885.7,660.2 873,661.2 859.6,655.5 		"/>
		<polygon class="st41" points="838.8,651 878.2,668.7 874.5,669 835.6,651.2 		"/>
		<polygon class="st41" points="832.7,651.5 871.2,669.2 867.4,669.6 829.6,651.6 		"/>
		<polygon class="st41" points="827.1,651.8 864.1,669.8 860.4,670.1 823.9,651.9 		"/>
		<path class="st26" d="M850.7,671c0,0-0.6,0.5-1.5,0.2s-41.9-18.3-41.9-18.3s-24.2-41.7-24.8-42.8s0-1.7,1.4-1.3
			s35.8,10.2,37.1,10.6s1.9,1.1,3.2,3.1C825.3,624.5,850.7,671,850.7,671z"/>
	</g>
	<g>
		<path class="st35" d="M883.8,567.7c0,0,1-7.7,1.4-10.5c6.4-2.1,8.8-12.4,8.4-14.5c-0.4-2.1,2.7-10.7,3.5-12.5
			c0.7-1.7-1.9-1.4-3.2-0.3c-2.4,2-5,7.4-5,7.4l1.1-7.3l-14.5,3c0,0-3.3,10.3-4.3,14.7c-1.1,4.4,2.4,9.1,2.4,9.1l-2.3,14.9
			L883.8,567.7z"/>
		<path class="st20" d="M885,562.8c-0.3,17.3,2,49,5.8,68.6s-20.7,31.4-25,4.4s4-73,4-73S879,561.6,885,562.8z"/>
		<path class="st36" d="M871.2,541.4c0.5,2.7,3.4,1.1,3.7,0.1c1.9,1.3,3.7,0.1,4.2-1.4c3.2,1.2,4.5-4.6,4.5-4.6s0.8,2.3,3.1,0.8
			c1.7-1.2,3.4-5.2,3.4-6.6c0-1.5-3.1-2.5-5.1-0.4c-0.7-0.7-4-0.7-5.5,2.1c-0.6-0.7-2.9-2.1-4,0.5c-1.8-0.7-4.2,0.5-4.4,2.3
			C871.1,534.1,870.6,537.8,871.2,541.4z"/>
	</g>
	<g>
		<path class="st35" d="M916.5,675c-1.2,0.5-4.4,1.4-9.3-0.4c-1.2-0.5-2.5-3.1-1.6-3.6c-1.2,0.3-3.7,0.6-4.4,0.1
			c-1.5-0.9-1.8-3-1.8-3s-1.6,0.3-2.6-0.1c-1-0.4-1.4-2.1-1-3.3c0.9-2.4,4.5-3,7.2-4.7c0.3-0.2,3.6-4.4,5.3-5
			c3-1.1,5.7,9.8,7.3,13.5C917.4,672.6,916.5,675,916.5,675z"/>
		<path class="st36" d="M929.8,656.4c0,0-10.4-3.8-14.1-3c-3.1,0.7-5.3,0.6-7.4,1.4c-0.9,0.4-1.7,1.3-1.4,2.3c0.4,1,1.7,1.1,1.7,1.1
			s-4,2.7-3.9,4.1c0.3,2.5,2.8,2.4,2.9,5c0.1,2.6,3.2,2.8,3.4,4.8c0.2,1.6,1.1,2.3,2,3.3s5.1,0.4,9.3-1.6c1.5-0.7,9.2-6.4,9.2-6.4
			s30.9-9.5,47-15.5s-1.7-18.8-13-13.6C953.7,643.9,929.8,656.4,929.8,656.4z"/>
		<path class="st20" d="M937.8,652.1c0,0,60.8-29.8,59.8-34.6s-21.4-30.7-34.3-50.3c-12.9-19.6,19.3-44.3,31.7-19.4
			c12.5,25,30.4,51,34.3,69.4s-27.6,31-57.2,41.4c-7.1,2.5-28,8-28,8L937.8,652.1z"/>
	</g>
	<g>
		<path class="st39" d="M582.3,643.8c0,0-5.4,8.1-9.1,14.3c-0.3,0.4-2.4,0.4-3,0.4c-25.3-0.6-65.6-4.8-78-5.9
			c-2.9-0.3,0.9-1.5,0.9-1.5l22.1-8.6L582.3,643.8z"/>
		<path class="st27" d="M582.2,642.6c0,0-4.5,5.9-11.7,12.9c-22.9,1.2-81.2-4.1-81.2-4.1l25.2-10.6L582.2,642.6z"/>
	</g>
	<g>
		<path class="st27" d="M1053.5,657.2c-18.2,4.7-33.7,8.1-58.9,14c3.2,9.1,6,13.5,6,13.5s50.7-3.3,69.9-10.5L1053.5,657.2z"/>
	</g>
	<path class="st42" d="M1075.4,561.5c0,0-3.6,1.7-4,7.7c-0.3,3.6,1.2,6.1,1.2,6.1s-9,23.1-7.9,53.3c1.8,46.2,0.8,55.4,0.8,55.4
		s5.5,7.6,10.5,12.1c0.7,0.6,2.3,0.5,3.4-0.7l8.7-11.2c0,0-3.7-12.6-10.7-57.4c-4.8-30.9,0-50.4,0-50.4s2.3-4.1,4.8-8.6
		C1076.4,563.6,1075.4,561.5,1075.4,561.5z"/>
	<path class="st43" d="M562.9,638.7c-0.4-1.4-4.9-5-7.3-6.4c-6.8-2.1-18.7,2-20.2,2.6c-6.2-2.6-21.1-8.9-39.2-16.4
		c-0.9,1.3-6.9,13.4-6.9,13.4s37.1,7.6,45.2,9.9c1,0.9,4.2,3.4,8.6,3.7c4.6,0.3,12.7,2,14.6,1.1c-0.5-1.9-0.1-2.5-5.6-3.7
		c-5-1.1-5.7-1.4-6-2.4c4.2-2.7,6.4-3.7,8.8-0.8c3.5,4.4,5.1,4.7,6.4,4.1c0.2,0.6,0.9,1.8,1.2,2.1c0.9,0.9,1.9,0.6,3,0.2
		C565.1,644.3,563.8,640.7,562.9,638.7z"/>
	<path class="st20" d="M474.3,628.2c11.2,6.4,48.3,13.1,48.3,13.1l4.1-9.9c0,0-26.1-11.7-32.1-14.8L474.3,628.2z"/>
	<path class="st43" d="M444.2,629.8c0,0,2.7,0,16.4-1.8c0.6-1.8,10.5-3,22.9-4c0.6,3.9-8.2,4.8-9.5,5.5c3,1.8,22,10.1,23.1,10.8
		s0.3,3.2,0.3,3.2s2.9,2,0.4,2.5s-13.5-2.8-13.5-2.8s7.7,3.7,8.5,4c0.8,0.2-0.8,3-7.5,1c-2.6-0.7-20.9-4.4-23.6-11.1
		c-0.8-0.1-15.7,3.5-15.7,3.5L444.2,629.8z"/>
	<path class="st32" d="M1064,640.5c0,0-17.5-1.2-34.7-3.4c-0.7-2.2-13.2-3.8-28.7-5c-0.7,4.9,10.3,6.1,11.9,7
		c-5.7,2.8-25.7,12-27.1,12.8c-1.4,0.8-1.7,3.4-0.3,4c-0.5,0.9-1.9,2.6,1.2,3.3c3.1,0.7,15.2-3.6,15.2-3.6s-9.5,4.4-10.7,5
		c-1,0.5-0.7,3.2,4,1.7c1.3-0.4,5.7-1.6,12.6-3.8c9-1.8,18.6-5,20.5-9.9c1-0.2,32.4,7.5,32.4,7.5L1064,640.5z"/>
	<path class="st19" d="M1036.2,637.8c0,0,71.3,5.8,77,6.4c1.8-4.4-4.2-30.9-2.7-60.2c0.9-18.1,13.3-35.5,27.4-16
		c12.9,17.7,12.1,50.4,11.3,76.7c-0.4,14.5,1,26.5-23.5,27.5c-34.1,1.3-90.2-18-90.2-18L1036.2,637.8z"/>
	<path class="st27" d="M1071.8,557.8c0,0,3.2,7.5,11.1,11.7c12.3-22.8,25.8-33.2,25.8-33.2s-2.7-4-5.7-7.4
		C1090.6,533.4,1071.8,557.8,1071.8,557.8z"/>
	<g>
		<g>
			<g>
				<path class="st26" d="M1085.3,476.6c-2-6.3-4.9-7.9-8.6-8.9c-2.9-0.7-5.9,0.3-7.2-1.5c-2.7-3.7-6.9-4-9.3-3
					c-5,2.5-6.9-2.1-11.7-0.5c-7.2,2.5-8.8,12.1-2.4,17.4c9.9-1.2,11.5,2.3,8.9,8.9c-0.3,1.2-2.8,7.5-3.3,11.9
					c0.4,2.5,2.7,3.4,4.9,2.7c2.5-6.4,7.2-7.2,10.5-3c3.4,4.4-0.1,24.5,21,19.5c0.7-0.2,3.4-1.5,4.5-2.3
					C1090.5,505.8,1099.2,479.5,1085.3,476.6z"/>
			</g>
		</g>
	</g>
	<g>
		<g>
			<path class="st44" d="M478.1,530.8c-4.6,0.7-16.3,4.1-20.4,19.6c-1.5,3.8-9.5-2.2-11.8-3.9c-8-6.1-6.8-12.4-6.8-12.4
				s6.4-4.9,5.9-11.2c-0.5-5.9,10.7-37.3,10.7-37.3S482.7,530.1,478.1,530.8z"/>
			<path class="st45" d="M462.4,498.2c0,0,5.4,4.1,3.7,6c-4.1,4.6,2.9,10.2,2.9,10.2s1.5,13.2,4.9,15.5c0.8,0.5,1.8,1.2,4.3,1.3
				c0.6,0,2.6-0.4,2.8-1.7c0.1-0.6,2.7-15.2,2.7-15.2s3-1.2,1.6-3.3c-7.2-10.2-2.1-17.5-11.7-21.7L462.4,498.2z"/>
		</g>
	</g>
	<path class="st28" d="M475.6,481.3c-0.9-2.9-7-5.4-12.2-5.1c-10.8,0.6-19.7,9.8-23.3,13c-3.6,3.2-3.8,21.4,2.1,29.8
		c1,1.5,2.2,3,2.2,3s11.2,3.1,13.3-3.5c1.3-4,5.3-10.7,7.7-12.8c1.6-1.4,5-3.1,5.4,0.6c0.3,2.7,0.7,2.7,2.3,2.1
		c0.6-0.2,5-2.6,9.1-8.1C491.3,489.1,483.6,480,475.6,481.3z"/>
	<path class="st42" d="M439.7,533.4l-10,5.5c0,0,14.6,29.5,19.9,29C448.3,556.8,439.7,533.4,439.7,533.4z"/>
	<g>
		<path class="st46" d="M644.4,437.2c0,0-1.3-11.2-1.2-14.8c0.1-3.5,1.3-4.3,1.3-4.3s-0.6-1.3-0.7-2.5c-0.1-1.2,1.7-2,1.7-2
			s-1.1-6.1,2.8-6.7c0.7-2.1,3.2-7.3,9.7-4.3c2.9,1.3,6.2-6.4,15.7,1.8c3.6,3.1,7.8,1.2,9.9,10c1,4-1.2,7.4-1.2,7.4s0.6,1.4-0.1,6.3
			c-0.7,4.8-4.8,13.2-4.8,13.2L644.4,437.2z"/>
		<g>
			<path class="st47" d="M708.9,488.5c4.7,24.7,7.3,49.7,7.8,56.1c0.6,3-9.4,28.9-16.9,14.7c-1.2-4.5-16.2-32-19.1-59.3
				c-3-28,10.3-25.3,23.6-24.9C706.3,478.4,707.7,482.5,708.9,488.5z"/>
		</g>
		<path class="st19" d="M740.7,538.2c-2.8-0.6-20,6-23.8,6.1c-7.4,0.2-30.4,21.4-4,20.1c14-0.7,28.3-13.7,32.9-17.6
			C745,541.2,740.7,538.2,740.7,538.2z"/>
		<path class="st36" d="M749.8,531.1c3.2-0.2,6.6-0.1,6.6-0.1s9.3-2.2,11.8-2.3c2.5-0.2,2.8,2.7,0.4,3.2c-2.4,0.6-2.5,0.7-2.9,0.9
			c0.2,1.1-2.7,5-5.4,6.1c-0.9,0.4-1.6,0.5-2.3,0.6c0.3,3.8-5.3,4.6-5.3,4.6s-1.4,2.9-4.2,3.3c-2.8,0.4-10.4,3.3-11.8-0.6
			c-1.5-3.9-0.8-6.7,0.9-10.3s4.6-8.5,8-10.4s4.1-5.3,6.7-7.3c2.6-2,4.2,0,2.8,3.3C753.7,525.3,749.7,528.5,749.8,531.1z"/>
		<path class="st48" d="M607.7,611.6c0,0-0.3,1.4-0.5,5.2c1.4,1.7,1.1,6.6,2.6,8.4c0.7,0.9,4.2,2.6,5,3.1s0.3,2.3-2.8,2.5
			c-2.6,0.2-6.2-2-8-2.8c-1.2-0.5-1.8-0.4-3-0.4c-5.4,0-7.7,1.3-13.3,4.3c-1.8,1-4.1,0-2.9-1.2c0.3-0.3,1.4-1.4,1.4-1.4
			s-3.2,2-4.5,2.7s-4.1,0.8-3.9-0.4c-1.1,0.6-4.8,0.5-3.1-1.3c1-1.1,8.4-5.1,8.4-5.1s5.4-2.8,6.4-3.3s6.8-4.1,8-4.9
			c2.1-1.5,2.6-11.5,2.6-11.5L607.7,611.6z"/>
		
			<linearGradient id="SVGID_20_" gradientUnits="userSpaceOnUse" x1="758.4957" y1="956.9633" x2="681.5643" y2="915.7499" gradientTransform="matrix(0.9999 -1.220000e-02 -1.220000e-02 -0.9999 4.1495 1443.2773)">
			<stop  offset="0" style="stop-color:#D2E8F2"/>
			<stop  offset="1" style="stop-color:#FFFFFF"/>
		</linearGradient>
		<path class="st49" d="M610.6,472.6c0,0,13.3-9.1,29.7-13.8c0.7-1.2,2.7-4.5,2.7-4.5s3.1-3,10.2-3.3c8.7-0.3,18.7,5.8,18.7,5.8
			s1.5,2.9,2.4,4.2c17.8,4.3,29.9,14.9,30.5,15.2c3.2,11.6,1.8,31.1-8.4,57.9c-1.9,10.1-2.4,41.1-2,56.8
			c-19.2,9.8-62.9,11.4-76.5,4.8c1.5-13,0.5-27.3,2.3-36.1C617.8,543.5,610.6,472.6,610.6,472.6z"/>
		<g>
			<path class="st50" d="M668.7,465.4c3.4-6.1,6.4-19.1,6.5-22c-1.9,1.6-8.3,10.6-11,9.4c-3-1.3-5.8-0.5-8.1,0.3
				c-2.2,0.9-7-9.9-9.2-12.9c0.5,4.8-0.1,9.8-2.3,16.2c4,9.7,8.5,11.6,10.3,11.7c1.9,1.7,3.5,3.3,3.5,3.3s5.4,0.4,6.9,0.3
				C666,471,668,467.1,668.7,465.4z"/>
		</g>
		<path class="st47" d="M670.2,468.4c2.1,3.1,6.1,6.9,7.4,7.8c-0.9,2.4-11.5-2.9-11.5-2.9S667.9,466.8,670.2,468.4z"/>
		<path class="st27" d="M625.5,505.5l-4.8,37.7l-2.9,52.3c0,0,8,4.7,26.7,3.7c1.2-8.7-2-14.7-2.5-26c-0.2-4.6,0.5-13.4,0-17
			C640.2,543.8,625.5,505.5,625.5,505.5z"/>
		<path class="st24" d="M654.8,471.4c0,0,2.8-2,6.6-2.2s5,2,5,2s-1,3.7-2,6.1c5.1,14.9,16.4,70.5,17.8,87c0.2,1.6-0.2,2.1-0.5,2.7
			c-1.3,2.7-4.9,8-7.7,10.6c-0.6,0.6-1.4,1.7-3.7-0.3c-2.8-2-6.5-5.6-9.5-8.7c-1.7-2.3-2.3-2.3-2.2-3.9c-0.3-31,4.2-58.3,0.7-86.8
			C658.3,476,654.8,471.4,654.8,471.4z"/>
		<path class="st19" d="M613.5,471.1c-3.3,1.7-6.3,2.3-9.5,8.7c-7.4,14.6-2.2,49.3-3.8,67.2c-3.3,7.4-1.3,66.1-1.3,66.1
			s7.1,2.9,11.8,0.6c1-4.2,12.4-46.5,8.6-66.2c1.4-7.6,10.2-32.2,8.6-43.3L613.5,471.1z"/>
		<path class="st47" d="M654.8,468c-5.2-3-11.8-14-11.8-14l-2.8,4.5c0,0,2.9,13.4,6.4,18.6C649.5,476.3,654.9,468.6,654.8,468z"/>
		<path class="st43" d="M646.8,433.6c0,0,2.8,3.1,2.8-1.3c0-7.9-0.2-13.1,1.4-16.3c0.3-0.7,1.6-4.4,5.9-4.7
			c2.6-0.1,6.5,2.6,10.4,3.3c1.5,0.3,5.6-1.4,7.3-0.8c1.7,0.8,6.5,3,2.5,18.8c-0.5,2.1,0,4.4,0.9,3s3-2.4,3.9-1.4c0,0,0,0,0-0.1
			c0.3,0.3,0.4,0.7,0.5,1.3c0.5,3.4-1.5,5.5-2.3,6.7c-1.1,1.9-3.1,2.2-3.1,2.2s-4,9.8-8.5,12.9c-4.2,2.9-12.7,2.2-16-2.2
			c-3.6-5-5.4-13.2-5.4-13.2s-1.7-0.3-3.1-2.2c-1.9-2.5-1.7-7.5-0.5-7.9C645.6,431.3,646.8,433.6,646.8,433.6z"/>
	</g>
	<g>
		<g>
			<path class="st51" d="M894.3,527.9c4.6-0.7,6.6-1.5,9.2-2.3c6.3-2,6.3-9.9,6.3-9.9l-0.2-8.5c0,0,4.2-2.6,2-9
				c-1.7-4.7-0.5-22.4-0.5-22.4l-10.6-0.8l-8,6.4l-9.1,24.1c0,0-0.2,1.2,1.6,2c1,0.4,2.1,1,2.1,1s3,17.1,3.3,18
				C890.7,527.4,892.4,528.2,894.3,527.9z"/>
			<path class="st26" d="M926.7,478c-8-12.5-28.4-3.7-34.5-10.6c-5.7,3.1-6.1,12.1-0.1,15.6c8-2.3,8.7,1.1,7.5,6.8
				c-0.1,1.1-1.3,6.6-1.2,10.4c0.7,2.1,2.7,2.5,4.4,1.6c1.2-5.6,5-6.9,8.3-3.9c3.4,3.2,3.3,22.5,20.2,15.5c2-0.9,3.2-1.8,4-2.6
				C934.7,506.7,938.1,480.4,926.7,478z"/>
		</g>
	</g>
</g>
</svg>
