<svg width="40" height="40" viewBox="0 0 40 40" fill="none" xmlns="http://www.w3.org/2000/svg">
<path d="M38.7886 7.22412V37.2302C38.7886 37.8969 38.2432 38.4423 37.5765 38.4423H2.42501C1.75228 38.4423 1.21289 37.8969 1.21289 37.2302V7.22412H38.7886Z" fill="#7CB5E8"/>
<path opacity="0.3" d="M38.7875 7.22412V31.3271H30.6421C17.333 31.3271 6.53906 20.5332 6.53906 7.22412H38.7875Z" fill="white"/>
<path d="M38.7887 2.76974V7.22428H12.7402V1.55762H37.5766C38.2433 1.55762 38.7887 2.10307 38.7887 2.76974Z" fill="#FFAB03"/>
<path opacity="0.3" d="M38.7883 2.76974V5.35762H18.7277C16.6308 5.35762 14.9277 3.65459 14.9277 1.55762H37.5762C38.2429 1.55762 38.7883 2.10307 38.7883 2.76974Z" fill="white"/>
<path d="M12.7402 1.55762V7.22428H1.21289V2.76974C1.21289 2.10307 1.75228 1.55762 2.42501 1.55762H12.7402Z" fill="#EF4A51"/>
<path opacity="0.3" d="M12.7401 1.55762V5.35762H7.07344C4.97647 5.35762 3.27344 3.65459 3.27344 1.55762H12.7401Z" fill="white"/>
<path d="M35.7264 4.99996H14.9264C14.5931 4.99996 14.3204 4.72724 14.3204 4.3939C14.3204 4.06057 14.5931 3.78784 14.9264 3.78784H35.7264C36.0598 3.78784 36.3325 4.06057 36.3325 4.3939C36.3325 4.72724 36.0658 4.99996 35.7264 4.99996ZM4.30825 4.99996H3.86583C3.53249 4.99996 3.25977 4.72724 3.25977 4.3939C3.25977 4.06057 3.53249 3.78784 3.86583 3.78784H4.30219C4.63552 3.78784 4.90825 4.06057 4.90825 4.3939C4.90825 4.72724 4.64158 4.99996 4.30825 4.99996ZM7.1931 4.99996H6.75674C6.4234 4.99996 6.15067 4.72724 6.15067 4.3939C6.15067 4.06057 6.4234 3.78784 6.75674 3.78784H7.1931C7.52643 3.78784 7.79916 4.06057 7.79916 4.3939C7.79916 4.72724 7.52643 4.99996 7.1931 4.99996ZM10.084 4.99996H9.64764C9.31431 4.99996 9.04158 4.72724 9.04158 4.3939C9.04158 4.06057 9.31431 3.78784 9.64764 3.78784H10.084C10.4173 3.78784 10.6901 4.06057 10.6901 4.3939C10.6901 4.72724 10.4173 4.99996 10.084 4.99996Z" fill="white"/>
<path d="M35.9143 11.3213H4.08398V22.1516H35.9143V11.3213Z" fill="#8ABA55"/>
<path opacity="0.3" d="M35.9157 11.3213V19.2607H15.1581C10.7763 19.2607 7.21875 15.7031 7.21875 11.3213H35.9157Z" fill="white"/>
<path opacity="0.3" d="M35.9155 11.3213H27.6367C27.6367 12.4364 28.5398 13.3395 29.6549 13.3395H32.6004C33.2852 13.3395 33.8428 13.897 33.8428 14.5819V17.0061C33.8428 18.1213 34.7458 19.0243 35.861 19.0243H35.9155V11.3213Z" fill="white"/>
<path d="M11.987 25.6667H4.08398V34.3455H11.987V25.6667Z" fill="#4E6575"/>
<path d="M23.9519 25.6667H16.0488V34.3455H23.9519V25.6667Z" fill="#FFAB03"/>
<path d="M35.9149 25.6667H28.0059V34.3455H35.9149V25.6667Z" fill="#E2E2E2"/>
<path opacity="0.3" d="M11.9881 25.6667V31.6183C9.1942 31.6183 6.93359 29.3577 6.93359 26.5637V25.6667H11.9881ZM23.9518 25.6667V31.6183C21.1578 31.6183 18.8972 29.3577 18.8972 26.5637V25.6667H23.9518ZM35.9154 25.6667V31.6183C33.1215 31.6183 30.8609 29.3577 30.8609 26.5637V25.6667H35.9154Z" fill="white"/>
</svg>
