<svg height="512"  viewBox="0 0 60 60" width="512" xmlns="http://www.w3.org/2000/svg"><g id="Page-1" fill="none" fill-rule="evenodd"><g id="002---Shopping" fill="rgb(0,0,0)" fill-rule="nonzero" transform="translate(0 -1)"><path  fill="#ffffff" id="Shape" d="m22 51c-.5522847 0-1 .4477153-1 1v4c0 .5522847.4477153 1 1 1s1-.4477153 1-1v-4c0-.5522847-.4477153-1-1-1z"/><path  fill="#ffffff" id="Shape" d="m26 51c-.5522847 0-1 .4477153-1 1v4c0 .5522847.4477153 1 1 1s1-.4477153 1-1v-4c0-.5522847-.4477153-1-1-1z"/><path  fill="#ffffff" id="Shape" d="m18 51c-.5522847 0-1 .4477153-1 1v4c0 .5522847.4477153 1 1 1s1-.4477153 1-1v-4c0-.5522847-.4477153-1-1-1z"/><path  fill="#ffffff" id="Shape" d="m55 20.739v-3.017c.6167513-.3544126.997855-1.0106732 1-1.722v-2c0-1.6568542-1.3431458-3-3-3h-4c-1.6568542 0-3 1.3431458-3 3v2c.002145.7113268.3832487 1.3675874 1 1.722v3.017c-2.958 1.148-5 3.52-5 6.261v14c-1.0176864-.0005953-2.0294458.1548784-3 .461v-19.461c-.0037437-.9889147-.7296739-1.8266245-1.708-1.971.386-.588.7626667-1.192 1.13-1.812 1.9261947-3.1557751 3.3539883-6.5898329 4.233-10.181.924-4.325-.191-6-1.288-6.648-2.533-1.494-6.475 1.456-9.988 5.912-.005.006-.012.008-.017.014s-.008.019-.015.028c-.3013333.38333333-.5986667.77633333-.892 1.179-.6794046-1.47741936-1.9245196-2.61946547-3.455-3.169v-1.352c0-1.65685425-1.3431458-3-3-3h-2c-1.6568542 0-3 1.34314575-3 3v1.347c-1.4565875.50944624-2.6593351 1.5631047-3.356 2.94-2.3553766-.63349817-4.86994-.20728242-6.885 1.167-.30777563-1.2733484-.4618739-2.57898713-.459-3.889 0-.55228475-.44771525-1-1-1s-1 .44771525-1 1c-.0013063 1.22038369.11760111 2.43792864.355 3.635-1.88979402-.84821651-4.04099979-.90225786-5.971-.15-.50859103.16944276-.79310002.7097893-.645 1.225.042.147 1.066 3.631 3.9 4.672.37466053.1333827.76481254.2184029 1.161.253-.06638144.4301555-.099812.8647527-.1 1.3-.00132471 1.3287143.3151443 2.6384777.923 3.82-.573466.3664839-.92121166.9994337-.923 1.68v32c.00440864 3.8641657 3.13583434 6.9955914 7 7h20c1.6480415-.0057824 3.2413398-.5921162 4.5-1.656 1.6303461 1.0813792 3.5436239 1.6574498 5.5 1.656.27 0 .535-.019.8-.04.0650283.0205097.1320855.0339212.2.04h14c1.6568542 0 3-1.3431458 3-3v-31c0-2.741-2.042-5.113-5-6.261zm-7-6.739c0-.5522847.4477153-1 1-1h4c.5522847 0 1 .4477153 1 1v2h-6zm1 4h4v2.18c-1.3225312-.2400242-2.6774688-.2400242-4 0zm-2.725 25.49c-.9180724.5512648-2.029256.6799128-3.049.353.1592396-.4483136.3811048-.8718438.659-1.258.009-.015.021-.026.029-.041.9386844-1.2371756 2.4040347-1.9615186 3.957-1.9560313-.1552626 1.1313017-.7237919 2.1650562-1.596 2.9020313zm-5.922-40.378c.537.316.949 1.685.347 4.507-.834103 3.3805288-2.1832095 6.6126507-4 9.583-.578.979-1.189 1.912-1.814 2.8h-2.886v-4.002c-.0052809-1.415523-.6142654-2.7615461-1.674-3.7.637-1.027 1.28-1.979 1.918-2.84.5393469.6134917.956798 1.3241767 1.23 2.094.1180763.3372587.4071086.5859057.7582214.652278s.7109635-.0596136.944-.3305.3038549-.6455193.1857786-.982778c-.3982617-1.1305628-1.0330456-2.1631945-1.862-3.029 3.086-3.692 5.852-5.341 6.853-4.752zm-22.353 16.888v-3h1.96c-.0787651 1.0707398-.4302498 2.1035059-1.021 3zm3.96-3h4.04v3h-4.784c.4338777-.9445158.6862636-1.9622011.744-3zm4.04-2h-8c-1.1045695 0-2 .8954305-2 2v3h-2v-4c0-1.6568542 1.3431458-3 3-3h10c1.6568542 0 3 1.3431458 3 3v4h-2v-3c0-1.1045695-.8954305-2-2-2zm-5-11c0-.55228475.4477153-1 1-1h2c.5522847 0 1 .44771525 1 1v1h-4zm0 3h4c2.0809278.00922805 3.8071863 1.61243081 3.97 3.687-.126.2-.248.4-.372.6-.5131501-.1833041-1.0531346-.280285-1.598-.287h-7.056c-.6768395-.8016158-1.4980391-1.46915847-2.421-1.968.7066113-1.25592064 2.0359464-2.03279977 3.477-2.032zm-7.5 3c1.2217471.0030668 2.4177374.3514639 3.45 1.005-2.7399303.0273994-4.9473969 2.254934-4.95 4.995v4h-3.939c-.99987446-1.4752604-1.31205887-3.3111673-.856-5.034.80062861-.2504853 1.561327-.6141658 2.259-1.08.03-.019.058-.032.088-.052.05387034-.0393845.10347353-.0842955.148-.134.0310109-.0261881.0603986-.05424.088-.084.0746377-.0932029.13157679-.1992858.168-.313.03500218-.1158998.0482254-.2372821.039-.358-.00549603-.0384844-.01351328-.0765663-.024-.114-.00711237-.0678441-.02084443-.1348298-.041-.2-.025-.062-.058-.128-.087-.193-.159-.308-.292-.641-.427-.973 1.1486782-.9499284 2.5934245-1.46818332 4.084-1.465zm-11.158.671c1.78597867-.5024961 3.70188657.0635676 4.928 1.456.018.018.025.042.044.06s.016.007.023.013c.11727078.1387417.22709204.2836123.329.434-.900807.5748118-2.00534256.734372-3.032.438-1.03619611-.4871832-1.85344976-1.3433027-2.292-2.401zm9.658 48.329c-2.76005315-.0033061-4.99669388-2.2399468-5-5v-28h2c.55228475 0 1-.4477153 1-1s-.44771525-1-1-1h-2v-2h30v2h-23c-.5522847 0-1 .4477153-1 1s.4477153 1 1 1h23v16.353c-2.689442 1.5485439-4.5053434 4.2602005-4.9131255 7.3366921s.6389773 6.1675876 2.8321255 8.3633079c-.8472484.6186117-1.8699534.950404-2.919.947zm22-8c.006923-4.1775646 3.2248134-7.6475739 7.39-7.969-.1720724.4457222-.2905699.9103127-.353 1.384-.0577223.4691326.2209104.9146112.668 1.068.8969577.324638 1.8412652.4993096 2.795.517 1.03974.0214837 2.0600069-.2838619 2.917-.873 1.6529779 1.5041686 2.5914999 3.638098 2.583 5.873 0 4.418278-3.581722 8-8 8s-8-3.581722-8-8zm24-18h-7c-.5522847 0-1 .4477153-1 1s.4477153 1 1 1h7v13h-3c-.5522847 0-1 .4477153-1 1s.4477153 1 1 1h3v8c0 .5522847-.4477153 1-1 1h-9.025c2.3825374-1.7692196 3.8527865-4.5080952 4.0107488-7.4714835s-1.0127932-5.8430416-3.1937488-7.8555165c.7292386-1.2324582 1.1440946-2.6253854 1.208-4.056.010725-.5351473-.4018357-.9838512-.936-1.018-1.7699497-.1795353-3.5497367.2292112-5.064 1.163v-4.762h2c.5522847 0 1-.4477153 1-1s-.4477153-1-1-1h-2v-6c0-2.757 3.14-5 7-5s7 2.243 7 5z"/></g></g></svg>