<svg width="388" height="329" viewBox="0 0 388 329" fill="none" xmlns="http://www.w3.org/2000/svg">
<path d="M341.889 290.207H322.697V290.457H341.889V290.207Z" fill="#EBEBEB"/>
<path d="M275.109 296.838H261.027V297.088H275.109V296.838Z" fill="#EBEBEB"/>
<path d="M252.124 296.838H216.68V297.088H252.124V296.838Z" fill="#EBEBEB"/>
<path d="M196.097 292.615H139.111V292.865H196.097V292.615Z" fill="#EBEBEB"/>
<path d="M273.037 196.418H303.021V109.01H273.037V196.418Z" fill="#E6E6E6"/>
<path d="M271.716 109.01H302.561V104.579H271.716V109.01Z" fill="#E0E0E0"/>
<path d="M248.61 202.578H291.496V196.417H248.61V202.578Z" fill="#E0E0E0"/>
<path d="M307.775 59.6189H323.975C325.363 59.6189 326.488 58.4939 326.488 57.1059V40.6849C326.488 39.2969 325.363 38.1719 323.975 38.1719H307.775C306.387 38.1719 305.262 39.2969 305.262 40.6849V57.1059C305.262 58.4939 306.387 59.6189 307.775 59.6189Z" fill="#F0F0F0"/>
<path d="M193.889 328.56C300.971 328.56 387.778 323.491 387.778 317.237C387.778 310.984 300.971 305.914 193.889 305.914C86.8071 305.914 0 310.984 0 317.237C0 323.491 86.8071 328.56 193.889 328.56Z" fill="#121212"/>
<path d="M327.66 16.133L326.635 16.069C326.882 12.075 325.539 8.302 322.854 5.446C320.174 2.596 316.503 1.027 312.515 1.027H294.428V0H312.515C316.788 0 320.726 1.684 323.601 4.742C326.483 7.807 327.925 11.852 327.66 16.133Z" fill="#0072BB"/>
<path d="M326.196 23.1817L325.619 32.6836L326.643 32.7458L327.22 23.2439L326.196 23.1817Z" fill="#0072BB"/>
<path d="M296.645 260.772H176.199C169.424 260.772 164.223 255.229 164.641 248.454L178.991 15.9118C179.409 9.13675 185.294 3.59375 192.07 3.59375H312.516C319.291 3.59375 324.492 9.13675 324.074 15.9118L309.724 248.454C309.305 255.229 303.42 260.772 296.645 260.772Z" fill="#0072BB"/>
<path opacity="0.2" d="M224.655 56.5605H198.376C194.489 56.5605 191.506 53.3804 191.746 49.4944L193.095 27.6304C193.335 23.7444 196.711 20.5645 200.597 20.5645H226.876C230.763 20.5645 233.746 23.7444 233.506 27.6304L232.157 49.4944C231.918 53.3814 228.542 56.5605 224.655 56.5605Z" fill="black"/>
<path opacity="0.2" d="M232.289 240.288C234.47 240.288 236.348 238.519 236.483 236.338L239.264 191.268C239.399 189.086 237.739 187.318 235.558 187.318H168.414L165.145 240.288H232.289Z" fill="black"/>
<path d="M162.042 166.949H141.502C139.989 166.949 138.687 168.176 138.593 169.689L137.162 192.872C137.069 194.385 138.22 195.612 139.733 195.612H160.273C161.786 195.612 163.089 194.385 163.182 192.872L164.613 169.689C164.706 168.175 163.555 166.949 162.042 166.949Z" fill="#0072BB"/>
<path opacity="0.4" d="M162.042 166.949H141.502C139.989 166.949 138.687 168.176 138.593 169.689L137.162 192.872C137.069 194.385 138.22 195.612 139.733 195.612H160.273C161.786 195.612 163.089 194.385 163.182 192.872L164.613 169.689C164.706 168.175 163.555 166.949 162.042 166.949Z" fill="white"/>
<path d="M312.262 8.72522C314.166 8.72522 315.908 9.46222 317.167 10.8022C318.43 12.1452 319.06 13.9372 318.943 15.8482L313.662 101.426C313.561 103.065 312.146 104.398 310.509 104.398H181.509C180.746 104.398 180.049 104.104 179.548 103.572C179.045 103.037 178.794 102.32 178.841 101.553L184.122 15.9752C184.369 11.9782 187.821 8.72622 191.817 8.72622L312.262 8.72522ZM312.262 7.69922H191.816C187.28 7.69922 183.377 11.3762 183.097 15.9112L177.816 101.489C177.682 103.662 179.335 105.424 181.508 105.424H310.508C312.681 105.424 314.552 103.662 314.686 101.489L319.967 15.9112C320.247 11.3762 316.797 7.69922 312.262 7.69922Z" fill="white"/>
<path d="M247.731 115.484H182.137C179.274 115.484 176.809 117.805 176.633 120.668L173.926 164.537C173.749 167.4 175.927 169.721 178.791 169.721H244.385C247.248 169.721 249.713 167.4 249.889 164.537L252.596 120.668C252.772 117.805 250.594 115.484 247.731 115.484Z" fill="white"/>
<path d="M228.065 179.117H162.471C159.608 179.117 157.143 181.438 156.967 184.301L154.26 228.17C154.083 231.033 156.261 233.354 159.125 233.354H224.719C227.582 233.354 230.047 231.033 230.223 228.17L232.93 184.301C233.106 181.438 230.928 179.117 228.065 179.117Z" fill="white"/>
<path opacity="0.2" d="M280.386 147.99C277.902 147.99 275.764 150.004 275.611 152.487L273.263 190.544C273.11 193.028 274.999 195.042 277.483 195.042H313.02L315.924 147.99H280.386Z" fill="black"/>
<path d="M329.434 139.664H271.802C269.286 139.664 267.121 141.703 266.966 144.219L264.587 182.762C264.432 185.278 266.345 187.317 268.861 187.317H326.493C329.009 187.317 331.174 185.278 331.329 182.762L333.708 144.219C333.864 141.703 331.95 139.664 329.434 139.664Z" fill="#0072BB"/>
<path opacity="0.7" d="M329.434 139.664H271.802C269.286 139.664 267.121 141.703 266.966 144.219L264.587 182.762C264.432 185.278 266.345 187.317 268.861 187.317H326.493C329.009 187.317 331.174 185.278 331.329 182.762L333.708 144.219C333.864 141.703 331.95 139.664 329.434 139.664Z" fill="white"/>
<path d="M271.319 126.323C286.477 111.626 287.563 88.1587 273.745 73.9078C259.926 59.6569 236.437 60.0189 221.279 74.7162C206.122 89.4136 205.036 112.881 218.854 127.132C232.672 141.382 256.162 141.021 271.319 126.323Z" fill="#0072BB"/>
<path d="M269.044 123.978C282.824 110.616 283.812 89.2825 271.25 76.3273C258.688 63.3722 237.334 63.7015 223.554 77.0629C209.774 90.4243 208.787 111.758 221.349 124.713C233.91 137.668 255.264 137.339 269.044 123.978Z" fill="white"/>
<path d="M259.285 91.4736C258.862 98.3306 252.96 103.889 246.103 103.889C239.246 103.889 234.031 98.3296 234.454 91.4736C234.877 84.6166 240.779 79.0586 247.636 79.0586C254.492 79.0586 259.708 84.6166 259.285 91.4736Z" fill="#0072BB"/>
<path d="M245.786 108.977C236.109 108.977 227.44 112.75 222.68 118.329C227.092 125.593 235.071 130.368 244.466 130.368C253.861 130.368 262.429 125.593 267.738 118.329C263.675 112.75 255.463 108.977 245.786 108.977Z" fill="#0072BB"/>
<path d="M219.842 51.748H193.563C189.677 51.748 186.693 48.568 186.933 44.682L188.282 22.818C188.522 18.932 191.898 15.752 195.784 15.752H222.063C225.95 15.752 228.933 18.932 228.693 22.818L227.344 44.682C227.105 48.569 223.729 51.748 219.842 51.748Z" fill="white"/>
<path d="M215.129 33.7492L201.89 24.9102L200.799 42.5891L215.129 33.7492Z" fill="#0072BB"/>
<path d="M305.052 35.2234H242.332C240.681 35.2234 239.414 33.8724 239.516 32.2214L239.752 28.4024C239.854 26.7514 241.288 25.4004 242.939 25.4004H305.659C307.31 25.4004 308.577 26.7514 308.476 28.4024L308.24 32.2214C308.138 33.8724 306.703 35.2234 305.052 35.2234Z" fill="white"/>
<path d="M304.035 51.7253H241.315C239.664 51.7253 238.396 50.3743 238.498 48.7233L238.734 44.9043C238.836 43.2533 240.27 41.9023 241.921 41.9023H304.641C306.292 41.9023 307.56 43.2533 307.458 44.9043L307.222 48.7233C307.12 50.3743 305.686 51.7253 304.035 51.7253Z" fill="white"/>
<path d="M324.812 154.754H274.562C273.465 154.754 272.631 153.865 272.699 152.768L272.787 151.343C272.855 150.246 273.799 149.357 274.895 149.357H325.145C326.242 149.357 327.076 150.246 327.008 151.343L326.92 152.768C326.853 153.865 325.909 154.754 324.812 154.754Z" fill="white"/>
<path d="M324.107 166.19H273.857C272.76 166.19 271.926 165.301 271.994 164.204L272.082 162.779C272.15 161.682 273.094 160.793 274.19 160.793H324.44C325.537 160.793 326.371 161.682 326.303 162.779L326.215 164.204C326.147 165.301 325.203 166.19 324.107 166.19Z" fill="white"/>
<path d="M323.4 177.626H273.15C272.053 177.626 271.219 176.737 271.287 175.64L271.375 174.215C271.443 173.118 272.387 172.229 273.483 172.229H323.733C324.83 172.229 325.664 173.118 325.596 174.215L325.508 175.64C325.441 176.737 324.497 177.626 323.4 177.626Z" fill="white"/>
<path d="M295.962 246.899C295.798 249.56 293.507 251.718 290.846 251.718C288.185 251.718 286.16 249.56 286.324 246.899C286.488 244.238 288.779 242.08 291.44 242.08C294.102 242.08 296.126 244.238 295.962 246.899Z" fill="white"/>
<path d="M297.016 229.823C296.852 232.484 294.561 234.642 291.9 234.642C289.239 234.642 287.214 232.484 287.378 229.823C287.542 227.162 289.833 225.004 292.494 225.004C295.156 225.004 297.18 227.161 297.016 229.823Z" fill="white"/>
<path d="M298.069 212.747C297.905 215.408 295.614 217.566 292.953 217.566C290.292 217.566 288.267 215.408 288.431 212.747C288.595 210.086 290.886 207.928 293.547 207.928C296.208 207.928 298.233 210.086 298.069 212.747Z" fill="white"/>
<path d="M281.411 246.899C281.247 249.56 278.956 251.718 276.295 251.718C273.634 251.718 271.609 249.56 271.773 246.899C271.937 244.238 274.228 242.08 276.889 242.08C279.551 242.08 281.575 244.238 281.411 246.899Z" fill="white"/>
<path d="M282.466 229.823C282.302 232.484 280.011 234.642 277.35 234.642C274.689 234.642 272.664 232.484 272.828 229.823C272.992 227.162 275.283 225.004 277.944 225.004C280.606 225.004 282.63 227.161 282.466 229.823Z" fill="white"/>
<path d="M283.518 212.747C283.354 215.408 281.063 217.566 278.402 217.566C275.741 217.566 273.716 215.408 273.88 212.747C274.044 210.086 276.335 207.928 278.996 207.928C281.657 207.928 283.682 210.086 283.518 212.747Z" fill="white"/>
<path d="M81.0818 102.85L86.7318 107.247L79.2698 111.175C79.2698 111.175 75.7768 107.421 77.5518 104.229L81.0818 102.85Z" fill="#7F3E3B"/>
<path d="M86.9795 114.885L83.5515 115.92C82.4605 116.25 81.2955 115.717 80.8315 114.676L79.2695 111.174L86.7315 107.246L88.4495 111.942C88.8975 113.163 88.2245 114.509 86.9795 114.885Z" fill="#7F3E3B"/>
<path d="M104.801 62.5521L101.786 64.4241C100.758 65.0671 99.7343 65.7291 98.7233 66.4061C96.6983 67.7551 94.6793 69.1141 92.7203 70.5271C88.8153 73.3501 85.0263 76.3291 81.8233 79.5441L81.2203 80.1461L81.0693 80.2961C81.0043 80.3621 81.0653 80.2951 81.0543 80.2991C81.0653 80.2641 81.0693 80.2561 81.0663 80.2421C81.0543 80.1891 80.9543 80.3181 80.8543 80.5471C80.6353 81.0141 80.4353 81.8881 80.3473 82.8501C80.1773 84.8071 80.2593 87.1401 80.5133 89.4761C80.9783 94.1781 81.9573 99.1381 82.9203 103.951L77.2143 106.113C75.9243 103.713 74.8663 101.347 73.8713 98.8671C72.8853 96.3981 72.0253 93.8621 71.3033 91.2111C70.6263 88.5441 70.0183 85.8021 69.9213 82.6601C69.8863 81.0801 69.9303 79.3931 70.4363 77.4151C70.7063 76.4281 71.0873 75.3621 71.7753 74.2431C71.9493 73.9641 72.1273 73.6891 72.3433 73.4101L72.6303 73.0431L72.7993 72.8401L73.4783 72.0261C74.3743 70.9161 75.3233 69.9111 76.2673 68.8851C77.2393 67.9121 78.2063 66.9201 79.2103 66.0071C81.1883 64.1181 83.2713 62.4211 85.3713 60.7501C87.4783 59.0931 89.6413 57.5411 91.8523 56.0621C92.9603 55.3261 94.0773 54.6071 95.2093 53.9021C96.3523 53.1781 97.4503 52.5391 98.7373 51.8281L104.801 62.5521Z" fill="#0072BB"/>
<path d="M82.4577 102.759C81.0067 103.51 77.8017 104.438 76.3927 104.854C76.0487 104.956 75.8337 105.295 75.8817 105.65C76.0127 106.627 76.2087 107.33 76.7477 107.393C77.3947 107.468 83.2727 105.387 83.6907 104.627C83.9257 104.201 83.6807 103.556 83.4207 103.072C83.2337 102.726 82.8077 102.578 82.4577 102.759Z" fill="#263238"/>
<path d="M110.705 98.4626L98.7386 68.9786C97.8566 66.8066 95.3376 65.6516 93.1116 66.3996L59.0006 77.8516C56.7746 78.5996 55.6836 80.9656 56.5656 83.1376L68.5316 112.622C69.4136 114.794 71.9326 115.949 74.1586 115.201L108.27 103.749C110.496 103.002 111.587 100.635 110.705 98.4626Z" fill="#0072BB"/>
<path opacity="0.7" d="M110.705 98.4626L98.7386 68.9786C97.8566 66.8066 95.3376 65.6516 93.1116 66.3996L59.0006 77.8516C56.7746 78.5996 55.6836 80.9656 56.5656 83.1376L68.5316 112.622C69.4136 114.794 71.9326 115.949 74.1586 115.201L108.27 103.749C110.496 103.002 111.587 100.635 110.705 98.4626Z" fill="white"/>
<path d="M136.568 30.7918C136.422 31.3828 136.617 31.9378 137.003 32.0338C137.389 32.1288 137.82 31.7278 137.966 31.1368C138.112 30.5468 137.917 29.9908 137.531 29.8948C137.145 29.7998 136.714 30.2018 136.568 30.7918Z" fill="#263238"/>
<path d="M136.564 31.9258C136.564 31.9258 137.067 35.6638 138.14 37.6728C136.855 38.3898 135.188 37.5058 135.188 37.5058L136.564 31.9258Z" fill="#F5938F"/>
<path d="M135.284 27.0022C135.354 27.0192 135.43 27.0162 135.503 26.9862C136.981 26.3922 138.067 27.1342 138.079 27.1412C138.24 27.2542 138.463 27.2152 138.576 27.0532C138.689 26.8912 138.65 26.6692 138.488 26.5552C138.431 26.5152 137.07 25.5852 135.236 26.3222C135.053 26.3962 134.964 26.6042 135.038 26.7872C135.082 26.9002 135.176 26.9762 135.284 27.0022Z" fill="#263238"/>
<path d="M115.829 32.8965C115.557 38.5115 114.183 48.5845 109.553 51.2335C109.553 51.2335 109.676 57.0285 119.629 59.4845C130.573 62.1855 126.2 55.3425 126.2 55.3425C120.579 52.4415 121.827 48.0485 123.895 44.1435L115.829 32.8965Z" fill="#FFADA9"/>
<path d="M107.658 52.7451C107.298 50.8311 106.92 48.6501 108.859 48.4741C110.992 48.2811 121.922 50.2441 125.317 52.4331C128.712 54.6221 126.799 57.8511 126.799 57.8511L107.658 52.7451Z" fill="#263238"/>
<path d="M55.7639 295.458C56.3539 295.958 57.0009 296.353 57.4679 296.251C57.6639 296.208 57.9179 296.061 58.0109 295.601C58.0599 295.359 58.0069 295.131 57.8529 294.921C57.1809 294.009 54.6699 293.751 54.5639 293.741C54.4939 293.734 54.4259 293.769 54.3909 293.83C54.3559 293.891 54.3599 293.967 54.4009 294.024C54.6359 294.344 55.1709 294.955 55.7639 295.458ZM57.4129 294.973C57.4729 295.024 57.5239 295.077 57.5659 295.133C57.6589 295.259 57.6899 295.389 57.6619 295.53C57.5949 295.858 57.4429 295.892 57.3919 295.903C56.8719 296.016 55.6929 295.026 54.9569 294.152C55.7109 294.266 56.8909 294.529 57.4129 294.973Z" fill="#0072BB"/>
<path d="M54.4307 294.054C54.4527 294.073 54.4797 294.086 54.5097 294.093C55.3787 294.275 57.5977 293.992 58.0207 293.247C58.0967 293.112 58.1817 292.838 57.8897 292.522C57.7007 292.317 57.4557 292.21 57.1617 292.205C56.0307 292.184 54.4847 293.727 54.4197 293.792C54.3737 293.839 54.3557 293.906 54.3747 293.969C54.3857 294.003 54.4047 294.032 54.4307 294.054ZM57.5687 292.708C57.5887 292.725 57.6087 292.744 57.6277 292.764C57.7867 292.936 57.7327 293.03 57.7097 293.071C57.4597 293.511 55.9197 293.841 54.9467 293.787C55.4257 293.359 56.4297 292.548 57.1547 292.562C57.3217 292.565 57.4577 292.613 57.5687 292.708Z" fill="#0072BB"/>
<path d="M112.254 309.927C113.221 309.927 114.142 309.794 114.41 309.359C114.504 309.207 114.564 308.948 114.315 308.578C114.175 308.371 113.97 308.23 113.705 308.16C112.416 307.819 109.935 309.32 109.83 309.384C109.769 309.421 109.742 309.494 109.762 309.568C109.782 309.641 109.844 309.7 109.918 309.714C110.409 309.811 111.352 309.927 112.254 309.927ZM113.298 308.464C113.424 308.464 113.541 308.477 113.648 308.505C113.817 308.55 113.94 308.632 114.024 308.755C114.174 308.977 114.139 309.087 114.1 309.15C113.8 309.637 111.894 309.648 110.472 309.45C111.132 309.092 112.416 308.464 113.298 308.464Z" fill="#0072BB"/>
<path d="M109.952 309.717C109.977 309.717 110.001 309.712 110.024 309.701C110.892 309.293 112.526 307.662 112.3 306.809C112.247 306.609 112.079 306.36 111.583 306.31C111.215 306.273 110.892 306.376 110.624 306.616C109.746 307.404 109.753 309.435 109.754 309.521C109.755 309.584 109.789 309.646 109.844 309.683C109.878 309.705 109.915 309.717 109.952 309.717ZM111.476 306.66C111.511 306.66 111.547 306.662 111.584 306.665C111.909 306.698 111.942 306.824 111.953 306.866C112.089 307.378 110.996 308.659 110.125 309.217C110.161 308.624 110.304 307.408 110.88 306.891C111.054 306.736 111.249 306.66 111.476 306.66Z" fill="#0072BB"/>
<path d="M101.74 309.538H109.281L110.032 292.074H102.491L101.74 309.538Z" fill="#FFADA9"/>
<path d="M46.8203 291.853L54.1163 293.759L62.1973 277.82L54.9013 275.914L46.8203 291.853Z" fill="#FFADA9"/>
<path d="M54.6829 292.888L48.2229 287.406C47.9879 287.207 47.6459 287.197 47.3999 287.383L41.9269 291.53C41.3589 291.96 41.3499 292.816 41.9009 293.267C44.1889 295.142 45.3969 295.94 48.2379 298.35C49.9859 299.833 53.7129 304.076 55.9709 306.294C58.1789 308.464 60.7169 306.57 59.9919 305.459C56.7379 300.48 55.6529 296.511 55.3159 294.032C55.2559 293.587 55.0269 293.18 54.6829 292.888Z" fill="#263238"/>
<path d="M109.044 308.666H100.809C100.501 308.666 100.256 308.88 100.22 309.181L99.4236 315.884C99.3416 316.579 99.9366 317.237 100.648 317.225C103.614 317.175 107.888 317 111.622 317C115.988 317 116.725 317.238 121.845 317.238C124.941 317.238 125.476 314.108 124.151 313.825C118.118 312.535 116.345 312.396 110.922 309.253C110.332 308.912 109.695 308.666 109.044 308.666Z" fill="#263238"/>
<path d="M137.217 65.1019C136.641 72.7129 133.782 88.8829 122.885 121.722L83.2461 114.257C84.0001 108.956 91.1271 86.6219 92.7511 61.4439C93.2031 54.4409 99.4971 49.2359 106.451 50.1789C106.516 50.1879 106.582 50.1969 106.647 50.2059C111.758 50.9159 119.121 52.1349 123.497 53.3799C126.255 54.1649 129.468 55.4559 132.071 56.5909C135.421 58.0509 137.493 61.4569 137.217 65.1019Z" fill="#0072BB"/>
<path opacity="0.2" d="M129.693 69.7148C129.426 73.9958 131.028 83.0798 132.424 89.9888C133.707 85.0408 134.672 80.8529 135.38 77.3109L129.693 69.7148Z" fill="black"/>
<path d="M137.079 62.7773C138.029 65.1403 139.057 67.7084 140.122 70.1474C141.206 72.6034 142.273 75.0624 143.427 77.4624C145.702 82.2564 148.154 86.9904 150.964 91.0524C151.664 92.0534 152.38 93.0353 153.12 93.8853L153.257 94.0513C153.244 94.0373 153.228 94.0264 153.211 94.0173C153.171 94.0003 153.164 93.9904 153.137 93.9904C153.117 93.9874 153.109 94.0173 153.168 94.0603C153.26 94.1483 153.534 94.2894 153.888 94.4174C154.61 94.6764 155.669 94.8563 156.794 94.9353C157.927 95.0173 159.152 95.0524 160.407 95.0074C165.445 94.8474 170.906 93.9944 176.177 93.1394L178.142 98.9164C175.475 100.228 172.85 101.291 170.085 102.243C167.333 103.193 164.503 103.997 161.5 104.556C159.997 104.828 158.447 105.061 156.803 105.149C155.155 105.228 153.422 105.221 151.437 104.852C150.442 104.659 149.382 104.379 148.236 103.833C147.67 103.572 147.076 103.225 146.494 102.816C146.2 102.595 145.91 102.38 145.626 102.116L145.205 101.721L144.991 101.502C143.818 100.337 142.803 99.1423 141.818 97.9373C137.973 93.0923 135.074 88.0314 132.406 82.8914C131.108 80.3084 129.854 77.7204 128.73 75.0804C127.592 72.4214 126.509 69.8513 125.512 67.0123L137.079 62.7773Z" fill="#0072BB"/>
<path opacity="0.2" d="M208.505 87.7697L194.274 84.9327C193.224 84.7237 192.15 85.3947 191.876 86.4317L187.675 102.323C187.401 103.36 188.03 104.371 189.08 104.58L203.311 107.417C204.361 107.626 205.435 106.955 205.709 105.918L209.91 90.0267C210.184 88.9897 209.555 87.9797 208.505 87.7697Z" fill="black"/>
<path d="M203.555 80.4715L189.39 77.3225C188.345 77.0905 187.257 77.7375 186.96 78.7685L182.411 94.5635C182.114 95.5945 182.721 96.6185 183.766 96.8505L197.931 99.9995C198.976 100.232 200.064 99.5845 200.361 98.5535L204.91 82.7585C205.207 81.7275 204.601 80.7035 203.555 80.4715Z" fill="white"/>
<path d="M174.877 94.2635L179.358 87.6875L186.464 94.1915C186.464 94.1915 182.77 99.2265 177.287 98.9245L174.877 94.2635Z" fill="#FFADA9"/>
<path d="M173.426 93.977C174.213 95.408 175.22 98.59 175.671 99.988C175.781 100.329 176.126 100.536 176.48 100.479C177.453 100.324 178.152 100.11 178.201 99.57C178.26 98.921 176.034 93.097 175.264 92.698C174.832 92.474 174.193 92.735 173.716 93.007C173.373 93.202 173.236 93.631 173.426 93.977Z" fill="#263238"/>
<path d="M188.064 86.6815L188.946 88.3905C189.664 89.7815 189.369 91.4805 188.224 92.5485L186.463 94.1914L179.357 87.6875L183.095 85.3294C184.828 84.2354 187.125 84.8605 188.064 86.6815Z" fill="#FFADA9"/>
<path opacity="0.2" d="M110.033 292.08L109.612 301.899H102.068L102.489 292.08H110.033Z" fill="black"/>
<path opacity="0.2" d="M54.8975 275.918L62.1965 277.824L57.7185 286.648L50.7285 284.133L54.8975 275.918Z" fill="black"/>
<path d="M117.181 24.6788C115.836 32.0418 114.675 36.2818 117.419 40.9088C121.547 47.8678 131.319 46.7568 134.836 39.9438C138.002 33.8118 139.669 22.8018 133.282 18.1638C126.991 13.5938 118.526 17.3158 117.181 24.6788Z" fill="#FFADA9"/>
<path d="M129.795 31.891C133.551 33.344 135.798 27.953 134.829 26.008C136.07 25.257 141.02 24.108 140.445 20.307C139.87 16.506 136.126 15.41 133.389 10.405C132.461 10.891 132.711 13.943 132.711 13.943C132.711 13.943 130.457 9.96597 124.624 10.01C118.791 10.054 116.583 7.66797 116.583 7.66797C116.583 7.66797 117.023 11.469 119.188 12.397C115.918 13.325 115.918 18.451 111.277 19.026C112.338 21.015 114.924 20.97 114.924 20.97C114.924 20.97 112.249 23.287 112.779 26.194C113.309 29.101 116.403 36.084 112.691 38.514C120.735 41.431 131.386 38.19 129.795 31.891Z" fill="#263238"/>
<path d="M128.051 30.6933C127.588 32.5983 127.916 34.6253 128.607 36.0973C129.646 38.3113 131.617 37.7373 132.544 35.7143C133.378 33.8933 133.842 30.5463 132.214 29.0013C130.61 27.4793 128.581 28.5153 128.051 30.6933Z" fill="#F5938F"/>
<path d="M108.824 119.074C108.824 119.074 98.579 175.346 93.881 196.937C88.736 220.581 62.554 283.84 62.554 283.84L49.416 279.603C49.416 279.603 65.853 219.36 73.266 195.612C74.814 170.266 77.965 130.166 83.246 114.256L108.824 119.074Z" fill="#0072BB"/>
<path opacity="0.5" d="M108.824 119.074C108.824 119.074 98.579 175.346 93.881 196.937C88.736 220.581 62.554 283.84 62.554 283.84L49.416 279.603C49.416 279.603 65.853 219.36 73.266 195.612C74.814 170.266 77.965 130.166 83.246 114.256L108.824 119.074Z" fill="black"/>
<path d="M65.3443 281.06C65.4003 281.078 62.3303 285.651 62.3303 285.651L47.5703 280.79L49.3213 276.383L65.3443 281.06Z" fill="#0072BB"/>
<path opacity="0.3" d="M104.174 138.747C94.576 140.287 95.274 168.783 96.403 184.695C99.195 170.785 102.644 152.483 105.19 138.747C104.707 138.727 104.338 138.717 104.174 138.747Z" fill="black"/>
<path d="M122.886 121.721C122.886 121.721 125.02 174.098 124.2 197.095C123.347 221.016 112.457 299.338 112.457 299.338H99.6821C99.6821 299.338 99.4071 224.05 102.353 199.048C101.733 173.437 96.8301 116.814 96.8301 116.814L122.886 121.721Z" fill="#0072BB"/>
<path opacity="0.5" d="M122.886 121.721C122.886 121.721 125.02 174.098 124.2 197.095C123.347 221.016 112.457 299.338 112.457 299.338H99.6821C99.6821 299.338 99.4071 224.05 102.353 199.048C101.733 173.437 96.8301 116.814 96.8301 116.814L122.886 121.721Z" fill="black"/>
<path d="M114.915 294.25C114.974 294.25 114.194 299.554 114.194 299.554H98.6544L98.2344 294.821L114.915 294.25Z" fill="#0072BB"/>
<path d="M83.2473 112.815C81.9403 112.755 81.8503 115.895 82.2783 116.814C82.7063 117.733 88.4373 118.294 103.721 121.721C119.005 125.147 122.783 125.333 123.254 125.119C123.724 124.905 124.708 120.671 123.767 120.542C122.826 120.414 107.133 117.89 100.48 116.35C93.8263 114.811 85.1123 112.901 83.2473 112.815Z" fill="#263238"/>
</svg>
