<svg width="40" height="40" viewBox="0 0 40 40" fill="none" xmlns="http://www.w3.org/2000/svg">
<g clip-path="url(#clip0_1426_990)">
<path fill-rule="evenodd" clip-rule="evenodd" d="M9.96759 27.1643V25.0146C11.522 25.6761 13.3409 24.9154 14.0023 23.361C14.6638 21.8066 13.9031 19.9876 12.3487 19.3262C11.588 18.9954 10.7283 18.9954 9.96759 19.3262V21.6743H7.58631V19.3262C6.0319 19.9876 5.27123 21.7735 5.93268 23.3279C6.23033 24.0886 6.85871 24.6839 7.58631 24.9816V27.5943L9.96759 27.1643Z" fill="#CFD6DE"/>
<path opacity="0.1" fill-rule="evenodd" clip-rule="evenodd" d="M9.96722 26.7345L7.58594 27.1644V27.6605L9.96722 27.1975V26.7345Z" fill="#333333"/>
<path fill-rule="evenodd" clip-rule="evenodd" d="M14.9284 22.1373C15.0276 23.6917 14.4984 24.8493 14.1016 26.106L14.3992 26.4368C15.7882 28.0242 17.8056 28.9172 19.9222 28.9172C22.0058 28.9172 23.9901 28.0242 25.4123 26.4698L25.7099 26.1391C25.0484 24.8823 25.1477 23.361 25.0815 22.1373H14.9284Z" fill="#F9BD94"/>
<path fill-rule="evenodd" clip-rule="evenodd" d="M14.102 26.073C13.5397 26.4699 12.9444 26.5691 12.2499 26.7014L12.283 34.8041H27.4963V26.6352C27.4963 26.6352 26.3057 26.2714 25.6773 26.1391C24.0898 27.7266 22.0394 28.9172 19.8896 28.9172C17.7399 28.9172 15.5902 27.6936 14.102 26.073ZM30.4728 27.1644V34.8041H32.4572V40.0626H38.5425L36.8558 30.9016C36.525 29.0495 34.8053 27.925 33.0855 27.6605C32.2587 27.4951 31.2666 27.3297 30.4728 27.1644ZM9.33939 27.2305L6.7929 27.6936C5.00698 27.9251 3.61794 29.1818 2.98956 30.8023C2.55962 31.8937 2.22883 33.9443 1.93118 35.7963C1.63353 37.6484 1.43509 39.302 1.43509 39.302L1.33594 40.0296H7.38814V34.771H9.37249L9.33939 27.2305Z" fill="#EF5350"/>
<path fill-rule="evenodd" clip-rule="evenodd" d="M12.2831 26.7014L11.5224 26.8337L9.30662 27.2306L9.33956 34.8042H12.3161L12.2831 26.7014ZM7.32227 34.8042V40.0627H32.4903V34.8042H7.32227Z" fill="#42A5F5"/>
<path opacity="0.1" fill-rule="evenodd" clip-rule="evenodd" d="M9.30664 34.1427V34.8042H12.2832V34.1427H9.30664Z" fill="#333333"/>
<path fill-rule="evenodd" clip-rule="evenodd" d="M27.4961 26.6022V34.7711H30.4726V27.1644L27.4961 26.6022Z" fill="#42A5F5"/>
<path opacity="0.1" fill-rule="evenodd" clip-rule="evenodd" d="M27.4961 34.1427V34.8042H30.4726V34.1427H27.4961Z" fill="#333333"/>
<path opacity="0.1" fill-rule="evenodd" clip-rule="evenodd" d="M6.66016 34.1427V40.0626H7.32161V34.8042H9.30596V34.1427H6.66016ZM12.2825 34.1427V34.8042H27.4958V34.1427H12.2825Z" fill="#333333"/>
<path opacity="0.1" fill-rule="evenodd" clip-rule="evenodd" d="M26.9671 26.4698V34.8041H27.4963V26.6352C27.4963 26.6021 27.2317 26.536 26.9671 26.4698ZM9.27333 27.2305L8.74414 27.3297L8.77725 34.8041H9.30644L9.27333 27.2305Z" fill="#333333"/>
<path fill-rule="evenodd" clip-rule="evenodd" d="M20.022 13.5716C18.1038 13.6047 16.2187 14.0015 14.4328 14.7622L13.7382 15.0599L13.8705 14.9937C13.3744 15.2914 12.8122 15.4898 12.2169 15.5559H12.1507H12.0846C11.6216 15.5559 11.1586 15.4237 10.7617 15.1591C10.8609 15.8205 11.1255 16.4489 11.7208 16.8127L12.0515 17.0111C12.4484 17.2426 12.779 17.6064 12.9775 18.0364L14.8958 22.2366C15.7557 24.1548 17.6738 25.4116 19.8236 25.4116H20.2534C22.3701 25.4116 24.2884 24.1548 25.1814 22.2366L27.0995 18.0364C27.2979 17.6064 27.5955 17.2426 28.0255 17.0111L28.3562 16.8127C28.9846 16.4489 29.2491 15.7544 29.3484 15.0268V14.9607C29.0507 15.126 28.72 15.2252 28.3562 15.2252C27.794 15.2252 27.1988 15.126 26.6696 14.9276L25.7435 14.5638C23.8584 13.8692 21.9402 13.5385 20.022 13.5716Z" fill="#FDC9A6"/>
<path fill-rule="evenodd" clip-rule="evenodd" d="M20.1547 0.0118216C17.6412 -0.0212509 15.1609 0.70636 12.945 2.09541L12.5812 2.3269C11.7213 2.88913 11.1591 3.8813 11.126 5.00576L10.8613 11.025H11.4567C11.8867 11.025 12.2834 10.9257 12.6803 10.7604L13.5733 10.3305C15.5908 9.37136 17.8067 8.84217 20.0556 8.8091C22.3045 8.77603 24.5203 9.20598 26.5708 10.0659L27.4307 10.4297C27.7945 10.595 28.1582 10.6612 28.5551 10.6612H29.2166L28.9521 5.00576C28.8859 3.8813 28.3568 2.88913 27.4969 2.3269L27.1331 2.09541C24.9503 0.739433 22.569 0.0118216 20.1547 0.0118216Z" fill="#66BB6A"/>
<path opacity="0.1" fill-rule="evenodd" clip-rule="evenodd" d="M20.022 13.6046C18.1038 13.6377 16.2187 14.0346 14.4328 14.7953L13.7382 15.0929L13.8705 15.0268C13.3744 15.3244 12.8122 15.5228 12.2169 15.589H12.1507H12.0846C11.5885 15.589 11.1255 15.4236 10.7617 15.1921C10.7948 15.4236 10.8609 15.6221 10.9271 15.8205C11.1917 16.1512 11.5224 16.3166 11.9193 16.3166C12.3492 16.2505 12.779 16.1182 13.1428 15.8536L13.8374 15.5229C17.8061 13.6708 22.2709 13.5716 26.3058 15.2583L27.2649 15.6552C27.6617 15.8205 28.0916 15.9197 28.5547 15.9197C28.7862 15.9197 28.9847 15.8205 29.1501 15.6552C29.2162 15.4236 29.2823 15.2252 29.2823 14.9937V14.9275C28.9847 15.0929 28.6539 15.1921 28.2901 15.1921C27.7279 15.1921 27.1326 15.0929 26.6034 14.8945L25.6774 14.5307C23.8585 13.9023 21.9402 13.5385 20.022 13.6046Z" fill="#333333" fill-opacity="0.941"/>
<path fill-rule="evenodd" clip-rule="evenodd" d="M20.0558 8.61068C18.0383 8.64375 16.0209 9.10679 14.1027 9.99975L13.2097 10.4297C12.6475 10.6942 12.0522 10.8266 11.4238 10.8266H10.7293L10.5639 14.3322C10.5308 15.126 11.0931 15.8205 11.7876 15.8536C11.8207 15.8536 11.8206 15.8536 11.8537 15.8536C12.2836 15.7874 12.7136 15.6551 13.0774 15.3905L13.772 15.0598C17.7407 13.2078 22.2054 13.1086 26.2402 14.7953L27.1993 15.1921C27.5962 15.3575 28.0262 15.4567 28.4892 15.4567C28.9853 15.4567 29.4152 14.9937 29.4152 14.4314C29.4152 14.3984 29.4152 14.3984 29.4152 14.3653L29.2167 10.4297H28.4892C27.927 10.4297 27.3977 10.3304 26.8686 10.0989L26.0088 9.73515C24.1237 8.97448 22.1063 8.5776 20.0558 8.61068Z" fill="#AED581" fill-opacity="0.941"/>
<path fill-rule="evenodd" clip-rule="evenodd" d="M17.4102 3.41833H22.6024V5.99797H17.4102V3.41833Z" fill="white"/>
</g>
<defs>
<clipPath id="clip0_1426_990">
<rect width="40" height="40" fill="white"/>
</clipPath>
</defs>
</svg>
