<?xml version="1.0" encoding="utf-8"?>
<!-- Generator: Adobe Illustrator 24.3.0, SVG Export Plug-In . SVG Version: 6.00 Build 0)  -->
<svg version="1.1" id="Layer_1" xmlns="http://www.w3.org/2000/svg" xmlns:xlink="http://www.w3.org/1999/xlink" x="0px" y="0px"
	 viewBox="0 0 60 60" style="enable-background:new 0 0 60 60;" xml:space="preserve">
<style type="text/css">
	.st0{fill:#3C3B42;}
	.st1{fill:#2B2A2F;}
	.st2{fill:#FFCC5C;}
	.st3{fill:#EFF2FA;}
	.st4{fill:#8B6946;}
	.st5{fill:#90CFF1;}
	.st6{fill:#F04C4D;}
	.st7{fill:#E13340;}
	.st8{fill:#D5E5F1;}
</style>
<path class="st0" d="M51.5,3.2v5.3h-44V3.2c0-1.6,1.3-2.6,2.3-2.6h39.1C50.4,0.7,51.5,1.9,51.5,3.2z"/>
<path class="st1" d="M48.9,0.7h-2c1.4,0,2.5,1.2,2.5,2.6c0,0.8-0.5,1.4-1.3,1.4H7.5v4.1h44V3C51.5,1.9,50.4,0.7,48.9,0.7z"/>
<path class="st2" d="M2.6,16.6h53.7v40.1H2.6V16.6z"/>
<path class="st3" d="M9.8,32.6v13.4c0,1.6,1.1,2.6,2.3,2.6h14.6c1.4,0,2.3-1.2,2.3-2.6V32.6c0-1.6-1.1-2.6-2.3-2.6H12.4
	C11.1,30,9.8,31.2,9.8,32.6z"/>
<path class="st4" d="M51.5,38.1v18.7H36.9V38.1c0-4.5,3.2-8.1,7.4-8.1C48.4,30,51.5,33.5,51.5,38.1z"/>
<path class="st0" d="M58.9,59.3H0.1v-2.6c0-1.6,1.1-2.6,2.3-2.6h53.7c1.4,0,2.3,1.2,2.3,2.6L58.9,59.3z"/>
<path class="st1" d="M56.3,54h-4.9c1.4,0,2.3,1.2,2.3,2.6v2.6h4.9v-2.6C58.9,55.2,57.6,54,56.3,54z"/>
<path class="st5" d="M11.3,31.4h17.1v15.9H11.3V31.4z"/>
<path class="st3" d="M27,30H12.4c-1.4,0-2.3,1.2-2.3,2.6v13.4c0,1.6,1.1,2.6,2.3,2.6H27c1.4,0,2.3-1.2,2.3-2.6V32.6
	C29.5,31.2,28.4,30,27,30z M27,45.9H12.4V32.6H27V45.9z"/>
<path class="st0" d="M40.5,47.9c0.7,0,1.3-0.6,1.3-1.4c0-0.8-0.6-1.4-1.3-1.4c-0.7,0-1.3,0.6-1.3,1.4C39.2,47.3,39.8,47.9,40.5,47.9
	z"/>
<path class="st6" d="M54.2,7.6C53.8,6.6,52.9,6,52,6H6.6C5.5,6,4.8,6.6,4.4,7.6L0.1,18v2.6c0,2.2,1.6,4.1,3.8,4.1
	c2.2,0,3.8-1.8,3.8-4.1c0,2.2,1.6,4.1,3.8,4.1c2.2,0,3.6-2,3.6-4.1c0,2.2,1.6,4.1,3.8,4.1s3.8-1.8,3.8-4.1c0,2.2,1.6,4.1,3.8,4.1
	c2,0,3.8-1.8,3.8-4.1c0,2.2,1.6,4.1,3.8,4.1c2,0,3.8-1.8,3.8-4.1c0,2.2,1.6,4.1,3.8,4.1s3.8-1.8,3.8-4.1c0,2.2,1.6,4.1,3.8,4.1
	s3.8-1.8,3.8-4.1c0,2.2,1.6,4.1,3.8,4.1c2,0,3.4-1.8,3.4-4.1V18L54.2,7.6z"/>
<path class="st6" d="M35.6,6h-6.1v14.8c0,2.2,1.6,4.1,3.8,4.1s3.8-1.8,3.8-4.1V18L35.6,6z M11.3,6H6.6C5.5,6,4.8,6.6,4.4,7.6L0.1,18
	v2.6c0,2.2,1.6,4.1,3.8,4.1c2.2,0,3.8-1.8,3.8-4.1V18L11.3,6z"/>
<path class="st3" d="M17.4,6h-6.1L7.5,17.8v2.8c0,2.2,1.6,4.1,3.8,4.1c2.2,0,3.8-1.8,3.8-4.1V18L17.4,6z M29.5,6h-6.1l-1.3,12v2.6
	c0,2.2,1.6,4.1,3.8,4.1s3.8-1.8,3.8-4.1L29.5,6z M41.7,6h-6.1l1.1,12.2v2.6c0,2.2,1.6,4.1,3.8,4.1c2,0,3.8-1.8,3.8-4.1V18L41.7,6z"
	/>
<path class="st6" d="M47.9,6h-6.1l2.3,12v2.6c0,2.2,1.6,4.1,3.8,4.1s3.8-1.8,3.8-4.1V18L47.9,6z"/>
<path class="st3" d="M54.5,7.6c-0.4-1-1.3-1.6-2.2-1.6h-4.5l3.8,12v2.6c0,2.2,1.6,4.1,3.8,4.1c2,0,3.8-1.8,3.8-4.1V18L54.5,7.6z"/>
<path class="st6" d="M23.4,6h-6.1l-2.3,11.8v2.8c0,2.2,1.6,4.1,3.8,4.1s3.6-2,3.6-4.1V18L23.4,6z"/>
<path class="st7" d="M7.5,18v2.6c0,2.2-1.6,4.1-3.8,4.1s-3.6-1.6-3.6-3.9V18"/>
<path class="st8" d="M14.9,18v2.6c0,2.2-1.6,4.1-3.8,4.1c-2.2,0-3.8-2-3.8-4.1V18"/>
<path class="st7" d="M22.1,18v2.6c0,2.2-1.6,4.1-3.8,4.1s-3.6-2-3.6-4.1V18"/>
<path class="st8" d="M29.5,18v2.6c0,2.2-1.6,4.1-3.8,4.1s-3.8-1.8-3.8-4.1V18"/>
<path class="st7" d="M36.9,18v2.6c0,2.2-1.6,4.1-3.8,4.1s-3.6-2-3.6-4.1V18"/>
<path class="st8" d="M44.3,18v2.6c0,2.2-1.6,4.1-3.8,4.1c-2,0-3.8-2-3.8-4.1V18"/>
<path class="st7" d="M51.5,18v2.6c0,2.2-1.6,4.1-3.8,4.1s-3.8-1.8-3.8-4.1V18"/>
<path class="st8" d="M58.9,18v2.6c0,2.2-1.6,4.1-3.8,4.1s-3.8-1.8-3.8-4.1V18"/>
</svg>
