<?xml version="1.0" encoding="utf-8"?>
<!-- Generator: Adobe Illustrator 24.3.0, SVG Export Plug-In . SVG Version: 6.00 Build 0)  -->
<svg version="1.1" id="Layer_1" xmlns="http://www.w3.org/2000/svg" xmlns:xlink="http://www.w3.org/1999/xlink" x="0px" y="0px"
	 viewBox="0 0 60 60" style="enable-background:new 0 0 60 60;" xml:space="preserve">
<style type="text/css">
	.st0{fill:#004463;}
	.st1{fill:#9675B4;}
	.st2{fill:#607D95;}
	.st3{fill:#AE89BF;}
	.st4{fill:#8D6DAF;}
	.st5{fill:#F0C9AE;}
	.st6{fill:#E2B698;}
	.st7{fill:#8A6845;}
	.st8{fill:#745539;}
</style>
<path class="st0" d="M44.7,20.2v3.9c0,2.2-2.1,4.3-4.3,4.3h-5.6c-0.9,0-1.5,0.6-1.5,1.5s0.6,1.5,1.5,1.5h5.6c3.7,0,6.7-3.2,7.1-6.7
	v-3.9h-2.8V20.2z"/>
<path class="st1" d="M18.4,51.3v-5.4c0-1.1-0.4-2.2-0.9-3.2C13.8,43.3,11,46.4,11,50v1.1h7.5v0.2H18.4z"/>
<path class="st2" d="M20.6,23.3h-3.9c-1.1,0-2.1-0.9-2.1-2.1v-2.1c0-1.1,0.9-2.1,2.1-2.1h3.9V23.3z M41.7,23.3h3.9
	c1.1,0,2.1-0.9,2.1-2.1v-2.1c0-1.1-0.9-2.1-2.1-2.1h-3.9C41.7,17.2,41.7,23.3,41.7,23.3z"/>
<path class="st3" d="M24.6,38.8L14,42.5c-3.9,1.5-6.5,5-6.5,9v8.4h47.8v-8.4c0-4.3-2.6-7.8-6.5-9L38,38.8H24.6z"/>
<path class="st1" d="M29.8,38.5h-5.6l-10.6,3.7c-3.4,1.1-6.5,5-6.5,9V60H11v-8.4c0-2.8,2.1-5,4.5-6l4.5-1.5c1.7-0.6,3.7-0.4,5,0.9
	c0.4,0.4,1.5,0.9,1.7,1.1c1.1,0.9,2.8,0.9,3.9,0c2.1-1.1,4.9-3.4,4.9-5.6l-0.6-2.1C34.8,38.5,29.8,38.5,29.8,38.5z M54.8,59.9v-8.4
	c0-1.7-0.6-3.4-1.5-4.9c-5.6,0.6-10.1,5.6-10.1,11.2v2.1C43.2,59.9,54.8,59.9,54.8,59.9z"/>
<path class="st1" d="M7.2,59.9v-8.4c0-1.7,0.6-3.4,1.5-4.9c5.6,0.6,10.1,5.6,10.1,11.2v2.1C18.8,59.9,7.2,59.9,7.2,59.9z"/>
<path class="st4" d="M11.1,51.3c0-1.5,0.6-2.6,1.5-3.7c-1.5-0.9-2.6-1.1-3.9-1.5c-0.9,1.5-1.5,3.2-1.5,4.9v8.4h3.9
	C11.1,59.6,11.1,51.3,11.1,51.3z"/>
<path class="st5" d="M24.2,31.2v7.7c0,3.7,6.7,6.7,6.7,6.7s6.7-3.2,6.7-6.7v-7.7C37.6,31.2,24.2,31.2,24.2,31.2z"/>
<path class="st6" d="M24.2,34.9c2.1,1.1,4.3,2.1,6.7,2.1s4.9-0.9,6.7-2.1v-3.7H24.2V34.9z"/>
<path class="st6" d="M28.1,38.8V34h-3.9v4.9c0,3.7,6.7,6.7,6.7,6.7s0.9-0.4,2.1-1.1C30.9,43.3,28.1,41.1,28.1,38.8z"/>
<path class="st5" d="M18,10.6v11c0,7.1,5.6,12.9,12.9,12.9s12.9-5.6,12.9-12.9v-11C44,10.6,18,10.6,18,10.6z"/>
<path class="st6" d="M23.6,21.3V10.6H18v11c0,7.1,5.6,12.9,12.9,12.9c0.9,0,2.1,0,2.8-0.4C27.9,32.7,23.6,27.6,23.6,21.3z"/>
<path class="st7" d="M44,18.5l2.2-6.3c0.6-3.2-1.7-6-4.9-6c0-3.7-3.4-6.5-6.7-5.6l-14,2.2c-3.4,0.6-5.4,3.7-4.9,7.1l2.2,9l4.5-3.9
	c0.6-0.6,1.5-0.9,2.2-0.9h12.1c0.9,0,1.7,0.4,2.2,0.9L44,18.5z"/>
<path class="st8" d="M21.2,9.5C20.6,6.2,22.9,3,26,2.4l11.8-2.1c-0.9-0.3-2-0.5-3.2-0.3l-14,2.2c-3.4,0.6-5.4,3.7-4.9,7.1l2.2,9
	l4.5-3.7C22.5,14.9,21.2,9.5,21.2,9.5z"/>
<path class="st0" d="M46.2,27.1l-2.5-0.3c-1.1,1-1.9,1.7-3.4,1.7h-5.6c-0.9,0-1.5,0.6-1.5,1.5s0.6,1.5,1.5,1.5h5.6
	c2.8,0,5.4-1.7,6.5-4.3C46.8,27.1,46.2,27.1,46.2,27.1z"/>
</svg>
