<svg width="40" height="26" viewBox="0 0 40 26" fill="none" xmlns="http://www.w3.org/2000/svg">
<g clip-path="url(#clip0_1426_924)">
<path d="M32.6197 5.7688C29.9363 5.7688 27.8398 7.8813 27.8398 10.4V14.2188C27.8398 14.7063 28.2591 15.1125 28.7623 15.1938H29.0138C29.6847 15.3563 30.1879 15.4375 30.7749 15.4375H34.7162C35.387 15.275 35.8902 15.275 36.4772 15.1938H36.7287C37.2319 15.0313 37.6512 14.7063 37.6512 14.2188V10.4C37.3996 7.8813 35.2193 5.7688 32.6197 5.7688Z" fill="#8A6845"/>
<path d="M35.2193 10.9688V12.5938C35.2193 14.0563 34.0453 15.1938 32.5359 15.1938V15.6813H34.4646C35.1354 15.5188 35.6386 15.5188 36.2256 15.4375H36.4772C36.9803 15.275 37.3996 14.95 37.3996 14.4625V11.1313H35.2193V10.9688ZM32.6197 5.7688C29.9363 5.7688 27.8398 7.8813 27.8398 10.4V14.2188C27.8398 14.7063 28.2591 15.1125 28.7623 15.1938H29.0138C29.1816 15.1938 29.4331 15.1938 29.517 15.3563V10.4813C29.517 8.12505 31.278 6.33755 33.5421 5.9313C33.1229 5.9313 32.8713 5.7688 32.6197 5.7688Z" fill="#745539"/>
<path d="M31.6146 12.5125V10.8875H29.9375V12.5125C29.9375 13.975 31.1115 15.1125 32.6209 15.1125C32.8725 15.1125 33.1241 15.1125 33.3757 14.95C32.3694 14.7062 31.6146 13.7312 31.6146 12.5125Z" fill="#E2B698"/>
<path d="M34.1293 15.1125H33.6262C33.3746 15.1125 33.123 14.8688 33.123 14.625C33.123 14.3813 33.3746 14.1375 33.6262 14.1375H34.1293C34.8002 14.1375 35.1356 13.65 35.1356 13.1625V11.9438C35.1356 11.7 35.3872 11.4563 35.6388 11.4563C35.8903 11.4563 36.1419 11.7 36.1419 11.9438V13.1625C36.2258 14.1375 35.3872 15.1125 34.1293 15.1125Z" fill="#004463"/>
<path d="M34.6328 12.675H35.5552C36.0584 12.675 36.4777 12.2687 36.4777 11.7812C36.4777 11.2937 36.0584 10.8875 35.5552 10.8875H34.6328V12.675Z" fill="#607D95"/>
<path d="M34.4649 16.4124V14.0562H30.5236V16.2499L29.3496 16.6562C29.6012 18.1187 32.3685 19.3374 32.3685 19.3374C32.3685 19.3374 35.1358 18.1187 35.3873 16.6562C35.4712 16.6562 34.4649 16.4124 34.4649 16.4124Z" fill="#F0C9AE"/>
<path d="M34.4647 14.1375H30.5234V15.3562C31.0266 15.7625 31.7813 15.8437 32.4522 15.8437C33.2069 15.8437 33.8777 15.6 34.3809 15.3562V14.1375H34.4647Z" fill="#E2B698"/>
<path d="M37.6518 17.3875L35.6392 16.7375C35.3876 18.2 32.6203 19.4188 32.6203 19.4188C32.6203 19.4188 29.853 18.2 29.6015 16.7375L27.5889 17.3875C26.4149 17.7938 25.6602 18.7688 25.6602 19.9875V22.3438H39.4966V19.9875C39.5805 18.7688 38.8258 17.7938 37.6518 17.3875Z" fill="#AE89BF"/>
<path d="M39.5809 22.2624V19.9062C39.5809 19.4187 39.4131 18.9312 39.1616 18.5249C37.4844 18.7687 36.2266 20.1499 36.2266 21.6937V22.1812C36.2266 22.2624 39.5809 22.2624 39.5809 22.2624Z" fill="#9675B4"/>
<path d="M31.6976 15.3562V14.1375H30.5236V16.4937L29.3496 16.9C29.6012 18.3625 32.3685 19.5812 32.3685 19.5812C32.5362 19.5812 32.6201 19.4187 32.8716 19.3375C32.2008 18.9312 31.3622 18.4437 30.6913 17.7125C30.5236 17.55 30.6913 17.3062 30.859 17.3062H31.0268C31.2783 17.1437 31.446 17.0625 31.446 16.8187V15.3562H31.6976Z" fill="#E2B698"/>
<path d="M35.2204 10.9688V12.5938C35.2204 14.0563 34.0464 15.1938 32.537 15.1938C31.0275 15.1938 29.8535 14.0563 29.8535 12.5938V10.9688" fill="#F0C9AE"/>
<path d="M31.6146 12.5125V10.8875H29.9375V12.5125C29.9375 13.975 31.1115 15.1125 32.6209 15.1125C32.8725 15.1125 33.1241 15.1125 33.3757 14.95C32.3694 14.7062 31.6146 13.7312 31.6146 12.5125Z" fill="#E2B698"/>
<path d="M35.2206 10.9687H32.5372C31.8663 10.9687 31.5309 10.4812 31.5309 9.99365C31.5309 10.6437 31.0278 10.9687 30.5246 10.9687H30.0215V12.5937C30.0215 14.0562 31.1955 15.1937 32.7049 15.1937C34.2144 15.1937 35.3884 14.0562 35.3884 12.5937L35.2206 10.9687Z" fill="#F0C9AE"/>
<path d="M30.9438 12.5124V10.8062C30.7761 10.9687 30.5245 10.9687 30.4406 10.9687H29.9375V12.5937C29.9375 14.0562 31.1115 15.1937 32.6209 15.1937H33.1241C31.9501 14.8687 30.9438 13.7312 30.9438 12.5124Z" fill="#E2B698"/>
<path d="M35.1356 13.2437C34.9679 13.6499 34.6325 13.9749 34.1293 13.9749H33.6262C33.3746 13.9749 33.123 14.2187 33.123 14.4624C33.123 14.7062 33.3746 14.9499 33.6262 14.9499H34.1293C35.1356 14.9499 36.0581 14.2187 36.3096 13.2437H35.1356Z" fill="#004463"/>
<path d="M31.3622 19.2563C31.7815 19.4188 32.1169 19.4188 32.6201 19.4188C32.6201 19.4188 32.2008 19.2563 32.1169 19.1751C31.4461 18.7688 30.6075 18.2001 29.9366 17.5501L29.5173 16.8188L27.5048 17.4688C27.3371 17.4688 27.0855 17.6313 27.0016 17.7126H26.8339L26.4146 18.1188C25.9115 18.6063 25.4922 19.3376 25.4922 20.0688V22.4251H26.8339V20.2313C26.8339 19.5001 27.2532 18.8501 27.7563 18.5251H27.9241C28.1756 18.6876 28.3433 18.6876 28.4272 18.7688C28.5949 18.9313 28.8465 18.9313 28.9303 19.0126C30.1043 19.7438 30.8591 21.1251 30.8591 22.4251H32.7039C32.7039 21.2063 32.2008 20.0688 31.3622 19.2563Z" fill="#9675B4"/>
<path d="M26.1637 8.69385V10.4001C26.1637 11.3751 25.2413 12.2688 24.235 12.2688H21.7193C21.3 12.2688 21.0484 12.5126 21.0484 12.9188C21.0484 13.3251 21.3 13.5688 21.7193 13.5688H24.235C25.9122 13.5688 27.2539 12.1876 27.4216 10.6438V8.9376H26.1637V8.69385ZM10.0631 14.6251H8.38596C8.13439 14.6251 7.88281 14.3813 7.88281 14.1376C7.88281 13.8938 8.13439 13.6501 8.38596 13.6501H10.0631C10.734 13.6501 11.0694 13.1626 11.0694 12.6751V11.4563C11.0694 11.2126 11.321 10.9688 11.5725 10.9688C11.8241 10.9688 12.0757 11.2126 12.0757 11.4563V12.6751C12.1595 13.6501 11.1533 14.6251 10.0631 14.6251Z" fill="#004463"/>
<path d="M4.36049 12.1875H3.43806C2.93491 12.1875 2.51562 11.7813 2.51562 11.2938C2.51562 10.8063 2.93491 10.4 3.43806 10.4H4.36049V12.1875ZM10.5659 12.025H11.4884C11.9915 12.025 12.4108 11.6188 12.4108 11.1313C12.4108 10.6438 11.9915 10.2375 11.4884 10.2375H10.5659V12.025Z" fill="#607D95"/>
<path d="M5.45124 16.4126L2.26466 17.3876C1.09065 17.7938 0.335938 18.7688 0.335938 19.9876V22.3438H14.1724V19.9876C14.1724 18.8501 13.4177 17.7938 12.2437 17.3876L9.05711 16.4126H5.45124Z" fill="#AE89BF"/>
<path d="M7.12839 16.3313H5.45124L2.26466 17.4688C1.25837 17.875 0.335938 18.85 0.335938 20.0688V22.425H1.50994V20.0688C1.50994 19.3375 2.1808 18.6063 2.93552 18.3625L4.19338 17.875C4.69652 17.7125 5.19967 17.7125 5.70281 18.1188C5.87053 18.2813 6.1221 18.3625 6.20596 18.3625C6.62525 18.6063 6.96068 18.6063 7.37996 18.3625C7.88311 17.9563 8.63783 17.3875 8.63783 16.7375L8.47011 16.3313H7.12839ZM14.3401 22.2625V19.9063C14.3401 19.4188 14.1724 18.9313 13.9208 18.525C12.2437 18.7688 10.9858 20.15 10.9858 21.6938V22.1813H14.3401V22.2625Z" fill="#9675B4"/>
<path d="M0.419922 22.2624V19.9062C0.419922 19.4187 0.587637 18.9312 0.839209 18.5249C2.51636 18.7687 3.77422 20.1499 3.77422 21.6937V22.1812H0.419922V22.2624Z" fill="#9675B4"/>
<path d="M1.59393 19.9875C1.59393 19.5812 1.76164 19.2562 2.01321 19.0125L0.839209 18.6062C0.587637 19.0125 0.419922 19.5 0.419922 19.9875V22.3437H1.59393C1.59393 22.2625 1.59393 19.9875 1.59393 19.9875Z" fill="#8D6DAF"/>
<path d="M5.45117 14.2188V16.4125C5.45117 17.55 7.37989 18.2812 7.37989 18.2812C7.37989 18.2812 9.30861 17.3875 9.30861 16.4125V14.2188H5.45117Z" fill="#F0C9AE"/>
<path d="M5.45117 15.3562C5.95432 15.7625 6.70903 16.0063 7.37989 16.0063C8.13461 16.0063 8.80547 15.7625 9.30861 15.3562V14.2188H5.45117V15.3562Z" fill="#E2B698"/>
<path d="M6.45746 16.4125V15.0312H5.45117V16.4125C5.45117 17.55 7.37989 18.2812 7.37989 18.2812L7.88304 18.0375C7.37989 17.6313 6.45746 17.0625 6.45746 16.4125Z" fill="#E2B698"/>
<path d="M3.60547 8.44995V11.5375C3.60547 13.4875 5.28262 15.1937 7.37905 15.1937C9.47549 15.1937 11.1526 13.5687 11.1526 11.5375V8.44995H3.60547Z" fill="#F0C9AE"/>
<path d="M5.19863 11.5375V8.44995H3.52148V11.5375C3.52148 13.4875 5.19863 15.1937 7.29507 15.1937C7.54664 15.1937 7.79821 15.1937 8.04979 15.0312C6.4565 14.7062 5.19863 13.2437 5.19863 11.5375Z" fill="#E2B698"/>
<path d="M11.1539 10.725L11.8248 8.85625C11.9925 7.9625 11.3216 7.23125 10.3992 7.23125C10.3992 6.25625 9.47675 5.3625 8.3866 5.60625L4.36144 6.25625C3.35515 6.41875 2.68429 7.23126 2.93587 8.20626L3.60672 10.6438L5.0323 9.50625C5.28387 9.34375 5.45159 9.2625 5.70316 9.2625H9.22517C9.47675 9.2625 9.72832 9.425 9.89603 9.50625L11.1539 10.725Z" fill="#8A6845"/>
<path d="M4.61119 8.20615C4.44347 7.23115 5.11433 6.41865 5.95291 6.25615L9.39106 5.6874C9.13949 5.5249 8.7202 5.5249 8.46863 5.5249L4.44347 6.1749C3.43718 6.3374 2.76632 7.1499 3.0179 8.1249L3.52104 10.7249L4.94662 9.5874L4.61119 8.20615Z" fill="#745539"/>
<path d="M11.0694 12.7563C10.9017 13.1626 10.5663 13.4876 10.0631 13.4876H8.38596C8.13439 13.4876 7.88281 13.7313 7.88281 13.9751C7.88281 14.2188 8.13439 14.4626 8.38596 14.4626H10.0631C11.0694 14.4626 11.9918 13.7313 12.2434 12.7563C12.1595 12.7563 11.0694 12.7563 11.0694 12.7563Z" fill="#004463"/>
<path d="M15.3455 10.075H13.5845C13.0814 10.075 12.6621 9.6688 12.6621 9.1813V8.28755C12.6621 7.80005 13.0814 7.3938 13.5845 7.3938H15.3455V10.075ZM24.8214 10.075H26.5824C27.0856 10.075 27.5049 9.6688 27.5049 9.1813V8.28755C27.5049 7.80005 27.0856 7.3938 26.5824 7.3938H24.8214V10.075Z" fill="#607D95"/>
<path d="M17.1075 16.8188L12.3276 18.4438C10.5666 19.0938 9.39258 20.6376 9.39258 22.3438V26.0001H30.8601V22.3438C30.8601 20.4751 29.6861 18.9313 27.9251 18.4438L23.1452 16.8188H17.1075Z" fill="#AE89BF"/>
<path d="M19.4552 16.6562H16.9395L12.1596 18.2812C10.6502 18.7687 9.22461 20.475 9.22461 22.1812V26H10.9856V22.3438C10.9856 21.125 11.908 20.15 12.9982 19.7437L15.0108 19.0938C15.7655 18.85 16.6879 18.9313 17.2749 19.5C17.4426 19.6625 17.9458 19.9063 18.0296 19.9875C18.5328 20.3938 19.2875 20.3938 19.7906 19.9875C20.7131 19.5 21.9709 18.525 21.9709 17.55L21.7194 16.6562H19.4552ZM30.6921 26V22.3438C30.6921 21.6125 30.4405 20.8812 30.0213 20.2312C27.5055 20.475 25.493 22.6687 25.493 25.1062V26H30.6921Z" fill="#9675B4"/>
<path d="M9.30859 26V22.3437C9.30859 21.6125 9.56017 20.8812 9.97945 20.2312C12.4952 20.475 14.5078 22.6687 14.5078 25.1062V26H9.30859Z" fill="#9675B4"/>
<path d="M11.0696 22.2625C11.0696 21.6125 11.3212 21.125 11.7405 20.6375C11.0696 20.2313 10.5665 20.15 9.97945 19.9875C9.56017 20.6375 9.30859 21.3688 9.30859 22.1V25.7563H11.0696C11.0696 25.8375 11.0696 22.2625 11.0696 22.2625Z" fill="#8D6DAF"/>
<path d="M16.9395 13.4875V16.8188C16.9395 18.4438 19.9583 19.7438 19.9583 19.7438C19.9583 19.7438 22.9772 18.3625 22.9772 16.8188V13.4875H16.9395Z" fill="#F0C9AE"/>
<path d="M16.9395 15.1125C17.8619 15.6 18.8682 16.0063 19.9583 16.0063C21.0485 16.0063 22.1386 15.6 22.9772 15.1125V13.4875H16.9395V15.1125Z" fill="#E2B698"/>
<path d="M18.7005 16.8188V14.7063H16.9395V16.8188C16.9395 18.4438 19.9583 19.7438 19.9583 19.7438C19.9583 19.7438 20.3776 19.5813 20.8808 19.2563C19.9583 18.7688 18.7005 17.7938 18.7005 16.8188Z" fill="#E2B698"/>
<path d="M14.1719 4.55005V9.3438C14.1719 12.4313 16.6876 14.95 19.958 14.95C23.2285 14.95 25.7442 12.5125 25.7442 9.3438V4.55005C25.8281 4.55005 14.1719 4.55005 14.1719 4.55005Z" fill="#F0C9AE"/>
<path d="M16.6876 9.1813V4.55005H14.1719V9.3438C14.1719 12.4313 16.6876 14.95 19.958 14.95C20.3773 14.95 20.8805 14.95 21.2159 14.7875C18.6163 14.1375 16.6876 11.9438 16.6876 9.1813Z" fill="#E2B698"/>
<path d="M25.8287 7.96248L26.8349 5.19998C27.0865 3.81873 26.0802 2.59998 24.6547 2.59998C24.6547 0.974977 23.1452 -0.243773 21.6358 0.162477L15.3465 1.13748C13.837 1.38123 12.9146 2.76248 13.1662 4.22498L14.1725 8.12498L16.1851 6.41873C16.4366 6.17498 16.8559 6.01248 17.1913 6.01248H22.6421C23.0614 6.01248 23.3968 6.17498 23.6484 6.41873L25.8287 7.96248Z" fill="#8A6845"/>
<path d="M15.5981 4.06259C15.3465 2.60009 16.3528 1.21884 17.7783 0.975088L23.0614 0.0813377C22.6421 -0.0811623 22.1389 -0.162412 21.6358 -0.0811623L15.3465 0.893838C13.837 1.13759 12.9146 2.51884 13.1662 3.98134L14.1725 7.88134L16.1851 6.25634C16.1851 6.41884 15.5981 4.06259 15.5981 4.06259Z" fill="#745539"/>
<path d="M30.6085 12.675H29.6861C29.183 12.675 28.7637 12.2687 28.7637 11.7812C28.7637 11.2937 29.183 10.8875 29.6861 10.8875H30.6085V12.675Z" fill="#607D95"/>
<path d="M13.4164 18.0375C13.1648 17.7937 12.7455 17.55 12.4101 17.3875L9.89438 18.525C8.21723 19.175 7.21094 20.6375 7.21094 22.3437H9.22352C9.22352 20.9625 9.97823 19.6625 11.1522 18.9312C11.32 18.7687 11.5715 18.6875 11.6554 18.6875C11.8231 18.525 12.0747 18.525 12.1585 18.4437C12.1585 18.3625 13.4164 18.0375 13.4164 18.0375Z" fill="#9675B4"/>
<path d="M26.9188 11.7H25.661C25.2417 12.1062 24.9063 12.35 24.2354 12.35H21.7197C21.3004 12.35 21.0488 12.5937 21.0488 13C21.0488 13.4062 21.3004 13.65 21.7197 13.65H24.2354C25.4933 13.65 26.6673 12.9187 27.1704 11.7812C27.1704 11.7 26.9188 11.7 26.9188 11.7Z" fill="#004463"/>
</g>
<defs>
<clipPath id="clip0_1426_924">
<rect width="40" height="26" fill="white"/>
</clipPath>
</defs>
</svg>
