<?xml version="1.0" encoding="utf-8"?>
<!-- Generator: Adobe Illustrator 24.3.0, SVG Export Plug-In . SVG Version: 6.00 Build 0)  -->
<svg version="1.1" id="beautician" xmlns="http://www.w3.org/2000/svg" xmlns:xlink="http://www.w3.org/1999/xlink" x="0px" y="0px"
	 viewBox="0 0 200 200" style="enable-background:new 0 0 200 200;" xml:space="preserve">
<style type="text/css">
	.st0{fill:#FEACA4;}
	.st1{opacity:0.5;fill:#FFDEDC;enable-background:new    ;}
	.st2{fill:#D68751;}
	.st3{opacity:0.4;fill:#72492D;enable-background:new    ;}
	.st4{fill:#9387A2;}
	.st5{opacity:0.5;fill:#5F5968;enable-background:new    ;}
	.st6{fill:#FFFFFF;}
	.st7{fill:#FC785E;}
	.st8{opacity:0.5;fill:#A54B3F;enable-background:new    ;}
	.st9{opacity:0.3;fill:#E5D0C3;enable-background:new    ;}
	.st10{fill:#E1EBF4;}
	.st11{fill:#2D4356;}
	.st12{opacity:0.2;fill:#F9DBD7;enable-background:new    ;}
	.st13{opacity:0.2;fill:#676868;enable-background:new    ;}
	.st14{opacity:0.5;fill:#AA7371;enable-background:new    ;}
	.st15{opacity:0.5;fill:#9FA5AA;enable-background:new    ;}
</style>
<path class="st0" d="M154.4,115.6L152,127l-0.1,0.6v45.8h-26v-46.7l-0.1-0.7l-2.3-10.5h6.1v3.1c0,1.7,1.4,3.1,3.1,3.1
	s3.1-1.4,3.1-3.1v-3.1h6.3v3.1c0,1.7,1.4,3.1,3.1,3.1c1.7,0,3.1-1.4,3.1-3.1v-3.1H154.4z"/>
<path class="st1" d="M154.4,115.6l-1.3,6.2h-28.3l-1.4-6.2H154.4z"/>
<path class="st2" d="M186.6,101.1l-3.7,6.7h-2.7l-4.1-7C179.5,99.7,183.2,99.8,186.6,101.1z"/>
<path class="st3" d="M175.5,104.7h12.1l-3.4,3.1h-5.2C179.1,107.8,175.5,104.7,175.5,104.7z"/>
<path class="st2" d="M191.7,91.8l-2.2,3.9c-6.3-3.2-13.1-1.6-16.7-0.3l-2.1-3.6c3.3-1.7,6.9-2.6,10.6-2.7
	C185,89.1,188.6,90,191.7,91.8z"/>
<path class="st3" d="M189.6,92.5l1.4,0.7l-1.4,2.5c-6.3-3.2-13.1-1.6-16.7-0.3l-3.4-0.1c0.5-0.2,0.2-1.6,0.7-1.9l2.7-1.2
	C176.5,90.9,183.3,89.3,189.6,92.5z"/>
<path class="st4" d="M151.4,179.7l-2.6,12.8l-0.2,0.6c-0.1,0.2-0.1,0.5-0.2,0.7h-19.2c-0.1-0.2-0.1-0.5-0.2-0.7l-0.2-0.6l-2.6-12.8
	H151.4z"/>
<path class="st5" d="M155.2,179.7l-3.4,12.8l-0.2,0.6c-0.1,0.2-0.2,0.5-0.3,0.7h-25c-0.1-0.2-0.2-0.5-0.3-0.7l-0.2-0.6l-3.4-12.8
	h1.7l1.8,6.5l0.2,0.6c0.1,0.2,0.2,0.5,0.3,0.7h25c0.1-0.2,0.2-0.5,0.3-0.7l0.2-0.6l1.8-6.5H155.2z"/>
<path class="st6" d="M113.3,128.2l-2.5-11.1c-0.1-0.3-0.1-0.5-0.1-0.8c-0.3-3.4,0.8-6.7,3-9.3c0.7-0.8,1.5-1.4,2.4-2
	c-2.9-3.3-5.1-7.3-6.2-11.5c0,0-8.1,9.8-20.3,9.8s-24.3-7.7-24.3-7.7s-10,20.1-22.5,17.7l37.5,83.3h14.3l18.8-39.8V128.2z"/>
<path class="st7" d="M116.4,193.8H92.2c0.1-2.2,0.2-4.2,0.4-6.2c2.5-23.9,14.3-38,20.7-44v35c0,0.4,0,0.8,0.1,1.3l1.6,7.7
	L116.4,193.8z M84.6,193.8H16.8c-3.9-0.1-7.2-3-7.8-6.8c-2-18.5-2.6-34.4-2.7-36.8c2-27.1,39.4-33.5,39.8-33.6l0.1,0h0
	c2.2-0.4,4.4-1.1,6.5-2l-16,23.4c-3.2,4.7-2.7,7.3,0.8,7.3c1.4-0.1,2.9-0.3,4.2-0.8c5.6-1.9,11.3-3.3,17.2-4.2
	c0.3,0,0.5-0.1,0.8-0.1C61.7,141.7,83.4,158,84.6,193.8z"/>
<path class="st8" d="M116.4,193.8H7.4v-6.2h107.7C115.1,187.5,116.4,193.8,116.4,193.8z"/>
<path class="st2" d="M131.5,90.6c-4.9,3.8-10.2,7-15.9,9.6c-1.3-2.2-2.3-4.5-2.9-7c5.4-8.2,10.3-20.5,12.7-39
	c0,0-27.3-11.5-35.9-32.9c-0.6-1.6-1.2-2.4-1.8-2.4c-0.6,0-1.1,0.8-1.7,2.5C82.8,30,73.9,45.9,50.2,54.1c0,0,1.3,24.3,12.3,40.7
	c-0.6,2-1.5,3.8-2.6,5.6c-5.6-2.3-10.8-5.2-15.8-8.7c-6.5-31.8-3.8-55.3,8-69.8C64.2,7,82.7,6.2,86.3,6.2c0.5,0,0.8,0,0.8,0h0.1
	c17,0.7,29.6,6.5,37.4,17.1C140.7,45.2,133.5,81.8,131.5,90.6z"/>
<path class="st3" d="M131.5,90.6c-3.1,2.4-3.7,5.1-6.9,6.9c0,0-10.1,6.6-9.4,1.9c-1.1-2-1.9-4.1-2.5-6.3c0.5-0.7,0.9-1.4,1.4-2.2
	c0.4,1,0.9,2,1.5,3c5.6-2.6,11-5.8,15.9-9.6c1.9-8.5,3-17.2,3.3-25.9C135,69.2,133.9,80,131.5,90.6z M62.5,94.8
	c-0.6,2-1.5,3.8-2.6,5.6c-5.6-2.3-10.8-5.2-15.8-8.7c-2.4-10.9-3.5-22.1-3.4-33.3c0.4,9.1,1.5,18.2,3.4,27.1
	c4.9,3.5,10.2,6.4,15.8,8.7c0.4-0.6,0.7-1.2,1-1.8C61.4,93.1,61.9,93.9,62.5,94.8z"/>
<path class="st9" d="M134.8,64.7c-0.3-12.1-2.8-25.1-10.2-35.1c-7.8-10.6-20.4-16.4-37.4-17.1h-0.1c0,0-0.3,0-0.8,0
	c-3.6,0-22.1,0.8-34.1,15.6C45,36.9,41.2,49,40.8,64.2C40.3,46,44.1,31.8,52.2,21.8C60.3,12.2,71.8,6,84.3,4.8
	c0.2,0,6.1,0.1,6.1,0.1c15.4,1.3,26.9,8.5,34.2,18.5C133.2,35.1,135.2,51,134.8,64.7z"/>
<path class="st7" d="M185.9,154.5v1.8h-8.6v-1.8c0.1-1.7,1.5-3,3.1-2.9h2.3C184.4,151.5,185.8,152.8,185.9,154.5z"/>
<path class="st10" d="M190.1,163.7l-2,29.7c-0.1,0.2-0.2,0.4-0.5,0.4h-12.8c-0.1,0-0.4-0.3-0.4-0.4l-2-29.7H190.1z"/>
<path class="st11" d="M155.1,109.4h-32.5c-3.1,0-5.6,2.4-5.7,5.5c0,0.3,0,0.5,0,0.8l2.6,11.8v51l3.2,15.5c1,3.3,1.5,6,4.9,6H150
	c3.4,0,3.9-2.7,4.9-6l3.2-15.7v-49.9l2.7-12.7c0.4-3.1-1.9-5.9-5-6.2C155.6,109.4,155.3,109.4,155.1,109.4z M148.8,192.5l-0.2,0.6
	c-0.1,0.2-0.1,0.5-0.2,0.7h-19.2c-0.1-0.2-0.1-0.5-0.2-0.7l-0.2-0.6l-2.6-12.8h25.2L148.8,192.5z M152,127l-0.1,0.6v45.8h-26v-46.7
	l-0.1-0.7l-2.3-10.5h6.1v3.1c0,1.7,1.4,3.1,3.1,3.1s3.1-1.4,3.1-3.1v-3.1h6.3v3.1c0,1.7,1.4,3.1,3.1,3.1c1.7,0,3.1-1.4,3.1-3.1v-3.1
	h6.1L152,127z"/>
<path class="st2" d="M62.6,132.6c-0.2,0.4-1.5,1.2-4.6,1.6c-4.4,0.6-8.8,1.6-13.1,2.8l14-20.5l3.5,13.8
	C62.8,131.7,62.7,132.4,62.6,132.6z"/>
<path class="st6" d="M118.6,57.7c-7.2,44.3-28.8,45.4-30,45.4h-0.1l-0.2,0h-0.6c-23,0-29.3-32.7-30.8-44.9
	C73.7,51.3,83,40.5,88,31.7C96.8,45.2,111.3,54,118.6,57.7z"/>
<path class="st12" d="M56.3,113.5l-9.1,9.1c-0.3,0.1-0.7,0.2-1,0.2h0l-0.1,0c-0.4,0.1-36.2,6.2-39.6,31.9c-0.1-2.3-2.3-3.9-2.3-4.5
	c2-27.1,40.9-35.9,41.2-35.9C45.4,114.2,54.4,114.3,56.3,113.5z"/>
<path class="st13" d="M118.6,57.7c-7.2,44.3-28.8,45.4-30,45.4h-0.1c-0.2,0-0.5,0-0.7,0c-0.4,0-0.7,0-1.1,0
	c-22.2-1-28.3-32.9-29.7-44.9c0.3-0.1,0.6-0.2,0.9-0.4c2.6,14.5,10,39,29.9,39h0.6l0.2,0h0.1c1.2,0,20.9-1,29-39.7
	C117.9,57.4,118.2,57.6,118.6,57.7z"/>
<path class="st11" d="M117,196.5l-0.2-0.8c-0.1-0.2-0.1-0.3-0.1-0.5l-0.3-1.5H92.6c0.9-27.2,13.8-43.2,20.7-49.9v-15.7l-2.1-9.5
	l-2.6,10c-1.1,4.1-0.1,7,2.2,8.9c-11.2,10.1-19,23.5-22.2,38.3c-4.9-21-16.4-33.2-22.2-38.3c2.3-1.9,3.3-4.8,2.2-8.9l-5.6-21.9
	c1.6-1.9,2.9-4,4-6.2c0.2,0.1,0.3,0.2,0.5,0.3c5.3,5.5,12.7,8.6,20.3,8.5c0.2,0,0.5,0,0.7,0c0,0,0,0,0.1,0c0.8,0,8-0.2,15.9-6.9
	c1.3-1,2.6-2,3.8-3.2c1.4,2.9,3.1,5.7,5.1,8.2c0.1-0.2,0.3-0.4,0.5-0.5c2.3-2.5,5.5-3.9,8.8-3.8h1c4.7-2.6,9.3-5.6,13.5-9
	c0,0,25.1-91.1-49.6-94.1c0,0-0.4,0-1.2,0c-9,0-67.4,3.5-47.9,95.2c5.3,4.1,11.1,7.5,17.2,10.2c-3,2.6-6.7,4.3-10.6,5
	c0,0-43,6.9-45.1,39.7c0,0,0.5,17.1,2.7,37.6c1,7,6.9,12.3,14,12.4h101.5C117.8,198.9,117.3,197.7,117,196.5L117,196.5z M88.5,103.1
	L88.5,103.1l-0.2,0h-0.6c-23,0-29.3-32.7-30.8-44.9C73.7,51.3,83,40.5,88,31.7c8.8,13.5,23.3,22.3,30.6,26
	C111.4,102,89.8,103.1,88.5,103.1z M44.1,91.6c-6.5-31.8-3.8-55.3,8-69.8C64.2,7,82.7,6.2,86.3,6.2c0.5,0,0.8,0,0.8,0h0.1
	c17,0.7,29.6,6.5,37.4,17.1c16,21.8,8.9,58.4,6.9,67.2c-4.9,3.8-10.2,7-15.9,9.6c-1.3-2.2-2.3-4.5-2.9-7c5.4-8.2,10.3-20.5,12.7-39
	c0,0-27.3-11.5-35.9-32.9c-0.6-1.6-1.2-2.4-1.8-2.4c-0.6,0-1.1,0.8-1.7,2.5C82.8,30,73.9,45.9,50.2,54.1c0,0,1.3,24.3,12.3,40.7
	c-0.6,2-1.5,3.8-2.6,5.6C54.3,98,49.1,95.1,44.1,91.6z M58.9,116.5l3.5,13.8c0.4,1.5,0.2,2.2,0.1,2.3c-0.2,0.4-1.5,1.2-4.6,1.6
	c-4.4,0.6-8.8,1.6-13.1,2.8L58.9,116.5z M16.8,193.8c-3.9-0.1-7.2-3-7.8-6.8c-2-18.5-2.6-34.4-2.7-36.8c2-27.1,39.4-33.5,39.8-33.6
	l0.1,0h0c2.2-0.4,4.4-1.1,6.5-2l-16,23.4c-3.2,4.7-2.7,7.3,0.8,7.3c1.4-0.1,2.9-0.3,4.2-0.8c5.6-1.9,11.3-3.3,17.2-4.2
	c0.3,0,0.5-0.1,0.8-0.1c2.1,1.5,23.8,17.8,25,53.5H16.8z"/>
<path class="st3" d="M62.6,132.6c-0.2,0.4-1.5,1.2-4.6,1.6c-4.4,0.6-8.8,1.6-13.1,2.8l5.2-7.6c2.6-0.6,5.2-1.1,7.9-1.5
	c1.2-0.1,2.5-0.4,3.6-0.9l0.8,3.3C62.8,131.7,62.7,132.4,62.6,132.6z"/>
<path class="st14" d="M125.8,167.2h26v6.2h-26V167.2z"/>
<path class="st11" d="M185.9,151.4v1.8h-0.4c-0.6-1-1.6-1.6-2.8-1.6h-2.3c-1.1,0-2.2,0.6-2.8,1.6h-0.4v-1.8c0.1-1.7,1.5-3,3.1-2.9
	h2.3C184.4,148.4,185.8,149.7,185.9,151.4L185.9,151.4z"/>
<path class="st15" d="M191.3,163.7l-2.3,29.7c-0.1,0.2-0.3,0.4-0.5,0.4h-14.6c-0.2,0-0.5-0.3-0.5-0.4l-2.3-29.7h0.2l2.1,26.5
	c0,0.2,0.3,0.4,0.5,0.4h14.6c0.2,0,0.4-0.2,0.5-0.4l2.1-26.5L191.3,163.7z"/>
<path class="st8" d="M185.9,154.5v1.8h-8.6v-1.8c0-0.5,0.1-1,0.4-1.4h7.9C185.8,153.5,185.9,154,185.9,154.5z"/>
<path class="st11" d="M192.2,156.5v-2c0-4.3-3-8-7.2-8.9v-31.5h1.6L200,89.8c-4.9-4.1-11.1-6.5-17.5-6.9l-1.8,0
	c-6.7,0.3-13.2,2.7-18.4,6.9l14.2,24.3h2.2v31.4c-4.4,0.7-7.7,4.5-7.7,9v1.8c-3.1,0.4-5.3,3.1-5.1,6.2l2.2,31.3
	c0.3,3.5,3.2,6.2,6.7,6.2h12.8c3.5-0.1,6.4-2.7,6.7-6.2l2.2-31.3C196.6,159.7,194.8,157.2,192.2,156.5z M170.8,91.7
	c3.3-1.7,6.9-2.6,10.6-2.7c3.6,0,7.2,1,10.3,2.7l-2.2,3.9c-6.3-3.2-13.1-1.6-16.7-0.3L170.8,91.7z M176.1,100.8
	c3.4-1.2,7.1-1.1,10.5,0.3l-3.7,6.7h-2.7L176.1,100.8z M177.3,154.5c0.1-1.7,1.5-3,3.1-2.9h2.3c1.7-0.1,3.1,1.3,3.1,2.9v1.8h-8.6
	L177.3,154.5z M188,193.3c-0.1,0.2-0.2,0.4-0.5,0.4h-12.8c-0.1,0-0.4-0.3-0.4-0.4l-2-29.7h17.8L188,193.3z"/>
<path class="st13" d="M113.7,107c0,0,0.1-0.1,0.1-0.1C113.8,106.9,113.8,106.9,113.7,107c-0.2,0.2-0.3,0.4-0.4,0.5
	c-2-2.5-3.7-5.3-5.1-8.2c-1.2,1.2-2.4,2.2-3.8,3.2c-8,6.7-15.2,6.9-15.9,6.9c0,0,0,0,0,0h0l-0.1,0h-0.6c-0.4,0-0.7,0-1.1,0
	c-7.3-0.2-14.2-3.3-19.2-8.5c-0.2-0.1-0.3-0.2-0.5-0.3c-1.1,2.2-2.4,4.3-4,6.2l1.2,4.7c1-1.5,2-3,2.8-4.7c0.2,0.1,0.3,0.2,0.5,0.3
	c5.3,5.5,12.7,8.6,20.3,8.5c0.2,0,0.5,0,0.7,0c0,0,0,0,0.1,0c0.8,0,8-0.2,15.9-6.9c1.3-1,2.6-2,3.8-3.2c0.9,1.9,2,3.8,3.1,5.5
	C111.8,109.6,112.7,108.2,113.7,107L113.7,107z"/>
</svg>
