<?xml version="1.0" encoding="utf-8"?>
<!-- Generator: Adobe Illustrator 24.3.0, SVG Export Plug-In . SVG Version: 6.00 Build 0)  -->
<svg version="1.1" id="real-estate-key" xmlns="http://www.w3.org/2000/svg" xmlns:xlink="http://www.w3.org/1999/xlink" x="0px"
	 y="0px" viewBox="0 0 200 200" style="enable-background:new 0 0 200 200;" xml:space="preserve">
<style type="text/css">
	.st0{fill:#455A64;}
	.st1{fill:#1AD2A4;}
	.st2{fill:#65F0CD;}
	.st3{fill:#1DE9B6;}
	.st4{fill:#FFF176;}
</style>
<path class="st0" d="M131.5,70.6c-0.6,0-1.3-0.2-1.9-0.6c-1.5-1-1.9-3.1-0.9-4.6c2.9-4.3,3.5-9.9,1.6-15.7
	c-2-6.1-6.4-11.7-12.4-15.8c-0.9-0.6-1.8-1.2-2.8-1.7c-1.6-0.9-2.2-2.9-1.3-4.5c0.9-1.6,2.9-2.2,4.5-1.3c1.1,0.6,2.2,1.3,3.3,2
	c7.3,4.9,12.6,11.7,15.1,19.3c2.5,7.8,1.7,15.5-2.4,21.5C133.6,70.1,132.6,70.6,131.5,70.6z"/>
<rect x="156.7" y="40.5" class="st1" width="13.3" height="46.7"/>
<path class="st0" d="M156.7,90.5c-1.8,0-3.3-1.5-3.3-3.3V40.5c0-1.8,1.5-3.3,3.3-3.3H170c1.8,0,3.3,1.5,3.3,3.3v23.3
	c0,1.8-1.5,3.3-3.3,3.3s-3.3-1.5-3.3-3.3v-20H160v43.3C160,89,158.5,90.5,156.7,90.5z"/>
<rect x="116.7" y="147.2" class="st2" width="26.7" height="46.7"/>
<polygon class="st3" points="130,40.5 63.3,113.8 76.7,113.8 76.7,193.8 116.7,193.8 116.7,147.2 143.3,147.2 143.3,193.8 
	183.3,193.8 183.3,113.8 196.7,113.8 "/>
<polygon class="st2" points="130,33.8 63.3,113.8 196.7,113.8 "/>
<path class="st1" d="M94.6,81.2c7.3,2.9,15.1,3.6,22.1,2.1c0.8-0.2,1.6-0.4,2.3-0.6c7.9-2.3,13.7-7.3,16.4-14.1
	c0.7-1.7-0.2-3.6-1.9-4.3c-1.7-0.7-3.6,0.2-4.3,1.9c-1.9,4.8-6.2,8.4-12.1,10.1c-5.6,1.6-12,1.3-18.2-0.8l-4.5,5.5
	C94.4,81.1,94.5,81.2,94.6,81.2z"/>
<path class="st0" d="M190,197.2H30c-1.8,0-3.3-1.5-3.3-3.3s1.5-3.3,3.3-3.3h43.3v-73.3h-10c-1.3,0-2.5-0.7-3-1.9
	c-0.5-1.2-0.4-2.6,0.5-3.5l66.7-80c1.3-1.5,3.9-1.5,5.1,0l66.7,80c0.8,1,1,2.4,0.5,3.5c-0.6,1.2-1.7,1.9-3,1.9h-10v73.3h3.3
	c1.8,0,3.3,1.5,3.3,3.3S191.8,197.2,190,197.2z M80,190.5h100v-73.3h-80c-1.8,0-3.3-1.5-3.3-3.3s1.5-3.3,3.3-3.3h89.6L130,39
	l-59.6,71.5h12.9c1.8,0,3.3,1.5,3.3,3.3s-1.5,3.3-3.3,3.3H80V190.5z"/>
<path class="st0" d="M143.3,197.2c-1.8,0-3.3-1.5-3.3-3.3v-43.3h-20v43.3c0,1.8-1.5,3.3-3.3,3.3s-3.3-1.5-3.3-3.3v-46.7
	c0-1.8,1.5-3.3,3.3-3.3h26.7c1.8,0,3.3,1.5,3.3,3.3v46.7C146.7,195.7,145.2,197.2,143.3,197.2z"/>
<g>
	<path class="st4" d="M80,7.2c-9.3,0-17.2,5.5-21,13.3H10l-6.7,6.7l10,13.3l6.7-6.7h10l3.3,6.7H59c3.8,7.9,11.7,13.3,21,13.3
		c12.9,0,23.3-10.4,23.3-23.3S92.9,7.2,80,7.2z"/>
	<path class="st0" d="M80,57.2c-9.6,0-18.2-5.1-23-13.3H33.3c-1.3,0-2.4-0.7-3-1.8l-2.4-4.8h-6.6l-5.7,5.7c-0.7,0.7-1.6,1.1-2.6,1
		c-1-0.1-1.9-0.6-2.4-1.3l-10-13.3c-1-1.3-0.9-3.2,0.3-4.4l6.7-6.7c0.6-0.6,1.5-1,2.4-1h47C61.8,8.9,70.4,3.8,80,3.8
		c14.7,0,26.7,12,26.7,26.7S94.7,57.2,80,57.2z M35.4,37.2H59c1.3,0,2.5,0.7,3,1.9c3.4,7.1,10.3,11.4,18,11.4c11,0,20-9,20-20
		s-9-20-20-20c-7.7,0-14.6,4.4-18,11.4c-0.6,1.2-1.7,1.9-3,1.9H11.4l-3.6,3.6l6,7.9l4-3.9c0.6-0.6,1.5-1,2.4-1h10
		c1.3,0,2.4,0.7,3,1.8L35.4,37.2z"/>
	<circle class="st0" cx="86.7" cy="30.5" r="6.7"/>
</g>
<path class="st0" d="M113,79.4c-7.2,0-14.6-2.3-21.2-6.7C84.6,67.8,79.2,61,76.7,53.5c-2.6-7.8-1.8-15.4,2.2-21.5
	c1-1.5,2.1-2.8,3.4-4c1.3-1.2,3.5-1.2,4.7,0.2c1.2,1.4,1.1,3.5-0.2,4.7c-0.9,0.8-1.7,1.8-2.4,2.8c-2.9,4.3-3.4,9.9-1.4,15.7
	c2,6.1,6.5,11.7,12.6,15.7c6.1,4,12.9,6,19.4,5.5c6.1-0.5,11.1-3.1,13.9-7.4c1-1.5,3.1-1.9,4.6-0.9c1.5,1,1.9,3.1,0.9,4.6
	c-4,6.1-10.8,9.7-19,10.3C114.6,79.4,113.8,79.4,113,79.4z"/>
<circle class="st0" cx="16.7" cy="193.8" r="3.3"/>
</svg>
