<?xml version="1.0" encoding="utf-8"?>
<!-- Generator: Adobe Illustrator 24.3.0, SVG Export Plug-In . SVG Version: 6.00 Build 0)  -->
<svg version="1.1" id="car-pool" xmlns="http://www.w3.org/2000/svg" xmlns:xlink="http://www.w3.org/1999/xlink" x="0px" y="0px"
	 viewBox="0 0 200 200" style="enable-background:new 0 0 200 200;" xml:space="preserve">
<style type="text/css">
	.st0{fill:#BFC09D;}
	.st1{fill:#F2D393;}
	.st2{fill:#BDDFE0;}
	.st3{fill:#D5D5BE;}
	.st4{fill:#F6E2B7;}
	.st5{fill:#FBF0DB;}
</style>
<path class="st0" d="M171.9,64.8h25v9.4c0,3.4-2.8,6.2-6.2,6.2h-18.8V64.8L171.9,64.8z"/>
<rect x="9.4" y="149.1" class="st1" width="25" height="28.1"/>
<rect x="165.6" y="149.1" class="st1" width="25" height="28.1"/>
<path class="st0" d="M28.1,80.4H9.4c-3.4,0-6.2-2.8-6.2-6.2v-9.4h25V80.4L28.1,80.4z"/>
<polygon class="st2" points="175,80.4 25,80.4 43.8,14.8 156.2,14.8 "/>
<polygon class="st3" points="175,80.4 25,80.4 9.4,99.1 9.4,152.2 190.6,152.2 190.6,99.1 "/>
<circle class="st4" cx="162.5" cy="124.1" r="12.5"/>
<circle class="st4" cx="37.5" cy="124.1" r="12.5"/>
<rect x="3.1" y="149.1" class="st0" width="193.8" height="12.5"/>
<g>
	<path class="st5" d="M118.8,80.4H81.2V65.3c0-3.2,1.7-6.2,4.4-8l8.1-5.1h12.5l8.1,5.1c2.7,1.7,4.4,4.7,4.4,8V80.4z"/>
	<circle class="st5" cx="100" cy="41.3" r="10.9"/>
</g>
<g>
	<path class="st5" d="M84.4,80.4H46.9V65.3c0-3.2,1.7-6.2,4.4-8l8.1-5.1h12.5l8.1,5.1c2.7,1.7,4.4,4.7,4.4,8V80.4z"/>
	<circle class="st5" cx="65.6" cy="41.3" r="10.9"/>
</g>
<g>
	<path class="st5" d="M153.1,80.4h-37.5V65.3c0-3.2,1.7-6.2,4.4-8l8.1-5.1h12.5l8.1,5.1c2.7,1.7,4.4,4.7,4.4,8V80.4z"/>
	<circle class="st5" cx="134.4" cy="41.3" r="10.9"/>
</g>
<g>
	<path d="M200,74.1v-9.4c0-1.7-1.4-3.1-3.1-3.1h-24l-13.6-47.7c-0.4-1.3-1.6-2.3-3-2.3H43.8c-1.4,0-2.6,0.9-3,2.3L27.1,61.6h-24
		C1.4,61.6,0,63,0,64.8v9.4c0,5.2,4.2,9.4,9.4,9.4h9L7,97.1c-0.5,0.6-0.7,1.3-0.7,2V146H3.1c-1.7,0-3.1,1.4-3.1,3.1v12.5
		c0,1.7,1.4,3.1,3.1,3.1h3.1v12.5c0,1.7,1.4,3.1,3.1,3.1h25c1.7,0,3.1-1.4,3.1-3.1v-12.5h125v12.5c0,1.7,1.4,3.1,3.1,3.1h25
		c1.7,0,3.1-1.4,3.1-3.1v-12.5h3.1c1.7,0,3.1-1.4,3.1-3.1v-12.5c0-1.7-1.4-3.1-3.1-3.1h-3.1V99.1c0-0.7-0.3-1.4-0.7-2l-11.4-13.6h9
		C195.8,83.5,200,79.3,200,74.1z M175,67.9h18.8v6.2c0,1.7-1.4,3.1-3.1,3.1h-13.3L175,69V67.9z M46.1,17.9h107.8l17,59.4h-14.6v-12
		c0-4.3-2.2-8.3-5.9-10.6l-5.8-3.6c2.4-2.5,3.9-5.9,3.9-9.7c0-7.8-6.3-14.1-14.1-14.1s-14.1,6.3-14.1,14.1c0,3.8,1.5,7.2,3.9,9.7
		l-5.8,3.6c-0.4,0.3-0.8,0.5-1.2,0.8c-0.4-0.3-0.8-0.6-1.2-0.8l-5.8-3.6c2.4-2.5,3.9-5.9,3.9-9.7c0-7.8-6.3-14.1-14.1-14.1
		s-14.1,6.3-14.1,14.1c0,3.8,1.5,7.2,3.9,9.7L84,54.7c-0.4,0.3-0.8,0.5-1.2,0.8c-0.4-0.3-0.8-0.6-1.2-0.8L75.8,51
		c2.4-2.5,3.9-5.9,3.9-9.7c0-7.8-6.3-14.1-14.1-14.1s-14.1,6.3-14.1,14.1c0,3.8,1.5,7.2,3.9,9.7l-5.8,3.6c-3.7,2.3-5.9,6.3-5.9,10.6
		v12H29.1L46.1,17.9z M118.8,77.2v-12c0-2.2,1.1-4.2,2.9-5.3l7.3-4.6h10.7l7.3,4.6c1.8,1.1,2.9,3.1,2.9,5.3v12H118.8L118.8,77.2z
		 M87.5,77.2v-12c0-1.7-0.3-3.3-0.9-4.7c0.2-0.2,0.5-0.4,0.7-0.6l7.3-4.6h10.7l7.3,4.6c0.3,0.2,0.5,0.4,0.7,0.6
		c-0.6,1.5-0.9,3.1-0.9,4.7v12L87.5,77.2L87.5,77.2z M50,77.2v-12c0-2.2,1.1-4.2,2.9-5.3l7.3-4.6H71l7.3,4.6
		c1.8,1.1,2.9,3.1,2.9,5.3v12H50L50,77.2z M65.6,49.1c-4.3,0-7.8-3.5-7.8-7.8s3.5-7.8,7.8-7.8s7.8,3.5,7.8,7.8S69.9,49.1,65.6,49.1z
		 M100,49.1c-4.3,0-7.8-3.5-7.8-7.8s3.5-7.8,7.8-7.8s7.8,3.5,7.8,7.8S104.3,49.1,100,49.1z M134.4,49.1c-4.3,0-7.8-3.5-7.8-7.8
		s3.5-7.8,7.8-7.8s7.8,3.5,7.8,7.8S138.7,49.1,134.4,49.1z M6.2,74.1v-6.2H25V69l-2.4,8.3H9.4C7.7,77.2,6.2,75.8,6.2,74.1z
		 M31.2,174.1H12.5v-9.4h18.8V174.1z M187.5,174.1h-18.8v-9.4h18.8V174.1z M193.8,158.5H6.2v-6.2h187.5V158.5z M187.5,146h-175
		v-45.7l14-16.8h36.4l-9.3,13.9l5.2,3.5l11.6-17.4h59.2l11.6,17.4l5.2-3.5l-9.3-13.9h36.4l14,16.8V146L187.5,146z"/>
	<path d="M146.9,124.1c0,8.6,7,15.6,15.6,15.6s15.6-7,15.6-15.6s-7-15.6-15.6-15.6S146.9,115.5,146.9,124.1z M171.9,124.1
		c0,5.2-4.2,9.4-9.4,9.4s-9.4-4.2-9.4-9.4s4.2-9.4,9.4-9.4S171.9,119,171.9,124.1z M37.5,108.5c-8.6,0-15.6,7-15.6,15.6
		s7,15.6,15.6,15.6s15.6-7,15.6-15.6S46.1,108.5,37.5,108.5z M37.5,133.5c-5.2,0-9.4-4.2-9.4-9.4s4.2-9.4,9.4-9.4s9.4,4.2,9.4,9.4
		S42.7,133.5,37.5,133.5z"/>
	<rect x="62.5" y="108.5" width="75" height="6.2"/>
	<rect x="62.5" y="121" width="75" height="6.2"/>
	<rect x="62.5" y="133.5" width="75" height="6.2"/>
</g>
</svg>
