<svg id="Layer_1" enable-background="new 0 0 512 512" height="512" viewBox="0 0 512 512" width="512" xmlns="http://www.w3.org/2000/svg"><g><g><g><g><g><g><path d="m98.407 440.041v-46.42c0-9.561 2.739-18.922 7.892-26.975l24.631-38.493 125.01-17.153 125.011 17.153 24.631 38.493c5.153 8.053 7.892 17.414 7.892 26.975v46.42l-157.534 15.3z" fill="#8099ff"/><path d="m405.583 366.646-24.631-38.493h-40l24.631 38.493c5.153 8.053 7.892 17.414 7.892 26.975v46.42h40v-46.42c-.001-9.561-2.739-18.922-7.892-26.975z" fill="#6b88ff"/><path d="m98.407 470.64v24.552c0 5.141 4.167 9.308 9.308 9.308h28.693c5.141 0 9.308-4.167 9.308-9.308v-35.858h-47.31v11.306z" fill="#8986a6"/><path d="m366.165 470.64v24.552c0 5.141 4.167 9.308 9.308 9.308h28.693c5.141 0 9.308-4.167 9.308-9.308v-35.858h-47.31v11.306z" fill="#8986a6"/><path d="m418.428 470.64h-324.856c-5.222 0-9.455-4.233-9.455-9.455v-11.688c0-5.222 4.233-9.455 9.455-9.455h324.857c5.222 0 9.455 4.233 9.455 9.455v11.688c0 5.222-4.234 9.455-9.456 9.455z" fill="#dadded"/></g></g><g fill="#fdef85"><path d="m148.596 397.454c21.629 0 41.21 12.789 49.905 32.593l4.387 9.993h-73.974l.363-23.562c.162-10.553 8.764-19.024 19.319-19.024z"/><path d="m363.404 397.454c-21.629 0-41.211 12.789-49.905 32.593l-4.387 9.993h73.974l-.363-23.562c-.162-10.553-8.764-19.024-19.319-19.024z"/></g><g fill="#8099ff"><ellipse cx="402.77" cy="321.148" rx="25.114" ry="17.087"/><ellipse cx="109.23" cy="321.148" rx="25.114" ry="17.087"/></g></g><g><path d="m330.176 225.681h-148.471c-15.196 0-28.419 10.397-32.005 25.164l106.3 16.155 106.181-16.155c-3.585-14.767-16.809-25.164-32.005-25.164z" fill="#8099ff"/><path d="m330.176 225.681h-40c15.196 0 28.42 10.397 32.005 25.164h40c-3.585-14.767-16.809-25.164-32.005-25.164z" fill="#6b88ff"/><path d="m149.7 250.845-18.77 77.308h250.021l-18.77-77.308z" fill="#d6f3ff"/><path d="m362.181 250.845h-40l18.77 77.308h40z" fill="#baebff"/></g></g><g><path d="m24.655 113.361c-10.634-11.242-17.155-26.415-17.155-43.111 0-34.656 28.094-62.75 62.75-62.75s62.75 28.094 62.75 62.75c0 16.753-6.565 31.972-17.263 43.226z" fill="#fdef85"/><path d="m115.737 113.475c10.698-11.254 17.263-26.473 17.263-43.226 0-34.656-28.094-62.75-62.75-62.75-6.996 0-13.716 1.162-20 3.275 24.845 8.352 42.75 31.815 42.75 59.475 0 6.915-1.119 13.568-3.186 19.787z" fill="#fde73f"/><g><g><path d="m70.25 132.999c17.903 0 34.042-7.51 45.474-19.536-9.267-16.281-26.124-27.253-45.476-27.253-19.686 0-36.801 10.977-45.581 27.139 11.439 12.093 27.623 19.65 45.583 19.65z" fill="#fff"/></g><circle cx="70.248" cy="62.16" fill="#fff" r="24.217"/></g></g><g><path d="m210.405 113.361c-10.634-11.242-17.155-26.416-17.155-43.112 0-34.656 28.094-62.75 62.75-62.75s62.75 28.094 62.75 62.75c0 16.753-6.565 31.972-17.263 43.226z" fill="#c7ff80"/><path d="m301.487 113.475c10.698-11.254 17.263-26.473 17.263-43.226 0-34.656-28.094-62.75-62.75-62.75-6.996 0-13.716 1.162-20 3.275 24.845 8.352 42.75 31.815 42.75 59.475 0 6.915-1.119 13.568-3.186 19.787z" fill="#a9f745"/><g><g><path d="m256 132.999c17.903 0 34.042-7.51 45.474-19.536-9.267-16.281-26.124-27.253-45.475-27.253-19.686 0-36.801 10.977-45.581 27.139 11.438 12.093 27.623 19.65 45.582 19.65z" fill="#fff"/></g><circle cx="255.999" cy="62.16" fill="#fff" r="24.217"/></g></g><g><path d="m504.5 70.25c0 16.753-6.565 31.972-17.263 43.226-11.432 12.026-27.584 4.775-45.487 4.775-17.959 0-34.157 7.204-45.595-4.889-10.634-11.242-17.155-26.416-17.155-43.112 0-34.656 28.094-62.75 62.75-62.75s62.75 28.094 62.75 62.75z" fill="#ff5757"/><path d="m441.75 7.5c-6.996 0-13.716 1.162-20 3.275 24.845 8.352 42.75 31.815 42.75 59.475 0 8.985-1.889 17.526-5.292 25.251-7.072 16.057 16.597 30.001 28.029 17.974 10.698-11.253 17.263-26.473 17.263-43.225 0-34.656-28.094-62.75-62.75-62.75z" fill="#f23838"/><g><g><path d="m441.75 132.999c17.903 0 34.042-7.51 45.474-19.536-9.267-16.281-26.124-27.253-45.475-27.253-19.686 0-36.801 10.977-45.581 27.139 11.438 12.093 27.623 19.65 45.582 19.65z" fill="#fff"/></g><circle cx="441.749" cy="62.16" fill="#fff" r="24.217"/></g></g></g><g fill="#060606"><path d="m286.258 403.4h-60.516c-4.143 0-7.5 3.358-7.5 7.5s3.357 7.5 7.5 7.5h60.516c4.143 0 7.5-3.358 7.5-7.5s-3.358-7.5-7.5-7.5z"/><path d="m492.926 118.301c11.814-12.575 19.074-29.476 19.074-48.051 0-38.736-31.514-70.25-70.25-70.25-38.735 0-70.249 31.514-70.249 70.25 0 35.443 27.509 66.158 62.749 69.853v80.504c0 12.538-10.2 22.739-22.738 22.739h-43.897c-6.117-15.07-20.757-25.164-37.439-25.164h-66.676v-78.079c35.24-3.697 62.75-34.395 62.75-69.852 0-38.737-31.514-70.251-70.25-70.251s-70.25 31.514-70.25 70.25c0 35.443 27.51 66.158 62.75 69.853v78.079h-66.795c-16.682 0-31.322 10.094-37.439 25.164h-44.395c-12.538 0-22.739-10.201-22.739-22.739v-80.444c35.51-3.412 63.367-34.218 63.367-69.913 0-38.736-31.514-70.25-70.249-70.25-9.386 0-9.813 15 0 15 30.465 0 55.249 24.785 55.249 55.25 0 11.344-3.441 21.898-9.327 30.68-6.194-7.549-13.981-13.448-22.639-17.264 5.229-5.657 8.432-13.213 8.432-21.506 0-17.489-14.229-31.717-31.717-31.717s-31.717 14.228-31.717 31.717c0 8.223 3.147 15.724 8.298 21.365-8.772 3.769-16.566 9.634-22.663 17.153-5.786-8.733-9.166-19.191-9.166-30.428 0-17.57 8.076-33.697 22.158-44.248 7.51-5.628-1.142-17.89-8.994-12.005-17.898 13.41-28.164 33.914-28.164 56.253 0 35.217 27.16 65.797 62.132 69.775v80.582c0 20.809 16.93 37.739 37.739 37.739h40.29l-10.556 43.477c-5.546-3.304-12.599-5.261-20.374-5.261-18.288 0-32.614 10.8-32.614 24.586 0 17.121 19.717 25.049 34.178 24.558l-10.813 16.897c-5.938 9.278-9.075 20.004-9.075 31.018v39.151c-8.084 1.285-14.29 8.285-14.29 16.725v11.688c0 8.44 6.206 15.44 14.29 16.725v17.282c0 9.268 7.54 16.809 16.809 16.809h28.693c9.268 0 16.808-7.541 16.808-16.809v-17.052h148.258c9.386 0 9.813-15 0-15h-155.759-52.145c-1.078 0-1.955-.877-1.955-1.956v-11.688c0-1.078.877-1.956 1.955-1.956h324.857c1.078 0 1.955.877 1.955 1.956v11.688c0 1.078-.877 1.956-1.955 1.956h-52.264-19.306c-9.386 0-9.813 15 0 15h11.806v17.051c0 9.268 7.54 16.809 16.808 16.809h28.693c9.269 0 16.809-7.541 16.809-16.809v-17.264c8.142-1.235 14.409-8.261 14.409-16.743v-11.688c0-8.482-6.267-15.508-14.409-16.743v-39.132c0-11.014-3.138-21.74-9.075-31.018l-10.814-16.9c.557.02 1.119.031 1.684.031 18.288 0 32.614-10.8 32.614-24.587s-14.326-24.586-32.614-24.586c-7.824 0-14.917 1.981-20.479 5.322l-10.571-43.538h39.792c20.809 0 37.738-16.93 37.738-37.739v-80.505c16.021-1.68 33.084-9.308 43.677-21.8zm-239.64 7.129c-12.14-.582-24.051-5.378-33.261-13.3 7.828-10.856 20.17-17.64 33.633-18.349 1.559.127 3.118.127 4.678 0 13.253.71 25.322 7.427 33.454 18.508-10.616 9.052-24.592 13.817-38.504 13.141zm-14.004-63.27c0-9.218 7.499-16.717 16.717-16.717 9.217 0 16.716 7.499 16.716 16.717 0 8.541-6.443 15.595-14.721 16.586-.664-.023-1.328-.035-1.995-.035-.669 0-1.337.012-2.003.034-8.275-.995-14.714-8.047-14.714-16.585zm16.718-47.16c30.465 0 55.25 24.785 55.25 55.25 0 11.344-3.441 21.898-9.328 30.681-6.194-7.549-13.981-13.448-22.639-17.265 5.229-5.657 8.432-13.213 8.432-21.506 0-17.489-14.228-31.717-31.716-31.717s-31.717 14.228-31.717 31.717c0 8.223 3.147 15.724 8.298 21.365-8.772 3.769-16.566 9.635-22.664 17.153-5.786-8.733-9.166-19.192-9.166-30.429 0-30.464 24.785-55.249 55.25-55.249zm-202.469 47.16c0-9.218 7.499-16.717 16.717-16.717s16.717 7.499 16.717 16.717c0 8.541-6.443 15.595-14.722 16.586-.664-.023-1.329-.035-1.995-.035-.669 0-1.337.012-2.003.034-8.275-.995-14.714-8.047-14.714-16.585zm14.377 31.621c15.475 1.136 28.526 5.418 38.132 18.508-20.332 17.337-51.51 17.264-71.766-.159 7.78-10.789 20.351-17.65 33.634-18.349zm302.264 226.872h-228.344c-.032-1.272-.185-2.518-.453-3.731l14.221-58.577h200.689l14.282 58.828c-.234 1.134-.365 2.296-.395 3.48zm-188.467-87.472h148.471c8.231 0 15.675 3.905 20.359 10.164h-189.189c4.684-6.259 12.128-10.164 20.359-10.164zm-72.475 97.553c-10.081 0-17.614-5.062-17.614-9.587s7.533-9.586 17.614-9.586c9.576 0 20.976 5.33 13.494 15.5-3.173 2.135-7.942 3.673-13.494 3.673zm28.986 147.406v17.051c0 .997-.811 1.809-1.808 1.809h-28.693c-.997 0-1.809-.812-1.809-1.809v-17.051zm-1.686-45.599.245-15.947c.099-6.418 5.401-11.64 11.821-11.64 18.457 0 35.195 10.808 42.804 27.586h-54.87zm184.07 0c7.608-16.779 24.347-27.586 42.804-27.586 6.42 0 11.723 5.222 11.821 11.64l.245 15.947h-54.87zm85.375 62.65c0 .997-.812 1.809-1.809 1.809h-28.693c-.997 0-1.808-.812-1.808-1.809v-17.051h32.31zm-6.71-124.503c4.39 6.86 6.71 14.79 6.71 22.933v38.92h-15.503l-.249-16.177c-.224-14.562-12.255-26.409-26.819-26.409-24.599 0-46.883 14.554-56.771 37.079l-2.418 5.508h-96.428l-2.418-5.508c-9.889-22.524-32.173-37.078-56.771-37.078-14.564 0-26.596 11.847-26.819 26.409l-.249 16.177h-15.622v-38.92c0-8.143 2.32-16.073 6.71-22.933 7.304-11.415 23.106-35.035 23.106-35.035h240.556c-.002-.001 15.718 23.677 22.985 35.034zm3.505-59.127c10.081 0 17.614 5.061 17.614 9.586s-7.533 9.587-17.614 9.587c-19.742 0-20.777-19.173 0-19.173zm38.98-296.561c30.465 0 55.25 24.785 55.25 55.25 0 11.344-3.441 21.898-9.328 30.681-6.194-7.549-13.981-13.448-22.639-17.264 5.229-5.657 8.432-13.213 8.432-21.506 0-17.489-14.229-31.717-31.717-31.717s-31.717 14.228-31.717 31.717c0 8.223 3.147 15.724 8.298 21.365-8.772 3.769-16.566 9.634-22.664 17.153-5.785-8.733-9.166-19.191-9.166-30.429.002-30.465 24.786-55.25 55.251-55.25zm8.541 109.836c-15.833 2.438-32.322-2.218-44.515-12.707 7.828-10.856 20.17-17.64 33.633-18.349 1.559.127 3.118.127 4.678 0 13.252.71 25.322 7.426 33.454 18.507-7.595 6.478-16.952 10.945-27.25 12.549zm-25.259-62.676c0-9.218 7.499-16.717 16.717-16.717s16.717 7.499 16.717 16.717c0 8.541-6.443 15.595-14.722 16.586-.663-.023-1.328-.035-1.995-.035-.669 0-1.337.012-2.003.034-8.275-.995-14.714-8.047-14.714-16.585z"/></g></g></svg>