<?xml version="1.0" encoding="utf-8"?>
<!-- Generator: Adobe Illustrator 24.3.0, SVG Export Plug-In . SVG Version: 6.00 Build 0)  -->
<svg version="1.1" id="cleaner" xmlns="http://www.w3.org/2000/svg" xmlns:xlink="http://www.w3.org/1999/xlink" x="0px" y="0px"
	 viewBox="0 0 340 340" style="enable-background:new 0 0 340 340;" xml:space="preserve">
<style type="text/css">
	.st0{fill:#F7F5FC;}
	.st1{fill:#D0CDE2;}
	.st2{fill:#FFC998;}
	.st3{fill:#FFD1BD;}
	.st4{fill:#FCA490;}
	.st5{fill:#F49D70;}
	.st6{fill:#A1C8FF;}
	.st7{fill:#FCFCFC;}
	.st8{fill:#79A8E2;}
	.st9{fill:#FFA82C;}
	.st10{fill:#4D5663;}
	.st11{fill:#FFC45F;}
	.st12{fill:#2F2635;}
</style>
<path class="st0" d="M217.8,43.5c-0.3,4.5,1.1,8.9,3.9,12.4c0,0-24.1,48.6-1,73.7c3.2,3.4,8.6,3.5,12,0.3c0.1-0.1,0.1-0.1,0.2-0.2
	c1.2-1.2,2.3-2.5,3.4-3.8c0.8,1,1.7,2,2.6,2.8c10.8,9.8,27.5,9.1,37.5-1.5l3.4-3.5c0,0,2.6,9.3,14.8,13.2c6,1.8,12.4-1.1,15.1-6.7
	l1.2-2.4c3.2,3.8,7.2,6.7,11.8,8.5c5.1,1.9,10.8-0.7,12.7-5.8c0.9-2.5,0.8-5.2-0.3-7.6c-0.3-0.7-0.7-1.3-1-1.9
	c-1.7-2.8-3.1-5.7-4.1-8.8c-2.8-9.4-6.7-28.7-1.5-53.4c0.4-1.8,1.1-3.6,2.1-5.1c1.8-2.6,2.9-5.6,3.1-8.8c0.1-5.8-4.4-10.6-10.2-10.7
	c-0.1,0-0.3,0-0.4,0h-94.7C222.9,34,218.3,38.1,217.8,43.5z"/>
<path class="st1" d="M310.1,112.6c-0.5-0.8-1.5-1-2.2-0.5c-0.4,0.2-0.7,0.7-0.7,1.1c-0.4,2.7-1.1,5.4-2.3,7.9
	c-1.7,3.7-6,5.3-9.8,3.8l-0.1,0c-2.7-1.1-4.5-3.7-4.6-6.5l-3.5-56.9h15.4c5.1,0,10.2-0.9,15-2.7c1.4-0.5,1.1-2.9-0.4-2.9h-82.2
	c-1.4,0-1.7,2.3-0.4,2.8l1.2,0.4c4.6,1.6,9.4,2.5,14.3,2.5h27.3l-1,41.6c-0.2-0.4-0.2-0.7-0.2-0.7l0.2,2.5l-0.2,9.6
	c-1.5,4.9-5.6,8.6-10.6,9.7c-17.9,3.6-27-12.3-30.3-19.8c-0.4-0.8-1.3-1.2-2.1-0.8c-0.4,0.2-0.7,0.5-0.9,0.9
	c-1.2,3.7-2,7.5-2.4,11.4c-0.3,2.3-2.4,4-4.7,3.8c-0.5-0.1-1-0.2-1.5-0.4c-7.6-3.8-11.1-11.1-12.8-17c0.3,9.9,3,19.6,9.9,27.2
	c3.2,3.4,8.5,3.6,12,0.5c0.1-0.1,0.2-0.2,0.3-0.3c1.2-1.2,2.4-2.5,3.5-3.9c0.8,1,1.7,2,2.6,2.8c10.8,9.8,27.5,9.1,37.5-1.5l3.4-3.5
	c0,0,2.6,9.3,14.8,13.2c6,1.8,12.4-1.1,15.1-6.7l1.2-2.4c3.2,3.8,7.2,6.7,11.8,8.5c5.1,1.9,10.9-0.7,12.8-5.9
	c0.3-0.9,0.5-1.9,0.6-2.8C324.7,133.2,314.6,119.9,310.1,112.6z"/>
<rect x="267.9" y="55.9" class="st2" width="14.5" height="280.1"/>
<path class="st3" d="M191.6,216l12.2,21.7c2.1,3.8,6.6,5.6,10.8,4.3l16.1-4.9v27.2l-19,10.8c-8,4.5-18.1,2.5-23.6-4.8l-31.3-41
	L191.6,216z M39.9,203.2l-28.5,41.5c-5.8,8.4-4.2,19.8,3.6,26.4l16.7,14.1l19.6-21.1l-3.7-5.3c-2.9-4.2-2.5-9.8,0.9-13.6l20.2-22.3
	L39.9,203.2z"/>
<polygon class="st4" points="39.9,203.2 31.9,214.9 54,239.4 68.7,223.1 "/>
<polygon class="st5" points="267.8,277.6 282.3,283.5 282.3,217.7 275.1,216.5 267.8,220.2 "/>
<path class="st4" d="M191.6,216l-35,13.4l17.9,23.5c6.2-5.2,6.4-14.2,6.4-14.2l17.5-10.5L191.6,216z"/>
<path class="st6" d="M21.8,280.1c5.3-6.5,14.2-15.9,24.1-21.2c5-2.7,11.2-1.8,15.4,2.1c9,8.6,17.2,18,24.5,28.2V336h-18
	c-8.4,0-15.6-5.9-17.3-14.1l0,0c-0.8-3.8-0.3-7.7,1.4-11.2l3.3-6.9c0,0-14.2-2.2-31.4-12c-3.7-2.2-5-6.9-2.8-10.6
	C21.3,280.8,21.5,280.5,21.8,280.1z"/>
<path class="st7" d="M172.9,169.9c-6.1-8.9-16.2-14.2-27.1-14.2h-56c-10.8,0-20.9,5.3-27.1,14.2l-27.1,39.5l45.6,31.9h78.3l43.5-28
	L172.9,169.9z"/>
<path class="st8" d="M85.8,336v-46.7c-3.7-5.2-7.6-10.1-11.8-14.9v41c0,0,0,17.3-17.8,16.2c3.2,2.8,7.4,4.4,11.7,4.4H85.8z"/>
<path class="st3" d="M107.4,126.3H138l0,0v28.4c0,8.5-6.9,15.3-15.3,15.3l0,0c-8.5,0-15.3-6.9-15.3-15.3c0,0,0,0,0,0V126.3
	L107.4,126.3z"/>
<path class="st6" d="M157.8,200.2V158c0-4-3.2-7.2-7.2-7.2H138v34.1c0,8.5-6.9,15.3-15.3,15.3l0,0c-8.5,0-15.3-6.9-15.3-15.3
	c0,0,0,0,0,0v-34.1H94.8c-4,0-7.2,3.2-7.2,7.2c0,0,0,0,0,0v42.2c0,0-25.9,24.9-6.3,51.2V336h82.8v-84.6
	C183.7,225.1,157.8,200.2,157.8,200.2z M219.9,239.9l3.9,29.2c0.5,3.5,3.7,6,7.3,5.6c1.2-0.2,2.3-0.6,3.2-1.3l43-34.2l-3.4-29.9
	c0,0-22.1,12.2-45,17.7C222.9,228.3,219.1,233.9,219.9,239.9z"/>
<path class="st8" d="M246.3,221.5c-0.8,6.4,2.2,13.2,8.8,14c0.7,5.8,3.4,11.2,7.6,15.2l14.6-11.6l-3.4-29.9
	C273.8,209.2,264.6,214.6,246.3,221.5z"/>
<polygon class="st4" points="107.4,151.4 138,145.9 138,126.3 107.4,126.3 "/>
<path class="st4" d="M82.8,91.4h11l0,0v28.1l0,0h-11c-7.8,0-14-6.3-14-14c0,0,0,0,0,0l0,0C68.7,97.7,75,91.4,82.8,91.4z"/>
<path class="st4" d="M162.6,119.5h-11l0,0V91.4l0,0h11c7.8,0,14,6.3,14,14v0l0,0C176.7,113.2,170.4,119.5,162.6,119.5L162.6,119.5z"
	/>
<path class="st9" d="M91.2,22c0,0-0.3-0.5-0.8-1.4C78.2,1.9,50.4,2.7,39.2,22c-4.1,6.9-7.6,16.8-8.6,30.7l-2.4,33.4
	c0,0-0.3,6.8-4.2,10.7c-0.8,0.8-0.8,2,0,2.8c0.3,0.3,0.8,0.6,1.3,0.6c11.6,0.7,36.6-2.8,47-42.6L91.2,22z"/>
<circle class="st10" cx="72.6" cy="40.1" r="15"/>
<circle class="st11" cx="122.7" cy="56.2" r="52"/>
<path class="st3" d="M112.6,40.1c0,0,8.2,39.1,38.8,45.2c4.7,0.9,8.2,5,8.2,9.8v7.1c0,20.4-16.5,36.9-36.9,36.9l0,0
	c-20.4,0-36.9-16.5-36.9-36.9V78.1C85.8,78.1,86.3,51.8,112.6,40.1z"/>
<path class="st6" d="M279.8,197L279.8,197c-5,0-9.7,2.4-12.6,6.5c-3.5-4.6-10-5.4-14.6-2c-2.6,2-4.1,5-4.1,8.3v6.3
	c0,5.7,4.6,10.4,10.4,10.4c1.9,0,3.7-0.5,5.4-1.5v7.6c0,8.6,7,15.6,15.6,15.6l0,0l0,0c8.6,0,15.6-7,15.6-15.6l0,0v-20
	C295.4,204,288.4,197,279.8,197L279.8,197z"/>
<polygon class="st5" points="282.3,85.3 282.3,55.9 267.8,55.9 267.8,80 "/>
<path class="st12" d="M337.6,118.8c-1.6-2.5-2.8-5.1-3.7-7.9c-2.7-9-6.5-27.6-1.4-51.3c0.3-1.3,0.8-2.6,1.5-3.7
	c2.2-3.2,3.6-7,3.8-10.9c0.2-3.9-1.3-7.7-4-10.5c-2.8-2.9-6.7-4.6-10.8-4.6h-94.7c-7.6,0-13.9,5.8-14.7,13.3
	c-0.4,4.6,0.8,9.2,3.3,13.1c-4.6,10.2-21.4,52.1,0.7,76.1c2.3,2.5,5.5,3.9,8.9,4c3.5,0.1,6.8-1.3,9.3-3.7c0.2-0.2,0.4-0.4,0.6-0.6
	c4.7,4.3,10.7,6.9,17.1,7.6c2.3,0.2,4.3-1.4,4.6-3.7c0.2-2.3-1.4-4.3-3.7-4.6l0,0c-4.7-0.5-9.1-2.5-12.6-5.7
	c-0.7-0.6-1.3-1.2-1.9-1.9c-2.6-5.9-4.1-12.2-4.6-18.6c-0.2-2.3-2.2-4-4.5-3.8c-2.2,0.2-3.9,2.1-3.8,4.4c0.4,6.7,1.9,13.2,4.4,19.4
	c-0.5,0.6-1,1.1-1.5,1.6c-0.8,0.8-2,1.3-3.2,1.3h-0.1c-1.1,0-2.2-0.5-3-1.3c-18.2-19.7-3.6-57.1,0.6-66.7H237c2.3,0,4.1-1.9,4.1-4.1
	s-1.9-4.1-4.1-4.1h-13.1c-1.5-2.3-2.2-5.1-2-7.8c0.3-3.3,3.1-5.8,6.4-5.7h94.7c1.8,0,3.5,0.7,4.8,2c1.1,1.2,1.7,2.7,1.7,4.4
	c-0.2,2.4-1,4.7-2.4,6.7c-0.1,0.2-0.2,0.3-0.3,0.5h-8c-2.3,0-4.1,1.9-4.1,4.1s1.9,4.1,4.1,4.1h5.2c-4.7,24.5-0.8,43.8,2.1,53.3
	c1.1,3.4,2.6,6.7,4.5,9.8c0.3,0.5,0.6,1,0.8,1.5c1.3,2.9,0,6.3-2.9,7.6c-1.4,0.6-2.9,0.7-4.4,0.2c-3.9-1.6-7.3-4-10-7.2c0,0,0,0,0,0
	c0,0,0,0,0,0c-5.4-6.7-8.7-16.3-9.9-28.7c-0.2-2.3-2.2-4-4.5-3.7c-2.3,0.2-4,2.2-3.7,4.5c1.2,12.8,4.6,23.2,10.1,31l-0.1,0.2
	c-1.8,3.8-6,5.7-10.1,4.6c-3.6-1.1-6.9-3.1-9.4-6V60h11.2c-0.6,3.7-1.5,9.3-1.9,15.8c-0.2,2.3,1.6,4.3,3.8,4.4c0.1,0,0.2,0,0.3,0
	c2.2,0,4-1.7,4.1-3.9c0.5-6.6,1.4-13.2,2.7-19.6c0.5-2.2-0.9-4.5-3.1-5c-0.3-0.1-0.6-0.1-0.9-0.1h-20.4c-2.3,0-4.1,1.9-4.1,4.1
	v129.8c0,2.3,1.9,4.1,4.1,4.1s4.1-1.9,4.1-4.1v-48c2.2,1.3,4.5,2.4,6.9,3.1c1.6,0.5,3.2,0.8,4.9,0.8c5.4,0,10.5-2.6,13.6-7
	c2.8,2.4,5.9,4.2,9.3,5.6c7.3,2.7,15.4-0.9,18.1-8.2c1.3-3.5,1.2-7.5-0.4-10.9C338.5,120.3,338.1,119.5,337.6,118.8z"/>
<path class="st12" d="M12.3,274.3l5.3,4.5c-1.6,2.5-2.1,5.5-1.6,8.5c0.6,3.4,2.7,6.4,5.8,8.1c8.6,5,17.8,8.8,27.4,11.3l-1,2.1
	c-2,4.3-2.6,9.1-1.7,13.8c1.9,9.4,9.7,16.4,19.2,17.3c0.1,0,0.3,0,0.4,0c2.3,0,4.1-1.9,4.1-4.2c0-2.1-1.6-3.9-3.7-4.1
	c-5.9-0.6-10.7-4.9-11.9-10.7c-0.6-2.9-0.2-5.9,1.1-8.5l3.3-6.9c1-2.1,0.1-4.5-1.9-5.5c-0.4-0.2-0.8-0.3-1.2-0.4
	c-0.1,0-13.6-2.2-29.9-11.5c-0.9-0.5-1.5-1.4-1.7-2.4c-0.2-1.1,0.1-2.2,0.8-3c0.5-0.6,1-1.2,1.5-1.8l0,0l0,0
	c5.3-6.2,12.9-13.9,21.3-18.3c3.5-1.9,7.7-1.3,10.5,1.4c6.7,6.4,13,13.3,18.8,20.5V336c0,2.3,1.9,4.1,4.1,4.1h82.9
	c2.3,0,4.1-1.9,4.1-4.1v-83.3c15.2-21.7,3.2-44.1-6.3-54.2v-33.8c3,2,5.6,4.6,7.6,7.5l27.8,39.9l-15.1,9.7c-1.9,1.2-2.5,3.8-1.2,5.7
	c1.2,1.9,3.8,2.5,5.7,1.2l5.4-3.5l8.1,14.4c2.4,4.2,6.9,6.8,11.7,6.8c1.3,0,2.6-0.2,3.9-0.6l0.7-0.2l2.7,20.3l-9.6,5.4
	c-6.2,3.5-14,1.9-18.3-3.7l-10-13.1c-1.4-1.8-4-2.2-5.8-0.8c-1.8,1.4-2.2,4-0.8,5.8l10,13c6.8,8.9,19.2,11.4,29,5.9l7.8-4.4
	c1.2,1.7,2.8,3,4.7,3.7c1.3,0.5,2.6,0.8,4,0.8c2.4,0,4.7-0.8,6.6-2.3l20.1-16c1.8-1.4,2.1-4,0.7-5.8c-1.4-1.8-4-2.1-5.8-0.7
	c0,0,0,0-0.1,0l-20.1,16c-1,0.8-2.5,0.6-3.3-0.4c-0.3-0.3-0.4-0.7-0.5-1.1l-3.9-29.2c-0.5-3.9,2-7.6,5.8-8.5
	c6.1-1.5,12.1-3.3,17.9-5.5c2.8,3.3,6.9,5.3,11.2,5.3c0.4,0,0.8,0,1.2-0.1v2.1c0,4.1,1.3,8,3.6,11.4V336c0,2.3,1.9,4.1,4.1,4.1h14.5
	c2.3,0,4.1-1.9,4.1-4.1v-84.7c7.8-2.8,13.1-10.2,13.1-18.6v-20c0-10.9-8.8-19.7-19.7-19.7c-2.7,0-5.4,0.5-7.8,1.6V55.9
	c0-2.3-1.9-4.1-4.1-4.1H254c-1.7,0-3.2,1-3.9,2.6c-0.3,0.8-7.8,20.4-2.3,39.3c0.6,2.2,3,3.5,5.2,2.8c2.2-0.6,3.5-3,2.8-5.2
	c-3.7-12.5-0.5-25.8,1.1-31.3h6.7v136.1c-7.6-2.6-15.9,1.4-18.5,9c-0.5,1.5-0.8,3.2-0.8,4.8v6.3c0,0.5,0,1.1,0.1,1.6
	c-5.4,2-11,3.7-16.6,5.1c-6.9,1.6-11.8,7.6-12.2,14.6l-2.3,0.7c-2.3,0.7-4.8-0.3-5.9-2.4l-8.3-14.9l6.3-4.1c1.9-1.2,2.5-3.8,1.2-5.7
	c0,0-0.1-0.1-0.1-0.1l-30.2-43.4c-3.7-5.4-8.9-9.8-14.8-12.6c-1.4-4.9-5.8-8.3-10.9-8.3h-8.4v-8.2c13.3-7.2,21.6-21,21.6-36.1v-6.8
	c5.4,0.6,9.3,5.6,8.7,11c-0.4,3.5-2.7,6.6-6,8c-2.1,0.9-3.1,3.3-2.2,5.4c0.9,2.1,3.3,3.1,5.4,2.2c9.3-3.9,13.6-14.6,9.7-23.9
	c-2.8-6.7-9.4-11.1-16.7-11.1h-1.4c-2.1-3.1-5.4-5.2-9.1-5.9c-27.5-5.5-35.5-41.6-35.5-42c-0.5-2.2-2.7-3.7-4.9-3.2
	c-0.3,0.1-0.6,0.1-0.8,0.3C82.5,48.9,81.7,76.8,81.6,78.1v2.7c-13.5-22.7-6.1-52,16.5-65.6s52-6.1,65.6,16.5c7.8,13,8.9,29,3,43
	c-0.9,2.1,0.1,4.5,2.2,5.4c2.1,0.9,4.5-0.1,5.4-2.2c12-28.6-1.4-61.5-29.9-73.5c-18.7-7.9-40.1-5-56.2,7.4
	c-14-12.8-35.7-11.8-48.5,2.2c-1.6,1.8-3.1,3.7-4.3,5.8c-5.1,8.8-8.2,19.7-9.1,32.5l-2.4,33.4c0,0,0,0.1,0,0.1
	c0,0.1-0.5,8.4-5.6,9.3c-2.3,0.4-3.7,2.6-3.3,4.8c0.3,1.6,1.4,2.8,3,3.2c3.1,0.7,6.2,1,9.3,1c10.5,0,27.7-3.5,39.7-23.4
	c1.2-1.9,0.6-4.5-1.3-5.7c-1.9-1.2-4.5-0.6-5.7,1.3c0,0,0,0,0,0.1C50.8,92,38.2,95.6,29.7,96c1.6-3,2.5-6.3,2.7-9.8L34.7,53
	c0.8-11.5,3.5-21.2,8-28.9C50,11.7,66,7.5,78.4,14.8c1.3,0.8,2.6,1.7,3.8,2.7c-1.3,1.4-2.6,2.9-3.8,4.4
	c-10.1-3.2-20.9,2.3-24.1,12.4s2.3,20.9,12.4,24.1c0.4,10.8,3.9,21.2,10,30c-9.5,3.4-14.4,13.8-11,23.3c2.6,7.2,9.4,12.1,17.1,12
	h4.8c3.8,6.3,9.2,11.4,15.6,14.9v8.2h-8.4c-3.8,0-7.4,1.9-9.4,5.1c-10.5,1.3-19.9,7.1-25.9,15.8L32.3,207L8,242.4
	C1,252.6,2.9,266.4,12.3,274.3z M278.2,331.8H272v-81c2,0.8,4,1.4,6.2,1.5V331.8z M268.4,212.6c0.1-6.3,5.2-11.4,11.5-11.3
	c6.2,0.1,11.3,5.1,11.3,11.3v20c0.1,6.3-5,11.5-11.3,11.5c-6.3,0.1-11.5-5-11.5-11.3c0-0.1,0-0.1,0-0.2V212.6z M252.7,209.8
	c0-3.4,2.8-6.2,6.2-6.3c1.1,0,2.1,0.3,3,0.8c-1.2,2.6-1.8,5.4-1.8,8.3v9.6c-3.4,0.7-6.6-1.5-7.3-4.8c-0.1-0.4-0.1-0.9-0.1-1.3V209.8
	z M67,49.4c-5.1-3.1-6.8-9.8-3.7-14.9c2-3.3,5.5-5.2,9.3-5.2c0.3,0,0.6,0,0.8,0C70,35.6,67.9,42.4,67,49.4z M82.8,115.3
	c-5.5,0-9.9-4.4-9.9-9.9c0-5,3.8-9.3,8.8-9.8v6.7c0,4.4,0.7,8.8,2.1,13H82.8z M77.1,271.7c-4.9-5.5-9.5-10.2-13-13.6
	c-3.8-3.7-9-5.4-14.2-4.7c-0.2-1.9,0.4-3.8,1.7-5.3l12.5-13.8l6.8,4.7c1.2,4.9,3.3,9.5,6.3,13.6L77.1,271.7z M89.9,102.3V78.2
	c0.9-13.3,8.4-25.3,20-32c3.5,11.4,14.4,38.1,40.7,43.3c2.8,0.5,4.9,2.9,4.9,5.8v7.1c0,18.1-14.7,32.8-32.8,32.8
	S89.9,120.4,89.9,102.3L89.9,102.3z M122.7,165.8c-6.2,0-11.2-5-11.2-11.2v-12.8c7.3,2.1,15,2.1,22.3,0v12.8
	C133.9,160.8,128.9,165.8,122.7,165.8z M133.9,170.6v14.3c-0.1,6.2-5.1,11.1-11.3,11.1c-6.1-0.1-11-5-11.1-11.1v-14.3
	C118.2,175.3,127.2,175.3,133.9,170.6z M90.5,203.2c0.8-0.8,1.3-1.9,1.3-3V158c0-1.7,1.4-3,3-3h8.4v29.9
	c0.1,10.8,8.9,19.4,19.6,19.3c10.6-0.1,19.3-8.7,19.3-19.3v-29.9h8.4c1.7,0,3,1.4,3,3v42.2c0,1.1,0.5,2.2,1.3,3
	c0.9,0.9,23,22.8,5.9,45.7l0,0c-2.3,2.7-5.7,4.3-9.2,4.4c-2.3,0-4.1,1.9-4.1,4.2c0,2.3,1.9,4.1,4.1,4.1c2.9,0,5.8-0.6,8.4-1.9v72.2
	H85.4v-72.4c3.8,1.5,7.9,2.2,12.1,2.2c2.3,0,4.1-1.9,4.1-4.1s-1.9-4.1-4.1-4.1c-9.7,0-12.6-4-12.7-4.1l0.1,0.1l0,0
	c-0.1-0.1-0.1-0.2-0.2-0.4C67.5,225.9,89.6,204.1,90.5,203.2z M66.3,172.2c4.1-5.9,10.2-10.1,17.2-11.7v38
	c-5.9,6.2-12.8,17.2-13.5,29.8l-28.5-19.9L66.3,172.2z M14.9,247.1l21.9-31.9l20.5,14.4l-11.8,13c-3.4,3.7-4.7,8.9-3.5,13.8
	c-7.3,4.3-13.9,10.5-19,16.1l-5.3-4.5C11.5,262.8,10.3,253.8,14.9,247.1z"/>
</svg>
