<?xml version="1.0" encoding="utf-8"?>
<!-- Generator: Adobe Illustrator 24.3.0, SVG Export Plug-In . SVG Version: 6.00 Build 0)  -->
<svg version="1.1" id="delivery" xmlns="http://www.w3.org/2000/svg" xmlns:xlink="http://www.w3.org/1999/xlink" x="0px" y="0px"
	 viewBox="0 0 200 200" style="enable-background:new 0 0 200 200;" xml:space="preserve">
<style type="text/css">
	.st0{fill:#59BFC1;}
	.st1{fill:#FC785E;}
	.st2{fill:#2D4356;}
	.st3{fill:#E1EBF4;}
	.st4{fill:#FFDB80;}
	.st5{fill:#D68751;}
	.st6{opacity:0.3;fill:#D6F2F2;enable-background:new    ;}
	.st7{opacity:0.5;fill:#9FA5AA;enable-background:new    ;}
	.st8{opacity:0.5;fill:#FFFFFF;enable-background:new    ;}
	.st9{opacity:0.45;fill:#AD9359;enable-background:new    ;}
	.st10{opacity:0.3;fill:#E5D0C3;enable-background:new    ;}
	.st11{opacity:0.5;fill:#F9EDD2;enable-background:new    ;}
	.st12{opacity:0.4;fill:#72492D;enable-background:new    ;}
	.st13{opacity:0.5;fill:#A54B3F;enable-background:new    ;}
	.st14{opacity:0.3;fill:#18665C;enable-background:new    ;}
</style>
<path class="st0" d="M23.1,170h50.1l2,5.6h76.4c18.8-20.1,39.8-5.5,39.8-5.5l4.4-2.6c-3.9-25.7-26-22.1-26-22.1s-2.7,5.2,2-17.3
	s-9.6-42.3-9.6-42.3l10-2.6l0.9-17.1l-3.9-6.6l-15.8,7.3c0.1,0,0.1,0.1,0.1,0.1c4,7.5,1.1,16.8-6.4,20.8l5.1,50.7l-14.3,21.5h-26.8
	c0,0-17,2.4-20.1-11.7c-3.1-14,12.3-18.7,12.3-18.7V121c0,0-35.5,2.3-35.5,0s-25,0-25,0v8.7C19,148.7,23,170,23.1,170z"/>
<path class="st1" d="M66.7,95.6l1.8,9.6h44.7v41.4l8.8,8l6.1-6.2l1-53.1l-24.8-9.4l8-27.9l27.8,22.1l6.2-7.6l-27-27.1
	c-10.4,5.7-23.5,3.2-31.1-6L66.7,95.6z"/>
<path class="st2" d="M88.7,23.4c0,10.3,8.4,18.7,18.7,18.7s18.7-8.4,18.7-18.7s-8.3-18.7-18.7-18.7C97.1,4.7,88.7,13.1,88.7,23.4z
	 M94.9,23.4c0-6.9,5.6-12.5,12.5-12.5s12.5,5.6,12.5,12.5s-5.6,12.5-12.5,12.5S94.9,30.3,94.9,23.4z"/>
<path class="st3" d="M107.4,10.9c6.9,0,12.5,5.6,12.5,12.5s-5.6,12.5-12.5,12.5s-12.5-5.6-12.5-12.5S100.5,10.9,107.4,10.9z"/>
<path class="st2" d="M0,112.8l0,9.4c0,1.7,1.4,3.1,3.1,3.1h38.2l-0.3,2.6c-2.6,1.6-5.1,3.4-7.4,5.4c-0.3-0.1-0.6-0.1-0.9-0.1H25
	c-5.4,0-10.3,3.6-11.9,8.8l-2.4,7.6c-2,6.5,1.5,13.5,8,15.6c0,0.8,0,1.5,0,2.3l0,0c0,3.4,2.7,6.2,6.2,6.2h1.8
	c-0.2,1-0.3,2.1-0.3,3.1c0,10.3,8.3,18.7,18.7,18.7c10.3,0,18.7-8.3,18.7-18.7c0-1-0.1-2.1-0.3-3.1H70l0,0c0,3.4,2.7,6.2,6.2,6.2
	H150c1.8,0,3.6-0.9,4.8-2.3c0.4-0.4,0.7-0.8,1.1-1.1c0,0.1,0,0.2,0,0.3c0,1.4,0.2,2.8,0.5,4.2c2.3,10.1,12.4,16.3,22.5,14
	c10.1-2.3,16.3-12.4,14-22.5c0.2,0,0.3,0,0.5,0c1.5,0,3-0.5,4.1-1.5c1.8-1.5,2.5-3.9,2-6.2c-2-8.3-9.5-22.3-25-22.3
	c-0.4,0-0.7,0-1,0c2.8-12.2,4.7-32.6-6.3-53.4c5.1-0.3,9-4.4,9-9.4V67.2c0-2.5-1-4.9-2.9-6.7c-3-2.9-7.4-3.4-11-1.5l-10.4,5.6
	c1.3,1.7,2.3,3.6,2.8,5.6l10.6-5.7c0.5-0.3,1-0.4,1.5-0.4c1.7,0,3.1,1.4,3.1,3.1v12.6c0,1.7-1.4,3.1-3.1,3.1h-11
	c24.4,32.5,8.4,68.2,8.4,68.2c0.8-0.4,1.6-0.7,2.5-1c2.5-0.9,5.1-1.4,7.7-1.4c14.7,0,18.9,17.5,18.9,17.5
	c-5.5-2.3-11.5-3.5-17.5-3.6c-9.8-0.2-19.2,3.8-25.9,10.9H76.2v-6.2H24.6c-0.2-15.1,8.3-29,21.9-35.6l0.8-6.6h53.9
	c-7.9,3.8-12.8,11.9-12.5,20.6c0,15.4,14.1,16.9,14.1,16.9h35.9l15.6-21.6l-5.9-54c-2.3,1.5-5,2.4-7.8,2.6c0.6,0.2,1.2,0.2,1.8,0.3
	l5.4,49.4l-12.3,17h-32.3c-2.2-0.4-8.2-2.2-8.2-10.7c0-10.7,7.8-14.5,8.6-14.8c0.3-0.1,0.6-0.3,0.8-0.4v-6.3
	c0.6-0.3,1.1-0.8,1.6-1.3c0.1-0.2,2.1-2.6,4.6-5.5v28c0,6,4.9,10.9,10.9,10.9s10.9-4.9,10.9-10.9V96.9c0-2.7-1.7-5-4.2-5.9
	l-21.6-7.4l7.1-19.6l20.1,17.2c3.6,3.1,9,2.8,12.4-0.5c3.6-3.6,3.7-9.4,0.1-13l-23.7-24.2c-1.8,1.3-3.9,2.5-6,3.3l0.6,0.2L142,72.2
	c1.1,1.1,1.1,2.9,0.1,4l0,0c-0.6,0.6-1.4,1-2.2,1c-0.7,0-1.4-0.3-1.9-0.7l-27.1-23l-12.3,34l27.6,9.4v48.5c0,2.6-2.1,4.7-4.7,4.7
	s-4.7-2.1-4.7-4.7v-42.2H71.2v-4.7l18.6-57.1c-1.6-1.5-3-3.3-4.1-5.2c-0.7,0.7-1.3,1.5-1.6,2.5L65.3,96.5c-0.2,0.6-0.3,1.2-0.3,1.9
	v4.7c0,1.1,0.3,2.2,0.9,3.1c-0.6,0.9-0.9,2-0.9,3.1v9.4h-6.2V65.6l0,0c0-3.4-2.7-6.2-6.2-6.2H18.2l0,0c-3.4,0-6.2,2.7-6.2,6.2v53.1
	H5.8v-6.2c0-1.7-1.4-3.1-3.1-3.1C1,109.4-0.4,110.8,0,112.8z M71.5,109.3H109c-3.6,4.5-7.8,9.4-7.8,9.4H71.5V109.3z M169.5,188
	c-6.3-2.8-9.1-10.2-6.3-16.5c3.9-1.8,8.2-2.7,12.6-2.7c3.2,0.1,6.3,0.5,9.4,1.3c1.3,2,1.9,4.3,1.9,6.6c0,6.8-5.6,12.4-12.5,12.4
	C172.8,189.1,171.1,188.7,169.5,188z M44.9,189.1c-6.9,0-12.5-5.6-12.5-12.5c0-1,0.1-2.1,0.4-3.1H57c0.3,1,0.4,2,0.4,3.1l0,0
	C57.4,183.5,51.8,189.1,44.9,189.1L44.9,189.1z M27.4,139.2c-4.3,5.6-7.2,12.2-8.4,19.2c-2.4-1.5-3.5-4.5-2.7-7.2l2.4-7.6
	c0.8-2.6,3.3-4.4,6-4.4H27.4z M40.2,75h-9.4v-9.4h9.4V75z M18.6,118.7V65.6h6.2V75l0,0c0,3.4,2.7,6.2,6.2,6.2h9.4l0,0
	c3.4,0,6.2-2.7,6.2-6.2v-9.4h6.2v53.1H18.4H18.6z"/>
<path class="st1" d="M16.3,151.2l2.4-7.6c0.8-2.6,3.3-4.4,6-4.4h2.8c-4.3,5.6-7.2,12.2-8.4,19.2C16.7,156.9,15.5,153.9,16.3,151.2z"
	/>
<path class="st2" d="M69.7,83.8h6.6l13.8-42.4c-1.6-1.5-3-3.3-4.1-5.2c-0.7,0.7-1.3,1.5-1.6,2.5l-14.7,45V83.8z"/>
<path class="st3" d="M109,109.4c-3.6,4.5-7.8,9.4-7.8,9.4H71.5v-9.4H109z"/>
<path class="st4" d="M40.2,75h-9.4v-9.4h9.4V75z"/>
<path class="st5" d="M24.8,65.6V75l0,0c0,3.4,2.7,6.2,6.2,6.2h9.4l0,0c3.4,0,6.2-2.7,6.2-6.2v-9.4h6.2v53.1H18.4V65.6H24.8z
	 M32.8,173.5H57c0.3,1,0.4,2,0.4,3.1c0,6.9-5.6,12.5-12.5,12.5s-12.5-5.6-12.5-12.5C32.4,175.5,32.6,174.5,32.8,173.5z M163.2,171.4
	c3.9-1.8,8.2-2.7,12.6-2.7c3.2,0.1,6.3,0.5,9.4,1.3c1.3,2,1.9,4.3,1.9,6.6c0,6.9-5.6,12.5-12.5,12.5c-6.9,0-12.5-5.6-12.5-12.5
	C162.1,174.8,162.5,173.1,163.2,171.4z"/>
<path class="st6" d="M154.7,70.1l10.6-5.7c0.5-0.3,1-0.4,1.5-0.4c1.7,0,3.1,1.4,3.1,3.1v3.1c0-1.7-1.4-3.1-3.1-3.1
	c-0.5,0-1,0.2-1.5,0.4L155.2,73L154.7,70.1z M165.5,150.5c0.4-0.1,0.8-0.3,1.2-0.4c2.5-0.9,5.1-1.4,7.7-1.4
	c14.7,0,18.9,17.5,18.9,17.5c-0.4-0.2-0.8-0.4-1.2-0.5c-2.1-5.1-7.3-13.9-17.7-13.9c-2.6,0-5.2,0.5-7.7,1.4c-0.9,0.3-1.7,0.7-2.5,1
	C164.2,154.2,164.8,152.9,165.5,150.5z"/>
<path class="st7" d="M95,21.8c0.7,5.6,5.1,10.1,10.8,10.8c6.9,0.9,13.1-3.9,14-10.8c0.1,0.6,0.1,1.1,0.1,1.6
	c0,6.9-5.6,12.5-12.5,12.5s-12.5-5.6-12.5-12.5C94.9,22.9,94.9,22.4,95,21.8z"/>
<path class="st8" d="M107.4,10.9c6.9,0,12.5,5.6,12.5,12.5c0,0.6,0,1.1-0.1,1.6c-0.7-5.7-5.2-10.1-10.8-10.8
	c-6.9-0.9-13.1,3.9-14,10.8c-0.1-0.6-0.1-1.1-0.1-1.6C94.9,16.5,100.5,10.9,107.4,10.9z"/>
<path class="st9" d="M40.2,75h-9.4v-3.1h9.4V75z"/>
<path class="st10" d="M52.7,68.7h-6.2v-3.1h6.2V68.7z M24.6,68.7h-6.2v-3.1h6.2V68.7z"/>
<path class="st11" d="M40.2,68.7h-9.4v-3.1h9.4V68.7z"/>
<path class="st12" d="M52.7,118.7H18.3v-3.1h34.4V118.7z"/>
<path class="st13" d="M116.8,103.1H71.5V100h45.3V103.1z M121.5,146.9c2.6,0,4.7-2.1,4.7-4.7v3.1c0,2.6-2.1,4.7-4.7,4.7
	s-4.7-2.1-4.7-4.7v-3.1C116.8,144.8,118.9,146.9,121.5,146.9z"/>
<path class="st14" d="M76.2,170.2h73.7c6.7-7.1,16.1-11,25.9-10.9c5.6,0.1,11.1,1.2,16.3,3.2c0.5,1.2,0.9,2.4,1.2,3.6
	c-5.5-2.3-11.5-3.5-17.5-3.6c-9.8-0.2-19.2,3.8-25.9,10.9H76.2V170.2L76.2,170.2z M24.7,164.1h51.5v3.1H24.6
	C24.6,166.1,24.6,165.1,24.7,164.1z"/>
<path class="st12" d="M32.5,175.1c0.7,5.6,5.2,10.1,10.8,10.8c6.9,0.9,13.1-4,14-10.8c0.1,0.5,0.1,1,0.1,1.5
	c0,6.9-5.6,12.5-12.5,12.5s-12.5-5.6-12.5-12.5C32.4,176,32.4,175.5,32.5,175.1z M162.2,175.1c0.7,5.6,5.2,10.1,10.8,10.8
	c6.9,0.9,13.1-4,14-10.8c0.1,0.5,0.1,1,0.1,1.5c0,6.9-5.6,12.5-12.5,12.5c-6.9,0-12.5-5.6-12.5-12.5
	C162.1,176.1,162.1,175.5,162.2,175.1z"/>
</svg>
