<svg xmlns="http://www.w3.org/2000/svg" version="1.1" xmlns:xlink="http://www.w3.org/1999/xlink" width="512" height="512" x="0" y="0" viewBox="0 0 64 64" style="enable-background:new 0 0 512 512" xml:space="preserve" class=""><g><path fill="#2b2e63" d="M54.43 44.43c-1.89-1.04-3.87-1.7-5.35-2.09.83-3.84 3.54-16.97 3.54-23.89 0-4.89-1.7-11.48-6.47-15.32C42.5.18 37.7-.69 31.9.53 26.17-.59 21.46.32 17.91 3.23c-4.81 3.93-6.52 10.93-6.52 16.18 0 6.76 1.9 19.58 2.46 23.23-.58.18-1.19.39-1.81.64-6.02 2.36-9.2 6.39-9.2 11.65v6.11c0 .48.35.89.83.96 9.06 1.33 18.36 2 27.84 2 9.46 0 19.09-.67 28.82-1.99.49-.07.84-.48.84-.96v-6.12c-.01-4.47-2.33-8.1-6.74-10.5zm-41.1-25.02c0-4.8 1.52-11.18 5.8-14.68 3.13-2.56 7.36-3.32 12.58-2.26a.9.9 0 0 0 .4 0c5.3-1.15 9.62-.42 12.83 2.17 4.24 3.41 5.75 9.37 5.75 13.81 0 6.67-2.71 19.81-3.49 23.46-.98-.19-1.62-.26-1.65-.26-.79-.16-1.43-.33-1.99-.52-2.98-.96-3.88-2.39-4.26-4.49 2.72-3 4.46-7.58 4.46-12.72 0-1.05-.07-2.07-.2-3.05a.984.984 0 0 0-.26-.53c-.88-.94-4.23-4.09-10.13-5.29-4.46-.87-6.75-3.58-7.17-4.12a.946.946 0 0 0-.71-.37.965.965 0 0 0-.75.29c-3.03 3.13-4.77 7.9-4.77 13.07 0 5.38 1.92 10.15 4.87 13.13-.42 1.83-1.35 3.18-4.2 4.1l-.34.12h-.03c-.49.14-.99.27-1.54.38-.26.03-1.33.15-2.79.49-.6-3.88-2.41-16.23-2.41-22.73zm12.92 19.02c1.65 1.17 3.53 1.85 5.52 1.85 2.14 0 4.15-.78 5.9-2.13.48 1.58 1.45 3.07 3.63 4.15a9.964 9.964 0 0 1-9.29 6.42c-2.64 0-5.14-1.03-7.02-2.92-1.01-1-1.77-2.2-2.26-3.5 1.77-.88 2.9-2.12 3.52-3.87zm-4.54-14.51c0-4.25 1.27-8.17 3.52-10.93 1.23 1.25 3.68 3.21 7.56 3.97 4.98 1 7.97 3.59 8.89 4.49.09.8.14 1.63.14 2.47 0 7.95-4.51 14.42-10.05 14.42-5.55 0-10.06-6.47-10.06-14.42zM59.22 60.2c-18.73 2.48-37.04 2.48-54.45 0v-5.27c0-4.46 2.68-7.77 7.97-9.85 3.12-1.23 5.98-1.5 6.01-1.5.03-.01.07-.01.1-.02.6-.12 1.15-.25 1.68-.4.04-.01.09-.03.13-.04l.26-.09c.59 1.54 1.5 2.96 2.69 4.14 2.25 2.25 5.23 3.49 8.39 3.49 4.94 0 9.36-3.09 11.09-7.64.59.19 1.27.37 2.17.54.01 0 .98.11 2.45.44h.03c.01 0 .03.01.04.01l.13.03c1.44.34 3.58.98 5.59 2.09 3.8 2.07 5.72 5.03 5.72 8.8z" opacity="1" data-original="#2b2e63" class=""></path><path fill="#d7e9f2" d="M50.68 18.45c0 6.67-2.71 19.81-3.49 23.46-.98-.19-1.62-.26-1.65-.26-.79-.16-1.43-.33-1.99-.52-2.98-.96-3.88-2.39-4.26-4.49 2.72-3 4.46-7.58 4.46-12.72 0-1.05-.07-2.07-.2-3.05a.984.984 0 0 0-.26-.53c-.88-.94-4.23-4.09-10.13-5.29-4.46-.87-6.75-3.58-7.17-4.12a.946.946 0 0 0-.71-.37.965.965 0 0 0-.75.29c-3.03 3.13-4.77 7.9-4.77 13.07 0 5.38 1.92 10.15 4.87 13.13-.42 1.83-1.35 3.18-4.2 4.1l-.34.12h-.03c-.49.14-.99.27-1.54.38-.26.03-1.33.15-2.79.49-.6-3.88-2.41-16.23-2.41-22.73 0-4.8 1.52-11.18 5.8-14.68 3.13-2.56 7.36-3.32 12.58-2.26a.9.9 0 0 0 .4 0c5.3-1.15 9.62-.42 12.83 2.17 4.24 3.41 5.75 9.37 5.75 13.81z" opacity="1" data-original="#d7e9f2" class=""></path><path fill="#51bf9f" d="M59.22 54.93v5.27c-18.73 2.48-37.04 2.48-54.45 0v-5.27c0-4.46 2.68-7.77 7.97-9.85 3.12-1.23 5.98-1.5 6.01-1.5.03-.01.07-.01.1-.02.6-.12 1.15-.25 1.68-.4.04-.01.09-.03.13-.04l.26-.09c.59 1.54 1.5 2.96 2.69 4.14 2.25 2.25 5.23 3.49 8.39 3.49 4.94 0 9.36-3.09 11.09-7.64.59.19 1.27.37 2.17.54.01 0 .98.11 2.45.44h.03c.01 0 .03.01.04.01l.13.03c1.44.34 3.58.98 5.59 2.09 3.8 2.07 5.72 5.03 5.72 8.8z" opacity="1" data-original="#51bf9f" class=""></path><path fill="#f0d39a" d="M41.29 42.3A9.964 9.964 0 0 1 32 48.72c-2.64 0-5.14-1.03-7.02-2.92-1.01-1-1.77-2.2-2.26-3.5 1.77-.88 2.9-2.12 3.52-3.87 1.65 1.17 3.53 1.85 5.52 1.85 2.14 0 4.15-.78 5.9-2.13.48 1.58 1.45 3.07 3.63 4.15z" opacity="1" data-original="#f0d39a"></path><path fill="#ffe5ab" d="M41.81 23.92c0 7.95-4.51 14.42-10.05 14.42-5.55 0-10.06-6.47-10.06-14.42 0-4.25 1.27-8.17 3.52-10.93 1.23 1.25 3.68 3.21 7.56 3.97 4.98 1 7.97 3.59 8.89 4.49.09.8.14 1.63.14 2.47z" opacity="1" data-original="#ffe5ab" class=""></path></g></svg>