<?xml version="1.0" encoding="utf-8"?>
<!-- Generator: Adobe Illustrator 24.3.0, SVG Export Plug-In . SVG Version: 6.00 Build 0)  -->
<svg version="1.1" id="food-delivery" xmlns="http://www.w3.org/2000/svg" xmlns:xlink="http://www.w3.org/1999/xlink" x="0px"
	 y="0px" viewBox="0 0 200 200" style="enable-background:new 0 0 200 200;" xml:space="preserve">
<style type="text/css">
	.st0{fill:#C5DFDC;}
	.st1{fill:#682F2A;}
	.st2{fill:#616B77;}
	.st3{fill:#FFFFFF;}
	.st4{fill:#559AFF;}
	.st5{opacity:0.4;}
	.st6{fill:#FF8C83;}
	.st7{fill:#FECD04;}
	.st8{fill:#6CD8D5;}
	.st9{fill:#ABB734;}
	.st10{fill:#ED2F58;}
	.st11{fill:#FA4968;}
</style>
<g>
	<path class="st0" d="M155.8,70.2h-18.9V56.6c0-2.9,2.2-5,5-5h13.9L155.8,70.2L155.8,70.2z"/>
	<path class="st1" d="M155.8,72.6h-18.9c-1.4,0-2.5-1.1-2.5-2.5V56.6c0-4.2,3.3-7.5,7.5-7.5h13.9c1.4,0,2.5,1.1,2.5,2.5v18.6
		C158.3,71.5,157.2,72.6,155.8,72.6z M139.4,67.7h14V54.1h-11.4c-1.5,0-2.6,1.1-2.6,2.6V67.7z"/>
</g>
<g>
	<circle class="st2" cx="42.7" cy="170.4" r="21.4"/>
	<path class="st1" d="M42.7,194.4c-13.2,0-23.9-10.7-23.9-23.9s10.7-23.9,23.9-23.9c13.2,0,23.9,10.7,23.9,23.9
		S55.8,194.4,42.7,194.4z M42.7,151.5c-10.5,0-19,8.5-19,19c0,10.5,8.5,19,19,19s19-8.5,19-19C61.6,160,53.1,151.5,42.7,151.5z"/>
</g>
<g>
	<ellipse class="st2" cx="177" cy="170.4" rx="21.4" ry="21.4"/>
	<path class="st1" d="M177,194.3c-1.3,0-2.6-0.1-3.8-0.3c-13-2.1-21.9-14.4-19.8-27.4c1-6.3,4.4-11.8,9.6-15.6
		c5.2-3.7,11.5-5.2,17.8-4.2c6.3,1,11.8,4.4,15.6,9.6c3.7,5.2,5.2,11.5,4.2,17.8C198.7,186,188.5,194.3,177,194.3z M176.9,151.4
		c-4,0-7.8,1.2-11.1,3.6c-4.1,3-6.8,7.4-7.6,12.4c-1.7,10.3,5.4,20.1,15.7,21.8c10.3,1.7,20.1-5.4,21.8-15.7c0.8-5-0.4-10-3.3-14.1
		c-3-4.1-7.4-6.8-12.4-7.6C179,151.5,178,151.4,176.9,151.4z"/>
</g>
<g>
	<path class="st3" d="M177,180.2c-5.3,0-9.7-4.4-9.7-9.7c0-5.3,4.4-9.7,9.7-9.7c5.3,0,9.7,4.4,9.7,9.7
		C186.7,175.8,182.4,180.2,177,180.2z M42.7,180.2c-5.3,0-9.7-4.4-9.7-9.7c0-5.3,4.4-9.7,9.7-9.7s9.7,4.4,9.7,9.7
		C52.4,175.8,48,180.2,42.7,180.2z"/>
	<path class="st1" d="M177,182.6c-6.7,0-12.2-5.5-12.2-12.2c0-6.7,5.5-12.2,12.2-12.2c6.7,0,12.2,5.5,12.2,12.2
		C189.2,177.2,183.7,182.6,177,182.6z M177,163.2c-3.9,0-7.3,3.3-7.3,7.3c0,3.9,3.3,7.3,7.3,7.3c4,0,7.3-3.3,7.3-7.3
		C184.2,166.5,180.9,163.2,177,163.2z M42.7,182.6c-6.7,0-12.2-5.5-12.2-12.2c0-6.7,5.5-12.2,12.2-12.2s12.2,5.5,12.2,12.2
		C54.9,177.2,49.4,182.6,42.7,182.6z M42.7,163.2c-3.9,0-7.3,3.3-7.3,7.3c0,3.9,3.3,7.3,7.3,7.3s7.3-3.3,7.3-7.3
		C49.9,166.5,46.6,163.2,42.7,163.2z"/>
</g>
<g>
	<path class="st0" d="M153.9,145.8c-10.1,9.4-10.4,25.6-1,35.6l36.3-34.7C179.8,136.7,164.1,136.4,153.9,145.8z"/>
	<path class="st1" d="M152.9,183.9C152.9,183.9,152.9,183.9,152.9,183.9c-0.7,0-1.3-0.3-1.8-0.8c-5.1-5.4-7.8-12.5-7.5-20
		c0.2-7.4,3.3-14.2,8.6-19.1c0,0,0,0,0,0c11.1-10.4,28.5-9.9,38.8,1c0.9,1,0.9,2.5-0.1,3.5l-36.3,34.7
		C154.2,183.7,153.6,183.9,152.9,183.9z M155.6,147.6c-4.3,4.1-6.8,9.6-7,15.7c-0.2,5.3,1.4,10.4,4.6,14.6l32.6-31.1
		C177.1,139.5,164.1,139.7,155.6,147.6L155.6,147.6z"/>
</g>
<g>
	<path class="st4" d="M27.8,147.4l9.7-25.9h56.2l-7,22c-0.3,0.6-0.3,1.3-0.3,2.2v11.3c0,3.7,3.1,7,7,7h36.9c3.7,0,7-3.1,7-7V62.9
		h8.2l24.6,67.5c0.6,2.2,0.3,4.4-0.6,6.3l-23,33.5c-1.3,1.9-3.4,2.9-5.7,2.9H77.6L27.8,147.4z"/>
	<path class="st1" d="M140.7,175.5H77.6c-0.4,0-0.8-0.1-1.1-0.3l-49.8-25.6c-1.1-0.6-1.6-1.9-1.2-3.1l9.7-25.9
		c0.4-1,1.3-1.6,2.3-1.6h56.2c0.8,0,1.5,0.4,2,1c0.5,0.6,0.6,1.4,0.4,2.2l-7,22c0,0.1-0.1,0.2-0.1,0.4c0,0.1,0,0.7,0,1.1v11.3
		c0,2.4,2.1,4.5,4.5,4.5h36.9c2.4,0,4.5-2.1,4.5-4.5V62.9c0-1.4,1.1-2.5,2.5-2.5h8.2c1,0,2,0.6,2.3,1.6l24.6,67.5
		c0,0.1,0,0.1,0.1,0.2c0.7,2.6,0.5,5.5-0.7,8c-0.1,0.1-0.1,0.2-0.2,0.3l-23,33.5C146.8,174,143.9,175.5,140.7,175.5z M78.2,170.5
		h62.6c1.5,0,2.9-0.7,3.7-1.8l22.9-33.3c0.6-1.4,0.7-2.9,0.4-4.3l-24-65.8h-4v91.7c0,5.1-4.3,9.4-9.4,9.4H93.4
		c-5.1,0-9.4-4.3-9.4-9.4v-11.3c0-1,0-2,0.5-3.1l5.9-18.7H39.2l-8.4,22.2L78.2,170.5z"/>
</g>
<g class="st5">
	<g>
		<path class="st3" d="M147.9,151c-0.1,0-0.3,0-0.4-0.1c-0.3-0.2-0.4-0.7-0.2-1l12.1-17.7l-4.6-12.9c-0.1-0.4,0.1-0.8,0.4-0.9
			c0.4-0.1,0.8,0.1,0.9,0.4l4.7,13.3c0.1,0.2,0,0.5-0.1,0.7l-12.3,18C148.4,150.9,148.2,151,147.9,151z"/>
	</g>
	<g>
		<path class="st3" d="M149.5,104c-0.3,0-0.6-0.2-0.7-0.5l-2.2-6.6c-0.1-0.4,0.1-0.8,0.5-0.9c0.4-0.1,0.8,0.1,0.9,0.5l2.2,6.6
			c0.1,0.4-0.1,0.8-0.5,0.9C149.7,104,149.6,104,149.5,104z"/>
	</g>
</g>
<g>
	<path class="st0" d="M77,172.9c-0.6-20.2-15.7-36.5-34.7-36.5s-34,16.3-34.6,36.5H77z M92.1,121.5H33.8c-4.1,0-7.3-3.1-7.3-7.3l0,0
		c0-4.1,3.1-7.3,7.3-7.3h58.3c4.1,0,7.3,3.1,7.3,7.3l0,0C99.4,118.4,96.3,121.5,92.1,121.5z"/>
	<path class="st1" d="M77,175.4H7.6c-0.7,0-1.3-0.3-1.8-0.7c-0.5-0.5-0.7-1.1-0.7-1.8c0.6-21.8,16.9-38.9,37.1-38.9
		c20.2,0,36.6,17.1,37.2,38.9c0,0.7-0.2,1.3-0.7,1.8C78.3,175.1,77.7,175.4,77,175.4z M10.2,170.4h64.1
		c-1.7-17.9-15.4-31.6-32.1-31.6C25.6,138.9,11.9,152.5,10.2,170.4z M92.1,124H33.8c-5.5,0-9.7-4.3-9.7-9.7c0-5.5,4.3-9.7,9.7-9.7
		h58.3c5.5,0,9.7,4.3,9.7,9.7C101.9,119.7,97.6,124,92.1,124z M33.8,109.4c-2.8,0-4.8,2-4.8,4.8s2,4.8,4.8,4.8h58.3
		c2.8,0,4.8-2,4.8-4.8s-2-4.8-4.8-4.8H33.8z"/>
</g>
<g>
	<path class="st3" d="M144.8,63.9c0,2.6-1.6,5-4.1,6l-12.6,5c-4.4,1.9-9.4,0.6-12.6-2.9l-8.9-9.7L101,94.1H72.6c0-0.6,0-1,0.3-1.6
		l6-33.5c1.6-9.4,9.7-16.4,19.6-16.4c5.3,0,10.4,2.2,13.9,6l12.6,13.3l11.3-4.4C140.4,56.3,144.8,59.5,144.8,63.9z"/>
	<path class="st1" d="M101,94.8H72.6c-0.4,0-0.7-0.3-0.7-0.7c0-0.6,0-1.1,0.3-1.8l6-33.4c1.6-9.9,10.2-17,20.3-17
		c5.6,0,10.9,2.3,14.4,6.2l12.2,12.9l10.9-4.2c2.3-0.7,4.7-0.2,6.6,1.2c1.9,1.4,3,3.5,3,5.8c0,2.9-1.9,5.6-4.6,6.7l-12.6,5
		c-4.6,1.9-10,0.7-13.4-3l-7.8-8.6l-5.3,30.3C101.7,94.6,101.4,94.8,101,94.8z M73.3,93.4h27l5.5-31.2c0-0.3,0.3-0.5,0.5-0.6
		c0.3-0.1,0.6,0,0.8,0.2l8.9,9.7c3,3.3,7.7,4.4,11.8,2.7l12.6-5c2.2-0.8,3.7-3,3.7-5.3c0-1.8-0.9-3.5-2.4-4.7
		c-1.5-1.1-3.5-1.5-5.3-1l-11.2,4.4c-0.3,0.1-0.6,0-0.8-0.2l-12.6-13.3c-3.3-3.7-8.2-5.8-13.3-5.8c-9.4,0-17.3,6.7-18.9,15.8
		l-6,33.5c0,0.1,0,0.1-0.1,0.2C73.4,93,73.4,93.2,73.3,93.4z"/>
</g>
<g>
	<path class="st6" d="M144.8,63.9c0,2.6-1.6,5-4.1,6l-5.3,2.2l-3.4-12.6l4.1-1.6C140.4,56.3,144.8,59.5,144.8,63.9z"/>
	<path class="st1" d="M135.3,72.8c-0.1,0-0.2,0-0.3-0.1c-0.2-0.1-0.3-0.3-0.4-0.5l-3.4-12.6c-0.1-0.4,0.1-0.7,0.4-0.9l4.1-1.6
		c2.3-0.8,4.7-0.5,6.7,0.9c1.9,1.4,3,3.5,3,5.8c0,2.9-1.9,5.6-4.6,6.7l-5.3,2.2C135.5,72.8,135.4,72.8,135.3,72.8z M132.8,59.9
		l3,11.1l4.5-1.9c2.2-0.8,3.7-3,3.7-5.3c0-1.9-0.9-3.6-2.4-4.6c-1.6-1.1-3.5-1.3-5.3-0.7L132.8,59.9z"/>
</g>
<g>
	<path class="st7" d="M135.3,72.1l-7.3,3.1c-4.4,1.9-9.4,0.6-12.6-2.9l-8.9-10.1L101,94.1H72.6c0-0.6,0-1,0.3-1.6l6-33.5
		c1.6-9.4,9.7-16.4,19.6-16.4c5.3,0,10.4,2.2,13.9,6l12.6,13.3l7.3-2.9L135.3,72.1z"/>
	<path class="st1" d="M101,96.6H72.6c-1.4,0-2.5-1.1-2.5-2.5c0-0.6,0-1.4,0.4-2.3l5.9-33.2c1.8-10.7,11-18.5,22-18.5
		c6.1,0,11.8,2.5,15.7,6.8l11.4,12l5.7-2.2c0.7-0.3,1.4-0.2,2,0.1c0.6,0.3,1.1,0.9,1.3,1.6l3.1,13c0.3,1.2-0.3,2.4-1.4,2.8l-7.3,3.1
		c-5.3,2.2-11.5,0.8-15.4-3.5l-5.5-6.3l-4.7,26.8C103.2,95.7,102.2,96.6,101,96.6z M75.5,91.6h23.4l5.3-29.8
		c0.2-0.9,0.8-1.7,1.8-1.9c0.9-0.3,1.9,0,2.5,0.8l8.9,10.1c2.5,2.7,6.4,3.6,9.8,2.2l5.4-2.3l-2-8.2l-4.7,1.8c-0.9,0.4-2,0.1-2.7-0.6
		l-12.6-13.3c-3-3.3-7.4-5.2-12.1-5.2c-8.6,0-15.8,6-17.2,14.4L75.5,91.6z"/>
</g>
<g>
	<path class="st2" d="M122.4,109v43.5h-13.3v-40.3l-24.9-3.8c-7-1-12-7.3-11.7-14.5H101l13.3,4.1C118.9,99.5,122.4,104.2,122.4,109z
		"/>
	<path class="st1" d="M122.4,154.9h-13.3c-1.4,0-2.5-1.1-2.5-2.5v-38.2l-22.8-3.5c-8.2-1.2-14.1-8.5-13.8-17
		c0.1-1.3,1.1-2.4,2.5-2.4H101c0.2,0,0.5,0,0.7,0.1l13.3,4.1c5.7,1.9,9.9,7.7,9.9,13.4v43.5C124.9,153.8,123.8,154.9,122.4,154.9z
		 M111.6,150h8.4v-41c0-3.6-2.9-7.5-6.5-8.7l-12.9-4H75.2c0.8,4.9,4.5,8.9,9.5,9.6l24.9,3.8c1.2,0.2,2.1,1.2,2.1,2.4V150z"/>
</g>
<g>
	<path class="st7" d="M128.3,163.9h-13.9c-3.1,0-5.3-2.6-5.3-5.3v-6H123c3.1,0,5.3,2.6,5.3,5.3V163.9z"/>
	<path class="st1" d="M128.3,164.6h-13.9c-3.3,0-6.1-2.7-6.1-6.1v-6c0-0.4,0.3-0.7,0.7-0.7H123c3.3,0,6.1,2.7,6.1,6.1v6
		C129.1,164.3,128.8,164.6,128.3,164.6z M109.9,153.3v5.3c0,2.2,1.7,4.6,4.6,4.6h13.1v-5.3c0-2.2-1.7-4.6-4.6-4.6H109.9z"/>
</g>
<g>
	<path class="st8" d="M117,45.6c1.9-3.1,2.9-12.6,2.9-16.7c0-11.3-8.2-20.5-18.3-20.5s-18,9.1-18,20.5c0,4.4,1.3,8.2,3.1,11.7
		L117,45.6z"/>
	<path class="st1" d="M117,48.1c-0.1,0-0.3,0-0.4,0l-30.3-5c-0.8-0.1-1.4-0.6-1.8-1.3c-2.3-4.4-3.4-8.5-3.4-12.9
		c0-12.9,9-22.9,20.5-22.9c11.4,0,20.8,10.3,20.8,22.9c0,3.2-0.8,13.9-3.2,18C118.7,47.6,117.9,48.1,117,48.1z M88.4,38.4l27.2,4.5
		c1.1-3.4,1.9-10.2,1.9-14c0-9.9-7.1-18-15.8-18c-8.7,0-15.5,7.9-15.5,18C86,32.1,86.8,35,88.4,38.4z"/>
</g>
<g>
	<path class="st9" d="M117,45.6l-29.9-5.3C85.3,37.1,84,33,84,28.6c0-11.3,7.9-20.5,18-20.5c8.2,0,15.2,6,17.3,14.5L104.8,22
		l-0.3,9.1l14.9,7.6l1-11.7c0,0.3,0,1,0,1.3C120.2,32.9,119.3,42.1,117,45.6z"/>
	<path class="st1" d="M117,48.1c-0.1,0-0.3,0-0.4,0l-29.9-5.3c-0.7-0.1-1.3-0.6-1.7-1.2c-2.3-3.8-3.5-8.4-3.5-13
		c0-12.9,9-22.9,20.5-22.9c9.1,0,17.2,6.7,19.7,16.3c0.2,0.8,0,1.6-0.5,2.2c-0.1,0.2-0.3,0.3-0.5,0.4c1.2,0.2,2.1,1.2,2.1,2.4v1.3
		c0,0,0,0.1,0,0.1c-0.1,1.2-0.2,4.9-0.8,8.8l-0.1,1.7c0,0.4-0.2,0.7-0.3,1.1c-0.6,2.7-1.3,5.3-2.4,6.9
		C118.7,47.6,117.9,48.1,117,48.1z M88.7,38.1l26.9,4.8c0.3-0.8,0.6-1.8,0.8-2.9l-13.1-6.7c-0.8-0.4-1.4-1.3-1.3-2.3l0.3-9.2
		c0-0.7,0.3-1.3,0.8-1.7c0.5-0.4,1.1-0.7,1.8-0.7l10.8,0.4c-2.6-5.7-7.9-9.4-13.8-9.4c-8.7,0-15.5,7.9-15.5,18
		C86.4,31.9,87.2,35.2,88.7,38.1z M107,29.6l10.2,5.2l0.7-8.1c0.1-0.7,0.4-1.4,1-1.8l-11.7-0.5L107,29.6z"/>
</g>
<g>
	<path class="st7" d="M162.5,70.2h-6.6V51.6l9.4,6c1.3,1,2.2,2.6,2.2,4.1v3.7C167.2,67.9,164.9,70.2,162.5,70.2z"/>
	<path class="st1" d="M162.5,72.6h-6.6c-1.4,0-2.5-1.1-2.5-2.5V51.6c0-0.9,0.5-1.7,1.3-2.2c0.8-0.4,1.7-0.4,2.5,0.1l9.4,6
		c0.1,0,0.1,0.1,0.2,0.1c1.9,1.5,3.1,3.8,3.1,6.1v3.7c0,0.1,0,0.2,0,0.3C169.5,69.6,166.1,72.6,162.5,72.6z M158.4,67.7h4.1
		c1.1,0,2.3-1.2,2.6-2.4v-3.6c0-0.7-0.5-1.6-1.1-2.1l-5.6-3.5V67.7z"/>
</g>
<g>
	<path class="st10" d="M57.4,107.1H11.1c-2.9,0-5.3-2.6-5.3-5.3V63.9c0-2.9,2.6-5.3,5.3-5.3h46.3c2.9,0,5.3,2.6,5.3,5.3v37.9
		C62.8,104.8,60.6,107.1,57.4,107.1z"/>
	<path class="st1" d="M57.4,109.5H11.1c-4.1,0-7.8-3.6-7.8-7.8V63.9c0-4.1,3.6-7.8,7.8-7.8h46.3c4.1,0,7.8,3.6,7.8,7.8v37.9
		c0.1,2-0.7,4-2.1,5.5C61.7,108.7,59.6,109.5,57.4,109.5z M11.1,61c-1.4,0-2.9,1.4-2.9,2.9v37.9c0,1.4,1.4,2.9,2.9,2.9h46.3
		c0.9,0,1.6-0.3,2.2-0.8c0.5-0.5,0.7-1.2,0.7-2l0-38c0-1.4-1.4-2.9-2.9-2.9H11.1z"/>
</g>
<g>
	<path class="st11" d="M5.8,69.5v32.2c0,2.9,2.2,5,5,5h46.6c2.9,0,5-2.2,5-5V69.5H5.8z"/>
	<path class="st1" d="M57.4,109.1H10.8c-4.2,0-7.5-3.3-7.5-7.5V69.5c0-1.4,1.1-2.5,2.5-2.5h56.7c1.4,0,2.5,1.1,2.5,2.5v32.2
		C64.9,105.9,61.6,109.1,57.4,109.1z M8.2,72v29.7c0,1.5,1.1,2.6,2.6,2.6h46.6c1.5,0,2.6-1.1,2.6-2.6V72H8.2z"/>
</g>
<g>
	<path class="st1" d="M33.8,107.8H1.6c-0.4,0-0.7-0.3-0.7-0.7s0.3-0.7,0.7-0.7h32.2c0.4,0,0.7,0.3,0.7,0.7S34.2,107.8,33.8,107.8z"
		/>
</g>
<g>
	<circle class="st9" cx="34.4" cy="84.9" r="6.6"/>
	<path class="st1" d="M34.4,92.3c-4,0-7.3-3.3-7.3-7.3c0-4,3.3-7.3,7.3-7.3s7.3,3.3,7.3,7.3C41.7,89,38.4,92.3,34.4,92.3z
		 M34.4,79.1c-3.2,0-5.9,2.6-5.9,5.9s2.6,5.9,5.9,5.9c3.2,0,5.9-2.6,5.9-5.9S37.6,79.1,34.4,79.1z"/>
</g>
<g>
	<path class="st0" d="M40.7,98.2H28.1c-5,0-9.1-4.1-9.1-9.1l0,0h31.2l0,0C49.8,94.1,45.8,98.2,40.7,98.2z"/>
	<path class="st1" d="M40.7,99H28.1c-5.5,0-9.9-4.4-9.9-9.9c0-0.4,0.3-0.7,0.7-0.7h31.2c0.2,0,0.4,0.1,0.5,0.2
		c0.1,0.1,0.2,0.3,0.2,0.5C50.5,94.6,46.1,99,40.7,99z M19.7,89.8c0.4,4.3,4,7.7,8.4,7.7h12.6c4.3,0,8-3.3,8.6-7.7H19.7z"/>
</g>
</svg>
