<svg id="SvgjsSvg1001" width="256" height="256" xmlns="http://www.w3.org/2000/svg" version="1.1" xmlns:xlink="http://www.w3.org/1999/xlink" xmlns:svgjs="http://svgjs.com/svgjs"><defs id="SvgjsDefs1002"></defs><g id="SvgjsG1008"><svg xmlns="http://www.w3.org/2000/svg" enable-background="new 0 0 504 474.094" viewBox="0 0 504 474.094" width="256" height="256"><path fill="#ffc05a" d="M483.78,184.417H449.3c-4.23-16.15-10.62-31.41-18.85-45.48l24.39-24.39
			c6.33-6.34,6.33-16.61,0-22.94l-42.45-42.45c-6.33-6.33-16.6-6.33-22.94,0l-24.39,24.39c-14.06-8.22-29.33-14.62-45.48-18.85
			v-34.48c0-8.96-7.26-16.22-16.21-16.22h-60.03c-8.96,0-16.22,7.26-16.22,16.22v21.17h0.15l43.71,88.8
			c0.79-0.01,1.58-0.02,2.37-0.02c55.5,0,100.49,44.99,100.49,100.48c0,55.5-44.99,100.49-100.49,100.49
			c-0.79,0-1.58-0.01-2.37-0.03l-12.8,126.19h45.19c8.95,0,16.21-7.26,16.21-16.22v-34.47c16.15-4.24,31.42-10.63,45.48-18.86
			l24.39,24.39c6.34,6.33,16.61,6.33,22.94,0l42.45-42.45c6.33-6.33,6.33-16.6,0-22.93l-24.39-24.4
			c8.23-14.06,14.62-29.33,18.85-45.47h34.48c8.96,0,16.22-7.27,16.22-16.22v-60.03C500,191.677,492.74,184.417,483.78,184.417z" class="colorffc05a svgShape"></path><path fill="#e7f2f1" d="M227.27,41.387h-0.15h-17.03c-48.4,8.753-96.8,8.753-145.2,0H47.7c-24.13,0-43.7,19.57-43.7,43.7
			v341.3c0,24.14,19.57,43.71,43.7,43.71h179.57c12.06,0,22.99-4.89,30.9-12.8h0.01c7.91-7.91,12.8-18.84,12.8-30.91v-95.28v-200.92
			v-45.1C270.98,60.957,251.41,41.387,227.27,41.387z" class="colore7f2f1 svgShape"></path><path fill="#655f68" d="M210.09,41.387l-12.64,43.51c-2.31,7.95-9.59,13.42-17.87,13.42H95.4
			c-8.28,0-15.56-5.47-17.87-13.42l-12.64-43.51H210.09z" class="color655f68 svgShape"></path><path fill="#1ea6bc" d="M245.92,344.407v28.65c0,8.15-6.6,14.76-14.75,14.76h-28.66c-8.15,0-14.75-6.61-14.75-14.76v-28.65
			c0-8.15,6.6-14.76,14.75-14.76h28.66C239.32,329.647,245.92,336.257,245.92,344.407z" class="color1ea6bc svgShape"></path><path fill="#f69552" d="M166.57,344.407v28.65c0,8.15-6.61,14.76-14.76,14.76h-28.65c-8.15,0-14.76-6.61-14.76-14.76
			v-28.65c0-8.15,6.61-14.76,14.76-14.76h28.65C159.96,329.647,166.57,336.257,166.57,344.407z" class="colorf69552 svgShape"></path><path fill="#1ea6bc" d="M87.22,344.407v28.65c0,8.15-6.61,14.76-14.76,14.76H43.81c-8.15,0-14.76-6.61-14.76-14.76v-28.65
			c0-8.15,6.61-14.76,14.76-14.76h28.65C80.61,329.647,87.22,336.257,87.22,344.407z" class="color1ea6bc svgShape"></path><path fill="#995899" d="M87.22 249.537v28.66c0 8.15-6.61 14.75-14.76 14.75H43.81c-8.15 0-14.76-6.6-14.76-14.75v-28.66c0-8.15 6.61-14.75 14.76-14.75h28.65C80.61 234.787 87.22 241.387 87.22 249.537zM245.92 249.537v28.66c0 8.15-6.6 14.75-14.75 14.75h-28.66c-8.15 0-14.75-6.6-14.75-14.75v-28.66c0-8.15 6.6-14.75 14.75-14.75h28.66C239.32 234.787 245.92 241.387 245.92 249.537z" class="color995899 svgShape"></path><path fill="#f69552" d="M245.92,154.677v28.66c0,8.15-6.6,14.75-14.75,14.75h-28.66c-8.15,0-14.75-6.6-14.75-14.75v-28.66
			c0-8.15,6.6-14.75,14.75-14.75h28.66C239.32,139.927,245.92,146.527,245.92,154.677z" class="colorf69552 svgShape"></path><path fill="#6fceae" d="M166.57,154.677v28.66c0,8.15-6.61,14.75-14.76,14.75h-28.65c-8.15,0-14.76-6.6-14.76-14.75v-28.66
			c0-8.15,6.61-14.75,14.76-14.75h28.65C159.96,139.927,166.57,146.527,166.57,154.677z" class="color6fceae svgShape"></path><path fill="#ffc05a" d="M166.57,249.537v28.66c0,8.15-6.61,14.75-14.76,14.75h-28.65c-8.15,0-14.76-6.6-14.76-14.75v-28.66
			c0-8.15,6.61-14.75,14.76-14.75h28.65C159.96,234.787,166.57,241.387,166.57,249.537z" class="colorffc05a svgShape"></path><path fill="#e15c63" d="M87.22,154.677v28.66c0,8.15-6.61,14.75-14.76,14.75H43.81c-8.15,0-14.76-6.6-14.76-14.75v-28.66
			c0-8.15,6.61-14.75,14.76-14.75h28.65C80.61,139.927,87.22,146.527,87.22,154.677z" class="colore15c63 svgShape"></path><path fill="#f9b132" d="M300.06 354.057v95.28c0 2.72-.25 5.38-.72 7.96h-41.16c7.91-7.91 12.8-18.84 12.8-30.91v-95.28c.79.02 1.58.03 2.37.03 9.25 0 18.21-1.25 26.71-3.59V354.057zM300.06 108.037v25.72c-8.5-2.34-17.46-3.59-26.71-3.59-.79 0-1.58.01-2.37.02v-45.1c0-7.05-1.67-13.71-4.64-19.6C285.67 70.007 300.06 87.347 300.06 108.037z" class="colorf9b132 svgShape"></path><path fill="#3a322b" d="M99.896,69.851c0-5.247,4.253-9.5,9.5-9.5s9.5,4.254,9.5,9.5c0,5.247-4.253,9.5-9.5,9.5
		S99.896,75.098,99.896,69.851z M135.277,73.852h39.803c2.209,0,4-1.791,4-4s-1.791-4-4-4h-39.803c-2.209,0-4,1.791-4,4
		S133.068,73.852,135.277,73.852z M91.221,154.681v28.653c0,10.343-8.414,18.757-18.757,18.757H43.811
		c-10.343,0-18.757-8.414-18.757-18.757v-28.653c0-10.343,8.414-18.757,18.757-18.757h28.653
		C82.807,135.924,91.221,144.338,91.221,154.681z M83.221,154.681c0-5.932-4.825-10.757-10.757-10.757H43.811
		c-5.932,0-10.757,4.825-10.757,10.757v28.653c0,5.932,4.825,10.757,10.757,10.757h28.653c5.932,0,10.757-4.825,10.757-10.757
		V154.681z M170.572,154.681v28.653c0,10.343-8.415,18.757-18.758,18.757h-28.652c-10.343,0-18.758-8.414-18.758-18.757v-28.653
		c0-10.343,8.415-18.757,18.758-18.757h28.652C162.157,135.924,170.572,144.338,170.572,154.681z M162.572,154.681
		c0-5.932-4.826-10.757-10.758-10.757h-28.652c-5.932,0-10.758,4.825-10.758,10.757v28.653c0,5.932,4.826,10.757,10.758,10.757
		h28.652c5.932,0,10.758-4.825,10.758-10.757V154.681z M249.923,154.681v28.653c0,10.343-8.415,18.757-18.758,18.757h-28.652
		c-10.343,0-18.758-8.414-18.758-18.757v-28.653c0-10.343,8.415-18.757,18.758-18.757h28.652
		C241.508,135.924,249.923,144.338,249.923,154.681z M241.923,154.681c0-5.932-4.826-10.757-10.758-10.757h-28.652
		c-5.932,0-10.758,4.825-10.758,10.757v28.653c0,5.932,4.826,10.757,10.758,10.757h28.652c5.932,0,10.758-4.825,10.758-10.757
		V154.681z M91.221,249.542v28.652c0,10.343-8.414,18.757-18.757,18.757H43.811c-10.343,0-18.757-8.414-18.757-18.757v-28.652
		c0-10.343,8.414-18.758,18.757-18.758h28.653C82.807,230.784,91.221,239.199,91.221,249.542z M83.221,249.542
		c0-5.932-4.825-10.758-10.757-10.758H43.811c-5.932,0-10.757,4.826-10.757,10.758v28.652c0,5.932,4.825,10.757,10.757,10.757
		h28.653c5.932,0,10.757-4.825,10.757-10.757V249.542z M170.572,249.542v28.652c0,10.343-8.415,18.757-18.758,18.757h-28.652
		c-10.343,0-18.758-8.414-18.758-18.757v-28.652c0-10.343,8.415-18.758,18.758-18.758h28.652
		C162.157,230.784,170.572,239.199,170.572,249.542z M162.572,249.542c0-5.932-4.826-10.758-10.758-10.758h-28.652
		c-5.932,0-10.758,4.826-10.758,10.758v28.652c0,5.932,4.826,10.757,10.758,10.757h28.652c5.932,0,10.758-4.825,10.758-10.757
		V249.542z M249.923,249.542v28.652c0,10.343-8.415,18.757-18.758,18.757h-28.652c-10.343,0-18.758-8.414-18.758-18.757v-28.652
		c0-10.343,8.415-18.758,18.758-18.758h28.652C241.508,230.784,249.923,239.199,249.923,249.542z M241.923,249.542
		c0-5.932-4.826-10.758-10.758-10.758h-28.652c-5.932,0-10.758,4.826-10.758,10.758v28.652c0,5.932,4.826,10.757,10.758,10.757
		h28.652c5.932,0,10.758-4.825,10.758-10.757V249.542z M91.221,344.402v28.652c0,10.343-8.414,18.758-18.757,18.758H43.811
		c-10.343,0-18.757-8.415-18.757-18.758v-28.652c0-10.343,8.414-18.758,18.757-18.758h28.653
		C82.807,325.645,91.221,334.06,91.221,344.402z M83.221,344.402c0-5.932-4.825-10.758-10.757-10.758H43.811
		c-5.932,0-10.757,4.826-10.757,10.758v28.652c0,5.932,4.825,10.758,10.757,10.758h28.653c5.932,0,10.757-4.826,10.757-10.758
		V344.402z M170.572,344.402v28.652c0,10.343-8.415,18.758-18.758,18.758h-28.652c-10.343,0-18.758-8.415-18.758-18.758v-28.652
		c0-10.343,8.415-18.758,18.758-18.758h28.652C162.157,325.645,170.572,334.06,170.572,344.402z M162.572,344.402
		c0-5.932-4.826-10.758-10.758-10.758h-28.652c-5.932,0-10.758,4.826-10.758,10.758v28.652c0,5.932,4.826,10.758,10.758,10.758
		h28.652c5.932,0,10.758-4.826,10.758-10.758V344.402z M249.923,344.402v28.652c0,10.343-8.415,18.758-18.758,18.758h-28.652
		c-10.343,0-18.758-8.415-18.758-18.758v-28.652c0-10.343,8.415-18.758,18.758-18.758h28.652
		C241.508,325.645,249.923,334.06,249.923,344.402z M241.923,344.402c0-5.932-4.826-10.758-10.758-10.758h-28.652
		c-5.932,0-10.758,4.826-10.758,10.758v28.652c0,5.932,4.826,10.758,10.758,10.758h28.652c5.932,0,10.758-4.826,10.758-10.758
		V344.402z M504,200.634v60.03c0,11.148-9.07,20.219-20.219,20.219h-31.417c-3.981,14.216-9.663,27.918-16.923,40.814l22.227,22.228
		c7.884,7.883,7.884,20.711,0,28.594l-42.447,42.447c-3.818,3.819-8.896,5.922-14.297,5.922s-10.479-2.103-14.297-5.922
		l-22.228-22.227c-12.897,7.26-26.601,12.941-40.814,16.923v31.417c0,11.148-9.07,20.219-20.219,20.219h-43.627
		c-8.522,7.931-19.934,12.796-32.466,12.796H47.703C21.399,474.094,0,452.694,0,426.391V85.089
		c0-26.304,21.399-47.703,47.703-47.703h175.414V20.219C223.117,9.07,232.187,0,243.336,0h60.03c11.148,0,20.219,9.07,20.219,20.219
		v31.417c14.212,3.98,27.914,9.661,40.814,16.923l22.228-22.227c7.883-7.885,20.711-7.885,28.594,0l42.447,42.447
		c7.884,7.883,7.884,20.711,0,28.594l-22.227,22.228c7.26,12.898,12.941,26.602,16.923,40.814h31.417
		C494.93,180.415,504,189.485,504,200.634z M70.213,45.386L81.37,83.785c1.802,6.201,7.569,10.531,14.026,10.531h84.184
		c6.457,0,12.225-4.33,14.026-10.53l11.157-38.4H70.213z M266.977,426.391V85.089c0-21.893-17.811-39.703-39.703-39.703h-14.18
		l-11.806,40.632c-2.787,9.597-11.714,16.299-21.708,16.299H95.396c-9.994,0-18.921-6.702-21.708-16.3L61.883,45.386h-14.18
		C25.811,45.386,8,63.196,8,85.089v341.302c0,21.893,17.811,39.703,39.703,39.703h179.57
		C249.166,466.094,266.977,448.283,266.977,426.391z M496,200.634c0-6.737-5.481-12.219-12.219-12.219h-34.477
		c-1.818,0-3.408-1.227-3.869-2.986c-4.081-15.569-10.285-30.532-18.439-44.473c-0.919-1.569-0.662-3.562,0.624-4.848l24.392-24.392
		c4.764-4.765,4.764-12.517,0-17.281l-42.447-42.447c-2.309-2.308-5.377-3.579-8.641-3.579s-6.332,1.271-8.641,3.579L367.892,76.38
		c-1.287,1.286-3.28,1.542-4.848,0.624c-13.941-8.156-28.904-14.36-44.473-18.439c-1.76-0.461-2.986-2.051-2.986-3.869V20.219
		c0-6.737-5.481-12.219-12.219-12.219h-60.03c-6.737,0-12.219,5.481-12.219,12.219v17.335c24.511,1.966,43.859,22.526,43.859,47.535
		v41.095c56.867,0.873,102.86,47.395,102.86,104.465c0,57.071-45.994,103.593-102.86,104.466v91.276
		c0,9.976-3.083,19.242-8.339,26.907h36.729c6.737,0,12.219-5.481,12.219-12.219v-34.477c0-1.818,1.227-3.408,2.986-3.869
		c15.571-4.081,30.534-10.285,44.473-18.439c1.569-0.919,3.563-0.663,4.848,0.624l24.392,24.392c4.766,4.764,12.516,4.764,17.281,0
		l42.447-42.447c2.308-2.309,3.578-5.377,3.578-8.641s-1.271-6.332-3.578-8.641l-24.392-24.392
		c-1.286-1.286-1.543-3.278-0.624-4.849c8.154-13.937,14.357-28.899,18.439-44.472c0.461-1.76,2.051-2.986,3.869-2.986h34.477
		c6.737,0,12.219-5.481,12.219-12.219V200.634z M274.977,327.114c52.456-0.872,94.86-43.806,94.86-96.466
		c0-52.659-42.405-95.593-94.86-96.465V327.114z" class="color3a322b svgShape"></path></svg></g></svg>