<?xml version="1.0" encoding="utf-8"?>
<!-- Generator: Adobe Illustrator 24.3.0, SVG Export Plug-In . SVG Version: 6.00 Build 0)  -->
<svg version="1.1" id="Capa_1" xmlns="http://www.w3.org/2000/svg" xmlns:xlink="http://www.w3.org/1999/xlink" x="0px" y="0px"
	 viewBox="0 0 512 512" style="enable-background:new 0 0 512 512;" xml:space="preserve">
<style type="text/css">
	.st0{fill:#73C3FF;}
	.st1{fill:#6EE5A1;}
	.st2{fill:#939393;}
	.st3{fill:#F8F6F6;}
	.st4{fill:#FEDBA6;}
</style>
<g>
	<g>
		<path class="st0" d="M478.7,224.6h-39.8c-3.7-16.3-10.1-31.6-18.8-45.3l28.1-28.1c2.7-2.7,2.7-7.1,0-9.7l-34.8-34.7
			c-2.7-2.7-7-2.7-9.7,0l-28.1,28.1c-13.7-8.7-29-15.1-45.4-18.8V76.4c0-3.8-3.1-6.9-6.9-6.9h-49.2c-3.8,0-6.9,3.1-6.9,6.9v39.7
			c-16.3,3.7-31.6,10.1-45.4,18.8l-28.1-28.1c-2.7-2.7-7-2.7-9.7,0l-34.8,34.7c-2.7,2.7-2.7,7.1,0,9.7l28.1,28.1
			c-8.7,13.7-15.1,29-18.8,45.3h-39.8c-3.8,0-6.9,3.1-6.9,6.9v49.1c0,3.8,3.1,6.9,6.9,6.9h39.8c3.7,16.3,10.1,31.6,18.8,45.3
			l-28.1,28.1c-2.7,2.7-2.7,7.1,0,9.7l34.8,34.7c2.7,2.7,7,2.7,9.7,0l28.1-28.1c13.7,8.7,29,15.1,45.4,18.8v39.7
			c0,3.8,3.1,6.9,6.9,6.9h49.2c3.8,0,6.9-3.1,6.9-6.9V396c16.3-3.7,31.6-10.1,45.4-18.8l28.1,28.1c2.7,2.7,7,2.7,9.7,0l34.8-34.7
			c2.7-2.7,2.7-7.1,0-9.7l-28.1-28.1c8.7-13.7,15.1-29,18.8-45.3h39.8c3.8,0,6.9-3.1,6.9-6.9v-49.1
			C485.6,227.6,482.5,224.6,478.7,224.6L478.7,224.6z M298.7,341.8c-47.5,0-86-38.4-86-85.8s38.5-85.8,86-85.8s86,38.4,86,85.8
			S346.2,341.8,298.7,341.8z"/>
	</g>
	<g>
		<g>
			<path class="st1" d="M265.5,504.5H55.8c-16.2,0-29.4-13.2-29.4-29.4V36.9c0-16.2,13.2-29.4,29.4-29.4h209.7
				c16.2,0,29.4,13.2,29.4,29.4v438.2C294.9,491.3,281.7,504.5,265.5,504.5z"/>
		</g>
		<g>
			<path class="st2" d="M265.5,504.5H55.8c-16.2,0-29.4-13.2-29.4-29.4V424h268.5v51.1C294.9,491.3,281.7,504.5,265.5,504.5z"/>
		</g>
	</g>
	<g>
		<g>
			<path class="st3" d="M105.9,104.1H60.3c-1.4,0-2.5-1.1-2.5-2.5V56c0-1.4,1.1-2.5,2.5-2.5h45.6c1.4,0,2.5,1.1,2.5,2.5v45.6
				C108.4,103,107.3,104.1,105.9,104.1z"/>
		</g>
		<g>
			<path class="st4" d="M183.5,104.1h-45.6c-1.4,0-2.5-1.1-2.5-2.5V56c0-1.4,1.1-2.5,2.5-2.5h45.6c1.4,0,2.5,1.1,2.5,2.5v45.6
				C185.9,103,184.8,104.1,183.5,104.1L183.5,104.1z"/>
		</g>
		<g>
			<path class="st3" d="M261.1,104.1h-45.6c-1.4,0-2.5-1.1-2.5-2.5V56c0-1.4,1.1-2.5,2.5-2.5h45.6c1.4,0,2.5,1.1,2.5,2.5v45.6
				C263.5,103,262.4,104.1,261.1,104.1z"/>
		</g>
	</g>
	<g>
		<g>
			<path class="st4" d="M105.9,189H60.3c-1.4,0-2.5-1.1-2.5-2.5v-45.6c0-1.4,1.1-2.5,2.5-2.5h45.6c1.4,0,2.5,1.1,2.5,2.5v45.6
				C108.4,187.9,107.3,189,105.9,189z"/>
		</g>
		<g>
			<path class="st3" d="M183.5,189h-45.6c-1.4,0-2.5-1.1-2.5-2.5v-45.6c0-1.4,1.1-2.5,2.5-2.5h45.6c1.4,0,2.5,1.1,2.5,2.5v45.6
				C185.9,187.9,184.8,189,183.5,189L183.5,189z"/>
		</g>
		<g>
			<path class="st4" d="M261.1,189h-45.6c-1.4,0-2.5-1.1-2.5-2.5v-45.6c0-1.4,1.1-2.5,2.5-2.5h45.6c1.4,0,2.5,1.1,2.5,2.5v45.6
				C263.5,187.9,262.4,189,261.1,189z"/>
		</g>
	</g>
	<g>
		<path d="M152.5,471.8h16.4c4.1,0,7.5-3.4,7.5-7.5s-3.4-7.5-7.5-7.5h-16.4c-4.1,0-7.5,3.4-7.5,7.5S148.3,471.8,152.5,471.8z"/>
		<path d="M478.7,217.1h-33.9c-3.4-12.8-8.5-25.1-15.2-36.6l23.9-23.9c2.7-2.7,4.2-6.3,4.2-10.2c0-3.8-1.5-7.5-4.2-10.2l-34.8-34.7
			c-5.6-5.6-14.7-5.6-20.3,0l-24,23.9c-11.5-6.7-23.8-11.8-36.7-15.2V76.4c0-7.9-6.5-14.4-14.4-14.4h-20.9V36.9
			c0-20.3-16.5-36.9-36.9-36.9H55.8C35.5,0,18.9,16.5,18.9,36.9v49.2c0,4.1,3.4,7.5,7.5,7.5s7.5-3.4,7.5-7.5V36.9
			c0-12.1,9.8-21.9,21.9-21.9h209.7c12.1,0,21.9,9.8,21.9,21.9v379.6H33.9V120.6c0-4.1-3.4-7.5-7.5-7.5s-7.5,3.4-7.5,7.5v354.5
			c0,20.3,16.5,36.9,36.9,36.9h209.7c20.3,0,36.9-16.5,36.9-36.9V450h20.9c7.9,0,14.4-6.5,14.4-14.4v-33.8
			c12.9-3.4,25.2-8.5,36.7-15.2l24,23.9c5.6,5.6,14.7,5.6,20.3,0l34.8-34.7c2.7-2.7,4.2-6.3,4.2-10.2c0-3.8-1.5-7.5-4.2-10.2
			l-23.9-23.9c6.7-11.5,11.8-23.8,15.2-36.6h33.9c7.9,0,14.4-6.5,14.4-14.4v-49.1C493.1,223.5,486.6,217.1,478.7,217.1L478.7,217.1z
			 M287.4,475.1c0,12.1-9.8,21.9-21.9,21.9H55.8c-12.1,0-21.9-9.8-21.9-21.9v-43.6h253.5V475.1z M478.1,279.9H439
			c-3.5,0-6.6,2.4-7.3,5.9c-3.4,15.2-9.4,29.7-17.8,42.9c-1.9,3-1.5,6.9,1,9.3l27.7,27.6l-33.9,33.9L381,371.9
			c-2.5-2.5-6.3-2.9-9.3-1c-13.2,8.4-27.7,14.4-43,17.8c-3.4,0.8-5.9,3.8-5.9,7.3v39h-20.3v-11v-74.8c20.8-0.8,40.9-8.6,56.8-22.1
			c3.2-2.7,3.6-7.4,0.9-10.6s-7.4-3.6-10.6-0.9c-13.2,11.2-29.8,17.7-47.1,18.5V177.8c41.6,1.9,74.8,36.3,74.8,78.2
			c0,12.4-2.8,24.3-8.4,35.3c-1.9,3.7-0.4,8.2,3.3,10.1c3.7,1.9,8.2,0.4,10.1-3.3c6.7-13.1,10.1-27.3,10.1-42.1
			c0-50.2-40-91.3-89.8-93.2V77h20.3v39c0,3.5,2.4,6.6,5.9,7.3c15.3,3.4,29.7,9.4,43,17.8c3,1.9,6.8,1.4,9.3-1l27.7-27.6l33.9,33.9
			L414.8,174c-2.5,2.5-2.9,6.4-1,9.3c8.4,13.2,14.4,27.6,17.8,42.9c0.8,3.4,3.8,5.9,7.3,5.9H478L478.1,279.9L478.1,279.9z"/>
		<path d="M60.3,111.6h45.6c5.5,0,10-4.5,10-10V56c0-5.5-4.5-10-10-10H60.3c-5.5,0-10,4.5-10,10v45.6
			C50.3,107.2,54.8,111.6,60.3,111.6z M65.3,61.1h35.6v35.6H65.3V61.1z"/>
		<path d="M137.8,111.6h45.6c5.5,0,10-4.5,10-10V56c0-5.5-4.5-10-10-10h-45.6c-5.5,0-10,4.5-10,10v45.6
			C127.9,107.2,132.3,111.6,137.8,111.6z M142.9,61.1h35.6v35.6h-35.6V61.1z"/>
		<path d="M215.4,111.6H261c5.5,0,10-4.5,10-10V56c0-5.5-4.5-10-10-10h-45.6c-5.5,0-10,4.5-10,10v45.6
			C205.5,107.2,209.9,111.6,215.4,111.6L215.4,111.6z M220.5,61.1H256v35.6h-35.6L220.5,61.1z"/>
		<path d="M50.3,186.5c0,5.5,4.5,10,10,10h45.6c5.5,0,10-4.5,10-10v-45.6c0-5.5-4.5-10-10-10H60.3c-5.5,0-10,4.5-10,10V186.5z
			 M65.3,145.9h35.6v35.6H65.3V145.9z"/>
		<path d="M127.9,186.5c0,5.5,4.5,10,10,10h45.6c5.5,0,10-4.5,10-10v-45.6c0-5.5-4.5-10-10-10h-45.6c-5.5,0-10,4.5-10,10
			L127.9,186.5z M142.9,145.9h35.6v35.6h-35.6V145.9z"/>
		<path d="M205.5,186.5c0,5.5,4.5,10,10,10h45.6c5.5,0,10-4.5,10-10v-45.6c0-5.5-4.5-10-10-10h-45.6c-5.5,0-10,4.5-10,10V186.5z
			 M220.5,145.9H256v35.6h-35.6L220.5,145.9z"/>
	</g>
</g>
</svg>
