<svg enable-background="new 0 0 256 256" viewBox="0 0 256 256" xmlns="http://www.w3.org/2000/svg"><g id="Caption"/><g id="Icons"><g><path d="m205.07 83.436h-10.322v-41.22h10.322c2.761 0 5 2.239 5 5v31.221c0 2.761-2.239 4.999-5 4.999z" fill="#efefef"/><path d="m221.235 156.044c-1.175-5.068-1.952-8.416-8.821-10.686-2.284-.754-2.279-3.995 0-4.748 3.987-1.317 6.868-2.269 8.821-10.686.597-2.566 4.272-2.573 4.871 0 2 8.617 5 9.425 8.821 10.687 2.284.754 2.279 3.994 0 4.747-3.988 1.318-6.869 2.271-8.821 10.686-.597 2.578-4.273 2.579-4.871 0z"/><path d="m228.051 143.008c-1.63 1.1-3.09 2.61-4.32 4.89-.99-1.76-2.41-3.42-4.57-4.85 1.72-1.13 3.24-2.69 4.52-5.1 1.3 2.45 2.81 4 4.37 5.06z" fill="#f0c020"/><path d="m221.235 156.044c-1.175-5.068-1.952-8.416-8.821-10.686-2.284-.754-2.279-3.995 0-4.748 3.987-1.317 6.868-2.269 8.821-10.686.597-2.566 4.272-2.573 4.871 0 2 8.617 5 9.425 8.821 10.687 2.284.754 2.279 3.994 0 4.747-3.988 1.318-6.869 2.271-8.821 10.686-.597 2.578-4.273 2.579-4.871 0z"/><path d="m228.051 143.008c-1.63 1.1-3.09 2.61-4.32 4.89-.99-1.76-2.41-3.42-4.57-4.85 1.72-1.13 3.24-2.69 4.52-5.1 1.3 2.45 2.81 4 4.37 5.06z" fill="#f0c020"/><path d="m29.894 156.044c-1.175-5.068-1.952-8.416-8.821-10.686-2.284-.754-2.279-3.995 0-4.748 3.987-1.317 6.868-2.269 8.821-10.686.597-2.566 4.272-2.573 4.871 0 2 8.617 5 9.425 8.821 10.687 2.284.754 2.279 3.994 0 4.747-3.988 1.318-6.869 2.271-8.821 10.686-.598 2.578-4.274 2.579-4.871 0z"/><path d="m36.709 143.008c-1.63 1.1-3.09 2.61-4.32 4.89-.99-1.76-2.41-3.42-4.57-4.85 1.72-1.13 3.24-2.69 4.52-5.1 1.3 2.45 2.81 4 4.37 5.06z" fill="#f0c020"/><path d="m29.894 156.044c-1.175-5.068-1.952-8.416-8.821-10.686-2.284-.754-2.279-3.995 0-4.748 3.987-1.317 6.868-2.269 8.821-10.686.597-2.566 4.272-2.573 4.871 0 2 8.617 5 9.425 8.821 10.687 2.284.754 2.279 3.994 0 4.747-3.988 1.318-6.869 2.271-8.821 10.686-.598 2.578-4.274 2.579-4.871 0z"/><path d="m36.709 143.008c-1.63 1.1-3.09 2.61-4.32 4.89-.99-1.76-2.41-3.42-4.57-4.85 1.72-1.13 3.24-2.69 4.52-5.1 1.3 2.45 2.81 4 4.37 5.06z" fill="#f0c020"/><path d="m180.014 249.043h-104.028c-11.046 0-20-8.954-20-20v-202.091c0-11.046 8.954-20 20-20h104.029c11.046 0 20 8.954 20 20v202.091c-.001 11.046-8.955 20-20.001 20z" fill="#72c2e9"/><path d="m69.617 204.269v-159.602c0-2.761 2.239-5 5-5h106.766c2.761 0 5 2.239 5 5v159.601c0 2.761-2.239 5-5 5h-106.766c-2.761.001-5-2.238-5-4.999z" fill="#efefef"/><path d="m186.38 44.668v7c0-2.76-2.24-5-5-5h-106.76c-2.76 0-5 2.24-5 5v-7c0-2.76 2.24-5 5-5h106.76c2.76 0 5 2.24 5 5z" fill="#afafaf"/><path d="m100.277 82.017h-13.635c-2.761 0-5-2.239-5-5v-13.635c0-2.761 2.239-5 5-5h13.635c2.761 0 5 2.239 5 5v13.635c0 2.762-2.238 5-5 5z" fill="#f0c020"/><path d="m134.818 82.017h-13.635c-2.761 0-5-2.239-5-5v-13.635c0-2.761 2.239-5 5-5h13.635c2.761 0 5 2.239 5 5v13.635c0 2.762-2.239 5-5 5z" fill="#fc5d3d"/><path d="m169.358 82.017h-13.635c-2.761 0-5-2.239-5-5v-13.635c0-2.761 2.239-5 5-5h13.635c2.761 0 5 2.239 5 5v13.635c0 2.762-2.239 5-5 5z" fill="#13bf6d"/><path d="m105.28 63.385v7.02c0-2.76-2.24-5-5-5h-13.64c-2.76 0-5 2.24-5 5v-7.02c0-2.76 2.24-5 5-5h13.64c2.76 0 5 2.24 5 5z" fill="#e8a61e"/><path d="m139.82 63.385v7.02c0-2.76-2.24-5-5-5h-13.64c-2.76 0-5 2.24-5 5v-7.02c0-2.76 2.24-5 5-5h13.64c2.76 0 5 2.24 5 5z" fill="#b25035"/><path d="m174.36 63.385v7.02c0-2.76-2.24-5-5-5h-13.64c-2.76 0-5 2.24-5 5v-7.02c0-2.76 2.24-5 5-5h13.64c2.76 0 5 2.24 5 5z" fill="#139c6e"/><path d="m100.277 125.133h-13.635c-2.761 0-5-2.239-5-5v-13.635c0-2.761 2.239-5 5-5h13.635c2.761 0 5 2.239 5 5v13.635c0 2.761-2.238 5-5 5z" fill="#13bf6d"/><path d="m134.818 125.133h-13.635c-2.761 0-5-2.239-5-5v-13.635c0-2.761 2.239-5 5-5h13.635c2.761 0 5 2.239 5 5v13.635c0 2.761-2.239 5-5 5z" fill="#f0c020"/><path d="m169.358 125.133h-13.635c-2.761 0-5-2.239-5-5v-13.635c0-2.761 2.239-5 5-5h13.635c2.761 0 5 2.239 5 5v13.635c0 2.761-2.239 5-5 5z" fill="#fc5d3d"/><path d="m100.277 168.249h-13.635c-2.761 0-5-2.239-5-5v-13.635c0-2.761 2.239-5 5-5h13.635c2.761 0 5 2.239 5 5v13.635c0 2.761-2.238 5-5 5z" fill="#fc5d3d"/><path d="m134.818 168.249h-13.635c-2.761 0-5-2.239-5-5v-13.635c0-2.761 2.239-5 5-5h13.635c2.761 0 5 2.239 5 5v13.635c0 2.761-2.239 5-5 5z" fill="#13bf6d"/><path d="m169.358 168.249h-13.635c-2.761 0-5-2.239-5-5v-13.635c0-2.761 2.239-5 5-5h13.635c2.761 0 5 2.239 5 5v13.635c0 2.761-2.239 5-5 5z" fill="#f0c020"/><path d="m105.28 106.495v7.02c0-2.76-2.24-5-5-5h-13.64c-2.76 0-5 2.24-5 5v-7.02c0-2.76 2.24-5 5-5h13.64c2.76 0 5 2.24 5 5z" fill="#139c6e"/><path d="m139.82 106.495v7.02c0-2.76-2.24-5-5-5h-13.64c-2.76 0-5 2.24-5 5v-7.02c0-2.76 2.24-5 5-5h13.64c2.76 0 5 2.24 5 5z" fill="#e8a61e"/><path d="m174.36 106.495v7.02c0-2.76-2.24-5-5-5h-13.64c-2.76 0-5 2.24-5 5v-7.02c0-2.76 2.24-5 5-5h13.64c2.76 0 5 2.24 5 5z" fill="#b25035"/><path d="m105.28 149.615v7.02c0-2.76-2.24-5-5-5h-13.64c-2.76 0-5 2.24-5 5v-7.02c0-2.76 2.24-5 5-5h13.64c2.76 0 5 2.24 5 5z" fill="#b25035"/><path d="m139.82 149.615v7.02c0-2.76-2.24-5-5-5h-13.64c-2.76 0-5 2.24-5 5v-7.02c0-2.76 2.24-5 5-5h13.64c2.76 0 5 2.24 5 5z" fill="#139c6e"/><path d="m174.36 149.615v7.02c0-2.76-2.24-5-5-5h-13.64c-2.76 0-5 2.24-5 5v-7.02c0-2.76 2.24-5 5-5h13.64c2.76 0 5 2.24 5 5z" fill="#e8a61e"/><path d="m176.383 201.769h-3c-1.381 0-2.5-1.119-2.5-2.5s1.119-2.5 2.5-2.5h3c1.381 0 2.5 1.119 2.5 2.5s-1.119 2.5-2.5 2.5zm-13 0h-83.766c-1.381 0-2.5-1.119-2.5-2.5s1.119-2.5 2.5-2.5h83.766c1.381 0 2.5 1.119 2.5 2.5s-1.119 2.5-2.5 2.5z" fill="#fff"/><path d="m205.07 39.72h-2.556v-12.768c0-12.407-10.094-22.5-22.5-22.5h-104.028c-12.407 0-22.5 10.093-22.5 22.5 0 .013.004.026.004.039v72.047c0 1.38 1.12 2.5 2.5 2.5 1.37 0 2.49-1.12 2.49-2.5v-72.027c0-.02.006-.038.006-.058 0-9.649 7.851-17.5 17.5-17.5h104.029c9.649 0 17.5 7.851 17.5 17.5v202.091c0 .011.003.022.003.033-.035 9.616-7.878 17.451-17.508 17.471h-8.57c-1.38 0-2.5 1.12-2.5 2.5 0 1.37 1.12 2.5 2.5 2.5h8.57c12.39-.01 22.466-10.068 22.499-22.441.001-.022.006-.042.006-.063v-143.104h2.556c4.136 0 7.5-3.364 7.5-7.5v-31.22c-.001-4.136-3.365-7.5-7.501-7.5zm2.5 38.72c0 1.378-1.121 2.5-2.5 2.5h-2.556v-36.22h2.556c1.379 0 2.5 1.122 2.5 2.5z"/><circle cx="161.439" cy="249.048" r="2.5"/><path d="m55.99 111.548c1.37 0 2.49-1.13 2.49-2.5 0-1.38-1.12-2.51-2.49-2.51-1.38 0-2.5 1.13-2.5 2.51 0 1.37 1.12 2.5 2.5 2.5z"/><path d="m53.49 229.004c0 .013-.004.025-.004.039 0 12.389 10.065 22.47 22.448 22.499.019 0 .037.006.056.006h75.45c1.38 0 2.5-1.13 2.5-2.5 0-1.38-1.12-2.5-2.5-2.5h-75.41c-.015 0-.029-.004-.044-.004-9.649 0-17.5-7.851-17.5-17.5 0-.02-.005-.038-.006-.058v-109.938c0-1.38-1.12-2.5-2.49-2.5-1.38 0-2.5 1.12-2.5 2.5z"/><path d="m188.883 204.269v-159.602c0-4.136-3.364-7.5-7.5-7.5-.002 0-.003 0-.005 0h-6.758c-1.38 0-2.5 1.12-2.5 2.5s1.12 2.5 2.5 2.5h6.76.004c1.378 0 2.499 1.122 2.499 2.5v159.602c0 1.378-1.121 2.5-2.5 2.5h-106.766c-1.378 0-2.5-1.122-2.5-2.5v-159.602c0-1.378 1.121-2.499 2.499-2.5h.004 80c1.37 0 2.5-1.12 2.5-2.5s-1.13-2.5-2.5-2.5h-79.998c-.002 0-.003 0-.005 0-4.136 0-7.5 3.364-7.5 7.5v159.602c0 4.136 3.364 7.5 7.5 7.5h106.766c4.136 0 7.5-3.364 7.5-7.5z"/><path d="m167.109 39.668c0-1.38-1.119-2.5-2.489-2.5-1.38 0-2.5 1.12-2.5 2.5s1.12 2.5 2.5 2.5c1.37 0 2.489-1.12 2.489-2.5z"/><path d="m142.68 25.81c1.381 0 2.5-1.119 2.5-2.5s-1.119-2.5-2.5-2.5h-16.167c-1.381 0-2.5 1.119-2.5 2.5s1.119 2.5 2.5 2.5z"/><path d="m116.162 25.81c1.381 0 2.5-1.119 2.5-2.5s-1.119-2.5-2.5-2.5h-3c-1.381 0-2.5 1.119-2.5 2.5s1.119 2.5 2.5 2.5z"/><path d="m107.777 63.383c0-4.136-3.364-7.5-7.5-7.5h-13.635c-4.136 0-7.5 3.364-7.5 7.5v13.635c0 4.136 3.364 7.5 7.5 7.5h13.635c4.136 0 7.5-3.364 7.5-7.5zm-5 13.634c0 1.378-1.122 2.5-2.5 2.5h-13.635c-1.378 0-2.5-1.122-2.5-2.5v-13.634c0-1.378 1.122-2.5 2.5-2.5h13.635c1.378 0 2.5 1.122 2.5 2.5z"/><path d="m121.183 84.517h13.635c4.136 0 7.5-3.364 7.5-7.5v-13.634c0-4.136-3.364-7.5-7.5-7.5h-13.635c-4.136 0-7.5 3.364-7.5 7.5v13.635c0 4.135 3.364 7.499 7.5 7.499zm-2.5-21.134c0-1.378 1.122-2.5 2.5-2.5h13.635c1.379 0 2.5 1.122 2.5 2.5v13.635c0 1.378-1.121 2.5-2.5 2.5h-13.635c-1.378 0-2.5-1.122-2.5-2.5z"/><path d="m148.223 63.383v13.635c0 4.136 3.364 7.5 7.5 7.5h13.635c4.136 0 7.5-3.364 7.5-7.5v-13.635c0-4.136-3.364-7.5-7.5-7.5h-13.635c-4.136 0-7.5 3.364-7.5 7.5zm23.634 0v13.635c0 1.378-1.121 2.5-2.5 2.5h-13.635c-1.379 0-2.5-1.122-2.5-2.5v-13.635c0-1.378 1.121-2.5 2.5-2.5h13.635c1.379 0 2.5 1.121 2.5 2.5z"/><path d="m107.777 106.498c0-4.136-3.364-7.5-7.5-7.5h-13.635c-4.136 0-7.5 3.364-7.5 7.5v13.635c0 4.136 3.364 7.5 7.5 7.5h13.635c4.136 0 7.5-3.364 7.5-7.5zm-5 13.635c0 1.378-1.122 2.5-2.5 2.5h-13.635c-1.378 0-2.5-1.122-2.5-2.5v-13.635c0-1.378 1.122-2.5 2.5-2.5h13.635c1.378 0 2.5 1.122 2.5 2.5z"/><path d="m113.683 120.133c0 4.136 3.364 7.5 7.5 7.5h13.635c4.136 0 7.5-3.364 7.5-7.5v-13.635c0-4.136-3.364-7.5-7.5-7.5h-13.635c-4.136 0-7.5 3.364-7.5 7.5zm5-13.635c0-1.378 1.122-2.5 2.5-2.5h13.635c1.379 0 2.5 1.122 2.5 2.5v13.635c0 1.378-1.121 2.5-2.5 2.5h-13.635c-1.378 0-2.5-1.122-2.5-2.5z"/><path d="m176.857 106.498c0-4.136-3.364-7.5-7.5-7.5h-13.635c-4.136 0-7.5 3.364-7.5 7.5v13.635c0 4.136 3.364 7.5 7.5 7.5h13.635c4.136 0 7.5-3.364 7.5-7.5zm-5 13.635c0 1.378-1.121 2.5-2.5 2.5h-13.635c-1.379 0-2.5-1.122-2.5-2.5v-13.635c0-1.378 1.121-2.5 2.5-2.5h13.635c1.379 0 2.5 1.122 2.5 2.5z"/><path d="m100.277 142.114h-13.635c-4.136 0-7.5 3.364-7.5 7.5v13.635c0 4.136 3.364 7.5 7.5 7.5h13.635c4.136 0 7.5-3.364 7.5-7.5v-13.635c0-4.136-3.364-7.5-7.5-7.5zm2.5 21.135c0 1.378-1.122 2.5-2.5 2.5h-13.635c-1.378 0-2.5-1.122-2.5-2.5v-13.635c0-1.378 1.122-2.5 2.5-2.5h13.635c1.378 0 2.5 1.122 2.5 2.5z"/><path d="m142.317 163.249v-13.635c0-4.136-3.364-7.5-7.5-7.5h-13.635c-4.136 0-7.5 3.364-7.5 7.5v13.635c0 4.136 3.364 7.5 7.5 7.5h13.635c4.136 0 7.5-3.364 7.5-7.5zm-23.634 0v-13.635c0-1.378 1.122-2.5 2.5-2.5h13.635c1.379 0 2.5 1.122 2.5 2.5v13.635c0 1.378-1.121 2.5-2.5 2.5h-13.635c-1.379 0-2.5-1.122-2.5-2.5z"/><path d="m169.357 142.114h-13.635c-4.136 0-7.5 3.364-7.5 7.5v13.635c0 4.136 3.364 7.5 7.5 7.5h13.635c4.136 0 7.5-3.364 7.5-7.5v-13.635c0-4.136-3.364-7.5-7.5-7.5zm2.5 21.135c0 1.378-1.121 2.5-2.5 2.5h-13.635c-1.379 0-2.5-1.122-2.5-2.5v-13.635c0-1.378 1.121-2.5 2.5-2.5h13.635c1.379 0 2.5 1.122 2.5 2.5z"/><g><g><path d="m93.387 236.156h-10c-3.866 0-7-3.134-7-7s3.134-7 7-7h10c3.866 0 7 3.134 7 7s-3.134 7-7 7z" fill="#efefef"/><path d="m93.387 238.656c5.238 0 9.5-4.262 9.5-9.5s-4.262-9.5-9.5-9.5h-10c-5.238 0-9.5 4.262-9.5 9.5s4.262 9.5 9.5 9.5zm-14.5-9.5c0-2.481 2.019-4.5 4.5-4.5h10c2.481 0 4.5 2.019 4.5 4.5s-2.019 4.5-4.5 4.5h-10c-2.482 0-4.5-2.019-4.5-4.5z"/></g><g><path d="m172.613 236.156h-10c-3.866 0-7-3.134-7-7s3.134-7 7-7h10c3.866 0 7 3.134 7 7s-3.133 7-7 7z" fill="#efefef"/><path d="m172.613 238.656c5.238 0 9.5-4.262 9.5-9.5s-4.262-9.5-9.5-9.5h-10c-5.238 0-9.5 4.262-9.5 9.5s4.262 9.5 9.5 9.5zm-14.5-9.5c0-2.481 2.019-4.5 4.5-4.5h10c2.481 0 4.5 2.019 4.5 4.5s-2.019 4.5-4.5 4.5h-10c-2.481 0-4.5-2.019-4.5-4.5z"/></g></g><path d="m113.5 186.186v2c0 1.381 1.119 2.5 2.5 2.5s2.5-1.119 2.5-2.5v-2c0-1.381-1.119-2.5-2.5-2.5s-2.5 1.119-2.5 2.5z"/><path d="m125.5 186.186v2c0 1.381 1.119 2.5 2.5 2.5s2.5-1.119 2.5-2.5v-2c0-1.381-1.119-2.5-2.5-2.5s-2.5 1.119-2.5 2.5z"/><path d="m140 190.686c1.381 0 2.5-1.119 2.5-2.5v-2c0-1.381-1.119-2.5-2.5-2.5s-2.5 1.119-2.5 2.5v2c0 1.381 1.119 2.5 2.5 2.5z"/></g></g></svg>