<?xml version="1.0" encoding="utf-8"?>
<!-- Generator: Adobe Illustrator 24.3.0, SVG Export Plug-In . SVG Version: 6.00 Build 0)  -->
<svg version="1.1" id="SvgjsSvg1001" xmlns:svgjs="http://svgjs.com/svgjs"
	 xmlns="http://www.w3.org/2000/svg" xmlns:xlink="http://www.w3.org/1999/xlink" x="0px" y="0px" viewBox="0 0 256 256"
	 style="enable-background:new 0 0 256 256;" xml:space="preserve">
<style type="text/css">
	.st0{fill:#EDF5FF;}
	.st1{fill:#3B6BAB;}
	.st2{fill:#FA686C;}
	.st3{fill:#FEE682;}
	.st4{fill:#FFA5A7;}
	.st5{fill:#E40C57;}
	.st6{fill:#00D27E;}
	.st7{fill:#8EEB90;}
	.st8{fill:#FE7C42;}
	.st9{fill:#FEA730;}
	.st10{fill:#FDD034;}
</style>
<g id="SvgjsG1008">
	<path class="st0" d="M198.8,20.5v194.6l-5.4,5.4H62.6l-5.4-5.4V20.5c0-9.8,8-17.8,17.8-17.8h17.6c9.8,0,22.6,7.1,35.4,7.1
		s25.6-7.1,35.4-7.1H181C190.8,2.7,198.8,10.7,198.8,20.5z"/>
	<path class="st1" d="M198.8,215.1v20.3c0,9.8-8,17.8-17.8,17.8H75c-9.8,0-17.8-8-17.8-17.8v-20.3H198.8z M163.4,2.7v9
		c0,5.6-4.5,10.1-10.1,10.1h-50.7c-5.6,0-10.1-4.5-10.1-10.1v-9H163.4z"/>
	<path class="st2" d="M128,226c4.5,0,8.2,3.7,8.2,8.2c0,4.5-3.7,8.2-8.2,8.2c-4.5,0-8.2-3.7-8.2-8.2C119.8,229.7,123.5,226,128,226z
		"/>
	<path class="st3" d="M231.5,35.4c7.5,0,13.6,6.1,13.6,13.6s-6.1,13.6-13.6,13.6c-7.5,0-13.6-6.1-13.6-13.6S224,35.4,231.5,35.4z
		 M21.8,193.4c6,0,10.9,4.9,10.9,10.9c0,6-4.9,10.9-10.9,10.9s-10.9-4.9-10.9-10.9C10.9,198.2,15.8,193.4,21.8,193.4z"/>
	<path class="st4" d="M155.2,128H177v21.8h-21.8V128z"/>
	<path class="st5" d="M117.1,128h21.8v21.8h-21.8V128z"/>
	<path class="st2" d="M79,166.1h21.8v21.8H79V166.1z"/>
	<path class="st6" d="M117.1,166.1h21.8v21.8h-21.8V166.1z M155.2,166.1H177v21.8h-21.8V166.1z"/>
	<path class="st7" d="M79,128h21.8v21.8H79V128z"/>
	<path class="st8" d="M155.2,89.9H177v21.8h-21.8V89.9z"/>
	<path class="st9" d="M117.1,89.9h21.8v21.8h-21.8V89.9z"/>
	<path class="st10" d="M79,89.9h21.8v21.8H79V89.9z"/>
	<path class="st3" d="M155.2,51.7H177v21.8h-21.8V51.7z"/>
	<path class="st6" d="M117.1,51.7h21.8v21.8h-21.8V51.7z"/>
	<path class="st7" d="M79,51.7h21.8v21.8H79V51.7z"/>
	<circle cx="243.7" cy="205.6" r="4.1"/>
	<circle cx="227.4" cy="107.6" r="4.1"/>
	<circle cx="28.6" cy="132.1" r="4.1"/>
	<circle cx="15" cy="28.6" r="4.1"/>
	<path d="M181,0H75C63.7,0,54.5,9.2,54.5,20.5v215c0,11.3,9.2,20.5,20.5,20.5h106c11.3,0,20.5-9.2,20.5-20.5v-215
		C201.5,9.2,192.3,0,181,0z M95.3,5.4h65.4v6.3c0,4.1-3.3,7.4-7.4,7.4h-50.7c-4.1,0-7.4-3.3-7.4-7.4V5.4z M181,250.6H75
		c-8.3,0-15.1-6.8-15.1-15.1v-17.6h136.2v17.6C196.1,243.8,189.3,250.6,181,250.6L181,250.6z M196.1,212.4H59.9V20.5
		c0-8.3,6.8-15.1,15.1-15.1h14.9v6.3c0,7.1,5.7,12.8,12.8,12.8h50.7c7.1,0,12.8-5.7,12.8-12.8V5.4H181c8.3,0,15.1,6.8,15.1,15.1
		V212.4z M247.8,49c0-9-7.3-16.3-16.3-16.3c-9,0-16.3,7.3-16.3,16.3s7.3,16.3,16.3,16.3C240.5,65.4,247.8,58,247.8,49z M231.5,59.9
		c-6,0-10.9-4.9-10.9-10.9s4.9-10.9,10.9-10.9S242.4,43,242.4,49S237.5,59.9,231.5,59.9z M21.8,190.6c-7.5,0-13.6,6.1-13.6,13.6
		c0,7.5,6.1,13.6,13.6,13.6s13.6-6.1,13.6-13.6C35.4,196.7,29.3,190.6,21.8,190.6z M21.8,212.4c-4.5,0-8.2-3.7-8.2-8.2
		c0-4.5,3.7-8.2,8.2-8.2s8.2,3.7,8.2,8.2C30,208.8,26.3,212.4,21.8,212.4z"/>
	<path d="M128,223.3c-6,0-10.9,4.9-10.9,10.9s4.9,10.9,10.9,10.9c6,0,10.9-4.9,10.9-10.9S134,223.3,128,223.3z M128,239.7
		c-3,0-5.4-2.4-5.4-5.4s2.4-5.4,5.4-5.4s5.4,2.4,5.4,5.4S131,239.7,128,239.7z M100.8,163.4H79c-1.5,0-2.7,1.2-2.7,2.7v21.8
		c0,1.5,1.2,2.7,2.7,2.7h21.8c1.5,0,2.7-1.2,2.7-2.7v-21.8C103.5,164.6,102.3,163.4,100.8,163.4z M98,185.2H81.7v-16.3H98V185.2z
		 M138.9,163.4h-21.8c-1.5,0-2.7,1.2-2.7,2.7v21.8c0,1.5,1.2,2.7,2.7,2.7h21.8c1.5,0,2.7-1.2,2.7-2.7v-21.8
		C141.6,164.6,140.4,163.4,138.9,163.4z M136.2,185.2h-16.3v-16.3h16.3V185.2z M177,163.4h-21.8c-1.5,0-2.7,1.2-2.7,2.7v21.8
		c0,1.5,1.2,2.7,2.7,2.7H177c1.5,0,2.7-1.2,2.7-2.7v-21.8C179.7,164.6,178.5,163.4,177,163.4z M174.3,185.2H158v-16.3h16.3V185.2z
		 M100.8,125.3H79c-1.5,0-2.7,1.2-2.7,2.7v21.8c0,1.5,1.2,2.7,2.7,2.7h21.8c1.5,0,2.7-1.2,2.7-2.7V128
		C103.5,126.5,102.3,125.3,100.8,125.3z M98,147.1H81.7v-16.3H98V147.1z M138.9,125.3h-21.8c-1.5,0-2.7,1.2-2.7,2.7v21.8
		c0,1.5,1.2,2.7,2.7,2.7h21.8c1.5,0,2.7-1.2,2.7-2.7V128C141.6,126.5,140.4,125.3,138.9,125.3z M136.2,147.1h-16.3v-16.3h16.3V147.1
		z M177,125.3h-21.8c-1.5,0-2.7,1.2-2.7,2.7v21.8c0,1.5,1.2,2.7,2.7,2.7H177c1.5,0,2.7-1.2,2.7-2.7V128
		C179.7,126.5,178.5,125.3,177,125.3z M174.3,147.1H158v-16.3h16.3V147.1z M100.8,87.1H79c-1.5,0-2.7,1.2-2.7,2.7v21.8
		c0,1.5,1.2,2.7,2.7,2.7h21.8c1.5,0,2.7-1.2,2.7-2.7V89.9C103.5,88.4,102.3,87.1,100.8,87.1z M98,108.9H81.7V92.6H98V108.9z
		 M138.9,87.1h-21.8c-1.5,0-2.7,1.2-2.7,2.7v21.8c0,1.5,1.2,2.7,2.7,2.7h21.8c1.5,0,2.7-1.2,2.7-2.7V89.9
		C141.6,88.4,140.4,87.1,138.9,87.1z M136.2,108.9h-16.3V92.6h16.3V108.9z M177,87.1h-21.8c-1.5,0-2.7,1.2-2.7,2.7v21.8
		c0,1.5,1.2,2.7,2.7,2.7H177c1.5,0,2.7-1.2,2.7-2.7V89.9C179.7,88.4,178.5,87.1,177,87.1z M174.3,108.9H158V92.6h16.3V108.9z
		 M100.8,49H79c-1.5,0-2.7,1.2-2.7,2.7v21.8c0,1.5,1.2,2.7,2.7,2.7h21.8c1.5,0,2.7-1.2,2.7-2.7V51.7C103.5,50.2,102.3,49,100.8,49z
		 M98,70.8H81.7V54.5H98V70.8z M138.9,49h-21.8c-1.5,0-2.7,1.2-2.7,2.7v21.8c0,1.5,1.2,2.7,2.7,2.7h21.8c1.5,0,2.7-1.2,2.7-2.7V51.7
		C141.6,50.2,140.4,49,138.9,49z M136.2,70.8h-16.3V54.5h16.3V70.8z M177,49h-21.8c-1.5,0-2.7,1.2-2.7,2.7v21.8
		c0,1.5,1.2,2.7,2.7,2.7H177c1.5,0,2.7-1.2,2.7-2.7V51.7C179.7,50.2,178.5,49,177,49z M174.3,70.8H158V54.5h16.3V70.8z"/>
</g>
</svg>
