<?xml version="1.0" encoding="utf-8"?>
<!-- Generator: Adobe Illustrator 24.3.0, SVG Export Plug-In . SVG Version: 6.00 Build 0)  -->
<svg version="1.1" id="grocery" xmlns="http://www.w3.org/2000/svg" xmlns:xlink="http://www.w3.org/1999/xlink" x="0px" y="0px"
	 viewBox="0 0 200 200" style="enable-background:new 0 0 200 200;" xml:space="preserve">
<style type="text/css">
	.st0{fill:#484666;}
	.st1{fill:#98D1B3;}
	.st2{fill:#EC959E;}
	.st3{fill:#E9AF7F;}
	.st4{fill:#DFE1ED;}
	.st5{fill:#A8C9CE;}
	.st6{fill:#FF7F58;}
	.st7{fill:#C6D1DC;}
	.st8{fill:#FFFFFF;}
	.st9{fill-rule:evenodd;clip-rule:evenodd;fill:#484666;}
	.st10{fill:#81D4EF;fill-opacity:0;}
	.st11{fill:#E99B76;}
	.st12{fill:#FF7158;}
	.st13{fill:#85C5A4;}
	.st14{fill:#E78999;}
	.st15{fill:#8AC6CE;}
</style>
<g transform="translate(551.418 -500.198) scale(.26458)">
	<path class="st0" d="M-1456.7,1890.4c-3.1,0-6.1,1.2-8.4,3.2l-107,96.6c-1.3-3.4-2.5-6.8-4.2-10.1c-5.4-10.7-13.5-21.3-26.3-26.6
		c-14.6-6-28.2-1.1-39.7,3.1c0-1.6,0-4.1,0.3-5c1.2-5.9,9.6-25.4,9.6-25.4c4-8.3-1.9-18-11.1-18.1l0,0c-5.1,0-9.7,2.8-11.8,7.5
		c0,0-8.7,17.3-11.5,31.1c-0.8,4-0.8,8.2-1,12.5c-1.9-0.8-2.3-1.3-5.2-2.3c-11.7-4.2-25.5-9.4-40.3-3.3c-12.8,5.3-20.9,16-26.4,26.6
		c-5.4,10.7-8.6,22-11.3,31.4c-3.3,11.7-4.3,19.9-4.8,30h-63.5c-7,0-12.6,5.6-12.6,12.6v88.2h-157.5c-7,0-12.6,5.6-12.6,12.6v59.3
		l-54.7,85.1c-1.3,2-2,4.4-2,6.8v327.6c0,7,5.6,12.6,12.6,12.6c205.7,0,411.4,0,617.3,0c41.7,0,75.6-33.9,75.6-75.6
		c0-172.2,0-516.5,0-516.5c0-7-5.6-12.6-12.6-12.6h-24.2c1.3-54.7-19.2-107.9-57.6-147.3
		C-1450.1,1891.8-1453.3,1890.5-1456.7,1890.4L-1456.7,1890.4z"/>
	<path class="st1" d="M-1459.2,1922.3c28.4,33.6,44.9,75.5,44,119.3h-17.3c1.1-39.8-12.5-78.6-38.2-109L-1459.2,1922.3z"/>
	<path class="st2" d="M-1489.4,1949.5c21.6,25.8,32.8,58.5,31.7,92.1h-133.8L-1489.4,1949.5z"/>
	<path class="st1" d="M-1703.8,1976.8c1.2-0.5,12.5,0.3,22.1,3.7c9.6,3.5,17.6,7.7,17.6,7.7v-0.3c5.9,5.1,15,3.7,19-2.9
		c3.2-1.6,4.7-2.5,10.3-4.6c9.6-3.5,21-4.2,22.1-3.7c5.2,2.2,9.7,7.1,13.6,14.8c2.5,5,4.6,10.9,6.5,16.9l-36.7,33.1H-1731
		c0.3-7.2,1.1-12.8,4.1-23.2c2.6-9.3,5.5-19.1,9.4-26.8C-1713.5,1983.8-1709.1,1978.9-1703.8,1976.8L-1703.8,1976.8z"/>
	<path class="st3" d="M-1806.8,2066.8h428.4c0,0,0,255.5,0,428.4H-1706v-189c0-2.4-0.7-4.8-2-6.8l-54.7-85.1V2155
		c0-7-5.6-12.6-12.6-12.6h-31.5V2066.8z"/>
	<path class="st4" d="M-1976.9,2167.6h189v37.8h-189V2167.6z M-1966.5,2230.6h184.3l40.5,63H-1926L-1966.5,2230.6z"/>
	<path class="st5" d="M-1989.5,2241.3l33.6,52.3h-67.2L-1989.5,2241.3z M-2033.6,2318.8h88.2v302.4h-88.2V2318.8z"/>
	<path class="st4" d="M-1920.2,2318.8h189v302.4h-189V2318.8z"/>
	<path class="st6" d="M-1706,2520.3h327.6v50.4c0,28.1-22.3,50.4-50.4,50.4H-1706V2520.3z"/>
	<path class="st7" d="M-1818,2407c-4.1,0.3-7.8,2.6-9.9,6.1c0,0-6.4,10.7-12.9,23.1c-3.2,6.2-6.5,12.8-9.1,19
		c-2.6,6.2-4.9,10.9-4.9,18.4c0,19.9,18,34.2,37.8,34.2c19.8,0,37.8-14.3,37.8-34.2c0-7.4-2.3-12.2-4.9-18.4
		c-2.6-6.2-5.9-12.8-9.1-19c-6.5-12.4-12.9-23.1-12.9-23.1C-1808.7,2409-1813.2,2406.6-1818,2407z"/>
	<path class="st0" d="M-1826.6,2407c-4.1,0.3-7.8,2.6-9.9,6.1c0,0-6.4,10.7-12.9,23.1c-3.2,6.2-6.5,12.8-9.1,19
		c-2.6,6.2-4.9,10.9-4.9,18.4c0,19.9,18,34.2,37.8,34.2c19.8,0,37.8-14.3,37.8-34.2c0-7.4-2.3-12.2-4.9-18.4
		c-2.6-6.2-5.9-12.8-9.1-19c-6.5-12.4-12.9-23.1-12.9-23.1C-1817.3,2409-1821.9,2406.6-1826.6,2407z"/>
	<path class="st8" d="M-1825.7,2445.4c0.7,1.3,0.7,1.2,1.4,2.6c3.1,5.8,6.1,12,8.2,17c2.1,5.1,3,10.1,3,8.6c0,4-4.5,9-12.6,9
		c-8.1,0-12.6-5-12.6-9c0,1.5,0.8-3.5,3-8.6c2.1-5.1,5.2-11.2,8.2-17C-1826.4,2446.6-1826.4,2446.7-1825.7,2445.4L-1825.7,2445.4z"
		/>
	<path class="st9" d="M-1529.8,2010c-1.6,0.1-3.2,0.7-4.3,1.9l-5.9,6c-2.5,2.4-2.6,6.4-0.2,8.9c2.4,2.5,6.4,2.6,8.9,0.2
		c0.1-0.1,0.1-0.1,0.2-0.2l5.9-6c2.5-2.4,2.6-6.4,0.2-8.9C-1526.3,2010.7-1528,2010-1529.8,2010z M-1498.2,1984.8
		c-3.5,0-6.3,2.8-6.3,6.3c0,1.7,0.7,3.4,1.9,4.6l6,6c2.4,2.5,6.4,2.6,8.9,0.2c2.5-2.4,2.6-6.4,0.2-8.9c-0.1-0.1-0.1-0.1-0.2-0.2
		l-5.9-6C-1494.9,1985.5-1496.5,1984.8-1498.2,1984.8z M-1504.5,2016.3c-3.5,0-6.3,2.8-6.3,6.3c0,1.7,0.7,3.4,1.9,4.6l6,6
		c2.4,2.5,6.4,2.6,8.9,0.2c2.5-2.4,2.6-6.4,0.2-8.9c-0.1-0.1-0.1-0.1-0.2-0.2l-5.9-6C-1501.2,2017-1502.8,2016.3-1504.5,2016.3z"/>
	<path class="st10" d="M-1932.8,2299.8c-3.5,0-6.3,2.8-6.3,6.3v138.6c0,3.5,2.8,6.3,6.3,6.3h214.2c3.5,0,6.3-2.8,6.3-6.3v-138.6
		c0-3.5-2.8-6.3-6.3-6.3H-1932.8z M-1926.5,2312.4h201.6v126h-201.6V2312.4z"/>
	<path class="st11" d="M-1806.8,2066.8v75.6h31.5c7,0,12.6,5.6,12.6,12.6v59.3l54.7,85.1c1.3,2,2,4.4,2,6.8v189h327.6
		c0-4.3,0-6.2,0-10.6h-315v-189c0-2.4-0.7-4.8-2-6.8l-54.7-85.1v-59.3c0-7-5.6-12.6-12.6-12.6h-31.5v-65L-1806.8,2066.8z"/>
	<path class="st12" d="M-1706,2520.3v100.8h277.2c15.5,0,29-6.9,38.2-17.7c-7.5,4.4-16.1,7.1-25.6,7.1h-277.2v-90.2L-1706,2520.3z"
		/>
	<path class="st13" d="M-1594.4,2003.5l-34.7,31.3h-101.2c-0.3,2.2-0.6,4.4-0.7,6.7h101.9l36.7-33.1
		C-1593,2006.7-1593.8,2005.2-1594.4,2003.5L-1594.4,2003.5z"/>
	<path class="st14" d="M-1583.9,2034.9l-7.4,6.7h133.8c0-2.2-0.4-4.5-0.4-6.7H-1583.9z"/>
	<path class="st13" d="M-1432.6,2034.3c0,2.4,0.3,4.8,0,7.2h17.3c0-2.4-0.3-4.8-0.3-7.2H-1432.6z"/>
	<path class="st15" d="M-1989.5,2241.3l-33.6,52.3h11l28.1-43.7L-1989.5,2241.3z M-2033.6,2318.7v302.4h11v-302.4H-2033.6z"/>
	<path class="st7" d="M-1825.7,2445.4c-0.7,1.2-0.7,1.2-1.4,2.5c-3.1,5.8-6.1,12-8.2,17c-2.1,5.1-3,10.1-3,8.6c0,4,4.5,9,12.6,9
		c6.9,0,11-3.6,12.1-7.1c-1.5,0.4-3,0.7-4.9,0.7c-8.1,0-12.6-5-12.6-9c0,1.5,0.8-3.5,3-8.6c1.2-2.8,2.9-6.1,4.5-9.3
		c-0.3-0.5-0.4-0.9-0.6-1.3C-1825,2446.6-1825,2446.6-1825.7,2445.4L-1825.7,2445.4z"/>
	<rect x="-1432.3" y="2120.3" class="st8" width="18.9" height="327.6"/>
	<path class="st7" d="M-1976.9,2167.5v37.8h14.6v-37.8H-1976.9z M-1966.5,2230.5l40.5,63h14.6l-40.5-63H-1966.5z M-1920.2,2318.7
		v302.4h14.6v-302.4H-1920.2z"/>
</g>
</svg>
