<?xml version="1.0" encoding="utf-8"?>
<!-- Generator: Adobe Illustrator 24.3.0, SVG Export Plug-In . SVG Version: 6.00 Build 0)  -->
<svg version="1.1" id="Layer_3" xmlns="http://www.w3.org/2000/svg" xmlns:xlink="http://www.w3.org/1999/xlink" x="0px" y="0px"
	 viewBox="0 0 512 512" style="enable-background:new 0 0 512 512;" xml:space="preserve">
<style type="text/css">
	.st0{fill:#4FB5DC;}
	.st1{fill:#5ED3F2;}
	.st2{fill:#E2E7F6;}
	.st3{fill:#F2F2F2;}
	.st4{fill:#49A9CD;}
	.st5{fill:#2862BE;}
	.st6{fill:#976947;}
	.st7{fill:#C18E59;}
	.st8{fill:#F7C4B2;}
	.st9{fill:#FBE1CA;}
	.st10{fill:#474747;}
</style>
<path class="st0" d="M156.9,421.2c-10.6,26.5-10.6,56.1,0,82.6H8.3c10.6-26.5,10.6-56.1,0-82.6H156.9z"/>
<path class="st1" d="M156.9,421.2H8.3c4.4,11,6.9,22.7,7.6,34.5c13.5,29.3,42.7,48.1,75,48.1h66.1
	C146.3,477.2,146.3,447.7,156.9,421.2z"/>
<path class="st2" d="M156.9,503.7c-10.6-26.5-10.6-56.1,0-82.6c0-11-5.5-21.4-14.7-27.5c4.1-17.7,14.7-33.1,29.8-43.2
	c11.7-7.8,25.4-11.9,39.4-11.9h28c9.2,0,18.2-2.5,26-7.3l12,9c12.9,9.6,28.5,14.9,44.6,14.9s31.7-5.2,44.6-14.9l12-9
	c7.8,4.8,16.8,7.4,26,7.3h28c14,0,27.7,4.2,39.4,11.9c19.8,13.2,31.6,35.4,31.6,59.1v94.1H156.9z"/>
<path class="st3" d="M472.1,350.5c-11.7-7.8-25.4-11.9-39.4-11.9h-28c-9.2,0-18.2-2.5-26-7.3l-12,9c-26.4,19.8-62.8,19.8-89.2,0
	l-12-9c-7.8,4.8-16.8,7.4-26,7.3h-28c-25.5,0-49,13.6-61.6,35.7c23.1,76.8,93.8,129.4,174,129.5h179.9v-94.1
	C503.7,385.9,491.9,363.7,472.1,350.5z"/>
<path class="st4" d="M454.2,503.7l-33-82.6H223l-33,82.6H454.2z"/>
<path class="st1" d="M454.2,503.7l-33-82.6H223c-12.4,30.9,2.7,65.9,33.5,78.3c7.1,2.8,14.7,4.3,22.4,4.3H454.2z"/>
<path class="st5" d="M41.3,388.1h82.6c18.2,0,33,14.8,33,33l0,0H8.3l0,0C8.3,402.9,23,388.1,41.3,388.1z"/>
<path class="st6" d="M189.9,156.9l-8.3-49.5c0-31.2,14.7-60.6,39.6-79.3c17.2-12.9,38-19.8,59.5-19.8h82.6c21.4,0,42.3,7,59.5,19.8
	c25,18.7,39.6,48.1,39.6,79.3l-8.3,49.5"/>
<path class="st7" d="M422.8,28.1c-17.2-12.9-38-19.8-59.5-19.8h-57.8c-54.7,0-99.1,44.4-99.1,99.1l8.3,49.5h239.5l8.3-49.5
	C462.5,76.2,447.8,46.8,422.8,28.1z"/>
<path class="st7" d="M461.3,165.9c19.4,4,34.2,24.4,34.2,48.8c0,27.4-18.5,49.5-41.3,49.5c-16.7-0.8-31.2-11.5-36.9-27.3
	c1.8-4,3.4-8.2,4.6-12.4l7.6-26.4h8.3c13.7,0,24.8-11.1,24.8-24.8C462.5,170.9,462.1,168.3,461.3,165.9z"/>
<g>
	<path class="st8" d="M322.1,256c-18.1,0.1-35.4-7.1-48.1-19.9l-7.3-7.3l11.7-11.7l7.3,7.3c20.1,20.1,52.8,20.1,72.9,0l7.3-7.3
		l11.7,11.7l-7.3,7.3C357.5,248.9,340.1,256.1,322.1,256L322.1,256z"/>
	<path class="st8" d="M291.5,179.3l-10.7-10.7c-4.6-4.3-11.9-4.3-16.5,0l-10.7,10.7l-11.7-11.7l10.7-10.7
		c11.2-10.6,28.7-10.6,39.9,0l10.7,10.7L291.5,179.3z"/>
	<path class="st8" d="M390.5,179.3l-10.7-10.7c-4.6-4.3-11.9-4.3-16.5,0l-10.7,10.7L341,167.6l10.7-10.7c11.2-10.6,28.7-10.6,39.9,0
		l10.7,10.7L390.5,179.3z"/>
	<path class="st8" d="M265.5,331.2c14.6-9,23.6-25,23.6-42.2v-2c6.1,1.3,12.4,2,18.6,2h28.8c6.3,0,12.5-0.7,18.6-2v2
		c0,17.2,8.9,33.2,23.6,42.2l-12,9c-12.9,9.6-28.5,14.9-44.6,14.9s-31.7-5.2-44.6-14.9L265.5,331.2z"/>
</g>
<path class="st5" d="M322.1,355.1v8.3c0,13.7-11.1,24.8-24.8,24.8c-5.4,0-10.6-1.7-14.9-5L223,338.6h16.5c9.2,0,18.2-2.5,26-7.3
	l12,9C290.3,349.9,306,355.1,322.1,355.1z"/>
<path class="st5" d="M421.2,338.6l-59.5,44.6c-4.3,3.2-9.5,5-14.9,5c-13.7,0-24.8-11.1-24.8-24.8v-8.3c16.1,0,31.7-5.2,44.6-14.9
	l12-9c7.8,4.8,16.8,7.4,26,7.3H421.2z"/>
<path class="st9" d="M429.4,107.4v41.3h8.3c13.7,0,24.8,11.1,24.8,24.8s-11.1,24.8-24.8,24.8h-8.3l-7.5,26.4
	c-5.8,20.3-18.6,37.8-36.1,49.5c-14.6,9.7-31.7,14.9-49.3,14.9h-28.8c-17.5,0-34.7-5.2-49.3-14.9c-17.5-11.7-30.3-29.2-36.1-49.5
	l-7.5-26.4h-8.3c-13.7,0-24.8-11.1-24.8-24.8s11.1-24.8,24.8-24.8h8.3c0-25.5,13.8-49,36.1-61.3L289,66.1
	c31.4,31.4,75.1,47.2,119.3,43.2L429.4,107.4z"/>
<path class="st4" d="M74.3,454.2h16.5v49.5H74.3V454.2z"/>
<path class="st4" d="M41.3,454.2h16.5v49.5H41.3V454.2z"/>
<path class="st4" d="M107.4,454.2h16.5v49.5h-16.5V454.2z"/>
<path class="st10" d="M66.1,388.1V90.8c0-9.1,7.4-16.5,16.5-16.5s16.5,7.4,16.5,16.5v297.3"/>
<path d="M476.7,343.6c-13-8.7-28.3-13.3-44-13.3h-28.1c-21.1-0.1-38.7-16-40.9-37c22.1-6.4,41.1-20.5,53.7-39.8
	c8.6,11.7,22.2,18.7,36.7,18.9c27.3,0,49.5-25.9,49.5-57.8c1.1-24.4-13.6-46.8-36.4-55.5c-1.1-2.3-2.5-4.4-4.1-6.4l7.3-44.1
	c0.1-0.4,0.1-0.9,0.1-1.4C470.7,48.1,422.6,0,363.4,0h-82.6c-59.3,0-107.4,48.1-107.4,107.4c0,0.5,0,0.9,0.1,1.4l7.3,44.1
	c-4.8,5.8-7.4,13.1-7.4,20.6c0,18.2,14.8,33,33,33h2l5.8,20.4c9.2,32,34.1,57.1,66.1,66.5c-2.2,21-19.8,36.9-40.9,37h-28
	c-33.2,0-62.9,20.7-74.3,51.9c-4.3-1.5-8.7-2.3-13.3-2.4h-16.5v-289c0-13.7-11.1-24.8-24.8-24.8S57.8,77.2,57.8,90.8v289H41.3
	C18.5,379.9,0,398.4,0,421.2c0,1,0.2,2.1,0.6,3.1c9.9,24.5,9.9,51.9,0,76.5c-1.7,4.2,0.4,9,4.6,10.7c1,0.4,2,0.6,3,0.6h495.5
	c4.6,0,8.3-3.7,8.3-8.3v-94.1C512,383.1,498.8,358.3,476.7,343.6z M272.5,346.8c12.1,9,26.3,14.5,41.3,16v0.5
	c0,9.1-7.4,16.5-16.5,16.5c-3.6,0-7-1.2-9.9-3.3L247,346.3c6.1-0.8,12.1-2.6,17.7-5.3L272.5,346.8z M379.4,341
	c5.6,2.7,11.5,4.5,17.7,5.3l-40.4,30.3c-2.9,2.1-6.3,3.3-9.9,3.3c-9.1,0-16.5-7.4-16.5-16.5v-0.5c15-1.5,29.2-7.1,41.3-16L379.4,341
	z M228.6,429.4h187l26.4,66.1H202.1L228.6,429.4z M412.9,412.9H231.2v-57.8l46.2,34.7c5.7,4.3,12.7,6.6,19.8,6.6
	c9.5,0,18.6-4.2,24.8-11.4c6.2,7.2,15.3,11.4,24.8,11.4c7.1,0,14.1-2.3,19.8-6.6l46.2-34.7V412.9z M487.2,214.7
	c0,22.8-14.8,41.3-33,41.3c-12.2-0.6-23-8.1-27.8-19.3c1.3-3.2,2.5-6.5,3.5-9.8l5.8-20.4h2c16.2,0,29.9-11.8,32.5-27.8
	C481.3,187.3,487.6,200.7,487.2,214.7z M226.3,34.7c15.7-11.8,34.9-18.1,54.5-18.2h82.6c49.9,0,90.5,40.3,90.8,90.2l-5.9,35.6
	c-3.4-1.2-7-1.9-10.6-1.9v-33c0-4.6-3.7-8.3-8.2-8.3c-0.3,0-0.5,0-0.8,0l-21.1,1.9c-41.8,3.9-83.1-11.1-112.7-40.8
	c-2.6-2.6-6.6-3.2-9.8-1.4l-38.2,21.3c-22.3,12.4-37.2,34.9-39.9,60.3h-0.4c-3.6,0-7.2,0.7-10.6,1.9l-5.9-35.6
	C190.2,78.3,203.6,51.7,226.3,34.7z M230.2,222.3l-7.5-26.4c-1-3.5-4.3-6-7.9-6h-8.3c-9.1,0-16.5-7.4-16.5-16.5s7.4-16.5,16.5-16.5
	h8.3c4.6,0,8.3-3.7,8.3-8.3c0-22.5,12.2-43.2,31.8-54.1l32.9-18.3c32.8,30.3,76.9,45.3,121.4,41.2l12.1-1.1v32.2
	c0,4.6,3.7,8.3,8.3,8.3h8.3c9.1,0,16.5,7.4,16.5,16.5s-7.4,16.5-16.5,16.5h-8.3c-3.7,0-6.9,2.4-7.9,6l-7.5,26.4
	c-9.9,34.6-41.5,58.4-77.5,58.4h-28.8C271.7,280.8,240.1,256.9,230.2,222.3L230.2,222.3z M307.7,297.3h28.8c3.7,0,7.3-0.2,10.9-0.7
	c1.7,13.2,8,25.4,17.7,34.5l-3.4,2.5c-23.5,17.6-55.8,17.6-79.3,0l-3.4-2.5c9.7-9.1,16-21.3,17.7-34.5
	C300.4,297,304,297.3,307.7,297.3L307.7,297.3z M176.6,357.4c10.3-6.9,22.4-10.6,34.8-10.5h3.3v72.7l-30.4,75.9h-21.6
	c-8-23.2-7.3-48.5,1.8-71.3c0.4-1,0.6-2,0.6-3.1c0-11.6-5-22.6-13.6-30.4C155.9,377.1,164.7,365.3,176.6,357.4L176.6,357.4z
	 M74.3,90.8c0-4.6,3.7-8.3,8.3-8.3s8.3,3.7,8.3,8.3v289H74.3V90.8z M41.3,396.4h82.6c10.5,0,19.8,6.6,23.4,16.5H17.9
	C21.4,403,30.8,396.4,41.3,396.4z M123.9,495.5v-41.3h-16.5v41.3H90.8v-41.3H74.3v41.3H57.8v-41.3H41.3v41.3H19.8
	c6.2-21.6,6.2-44.5-0.1-66.1h125.6c-6.3,21.6-6.3,44.5-0.1,66.1H123.9z M495.5,495.5h-35.7l-30.4-75.9v-72.7h3.3
	c34.7,0,62.7,28.1,62.8,62.8V495.5z"/>
</svg>
