<svg id="Layer_1" enable-background="new 0 0 512 512" viewBox="0 0 512 512" xmlns="http://www.w3.org/2000/svg"><g><g clip-rule="evenodd" fill-rule="evenodd"><path d="m316.93 390.44 77.49-42.18c13.48-7.3 18.51-24.33 11.18-37.81-7.33-13.46-24.36-18.48-37.81-11.15l-83.98 45.7z" fill="#fbc894"/><path d="m304.3 440.62 162.18-88.23c13.48-7.3 18.51-24.33 11.18-37.79s-24.36-18.48-37.81-11.15l-83.76 45.56c-1.35-10.41-8.51-19.66-19.11-23.07-31.96-10.3-63.93-20.57-95.92-30.87-25.59-8.24-50.67-5.9-74.28 6.95l-98.39 53.52 56.6 103.83 36.66-19.96c17.11-9.31 35.29-10.98 53.82-5.03l35.04 11.29c18.53 5.96 36.68 4.26 53.79-5.05z" fill="#fbbd80"/><path d="m104.22 336.04-35.84 19.5 56.6 103.83 36.66-19.96c.58-.3 1.15-.6 1.73-.91z" fill="#e2aa73"/><path d="m31.94 351.29 81.42 141.31c1.98 3.46 6.45 4.67 9.94 2.66l36.19-20.84c3.46-2 4.67-6.48 2.66-9.94l-81.41-141.29c-2-3.46-6.45-4.67-9.94-2.69l-36.2 20.84c-3.46 2.01-4.67 6.49-2.66 9.95z" fill="#0593fc"/><path d="m200.38 340.52c12.71 4.09 25.4 8.18 38.09 12.28 27.13 8.73 54.26 17.47 81.39 26.2 14.61 4.7 30.4-3.41 35.09-17.99 4.7-14.58-3.41-30.37-17.99-35.07l-74.42-23.95z" fill="#fbbd80"/><path d="m31.94 351.29 81.42 141.31c.05.08.11.19.19.3l-75.73-131.4c-2-3.49-.8-7.94 2.66-9.94l36.22-20.84c3.35-1.92 7.66-.88 9.75 2.36l-5.71-9.89c-2-3.46-6.45-4.67-9.94-2.69l-36.2 20.84c-3.46 2.01-4.67 6.49-2.66 9.95z" fill="#0584e3"/></g><path d="m255.5 95.35v-66.92c0-7 5.66-12.66 12.66-12.66h123c7 0 12.66 5.66 12.66 12.66v66.92h-25.29v-54.29h-97.73v54.29z" fill="#cf3939"/><g clip-rule="evenodd" fill-rule="evenodd"><path d="m216.12 71.43h227.07c7.94 0 14.44 6.48 14.44 14.42v152.19c0 7.94-6.51 14.42-14.44 14.42h-227.07c-7.94 0-14.44-6.48-14.44-14.42v-152.19c0-7.94 6.5-14.42 14.44-14.42z" fill="#ff4646"/><path d="m318.74 106.5h21.83c3.16 0 5.71 2.55 5.71 5.71v33.09h33.09c3.16 0 5.74 2.58 5.74 5.74v21.8c0 3.16-2.58 5.74-5.74 5.74h-33.09v33.09c0 3.16-2.55 5.71-5.71 5.71h-21.83c-3.16 0-5.71-2.55-5.71-5.71v-33.09h-33.09c-3.16 0-5.74-2.58-5.74-5.74v-21.8c0-3.16 2.58-5.74 5.74-5.74h33.09v-33.09c0-3.16 2.55-5.71 5.71-5.71z" fill="#f1f1f1"/><path d="m218.12 238.04v-152.19c0-7.94 6.51-14.42 14.44-14.42h-16.45c-7.94 0-14.44 6.48-14.44 14.42v152.19c0 7.94 6.51 14.42 14.44 14.42h16.45c-7.93-.01-14.44-6.49-14.44-14.42z" fill="#e63f3f"/></g></g><path d="m491.83 312.61c-4.68-8.61-12.46-14.88-21.9-17.67-9.45-2.79-19.38-1.75-27.97 2.93l-23.4 12.73c-.35-.76-.71-1.51-1.11-2.25-4.68-8.61-12.46-14.88-21.9-17.67s-19.38-1.75-27.97 2.93l-40.55 22.07c-27.99-9.02-55.98-18.04-84-27.05-28.64-9.22-56.54-6.61-82.95 7.76l-70.34 38.29-7.74-13.42c-4.28-7.38-13.77-9.92-21.17-5.67l-37.38 21.53c-7.37 4.27-9.93 13.76-5.71 21.14 0 .01.01.02.01.02l84.08 145.97c2.07 3.57 5.41 6.13 9.41 7.2 1.35.36 2.71.54 4.06.54 2.68 0 5.33-.7 7.69-2.07l37.35-21.51c7.4-4.25 9.97-13.74 5.72-21.18l-7.41-12.86 3.77-2.04c15.68-8.54 32.24-10.09 49.25-4.6l36.17 11.65c8.31 2.67 16.54 4.01 24.65 4.01 12.71 0 25.13-3.27 37.15-9.81l167.41-91.11c8.61-4.68 14.88-12.46 17.67-21.9 2.83-9.44 1.79-19.37-2.89-27.96zm-116.62-4.95c4.84-2.64 10.45-3.22 15.8-1.64s9.75 5.12 12.37 9.95c.41.76.75 1.53 1.06 2.31l-40.29 21.93c-3.45-7.48-9.33-13.67-16.7-17.44zm-259.77 188.18-83.59-145.11 36.55-21.05 72.17 125.29c.02.04.03.07.05.11.06.11.12.2.19.3l11.18 19.41zm363.99-159.79c-1.58 5.35-5.12 9.75-9.98 12.39l-167.41 91.11c-15.69 8.54-32.26 10.09-49.26 4.63l-36.17-11.65c-21.34-6.89-42.14-4.95-61.8 5.77l-4.11 2.23-52.99-91.99 70-38.1c22.41-12.19 46.1-14.41 70.41-6.58 33.02 10.63 66.02 21.26 99.02 31.89 7.62 2.45 13.21 9.21 14.25 17.22.03.26.09.52.15.77-.02.28-.02.55-.01.84.11 2.49-.23 4.95-.98 7.31-1.69 5.26-5.35 9.56-10.32 12.1-4.96 2.55-10.59 3.02-15.84 1.33-28.01-9.04-56.02-18.06-84.03-27.07-4.21-1.35-8.71.96-10.06 5.16s.96 8.71 5.16 10.06c28 9.01 56.01 18.03 84.02 27.07 3.69 1.18 7.47 1.77 11.24 1.77 5.77 0 11.51-1.38 16.81-4.1 8.76-4.5 15.24-12.11 18.23-21.43 1.07-3.31 1.65-6.73 1.75-10.2l82.09-44.68c4.84-2.64 10.45-3.22 15.8-1.64s9.75 5.12 12.39 9.99c2.63 4.84 3.22 10.45 1.64 15.8zm-264.6-75.75h234.4c12.63 0 22.9-10.26 22.9-22.88v-157.09c0-12.61-10.28-22.88-22.9-22.88h-32.65v-36.4c-.01-11.61-9.46-21.05-21.07-21.05h-126.96c-11.61 0-21.06 9.45-21.06 21.06v36.4h-32.65c-12.63 0-22.9 10.26-22.9 22.88v157.1c-.01 12.6 10.26 22.86 22.89 22.86zm48.64-239.24c0-2.8 2.28-5.07 5.07-5.07h126.96c2.8 0 5.07 2.28 5.07 5.07v36.4h-10.12v-23.36c0-4.42-3.58-7.99-7.99-7.99h-100.87c-4.42 0-7.99 3.58-7.99 7.99v23.36h-10.12v-36.4zm26.11 36.39v-15.36h84.9v15.36zm-81.66 22.88c0-3.8 3.1-6.89 6.92-6.89h234.4c3.81 0 6.92 3.09 6.92 6.89v157.1c0 3.8-3.1 6.89-6.92 6.89h-234.4c-3.81 0-6.92-3.09-6.92-6.89zm72.79 103.72h26.13v26.16c0 7.66 6.24 13.89 13.92 13.89h22.54c7.66 0 13.89-6.23 13.89-13.89v-26.16h26.16c7.67 0 13.92-6.24 13.92-13.92v-22.51c0-7.67-6.24-13.92-13.92-13.92h-26.16v-26.16c0-7.66-6.23-13.89-13.89-13.89h-22.54c-7.67 0-13.92 6.23-13.92 13.89v26.16h-26.13c-7.67 0-13.92 6.24-13.92 13.92v22.51c0 7.68 6.24 13.92 13.92 13.92zm2.07-34.36h32.06c4.42 0 7.99-3.58 7.99-7.99v-32.06h18.37v32.06c0 4.42 3.58 7.99 7.99 7.99h32.09v18.37h-32.09c-4.42 0-7.99 3.58-7.99 7.99v32.06h-18.37v-32.06c0-4.42-3.58-7.99-7.99-7.99h-32.06z"/></svg>