<?xml version="1.0" encoding="utf-8"?>
<!-- Generator: Adobe Illustrator 24.3.0, SVG Export Plug-In . SVG Version: 6.00 Build 0)  -->
<svg version="1.1" id="grid" xmlns="http://www.w3.org/2000/svg" xmlns:xlink="http://www.w3.org/1999/xlink" x="0px" y="0px"
	 viewBox="0 0 200 200" style="enable-background:new 0 0 200 200;" xml:space="preserve">
<style type="text/css">
	.st0{fill:#FF7885;}
	.st1{fill:#5AD0FF;}
	.st2{fill:#FFD766;}
	.st3{fill:#36FFB6;}
</style>
<path class="st0" d="M65.5,110.6h23.8v85.1H4.3v-85.1h51.9"/>
<path class="st1" d="M89.4,39.6v49.8H4.3V4.3h85.1v26"/>
<path class="st2" d="M195.7,65.5v23.8h-85.1V4.3h85.1v51.9"/>
<path class="st3" d="M134.5,195.7h-23.8v-85.1h85.1v85.1h-51.9"/>
<path d="M4.3,200h85.1c2.6,0,4.3-1.7,4.3-4.3v-85.1c0-2.6-1.7-4.3-4.3-4.3H65.5v8.5h19.6v76.6H8.5v-76.6h47.7v-8.5H4.3
	c-2.6,0-4.3,1.7-4.3,4.3v85.1C0,198.3,1.7,200,4.3,200z M4.3,93.6h85.1c2.6,0,4.3-1.7,4.3-4.3V39.6h-8.5v45.5H8.5V8.5h76.6v21.7h8.5
	v-26c0-2.6-1.7-4.3-4.3-4.3H4.3C1.7,0,0,1.7,0,4.3v85.1C0,91.5,1.7,93.6,4.3,93.6z M195.7,0h-85.1c-2.6,0-4.3,1.7-4.3,4.3v85.1
	c0,2.6,1.7,4.3,4.3,4.3h85.1c2.6,0,4.3-1.7,4.3-4.3V65.5h-8.5v19.6h-76.6V8.5h76.6v47.7h8.5V4.3C200,1.7,198.3,0,195.7,0z
	 M195.7,106.4h-85.1c-2.6,0-4.3,1.7-4.3,4.3v85.1c0,2.6,1.7,4.3,4.3,4.3h23.8v-8.5h-19.6v-76.6h76.6v76.6h-47.7v8.5h51.9
	c2.6,0,4.3-1.7,4.3-4.3v-85.1C200,108.5,198.3,106.4,195.7,106.4z"/>
</svg>
