<svg id="svg8" height="512" viewBox="0 0 16.933333 16.933333" width="512" xmlns="http://www.w3.org/2000/svg" xmlns:svg="http://www.w3.org/2000/svg"><g id="layer2"><path id="rect4820-7" d="m7.4081293.26585087h8.4662777c.439718 0 .793714.35397621.793714.79366863v7.4075739c0 .4396925-.353996.7936687-.793714.7936687h-8.4662777c-.4397174 0-.7937137-.3539762-.7937137-.7936687v-7.4075739c0-.43969242.3539963-.79366863.7937137-.79366863z" fill="#f95"/><path id="path4836-6" d="m12.699554.26585087-.000001 3.17467443-1.058285-.5291124-1.058285.5291124v-3.17467448" fill="#e4eff8"/><path id="path4822-3" d="m7.1802468.30253738c-.3271323.09798395-.565831.39714627-.565831.75698202v7.4075739c0 .4396924.3539962.7936686.7937136.7936686h8.4662796c.359855 0 .659035-.2386852.757024-.5657989-.0726.021745-.148021.036686-.227882.036686h-8.4662792c-.4397174 0-.7937137-.3539762-.7937137-.7936686v-7.40757332c0-.0798566.014943-.15527499.036689-.2278697z" fill="#ff7f29"/><path id="path4838-1" d="m10.582984.26585087v3.17467443l.529143-.2645561v-2.91011833z" fill="#c4dcf0"/><path id="rect4824-7" d="m.52927729 11.112655h2.38114171c.1465722 0 .2645708.117992.2645708.264555v4.762014c0 .146564-.1179986.264556-.2645708.264556h-2.38114171c-.14657224 0-.26457083-.117992-.26457083-.264556v-4.762014c0-.146563.11799859-.264555.26457083-.264555z" fill="#549ad4"/><path id="path4826-5" d="m.52927765 11.112655c-.14657229 0-.26457129.117992-.26457129.264557v4.76201c0 .146564.117999.264556.26457129.264556h2.38114085c.1465722 0 .2645713-.117992.2645713-.264556v-.264555h-2.1165698c-.14657217 0-.26457117-.117992-.26457117-.264556v-4.497455z" fill="#3588cb"/><path id="path4828-9" d="m3.1982433 11.734258v3.810746c.3695723-.07833 1.0272797-.19945 1.5641737-.19945.7842958 0 1.727085 1.322781 2.910284 1.322781 1.3228554 0 7.020955-3.381359 7.020955-3.381359.324982-.169279.515659-.508444.387039-.85154-.12862-.343098-.505319-.506881-.851589-.387017l-4.175264 1.445242-.04237.0124c.06033-.32163-.080026-.658537-.3803217-.831905l-2.7495751-1.58734s-.4670231-.281606-1.3249252-.281606c-.6029746.000001-1.3944429.361946-2.3584067.929048z" fill="#ffc6a0"/><path id="path4830-6" d="m15.059509 12.392032c-.07174.151016-.201524.280235-.365853.365831 0 0-5.6980996 3.381359-7.020955 3.381359-1.183199.000002-2.1259882-1.322781-2.910284-1.322781-.536894.000002-1.1946014.121119-1.5641737.199451v.529112c.3695723-.07833 1.0272797-.199449 1.5641737-.199449.7842958 0 1.727085 1.32278 2.910284 1.32278 1.3228554 0 7.020955-3.381359 7.020955-3.381359.324982-.169278.515659-.508444.387039-.85154-.0058-.01548-.0144-.02867-.02119-.0434z" fill="#ffaf7a"/><path id="path4832-2" d="m6.3499738 1.0599607-.0005291 7.4070571c-.0000405.5816808.4708873 1.058224 1.0588016 1.0582248h8.4662787c.58902.0000008 1.058802-.476544 1.058802-1.0582248v-7.4070571c0-.58168073-.470888-1.05874157-1.058802-1.05874157-2.910283-.00274304-5.555995 0-8.4662725 0-.5879083 0-1.0582382.47706105-1.0582787 1.05874157zm1.0582849-.52962914h2.9097663v2.91011824c.000397.1964443.207181.3239721.382905.2361373l.941502-.4686574.939434.4686574c.175725.087835.382515-.039693.382905-.2361373v-2.91011824h2.909767c.290485 0 .529142.23192489.529142.52962914v7.4070571c0 .2977043-.241646.5291304-.529142.5291124l-8.4662793-.0005291c-.2904867-.0000059-.5296798-.2308915-.5296591-.5285958l.0005167-7.4070446c.0000201-.29047046.2314212-.52962914.5291424-.52962914zm3.4389093 0h1.587944v2.48228134l-.67538-.3379293c-.0745-.037245-.162175-.037245-.236667 0l-.675897.3379293zm-6.6003287 1.58682054c-.353106 0-.353106.530146 0 .5301457h1.0448497c.3517892 0 .3517892-.5301457 0-.5301457zm-3.98200351 1.0582248c-.35310605 0-.35310605.5301458 0 .5301458h3.17485461c.3517893 0 .3517893-.5301458 0-.5301458zm1.85199851 1.5873372c-.353106 0-.353106.5301458 0 .5301458h2.1165698c.3517892 0 .3517892-.5301458 0-.5301458zm-1.32285607 1.5873373c-.35310604 0-.35310604.5301458 0 .5301458h2.64571217c.3517893 0 .3517893-.5301458 0-.5301458zm12.43484777.5285957c-.132415 0-.265088.088155-.265088.2640396v.7952186c0 .353086.529659.353086.529659 0v-.7952186c0-.1758847-.132156-.2640396-.264571-.2640396zm1.058284 0c-.132285 0-.264571.088155-.264571.2640396v.7952186c0 .352914.529143.352914.529143 0v-.7952186c0-.1758847-.132287-.2640396-.264572-.2640396zm1.058285 0c-.132286 0-.264571.088155-.264571.2640396v.7952186c0 .352914.529143.352914.529143 0v-.7952186c0-.1758847-.132286-.2640396-.264572-.2640396zm-9.7886181 3.6624499c-.6274116 0-1.3663717.33301-2.1227705.752849-.03831-.252989-.2616197-.446439-.5239751-.446439h-2.38062429c-.2885684 0-.52914244.235232-.52914244.529629v4.760978c0 .29732.24057404.529113.52914244.529113h2.38062429c.2885683 0 .5296591-.231261.5296591-.529113v-.372548c.3727251-.07249.8886228-.154497 1.3218227-.154497.2981726 0 .6678063.277819 1.1564657.613336.488658.335519 1.0759156.708928 1.7558846.708928.3864343 0 1.0311084-.229292 1.7615689-.550814.7304617-.321521 1.5704577-.747436 2.3687387-1.171901 1.590096-.845491 3.00083-1.682305 3.013115-1.690163.415116-.218226.698401-.679573.51054-1.178619-.178492-.476109-.701737-.710487-1.185403-.543063l-3.873488 1.340349c-.061727-.288178-.236773-.538876-.5053723-.693943l-2.7459598-1.585788c-.027649-.01597-.548249-.321479-1.460826-.318294zm0 .529113c.7105044-.000291 1.1211499.204027 1.1910872.244404l2.7521608 1.587854c.2578324.148852.3364735.47639.1932611.724429-.1427015.24715-.4650871.342103-.7229202.19325l-1.5915613-.919746c-.3035552-.168387-.5628207.279502-.2656046.45884l1.5915613.917679c.5037787.29084 1.1488187.127029 1.4453238-.3865.03309-.05731.06194-.118934.08319-.179299l4.082768-1.412172c.209579-.07254.439016.01829.517774.228387.07192.191822-.02776.403748-.268705.528595 0 0-1.427399.846307-3.010531 1.688096-.791567.420895-1.6241571.841319-2.3341179 1.153817-.7099615.312497-1.278919.50586-1.5466047.50586-.5061528 0-.9805314-.289015-1.4551417-.614886-.4528468-.310929-.9803875-.718229-1.4572086-.706861-.4473386 0-.9435805.0746-1.3218227.145712v-3.329171c.9006055-.520353 1.606573-.828288 2.1170915-.828288zm-5.02736989.306926h2.38062429v4.760978h-2.38062429zm.79371369 3.703787c-.1461186 0-.2645713.118445-.2645713.264556 0 .14611.1184527.264556.2645713.264556.1461187 0 .2645712-.118446.2645712-.264556 0-.146111-.1184525-.264556-.2645712-.264556z" font-variant-ligatures="normal" font-variant-position="normal" font-variant-caps="normal" font-variant-numeric="normal" font-variant-alternates="normal" font-feature-settings="normal" text-indent="0" text-align="start" text-decoration-line="none" text-decoration-style="solid" text-decoration-color="#000000" text-transform="none" text-orientation="mixed" white-space="normal" shape-padding="0" isolation="auto" mix-blend-mode="normal" solid-color="#000000" solid-opacity="1" vector-effect="none"/></g></svg>