<?xml version="1.0" encoding="utf-8"?>
<!-- Generator: Adobe Illustrator 24.3.0, SVG Export Plug-In . SVG Version: 6.00 Build 0)  -->
<svg version="1.1" id="parking" xmlns="http://www.w3.org/2000/svg" xmlns:xlink="http://www.w3.org/1999/xlink" x="0px" y="0px"
	 viewBox="0 0 200 200" style="enable-background:new 0 0 200 200;" xml:space="preserve">
<style type="text/css">
	.st0{fill:#D68751;}
	.st1{fill:#E1EBF4;}
	.st2{fill:#2D4356;}
	.st3{fill:#81D9E3;}
	.st4{fill:#9387A2;}
	.st5{fill:#FFDB80;}
	.st6{opacity:0.5;fill:#FFFFFF;enable-background:new    ;}
	.st7{opacity:0.5;fill:#5F5968;enable-background:new    ;}
	.st8{opacity:0.25;fill:#0F423C;enable-background:new    ;}
	.st9{opacity:0.4;fill:#72492D;enable-background:new    ;}
	.st10{opacity:0.45;fill:#AD9359;enable-background:new    ;}
	.st11{opacity:0.5;fill:#F9EDD2;enable-background:new    ;}
	.st12{opacity:0.3;fill:#E5D0C3;enable-background:new    ;}
</style>
<rect x="172.5" y="153.1" class="st0" width="24.3" height="46.9"/>
<path class="st1" d="M146.1,22v14.3h31.2c0,0-1.7,116.9,0,116.9h13.6V25.2L146.1,22z"/>
<path class="st2" d="M146.8,115.6h12.6c1.7,0,3.1-1.4,3.1-3.1c0-8.6-7-15.6-15.6-15.6h-10.8c-2.6-6.4-5.5-12.6-8.8-18.6
	c-1.7-2.9-4.8-4.7-8.2-4.7H43.3c-3.4,0-6.5,1.8-8.2,4.7c-3.3,6-6.2,12.3-8.8,18.6H15.6C7,96.9,0,103.9,0,112.5
	c0,1.7,1.4,3.1,3.1,3.1h12.6c-6.6,6-16.6,18.6-15.7,39.6C0.9,176,4,179.9,7.2,181c0.2,0.1,0.4,0.1,0.6,0.2v9.5
	c0,5.2,4.2,9.4,9.4,9.4h15.6c5.2,0,9.4-4.2,9.4-9.4v-10h1.4c0.8,0,1.6-0.3,2.2-0.9l3.8-3.8h63.3l3.8,3.8c0.6,0.6,1.4,0.9,2.2,0.9
	h1.4v10c0,5.2,4.2,9.4,9.4,9.4h15.6c5.2,0,9.4-4.2,9.4-9.4v-9.5c0.8-0.2,1.6-0.5,2.2-1.1c2.2-1.8,4.7-6.2,5.5-24.9
	C163.3,134.2,153.4,121.7,146.8,115.6z M146.9,103.1c4,0,7.5,2.5,8.8,6.2h-14.5l-2.3-6.2H146.9z M40.6,81.3c0.6-1,1.6-1.6,2.7-1.6
	h75.8c1.1,0,2.2,0.6,2.7,1.6c2.2,3.9,4.6,9.1,7,14.4c2.3,5.3,4.5,10.7,6.2,15.2H27.7C27.7,110.9,38.1,85.9,40.6,81.3z M6.8,109.4
	c1.3-3.7,4.9-6.2,8.8-6.2h8.2c-0.9,2.3-1.7,4.4-2.4,6.2H6.8z M7.4,142.2h23.5c-1.5,6.4-7.1,10.9-13.7,10.9H6.3
	C6.2,149.4,6.6,145.8,7.4,142.2z M35.9,190.6c0,1.7-1.4,3.1-3.1,3.1H17.2c-1.7,0-3.1-1.4-3.1-3.1v-10h21.9V190.6z M148.4,190.6
	c0,1.7-1.4,3.1-3.1,3.1h-15.6c-1.7,0-3.1-1.4-3.1-3.1v-10h21.4c0.2,0,0.3,0,0.5,0V190.6z M153.2,174.9l-0.2,0
	c-1.7-0.3-3.4-0.5-5.1-0.5h-27.7l-3.8-3.8c-0.6-0.6-1.4-0.9-2.2-0.9H48.3c-0.8,0-1.6,0.3-2.2,0.9l-3.8,3.8H10.1c-0.3,0-0.7,0-1,0.2
	c-0.7-1.4-1.9-5.3-2.5-15.1h10.7c10,0,18.5-7.3,20-17.2h88c1.5,9.9,10,17.2,20,17.2H156C155.2,170.3,153.8,173.8,153.2,174.9z
	 M156.2,153.1h-10.9c-6.6,0-12.2-4.5-13.7-10.9h23.5C155.9,145.8,156.3,149.4,156.2,153.1z M9.2,135.9c2.9-7.6,7.9-14.1,14.6-18.7
	h114.9c6.6,4.6,11.7,11.2,14.6,18.7H9.2z"/>
<path class="st1" d="M155.7,109.4h-14.5l-2.3-6.2h8C150.8,103.1,154.4,105.6,155.7,109.4z M23.8,103.1c-0.9,2.3-1.7,4.4-2.4,6.2H6.8
	c1.3-3.7,4.9-6.2,8.8-6.2H23.8z"/>
<path class="st0" d="M35.9,180.6v10c0,1.7-1.4,3.1-3.1,3.1H17.2c-1.7,0-3.1-1.4-3.1-3.1v-10H35.9z M148.4,180.6v10
	c0,1.7-1.4,3.1-3.1,3.1h-15.6c-1.7,0-3.1-1.4-3.1-3.1v-10h21.4C148.1,180.6,148.3,180.6,148.4,180.6z"/>
<path class="st3" d="M156.2,153.1h-10.9c-6.6,0-12.2-4.5-13.7-10.9h23.5C155.9,145.8,156.3,149.4,156.2,153.1z"/>
<path class="st4" d="M156,159.4c-0.7,11-2.1,14.5-2.7,15.5l-0.2,0c-1.7-0.3-3.4-0.5-5.1-0.5h-27.7l-3.8-3.8
	c-0.6-0.6-1.4-0.9-2.2-0.9H48.3c-0.8,0-1.6,0.3-2.2,0.9l-3.8,3.8H10.1c-0.3,0-0.7,0-1,0.2c-0.7-1.4-1.9-5.3-2.5-15.1h10.7
	c10,0,18.5-7.3,20-17.2h88c1.5,9.9,10,17.2,20,17.2H156z"/>
<path class="st3" d="M30.9,142.2c-1.5,6.4-7.1,10.9-13.7,10.9H6.3c0-3.7,0.3-7.3,1.1-10.9H30.9z"/>
<path class="st4" d="M153.3,135.9H9.2c2.9-7.6,7.9-14.1,14.6-18.7h114.9C145.3,121.8,150.4,128.4,153.3,135.9z"/>
<path class="st1" d="M135,110.9H27.7c0,0,10.3-25,12.9-29.6c0.6-1,1.6-1.6,2.7-1.6h75.8c1.1,0,2.2,0.6,2.7,1.6
	c2.2,3.9,4.6,9.1,7,14.4C131.1,101,133.3,106.5,135,110.9z"/>
<path class="st2" d="M128.1,167.2c0,1.7,1.4,3.1,3.1,3.1h15.6c1.7,0,3.1-1.4,3.1-3.1s-1.4-3.1-3.1-3.1h-15.6
	C129.5,164.1,128.1,165.5,128.1,167.2z M31.3,164.1H15.6c-1.7,0-3.1,1.4-3.1,3.1s1.4,3.1,3.1,3.1h15.6c1.7,0,3.1-1.4,3.1-3.1
	S33,164.1,31.3,164.1z M98.4,153.1H64.1c-1.7,0-3.1,1.4-3.1,3.1s1.4,3.1,3.1,3.1h34.4c1.7,0,3.1-1.4,3.1-3.1S100.2,153.1,98.4,153.1
	z M127.3,0H72.7c-6.9,0-12.5,5.6-12.5,12.5v34.4c0,6.9,5.6,12.5,12.5,12.5h54.7c6.9,0,12.5-5.6,12.5-12.5V12.5
	C139.8,5.6,134.2,0,127.3,0z M133.6,46.9c0,3.5-2.8,6.2-6.2,6.2c0,0,0,0,0,0H72.7c-3.5,0-6.2-2.8-6.2-6.2c0,0,0,0,0,0V12.5
	c0-3.5,2.8-6.2,6.2-6.2c0,0,0,0,0,0h54.7c3.5,0,6.2,2.8,6.2,6.2c0,0,0,0,0,0V46.9z"/>
<path class="st5" d="M72.7,6.3h54.7c3.5,0,6.2,2.8,6.2,6.2v34.4c0,3.5-2.8,6.2-6.2,6.2H72.7c-3.5,0-6.2-2.8-6.2-6.2V12.5
	C66.4,9.1,69.2,6.3,72.7,6.3z"/>
<path class="st2" d="M100,14.6c-5.7,0-10.3,4.6-10.4,10.4c0,0.1,0,0.2,0,0.3c0,0,0,0.1,0,0.1v16.3c0,1.7,1.4,3.1,3.1,3.1
	c1.7,0,3.1-1.4,3.1-3.1c0,0,0,0,0,0v-7.2c5.2,2.3,11.3-0.2,13.6-5.4c2.3-5.2-0.2-11.3-5.4-13.6C102.8,14.9,101.4,14.6,100,14.6z
	 M100,29.1c-2.3,0-4.1-1.8-4.1-4.1s1.8-4.1,4.1-4.1s4.1,1.8,4.1,4.1C104.1,27.2,102.3,29.1,100,29.1z M194.1,150h-0.3V29.7
	c0-5.2-4.2-9.4-9.4-9.4h-38.3v6.2h38.3c1.7,0,3.1,1.4,3.1,3.1V150h-6.2V35.9c0-1.7-1.4-3.1-3.1-3.1h-32v6.2H175V150h-0.3
	c-3.4,0.1-6,2.9-5.9,6.2v40.6c0,1.7,1.4,3.1,3.1,3.1c1.7,0,3.1-1.4,3.1-3.1l0-40.6h18.7v40.6c0,1.7,1.4,3.1,3.1,3.1
	c1.7,0,3.1-1.4,3.1-3.1v-40.6C200.1,152.9,197.4,150.1,194.1,150z"/>
<path class="st6" d="M23.8,103.1c-0.4,1.1-0.8,2.1-1.2,3.1h-7c-2.7,0-5.2,1.1-7,3.1H6.8c1.3-3.7,4.9-6.2,8.8-6.2H23.8z"/>
<path class="st7" d="M153.3,135.9H9.2c0.4-1.1,0.9-2.1,1.3-3.1h141.3C152.4,133.8,152.8,134.8,153.3,135.9z"/>
<path class="st6" d="M155.7,109.4h-1.9c-1.8-2-4.3-3.1-7-3.1h-6.8l-1.2-3.1h8C150.8,103.1,154.4,105.6,155.7,109.4z M135,110.9h-1.2
	c-1.5-3.8-3.2-8-5-12.1c-2.3-5.3-4.7-10.5-7-14.4c-0.6-1-1.6-1.6-2.7-1.6H43.3c-1.1,0-2.2,0.6-2.7,1.6c-2,3.6-8.8,19.6-11.6,26.5
	h-1.3c0,0,10.3-25,12.9-29.6c0.6-1,1.6-1.6,2.7-1.6h75.8c1.1,0,2.2,0.6,2.7,1.6c2.2,3.9,4.6,9.1,7,14.4
	C131.1,101,133.3,106.5,135,110.9z"/>
<path class="st8" d="M156.2,153.1h-10.9c-6.6,0-12.2-4.5-13.7-10.9h1.1c2.4,4.8,7.2,7.8,12.6,7.8h10.8
	C156.2,151,156.2,152.1,156.2,153.1z M30.9,142.2c-1.5,6.4-7.1,10.9-13.7,10.9H6.3c0-1.1,0-2.1,0.1-3.1h10.8c5.3,0,10.2-3,12.6-7.8
	H30.9z"/>
<path class="st9" d="M35.9,187.5v3.1c0,1.7-1.4,3.1-3.1,3.1H17.2c-1.7,0-3.1-1.4-3.1-3.1v-3.1c0,1.7,1.4,3.1,3.1,3.1h15.6
	C34.5,190.6,35.9,189.2,35.9,187.5z M148.4,187.5v3.1c0,1.7-1.4,3.1-3.1,3.1h-15.6c-1.7,0-3.1-1.4-3.1-3.1v-3.1
	c0,1.7,1.4,3.1,3.1,3.1h15.6C147,190.6,148.4,189.2,148.4,187.5z"/>
<path class="st7" d="M156,159.4c-0.7,11-2.1,14.5-2.7,15.5l-0.2,0c-1.7-0.3-3.4-0.5-5.1-0.5h-27.7l-3.8-3.8
	c-0.6-0.6-1.4-0.9-2.2-0.9H48.3c-0.8,0-1.6,0.3-2.2,0.9l-3.8,3.8H10.1c-0.3,0-0.7,0-1,0.2c-0.7-1.4-1.9-5.3-2.5-15.1h0.2
	c0.7,7.6,1.7,10.7,2.3,12c0.3-0.1,0.6-0.2,1-0.2h32.3l3.8-3.8c0.6-0.6,1.4-0.9,2.2-0.9h65.8c0.8,0,1.6,0.3,2.2,0.9l3.8,3.8h27.7
	c1.7,0,3.4,0.2,5.1,0.5l0.2,0c0.6-0.9,1.7-3.9,2.5-12.4H156z"/>
<path class="st6" d="M187.5,29.7v3.1c0-1.7-1.4-3.1-3.1-3.1h-38.3v-3.1h38.3C186.1,26.6,187.5,28,187.5,29.7z"/>
<path class="st10" d="M133.6,43.8v3.1c0,3.5-2.8,6.2-6.2,6.2c0,0,0,0,0,0H72.7c-3.5,0-6.2-2.8-6.2-6.2c0,0,0,0,0,0v-3.1
	c0,3.5,2.8,6.2,6.2,6.2c0,0,0,0,0,0h54.7C130.8,50,133.6,47.2,133.6,43.8C133.6,43.8,133.6,43.8,133.6,43.8z"/>
<path class="st11" d="M133.6,12.5v3.1c0-3.5-2.8-6.2-6.2-6.2c0,0,0,0,0,0H72.7c-3.5,0-6.2,2.8-6.2,6.2c0,0,0,0,0,0v-3.1
	c0-3.5,2.8-6.2,6.2-6.2c0,0,0,0,0,0h54.7C130.8,6.3,133.6,9,133.6,12.5C133.6,12.5,133.6,12.5,133.6,12.5z"/>
<rect x="175" y="156.2" class="st12" width="18.7" height="3.1"/>
</svg>
