<?xml version="1.0" encoding="utf-8"?>
<!-- Generator: Adobe Illustrator 24.3.0, SVG Export Plug-In . SVG Version: 6.00 Build 0)  -->
<svg version="1.1" id="mechanic" xmlns="http://www.w3.org/2000/svg" xmlns:xlink="http://www.w3.org/1999/xlink" x="0px" y="0px"
	 viewBox="0 0 200 200" style="enable-background:new 0 0 200 200;" xml:space="preserve">
<style type="text/css">
	.st0{fill:#8E6338;}
	.st1{fill:#88C6C2;}
	.st2{fill:#686667;}
	.st3{fill:#FADDA2;}
</style>
<g>
	<path class="st0" d="M120.2,26l-6.7,10.1c-4.1-2.2-8.8-3.3-13.5-3.4c-6.4,0-11.2,2.2-13.5,3.4L79.8,26c2.3-1.7,9.6-6.7,20.2-6.7
		C102.9,19.3,111.7,19.6,120.2,26z"/>
</g>
<g>
	<path class="st1" d="M120.2,5.8c14.5,4.8,21.4,20.6,20.4,43.7h-0.2l-10.1,10.1c-4.7-2.3-10.4-4.7-16.8-6.7
		c-4.8-1.5-9.3-2.6-13.5-3.4c-4.1,0.8-8.6,1.9-13.5,3.4c-6.4,2.1-12.1,4.4-16.8,6.7l-10-10c-1-23.3,5.9-39,20.4-43.9
		c3.1-1,13.3-3.3,20.1-3.4C106.9,2.5,117.1,4.8,120.2,5.8z M113.5,36.1l6.7-10.1c-8.5-6.4-17.3-6.7-20.2-6.7
		c-10.6,0-17.9,5-20.2,6.7l6.7,10.1c2.3-1.2,7-3.4,13.5-3.4C102.6,32.7,107.8,33.1,113.5,36.1z M71.8,132
		c4.3,8.8,15.3,15.1,28.2,15.1s23.9-6.3,28.3-15.1c0.7,0.3,1.5,0.6,2.3,0.8l44.8,10.7c9.1,2.2,15.5,10.3,15.5,19.6v34.5H9.2v-34.5
		c0-9.3,6.4-17.5,15.5-19.6l44.8-10.7C70.3,132.6,71.1,132.3,71.8,132z M153.8,160.6h12c-2.6-5.9-8.5-10.1-15.4-10.1
		c-6.9,0-12.8,4.2-15.4,10.1H63.6c-2.6-5.9-8.5-10.1-15.4-10.1s-12.8,4.2-15.4,10.1h12V174h-12c2.6,6,8.5,10.1,15.4,10.1
		S61,180,63.6,174h71.6c2.6,6,8.5,10.1,15.4,10.1s12.8-4.1,15.4-10.1h-12V160.6z"/>
</g>
<g>
	<path class="st2" d="M165.9,160.6h-12V174h12c-2.6,6-8.5,10.1-15.4,10.1c-6.9,0-12.8-4.1-15.4-10.1H63.6c-2.6,6-8.5,10.1-15.4,10.1
		S35.4,180,32.7,174h12v-13.5h-12c2.6-5.9,8.5-10.1,15.4-10.1s12.8,4.2,15.4,10.1h71.6c2.6-5.9,8.5-10.1,15.4-10.1
		S163.3,154.7,165.9,160.6z"/>
</g>
<g>
	<path class="st3" d="M72,131.9c0.5-0.2,1-0.5,1.5-0.8c0.1-0.1,0.2-0.1,0.2-0.1c0.5-0.3,0.9-0.6,1.4-1c0.5-0.4,1-0.8,1.4-1.3
		c1.4-1.5,2.4-3.4,2.9-5.4c0.1-0.4,0.2-0.8,0.3-1.2c0.1-0.3,0.1-0.5,0.1-0.8c0-0.5,0.1-1,0.1-1.5v-10.2c0.3,0.3,0.6,0.6,0.9,1
		c2,2.2,3.9,4.2,5.6,5.9L87,117c2,2,3.2,3.2,3.2,3.2s0.5,0.3,1.3,0.6c0.3,0.1,0.6,0.3,0.9,0.4c1.1,0.5,2.6,1.1,4,1.5
		c0.5,0.2,1,0.3,1.5,0.4c0.7,0.2,1.4,0.3,2,0.3h0.3c0.1,0,0.2,0,0.4,0c0.2,0,0.4,0,0.7-0.1c0.3,0,0.6-0.1,1-0.2
		c0.5-0.1,1-0.3,1.5-0.4c3.1-1,6.3-2.6,6.3-2.6s0.1-0.1,0.2-0.2l0.3-0.3c0.3-0.3,0.8-0.8,1.3-1.3l0.6-0.6l0.7-0.7
		c1.1-1.1,2.4-2.4,3.8-3.9l1.7-1.8c0.5-0.5,1-1.1,1.5-1.6v9.9c0,0.5,0,1,0.1,1.5c0,0.3,0.1,0.5,0.1,0.8c0.1,0.4,0.2,0.8,0.3,1.2
		c0.1,0.3,0.2,0.6,0.3,0.9c0.4,1.1,0.9,2.2,1.5,3.1c0.3,0.5,0.7,0.9,1.1,1.4c0.4,0.5,0.8,0.9,1.3,1.3c0,0,0.1,0.1,0.1,0.1
		c0.4,0.4,0.8,0.7,1.3,1c0.2,0.1,0.3,0.2,0.5,0.3c0.4,0.2,0.7,0.4,1.1,0.6c0.1,0.1,0.2,0.1,0.3,0.1c-4.3,8.8-15.3,15.1-28.3,15.1
		s-23.9-6.3-28.2-15.1L72,131.9L72,131.9z M65.4,87.4c1.1,2.3,2.5,4.8,4,8c-10.6-3.7-19-11.9-23.2-22.3V64c0-2.2,2.1-3.8,4.2-3.3
		l9.3,2.3l0.5,1.2c0,1.2,0.1,2.3,0.2,3.4c0,0.7,0.1,1.3,0.1,1.9c0.6,7.2,1.9,11.2,4.1,16.2C64.8,86.2,65.1,86.8,65.4,87.4z
		 M135.3,86.7c0.3-0.7,0.7-1.4,0.9-2.1c0.4-1,0.8-2,1.2-3c0.1-0.3,0.3-0.7,0.4-1c1-3,1.6-6.2,2-10.5c0.1-0.8,0.1-1.6,0.2-2.5
		c0.1-0.9,0.1-1.8,0.1-2.8c0-0.5,0.1-1,0.1-1.5l0.1-0.4l9.3-2.3c1.8-0.4,3.6,0.6,4.1,2.4c0.1,0.3,0.1,0.5,0.1,0.8v9.1
		c-4.1,10.3-12.4,18.3-22.8,22.1c0.3-0.5,0.5-1,0.7-1.5c0.3-0.5,0.5-0.9,0.7-1.3c0.9-1.7,1.7-3.3,2.4-4.7
		C135,87.4,135.2,87,135.3,86.7z"/>
</g>
<g>
	<path class="st3" d="M59.8,49.7l10,10c4.7-2.3,10.4-4.7,16.8-6.7c4.8-1.5,9.4-2.6,13.5-3.4c4.1,0.8,8.6,1.9,13.5,3.4
		c6.5,2.1,12.1,4.4,16.8,6.7l10.1-10.1h0.2c0,1.1-0.1,2.2-0.2,3.4c0,4.7-0.1,8.7-0.2,12c0,1-0.1,1.9-0.1,2.8
		c-0.1,0.9-0.1,1.7-0.2,2.5c-0.4,4.3-1,7.5-2,10.5c-0.1,0.3-0.2,0.7-0.4,1c-0.3,1-0.7,2-1.2,3c-0.3,0.7-0.6,1.3-0.9,2.1
		c-0.2,0.3-0.3,0.7-0.5,1c-0.7,1.4-1.5,3-2.4,4.7c-0.2,0.4-0.4,0.8-0.7,1.3c-0.5,0.9-1,1.9-1.5,2.9c-1.8,3.6-6,8.6-10.1,13.2
		c-0.5,0.5-1,1.1-1.5,1.6l-1.7,1.8c-1.4,1.5-2.7,2.8-3.8,3.9c-0.2,0.2-0.5,0.4-0.7,0.7l-0.6,0.6c-0.6,0.5-1,1-1.3,1.3
		c-0.1,0.1-0.2,0.2-0.3,0.3c-0.2,0.1-0.2,0.2-0.2,0.2s-3.2,1.6-6.3,2.6c-0.5,0.2-1,0.3-1.5,0.4c-0.4,0.1-0.7,0.2-1,0.2l-0.7,0.1
		c-0.1,0-0.3,0-0.4,0H100c-0.6,0-1.3-0.2-2-0.3c-0.5-0.1-1-0.3-1.5-0.4c-1.4-0.5-2.9-1-4-1.5c-0.3-0.2-0.6-0.3-0.9-0.4
		c-0.8-0.3-1.3-0.6-1.3-0.6S89,119,87,117c-0.2-0.2-0.4-0.5-0.7-0.7c-1.6-1.6-3.6-3.7-5.6-5.9c-4.3-4.7-8.9-10.1-10.7-13.9
		c-0.2-0.4-0.4-0.9-0.6-1.3c-1.6-3.2-2.9-5.7-4-8c-0.3-0.6-0.5-1.1-0.8-1.7c-2.3-4.9-3.5-9-4.1-16.2c0-0.6-0.1-1.2-0.1-1.9
		c-0.1-1.1-0.1-2.2-0.2-3.4C60,61,60,57.3,60,52.9C59.9,51.8,59.8,50.8,59.8,49.7z"/>
</g>
<g>
	<g>
		<path d="M101.1,125.9l-0.7-4.8l0.7-0.1l0.7,4.8L101.1,125.9z M103,125.6l-1.3-4.7l0.3-0.1c0.3-0.1,0.7-0.2,1-0.3l1.5,4.6
			c-0.4,0.1-0.8,0.3-1.3,0.4L103,125.6z M112.1,121.7c0,0,0.1-0.1,0.2-0.2l0,0C112.3,121.5,112.2,121.6,112.1,121.7z M111.9,121.1
			l-3.6-2.4c0.2-0.3,0.5-0.6,0.6-0.7L111.9,121.1z M113.7,120.1l-3.4-3.4l0.5-0.5c0.3-0.3,0.6-0.6,0.9-0.9l3.2,3.7
			c-0.1,0.1-0.3,0.3-0.4,0.4c0,0-0.1,0.1-0.1,0.1L113.7,120.1z M118.8,114.9l-3.5-3.3l1.7-1.8l3.5,3.3L118.8,114.9z M122,111.5
			l-3.6-3.3c5.1-5.6,8.3-9.9,9.7-12.6c0.3-0.6,0.6-1.2,0.9-1.8c0.2-0.4,0.4-0.7,0.6-1.1l4.4,2.2c-0.2,0.4-0.4,0.8-0.6,1.1
			c-0.3,0.6-0.6,1.1-0.9,1.8C130.9,101,127.5,105.4,122,111.5z M134.6,93.5l-4.4-2.2c0.4-0.8,0.8-1.5,1.1-2.3
			c0.4-0.8,0.8-1.7,1.2-2.4l4.4,2.1c-0.4,0.8-0.8,1.6-1.3,2.5C135.4,92,135,92.7,134.6,93.5z M137.5,87.7l-4.4-2.1
			c0.3-0.7,0.6-1.3,0.9-2l2.2,1l2.2,1C138.2,86.3,137.9,87,137.5,87.7z M139.7,82.6l-4.5-1.8c0.1-0.3,0.2-0.5,0.3-0.8l4.7,1.4
			C140,81.7,139.9,82.2,139.7,82.6z M142.3,70.3l-4.9-0.4c0.1-0.8,0.1-1.6,0.2-2.5l4.9,0.4C142.4,68.7,142.4,69.5,142.3,70.3z
			 M130.3,62.1c-0.4,0-0.7-0.1-1.1-0.3c-5.1-2.5-10.7-4.7-16.5-6.6c-4.2-1.3-8.3-2.3-12.7-3.2c-4.4,0.9-8.5,1.9-12.7,3.2
			c-5.7,1.8-11.3,4-16.5,6.6c-0.9,0.5-2.1,0.3-2.8-0.5L57.9,51.3l3.4-3.5l8.9,8.9c4.9-2.3,10.2-4.4,15.6-6.1
			c4.5-1.4,9.1-2.5,13.7-3.4c0.3-0.1,0.6-0.1,0.9,0c4.7,0.9,9.2,2,13.7,3.4c5.5,1.7,10.7,3.8,15.6,6.1l8.9-8.9l3.4,3.4L132,61.4
			C131.6,61.8,130.9,62.1,130.3,62.1z"/>
	</g>
	<g>
		<path d="M97.3,125.6l-0.4-0.1c-0.4-0.1-0.8-0.2-1.2-0.3l1.5-4.6c0.3,0.1,0.6,0.2,0.9,0.3l0.5,0.1L97.3,125.6z M91.4,123.4
			c-0.2-0.1-0.3-0.1-0.4-0.2c-0.2-0.1-0.3-0.2-0.5-0.2l2.2-4.4c0.1,0.1,0.2,0.1,0.4,0.2c0.2,0.1,0.3,0.2,0.5,0.3L91.4,123.4z
			 M85.3,118.8l-0.7-0.7l3.5-3.4l0.7,0.7L85.3,118.8z M79,112.2c-5.9-6.5-9.5-11.1-11.1-14.4c-0.1-0.3-0.3-0.6-0.4-0.8l-0.2-0.4
			l4.4-2.2l0.2,0.4c0.2,0.3,0.3,0.6,0.5,1c1.4,2.8,4.8,7.3,10.3,13.2L79,112.2z M63.2,88.5c-0.3-0.6-0.6-1.2-0.9-1.8l4.5-1.9
			c0.2,0.5,0.5,1,0.7,1.5L63.2,88.5z M58,69.6c0-0.3,0-0.5-0.1-0.8c0-0.4-0.1-0.7-0.1-1.1l4.9-0.2c0,0.3,0,0.7,0.1,1
			c0,0.3,0,0.6,0.1,0.9L58,69.6z M142.6,65l-4.9-0.2c0.1-3.3,0.2-7.2,0.2-11.9c0-0.1,0-0.1,0-0.2c0.1-1.1,0.2-2.2,0.2-3.2
			c0.9-22.3-5.7-37-18.7-41.3c-2.9-1-12.9-3.2-19.3-3.2c-6.4,0-16.4,2.3-19.3,3.2c-16.7,5.6-19.4,25.6-18.7,41.4
			c0,1,0.1,2.1,0.2,3.1c0,0.1,0,0.2,0,0.2c0,4,0.1,7.7,0.2,11.2l-4.9,0.2c-0.1-3.5-0.2-7.2-0.2-11.2c-0.1-1.1-0.1-2.2-0.2-3.3
			c-1.1-24.7,6.7-41.2,22-46.3C83,2.3,93.3,0.1,100.2,0c6.9,0,17.2,2.3,20.8,3.5C136.2,8.6,144.1,25,143,49.7c0,1.1-0.1,2.2-0.2,3.4
			C142.8,57.7,142.8,61.7,142.6,65z"/>
	</g>
	<g>
		<path d="M190.9,200H9.2c-1.3,0-2.4-1.1-2.4-2.4v-34.5c0-10.5,7.2-19.6,17.4-22l44.8-10.7c0.7-0.2,1.3-0.4,1.8-0.6l2,4.4
			c-0.8,0.4-1.7,0.7-2.7,0.9l-44.8,10.7c-8,1.9-13.7,9-13.7,17.2v32.1h176.8v-32.1c0-8.3-5.6-15.3-13.6-17.2L130,135.2
			c-1.1-0.3-1.9-0.6-2.7-0.9l2-4.4c0.5,0.2,1.1,0.4,1.9,0.6l44.7,10.7c10.2,2.4,17.4,11.5,17.4,22v34.5
			C193.3,198.9,192.2,200,190.9,200z M127.1,134.1c-0.5-0.2-1-0.5-1.5-0.8l2.6-4.1c0.3,0.2,0.5,0.3,0.8,0.4L127.1,134.1z M73,134.1
			l-2.1-4.4c0.4-0.2,0.9-0.4,1.2-0.6l2.6,4.1C74.2,133.6,73.6,133.9,73,134.1z M74.9,133.1l-2.5-4.2c0.3-0.2,0.6-0.4,1-0.7
			c0,0,0.1-0.1,0.1-0.1c0.4-0.3,0.7-0.6,1-1c0,0,0.1-0.1,0.1-0.1c0.3-0.3,0.6-0.7,0.8-1l4.1,2.6c-0.4,0.6-0.8,1.1-1.3,1.7
			c-0.5,0.6-1,1.1-1.6,1.6C76.1,132.3,75.5,132.7,74.9,133.1z M125.2,133.1c-0.6-0.3-1.2-0.8-1.7-1.3l0,0c-0.6-0.5-1.1-1-1.7-1.6
			c-0.4-0.5-0.9-1-1.2-1.5l4-2.8c0.3,0.4,0.6,0.8,0.9,1.1c0.4,0.5,0.7,0.8,1.1,1.1l-2.7,3.3l2.9-3.1c0.3,0.3,0.6,0.5,0.9,0.7
			L125.2,133.1z M118.8,125.2c-0.2-0.4-0.4-0.9-0.5-1.4l4.8-1.1c0,0.2,0.1,0.3,0.1,0.3L118.8,125.2z M81.4,125l-4.6-1.7
			c0.1-0.2,0.1-0.4,0.2-0.5l4.8,1.1C81.7,124.1,81.5,124.5,81.4,125z M118,122.3c0-0.1,0-0.1,0-0.2c0-0.2-0.1-0.4-0.1-0.6l4.8-0.6
			c0,0.1,0,0.2,0.1,0.3c0,0.2,0.1,0.3,0.1,0.4L118,122.3z M82,122.3l-4.8-0.7c0-0.1,0-0.3,0.1-0.5c0-0.1,0-0.2,0-0.3l4.8,0.6
			c0,0.2-0.1,0.4-0.1,0.6C82.1,122.2,82.1,122.3,82,122.3z M69.4,97.8c-0.3,0-0.5,0-0.8-0.1c-11.3-4-20.2-12.6-24.7-23.7
			c-0.1-0.3-0.2-0.6-0.2-0.9V64c0-1.8,0.8-3.5,2.2-4.6c1.4-1.1,3.3-1.5,5-1.1l9.2,2.3c0.8,0.2,1.4,0.7,1.7,1.5l0.5,1.2
			c0.1,0.3,0.2,0.6,0.2,0.8c0,1.2,0.1,2.3,0.2,3.3c0,0.4,0,0.7,0.1,1c0,0.3,0,0.6,0.1,0.9c0.6,7,1.8,10.8,3.9,15.3
			c0.2,0.5,0.5,1.1,0.8,1.7c0.6,1.3,1.3,2.7,2.1,4.2c0.6,1.2,1.2,2.4,1.9,3.8c0.4,0.9,0.3,2-0.4,2.7C70.8,97.5,70.1,97.8,69.4,97.8z
			 M48.6,72.6c3.1,7.5,8.5,13.6,15.4,17.6c-0.3-0.6-0.6-1.2-0.9-1.8c-0.3-0.6-0.5-1.1-0.8-1.7c-2.3-5-3.7-9.3-4.4-17.1
			c0-0.3,0-0.6-0.1-0.9c0-0.4-0.1-0.7-0.1-1.1c-0.1-0.8-0.1-1.7-0.1-2.7l-7.9-2c-0.4-0.1-0.7,0.1-0.8,0.2c-0.1,0.1-0.4,0.3-0.4,0.7
			V72.6z M131,97.7c-0.7,0-1.3-0.3-1.8-0.8c-0.7-0.7-0.8-1.8-0.4-2.7l0.2-0.4c0.2-0.3,0.3-0.7,0.5-1c0-0.1,0.1-0.2,0.1-0.3
			c0.2-0.3,0.3-0.6,0.5-0.9l0.2-0.3c0.9-1.8,1.7-3.3,2.4-4.7l0.2-0.5c0.1-0.2,0.2-0.4,0.3-0.6l0.2-0.4c0.2-0.5,0.5-1,0.7-1.5
			c0.5-1.1,0.8-1.9,1.1-2.8c0,0,0-0.1,0-0.1c0.1-0.3,0.2-0.5,0.3-0.8c1-2.9,1.6-6,1.9-10c0,0,0-0.1,0-0.1c0.1-0.5,0.1-1,0.1-1.5
			l0.1-0.8c0.1-0.8,0.1-1.7,0.1-2.7c0-0.5,0.1-1,0.1-1.4c0-0.3,0-0.5,0.1-0.8l0.1-0.4c0.3-0.8,0.9-1.4,1.7-1.6l9.3-2.3
			c1.7-0.4,3.5-0.1,5,1c1.4,1.1,2.2,2.8,2.2,4.6v9.1c0,0.3-0.1,0.6-0.2,0.9c-4.3,10.9-13.2,19.5-24.2,23.5
			C131.6,97.6,131.3,97.7,131,97.7z M139.8,82.5c-0.3,1-0.7,2-1.2,3.1c-0.2,0.6-0.5,1.1-0.8,1.7l-0.4,0.9c-0.1,0.2-0.2,0.4-0.3,0.6
			c-0.2,0.4-0.4,0.8-0.6,1.2c6.7-4,12-10.1,15-17.3V64c0-0.4-0.2-0.6-0.4-0.7c-0.1-0.1-0.4-0.3-0.8-0.2l-7.6,1.9c0,0,0,0.1,0,0.1
			c0,0.9-0.1,1.9-0.1,2.8l-0.1,0.8c0,0.6-0.1,1.2-0.2,1.8c-0.4,4.4-1,7.8-2.1,11C140.1,81.7,139.9,82.1,139.8,82.5z"/>
	</g>
	<g>
		<path d="M150.5,186.6c-7.1,0-13.6-3.9-16.9-10.1H65.1c-3.3,6.2-9.8,10.1-16.9,10.1c-7.6,0-14.5-4.5-17.6-11.5
			c-0.3-0.8-0.3-1.6,0.2-2.3c0.5-0.7,1.2-1.1,2-1.1h9.6V163h-9.6c-0.8,0-1.6-0.4-2-1.1c-0.4-0.7-0.5-1.6-0.2-2.3
			c3.1-7,10-11.5,17.6-11.5c7.1,0,13.6,3.9,16.9,10.1h68.5c3.3-6.2,9.8-10.1,16.9-10.1c7.6,0,14.6,4.5,17.6,11.6
			c0.3,0.8,0.3,1.6-0.2,2.3c-0.4,0.7-1.2,1.1-2,1.1h-9.6v8.6h9.6c0.8,0,1.6,0.4,2,1.1c0.5,0.7,0.5,1.6,0.2,2.3
			C165.1,182,158.1,186.6,150.5,186.6z M63.6,171.6h71.6c1,0,1.8,0.6,2.2,1.5c2.3,5.2,7.4,8.6,13.1,8.6c4.4,0,8.4-2,11.1-5.2h-7.7
			c-1.3,0-2.4-1.1-2.4-2.4v-13.5c0-1.3,1.1-2.4,2.4-2.4h7.7c-2.7-3.3-6.7-5.2-11.1-5.2c-5.7,0-10.8,3.4-13.1,8.6
			c-0.4,0.9-1.3,1.5-2.2,1.5H63.6c-1,0-1.8-0.6-2.2-1.5c-2.3-5.2-7.5-8.6-13.2-8.6c-4.3,0-8.3,2-11.1,5.2h7.7c1.3,0,2.4,1.1,2.4,2.4
			V174c0,1.3-1.1,2.4-2.4,2.4h-7.7c2.7,3.3,6.7,5.2,11.1,5.2c5.7,0,10.9-3.4,13.2-8.6C61.7,172.2,62.6,171.6,63.6,171.6z M100,149.6
			c-13.6,0-25.5-6.5-30.4-16.5c-0.6-1.2-0.1-2.7,1.1-3.3l0.2-0.1c0.4-0.2,0.8-0.4,1.2-0.6c0.1-0.1,0.2-0.1,0.2-0.1
			c0.4-0.3,0.7-0.5,1.1-0.9c0.4-0.3,0.8-0.7,1.1-1.1c0.4-0.4,0.6-0.8,0.9-1.2c0.7-1,1.2-2.1,1.5-3.2c0.1-0.3,0.2-0.7,0.2-1
			c0-0.1,0-0.1,0-0.2c0-0.1,0.1-0.3,0.1-0.4c0-0.4,0.1-0.9,0.1-1.3v-10.2c0-1,0.6-1.9,1.6-2.3c0.9-0.4,2-0.1,2.7,0.6
			c0.3,0.3,0.6,0.6,0.9,0.9c0,0,0.1,0.1,0.1,0.1c1.9,2.1,3.8,4,5.3,5.6l0.1,0.1c0.2,0.2,0.4,0.4,0.6,0.6l0.2,0.2
			c1.4,1.4,2.5,2.4,2.9,2.9c0.2,0.1,0.5,0.2,0.8,0.4c0.1,0,0.1,0,0.2,0.1c0.1,0.1,0.2,0.1,0.4,0.2c0.2,0.1,0.3,0.1,0.5,0.2
			c1.2,0.5,2.5,1,3.8,1.4c0.5,0.2,0.9,0.3,1.4,0.4c0.5,0.1,1.1,0.2,1.5,0.3h0.1c0.1,0,0.2,0,0.3,0c0.1,0,0.1,0,0.2,0l0.1,0
			c0.1,0,0.2,0,0.3-0.1c0.2,0,0.4-0.1,0.6-0.1l0.3-0.1c0.3-0.1,0.7-0.2,1-0.3c2.4-0.8,4.8-1.9,5.6-2.3l0.2-0.2
			c0.4-0.4,0.8-0.8,1.4-1.4l1.2-1.2c0.4-0.4,0.8-0.8,1.2-1.3c0.8-0.8,1.6-1.7,2.5-2.6l1.7-1.8c0.4-0.5,1-1,1.5-1.6
			c0.7-0.7,1.7-1,2.7-0.6c0.9,0.4,1.5,1.3,1.5,2.3v9.9c0,0.4,0,0.9,0.1,1.3c0,0.1,0,0.3,0.1,0.4c0,0.1,0,0.1,0,0.2
			c0.1,0.3,0.1,0.7,0.2,1.1c0.1,0.2,0.1,0.3,0.1,0.4c0.1,0.1,0.1,0.2,0.1,0.3c0.3,0.8,0.7,1.7,1.2,2.5c0.3,0.4,0.6,0.8,0.9,1.1
			c0.4,0.4,0.7,0.7,1,1c0.1,0.1,0.2,0.1,0.3,0.2c0.3,0.3,0.6,0.5,0.9,0.7c0.1,0.1,0.2,0.1,0.3,0.2c0.1,0,0.2,0.1,0.3,0.2
			c0.3,0.2,0.5,0.3,0.8,0.4c0.1,0,0.2,0.1,0.3,0.2c0.5,0.3,1,0.7,1.2,1.3c0.3,0.6,0.3,1.4,0,2C125.6,143.1,113.6,149.6,100,149.6z
			 M75.1,133c4.7,7.1,14.3,11.7,24.9,11.7c10.6,0,20.3-4.6,24.9-11.7c-0.5-0.3-0.9-0.6-1.3-1c-0.1-0.1-0.2-0.1-0.2-0.2
			c-0.6-0.5-1.1-1-1.6-1.6c-0.4-0.5-0.9-1-1.2-1.5c0,0,0-0.1-0.1-0.1c-0.8-1.2-1.4-2.4-1.8-3.5c-0.2-0.4-0.3-0.8-0.4-1.3
			c-0.1-0.4-0.2-0.8-0.3-1.3c-0.1-0.3-0.1-0.6-0.2-1c0,0,0-0.1,0-0.1c0-0.6-0.1-1.1-0.1-1.7V116c-0.5,0.5-1,1.1-1.5,1.6
			c-0.4,0.5-0.9,0.9-1.3,1.3l-1.3,1.3c-0.6,0.5-1,1-1.3,1.3l-0.3,0.3c-0.1,0.1-0.1,0.1-0.2,0.2l-0.1,0.1c-0.2,0.2-0.3,0.3-0.6,0.4
			c-0.1,0.1-3.4,1.7-6.6,2.7c-0.4,0.1-0.8,0.2-1.2,0.4l-0.3,0.1c-0.4,0.1-0.9,0.2-1.2,0.3c-0.3,0.1-0.5,0.1-0.6,0.1
			c-0.1,0-0.2,0-0.3,0c-0.2,0-0.4,0-0.5,0H100c0,0-0.1,0-0.1,0c-0.8,0-1.6-0.2-2.4-0.4c0,0-0.1,0-0.1,0c-0.5-0.1-1.1-0.3-1.6-0.5
			c-1.4-0.4-2.9-1-4.3-1.6c0,0-0.1,0-0.1,0c-0.2-0.1-0.3-0.1-0.4-0.2c-0.1-0.1-0.3-0.1-0.4-0.2c-0.8-0.4-1.4-0.6-1.4-0.7
			c-0.2-0.1-0.4-0.2-0.5-0.4c0,0-1.3-1.2-3.3-3.2l-0.2-0.3c-0.1-0.1-0.2-0.2-0.3-0.3c-0.1,0-0.1-0.1-0.2-0.1l-0.2-0.2
			c-0.7-0.7-1.4-1.4-2.2-2.2v4c0,0.6,0,1.1-0.1,1.7c0,0,0,0.1,0,0.1c0,0.3-0.1,0.6-0.2,1c-0.1,0.4-0.2,0.9-0.3,1.3
			c-0.5,1.7-1.2,3.3-2.2,4.8c-0.4,0.6-0.8,1.1-1.3,1.7c-0.5,0.6-1.1,1.1-1.6,1.6C76.1,132.3,75.6,132.6,75.1,133z M129.7,130.2
			C129.7,130.2,129.7,130.2,129.7,130.2C129.7,130.2,129.7,130.2,129.7,130.2z M129,129.7L129,129.7L129,129.7z M125.2,127.6
			C125.2,127.6,125.2,127.6,125.2,127.6C125.2,127.6,125.2,127.6,125.2,127.6z M125.1,127.6c0.1,0,0.1,0,0.2,0
			C125.2,127.6,125.1,127.6,125.1,127.6z M125.1,127.6C125.1,127.6,125.1,127.6,125.1,127.6C125.1,127.6,125.1,127.6,125.1,127.6z
			 M125,127.6C125.1,127.6,125.1,127.6,125,127.6C125.1,127.6,125.1,127.6,125,127.6z M100.8,126C100.7,126,100.7,126,100.8,126
			C100.7,126,100.7,126,100.8,126z M113.5,38.5c-0.4,0-0.8-0.1-1.1-0.3c-4.8-2.5-9.4-3.1-12.3-3.1c-4.3,0-8.4,1-12.3,3.1
			c-1.1,0.6-2.5,0.2-3.2-0.8l-6.7-10.1c-0.7-1.1-0.5-2.5,0.6-3.3c6.4-4.7,13.9-7.2,21.6-7.2c4.5,0,13.3,0.9,21.6,7.2
			c1,0.8,1.3,2.2,0.6,3.3l-6.7,10.1C115,38.2,114.3,38.5,113.5,38.5z M83.2,26.7l4.2,6.3c4-1.8,8.3-2.7,12.6-2.7
			c3.1,0,7.7,0.5,12.6,2.7l4.2-6.3c-6.6-4.3-13.3-4.9-16.8-4.9C92.8,21.7,87.1,24.2,83.2,26.7z"/>
	</g>
</g>
</svg>
