<?xml version="1.0" encoding="utf-8"?>
<!-- Generator: Adobe Illustrator 24.3.0, SVG Export Plug-In . SVG Version: 6.00 Build 0)  -->
<svg version="1.1" id="Capa_1" xmlns="http://www.w3.org/2000/svg" xmlns:xlink="http://www.w3.org/1999/xlink" x="0px" y="0px"
	 viewBox="0 0 512 512" style="enable-background:new 0 0 512 512;" xml:space="preserve">
<style type="text/css">
	.st0{fill:#5A5A5A;}
	.st1{fill:#8AC9FE;}
	.st2{fill:#60B7FF;}
	.st3{fill:#FAC600;}
	.st4{fill:#E0AE10;}
	.st5{fill:#444444;}
	.st6{fill:#EBEBEB;}
</style>
<g>
	<path class="st0" d="M74.3,233.4H19c-6.3,0-11.4-5.1-11.4-11.4v-15.9c0-6.3,5.1-11.4,11.4-11.4h55.3V233.4z"/>
	<path class="st0" d="M412,233.4h55.3c6.3,0,11.4-5.1,11.4-11.4v-15.9c0-6.3-5.1-11.4-11.4-11.4H412L412,233.4z"/>
	<path class="st1" d="M393.7,146.3c-6.8-13.3-20.4-21.6-35.3-21.6H243.2H127.9c-14.9,0-28.5,8.3-35.3,21.6l-44.5,87.1h195h195
		L393.7,146.3z"/>
	<path class="st2" d="M438.2,233.4h-25.3l-44.4-87.1c-6.8-13.3-20.4-21.6-35.3-21.6h25.3c14.9,0,28.5,8.3,35.3,21.6L438.2,233.4z"/>
	<path class="st3" d="M288.1,75.1h-91.8c-5.4,0-10.2,3.1-12.5,7.9l-19.9,41.7h78.3h78.3L300.7,83C298.4,78.2,293.5,75.1,288.1,75.1
		L288.1,75.1z"/>
	<path class="st4" d="M320.6,124.7H301L281.2,83c-2.3-4.8-7.2-7.9-12.5-7.9h19.5c5.4,0,10.2,3.1,12.6,7.9L320.6,124.7z"/>
	<path class="st0" d="M64.2,436.9H25.4c-9.9,0-17.9-8-17.9-17.9V316h74.7V419C82.2,428.9,74.1,436.9,64.2,436.9z"/>
	<path class="st0" d="M460.9,436.9h-38.8c-9.9,0-17.9-8-17.9-17.9V316h74.7V419C478.9,428.9,470.8,436.9,460.9,436.9L460.9,436.9z"
		/>
	<path class="st5" d="M82.2,316V419c0,9.9-8,17.9-17.9,17.9H44.3c9.9,0,17.9-8,17.9-17.9V316H82.2z"/>
	<path class="st5" d="M478.9,316V419c0,9.9-8,17.9-17.9,17.9H441c9.9,0,17.9-8,17.9-17.9V316H478.9z"/>
	<path class="st3" d="M438.1,233.4H243.2H48.3l-14.7,6.5C17.7,247,7.5,262.7,7.5,280.1v34.2c0,9.2,3.5,18,9.7,24.8l57.4,62
		c5.4,5.8,12.9,9.1,20.9,9.1h147.7h147.7c7.9,0,15.5-3.3,20.9-9.1l57.4-62c6.2-6.7,9.7-15.6,9.7-24.8v-34.2
		c0-17.4-10.2-33.1-26.1-40.2L438.1,233.4z"/>
	<path class="st4" d="M460.2,244.2c11.5,8.1,18.6,21.5,18.6,35.9v34.2c0,9.2-3.5,18-9.7,24.8l-57.4,62c-5.4,5.8-12.9,9.1-20.9,9.1
		H95.5c-7.9,0-15.5-3.3-20.9-9.1l-13.8-14.9c4.2,2.4,9,3.6,14,3.6H381c8,0,15.7-3.3,21.1-9.2c16.5-17.8,32.8-35.4,49.3-53.3
		c7.5-8.1,9.8-14.3,9.6-25.9L460.2,244.2z"/>
	<path class="st0" d="M257.3,337.9h-91.6c-4.5,0-7.6,4.4-6.2,8.6l9.9,29c0.9,2.6,3.4,4.4,6.2,4.4h81.7h53.5c2.8,0,5.3-1.8,6.2-4.4
		l9.9-29c1.4-4.2-1.7-8.6-6.2-8.6H257.3z"/>
	<path class="st5" d="M326.8,346.5l-9.9,29c-0.9,2.6-3.4,4.4-6.2,4.4H175.6c-2.8,0-5.3-1.8-6.2-4.4l-3.9-11.3c0.1,0,0.2,0,0.4,0
		h131.5c2.7,0,5.1-1.7,6-4.3l7.6-22h9.7C325.2,337.9,328.3,342.3,326.8,346.5L326.8,346.5z"/>
	<circle class="st6" cx="90.8" cy="302" r="30"/>
	<circle class="st6" cx="395.6" cy="302" r="30"/>
	<path class="st0" d="M207.3,233.4h-27.2c0-15-12.2-27.2-27.2-27.2c-15,0-27.2,12.2-27.2,27.2H98.6c0-30,24.3-54.4,54.4-54.4
		C183,179,207.3,203.4,207.3,233.4z"/>
	<path d="M90.8,264.5c-20.7,0-37.5,16.8-37.5,37.5c0,20.7,16.8,37.5,37.5,37.5c20.7,0,37.5-16.8,37.5-37.5
		C128.3,281.4,111.5,264.5,90.8,264.5z M90.8,324.5c-12.4,0-22.5-10.1-22.5-22.5s10.1-22.5,22.5-22.5c12.4,0,22.5,10.1,22.5,22.5
		C113.3,314.4,103.2,324.5,90.8,324.5z"/>
	<path d="M468.2,240.8c10-0.4,18.1-8.7,18.1-18.9v-15.9c0-10.4-8.5-18.9-18.9-18.9h-44.3l-22.6-44.4c-8.1-15.9-24.2-25.7-42-25.7
		h-33.2l-17.8-37.4c-3.5-7.4-11.1-12.2-19.3-12.2h-91.8c-8.2,0-15.8,4.8-19.3,12.2l-17.8,37.4h-31.3c-17.8,0-33.9,9.8-42,25.7
		l-22.6,44.4H19c-10.4,0-18.9,8.5-18.9,18.9V222c0,10.1,8,18.4,18.1,18.9C6.8,250.5,0,264.8,0,280.1v90.2c0,4.1,3.4,7.5,7.5,7.5
		s7.5-3.4,7.5-7.5v-22.6l54.1,58.4c1.7,1.8,3.6,3.5,5.6,4.9v8c0,5.7-4.7,10.4-10.4,10.4H25.4c-5.7,0-10.4-4.7-10.4-10.4v-14.2
		c0-4.1-3.4-7.5-7.5-7.5S0,400.6,0,404.7V419c0,14,11.4,25.4,25.4,25.4h38.8c14,0,25.4-11.4,25.4-25.4v-1.8c1.9,0.3,3.8,0.5,5.8,0.5
		h295.4c2,0,3.9-0.2,5.8-0.5v1.8c0,14,11.4,25.4,25.4,25.4h38.8c14,0,25.4-11.4,25.4-25.4V280.1
		C486.4,264.8,479.5,250.5,468.2,240.8z M467.4,202.2c2.2,0,3.9,1.8,3.9,3.9V222c0,2.2-1.8,3.9-3.9,3.9h-24.6l-12.1-23.7
		L467.4,202.2z M190.5,86.2c1.1-2.2,3.3-3.6,5.8-3.6h91.8c2.5,0,4.7,1.4,5.8,3.6l14.8,30.9H175.8L190.5,86.2z M99.3,149.7
		c5.5-10.8,16.5-17.5,28.6-17.5h35.9c0,0,0,0,0.1,0h156.7c0,0,0,0,0.1,0h37.8c12.1,0,23.1,6.7,28.6,17.5l38.9,76.2H214.4
		c-3.7-30.6-29.8-54.4-61.4-54.4c-31.6,0-57.7,23.8-61.4,54.4H60.4L99.3,149.7z M153,198.7c-16.5,0-30.4,11.6-33.9,27.2h-12.4
		c3.6-22.3,23-39.4,46.3-39.4c23.3,0,42.7,17.1,46.3,39.4h-12.4C183.4,210.4,169.5,198.7,153,198.7z M171.2,225.9h-36.4
		c3-7.1,10-12.2,18.2-12.2C161.2,213.7,168.2,218.7,171.2,225.9z M15.1,222v-15.9c0-2.2,1.8-3.9,3.9-3.9h36.7l-12.1,23.7H19
		C16.8,225.9,15.1,224.1,15.1,222L15.1,222z M471.4,419c0,5.7-4.7,10.4-10.4,10.4h-38.8c-5.7,0-10.4-4.7-10.4-10.4v-8
		c2-1.4,3.9-3.1,5.6-4.9l54.1-58.4L471.4,419L471.4,419z M471.4,314.3c0,7.3-2.7,14.3-7.7,19.7l-57.4,62c-4,4.3-9.5,6.7-15.4,6.7
		H95.5c-5.8,0-11.4-2.4-15.4-6.7l-57.4-62c-5-5.4-7.7-12.4-7.7-19.7v-34.2c0-14.4,8.5-27.5,21.7-33.3l13.2-5.9h386.6l13.2,5.9
		c13.2,5.9,21.7,18.9,21.7,33.3L471.4,314.3z"/>
	<path d="M320.7,330.4h-155c-4.5,0-8.8,2.2-11.4,5.9s-3.3,8.4-1.9,12.7l9.9,29c1.9,5.7,7.3,9.5,13.2,9.5h135.2
		c6,0,11.3-3.8,13.2-9.5l9.9-29c1.5-4.3,0.8-9-1.9-12.7C329.5,332.6,325.2,330.4,320.7,330.4L320.7,330.4z M310,372.4H176.3l-9.2-27
		h152.2L310,372.4z"/>
	<path d="M395.6,264.5c-20.7,0-37.5,16.8-37.5,37.5c0,20.7,16.8,37.5,37.5,37.5c20.7,0,37.5-16.8,37.5-37.5
		C433.1,281.4,416.3,264.5,395.6,264.5L395.6,264.5z M395.6,324.5c-12.4,0-22.5-10.1-22.5-22.5s10.1-22.5,22.5-22.5
		s22.5,10.1,22.5,22.5C418.1,314.4,408,324.5,395.6,324.5z"/>
	<path d="M167.3,316.1c-4.1,0-7.5-3.4-7.5-7.5v-20.1c0-4.1,3.4-7.5,7.5-7.5s7.5,3.4,7.5,7.5v20.1
		C174.8,312.7,171.5,316.1,167.3,316.1z"/>
	<path d="M199.3,316.1c-4.1,0-7.5-3.4-7.5-7.5v-20.1c0-4.1,3.4-7.5,7.5-7.5s7.5,3.4,7.5,7.5v20.1
		C206.8,312.7,203.5,316.1,199.3,316.1z"/>
	<path d="M231.3,316.1c-4.1,0-7.5-3.4-7.5-7.5v-20.1c0-4.1,3.4-7.5,7.5-7.5s7.5,3.4,7.5,7.5v20.1
		C238.8,312.7,235.4,316.1,231.3,316.1z"/>
	<path d="M263.3,316.1c-4.1,0-7.5-3.4-7.5-7.5v-20.1c0-4.1,3.4-7.5,7.5-7.5s7.5,3.4,7.5,7.5v20.1
		C270.8,312.7,267.4,316.1,263.3,316.1z"/>
	<path d="M295.2,316.1c-4.1,0-7.5-3.4-7.5-7.5v-20.1c0-4.1,3.4-7.5,7.5-7.5s7.5,3.4,7.5,7.5v20.1
		C302.7,312.7,299.4,316.1,295.2,316.1z"/>
	<path d="M327.2,316.1c-4.1,0-7.5-3.4-7.5-7.5v-20.1c0-4.1,3.4-7.5,7.5-7.5s7.5,3.4,7.5,7.5v20.1
		C334.7,312.7,331.3,316.1,327.2,316.1z"/>
</g>
</svg>
