<?xml version="1.0" encoding="utf-8"?>
<!-- Generator: Adobe Illustrator 24.3.0, SVG Export Plug-In . SVG Version: 6.00 Build 0)  -->
<svg version="1.1" id="locating-people" xmlns="http://www.w3.org/2000/svg" xmlns:xlink="http://www.w3.org/1999/xlink" x="0px"
	 y="0px" viewBox="0 0 200 200" style="enable-background:new 0 0 200 200;" xml:space="preserve">
<style type="text/css">
	.st0{fill:#FF6C69;}
	.st1{fill:#F9F5F9;}
	.st2{fill:#4CC3FF;}
	.st3{fill:#293241;}
</style>
<path class="st0" d="M40,3.3c-16.7,0-36.7,8.7-36.7,40s36.7,60,36.7,60s36.7-28.7,36.7-60S56.7,3.3,40,3.3z M40,56.7
	c-9.2,0-16.7-7.5-16.7-16.7c0-9.2,7.5-16.7,16.7-16.7c9.2,0,16.7,7.5,16.7,16.7C56.7,49.2,49.2,56.7,40,56.7z"/>
<circle class="st1" cx="40" cy="40" r="16.7"/>
<path class="st2" d="M170,46.7h-4.7c7-4.2,11.4-11.8,11.4-20c0-12.9-10.4-23.3-23.3-23.3S130,13.8,130,26.7c0,8.2,4.3,15.8,11.4,20
	h-4.7c-14.7,0-26.7,11.9-26.7,26.7v50h20v73.3h46.7v-73.3h20v-50C196.7,58.6,184.7,46.7,170,46.7z"/>
<path class="st3" d="M60,40c0-11-9-20-20-20s-20,9-20,20s9,20,20,20S60,51,60,40z M26.7,40c0-7.4,6-13.3,13.3-13.3s13.3,6,13.3,13.3
	s-6,13.3-13.3,13.3S26.7,47.4,26.7,40z"/>
<path class="st3" d="M173.9,43.6c3.9-4.8,6.1-10.8,6.1-17C180,12,168,0,153.3,0c-14.7,0-26.7,12-26.7,26.7c0,6.4,2.3,12.3,6.1,17
	c-14.7,1.9-26.1,14.5-26.1,29.7V120H53.3c-5.5,0-10-4.5-10-10v-5.1C50.1,99.3,80,72.9,80,43.3C80,3.1,49.4,0,40,0S0,3.1,0,43.3
	c0,29.5,29.9,56,36.7,61.6v5.1c0,9.2,7.5,16.7,16.7,16.7h73.3v70c0,1.8,1.5,3.3,3.3,3.3h46.7c1.8,0,3.3-1.5,3.3-3.3v-70h16.7
	c1.8,0,3.3-1.5,3.3-3.3v-50C200,58.1,188.6,45.5,173.9,43.6z M6.7,43.3C6.7,10.2,30,6.7,40,6.7s33.3,3.6,33.3,36.7
	C73.3,68.5,47.6,92.5,40,99C32.4,92.5,6.7,68.5,6.7,43.3z M153.3,6.7c11,0,20,9,20,20c0,7-3.7,13.6-9.8,17.2
	c-6.3,3.7-14.1,3.7-20.4,0c-6.1-3.6-9.8-10.1-9.8-17.2C133.3,15.6,142.3,6.7,153.3,6.7z M193.3,120H180V73.3h-6.7v120h-16.7v-70H150
	v70h-16.7v-120h-6.7V120h-13.3V73.3c0-12.9,10.5-23.3,23.3-23.3h3.8c3.8,2.1,8.2,3.3,12.9,3.3c4.7,0,9.1-1.2,12.9-3.3h3.8
	c12.9,0,23.3,10.5,23.3,23.3V120z"/>
<path class="st3" d="M150,60h6.7v6.7H150V60z M150,73.3h6.7V80H150V73.3z"/>
</svg>
