<svg id="Filled_cutting_cut_Ex" height="512" viewBox="0 0 512 512" width="512" xmlns="http://www.w3.org/2000/svg" data-name="Filled cutting cut Ex"><g><path d="m72 344-24 48v54a10 10 0 0 0 10 10h268a10 10 0 0 0 10-10v-54l-24-48z" fill="#fa7d29"/><g><path d="m104 408 16-16-53.053-37.895-18.947 37.895 32 16z" fill="#fac850"/><path d="m264 392 16 16h24l32-16-18.947-37.895z" fill="#fac850"/><path d="m136 272h-26.14a20 20 0 0 0 -18.7266 12.9775l-19.1334 59.0225h240l-19.1334-59.0225a20 20 0 0 0 -18.7266-12.9775h-122.14" fill="#fee5d4"/><path d="m104 408v16h176v-16l-16-16h-144z" fill="#fac850"/><g><rect fill="#fee5d4" height="48" rx="24" width="64" x="160" y="376"/><path d="m200 432h-16a32 32 0 0 1 0-64h16a32 32 0 0 1 0 64zm-16-48a16 16 0 0 0 0 32h16a16 16 0 0 0 0-32z"/></g><g fill="#bb5e1f"><path d="m104 424 16 32h144l16-32z"/><path d="m56 456v22a10 10 0 0 0 10 10h36a10 10 0 0 0 10-10v-22z"/><path d="m272 478a10 10 0 0 0 10 10h36a10 10 0 0 0 10-10v-22h-56z"/></g><path d="m343.4468 389.0771-.0137-.0341c-.0215-.0542-.0437-.1079-.0664-.1617l-.0234-.0549c-.021-.0486-.0428-.0974-.065-.1457l-.0273-.06q-.0465-.1-.0957-.1985l-18.9473-37.8949-4.7832-9.5661-18.9482-58.4505c-.0371-.1152-.0772-.2285-.1192-.3418a28.1308 28.1308 0 0 0 -26.2174-18.1689h-122.14v16h122.14a12.0567 12.0567 0 0 1 11.18 7.6387l15.6771 48.3613h-217.9942l15.6778-48.3613a12.0567 12.0567 0 0 1 11.1793-7.6387h26.14v-16h-26.14a28.1308 28.1308 0 0 0 -26.2178 18.1689c-.042.1133-.0821.2266-.1192.3418l-18.9478 58.4505-4.7832 9.5661-18.9473 37.8946q-.0494.0989-.0957.1985l-.0273.06c-.0222.0483-.044.0971-.065.1457l-.0234.0549c-.0227.0538-.0449.1075-.0664.1617l-.0137.0341a7.9519 7.9519 0 0 0 -.5532 3.044v53.8792a17.9971 17.9971 0 0 0 8 14.96v17.04a18.0209 18.0209 0 0 0 18 18h36a18.0209 18.0209 0 0 0 18-18v-14h144v14a18.0209 18.0209 0 0 0 18 18h36a18.0209 18.0209 0 0 0 18-18v-17.04a17.9971 17.9971 0 0 0 8-14.96v-53.8792a7.9519 7.9519 0 0 0 -.5532-3.0437zm-15.4468 56.9229a2.0027 2.0027 0 0 1 -2 2h-49.0557l10.1546-20.3091a7.9559 7.9559 0 0 0 .8913-3.2934v-.0142c.0034-.071.0056-.1421.0071-.2136.0007-.0261.0007-.0518.001-.0777 0-.0307.0012-.0612.0012-.092v-8h16a8 8 0 0 0 3.5781-.8447l20.4224-10.211zm-272 0v-41.0557l20.4219 10.211a8 8 0 0 0 3.5781.8447h16v8c0 .0308.0007.0613.0012.092 0 .0259 0 .0516.001.0777.0015.0715.0037.1426.0071.2136l.0005.0142a7.9559 7.9559 0 0 0 .8913 3.2934l10.1546 20.3091h-49.0557a2.0027 2.0027 0 0 1 -2-2zm56-34.6855 11.3145-11.3145h28.6855a31.804 31.804 0 0 0 4.2952 16h-44.2952zm56-11.3145a16.0183 16.0183 0 0 1 16-16h16a16 16 0 0 1 0 32h-16a16.0183 16.0183 0 0 1 -16-16zm64 0h28.6855l11.3145 11.3145v4.6855h-44.2952a31.804 31.804 0 0 0 4.2952-16zm93.2666-11.5781-23.1553 11.5781h-18.7968l-6.98-6.9795 37.749-26.9639zm-19.0293-36.4219-44.8 32h-33.7325a32.0193 32.0193 0 0 0 -27.7048-16h-16a32.0193 32.0193 0 0 0 -27.7048 16h-33.7322l-44.8-32zm-236.3213 14.0566 37.749 26.9639-6.9795 6.9795h-18.7968l-23.1553-11.5781zm34.084 111.9434a2.0027 2.0027 0 0 1 -2 2h-36a2.0027 2.0027 0 0 1 -2-2v-14h40zm20.9443-30-8-16h150.1114l-8 16zm195.0557 30a2.0027 2.0027 0 0 1 -2 2h-36a2.0027 2.0027 0 0 1 -2-2v-14h40z"/></g><g><rect fill="#fac850" height="128" rx="10" width="96" x="368" y="360"/><path d="m464 456-96-32v-32l96 32z" fill="#fa7d29"/><path d="m454 352h-6v-32h16v-16h-96v16h16v32h-6a18.0209 18.0209 0 0 0 -18 18v108a18.0209 18.0209 0 0 0 18 18h76a18.0209 18.0209 0 0 0 18-18v-108a18.0209 18.0209 0 0 0 -18-18zm-54-32h32v32h-32zm-22 48h76a2.0027 2.0027 0 0 1 2 2v42.9l-80-26.6667v-16.2333a2.0027 2.0027 0 0 1 2-2zm78 76.9-80-26.666v-15.134l80 26.666zm-2 35.1h-76a2.0027 2.0027 0 0 1 -2-2v-42.9l80 26.6667v16.2333a2.0027 2.0027 0 0 1 -2 2z"/></g><g><g><rect fill="#25b1fa" height="168" rx="10" width="272" x="120" y="64"/><path d="m320.0278 192 35.5192-15.6795a10 10 0 0 0 0-16.641l-30.4808-12.32a20 20 0 0 0 -11.094-3.3595h-18.69l-63.2822-40h-24l24 48-32 8-32-24h-16l16 56z" fill="#fafeff"/><path d="m320.0273 200h-152.0273a8.0006 8.0006 0 0 1 -7.6924-5.8018l-16-56a8.0007 8.0007 0 0 1 7.6924-10.1982h16a8.0032 8.0032 0 0 1 4.8 1.6l28.9541 21.7158 18.6309-4.6582-19.54-39.0791a7.9995 7.9995 0 0 1 7.155-11.5785h24a7.9979 7.9979 0 0 1 4.2744 1.2373l61.3233 38.7627h16.375a27.8938 27.8938 0 0 1 14.7871 4.2236l29.7851 12.0391a8.0549 8.0549 0 0 1 1.44.7607 17.9992 17.9992 0 0 1 0 29.9532 8.0131 8.0131 0 0 1 -1.2071.6621l-35.52 15.68a8.0011 8.0011 0 0 1 -3.2305.6813zm-145.9931-16h144.3058l33.1123-14.6172a2.023 2.023 0 0 0 .0557-2.707l-29.4394-11.8994a8.0237 8.0237 0 0 1 -1.44-.7608 11.96 11.96 0 0 0 -6.6559-2.0156h-18.6915a7.9982 7.9982 0 0 1 -4.2744-1.2373l-61.3232-38.7627h-8.7393l18.211 36.4219a7.9988 7.9988 0 0 1 -5.2149 11.3388l-32 8a8.01 8.01 0 0 1 -6.74-1.36l-29.8674-22.4007h-2.7275z"/><path d="m144 88h16v16h-16z"/><path d="m352 88h16v16h-16z"/></g><path d="m400 120v-46a18.0209 18.0209 0 0 0 -18-18h-14v-40h-16v40h-192v-40h-16v40h-14a18.0209 18.0209 0 0 0 -18 18v148a18.0209 18.0209 0 0 0 18 18h252a18.0209 18.0209 0 0 0 18-18v-86h-16v86a2.0027 2.0027 0 0 1 -2 2h-252a2.0027 2.0027 0 0 1 -2-2v-148a2.0027 2.0027 0 0 1 2-2h252a2.0027 2.0027 0 0 1 2 2v46z"/></g></g></svg>