<?xml version="1.0" encoding="utf-8"?>
<!-- Generator: Adobe Illustrator 24.3.0, SVG Export Plug-In . SVG Version: 6.00 Build 0)  -->
<svg version="1.1" id="Layer_1" xmlns="http://www.w3.org/2000/svg" xmlns:xlink="http://www.w3.org/1999/xlink" x="0px" y="0px"
	 viewBox="0 0 512 512" style="enable-background:new 0 0 512 512;" xml:space="preserve">
<style type="text/css">
	.st0{fill:#5FA739;}
</style>
<path class="st0" d="M378.1,215.3c-5.6,0-10.2-4.6-10.2-10.2V83c0-28-22.8-50.8-50.8-50.8H195c-28,0-50.8,22.8-50.8,50.8v122.1
	c0,5.6-4.6,10.2-10.2,10.2c-5.6,0-10.2-4.6-10.2-10.2V83c0-39.2,31.9-71.1,71.2-71.1H317c39.3,0,71.2,31.9,71.2,71.2v122.1
	C388.3,210.8,383.7,215.3,378.1,215.3z"/>
<path class="st0" d="M337.3,154.3H174.7c-5.6,0-10.2-4.6-10.2-10.2c0-5.6,4.6-10.2,10.2-10.2h162.8c5.6,0,10.2,4.6,10.2,10.2
	C347.5,149.8,343,154.3,337.3,154.3z"/>
<path class="st0" d="M479.8,500.1H32.2c-5.6,0-10.2-4.6-10.2-10.2V144.1c0-5.6,4.6-10.2,10.2-10.2h61c5.6,0,10.2,4.6,10.2,10.2
	s-4.6,10.2-10.2,10.2H42.4v325.4h427.2V154.3h-50.8c-5.6,0-10.2-4.6-10.2-10.2c0-5.6,4.6-10.2,10.2-10.2h61
	c5.6,0,10.2,4.6,10.2,10.2v345.9C489.9,495.5,485.4,500.1,479.8,500.1z"/>
<path class="st0" d="M195,418.8c-5.6,0-10.1-4.5-10.2-10v-0.1V245.8c0-5.6,4.6-10.2,10.2-10.2c1.8,0,3.5,0.5,5.1,1.3l142.4,81.3
	c4.9,2.8,6.6,9,3.8,13.9c-0.9,1.6-2.2,2.9-3.8,3.8L200,417.3C198.5,418.3,196.8,418.8,195,418.8z M205.2,263.3V391l111.8-63.8
	C316.8,327.2,205.2,263.3,205.2,263.3z"/>
</svg>
