<?xml version="1.0" encoding="utf-8"?>
<!-- Generator: Adobe Illustrator 24.3.0, SVG Export Plug-In . SVG Version: 6.00 Build 0)  -->
<svg version="1.1" id="Layer_1" xmlns="http://www.w3.org/2000/svg" xmlns:xlink="http://www.w3.org/1999/xlink" x="0px" y="0px"
	 viewBox="0 0 572.1 344.6" style="enable-background:new 0 0 572.1 344.6;" xml:space="preserve">
<style type="text/css">
	.st0{fill:url(#SVGID_1_);}
	.st1{fill:url(#SVGID_2_);}
	.st2{fill:url(#SVGID_3_);}
	.st3{fill:#CEE4F4;}
	.st4{fill:#2C4482;}
	.st5{fill:#CBE3F4;}
	.st6{clip-path:url(#SVGID_5_);}
	.st7{fill:#FFFFFF;}
	.st8{fill:none;stroke:#FFC133;stroke-width:1.7765;stroke-miterlimit:10;}
	.st9{fill:#40D366;}
	.st10{fill:#D89E0B;}
	.st11{fill:#FFC219;}
	.st12{fill:#413E3F;}
	.st13{fill:#FFC133;}
	.st14{clip-path:url(#SVGID_7_);}
	.st15{opacity:0.63;}
	.st16{fill:#C98909;}
	.st17{opacity:0.63;clip-path:url(#SVGID_9_);}
	.st18{fill:#AEAEAE;}
	.st19{fill:#444041;}
	.st20{fill:#C4DCF2;}
	.st21{clip-path:url(#SVGID_11_);fill:#DAEAF7;}
	.st22{clip-path:url(#SVGID_13_);fill:#DAEAF7;}
	.st23{fill:#F2B327;}
	.st24{clip-path:url(#SVGID_15_);fill:#FFC133;}
	.st25{fill:#FF3535;}
	.st26{clip-path:url(#SVGID_17_);fill:#DAEAF7;}
	.st27{fill:#88D6F4;}
	.st28{fill:#FFB49D;}
	.st29{fill:#003A70;}
	.st30{clip-path:url(#SVGID_19_);fill:#F4EAE9;}
	.st31{clip-path:url(#SVGID_21_);fill:#413E3F;}
	.st32{clip-path:url(#SVGID_23_);fill:#F4EAE9;}
	.st33{clip-path:url(#SVGID_25_);fill:#413E3F;}
	.st34{fill:#FFCA69;}
	.st35{clip-path:url(#SVGID_27_);}
	.st36{fill:#3A6893;}
	.st37{fill:#5D78B5;}
</style>
<g id="BACKGROUND">
</g>
<g id="OBJECTS">
	
		<linearGradient id="SVGID_1_" gradientUnits="userSpaceOnUse" x1="285.8" y1="-175.392" x2="285.8" y2="96.808" gradientTransform="matrix(1 0 0 -1 0 154.908)">
		<stop  offset="0" style="stop-color:#F7FBFE"/>
		<stop  offset="0.9968" style="stop-color:#E1F1FB"/>
	</linearGradient>
	<path class="st0" d="M8.2,330.3v-58.6h12v18.8h13.3v-97.4h35.4v39.8l14.4-14.4V84.6c0,0,55.3-4.4,55.3,0s0,22.1,0,22.1h23.2V140
		h49.8v100.7h23.2V58.1h39.8v53.1h43.2v3.3v96.3h18.8V80.2h38.7v99.6l36.5,36.5v-62l21,21v76.3h39.8v-87.4H517v107.3h46.4v54.2
		L8.2,330.3z"/>
	
		<linearGradient id="SVGID_2_" gradientUnits="userSpaceOnUse" x1="375.4" y1="-62.256" x2="375.4" y2="-44.7358" gradientTransform="matrix(1 0 0 -1 0 154.908)">
		<stop  offset="0" style="stop-color:#F7FBFE"/>
		<stop  offset="0.9968" style="stop-color:#E1F1FB"/>
	</linearGradient>
	<path class="st1" d="M406.8,217.2H344c0,0,12-12,24.9-6C381.9,217.2,397.8,178.3,406.8,217.2z"/>
	
		<linearGradient id="SVGID_3_" gradientUnits="userSpaceOnUse" x1="470.85" y1="110.77" x2="470.85" y2="142.1158" gradientTransform="matrix(1 0 0 -1 0 154.908)">
		<stop  offset="0" style="stop-color:#F7FBFE"/>
		<stop  offset="0.9968" style="stop-color:#E1F1FB"/>
	</linearGradient>
	<path class="st2" d="M527.1,44.1H414.6c0,0,21.4-21.4,44.6-10.7C482.5,44.1,511-25.5,527.1,44.1z"/>
	<path class="st3" d="M277.5,303.8c173.2,0,294.5,8.5,294.5,18.9c0,10.5-121.4,18.9-294.5,18.9S0,333.2,0,322.7
		C0,312.3,104.4,303.8,277.5,303.8z"/>
	<g>
		<path class="st4" d="M176.8,309.7H84.3c-16.6,0-30-13.4-30-30V30c0-16.6,13.4-30,30-30h92.5c16.6,0,30,13.4,30,30v249.7
			C206.8,296.3,193.4,309.7,176.8,309.7z"/>
		<g>
			<g>
				<path id="XMLID_7_" class="st5" d="M172.3,300.6H88.8c-15.5,0-28-12.5-28-28V34.1c0-15.5,12.5-28,28-28h83.5
					c15.5,0,28,12.5,28,28v238.6C200.3,288.1,187.7,300.6,172.3,300.6z"/>
			</g>
			<g>
				<g>
					<g>
						<defs>
							<path id="SVGID_4_" d="M172.3,300.6H88.8c-15.5,0-28-12.5-28-28V34.1c0-15.5,12.5-28,28-28h83.5c15.5,0,28,12.5,28,28v238.6
								C200.3,288.1,187.7,300.6,172.3,300.6z"/>
						</defs>
						<clipPath id="SVGID_5_">
							<use xlink:href="#SVGID_4_"  style="overflow:visible;"/>
						</clipPath>
						<g class="st6">
							<g>
								<polygon class="st7" points="97.6,201.5 144.1,255.6 144.3,256.3 155.9,316.5 150.8,317.5 139.3,258 93.7,204.9 								"/>
							</g>
							<g>
								<path class="st7" d="M125.5,185.2l2.5,4.6c-37.8,20.9-94.9,52.7-97.4,54.4c0,0,0.1-0.1,0.3-0.3l-3.7-3.6
									c0.5-0.5,0.9-0.9,49.9-28.2C101,198.7,125.2,185.3,125.5,185.2z"/>
							</g>
							<g>
								<polygon class="st7" points="86.7,126.2 86.9,126.5 120.1,172.3 120.2,172.6 143.6,223.5 245.4,294 242.5,298.3 
									139.4,226.9 115.6,175 82.9,129.8 12.3,73.1 15.6,69 								"/>
							</g>
							<g>
								<polygon class="st7" points="323.1,202.2 321.9,207.2 149.8,166.7 119.9,178.5 118,173.6 149.4,161.2 								"/>
							</g>
							<g>
								
									<rect x="232.5" y="82" transform="matrix(0.1885 -0.9821 0.9821 0.1885 25.3159 367.6078)" class="st7" width="5.2" height="173"/>
							</g>
							<g>
								
									<rect x="239.1" y="40.3" transform="matrix(0.1401 -0.9901 0.9901 0.1401 82.513 348.1309)" class="st7" width="5.2" height="172.5"/>
							</g>
							<g>
								<path class="st7" d="M148.5-52.6L124.8,73.9c9.4,1.2,41.3,5.3,73,9.4c22.1,2.9,39.7,5.2,52.4,7c24.8,3.4,25,3.6,25.9,4.5
									l-3.6,3.7c0.4,0.4,0.8,0.5,0.9,0.5c-4.4-1.3-93.3-12.9-151.9-20.3l-2.7-0.3l24.7-131.9L148.5-52.6z"/>
							</g>
							<g>
								<path class="st7" d="M182-45.1c0.1,0.1,0.1,0.1,0.2,0.2c1,1.2,1.4,1.6-2,22.3c-1.7,10.4-4.1,24.7-7.2,42.6
									c-5.2,29.7-10.7,59.5-11,61.3l-9.7,83l-5.2-0.6l9.8-83.1v-0.1c8.6-46.7,21.2-118.1,20.8-123.2c0.1,0.8,1,2.1,2.5,2l-0.1-5.2
									C180.8-45.9,181.4-45.6,182-45.1z"/>
							</g>
							<g>
								
									<rect x="118.4" y="104.6" transform="matrix(5.250328e-02 -0.9986 0.9986 5.250328e-02 -21.3486 249.8082)" class="st7" width="5.2" height="63.2"/>
							</g>
							<g>
								<path class="st7" d="M139.5,78.8c-7.8,25.1-16.1,53.6-16,56.8c0,0,0-0.8-0.7-1.4l0,0c-0.5-0.5-1.1-0.7-1.8-0.7l0.1,5.2
									c-0.9,0-1.7-0.4-2.2-1.1c-1-1.4-1.7-2.2,7.1-32c4.1-14.1,8.5-28.2,8.6-28.4L139.5,78.8z"/>
							</g>
							<g>
								
									<rect x="84.9" y="62.4" transform="matrix(0.1279 -0.9918 0.9918 0.1279 -25.8634 176.6848)" class="st7" width="5.2" height="81.3"/>
							</g>
							<g>
								
									<rect x="62.6" y="-18.7" transform="matrix(0.9649 -0.2626 0.2626 0.9649 -12.4039 19.0848)" class="st7" width="5.2" height="149.3"/>
							</g>
							<g>
								<polygon class="st7" points="49.7,121.2 85.7,210.6 80.9,212.6 45.5,124.9 5.2,103.5 7.7,98.9 								"/>
							</g>
							<g>
								
									<rect x="138" y="244.9" transform="matrix(0.6969 -0.7171 0.7171 0.6969 -131.7084 183.3363)" class="st7" width="26.1" height="5.2"/>
							</g>
							<g>
								<polygon class="st7" points="191.5,174.3 183.6,192.2 215.6,211.2 186.1,256 181.7,253.1 208.3,212.9 177,194.4 
									186.8,172.2 								"/>
							</g>
						</g>
					</g>
				</g>
			</g>
		</g>
		<polyline class="st8" points="126.4,47 122.1,76 160.9,81.8 148.5,165.5 120.3,175.9 141.6,224.4 		"/>
		<path class="st9" d="M126.4,24.5c-4.1-0.1-7.4,3.1-7.6,7.1c-0.1,4.1,7,11.9,7,11.9s7.6-7.4,7.7-11.5
			C133.6,28,130.5,24.6,126.4,24.5z M126.1,34.8c-1.7-0.1-3.1-1.5-3-3.2s1.5-3.1,3.2-3s3.1,1.5,3,3.2
			C129.3,33.5,127.9,34.9,126.1,34.8z"/>
		<g>
			<path class="st9" d="M145.3,224.9c-0.3,2-2.2,3.4-4.2,3.1c-2-0.3-3.4-2.2-3.1-4.2c0.3-2,2.2-3.4,4.2-3.1
				C144.1,220.9,145.6,222.8,145.3,224.9z"/>
			<g>
				<path class="st9" d="M140.6,230.7c-3.5-0.5-5.9-3.8-5.4-7.3s3.8-5.9,7.3-5.4s5.9,3.8,5.4,7.3
					C147.4,228.7,144.1,231.2,140.6,230.7z M142.3,219.1c-2.9-0.4-5.6,1.6-6.1,4.5c-0.4,2.9,1.6,5.6,4.5,6.1
					c2.9,0.4,5.6-1.6,6.1-4.5C147.3,222.2,145.2,219.5,142.3,219.1z"/>
			</g>
		</g>
	</g>
	<g>
		<rect x="175.4" y="269.9" class="st10" width="322.5" height="36.9"/>
		<path class="st11" d="M352.2,191.4l2.1-7.7c0.4-1.6,1.9-2.7,3.6-2.7h15.9c1.8,0,3.3,1.3,3.6,3l1.3,7.4H352.2z"/>
		<rect x="350.3" y="190.4" class="st12" width="30.3" height="4.7"/>
		<g>
			<g>
				<path id="XMLID_4_" class="st13" d="M544.7,258.1c0,0,1.9-19.9,0-24.6c-1.9-4.7-36.9-5.7-36.9-5.7s-39.7-19.9-61.5-28.4
					s-110.7-5.7-130.5-3.8s-84.2,39.7-84.2,39.7c-47.3,0.9-80.4,11.4-87,18c-4.7,4.7-7.5,31-8.7,45.8c-0.4,5.4,3.8,10.1,9.2,10.1
					l59.1,0.7c-0.9-2.8-1.4-5.8-1.4-8.8c0-15.7,12.7-28.4,28.4-28.4s28.4,12.7,28.4,28.4c0,3.3-0.6,6.5-1.6,9.5l173.3,2
					c-1.5-3.5-2.4-7.4-2.4-11.5c0-15.7,12.7-28.4,28.4-28.4s28.4,12.7,28.4,28.4c0,3.2-0.5,6.3-1.5,9.2l69.2-8.7
					C560.8,271.3,544.7,258.1,544.7,258.1z"/>
			</g>
			<g>
				<g>
					<g>
						<defs>
							<path id="SVGID_6_" d="M544.7,258.1c0,0,1.9-19.9,0-24.6c-1.9-4.7-36.9-5.7-36.9-5.7s-39.7-19.9-61.5-28.4
								s-110.7-5.7-130.5-3.8s-84.2,39.7-84.2,39.7c-47.3,0.9-80.4,11.4-87,18c-4.7,4.7-7.5,31-8.7,45.8c-0.4,5.4,3.8,10.1,9.2,10.1
								l59.1,0.7c-0.9-2.8-1.4-5.8-1.4-8.8c0-15.7,12.7-28.4,28.4-28.4s28.4,12.7,28.4,28.4c0,3.3-0.6,6.5-1.6,9.5l173.3,2
								c-1.5-3.5-2.4-7.4-2.4-11.5c0-15.7,12.7-28.4,28.4-28.4s28.4,12.7,28.4,28.4c0,3.2-0.5,6.3-1.5,9.2l69.2-8.7
								C560.8,271.3,544.7,258.1,544.7,258.1z"/>
						</defs>
						<clipPath id="SVGID_7_">
							<use xlink:href="#SVGID_6_"  style="overflow:visible;"/>
						</clipPath>
						<g class="st14">
							<g class="st15">
								<g>
									<path class="st16" d="M365.3,235.6c-6.3,34.1-6.6,68.9-0.9,103.1c0.1,0.9,1.5,0.5,1.4-0.4c-5.7-33.9-5.3-68.5,0.9-102.3
										C366.9,235.1,365.5,234.7,365.3,235.6L365.3,235.6z"/>
								</g>
							</g>
							<g class="st15">
								<g>
									<path class="st16" d="M259.9,234.3c-8.5,25.1-10.1,52-4.5,77.9c0.2,0.9,1.6,0.5,1.4-0.4c-5.5-25.7-3.9-52.3,4.5-77.2
										C261.6,233.8,260.2,233.4,259.9,234.3L259.9,234.3z"/>
								</g>
							</g>
							<g class="st15">
								<g>
									<path class="st16" d="M455.5,237.5c-6.7,19.4-11.4,39.4-14,59.8c-0.1,0.9,1.3,0.9,1.4,0c2.6-20.3,7.2-40.2,13.9-59.5
										C457.1,237,455.7,236.6,455.5,237.5L455.5,237.5z"/>
								</g>
							</g>
						</g>
					</g>
				</g>
			</g>
			<g>
				<g>
					<g>
						<defs>
							<path id="SVGID_8_" d="M544.7,258.1c0,0,1.9-19.9,0-24.6c-1.9-4.7-36.9-5.7-36.9-5.7s-39.7-19.9-61.5-28.4
								s-110.7-5.7-130.5-3.8s-84.2,39.7-84.2,39.7c-47.3,0.9-80.4,11.4-87,18c-4.7,4.7-7.5,31-8.7,45.8c-0.4,5.4,3.8,10.1,9.2,10.1
								l59.1,0.7c-0.9-2.8-1.4-5.8-1.4-8.8c0-15.7,12.7-28.4,28.4-28.4s28.4,12.7,28.4,28.4c0,3.3-0.6,6.5-1.6,9.5l173.3,2
								c-1.5-3.5-2.4-7.4-2.4-11.5c0-15.7,12.7-28.4,28.4-28.4s28.4,12.7,28.4,28.4c0,3.2-0.5,6.3-1.5,9.2l69.2-8.7
								C560.8,271.3,544.7,258.1,544.7,258.1z"/>
						</defs>
						<clipPath id="SVGID_9_">
							<use xlink:href="#SVGID_8_"  style="overflow:visible;"/>
						</clipPath>
						<g class="st17">
							<g>
								<path class="st16" d="M255.6,237.9c-30.5,7.1-60.7,15.7-90.4,25.6c-0.9,0.3-0.5,1.7,0.4,1.4c29.7-10,59.9-18.5,90.4-25.6
									C256.9,239,256.5,237.7,255.6,237.9L255.6,237.9z"/>
							</g>
						</g>
					</g>
				</g>
			</g>
		</g>
		<path class="st12" d="M231.2,275.6c-14.1,0-25.5,11.4-25.5,25.5c0,2.8,0.4,5.4,1.3,8c3.3,10.2,12.9,17.6,24.3,17.6
			c11.1,0,20.6-7.1,24.1-17c0.9-2.7,1.5-5.5,1.5-8.5C256.7,287,245.3,275.6,231.2,275.6z"/>
		<path class="st18" d="M231.2,286.9c-7.8,0-14.2,6.4-14.2,14.2c0,1.5,0.2,3,0.7,4.4c1.9,5.7,7.2,9.8,13.5,9.8
			c6.2,0,11.4-4,13.4-9.5c0.5-1.5,0.8-3.1,0.8-4.7C245.4,293.3,239,286.9,231.2,286.9z"/>
		<path class="st12" d="M457.2,275.6c-14.1,0-25.5,11.4-25.5,25.5c0,2.8,0.4,5.4,1.3,8c3.3,10.2,12.9,17.6,24.3,17.6
			c11.1,0,20.6-7.1,24.1-17c0.9-2.7,1.5-5.5,1.5-8.5C482.8,287,471.3,275.6,457.2,275.6z"/>
		<path class="st18" d="M457.2,286.9c-7.8,0-14.2,6.4-14.2,14.2c0,1.5,0.2,3,0.7,4.4c1.9,5.7,7.2,9.8,13.5,9.8
			c6.2,0,11.4-4,13.4-9.5c0.5-1.5,0.8-3.1,0.8-4.7C471.4,293.3,465.1,286.9,457.2,286.9z"/>
		<path class="st19" d="M460.1,240.6H250.7c-2.3,0-3.3-3-1.4-4.3c10.7-7.5,35.3-23.3,66-34.5c0,0,87-6.6,110.7,0
			c17.4,4.9,31.1,23.5,37.3,33C464.9,237.3,463.1,240.6,460.1,240.6z"/>
		<g>
			<g>
				<path id="XMLID_1_" class="st20" d="M453.8,237.7H261.7c-2.1,0-3-2.6-1.2-3.7c9.9-6.5,32.4-20.1,60.5-29.8c0,0,79.8-5.7,101.5,0
					c15.9,4.2,28.6,20.3,34.2,28.5C458.1,234.9,456.5,237.7,453.8,237.7z"/>
			</g>
			<g>
				<g>
					<g>
						<defs>
							<path id="SVGID_10_" d="M453.8,237.7H261.7c-2.1,0-3-2.6-1.2-3.7c9.9-6.5,32.4-20.1,60.5-29.8c0,0,79.8-5.7,101.5,0
								c15.9,4.2,28.6,20.3,34.2,28.5C458.1,234.9,456.5,237.7,453.8,237.7z"/>
						</defs>
						<clipPath id="SVGID_11_">
							<use xlink:href="#SVGID_10_"  style="overflow:visible;"/>
						</clipPath>
						<polygon class="st21" points="266.2,252.9 360.7,177.2 390.1,180 283.2,254.8 						"/>
					</g>
				</g>
			</g>
			<g>
				<g>
					<g>
						<defs>
							<path id="SVGID_12_" d="M453.8,237.7H261.7c-2.1,0-3-2.6-1.2-3.7c9.9-6.5,32.4-20.1,60.5-29.8c0,0,79.8-5.7,101.5,0
								c15.9,4.2,28.6,20.3,34.2,28.5C458.1,234.9,456.5,237.7,453.8,237.7z"/>
						</defs>
						<clipPath id="SVGID_13_">
							<use xlink:href="#SVGID_12_"  style="overflow:visible;"/>
						</clipPath>
						<polyline class="st22" points="320.1,252.9 323.6,249.2 390.1,180 407.1,184.8 335.2,247.2 392.9,248.1 441.1,173.4 
							463.8,177.2 402.4,251 422.2,250 457.2,199 463.9,206.9 427,252.9 						"/>
					</g>
				</g>
			</g>
		</g>
		<g>
			<g>
				<path id="XMLID_3_" class="st23" d="M283.2,237.3c0,3.4-5.9,6.1-13.2,6.1c-7.3,0-13.2-2.8-13.2-6.1s5.9-6.1,13.2-6.1
					C277.3,231.1,283.2,233.9,283.2,237.3z"/>
			</g>
			<g>
				<g>
					<g>
						<defs>
							<ellipse id="SVGID_14_" cx="269.9" cy="237.3" rx="13.2" ry="6.1"/>
						</defs>
						<clipPath id="SVGID_15_">
							<use xlink:href="#SVGID_14_"  style="overflow:visible;"/>
						</clipPath>
						<ellipse class="st24" cx="266.2" cy="234.4" rx="13.2" ry="6.1"/>
					</g>
				</g>
			</g>
		</g>
		<path class="st19" d="M366.6,201.8c0,0,1.4,24.6-1.8,35.9h5.1c0,0-2.7-18.2,0-36L366.6,201.8z"/>
		<g>
			<g>
				<path id="XMLID_2_" class="st25" d="M545.5,243.4c-0.2-0.3-29.7-0.9-28.7,2.8c0.9,3.8,8.5,20.1,31.7,16.2
					C548.5,262.5,551.6,252.9,545.5,243.4z"/>
			</g>
			<g>
				<g>
					<g>
						<defs>
							<path id="SVGID_16_" d="M545.5,243.4c-0.2-0.3-29.7-0.9-28.7,2.8c0.9,3.8,8.5,20.1,31.7,16.2
								C548.5,262.5,551.6,252.9,545.5,243.4z"/>
						</defs>
						<clipPath id="SVGID_17_">
							<use xlink:href="#SVGID_16_"  style="overflow:visible;"/>
						</clipPath>
						<rect x="494.1" y="234" class="st26" width="68.1" height="12.3"/>
					</g>
				</g>
			</g>
		</g>
		<path class="st27" d="M138.5,275.6c0,0,22.2-2.4,30.7-5.2c8.5-2.8,14.2-12.3,14.2-12.3h-41.2C142.2,258.1,136.1,266.6,138.5,275.6
			z"/>
		<path class="st18" d="M137.9,286.9c0,0,9.5-2.4,10.5,2.4c0.9,4.7-2.1,12.9-12.4,8.4C136,297.6,133.1,293.1,137.9,286.9z"/>
		<rect x="269" y="267.1" class="st12" width="7.6" height="7.6"/>
		<rect x="276.6" y="274.6" class="st12" width="7.6" height="7.6"/>
		<rect x="284.1" y="267.1" class="st12" width="7.6" height="7.6"/>
		<rect x="291.7" y="274.6" class="st12" width="7.6" height="7.6"/>
		<rect x="299.3" y="267.1" class="st12" width="7.6" height="7.6"/>
		<rect x="306.8" y="274.6" class="st12" width="7.6" height="7.6"/>
		<rect x="314.4" y="267.1" class="st12" width="7.6" height="7.6"/>
		<rect x="322" y="274.6" class="st12" width="7.6" height="7.6"/>
		<rect x="329.5" y="267.1" class="st12" width="7.6" height="7.6"/>
		<rect x="337.1" y="274.6" class="st12" width="7.6" height="7.6"/>
		<rect x="344.7" y="267.1" class="st12" width="7.6" height="7.6"/>
		<rect x="352.2" y="274.6" class="st12" width="7.6" height="7.6"/>
		<rect x="359.8" y="267.1" class="st12" width="7.6" height="7.6"/>
		<rect x="367.4" y="274.6" class="st12" width="7.6" height="7.6"/>
		<rect x="374.9" y="267.1" class="st12" width="7.6" height="7.6"/>
		<rect x="382.5" y="274.6" class="st12" width="7.6" height="7.6"/>
		<rect x="390.1" y="267.1" class="st12" width="7.6" height="7.6"/>
		<rect x="397.6" y="274.6" class="st12" width="7.6" height="7.6"/>
		<rect x="405.2" y="267.1" class="st12" width="7.6" height="7.6"/>
		<rect x="412.8" y="274.6" class="st12" width="7.6" height="7.6"/>
		<rect x="420.3" y="267.1" class="st12" width="7.6" height="7.6"/>
		<path class="st10" d="M439.3,254.8h-14.2c-1,0-1.9-0.8-1.9-1.9l0,0c0-1,0.8-1.9,1.9-1.9h14.2c1,0,1.9,0.8,1.9,1.9l0,0
			C441.1,253.9,440.3,254.8,439.3,254.8z"/>
	</g>
	<path class="st9" d="M367.6,42.1c-27.1,0-49.1,22-49.1,49.1s49.4,78.2,49.1,78.2s49.1-51,49.1-78.2S394.7,42.1,367.6,42.1z
		 M367.9,111.3c-11.6,0-21-9.4-21-21s9.4-21,21-21s21,9.4,21,21S379.5,111.3,367.9,111.3z"/>
	<g>
		<polygon class="st4" points="88,142.5 102.2,129.8 102.2,139.6 88.6,147.3 		"/>
		<path class="st28" d="M90.4,146.1c0.6-0.6-1.8-3,0.6-5.4s4.8-3,5.4-1.2s-1.8,6.7-5.4,7.9S90.4,146.1,90.4,146.1z"/>
		<path class="st29" d="M58.6,93.4c0.6,0,15.1,0.6,9.7-16.3c-1.3-4.1-8.5,0.6-8.5,0.6s1.8-6.1-1.8-7.9c-5.3-2.7-18.8,6.7-18.2,9.7
			c0,0-6.1,3.6-3.6,10.3s9.7,7.9,9.7,17.6C45.9,117,58.6,93.4,58.6,93.4z"/>
		<g>
			<g>
				<path id="XMLID_20_" class="st28" d="M31,290.5c-0.3,0.3-5.1,6.9-5.4,6.6c-0.2-0.2-2.2,0.2-3.7,0.6c-0.8,0.2-1.4,1-1.3,1.8
					c0.4,3.6,1.7,12.8,3.1,14.4c1.8,2.1,7.5,4.8,7.8,3.6c0.3-1.2-3.3-5.1-3.3-5.1l0.3-12.3l6.9-6.3l-4.2-3.3"/>
			</g>
			<g>
				<g>
					<g>
						<defs>
							<path id="SVGID_18_" d="M31,290.5c-0.3,0.3-5.1,6.9-5.4,6.6c-0.2-0.2-2.2,0.2-3.7,0.6c-0.8,0.2-1.4,1-1.3,1.8
								c0.4,3.6,1.7,12.8,3.1,14.4c1.8,2.1,7.5,4.8,7.8,3.6c0.3-1.2-3.3-5.1-3.3-5.1l0.3-12.3l6.9-6.3l-4.2-3.3"/>
						</defs>
						<clipPath id="SVGID_19_">
							<use xlink:href="#SVGID_18_"  style="overflow:visible;"/>
						</clipPath>
						<path class="st30" d="M27.2,291.8c0,0,4.2,5.4,6,7.5s2.1,21.3,2.1,21.3l-14.7-3.9l-5.4-14.1L27.2,291.8z"/>
					</g>
				</g>
			</g>
			<g>
				<g>
					<g>
						<defs>
							<path id="SVGID_20_" d="M31,290.5c-0.3,0.3-5.1,6.9-5.4,6.6c-0.2-0.2-2.2,0.2-3.7,0.6c-0.8,0.2-1.4,1-1.3,1.8
								c0.4,3.6,1.7,12.8,3.1,14.4c1.8,2.1,7.5,4.8,7.8,3.6c0.3-1.2-3.3-5.1-3.3-5.1l0.3-12.3l6.9-6.3l-4.2-3.3"/>
						</defs>
						<clipPath id="SVGID_21_">
							<use xlink:href="#SVGID_20_"  style="overflow:visible;"/>
						</clipPath>
						<path class="st31" d="M24.5,290.3c-0.6,1.5,1.5,6.9,6.3,12s3.6,20.1,3.6,20.1l-16.8-5.7L14,303.9L24.5,290.3z"/>
					</g>
				</g>
			</g>
		</g>
		<path class="st4" d="M47.2,218.1c-0.6,0.9,8.7,34.2,10.2,36.3c1.5,2.1-27.6,35.4-27.6,35.4s0.3,7.8,4.8,7
			c4.5-0.7,42.6-37.1,40.2-50.3c-2.4-13.2-14.1-54.4-14.1-54.4l-18,3.3L47.2,218.1z"/>
		<g>
			<g>
				<path id="XMLID_18_" class="st28" d="M37.9,304c0.3,0.3,1.5,9.9,1.5,9.9s-1.2,3.9-0.9,4.8s20.1,0.9,19.5,0s-13.5-5.4-13.5-5.7
					s-0.3-9-0.3-9L37.9,304z"/>
			</g>
			<g>
				<g>
					<g>
						<defs>
							<path id="SVGID_22_" d="M37.9,304c0.3,0.3,1.5,9.9,1.5,9.9s-1.2,3.9-0.9,4.8s20.1,0.9,19.5,0s-13.5-5.4-13.5-5.7
								s-0.3-9-0.3-9L37.9,304z"/>
						</defs>
						<clipPath id="SVGID_23_">
							<use xlink:href="#SVGID_22_"  style="overflow:visible;"/>
						</clipPath>
						<path class="st32" d="M38.1,308.7c0,0,6-0.3,8.4-0.9s15.6,8.4,15.6,8.4l0.6,7.5l-25.8-1.2l-3.9-4.8L38.1,308.7z"/>
					</g>
				</g>
			</g>
			<g>
				<g>
					<g>
						<defs>
							<path id="SVGID_24_" d="M37.9,304c0.3,0.3,1.5,9.9,1.5,9.9s-1.2,3.9-0.9,4.8s20.1,0.9,19.5,0s-13.5-5.4-13.5-5.7
								s-0.3-9-0.3-9L37.9,304z"/>
						</defs>
						<clipPath id="SVGID_25_">
							<use xlink:href="#SVGID_24_"  style="overflow:visible;"/>
						</clipPath>
						<path class="st33" d="M38.1,312.9c0,0,3,2.1,8.4-1.2c5.4-3.3,15,7.8,15,7.8l-23.4,3V312.9z"/>
					</g>
				</g>
			</g>
		</g>
		<path class="st4" d="M24.7,191.1c-0.3,0.9-0.6,17.1,2.7,27.9s6.3,81.7,8.4,85.3c2.1,3.6,12.6,0,12.6,0s1.8-68.8,1.2-77.5
			s1.8-33.3,1.8-33.3L24.7,191.1z"/>
		<g>
			<g>
				<path id="XMLID_12_" class="st34" d="M41.8,114.5c0,0-15.3-0.9-20.4,9s-0.9,36.6,0,42.4c0.9,5.7-1.2,26.1,2.7,28.8
					s36.9,4.2,40.6,0c3.6-4.2,0.3-52.9,1.5-56.5c1.2-3.6-1.2-22.5-14.1-22.8C39.1,115.1,41.8,114.5,41.8,114.5z"/>
			</g>
			<g>
				<g>
					<g>
						<defs>
							<path id="SVGID_26_" d="M41.8,114.5c0,0-15.3-0.9-20.4,9s-0.9,36.6,0,42.4c0.9,5.7-1.2,26.1,2.7,28.8s36.9,4.2,40.6,0
								c3.6-4.2,0.3-52.9,1.5-56.5c1.2-3.6-1.2-22.5-14.1-22.8C39.1,115.1,41.8,114.5,41.8,114.5z"/>
						</defs>
						<clipPath id="SVGID_27_">
							<use xlink:href="#SVGID_26_"  style="overflow:visible;"/>
						</clipPath>
						<g class="st35">
							<path class="st36" d="M55.6,115.9c-0.1,4.8-5.6,5.4-9.3,4.7c-4.1-0.8-10.1-2.2-10.1-7.4c0-0.4,0.6-0.4,0.6,0
								c-0.1,4.5,4.8,5.8,8.3,6.6c3.4,0.8,9.7,1.2,9.9-3.9C55,115.6,55.6,115.6,55.6,115.9L55.6,115.9z"/>
						</g>
					</g>
				</g>
			</g>
		</g>
		<path class="st28" d="M63.1,86.8c0.6-0.3-0.6,12-0.9,15.6c-0.3,3.6-4.5,7.8-9.9,6.6s-10.2-6.6-9.6-16.2c0,0-3-1.8-2.1-4.8
			s3.3,2.4,3.3,2.4s1.2-1.5,1.5-5.1s3.9-6.6,7.2-3.3C55.9,85.3,61,87.7,63.1,86.8z"/>
		<path class="st28" d="M43.1,98.8c0,0,0.5,13.3-4.1,16.3c0,0,9,7.2,14.4,1.2c0,0-0.6-10.2,0-12.3C54.1,101.9,43.1,98.8,43.1,98.8z"
			/>
		<g>
			<g>
				<path class="st37" d="M49.6,230c1.8-3.1,2.6-6.6,2.4-10.2c-0.2-4-1.3-8-1.6-12c0-0.3-0.5-0.3-0.5,0c0.3,3.7,1.2,7.2,1.5,10.9
					c0.3,3.9-0.3,7.7-2.3,11.1C49,230,49.4,230.2,49.6,230L49.6,230z"/>
			</g>
			<g>
				<path class="st37" d="M47.9,217.7c0.9-0.8,1.9-1.6,2.8-2.4c0.2-0.2-0.1-0.5-0.3-0.3c-0.9,0.8-1.9,1.6-2.8,2.4
					C47.4,217.6,47.7,217.9,47.9,217.7L47.9,217.7z"/>
			</g>
			<g>
				<path class="st37" d="M50.8,221c0.4-1,0.8-2,1.2-3c0.1-0.3-0.3-0.4-0.4-0.1c-0.4,1-0.8,2-1.2,3C50.2,221.2,50.7,221.3,50.8,221
					L50.8,221z"/>
			</g>
			<g>
				<path class="st37" d="M34.5,206.8c0.9,2.2,1.5,4.6,1.6,7c0.1,2.1,0,4.6-1.9,6c-0.2,0.2,0,0.6,0.2,0.4c4-2.7,2-9.9,0.5-13.5
					C34.9,206.4,34.4,206.5,34.5,206.8L34.5,206.8z"/>
			</g>
			<g>
				<path class="st37" d="M67,251c0.7,0,1.5,0,2.2,0c0.3,0,0.3-0.5,0-0.5c-0.7,0-1.5,0-2.2,0C66.7,250.6,66.7,251,67,251L67,251z"/>
			</g>
			<g>
				<path class="st37" d="M68.9,254c0.2-0.1,0.4-0.1,0.6-0.2c0.3-0.1,0.2-0.5-0.1-0.4c-0.2,0.1-0.4,0.1-0.6,0.2
					C68.5,253.7,68.6,254.1,68.9,254L68.9,254z"/>
			</g>
			<g>
				<path class="st37" d="M48.9,266.2c0.2,5.7,0.3,11.5,0.2,17.2c0,0.3,0.4,0.3,0.5,0c0.1-5.7,0-11.5-0.2-17.2
					C49.4,265.9,48.9,265.9,48.9,266.2L48.9,266.2z"/>
			</g>
			<g>
				<path class="st37" d="M33.3,285.9c0.6,3,1.2,6,1.6,9c0,0.3,0.5,0.2,0.4-0.1c-0.4-3-1-6-1.6-9C33.7,285.5,33.2,285.6,33.3,285.9
					L33.3,285.9z"/>
			</g>
			<g>
				<path class="st37" d="M44,200.7c5.6,0.4,11.2-0.2,16.7-1.7c0.3-0.1,0.2-0.5-0.1-0.4c-5.4,1.5-11,2.1-16.6,1.7
					C43.7,200.2,43.7,200.7,44,200.7L44,200.7z"/>
			</g>
			<g>
				<path class="st37" d="M55.2,198.9c0.6,0.7,1.1,1.6,1.4,2.5c0.1,0.3,0.5,0.2,0.4-0.1c-0.3-1-0.8-1.9-1.5-2.7
					C55.4,198.3,55,198.6,55.2,198.9L55.2,198.9z"/>
			</g>
			<g>
				<path class="st37" d="M50.2,199.6c0.3,0.6,0.6,1.2,0.8,1.8c0.1,0.3,0.5,0,0.4-0.2c-0.3-0.6-0.6-1.2-0.8-1.8
					C50.4,199.2,50,199.4,50.2,199.6L50.2,199.6z"/>
			</g>
			<g>
				<path class="st37" d="M47,199.8c0.1,0.3,0.3,0.5,0.4,0.8c0.1,0.3,0.5,0,0.4-0.2c-0.1-0.3-0.3-0.5-0.4-0.8
					C47.2,199.4,46.8,199.6,47,199.8L47,199.8z"/>
			</g>
		</g>
		<g>
			<path class="st29" d="M52.4,109c-2.8-1-5-2.9-6.3-5.5c-0.1-0.1-0.3,0-0.2,0.1c1.3,2.7,3.6,4.7,6.5,5.6
				C52.5,109.3,52.6,109,52.4,109L52.4,109z"/>
		</g>
		<path class="st34" d="M57.6,152.4c0,0,19.2-1.1,29.7-8.2c0,0,4.8,3.6,4.1,6c-0.7,2.4-21.3,19.4-26.9,13.4
			C58.7,157.6,57.6,152.4,57.6,152.4z"/>
		<path class="st34" d="M30,118.7c0,0-12.5,1.9-13.2,23.9s3.5,38.6,2.4,43.5s7.7,23.2,8.5,23.6c0.7,0.4,3-4.8,3-4.8
			s-0.7-25,1.1-48.9C33.6,132.1,35.8,119.8,30,118.7z"/>
		<g>
			<path class="st36" d="M33.9,138.2c0.5,2.1,1,4.3,0.6,6.4c-0.3,1.9-1.4,3.2-2.4,4.8c-1.5,2.2-1.6,4.8-1.5,7.4
				c0.1,2.6,0.1,5.1,0.3,7.7c0.1,2.4,0.5,4.8,0.7,7.2s-0.1,4.7-0.5,7.1c-0.8,5.7-0.9,11.4-0.1,17c0,0.4-0.5,0.5-0.5,0.1
				c-0.7-5-0.8-10.1-0.2-15.1c0.3-2.5,0.9-4.9,0.8-7.5c0-2.5-0.5-5-0.7-7.5s-0.3-4.9-0.3-7.4c-0.1-2.2-0.2-4.4,0.3-6.6
				c0.5-2,1.9-3.4,2.8-5.1c1.4-2.6,0.8-5.7,0.2-8.4C33.3,138,33.8,137.9,33.9,138.2L33.9,138.2z"/>
		</g>
		<g>
			<path class="st36" d="M65.8,149.5c1.3,2.6,0.7,5.3,0.5,8.1c-0.2,2.6,0.8,5.6-0.5,8c-0.2,0.3-0.7,0-0.5-0.3
				c1.2-2.3,0.2-5.3,0.5-7.7c0.2-2.6,0.8-5.3-0.4-7.8C65.2,149.4,65.7,149.2,65.8,149.5L65.8,149.5z"/>
		</g>
		<g>
			<path class="st36" d="M48.2,174.9c-5.3,2.6-10.6,5.4-15.7,8.4c-0.3,0.2-0.6-0.3-0.3-0.5c5.1-3,10.4-5.8,15.7-8.4
				C48.2,174.3,48.5,174.8,48.2,174.9L48.2,174.9z"/>
		</g>
		<g>
			<path class="st36" d="M38.5,184.9c-1.7,0.9-3.3,1.8-5,2.7c-0.3,0.2-0.6-0.3-0.3-0.5c1.7-0.9,3.3-1.8,5-2.7
				C38.5,184.2,38.8,184.7,38.5,184.9L38.5,184.9z"/>
		</g>
		<g>
			<path class="st36" d="M43.6,194.9c-3.2,0.3-6.3,0.3-9.5,0c-0.4,0-0.4-0.6,0-0.6c3.2,0.3,6.3,0.3,9.5,0
				C43.9,194.3,43.9,194.8,43.6,194.9L43.6,194.9z"/>
		</g>
	</g>
</g>
</svg>
