<?xml version="1.0" encoding="utf-8"?>
<!-- Generator: Adobe Illustrator 24.3.0, SVG Export Plug-In . SVG Version: 6.00 Build 0)  -->
<svg fill="#fff" version="1.1" id="Layer_1" xmlns="http://www.w3.org/2000/svg" xmlns:xlink="http://www.w3.org/1999/xlink" x="0px" y="0px" viewBox="0 0 18 13" style="enable-background:new 0 0 18 13;" xml:space="preserve">
<g>
	<g>
		<path d="M11.7,12.5c-0.2,0-0.4-0.1-0.5-0.2c-0.3-0.3-0.3-0.8,0-1.1l4.7-4.7l-4.7-4.7c-0.3-0.3-0.3-0.8,0-1.1
			c0.3-0.3,0.8-0.3,1.1,0L18,6.5l-5.8,5.8C12.1,12.4,11.9,12.5,11.7,12.5z"/>
	</g>
	<g>
		<path d="M16.9,6.5H0.8"/>
		<path d="M16.9,7.3H0.8C0.3,7.3,0,6.9,0,6.5s0.3-0.8,0.8-0.8h16.2c0.4,0,0.8,0.3,0.8,0.8S17.4,7.3,16.9,7.3z"/>
	</g>
</g>
</svg>
