<svg width="90" height="90" viewBox="0 0 90 90" fill="none" xmlns="http://www.w3.org/2000/svg">
<g id="bid_2162234 1">
<path id="Vector" d="M29.7947 28.6026H72.5496V34.9028H29.7947V28.6026Z" fill="#CBAFAF"/>
<path id="Vector_2" d="M23.0828 1.31836V32.0551H29.7946V28.6026H72.5495V32.0551H79.2612V1.31836H23.0828Z" fill="#D3B7FF"/>
<path id="Vector_3" d="M72.23 1.31836V23.8946C72.23 26.46 70.1505 28.5395 67.5851 28.5395H23.0828V32.0551H29.7946V28.6024H72.5495V32.0551H79.2614V1.31836H72.23Z" fill="#8078BC"/>
<path id="Vector_4" d="M65.3569 71.8024H66.5641C68.8946 71.8024 70.7839 69.9131 70.7839 67.5826C70.7839 65.2521 68.8946 63.3628 66.5641 63.3628H65.041C67.3715 63.3628 69.2608 61.4735 69.2608 59.143C69.2608 56.8125 67.3715 54.9232 65.041 54.9232H59.3847V50.7034C59.3847 48.3729 57.4954 46.4836 55.1649 46.4836H54.1111V54.9232H47.3537V46.4836H43.972C38.6831 46.4836 33.8488 48.4295 30.1459 51.6445C28.7023 52.898 26.8362 53.5574 24.9244 53.5574H21.4949V81.6075H24.9244C26.8363 81.6075 28.7023 82.2668 30.1459 83.5203C33.8488 86.7354 38.6833 88.6813 43.972 88.6813H61.1369C63.4674 88.6813 65.3567 86.792 65.3567 84.4615C65.3567 82.131 63.4674 80.2417 61.1369 80.2417H65.3567C67.6872 80.2417 69.5765 78.3524 69.5765 76.0219C69.5765 73.6914 67.6876 71.8024 65.3569 71.8024Z" fill="#F1D0A5"/>
<path id="Vector_5" d="M65.3569 71.8024H66.4691C68.8349 71.8024 70.8279 69.8664 70.7831 67.5011C70.7397 65.2082 68.8673 63.3628 66.5642 63.3628H65.041C67.3443 63.3628 69.2166 61.5175 69.2601 59.2246C69.305 56.8593 67.3118 54.9232 64.9461 54.9232H59.3849V50.7034C59.3849 49.631 58.9849 48.652 58.3258 47.9076V73.7585C58.3258 80.0587 53.2185 85.1658 46.9185 85.1658H36.9412C34.9492 85.1658 33.0218 84.8897 31.1951 84.3739C34.7415 87.0766 39.1696 88.6815 43.9724 88.6815H61.1373C63.4678 88.6815 65.3571 86.7922 65.3571 84.4617C65.3571 82.1312 63.4678 80.2419 61.1373 80.2419H65.262C67.6278 80.2419 69.6208 78.3058 69.576 75.9405C69.5326 73.6478 67.6604 71.8024 65.3569 71.8024Z" fill="#F1B986"/>
<path id="Vector_6" d="M10.7388 51.2365H21.495V83.9287H10.7388V51.2365Z" fill="#EFECEF"/>
<path id="Vector_7" d="M16.2214 51.2365V76.52C16.2214 78.6702 14.4783 80.4131 12.3284 80.4131H10.7388V83.9287H21.495V51.2365H16.2214Z" fill="#D3CED5"/>
<path id="Vector_8" d="M47.354 34.9026H54.1114V54.9232H47.354V34.9026Z" fill="#B78E8E"/>
<path id="Vector_9" d="M79.2614 5.20295C79.9896 5.20295 80.5797 4.61268 80.5797 3.88459V1.31836C80.5797 0.590273 79.9896 0 79.2614 0H23.0827C22.3545 0 21.7644 0.590273 21.7644 1.31836V32.0551C21.7644 32.7832 22.3545 33.3735 23.0827 33.3735H28.4762V34.9026C28.4762 35.6307 29.0663 36.221 29.7946 36.221H46.0357V45.1652H43.9726C38.5722 45.1652 33.355 47.1127 29.282 50.6491C28.1013 51.6742 26.5539 52.239 24.9244 52.239H22.8134V51.2365C22.8134 50.5085 22.2233 49.9182 21.4951 49.9182H10.739C10.0108 49.9182 9.42065 50.5085 9.42065 51.2365V83.9287C9.42065 84.6568 10.0108 85.247 10.739 85.247H21.4951C22.2233 85.247 22.8134 84.6568 22.8134 83.9287V82.9262H24.9247C26.5541 82.9262 28.1015 83.491 29.282 84.5162C33.3547 88.0525 38.572 90 43.9724 90H61.1371C64.1908 90 66.6752 87.5155 66.6752 84.4618C66.6752 83.3899 66.3692 82.3883 65.8398 81.5395C68.6683 81.2941 70.8951 78.9133 70.8951 76.0222C70.8951 74.5922 70.3501 73.2871 69.4573 72.3034C71.0429 71.3282 72.1023 69.5767 72.1023 67.5826C72.1023 65.5024 70.9494 63.6863 69.249 62.7398C70.078 61.7715 70.5792 60.5146 70.5792 59.143C70.5792 56.0892 68.0947 53.6048 65.041 53.6048H60.7031V50.7034C60.7031 47.7383 58.3608 45.3101 55.4295 45.1716V36.221H72.5495C73.2778 36.221 73.8679 35.6307 73.8679 34.9026V33.3735H79.2614C79.9896 33.3735 80.5797 32.7832 80.5797 32.0551V10.0369C80.5797 9.30885 79.9896 8.71857 79.2614 8.71857C78.5331 8.71857 77.943 9.30885 77.943 10.0369V30.7368H73.8679V28.6024C73.8679 27.8743 73.2778 27.2841 72.5495 27.2841H40.5767C39.8484 27.2841 39.2583 27.8743 39.2583 28.6024C39.2583 29.3305 39.8484 29.9208 40.5767 29.9208H71.2311V33.5841C65.2013 33.5841 36.4164 33.5841 31.1128 33.5841V29.9208H34.4243C35.1526 29.9208 35.7427 29.3305 35.7427 28.6024C35.7427 27.8743 35.1526 27.2841 34.4243 27.2841H29.7944C29.0661 27.2841 28.476 27.8743 28.476 28.6024V30.7368H24.4009V2.63672H77.9428V3.88459C77.943 4.61268 78.5331 5.20295 79.2614 5.20295ZM65.041 56.2416C66.641 56.2416 67.9425 57.543 67.9425 59.143C67.9425 60.743 66.641 62.0445 65.041 62.0445C65.0387 62.0445 56.4652 62.0445 56.4652 62.0445C55.7369 62.0445 55.1468 62.6347 55.1468 63.3628C55.1468 64.0909 55.7369 64.6812 56.4652 64.6812H66.5642C68.1641 64.6812 69.4656 65.9828 69.4656 67.5826C69.4656 69.1824 68.1641 70.4841 66.5642 70.4841C64.0719 70.4841 59.1383 70.4841 56.4652 70.4841C55.7369 70.4841 55.1468 71.0743 55.1468 71.8024C55.1468 72.5305 55.7369 73.1208 56.4652 73.1208H65.3569C66.9569 73.1208 68.2583 74.4223 68.2583 76.0222C68.2583 77.6222 66.9569 78.9237 65.3569 78.9237C62.4953 78.9237 59.2128 78.9237 56.4652 78.9237C55.7369 78.9237 55.1468 79.5139 55.1468 80.242C55.1468 80.9701 55.7369 81.5604 56.4652 81.5604H61.1371C62.737 81.5604 64.0385 82.862 64.0385 84.4618C64.0385 86.0616 62.737 87.3633 61.1371 87.3633H43.9724C39.2073 87.3633 34.6038 85.645 31.0105 82.5253C29.3504 81.0837 27.189 80.2897 24.9249 80.2897H22.8133V77.1794C22.8133 76.4513 22.2232 75.861 21.4949 75.861C20.7666 75.861 20.1765 76.4513 20.1765 77.1794V82.6105H12.0572V52.5549H20.1765V71.0269C20.1765 71.755 20.7666 72.3452 21.4949 72.3452C22.2232 72.3452 22.8133 71.755 22.8133 71.0269V54.8757H24.9246C27.189 54.8757 29.3504 54.0816 31.0105 52.6402C34.6038 49.5202 39.2073 47.8021 43.9724 47.8021H46.0355V53.605H43.7966C43.0684 53.605 42.4783 54.1953 42.4783 54.9234C42.4783 55.6515 43.0684 56.2417 43.7966 56.2417C56.8637 56.2416 52.0527 56.2416 65.041 56.2416ZM58.0664 50.7034V53.6048H55.4295V47.8139C56.9059 47.948 58.0664 49.1927 58.0664 50.7034ZM52.7929 36.221V53.6048H48.6724V36.221H52.7929Z" fill="black"/>
<path id="Vector_10" d="M45.8401 11.4156C45.8401 9.14801 43.9951 7.30301 41.7275 7.30301H36.5688C35.8406 7.30301 35.2505 7.89328 35.2505 8.62137V21.7051C35.2505 22.4332 35.8406 23.0235 36.5688 23.0235H41.7275C43.9951 23.0235 45.8401 21.1785 45.8401 18.9109V17.9575C45.8401 16.8796 45.4233 15.8973 44.7423 15.1632C45.4233 14.4292 45.8401 13.4469 45.8401 12.369V11.4156ZM37.8872 9.93973H41.7275C42.5414 9.93973 43.2034 10.6019 43.2034 11.4156V12.369C43.2034 13.1827 42.5412 13.8449 41.7275 13.8449H37.8872V9.93973ZM43.2034 18.9109C43.2034 19.7246 42.5412 20.3868 41.7275 20.3868H37.8872V16.4816H41.7275C42.5414 16.4816 43.2034 17.1438 43.2034 17.9575V18.9109Z" fill="black"/>
<path id="Vector_11" d="M57.8223 7.30301C57.094 7.30301 56.5039 7.89328 56.5039 8.62137V21.7051C56.5039 22.4332 57.094 23.0235 57.8223 23.0235H62.5042C65.0347 23.0235 67.0935 20.9647 67.0935 18.4342V11.8923C67.0935 9.36176 65.0347 7.30301 62.5042 7.30301H57.8223ZM64.4568 11.8923V18.4342C64.4568 19.5108 63.5809 20.3868 62.5042 20.3868H59.1406V9.93973H62.5042C63.5809 9.93973 64.4568 10.8156 64.4568 11.8923Z" fill="black"/>
<path id="Vector_12" d="M49.853 8.62137V21.7051C49.853 22.4332 50.4431 23.0235 51.1714 23.0235C51.8996 23.0235 52.4897 22.4332 52.4897 21.7051V8.62137C52.4897 7.89328 51.8996 7.30301 51.1714 7.30301C50.4431 7.30301 49.853 7.89328 49.853 8.62137Z" fill="black"/>
</g>
</svg>
