<svg width="90" height="90" viewBox="0 0 90 90" fill="none" xmlns="http://www.w3.org/2000/svg">
<g id="carpool_9835774 1" clip-path="url(#clip0_1_1105)">
<g id="Group">
<g id="Group_2">
<path id="Vector" d="M76.2519 26.1777C83.1166 26.1777 88.6816 20.6127 88.6816 13.748C88.6816 6.88331 83.1166 1.31836 76.2519 1.31836C69.3872 1.31836 63.8223 6.88331 63.8223 13.748C63.8223 20.6127 69.3872 26.1777 76.2519 26.1777Z" fill="#EAF6FF"/>
<path id="Vector_2" d="M82.8788 3.23419C84.0907 5.15267 84.7947 7.42411 84.7947 9.86114C84.7947 16.7259 79.2296 22.2908 72.365 22.2908C69.928 22.2908 67.6567 21.5868 65.738 20.375C67.9399 23.8607 71.8241 26.1779 76.2519 26.1779C83.1166 26.1779 88.6815 20.6128 88.6815 13.7482C88.6817 9.32027 86.3647 5.43603 82.8788 3.23419Z" fill="#D8ECFE"/>
<path id="Vector_3" d="M76.2519 15.1687C78.6055 15.1687 80.5135 13.2607 80.5135 10.907C80.5135 8.55339 78.6055 6.64539 76.2519 6.64539C73.8982 6.64539 71.9902 8.55339 71.9902 10.907C71.9902 13.2607 73.8982 15.1687 76.2519 15.1687Z" fill="#FED2A4"/>
<path id="Vector_4" d="M76.252 26.1779C79.9589 26.1779 83.2845 24.5533 85.5619 21.9797C84.3095 18.0308 80.6155 15.1687 76.252 15.1687C71.8886 15.1687 68.1946 18.0308 66.9421 21.9797C69.2194 24.5533 72.5452 26.1779 76.252 26.1779Z" fill="#BBEC6C"/>
<path id="Vector_5" d="M82.3299 17.2917C80.0635 20.3263 76.4436 22.2908 72.365 22.2908C70.5353 22.2908 68.7996 21.8921 67.2353 21.1821C67.1269 21.4425 67.0283 21.7081 66.9421 21.9793C69.2194 24.5531 72.5452 26.1775 76.252 26.1775C79.9589 26.1775 83.2845 24.5529 85.5619 21.9793C84.969 20.1106 83.8287 18.4857 82.3299 17.2917Z" fill="#A2E62E"/>
</g>
<g id="Group_3">
<path id="Vector_6" d="M13.748 26.1777C20.6127 26.1777 26.1777 20.6127 26.1777 13.748C26.1777 6.88331 20.6127 1.31836 13.748 1.31836C6.88331 1.31836 1.31836 6.88331 1.31836 13.748C1.31836 20.6127 6.88331 26.1777 13.748 26.1777Z" fill="#EAF6FF"/>
<path id="Vector_7" d="M20.3749 3.23419C21.5867 5.15267 22.2908 7.42411 22.2908 9.86114C22.2908 16.7259 16.7257 22.2908 9.86108 22.2908C7.42405 22.2908 5.15278 21.5868 3.23413 20.375C5.43597 23.8607 9.3202 26.1779 13.748 26.1779C20.6127 26.1779 26.1776 20.6128 26.1776 13.7482C26.1778 9.32027 23.8607 5.43603 20.3749 3.23419Z" fill="#D8ECFE"/>
<path id="Vector_8" d="M13.748 15.1687C16.1016 15.1687 18.0096 13.2607 18.0096 10.907C18.0096 8.55339 16.1016 6.64539 13.748 6.64539C11.3943 6.64539 9.48633 8.55339 9.48633 10.907C9.48633 13.2607 11.3943 15.1687 13.748 15.1687Z" fill="#FED2A4"/>
<path id="Vector_9" d="M13.7481 26.1779C17.455 26.1779 20.7806 24.5533 23.058 21.9797C21.8056 18.0308 18.1116 15.1687 13.7481 15.1687C9.38472 15.1687 5.69067 18.0308 4.43823 21.9797C6.71565 24.5533 10.0414 26.1779 13.7481 26.1779Z" fill="#FD8087"/>
<path id="Vector_10" d="M19.8261 17.2917C17.5598 20.3263 13.9399 22.2908 9.86126 22.2908C8.03155 22.2908 6.29589 21.8921 4.73144 21.1821C4.62298 21.4425 4.52437 21.7081 4.43823 21.9793C6.71548 24.5531 10.0413 26.1775 13.7481 26.1775C17.455 26.1775 20.7806 24.5529 23.058 21.9793C22.4653 20.1106 21.325 18.4857 19.8261 17.2917Z" fill="#FE646F"/>
</g>
<g id="Group_4">
<path id="Vector_11" d="M76.2519 88.6817C83.1166 88.6817 88.6816 83.1167 88.6816 76.252C88.6816 69.3873 83.1166 63.8223 76.2519 63.8223C69.3872 63.8223 63.8223 69.3873 63.8223 76.252C63.8223 83.1167 69.3872 88.6817 76.2519 88.6817Z" fill="#EAF6FF"/>
<path id="Vector_12" d="M82.8788 65.7382C84.0907 67.6566 84.7947 69.9281 84.7947 72.3651C84.7947 79.2299 79.2296 84.7948 72.365 84.7948C69.928 84.7948 67.6567 84.0908 65.738 82.8789C67.9399 86.3647 71.8241 88.6818 76.2519 88.6818C83.1166 88.6818 88.6815 83.1168 88.6815 76.2522C88.6817 71.8242 86.3647 67.9398 82.8788 65.7382Z" fill="#D8ECFE"/>
<path id="Vector_13" d="M76.2519 77.6725C78.6055 77.6725 80.5135 75.7645 80.5135 73.4108C80.5135 71.0572 78.6055 69.1492 76.2519 69.1492C73.8982 69.1492 71.9902 71.0572 71.9902 73.4108C71.9902 75.7645 73.8982 77.6725 76.2519 77.6725Z" fill="#FED2A4"/>
<path id="Vector_14" d="M76.252 88.6817C79.9589 88.6817 83.2845 87.0571 85.5619 84.4835C84.3095 80.5346 80.6155 77.6725 76.252 77.6725C71.8886 77.6725 68.1946 80.5346 66.9421 84.4835C69.2194 87.0571 72.5452 88.6817 76.252 88.6817Z" fill="#FFE177"/>
<path id="Vector_15" d="M82.3299 79.7956C80.0635 82.8301 76.4436 84.7946 72.365 84.7946C70.5353 84.7946 68.7996 84.396 67.2353 83.686C67.1269 83.9463 67.0283 84.2119 66.9421 84.4833C69.2194 87.0571 72.5452 88.6815 76.252 88.6815C79.9589 88.6815 83.2845 87.0569 85.5619 84.4833C84.969 82.6144 83.8287 80.9895 82.3299 79.7956Z" fill="#FFD15B"/>
</g>
<g id="Group_5">
<path id="Vector_16" d="M13.748 88.6817C20.6127 88.6817 26.1777 83.1167 26.1777 76.252C26.1777 69.3873 20.6127 63.8223 13.748 63.8223C6.88331 63.8223 1.31836 69.3873 1.31836 76.252C1.31836 83.1167 6.88331 88.6817 13.748 88.6817Z" fill="#EAF6FF"/>
<path id="Vector_17" d="M20.3749 65.7382C21.5867 67.6566 22.2908 69.9281 22.2908 72.3651C22.2908 79.2299 16.7257 84.7948 9.86108 84.7948C7.42405 84.7948 5.15278 84.0908 3.23413 82.8789C5.43597 86.3647 9.3202 88.6818 13.748 88.6818C20.6127 88.6818 26.1776 83.1168 26.1776 76.2522C26.1778 71.8242 23.8607 67.9398 20.3749 65.7382Z" fill="#D8ECFE"/>
<path id="Vector_18" d="M13.748 77.6725C16.1016 77.6725 18.0096 75.7645 18.0096 73.4108C18.0096 71.0572 16.1016 69.1492 13.748 69.1492C11.3943 69.1492 9.48633 71.0572 9.48633 73.4108C9.48633 75.7645 11.3943 77.6725 13.748 77.6725Z" fill="#FED2A4"/>
<path id="Vector_19" d="M13.7481 88.6817C17.455 88.6817 20.7806 87.0571 23.058 84.4835C21.8056 80.5346 18.1116 77.6725 13.7481 77.6725C9.38472 77.6725 5.69067 80.5346 4.43823 84.4835C6.71565 87.0571 10.0414 88.6817 13.7481 88.6817Z" fill="#60B7FF"/>
<path id="Vector_20" d="M19.8261 79.7956C17.5598 82.8301 13.9399 84.7946 9.86126 84.7946C8.03155 84.7946 6.29589 84.396 4.73144 83.686C4.62298 83.9463 4.52437 84.2119 4.43823 84.4833C6.71565 87.0571 10.0414 88.6817 13.7481 88.6817C17.4548 88.6817 20.7806 87.0571 23.058 84.4835C22.4653 82.6144 21.325 80.9895 19.8261 79.7956Z" fill="#26A6FE"/>
</g>
<g id="Group_6">
<path id="Vector_21" d="M63.143 54.0713H26.8572V43.9919C26.8572 42.8785 27.7596 41.976 28.873 41.976H61.1271C62.2405 41.976 63.143 42.8785 63.143 43.9919V54.0713Z" fill="#FFE177"/>
<path id="Vector_22" d="M61.1272 41.9762H55.0796C56.193 41.9762 57.0954 42.8787 57.0954 43.9921V54.0715H63.143V43.9921C63.143 42.8787 62.2404 41.9762 61.1272 41.9762Z" fill="#FFD15B"/>
<path id="Vector_23" d="M60.1191 41.9762H29.8809L31.5037 32.2391C31.7304 30.8782 32.9078 29.8809 34.2875 29.8809H55.7123C57.0918 29.8809 58.2694 30.8782 58.4961 32.2391L60.1191 41.9762Z" fill="#C4E2FF"/>
<path id="Vector_24" d="M58.4965 32.2391C58.2697 30.8782 57.0923 29.8809 55.7126 29.8809H49.665C51.0446 29.8809 52.2221 30.8782 52.4489 32.2391L54.0717 41.9762H60.1193L58.4965 32.2391Z" fill="#B3DAFE"/>
<g id="Group_7">
<path id="Vector_25" d="M34.9206 60.1191H30.8889C29.7755 60.1191 28.873 59.2167 28.873 58.1033V54.0715H36.9365V58.1033C36.9367 59.2165 36.034 60.1191 34.9206 60.1191Z" fill="#7A6D79"/>
<path id="Vector_26" d="M55.0796 60.1191H59.1113C60.2247 60.1191 61.1272 59.2167 61.1272 58.1033V54.0715H53.0637V58.1033C53.0635 59.2165 53.9662 60.1191 55.0796 60.1191Z" fill="#7A6D79"/>
</g>
</g>
<g id="Group_8">
<path id="Vector_27" d="M77.5704 45V32.2151C77.5704 31.487 76.9801 30.8967 76.2521 30.8967C75.524 30.8967 74.9337 31.487 74.9337 32.2151V43.6816H71.4622L71.8573 43.2865C72.3722 42.7716 72.3722 41.9368 71.8573 41.4222C71.3425 40.9073 70.5077 40.9073 69.993 41.4222L67.3473 44.0678C66.8325 44.5827 66.8325 45.4175 67.3473 45.9322L69.993 48.5779C70.2504 48.8352 70.5879 48.9641 70.9252 48.9641C71.2625 48.9641 71.6 48.8354 71.8573 48.5779C72.3722 48.063 72.3722 47.2282 71.8573 46.7135L71.4622 46.3184H76.2521C76.9801 46.3184 77.5704 45.7281 77.5704 45Z" fill="black"/>
<path id="Vector_28" d="M57.7848 74.9336H46.3182V71.4621L46.7134 71.8573C46.9707 72.1146 47.3082 72.2435 47.6456 72.2435C47.9829 72.2435 48.3204 72.1148 48.5777 71.8573C49.0926 71.3424 49.0926 70.5076 48.5777 69.993L45.9321 67.3473C45.4172 66.8324 44.5824 66.8324 44.0677 67.3473L41.422 69.993C40.9072 70.5078 40.9072 71.3426 41.422 71.8573C41.9369 72.3721 42.7717 72.3721 43.2864 71.8573L43.6815 71.4621V76.252C43.6815 76.9801 44.2718 77.5704 44.9999 77.5704H57.7848C58.5129 77.5704 59.1032 76.9801 59.1032 76.252C59.1032 75.5239 58.5129 74.9336 57.7848 74.9336Z" fill="black"/>
<path id="Vector_29" d="M18.1429 48.5779C18.4003 48.8352 18.7378 48.9641 19.0751 48.9641C19.4124 48.9641 19.7499 48.8354 20.0073 48.5779L22.6529 45.9322C23.1678 45.4173 23.1678 44.5825 22.6529 44.0678L20.0073 41.4222C19.4924 40.9073 18.6576 40.9073 18.1429 41.4222C17.6281 41.937 17.6281 42.7718 18.1429 43.2865L18.5381 43.6817H13.748C13.02 43.6817 12.4297 44.2719 12.4297 45V57.7849C12.4297 58.513 13.02 59.1033 13.748 59.1033C14.4761 59.1033 15.0664 58.513 15.0664 57.7849V46.3184H18.5379L18.1428 46.7135C17.6281 47.2282 17.6281 48.063 18.1429 48.5779Z" fill="black"/>
<path id="Vector_30" d="M32.2151 15.0664H43.6816V18.5379L43.2865 18.1428C42.7716 17.6279 41.9368 17.6279 41.4222 18.1428C40.9073 18.6576 40.9073 19.4924 41.4222 20.0071L44.0678 22.6528C44.3252 22.9101 44.6627 23.039 45 23.039C45.3373 23.039 45.6748 22.9103 45.9322 22.6528L48.5779 20.0071C49.0927 19.4922 49.0927 18.6574 48.5779 18.1428C48.063 17.6279 47.2282 17.6279 46.7135 18.1428L46.3184 18.5379V13.748C46.3184 13.02 45.7281 12.4297 45 12.4297H32.2151C31.487 12.4297 30.8967 13.02 30.8967 13.748C30.8967 14.4761 31.487 15.0664 32.2151 15.0664Z" fill="black"/>
<path id="Vector_31" d="M76.2522 27.4957C83.8327 27.4957 90 21.3284 90 13.7479C90 6.16728 83.8327 0 76.2522 0C72.986 0 69.82 1.16561 67.3373 3.28219C66.7832 3.75469 66.7169 4.58666 67.1892 5.14072C67.6617 5.69479 68.4937 5.76105 69.0478 5.28873C71.054 3.57855 73.6125 2.63672 76.2522 2.63672C82.3789 2.63672 87.3633 7.62117 87.3633 13.7479C87.3633 15.7936 86.8052 17.7105 85.8366 19.3586C84.5905 17.2058 82.6677 15.5559 80.3908 14.645C81.2859 13.6549 81.8318 12.3437 81.8318 10.9071C81.8318 7.83018 79.3287 5.32705 76.2518 5.32705C73.1751 5.32705 70.6718 7.83018 70.6718 10.9071C70.6718 12.3435 71.2187 13.6542 72.1136 14.6442C69.8365 15.5551 67.9135 17.2051 66.6672 19.3579C65.699 17.71 65.1409 15.7934 65.1409 13.7479C65.1409 12.3734 65.3887 11.0329 65.8772 9.76359C66.1388 9.0842 65.8 8.32113 65.1205 8.05975C64.4411 7.79801 63.678 8.13691 63.4166 8.81648C62.8112 10.3892 62.5042 12.0482 62.5042 13.7479C62.5043 21.3284 68.6716 27.4957 76.2522 27.4957ZM76.252 7.96377C77.875 7.96377 79.1953 9.28406 79.1953 10.9071C79.1953 12.5299 77.875 13.8503 76.252 13.8503C74.6292 13.8503 73.3087 12.53 73.3087 10.9071C73.3087 9.28406 74.629 7.96377 76.252 7.96377ZM76.252 16.4869C79.6945 16.4869 82.735 18.5377 84.0414 21.6619C82.0347 23.6373 79.2839 24.859 76.2523 24.859C73.2205 24.859 70.4697 23.6371 68.463 21.6615C69.7692 18.5375 72.8097 16.4869 76.252 16.4869Z" fill="black"/>
<path id="Vector_32" d="M13.748 27.4962C21.3288 27.4962 27.4961 21.3289 27.4961 13.7482C27.4961 6.16746 21.3288 0 13.748 0C6.16728 0 0 6.16728 0 13.748C0 21.3288 6.16728 27.4962 13.748 27.4962ZM5.95863 21.6622C7.26486 18.5379 10.3055 16.4871 13.748 16.4871C17.1905 16.4871 20.2312 18.5379 21.5374 21.6622C19.5305 23.6377 16.7797 24.8595 13.748 24.8595C10.7163 24.8595 7.96553 23.6377 5.95863 21.6622ZM13.748 13.8502C12.125 13.8502 10.8047 12.5299 10.8047 10.9069C10.8047 9.28389 12.125 7.96359 13.748 7.96359C15.3708 7.96359 16.6913 9.28389 16.6913 10.9069C16.6913 12.5299 15.371 13.8502 13.748 13.8502ZM13.748 2.63672C19.8749 2.63672 24.8593 7.62117 24.8593 13.748C24.8593 15.7938 24.3012 17.7105 23.3329 19.3584C22.0867 17.2055 20.1637 15.5554 17.8868 14.6443C18.7817 13.6543 19.3279 12.3434 19.3279 10.9069C19.3279 7.83 16.8247 5.32688 13.7479 5.32688C10.671 5.32688 8.16785 7.83 8.16785 10.9069C8.16785 12.3435 8.71559 13.6533 9.61049 14.6435C7.33272 15.5544 5.40949 17.2053 4.16303 19.359C3.19482 17.7108 2.63672 15.7939 2.63672 13.748C2.63672 7.62117 7.62117 2.63672 13.748 2.63672Z" fill="black"/>
<path id="Vector_33" d="M76.2519 62.5038C68.6712 62.5038 62.5039 68.6711 62.5039 76.2518C62.5039 83.8326 68.6712 90 76.2519 90C83.8327 90 90 83.8327 90 76.252C90 68.6712 83.8327 62.5038 76.2519 62.5038ZM68.4624 84.166C69.7688 81.0417 72.8093 78.9908 76.2518 78.9908C79.6943 78.9908 82.7349 81.0417 84.0412 84.166C82.0344 86.1414 79.2836 87.3633 76.2519 87.3633C73.2202 87.3633 70.4693 86.1414 68.4624 84.166ZM76.2519 76.3541C74.6291 76.3541 73.3087 75.0338 73.3087 73.4108C73.3087 71.788 74.6289 70.4676 76.2519 70.4676C77.8749 70.4676 79.1952 71.7878 79.1952 73.4108C79.1952 75.0338 77.8747 76.3541 76.2519 76.3541ZM85.8371 81.8619C84.5908 79.7089 82.6672 78.0594 80.3902 77.1483C81.2853 76.1581 81.8319 74.8475 81.8319 73.4107C81.8319 70.334 79.3288 67.8307 76.2519 67.8307C73.1752 67.8307 70.6719 70.3338 70.6719 73.4107C70.6719 74.8475 71.2198 76.1576 72.1151 77.1478C69.8373 78.0587 67.9136 79.7089 66.6669 81.8624C65.6986 80.2144 65.1404 78.2976 65.1404 76.2518C65.1404 70.125 70.1249 65.1405 76.2518 65.1405C82.3786 65.1405 87.3632 70.1251 87.3632 76.252C87.3632 78.2974 86.8053 80.2141 85.8371 81.8619Z" fill="black"/>
<path id="Vector_34" d="M24.2191 69.4292C23.5712 69.7612 23.3151 70.5558 23.6471 71.2037C24.4513 72.7729 24.8592 74.4715 24.8592 76.2521C24.8592 78.2977 24.3012 80.2144 23.3329 81.8624C22.0866 79.7094 20.1642 78.0583 17.887 77.1474C18.7817 76.1574 19.3282 74.8471 19.3282 73.4108C19.3282 70.3341 16.8251 67.8308 13.7482 67.8308C10.6713 67.8308 8.1682 70.3339 8.1682 73.4108C8.1682 74.8476 8.71541 76.1581 9.61049 77.1483C7.33307 78.0592 5.40949 79.7092 4.1632 81.8625C3.19482 80.2146 2.63672 78.2979 2.63672 76.2521C2.63672 70.1255 7.62117 65.141 13.7479 65.141C16.0093 65.141 18.1844 65.816 20.0382 67.0932C20.6379 67.5063 21.4588 67.3551 21.8718 66.7556C22.2848 66.156 22.1337 65.3351 21.5341 64.922C19.2382 63.3403 16.5459 62.5045 13.7479 62.5045C6.16728 62.5043 0 68.6716 0 76.2521C0 83.8327 6.16728 90 13.7479 90C21.3284 90 27.4957 83.8327 27.4957 76.2521C27.4957 74.0494 26.9903 71.9462 25.9937 70.0012C25.6616 69.3532 24.8674 69.0973 24.2191 69.4292ZM13.748 70.4675C15.3708 70.4675 16.6913 71.7878 16.6913 73.4108C16.6913 75.0338 15.371 76.3541 13.748 76.3541C12.125 76.3541 10.8047 75.0338 10.8047 73.4108C10.8047 71.788 12.1252 70.4675 13.748 70.4675ZM5.95863 84.1662C7.26486 81.0418 10.3055 78.991 13.748 78.991C17.1905 78.991 20.231 81.0416 21.5374 84.1658C19.5307 86.1414 16.7797 87.3633 13.7479 87.3633C10.7162 87.3633 7.96535 86.1416 5.95863 84.1662Z" fill="black"/>
<path id="Vector_35" d="M40.9683 49.3422H49.0317C49.7598 49.3422 50.3501 48.7519 50.3501 48.0238C50.3501 47.2957 49.7598 46.7054 49.0317 46.7054H40.9683C40.2402 46.7054 39.6499 47.2957 39.6499 48.0238C39.6499 48.7519 40.2402 49.3422 40.9683 49.3422Z" fill="black"/>
<path id="Vector_36" d="M32.9048 49.3422H34.9206C35.6487 49.3422 36.239 48.7519 36.239 48.0238C36.239 47.2957 35.6487 46.7054 34.9206 46.7054H32.9048C32.1767 46.7054 31.5864 47.2957 31.5864 48.0238C31.5864 48.7519 32.1767 49.3422 32.9048 49.3422Z" fill="black"/>
<path id="Vector_37" d="M55.0793 49.3422H57.0952C57.8233 49.3422 58.4136 48.7519 58.4136 48.0238C58.4136 47.2957 57.8233 46.7054 57.0952 46.7054H55.0793C54.3513 46.7054 53.761 47.2957 53.761 48.0238C53.761 48.7519 54.3513 49.3422 55.0793 49.3422Z" fill="black"/>
<path id="Vector_38" d="M63.1429 55.3897H65.1588C65.8869 55.3897 66.4771 54.7994 66.4771 54.0714C66.4771 53.3433 65.8869 52.753 65.1588 52.753H64.4613V43.9921C64.4613 42.1907 63.0241 40.7218 61.2366 40.6633L59.7969 32.0236C59.4633 30.0182 57.7454 28.5627 55.7121 28.5627H43.5586C42.8305 28.5627 42.2402 29.153 42.2402 29.881C42.2402 30.6091 42.8305 31.1994 43.5586 31.1994H55.7121C56.4508 31.1994 57.0748 31.728 57.1961 32.4568L58.5626 40.6578H31.4374L32.8041 32.4564C32.9252 31.728 33.5494 31.1994 34.2879 31.1994H37.4063C38.1343 31.1994 38.7246 30.6091 38.7246 29.881C38.7246 29.153 38.1343 28.5627 37.4063 28.5627H34.2879C32.2546 28.5627 30.5367 30.0182 30.2031 32.0233L28.7633 40.6633C26.9758 40.7218 25.5386 42.1905 25.5386 43.9921V52.753H24.8411C24.113 52.753 23.5227 53.3433 23.5227 54.0714C23.5227 54.7994 24.113 55.3897 24.8411 55.3897H26.8569H27.5544V58.1031C27.5544 59.9416 29.0501 61.4373 30.8886 61.4373H34.9205C36.759 61.4373 38.2548 59.9416 38.2548 58.1031V55.3897H51.7451V58.1031C51.7451 59.9416 53.2408 61.4373 55.0793 61.4373H59.1112C60.9497 61.4373 62.4454 59.9416 62.4454 58.1031V55.3897H63.1429ZM28.1755 43.9921C28.1755 43.6074 28.4884 43.2946 28.873 43.2946H61.1269C61.5115 43.2946 61.8244 43.6074 61.8244 43.9921V52.753H28.1755V43.9921ZM35.618 58.1031C35.618 58.4877 35.3051 58.8006 34.9205 58.8006H30.8886C30.504 58.8006 30.1911 58.4877 30.1911 58.1031V55.3897H35.6179L35.618 58.1031ZM59.8087 58.1031C59.8087 58.4877 59.4958 58.8006 59.1112 58.8006H55.0793C54.6947 58.8006 54.3818 58.4877 54.3818 58.1031V55.3897H59.8085V58.1031H59.8087Z" fill="black"/>
</g>
</g>
</g>
<defs>
<clipPath id="clip0_1_1105">
<rect width="90" height="90" fill="white"/>
</clipPath>
</defs>
</svg>
