<?xml version="1.0" encoding="utf-8"?>
<!-- Generator: Adobe Illustrator 24.3.0, SVG Export Plug-In . SVG Version: 6.00 Build 0)  -->
<svg version="1.1" id="Vrstva_1" xmlns="http://www.w3.org/2000/svg" xmlns:xlink="http://www.w3.org/1999/xlink" x="0px" y="0px"
	 viewBox="0 0 1280 720" style="enable-background:new 0 0 1280 720;" xml:space="preserve">
<style type="text/css">
	.st0{fill:#FFFFFF;}
	.st1{fill:#94DAE1;}
	.st2{fill:#177E9D;}
	.st3{fill:#144665;}
	.st4{fill:#305D81;}
	.st5{fill:#9FD7E0;}
	.st6{fill:#85CDD6;}
	.st7{fill:#E8AC4C;}
	.st8{fill:#7AC8CC;}
	.st9{fill:#003853;}
	.st10{fill:#D2E8F2;}
	.st11{fill:#002E4A;}
	.st12{fill:url(#SVGID_1_);}
	.st13{fill:url(#SVGID_2_);}
	.st14{fill:#A0796D;}
	.st15{fill:#B68977;}
	.st16{fill:#D1E7F1;}
	.st17{fill:url(#SVGID_3_);}
	.st18{fill:#E1B39D;}
	.st19{fill:#F0C0A7;}
	.st20{fill:url(#SVGID_4_);}
	.st21{fill:#3F7195;}
	.st22{fill:#68C2D4;}
	.st23{fill:#2B7895;}
	.st24{opacity:0.32;fill:#AECAEC;enable-background:new    ;}
	.st25{fill:#305D80;}
	.st26{fill:#EFBFA6;}
	.st27{fill:#DFB29C;}
	.st28{fill:#EEC0A7;}
	.st29{fill:#013853;}
	.st30{fill:#B6D7E3;}
	.st31{fill:#E0B29C;}
	.st32{fill:url(#SVGID_5_);}
	.st33{fill:#D9AC96;}
	.st34{fill:#EDBDA4;}
</style>
<polygon class="st0" points="1280,635 3,635 0,-1.8 1280,2.2 "/>
<polygon class="st1" points="1280,173 827.6,345.4 1,345.4 0,635 1280,635 "/>
<polygon class="st1" points="0,-1.8 1280,2.2 1280,635 3,635 "/>
<g>
	<g>
		<path class="st2" d="M1056.1,148.2c0-4.2-2.2-7.8-5.4-9.6c-1.7-1-10.1-6.5-12.2-6.3l-276,33.2c-6.3,0.4-11.3,6-11.3,12.5
			l3.9,283.4c0,4.4-0.4,32.5-2.8,40.6c1.9,0.5,30.2,16.8,32.2,16.7l250.9,13.5h8.9c6.3-0.4,11.7-6.9,11.7-13.4L1056.1,148.2
			L1056.1,148.2z"/>
		<path class="st0" d="M1046.1,143.3c0-6.5-5-11.4-11.1-10.9l-272.4,19.4c-6.1,0.4-11.1,6-11.1,12.5L748.2,519
			c0,6.5,5,11.4,11.1,10.9l275.7,1.5c6.1-0.4,11.1-6,11.1-12.5V143.3z"/>
		<path class="st3" d="M872.5,136.6c-1.6-9.9-6.5-21.2,16.8-23.9c0.7-0.1,8.9-0.5,9.7-0.6c23.8-2.1,20.7,9.9,20.3,22.1
			c0,0.4,0.9,1,1.7,1c0.8-0.1,44.1-3,44.1-3v17.5c0,8.8-6.5,16.3-18.9,17.7l-103,7.1c-10.2,0.6-17.5-4-17.3-14.7l0.2-18.1
			c0,0,44.7-3,45.3-3.1C871.8,138.5,872.7,138,872.5,136.6z"/>
		<path class="st4" d="M840.6,157.4L840.6,157.4l107.5-7.4c0.8-0.1,1.4-0.8,1.4-1.6c-0.1-0.8-0.8-1.4-1.6-1.4l-107.4,7.4
			c-0.8,0.1-1.4,0.8-1.4,1.6C839.2,156.8,839.8,157.4,840.6,157.4L840.6,157.4z"/>
	</g>
	<g>
		<g>
			<g>
				<path class="st5" d="M791.2,259.2c-1.9,0.1-3.4,1.7-3.4,3.6v4c0,1.9,1.5,3.3,3.4,3.2l210-11.3c2.1-0.1,3.8-1.8,3.8-3.8v-4.2
					c0-2-1.7-3.5-3.8-3.4L791.2,259.2z"/>
				<path class="st5" d="M1001.6,470.8c2.1,0,3.8,1.6,3.8,3.6v4.3c0,2-1.7,3.6-3.8,3.7l-224,1.6c-1.9,0-3.4-1.5-3.4-3.4v-4.1
					c0-1.9,1.6-3.5,3.4-3.5L1001.6,470.8z"/>
				<path class="st5" d="M868.5,195.6c-2,0.1-3.5,1.8-3.6,3.7l-0.2,41.7c0,1.9,1.6,3.4,3.5,3.3l131.5-7.9c2.1-0.1,3.8-1.8,3.8-3.8
					v-43c0-2-1.7-3.5-3.8-3.3L868.5,195.6z"/>
				<path class="st5" d="M944.7,284.2c2.5-0.1,4.5,1.7,4.5,4.1l-0.1,42.7c0,2.4-2,4.5-4.5,4.6L780.8,342c-2.3,0.1-4.2-1.7-4.2-4.1
					l0.3-41.1c0-2.3,1.9-4.3,4.2-4.4L944.7,284.2z"/>
				<path class="st6" d="M965.2,318.7c-1.4,0-2.6-0.5-3.6-1.4c-0.9-0.9-1.4-2.1-1.4-3.3v-26.2c0-2.7,2.3-5.1,5.1-5.2l35.5-1.8
					c2.9-0.1,5.3,2,5.3,4.8V312c0,2.8-2.3,5.1-5.2,5.2l-35.5,1.5C965.3,318.7,965.2,318.7,965.2,318.7L965.2,318.7L965.2,318.7z
					 M1001.1,281.9c-0.1,0-0.1,0-0.2,0l-35.5,1.8c-2.2,0.1-4,1.9-4,4v26.2c0,1,0.4,1.8,1,2.5c0.7,0.7,1.7,1.1,2.7,1.1
					c0.1,0,0.1,0,0.2,0l35.5-1.5c2.3-0.1,4.1-1.9,4.1-4.1v-26.5C1005,283.5,1003.3,281.9,1001.1,281.9L1001.1,281.9z"/>
				<path class="st5" d="M944.6,347.6c2.5-0.1,4.5,1.8,4.5,4.2l-0.1,42.8c0,2.4-2,4.5-4.5,4.5l-164.1,4.2c-2.3,0.1-4.2-1.8-4.2-4.1
					l0.3-41.2c0-2.3,1.9-4.3,4.2-4.4L944.6,347.6z"/>
				<path class="st6" d="M965.2,382.6c-1.4,0-2.7-0.5-3.6-1.5c-0.9-0.9-1.4-2.1-1.4-3.4v-26.3c0-2.7,2.3-5,5.1-5.1l35.6-1.3
					c2.9-0.1,5.3,2.1,5.3,4.9v26.6c0,2.8-2.3,5.1-5.2,5.2l-35.6,1C965.3,382.6,965.2,382.6,965.2,382.6L965.2,382.6z M1001.1,346.1
					c-0.1,0-0.1,0-0.2,0l-35.6,1.3c-2.2,0.1-4,1.9-4,4v26.3c0,1,0.4,1.9,1.1,2.6c0.8,0.8,1.8,1.2,2.9,1.1l35.6-1
					c2.3-0.1,4.1-1.9,4.1-4v-26.6C1005,347.8,1003.2,346.1,1001.1,346.1L1001.1,346.1z"/>
				<path class="st5" d="M944.5,409.5c2.5-0.1,4.5,1.9,4.5,4.3l-0.1,43c0,2.4-2,4.4-4.6,4.5l-164.3,2c-2.3,0-4.2-1.9-4.2-4.2
					l0.3-41.4c0-2.3,1.9-4.3,4.2-4.3L944.5,409.5z"/>
				<path class="st6" d="M965.1,444.9c-1.4,0-2.7-0.5-3.7-1.5c-0.9-0.9-1.4-2.1-1.4-3.4v-26.4c0-2.7,2.3-5,5.2-5.1l35.6-0.8h0.1
					c2.8,0,5.1,2.2,5.1,4.9v26.6c0,2.8-2.3,5.1-5.2,5.1L965.1,444.9L965.1,444.9L965.1,444.9L965.1,444.9z M1001,408.8l-35.7,0.8
					c-2.2,0.1-4,1.8-4,3.9v26.4c0,1,0.4,1.9,1.1,2.6c0.7,0.7,1.8,1.2,2.8,1.2l35.7-0.6c2.3,0,4.1-1.8,4.1-4v-26.6
					C1005,410.5,1003.2,408.8,1001,408.8L1001,408.8z"/>
				<path class="st0" d="M793.6,426.8C793.6,426.8,793.7,426.8,793.6,426.8l145.2-3c1,0,1.9-0.9,1.9-1.9s-0.9-1.9-1.9-1.9l-145.2,3
					c-1,0-1.9,0.9-1.9,1.9C791.8,425.9,792.6,426.8,793.6,426.8L793.6,426.8z"/>
				<path class="st5" d="M782.1,206.2L782.1,206.2L845,202c1-0.1,1.8-1,1.8-2c-0.1-1-1-1.8-2-1.8l-62.8,4.2c-1,0.1-1.8,1-1.8,2
					C780.3,205.4,781.1,206.2,782.1,206.2L782.1,206.2z"/>
				<path class="st5" d="M781.5,214.9L781.5,214.9l48.6-3.2c1-0.1,1.8-1,1.8-2c-0.1-1-1-1.8-2-1.8l-48.5,3.2c-1,0.1-1.8,1-1.8,2
					C779.7,214.1,780.5,214.9,781.5,214.9L781.5,214.9z"/>
				<path class="st5" d="M781.5,224.2L781.5,224.2l48.6-3.2c1-0.1,1.8-1,1.8-2c-0.1-1-1-1.8-2-1.8l-48.5,3.2c-1,0.1-1.8,1-1.8,2
					C779.7,223.4,780.5,224.2,781.5,224.2L781.5,224.2z"/>
			</g>
		</g>
		<path class="st7" d="M975.8,310.5c-1.1,0-2.2-0.5-3.1-1.4c-3.1-3.2-3-12.6-2.9-15.4c0.1-1.3,1.1-2.3,2.4-2.2
			c1.3,0.1,2.3,1.1,2.2,2.4l0,0c0,0-0.1,2.8,0.1,5.8c0.3,4.1,1,5.6,1.3,6c0.7-0.3,2.8-1.4,7.5-6.8c3.1-3.5,5.7-7,5.8-7
			c0.8-1,2.2-1.2,3.3-0.5c1,0.8,1.2,2.2,0.5,3.3c-0.1,0.2-2.9,3.8-6.2,7.5C980.3,309.5,977.6,310.5,975.8,310.5L975.8,310.5z"/>
		<path class="st7" d="M977.7,373.3c-1.1,0-2.2-0.5-3.1-1.4c-3.1-3.2-3-12.6-2.9-15.4c0.1-1.3,1.1-2.3,2.4-2.2
			c1.3,0.1,2.3,1.1,2.2,2.4c0,0.1-0.1,2.8,0.1,5.8c0.3,4.1,1,5.6,1.3,6c0.7-0.3,2.8-1.4,7.5-6.8c3.1-3.5,5.7-7,5.8-7
			c0.8-1,2.2-1.2,3.3-0.5c1,0.8,1.2,2.2,0.5,3.3c-0.1,0.2-2.9,3.8-6.2,7.5C982.3,372.4,979.5,373.3,977.7,373.3L977.7,373.3z"/>
		<path class="st7" d="M978.1,435c-1.1,0-2.2-0.5-3.1-1.4c-3.1-3.2-3-12.6-2.9-15.4c0.1-1.3,1.1-2.3,2.4-2.2
			c1.3,0.1,2.3,1.1,2.2,2.4c0,0.1-0.1,2.8,0.1,5.8c0.3,4.1,1,5.6,1.3,6c0.7-0.3,2.8-1.4,7.5-6.8c3.1-3.5,5.7-7,5.8-7
			c0.8-1,2.2-1.2,3.3-0.5c1,0.8,1.2,2.2,0.5,3.3c-0.1,0.2-2.9,3.8-6.2,7.5C982.7,434,979.9,435,978.1,435L978.1,435z"/>
		<path class="st0" d="M784.1,306.8C784.1,306.8,784.2,306.8,784.1,306.8l154.1-7.3c1-0.1,1.8-0.9,1.8-2c0-1-0.9-1.9-2-1.8L784,303
			c-1,0.1-1.9,0.9-1.8,2C782.3,306,783.1,306.8,784.1,306.8L784.1,306.8z"/>
		<path class="st0" d="M834.6,371.3C834.6,371.3,834.7,371.3,834.6,371.3l105-3.3c1,0,1.9-0.9,1.8-2c0-1-0.9-1.9-2-1.8l-104.9,3.3
			c-1,0-1.9,0.9-1.8,2C832.8,370.5,833.6,371.3,834.6,371.3L834.6,371.3z"/>
	</g>
</g>
<g>
	<path class="st0" d="M1103.3,356.2c0,0,30.4-15.1,59.6-10.9c43.9,6.3,69-11.6,72.6-40.1c4.9-39-24.3-64.6-79.7-48.8
		C1097,273.2,1103.3,356.2,1103.3,356.2z"/>
	<path class="st8" d="M1019.4,339.3c0,0-5.5-43.7,3.3-83.4c5.9-26.7,23.3-44.1,68.8-52.3s89.1,5.4,98,39.9c8.5,33,2,76.8-40.2,83.5
		c-27.9,4.5-73.7-4.6-94.4-1.7C1039.2,327.6,1019.4,339.3,1019.4,339.3z"/>
	<g>
		<path class="st0" d="M1141.9,252.4c0,1.5-1.2,2.6-2.6,2.6h-76.5c-1.5,0-2.6-1.2-2.6-2.6l0,0c0-1.5,1.2-2.6,2.6-2.6h76.5
			C1140.7,249.8,1141.9,250.9,1141.9,252.4L1141.9,252.4z"/>
		<path class="st0" d="M1141.9,268.6c0,1.5-1.2,2.6-2.6,2.6h-76.5c-1.5,0-2.6-1.2-2.6-2.6l0,0c0-1.5,1.2-2.6,2.6-2.6h76.5
			C1140.7,266,1141.9,267.2,1141.9,268.6L1141.9,268.6z"/>
		<path class="st0" d="M1100.1,284.9c0,1.5-1.2,2.6-2.6,2.6h-34.7c-1.5,0-2.6-1.2-2.6-2.6l0,0c0-1.5,1.2-2.6,2.6-2.6h34.7
			C1098.9,282.2,1100.1,283.4,1100.1,284.9L1100.1,284.9z"/>
	</g>
</g>
<g>
	<g>
		<path class="st3" d="M658.3,559.8c0,0,4.4,46.4,4.6,50.2c0.2,3.9,28,3.4,27.9-1.6c0-5.1,6.2-70.5,3.4-96
			c-6-53.6-48.7-39.7-65.8-16.5c-3.2,4.4-9.8,8.3-10.6,14.4c-3.5,27.4-0.2,78-1.1,90.7c-1,12.8,29.4,36.3,29.8,4.5
			c4-14.1,10.5-46.2,10.7-46.7C657.3,558.2,658.3,559.8,658.3,559.8z"/>
	</g>
	<path class="st9" d="M398.6,596c0,0-5.8-43.1-28.3-84.8c-12.1-22.4,0.8-25,11.9-26.9c13.8-2.3,30.1-3.1,30.1-3.1L437.9,587
		L398.6,596z"/>
	<path class="st9" d="M1034.7,609.9c0,0-0.9-42.7,33.9-104.2c7.1-12.6,10.9-20.8-10.5-21c-21.3-0.2-24.3,0.2-33,0.7
		c-4.8,0.3-14,6.5-18.4,16.9c-13.1,31.3-21.6,94.7-21.6,94.7L1034.7,609.9z"/>
	<path class="st10" d="M1069.6,491.8c-14.2,15.3-10.5,65.2-14,80.7c-18.8,3.2-30.4,7.5-55.7,12.7c2.9,9.2,9.4,13.5,9.4,13.5
		s47.5-3.6,66.9-10.2c19.4-6.6,17.2-24.3,17.2-24.3S1083.8,476.5,1069.6,491.8z"/>
	<path class="st9" d="M1201,632.9c0,0-1.8-41,41-116.7c8.8-15.5,13.4-25.6-12.9-25.9s-29.8,0.2-40.5,0.8
		c-5.9,0.3-17.2,7.9-22.6,20.8c-16.1,38.5-26.6,116.4-26.6,116.4L1201,632.9z"/>
	<path class="st3" d="M1172.5,594.2c14.7,16.8,8.8,33.6,7.7,38.9l-151.3-1.6c-0.6-4.2,0.8-5.9,0.1-10.5c26.3-5.2,50-9.4,66.7-10
		C1102,610.4,1136.5,599.6,1172.5,594.2z"/>
	<path class="st3" d="M473.3,470.8c6.1,13.4,8.5,52.8,17.9,59.3c6,3.1,35.1,16,35.1,16l-4.2,10c0,0-37.5-6.8-48.8-13.2
		c-5.5-3.1-8-17-18.9-39.7C436.7,466.2,456.2,432.8,473.3,470.8z"/>
	<path class="st11" d="M437.6,409c0,0-12.3-4.5-14.2,8.8c-2,13.3,4,33.8-2.5,40.4c-0.1,1.7,4.9,9.7,14.7,4.8
		c12.7-6.3-0.5-34.3-0.7-39.1c-0.2-5.3,2.8-6.5,3.9-7C436.8,413.4,437.6,409,437.6,409z"/>
	
		<linearGradient id="SVGID_1_" gradientUnits="userSpaceOnUse" x1="414.9067" y1="515.2234" x2="480.0186" y2="515.2234" gradientTransform="matrix(1 0 0 1 0 1)">
		<stop  offset="0" style="stop-color:#9FD2E3"/>
		<stop  offset="1" style="stop-color:#FFFFFF"/>
	</linearGradient>
	<path class="st12" d="M417.4,583.8c11.8,4,36.9-3.8,46.7-11c0.5-11.7,1.1-44,8.2-49.9c5.7-4.7,7.6-6.9,7.8-12.8
		c-0.5-5.5-13.3-32.7-18.8-48.8c-5.6-16.1-19.4-13.6-19.4-13.6s-1.5,0.6-2.1,0.9C437.8,455.5,405.9,579.9,417.4,583.8z"/>
	<path class="st3" d="M396.9,482.6c-0.7-3.7,2.4-10.8,7.1-13.8c5.1-3.3,35.7-20.2,35.7-20.2s16.3,41,12,70.1
		c-2.2,14.6-7,42.3-24.4,71.7c-10-0.1-24.5-1.2-35-6.7c6.1-21,20.4-32.5,22.9-54.1C416.9,516,397.3,485.2,396.9,482.6z"/>
	
		<linearGradient id="SVGID_2_" gradientUnits="userSpaceOnUse" x1="1073.2522" y1="559.7533" x2="1136.3876" y2="530.2129" gradientTransform="matrix(1 0 0 1 0 1)">
		<stop  offset="0" style="stop-color:#D2E8F2"/>
		<stop  offset="1" style="stop-color:#FFFFFF"/>
	</linearGradient>
	<path class="st13" d="M1137.1,627.7c-10.9-1.9-36.6-11.7-43.4-19c-1.6-2.6-1.4-10-1.4-15.9c-8.2-19.1-18.2-48.2-23.8-62.8
		c-4.9-12.9-1-33.9,3.3-44.7c0.3-0.7-6.9-14-6.6-14.6c8.6-15.4,23.6-24.6,28-26.6s9.7,0.1,9.7,0.1l-0.5,4.7c0,0,30.3,9.3,53.7,50.2
		c17,29.6,22.1,81.7,25.5,114.1C1182.6,622.4,1147.7,629.5,1137.1,627.7z"/>
	<path class="st14" d="M1045.7,447.6c10.9,0.3,23.2,12,28.5,23.9c14.9-7.2,25.2-22.5,28.1-23.1c-9-6.1-9.7-15.5-9.7-15.5
		S1068.2,373.5,1045.7,447.6z"/>
	<path class="st10" d="M1144.6,602.9c-9.6,8.4-52.3-6.6-52.3-6.6v-3.5c-2.4-5.6-8.2-19.8-9.4-22.9c1.7-3,38.3,10.7,35.3-5.2
		c-5.4-28.5-0.4-59.7,12.3-43C1162.1,563.2,1152,596.4,1144.6,602.9z"/>
	<g>
		<g>
			<path class="st15" d="M1044.1,448.1c5.5-0.3,7.6-0.8,10.8-1.5c7.5-1.7,7.4-10.7,7.4-10.7l0.3-10.4c0,0,7-1,5-8.6
				c-1.4-5.6,10.4-3.6,4.4-5.3c-8.9-2.4-3.1-22-3.1-22l-12.2-2.1l-10,6.6l-12.5,27.1c0,0-0.9,1.7,1.4,2.2c2.1,0.5,2.3,0.9,2.3,0.9
				s1.4,20.5,1.6,21.5C1039.6,446.9,1041.9,448.2,1044.1,448.1z"/>
		</g>
	</g>
	<path class="st3" d="M926.4,463.4c0,0-17.9,17.6-24.9,38.8s1.8,59.1,3.2,68c1.4,8.9,35.9,10.6,41.8-15.1
		C952.5,529.3,926.4,463.4,926.4,463.4z"/>
	<path class="st9" d="M436.8,572.8c0,0,4.9-12.3,5.6-15.8c-4.1,2.3-39.2,8.7-39.2,12.3C403.2,582.9,436.8,572.8,436.8,572.8z"/>
	<path class="st3" d="M444.2,545.1l-42.9,3c0,0,13.7-32.8,20.1-49.4c6.3-16.4-18.6-39.5-24.5-19.5c-5.9,20.1-16.9,61.6-17.3,75.7
		c-0.5,14.1,19.6,16.4,47.4,8c14.3-4.3,19.3-5.9,19.3-5.9L444.2,545.1z"/>
	<g>
		<path class="st16" d="M265.6,479.6c0,0,14.6,12.6,16.8,17c2.2,4.4,3.2,12.1,3.2,12.1s14.1,15.1,14.1,22.8s-4.1,14.7-4.1,14.7
			l-0.6,5c0,0,8.3,8.2,6.2,15.3c-2.1,7.1-17.4,5.6-17.4,5.6l-41.6-80.6L265.6,479.6z"/>
		
			<linearGradient id="SVGID_3_" gradientUnits="userSpaceOnUse" x1="258.2176" y1="530.0861" x2="274.2932" y2="493.005" gradientTransform="matrix(1 0 0 1 0 1)">
			<stop  offset="0" style="stop-color:#9FD2E3"/>
			<stop  offset="1" style="stop-color:#FFFFFF"/>
		</linearGradient>
		<path class="st17" d="M257.3,468.1l17.7,16.2l-2.3,8.4c0,0,4.6,11,9.6,18.3c5.7,8.4,13.8,18.1,12,27.1c-1.8,8.9-4.1,14.4-4.1,14.4
			L241.7,474L257.3,468.1z"/>
		<path class="st9" d="M258.7,402.4c-1.3,1.6-4.1,5.2-3.8,12.9c-4.1,0.7-4.9,5.5-4.9,7.5c0.2,23.5-1.7,38-27.3,41
			C233.7,451.8,233.2,396.4,258.7,402.4z"/>
		<path class="st18" d="M278,467.4c0,0-6.6-0.1-8.3,5.6c-2.1,7.6-3,9.5-2.4,12.6c0.6,3,7.2,22,7.2,22s-15.2-18-18-21
			c-2.8-3-14-21.6-15.8-24.4s-3.1-5.2-3.1-5.2s10.2-5.4,15.8-15.8c2.8-5.1,7.2-25.4,7.2-25.4l24.2,37.8L278,467.4z"/>
		<path class="st9" d="M287.2,441.3c0,0-7.3-1.6-8-7.2c-0.7-5.7-5-7.1-9-4.4c-4.1,2.7-4.7-4.9-5-2.8c-1.5,10.5-11.8,14.3-11.8,14.3
			s-0.6-7.2-1.1-12.3c-2.1-22.7,12.8-31.3,22.5-32.7c7.3-1,18.7-1.1,32.1,8.5s7.9,22.3-6.8,29.8
			C287.9,440.7,287.2,441.3,287.2,441.3z"/>
		<path class="st19" d="M276.2,428.3c0,0,0.7-11.3-7.8-8.6c-6.8,2.1-4.4,15.1-0.9,17.9c0,0-0.5,7.4,0.2,12.1
			c0.5,3.6,1.3,10.3,6.4,15.8c3.1,3.3,8.4,5.1,9.3,5.4c2.1,0.7,4.2-0.5,4.7-1.2c0.6-0.7,11.7-13.1,11.7-13.1s4.7,2,4.5-1.8
			c-0.6-13.2,14-21.1,7.9-36c-8,5.4-16.2-4.5-23.9,3C280.3,429.6,276.2,428.3,276.2,428.3z"/>
		<path class="st9" d="M216.9,626.7c0,0-8.3-56.4-36.3-107.6c-19.7-36-0.9-32.1,12.7-32.4c13.6-0.3,38.7-0.9,38.7-0.9l31.8,132.9
			L216.9,626.7z"/>
		<path class="st3" d="M227.4,595.7c0,0-1.8,11.5,6.4,21.2s120.4-22.7,120.4-22.7l-64.4-18.9L227.4,595.7z"/>
		
			<linearGradient id="SVGID_4_" gradientUnits="userSpaceOnUse" x1="220.1588" y1="540.9731" x2="289.1356" y2="506.1823" gradientTransform="matrix(1 0 0 1 0 1)">
			<stop  offset="0" style="stop-color:#9FD2E3"/>
			<stop  offset="1" style="stop-color:#FFFFFF"/>
		</linearGradient>
		<path class="st20" d="M233,458.6l5.1-6.7c0,0,18.4,16.5,22.4,23.6c-0.4,3.5-1.3,7.2-1.2,9.2c5,5,26.4,33.6,30.9,41
			s-0.8,22.5-0.8,22.5s15.1,20.6,16.6,31.5c-30.6,2.1-44.5,18.2-67.8,21.2s-9.1-19.4-15.4-33.3c-6.4-13.9-23-51.8-16.2-78.3
			C212.4,466.8,233,458.6,233,458.6z"/>
		<path class="st18" d="M379.4,553.5c0,0,6.3,0.8,9.2,2.6s0.6,3.5-4.7,3.3c-5.3-0.2-6.5-0.2-6.5-0.2L379.4,553.5z"/>
		<path class="st19" d="M293.8,562.2l55.5-1.5c0,0,10.1-7.6,14.1-9.8c3.9-2.3,15,0,17.4,1.1s1.7,3.4,1.1,5.6c2,2.4-0.5,5.3,0.3,6.4
			c2.3,1.9-0.2,7.6-0.2,7.6s-25.6,3.6-32.5,3.5c-7-0.2-52.2,4.1-59.7,4.2C288.2,571.3,293.8,562.2,293.8,562.2z"/>
		<path class="st9" d="M367.7,553c0,0-10.4-17.6-11.3-18.9c-0.9-1.3,2.6-5.4,5.1-1.4c2.4,3.9,12,19.3,12,19.3L367.7,553z"/>
		<path class="st9" d="M362.8,541c-3.2-4.6-6.7-10.1-7.2-10.8c-0.5-0.8,1.3-2.3,2.1-1.1c0.8,1.2,1.6,2.5,2.3,3.6
			C365.4,541.4,366,545.6,362.8,541z"/>
		<path class="st4" d="M204.4,595.2c0,0-6.5,1.8-7.1-1.2s6.3-6.3,9.5-7.1s25.7-6.5,49.9-6.7s16.1,11.9,0.6,11.7
			C224.8,591.5,204.4,595.2,204.4,595.2z"/>
		<path class="st0" d="M298.8,562.2c-8.3-0.5-19.1-4.3-20.9-5.5s-17.5-35.3-22.6-54.9c-5-19.6-19.2-27.1-27.1-26.7
			c-4.8,0.2-20.8,12.3-6.1,49.6s26.1,49.9,27.5,52.5s5.4,3.8,9.9,4.4c4.4,0.6,37.7-1,37.7-1S294.3,567,298.8,562.2z"/>
		<path class="st21" d="M413.2,577.5c0,0-19.1-14.5-20.6-15.7s-3.4-0.5-8.9,0.3c-5.4,0.8-93.6,13.1-96.5,13.7
			c-0.7,0.1-1.2,0.3-1.5,0.9c-0.6,1.1-0.6,1.3-0.9,2.4c6.2,0.6,54.3,11.5,54.3,11.5L413.2,577.5z"/>
		<path class="st4" d="M411.3,579.5c0,0-19.1-14.5-20.6-15.7s-4.2,0-9.7,0.6c-5.4,0.6-91.5,12.8-94.4,13.4c-2.9,0.6-2.7,2.7,3.3,4.6
			c5.9,1.8,44.8,13.6,44.8,13.6L411.3,579.5z"/>
		<path class="st0" d="M248.8,480.9c0,0,8.2-0.2,11.6-5.4c-3.5-8-22.4-23.6-22.4-23.6l-5.4,5.4L248.8,480.9z"/>
	</g>
	<path class="st10" d="M923,446.1c-5.5,6.3-10.8,13.9-10.8,13.9l5.2,9.6c0,0-6.1,11.6-8.5,22.8c-2.4,11.1-2.7,61.2-0.1,78.6
		c1.1,7.2,47.8,5.8,47.8,5.8L949,437.2C949,437.2,928.4,439.8,923,446.1z"/>
	<path class="st18" d="M923.4,461.5c-4.2-6-8.4-18.6-29.4-18.3c-10.7-11.6,10.3-48.4,10.3-48.4l30.3,22.2c0,0-1.9,12.5,8,20.2
		C932.9,454.1,924,462.2,923.4,461.5z"/>
	<path class="st2" d="M925.2,463.7c0,0-6.5-0.6-7.5,1.6c-0.9,2.2,1.1,8.8,1.1,8.8s-3,13.3-5,27.6c-3.2,24.1-3.8,55.1-3.8,55.1
		l7.9,14.5c0,0,8-11.3,8-15.2c-5.1-35.5-3.6-82.5-3.6-82.5L925.2,463.7z"/>
	<path class="st0" d="M949.3,436.6l-6.1-2.8c0,0-11.3,7.9-23.1,27.9c2.2,3.5,8.9,8.1,8.9,8.1L949.3,436.6z"/>
	<g>
		<path class="st3" d="M949.3,439c0,0-3.2,5.6-6.9,13.5c-4.7,10-5.9,31.8-7.6,42.2c-1.6,9.8-3.1,18.7-0.2,30.5
			c2.1,8.4,12,47.1,18.3,57.4c6.3,10.4,49.7,7.7,49.7,7.7s-17.5-64.1-11.1-87.4c6.2-22.3,5.6-38.8-0.3-46
			c-5.7-6.9-29.9-13.3-37.5-17.7C952.1,438.3,949.3,439,949.3,439z"/>
		<path class="st9" d="M976.1,488.6c23.8-0.5-7.8,97.6-7.8,97.6s-4.4,1.5-14.3,0.3c-1.5-3.8-8.5-22.2-9.9-26.8
			c10.7-6.4,17.2-4.2,21.9-20.3C970.6,523.1,961.3,488.9,976.1,488.6z"/>
		<path class="st4" d="M933,510.6c0,0,13.8-35.8,16.5-40.8c1.4-2.6-6.3-8.9-6.3-8.9l9.4-4.5l0.6-17.6l-3.8-2.3
			c0,0-5.5,6.3-10.5,23.2C930.5,487.6,933,510.6,933,510.6z"/>
	</g>
	<polygon class="st0" points="548.4,541.9 811.1,543.6 1212.5,635.2 172,635 	"/>
	<g>
		<path class="st22" d="M934.5,605c0,0,7.2,10.8,12.1,19c0.4,0.6,3.2,0.6,4,0.6c33.8-0.8,87.4-6.4,103.9-7.9c3.9-0.3-1.2-2-1.2-2
			l-29.4-11.4L934.5,605z"/>
		<path class="st10" d="M934.7,603.4c0,0,5.9,7.8,15.6,17.2c30.5,1.6,108.2-5.4,108.2-5.4l-33.6-14.1L934.7,603.4z"/>
	</g>
	<path class="st3" d="M906.4,543.6c-1.1-11.7,1.6-53.5,8.3-68.4c-5.6,5.4-14.6,31.1-23.9,46.8c-10.4,17.6-24.3,28.3-23.6,33
		c1.4,8.9,11.9,19.1,27,4.9C897.7,556.6,904.9,545,906.4,543.6z"/>
	<g>
		<path class="st23" d="M964.9,600.3c1.8-2.8,15.2-24.1,13.8-25.4c-2.3-2.1-17.8,23.7-19.6,26.6c-0.2,0.2-4.1,7.2-4.1,7.2
			c1.1,1.4,3.9-2.4,5.2-1.8C963.4,602.7,964.8,600.5,964.9,600.3z"/>
		<path class="st15" d="M1029.3,579.5c-8.4,1.4-31.2,7.3-39.9,9.5c-1.5-0.7-4.3-3.9-13.8-6c-12.8-2.8-24.5,16.9-24.5,16.9
			s5.3,1.9,6.8-1.8c4,1.3,11.6-11.2,16.4-3.3c0.4,0.7-12,2.7-13.3,3.2c-3.1,1.1-1.7,4.3-1.7,4.3s17-0.7,24.2-0.4
			c2.6,0.1,5.7-0.4,8.3-2.8c1-0.2,31.5-4.4,40-5.4C1041.3,592.5,1038.4,578,1029.3,579.5z"/>
		<path class="st23" d="M971.2,591c1.9-2.6,13-18.8,10.3-20.3c-2.7-1.6-14.1,17.2-15.8,20.1c-0.1,0.3-3.9,6.2-3.9,6.2
			c1.2,0,4.6-0.8,5.6-0.8C967.4,596.3,971,591.3,971.2,591z"/>
	</g>
	<g>
		<path class="st4" d="M849.9,590.1c0,0,1.6,0.7,4.4,0.4c2.5-0.2,39.8-4.9,49.6-5.7c2.3-0.2,1.5-2.4,0.8-2.6
			c-0.7-0.2-41.4-17.1-42.4-17.4c-1.1-0.4-3.3-0.3-3.3-0.3l-50.7,3.5c0,0-0.3,2.8,1.2,3.5C811.1,572.1,849.9,590.1,849.9,590.1z"/>
		<polygon class="st24" points="872.2,569.9 885.7,575.4 873,576.4 859.6,570.7 		"/>
		<polygon class="st24" points="838.8,566.2 878.2,583.9 874.5,584.2 835.6,566.4 		"/>
		<polygon class="st24" points="832.7,566.7 871.2,584.4 867.4,584.8 829.6,566.8 		"/>
		<polygon class="st24" points="827.1,567 864.1,585 860.4,585.3 823.9,567.1 		"/>
		<path class="st9" d="M850.7,586.2c0,0-0.6,0.5-1.5,0.2s-41.9-18.3-41.9-18.3s-24.2-41.7-24.8-42.8s0-1.7,1.4-1.3
			s35.8,10.2,37.1,10.6s1.9,1.1,3.2,3.1C825.3,539.7,850.7,586.2,850.7,586.2z"/>
	</g>
	<g>
		<path class="st18" d="M883.8,482.9c0,0,1-7.7,1.4-10.5c6.4-2.1,8.8-12.4,8.4-14.5s2.7-10.7,3.5-12.5c0.7-1.7-1.9-1.4-3.2-0.3
			c-2.4,2-5,7.4-5,7.4l1.1-7.3l-14.5,3c0,0-3.3,10.3-4.3,14.7c-1.1,4.4,2.4,9.1,2.4,9.1l-2.3,14.9L883.8,482.9z"/>
		<path class="st3" d="M885,478c-0.3,17.3,2,49,5.8,68.6s-20.7,31.4-25,4.4s4-73,4-73S879,476.8,885,478z"/>
		<path class="st19" d="M871.2,456.6c0.5,2.7,3.4,1.1,3.7,0.1c1.9,1.3,3.7,0.1,4.2-1.4c3.2,1.2,4.5-4.6,4.5-4.6s0.8,2.3,3.1,0.8
			c1.7-1.2,3.4-5.2,3.4-6.6c0-1.5-3.1-2.5-5.1-0.4c-0.7-0.7-4-0.7-5.5,2.1c-0.6-0.7-2.9-2.1-4,0.5c-1.8-0.7-4.2,0.5-4.4,2.3
			C871.1,449.3,870.6,453,871.2,456.6z"/>
	</g>
	<g>
		<path class="st18" d="M916.5,590.2c-1.2,0.5-4.4,1.4-9.3-0.4c-1.2-0.5-2.5-3.1-1.6-3.6c-1.2,0.3-3.7,0.6-4.4,0.1
			c-1.5-0.9-1.8-3-1.8-3s-1.6,0.3-2.6-0.1c-1-0.4-1.4-2.1-1-3.3c0.9-2.4,4.5-3,7.2-4.7c0.3-0.2,3.6-4.4,5.3-5
			c3-1.1,5.7,9.8,7.3,13.5C917.4,587.8,916.5,590.2,916.5,590.2z"/>
		<path class="st19" d="M929.8,571.6c0,0-10.4-3.8-14.1-3c-3.1,0.7-5.3,0.6-7.4,1.4c-0.9,0.4-1.7,1.3-1.4,2.3c0.4,1,1.7,1.1,1.7,1.1
			s-4,2.7-3.9,4.1c0.3,2.5,2.8,2.4,2.9,5c0.1,2.6,3.2,2.8,3.4,4.8c0.2,1.6,1.1,2.3,2,3.3s5.1,0.4,9.3-1.6c1.5-0.7,9.2-6.4,9.2-6.4
			s30.9-9.5,47-15.5s-1.7-18.8-13-13.6C953.7,559.1,929.8,571.6,929.8,571.6z"/>
		<path class="st3" d="M937.8,567.3c0,0,60.8-29.8,59.8-34.6s-21.4-30.7-34.3-50.3c-12.9-19.6,19.3-44.3,31.7-19.4
			c12.5,25,30.4,51,34.3,69.4s-27.6,31-57.2,41.4c-7.1,2.5-28,8-28,8L937.8,567.3z"/>
	</g>
	<g>
		<path class="st22" d="M582.3,559c0,0-5.4,8.1-9.1,14.3c-0.3,0.4-2.4,0.4-3,0.4c-25.3-0.6-65.6-4.8-78-5.9
			c-2.9-0.3,0.9-1.5,0.9-1.5l22.1-8.6L582.3,559z"/>
		<path class="st10" d="M582.2,557.8c0,0-4.5,5.9-11.7,12.9c-22.9,1.2-81.2-4.1-81.2-4.1l25.2-10.6L582.2,557.8z"/>
	</g>
	<g>
		<path class="st10" d="M1053.5,572.4c-18.2,4.7-33.7,8.1-58.9,14c3.2,9.1,6,13.5,6,13.5s50.7-3.3,69.9-10.5L1053.5,572.4z"/>
	</g>
	<path class="st25" d="M1075.4,476.7c0,0-3.6,1.7-4,7.7c-0.3,3.6,1.2,6.1,1.2,6.1s-9,23.1-7.9,53.3c1.8,46.2,0.8,55.4,0.8,55.4
		s5.5,7.6,10.5,12.1c0.7,0.6,2.3,0.5,3.4-0.7l8.7-11.2c0,0-3.7-12.6-10.7-57.4c-4.8-30.9,0-50.4,0-50.4s2.3-4.1,4.8-8.6
		C1076.4,478.8,1075.4,476.7,1075.4,476.7z"/>
	<path class="st26" d="M562.9,553.9c-0.4-1.4-4.9-5-7.3-6.4c-6.8-2.1-18.7,2-20.2,2.6c-6.2-2.6-21.1-8.9-39.2-16.4
		c-0.9,1.3-6.9,13.4-6.9,13.4s37.1,7.6,45.2,9.9c1,0.9,4.2,3.4,8.6,3.7c4.6,0.3,12.7,2,14.6,1.1c-0.5-1.9-0.1-2.5-5.6-3.7
		c-5-1.1-5.7-1.4-6-2.4c4.2-2.7,6.4-3.7,8.8-0.8c3.5,4.4,5.1,4.7,6.4,4.1c0.2,0.6,0.9,1.8,1.2,2.1c0.9,0.9,1.9,0.6,3,0.2
		C565.1,559.5,563.8,555.9,562.9,553.9z"/>
	<path class="st3" d="M474.3,543.4c11.2,6.4,48.3,13.1,48.3,13.1l4.1-9.9c0,0-26.1-11.7-32.1-14.8L474.3,543.4z"/>
	<path class="st26" d="M444.2,545c0,0,2.7,0,16.4-1.8c0.6-1.8,10.5-3,22.9-4c0.6,3.9-8.2,4.8-9.5,5.5c3,1.8,22,10.1,23.1,10.8
		s0.3,3.2,0.3,3.2s2.9,2,0.4,2.5s-13.5-2.8-13.5-2.8s7.7,3.7,8.5,4c0.8,0.2-0.8,3-7.5,1c-2.6-0.7-20.9-4.4-23.6-11.1
		c-0.8-0.1-15.7,3.5-15.7,3.5L444.2,545z"/>
	<path class="st15" d="M1064,555.7c0,0-17.5-1.2-34.7-3.4c-0.7-2.2-13.2-3.8-28.7-5c-0.7,4.9,10.3,6.1,11.9,7
		c-5.7,2.8-25.7,12-27.1,12.8c-1.4,0.8-1.7,3.4-0.3,4c-0.5,0.9-1.9,2.6,1.2,3.3c3.1,0.7,15.2-3.6,15.2-3.6s-9.5,4.4-10.7,5
		c-1,0.5-0.7,3.2,4,1.7c1.3-0.4,5.7-1.6,12.6-3.8c9-1.8,18.6-5,20.5-9.9c1-0.2,32.4,7.5,32.4,7.5L1064,555.7z"/>
	<path class="st0" d="M1036.2,553c0,0,71.3,5.8,77,6.4c1.8-4.4-4.2-30.9-2.7-60.2c0.9-18.1,13.3-35.5,27.4-16
		c12.9,17.7,12.1,50.4,11.3,76.7c-0.4,14.5,1,26.5-23.5,27.5c-34.1,1.3-90.2-18-90.2-18L1036.2,553z"/>
	<path class="st10" d="M1071.8,473c0,0,3.2,7.5,11.1,11.7c12.3-22.8,25.8-33.2,25.8-33.2s-2.7-4-5.7-7.4
		C1090.6,448.6,1071.8,473,1071.8,473z"/>
	<g>
		<g>
			<g>
				<path class="st9" d="M1085.3,391.8c-2-6.3-4.9-7.9-8.6-8.9c-2.9-0.7-5.9,0.3-7.2-1.5c-2.7-3.7-6.9-4-9.3-3
					c-5,2.5-6.9-2.1-11.7-0.5c-7.2,2.5-8.8,12.1-2.4,17.4c9.9-1.2,11.5,2.3,8.9,8.9c-0.3,1.2-2.8,7.5-3.3,11.9
					c0.4,2.5,2.7,3.4,4.9,2.7c2.5-6.4,7.2-7.2,10.5-3c3.4,4.4-0.1,24.5,21,19.5c0.7-0.2,3.4-1.5,4.5-2.3
					C1090.5,421,1099.2,394.7,1085.3,391.8z"/>
			</g>
		</g>
	</g>
	<g>
		<g>
			<path class="st27" d="M478.1,446c-4.6,0.7-16.3,4.1-20.4,19.6c-1.5,3.8-9.5-2.2-11.8-3.9c-8-6.1-6.8-12.4-6.8-12.4
				s6.4-4.9,5.9-11.2c-0.5-5.9,10.7-37.3,10.7-37.3S482.7,445.3,478.1,446z"/>
			<path class="st28" d="M462.4,413.4c0,0,5.4,4.1,3.7,6c-4.1,4.6,2.9,10.2,2.9,10.2s1.5,13.2,4.9,15.5c0.8,0.5,1.8,1.2,4.3,1.3
				c0.6,0,2.6-0.4,2.8-1.7c0.1-0.6,2.7-15.2,2.7-15.2s3-1.2,1.6-3.3c-7.2-10.2-2.1-17.5-11.7-21.7L462.4,413.4z"/>
		</g>
	</g>
	<path class="st11" d="M475.6,396.5c-0.9-2.9-7-5.4-12.2-5.1c-10.8,0.6-19.7,9.8-23.3,13c-3.6,3.2-3.8,21.4,2.1,29.8
		c1,1.5,2.2,3,2.2,3s11.2,3.1,13.3-3.5c1.3-4,5.3-10.7,7.7-12.8c1.6-1.4,5-3.1,5.4,0.6c0.3,2.7,0.7,2.7,2.3,2.1
		c0.6-0.2,5-2.6,9.1-8.1C491.3,404.3,483.6,395.2,475.6,396.5z"/>
	<path class="st25" d="M439.7,448.6l-10,5.5c0,0,14.6,29.5,19.9,29C448.3,472,439.7,448.6,439.7,448.6z"/>
	<g>
		<path class="st29" d="M644.4,352.4c0,0-1.3-11.2-1.2-14.8c0.1-3.5,1.3-4.3,1.3-4.3s-0.6-1.3-0.7-2.5c-0.1-1.2,1.7-2,1.7-2
			s-1.1-6.1,2.8-6.7c0.7-2.1,3.2-7.3,9.7-4.3c2.9,1.3,6.2-6.4,15.7,1.8c3.6,3.1,7.8,1.2,9.9,10c1,4-1.2,7.4-1.2,7.4s0.6,1.4-0.1,6.3
			c-0.7,4.8-4.8,13.2-4.8,13.2L644.4,352.4z"/>
		<g>
			<path class="st30" d="M708.9,403.7c4.7,24.7,7.3,49.7,7.8,56.1c0.6,3-9.4,28.9-16.9,14.7c-1.2-4.5-16.2-32-19.1-59.3
				c-3-28,10.3-25.3,23.6-24.9C706.3,393.6,707.7,397.7,708.9,403.7z"/>
		</g>
		<path class="st0" d="M740.7,453.4c-2.8-0.6-20,6-23.8,6.1c-7.4,0.2-30.4,21.4-4,20.1c14-0.7,28.3-13.7,32.9-17.6
			C745,456.4,740.7,453.4,740.7,453.4z"/>
		<path class="st19" d="M749.8,446.3c3.2-0.2,6.6-0.1,6.6-0.1s9.3-2.2,11.8-2.3c2.5-0.2,2.8,2.7,0.4,3.2c-2.4,0.6-2.5,0.7-2.9,0.9
			c0.2,1.1-2.7,5-5.4,6.1c-0.9,0.4-1.6,0.5-2.3,0.6c0.3,3.8-5.3,4.6-5.3,4.6s-1.4,2.9-4.2,3.3s-10.4,3.3-11.8-0.6
			c-1.5-3.9-0.8-6.7,0.9-10.3c1.7-3.6,4.6-8.5,8-10.4s4.1-5.3,6.7-7.3c2.6-2,4.2,0,2.8,3.3C753.7,440.5,749.7,443.7,749.8,446.3z"/>
		<path class="st31" d="M607.7,526.8c0,0-0.3,1.4-0.5,5.2c1.4,1.7,1.1,6.6,2.6,8.4c0.7,0.9,4.2,2.6,5,3.1s0.3,2.3-2.8,2.5
			c-2.6,0.2-6.2-2-8-2.8c-1.2-0.5-1.8-0.4-3-0.4c-5.4,0-7.7,1.3-13.3,4.3c-1.8,1-4.1,0-2.9-1.2c0.3-0.3,1.4-1.4,1.4-1.4
			s-3.2,2-4.5,2.7s-4.1,0.8-3.9-0.4c-1.1,0.6-4.8,0.5-3.1-1.3c1-1.1,8.4-5.1,8.4-5.1s5.4-2.8,6.4-3.3s6.8-4.1,8-4.9
			c2.1-1.5,2.6-11.5,2.6-11.5L607.7,526.8z"/>
		
			<linearGradient id="SVGID_5_" gradientUnits="userSpaceOnUse" x1="751.4409" y1="392.0443" x2="674.5095" y2="433.2577" gradientTransform="matrix(0.9999 -1.220000e-02 1.220000e-02 0.9999 -5.2542 9.5186)">
			<stop  offset="0" style="stop-color:#D2E8F2"/>
			<stop  offset="1" style="stop-color:#FFFFFF"/>
		</linearGradient>
		<path class="st32" d="M610.6,387.8c0,0,13.3-9.1,29.7-13.8c0.7-1.2,2.7-4.5,2.7-4.5s3.1-3,10.2-3.3c8.7-0.3,18.7,5.8,18.7,5.8
			s1.5,2.9,2.4,4.2c17.8,4.3,29.9,14.9,30.5,15.2c3.2,11.6,1.8,31.1-8.4,57.9c-1.9,10.1-2.4,41.1-2,56.8
			c-19.2,9.8-62.9,11.4-76.5,4.8c1.5-13,0.5-27.3,2.3-36.1C617.8,458.7,610.6,387.8,610.6,387.8z"/>
		<g>
			<path class="st33" d="M668.7,380.6c3.4-6.1,6.4-19.1,6.5-22c-1.9,1.6-8.3,10.6-11,9.4c-3-1.3-5.8-0.5-8.1,0.3
				c-2.2,0.9-7-9.9-9.2-12.9c0.5,4.8-0.1,9.8-2.3,16.2c4,9.7,8.5,11.6,10.3,11.7c1.9,1.7,3.5,3.3,3.5,3.3s5.4,0.4,6.9,0.3
				C666,386.2,668,382.3,668.7,380.6z"/>
		</g>
		<path class="st30" d="M670.2,383.6c2.1,3.1,6.1,6.9,7.4,7.8c-0.9,2.4-11.5-2.9-11.5-2.9S667.9,382,670.2,383.6z"/>
		<path class="st10" d="M625.5,420.7l-4.8,37.7l-2.9,52.3c0,0,8,4.7,26.7,3.7c1.2-8.7-2-14.7-2.5-26c-0.2-4.6,0.5-13.4,0-17
			C640.2,459,625.5,420.7,625.5,420.7z"/>
		<path class="st7" d="M654.8,386.6c0,0,2.8-2,6.6-2.2s5,2,5,2s-1,3.7-2,6.1c5.1,14.9,16.4,70.5,17.8,87c0.2,1.6-0.2,2.1-0.5,2.7
			c-1.3,2.7-4.9,8-7.7,10.6c-0.6,0.6-1.4,1.7-3.7-0.3c-2.8-2-6.5-5.6-9.5-8.7c-1.7-2.3-2.3-2.3-2.2-3.9c-0.3-31,4.2-58.3,0.7-86.8
			C658.3,391.2,654.8,386.6,654.8,386.6z"/>
		<path class="st0" d="M613.5,386.3c-3.3,1.7-6.3,2.3-9.5,8.7c-7.4,14.6-2.2,49.3-3.8,67.2c-3.3,7.4-1.3,66.1-1.3,66.1
			s7.1,2.9,11.8,0.6c1-4.2,12.4-46.5,8.6-66.2c1.4-7.6,10.2-32.2,8.6-43.3L613.5,386.3z"/>
		<path class="st30" d="M654.8,383.2c-5.2-3-11.8-14-11.8-14l-2.8,4.5c0,0,2.9,13.4,6.4,18.6C649.5,391.5,654.9,383.8,654.8,383.2z"
			/>
		<path class="st26" d="M646.8,348.8c0,0,2.8,3.1,2.8-1.3c0-7.9-0.2-13.1,1.4-16.3c0.3-0.7,1.6-4.4,5.9-4.7
			c2.6-0.1,6.5,2.6,10.4,3.3c1.5,0.3,5.6-1.4,7.3-0.8c1.7,0.8,6.5,3,2.5,18.8c-0.5,2.1,0,4.4,0.9,3s3-2.4,3.9-1.4c0,0,0,0,0-0.1
			c0.3,0.3,0.4,0.7,0.5,1.3c0.5,3.4-1.5,5.5-2.3,6.7c-1.1,1.9-3.1,2.2-3.1,2.2s-4,9.8-8.5,12.9c-4.2,2.9-12.7,2.2-16-2.2
			c-3.6-5-5.4-13.2-5.4-13.2s-1.7-0.3-3.1-2.2c-1.9-2.5-1.7-7.5-0.5-7.9C645.6,346.5,646.8,348.8,646.8,348.8z"/>
	</g>
	<g>
		<g>
			<path class="st34" d="M894.3,443.1c4.6-0.7,6.6-1.5,9.2-2.3c6.3-2,6.3-9.9,6.3-9.9l-0.2-8.5c0,0,4.2-2.6,2-9
				c-1.7-4.7-0.5-22.4-0.5-22.4l-10.6-0.8l-8,6.4l-9.1,24.1c0,0-0.2,1.2,1.6,2c1,0.4,2.1,1,2.1,1s3,17.1,3.3,18
				C890.7,442.6,892.4,443.4,894.3,443.1z"/>
			<path class="st9" d="M926.7,393.2c-8-12.5-28.4-3.7-34.5-10.6c-5.7,3.1-6.1,12.1-0.1,15.6c8-2.3,8.7,1.1,7.5,6.8
				c-0.1,1.1-1.3,6.6-1.2,10.4c0.7,2.1,2.7,2.5,4.4,1.6c1.2-5.6,5-6.9,8.3-3.9c3.4,3.2,3.3,22.5,20.2,15.5c2-0.9,3.2-1.8,4-2.6
				C934.7,421.9,938.1,395.6,926.7,393.2z"/>
		</g>
	</g>
</g>
</svg>
