<svg width="160" height="39" viewBox="0 0 161 40" fill="none" xmlns="http://www.w3.org/2000/svg">
<path d="M54.022 22.9386L65.2959 21.8379L65.3112 21.8725C64.927 22.0012 64.5505 22.1404 64.1654 22.2567L51.1118 26.2301C50.6739 26.3658 50.2097 26.3942 49.7585 26.3127C47.9692 26.012 46.1827 25.6932 44.3799 25.4809C44.2447 25.4565 44.111 25.4245 43.9794 25.3849L47.171 24.4888L47.1633 24.4206L45.7726 24.0575C45.4401 23.9755 45.0927 23.9755 44.7603 24.0575C38.8266 25.3561 32.9351 26.8284 27.0561 28.3546C25.0718 28.8694 23.0779 29.3506 21.0917 29.8616C20.823 29.9242 20.543 29.9183 20.2772 29.8443L16.1136 28.8838V28.781L21.0629 27.6736C20.4357 27.445 19.918 27.1771 19.3888 26.9293C19.2438 26.8611 19.0766 26.9206 18.922 26.9523C14.1709 27.9275 9.41954 28.904 4.66783 29.8817C4.30861 29.9602 3.93583 29.9517 3.58059 29.8568C2.39058 29.5398 1.19577 29.243 0 28.8473L8.54809 27.324" fill="black"/>
<path d="M25.4351 35.3968C26.2764 35.1087 27.0179 34.8532 27.7574 34.5968C30.5533 33.6286 33.355 32.6759 36.1375 31.677C36.7877 31.4436 37.3793 31.5723 37.9931 31.677C39.8564 32.0074 41.7158 32.3493 43.5772 32.6932C43.6732 32.7114 43.7856 32.7085 43.8653 32.8065C40.3359 34.2593 36.8101 35.7119 33.2878 37.1641C33.0443 37.2667 32.7727 37.2817 32.5194 37.2063C30.1999 36.608 27.8737 36.0192 25.4351 35.3968Z" fill="black"/>
<path d="M39.373 30.7677C40.7119 30.2423 41.9932 29.8975 43.2504 29.4817C44.9466 28.9217 46.6476 28.3781 48.3409 27.8181C48.6226 27.7124 48.9256 27.6758 49.2245 27.7115C51.0426 27.9766 52.8665 28.1918 54.6991 28.3838C54.7106 28.5462 54.5781 28.5049 54.507 28.5308C51.9416 29.5124 49.3724 30.4776 46.8156 31.4784C46.1506 31.7541 45.418 31.823 44.7132 31.6763C43.1169 31.3603 41.5033 31.1317 39.8965 30.8666C39.764 30.8436 39.618 30.8138 39.373 30.7677Z" fill="black"/>
<path d="M31.3975 28.5821C32.0698 28.4054 32.7344 28.219 33.4058 28.0529C36.0346 27.4027 38.6691 26.7784 41.2892 26.0984C41.9366 25.9303 42.5378 26.0311 43.1554 26.1377C44.4299 26.3567 45.7035 26.5786 46.9828 26.8686C46.3105 27.0607 45.6382 27.2653 44.9659 27.4545C42.3707 28.1825 39.7752 28.909 37.1794 29.6338C36.9787 29.6895 36.777 29.7635 36.5618 29.7193L31.4061 28.658L31.3975 28.5821Z" fill="black"/>
<path d="M34.3775 30.4214C32.0791 31.111 29.8633 31.7737 27.6543 32.4383C27.4044 32.5147 27.1381 32.519 26.8859 32.4508C25.3069 32.0493 23.725 31.6613 22.1441 31.2666C22.0481 31.2425 21.952 31.2051 21.7983 31.1561C23.1065 30.7153 24.4021 30.4415 25.6757 30.0938C26.6006 29.8412 27.5438 29.653 28.461 29.3649C29.1132 29.1584 29.7096 29.3495 30.3157 29.4705C31.6161 29.7308 32.9089 30.0381 34.2007 30.3272C34.2617 30.3546 34.3208 30.386 34.3775 30.4214Z" fill="black"/>
<path d="M25.3434 33.281C23.6146 33.817 21.9117 34.3442 20.2098 34.8744C20.0345 34.9326 19.8459 34.9373 19.6681 34.8879L13.8947 33.3127C13.8765 33.307 13.864 33.2801 13.8198 33.2311C14.5699 33.0313 15.298 32.8325 16.0289 32.6442C16.9307 32.4128 17.8441 32.2226 18.7364 31.9575C19.2744 31.7977 19.8475 31.7994 20.3846 31.9623C21.978 32.3993 23.5848 32.7931 25.1868 33.2061C25.241 33.2267 25.2934 33.2518 25.3434 33.281Z" fill="black"/>
<path d="M6.25537 30.9396C6.98148 30.7744 7.70566 30.6015 8.43369 30.445C10.0031 30.1098 11.5734 29.7899 13.1399 29.4461C13.4347 29.3809 13.7405 29.3855 14.0332 29.4595L18.3552 30.5161C18.414 30.5375 18.4714 30.5625 18.5272 30.591C16.2317 31.1672 13.9707 31.731 11.7079 32.2948C11.5854 32.3411 11.4533 32.3556 11.3237 32.3371C9.63394 31.8972 7.9445 31.4589 6.25537 31.0222V30.9396Z" fill="black"/>
<path d="M17.3252 10.7303C16.9075 10.3022 16.9192 9.84237 17.3619 9.37377C17.8493 8.85714 18.4896 8.65709 19.1603 8.5343C19.4273 8.47896 19.704 8.49335 19.9639 8.57606C20.0816 8.61783 20.1472 8.54515 20.2236 8.49043C21.2114 7.78043 22.2087 7.08883 23.2578 6.4728C25.1068 5.38692 27.0747 4.58461 29.1333 3.99781C30.6936 3.55302 32.284 3.26652 33.8945 3.06855C36.0796 2.79917 38.2731 2.71021 40.472 2.75699C42.8008 2.80494 45.124 3.00361 47.4271 3.35173C49.6515 3.68877 51.8003 4.26846 53.8371 5.23991C55.2763 5.92652 56.5673 6.83864 57.7997 7.83682C58.3256 8.26282 58.9182 8.55643 59.528 8.82749C59.8142 8.95319 60.0904 9.10063 60.3541 9.26852C60.9805 9.66905 61.308 10.2788 61.5414 10.9554C61.8756 11.9193 62.0426 12.9183 62.1679 13.9257C62.2818 14.8082 62.3259 15.6983 62.2999 16.5878C62.2673 17.5563 62.1065 18.4931 61.6592 19.3655C61.498 19.6809 61.4771 20.0338 61.4157 20.3737C61.2395 21.3556 60.9363 22.287 60.3119 23.0851C59.7535 23.7993 59.0372 24.191 58.1084 24.1104C57.1599 24.0269 56.2068 24.0056 55.2609 23.8908C54.9134 23.849 54.596 23.73 54.3512 23.4731C54.2126 23.3278 54.0919 23.3198 53.9002 23.38C52.5165 23.8152 51.1345 24.257 49.7588 24.7164C46.3759 25.8478 42.9983 26.9968 39.6618 28.2618C39.3971 28.3666 39.1271 28.4572 38.8528 28.5333C38.6828 28.5776 38.6064 28.6691 38.5458 28.8257C38.2171 29.666 37.7849 30.4478 37.1747 31.119C36.5307 31.829 35.7797 32.3719 34.8108 32.544C34.3902 32.6191 33.9659 32.6008 33.542 32.5766C32.4726 32.5207 31.4095 32.3789 30.3629 32.1526C29.9101 32.0532 29.4837 31.8908 29.1028 31.6256C29.0425 31.581 28.9734 31.5497 28.9001 31.5337C28.8269 31.5177 28.751 31.5174 28.6776 31.5328C26.3516 31.9196 23.9936 32.0807 21.6365 32.014C19.5216 31.958 17.4204 31.7392 15.3259 31.4472C13.1074 31.1378 10.9147 30.7034 8.76884 30.0581C7.57187 29.6981 6.37949 29.3218 5.27564 28.7179C4.85382 28.4874 4.45413 28.2238 4.10999 27.8826C3.76585 27.5414 3.54993 27.1308 3.49772 26.638C3.47893 26.4589 3.45345 26.2793 3.42046 26.1018C3.35948 25.776 3.3741 25.4653 3.57248 25.1829C3.61968 25.1157 3.61425 25.0405 3.60882 24.9624C3.52028 23.631 3.47099 22.2974 3.42088 20.9643C3.40626 20.5709 3.44928 20.1837 3.62594 19.8275C3.96006 19.1542 4.20104 18.445 4.46959 17.7455C4.82793 16.8125 5.38841 16.0365 6.31224 15.5737C6.42373 15.5167 6.52562 15.4426 6.6142 15.3541C7.82162 14.1525 9.29758 13.4237 10.9005 12.9196C11.5359 12.7165 12.1868 12.5655 12.8467 12.4681C13.4661 12.3795 14.0709 12.2087 14.6451 11.9602C15.3656 11.6495 16.1031 11.381 16.8123 11.0435C16.9919 10.954 17.1635 10.8492 17.3252 10.7303Z" fill="#060606"/>
<path d="M9.4629 15.2954C10.1199 14.821 10.7722 14.3415 11.4818 13.9435C12.4424 13.4055 13.4393 12.9524 14.4517 12.5268C15.2252 12.2019 15.9991 11.8775 16.7734 11.5537C16.8126 11.4936 16.8611 11.5195 16.8987 11.5504C17.3823 11.9747 17.9954 12.0774 18.5889 12.2123C19.755 12.478 20.9277 12.7181 22.113 12.8785C23.2561 13.0334 24.4 13.1788 25.549 13.2832C26.4615 13.3667 27.3733 13.4502 28.2896 13.4958C29.018 13.5309 29.7455 13.5793 30.4751 13.5701C30.9128 13.5651 31.348 13.6286 31.787 13.6119C32.497 13.5876 33.2036 13.5759 33.9119 13.5563C34.3404 13.5442 34.7727 13.543 35.2012 13.4891C35.3019 13.4761 35.4693 13.4419 35.4906 13.5643C35.5078 13.6641 35.3386 13.6808 35.2438 13.71C34.3985 13.9723 33.5315 14.136 32.6632 14.3022C31.0636 14.6101 29.4765 14.968 27.9045 15.3919C26.7827 15.6947 25.6747 16.0397 24.5859 16.4452C23.4318 16.873 22.3088 17.3802 21.2247 17.9629C20.257 18.4846 19.3453 19.0935 18.6866 19.5249C19.5491 18.9168 20.7427 18.272 21.9743 17.6906C23.0867 17.1642 24.2261 16.6969 25.3878 16.2907C26.9331 15.7506 28.5147 15.3447 30.1005 14.95C31.3367 14.6426 32.598 14.466 33.8414 14.1982C34.6457 14.0241 35.4284 13.7915 36.1802 13.4527C36.9319 13.114 37.5242 12.5757 38.0358 11.9379C39.1164 10.5942 40.2301 9.27975 41.377 7.99452C42.0506 7.24275 42.7602 6.52733 43.5742 5.92592C44.4658 5.26499 45.487 4.79987 46.5708 4.56104C47.2637 4.40652 47.9628 4.2925 48.6758 4.31046C49.1435 4.3234 49.613 4.3351 50.0761 4.4132C50.2286 4.43867 50.371 4.50758 50.5222 4.53849C51.3069 4.74731 52.08 4.99205 52.8267 5.31656C54.3056 5.95974 55.6893 6.7608 56.9397 7.78361C57.6685 8.3796 58.4274 8.92045 59.3203 9.25415C59.6911 9.39657 60.035 9.60091 60.3373 9.85847C60.4551 9.95703 60.5637 10.0631 60.6296 10.2055C60.7061 10.3797 60.5845 10.4281 60.4592 10.4641C60.0132 10.5923 59.5788 10.7564 59.1349 10.8901C58.7369 11.0095 58.3501 11.162 57.9542 11.2864C57.8347 11.324 57.7161 11.3645 57.5892 11.3282C57.5299 11.3069 57.509 11.2543 57.4889 11.2029C57.4233 11.0411 57.326 10.894 57.2028 10.7702C56.8044 10.3525 56.436 9.90859 55.9796 9.54941C55.7666 9.38236 55.7707 9.34853 55.9332 9.123C56.1973 8.76742 56.3179 8.32551 56.2711 7.88509C56.2627 7.77377 56.2291 7.66582 56.1728 7.56943C56.1165 7.47303 56.039 7.39074 55.9461 7.32879C55.6425 7.11454 55.3013 6.97505 54.9714 6.81175C53.6395 6.15228 52.2696 5.60058 50.7999 5.32619C49.5971 5.10316 48.3938 5.08395 47.201 5.38298C45.8261 5.72712 44.6187 6.39702 43.547 7.31584C42.3279 8.35996 41.3632 9.62543 40.4594 10.9398C39.6788 12.0818 38.9662 13.2689 38.3252 14.4948C38.2951 14.557 38.2505 14.6112 38.1951 14.6526C38.1397 14.694 38.0752 14.7215 38.007 14.7328C37.0614 14.9325 36.1175 15.1421 35.1841 15.3927C33.7106 15.7882 32.2731 16.2856 30.9086 16.9756C30.3686 17.2487 29.8578 17.5741 29.3471 17.8982C29.2123 17.9854 29.0539 18.0291 28.8935 18.0235C27.9347 18.0092 26.9762 18.0678 26.0263 18.1989C25.3095 18.2971 24.6019 18.4535 23.9106 18.6667C22.4379 19.1148 21.0781 19.8106 19.7341 20.544C18.6841 21.117 17.6325 21.6854 16.4664 22.0011C16.1812 22.0784 15.9348 22.0939 15.6512 21.9514C14.1476 21.1955 12.5188 20.863 10.8712 20.6129C9.56564 20.4145 8.25464 20.2466 6.9662 19.9513C6.66216 19.8816 6.41449 19.9375 6.16098 20.1054C5.80805 20.3408 5.48188 20.6141 5.18828 20.9203C5.05422 21.0594 4.99324 21.2385 4.8905 21.3943C4.7627 21.4695 4.64534 21.4173 4.54302 21.3467C4.27089 21.1581 4.0335 20.9238 3.84137 20.6542C3.78206 20.5707 3.75032 20.4847 3.78207 20.3832C3.9411 19.8427 4.18666 19.3316 4.50919 18.8696C4.60441 19.1833 4.64701 19.4719 4.78609 19.7291C5.01705 20.1572 5.32109 20.1856 5.62138 19.7964C5.89494 19.4418 6.0194 19.0208 6.12256 18.5944C6.3176 17.7775 6.40155 16.9384 6.61914 16.1253C6.64582 16.0117 6.70368 15.9078 6.7862 15.8254C7.99737 14.618 9.46248 13.8625 11.0834 13.3801C11.5206 13.2498 11.9579 13.1182 12.4198 13.0627C12.0795 13.2544 11.7332 13.4364 11.3995 13.639C10.7171 14.0541 10.0576 14.5027 9.46791 15.0456C9.44369 15.1517 9.34679 15.173 9.26911 15.2169L9.26368 15.2215C9.22986 15.2902 9.1819 15.351 9.12293 15.3998C8.37117 16.1161 7.733 16.9221 7.33833 17.6768C7.6879 16.9142 8.43214 16.2334 9.14674 15.5285C9.23805 15.4333 9.34498 15.3545 9.4629 15.2954Z" fill="#FDAF3E"/>
<path d="M17.0562 11.4571C18.3091 10.5972 19.4681 9.60692 20.7064 8.72443C22.2517 7.62268 23.8563 6.62076 25.5732 5.80468C25.9425 5.62675 26.3369 5.50673 26.7426 5.44884C26.9431 5.35362 27.1628 5.35905 27.3741 5.35236C28.6037 5.3106 29.8345 5.28596 31.0644 5.3106C31.9461 5.32689 32.8273 5.36865 33.7077 5.42378C35.248 5.51984 36.7833 5.66894 38.314 5.85772C39.6325 6.01977 40.9485 6.20144 42.2448 6.50006C42.2653 6.50465 42.2866 6.50966 42.3054 6.51508C42.5631 6.58608 42.5819 6.64956 42.4015 6.84251C42.102 7.16243 41.7721 7.45103 41.4684 7.76719C40.3738 8.90611 39.3668 10.1202 38.3699 11.3435C37.9356 11.8768 37.4862 12.3972 36.9499 12.8357C36.5323 13.1753 36.0532 13.3307 35.5337 13.3904C34.3171 13.5247 33.092 13.5651 31.8692 13.5111C31.1058 13.481 30.3411 13.5065 29.578 13.4413C28.5891 13.3578 27.5971 13.3006 26.6065 13.2413C24.6043 13.1218 22.6246 12.8333 20.6475 12.52C19.7888 12.3839 18.9351 12.2185 18.0978 11.98C17.8167 11.9 17.5419 11.7997 17.2754 11.6797C17.1769 11.6329 17.0607 11.5974 17.0562 11.4571Z" fill="url(#paint0_linear_9501_130)"/>
<path d="M3.78189 20.3818C3.76643 20.4992 3.84913 20.5752 3.90927 20.6546C4.10518 20.9242 4.34929 21.1553 4.62929 21.3361C4.70153 21.3799 4.78649 21.3979 4.87027 21.3871C4.9513 21.4564 4.9325 21.5542 4.93292 21.6377C4.93668 22.7711 5.06738 23.9005 5.32258 25.0048C5.43113 25.4728 5.57537 25.9319 5.75401 26.378C5.90004 26.7519 6.18411 27.0554 6.54754 27.2258C7.27508 27.5858 8.04648 27.8176 8.82664 28.026C10.1716 28.3811 11.536 28.6582 12.9129 28.8559C13.6889 28.9695 14.4653 29.0827 15.2546 29.0918C15.9742 29.0998 16.5602 28.8216 17.0305 28.3113C17.558 27.7391 18.0479 27.1318 18.4371 26.4527C18.6042 26.1633 18.7629 25.868 18.8598 25.5473C18.9354 25.2967 18.9521 25.0436 18.8685 24.7884C18.846 24.7203 18.8042 24.6443 18.8736 24.5746C18.9366 24.5433 19.0093 24.5375 19.0765 24.5583C19.5255 24.6677 19.9736 24.6093 20.4226 24.5583C21.8844 24.3912 23.3273 24.0909 24.7749 23.8303C26.0867 23.5939 27.3898 23.3129 28.7008 23.0698C29.2554 22.9666 29.255 22.9621 29.369 23.5134C29.4418 23.8739 29.4778 24.241 29.4763 24.6088C29.4763 25.1518 29.4809 25.6918 29.4726 26.2335C29.4667 26.3167 29.4764 26.4002 29.501 26.4799C29.5235 26.7572 29.4505 27.0262 29.4225 27.2989C29.3911 27.6063 29.3511 27.9128 29.3343 28.2219C29.3055 28.4796 29.2792 28.7377 29.2679 28.9966C29.2638 29.0989 29.2679 29.2055 29.1685 29.2727C28.1871 29.4991 27.1939 29.6644 26.1978 29.8106C23.8736 30.1523 21.536 30.2567 19.1905 30.1777C17.9898 30.136 16.792 30.0382 15.5963 29.9104C13.8468 29.7229 12.1123 29.4548 10.3991 29.058C8.52635 28.6245 6.70207 28.0481 4.99682 27.1398C4.69391 26.984 4.40821 26.7968 4.1444 26.5814C3.81279 26.3032 3.68082 25.9691 3.79901 25.5456C3.85289 25.3522 3.90509 25.1584 3.96607 24.935C4.20454 25.2198 4.43049 25.4863 4.68901 25.7214C4.73883 25.7699 4.7911 25.8158 4.84563 25.8588C4.91162 25.9073 4.98554 25.9737 5.06991 25.9131C5.15427 25.8526 5.09914 25.7665 5.07534 25.7014C4.92958 25.3025 4.85106 24.8853 4.73412 24.4785C4.53866 23.7961 4.31982 23.1249 3.91929 22.5269C3.77771 22.3147 3.74012 22.0629 3.72759 21.8098C3.7042 21.3324 3.68457 20.8546 3.78189 20.3818Z" fill="#FDAF3E"/>
<path d="M18.8579 24.6027C19.0668 25.0203 18.9991 25.4288 18.8162 25.8281C18.3243 26.9046 17.613 27.8667 16.7279 28.6526C16.3596 28.9817 15.9085 29.1383 15.4099 29.1475C14.4956 29.1646 13.5956 29.0222 12.6972 28.8848C11.1519 28.6467 9.62168 28.336 8.12192 27.8904C7.55537 27.726 7.00411 27.5129 6.4743 27.2535C5.9372 26.9862 5.71669 26.5071 5.54211 25.9838C5.04469 24.492 4.87388 22.953 4.87012 21.3897C4.90436 21.1897 5.01504 21.031 5.14827 20.886C5.51079 20.4909 5.93594 20.1582 6.40664 19.9012C6.50869 19.8398 6.6307 19.8208 6.7466 19.8482C8.19542 20.1932 9.67431 20.3627 11.1419 20.5999C12.6196 20.838 14.0784 21.1475 15.4458 21.7865C15.4525 21.7887 15.4589 21.7917 15.465 21.7953C15.873 22.1152 16.2953 22.0087 16.7388 21.8683C17.8063 21.5305 18.7819 21.0009 19.7576 20.4688C21.3154 19.6185 22.8999 18.8325 24.639 18.4102C26.0469 18.0686 27.479 17.9692 28.9216 17.9688C29.0494 17.9688 29.1655 17.9571 29.277 17.8819C31.379 16.4673 33.7308 15.6684 36.1723 15.0904C36.7875 14.9454 37.4056 14.8135 38.0233 14.6794C38.1307 14.656 38.2075 14.6197 38.2635 14.5123C39.2182 12.6789 40.31 10.931 41.5942 9.30969C42.5807 8.06552 43.6904 6.95835 45.0912 6.17108C46.8691 5.17207 48.7569 4.89475 50.752 5.26103C52.2346 5.53334 53.6183 6.0838 54.9623 6.74702C55.2546 6.89111 55.5499 7.03019 55.8351 7.18973C56.2369 7.41442 56.3919 7.74729 56.3417 8.19543C56.2933 8.62936 56.1413 9.01567 55.828 9.34979C56.3384 9.76242 56.7836 10.2344 57.2234 10.7117C57.3842 10.8859 57.532 11.068 57.5826 11.3081C57.7459 11.4092 57.6845 11.5704 57.6724 11.7045C57.6365 12.1059 57.5638 12.5026 57.4915 12.8989C57.3065 13.9101 57.0906 14.9153 56.8592 15.9164C56.6387 16.8695 56.4253 17.8268 56.0866 18.7489C56.0339 18.8848 55.9702 19.0161 55.8961 19.1415C55.5933 19.9643 55.0972 20.6734 54.5722 21.3859C55.1151 21.2502 55.6401 21.0936 56.1559 20.9094C56.2958 20.8597 56.3409 20.7582 56.358 20.6242C56.4193 20.1912 56.4509 19.7546 56.4524 19.3174C56.451 19.2751 56.4556 19.2329 56.4662 19.1921C56.5268 18.9929 56.5604 18.7866 56.566 18.5785C56.5844 18.1609 56.6913 17.7574 56.7669 17.3482C56.7773 17.2901 56.7878 17.2208 56.8697 17.2103C56.8964 17.4759 56.8279 17.7462 56.9093 18.0089C56.9607 18.0611 56.9465 18.125 56.9356 18.1847C56.8688 18.5656 56.807 18.9465 56.8028 19.3345C56.8021 19.376 56.7892 19.4164 56.7657 19.4506C56.7574 19.4604 56.7458 19.4668 56.7331 19.4685C56.7026 19.4723 56.6984 19.4418 56.6809 19.4268C56.6934 19.4505 56.7093 19.4723 56.7281 19.4915C56.7411 19.5142 56.746 19.5406 56.7422 19.5664C56.7383 19.5923 56.7258 19.6161 56.7068 19.6339C56.6195 19.7175 56.6855 19.8323 56.6454 19.9292C56.6053 20.0261 56.7018 20.1602 56.5234 20.2216C56.4858 20.2349 56.4624 20.4968 56.4837 20.5824C56.5343 20.7862 56.4608 20.9082 56.3564 21.046C56.3411 21.0767 56.3311 21.1097 56.3267 21.1437C56.0891 21.315 55.8042 21.3651 55.5332 21.4415C54.2886 21.7911 53.0641 22.2025 51.8416 22.6213C50.8163 22.9726 49.7951 23.3314 48.7719 23.6914C46.9501 24.3334 45.1264 24.9709 43.3007 25.6038C42.3167 25.9467 41.3349 26.2954 40.3513 26.6391C40.2807 26.6638 40.2081 26.7043 40.1375 26.6391C40.064 26.5376 39.8785 26.7109 39.8422 26.5184L39.8581 26.4917C40.0761 26.3664 40.3175 26.3008 40.5539 26.2177C40.9009 26.0949 41.2547 25.9909 41.598 25.8602C41.7233 25.813 41.7475 25.7767 41.6569 25.6597C41.4536 25.4029 41.2936 25.1145 41.1833 24.8061C41.134 24.4168 41.1904 24.0288 41.2154 23.6429C41.2685 22.8256 41.3407 22.0095 41.3679 21.1905C41.3821 20.767 41.4046 20.3443 41.4071 19.9204C41.4117 19.0935 41.3992 18.2674 41.3273 17.4434C41.23 16.7296 40.9619 16.0777 40.6056 15.4583C40.4532 15.1931 40.2916 14.9333 40.1174 14.6815C40.0339 14.5633 39.9399 14.5236 39.7975 14.5562C38.1775 14.9241 36.5461 15.2428 34.9461 15.6976C33.6994 16.0518 32.482 16.4882 31.3193 17.0587C30.7759 17.3298 30.2504 17.6353 29.746 17.9734C29.9841 17.9871 30.2184 18.0101 30.4531 18.0318C30.6607 18.0509 30.8669 18.0836 31.0704 18.1296C31.2909 18.1797 31.3209 18.2548 31.1956 18.452C30.9108 18.897 30.596 19.3222 30.2534 19.7246C29.7276 20.3567 29.0893 20.886 28.3707 21.2857C27.5408 21.7451 26.6437 22.0091 25.7182 22.1916C24.7705 22.38 23.8128 22.5146 22.8498 22.5946C21.8404 22.6782 20.8292 22.7487 19.8156 22.6126C19.1762 22.527 18.6621 22.2321 18.2348 21.7656C18.1621 21.6862 18.0962 21.6345 17.9842 21.6779C17.4655 21.8796 16.9376 22.0538 16.4064 22.2188C16.3922 22.2229 16.3851 22.2363 16.3788 22.2743C16.6682 22.5107 16.9677 22.7558 17.2559 23.0106C17.747 23.4412 18.2336 23.8768 18.6926 24.3421C18.7698 24.416 18.8479 24.4891 18.8579 24.6027Z" fill="#06080F"/>
<path d="M27.5886 4.95576C28.2748 4.73441 28.9577 4.5026 29.6581 4.32636C31.3111 3.90871 32.9896 3.64853 34.6853 3.48439C36.7738 3.27775 38.8731 3.19908 40.9713 3.24884C43.1192 3.30438 45.2534 3.51946 47.3767 3.84773C47.6436 3.8895 47.9126 3.91874 48.1807 3.95382C48.316 3.96551 48.4547 3.94505 48.5846 4.00144C48.6263 4.02065 48.6898 4.03735 48.6894 4.08788C48.6894 4.15721 48.618 4.16891 48.5641 4.1685C48.3164 4.1685 48.0721 4.21736 47.8248 4.2207C47.7973 4.22263 47.7702 4.22898 47.7447 4.2395C47.697 4.25114 47.648 4.25703 47.5989 4.25704C46.9226 4.34045 46.2585 4.5029 45.6201 4.74109C44.7263 5.06978 43.9462 5.58598 43.2236 6.1899C42.9313 6.43339 42.6703 6.51525 42.2827 6.40833C41.3104 6.13978 40.3035 6.03914 39.3074 5.8867C38.1797 5.71421 37.0462 5.60269 35.9131 5.48616C35.1269 5.40514 34.3381 5.34277 33.5468 5.29906C32.8464 5.2598 32.1456 5.23893 31.4452 5.21053C30.9381 5.19007 30.4307 5.16499 29.9249 5.1842C28.9819 5.2197 28.0367 5.22598 27.0966 5.3212C27.0177 5.32872 26.9133 5.38217 26.8778 5.24769H26.8711C27.0801 5.08837 27.3278 4.98761 27.5886 4.95576Z" fill="#FDAF3E"/>
<path d="M3.90137 26.7295C5.04614 27.7156 6.39221 28.2004 7.7575 28.6352C9.24098 29.1076 10.7621 29.4342 12.2927 29.7094C13.4733 29.9221 14.6618 30.0839 15.8582 30.1947C17.2225 30.3214 18.5886 30.3925 19.9565 30.4081C21.0884 30.4227 22.2206 30.4198 23.3495 30.343C24.5264 30.2628 25.7 30.1437 26.8669 29.9554C27.8881 29.7913 28.9013 29.5933 29.9053 29.3486C30.0131 29.3222 30.0406 29.3486 30.0406 29.4513C30.0406 29.7988 30.0406 30.1467 30.0502 30.4954C30.0544 30.6382 29.9713 30.6892 29.8594 30.7293C29.4655 30.8709 29.0533 30.9381 28.6457 31.0216C27.1238 31.3269 25.5822 31.4426 24.0328 31.4982C22.9126 31.5385 21.7942 31.5284 20.6774 31.4677C19.229 31.3875 17.7848 31.2505 16.3447 31.0701C14.7819 30.8746 13.227 30.6324 11.6834 30.3183C9.9326 29.9612 8.20188 29.5302 6.54632 28.8457C5.75739 28.5195 4.97555 28.1641 4.36245 27.5376C4.13969 27.314 3.98054 27.0351 3.90137 26.7295Z" fill="#FDAF3E"/>
<path d="M38.8922 25.4332C38.8789 27.0386 38.371 28.7326 37.2609 30.2257C36.6967 30.9854 36.0159 31.6018 35.0921 31.9063C34.1515 32.2166 33.3283 32.0023 32.6071 31.355C31.8344 30.6613 31.3775 29.7729 31.0814 28.7944C30.7956 27.8496 30.6715 26.8633 30.7143 25.8771C30.7431 25.1797 30.9373 24.5127 31.1678 23.8557C31.5383 22.8012 32.0274 21.8092 32.7156 20.9238C33.1011 20.4277 33.533 19.9687 34.1102 19.6951C34.9651 19.2896 35.8016 19.3831 36.5814 19.8964C37.6577 20.6064 38.252 21.6505 38.5894 22.8617C38.8003 23.6227 38.891 24.3995 38.8922 25.4332Z" fill="#FDAF3E"/>
<path d="M26.8787 5.24706C27.0003 5.3168 27.1247 5.25583 27.2446 5.24706C29.1399 5.09796 31.0364 5.09963 32.9334 5.19987C34.8495 5.30094 36.7569 5.49223 38.6597 5.73655C39.8037 5.88273 40.9426 6.06064 42.0744 6.27949C42.2452 6.30878 42.4129 6.35351 42.5756 6.41312C42.7142 6.46742 42.8057 6.43192 42.9122 6.34589C43.6197 5.77246 44.3414 5.21824 45.1842 4.85113C45.9589 4.51367 46.7612 4.27771 47.6066 4.20086C47.5389 4.29024 47.5389 4.29023 47.465 4.32281C47.6187 4.21882 47.83 4.23427 48.0434 4.24346C47.9327 4.2184 47.8133 4.28523 47.7177 4.19042C48.023 4.12234 48.3345 4.1307 48.6661 4.10689C48.5066 4.00373 48.3241 4.03422 48.1791 3.95194C48.3124 3.92939 48.3988 3.77695 48.5588 3.82163C48.6423 3.8446 48.7258 3.85086 48.7329 3.96196C48.7359 4.01333 48.7697 4.03965 48.7989 4.07807C48.9205 4.2372 49.0103 4.32198 49.2667 4.27897C49.572 4.22843 49.9065 4.34328 50.2273 4.39757C50.3346 4.41553 50.4211 4.50699 50.5535 4.45938C50.5932 4.44518 50.5188 4.50533 50.5255 4.53916C49.9826 4.46022 49.4455 4.35413 48.8921 4.35705C47.0269 4.36791 45.2824 4.78474 43.74 5.87897C42.8446 6.51421 42.0869 7.29897 41.3552 8.11088C40.2242 9.36382 39.1339 10.6522 38.0842 11.9762C37.3216 12.9393 36.3368 13.5394 35.1807 13.9032C34.1295 14.234 33.0474 14.4173 31.9682 14.6132C30.3118 14.9152 28.6876 15.3453 27.0721 15.811C24.6415 16.5143 22.298 17.4897 20.0861 18.7187C19.5156 19.0344 18.9765 19.4061 18.4227 19.7511C18.3668 19.7869 18.3054 19.8132 18.241 19.8288C18.398 19.6488 18.5956 19.5235 18.786 19.3911C21.2635 17.6687 23.9828 16.4676 26.8704 15.6222C29.1002 14.9682 31.3693 14.4908 33.6459 14.0427C34.2573 13.9224 34.8667 13.7863 35.4355 13.5904C35.0788 13.5904 34.7046 13.5766 34.3317 13.5929C31.8718 13.7022 29.4076 13.6594 26.9531 13.4647C24.9438 13.3043 22.9399 13.0909 20.9523 12.7484C19.8665 12.5609 18.7806 12.35 17.7172 12.0422C17.4023 11.9511 17.1 11.8263 16.8682 11.579C16.8555 11.5673 16.8403 11.5588 16.8238 11.554C16.8073 11.5492 16.7899 11.5483 16.7729 11.5514C16.7938 11.4855 16.8302 11.432 16.9007 11.4896C16.9713 11.5473 17.0064 11.4742 17.0557 11.455C17.168 11.612 17.3501 11.6517 17.5151 11.7143C18.2836 12.0092 19.088 12.1708 19.8932 12.3228C21.8883 12.6987 23.9026 12.9405 25.9207 13.1464C26.908 13.2471 27.9037 13.2717 28.8956 13.3285C30.5127 13.4242 32.1311 13.4751 33.7507 13.4417C34.3354 13.43 34.9164 13.3883 35.4981 13.3327C36.1785 13.2676 36.7444 12.9882 37.2305 12.5129C37.8633 11.8939 38.4029 11.1956 38.965 10.5161C40.0768 9.17294 41.2111 7.84984 42.5188 6.64577C42.2014 6.533 41.8923 6.47871 41.5858 6.41857C39.7005 6.05563 37.7956 5.83928 35.8861 5.6551C33.9767 5.47092 32.0751 5.36525 30.1623 5.36275C29.0217 5.36024 27.8832 5.40745 26.7438 5.44838C26.7522 5.35691 26.7459 5.25499 26.8787 5.24706Z" fill="#06090C"/>
<path d="M29.168 29.2726C29.1958 28.9941 29.2237 28.7168 29.2515 28.4406C29.2586 28.3675 29.2294 28.2886 29.2857 28.2234C29.3751 27.6479 29.4303 27.0678 29.4908 26.4894C29.5363 26.06 29.652 25.6482 29.7326 25.2276C29.8441 24.6463 30.0442 24.0933 30.2551 23.5416C30.6013 22.6361 31.0039 21.7582 31.5402 20.9522C32.2736 19.8496 33.169 18.9166 34.3952 18.3411C35.6482 17.753 37.2081 18.0237 38.2297 18.9918C39.0771 19.7953 39.5373 20.7922 39.7749 21.909C40.0865 23.3687 40.0932 24.83 39.7553 26.2885C39.7073 26.4973 39.6087 26.6614 39.3966 26.7374C39.2044 26.8068 39.0963 26.7299 39.1414 26.5357C39.2418 26.0985 39.3127 25.6551 39.3535 25.2084C39.4041 24.6592 39.4333 24.1033 39.3498 23.552C39.3306 23.4076 39.3211 23.2621 39.3214 23.1164C39.3147 22.7301 39.1806 22.3726 39.0959 22.0034C38.9768 21.4855 38.7333 21.0198 38.5153 20.5416C37.8609 19.495 36.9851 18.8051 35.6862 18.8493C34.916 18.8756 34.2566 19.2202 33.6514 19.6704C32.9802 20.1691 32.4523 20.8018 32.0096 21.5047C31.4395 22.4094 31.0428 23.3917 30.7525 24.4178C30.4368 25.5338 30.2564 26.6769 30.096 27.8229C30.0438 28.1934 30.0267 28.5688 30.0033 28.9426C29.9966 29.0475 29.9719 29.1138 29.8617 29.1347C29.6295 29.1794 29.3989 29.2266 29.168 29.2726Z" fill="#FDAF3E"/>
<path d="M55.8364 19.1377C56.1985 18.4799 56.343 17.7482 56.5268 17.0336C56.7356 16.2167 56.9165 15.3914 57.094 14.5666C57.2969 13.621 57.4945 12.6734 57.6169 11.7128C57.634 11.5779 57.6507 11.4359 57.583 11.3048C57.9493 11.2789 58.2734 11.111 58.615 11.0007C59.2276 10.8033 59.8401 10.6062 60.4527 10.4093C60.5529 10.3768 60.6582 10.3521 60.6306 10.208C61.0035 10.6795 61.1318 11.2546 61.2871 11.8122C61.6061 12.9474 61.8146 14.1108 61.9098 15.2862C61.99 16.2501 61.9788 17.2132 61.7971 18.168C61.7795 18.2607 61.7649 18.3576 61.6826 18.4482C61.6488 18.1299 61.7077 17.8322 61.7081 17.5331C61.7081 16.9421 61.6714 16.3554 61.5469 15.7757C61.5335 15.6939 61.5076 15.6148 61.4701 15.5409C61.3197 15.2235 61.2408 14.8765 61.0616 14.5703C60.8269 14.169 60.5521 13.8056 60.1198 13.601C59.391 13.2556 58.6773 13.408 58.1481 14.0228C57.852 14.3665 57.6089 14.7428 57.4565 15.1763C57.3729 15.4148 57.2748 15.6495 57.17 15.8801C57.0493 16.3182 56.9114 16.7525 56.868 17.2082C56.7519 17.6881 56.6487 18.1688 56.6203 18.6649C56.6095 18.8566 56.6024 19.0488 56.5026 19.2212C56.3522 19.2004 56.2004 19.1911 56.0486 19.1937C55.9755 19.1924 55.8978 19.1954 55.8364 19.1377Z" fill="#FDAF3E"/>
<path d="M40.1385 26.6395C40.6814 26.4557 41.2298 26.2766 41.7723 26.0874C43.1013 25.6232 44.4294 25.157 45.7567 24.6887C47.6745 24.0159 49.5907 23.3376 51.5114 22.6731C52.9732 22.1678 54.4416 21.6808 55.9335 21.2694C56.0667 21.2327 56.1799 21.1353 56.3269 21.1441C56.494 21.5772 56.3031 22.0099 55.87 22.1615C54.3748 22.6836 52.8629 23.1584 51.3594 23.6454C50.1315 24.0422 48.9091 24.4561 47.6875 24.8724C46.163 25.392 44.6407 25.9175 43.1205 26.4491C41.7514 26.9288 40.3853 27.4173 39.0221 27.9146C38.8551 27.9751 38.8225 27.938 38.8551 27.7818C38.858 27.7684 38.8617 27.755 38.8647 27.74C39.0071 27.0417 39.0075 27.0425 39.6954 26.8045C39.8436 26.7556 39.9902 26.6955 40.1385 26.6395Z" fill="#FDAF3E"/>
<path d="M56.7068 19.4699C56.787 19.246 56.7394 19.0105 56.7778 18.7782C56.8196 18.5214 56.8613 18.2637 56.909 18.0073C57.1595 17.0563 57.5221 16.16 58.2659 15.4813C58.6105 15.1669 59.0264 14.9689 59.5222 15.0875C59.893 15.1765 60.1862 15.3844 60.4222 15.6806C60.9292 16.3166 61.118 17.0642 61.2187 17.8523C61.3445 18.8287 61.2985 19.8195 61.0829 20.78C60.8791 21.693 60.5087 22.53 59.83 23.1995C59.5648 23.4613 59.2541 23.6589 58.8652 23.6827C58.3223 23.7136 57.941 23.4208 57.6327 23.0253C57.1692 22.4306 56.9708 21.7239 56.8309 20.9972C56.744 20.5474 56.7344 20.0901 56.7056 19.6348V19.4703L56.7068 19.4699Z" fill="#FDAF3E"/>
<path d="M38.5146 20.5436C38.7389 20.8397 38.8822 21.1789 39.0016 21.5247C39.3879 22.6431 39.4928 23.795 39.3984 24.9723C39.3579 25.4909 39.2882 26.0069 39.1896 26.5176C39.177 26.5824 39.1411 26.665 39.2067 26.7118C39.2593 26.7498 39.3253 26.7035 39.385 26.6859C39.5642 26.6333 39.6423 26.5143 39.6866 26.3326C39.9789 25.1294 40.0027 23.9161 39.8536 22.6941C39.7521 21.8688 39.5492 21.0703 39.1662 20.3306C38.6926 19.4156 38.0126 18.6943 37.0387 18.3109C35.9085 17.8669 34.8427 18.0912 33.8378 18.7072C32.8643 19.3045 32.1343 20.1418 31.5241 21.0928C30.974 21.9494 30.5697 22.8741 30.2114 23.8246C30.0422 24.2814 29.8997 24.7476 29.7846 25.2208C29.7211 25.2288 29.7165 25.1791 29.701 25.1373C29.6877 25.0095 29.7249 24.8867 29.7545 24.7677C30.1492 23.161 30.7489 21.6458 31.7379 20.3018C32.3385 19.4853 33.0456 18.7799 33.9422 18.2996C35.3556 17.5432 36.738 17.5737 38.0557 18.5473C38.1784 18.6383 38.2954 18.7369 38.4207 18.8254C39.1349 19.4686 39.5379 20.2947 39.8281 21.1922C40.1819 22.286 40.2308 23.4112 40.1932 24.5459C40.1869 24.746 40.1472 24.9452 40.1489 25.1469C40.0854 25.5203 40.0361 25.8966 39.9534 26.267C39.9334 26.3552 39.9175 26.4433 39.8511 26.5114L39.8419 26.5197C39.7346 26.4613 39.6807 26.5385 39.6481 26.6129C39.5813 26.7636 39.4493 26.8217 39.3103 26.8568C39.1641 26.8948 39.1311 26.7382 39.048 26.6684C38.9941 26.6233 38.9883 26.5874 39.0668 26.5318C39.1336 26.4838 39.1303 26.371 39.142 26.2812C39.1804 25.9764 39.2255 25.6698 39.2781 25.3704C39.3562 24.913 39.3391 24.4607 39.337 24.0076C39.3345 23.5811 39.2606 23.1568 39.2422 22.7283C39.2331 22.5162 39.1636 22.3112 39.0417 22.1373C39.0124 22.0987 38.9929 22.0537 38.9847 22.0059C38.9764 21.9582 38.9798 21.9091 38.9945 21.863C39.0363 21.7235 38.9327 21.6203 38.8534 21.5188C38.8325 21.4925 38.7778 21.4699 38.7803 21.4511C38.8245 21.1258 38.5652 20.899 38.5113 20.6071C38.51 20.5859 38.5112 20.5646 38.5146 20.5436Z" fill="#06080F"/>
<path d="M6.36347 16.0918C6.27618 16.542 6.19641 16.9409 6.12207 17.3406C6.01097 17.9345 5.91784 18.5321 5.70901 19.1026C5.64857 19.2877 5.56253 19.4634 5.45341 19.6247C5.28301 19.8577 5.08421 19.8335 4.97354 19.5662C4.68787 18.8792 4.76263 18.2055 5.07168 17.549C5.35025 16.958 5.7796 16.4944 6.36347 16.0918Z" fill="#FDAF3E"/>
<path d="M61.1304 15.3388C60.8381 14.7541 60.4296 14.2842 59.7906 14.0829C59.2853 13.9238 58.8384 14.0942 58.4345 14.4133C58.1271 14.6563 57.8891 14.965 57.618 15.2419C57.5316 15.2331 57.5219 15.2277 57.5462 15.1847C57.8552 14.6346 58.072 14.0249 58.688 13.6949C59.3391 13.3462 59.885 13.4957 60.4041 13.9037C60.7967 14.2107 61.0256 14.6434 61.1906 15.107C61.2177 15.1834 61.2716 15.2924 61.1304 15.3388Z" fill="#FDAF3E"/>
<path d="M19.6361 8.96441C19.2057 9.31217 18.775 9.66021 18.3439 10.0085C18.2249 10.1046 18.0934 10.1869 17.9877 10.2959C17.8449 10.4454 17.6882 10.3999 17.5249 10.3681C17.4326 10.3502 17.4447 10.2875 17.4573 10.2249C17.4873 10.0745 17.5224 9.92207 17.616 9.79887C18.1172 9.13815 18.8464 8.98571 19.5977 8.88965L19.6361 8.96441Z" fill="#FDAF3E"/>
<path d="M61.1305 15.3379C61.1982 15.2912 61.1794 15.2222 61.1602 15.1675C60.9643 14.6129 60.6761 14.1234 60.1666 13.7951C59.4023 13.3036 58.6631 13.6047 58.1327 14.2462C57.8921 14.5386 57.8069 14.9199 57.5739 15.2168C57.5714 15.2201 57.5739 15.2348 57.5776 15.2356C57.5913 15.2388 57.6053 15.2406 57.6194 15.241C57.4431 15.3976 57.289 15.5655 57.2719 15.8195C57.2694 15.8612 57.2164 15.8754 57.1733 15.8796C57.3492 15.1963 57.6181 14.5603 58.0813 14.0144C58.8882 13.063 60.1278 13.2025 60.8298 14.1192C61.1539 14.5406 61.3874 15.0084 61.4734 15.5392C61.4379 15.5472 61.3861 15.5877 61.3841 15.5117C61.382 15.4357 61.3657 15.3701 61.2813 15.355C61.1844 15.3375 61.2437 15.4636 61.1706 15.4803C61.1042 15.4494 61.1389 15.3868 61.1305 15.3379Z" fill="#040A17"/>
<path d="M9.46269 15.2945C9.3115 15.4945 9.09892 15.6286 8.92183 15.8028C8.28409 16.4267 7.68268 17.0795 7.2738 17.8847C7.2487 17.9269 7.2208 17.9674 7.19027 18.0058C7.14851 17.9453 7.19027 17.9064 7.2099 17.8659C7.69312 16.8289 8.40813 15.9711 9.26096 15.2197C9.29646 15.3308 9.40463 15.2456 9.46269 15.2945Z" fill="#06111E"/>
<path d="M4.79602 25.4902C4.38923 25.0554 3.88053 24.6879 3.8584 24.0146C4.22426 24.4736 4.64524 24.8971 4.79602 25.4902Z" fill="#FDAF3E"/>
<path d="M3.80951 22.7344C4.11221 23.2233 4.32165 23.7641 4.42721 24.3294C4.0129 23.9029 3.75939 23.4105 3.80951 22.7344Z" fill="#FDAF3E"/>
<path d="M27.5894 4.95568L26.8726 5.24844C27.0127 4.99959 27.3535 4.85865 27.5894 4.95568Z" fill="#06090C"/>
<path d="M9.26709 15.2164C9.31984 15.1451 9.38786 15.0865 9.46616 15.0449C9.5151 15.236 9.3683 15.1997 9.26709 15.2164Z" fill="#06111E"/>
<path d="M38.3871 18.8421C38.2105 18.7749 38.0827 18.6333 37.9327 18.5289C36.6075 17.593 35.2489 17.6272 33.8774 18.4007C32.7706 19.0242 31.9708 19.961 31.3143 21.0264C30.5517 22.2643 30.0701 23.6158 29.7494 25.0266C29.744 25.0609 29.7413 25.0955 29.7414 25.1302C29.7038 25.56 29.5623 25.9714 29.5147 26.3994C29.5127 26.4167 29.5057 26.4329 29.4946 26.4462C29.4834 26.4595 29.4686 26.4692 29.452 26.4742C29.3898 26.4099 29.4153 26.3293 29.4148 26.2558C29.4148 25.6581 29.419 25.0605 29.4119 24.4632C29.4065 24.0134 29.3234 23.5728 29.2215 23.1355C29.2006 23.0457 29.1467 23.0608 29.0811 23.0729C28.3824 23.2024 27.6824 23.326 26.9858 23.4684C26.1087 23.6484 25.225 23.808 24.3433 23.9721C23.4483 24.1392 22.5546 24.3141 21.6558 24.4591C20.9404 24.5747 20.2228 24.6854 19.4936 24.6833C19.2765 24.6833 19.076 24.5818 18.858 24.6019C18.0486 23.7407 17.1552 22.9731 16.208 22.2109C16.7405 22.0626 17.2475 21.9214 17.7266 21.7097C18.0072 21.5844 18.1835 21.5844 18.4057 21.8467C18.8429 22.3621 19.4573 22.5391 20.118 22.5905C21.31 22.6836 22.494 22.588 23.6751 22.4481C24.7861 22.3165 25.8907 22.1511 26.9666 21.825C28.5399 21.348 29.7552 20.392 30.7045 19.0718C30.8586 18.858 31.0011 18.635 31.1589 18.4241C31.2675 18.2787 31.2554 18.2119 31.065 18.176C30.6747 18.1085 30.2807 18.0651 29.8851 18.0461C29.7966 18.0402 29.7076 18.0336 29.5786 18.0244C29.82 17.8189 30.0705 17.6944 30.3086 17.5524C31.909 16.5981 33.6452 15.9817 35.4369 15.5039C36.9074 15.1121 38.3997 14.8156 39.8827 14.4781C39.9742 14.4577 40.0377 14.4614 40.097 14.5462C40.7038 15.4116 41.2092 16.3225 41.3858 17.3829C41.3474 17.4764 41.2606 17.5082 41.177 17.5462C40.5702 17.854 39.9349 18.0987 39.3172 18.3815C39.1084 18.4742 38.9045 18.5775 38.7062 18.6909C38.6031 18.7494 38.5066 18.82 38.3871 18.8421Z" fill="#FDAF3E"/>
<path d="M20.7775 29.068C20.509 29.1478 20.23 29.0927 19.956 29.1382C19.3609 29.2376 18.7582 29.2142 18.1576 29.1879C18.0628 29.1837 18.011 29.182 18.077 29.0605C18.5832 28.1237 19.2464 27.3293 20.1845 26.8052C20.9358 26.392 21.7413 26.0863 22.5776 25.8968C22.8699 25.9001 23.1426 25.7916 23.4187 25.7164C24.059 25.5422 24.7021 25.3856 25.3562 25.2728C25.8156 25.2069 26.275 25.1204 26.7432 25.1263C27.028 25.13 27.0552 25.168 26.9967 25.4487C26.8251 26.2826 26.4715 27.0683 25.9613 27.7499C25.8386 27.917 25.679 28.0364 25.5174 28.1567C25.4627 28.1985 25.3921 28.2436 25.329 28.1822C25.266 28.1208 25.3198 28.0477 25.3583 27.9946C25.4927 27.8095 25.6254 27.6228 25.7563 27.4346C25.897 27.2325 26.0202 27.0274 26.0282 26.7701C26.0332 26.6223 26.148 26.5241 26.2186 26.4055C26.2892 26.2869 26.4383 26.1441 26.3581 26.015C26.2708 25.8738 26.077 25.944 25.9325 25.9691C25.0467 26.1223 24.1876 26.3809 23.3297 26.6427C23.0307 26.7342 22.735 26.839 22.436 26.9267C21.7569 27.1251 21.2165 27.5164 20.757 28.0398C20.5637 28.2599 20.3778 28.485 20.245 28.7468C20.1373 28.959 20.1669 28.9974 20.4 29.007C20.5269 29.0125 20.6643 28.9653 20.7775 29.068Z" fill="#FDAF3E"/>
<path d="M20.7772 29.0686C20.6176 29.0686 20.4581 29.0665 20.2981 29.0661C20.1014 29.0661 20.0638 29.011 20.1407 28.8272C20.2454 28.5928 20.3851 28.3756 20.555 28.1832C20.8774 27.8006 21.2286 27.4456 21.6638 27.1892C22.0368 26.9695 22.454 26.8551 22.8625 26.7247C23.7354 26.4499 24.612 26.1868 25.507 25.9901C25.7513 25.9367 25.9948 25.8828 26.2471 25.884C26.4459 25.884 26.4939 25.9463 26.43 26.1384C26.3744 26.2885 26.2915 26.4271 26.1857 26.5472C26.1314 26.6141 26.0754 26.6847 26.0759 26.7669C26.0759 27.2422 25.7254 27.5346 25.4974 27.8896C25.4249 27.9936 25.359 28.1019 25.2999 28.2141C25.5252 28.1162 25.7222 27.9629 25.8725 27.7685C26.4208 27.0585 26.77 26.2591 26.9583 25.3841C27.0001 25.1978 26.932 25.1774 26.7742 25.1774C26.2997 25.1774 25.8357 25.2718 25.3663 25.311C25.3556 25.3195 25.3427 25.3249 25.3291 25.3265C25.2873 25.3227 25.2134 25.3524 25.2038 25.2985C25.1896 25.212 25.2903 25.2692 25.322 25.23C25.7902 25.1047 26.2625 25.0015 26.747 24.9694C27.1647 24.9418 27.2428 25.032 27.168 25.4505C27.0389 26.1726 26.6781 26.7991 26.3561 27.4452C25.8933 28.3736 25.0476 28.62 24.1334 28.7704C23.0241 28.9529 21.9002 29.0076 20.7772 29.0686Z" fill="#06080B"/>
<path d="M25.3248 25.2285L25.2259 25.2983L25.3687 25.3096C25.0053 25.3856 24.6437 25.4712 24.2778 25.5351C23.7725 25.6232 23.2968 25.8241 22.7918 25.911C22.7175 25.9235 22.6452 25.9602 22.5771 25.8968C23.4386 25.6787 24.3002 25.461 25.162 25.2436C25.2158 25.2341 25.2702 25.2291 25.3248 25.2285Z" fill="#072041"/>
<path d="M29.452 26.4739C29.5355 26.0562 29.6202 25.6396 29.7059 25.2239C29.7151 25.1915 29.7271 25.1601 29.7418 25.1299C29.7556 25.1595 29.7698 25.1888 29.7836 25.2184C29.7105 25.6536 29.5936 26.0796 29.5284 26.5173C29.4633 26.955 29.4228 27.3944 29.371 27.8325C29.3526 27.9895 29.338 28.1478 29.3221 28.304C29.3146 28.2986 29.3 28.2935 29.2966 28.2844C29.2904 28.2645 29.2861 28.2441 29.2837 28.2234C29.2987 27.7051 29.3768 27.1931 29.4462 26.6806C29.4519 26.6118 29.4538 26.5428 29.452 26.4739Z" fill="#071F3D"/>
<path d="M41.3792 24.8505C41.2956 24.6789 41.3792 24.5093 41.4005 24.3435C41.5199 23.3587 41.5867 22.3714 41.613 21.3782C41.6389 20.4072 41.6924 19.437 41.6753 18.4655C41.6686 18.0784 41.626 17.6916 41.5997 17.3049C41.6807 17.2134 41.8022 17.2239 41.9041 17.1871C42.4592 16.9858 43.003 16.7561 43.5543 16.5456C44.8907 16.0352 46.2364 15.552 47.5912 15.096C47.8347 15.0124 48.0753 14.9247 48.3104 14.8203C48.4403 14.8228 48.5192 14.9197 48.6111 14.9874C48.8726 15.1878 49.152 15.2446 49.4706 15.1494C49.7438 15.068 50.0136 14.9823 50.2642 14.8416C50.6634 14.614 51.0113 14.3496 50.9274 13.8096C51.1362 13.8434 51.2849 13.7077 51.4524 13.625C51.4783 13.6528 51.4979 13.6858 51.5099 13.7218C51.5218 13.7579 51.5259 13.7961 51.5217 13.8338C51.4841 14.6796 51.4561 15.5261 51.3998 16.3702C51.3104 17.7029 51.026 19.0014 50.6898 20.2911C50.5895 20.6719 50.5695 21.0691 50.5323 21.4605C49.7805 21.7466 49.0325 22.0498 48.277 22.3342C46.6444 22.9498 45.0194 23.5871 43.3709 24.1581C42.8192 24.3489 42.2683 24.5431 41.7083 24.7077C41.588 24.7473 41.4911 24.815 41.3792 24.8505Z" fill="#FDAF3E"/>
<path d="M16.5086 27.062C14.8849 27.0553 13.2639 26.9297 11.6585 26.6861C10.4636 26.5103 9.28167 26.2743 8.13606 25.883C7.2519 25.5827 6.40617 25.2068 5.6945 24.5804C5.46437 24.3765 5.2898 24.1665 5.25597 23.8411C5.17954 23.1031 5.07095 22.3685 5.08181 21.6238C5.08473 21.4317 5.43597 20.893 5.60721 20.8178C5.6295 20.8075 5.65441 20.8042 5.6786 20.8085C5.70279 20.8127 5.7251 20.8243 5.74253 20.8416C6.53606 21.524 7.54426 21.6606 8.499 21.9233C8.75376 21.9934 8.89827 22.148 9.0386 22.3367C9.20858 22.5644 9.38232 22.7891 9.54729 23.0204C9.62622 23.1311 9.70558 23.1566 9.8267 23.0864C10.0844 22.9361 10.3508 22.8008 10.6056 22.6462C10.7727 22.5439 10.9351 22.5038 11.136 22.551C11.8736 22.7239 12.6279 22.7824 13.38 22.8488C13.8344 22.8906 14.2863 22.9507 14.7487 22.9035C15.1707 22.8673 15.5749 22.7171 15.9181 22.4687C16.0434 22.3773 16.1198 22.3593 16.2651 22.4788C16.9334 23.0296 17.6054 23.5792 18.2281 24.1848C18.3732 24.3239 18.5084 24.4729 18.6328 24.6309C18.9364 25.0243 18.7794 25.4219 18.6136 25.8087C18.4382 26.218 18.1796 26.5792 17.9207 26.9392C17.8501 27.0374 17.7641 27.0645 17.6538 27.0645C17.2729 27.0608 16.8908 27.062 16.5086 27.062Z" fill="url(#paint1_linear_9501_130)"/>
<path d="M50.6987 21.34C50.8173 20.4329 51.0746 19.5554 51.263 18.6629C51.4553 17.7268 51.5752 16.7774 51.6217 15.8229C51.6518 15.2415 51.7082 14.6614 51.7028 14.0788C51.7007 13.8583 51.6789 13.6382 51.6664 13.4177C51.7625 13.4874 51.8531 13.4949 51.9684 13.4398C52.5393 13.1671 53.1662 13.048 53.7467 12.7983C53.95 12.7102 54.1481 12.6108 54.3402 12.5005C54.4525 12.4362 54.4454 12.2704 54.5883 12.247C54.9617 12.6116 55.4236 12.6375 55.906 12.5974C56.1753 12.5748 56.4101 12.4596 56.6398 12.3255C56.9012 12.1731 57.0156 11.9496 56.9998 11.6519C56.9897 11.597 56.9998 11.5403 57.0282 11.4923C57.1535 11.4351 57.303 11.4205 57.3857 11.2881C57.4993 11.6456 57.4132 12.001 57.356 12.351C57.1196 13.7923 56.7901 15.2148 56.4372 16.631C56.2509 17.3828 56.0496 18.1346 55.7472 18.85C55.6992 18.9632 55.6403 19.0718 55.5865 19.1841C55.1554 19.304 54.7629 19.5182 54.3598 19.7024C53.281 20.1998 52.2181 20.7298 51.141 21.2314C51.007 21.2932 50.8708 21.4035 50.6987 21.34Z" fill="#FDAF3E"/>
<path d="M30.8721 18.4043C29.7695 20.1359 28.2868 21.3066 26.2592 21.7175C24.4817 22.0787 22.676 22.2839 20.8628 22.3306C20.278 22.3457 19.6933 22.3306 19.1504 22.0625C18.9094 21.9384 18.6918 21.7733 18.5072 21.5747C18.4521 21.5175 18.4112 21.4807 18.5168 21.4264C20.42 20.4404 22.3045 19.4138 24.3764 18.804C26.0103 18.3237 27.6808 18.2227 29.3681 18.2736C29.8713 18.2917 30.3733 18.3353 30.8721 18.4043Z" fill="#FDAF3E"/>
<path d="M48.319 14.8378C48.1895 15.0069 47.9807 15.0215 47.8036 15.0804C46.0575 15.6597 44.3372 16.3033 42.619 16.9636C42.2849 17.0922 41.9683 17.2785 41.5991 17.3056C41.3994 16.2686 40.9388 15.3523 40.3069 14.5149C40.2714 14.4677 40.2279 14.4159 40.324 14.3955C41.115 14.2284 41.8764 13.8943 42.71 13.9569C43.0145 13.9799 43.3194 14.0096 43.6242 14.0188C44.4737 14.0451 45.3195 14.0075 46.1539 13.8325C46.3298 13.7953 46.5031 13.7402 46.6497 13.627C46.7221 13.5196 46.8266 13.4379 46.9483 13.3935C47.1064 13.2549 47.2043 13.0602 47.2214 12.8506C47.2302 12.7086 47.3154 12.7011 47.4069 12.6802C48.2242 12.4906 49.0403 12.2939 49.8426 12.0458C50.0811 11.9723 50.3208 11.9021 50.5438 11.7873C50.6273 11.7455 50.6992 11.7255 50.7526 11.8249C51.0613 12.3966 51.3929 12.9596 51.4497 13.6287C51.3774 13.7715 51.2304 13.807 51.1022 13.8688C51.0229 13.9068 50.9953 13.8367 50.9573 13.7912C50.9055 13.7799 50.8784 13.7373 50.8458 13.7026C50.5317 13.3685 50.1625 13.3029 49.7565 13.5109C49.6388 13.5699 49.529 13.6434 49.4295 13.7297C49.186 13.9453 48.9459 14.1641 48.6707 14.3404C48.4873 14.4565 48.405 14.6494 48.319 14.8378Z" fill="#FDAF3E"/>
<path d="M38.3872 18.8421C38.6512 18.6115 38.9753 18.4875 39.2856 18.3409C39.9809 18.0126 40.7056 17.7441 41.3842 17.3828C41.5095 18.5029 41.5012 19.6276 41.4598 20.7499C41.4131 22.0091 41.3091 23.2658 41.2293 24.5237C41.2222 24.6348 41.213 24.7451 41.2502 24.8528C40.9221 24.9887 40.5834 25.0971 40.2374 25.1769C40.2139 25.183 40.1892 25.183 40.1657 25.1768C40.1422 25.1706 40.1207 25.1584 40.1033 25.1414C40.1083 24.6636 40.1451 24.1875 40.1476 23.7093C40.1536 22.5638 39.919 21.4298 39.4589 20.3807C39.24 19.8623 38.9213 19.392 38.5209 18.9966C38.472 18.9498 38.4077 18.9143 38.3872 18.8421Z" fill="#FDAF3E"/>
<path d="M41.3794 24.8509C41.3986 24.7231 41.516 24.7198 41.6003 24.693C42.5058 24.404 43.4062 24.1004 44.2975 23.7709C45.4112 23.3596 46.522 22.9436 47.6299 22.5229C48.5249 22.1846 49.417 21.8393 50.3108 21.4976C50.3805 21.4709 50.449 21.4279 50.5284 21.4667C50.6802 21.7086 50.7681 21.9851 50.784 22.2703C50.8057 22.6106 50.7372 22.7184 50.4214 22.8333C49.6004 23.132 48.7779 23.4271 47.954 23.7187C46.0441 24.3902 44.1175 25.0159 42.2193 25.7204C42.0313 25.7902 41.9319 25.7505 41.8229 25.6006C41.6467 25.3686 41.4978 25.1171 41.3794 24.8509Z" fill="#FDAF3E"/>
<path d="M57.3851 11.2887C57.3784 11.5334 57.2013 11.5054 57.041 11.5038C56.9082 11.4085 56.8029 11.2824 56.6471 11.2114C56.3965 11.0953 56.1505 11.0861 55.9137 11.2273C55.4635 11.4992 55.0258 11.7894 54.6696 12.1841C54.6584 12.2015 54.6438 12.2165 54.6267 12.2282C54.6097 12.2399 54.5904 12.248 54.5702 12.2522C54.5338 12.4004 54.4449 12.4982 54.3121 12.5775C53.8251 12.8699 53.2872 13.0369 52.7517 13.204C52.4659 13.2903 52.1867 13.3974 51.9164 13.5243C51.7744 13.5928 51.6943 13.5845 51.6659 13.4191C51.5121 12.8705 51.2874 12.3443 50.9976 11.8537C50.917 11.7167 50.8861 11.6633 51.0812 11.5965C52.5199 11.1045 53.9441 10.5749 55.2605 9.79766C55.3558 9.7417 55.4585 9.68239 55.5253 9.59845C55.6469 9.44642 55.7342 9.46731 55.8661 9.59051C56.3439 10.0351 56.7954 10.507 57.2185 11.0038C57.2916 11.0903 57.3626 11.1738 57.3851 11.2887Z" fill="#FDAF3E"/>
<path d="M17.6434 27.316C17.5085 27.5311 17.3381 27.6827 17.2028 27.8615C17.0775 28.0285 16.935 28.0803 16.7133 28.0728C15.9298 28.0469 15.145 28.0311 14.364 27.9667C13.5287 27.8987 12.6997 27.7917 11.8715 27.6639C11.1118 27.5466 10.3588 27.395 9.61328 27.2141C8.95258 27.0556 8.30356 26.8519 7.6708 26.6044C7.11276 26.3776 6.572 26.1105 6.05284 25.805C5.75088 25.6317 5.55167 25.4036 5.49361 25.0532C5.46814 24.8987 5.41969 24.7475 5.375 24.5684C6.25498 25.4742 7.36342 25.8956 8.50317 26.2544C9.33847 26.5167 10.1917 26.6954 11.0529 26.8345C11.7688 26.95 12.4888 27.0404 13.213 27.1056C14.173 27.193 15.1344 27.2516 16.0972 27.2814C16.6009 27.2981 17.1059 27.2856 17.6434 27.316Z" fill="#FDAF3E"/>
<path d="M15.884 22.254C15.755 22.3334 15.6089 22.3807 15.458 22.3918C14.8449 22.4186 14.2368 22.3559 13.6308 22.2791C12.7575 22.1684 11.8862 22.0477 11.0138 21.9307C10.8545 21.9091 10.693 21.9492 10.5623 22.0427C10.3485 22.1838 10.1183 22.3008 9.89825 22.4328C9.77922 22.5042 9.69819 22.5163 9.61675 22.368C9.5065 22.1688 9.3599 21.9901 9.24087 21.795C9.12184 21.6 8.94643 21.4922 8.7397 21.4191C8.12492 21.1986 7.48926 21.0508 6.86028 20.882C6.52617 20.7931 6.19539 20.6958 5.83496 20.5943C6.06425 20.3913 6.27474 20.2234 6.5128 20.0969C6.70033 19.997 6.90163 20.0672 7.08414 20.1106C8.39555 20.423 9.73912 20.54 11.0635 20.7709C12.1151 20.9539 13.1601 21.171 14.1787 21.5022C14.7249 21.6837 15.259 21.8995 15.7779 22.1483C15.802 22.1575 15.8239 22.1717 15.8422 22.1899C15.8604 22.2081 15.8747 22.2299 15.884 22.254Z" fill="#FDAF3E"/>
<path d="M16.7999 28.291C16.4737 28.6213 16.1316 28.8226 15.714 28.8928C15.0963 28.9972 14.4844 28.9062 13.873 28.8281C13.2615 28.75 12.6514 28.6781 12.0437 28.5754C11.2234 28.4362 10.4114 28.2635 9.60756 28.0575C8.72225 27.8351 7.84916 27.5666 6.99184 27.2531C6.34031 27.0126 5.95649 26.5682 5.76562 25.8945C5.98405 25.9572 6.1461 26.0971 6.32485 26.2019C7.30424 26.7762 8.37592 27.1061 9.4643 27.3964C10.3879 27.641 11.3252 27.8302 12.2713 27.9631C12.9763 28.0638 13.6855 28.1423 14.3975 28.1924C15.1531 28.2455 15.9078 28.2784 16.6645 28.2722C16.7099 28.2762 16.7551 28.2825 16.7999 28.291Z" fill="#FDAF3E"/>
<path d="M50.6987 21.3397C51.3035 21.1476 51.8523 20.8306 52.4228 20.5629C53.4155 20.0972 54.3928 19.599 55.4073 19.1805C55.4649 19.1567 55.5292 19.0907 55.5881 19.1805C55.3864 19.812 54.9809 20.3257 54.6242 20.8699C54.2621 21.4216 53.7697 21.759 53.134 21.914C52.4466 22.0811 51.7976 22.3705 51.1206 22.5726C51.0746 22.5864 51.027 22.5956 50.9618 22.6115C51.0592 22.1454 50.8604 21.7469 50.6987 21.3397Z" fill="#FDAF3E"/>
<path d="M52.7434 6.19674C51.8726 5.93488 50.9939 5.71393 50.0876 5.60826C48.3335 5.4032 46.7092 5.78827 45.2011 6.69414C44.1349 7.33481 43.2436 8.1793 42.4476 9.12318C41.3199 10.4617 40.28 11.868 39.3988 13.3853C39.309 13.5344 39.2388 13.6944 39.1899 13.8614C39.1294 14.0815 39.1774 14.1458 39.4025 14.1333C39.9321 14.104 40.4433 13.9662 40.9595 13.8585C41.1362 13.8217 41.3145 13.7883 41.487 13.7369C41.5491 13.7152 41.6161 13.7109 41.6805 13.7247C41.7449 13.7385 41.8042 13.7697 41.852 13.815L41.3041 13.9616C40.7761 14.0786 40.2487 14.1968 39.7203 14.3116C39.4283 14.3751 39.1359 14.4352 38.8433 14.492C38.6307 14.5338 38.5856 14.4858 38.6491 14.2765C38.7506 13.9424 38.923 13.638 39.106 13.3444C40.0022 11.9072 40.8952 10.4672 41.9798 9.15952C42.9767 7.95795 44.1023 6.90424 45.5031 6.18088C46.6877 5.56831 48.0092 5.26868 49.3421 5.31049C50.5612 5.34056 51.7289 5.63959 52.8624 6.07812C52.8804 6.08769 52.8972 6.09932 52.9125 6.11278C52.8904 6.20634 52.8081 6.18338 52.7434 6.19674Z" fill="#FDAF3E"/>
<path d="M52.7435 6.19681L52.916 6.11328C53.768 6.40939 54.5644 6.83163 55.3872 7.19331C56.2283 7.56293 56.3319 7.99561 55.8804 8.90566C55.6545 9.36048 55.2047 9.59394 54.7795 9.83075C53.6961 10.4347 52.5384 10.8674 51.374 11.2817C50.1958 11.7014 48.9984 12.0585 47.7931 12.3905C47.6465 12.4323 47.4974 12.4619 47.3496 12.497C47.2736 12.497 47.203 12.4715 47.2021 12.3863C47.2021 12.3086 47.2857 12.3028 47.3396 12.284C47.8553 12.0961 48.3937 11.9858 48.9191 11.8313C50.697 11.3075 52.4607 10.7433 54.1301 9.92388C54.6166 9.68499 55.0907 9.4227 55.4903 9.04682C55.7576 8.79623 55.936 8.50139 55.989 8.13428C56.0308 7.8507 55.9473 7.63894 55.6883 7.48901C55.2548 7.23842 54.7966 7.04003 54.3452 6.82787C53.8256 6.58313 53.2856 6.38642 52.7435 6.19681Z" fill="#FDAF3E"/>
<path d="M55.8364 19.1379C56.0076 19.1349 56.1788 19.1316 56.3501 19.1299C56.419 19.1299 56.4921 19.1249 56.5046 19.2214C56.5363 19.7226 56.4628 20.2175 56.4027 20.7128C56.3864 20.846 56.3263 20.9158 56.1964 20.9592C55.6171 21.1513 55.0361 21.3351 54.4126 21.4796C54.999 20.7454 55.5181 20.0016 55.8364 19.1379Z" fill="#FDAF3E"/>
<path d="M15.3237 22.5984C15.1059 22.6753 14.8768 22.7151 14.6458 22.7162C13.6401 22.7479 12.6507 22.5947 11.6609 22.4485C11.6192 22.4456 11.578 22.4386 11.5377 22.4276C11.0002 22.2367 10.5353 22.3883 10.0759 22.6903C9.69671 22.9409 9.68042 22.9158 9.4006 22.5596C9.34046 22.4832 9.2657 22.4138 9.22352 22.3286C9.02179 21.9193 8.68058 21.759 8.24581 21.6679C7.58133 21.5288 6.9298 21.3238 6.32087 21.0097C6.20655 20.9533 6.10537 20.8735 6.02393 20.7754C6.31628 20.8669 6.60404 20.9667 6.89806 21.0485C7.45896 21.2056 8.02237 21.3526 8.58535 21.5029C8.80754 21.5622 8.97752 21.67 9.08862 21.8905C9.22226 22.1566 9.42274 22.3817 9.62279 22.6059C9.69337 22.6857 9.74808 22.6895 9.83161 22.6377C10.1144 22.4623 10.4025 22.2948 10.6857 22.1202C10.7278 22.0909 10.7754 22.0705 10.8257 22.0601C10.8759 22.0497 10.9278 22.0495 10.9781 22.0597C12.2126 22.3102 13.4639 22.428 14.7193 22.5099C14.8993 22.5216 15.0789 22.5416 15.2589 22.5588C15.274 22.56 15.2836 22.5717 15.3237 22.5984Z" fill="#FDAF3E"/>
<path d="M40.1035 25.1421C40.4489 25.112 40.7571 24.945 41.0908 24.8711C41.1419 24.8524 41.1968 24.8464 41.2508 24.8535C41.3923 25.1559 41.5431 25.452 41.7653 25.7063C41.8396 25.792 41.8451 25.835 41.7235 25.8755C41.0971 26.0843 40.4756 26.2982 39.8521 26.5103C39.9359 26.0542 40.0197 25.5982 40.1035 25.1421Z" fill="#FDAF3E"/>
<path d="M56.7073 19.4697C56.5994 19.4115 56.6169 19.33 56.6466 19.1924C56.7261 19.3103 56.6943 19.394 56.7064 19.4697H56.7073Z" fill="#060606"/>
<path d="M47.7186 4.19238C47.8936 4.21786 48.0736 4.17402 48.249 4.24418C47.9567 4.29388 47.6493 4.25921 47.3252 4.42292C47.4162 4.26255 47.5282 4.25837 47.6075 4.20282L47.7186 4.19238Z" fill="#060606"/>
<path d="M38.6399 25.3797C38.6257 26.9793 38.1897 28.4465 37.2416 29.7454C36.8265 30.3138 36.3107 30.7707 35.6596 31.0648C34.6322 31.5283 33.5764 31.1345 32.9236 30.3263C32.2833 29.5328 31.9956 28.5986 31.8377 27.6163C31.674 26.578 31.7158 25.5177 31.9605 24.4956C32.2424 23.2903 32.754 22.204 33.6599 21.3323C34.0583 20.9498 34.5153 20.6495 35.0549 20.5388C35.739 20.3997 36.3771 20.5463 36.9343 20.9961C37.7153 21.6293 38.1158 22.4901 38.3802 23.4252C38.561 24.0607 38.6485 24.7191 38.6399 25.3797Z" fill="#070707"/>
<path d="M57.1299 19.8332C57.1574 18.9515 57.2794 18.1417 57.5851 17.3636C57.7818 16.8625 58.0074 16.3809 58.3974 16.0029C58.9634 15.4546 59.6228 15.2808 60.1933 15.8472C60.4506 16.1036 60.6243 16.4214 60.7534 16.7626C60.991 17.3891 61.103 18.0402 61.1372 18.7093C61.1861 19.6699 61.0566 20.605 60.6983 21.4921C60.4418 22.1277 60.1081 22.735 59.4833 23.1042C59.031 23.3719 58.5683 23.3176 58.1844 22.9618C57.7722 22.5792 57.5763 22.0726 57.4018 21.5593C57.2051 20.9842 57.1558 20.3828 57.1299 19.8332Z" fill="#060809"/>
<path d="M21.1064 28.2244C21.0534 28.2102 20.9528 28.2708 20.9168 28.1901C20.8809 28.1095 20.9728 28.0573 21.0175 27.9985C21.0582 27.9434 21.1104 27.8979 21.1705 27.8652C21.2306 27.8324 21.2971 27.8132 21.3654 27.8088C22.288 27.6965 23.1909 27.4747 24.0997 27.2885C24.5955 27.1865 25.0904 27.0796 25.5857 26.9761C25.6596 26.9606 25.7628 26.9255 25.8008 26.9877C25.8388 27.05 25.7824 27.1444 25.7377 27.2149C25.6254 27.392 25.5059 27.5328 25.2704 27.5816C23.8955 27.8734 22.5053 28.088 21.1064 28.2244Z" fill="#FDAF3E"/>
<path d="M21.5371 27.545C21.6478 27.3955 21.7773 27.332 21.9063 27.2739C22.6693 26.9285 23.4783 26.7272 24.2869 26.5222C24.839 26.3827 25.3937 26.2536 25.9475 26.1204C26.1337 26.0753 26.1521 26.0974 26.1066 26.2904C26.0456 26.5485 25.9333 26.708 25.6342 26.7815C24.317 27.1052 22.9767 27.3019 21.6461 27.5525C21.6096 27.5531 21.5732 27.5506 21.5371 27.545Z" fill="#FDAF3E"/>
<path d="M25.2674 27.827C25.1454 28.0751 25.0431 28.3098 24.7311 28.3795C23.7651 28.5963 22.7837 28.6894 21.7997 28.765C21.4326 28.793 21.0646 28.8068 20.6963 28.8201C20.6182 28.8226 20.4741 28.8819 20.4711 28.7625C20.4674 28.6954 20.488 28.6292 20.5292 28.5762C20.5705 28.5231 20.6295 28.4868 20.6954 28.4739C20.887 28.4406 21.0802 28.4182 21.2743 28.4067C22.5552 28.3369 23.8048 28.065 25.0594 27.8274C25.1271 27.8064 25.1996 27.8062 25.2674 27.827Z" fill="#FDAF3E"/>
<path d="M48.3192 14.8376C48.3041 14.6117 48.4219 14.4484 48.5931 14.3331C48.9047 14.1243 49.1778 13.8699 49.4652 13.6319C49.7525 13.3938 50.085 13.2673 50.4675 13.3813C50.6889 13.446 50.8656 13.5692 50.9579 13.7914C51.0894 14.2567 50.8363 14.5398 50.488 14.7737C50.2098 14.96 49.8995 15.0765 49.5834 15.183C49.1712 15.3225 48.8078 15.2561 48.4841 14.965C48.4328 14.9174 48.3743 14.8794 48.3192 14.8376Z" fill="#08080B"/>
<path d="M54.5704 12.251C54.5919 12.2003 54.62 12.1527 54.654 12.1094C55.0637 11.711 55.5135 11.3622 56.0284 11.1137C56.3684 10.9492 56.8466 11.1517 57.0408 11.5034C57.1356 12.0998 56.8809 12.2969 56.4244 12.5057C55.8559 12.7664 55.2846 12.735 54.7308 12.4456C54.6552 12.408 54.5667 12.3629 54.5704 12.251Z" fill="#07090E"/>
<path d="M45.9382 11.3015C45.2812 11.1841 44.6276 11.0576 43.9535 11.0801C43.4131 11.0981 42.9866 11.2982 42.6897 11.7559C42.4391 12.1418 42.1626 12.5039 41.7959 12.7921C41.5996 12.9466 41.4902 13.1538 41.5399 13.4144C41.5696 13.5706 41.453 13.5397 41.3729 13.5534C41.1035 13.599 41.1031 13.5977 41.0918 13.335C41.0671 12.7503 41.0446 12.1685 41.0166 11.5855C41.008 11.4755 41.0375 11.366 41.1001 11.2752C41.9985 9.94708 42.9891 8.69913 44.2291 7.66754C45.5176 6.59545 47.0073 6.00615 48.67 5.84368C48.8872 5.82238 48.9272 5.98485 48.9485 6.15274C48.9836 6.29474 48.9339 6.42922 48.9022 6.56245C48.5848 7.89516 47.9654 9.07669 47.1038 10.1367C46.8173 10.4938 46.5077 10.8317 46.177 11.1482C46.1081 11.2155 46.0426 11.2886 45.9382 11.3015Z" fill="url(#paint2_linear_9501_130)"/>
<path d="M50.3481 5.88184C51.122 5.97831 51.8337 6.15831 52.5349 6.37967C53.4809 6.68131 54.4017 7.05666 55.2889 7.5023C55.8356 7.7746 55.902 7.99388 55.6143 8.54142C55.4326 8.88723 55.1277 9.10272 54.8053 9.30069C53.9065 9.85114 52.9325 10.2329 51.9448 10.585C51.9184 10.5935 51.8925 10.6034 51.8671 10.6146C51.713 10.6839 51.6583 10.6906 51.6403 10.4668C51.5881 9.76051 51.4315 9.06848 51.2457 8.38437C51.0164 7.54031 50.7048 6.72506 50.3481 5.88184Z" fill="url(#paint3_linear_9501_130)"/>
<path d="M49.3262 6.94727C49.5467 7.42255 49.6449 7.935 49.7618 8.43952C49.9418 9.23173 50.0502 10.0385 50.0855 10.8502C50.1022 11.2002 50.0964 11.2261 49.7685 11.323C48.9182 11.5773 48.0645 11.8212 47.2133 12.0726C47.1022 12.1056 47.0425 12.0927 46.9962 11.9728C46.926 11.7907 46.7665 11.6804 46.6107 11.5756C46.5911 11.4921 46.6524 11.4503 46.7034 11.4044C47.2768 10.894 47.7475 10.2959 48.2015 9.68075C48.5786 9.17302 48.8771 8.61141 49.0869 8.01477C49.1838 7.73746 49.2089 7.44718 49.2268 7.15566C49.231 7.07798 49.1867 6.96522 49.3262 6.94727Z" fill="url(#paint4_linear_9501_130)"/>
<path d="M49.0776 5.82574C49.3672 5.80937 49.6576 5.81454 49.9463 5.84119C50.0996 5.85665 50.1552 5.99112 50.2074 6.1114C50.5585 6.89635 50.8465 7.70805 51.0686 8.53877C51.241 9.17401 51.3847 9.81509 51.4169 10.4766C51.4265 10.6746 51.4048 10.8003 51.1663 10.8617C50.9278 10.9231 50.7023 11.0401 50.4563 11.0906C50.3665 11.109 50.3185 11.1202 50.3201 10.9958C50.3402 9.33648 49.8695 7.78284 49.2827 6.25593C49.2276 6.11601 49.1532 5.98403 49.0776 5.82574Z" fill="#FDAF3E"/>
<path d="M40.7947 11.6143C40.8682 11.7166 40.849 11.7951 40.8457 11.8669C40.8223 12.3869 40.8774 12.9044 40.8937 13.4227C40.8991 13.6039 40.8453 13.6766 40.6648 13.7008C40.296 13.7505 39.9377 13.862 39.566 13.8984C39.5196 13.903 39.4679 13.9401 39.4407 13.8779C39.4136 13.8157 39.4499 13.7747 39.4795 13.7255C39.7364 13.2995 39.9866 12.8693 40.248 12.4462C40.4188 12.1714 40.6026 11.9058 40.7947 11.6143Z" fill="#FDAF3E"/>
<path d="M9.38077 20.8073C9.91937 20.8796 10.4532 20.9836 10.9795 21.1189C11.1102 21.1523 11.1015 21.2195 11.0296 21.2914C10.7032 21.6216 10.3495 21.9237 9.97216 22.1943C9.84311 22.2858 9.72157 22.2361 9.63136 22.1133C9.40249 21.808 9.18448 21.496 9.03538 21.1423C8.90173 20.8215 8.92554 20.7873 9.38077 20.8073Z" fill="#070C15"/>
<path d="M31.9043 26.3854C31.9302 24.9274 32.2434 23.5496 33.0737 22.323C33.4913 21.704 34.0013 21.1815 34.7067 20.8837C35.5194 20.5404 36.2587 20.6816 36.9202 21.2412C37.5697 21.7904 37.938 22.5234 38.1565 23.324C38.8188 25.7547 38.4288 27.9988 36.8973 30.0198C36.6339 30.3631 36.3018 30.6476 35.9221 30.8551C34.9197 31.4155 33.8789 31.2247 33.133 30.3434C32.4698 29.5595 32.1645 28.6227 31.997 27.6317C31.9283 27.2199 31.8973 26.8028 31.9043 26.3854Z" fill="#FDAF3E"/>
<path d="M59.251 23.0552C58.9871 23.2327 58.7348 23.1604 58.4922 23.0134C58.0115 22.719 57.7922 22.2428 57.6109 21.7387C57.4455 21.2952 57.3504 20.8284 57.329 20.3555C57.3035 19.5365 57.2584 18.7029 57.5754 17.9131C57.5899 17.9277 57.6079 17.9383 57.6276 17.9438C57.6474 17.9494 57.6683 17.9497 57.6882 17.9448C57.9137 18.0421 58.0774 18.2242 58.2671 18.37C58.4567 18.5157 58.6375 18.6544 58.8305 18.7851C58.8722 18.8198 58.9324 18.7688 58.975 18.8089C59.0309 18.8707 58.9332 18.9497 58.9979 19.0107C58.9938 19.0934 58.9839 19.1757 58.9683 19.2571C58.9324 19.3945 58.9762 19.491 59.1032 19.5411C59.2301 19.5912 59.2953 19.5106 59.3483 19.4116C59.3663 19.3859 59.3864 19.3617 59.4085 19.3393C59.4431 19.5987 59.5872 19.7867 59.733 19.9717C59.9381 20.2323 60.1686 20.4728 60.3361 20.7631C60.3904 20.8571 60.3987 20.7719 60.4125 20.7314C60.4058 20.6011 60.4864 20.4962 60.5161 20.3759C60.6172 19.9662 60.7199 19.5574 60.7391 19.133C60.7402 19.077 60.7607 19.0231 60.7972 18.9806C61.0231 18.8912 61.0348 18.8929 61.0331 19.1255C61.0316 19.7716 60.9302 20.4136 60.7324 21.0287C60.7011 21.1248 60.6673 21.2267 60.5679 21.2935C60.1886 20.8116 59.7668 20.3705 59.3567 19.9203C59.3179 19.8785 59.2828 19.7896 59.2193 19.8188C59.1495 19.8505 59.175 19.9341 59.1846 20.0055C59.3073 20.8921 59.3543 21.7876 59.325 22.6822C59.3454 22.8142 59.3755 22.9495 59.251 23.0552Z" fill="#FDAF3E"/>
<path d="M57.678 17.9622C57.6212 17.9898 57.5799 17.9877 57.5757 17.9108C57.7778 17.2108 58.0685 16.5601 58.5993 16.0385C59.1657 15.4826 59.8155 15.5236 60.3238 16.234C60.4524 16.414 60.3814 16.6078 60.3355 16.7965C60.3321 16.9811 60.3025 17.157 60.1722 17.3006C59.9596 17.8561 59.7328 18.4049 59.4163 18.932C59.3407 18.881 59.3164 18.7557 59.2074 18.7946C59.1577 18.8103 59.1127 18.8381 59.0763 18.8754C59.0398 18.9127 59.0132 18.9583 58.9986 19.0084C58.8487 18.9629 59.0103 18.8568 58.9568 18.7925C58.8733 18.6701 58.9051 18.5218 58.8704 18.3882C58.8737 18.3301 58.8787 18.2729 58.9431 18.2462C59.0086 18.2499 59.0345 18.2992 59.0838 18.3932C59.0418 18.3098 59.0233 18.2165 59.0303 18.1234C59.0479 17.5479 58.8474 17.0112 58.7292 16.4603C58.7192 16.4131 58.7217 16.3229 58.6219 16.3488L58.5772 16.3801C58.4369 16.495 58.3755 16.6633 58.2848 16.8124C58.251 16.8713 58.1913 16.906 58.1504 16.9578C58.076 17.1319 57.9695 17.2919 57.9269 17.4794C57.8764 17.656 57.8584 17.8515 57.678 17.9622Z" fill="#FDAF3E"/>
<path d="M59.252 23.0542C59.2762 22.929 59.3008 22.8037 59.325 22.6784C59.432 22.6621 59.4086 22.566 59.4111 22.5075C59.4269 22.1872 59.4328 21.8664 59.4382 21.5469C59.4356 21.5063 59.4446 21.4658 59.4641 21.43C59.6019 21.2663 59.7636 21.1222 59.8684 20.9318C59.8951 20.8833 59.9377 20.8403 60.0033 20.885C60.1628 21.0253 60.3232 21.1644 60.4811 21.306C60.5092 21.3271 60.53 21.3567 60.5403 21.3904C60.5507 21.4241 60.5501 21.4602 60.5387 21.4935C60.3245 22.1095 59.9753 22.6278 59.4282 22.997C59.3806 23.0309 59.3113 23.0346 59.252 23.0542Z" fill="#FDAF3E"/>
<path d="M60.3693 16.833C60.415 16.7503 60.4341 16.6555 60.424 16.5615C60.5322 16.6288 60.5748 16.734 60.6182 16.8292C60.8705 17.387 61.0052 17.9908 61.0137 18.603C61.0167 18.7437 60.9636 18.8118 60.8287 18.8569C60.3622 19.0093 59.8765 19.0987 59.4296 19.2992C59.3624 19.077 59.463 18.9738 59.6505 18.8815C60.046 18.695 60.414 18.4551 60.7443 18.1686C60.7631 18.1578 60.7819 18.1269 60.7702 18.1227C60.5752 18.0454 60.6245 17.8654 60.5998 17.7192C60.5518 17.4323 60.4353 17.1671 60.3434 16.8936C60.3474 16.8717 60.3563 16.851 60.3693 16.833Z" fill="#FDAF3E"/>
<path d="M60.7979 18.9785C60.8183 19.4943 60.6726 19.9809 60.5506 20.4741C60.5264 20.5723 60.4671 20.6474 60.4132 20.7293C60.3339 20.5192 60.2098 20.3289 60.0494 20.1717C60.0352 20.1567 60.0256 20.1379 60.0216 20.1176C60.0176 20.0972 60.0194 20.0762 60.0269 20.0569C60.0895 19.7791 60.1472 19.5002 60.2169 19.2241L60.7979 18.9785Z" fill="#FDAF3E"/>
<path d="M60.3686 16.875C60.5543 17.2029 60.6585 17.5706 60.6726 17.9471C60.6721 17.9706 60.6793 17.9936 60.6932 18.0126C60.7071 18.0316 60.7269 18.0454 60.7495 18.0519C60.8209 18.0845 60.8146 18.1317 60.7445 18.1681C60.7658 18.0908 60.7353 18.0691 60.6651 18.0962C60.595 18.1234 60.5331 18.1526 60.4672 18.1797C60.3548 18.2144 60.3389 18.1309 60.3243 18.057C60.2757 17.801 60.2444 17.542 60.2308 17.2818C60.2261 17.134 60.2751 16.9895 60.3686 16.875Z" fill="#FDAF3E"/>
<path d="M60.3689 16.875C60.1542 17.2926 60.3726 17.7069 60.3898 18.1225C60.3898 18.1605 60.4344 18.1701 60.4674 18.1809C60.3421 18.2954 60.1885 18.3096 60.0122 18.3242C60.1392 18.0637 60.2077 17.7786 60.2131 17.4889C60.2131 17.4254 60.2478 17.3498 60.1713 17.301C60.227 17.1339 60.2814 16.9659 60.3346 16.7969L60.3685 16.8332C60.3693 16.8461 60.3689 16.8608 60.3689 16.875Z" fill="#FDAF3E"/>
<path d="M60.0035 20.8852C59.8781 20.9053 59.8781 21.0357 59.8158 21.1089C59.7091 21.2298 59.6317 21.3783 59.4636 21.431C59.4506 21.2741 59.5176 21.1227 59.4774 20.9596C59.4515 20.853 59.7781 20.7087 59.8818 20.776C59.9252 20.8091 59.9659 20.8456 60.0035 20.8852Z" fill="#FDAF3E"/>
<path d="M60.2153 19.2238C60.2629 19.4827 60.1572 19.7157 60.0937 19.9563C60.0749 20.0269 60.0236 20.0912 60.0478 20.1714C59.778 19.8811 59.9906 19.5984 60.0662 19.316C60.0767 19.2859 60.0973 19.2603 60.1244 19.2436C60.1515 19.2268 60.1836 19.2198 60.2153 19.2238Z" fill="#FDAF3E"/>
<path d="M59.3078 19.1469C59.2961 19.2582 59.2923 19.3978 59.1631 19.4133C59.0795 19.4246 59.0795 19.3008 59.0882 19.2314C59.1 19.1331 59.0464 18.983 59.1924 18.9604C59.2965 18.9445 59.294 19.0674 59.3078 19.1469Z" fill="#C5C5C5"/>
<path d="M48.3833 14.7143C49.019 14.333 49.5861 13.9274 50.2301 13.6543C50.4231 13.5708 50.606 13.5766 50.7802 13.7036C50.9301 13.8122 50.933 13.9082 50.7739 14.003C50.5383 14.1355 50.2883 14.2406 50.0288 14.3163C49.5419 14.4721 49.0603 14.6504 48.5491 14.7134C48.4939 14.7165 48.4385 14.7168 48.3833 14.7143Z" fill="#FDAF3E"/>
<path d="M50.5546 14.3896C50.5655 14.4126 50.567 14.4388 50.5587 14.4628C50.5504 14.4868 50.5331 14.5065 50.5104 14.5179C50.1073 14.8002 49.6751 15.0019 49.1714 15.0136C49.1142 15.0136 49.029 15.0383 49.0169 14.9543C49.0077 14.8912 49.0849 14.8708 49.1338 14.8545C49.3698 14.7772 49.6053 14.6962 49.8438 14.6356C50.0823 14.5751 50.3174 14.4648 50.5546 14.3896Z" fill="#FDAF3E"/>
<path d="M56.5171 11.293C56.6495 11.293 56.7389 11.2996 56.8157 11.3577C56.9828 11.4851 56.9778 11.5979 56.7906 11.6889C56.2381 11.957 55.6421 12.094 55.052 12.2477C54.9956 12.2623 54.9129 12.287 54.8807 12.2251C54.8432 12.1525 54.9304 12.1199 54.9751 12.0877C55.4049 11.7799 55.8722 11.5377 56.3534 11.3243C56.4062 11.3061 56.4613 11.2955 56.5171 11.293Z" fill="#FDAF3E"/>
<path d="M56.8087 11.9751C56.7085 12.1597 56.5226 12.2345 56.3426 12.3138C56.0897 12.4259 55.818 12.4892 55.5416 12.5005C55.5032 12.5005 55.4485 12.5143 55.4376 12.4588C55.4267 12.4032 55.4748 12.3928 55.514 12.3786L56.7252 11.9438C56.7406 11.938 56.7575 11.938 56.7729 11.9438C56.7882 11.9495 56.801 11.9607 56.8087 11.9751Z" fill="#FDAF3E"/>
<path d="M9.81693 22.1665C9.55798 21.7657 9.32097 21.3512 9.10693 20.9248L10.8773 21.2172L9.81693 22.1665Z" fill="#FDAF3E"/>
<path d="M35.5131 29.6311C35.5184 29.0756 35.5034 28.5204 35.468 27.9655C35.4576 27.8097 35.3879 27.6732 35.3427 27.527C35.3061 27.4294 35.2781 27.3288 35.2592 27.2263C35.2233 26.9218 35.4814 26.7368 35.7566 26.8679C35.9788 26.974 36.1622 27.1357 36.3276 27.3144C36.7209 27.7469 37.0314 28.2481 37.2435 28.7929C37.2556 28.8242 37.271 28.8559 37.2472 28.8914C37.1787 28.858 37.1729 28.7783 37.1261 28.7294C36.9841 28.6196 36.8918 28.4667 36.7803 28.3305C36.7068 28.2299 36.6312 28.1305 36.5497 28.0361C36.4683 27.9417 36.4044 27.9384 36.348 28.0587C36.2109 28.362 36.0328 28.6452 35.8189 28.9002C35.7537 28.9758 35.7412 29.0802 35.7353 29.1754C35.7245 29.3897 35.6986 29.6023 35.6835 29.8165C35.6668 29.9343 35.6685 30.0588 35.5541 30.1703C35.4927 29.9782 35.5587 29.8007 35.5131 29.6311Z" fill="#060606"/>
<path d="M37.6315 23.5118L37.7781 23.3406C37.7422 23.5201 37.6428 23.6634 37.5337 23.7975C37.1296 24.2923 36.6399 24.7104 36.0879 25.032C35.9882 25.096 35.8757 25.1373 35.7583 25.1532C35.5913 25.1703 35.529 25.0964 35.5725 24.9347C35.656 24.6311 35.8093 24.3592 35.9534 24.0831C36.2048 23.5972 36.4056 23.0866 36.5527 22.5596C36.6684 22.5805 36.63 22.6686 36.6321 22.7392C36.5719 22.9593 36.5314 23.1848 36.455 23.4007C36.4394 23.4464 36.4333 23.4948 36.4371 23.5429C36.4409 23.591 36.4545 23.6379 36.4771 23.6805C36.5672 23.866 36.6361 24.061 36.6826 24.2619C36.8547 24.1595 37.0177 24.0424 37.1696 23.9119C37.3341 23.7891 37.4473 23.6091 37.6315 23.5118Z" fill="#060606"/>
<path d="M37.7605 24.8906C37.9501 25.0213 37.844 25.2093 37.8335 25.3642C37.7995 25.8632 37.7199 26.3579 37.5955 26.8423C37.5404 27.0511 37.4405 27.2407 37.3449 27.4324C37.1394 27.2942 37.0066 27.0983 36.8984 26.8799C37.0312 26.4656 37.048 26.0262 37.167 25.6086C37.1837 25.5413 37.1799 25.4706 37.1561 25.4056C37.299 25.1751 37.5103 24.9951 37.7605 24.8906Z" fill="black"/>
<path d="M34.9595 28.4238C34.9345 29.112 34.7808 29.7707 34.5498 30.4143C34.5122 30.5183 34.4609 30.5337 34.3636 30.5087C33.9238 30.3947 33.5349 30.1967 33.2259 29.855C33.1649 29.7874 33.1265 29.7369 33.1791 29.6412C33.5266 29.0097 33.8682 28.3753 34.2145 27.743C34.2562 27.6645 34.3159 27.5947 34.3669 27.52C34.559 27.2381 34.691 27.3634 34.8008 27.5747C34.9378 27.8391 34.9541 28.1335 34.9595 28.4238Z" fill="#070707"/>
<path d="M35.9242 22.1495C35.9096 22.946 35.5956 23.6438 35.2013 24.3133C35.157 24.3885 35.0864 24.475 34.99 24.4649C34.886 24.4537 34.8676 24.3396 34.8404 24.2586C34.7005 23.841 34.6475 23.4066 34.5899 22.9739C34.5268 22.4995 34.4838 22.0225 34.4253 21.5477C34.4094 21.4199 34.4391 21.343 34.564 21.2896C34.7548 21.206 34.9353 21.105 35.1537 21.1075C35.5296 21.1121 35.7714 21.2925 35.8637 21.6542C35.9075 21.8155 35.9278 21.9823 35.9242 22.1495Z" fill="#06080C"/>
<path d="M37.7597 24.8897L37.1692 25.3821C37.1412 25.4414 37.0857 25.4727 37.036 25.5099C36.975 25.5554 36.9107 25.5934 36.8468 25.6373C36.6208 25.796 36.5669 26.4409 36.767 26.6292C36.8447 26.7023 36.9102 26.7766 36.9311 26.8836L37.3438 27.4315C37.3538 27.4975 37.4273 27.543 37.4093 27.6295C37.2723 27.4749 37.1408 27.3279 37.0109 27.1792C36.6801 26.8034 36.2591 26.5507 35.8315 26.2997C35.5734 26.1472 35.5809 26.0416 35.839 25.8687C36.077 25.7096 36.3477 25.6147 36.6004 25.4844C37.0692 25.2469 37.5164 24.9688 37.9368 24.6533L37.7597 24.8897Z" fill="#060706"/>
<path d="M32.7795 25.8927C33.1295 25.9164 33.4748 25.9857 33.8069 26.0986C34.1373 26.2172 34.2062 26.368 34.0646 26.6912C33.8449 27.1924 33.4749 27.5792 33.0673 27.9312C32.9257 28.0532 32.7666 28.1547 32.6196 28.2708C32.5481 28.3267 32.506 28.3305 32.4688 28.2365C32.2253 27.6218 32.0691 26.9919 32.1706 26.3254C32.2236 25.9746 32.3585 25.8743 32.7795 25.8927Z" fill="#080909"/>
<path d="M35.5138 29.6311L35.5589 30.1039L35.5773 30.1076L35.6387 29.771C35.6692 29.733 35.6291 29.6545 35.6859 29.6436C35.9908 29.586 36.086 29.3254 36.2088 29.1007C36.3408 28.8593 36.5429 28.6597 36.6193 28.3832C36.644 28.2938 36.7538 28.3088 36.8365 28.3134C36.925 28.4588 37.0666 28.564 37.1289 28.7311C36.9397 28.932 36.8244 29.1859 36.6394 29.3918C36.3946 29.6645 36.1461 29.9305 35.8383 30.1352C35.7816 30.1739 35.7167 30.199 35.6487 30.2087C35.561 30.2212 35.5013 30.1945 35.5051 30.0884C35.5113 29.9352 35.5113 29.7831 35.5138 29.6311Z" fill="black"/>
<path d="M34.4146 24.8674C34.4086 24.9545 34.3977 25.0413 34.3821 25.1272C34.3403 25.2942 34.2392 25.3878 34.0634 25.3397C33.4336 25.1685 32.955 24.7847 32.5791 24.2618C32.5373 24.2025 32.5528 24.1465 32.569 24.0843C32.6967 23.6075 32.8997 23.1542 33.1705 22.7416C33.2323 22.6459 33.2958 22.6192 33.3851 22.6919C33.4583 22.744 33.5261 22.8032 33.5877 22.8685C34.0763 23.4524 34.3215 24.1327 34.4146 24.8674Z" fill="#080A0B"/>
<path d="M34.2433 26.1613C34.2637 25.7821 34.3393 25.4204 34.5657 25.1022C34.9136 24.614 35.353 24.8516 35.5167 25.1982C35.7368 25.6623 35.5969 26.4257 35.246 26.7991C34.8831 27.1858 34.4107 26.9566 34.298 26.5723C34.26 26.4387 34.2416 26.3003 34.2433 26.1613Z" fill="#080A09"/>
<path d="M57.4175 20.2175C57.4559 19.8378 57.511 19.459 57.476 19.076C57.4651 18.9616 57.5269 18.9399 57.6125 18.9507C57.9984 19.0025 58.3743 19.1032 58.7514 19.1967C58.8425 19.2193 58.8437 19.2907 58.8312 19.3638C58.8081 19.4941 58.7623 19.6193 58.6959 19.7338C58.4363 20.1931 58.1378 20.6293 57.8038 21.0377C57.7574 21.0937 57.7232 21.1726 57.6317 21.1751C57.6029 21.077 57.6806 21.021 57.7265 20.9579C58.0519 20.5115 58.338 20.0391 58.6195 19.5659C58.6278 19.5388 58.5819 19.5659 58.6099 19.5659C58.6182 19.5659 58.6199 19.5722 58.6099 19.5847C58.3966 19.9224 58.0601 20.1636 57.6718 20.2571C57.5866 20.2776 57.4922 20.2889 57.4175 20.2175Z" fill="#060606"/>
<path d="M57.9186 22.1365C57.8622 22.066 57.8994 22.0087 57.9265 21.9344C58.1575 21.3029 58.4807 20.7115 58.7242 20.0855C58.7618 19.9898 58.7977 19.8929 58.8341 19.7969C58.9418 19.8107 58.9435 19.9025 58.9351 19.9694C58.8675 20.5065 58.9882 21.0427 58.9351 21.579C58.9351 21.5994 58.9297 21.6207 58.9268 21.6404C58.8215 22.0213 58.2895 22.2827 57.9186 22.1365Z" fill="#060607"/>
<path d="M57.918 22.1374C58.1243 22.1149 58.3327 22.109 58.5281 22.0222C58.6906 21.9495 58.8372 21.868 58.869 21.6713C58.9366 21.6458 58.9466 21.5394 59.0402 21.5506C59.0903 21.757 59.0632 21.9578 59.0076 22.1595C58.9425 22.3959 58.9613 22.6399 58.9621 22.8813C58.9621 22.9936 58.9374 23.0249 58.8151 22.9769C58.3995 22.8153 58.1268 22.5095 57.918 22.1374Z" fill="#FDAF3E"/>
<path d="M57.6782 17.9614C57.7716 17.8084 57.8397 17.6412 57.8799 17.4665C57.9188 17.3086 58.0236 17.322 58.1347 17.3751C58.2784 17.444 58.3632 17.5755 58.4413 17.7042C58.6135 17.9873 58.7594 18.2857 58.8773 18.5954C58.9111 18.6844 58.97 18.7875 58.8297 18.846C58.422 18.5833 58.0708 18.245 57.6782 17.9614Z" fill="#060706"/>
<path d="M57.4172 20.218C57.9079 20.2514 58.2232 19.9444 58.5373 19.6374C58.5791 19.5957 58.6116 19.5476 58.658 19.5088C58.417 20.1261 58.001 20.6364 57.6314 21.1744C57.4527 20.981 57.4798 20.7229 57.4251 20.4919C57.4038 20.4084 57.3462 20.3103 57.4172 20.218Z" fill="#FDAF3E"/>
<path d="M58.8296 18.8479C58.8923 18.8108 58.8822 18.754 58.8614 18.7018C58.6981 18.2979 58.5318 17.8945 58.2599 17.5474C58.1138 17.3607 58.0094 17.3436 57.8799 17.4668C57.9439 17.2755 58.0254 17.0906 58.1234 16.9142C58.2178 16.8725 58.2662 16.9405 58.3113 17.0007C58.5669 17.3423 58.7448 17.7245 58.896 18.1212C58.9299 18.2106 58.8634 18.3004 58.9169 18.3839C58.9587 18.5157 58.972 18.6547 58.9562 18.792C58.9182 18.82 58.9207 18.9415 58.8296 18.8479Z" fill="#5D5D5D"/>
<path d="M59.0384 21.5497C58.9866 21.5973 58.9662 21.6895 58.8672 21.6703C58.8818 21.2919 58.8906 20.9136 58.8417 20.5364C58.8179 20.3497 58.8705 20.1668 58.8714 19.9814C58.8714 19.9196 58.9177 19.8419 58.8296 19.7968C58.9444 19.7174 58.9829 19.8385 58.9896 19.8874C59.0639 20.4199 59.1721 20.952 59.0618 21.4928C59.0562 21.5126 59.0484 21.5317 59.0384 21.5497Z" fill="#FDAF3E"/>
<path d="M59.3733 18.377C59.3035 18.4095 59.367 18.5023 59.2626 18.5595C59.2626 18.0128 59.2401 17.4895 59.2981 16.9662C59.3244 16.8126 59.3244 16.6557 59.2981 16.5021L59.3006 16.3852C59.4054 16.2937 59.4986 16.3556 59.5813 16.4174C59.8269 16.5995 59.9292 16.8459 59.8736 17.1478C59.84 17.347 59.7756 17.5398 59.6828 17.7192C59.5704 17.9334 59.4865 18.1623 59.3733 18.377Z" fill="#070707"/>
<path d="M58.9166 18.3845C58.8014 17.9637 58.6211 17.5634 58.3825 17.198C58.314 17.0903 58.2639 16.9595 58.1235 16.9148C58.1427 16.8526 58.2137 16.8472 58.2488 16.8013C58.3637 16.6589 58.4618 16.5037 58.5412 16.3389H58.5829C58.6707 16.3368 58.6782 16.4107 58.6932 16.4642C58.8301 16.9593 58.9363 17.4624 59.011 17.9707C59.0248 18.063 59.0716 18.1795 58.9572 18.2563C58.9104 18.2889 58.9208 18.3394 58.9166 18.3845Z" fill="#FDAF3E"/>
<path d="M59.3729 18.3761C59.3804 18.1368 59.5124 17.9434 59.6126 17.7392C59.7151 17.5423 59.7874 17.3311 59.8273 17.1127C59.8866 16.7339 59.6418 16.4006 59.3015 16.3856C59.2973 16.372 59.2954 16.358 59.2956 16.3438C59.3131 16.2231 59.2046 16.0515 59.2822 16.0001C59.4004 15.9241 59.5683 16.0001 59.7103 16.0452C59.7333 16.1392 59.6297 16.1622 59.6005 16.2465C59.7304 16.33 59.8381 16.4516 60.0127 16.4699C60.1326 16.4825 60.1798 16.5535 60.1271 16.67C59.9476 17.2309 59.7604 17.7889 59.4635 18.3022C59.4443 18.3364 59.4217 18.3753 59.3729 18.3761Z" fill="#FDAF3E"/>
<path d="M58.9583 18.2582C59.0026 18.0548 58.9416 17.8593 58.9028 17.6656C58.8126 17.2199 58.7453 16.768 58.5841 16.3391C58.5774 16.2877 58.58 16.2372 58.638 16.2201C58.6961 16.2029 58.7027 16.2572 58.7249 16.289C58.7334 16.3 58.7399 16.3125 58.7441 16.3257C58.9066 16.9839 59.1321 17.6313 59.0962 18.3242C59.0962 18.3568 59.0866 18.3885 59.074 18.4683C59.0394 18.3576 59.0085 18.302 58.9583 18.2582Z" fill="#090B0B"/>
<path d="M60.1274 16.6707C60.1274 16.608 60.1245 16.507 60.0576 16.5224C59.8488 16.5721 59.7653 16.3758 59.612 16.3232C59.5732 16.3103 59.5352 16.2948 59.4688 16.2702L59.7106 16.0459C59.8659 16.1144 60.0075 16.1879 60.1207 16.3328C60.2222 16.4635 60.2268 16.5558 60.1274 16.6707Z" fill="#FDAF3E"/>
<path d="M58.5428 16.3389C58.5223 16.5425 58.3993 16.681 58.25 16.8019C58.3211 16.6312 58.4018 16.466 58.5428 16.3389Z" fill="#6A6E6F"/>
<path d="M59.2988 16.5029C59.349 16.6537 59.349 16.8168 59.2988 16.9676V16.5029Z" fill="#5F5F60"/>
<path d="M36.8365 28.3138C36.7074 28.3414 36.6736 28.4429 36.616 28.5481C36.4447 28.8605 36.238 29.1537 36.0605 29.4636C36.0246 29.5211 35.977 29.5704 35.9208 29.6084C35.8646 29.6464 35.8011 29.6722 35.7343 29.6841C35.6554 29.7016 35.6925 29.7756 35.6387 29.7714C35.6621 29.5113 35.685 29.2511 35.7076 28.9908C35.7067 28.9702 35.71 28.9497 35.7171 28.9304C35.7243 28.9111 35.7353 28.8935 35.7493 28.8785C36.0275 28.6254 36.1804 28.2904 36.337 27.9596C36.398 27.8314 36.4435 27.8427 36.5232 27.9329C36.6323 28.0574 36.7659 28.1597 36.8365 28.3138Z" fill="black"/>
<path d="M36.9318 26.8842C36.8316 26.7815 36.7315 26.6786 36.6315 26.5756C36.6215 26.5661 36.6122 26.5558 36.604 26.5447C36.5376 26.4449 36.6457 25.7031 36.7435 25.6376C36.8813 25.5461 37.0275 25.4672 37.1699 25.3828C37.2008 25.4246 37.2572 25.455 37.2375 25.521C37.1051 25.9688 37.1164 26.4486 36.9318 26.8842Z" fill="black"/>
<path d="M84.9873 28H80.1974L77.2102 23.2101L74.2545 28H69.5694L74.6528 20.16L69.8733 12.6764H74.4641L77.2312 17.4139L79.8934 12.6764H84.6204L79.7676 20.485L84.9873 28ZM91.9519 12.6764C93.3424 12.6764 94.4988 12.8476 95.4212 13.19C96.3435 13.5254 97.0353 14.0285 97.4964 14.6993C97.9646 15.3701 98.1987 16.2051 98.1987 17.2043C98.1987 17.8262 98.0939 18.3922 97.8843 18.9023C97.6746 19.4124 97.3742 19.8701 96.9829 20.2753C96.5986 20.6736 96.1374 21.023 95.5993 21.3234L100.064 28H95.3688L92.1196 22.424H91.0714V28H86.9314V12.6764H91.9519ZM91.889 15.8103H91.0714V19.3111H91.8471C92.4829 19.3111 93.0035 19.1713 93.4088 18.8918C93.814 18.6123 94.0167 18.1127 94.0167 17.393C94.0167 16.8969 93.849 16.5091 93.5136 16.2296C93.1782 15.9501 92.6366 15.8103 91.889 15.8103ZM105.551 16.1248V28H101.453V16.1248H105.551ZM103.518 11.3453C104.105 11.3453 104.615 11.4676 105.048 11.7122C105.488 11.9567 105.708 12.4423 105.708 13.169C105.708 13.8748 105.488 14.3534 105.048 14.605C104.615 14.8495 104.105 14.9718 103.518 14.9718C102.917 14.9718 102.403 14.8495 101.977 14.605C101.558 14.3534 101.348 13.8748 101.348 13.169C101.348 12.4423 101.558 11.9567 101.977 11.7122C102.403 11.4676 102.917 11.3453 103.518 11.3453ZM112.316 28.2096C111.094 28.2096 110.087 27.6891 109.298 26.6479C108.508 25.6068 108.114 24.0835 108.114 22.0781C108.114 20.0517 108.519 18.518 109.329 17.4768C110.14 16.4357 111.188 15.9151 112.474 15.9151C113.005 15.9151 113.462 15.992 113.847 16.1457C114.231 16.2994 114.563 16.5091 114.842 16.7746C115.129 17.0331 115.377 17.3266 115.587 17.655H115.67C115.622 17.3546 115.576 16.9423 115.534 16.4182C115.492 15.8872 115.471 15.3701 115.471 14.867V11.6912H119.601V28H116.509L115.629 26.5012H115.471C115.283 26.8156 115.045 27.1021 114.759 27.3606C114.479 27.6192 114.137 27.8253 113.731 27.979C113.333 28.1328 112.862 28.2096 112.316 28.2096ZM113.993 24.9709C114.65 24.9709 115.111 24.7648 115.377 24.3525C115.65 23.9333 115.796 23.2974 115.817 22.4449V22.12C115.817 21.1837 115.684 20.4675 115.419 19.9714C115.16 19.4683 114.671 19.2167 113.952 19.2167C113.462 19.2167 113.057 19.4543 112.736 19.9294C112.414 20.4046 112.254 21.1418 112.254 22.141C112.254 23.1262 112.414 23.8459 112.736 24.3001C113.064 24.7473 113.483 24.9709 113.993 24.9709ZM128.001 15.9151C129.154 15.9151 130.15 16.1178 130.989 16.523C131.827 16.9213 132.473 17.5223 132.928 18.3258C133.382 19.1294 133.609 20.1356 133.609 21.3444V23.1681H126.283C126.317 23.79 126.548 24.3001 126.974 24.6984C127.408 25.0967 128.043 25.2958 128.882 25.2958C129.623 25.2958 130.3 25.2225 130.915 25.0757C131.537 24.929 132.176 24.7019 132.833 24.3945V27.3397C132.26 27.6401 131.635 27.8603 130.957 28C130.279 28.1397 129.423 28.2096 128.389 28.2096C127.194 28.2096 126.125 27.9965 125.182 27.5703C124.239 27.144 123.495 26.4837 122.95 25.5893C122.411 24.6949 122.142 23.5455 122.142 22.141C122.142 20.7155 122.387 19.5451 122.876 18.6298C123.365 17.7074 124.05 17.0261 124.93 16.5859C125.811 16.1387 126.835 15.9151 128.001 15.9151ZM128.148 18.7031C127.666 18.7031 127.261 18.8569 126.932 19.1643C126.611 19.4648 126.422 19.9399 126.366 20.5898H129.888C129.881 20.2404 129.811 19.9225 129.678 19.636C129.546 19.3495 129.35 19.1224 129.092 18.9547C128.84 18.787 128.526 18.7031 128.148 18.7031Z" fill="black"/>
<path d="M146.485 28H135.364V25.2749L139.106 21.4911C139.882 20.6806 140.483 20.0308 140.909 19.5416C141.342 19.0525 141.646 18.6368 141.821 18.2944C141.995 17.952 142.083 17.5956 142.083 17.2253C142.083 16.7711 141.936 16.4427 141.643 16.24C141.349 16.0374 141.003 15.9361 140.605 15.9361C140.123 15.9361 139.634 16.0758 139.138 16.3553C138.648 16.6279 138.093 17.0331 137.471 17.5712L135.197 14.9089C135.658 14.4967 136.147 14.1054 136.664 13.735C137.181 13.3577 137.792 13.0503 138.498 12.8127C139.204 12.5751 140.063 12.4563 141.077 12.4563C142.118 12.4563 143.019 12.638 143.781 13.0013C144.549 13.3647 145.143 13.8643 145.563 14.5002C145.982 15.129 146.191 15.8453 146.191 16.6488C146.191 17.5362 146.027 18.3293 145.699 19.0281C145.377 19.7198 144.892 20.4151 144.242 21.1138C143.592 21.8056 142.782 22.5917 141.81 23.4721L140.689 24.4783V24.5831H146.485V28ZM154.477 17.959C155.329 17.959 156.105 18.1511 156.804 18.5354C157.502 18.9198 158.061 19.4788 158.48 20.2124C158.9 20.9461 159.109 21.8405 159.109 22.8956C159.109 24.0346 158.879 25.0024 158.418 25.7989C157.963 26.5885 157.275 27.1895 156.353 27.6017C155.437 28.007 154.281 28.2096 152.884 28.2096C151.996 28.2096 151.186 28.1397 150.452 28C149.725 27.8672 149.075 27.6611 148.502 27.3816V23.9857C149.04 24.2302 149.687 24.4538 150.441 24.6565C151.203 24.8521 151.902 24.95 152.538 24.95C153.048 24.95 153.481 24.8766 153.837 24.7299C154.194 24.5831 154.463 24.3665 154.644 24.08C154.833 23.7935 154.927 23.4407 154.927 23.0214C154.927 22.4414 154.718 21.9873 154.298 21.6588C153.879 21.3234 153.243 21.1557 152.391 21.1557C152.007 21.1557 151.629 21.1942 151.259 21.271C150.889 21.3479 150.564 21.4318 150.284 21.5226L148.764 20.7679L149.341 12.6764H158.082V16.1248H152.863L152.674 18.1476C152.897 18.1057 153.125 18.0638 153.355 18.0219C153.593 17.9799 153.967 17.959 154.477 17.959Z" fill="#FDAF3E"/>
<defs>
<linearGradient id="paint0_linear_9501_130" x1="17.0562" y1="9.41752" x2="42.5206" y2="9.41752" gradientUnits="userSpaceOnUse">
<stop offset="0.24" stop-color="#FDAF3E"/>
<stop offset="1" stop-color="white"/>
</linearGradient>
<linearGradient id="paint1_linear_9501_130" x1="5.08105" y1="23.9356" x2="18.8051" y2="23.9356" gradientUnits="userSpaceOnUse">
<stop offset="0.24" stop-color="#FDAF3E"/>
<stop offset="1" stop-color="white"/>
</linearGradient>
<linearGradient id="paint2_linear_9501_130" x1="41.0151" y1="9.70891" x2="48.9606" y2="9.70891" gradientUnits="userSpaceOnUse">
<stop offset="0.24" stop-color="#FDAF3E"/>
<stop offset="1" stop-color="white"/>
</linearGradient>
<linearGradient id="paint3_linear_9501_130" x1="50.3481" y1="8.26958" x2="55.782" y2="8.26958" gradientUnits="userSpaceOnUse">
<stop offset="0.24" stop-color="#FDAF3E"/>
<stop offset="1" stop-color="white"/>
</linearGradient>
<linearGradient id="paint4_linear_9501_130" x1="46.6069" y1="9.51776" x2="50.0906" y2="9.51776" gradientUnits="userSpaceOnUse">
<stop offset="0.24" stop-color="#FDAF3E"/>
<stop offset="1" stop-color="white"/>
</linearGradient>
</defs>
</svg>
