<?xml version="1.0" encoding="utf-8"?>
<!-- Generator: Adobe Illustrator 24.3.0, SVG Export Plug-In . SVG Version: 6.00 Build 0)  -->
<svg version="1.1" id="Layer_1" xmlns="http://www.w3.org/2000/svg" xmlns:xlink="http://www.w3.org/1999/xlink" x="0px" y="0px"
	 viewBox="0 0 512 512" style="enable-background:new 0 0 512 512;" xml:space="preserve">
<style type="text/css">
	.st0{fill:#249577;}
</style>
<path class="st0" d="M232.8,23H43.3C19.4,23,0,42,0,65.5c0,0.3,0.1,0.6,0.1,0.9c0,0.3-0.1,0.6-0.1,0.9v275.4c0,5.1,4.2,9.3,9.3,9.3
	s9.3-4.2,9.3-9.3V67.3c0-0.3-0.1-0.6-0.1-0.9c0-0.3,0.1-0.6,0.1-0.9c0-13.1,11.1-23.8,24.7-23.8h189.4c13.6,0,24.7,10.7,24.7,23.8
	v18.6H55.9c-5.1,0-9.3,4.2-9.3,9.3c0,5.1,4.2,9.3,9.3,9.3h201.5v343.8c0,13.1-11.1,23.8-24.7,23.8H43.3c-13.6,0-24.7-10.7-24.7-23.8
	v-49.8h201.5c5.1,0,9.3-4.2,9.3-9.3c0-5.1-4.2-9.3-9.3-9.3H9.3c-5.1,0-9.3,4.2-9.3,9.3v59.1C0,470,19.4,489,43.3,489h189.4
	c23.9,0,43.3-19.1,43.3-42.5V65.5C276.1,42,256.6,23,232.8,23z"/>
<path class="st0" d="M122.8,424.3c-5.1,0-9.3,4.2-9.3,9.3c0,5.1,4.2,9.3,9.3,9.3h27.4c5.1,0,9.3-4.2,9.3-9.3c0-5.1-4.2-9.3-9.3-9.3
	H122.8z M313.4,386.5c11.4-0.1,21,8.6,22.1,19.9c0.5,5.1,5.1,8.9,10.2,8.3c0.9-0.1,1.8-0.3,2.6-0.7l52.1-21.6c4.8-2,7-7.4,5-12.2
	c-0.3-0.8-0.8-1.6-1.4-2.3c-7.2-8.8-6.6-21.7,1.5-29.8c8.1-8.1,20.9-8.8,29.8-1.5c4,3.2,9.9,2.6,13.1-1.4c0.6-0.7,1-1.5,1.4-2.3
	l21.6-52.1c2-4.8-0.3-10.2-5.1-12.2c-0.8-0.3-1.7-0.6-2.6-0.7c-11.4-1.1-20-10.7-20-22.1c0-11.4,8.6-21,20-22.1
	c5.1-0.5,8.9-5.1,8.3-10.2c-0.1-0.9-0.3-1.8-0.7-2.6l-21.6-52.1c-2-4.8-7.4-7-12.2-5c-0.8,0.3-1.6,0.8-2.3,1.4
	c-8.8,7.2-21.7,6.6-29.8-1.5c-8.1-8.1-8.7-20.9-1.5-29.8c3.2-4,2.6-9.9-1.4-13.1c-0.7-0.6-1.5-1-2.3-1.4l-52.1-21.6
	c-4.8-2-10.2,0.3-12.2,5c-0.3,0.8-0.6,1.7-0.7,2.6c-1.1,11.4-10.7,20-22.1,19.9c-5.1,0-9.3,4.2-9.3,9.3s4.2,9.3,9.3,9.3
	c16.4,0.1,31.3-9.8,37.7-25l32.4,13.4c-6.2,15.2-2.6,32.7,9,44.3c11.6,11.7,29.1,15.2,44.3,9l13.4,32.4c-15.2,6.4-25,21.2-25,37.7
	c-0.1,16.5,9.8,31.3,25,37.7l-13.4,32.4c-15.2-6.2-32.7-2.7-44.3,9c-11.6,11.6-15.2,29.1-9,44.3l-32.4,13.4
	c-6.4-15.2-21.2-25-37.7-25c-5.1,0-9.3,4.2-9.3,9.3C304.1,382.4,308.2,386.5,313.4,386.5z"/>
<path class="st0" d="M313.4,317.9c-5.1,0-9.3,4.2-9.3,9.3c0,5.1,4.2,9.3,9.3,9.3c44.4,0,80.6-36.2,80.6-80.6
	c0-44.4-36.1-80.6-80.6-80.6c-5.1,0-9.3,4.2-9.3,9.3s4.2,9.3,9.3,9.3c34.1,0,61.9,27.8,61.9,61.9
	C375.3,290.2,347.5,317.9,313.4,317.9z"/>
<path class="st0" d="M313.4,57.4c-5.1,0-9.3,4.2-9.3,9.3s4.2,9.3,9.3,9.3c99.2,0,180,80.7,180,180s-80.7,180-180,180
	c-5.1,0-9.3,4.2-9.3,9.3c0,5.1,4.2,9.3,9.3,9.3C422.9,454.6,512,365.5,512,256S422.9,57.4,313.4,57.4z M35.7,319
	c0,11.8,9.6,21.3,21.3,21.3h14.5c11.8,0,21.3-9.6,21.3-21.3v-13.5c0-11.8-9.6-21.3-21.3-21.3H57c-11.8,0-21.3,9.6-21.3,21.3V319z
	 M54.3,305.6c0-1.5,1.2-2.7,2.7-2.7h14.5c1.5,0,2.7,1.2,2.7,2.7V319c0,1.5-1.2,2.7-2.7,2.7H57c-1.5,0-2.7-1.2-2.7-2.7V305.6z
	 M109.5,319c0,11.8,9.6,21.3,21.3,21.3h14.5c11.8,0,21.3-9.6,21.3-21.3v-13.5c0-11.8-9.6-21.3-21.3-21.3h-14.5
	c-11.8,0-21.3,9.6-21.3,21.3V319z M128.1,305.6c0-1.5,1.2-2.7,2.7-2.7h14.5c1.5,0,2.7,1.2,2.7,2.7V319c0,1.5-1.2,2.7-2.7,2.7h-14.5
	c-1.5,0-2.7-1.2-2.7-2.7V305.6z M183.2,319c0,11.8,9.6,21.3,21.3,21.3H219c11.8,0,21.3-9.6,21.3-21.3v-13.5
	c0-11.8-9.6-21.3-21.3-21.3h-14.5c-11.8,0-21.3,9.6-21.3,21.3V319z M201.9,305.6c0-1.5,1.2-2.7,2.7-2.7H219c1.5,0,2.7,1.2,2.7,2.7
	V319c0,1.5-1.2,2.7-2.7,2.7h-14.5c-1.5,0-2.7-1.2-2.7-2.7V305.6z M35.7,247.2c0,11.8,9.6,21.3,21.3,21.3h14.5
	c11.8,0,21.3-9.6,21.3-21.3v-13.5c0-11.8-9.6-21.3-21.3-21.3H57c-11.8,0-21.3,9.6-21.3,21.3C35.7,233.7,35.7,247.2,35.7,247.2z
	 M54.3,233.7c0-1.5,1.2-2.7,2.7-2.7h14.5c1.5,0,2.7,1.2,2.7,2.7v13.5c0,1.5-1.2,2.7-2.7,2.7H57c-1.5,0-2.7-1.2-2.7-2.7V233.7z
	 M109.5,247.2c0,11.8,9.6,21.3,21.3,21.3h14.5c11.8,0,21.3-9.6,21.3-21.3v-13.5c0-11.8-9.6-21.3-21.3-21.3h-14.5
	c-11.8,0-21.3,9.6-21.3,21.3C109.5,233.7,109.5,247.2,109.5,247.2z M128.1,233.7c0-1.5,1.2-2.7,2.7-2.7h14.5c1.5,0,2.7,1.2,2.7,2.7
	v13.5c0,1.5-1.2,2.7-2.7,2.7h-14.5c-1.5,0-2.7-1.2-2.7-2.7V233.7z M183.2,247.2c0,11.8,9.6,21.3,21.3,21.3H219
	c11.8,0,21.3-9.6,21.3-21.3v-13.5c0-11.8-9.6-21.3-21.3-21.3h-14.5c-11.8,0-21.3,9.6-21.3,21.3C183.2,233.7,183.2,247.2,183.2,247.2
	z M201.9,233.7c0-1.5,1.2-2.7,2.7-2.7H219c1.5,0,2.7,1.2,2.7,2.7v13.5c0,1.5-1.2,2.7-2.7,2.7h-14.5c-1.5,0-2.7-1.2-2.7-2.7V233.7z
	 M57,196.6h14.5c11.8,0,21.3-9.6,21.3-21.3v-13.5c0-11.8-9.6-21.3-21.3-21.3H57c-11.8,0-21.3,9.6-21.3,21.3v13.5
	C35.7,187.1,45.3,196.6,57,196.6z M54.3,161.8c0-1.5,1.2-2.7,2.7-2.7h14.5c1.5,0,2.7,1.2,2.7,2.7v13.5c0,1.5-1.2,2.7-2.7,2.7H57
	c-1.5,0-2.7-1.2-2.7-2.7V161.8z M130.8,196.6h14.5c11.8,0,21.3-9.6,21.3-21.3v-13.5c0-11.8-9.6-21.3-21.3-21.3h-14.5
	c-11.8,0-21.3,9.6-21.3,21.3v13.5C109.5,187.1,119,196.6,130.8,196.6z M128.1,161.8c0-1.5,1.2-2.7,2.7-2.7h14.5
	c1.5,0,2.7,1.2,2.7,2.7v13.5c0,1.5-1.2,2.7-2.7,2.7h-14.5c-1.5,0-2.7-1.2-2.7-2.7V161.8z M204.6,196.6h14.5
	c11.8,0,21.3-9.6,21.3-21.3v-13.5c0-11.8-9.6-21.3-21.3-21.3h-14.5c-11.8,0-21.3,9.6-21.3,21.3v13.5
	C183.3,187.1,192.8,196.6,204.6,196.6z M201.9,161.8c0-1.5,1.2-2.7,2.7-2.7H219c1.5,0,2.7,1.2,2.7,2.7v13.5c0,1.5-1.2,2.7-2.7,2.7
	h-14.5c-1.5,0-2.7-1.2-2.7-2.7V161.8z"/>
</svg>
