<?xml version="1.0" encoding="utf-8"?>
<!-- Generator: Adobe Illustrator 24.3.0, SVG Export Plug-In . SVG Version: 6.00 Build 0)  -->
<svg version="1.1" id="Layer_1" xmlns="http://www.w3.org/2000/svg" xmlns:xlink="http://www.w3.org/1999/xlink" x="0px" y="0px"
	 viewBox="0 0 512 512" style="enable-background:new 0 0 512 512;" xml:space="preserve">
<style type="text/css">
	.st0{fill:#C0731B;}
</style>
<path class="st0" d="M188.8,487.2c-15.2,0-28-12.8-28-28s12.8-28,28-28s28,12.8,28,28S204,487.2,188.8,487.2z M188.8,445.6
	c-8,0-13.6,6.4-13.6,13.6c0,8,6.4,13.6,13.6,13.6s13.6-6.4,13.6-13.6C202.4,451.2,196,445.6,188.8,445.6z M223.2,62.4h-68.8
	c-4,0-7.2-3.2-7.2-7.2s3.2-7.2,7.2-7.2h68.8c4,0,7.2,3.2,7.2,7.2S227.2,62.4,223.2,62.4z"/>
<path class="st0" d="M343.2,372.8c-12.8,0-6.4,18.4-8,32.8H42.4V96.8h203.2c4.8,0,8-3.2,8-8s-3.2-8-8-8H42.4V55.2
	c0-12,9.6-24.8,24.8-24.8h232c4.8,0,8-3.2,8-8s-3.2-8-8-8h-232c-24,0-40.8,20-40.8,40.8v416c0,22.4,18.4,40.8,40.8,40.8h242.4
	c21.6,0,40.8-17.6,40.8-40.8C351.2,380,354.4,372.8,343.2,372.8z M309.6,496H67.2c-14.4,0-24.8-12-24.8-24.8v-48.8h292.8v48.8
	C335.2,484,324,496,309.6,496z"/>
<path class="st0" d="M484,3.2c-0.8-1.6-3.2-3.2-5.6-3.2c-53.6,0-140.8,8-172.8,51.2l-51.2,67.2c-47.2-9.6-95.2,5.6-129.6,39.2
	c-12,12-20.8,24.8-28,39.2c-1.6,3.2-0.8,6.4,1.6,8.8c1.6,1.6,3.2,2.4,5.6,2.4c0.8,0,2.4,0,3.2-0.8c26.4-12.8,56.8-16,85.6-8.8
	c-0.8,0.8-18.4,24-17.6,22.4c-5.6,7.2-6.4,14.4-4.8,22.4l-13.6,16c-4,4-4,9.6-0.8,14.4l2.4,2.4l-21.6,24.8c-3.2,4-4,9.6-0.8,13.6
	c1.6,1.6,3.2,3.2,4.8,4l-20,27.2c-3.2,4.8-3.2,10.4,0.8,14.4c2.4,2.4,4.8,3.2,8,3.2c2.4,0,4.8-0.8,6.4-2.4l28-19.2
	c0.8,1.6,2.4,4,4,4.8c4,3.2,9.6,2.4,13.6-0.8l25.6-20.8c0.8,0.8,1.6,2.4,2.4,3.2c4,3.2,10.4,3.2,14.4-0.8l16.8-13.6
	c20.8,4.8,28.8-12,39.2-16.8l6.4-4.8c7.2,28.8,4,59.2-8.8,85.6c-1.6,3.2-0.8,6.4,1.6,8.8c1.6,1.6,4,2.4,5.6,2.4c0.8,0,2.4,0,3.2-0.8
	c57.6-28,92-91.2,78.4-157.6l66.4-51.2C486.4,141.6,488.8,11.2,484,3.2z M469.6,16c0,10.4-0.8,28.8-3.2,49.6L420,19.2
	C429.6,17.6,455.2,16,469.6,16z M163.2,179.2c-13.6,0-27.2,1.6-40.8,5.6c4-5.6,8.8-11.2,13.6-16c28.8-28,68-41.6,107.2-36l-40,52
	C190.4,180.8,176.8,179.2,163.2,179.2z M222.4,308.8c-0.8-0.8-1.6-2.4-2.4-3.2c-4-3.2-9.6-3.2-14.4,0.8l-24.8,20
	c-0.8-1.6-1.6-3.2-3.2-4c-4-3.2-9.6-3.2-13.6,0l-12,8.8l8.8-12c3.2-4,3.2-9.6,0-13.6c-0.8-1.6-2.4-2.4-4-3.2l20.8-24
	c3.2-4,4-10.4,0.8-14.4c-0.8-0.8-1.6-1.6-3.2-2.4l4-4l47.2,47.2C226.4,304.8,222.4,308.8,222.4,308.8z M255.2,296.8
	C255.2,296.8,254.4,297.6,255.2,296.8c-4.8,3.2-9.6,2.4-13.6-0.8l-52-52c-3.2-3.2-4-8-1.6-12c1.6-1.6,6.4-8.8,8-10.4l68.8,68
	L255.2,296.8z M300.8,363.2c8-26.4,8-54.4,0-80.8l52-40C359.2,287.2,341.6,333.6,300.8,363.2z M424.8,168
	c-56,42.4-119.2,90.4-148,112.8l-71.2-71.2C286.4,103.2,258.4,140,264,132l53.6-71.2C333.6,39.2,368,28,400,22.4l63.2,63.2
	C457.6,117.6,446.4,152,424.8,168z"/>
<path class="st0" d="M357.6,69.6c-16,16-16,42.4,0,58.4s42.4,16,58.4,0s16-42.4,0-58.4S373.6,53.6,357.6,69.6z M404.8,116.8
	c-9.6,9.6-26.4,10.4-36,0c-9.6-9.6-9.6-26.4,0-36s26.4-9.6,36,0C415.2,91.2,414.4,107.2,404.8,116.8z"/>
</svg>
