<?xml version="1.0" encoding="utf-8"?>
<!-- Generator: Adobe Illustrator 26.0.1, SVG Export Plug-In . SVG Version: 6.00 Build 0)  -->
<svg version="1.1" id="Layer_1" xmlns="http://www.w3.org/2000/svg" xmlns:xlink="http://www.w3.org/1999/xlink" x="0px" y="0px"
	 viewBox="0 0 50 50" style="enable-background:new 0 0 50 50;" xml:space="preserve">
<style type="text/css">
	.st0{fill:#19B4ED;}
</style>
<g>
	<g>
		<path class="st0" d="M25,50C11.2,50,0,38.8,0,25S11.2,0,25,0s25,11.2,25,25S38.8,50,25,50z M25,1.8C12.2,1.8,1.8,12.2,1.8,25
			S12.2,48.2,25,48.2S48.2,37.8,48.2,25S37.8,1.8,25,1.8z"/>
	</g>
	<g>
		<path class="st0" d="M20.5,35.5c-0.6,0-1.2-0.2-1.7-0.5c-1.2-0.7-1.9-1.9-1.9-3.3V18.3c0-1.4,0.7-2.7,1.9-3.3
			c1.1-0.6,2.4-0.6,3.5,0l11.4,6.7c1.2,0.7,1.8,1.9,1.8,3.3c0,1.4-0.7,2.6-1.8,3.3L22.3,35C21.7,35.4,21.1,35.5,20.5,35.5z
			 M20.5,16.2c-0.3,0-0.6,0.1-0.9,0.2c-0.6,0.4-1,1-1,1.8v13.4c0,0.8,0.4,1.5,1,1.8c0.6,0.3,1.2,0.3,1.8,0l11.4-6.7
			c0.6-0.4,1-1,1-1.8c0-0.8-0.4-1.4-1-1.8l-11.4-6.7C21.1,16.3,20.8,16.2,20.5,16.2z"/>
	</g>
</g>
</svg>
