<?xml version="1.0" encoding="utf-8"?>
<!-- Generator: Adobe Illustrator 24.3.0, SVG Export Plug-In . SVG Version: 6.00 Build 0)  -->
<svg version="1.1" id="Layer_1" xmlns="http://www.w3.org/2000/svg" xmlns:xlink="http://www.w3.org/1999/xlink" x="0px" y="0px"
	 viewBox="0 0 16 9" style="enable-background:new 0 0 16 9;" xml:space="preserve">
<style type="text/css">
	.st0{fill:#FFD615;}
	.st1{fill:#3E3643;}
</style>
<path class="st0" d="M14.4,3.4l-2.9-2.9v5.9L14.4,3.4z"/>
<path class="st1" d="M3.5,4h-3C0.2,4,0,4.2,0,4.5S0.2,5,0.5,5h3C3.8,5,4,4.8,4,4.5S3.8,4,3.5,4z M15.9,4.1l-4-4
	C11.8,0,11.5-0.1,11.4,0C11.1,0.1,11,0.3,11,0.5V4H5.5C5.2,4,5,4.2,5,4.5S5.2,5,5.5,5H11v3.5c0,0.2,0.1,0.4,0.3,0.5
	c0.1,0,0.1,0,0.2,0s0.3-0.1,0.4-0.1l4-4C16,4.7,16,4.3,15.9,4.1z M12,7.3V1.7l2.8,2.8L12,7.3z"/>
<path class="st1" d="M11.9,8.9c0,0-0.1,0.1-0.4,0.1c-0.3,0,0.1-0.2,0.1-0.2L11.9,8.9L11.9,8.9z"/>
</svg>
