<svg width="90" height="90" viewBox="0 0 90 90" fill="none" xmlns="http://www.w3.org/2000/svg">
<g id="taxi_2282323 1" clip-path="url(#clip0_1_1039)">
<path id="Vector" d="M88.6818 14.5627C88.6818 7.3253 82.8739 1.44419 75.6645 1.32624C68.3443 1.20636 62.2494 7.16007 62.2053 14.4812C62.1751 19.5045 64.9436 23.8825 69.0422 26.1509C69.8726 26.6104 70.5621 27.2874 71.0754 28.0856L74.0509 32.7139C74.7025 33.7276 76.1843 33.7276 76.8361 32.7139L79.8118 28.0852C80.3259 27.2854 81.0183 26.6089 81.8499 26.148C85.9235 23.8911 88.6818 19.5498 88.6818 14.5627Z" fill="#FB2B3A"/>
<path id="Vector_2" d="M88.6826 14.5635C88.6826 19.549 85.9225 23.8904 81.8502 26.1475C81.0185 26.6096 80.3263 27.2853 79.8122 28.0853L76.8369 32.7145C76.1835 33.7279 74.7024 33.7279 74.0509 32.7145L73.3381 31.6046C73.715 31.5044 74.0639 31.2704 74.3033 30.8992L77.2788 26.27C77.793 25.47 78.4854 24.7926 79.3168 24.3322C83.3911 22.0752 86.1492 17.7337 86.1492 12.7463C86.1492 8.87434 84.4862 5.39053 81.8356 2.96826C85.917 5.2216 88.6826 9.57043 88.6826 14.5635Z" fill="#E41F2D"/>
<path id="Vector_3" d="M75.4437 20.9894C78.9929 20.9894 81.8702 18.1121 81.8702 14.5628C81.8702 11.0135 78.9929 8.13623 75.4437 8.13623C71.8944 8.13623 69.0171 11.0135 69.0171 14.5628C69.0171 18.1121 71.8944 20.9894 75.4437 20.9894Z" fill="#EBEBEB"/>
<path id="Vector_4" d="M13.0669 52.9026H3.33915C2.23208 52.9026 1.33472 52.0052 1.33472 50.8981V48.1099C1.33472 47.0028 2.23208 46.1055 3.33915 46.1055H13.0669V52.9026Z" fill="#5A5A5A"/>
<path id="Vector_5" d="M72.426 52.9026H82.1538C83.2608 52.9026 84.1582 52.0052 84.1582 50.8981V48.1099C84.1582 47.0028 83.2608 46.1055 82.1538 46.1055H72.426V52.9026Z" fill="#5A5A5A"/>
<path id="Vector_6" d="M69.2134 37.5901C68.024 35.2594 65.6285 33.7924 63.0118 33.7924H42.7463H22.4809C19.8644 33.7924 17.4686 35.2594 16.2793 37.5901L8.46582 52.9026H42.7462H77.0265L69.2134 37.5901Z" fill="#8AC9FE"/>
<path id="Vector_7" d="M77.0272 52.9021H72.5831L64.7703 37.5901C63.5814 35.2589 61.1849 33.7931 58.5686 33.7931H63.0127C65.6292 33.7931 68.0239 35.2589 69.2129 37.5901L77.0272 52.9021Z" fill="#60B7FF"/>
<path id="Vector_8" d="M50.6496 25.08H34.5096C33.5679 25.08 32.7099 25.621 32.3042 26.4709L28.8081 33.7933H42.5795H56.3509L52.8548 26.4709C52.4493 25.621 51.5915 25.08 50.6496 25.08Z" fill="#FAC600"/>
<path id="Vector_9" d="M56.3506 33.7931H52.9187L49.4217 26.4707C49.0165 25.6203 48.1576 25.08 47.217 25.08H50.649C51.5912 25.08 52.45 25.6203 52.8552 26.4707L56.3506 33.7931Z" fill="#E0AE10"/>
<path id="Vector_10" d="M11.2919 88.6755H4.46811C2.72841 88.6755 1.31812 87.2652 1.31812 85.5255V67.433H14.4418V85.5255C14.4419 87.2652 13.0317 88.6755 11.2919 88.6755Z" fill="#5A5A5A"/>
<path id="Vector_11" d="M81.0246 88.6755H74.2008C72.4611 88.6755 71.0508 87.2652 71.0508 85.5255V67.4332H84.1744V85.5255C84.1746 87.2652 82.7643 88.6755 81.0246 88.6755Z" fill="#5A5A5A"/>
<path id="Vector_12" d="M14.4419 67.4327V85.5255C14.4419 87.2656 13.0323 88.6751 11.2924 88.6751H7.78613C9.52619 88.6751 10.9356 87.2656 10.9356 85.5255V67.4327H14.4419Z" fill="#444444"/>
<path id="Vector_13" d="M84.1746 67.4329V85.5255C84.1746 87.2656 82.765 88.6751 81.0251 88.6751H77.5188C79.2589 88.6751 80.67 87.2656 80.67 85.5255V67.4329H84.1746Z" fill="#444444"/>
<path id="Vector_14" d="M77.0042 52.9026H42.7462H8.48841L5.90917 54.0489C3.11741 55.2897 1.31812 58.0583 1.31812 61.1133V67.1196C1.31812 68.7356 1.92808 70.2917 3.02583 71.4774L13.1127 82.3713C14.0586 83.3929 15.3878 83.9735 16.78 83.9735H42.7462H68.7125C70.1047 83.9735 71.4339 83.3927 72.3798 82.3713L82.4667 71.4774C83.5644 70.2917 84.1744 68.7354 84.1744 67.1196V61.1133C84.1744 58.0583 82.3751 55.2895 79.5833 54.0489L77.0042 52.9026Z" fill="#FAC600"/>
<path id="Vector_15" d="M80.8999 54.7963C82.9277 56.2262 84.1747 58.5705 84.1747 61.1131V67.1205C84.1747 68.7357 83.5649 70.291 82.4663 71.4774L72.3796 82.3707C71.4341 83.3936 70.1053 83.9737 68.7133 83.9737H16.7794C15.3874 83.9737 14.0587 83.3936 13.1132 82.3707L10.6877 79.7519C11.4311 80.165 12.2766 80.3881 13.1448 80.3881H66.971C68.3823 80.3881 69.7304 79.7994 70.6882 78.764C73.5935 75.6269 76.453 72.5387 79.3565 69.4033C80.6712 67.9832 81.0737 66.897 81.0526 64.8583L80.8999 54.7963Z" fill="#E0AE10"/>
<path id="Vector_16" d="M45.2241 71.274H29.1222C28.3375 71.274 27.7861 72.0463 28.0405 72.7884L29.7853 77.8776C29.9438 78.3397 30.3784 78.6504 30.867 78.6504H45.2241H54.6256C55.1143 78.6504 55.5488 78.3399 55.7074 77.8776L57.4522 72.7884C57.7067 72.0463 57.1551 71.274 56.3704 71.274H45.2241Z" fill="#5A5A5A"/>
<path id="Vector_17" d="M57.4527 72.7886L55.7074 77.8785C55.5492 78.3408 55.1132 78.65 54.6247 78.65H30.8679C30.3775 78.65 29.9435 78.3406 29.7853 77.8785L29.1069 75.8978C29.128 75.9013 29.1509 75.9013 29.1737 75.9013H52.2821C52.7585 75.9013 53.1802 75.599 53.3349 75.1491L54.6636 71.2737H56.3703C57.1556 71.2735 57.7058 72.0468 57.4527 72.7886Z" fill="#444444"/>
<path id="Vector_18" d="M15.9578 70.2445C18.8702 70.2445 21.2311 67.8835 21.2311 64.9712C21.2311 62.0589 18.8702 59.6979 15.9578 59.6979C13.0455 59.6979 10.6846 62.0589 10.6846 64.9712C10.6846 67.8835 13.0455 70.2445 15.9578 70.2445Z" fill="#EBEBEB"/>
<path id="Vector_19" d="M69.535 70.2445C72.4473 70.2445 74.8082 67.8835 74.8082 64.9712C74.8082 62.0589 72.4473 59.6979 69.535 59.6979C66.6226 59.6979 64.2617 62.0589 64.2617 64.9712C64.2617 67.8835 66.6226 70.2445 69.535 70.2445Z" fill="#EBEBEB"/>
<path id="Vector_20" d="M36.4448 52.9019H31.6678C31.6678 50.2638 29.5289 48.1249 26.889 48.1249C24.2509 48.1249 22.112 50.2638 22.112 52.9019H17.335C17.335 47.6257 21.6128 43.3478 26.889 43.3478C32.1669 43.3477 36.4448 47.6257 36.4448 52.9019Z" fill="#5A5A5A"/>
<path id="Vector_21" d="M15.9577 58.3799C12.3233 58.3799 9.36646 61.3368 9.36646 64.9712C9.36646 68.6058 12.3233 71.5627 15.9577 71.5627C19.5924 71.5627 22.5492 68.6058 22.5492 64.9712C22.549 61.3368 19.5922 58.3799 15.9577 58.3799ZM15.9577 68.9263C13.777 68.9263 12.0026 67.152 12.0026 64.9712C12.0026 62.7905 13.7768 61.0161 15.9577 61.0161C18.1385 61.0161 19.9128 62.7903 19.9128 64.9712C19.9128 67.152 18.1385 68.9263 15.9577 68.9263Z" fill="black"/>
<path id="Vector_22" d="M75.4437 22.3077C79.7141 22.3077 83.1884 18.8334 83.1884 14.5629C83.1884 10.2925 79.7141 6.81818 75.4437 6.81818C71.1732 6.81818 67.6987 10.2925 67.6987 14.5629C67.6987 18.8334 71.1732 22.3077 75.4437 22.3077ZM75.4437 9.45437C78.2604 9.45437 80.552 11.746 80.552 14.5629C80.552 17.3798 78.2604 19.6715 75.4437 19.6715C72.6268 19.6715 70.3351 17.3798 70.3351 14.5629C70.3351 11.746 72.6268 9.45437 75.4437 9.45437Z" fill="black"/>
<path id="Vector_23" d="M85.8161 4.34985C83.121 1.61294 79.5235 0.0711627 75.6863 0.00823304C70.6502 -0.0708685 65.9834 2.42646 63.216 6.69794C62.82 7.30896 62.9944 8.12511 63.6054 8.52097C64.2161 8.91665 65.0326 8.74245 65.4284 8.13144C67.6983 4.62794 71.5161 2.57728 75.6431 2.64425C78.7848 2.69575 81.7307 3.95839 83.9377 6.1996C86.1471 8.44327 87.3638 11.4134 87.3638 14.5627C87.3638 18.8949 85.0062 22.8923 81.2113 24.995C80.2155 25.5468 79.3482 26.3689 78.7031 27.3725L75.7276 32.0011C75.6452 32.1293 75.5278 32.1562 75.4437 32.1562C75.3595 32.1562 75.2423 32.1293 75.1599 32.0013L72.1846 27.3728C71.5388 26.3682 70.673 25.5468 69.6809 24.9976C65.8568 22.8811 63.4977 18.8544 63.5238 14.4889C63.5261 14.0966 63.5483 13.7004 63.5894 13.3112C63.666 12.5873 63.1417 11.9382 62.4177 11.8615C61.6899 11.7845 61.0446 12.3094 60.9678 13.0334C60.9174 13.5095 60.8903 13.9941 60.8875 14.4734C60.8553 19.804 63.7358 24.7204 68.4042 27.3044C69.0158 27.643 69.5563 28.1596 69.9669 28.7986L72.9422 33.4271C73.4919 34.2822 74.427 34.7927 75.4436 34.7927C76.4601 34.7927 77.3953 34.2822 77.9449 33.4271L80.9204 28.7984C81.3308 28.1601 81.8729 27.6425 82.4889 27.3013C87.1218 24.734 90 19.8531 90 14.5629C90 10.7168 88.5141 7.08993 85.8161 4.34985Z" fill="black"/>
<path id="Vector_24" d="M82.2964 54.2134C84.0619 54.1378 85.4763 52.682 85.4763 50.8982V48.1099C85.4763 46.2778 83.9858 44.7873 82.1538 44.7873H74.3658L70.3877 36.9911C68.966 34.2049 66.14 32.4742 63.0121 32.4742H57.1823L54.0448 25.903C53.4238 24.6024 52.0912 23.7618 50.6498 23.7618H34.5096C33.0681 23.7618 31.7357 24.6022 31.1147 25.903L27.9772 32.4742H22.4808C19.353 32.4742 16.527 34.2049 15.1052 36.9911L11.127 44.7873H3.33914C1.50697 44.7873 0.0165234 46.2778 0.0165234 48.1099V50.8982C0.0165234 52.682 1.43068 54.1378 3.19641 54.2134C1.2027 55.9064 0 58.4165 0 61.1134V76.9655C0 77.6934 0.590098 78.2837 1.31818 78.2837C2.04627 78.2837 2.63637 77.6936 2.63637 76.9655V72.9971L12.1456 83.2671C12.4429 83.588 12.771 83.8749 13.1237 84.1247V85.5255C13.1237 86.5355 12.3019 87.3571 11.292 87.3571H4.46818C3.45814 87.3571 2.63654 86.5354 2.63654 85.5255V83.0217C2.63654 82.2938 2.04645 81.7035 1.31836 81.7035C0.590273 81.7035 0 82.2938 0 83.0217V85.5255C0 87.9893 2.00443 89.9935 4.46801 89.9935H11.2918C13.7556 89.9935 15.7598 87.9891 15.7598 85.5255V85.2073C16.0954 85.2625 16.4364 85.2919 16.7801 85.2919H68.7127C69.0564 85.2919 69.3974 85.2625 69.7329 85.2073V85.5255C69.7329 87.9893 71.7374 89.9935 74.201 89.9935H81.0248C83.4885 89.9935 85.493 87.9891 85.493 85.5255V61.1134C85.4928 58.4165 84.2901 55.9064 82.2964 54.2134ZM82.1537 47.4237C82.5321 47.4237 82.8399 47.7315 82.8399 48.1099V50.8982C82.8399 51.2766 82.5321 51.5844 82.1537 51.5844H77.834L75.7109 47.4237H82.1537ZM33.4937 27.0387C33.6795 26.6493 34.0784 26.398 34.5096 26.398H50.6498C51.0812 26.398 51.4798 26.6493 51.6655 27.0387L54.2607 32.474H30.8987L33.4937 27.0387ZM17.4535 38.1892C18.4224 36.2902 20.3488 35.1104 22.4808 35.1104H28.796C28.8 35.1104 28.804 35.1111 28.8081 35.1111H56.3511C56.3551 35.1111 56.3592 35.1104 56.3632 35.1104H63.012C65.1438 35.1104 67.0702 36.2901 68.0391 38.1892L74.8742 51.5844H37.6801C37.0273 46.2089 32.4385 42.0297 26.8887 42.0297C21.3398 42.0297 16.752 46.209 16.0993 51.5844H10.6184L17.4535 38.1892ZM26.8889 46.8067C23.9806 46.8067 21.5413 48.8546 20.9371 51.5837H18.7583C19.391 47.6666 22.796 44.6659 26.8887 44.6659C30.9825 44.6659 34.3883 47.6666 35.0211 51.5837H32.8421C32.2379 48.8544 29.7981 46.8067 26.8889 46.8067ZM30.0872 51.5844H23.6921C24.2114 50.329 25.4482 49.4431 26.8889 49.4431C28.3303 49.4429 29.5676 50.329 30.0872 51.5844ZM2.65289 50.8982V48.1099C2.65289 47.7315 2.96068 47.4237 3.33914 47.4237H9.7817L7.65861 51.5844H3.33914C2.96068 51.5844 2.65289 51.2765 2.65289 50.8982ZM82.8564 85.5255C82.8564 86.5355 82.0346 87.3571 81.0246 87.3571H74.2008C73.1907 87.3571 72.3691 86.5354 72.3691 85.5255V84.1245C72.7216 83.8748 73.0499 83.5881 73.3472 83.2669L82.8566 72.9967V85.5255H82.8564ZM82.8564 67.1196C82.8564 68.4074 82.3744 69.637 81.4996 70.5818L71.4127 81.4757C70.7184 82.2254 69.7344 82.6555 68.7125 82.6555H16.7801C15.7583 82.6555 14.7742 82.2256 14.0799 81.4759L3.99287 70.582C3.11801 69.6372 2.63619 68.4076 2.63619 67.1198V61.1135C2.63619 58.5819 4.13103 56.2817 6.44432 55.2535L8.76797 54.2208H76.7245L79.0481 55.2535C81.3616 56.2818 82.8564 58.5819 82.8564 61.1135V67.1196Z" fill="black"/>
<path id="Vector_25" d="M56.3704 69.956H29.1222C28.3289 69.956 27.58 70.3413 27.119 70.9868C26.6579 71.6322 26.5362 72.4655 26.7934 73.216L28.5382 78.3051C28.8792 79.3 29.8151 79.9685 30.867 79.9685H54.6254C55.6773 79.9685 56.6129 79.3 56.954 78.3053L58.6988 73.2162C58.9561 72.4658 58.8343 71.6324 58.3734 70.987C57.9125 70.3413 57.1637 69.956 56.3704 69.956ZM54.5008 77.3321H30.9918L29.3667 72.5924H56.1259L54.5008 77.3321Z" fill="black"/>
<path id="Vector_26" d="M69.5351 58.3799C65.9007 58.3799 62.9438 61.3368 62.9438 64.9712C62.9438 68.6058 65.9008 71.5627 69.5351 71.5627C73.1697 71.5627 76.1266 68.6058 76.1266 64.9712C76.1266 61.3368 73.1696 58.3799 69.5351 58.3799ZM69.5351 68.9263C67.3544 68.9263 65.58 67.152 65.58 64.9712C65.58 62.7905 67.3542 61.0161 69.5351 61.0161C71.716 61.0161 73.4904 62.7903 73.4904 64.9712C73.4902 67.152 71.7159 68.9263 69.5351 68.9263Z" fill="black"/>
<path id="Vector_27" d="M29.4148 67.4363C28.6867 67.4363 28.0964 66.8461 28.0964 66.118V62.585C28.0964 61.8569 28.6867 61.2666 29.4148 61.2666C30.1429 61.2666 30.7332 61.8569 30.7332 62.585V66.118C30.7332 66.8461 30.1429 67.4363 29.4148 67.4363Z" fill="black"/>
<path id="Vector_28" d="M35.0352 67.4363C34.3071 67.4363 33.7168 66.8461 33.7168 66.118V62.585C33.7168 61.8569 34.3071 61.2666 35.0352 61.2666C35.7632 61.2666 36.3535 61.8569 36.3535 62.585V66.118C36.3535 66.8461 35.7632 67.4363 35.0352 67.4363Z" fill="black"/>
<path id="Vector_29" d="M40.6553 67.4363C39.9272 67.4363 39.3369 66.8461 39.3369 66.118V62.585C39.3369 61.8569 39.9272 61.2666 40.6553 61.2666C41.3834 61.2666 41.9736 61.8569 41.9736 62.585V66.118C41.9736 66.8461 41.3834 67.4363 40.6553 67.4363Z" fill="black"/>
<path id="Vector_30" d="M46.2756 67.4363C45.5474 67.4363 44.9573 66.8461 44.9573 66.118V62.585C44.9573 61.8569 45.5474 61.2666 46.2756 61.2666C47.0039 61.2666 47.594 61.8569 47.594 62.585V66.118C47.594 66.8461 47.0037 67.4363 46.2756 67.4363Z" fill="black"/>
<path id="Vector_31" d="M51.896 67.4363C51.1677 67.4363 50.5776 66.8461 50.5776 66.118V62.585C50.5776 61.8569 51.1677 61.2666 51.896 61.2666C52.6243 61.2666 53.2144 61.8569 53.2144 62.585V66.118C53.2144 66.8461 52.6243 67.4363 51.896 67.4363Z" fill="black"/>
<path id="Vector_32" d="M57.5164 67.4363C56.7881 67.4363 56.198 66.8461 56.198 66.118V62.585C56.198 61.8569 56.7881 61.2666 57.5164 61.2666C58.2446 61.2666 58.8347 61.8569 58.8347 62.585V66.118C58.8347 66.8461 58.2446 67.4363 57.5164 67.4363Z" fill="black"/>
</g>
<defs>
<clipPath id="clip0_1_1039">
<rect width="90" height="90" fill="white"/>
</clipPath>
</defs>
</svg>
