<svg width="90" height="90" viewBox="0 0 90 90" fill="none" xmlns="http://www.w3.org/2000/svg">
<g id="car_5449030 1">
<g id="Group">
<g id="Group_2">
<g id="Group_3">
<path id="Vector" d="M5.625 66.0938V56.25C5.625 54.3852 6.36579 52.5968 7.68441 51.2782C9.00302 49.9595 10.7914 49.2188 12.6562 49.2188H25.3125L29.5312 37.9688C29.9408 36.7402 30.7265 35.6717 31.777 34.9145C32.8276 34.1574 34.0898 33.75 35.3848 33.75H61.875C63.17 33.75 64.4322 34.1574 65.4827 34.9145C66.5333 35.6717 67.319 36.7402 67.7285 37.9688L73.125 49.2188H77.3438C79.2086 49.2188 80.997 49.9595 82.3156 51.2782C83.6342 52.5968 84.375 54.3852 84.375 56.25V66.0938" fill="#1BCFFF"/>
<path id="Vector_2" d="M85.7812 66.0938H4.21875C3.4421 66.0938 2.8125 66.7233 2.8125 67.5V70.3125C2.8125 71.0892 3.4421 71.7188 4.21875 71.7188H85.7812C86.5579 71.7188 87.1875 71.0892 87.1875 70.3125V67.5C87.1875 66.7233 86.5579 66.0938 85.7812 66.0938Z" fill="#E0E0E2"/>
<path id="Vector_3" d="M71.7188 80.1562C76.3787 80.1562 80.1562 76.3787 80.1562 71.7188C80.1562 67.0588 76.3787 63.2812 71.7188 63.2812C67.0588 63.2812 63.2812 67.0588 63.2812 71.7188C63.2812 76.3787 67.0588 80.1562 71.7188 80.1562Z" fill="#57565C"/>
<path id="Vector_4" d="M18.2812 80.1562C22.9412 80.1562 26.7188 76.3787 26.7188 71.7188C26.7188 67.0588 22.9412 63.2812 18.2812 63.2812C13.6213 63.2812 9.84375 67.0588 9.84375 71.7188C9.84375 76.3787 13.6213 80.1562 18.2812 80.1562Z" fill="#57565C"/>
<g id="Group_4">
<path id="Vector_5" d="M71.7188 74.5312C73.2721 74.5312 74.5312 73.2721 74.5312 71.7188C74.5312 70.1654 73.2721 68.9062 71.7188 68.9062C70.1654 68.9062 68.9062 70.1654 68.9062 71.7188C68.9062 73.2721 70.1654 74.5312 71.7188 74.5312Z" fill="#E0E0E2"/>
<path id="Vector_6" d="M18.2812 74.5312C19.8346 74.5312 21.0938 73.2721 21.0938 71.7188C21.0938 70.1654 19.8346 68.9062 18.2812 68.9062C16.7279 68.9062 15.4688 70.1654 15.4688 71.7188C15.4688 73.2721 16.7279 74.5312 18.2812 74.5312Z" fill="#E0E0E2"/>
</g>
<path id="Vector_7" d="M25.3125 49.2188H61.875V37.9688H29.5312L25.3125 49.2188Z" fill="#78B9EB"/>
<path id="Vector_8" d="M84.375 60.4688H78.75V56.25H84.375V60.4688Z" fill="#FFDA44"/>
<path id="Vector_9" d="M11.25 60.4688H5.625V56.25H11.25V60.4688Z" fill="#FFDA44"/>
</g>
<path id="Vector_10" d="M21.0938 11.25H68.9062V28.125H21.0938V11.25Z" fill="#FFDA44"/>
</g>
<g id="Group_5">
<path id="Vector_11" d="M71.7188 67.5C70.8844 67.5 70.0687 67.7474 69.3749 68.211C68.6812 68.6746 68.1404 69.3334 67.8211 70.1043C67.5018 70.8752 67.4183 71.7234 67.5811 72.5418C67.7438 73.3601 68.1456 74.1119 68.7356 74.7019C69.3256 75.2919 70.0774 75.6937 70.8957 75.8564C71.7141 76.0192 72.5623 75.9357 73.3332 75.6164C74.1041 75.2971 74.7629 74.7563 75.2265 74.0626C75.6901 73.3688 75.9375 72.5531 75.9375 71.7187C75.9362 70.6003 75.4914 69.5279 74.7005 68.737C73.9096 67.9461 72.8372 67.5013 71.7188 67.5ZM71.7188 73.125C71.4406 73.125 71.1687 73.0425 70.9375 72.888C70.7062 72.7335 70.526 72.5139 70.4195 72.2569C70.3131 71.9999 70.2853 71.7172 70.3395 71.4444C70.3938 71.1716 70.5277 70.921 70.7244 70.7244C70.921 70.5277 71.1716 70.3938 71.4444 70.3395C71.7172 70.2853 71.9999 70.3131 72.2569 70.4195C72.5139 70.526 72.7335 70.7062 72.888 70.9375C73.0425 71.1687 73.125 71.4406 73.125 71.7187C73.1246 72.0916 72.9763 72.449 72.7127 72.7127C72.449 72.9763 72.0916 73.1246 71.7188 73.125Z" fill="black"/>
<path id="Vector_12" d="M18.2813 67.5C17.4469 67.5 16.6312 67.7474 15.9374 68.211C15.2437 68.6746 14.7029 69.3334 14.3836 70.1043C14.0643 70.8752 13.9808 71.7234 14.1436 72.5418C14.3063 73.3601 14.7081 74.1119 15.2981 74.7019C15.8881 75.2919 16.6399 75.6937 17.4582 75.8564C18.2766 76.0192 19.1248 75.9357 19.8957 75.6164C20.6666 75.2971 21.3255 74.7563 21.789 74.0626C22.2526 73.3688 22.5 72.5531 22.5 71.7187C22.4987 70.6003 22.0539 69.5279 21.263 68.737C20.4721 67.9461 19.3997 67.5013 18.2813 67.5ZM18.2813 73.125C18.0031 73.125 17.7312 73.0425 17.5 72.888C17.2687 72.7335 17.0885 72.5139 16.982 72.2569C16.8756 71.9999 16.8478 71.7172 16.902 71.4444C16.9563 71.1716 17.0902 70.921 17.2869 70.7244C17.4836 70.5277 17.7341 70.3938 18.0069 70.3395C18.2797 70.2853 18.5624 70.3131 18.8194 70.4195C19.0764 70.526 19.296 70.7062 19.4505 70.9375C19.605 71.1687 19.6875 71.4406 19.6875 71.7187C19.6871 72.0916 19.5388 72.449 19.2752 72.7127C19.0115 72.9763 18.6541 73.1246 18.2813 73.125Z" fill="black"/>
<path id="Vector_13" d="M85.7812 64.6875V56.25C85.7789 54.013 84.8892 51.8682 83.3073 50.2864C81.7255 48.7046 79.5808 47.8149 77.3438 47.8125H74.0109L69.0328 37.4361C68.5178 35.9482 67.5514 34.6579 66.2684 33.7451C64.9854 32.8323 63.4496 32.3425 61.875 32.3438H35.3848C33.7991 32.3424 32.253 32.8392 30.9649 33.764C29.6767 34.6887 28.7116 35.9948 28.2059 37.4977L24.3387 47.8125H12.6562C10.4192 47.8149 8.27448 48.7046 6.69266 50.2864C5.11083 51.8682 4.22112 54.013 4.21875 56.25V64.6875C3.47313 64.6885 2.75833 64.9851 2.23109 65.5123C1.70386 66.0396 1.40723 66.7544 1.40625 67.5V70.3125C1.40723 71.0581 1.70386 71.7729 2.23109 72.3002C2.75833 72.8274 3.47313 73.124 4.21875 73.125H8.53945C8.87749 75.4676 10.0484 77.61 11.8375 79.1595C13.6267 80.7091 15.9144 81.562 18.2812 81.562C20.6481 81.562 22.9358 80.7091 24.725 79.1595C26.5141 77.61 27.685 75.4676 28.023 73.125H61.977C62.315 75.4676 63.4859 77.61 65.275 79.1595C67.0642 80.7091 69.3519 81.562 71.7188 81.562C74.0856 81.562 76.3733 80.7091 78.1625 79.1595C79.9516 77.61 81.1225 75.4676 81.4605 73.125H85.7812C86.5269 73.124 87.2417 72.8274 87.7689 72.3002C88.2961 71.7729 88.5928 71.0581 88.5938 70.3125V67.5C88.5928 66.7544 88.2961 66.0396 87.7689 65.5123C87.2417 64.9851 86.5269 64.6885 85.7812 64.6875ZM30.5051 39.375H45V47.8125H27.341L30.5051 39.375ZM7.03125 57.6563H9.84375V59.0625H7.03125V57.6563ZM8.53945 70.3125H4.21875V67.5H9.38848C8.96512 68.3893 8.67887 69.3375 8.53945 70.3125ZM18.2812 78.75C16.8906 78.75 15.5312 78.3376 14.3749 77.565C13.2186 76.7924 12.3174 75.6943 11.7852 74.4095C11.253 73.1247 11.1138 71.711 11.3851 70.347C11.6564 68.9831 12.3261 67.7302 13.3094 66.7469C14.2927 65.7636 15.5456 65.0939 16.9095 64.8226C18.2735 64.5513 19.6872 64.6905 20.972 65.2227C22.2568 65.7549 23.3549 66.6561 24.1275 67.8124C24.9001 68.9687 25.3125 70.3281 25.3125 71.7188C25.3106 73.583 24.5693 75.3703 23.251 76.6885C21.9328 78.0068 20.1455 78.7481 18.2812 78.75ZM61.977 70.3125H28.023C27.8836 69.3375 27.5974 68.3893 27.174 67.5H62.826C62.4026 68.3893 62.1164 69.3375 61.977 70.3125ZM71.7188 78.75C70.3281 78.75 68.9687 78.3376 67.8124 77.565C66.6561 76.7924 65.7549 75.6943 65.2227 74.4095C64.6905 73.1247 64.5513 71.711 64.8226 70.347C65.0939 68.9831 65.7636 67.7302 66.7469 66.7469C67.7302 65.7636 68.9831 65.0939 70.347 64.8226C71.711 64.5513 73.1247 64.6905 74.4095 65.2227C75.6943 65.7549 76.7924 66.6561 77.565 67.8124C78.3376 68.9687 78.75 70.3281 78.75 71.7188C78.7481 73.583 78.0068 75.3703 76.6885 76.6885C75.3703 78.0068 73.583 78.7481 71.7188 78.75ZM78.5988 64.6875C76.7625 62.8849 74.292 61.875 71.7188 61.875C69.1455 61.875 66.675 62.8849 64.8387 64.6875H25.1613C23.325 62.8849 20.8545 61.875 18.2812 61.875C15.708 61.875 13.2375 62.8849 11.4012 64.6875H7.03125V61.875H11.25C11.623 61.875 11.9806 61.7268 12.2444 61.4631C12.5081 61.1994 12.6562 60.8417 12.6562 60.4688V56.25C12.6562 55.877 12.5081 55.5194 12.2444 55.2556C11.9806 54.9919 11.623 54.8438 11.25 54.8438H7.20879C7.52217 53.637 8.22691 52.5683 9.21265 51.8049C10.1984 51.0415 11.4095 50.6265 12.6562 50.625H61.875C62.248 50.625 62.6056 50.4768 62.8694 50.2131C63.1331 49.9494 63.2812 49.5917 63.2812 49.2188V37.9688C63.2812 37.5958 63.1331 37.2381 62.8694 36.9744C62.6056 36.7107 62.248 36.5625 61.875 36.5625H32.0063C32.4485 36.1164 32.9748 35.7624 33.5547 35.521C34.1346 35.2796 34.7566 35.1557 35.3848 35.1563H61.875C62.875 35.1557 63.8497 35.47 64.6609 36.0547C65.4722 36.6394 66.0786 37.4647 66.3943 38.4135C66.4122 38.4697 66.4345 38.5243 66.4611 38.577L71.8576 49.827C71.9722 50.0659 72.152 50.2675 72.3762 50.4087C72.6005 50.5499 72.86 50.6249 73.125 50.625H77.3438C78.5905 50.6265 79.8016 51.0415 80.7873 51.8049C81.7731 52.5683 82.4778 53.637 82.7912 54.8438H78.75C78.377 54.8438 78.0194 54.9919 77.7556 55.2556C77.4919 55.5194 77.3438 55.877 77.3438 56.25V60.4688C77.3438 60.8417 77.4919 61.1994 77.7556 61.4631C78.0194 61.7268 78.377 61.875 78.75 61.875H82.9688V64.6875H78.5988ZM47.8125 47.8125V39.375H60.4688V47.8125H47.8125ZM82.9688 57.6563V59.0625H80.1562V57.6563H82.9688ZM85.7812 70.3125H81.4605C81.3211 69.3375 81.0349 68.3893 80.6115 67.5H85.7812V70.3125Z" fill="black"/>
<path id="Vector_14" d="M45 52.0312H37.9688C37.5958 52.0312 37.2381 52.1794 36.9744 52.4431C36.7107 52.7069 36.5625 53.0645 36.5625 53.4375C36.5625 53.8105 36.7107 54.1681 36.9744 54.4319C37.2381 54.6956 37.5958 54.8438 37.9688 54.8438H45C45.373 54.8438 45.7306 54.6956 45.9944 54.4319C46.2581 54.1681 46.4062 53.8105 46.4062 53.4375C46.4062 53.0645 46.2581 52.7069 45.9944 52.4431C45.7306 52.1794 45.373 52.0312 45 52.0312Z" fill="black"/>
<path id="Vector_15" d="M21.0938 29.5312H68.9062C69.2792 29.5312 69.6369 29.3831 69.9006 29.1194C70.1643 28.8556 70.3125 28.498 70.3125 28.125V11.25C70.3125 10.877 70.1643 10.5194 69.9006 10.2556C69.6369 9.99191 69.2792 9.84375 68.9062 9.84375H21.0938C20.7208 9.84375 20.3631 9.99191 20.0994 10.2556C19.8357 10.5194 19.6875 10.877 19.6875 11.25V28.125C19.6875 28.498 19.8357 28.8556 20.0994 29.1194C20.3631 29.3831 20.7208 29.5312 21.0938 29.5312ZM22.5 12.6562H67.5V26.7188H22.5V12.6562Z" fill="black"/>
<path id="Vector_16" d="M33.5654 21.0938H33.75C34.123 21.0938 34.4806 20.9456 34.7444 20.6819C35.0081 20.4181 35.1562 20.0605 35.1562 19.6875V15.4688C35.1562 15.0958 35.0081 14.7381 34.7444 14.4744C34.4806 14.2107 34.123 14.0625 33.75 14.0625H28.125C27.752 14.0625 27.3944 14.2107 27.1306 14.4744C26.8669 14.7381 26.7188 15.0958 26.7188 15.4688V23.9062C26.7188 24.2792 26.8669 24.6369 27.1306 24.9006C27.3944 25.1643 27.752 25.3125 28.125 25.3125C28.498 25.3125 28.8556 25.1643 29.1194 24.9006C29.3831 24.6369 29.5312 24.2792 29.5312 23.9062V21.0938H30.1852L32.5793 24.6867C32.7863 24.9972 33.1081 25.2128 33.4741 25.2859C33.84 25.3591 34.22 25.2839 34.5305 25.077C34.841 24.87 35.0565 24.5481 35.1297 24.1822C35.2029 23.8163 35.1277 23.4363 34.9207 23.1258L33.5654 21.0938ZM32.3438 18.2812H29.5312V16.875H32.3438V18.2812Z" fill="black"/>
<path id="Vector_17" d="M43.5938 16.875C43.9667 16.875 44.3244 16.7268 44.5881 16.4631C44.8518 16.1994 45 15.8417 45 15.4688C45 15.0958 44.8518 14.7381 44.5881 14.4744C44.3244 14.2107 43.9667 14.0625 43.5938 14.0625H37.9688C37.5958 14.0625 37.2381 14.2107 36.9744 14.4744C36.7107 14.7381 36.5625 15.0958 36.5625 15.4688V23.9062C36.5625 24.2792 36.7107 24.6369 36.9744 24.9006C37.2381 25.1643 37.5958 25.3125 37.9688 25.3125H43.5938C43.9667 25.3125 44.3244 25.1643 44.5881 24.9006C44.8518 24.6369 45 24.2792 45 23.9062C45 23.5333 44.8518 23.1756 44.5881 22.9119C44.3244 22.6482 43.9667 22.5 43.5938 22.5H39.375V21.0938H40.7812C41.1542 21.0938 41.5119 20.9456 41.7756 20.6819C42.0393 20.4181 42.1875 20.0605 42.1875 19.6875C42.1875 19.3145 42.0393 18.9569 41.7756 18.6931C41.5119 18.4294 41.1542 18.2812 40.7812 18.2812H39.375V16.875H43.5938Z" fill="black"/>
<path id="Vector_18" d="M53.4375 14.0625C53.0645 14.0625 52.7069 14.2107 52.4431 14.4744C52.1794 14.7381 52.0312 15.0958 52.0312 15.4688V19.2618L48.9825 14.6886C48.8151 14.4375 48.5713 14.247 48.2872 14.1451C48.0031 14.0432 47.6938 14.0354 47.4049 14.1229C47.1161 14.2104 46.863 14.3884 46.6832 14.6308C46.5034 14.8732 46.4063 15.1669 46.4062 15.4688V23.9062C46.4062 24.2792 46.5544 24.6369 46.8181 24.9006C47.0819 25.1643 47.4395 25.3125 47.8125 25.3125C48.1855 25.3125 48.5431 25.1643 48.8069 24.9006C49.0706 24.6369 49.2188 24.2792 49.2188 23.9062V20.1132L52.2675 24.6864C52.4349 24.9375 52.6787 25.128 52.9628 25.2299C53.2469 25.3318 53.5562 25.3396 53.8451 25.2521C54.1339 25.1646 54.387 24.9866 54.5668 24.7442C54.7466 24.5018 54.8437 24.2081 54.8438 23.9062V15.4688C54.8438 15.0958 54.6956 14.7381 54.4319 14.4744C54.1681 14.2107 53.8105 14.0625 53.4375 14.0625Z" fill="black"/>
<path id="Vector_19" d="M63.2812 14.0625H57.6562C57.2833 14.0625 56.9256 14.2107 56.6619 14.4744C56.3982 14.7381 56.25 15.0958 56.25 15.4688C56.25 15.8417 56.3982 16.1994 56.6619 16.4631C56.9256 16.7268 57.2833 16.875 57.6562 16.875H59.0625V23.9062C59.0625 24.2792 59.2107 24.6369 59.4744 24.9006C59.7381 25.1643 60.0958 25.3125 60.4688 25.3125C60.8417 25.3125 61.1994 25.1643 61.4631 24.9006C61.7268 24.6369 61.875 24.2792 61.875 23.9062V16.875H63.2812C63.6542 16.875 64.0119 16.7268 64.2756 16.4631C64.5393 16.1994 64.6875 15.8417 64.6875 15.4688C64.6875 15.0958 64.5393 14.7381 64.2756 14.4744C64.0119 14.2107 63.6542 14.0625 63.2812 14.0625Z" fill="black"/>
</g>
</g>
</g>
</svg>
