<svg width="90" height="90" viewBox="0 0 90 90" fill="none" xmlns="http://www.w3.org/2000/svg">
<g id="taxi-app_8633574 1" clip-path="url(#clip0_1_960)">
<path id="Vector" d="M82.5 39C82.5015 47.1951 79.8184 55.1651 74.8611 61.6908C69.9038 68.2165 62.9453 72.9387 55.05 75.135L46.755 87.555C46.5639 87.8459 46.3034 88.0847 45.9971 88.25C45.6907 88.4152 45.3481 88.5018 45 88.5018C44.6519 88.5018 44.3093 88.4152 44.003 88.25C43.6966 88.0847 43.4362 87.8459 43.245 87.555L34.95 75.135C28.2217 73.2634 22.1497 69.55 17.4182 64.4133C12.6866 59.2766 9.48345 52.9207 8.1696 46.0616C6.85575 39.2026 7.48339 32.1129 9.98182 25.5913C12.4803 19.0697 16.7502 13.3754 22.3106 9.1498C27.871 4.92426 34.5009 2.3354 41.4534 1.67489C48.4058 1.01438 55.4046 2.30847 61.6613 5.41136C67.9179 8.51425 73.1837 13.3027 76.8655 19.2371C80.5473 25.1715 82.4988 32.0162 82.5 39Z" fill="#E2A730"/>
<path id="Vector_2" d="M45 70.5C62.397 70.5 76.5 56.397 76.5 39C76.5 21.603 62.397 7.5 45 7.5C27.603 7.5 13.5 21.603 13.5 39C13.5 56.397 27.603 70.5 45 70.5Z" fill="#F7C63B"/>
<path id="Vector_3" d="M31.5 51H40.5V58.5C40.5 58.8978 40.342 59.2794 40.0607 59.5607C39.7794 59.842 39.3978 60 39 60H33C32.6022 60 32.2206 59.842 31.9393 59.5607C31.658 59.2794 31.5 58.8978 31.5 58.5V51Z" fill="#2E444C"/>
<path id="Vector_4" d="M49.5 51H58.5V58.5C58.5 58.8978 58.342 59.2794 58.0607 59.5607C57.7794 59.842 57.3978 60 57 60H51C50.6022 60 50.2206 59.842 49.9393 59.5607C49.658 59.2794 49.5 58.8978 49.5 58.5V51Z" fill="#2E444C"/>
<path id="Vector_5" d="M22.5 49.5C22.5 49.8978 22.658 50.2794 22.9393 50.5607C23.2206 50.842 23.6022 51 24 51H31.5V43.5C31.5 43.1022 31.342 42.7206 31.0607 42.4393C30.7794 42.158 30.3978 42 30 42H24C23.6022 42 23.2206 42.158 22.9393 42.4393C22.658 42.7206 22.5 43.1022 22.5 43.5V49.5Z" fill="#2E444C"/>
<path id="Vector_6" d="M67.5 43.5C67.5 43.1022 67.342 42.7206 67.0607 42.4393C66.7794 42.158 66.3978 42 66 42H60C59.6022 42 59.2206 42.158 58.9393 42.4393C58.658 42.7206 58.5 43.1022 58.5 43.5V51H66C66.3978 51 66.7794 50.842 67.0607 50.5607C67.342 50.2794 67.5 49.8978 67.5 49.5V43.5Z" fill="#2E444C"/>
<path id="Vector_7" d="M42 42H48C48.3978 42 48.7794 42.158 49.0607 42.4393C49.342 42.7206 49.5 43.1022 49.5 43.5V51H40.5V43.5C40.5 43.1022 40.658 42.7206 40.9393 42.4393C41.2206 42.158 41.6022 42 42 42Z" fill="#2E444C"/>
<g id="Group">
<path id="Vector_8" d="M45.0001 6.69648e-06C35.8805 0.00314412 27.0495 3.19781 20.0386 9.03001C19.8873 9.15627 19.7624 9.3111 19.6709 9.48565C19.5795 9.6602 19.5233 9.85105 19.5056 10.0473C19.4879 10.2436 19.5091 10.4414 19.5678 10.6295C19.6266 10.8176 19.7218 10.9922 19.8481 11.1435C19.9744 11.2948 20.1292 11.4197 20.3037 11.5112C20.4783 11.6026 20.6691 11.6588 20.8654 11.6765C21.0616 11.6942 21.2595 11.673 21.4475 11.6143C21.6356 11.5555 21.8103 11.4603 21.9616 11.334C26.0882 7.90159 30.9301 5.43538 36.1329 4.11589C41.3358 2.79639 46.7678 2.65702 52.0315 3.70796C57.2951 4.75891 62.2571 6.97357 66.5543 10.1899C70.8515 13.4061 74.3752 17.5426 76.8673 22.2965C79.3594 27.0505 80.7569 32.3015 80.9576 37.6653C81.1583 43.0291 80.157 48.3698 78.027 53.2967C75.8971 58.2235 72.6924 62.6117 68.6475 66.1401C64.6027 69.6685 59.82 72.2477 54.6496 73.689C54.3028 73.7848 54.0021 74.002 53.8021 74.301L45.4996 86.733C45.4461 86.8165 45.372 86.8848 45.2846 86.9316C45.1972 86.9783 45.0992 87.0019 45.0001 87C44.8987 87.0013 44.7986 86.9763 44.7098 86.9274C44.6209 86.8785 44.5463 86.8074 44.4931 86.721L36.1981 74.301C35.9981 74.002 35.6973 73.7848 35.3506 73.689C29.4 72.0347 23.975 68.8773 19.5974 64.5203C15.2198 60.1634 12.0368 54.7534 10.3544 48.8107C8.67199 42.868 8.54681 36.5923 9.99088 30.5872C11.435 24.5822 14.3997 19.0496 18.6001 14.5215C18.7342 14.3771 18.8386 14.2077 18.9073 14.023C18.976 13.8383 19.0076 13.6418 19.0004 13.4449C18.9931 13.2479 18.9471 13.0543 18.8651 12.8751C18.783 12.6959 18.6665 12.5347 18.5221 12.4005C18.3777 12.2664 18.2083 12.162 18.0236 12.0933C17.8388 12.0246 17.6424 11.993 17.4454 12.0002C17.2485 12.0075 17.0549 12.0534 16.8757 12.1355C16.6965 12.2176 16.5352 12.3341 16.4011 12.4785C11.8849 17.3502 8.68758 23.2945 7.11216 29.748C5.53674 36.2015 5.63542 42.9504 7.39884 49.355C9.16226 55.7597 12.532 61.6079 17.1887 66.3455C21.8454 71.0831 27.6347 74.5531 34.0081 76.4265L41.9896 88.377C42.3166 88.8749 42.762 89.284 43.2859 89.5674C43.8098 89.8508 44.3959 89.9998 44.9916 90.001C45.5873 90.0022 46.174 89.8555 46.699 89.5742C47.2241 89.2929 47.6711 88.8856 48.0001 88.389L55.9891 76.4265C64.9961 73.7874 72.7493 67.9886 77.8259 60.0943C82.9024 52.1999 84.9617 42.7396 83.6259 33.4495C82.2901 24.1593 77.6488 15.6624 70.5538 9.5182C63.4587 3.37397 54.3858 -0.00549071 45.0001 6.69648e-06Z" fill="#262626"/>
<path id="Vector_9" d="M45 72C51.5268 72 57.907 70.0646 63.3338 66.4385C68.7606 62.8124 72.9903 57.6585 75.488 51.6286C77.9857 45.5986 78.6392 38.9634 77.3659 32.562C76.0926 26.1607 72.9497 20.2806 68.3345 15.6655C63.7194 11.0504 57.8394 7.90741 51.438 6.6341C45.0366 5.36079 38.4014 6.0143 32.3714 8.51199C26.3415 11.0097 21.1876 15.2394 17.5615 20.6662C13.9354 26.093 12 32.4732 12 39C12.0099 47.7491 15.4899 56.137 21.6764 62.3236C27.863 68.5101 36.2509 71.9901 45 72ZM45 9.00002C50.9334 9.00002 56.7336 10.7595 61.6671 14.0559C66.6006 17.3524 70.4458 22.0377 72.7164 27.5195C74.987 33.0013 75.5811 39.0333 74.4236 44.8527C73.266 50.6722 70.4088 56.0177 66.2132 60.2132C62.0176 64.4088 56.6721 67.266 50.8527 68.4236C45.0333 69.5811 39.0013 68.987 33.5195 66.7164C28.0377 64.4458 23.3524 60.6006 20.0559 55.6671C16.7595 50.7337 15 44.9335 15 39C15.0091 31.0463 18.1728 23.421 23.7969 17.7969C29.421 12.1728 37.0463 9.00915 45 9.00002Z" fill="#262626"/>
<path id="Vector_10" d="M24 52.5H30V58.5C30 59.2957 30.3161 60.0587 30.8787 60.6213C31.4413 61.1839 32.2044 61.5 33 61.5H39C39.7957 61.5 40.5587 61.1839 41.1213 60.6213C41.6839 60.0587 42 59.2957 42 58.5V52.5H48V58.5C48 59.2957 48.3161 60.0587 48.8787 60.6213C49.4413 61.1839 50.2044 61.5 51 61.5H57C57.7957 61.5 58.5587 61.1839 59.1213 60.6213C59.6839 60.0587 60 59.2957 60 58.5V52.5H66C66.7957 52.5 67.5587 52.1839 68.1213 51.6213C68.6839 51.0587 69 50.2957 69 49.5V43.5C69 42.7044 68.6839 41.9413 68.1213 41.3787C67.5587 40.8161 66.7957 40.5 66 40.5H60C59.2044 40.5 58.4413 40.8161 57.8787 41.3787C57.3161 41.9413 57 42.7044 57 43.5V49.5H51V43.5C51 42.7044 50.6839 41.9413 50.1213 41.3787C49.5587 40.8161 48.7957 40.5 48 40.5H42C41.2044 40.5 40.4413 40.8161 39.8787 41.3787C39.3161 41.9413 39 42.7044 39 43.5V49.5H33V43.5C33 42.7044 32.6839 41.9413 32.1213 41.3787C31.5587 40.8161 30.7957 40.5 30 40.5H24C23.2044 40.5 22.4413 40.8161 21.8787 41.3787C21.3161 41.9413 21 42.7044 21 43.5V49.5C21 50.2957 21.3161 51.0587 21.8787 51.6213C22.4413 52.1839 23.2044 52.5 24 52.5ZM60 43.5H66V49.5H60V43.5ZM57 58.5H51V52.5H57V58.5ZM42 43.5H48V49.5H42V43.5ZM39 58.5H33V52.5H39V58.5ZM24 43.5H30V49.5H24V43.5Z" fill="#262626"/>
<path id="Vector_11" d="M27 24H28.5V34.5C28.5 34.8978 28.658 35.2794 28.9393 35.5607C29.2206 35.842 29.6022 36 30 36C30.3978 36 30.7794 35.842 31.0607 35.5607C31.342 35.2794 31.5 34.8978 31.5 34.5V24H33C33.3978 24 33.7794 23.842 34.0607 23.5607C34.342 23.2794 34.5 22.8978 34.5 22.5C34.5 22.1022 34.342 21.7206 34.0607 21.4393C33.7794 21.158 33.3978 21 33 21H27C26.6022 21 26.2206 21.158 25.9393 21.4393C25.658 21.7206 25.5 22.1022 25.5 22.5C25.5 22.8978 25.658 23.2794 25.9393 23.5607C26.2206 23.842 26.6022 24 27 24Z" fill="#262626"/>
<path id="Vector_12" d="M37.5 36C37.8978 36 38.2794 35.842 38.5607 35.5607C38.842 35.2794 39 34.8978 39 34.5V31.5H42V34.5C42 34.8978 42.158 35.2794 42.4393 35.5607C42.7206 35.842 43.1022 36 43.5 36C43.8978 36 44.2794 35.842 44.5607 35.5607C44.842 35.2794 45 34.8978 45 34.5V25.5C45 24.3065 44.5259 23.1619 43.682 22.318C42.8381 21.4741 41.6935 21 40.5 21C39.3065 21 38.1619 21.4741 37.318 22.318C36.4741 23.1619 36 24.3065 36 25.5V34.5C36 34.8978 36.158 35.2794 36.4393 35.5607C36.7206 35.842 37.1022 36 37.5 36ZM40.5 24C40.8978 24 41.2794 24.158 41.5607 24.4393C41.842 24.7206 42 25.1022 42 25.5V28.5H39V25.5C39 25.1022 39.158 24.7206 39.4393 24.4393C39.7206 24.158 40.1022 24 40.5 24Z" fill="#262626"/>
<path id="Vector_13" d="M48.8296 35.85C49.0059 35.9382 49.1978 35.9907 49.3944 36.0046C49.591 36.0185 49.7884 35.9936 49.9754 35.9312C50.1623 35.8688 50.3351 35.7701 50.4839 35.6409C50.6327 35.5117 50.7546 35.3544 50.8426 35.178L52.5001 31.854L54.1501 35.1705C54.2381 35.3468 54.3601 35.504 54.5089 35.6332C54.6577 35.7624 54.8305 35.861 55.0174 35.9234C55.2043 35.9858 55.4017 36.0108 55.5983 35.9969C55.7949 35.983 55.9868 35.9306 56.1631 35.8425C56.3394 35.7545 56.4966 35.6326 56.6258 35.4837C56.755 35.3349 56.8536 35.1621 56.916 34.9752C56.9784 34.7883 57.0034 34.5909 56.9895 34.3943C56.9756 34.1977 56.9231 34.0058 56.8351 33.8295L54.1771 28.5L56.8501 23.1705C57.0279 22.8145 57.057 22.4024 56.931 22.0248C56.805 21.6473 56.5341 21.3353 56.1781 21.1575C55.822 20.9797 55.4099 20.9506 55.0324 21.0766C54.6549 21.2026 54.3429 21.4735 54.1651 21.8295L52.5001 25.146L50.8501 21.8295C50.6723 21.4735 50.3603 21.2026 49.9828 21.0766C49.6053 20.9506 49.1931 20.9797 48.8371 21.1575C48.481 21.3353 48.2102 21.6473 48.0842 22.0248C47.9582 22.4024 47.9873 22.8145 48.1651 23.1705L50.8231 28.5L48.1501 33.8295C48.0611 34.0066 48.008 34.1996 47.994 34.3973C47.98 34.5951 48.0053 34.7936 48.0685 34.9815C48.1317 35.1694 48.2315 35.3428 48.3621 35.4919C48.4927 35.641 48.6516 35.7627 48.8296 35.85Z" fill="#262626"/>
<path id="Vector_14" d="M61.5 36C61.8978 36 62.2794 35.842 62.5607 35.5607C62.842 35.2794 63 34.8978 63 34.5V22.5C63 22.1022 62.842 21.7206 62.5607 21.4393C62.2794 21.158 61.8978 21 61.5 21C61.1022 21 60.7206 21.158 60.4393 21.4393C60.158 21.7206 60 22.1022 60 22.5V34.5C60 34.8978 60.158 35.2794 60.4393 35.5607C60.7206 35.842 61.1022 36 61.5 36Z" fill="#262626"/>
</g>
</g>
<defs>
<clipPath id="clip0_1_960">
<rect width="90" height="90" fill="white"/>
</clipPath>
</defs>
</svg>
