<svg width="59" height="50" viewBox="0 0 59 50" fill="none" xmlns="http://www.w3.org/2000/svg">
<g clip-path="url(#clip0_1181_424)">
<path d="M54.459 1.15381H29.6146C28.0843 1.15381 26.9141 2.15381 26.9141 3.4615V28.6923C26.9141 30 28.0843 31 29.6146 31H47.4378L57.0695 22.7692V3.4615C57.1595 2.15381 55.9893 1.15381 54.459 1.15381Z" fill="#FCBD5D"/>
<path d="M30.5156 27.923V4.23071H53.5598V21.4615L45.9984 27.923H30.5156Z" fill="white"/>
<path d="M45.998 27.923L53.5594 21.4614H48.6985C47.1683 21.4614 45.998 22.4614 45.998 23.7691V27.923Z" fill="#D2D6D8"/>
<path d="M28.8946 19H4.0501C2.51982 19 1.34961 20 1.34961 21.3077V46.5385C1.34961 47.8462 2.51982 48.8462 4.0501 48.8462H21.8733L31.5051 40.6154V21.3077C31.5951 20 30.3349 19 28.8946 19Z" fill="#4EBD9E"/>
<path d="M4.95117 45.7692V22.0769H27.9953V39.3077L20.434 45.7692H4.95117Z" fill="white"/>
<path d="M20.4336 45.7692L27.995 39.3076H23.1341C21.6038 39.3076 20.4336 40.3076 20.4336 41.6153V45.7692Z" fill="#D2D6D8"/>
<path d="M40.1469 6.53857H49.2385V8.07704H40.1469V6.53857ZM40.1469 16.6924H49.2385V18.2309H40.1469V16.6924ZM40.1469 11.6155H49.2385V13.154H40.1469V11.6155ZM34.8359 6.53857H36.6363V8.07704H34.8359V6.53857ZM34.8359 11.6155H36.6363V13.154H34.8359V11.6155ZM34.8359 16.6924H36.6363V18.2309H34.8359V16.6924Z" fill="#173651"/>
<path d="M54.459 0.384521H29.6145C27.6341 0.384521 26.0138 1.76914 26.0138 3.46144V18.2307H4.04987C2.06951 18.2307 0.449219 19.6153 0.449219 21.3076V46.5384C0.449219 48.2307 2.06951 49.6153 4.04987 49.6153H22.3232L32.495 40.923V31.7691H47.8878L58.0596 23.0768V3.46144C58.0596 1.76914 56.4393 0.384521 54.459 0.384521ZM30.6947 40.3076L21.513 48.0768H4.04987C3.05969 48.0768 2.24954 47.3845 2.24954 46.5384V21.3076C2.24954 20.4614 3.05969 19.7691 4.04987 19.7691H28.8944C29.8845 19.7691 30.6947 20.4614 30.6947 21.3076V40.3076ZM56.2593 22.4614L47.1677 30.2307H32.495V21.3076C32.495 19.6153 30.8747 18.2307 28.8944 18.2307H27.9042V3.46144C27.9042 2.61529 28.7143 1.92298 29.7045 1.92298H54.549C55.5392 1.92298 56.3493 2.61529 56.3493 3.46144V22.4614H56.2593Z" fill="#173651"/>
<path d="M14.5824 24.3845H23.6741V25.923H14.5824V24.3845ZM14.5824 34.5384H23.6741V36.0768H14.5824V34.5384ZM14.5824 29.4614H23.6741V30.9999H14.5824V29.4614ZM9.27148 24.3845H11.0718V25.923H9.27148V24.3845ZM9.27148 29.4614H11.0718V30.9999H9.27148V29.4614ZM9.27148 34.5384H11.0718V36.0768H9.27148V34.5384Z" fill="#173651"/>
<path d="M53.3802 33.4614L45.5487 36.6922L48.8793 37.6922C48.6093 38.846 47.6191 47.0768 38.6175 47.923C37.0872 48.1537 35.5569 47.923 34.3867 47.7691C41.0479 50.1537 47.9792 48.6153 52.48 41.923C52.48 41.9999 52.57 41.7691 52.57 41.846C52.57 41.846 53.6502 39.923 54.0103 39.2307L57.2509 40.1537L53.3802 33.4614Z" fill="#4EBD9E"/>
<path d="M5.13012 16.5385L12.9615 13.3077L9.72095 12.3077C10.5311 9.23081 10.7111 7.61543 12.5115 5.69235C14.8519 3.00004 18.9026 1.46158 24.3036 2.23081C16.6522 -0.538418 10.171 2.07697 6.21032 8.07697C6.21032 8.00004 6.1203 8.23081 6.1203 8.15389C6.1203 8.15389 5.0401 10.077 4.68004 10.7693L1.43945 9.8462L5.13012 16.5385Z" fill="#FCBD5D"/>
</g>
<defs>
<clipPath id="clip0_1181_424">
<rect width="58.5106" height="50" fill="white"/>
</clipPath>
</defs>
</svg>
