<svg width="602" height="337" version="1.1" id="Layer_1" xmlns="http://www.w3.org/2000/svg" xmlns:xlink="http://www.w3.org/1999/xlink" x="0px" y="0px"
	 viewBox="0 0 602.01 337" style="enable-background:new 0 0 602.01 337;" xml:space="preserve">
<style type="text/css">
	.st0{fill:#ECECEC;}
	.st1{fill:#F0F0F0;}
	.st2{fill:#DBDBDB;}
	.st3{fill:#CCCCCC;}
	.st4{fill:#F9F9F9;}
	.st5{fill:#F2F2F2;}
	.st6{fill:#E6E6E6;}
	.st7{fill:#E8E8E8;}
	.st8{fill:#FDC726;}
	.st9{fill:#331E13;}
	.st10{fill:#FFFFFF;}
	.st11{fill-rule:evenodd;clip-rule:evenodd;fill:#1F120C;}
	.st12{fill-rule:evenodd;clip-rule:evenodd;fill:#331E13;}
	.st13{fill-rule:evenodd;clip-rule:evenodd;fill:#FDC726;}
	.st14{fill-rule:evenodd;clip-rule:evenodd;fill:#FE8C27;}
	.st15{fill:#FE8C27;}
	.st16{fill:#FFC8A0;}
	.st17{fill:#FF9A7F;}
	.st18{fill-rule:evenodd;clip-rule:evenodd;fill:#17BCAF;}
	.st19{fill-rule:evenodd;clip-rule:evenodd;fill:#0A9E90;}
	.st20{fill-rule:evenodd;clip-rule:evenodd;fill:#F2F2F2;}
	.st21{fill-rule:evenodd;clip-rule:evenodd;fill:#CCCCCC;}
	.st22{fill-rule:evenodd;clip-rule:evenodd;fill:#FFC8A0;}
	.st23{fill-rule:evenodd;clip-rule:evenodd;fill:#F9F9F9;}
	.st24{fill:#6A3E28;}
	.st25{fill:#0A9E90;}
	.st26{fill:#482A1B;}
	.st27{fill:#2B1910;}
	.st28{fill:#19B4ED;}
	.st29{opacity:0.1;}
</style>
<g id="Layer_1_1_">
</g>
<g id="Layer_2_1_">
	<g>
		<g>
			<rect x="355.35" y="114.66" class="st0" width="73.93" height="6.84"/>
			<rect x="351.54" y="120.62" class="st1" width="59.95" height="216.3"/>
			<rect x="411.49" y="120.62" class="st2" width="21.61" height="216.3"/>
			<g>
				<g>
					<rect x="355.97" y="183.84" class="st2" width="7.21" height="16.05"/>
					<rect x="364.75" y="183.84" class="st2" width="7.21" height="16.05"/>
					<rect x="373.52" y="183.84" class="st2" width="7.21" height="16.05"/>
					<rect x="382.3" y="183.84" class="st2" width="7.21" height="16.05"/>
					<rect x="391.07" y="183.84" class="st2" width="7.21" height="16.05"/>
					<rect x="399.85" y="183.84" class="st2" width="7.21" height="16.05"/>
				</g>
				<g>
					<rect x="355.97" y="202.3" class="st2" width="7.21" height="16.05"/>
					<rect x="364.75" y="202.3" class="st2" width="7.21" height="16.05"/>
					<rect x="373.52" y="202.3" class="st2" width="7.21" height="16.05"/>
					<rect x="382.3" y="202.3" class="st2" width="7.21" height="16.05"/>
					<rect x="391.07" y="202.3" class="st2" width="7.21" height="16.05"/>
					<rect x="399.85" y="202.3" class="st2" width="7.21" height="16.05"/>
				</g>
				<g>
					<rect x="355.97" y="220.75" class="st2" width="7.21" height="16.05"/>
					<rect x="364.75" y="220.75" class="st2" width="7.21" height="16.05"/>
					<rect x="373.52" y="220.75" class="st2" width="7.21" height="16.05"/>
					<rect x="382.3" y="220.75" class="st2" width="7.21" height="16.05"/>
					<rect x="391.07" y="220.75" class="st2" width="7.21" height="16.05"/>
					<rect x="399.85" y="220.75" class="st2" width="7.21" height="16.05"/>
				</g>
				<g>
					<rect x="355.97" y="239.2" class="st2" width="7.21" height="16.05"/>
					<rect x="364.75" y="239.2" class="st2" width="7.21" height="16.05"/>
					<rect x="373.52" y="239.2" class="st2" width="7.21" height="16.05"/>
					<rect x="382.3" y="239.2" class="st2" width="7.21" height="16.05"/>
					<rect x="391.07" y="239.2" class="st2" width="7.21" height="16.05"/>
					<rect x="399.85" y="239.2" class="st2" width="7.21" height="16.05"/>
				</g>
				<g>
					<rect x="355.97" y="257.65" class="st2" width="7.21" height="16.05"/>
					<rect x="364.75" y="257.65" class="st2" width="7.21" height="16.05"/>
					<rect x="373.52" y="257.65" class="st2" width="7.21" height="16.05"/>
					<rect x="382.3" y="257.65" class="st2" width="7.21" height="16.05"/>
					<rect x="391.07" y="257.65" class="st2" width="7.21" height="16.05"/>
					<rect x="399.85" y="257.65" class="st2" width="7.21" height="16.05"/>
				</g>
				<g>
					<rect x="355.97" y="276.11" class="st2" width="7.21" height="16.05"/>
					<rect x="364.75" y="276.11" class="st2" width="7.21" height="16.05"/>
					<rect x="373.52" y="276.11" class="st2" width="7.21" height="16.05"/>
					<rect x="382.3" y="276.11" class="st2" width="7.21" height="16.05"/>
					<rect x="391.07" y="276.11" class="st2" width="7.21" height="16.05"/>
					<rect x="399.85" y="276.11" class="st2" width="7.21" height="16.05"/>
				</g>
				<g>
					<rect x="355.97" y="294.56" class="st2" width="7.21" height="16.05"/>
					<rect x="364.75" y="294.56" class="st2" width="7.21" height="16.05"/>
					<rect x="373.52" y="294.56" class="st2" width="7.21" height="16.05"/>
					<rect x="382.3" y="294.56" class="st2" width="7.21" height="16.05"/>
					<rect x="391.07" y="294.56" class="st2" width="7.21" height="16.05"/>
					<rect x="399.85" y="294.56" class="st2" width="7.21" height="16.05"/>
				</g>
				<g>
					<rect x="355.97" y="313.01" class="st2" width="7.21" height="16.05"/>
					<rect x="364.75" y="313.01" class="st2" width="7.21" height="16.05"/>
					<rect x="373.52" y="313.01" class="st2" width="7.21" height="16.05"/>
					<rect x="382.3" y="313.01" class="st2" width="7.21" height="16.05"/>
					<rect x="391.07" y="313.01" class="st2" width="7.21" height="16.05"/>
					<rect x="399.85" y="313.01" class="st2" width="7.21" height="16.05"/>
				</g>
				<g>
					<rect x="355.97" y="128.48" class="st2" width="7.21" height="16.05"/>
					<rect x="364.75" y="128.48" class="st2" width="7.21" height="16.05"/>
					<rect x="373.52" y="128.48" class="st2" width="7.21" height="16.05"/>
					<rect x="382.3" y="128.48" class="st2" width="7.21" height="16.05"/>
					<rect x="391.07" y="128.48" class="st2" width="7.21" height="16.05"/>
					<rect x="399.85" y="128.48" class="st2" width="7.21" height="16.05"/>
				</g>
				<g>
					<rect x="355.97" y="146.94" class="st2" width="7.21" height="16.05"/>
					<rect x="364.75" y="146.94" class="st2" width="7.21" height="16.05"/>
					<rect x="373.52" y="146.94" class="st2" width="7.21" height="16.05"/>
					<rect x="382.3" y="146.94" class="st2" width="7.21" height="16.05"/>
					<rect x="391.07" y="146.94" class="st2" width="7.21" height="16.05"/>
					<rect x="399.85" y="146.94" class="st2" width="7.21" height="16.05"/>
				</g>
				<g>
					<rect x="355.97" y="165.39" class="st2" width="7.21" height="16.05"/>
					<rect x="364.75" y="165.39" class="st2" width="7.21" height="16.05"/>
					<rect x="373.52" y="165.39" class="st2" width="7.21" height="16.05"/>
					<rect x="382.3" y="165.39" class="st2" width="7.21" height="16.05"/>
					<rect x="391.07" y="165.39" class="st2" width="7.21" height="16.05"/>
					<rect x="399.85" y="165.39" class="st2" width="7.21" height="16.05"/>
				</g>
			</g>
			<g>
				<rect x="414.29" y="183.84" class="st3" width="7.21" height="16.05"/>
				<rect x="423.06" y="183.84" class="st3" width="7.21" height="16.05"/>
				<rect x="414.29" y="202.3" class="st3" width="7.21" height="16.05"/>
				<rect x="423.06" y="202.3" class="st3" width="7.21" height="16.05"/>
				<rect x="414.29" y="220.75" class="st3" width="7.21" height="16.05"/>
				<rect x="423.06" y="220.75" class="st3" width="7.21" height="16.05"/>
				<rect x="414.29" y="239.2" class="st3" width="7.21" height="16.05"/>
				<rect x="423.06" y="239.2" class="st3" width="7.21" height="16.05"/>
				<rect x="414.29" y="257.65" class="st3" width="7.21" height="16.05"/>
				<rect x="423.06" y="257.65" class="st3" width="7.21" height="16.05"/>
				<rect x="414.29" y="276.11" class="st3" width="7.21" height="16.05"/>
				<rect x="423.06" y="276.11" class="st3" width="7.21" height="16.05"/>
				<rect x="414.29" y="294.56" class="st3" width="7.21" height="16.05"/>
				<rect x="423.06" y="294.56" class="st3" width="7.21" height="16.05"/>
				<rect x="414.29" y="313.01" class="st3" width="7.21" height="16.05"/>
				<rect x="423.06" y="313.01" class="st3" width="7.21" height="16.05"/>
				<rect x="414.31" y="165.39" class="st3" width="7.21" height="16.05"/>
				<rect x="423.09" y="165.39" class="st3" width="7.21" height="16.05"/>
				<g>
					<rect x="414.3" y="128.48" class="st3" width="7.21" height="16.05"/>
					<rect x="423.07" y="128.48" class="st3" width="7.21" height="16.05"/>
				</g>
				<g>
					<rect x="414.3" y="146.94" class="st3" width="7.21" height="16.05"/>
					<rect x="423.07" y="146.94" class="st3" width="7.21" height="16.05"/>
				</g>
			</g>
			<polygon class="st4" points="470.22,157.33 470.22,336.92 413.72,336.92 413.72,137.9 			"/>
			<rect x="470.22" y="157.33" class="st5" width="21.77" height="179.59"/>
			<polygon class="st0" points="491.99,157.33 435.48,137.9 413.72,137.9 470.22,157.33 			"/>
			<g>
				<rect x="473.1" y="183.82" class="st0" width="7.21" height="16.05"/>
				<rect x="481.88" y="183.82" class="st0" width="7.21" height="16.05"/>
				<rect x="473.1" y="202.27" class="st0" width="7.21" height="16.05"/>
				<rect x="481.88" y="202.27" class="st0" width="7.21" height="16.05"/>
				<rect x="473.1" y="220.73" class="st0" width="7.21" height="16.05"/>
				<rect x="481.88" y="220.73" class="st0" width="7.21" height="16.05"/>
				<rect x="473.1" y="239.18" class="st0" width="7.21" height="16.05"/>
				<rect x="481.88" y="239.18" class="st0" width="7.21" height="16.05"/>
				<rect x="473.1" y="257.63" class="st0" width="7.21" height="16.05"/>
				<rect x="481.88" y="257.63" class="st0" width="7.21" height="16.05"/>
				<rect x="473.1" y="276.09" class="st0" width="7.21" height="16.05"/>
				<rect x="481.88" y="276.09" class="st0" width="7.21" height="16.05"/>
				<rect x="473.1" y="294.54" class="st0" width="7.21" height="16.05"/>
				<rect x="481.88" y="294.54" class="st0" width="7.21" height="16.05"/>
				<rect x="473.1" y="312.99" class="st0" width="7.21" height="16.05"/>
				<rect x="481.88" y="312.99" class="st0" width="7.21" height="16.05"/>
				<rect x="473.13" y="165.37" class="st0" width="7.21" height="16.05"/>
				<rect x="481.9" y="165.37" class="st0" width="7.21" height="16.05"/>
			</g>
			<g>
				<g>
					<rect x="416.43" y="183.82" class="st5" width="7.21" height="16.05"/>
					<rect x="425.2" y="183.82" class="st5" width="7.21" height="16.05"/>
					<rect x="433.98" y="183.82" class="st5" width="7.21" height="16.05"/>
					<rect x="442.76" y="183.82" class="st5" width="7.21" height="16.05"/>
					<rect x="451.53" y="183.82" class="st5" width="7.21" height="16.05"/>
					<rect x="460.31" y="183.82" class="st5" width="7.21" height="16.05"/>
				</g>
				<g>
					<polygon class="st5" points="460.29,160.83 460.29,181.42 467.52,181.42 467.52,163.31 					"/>
					<polygon class="st5" points="451.52,157.82 451.52,181.42 458.72,181.42 458.72,160.29 					"/>
					<polygon class="st5" points="442.76,154.8 442.76,181.42 449.96,181.42 449.96,157.28 					"/>
					<polygon class="st5" points="434,151.79 434,181.42 441.19,181.42 441.19,154.26 					"/>
					<polygon class="st5" points="425.24,148.78 425.24,181.42 432.43,181.42 432.43,151.25 					"/>
					<polygon class="st5" points="423.63,181.42 423.63,148.23 416.43,145.75 416.43,181.42 					"/>
				</g>
				<g>
					<rect x="416.43" y="202.27" class="st5" width="7.21" height="16.05"/>
					<rect x="425.2" y="202.27" class="st5" width="7.21" height="16.05"/>
					<rect x="433.98" y="202.27" class="st5" width="7.21" height="16.05"/>
					<rect x="442.76" y="202.27" class="st5" width="7.21" height="16.05"/>
					<rect x="451.53" y="202.27" class="st5" width="7.21" height="16.05"/>
					<rect x="460.31" y="202.27" class="st5" width="7.21" height="16.05"/>
				</g>
				<g>
					<rect x="416.43" y="220.73" class="st5" width="7.21" height="16.05"/>
					<rect x="425.2" y="220.73" class="st5" width="7.21" height="16.05"/>
					<rect x="433.98" y="220.73" class="st5" width="7.21" height="16.05"/>
					<rect x="442.76" y="220.73" class="st5" width="7.21" height="16.05"/>
					<rect x="451.53" y="220.73" class="st5" width="7.21" height="16.05"/>
					<rect x="460.31" y="220.73" class="st5" width="7.21" height="16.05"/>
				</g>
				<g>
					<rect x="416.43" y="239.18" class="st5" width="7.21" height="16.05"/>
					<rect x="425.2" y="239.18" class="st5" width="7.21" height="16.05"/>
					<rect x="433.98" y="239.18" class="st5" width="7.21" height="16.05"/>
					<rect x="442.76" y="239.18" class="st5" width="7.21" height="16.05"/>
					<rect x="451.53" y="239.18" class="st5" width="7.21" height="16.05"/>
					<rect x="460.31" y="239.18" class="st5" width="7.21" height="16.05"/>
				</g>
				<g>
					<rect x="416.43" y="257.63" class="st5" width="7.21" height="16.05"/>
					<rect x="425.2" y="257.63" class="st5" width="7.21" height="16.05"/>
					<rect x="433.98" y="257.63" class="st5" width="7.21" height="16.05"/>
					<rect x="442.76" y="257.63" class="st5" width="7.21" height="16.05"/>
					<rect x="451.53" y="257.63" class="st5" width="7.21" height="16.05"/>
					<rect x="460.31" y="257.63" class="st5" width="7.21" height="16.05"/>
				</g>
				<g>
					<rect x="416.43" y="276.09" class="st5" width="7.21" height="16.05"/>
					<rect x="425.2" y="276.09" class="st5" width="7.21" height="16.05"/>
					<rect x="433.98" y="276.09" class="st5" width="7.21" height="16.05"/>
					<rect x="442.76" y="276.09" class="st5" width="7.21" height="16.05"/>
					<rect x="451.53" y="276.09" class="st5" width="7.21" height="16.05"/>
					<rect x="460.31" y="276.09" class="st5" width="7.21" height="16.05"/>
				</g>
				<g>
					<rect x="416.43" y="294.54" class="st5" width="7.21" height="16.05"/>
					<rect x="425.2" y="294.54" class="st5" width="7.21" height="16.05"/>
					<rect x="433.98" y="294.54" class="st5" width="7.21" height="16.05"/>
					<rect x="442.76" y="294.54" class="st5" width="7.21" height="16.05"/>
					<rect x="451.53" y="294.54" class="st5" width="7.21" height="16.05"/>
					<rect x="460.31" y="294.54" class="st5" width="7.21" height="16.05"/>
				</g>
				<g>
					<rect x="416.43" y="312.99" class="st5" width="7.21" height="16.05"/>
					<rect x="425.2" y="312.99" class="st5" width="7.21" height="16.05"/>
					<rect x="433.98" y="312.99" class="st5" width="7.21" height="16.05"/>
					<rect x="442.76" y="312.99" class="st5" width="7.21" height="16.05"/>
					<rect x="451.53" y="312.99" class="st5" width="7.21" height="16.05"/>
					<rect x="460.31" y="312.99" class="st5" width="7.21" height="16.05"/>
				</g>
			</g>
			<g>
				<polygon class="st4" points="288.61,157.33 288.61,336.92 232.11,336.92 232.11,137.9 				"/>
				<rect x="288.61" y="157.33" class="st5" width="21.77" height="179.59"/>
				<polygon class="st0" points="310.38,157.33 253.87,137.9 232.11,137.9 288.61,157.33 				"/>
				<g>
					<rect x="291.49" y="183.82" class="st0" width="7.21" height="16.05"/>
					<rect x="300.27" y="183.82" class="st0" width="7.21" height="16.05"/>
					<rect x="291.49" y="202.27" class="st0" width="7.21" height="16.05"/>
					<rect x="300.27" y="202.27" class="st0" width="7.21" height="16.05"/>
					<rect x="291.49" y="220.73" class="st0" width="7.21" height="16.05"/>
					<rect x="300.27" y="220.73" class="st0" width="7.21" height="16.05"/>
					<rect x="291.49" y="239.18" class="st0" width="7.21" height="16.05"/>
					<rect x="300.27" y="239.18" class="st0" width="7.21" height="16.05"/>
					<rect x="291.49" y="257.63" class="st0" width="7.21" height="16.05"/>
					<rect x="300.27" y="257.63" class="st0" width="7.21" height="16.05"/>
					<rect x="291.49" y="276.09" class="st0" width="7.21" height="16.05"/>
					<rect x="300.27" y="276.09" class="st0" width="7.21" height="16.05"/>
					<rect x="291.49" y="294.54" class="st0" width="7.21" height="16.05"/>
					<rect x="300.27" y="294.54" class="st0" width="7.21" height="16.05"/>
					<rect x="291.49" y="312.99" class="st0" width="7.21" height="16.05"/>
					<rect x="300.27" y="312.99" class="st0" width="7.21" height="16.05"/>
					<rect x="291.51" y="165.37" class="st0" width="7.21" height="16.05"/>
					<rect x="300.29" y="165.37" class="st0" width="7.21" height="16.05"/>
				</g>
				<g>
					<g>
						<rect x="234.82" y="183.82" class="st5" width="7.21" height="16.05"/>
						<rect x="243.59" y="183.82" class="st5" width="7.21" height="16.05"/>
						<rect x="252.37" y="183.82" class="st5" width="7.21" height="16.05"/>
						<rect x="261.14" y="183.82" class="st5" width="7.21" height="16.05"/>
						<rect x="269.92" y="183.82" class="st5" width="7.21" height="16.05"/>
						<rect x="278.7" y="183.82" class="st5" width="7.21" height="16.05"/>
					</g>
					<g>
						<polygon class="st5" points="278.68,160.83 278.68,181.42 285.9,181.42 285.9,163.31 						"/>
						<polygon class="st5" points="269.91,157.82 269.91,181.42 277.11,181.42 277.11,160.29 						"/>
						<polygon class="st5" points="261.15,154.8 261.15,181.42 268.34,181.42 268.34,157.28 						"/>
						<polygon class="st5" points="252.39,151.79 252.39,181.42 259.58,181.42 259.58,154.26 						"/>
						<polygon class="st5" points="243.63,148.78 243.63,181.42 250.82,181.42 250.82,151.25 						"/>
						<polygon class="st5" points="242.02,181.42 242.02,148.23 234.82,145.75 234.82,181.42 						"/>
					</g>
					<g>
						<rect x="234.82" y="202.27" class="st5" width="7.21" height="16.05"/>
						<rect x="243.59" y="202.27" class="st5" width="7.21" height="16.05"/>
						<rect x="252.37" y="202.27" class="st5" width="7.21" height="16.05"/>
						<rect x="261.14" y="202.27" class="st5" width="7.21" height="16.05"/>
						<rect x="269.92" y="202.27" class="st5" width="7.21" height="16.05"/>
						<rect x="278.7" y="202.27" class="st5" width="7.21" height="16.05"/>
					</g>
					<g>
						<rect x="234.82" y="220.73" class="st5" width="7.21" height="16.05"/>
						<rect x="243.59" y="220.73" class="st5" width="7.21" height="16.05"/>
						<rect x="252.37" y="220.73" class="st5" width="7.21" height="16.05"/>
						<rect x="261.14" y="220.73" class="st5" width="7.21" height="16.05"/>
						<rect x="269.92" y="220.73" class="st5" width="7.21" height="16.05"/>
						<rect x="278.7" y="220.73" class="st5" width="7.21" height="16.05"/>
					</g>
					<g>
						<rect x="234.82" y="239.18" class="st5" width="7.21" height="16.05"/>
						<rect x="243.59" y="239.18" class="st5" width="7.21" height="16.05"/>
						<rect x="252.37" y="239.18" class="st5" width="7.21" height="16.05"/>
						<rect x="261.14" y="239.18" class="st5" width="7.21" height="16.05"/>
						<rect x="269.92" y="239.18" class="st5" width="7.21" height="16.05"/>
						<rect x="278.7" y="239.18" class="st5" width="7.21" height="16.05"/>
					</g>
					<g>
						<rect x="234.82" y="257.63" class="st5" width="7.21" height="16.05"/>
						<rect x="243.59" y="257.63" class="st5" width="7.21" height="16.05"/>
						<rect x="252.37" y="257.63" class="st5" width="7.21" height="16.05"/>
						<rect x="261.14" y="257.63" class="st5" width="7.21" height="16.05"/>
						<rect x="269.92" y="257.63" class="st5" width="7.21" height="16.05"/>
						<rect x="278.7" y="257.63" class="st5" width="7.21" height="16.05"/>
					</g>
					<g>
						<rect x="234.82" y="276.09" class="st5" width="7.21" height="16.05"/>
						<rect x="243.59" y="276.09" class="st5" width="7.21" height="16.05"/>
						<rect x="252.37" y="276.09" class="st5" width="7.21" height="16.05"/>
						<rect x="261.14" y="276.09" class="st5" width="7.21" height="16.05"/>
						<rect x="269.92" y="276.09" class="st5" width="7.21" height="16.05"/>
						<rect x="278.7" y="276.09" class="st5" width="7.21" height="16.05"/>
					</g>
					<g>
						<rect x="234.82" y="294.54" class="st5" width="7.21" height="16.05"/>
						<rect x="243.59" y="294.54" class="st5" width="7.21" height="16.05"/>
						<rect x="252.37" y="294.54" class="st5" width="7.21" height="16.05"/>
						<rect x="261.14" y="294.54" class="st5" width="7.21" height="16.05"/>
						<rect x="269.92" y="294.54" class="st5" width="7.21" height="16.05"/>
						<rect x="278.7" y="294.54" class="st5" width="7.21" height="16.05"/>
					</g>
					<g>
						<rect x="234.82" y="312.99" class="st5" width="7.21" height="16.05"/>
						<rect x="243.59" y="312.99" class="st5" width="7.21" height="16.05"/>
						<rect x="252.37" y="312.99" class="st5" width="7.21" height="16.05"/>
						<rect x="261.14" y="312.99" class="st5" width="7.21" height="16.05"/>
						<rect x="269.92" y="312.99" class="st5" width="7.21" height="16.05"/>
						<rect x="278.7" y="312.99" class="st5" width="7.21" height="16.05"/>
					</g>
				</g>
			</g>
			<rect x="286.03" y="194.39" class="st1" width="60.56" height="142.52"/>
			<rect x="346.58" y="194.38" class="st6" width="30.94" height="142.54"/>
			<g>
				<g>
					<rect x="290.77" y="202.27" class="st6" width="7.21" height="16.05"/>
					<rect x="299.55" y="202.27" class="st6" width="7.21" height="16.05"/>
					<rect x="308.32" y="202.27" class="st6" width="7.21" height="16.05"/>
					<rect x="317.1" y="202.27" class="st6" width="7.21" height="16.05"/>
					<rect x="325.88" y="202.27" class="st6" width="7.21" height="16.05"/>
					<rect x="334.65" y="202.27" class="st6" width="7.21" height="16.05"/>
				</g>
				<g>
					<rect x="290.77" y="220.73" class="st6" width="7.21" height="16.05"/>
					<rect x="299.55" y="220.73" class="st6" width="7.21" height="16.05"/>
					<rect x="308.32" y="220.73" class="st6" width="7.21" height="16.05"/>
					<rect x="317.1" y="220.73" class="st6" width="7.21" height="16.05"/>
					<rect x="325.88" y="220.73" class="st6" width="7.21" height="16.05"/>
					<rect x="334.65" y="220.73" class="st6" width="7.21" height="16.05"/>
				</g>
				<g>
					<rect x="290.77" y="239.18" class="st6" width="7.21" height="16.05"/>
					<rect x="299.55" y="239.18" class="st6" width="7.21" height="16.05"/>
					<rect x="308.32" y="239.18" class="st6" width="7.21" height="16.05"/>
					<rect x="317.1" y="239.18" class="st6" width="7.21" height="16.05"/>
					<rect x="325.88" y="239.18" class="st6" width="7.21" height="16.05"/>
					<rect x="334.65" y="239.18" class="st6" width="7.21" height="16.05"/>
				</g>
				<g>
					<rect x="290.77" y="257.63" class="st6" width="7.21" height="16.05"/>
					<rect x="299.55" y="257.63" class="st6" width="7.21" height="16.05"/>
					<rect x="308.32" y="257.63" class="st6" width="7.21" height="16.05"/>
					<rect x="317.1" y="257.63" class="st6" width="7.21" height="16.05"/>
					<rect x="325.88" y="257.63" class="st6" width="7.21" height="16.05"/>
					<rect x="334.65" y="257.63" class="st6" width="7.21" height="16.05"/>
				</g>
				<g>
					<rect x="290.77" y="276.09" class="st6" width="7.21" height="16.05"/>
					<rect x="299.55" y="276.09" class="st6" width="7.21" height="16.05"/>
					<rect x="308.32" y="276.09" class="st6" width="7.21" height="16.05"/>
					<rect x="317.1" y="276.09" class="st6" width="7.21" height="16.05"/>
					<rect x="325.88" y="276.09" class="st6" width="7.21" height="16.05"/>
					<rect x="334.65" y="276.09" class="st6" width="7.21" height="16.05"/>
				</g>
				<g>
					<rect x="290.77" y="294.54" class="st6" width="7.21" height="16.05"/>
					<rect x="299.55" y="294.54" class="st6" width="7.21" height="16.05"/>
					<rect x="308.32" y="294.54" class="st6" width="7.21" height="16.05"/>
					<rect x="317.1" y="294.54" class="st6" width="7.21" height="16.05"/>
					<rect x="325.88" y="294.54" class="st6" width="7.21" height="16.05"/>
					<rect x="334.65" y="294.54" class="st6" width="7.21" height="16.05"/>
				</g>
				<g>
					<rect x="290.77" y="312.99" class="st6" width="7.21" height="16.05"/>
					<rect x="299.55" y="312.99" class="st6" width="7.21" height="16.05"/>
					<rect x="308.32" y="312.99" class="st6" width="7.21" height="16.05"/>
					<rect x="317.1" y="312.99" class="st6" width="7.21" height="16.05"/>
					<rect x="325.88" y="312.99" class="st6" width="7.21" height="16.05"/>
					<rect x="334.65" y="312.99" class="st6" width="7.21" height="16.05"/>
				</g>
			</g>
			<g>
				<rect x="349.68" y="202.27" class="st2" width="7.21" height="16.05"/>
				<rect x="358.45" y="202.27" class="st2" width="7.21" height="16.05"/>
				<rect x="367.23" y="202.27" class="st2" width="7.21" height="16.05"/>
				<rect x="349.68" y="220.72" class="st2" width="7.21" height="16.05"/>
				<rect x="358.45" y="220.72" class="st2" width="7.21" height="16.05"/>
				<rect x="367.23" y="220.72" class="st2" width="7.21" height="16.05"/>
				<rect x="349.68" y="239.17" class="st2" width="7.21" height="16.05"/>
				<rect x="358.45" y="239.17" class="st2" width="7.21" height="16.05"/>
				<rect x="367.23" y="239.17" class="st2" width="7.21" height="16.05"/>
				<rect x="349.68" y="257.63" class="st2" width="7.21" height="16.05"/>
				<rect x="358.45" y="257.63" class="st2" width="7.21" height="16.05"/>
				<rect x="367.23" y="257.63" class="st2" width="7.21" height="16.05"/>
				<rect x="349.68" y="276.08" class="st2" width="7.21" height="16.05"/>
				<rect x="358.45" y="276.08" class="st2" width="7.21" height="16.05"/>
				<rect x="367.23" y="276.08" class="st2" width="7.21" height="16.05"/>
				<rect x="349.68" y="294.53" class="st2" width="7.21" height="16.05"/>
				<rect x="358.45" y="294.53" class="st2" width="7.21" height="16.05"/>
				<rect x="367.23" y="294.53" class="st2" width="7.21" height="16.05"/>
				<rect x="349.68" y="312.98" class="st2" width="7.21" height="16.05"/>
				<rect x="358.45" y="312.98" class="st2" width="7.21" height="16.05"/>
				<rect x="367.23" y="312.98" class="st2" width="7.21" height="16.05"/>
			</g>
			<rect x="289.12" y="187.72" class="st4" width="85.3" height="6.66"/>
			<g>
				<rect x="165.26" y="114.66" class="st0" width="73.93" height="6.84"/>
				<rect x="161.45" y="120.62" class="st1" width="59.95" height="216.3"/>
				<rect x="221.39" y="120.62" class="st2" width="21.61" height="216.3"/>
				<g>
					<g>
						<rect x="165.88" y="183.84" class="st2" width="7.21" height="16.05"/>
						<rect x="174.65" y="183.84" class="st2" width="7.21" height="16.05"/>
						<rect x="183.43" y="183.84" class="st2" width="7.21" height="16.05"/>
						<rect x="192.21" y="183.84" class="st2" width="7.21" height="16.05"/>
						<rect x="200.98" y="183.84" class="st2" width="7.21" height="16.05"/>
						<rect x="209.76" y="183.84" class="st2" width="7.21" height="16.05"/>
					</g>
					<g>
						<rect x="165.88" y="202.3" class="st2" width="7.21" height="16.05"/>
						<rect x="174.65" y="202.3" class="st2" width="7.21" height="16.05"/>
						<rect x="183.43" y="202.3" class="st2" width="7.21" height="16.05"/>
						<rect x="192.21" y="202.3" class="st2" width="7.21" height="16.05"/>
						<rect x="200.98" y="202.3" class="st2" width="7.21" height="16.05"/>
						<rect x="209.76" y="202.3" class="st2" width="7.21" height="16.05"/>
					</g>
					<g>
						<rect x="165.88" y="220.75" class="st2" width="7.21" height="16.05"/>
						<rect x="174.65" y="220.75" class="st2" width="7.21" height="16.05"/>
						<rect x="183.43" y="220.75" class="st2" width="7.21" height="16.05"/>
						<rect x="192.21" y="220.75" class="st2" width="7.21" height="16.05"/>
						<rect x="200.98" y="220.75" class="st2" width="7.21" height="16.05"/>
						<rect x="209.76" y="220.75" class="st2" width="7.21" height="16.05"/>
					</g>
					<g>
						<rect x="165.88" y="239.2" class="st2" width="7.21" height="16.05"/>
						<rect x="174.65" y="239.2" class="st2" width="7.21" height="16.05"/>
						<rect x="183.43" y="239.2" class="st2" width="7.21" height="16.05"/>
						<rect x="192.21" y="239.2" class="st2" width="7.21" height="16.05"/>
						<rect x="200.98" y="239.2" class="st2" width="7.21" height="16.05"/>
						<rect x="209.76" y="239.2" class="st2" width="7.21" height="16.05"/>
					</g>
					<g>
						<rect x="165.88" y="257.65" class="st2" width="7.21" height="16.05"/>
						<rect x="174.65" y="257.65" class="st2" width="7.21" height="16.05"/>
						<rect x="183.43" y="257.65" class="st2" width="7.21" height="16.05"/>
						<rect x="192.21" y="257.65" class="st2" width="7.21" height="16.05"/>
						<rect x="200.98" y="257.65" class="st2" width="7.21" height="16.05"/>
						<rect x="209.76" y="257.65" class="st2" width="7.21" height="16.05"/>
					</g>
					<g>
						<rect x="165.88" y="276.11" class="st2" width="7.21" height="16.05"/>
						<rect x="174.65" y="276.11" class="st2" width="7.21" height="16.05"/>
						<rect x="183.43" y="276.11" class="st2" width="7.21" height="16.05"/>
						<rect x="192.21" y="276.11" class="st2" width="7.21" height="16.05"/>
						<rect x="200.98" y="276.11" class="st2" width="7.21" height="16.05"/>
						<rect x="209.76" y="276.11" class="st2" width="7.21" height="16.05"/>
					</g>
					<g>
						<rect x="165.88" y="294.56" class="st2" width="7.21" height="16.05"/>
						<rect x="174.65" y="294.56" class="st2" width="7.21" height="16.05"/>
						<rect x="183.43" y="294.56" class="st2" width="7.21" height="16.05"/>
						<rect x="192.21" y="294.56" class="st2" width="7.21" height="16.05"/>
						<rect x="200.98" y="294.56" class="st2" width="7.21" height="16.05"/>
						<rect x="209.76" y="294.56" class="st2" width="7.21" height="16.05"/>
					</g>
					<g>
						<rect x="165.88" y="313.01" class="st2" width="7.21" height="16.05"/>
						<rect x="174.65" y="313.01" class="st2" width="7.21" height="16.05"/>
						<rect x="183.43" y="313.01" class="st2" width="7.21" height="16.05"/>
						<rect x="192.21" y="313.01" class="st2" width="7.21" height="16.05"/>
						<rect x="200.98" y="313.01" class="st2" width="7.21" height="16.05"/>
						<rect x="209.76" y="313.01" class="st2" width="7.21" height="16.05"/>
					</g>
					<g>
						<rect x="165.88" y="128.48" class="st2" width="7.21" height="16.05"/>
						<rect x="174.65" y="128.48" class="st2" width="7.21" height="16.05"/>
						<rect x="183.43" y="128.48" class="st2" width="7.21" height="16.05"/>
						<rect x="192.21" y="128.48" class="st2" width="7.21" height="16.05"/>
						<rect x="200.98" y="128.48" class="st2" width="7.21" height="16.05"/>
						<rect x="209.76" y="128.48" class="st2" width="7.21" height="16.05"/>
					</g>
					<g>
						<rect x="165.88" y="146.94" class="st2" width="7.21" height="16.05"/>
						<rect x="174.65" y="146.94" class="st2" width="7.21" height="16.05"/>
						<rect x="183.43" y="146.94" class="st2" width="7.21" height="16.05"/>
						<rect x="192.21" y="146.94" class="st2" width="7.21" height="16.05"/>
						<rect x="200.98" y="146.94" class="st2" width="7.21" height="16.05"/>
						<rect x="209.76" y="146.94" class="st2" width="7.21" height="16.05"/>
					</g>
					<g>
						<rect x="165.88" y="165.39" class="st2" width="7.21" height="16.05"/>
						<rect x="174.65" y="165.39" class="st2" width="7.21" height="16.05"/>
						<rect x="183.43" y="165.39" class="st2" width="7.21" height="16.05"/>
						<rect x="192.21" y="165.39" class="st2" width="7.21" height="16.05"/>
						<rect x="200.98" y="165.39" class="st2" width="7.21" height="16.05"/>
						<rect x="209.76" y="165.39" class="st2" width="7.21" height="16.05"/>
					</g>
				</g>
				<g>
					<rect x="224.2" y="183.84" class="st3" width="7.21" height="16.05"/>
					<rect x="232.97" y="183.84" class="st3" width="7.21" height="16.05"/>
					<rect x="224.2" y="202.3" class="st3" width="7.21" height="16.05"/>
					<rect x="232.97" y="202.3" class="st3" width="7.21" height="16.05"/>
					<rect x="224.2" y="220.75" class="st3" width="7.21" height="16.05"/>
					<rect x="232.97" y="220.75" class="st3" width="7.21" height="16.05"/>
					<rect x="224.2" y="239.2" class="st3" width="7.21" height="16.05"/>
					<rect x="232.97" y="239.2" class="st3" width="7.21" height="16.05"/>
					<rect x="224.2" y="257.65" class="st3" width="7.21" height="16.05"/>
					<rect x="232.97" y="257.65" class="st3" width="7.21" height="16.05"/>
					<rect x="224.2" y="276.11" class="st3" width="7.21" height="16.05"/>
					<rect x="232.97" y="276.11" class="st3" width="7.21" height="16.05"/>
					<rect x="224.2" y="294.56" class="st3" width="7.21" height="16.05"/>
					<rect x="232.97" y="294.56" class="st3" width="7.21" height="16.05"/>
					<rect x="224.2" y="313.01" class="st3" width="7.21" height="16.05"/>
					<rect x="232.97" y="313.01" class="st3" width="7.21" height="16.05"/>
					<rect x="224.22" y="165.39" class="st3" width="7.21" height="16.05"/>
					<rect x="233" y="165.39" class="st3" width="7.21" height="16.05"/>
					<g>
						<rect x="224.21" y="128.48" class="st3" width="7.21" height="16.05"/>
						<rect x="232.98" y="128.48" class="st3" width="7.21" height="16.05"/>
					</g>
					<g>
						<rect x="224.21" y="146.94" class="st3" width="7.21" height="16.05"/>
						<rect x="232.98" y="146.94" class="st3" width="7.21" height="16.05"/>
					</g>
				</g>
			</g>
			<g>
				<rect x="104.42" y="194.39" class="st4" width="60.56" height="142.52"/>
				<rect x="164.97" y="194.38" class="st5" width="30.94" height="142.54"/>
				<g>
					<g>
						<rect x="109.16" y="202.27" class="st5" width="7.21" height="16.05"/>
						<rect x="117.94" y="202.27" class="st5" width="7.21" height="16.05"/>
						<rect x="126.71" y="202.27" class="st5" width="7.21" height="16.05"/>
						<rect x="135.49" y="202.27" class="st5" width="7.21" height="16.05"/>
						<rect x="144.26" y="202.27" class="st5" width="7.21" height="16.05"/>
						<rect x="153.04" y="202.27" class="st5" width="7.21" height="16.05"/>
					</g>
					<g>
						<rect x="109.16" y="220.73" class="st5" width="7.21" height="16.05"/>
						<rect x="117.94" y="220.73" class="st5" width="7.21" height="16.05"/>
						<rect x="126.71" y="220.73" class="st5" width="7.21" height="16.05"/>
						<rect x="135.49" y="220.73" class="st5" width="7.21" height="16.05"/>
						<rect x="144.26" y="220.73" class="st5" width="7.21" height="16.05"/>
						<rect x="153.04" y="220.73" class="st5" width="7.21" height="16.05"/>
					</g>
					<g>
						<rect x="109.16" y="239.18" class="st5" width="7.21" height="16.05"/>
						<rect x="117.94" y="239.18" class="st5" width="7.21" height="16.05"/>
						<rect x="126.71" y="239.18" class="st5" width="7.21" height="16.05"/>
						<rect x="135.49" y="239.18" class="st5" width="7.21" height="16.05"/>
						<rect x="144.26" y="239.18" class="st5" width="7.21" height="16.05"/>
						<rect x="153.04" y="239.18" class="st5" width="7.21" height="16.05"/>
					</g>
					<g>
						<rect x="109.16" y="257.63" class="st5" width="7.21" height="16.05"/>
						<rect x="117.94" y="257.63" class="st5" width="7.21" height="16.05"/>
						<rect x="126.71" y="257.63" class="st5" width="7.21" height="16.05"/>
						<rect x="135.49" y="257.63" class="st5" width="7.21" height="16.05"/>
						<rect x="144.26" y="257.63" class="st5" width="7.21" height="16.05"/>
						<rect x="153.04" y="257.63" class="st5" width="7.21" height="16.05"/>
					</g>
					<g>
						<rect x="109.16" y="276.09" class="st5" width="7.21" height="16.05"/>
						<rect x="117.94" y="276.09" class="st5" width="7.21" height="16.05"/>
						<rect x="126.71" y="276.09" class="st5" width="7.21" height="16.05"/>
						<rect x="135.49" y="276.09" class="st5" width="7.21" height="16.05"/>
						<rect x="144.26" y="276.09" class="st5" width="7.21" height="16.05"/>
						<rect x="153.04" y="276.09" class="st5" width="7.21" height="16.05"/>
					</g>
					<g>
						<rect x="109.16" y="294.54" class="st5" width="7.21" height="16.05"/>
						<rect x="117.94" y="294.54" class="st5" width="7.21" height="16.05"/>
						<rect x="126.71" y="294.54" class="st5" width="7.21" height="16.05"/>
						<rect x="135.49" y="294.54" class="st5" width="7.21" height="16.05"/>
						<rect x="144.26" y="294.54" class="st5" width="7.21" height="16.05"/>
						<rect x="153.04" y="294.54" class="st5" width="7.21" height="16.05"/>
					</g>
					<g>
						<rect x="109.16" y="312.99" class="st5" width="7.21" height="16.05"/>
						<rect x="117.94" y="312.99" class="st5" width="7.21" height="16.05"/>
						<rect x="126.71" y="312.99" class="st5" width="7.21" height="16.05"/>
						<rect x="135.49" y="312.99" class="st5" width="7.21" height="16.05"/>
						<rect x="144.26" y="312.99" class="st5" width="7.21" height="16.05"/>
						<rect x="153.04" y="312.99" class="st5" width="7.21" height="16.05"/>
					</g>
				</g>
				<g>
					<rect x="168.06" y="202.27" class="st0" width="7.21" height="16.05"/>
					<rect x="176.84" y="202.27" class="st0" width="7.21" height="16.05"/>
					<rect x="185.62" y="202.27" class="st0" width="7.21" height="16.05"/>
					<rect x="168.06" y="220.72" class="st0" width="7.21" height="16.05"/>
					<rect x="176.84" y="220.72" class="st0" width="7.21" height="16.05"/>
					<rect x="185.62" y="220.72" class="st0" width="7.21" height="16.05"/>
					<rect x="168.06" y="239.17" class="st0" width="7.21" height="16.05"/>
					<rect x="176.84" y="239.17" class="st0" width="7.21" height="16.05"/>
					<rect x="185.62" y="239.17" class="st0" width="7.21" height="16.05"/>
					<rect x="168.06" y="257.63" class="st0" width="7.21" height="16.05"/>
					<rect x="176.84" y="257.63" class="st0" width="7.21" height="16.05"/>
					<rect x="185.62" y="257.63" class="st0" width="7.21" height="16.05"/>
					<rect x="168.06" y="276.08" class="st0" width="7.21" height="16.05"/>
					<rect x="176.84" y="276.08" class="st0" width="7.21" height="16.05"/>
					<rect x="185.62" y="276.08" class="st0" width="7.21" height="16.05"/>
					<rect x="168.06" y="294.53" class="st0" width="7.21" height="16.05"/>
					<rect x="176.84" y="294.53" class="st0" width="7.21" height="16.05"/>
					<rect x="185.62" y="294.53" class="st0" width="7.21" height="16.05"/>
					<rect x="168.06" y="312.98" class="st0" width="7.21" height="16.05"/>
					<rect x="176.84" y="312.98" class="st0" width="7.21" height="16.05"/>
					<rect x="185.62" y="312.98" class="st0" width="7.21" height="16.05"/>
				</g>
				<rect x="107.51" y="187.72" class="st0" width="85.3" height="6.66"/>
			</g>
			<g>
				<polygon class="st1" points="107,157.33 107,336.92 50.49,336.92 50.49,137.9 				"/>
				<rect x="107" y="157.33" class="st6" width="21.77" height="179.59"/>
				<polygon class="st7" points="128.76,157.33 72.26,137.9 50.49,137.9 107,157.33 				"/>
				<g>
					<rect x="109.88" y="183.82" class="st2" width="7.21" height="16.05"/>
					<rect x="118.66" y="183.82" class="st2" width="7.21" height="16.05"/>
					<rect x="109.88" y="202.27" class="st2" width="7.21" height="16.05"/>
					<rect x="118.66" y="202.27" class="st2" width="7.21" height="16.05"/>
					<rect x="109.88" y="220.73" class="st2" width="7.21" height="16.05"/>
					<rect x="118.66" y="220.73" class="st2" width="7.21" height="16.05"/>
					<rect x="109.88" y="239.18" class="st2" width="7.21" height="16.05"/>
					<rect x="118.66" y="239.18" class="st2" width="7.21" height="16.05"/>
					<rect x="109.88" y="257.63" class="st2" width="7.21" height="16.05"/>
					<rect x="118.66" y="257.63" class="st2" width="7.21" height="16.05"/>
					<rect x="109.88" y="276.09" class="st2" width="7.21" height="16.05"/>
					<rect x="118.66" y="276.09" class="st2" width="7.21" height="16.05"/>
					<rect x="109.88" y="294.54" class="st2" width="7.21" height="16.05"/>
					<rect x="118.66" y="294.54" class="st2" width="7.21" height="16.05"/>
					<rect x="109.88" y="312.99" class="st2" width="7.21" height="16.05"/>
					<rect x="118.66" y="312.99" class="st2" width="7.21" height="16.05"/>
					<rect x="109.9" y="165.37" class="st2" width="7.21" height="16.05"/>
					<rect x="118.68" y="165.37" class="st2" width="7.21" height="16.05"/>
				</g>
				<g>
					<g>
						<rect x="53.2" y="183.82" class="st6" width="7.21" height="16.05"/>
						<rect x="61.98" y="183.82" class="st6" width="7.21" height="16.05"/>
						<rect x="70.76" y="183.82" class="st6" width="7.21" height="16.05"/>
						<rect x="79.53" y="183.82" class="st6" width="7.21" height="16.05"/>
						<rect x="88.31" y="183.82" class="st6" width="7.21" height="16.05"/>
						<rect x="97.08" y="183.82" class="st6" width="7.21" height="16.05"/>
					</g>
					<g>
						<polygon class="st6" points="97.07,160.83 97.07,181.42 104.29,181.42 104.29,163.31 						"/>
						<polygon class="st6" points="88.3,157.82 88.3,181.42 95.49,181.42 95.49,160.29 						"/>
						<polygon class="st6" points="79.54,154.8 79.54,181.42 86.73,181.42 86.73,157.28 						"/>
						<polygon class="st6" points="70.78,151.79 70.78,181.42 77.97,181.42 77.97,154.26 						"/>
						<polygon class="st6" points="62.01,148.78 62.01,181.42 69.21,181.42 69.21,151.25 						"/>
						<polygon class="st6" points="60.41,181.42 60.41,148.23 53.2,145.75 53.2,181.42 						"/>
					</g>
					<g>
						<rect x="53.2" y="202.27" class="st6" width="7.21" height="16.05"/>
						<rect x="61.98" y="202.27" class="st6" width="7.21" height="16.05"/>
						<rect x="70.76" y="202.27" class="st6" width="7.21" height="16.05"/>
						<rect x="79.53" y="202.27" class="st6" width="7.21" height="16.05"/>
						<rect x="88.31" y="202.27" class="st6" width="7.21" height="16.05"/>
						<rect x="97.08" y="202.27" class="st6" width="7.21" height="16.05"/>
					</g>
					<g>
						<rect x="53.2" y="220.73" class="st6" width="7.21" height="16.05"/>
						<rect x="61.98" y="220.73" class="st6" width="7.21" height="16.05"/>
						<rect x="70.76" y="220.73" class="st6" width="7.21" height="16.05"/>
						<rect x="79.53" y="220.73" class="st6" width="7.21" height="16.05"/>
						<rect x="88.31" y="220.73" class="st6" width="7.21" height="16.05"/>
						<rect x="97.08" y="220.73" class="st6" width="7.21" height="16.05"/>
					</g>
					<g>
						<rect x="53.2" y="239.18" class="st6" width="7.21" height="16.05"/>
						<rect x="61.98" y="239.18" class="st6" width="7.21" height="16.05"/>
						<rect x="70.76" y="239.18" class="st6" width="7.21" height="16.05"/>
						<rect x="79.53" y="239.18" class="st6" width="7.21" height="16.05"/>
						<rect x="88.31" y="239.18" class="st6" width="7.21" height="16.05"/>
						<rect x="97.08" y="239.18" class="st6" width="7.21" height="16.05"/>
					</g>
					<g>
						<rect x="53.2" y="257.63" class="st6" width="7.21" height="16.05"/>
						<rect x="61.98" y="257.63" class="st6" width="7.21" height="16.05"/>
						<rect x="70.76" y="257.63" class="st6" width="7.21" height="16.05"/>
						<rect x="79.53" y="257.63" class="st6" width="7.21" height="16.05"/>
						<rect x="88.31" y="257.63" class="st6" width="7.21" height="16.05"/>
						<rect x="97.08" y="257.63" class="st6" width="7.21" height="16.05"/>
					</g>
					<g>
						<rect x="53.2" y="276.09" class="st6" width="7.21" height="16.05"/>
						<rect x="61.98" y="276.09" class="st6" width="7.21" height="16.05"/>
						<rect x="70.76" y="276.09" class="st6" width="7.21" height="16.05"/>
						<rect x="79.53" y="276.09" class="st6" width="7.21" height="16.05"/>
						<rect x="88.31" y="276.09" class="st6" width="7.21" height="16.05"/>
						<rect x="97.08" y="276.09" class="st6" width="7.21" height="16.05"/>
					</g>
					<g>
						<rect x="53.2" y="294.54" class="st6" width="7.21" height="16.05"/>
						<rect x="61.98" y="294.54" class="st6" width="7.21" height="16.05"/>
						<rect x="70.76" y="294.54" class="st6" width="7.21" height="16.05"/>
						<rect x="79.53" y="294.54" class="st6" width="7.21" height="16.05"/>
						<rect x="88.31" y="294.54" class="st6" width="7.21" height="16.05"/>
						<rect x="97.08" y="294.54" class="st6" width="7.21" height="16.05"/>
					</g>
					<g>
						<rect x="53.2" y="312.99" class="st6" width="7.21" height="16.05"/>
						<rect x="61.98" y="312.99" class="st6" width="7.21" height="16.05"/>
						<rect x="70.76" y="312.99" class="st6" width="7.21" height="16.05"/>
						<rect x="79.53" y="312.99" class="st6" width="7.21" height="16.05"/>
						<rect x="88.31" y="312.99" class="st6" width="7.21" height="16.05"/>
						<rect x="97.08" y="312.99" class="st6" width="7.21" height="16.05"/>
					</g>
				</g>
			</g>
			<rect x="484.16" y="194.39" class="st1" width="60.56" height="142.52"/>
			<rect x="544.71" y="194.38" class="st6" width="30.94" height="142.54"/>
			<g>
				<g>
					<rect x="488.9" y="202.27" class="st6" width="7.21" height="16.05"/>
					<rect x="497.67" y="202.27" class="st6" width="7.21" height="16.05"/>
					<rect x="506.45" y="202.27" class="st6" width="7.21" height="16.05"/>
					<rect x="515.22" y="202.27" class="st6" width="7.21" height="16.05"/>
					<rect x="524" y="202.27" class="st6" width="7.21" height="16.05"/>
					<rect x="532.78" y="202.27" class="st6" width="7.21" height="16.05"/>
				</g>
				<g>
					<rect x="488.9" y="220.73" class="st6" width="7.21" height="16.05"/>
					<rect x="497.67" y="220.73" class="st6" width="7.21" height="16.05"/>
					<rect x="506.45" y="220.73" class="st6" width="7.21" height="16.05"/>
					<rect x="515.22" y="220.73" class="st6" width="7.21" height="16.05"/>
					<rect x="524" y="220.73" class="st6" width="7.21" height="16.05"/>
					<rect x="532.78" y="220.73" class="st6" width="7.21" height="16.05"/>
				</g>
				<g>
					<rect x="488.9" y="239.18" class="st6" width="7.21" height="16.05"/>
					<rect x="497.67" y="239.18" class="st6" width="7.21" height="16.05"/>
					<rect x="506.45" y="239.18" class="st6" width="7.21" height="16.05"/>
					<rect x="515.22" y="239.18" class="st6" width="7.21" height="16.05"/>
					<rect x="524" y="239.18" class="st6" width="7.21" height="16.05"/>
					<rect x="532.78" y="239.18" class="st6" width="7.21" height="16.05"/>
				</g>
				<g>
					<rect x="488.9" y="257.63" class="st6" width="7.21" height="16.05"/>
					<rect x="497.67" y="257.63" class="st6" width="7.21" height="16.05"/>
					<rect x="506.45" y="257.63" class="st6" width="7.21" height="16.05"/>
					<rect x="515.22" y="257.63" class="st6" width="7.21" height="16.05"/>
					<rect x="524" y="257.63" class="st6" width="7.21" height="16.05"/>
					<rect x="532.78" y="257.63" class="st6" width="7.21" height="16.05"/>
				</g>
				<g>
					<rect x="488.9" y="276.09" class="st6" width="7.21" height="16.05"/>
					<rect x="497.67" y="276.09" class="st6" width="7.21" height="16.05"/>
					<rect x="506.45" y="276.09" class="st6" width="7.21" height="16.05"/>
					<rect x="515.22" y="276.09" class="st6" width="7.21" height="16.05"/>
					<rect x="524" y="276.09" class="st6" width="7.21" height="16.05"/>
					<rect x="532.78" y="276.09" class="st6" width="7.21" height="16.05"/>
				</g>
				<g>
					<rect x="488.9" y="294.54" class="st6" width="7.21" height="16.05"/>
					<rect x="497.67" y="294.54" class="st6" width="7.21" height="16.05"/>
					<rect x="506.45" y="294.54" class="st6" width="7.21" height="16.05"/>
					<rect x="515.22" y="294.54" class="st6" width="7.21" height="16.05"/>
					<rect x="524" y="294.54" class="st6" width="7.21" height="16.05"/>
					<rect x="532.78" y="294.54" class="st6" width="7.21" height="16.05"/>
				</g>
				<g>
					<rect x="488.9" y="312.99" class="st6" width="7.21" height="16.05"/>
					<rect x="497.67" y="312.99" class="st6" width="7.21" height="16.05"/>
					<rect x="506.45" y="312.99" class="st6" width="7.21" height="16.05"/>
					<rect x="515.22" y="312.99" class="st6" width="7.21" height="16.05"/>
					<rect x="524" y="312.99" class="st6" width="7.21" height="16.05"/>
					<rect x="532.78" y="312.99" class="st6" width="7.21" height="16.05"/>
				</g>
			</g>
			<g>
				<rect x="547.8" y="202.27" class="st2" width="7.21" height="16.05"/>
				<rect x="556.58" y="202.27" class="st2" width="7.21" height="16.05"/>
				<rect x="565.35" y="202.27" class="st2" width="7.21" height="16.05"/>
				<rect x="547.8" y="220.72" class="st2" width="7.21" height="16.05"/>
				<rect x="556.58" y="220.72" class="st2" width="7.21" height="16.05"/>
				<rect x="565.35" y="220.72" class="st2" width="7.21" height="16.05"/>
				<rect x="547.8" y="239.17" class="st2" width="7.21" height="16.05"/>
				<rect x="556.58" y="239.17" class="st2" width="7.21" height="16.05"/>
				<rect x="565.35" y="239.17" class="st2" width="7.21" height="16.05"/>
				<rect x="547.8" y="257.63" class="st2" width="7.21" height="16.05"/>
				<rect x="556.58" y="257.63" class="st2" width="7.21" height="16.05"/>
				<rect x="565.35" y="257.63" class="st2" width="7.21" height="16.05"/>
				<rect x="547.8" y="276.08" class="st2" width="7.21" height="16.05"/>
				<rect x="556.58" y="276.08" class="st2" width="7.21" height="16.05"/>
				<rect x="565.35" y="276.08" class="st2" width="7.21" height="16.05"/>
				<rect x="547.8" y="294.53" class="st2" width="7.21" height="16.05"/>
				<rect x="556.58" y="294.53" class="st2" width="7.21" height="16.05"/>
				<rect x="565.35" y="294.53" class="st2" width="7.21" height="16.05"/>
				<rect x="547.8" y="312.98" class="st2" width="7.21" height="16.05"/>
				<rect x="556.58" y="312.98" class="st2" width="7.21" height="16.05"/>
				<rect x="565.35" y="312.98" class="st2" width="7.21" height="16.05"/>
			</g>
			<rect x="487.25" y="187.72" class="st4" width="85.3" height="6.66"/>
		</g>
		<g>
			<g>
				<path class="st8" d="M432.02,272.01c5.36-9.89,6.41-20.89,6.44-31.84c0.03-8.67-2.17-12.92-9.01-16.55
					c-21.33-11.32-66.56-16.53-102.36-16.53l-38.32-50.42c-2.19-2.89-4.87-4.37-8.54-4.37H84.14c-3.38,0-7.21,1.57-9.14,4.22
					l-39.74,54.52c-9.29,2.49-24.48,21.99-23.63,31.38c-12.6,0-16.14,39.53-4.65,43.78c1.08,7.38,12.2,16.9,12.2,16.9H424.9
					C432.68,296.89,435.86,280.59,432.02,272.01L432.02,272.01z"/>
				<path class="st9" d="M190.39,223.62c6.45,0.44,15.39,1.15,21.77,1.46c0.56,0.03,1.04,0.49,1.04,0.99s-0.48,0.96-1.04,0.99
					c-6.38,0.3-15.32,1.02-21.77,1.46c-1.16,0.08-1.82-1.32-1.82-2.44S189.22,223.54,190.39,223.62z"/>
				<g>
					<path class="st4" d="M266.04,165.44c6.16,0,8.72,1.98,11.89,6.58l30.01,40.2H188.66v-40.2c0-3.65,2.93-6.58,6.58-6.58H266.04z
						 M175.08,165.44c3.65,0,6.58,2.94,6.58,6.58v40.2H62.39l30.01-40.2c3.17-4.6,5.73-6.58,11.89-6.58H175.08z"/>
					<path class="st10" d="M239.15,165.44l-27.01,46.78h4.14l27.01-46.78H239.15z M259.63,165.44l-27.01,46.78h9.56l26.89-46.58
						c-0.91-0.14-1.91-0.2-3.04-0.2H259.63z"/>
					<path class="st10" d="M107.57,165.44l-27.01,46.78h4.14l27.01-46.78H107.57z M128.05,165.44l-27.01,46.78h9.56l27.01-46.78
						H128.05z"/>
				</g>
				<path class="st11" d="M372.77,256.54c23.65,0.03,42.8,19.21,42.8,42.86c0,1.23-0.05,2.47-0.16,3.69h-85.4
					c-0.11-1.23-0.16-2.46-0.16-3.69c0-23.67,19.19-42.86,42.86-42.86C372.73,256.54,372.75,256.54,372.77,256.54z"/>
				<circle class="st12" cx="372.72" cy="299.4" r="37.46"/>
				<g>
					<circle class="st13" cx="372.72" cy="299.4" r="24"/>
					<circle class="st12" cx="372.72" cy="299.4" r="10.29"/>
				</g>
				<path class="st11" d="M67.43,256.54c23.65,0.03,42.8,19.21,42.8,42.86c0,1.23-0.05,2.47-0.16,3.69h-85.4
					c-0.11-1.23-0.16-2.46-0.16-3.69c0-23.67,19.19-42.86,42.86-42.86C67.4,256.54,67.41,256.54,67.43,256.54z"/>
				<circle class="st12" cx="67.38" cy="299.4" r="37.46"/>
				<g>
					<circle class="st13" cx="67.38" cy="299.4" r="24"/>
					<circle class="st12" cx="67.38" cy="299.4" r="10.29"/>
				</g>
				<path class="st14" d="M11.62,242.42c-8.64,15.48-8.14,30.75-4.65,43.78C-4.52,281.95-0.98,242.42,11.62,242.42z"/>
				<path class="st15" d="M278.71,155.37l40.63,56.57c15.49,9.04,27.79,28.44,34.02,47.97c-6.66-19.09-19.2-38.48-34.49-47.36
					l-0.07-0.04L278.71,155.37z M83.12,155.37l-40.09,57.14l-0.07,0.04c-16.41,9.53-26.86,30.41-32.47,51.35
					c4.62-21,15.34-42.21,32-51.95L83.12,155.37z M181.66,212.22c-0.16,0.17-0.33,0.35-0.49,0.52
					C181.33,212.56,181.5,212.39,181.66,212.22z M181.17,212.74c-4.3,4.7-8.41,12.05-8.41,19.64v26.64v18.88
					c0,7.58,3.96,15.16,8.24,19.88c-4.41-4.77-9-12-9-19.88v-18.88v-26.64C172,224.49,176.74,217.5,181.17,212.74z M181,297.78
					c0.17,0.18,0.34,0.37,0.51,0.55C181.34,298.15,181.17,297.97,181,297.78z M62.39,212.22c-0.11,0.11-0.22,0.22-0.32,0.34
					C62.17,212.44,62.28,212.33,62.39,212.22z M62.07,212.56c-2.7,2.94-3.92,7.37-2.77,10.77l10.38,31.82l-11.1-31.58
					C57.26,219.82,59.16,215.62,62.07,212.56z M308.42,212.74c4.43,4.76,9.17,11.75,9.17,19.64v21.1v24.98
					c0,8.18-4.82,15.67-9.39,20.43c4.47-4.66,8.62-12.55,8.62-20.43v-24.98v-21.1C316.83,224.79,312.72,217.44,308.42,212.74z"/>
				<path class="st9" d="M69.52,223.62c6.45,0.44,15.39,1.15,21.77,1.46c0.56,0.03,1.04,0.49,1.04,0.99s-0.48,0.96-1.04,0.99
					c-6.38,0.3-15.32,1.02-21.77,1.46c-1.16,0.08-1.82-1.32-1.82-2.44S68.35,223.54,69.52,223.62z"/>
				<path class="st15" d="M432.02,225.16c4.84,3.34,6.47,7.53,6.44,15.01c-0.04,10.95-1.09,21.95-6.44,31.84V225.16z"/>
				<g>
					<g>
						<g>
							<path class="st13" d="M179.91,134.07c-1.78,0-2.84,1.47-3.21,3.21l-4.92,24.89h13.25h13.25l-4.92-24.89
								c-0.38-1.74-1.43-3.21-3.21-3.21h-5.12H179.91z"/>
						</g>
						<path class="st12" d="M196.87,150.34c0-0.18-0.07-0.36-0.2-0.49c-0.13-0.13-0.31-0.2-0.49-0.2h-22.27
							c-0.18,0-0.36,0.07-0.49,0.2s-0.2,0.31-0.2,0.49v1.26c0,0.38,0.31,0.7,0.7,0.7h22.27c0.38,0,0.7-0.31,0.7-0.7v-1.26H196.87z"
							/>
					</g>
					<g>
						<rect x="101.92" y="246.62" class="st12" width="7.83" height="7.83"/>
						<rect x="101.92" y="262.27" class="st12" width="7.83" height="7.83"/>
						<g>
							<rect x="109.75" y="254.44" class="st12" width="7.83" height="7.83"/>
						</g>
						<rect x="117.57" y="246.62" class="st12" width="7.83" height="7.83"/>
						<rect x="117.57" y="262.27" class="st12" width="7.83" height="7.83"/>
						<g>
							<rect x="125.4" y="254.44" class="st12" width="7.83" height="7.83"/>
						</g>
						<rect x="133.23" y="246.62" class="st12" width="7.83" height="7.83"/>
						<rect x="133.23" y="262.27" class="st12" width="7.83" height="7.83"/>
						<g>
							<rect x="141.05" y="254.44" class="st12" width="7.83" height="7.83"/>
						</g>
						<rect x="148.88" y="246.62" class="st12" width="7.83" height="7.83"/>
						<rect x="148.88" y="262.27" class="st12" width="7.83" height="7.83"/>
						<g>
							<rect x="156.71" y="254.44" class="st12" width="7.83" height="7.83"/>
						</g>
						<rect x="164.53" y="246.62" class="st12" width="7.83" height="7.83"/>
						<rect x="164.53" y="262.27" class="st12" width="7.83" height="7.83"/>
						<g>
							<rect x="172.36" y="254.44" class="st12" width="7.83" height="7.83"/>
						</g>
						<rect x="180.19" y="246.62" class="st12" width="7.83" height="7.83"/>
						<rect x="180.19" y="262.27" class="st12" width="7.83" height="7.83"/>
						<g>
							<rect x="188.01" y="254.44" class="st12" width="7.83" height="7.83"/>
						</g>
						<rect x="195.84" y="246.62" class="st12" width="7.83" height="7.83"/>
						<rect x="195.84" y="262.27" class="st12" width="7.83" height="7.83"/>
						<g>
							<rect x="203.67" y="254.44" class="st12" width="7.83" height="7.83"/>
						</g>
						<rect x="211.49" y="246.62" class="st12" width="7.83" height="7.83"/>
						<rect x="211.49" y="262.27" class="st12" width="7.83" height="7.83"/>
						<g>
							<rect x="219.32" y="254.44" class="st12" width="7.83" height="7.83"/>
						</g>
						<rect x="227.15" y="246.62" class="st12" width="7.83" height="7.83"/>
						<rect x="227.15" y="262.27" class="st12" width="7.83" height="7.83"/>
						<g>
							<rect x="234.97" y="254.44" class="st12" width="7.83" height="7.83"/>
						</g>
						<rect x="242.8" y="246.62" class="st12" width="7.83" height="7.83"/>
						<rect x="242.8" y="262.27" class="st12" width="7.83" height="7.83"/>
						<g>
							<rect x="250.63" y="254.44" class="st12" width="7.83" height="7.83"/>
						</g>
						<rect x="258.45" y="246.62" class="st12" width="7.83" height="7.83"/>
						<rect x="258.45" y="262.27" class="st12" width="7.83" height="7.83"/>
						<g>
							<rect x="266.28" y="254.44" class="st12" width="7.83" height="7.83"/>
						</g>
						<rect x="274.11" y="246.62" class="st12" width="7.83" height="7.83"/>
						<rect x="274.11" y="262.27" class="st12" width="7.83" height="7.83"/>
						<g>
							<rect x="281.93" y="254.44" class="st12" width="7.83" height="7.83"/>
						</g>
						<rect x="289.76" y="246.62" class="st12" width="7.83" height="7.83"/>
						<rect x="289.76" y="262.27" class="st12" width="7.83" height="7.83"/>
						<g>
							<rect x="297.59" y="254.44" class="st12" width="7.83" height="7.83"/>
						</g>
						<rect x="305.41" y="246.62" class="st12" width="7.83" height="7.83"/>
						<rect x="305.41" y="262.27" class="st12" width="7.83" height="7.83"/>
					</g>
					<path class="st15" d="M83.12,155.37L83.12,155.37c66.12,1.25,131.3,1.3,195.59,0l0,0H83.12z"/>
				</g>
			</g>
			<g>
				<g>
					<path class="st16" d="M441.8,135.23l0.64,0.51l-6.08,7.97c1.68,2.81,5.46,4.26,7.77,5.45l3.67,2.61l5.6-7.99l-2.24-1.71
						l-2.85-4.62l-2.17-0.08l-3.22-1.59l-0.33-0.25l-0.05,0.06L441.8,135.23z"/>
					<path class="st16" d="M443.67,132.65c-0.58-0.02-1.12,0.33-1.32,0.91c-0.25,0.71,0.12,1.47,0.83,1.72l1.82,0.63l1.08,3.27
						c0.24,0.71,1,1.09,1.71,0.86c0.71-0.23,1.09-1,0.86-1.71l-1.29-3.89c-0.12-0.37-0.39-0.65-0.71-0.8
						c-0.02-0.01-0.05-0.02-0.07-0.03h-0.01c-0.02-0.01-0.04-0.02-0.07-0.03l-2.42-0.84C443.94,132.68,443.8,132.65,443.67,132.65z"
						/>
					<path class="st9" d="M435.76,126.11c-0.29-0.39-0.84-0.47-1.23-0.18l-0.8,0.59c-0.39,0.29-0.47,0.84-0.18,1.23l12.68,17.04
						c0.29,0.39,0.84,0.47,1.23,0.18l0.8-0.59c0.19-0.14,0.31-0.35,0.34-0.58c0.03-0.23-0.03-0.46-0.16-0.65L435.76,126.11z"/>
					<path class="st16" d="M436.36,143.7c-0.32-0.48-0.93-3.3-1-4.97l0.06-4.39l2.43-0.84l3.8,5.04L436.36,143.7z"/>
					<path class="st16" d="M435.63,133.58c-0.4,0.63-0.22,1.46,0.41,1.86l0,0c0.3,0.19,0.67,0.26,1.02,0.18
						c0.35-0.08,0.65-0.29,0.85-0.59l1.13-1.78c0.19-0.3,0.26-0.67,0.18-1.02c-0.08-0.35-0.29-0.65-0.59-0.85l0,0
						c-0.63-0.4-1.46-0.22-1.86,0.41L435.63,133.58z"/>
					<path class="st16" d="M435.91,136.6c-0.56,0.49-0.62,1.34-0.13,1.9l0,0c0.24,0.27,0.57,0.43,0.93,0.46s0.71-0.1,0.98-0.33
						l3.65-3.2c0.27-0.24,0.43-0.57,0.46-0.93c0.02-0.36-0.1-0.71-0.33-0.98l0,0c-0.49-0.56-1.34-0.62-1.91-0.13L435.91,136.6z"/>
					<path class="st16" d="M437.2,138.8c-0.34,0.12-0.62,0.36-0.78,0.68c-0.16,0.32-0.18,0.69-0.07,1.03l0,0
						c0.11,0.34,0.36,0.62,0.68,0.78s0.69,0.18,1.03,0.07l5.34-1.82c0.34-0.12,0.62-0.36,0.78-0.68s0.18-0.69,0.07-1.03l0,0
						c-0.11-0.34-0.36-0.62-0.68-0.78c-0.32-0.16-0.69-0.18-1.03-0.07L437.2,138.8z"/>
					<path class="st16" d="M438.07,141.36c-0.34,0.12-0.62,0.36-0.78,0.68s-0.18,0.69-0.07,1.03l0,0c0.11,0.34,0.36,0.62,0.68,0.78
						s0.69,0.18,1.03,0.07l5.34-1.82c0.34-0.12,0.62-0.36,0.78-0.68c0.16-0.32,0.18-0.69,0.07-1.03l0,0
						c-0.11-0.34-0.36-0.62-0.68-0.78c-0.32-0.16-0.69-0.18-1.03-0.07L438.07,141.36z"/>
					<path class="st17" d="M438.47,134.26c0.03,0,0.05,0.02,0.07,0.04c0.02,0.02,0.03,0.05,0.03,0.09s-0.02,0.06-0.04,0.08
						l-2.65,2.31c-0.02,0.02-0.05,0.03-0.09,0.03c-0.03,0-0.06-0.02-0.08-0.04c-0.04-0.05-0.04-0.12,0.01-0.17l2.65-2.31
						C438.41,134.27,438.44,134.26,438.47,134.26z"/>
					<path class="st17" d="M440.09,136.44c0.03,0,0.06,0.02,0.07,0.04c0.02,0.02,0.03,0.05,0.03,0.09c0,0.03-0.02,0.06-0.04,0.08
						l-2.38,2.07c-0.02,0.02-0.05,0.03-0.09,0.03s-0.06-0.02-0.08-0.04c-0.04-0.05-0.04-0.12,0.01-0.17l2.38-2.07
						C440.02,136.45,440.06,136.44,440.09,136.44z"/>
					<path class="st17" d="M440.91,137.41c0.04,0.01,0.08,0.04,0.09,0.08c0.01,0.03,0.01,0.06-0.01,0.09
						c-0.01,0.03-0.04,0.05-0.07,0.06l-3.19,1.1c-0.03,0.01-0.06,0.01-0.09-0.01c-0.03-0.01-0.05-0.04-0.06-0.07
						c-0.02-0.06,0.01-0.13,0.07-0.15l3.19-1.1C440.87,137.41,440.89,137.41,440.91,137.41z"/>
					<path class="st17" d="M443.36,139.44c0.04,0.01,0.08,0.04,0.09,0.08c0.02,0.06-0.01,0.13-0.07,0.15l-4.9,1.66
						c-0.06,0.02-0.13-0.01-0.15-0.07c-0.01-0.03-0.01-0.06,0.01-0.09c0.01-0.03,0.04-0.05,0.07-0.06l4.9-1.65
						C443.32,139.44,443.35,139.44,443.36,139.44z"/>
					<path class="st17" d="M444.14,142.03c0.04,0.01,0.08,0.04,0.09,0.08c0.02,0.06-0.01,0.13-0.07,0.15l-4.85,1.64
						c-0.06,0.02-0.13-0.01-0.15-0.07c-0.01-0.03-0.01-0.06,0.01-0.09c0.01-0.03,0.04-0.05,0.07-0.06l4.85-1.64
						C444.1,142.03,444.12,142.03,444.14,142.03z"/>
					<path class="st17" d="M446.77,148.23c0.04,0,0.07,0.03,0.09,0.06s0.02,0.06,0.01,0.09c-0.01,0.03-0.03,0.06-0.05,0.07
						c-0.71,0.42-1.51,0.76-2.63,0.59c-0.03,0-0.06-0.02-0.08-0.05s-0.03-0.06-0.02-0.09c0-0.03,0.02-0.06,0.05-0.08
						s0.06-0.03,0.09-0.02c1.07,0.17,1.78-0.15,2.48-0.56C446.72,148.24,446.74,148.23,446.77,148.23z"/>
					<path class="st17" d="M443.63,142.36c0.03,0,0.06,0.02,0.07,0.04c0.74,0.83,1.33,1.8,1.65,3c0.01,0.03,0,0.06-0.01,0.09
						c-0.02,0.03-0.04,0.05-0.07,0.06c-0.06,0.02-0.13-0.02-0.14-0.08c-0.32-1.16-0.88-2.1-1.6-2.9c-0.04-0.05-0.04-0.12,0.01-0.17
						C443.56,142.37,443.6,142.35,443.63,142.36z"/>
				</g>
				<g>
					<g>
						<path class="st9" d="M496.23,107.51c5.84-8.2,11.18-23.86-0.09-25.31c-0.47-2.8-4.27-5.93-8.21-3.7
							c-4.77,2.69-6.7,3.67-9.66,2.4c-3.69-1.59-7.05,1.71-3.63,7.99c0.04,2.28-0.3,4.55,1.96,6.83L496.23,107.51z"/>
						<g>
							<g>
								<rect x="483.34" y="99.65" class="st16" width="13.55" height="21.55"/>
								<path class="st17" d="M492.32,109.52h-8.98v4.83c0.02,0,0.04,0,0.05,0c0.12,0.01,0.25,0.01,0.38,0.01h1.67
									c0.13,0,0.25,0,0.38-0.01c0.12-0.01,0.25-0.02,0.37-0.03s0.25-0.03,0.37-0.05c0.12-0.02,0.24-0.04,0.36-0.06
									s0.24-0.05,0.35-0.08c0.12-0.03,0.23-0.06,0.35-0.1c0.11-0.04,0.23-0.07,0.34-0.11s0.22-0.08,0.33-0.13
									c0.11-0.05,0.22-0.09,0.32-0.15c0.11-0.05,0.21-0.1,0.32-0.16c0.1-0.06,0.21-0.11,0.31-0.18c0.1-0.06,0.2-0.12,0.3-0.19
									c0.1-0.07,0.19-0.13,0.29-0.2c0.09-0.07,0.19-0.14,0.28-0.22c0.09-0.07,0.18-0.15,0.26-0.23c0.09-0.08,0.17-0.16,0.25-0.24
									s0.16-0.17,0.24-0.25c0.08-0.09,0.15-0.17,0.23-0.26c0.07-0.09,0.15-0.18,0.22-0.28c0.07-0.09,0.14-0.19,0.2-0.29
									c0.07-0.1,0.13-0.2,0.19-0.3s0.12-0.2,0.18-0.31c0.06-0.1,0.11-0.21,0.16-0.32c0.05-0.11,0.1-0.21,0.15-0.32
									s0.09-0.22,0.13-0.33C492.31,109.55,492.31,109.53,492.32,109.52z"/>
							</g>
							<path class="st16" d="M476.34,92.8c0-2.64,1.05-5.17,2.91-7.03c1.87-1.87,4.4-2.91,7.03-2.91l0,0c2.64,0,5.17,1.05,7.03,2.91
								c1.87,1.87,2.91,4.4,2.91,7.03v10.18c0,2.64-1.05,5.17-2.91,7.03s-4.4,2.91-7.03,2.91l0,0c-2.64,0-5.17-1.05-7.03-2.91
								s-2.91-4.4-2.91-7.03V92.8z"/>
							<g>
								<g>
									<circle class="st16" cx="497.21" cy="100.68" r="3.38"/>
								</g>
							</g>
						</g>
						<path class="st9" d="M476.28,89.43c4.21,1.22,8.87,2,13.16,0.31c1.4-0.55,1.76,0.07,2.23,1.39c0.29,0.82,0.81,1.8,1.82,3.45
							c0.95,1.55,1.13,4.69,1.23,6.24c0.05,0.78,0.53,0.84,0.71,0.18c0.95-3.45,3.01-3.9,4.55-2.35l0.59-12.11l-14.52-5.36
							l-9.68,5.36L476.28,89.43z"/>
						<path class="st9" d="M491.72,77.44c-0.68-0.11-1.35-0.08-1.96,0.06c-1.84,0.43-3.81,1.62-5.86,2.51
							c-2.05,0.88-4.17,1.46-6.31,0.7l-0.03,0.08c2.17,0.78,4.32,0.19,6.37-0.7c2.06-0.89,4.02-2.07,5.84-2.5
							c1.19-0.28,2.65-0.09,3.87,0.65s2.2,2.04,2.44,3.98l0.09-0.01c-0.25-1.97-1.25-3.29-2.49-4.04
							C493.07,77.78,492.4,77.54,491.72,77.44z"/>
						<path class="st9" d="M496.14,82.16v0.09c3.79,0.1,5.9,1.89,6.67,4.66c0.77,2.77,0.17,6.51-1.48,10.47l0.08,0.03
							c1.66-3.97,2.26-7.73,1.49-10.53S499.95,82.26,496.14,82.16z"/>
						<path class="st9" d="M499.38,98.85c-0.7,0-1.34,0.23-1.81,0.72s-0.76,1.23-0.78,2.24c0,0.05,0.03,0.09,0.07,0.11
							c0.04,0.02,0.1,0.01,0.13-0.03c0.6-0.65,1.26-0.87,1.83-0.72c0.03,0.01,0.06,0,0.09-0.01c0.03-0.02,0.05-0.04,0.05-0.07
							c0.02-0.06-0.02-0.13-0.08-0.14c-0.59-0.16-1.23,0.09-1.81,0.61c0.07-0.81,0.3-1.43,0.67-1.82c0.42-0.44,0.99-0.64,1.64-0.64
							c0.03,0,0.06-0.01,0.08-0.03s0.03-0.05,0.03-0.08s-0.01-0.06-0.03-0.08C499.44,98.86,499.41,98.85,499.38,98.85z"/>
					</g>
				</g>
				<polygon class="st0" points="482.98,119.2 480.72,124.03 485.15,124.38 				"/>
				<path class="st18" d="M482.8,123.77c-1.26-0.01-2.48,0.28-3.59,0.8l-0.06,2.64l-4.2,2.1c-0.05,0.14-0.1,0.27-0.15,0.42
					l-5.79,19.75l-16.67-9.84l-8.43,14.27l25.82,15.25c4.94,2.92,10.71,0.21,12.18-4.82l8.78-29.94c1.29-4.4-1.21-8.99-5.62-10.28
					C484.32,123.88,483.55,123.77,482.8,123.77z"/>
				<g>
					<g>
						<g>
							<path class="st13" d="M524.23,300.1L537,315.05l-5.82,4.96l-7.63,6.51l-11.47,9.79c-2.93,2.51-9.88-4.19-5.73-9.99
								l7.77-10.85l-3.33-3.9L524.23,300.1z"/>
							<path class="st12" d="M507.7,335.63c1.47,1.24,3.24,1.67,4.39,0.69l11.47-9.79l7.63-6.51l5.82-4.96l-2.2-2.58h-0.01
								L507.7,335.63z"/>
						</g>
					</g>
					<path class="st12" d="M472.36,184.99l-8.41,67.26c-0.62,4.95,0.02,10.19,2.24,12.7l44.92,50.76l17.16-14.68l-39.32-47.59
						l10.31-64.63L472.36,184.99z"/>
				</g>
				<g>
					<g>
						<g>
							<path class="st13" d="M498.4,317.2l-0.02,19.66l-7.65-0.01l-10.02-0.01l-15.08-0.01c-3.86,0-4.79-9.6,2.14-11.31l12.96-3.2
								v-5.13L498.4,317.2z"/>
							<path class="st12" d="M462.74,333.46c0.32,1.9,1.38,3.37,2.89,3.37l15.08,0.01l10.03,0.01l7.65,0.01v-3.39v-0.01H462.74z"/>
						</g>
					</g>
					<polygon class="st12" points="472.36,184.99 476.02,252.76 477.65,280.42 478.27,320.54 500.86,320.54 502,252.76 
						508.71,184.99 					"/>
				</g>
				<path class="st18" d="M493.71,118.48l-10.38,2.72c-5.85,3.38-13.66,11.09-13.66,24.21v28.17v6.03v3.21
					c0,0.15,0.01,0.3,0.04,0.44c0.03,0.14,0.07,0.28,0.13,0.41c0.05,0.13,0.12,0.25,0.2,0.37c0.08,0.12,0.17,0.22,0.26,0.32
					c0.1,0.1,0.21,0.19,0.32,0.26c0.12,0.08,0.24,0.14,0.37,0.2c0.13,0.05,0.27,0.1,0.41,0.13s0.29,0.04,0.44,0.04h1.5h1.13h11.2
					h21.85h1.5c0.15,0,0.3-0.02,0.44-0.04c0.14-0.03,0.28-0.07,0.41-0.13c0.13-0.05,0.25-0.12,0.37-0.2s0.22-0.17,0.32-0.26
					c0.1-0.1,0.19-0.21,0.26-0.32c0.08-0.12,0.14-0.24,0.2-0.37c0.05-0.13,0.1-0.27,0.13-0.41c0.03-0.14,0.04-0.29,0.04-0.44v-3.21
					v-46.95L493.71,118.48z"/>
				<path class="st18" d="M496.88,117.65c9.96,0.96,14.31,5.52,14.31,15.01h-18.74v-13.84L496.88,117.65z"/>
				<path class="st19" d="M469.68,145.25c-0.09,0-0.16,0.07-0.16,0.16v23.33c0,0.09,0.07,0.16,0.16,0.16s0.16-0.07,0.16-0.16v-23.33
					C469.84,145.32,469.77,145.25,469.68,145.25z"/>
				<g>
					<g>
						<g>
							<polygon class="st20" points="479.54,138.76 477.61,155.99 468.56,155.99 466.63,138.76 							"/>
							<polygon class="st21" points="479.54,138.76 479.25,141.32 466.91,141.32 466.63,138.76 							"/>
							<polygon class="st12" points="478.85,144.94 478.2,150.71 467.96,150.71 467.32,144.94 							"/>
							<path class="st12" d="M477.66,136.74c0.3,0,0.5,0.13,0.57,0.23l0.55,0.73h0.24c0.32,0,0.57,0.26,0.57,0.57v0.44
								c0,0.02,0,0.03,0,0.05h0.06c0.31,0,0.55,0.25,0.55,0.55v0.48c0,0.31-0.25,0.55-0.55,0.55h-13.14c-0.31,0-0.55-0.25-0.55-0.55
								v-0.48c0-0.31,0.25-0.55,0.55-0.55h0.06c0-0.02,0-0.03,0-0.05v-0.44c0-0.32,0.26-0.57,0.57-0.57h0.24l0.55-0.73
								c0.08-0.1,0.27-0.23,0.57-0.23h4.58H477.66z"/>
						</g>
						<path class="st22" d="M467.92,142.59c-0.53,0.02-1.03,0.36-1.22,0.9c-0.25,0.7,0.12,1.47,0.82,1.72l0.36,0.13
							c-0.32,0.33-0.59,0.8-0.69,1.23c-0.13,0.59,0.02,1.17,0.48,1.51c-0.26,0.35-0.59,1.04-0.59,1.42
							c-0.01,0.69,0.23,1.37,0.9,1.58l0.14,0.04c-0.27,0.34-0.46,0.76-0.56,1.29s0.21,1.46,0.93,1.67l2.28,0.64h-0.06
							c3.44,1.09,6.33,2.17,9.13,2.14l5.56,1.7l2.5-9.44l-3.21-1.21c-2.38-1.83-3.52-4.16-5.65-4.69c-0.11,0.68-0.25,2.59-0.88,2.52
							l-4.18-1.09l-5.57-1.97c-0.13-0.05-0.27-0.07-0.4-0.08C467.99,142.59,467.95,142.59,467.92,142.59z"/>
						<path class="st17" d="M467.87,145.23c0.02,0,0.03,0,0.05,0.01l5.42,1.81c0.06,0.02,0.09,0.09,0.07,0.15
							c-0.02,0.06-0.09,0.09-0.15,0.07l-5.42-1.81c-0.03-0.01-0.05-0.03-0.07-0.06c-0.01-0.03-0.02-0.06-0.01-0.09
							C467.78,145.26,467.83,145.23,467.87,145.23z"/>
						<path class="st17" d="M467.68,147.96c0.01,0,0.02,0,0.03,0.01l5.16,1.71c0.03,0.01,0.05,0.03,0.07,0.06
							c0.01,0.03,0.02,0.06,0.01,0.09c-0.02,0.06-0.09,0.09-0.15,0.07l-5.16-1.71c-0.03-0.01-0.05-0.03-0.07-0.06
							c-0.01-0.03-0.02-0.06-0.01-0.09C467.58,147.99,467.63,147.96,467.68,147.96z"/>
						<path class="st17" d="M468.12,151.01c0.01,0,0.02,0,0.03,0l4.18,1.22c0.06,0.02,0.1,0.08,0.08,0.15
							c-0.01,0.03-0.03,0.06-0.06,0.07c-0.03,0.01-0.06,0.02-0.09,0.01l-4.18-1.22c-0.03-0.01-0.06-0.03-0.07-0.06
							s-0.02-0.06-0.01-0.09C468.02,151.04,468.07,151.01,468.12,151.01z"/>
					</g>
				</g>
				<path class="st18" d="M503.33,123.01c-0.95,0-1.91,0.15-2.86,0.49c-4.32,1.55-6.55,6.28-4.99,10.6l5.55,15.44l-14.88-3.08
					l-3.36,16.23l29.13,6.04c6.73,1.4,11.84-4.96,9.59-11.22l-10.44-29C509.87,125.12,506.71,123.03,503.33,123.01z"/>
				<polygon class="st23" points="498.14,117.8 496.89,115.38 482.98,119.2 483.75,124.32 				"/>
				<path class="st24" d="M472.52,187.46c-0.04,0-0.08,0.02-0.11,0.05s-0.04,0.08-0.04,0.12l4.98,89.92
					c0.01,0.09,0.08,0.16,0.17,0.16c0.04,0,0.08-0.02,0.11-0.05c0.03-0.03,0.04-0.08,0.04-0.12l-4.98-89.92
					c0-0.04-0.02-0.08-0.05-0.11S472.57,187.46,472.52,187.46z"/>
				<path class="st24" d="M501.73,269.05c-0.04,0-0.09,0.02-0.12,0.05s-0.05,0.07-0.05,0.12l-0.62,34.91c0,0.09,0.07,0.17,0.16,0.17
					c0.04,0,0.09-0.02,0.12-0.05s0.05-0.07,0.05-0.12l0.62-34.91C501.89,269.13,501.82,269.05,501.73,269.05z"/>
				<path class="st25" d="M495.03,132.49c-0.02,0-0.03,0-0.05,0.01c-0.09,0.03-0.13,0.12-0.1,0.21l5.93,16.63l-14.61-3.04
					c-0.04-0.01-0.09,0-0.12,0.02c-0.04,0.02-0.06,0.06-0.07,0.1l-3.36,16.23c-0.01,0.04,0,0.09,0.02,0.12
					c0.02,0.04,0.06,0.06,0.1,0.07l28.22,5.86c0.04,0.01,0.09,0,0.12-0.02c0.04-0.02,0.06-0.06,0.07-0.1s0-0.09-0.02-0.12
					c-0.02-0.04-0.06-0.06-0.1-0.07L483,162.56l3.3-15.9l14.74,3.06c0.06,0.01,0.12-0.01,0.16-0.05s0.05-0.11,0.03-0.16l-6.03-16.9
					C495.16,132.53,495.1,132.49,495.03,132.49z"/>
				<path class="st25" d="M501.07,149.4c-0.08,0-0.15,0.05-0.17,0.13c-0.01,0.04,0,0.09,0.02,0.12c0.02,0.04,0.06,0.06,0.1,0.07
					l10.1,2.08c0.04,0.01,0.09,0,0.12-0.02c0.04-0.02,0.06-0.06,0.07-0.1s0-0.09-0.02-0.12c-0.02-0.04-0.06-0.06-0.1-0.07
					l-10.1-2.08C501.09,149.4,501.08,149.4,501.07,149.4z"/>
			</g>
			<g>
				<g>
					<path class="st26" d="M521.81,251.18c-0.52,0-0.93,0.42-0.93,0.93v6.53c0,0.52,0.42,0.93,0.93,0.93h1.11
						c0.52,0,0.93-0.42,0.93-0.93v-6.53c0-0.52-0.42-0.93-0.93-0.93H521.81z M521.81,299.77c-0.52,0-0.93,0.42-0.93,0.93v6.53
						c0,0.52,0.42,0.93,0.93,0.93h1.11c0.52,0,0.93-0.42,0.93-0.93v-6.53c0-0.52-0.42-0.93-0.93-0.93H521.81z"/>
				</g>
				<g>
					<g>
						<path class="st27" d="M588.92,334.95C588.92,334.95,588.92,334.94,588.92,334.95c0.03-0.15,0.05-0.3,0.05-0.45
							c0-0.15-0.02-0.3-0.04-0.44c-0.03-0.14-0.07-0.28-0.13-0.41s-0.12-0.26-0.2-0.37c-0.08-0.12-0.17-0.23-0.27-0.33
							c-0.1-0.1-0.21-0.19-0.33-0.27s-0.24-0.15-0.37-0.2c-0.13-0.06-0.27-0.1-0.41-0.13s-0.29-0.04-0.44-0.04h-0.52
							c-0.15,0-0.3,0.02-0.44,0.04s-0.28,0.07-0.41,0.13c-0.13,0.06-0.26,0.12-0.37,0.2s-0.23,0.17-0.33,0.27
							c-0.1,0.1-0.19,0.21-0.27,0.33s-0.15,0.24-0.2,0.37s-0.1,0.27-0.13,0.41s-0.04,0.29-0.04,0.44s0.02,0.3,0.04,0.45v0.01h4.81
							V334.95z"/>
						<path class="st26" d="M583.06,327.74v6.41c0,0.44,0.36,0.8,0.8,0.8h0.23v-0.01c-0.03-0.14-0.04-0.29-0.04-0.45
							s0.02-0.3,0.04-0.44c0.03-0.14,0.07-0.28,0.13-0.41s0.12-0.26,0.2-0.37c0.08-0.12,0.17-0.23,0.27-0.33s0.21-0.19,0.33-0.27
							s0.24-0.15,0.37-0.2c0.13-0.06,0.27-0.1,0.41-0.13s0.29-0.04,0.44-0.04h0.52c0.15,0,0.3,0.02,0.44,0.04s0.28,0.07,0.41,0.13
							c0.13,0.06,0.26,0.12,0.37,0.2s0.23,0.17,0.33,0.27c0.1,0.1,0.19,0.21,0.27,0.33s0.15,0.24,0.2,0.37
							c0.06,0.13,0.1,0.27,0.13,0.41s0.04,0.29,0.04,0.44s-0.02,0.3-0.04,0.45v0.01H589c0.44,0,0.8-0.36,0.8-0.8v-6.41H583.06z"/>
						<path class="st26" d="M585.34,333.1c0-0.21,0.08-0.42,0.23-0.57s0.35-0.23,0.57-0.23h0.72c0.44,0,0.8,0.36,0.8,0.8v3.02
							c0,0.44-0.36,0.8-0.8,0.8h-0.72c-0.21,0-0.42-0.08-0.57-0.23s-0.23-0.35-0.23-0.57V333.1z"/>
						<rect x="583.06" y="327.74" class="st27" width="6.75" height="2.61"/>
					</g>
					<g>
						<path class="st27" d="M530.68,334.95C530.68,334.95,530.69,334.94,530.68,334.95c0.03-0.15,0.05-0.3,0.05-0.45
							c0-0.15-0.02-0.3-0.04-0.44c-0.03-0.14-0.07-0.28-0.13-0.41s-0.12-0.26-0.2-0.37c-0.08-0.12-0.17-0.23-0.27-0.33
							c-0.1-0.1-0.21-0.19-0.33-0.27s-0.24-0.15-0.37-0.2c-0.13-0.06-0.27-0.1-0.41-0.13s-0.29-0.04-0.44-0.04h-0.52
							c-0.15,0-0.3,0.02-0.44,0.04s-0.28,0.07-0.41,0.13c-0.13,0.06-0.26,0.12-0.37,0.2s-0.23,0.17-0.33,0.27s-0.19,0.21-0.27,0.33
							s-0.15,0.24-0.2,0.37s-0.1,0.27-0.13,0.41s-0.04,0.29-0.04,0.44s0.02,0.3,0.04,0.45v0.01h4.81V334.95z"/>
						<path class="st26" d="M524.82,327.74v6.41c0,0.44,0.36,0.8,0.8,0.8h0.23v-0.01c-0.03-0.14-0.04-0.29-0.04-0.45
							s0.02-0.3,0.04-0.44c0.03-0.14,0.07-0.28,0.13-0.41s0.12-0.26,0.2-0.37c0.08-0.12,0.17-0.23,0.27-0.33
							c0.1-0.1,0.21-0.19,0.33-0.27s0.24-0.15,0.37-0.2c0.13-0.06,0.27-0.1,0.41-0.13s0.29-0.04,0.44-0.04h0.52
							c0.15,0,0.3,0.02,0.44,0.04s0.28,0.07,0.41,0.13c0.13,0.06,0.26,0.12,0.37,0.2s0.23,0.17,0.33,0.27
							c0.1,0.1,0.19,0.21,0.27,0.33s0.15,0.24,0.2,0.37c0.06,0.13,0.1,0.27,0.13,0.41s0.04,0.29,0.04,0.44s-0.02,0.3-0.04,0.45v0.01
							h0.08c0.44,0,0.8-0.36,0.8-0.8v-6.41H524.82z"/>
						<path class="st26" d="M527.11,333.1c0-0.21,0.08-0.42,0.23-0.57s0.35-0.23,0.57-0.23h0.72c0.44,0,0.8,0.36,0.8,0.8v3.02
							c0,0.44-0.36,0.8-0.8,0.8h-0.72c-0.21,0-0.42-0.08-0.57-0.23s-0.23-0.35-0.23-0.57V333.1z"/>
						<rect x="524.82" y="327.74" class="st27" width="6.75" height="2.61"/>
					</g>
				</g>
				<rect x="544.11" y="214.03" class="st10" width="3.67" height="18.72"/>
				<rect x="564.56" y="214.03" class="st10" width="3.67" height="18.72"/>
				<path class="st28" d="M522.19,235.3c0-3.1,2.51-5.61,5.61-5.61h59.04c3.1,0,5.61,2.51,5.61,5.61v88.76
					c0,1.49-0.59,2.91-1.64,3.96s-2.48,1.64-3.96,1.64h-59.04c-1.49,0-2.91-0.59-3.96-1.64s-1.64-2.48-1.64-3.96V235.3H522.19z"/>
				<g>
					<g>
						<path class="st26" d="M527.79,229.69c-3.11,0-5.61,2.5-5.61,5.61v3.58c0.23,0.02,0.46,0.03,0.69,0.03
							c5.1,0,9.24-4.11,9.28-9.21L527.79,229.69L527.79,229.69z M582.47,229.69c0.04,5.1,4.18,9.21,9.28,9.21
							c0.23,0,0.46-0.01,0.69-0.03v-3.58c0-3.11-2.5-5.61-5.61-5.61L582.47,229.69L582.47,229.69z M522.85,320.45
							c-0.22,0-0.44,0.01-0.66,0.03v3.58c0,3.11,2.5,5.61,5.61,5.61h4.36c-0.04-5.1-4.18-9.21-9.28-9.21
							C522.87,320.45,522.86,320.45,522.85,320.45z M591.73,320.45c-5.09,0.01-9.22,4.12-9.25,9.21h4.36c3.11,0,5.61-2.5,5.61-5.61
							v-3.58c-0.23-0.02-0.46-0.03-0.69-0.03C591.74,320.45,591.73,320.45,591.73,320.45z"/>
					</g>
				</g>
				<g class="st29">
					<path d="M529.78,250.2c0-1.72,1.4-3.12,3.12-3.12h-0.7c1.72,0,3.12,1.4,3.12,3.12v58.95c0,1.72-1.4,3.12-3.12,3.12h0.7
						c-1.72,0-3.12-1.4-3.12-3.12V250.2z"/>
					<path d="M539.69,250.2c0-0.83,0.33-1.62,0.91-2.2c0.58-0.58,1.38-0.91,2.2-0.91h-0.7c1.72,0,3.12,1.4,3.12,3.12v58.95
						c0,1.72-1.4,3.12-3.12,3.12h0.7c-0.83,0-1.62-0.33-2.2-0.91s-0.91-1.38-0.91-2.2V250.2z"/>
					<path d="M549.59,250.2c0-1.72,1.4-3.12,3.12-3.12h-0.7c1.72,0,3.12,1.4,3.12,3.12v58.95c0,1.72-1.4,3.12-3.12,3.12h0.7
						c-1.72,0-3.12-1.4-3.12-3.12V250.2z"/>
					<path d="M559.5,250.2c0-1.72,1.4-3.12,3.12-3.12h-0.7c1.72,0,3.12,1.4,3.12,3.12v58.95c0,1.72-1.4,3.12-3.12,3.12h0.7
						c-1.72,0-3.12-1.4-3.12-3.12V250.2z"/>
					<path d="M569.4,250.2c0-1.72,1.4-3.12,3.12-3.12h-0.7c0.83,0,1.62,0.33,2.2,0.91s0.91,1.38,0.91,2.2v58.95
						c0,0.83-0.33,1.62-0.91,2.2c-0.58,0.58-1.38,0.91-2.2,0.91h0.7c-1.72,0-3.12-1.4-3.12-3.12V250.2z"/>
					<path d="M579.31,250.2c0-1.72,1.4-3.12,3.12-3.12h-0.7c1.72,0,3.12,1.4,3.12,3.12v58.95c0,1.72-1.4,3.12-3.12,3.12h0.7
						c-1.72,0-3.12-1.4-3.12-3.12V250.2z"/>
				</g>
				<path class="st26" d="M553.62,208.02c-0.25,0-0.44,0.2-0.44,0.44v0.35h-9.44c-0.22,0-0.39,0.17-0.39,0.39v2.99v2.02
					c0,0.29,0.23,0.52,0.52,0.52h4.17c0.29,0,0.52-0.23,0.52-0.52v-1.63h7.24h0.78h7.24v1.63c0,0.29,0.23,0.52,0.52,0.52h4.17
					c0.29,0,0.52-0.23,0.52-0.52v-2.02v-2.99c0-0.22-0.17-0.39-0.39-0.39h-9.44v-0.35c0-0.25-0.2-0.44-0.44-0.44H553.62z"/>
			</g>
			<path class="st8" d="M308.57,68.99c-1.88,0.01-3.77,0.03-5.65,0.08c-0.26,0.01-0.46,0.22-0.46,0.48c0,0.12,0.06,0.24,0.15,0.33
				s0.21,0.13,0.34,0.13c1.88-0.05,3.75-0.07,5.63-0.08c0.12,0,0.24-0.05,0.33-0.14c0.09-0.09,0.14-0.21,0.14-0.33
				C309.04,69.2,308.83,68.99,308.57,68.99z M314.22,69.03c-0.12,0-0.25,0.05-0.33,0.13c-0.09,0.09-0.14,0.21-0.14,0.33
				c0,0.26,0.2,0.47,0.46,0.48c1.88,0.03,3.75,0.08,5.63,0.16c0.26,0.01,0.48-0.19,0.49-0.45c0.01-0.26-0.19-0.48-0.45-0.49
				C317.99,69.11,316.11,69.06,314.22,69.03z M297.27,69.28c-1.88,0.09-3.76,0.19-5.64,0.32c-0.12,0.01-0.24,0.07-0.32,0.16
				c-0.08,0.09-0.12,0.22-0.11,0.34c0.01,0.12,0.07,0.24,0.16,0.32s0.22,0.12,0.34,0.11c1.87-0.13,3.75-0.24,5.62-0.32
				c0.26-0.01,0.46-0.23,0.45-0.49c-0.01-0.12-0.06-0.24-0.15-0.33C297.52,69.32,297.39,69.27,297.27,69.28z M325.48,69.46
				c-0.24,0.01-0.44,0.2-0.46,0.44c-0.02,0.26,0.18,0.48,0.44,0.5c1.87,0.11,3.75,0.24,5.62,0.4c0.12,0.01,0.25-0.03,0.34-0.11
				c0.1-0.08,0.15-0.2,0.16-0.32c0.01-0.12-0.03-0.25-0.11-0.34c-0.08-0.1-0.2-0.15-0.32-0.16c-1.88-0.15-3.76-0.29-5.64-0.4
				C325.51,69.46,325.49,69.46,325.48,69.46z M286.02,70.05c-0.01,0-0.02,0-0.03,0c-1.88,0.17-3.75,0.36-5.62,0.57
				c-0.26,0.03-0.44,0.26-0.41,0.52s0.26,0.44,0.52,0.41c1.87-0.21,3.73-0.4,5.6-0.57c0.12-0.01,0.24-0.07,0.32-0.17
				c0.08-0.1,0.12-0.22,0.11-0.34C286.48,70.23,286.27,70.04,286.02,70.05z M336.75,70.38c-0.24,0-0.45,0.18-0.48,0.42
				c-0.03,0.26,0.16,0.49,0.42,0.52c1.87,0.19,3.73,0.41,5.59,0.64c0.12,0.02,0.25-0.02,0.35-0.09s0.16-0.19,0.18-0.31
				s-0.02-0.25-0.09-0.35c-0.08-0.1-0.19-0.16-0.31-0.18c-1.87-0.24-3.74-0.45-5.62-0.65C336.77,70.38,336.76,70.38,336.75,70.38z
				 M274.82,71.31c-0.02,0-0.04,0-0.07,0c-1.87,0.25-3.73,0.53-5.59,0.82c-0.12,0.02-0.23,0.09-0.31,0.19
				c-0.07,0.1-0.1,0.23-0.08,0.35c0.02,0.12,0.09,0.23,0.19,0.31c0.1,0.07,0.23,0.1,0.35,0.08c1.85-0.3,3.71-0.57,5.57-0.82
				c0.12-0.02,0.24-0.08,0.31-0.18s0.11-0.22,0.09-0.35C275.25,71.49,275.06,71.31,274.82,71.31z M347.93,71.79
				c-0.23,0-0.42,0.17-0.46,0.4c-0.04,0.26,0.14,0.5,0.39,0.53c1.86,0.28,3.71,0.58,5.56,0.9c0.12,0.02,0.25-0.01,0.35-0.08
				s0.17-0.18,0.19-0.3c0.02-0.12-0.01-0.25-0.08-0.35c-0.07-0.1-0.18-0.17-0.3-0.19c-1.86-0.32-3.72-0.62-5.58-0.9
				C347.98,71.79,347.95,71.79,347.93,71.79z M263.66,73.08c-0.02,0-0.04,0-0.07,0.01c-1.85,0.34-3.7,0.7-5.55,1.08
				c-0.25,0.05-0.42,0.3-0.36,0.56c0.03,0.12,0.1,0.23,0.2,0.3s0.23,0.09,0.35,0.07c1.84-0.38,3.68-0.74,5.53-1.08
				c0.26-0.05,0.42-0.29,0.38-0.55C264.1,73.24,263.89,73.07,263.66,73.08z M359.07,73.72c-0.23-0.01-0.43,0.15-0.47,0.38
				c-0.05,0.25,0.12,0.5,0.37,0.55c1.84,0.36,3.68,0.75,5.51,1.16c0.25,0.06,0.5-0.1,0.56-0.36c0.03-0.12,0.01-0.25-0.06-0.35
				c-0.07-0.11-0.17-0.18-0.29-0.21c-1.84-0.41-3.68-0.8-5.53-1.16C359.12,73.72,359.09,73.72,359.07,73.72z M252.63,75.37
				c-0.04,0-0.07,0-0.11,0.01c-1.84,0.43-3.67,0.88-5.49,1.35c-0.25,0.07-0.4,0.32-0.34,0.57c0.07,0.25,0.32,0.4,0.57,0.34
				c1.82-0.47,3.64-0.92,5.47-1.35c0.12-0.03,0.23-0.1,0.29-0.21s0.09-0.23,0.06-0.36C253.03,75.52,252.84,75.37,252.63,75.37z
				 M370.06,76.18c-0.21,0-0.4,0.15-0.45,0.36c-0.06,0.25,0.09,0.51,0.34,0.57c1.82,0.45,3.64,0.93,5.45,1.43
				c0.12,0.03,0.25,0.02,0.36-0.04c0.11-0.06,0.19-0.16,0.22-0.28c0.03-0.12,0.02-0.25-0.04-0.36c-0.06-0.11-0.16-0.19-0.28-0.22
				c-1.82-0.5-3.64-0.98-5.47-1.44C370.14,76.18,370.1,76.18,370.06,76.18z M241.68,78.21c-0.04,0-0.07,0.01-0.1,0.02
				c-1.81,0.52-3.62,1.06-5.41,1.63c-0.12,0.04-0.22,0.12-0.28,0.23s-0.07,0.24-0.03,0.36c0.04,0.12,0.12,0.22,0.23,0.28
				c0.11,0.06,0.24,0.07,0.36,0.03c1.79-0.57,3.59-1.11,5.39-1.63c0.25-0.07,0.39-0.33,0.32-0.58
				C242.1,78.34,241.9,78.2,241.68,78.21z M380.92,79.18c-0.2,0.01-0.37,0.14-0.43,0.33c-0.04,0.12-0.02,0.25,0.03,0.36
				c0.06,0.11,0.16,0.19,0.28,0.23c1.8,0.55,3.58,1.12,5.36,1.71c0.25,0.08,0.51-0.05,0.6-0.3c0.08-0.25-0.05-0.51-0.3-0.6
				c-1.79-0.6-3.58-1.17-5.39-1.72C381.03,79.19,380.98,79.18,380.92,79.18z M230.94,81.61c-0.05,0-0.1,0.01-0.14,0.03
				c-1.78,0.62-3.55,1.26-5.32,1.93c-0.24,0.09-0.36,0.36-0.27,0.61c0.09,0.24,0.36,0.36,0.61,0.27c1.75-0.67,3.52-1.3,5.29-1.92
				c0.12-0.04,0.21-0.13,0.27-0.24s0.06-0.24,0.02-0.36C231.32,81.74,231.14,81.61,230.94,81.61z M391.65,82.76
				c-0.2,0-0.38,0.12-0.45,0.31c-0.09,0.24,0.04,0.51,0.28,0.6c1.76,0.64,3.51,1.31,5.26,2.01c0.12,0.05,0.25,0.04,0.36,0
				c0.11-0.05,0.21-0.14,0.25-0.26c0.05-0.12,0.04-0.25,0-0.36c-0.05-0.11-0.14-0.21-0.26-0.25c-1.75-0.7-3.51-1.37-5.28-2.02
				C391.76,82.77,391.7,82.77,391.65,82.76z M220.4,85.62c-0.06,0-0.12,0.01-0.18,0.04c-1.74,0.72-3.48,1.47-5.19,2.24
				c-0.11,0.05-0.2,0.15-0.25,0.26s-0.04,0.25,0.01,0.36c0.05,0.11,0.15,0.2,0.26,0.25c0.12,0.04,0.25,0.04,0.36-0.01
				c1.71-0.77,3.43-1.51,5.17-2.23c0.24-0.1,0.35-0.37,0.25-0.61C220.76,85.73,220.59,85.62,220.4,85.62z M402.12,86.95
				c-0.19,0-0.35,0.11-0.43,0.28c-0.1,0.24,0.01,0.51,0.24,0.62c1.72,0.75,3.43,1.52,5.12,2.33c0.11,0.05,0.24,0.06,0.36,0.02
				s0.21-0.13,0.27-0.24c0.11-0.23,0.01-0.51-0.22-0.63c-1.7-0.81-3.42-1.59-5.15-2.34C402.25,86.97,402.18,86.95,402.12,86.95z
				 M210.12,90.25c-0.08,0-0.15,0.01-0.22,0.05c-1.69,0.83-3.37,1.69-5.04,2.58c-0.23,0.12-0.32,0.41-0.19,0.64
				c0.06,0.11,0.16,0.19,0.28,0.23c0.12,0.04,0.25,0.02,0.36-0.04c1.65-0.88,3.33-1.74,5.01-2.56c0.23-0.11,0.33-0.4,0.21-0.63
				C210.45,90.36,210.29,90.25,210.12,90.25z M412.3,91.79c-0.17,0-0.33,0.1-0.41,0.25c-0.06,0.11-0.07,0.24-0.03,0.36
				c0.04,0.12,0.12,0.22,0.23,0.27c1.67,0.86,3.32,1.75,4.95,2.67c0.11,0.06,0.24,0.08,0.36,0.04c0.12-0.03,0.22-0.11,0.28-0.22
				c0.13-0.23,0.05-0.51-0.18-0.64c-1.64-0.92-3.31-1.82-4.98-2.68C412.46,91.81,412.38,91.79,412.3,91.79z M200.17,95.56
				c-0.09,0-0.18,0.02-0.25,0.06c-1.63,0.95-3.25,1.93-4.84,2.94c-0.22,0.14-0.28,0.43-0.15,0.65c0.14,0.22,0.43,0.28,0.65,0.15
				c1.58-1,3.19-1.98,4.81-2.92c0.11-0.06,0.19-0.17,0.22-0.29c0.03-0.12,0.01-0.25-0.05-0.36
				C200.48,95.66,200.33,95.57,200.17,95.56z M422.13,97.32c-0.16,0.01-0.3,0.09-0.38,0.23c-0.07,0.11-0.09,0.23-0.06,0.36
				c0.03,0.12,0.11,0.23,0.21,0.29l0.13,0.08l0.67,0.41c0.22,0.14,0.51,0.07,0.65-0.15c0.14-0.22,0.07-0.51-0.15-0.65l-0.67-0.42
				l0,0l-0.13-0.08C422.32,97.34,422.22,97.31,422.13,97.32z"/>
			<g>
				<g>
					<path class="st15" d="M185.93,83.43c-7.73,0-14,6.27-14,14c0,6.17,8.9,14.69,12.51,17.89l-0.31,1.29h1.8c0,0,14-11.45,14-19.18
						S193.67,83.43,185.93,83.43z M185.93,90.53c1.83,0,3.59,0.73,4.88,2.02s2.02,3.05,2.02,4.88c0,3.81-3.09,6.9-6.9,6.9
						s-6.9-3.09-6.9-6.9c0-1.83,0.73-3.59,2.02-4.88C182.35,91.25,184.1,90.53,185.93,90.53z"/>
					<path class="st8" d="M184.13,83.43c-7.73,0-14,6.27-14,14s14,19.18,14,19.18s14-11.45,14-19.18S191.86,83.43,184.13,83.43z
						 M184.13,90.53c1.83,0,3.59,0.73,4.88,2.02c1.29,1.29,2.02,3.05,2.02,4.88c0,3.81-3.09,6.9-6.9,6.9s-6.9-3.09-6.9-6.9
						c0-1.83,0.73-3.59,2.02-4.88C180.54,91.25,182.3,90.53,184.13,90.53z"/>
				</g>
				<g>
					<path class="st15" d="M435.23,83.43c-7.73,0-14,6.27-14,14c0,6.17,8.9,14.69,12.51,17.89l-0.31,1.29h1.8c0,0,14-11.45,14-19.18
						S442.96,83.43,435.23,83.43z M435.23,90.53c1.83,0,3.59,0.73,4.88,2.02s2.02,3.05,2.02,4.88c0,3.81-3.09,6.9-6.9,6.9
						s-6.9-3.09-6.9-6.9c0-1.83,0.73-3.59,2.02-4.88C431.64,91.25,433.4,90.53,435.23,90.53z"/>
					<path class="st8" d="M433.43,83.43c-7.73,0-14,6.27-14,14s14,19.18,14,19.18s14-11.45,14-19.18S441.16,83.43,433.43,83.43z
						 M433.43,90.53c1.83,0,3.59,0.73,4.88,2.02s2.02,3.05,2.02,4.88c0,3.81-3.09,6.9-6.9,6.9s-6.9-3.09-6.9-6.9
						c0-1.83,0.73-3.59,2.02-4.88C429.84,91.25,431.6,90.53,433.43,90.53z"/>
				</g>
			</g>
		</g>
		<path class="st9" d="M19,336.72c-0.08,0-0.14,0.06-0.14,0.14c0,0.08,0.06,0.14,0.14,0.14h582.87c0.08,0,0.14-0.06,0.14-0.14
			c0-0.08-0.06-0.14-0.14-0.14H19z"/>
	</g>
</g>
</svg>
