<?xml version="1.0" encoding="utf-8"?>
<!-- Generator: Adobe Illustrator 24.3.0, SVG Export Plug-In . SVG Version: 6.00 Build 0)  -->
<svg version="1.1" id="Layer_1" xmlns="http://www.w3.org/2000/svg" xmlns:xlink="http://www.w3.org/1999/xlink" x="0px" y="0px"
	 viewBox="0 0 512 512" style="enable-background:new 0 0 512 512;" xml:space="preserve">
<style type="text/css">
	.st0{fill:#D84C69;}
</style>
<path class="st0" d="M503.5,100.7H342.9c-5.9-48-49.5-82.1-97.5-76.3c-39.9,4.9-71.4,36.3-76.3,76.3H42.7c-4.7,0-8.5,3.8-8.5,8.5
	v130.9L2.3,274c-1.5,1.6-2.3,3.7-2.3,5.8v204.8c0,4.7,3.8,8.5,8.5,8.5h460.8c4.7,0,8.5-3.8,8.5-8.5v-25.6h25.6
	c4.7,0,8.5-3.8,8.5-8.5V109.2C512,104.5,508.2,100.7,503.5,100.7z M196,74.4c20.3-33.3,63.8-43.8,97-23.4
	c31.4,19.2,42.8,59.3,26.2,92.1l-42.8,85.6h-40.7l-42.8-85.6C181.8,121.2,183,95.2,196,74.4z M179.2,407.9h153.6v17.1H179.2V407.9z
	 M162.1,390.8h-8.5v-34.1h204.8v34.1H162.1z M175.9,339.6l9.2-5.5c31.3-18.9,51.3-51.9,53.7-88.4h34.5c2.3,36.5,22.4,69.5,53.7,88.4
	l9.2,5.5H175.9z M51.2,117.7h117.4c0.5,5.8,1.5,11.5,3.1,17.1h-35.1c-2.4,0-4.6,1-6.2,2.7l-79.1,84.4V117.7z M128,164.9v106.4H28.2
	L128,164.9z M460.8,476.1H17.1V288.4h119.5c4.7,0,8.5-3.8,8.5-8.5v-128h33.1l43.7,87.3c-0.2,32.9-17.4,63.3-45.6,80.3l-33.6,20.1
	c0,0-3.4,2.4-3.8,2.9c-1.5,1.5-2.3,3.6-2.3,5.7v51.2c0,4.7,3.8,8.5,8.5,8.5h17.1V442h187.7v-34.1h17.1c4.7,0,8.5-3.8,8.5-8.5v-51.2
	c0-2.2-0.9-4.3-2.6-5.9c-0.3-0.2-3.7-2.7-3.7-2.7l-33.6-20.1c-28.1-17-45.4-47.4-45.5-80.3l43.7-87.3h127V476.1z M494.9,442h-17.1
	V143.3c0-4.7-3.8-8.5-8.5-8.5h-129c1.6-5.6,2.6-11.3,3.1-17.1h151.5V442z"/>
</svg>
