<svg width="60" height="60" version="1.1" id="Layer_1" xmlns="http://www.w3.org/2000/svg" xmlns:xlink="http://www.w3.org/1999/xlink" x="0px" y="0px"
	 viewBox="0 0 512 512" style="enable-background:new 0 0 512 512;" xml:space="preserve">
<style type="text/css">
	.st0{fill:#BCBEC0;}
	.st1{fill:#FFE07D;}
	.st2{fill:#A7A9AC;}
	.st3{fill:#FFF0C3;}
	.st4{fill:#939598;}
	.st5{fill:#FEC961;}
	.st6{fill:#414042;}
	.st7{fill:#E89048;}
	.st8{fill:#B5E9FF;}
	.st9{fill:#F2EEB8;}
	.st10{fill:#735843;}
</style>
<g>
	<g id="Frame">
		<g id="Group_1000004470">
			<g id="Group">
				<path id="Vector" class="st0" d="M368.3,248h29.6v29.6h-29.6V248z"/>
				<path id="Vector_2" class="st0" d="M368.3,195h29.6v29.6h-29.6V195z"/>
				<path id="Vector_3" class="st0" d="M380.1,336.2c9.6,0,17.4,4.6,17.4,10.3c0,5.7-7.8,10.3-17.4,10.3s-11.5-2.2-11.5-7.9
					C368.6,343.1,370.5,336.2,380.1,336.2z"/>
				<path id="Vector_4" class="st0" d="M360.8,401.8c-1.2,3.9-17.9,9.3-29.9,11.4v-25.9c3.7-3.8,7.9-7.2,18.6-7.2
					C362.1,380.1,362.7,395.7,360.8,401.8z"/>
				<path id="Vector_5" class="st0" d="M360.8,401.8c1.9-6.1,1.4-21.7-11.4-21.7c-10.7,0-14.9,3.4-18.6,7.2v-38.1h29.9
					c6.1,15.3,13,28.6,20.9,38.6c4.6,5.9,6.7,13.5,5.5,20.9c-2,11.9-2.9,23.5-3.4,34.8l-52.9-20.2v-10.1
					C342.9,411.2,359.6,405.7,360.8,401.8z"/>
				<path id="Vector_6" class="st0" d="M360.8,349.2h-29.9v-55.3c2.9,1.6,5.3,4,6.8,7.1L360.8,349.2z"/>
				<path id="Vector_7" class="st1" d="M360.8,349.2L337.6,301c-1.5-3.1-3.9-5.5-6.8-7.1V162.5h101.6v257.3
					c0,20.3-20.4,34.4-39.4,27.1l-9.2-3.5c0.4-11.2,1.4-22.9,3.4-34.8c1.2-7.4-0.8-15-5.5-20.9C373.7,377.8,366.9,364.5,360.8,349.2
					z M397.8,277.6V248h-29.6v29.6H397.8z M397.8,224.6V195h-29.6v29.6H397.8z M397.5,346.4c0-5.7-7.8-10.3-17.4-10.3
					s-11.5,7-11.5,12.7c0,5.7,1.9,7.9,11.5,7.9S397.5,352.1,397.5,346.4z"/>
			</g>
			<g id="Group_2">
				<path id="Vector_8" class="st2" d="M330.8,387.3v25.9c-7.1,1.2-12.7,1.2-12.5-1c0.9-10.9,6.1-18.2,10.4-22.6
					C329.4,388.8,330.1,388.1,330.8,387.3z"/>
				<path id="Vector_9" class="st2" d="M253.3,207.1h29.6v29.6h-29.6V207.1z"/>
				<path id="Vector_10" class="st2" d="M253.3,154.1h29.6v29.6h-29.6V154.1z"/>
				<path id="Vector_11" class="st2" d="M253.3,101.1h29.6v29.6h-29.6V101.1z"/>
				<path id="Vector_12" class="st2" d="M207,349.2h123.8v38.1c-0.7,0.7-1.4,1.5-2.1,2.2c-4.3,4.5-9.4,11.8-10.4,22.6
					c-0.2,2.2,5.4,2.2,12.5,1v10.1l-53-20.2l-70.9-27V349.2z"/>
				<path id="Vector_13" class="st2" d="M207,290c12.9-1,30.1-2,47.4-2c34.5,0,68.9,3.9,68.9,3.9c2.7,0,5.3,0.7,7.6,1.9v55.3H207
					V290z"/>
				<path id="Vector_14" class="st1" d="M253.3,101.1v29.6h29.6v-29.6H253.3z M254.3,288.1c-17.2,0-34.5,1-47.4,2V70.1h123.8v223.8
					c-2.3-1.2-4.9-1.9-7.6-1.9C323.2,292,288.8,288.1,254.3,288.1z M282.9,236.6v-29.6h-29.6v29.6H282.9z M282.9,183.6v-29.6h-29.6
					v29.6H282.9z"/>
			</g>
			<g id="Group_3">
				<path id="Vector_15" class="st3" d="M146.4,352.9c0.5-1.2,1-2.5,1.5-3.7H207v26.9L146.4,352.9z"/>
				<path id="Vector_16" class="st3" d="M147.9,349.2L171,301c2.7-5.5,8.2-9,14.4-9c0,0,8.6-1,21.6-2v59.2H147.9z"/>
				<path id="Vector_17" class="st3" d="M155.5,189.7H185v29.6h-29.6V189.7z"/>
				<path id="Vector_18" class="st3" d="M155.5,136.7H185v29.6h-29.6V136.7z"/>
				<path id="Vector_19" class="st3" d="M114.2,340.7c3.1-2.7,8.4-4.5,14.4-4.5c9.6,0,11.5,7,11.5,12.7c0,0.6,0,1.2-0.1,1.7
					L114.2,340.7z"/>
				<path id="Vector_20" class="st3" d="M97.4,242.7h29.6v29.6H97.4V242.7z"/>
				<path id="Vector_21" class="st3" d="M97.4,189.7h29.6v29.6H97.4V189.7z"/>
				<path id="Vector_22" class="st3" d="M97.4,136.7h29.6v29.6H97.4V136.7z"/>
				<path id="Vector_23" class="st1" d="M185,136.7h-29.6v29.6H185V136.7z M185,189.7h-29.6v29.6H185V189.7z M97.4,272.3h29.6v-29.6
					H97.4V272.3z M97.4,219.3h29.6v-29.6H97.4V219.3z M97.4,166.3h29.6v-29.6H97.4V166.3z M77,326.5V102.4h130V290
					c-12.9,1-21.6,2-21.6,2c-6.1,0-11.7,3.5-14.4,9l-23.2,48.2c-0.5,1.3-1,2.5-1.5,3.7l-6.4-2.4c0.1-0.5,0.1-1.1,0.1-1.7
					c0-5.7-1.9-12.7-11.5-12.7c-6,0-11.3,1.8-14.4,4.5L77,326.5z"/>
			</g>
			<path id="Vector_24" class="st4" d="M352.4,138.1h58.9v24.5h-58.9V138.1z"/>
			<g id="Group_4">
				<path id="Vector_25" class="st5" d="M380.1,336.2c9.6,0,17.4,4.6,17.4,10.3c0,5.7-7.8,10.3-17.4,10.3c-9.6,0-11.5-2.2-11.5-7.9
					C368.6,343.1,370.4,336.2,380.1,336.2z"/>
				<path id="Vector_26" class="st5" d="M381.6,387.8c4.6,5.9,6.7,13.5,5.5,20.9c-2,11.9-2.9,23.5-3.4,34.8l-52.9-20.2v-10.1
					c12.1-2,28.8-7.5,29.9-11.4c1.9-6.1,1.4-21.7-11.4-21.7c-10.7,0-14.9,3.4-18.6,7.2v-38.1h29.9
					C366.9,364.5,373.7,377.8,381.6,387.8z"/>
				<path id="Vector_27" class="st5" d="M277.8,403.1l53,20.2l52.9,20.2c-0.3,7.4-0.4,14.6-0.4,21.5c0,2.8-1.2,5.3-3.2,7.1
					c-1.7,1.6-4,2.5-6.5,2.5h-22.8v-2.6c-11-8.8-15.9-21.4-29.7-21.4H187.5c-13.7,0-18.7,12.6-29.7,21.4v2.6H135
					c-2.5,0-4.8-1-6.5-2.5c-1.9-1.8-3.1-4.3-3.2-7.1c-0.1-17.6-0.5-36.5-3.8-56.2c-1.2-7.4,0.8-15,5.5-20.9
					c7.3-9.2,13.6-21.1,19.3-34.9l60.6,23.1L277.8,403.1z M147.9,401.8c1.9,6.1,43,16.4,42.5,10.4c-0.9-10.9-6.1-18.2-10.4-22.6
					c-4.4-4.6-8-9.4-20.7-9.4S146,395.7,147.9,401.8z"/>
			</g>
			<path id="Vector_28" class="st6" d="M380.2,472.1v25.7c0,4.2-3.4,7.7-7.7,7.7h-25c-4.2,0-7.7-3.4-7.7-7.7v-23.1h33.8
				C376.2,474.6,378.4,473.7,380.2,472.1z"/>
			<path id="Vector_29" class="st7" d="M349.4,380.1c12.7,0,13.3,15.6,11.4,21.7c-1.2,3.9-17.9,9.4-29.9,11.4v-25.9
				C334.5,383.5,338.7,380.1,349.4,380.1z"/>
			<path id="Vector_30" class="st8" d="M337.6,301l23.2,48.2h-29.9v-55.3C333.7,295.5,336.1,297.9,337.6,301z"/>
			<g id="Group_5">
				<path id="Vector_31" class="st7" d="M350.9,472v2.6H157.8V472c11-8.8,16-21.4,29.7-21.4h133.7
					C334.9,450.6,339.9,463.2,350.9,472z"/>
				<path id="Vector_32" class="st5" d="M277.8,403.1l-70.9-27v-26.9h123.8v38.1c-0.7,0.7-1.4,1.5-2.1,2.2
					c-4.3,4.5-9.4,11.8-10.4,22.6c-0.2,2.2,5.4,2.2,12.5,1v10.1L277.8,403.1z"/>
				<path id="Vector_33" class="st7" d="M330.8,387.3v25.9c-7.1,1.2-12.7,1.2-12.5-1c0.9-10.9,6.1-18.2,10.4-22.6
					C329.4,388.8,330.1,388.1,330.8,387.3z"/>
			</g>
			<path id="Vector_34" class="st8" d="M330.8,293.9v55.3H207V290c12.9-1,30.1-2,47.4-2c34.5,0,68.9,3.9,68.9,3.9
				C325.9,292,328.5,292.7,330.8,293.9z"/>
			<path id="Vector_35" class="st4" d="M238.7,45.7h58.9v24.5h-58.9V45.7z"/>
			<path id="Vector_36" class="st5" d="M207,349.2v26.9l-60.6-23.1c0.5-1.2,1-2.5,1.5-3.7H207z"/>
			<path id="Vector_37" class="st8" d="M207,290v59.2h-59.1l23.2-48.2c2.7-5.5,8.2-9,14.4-9C185.4,292,194,291,207,290z"/>
			<path id="Vector_38" class="st7" d="M190.4,412.2c0.5,6-40.6-4.2-42.5-10.4c-1.9-6.1-1.4-21.7,11.4-21.7
				c12.7,0,16.3,4.9,20.7,9.4C184.3,394.1,189.4,401.4,190.4,412.2z"/>
			<path id="Vector_39" class="st4" d="M115.5,77.9h58.9v24.5h-58.9V77.9z"/>
			<path id="Vector_40" class="st6" d="M168.8,474.6v23.1c0,4.2-3.4,7.7-7.7,7.7h-25c-4.2,0-7.7-3.4-7.7-7.7v-25.7
				c1.7,1.6,4,2.5,6.5,2.5H168.8z"/>
			<g id="Group_6">
				<path id="Vector_41" class="st7" d="M140.1,348.8c0,0.6,0,1.2-0.1,1.7l-25.8-9.8c3.1-2.7,8.4-4.5,14.4-4.5
					C138.2,336.2,140.1,343.1,140.1,348.8z"/>
				<path id="Vector_42" class="st7" d="M114.2,340.7l25.8,9.8c-0.4,4.4-2.8,6.2-11.4,6.2c-9.6,0-17.4-4.6-17.4-10.3
					C111.2,344.3,112.3,342.3,114.2,340.7z"/>
			</g>
			<g id="Group_7">
				<path id="Vector_43" class="st3" d="M368.3,248.1h29.6v29.6h-29.6V248.1z"/>
				<path id="Vector_44" class="st3" d="M368.3,195h29.6v29.6h-29.6V195z"/>
			</g>
			<path id="Vector_45" class="st9" d="M360.8,401.8c-1.9,6.1-43,16.4-42.5,10.4c0.9-10.9,6.1-18.2,10.4-22.6
				c4.4-4.6,8-9.4,20.7-9.4C362.1,380.1,362.7,395.7,360.8,401.8z"/>
			<path id="Vector_46" class="st10" d="M254.3,450.6h66.8c13.7,0,18.7,12.6,29.7,21.4v2.6H157.8V472c11-8.8,16-21.4,29.7-21.4
				H254.3z"/>
			<g id="Group_8">
				<path id="Vector_47" class="st3" d="M253.3,207.1h29.6v29.6h-29.6V207.1z"/>
				<path id="Vector_48" class="st3" d="M253.3,154.1h29.6v29.6h-29.6V154.1z"/>
				<path id="Vector_49" class="st3" d="M253.3,101.1h29.6v29.6h-29.6V101.1z"/>
				<path id="Vector_50" class="st3" d="M155.5,189.7H185v29.6h-29.6V189.7z"/>
				<path id="Vector_51" class="st3" d="M155.5,136.7H185v29.6h-29.6V136.7z"/>
			</g>
			<path id="Vector_52" class="st9" d="M180,389.6c4.3,4.5,9.4,11.8,10.4,22.6c0.5,6-40.6-4.2-42.5-10.4
				c-1.9-6.1-1.4-21.7,11.4-21.7C172,380.1,175.6,385,180,389.6z"/>
			<g id="Group_9">
				<path id="Vector_53" class="st3" d="M97.4,242.7h29.6v29.6H97.4V242.7z"/>
				<path id="Vector_54" class="st3" d="M97.4,189.7h29.6v29.6H97.4V189.7z"/>
				<path id="Vector_55" class="st3" d="M97.4,136.7h29.6v29.6H97.4V136.7z"/>
			</g>
			<g id="Group_10">
				<path id="Vector_56" d="M161.1,512h-25c-7.8,0-14.2-6.4-14.2-14.2v-25.7c0-3.6,2.9-6.6,6.6-6.6c3.6,0,6.6,2.9,6.6,6.6v25.7
					c0,0.6,0.5,1.1,1.1,1.1h25c0.6,0,1.1-0.5,1.1-1.1v-23.1c0.3-8.7,12.9-8.7,13.2,0v23.1C175.4,505.6,169,512,161.1,512z"/>
				<path id="Vector_57" d="M372.5,512h-25c-7.8,0-14.2-6.4-14.2-14.2v-23.1c0-3.6,2.9-6.6,6.6-6.6c3.6,0,6.6,2.9,6.6,6.6v23.1
					c0,0.6,0.5,1.1,1.1,1.1h25c0.6,0,1.1-0.5,1.1-1.1V472c0.3-8.7,12.9-8.7,13.2,0v25.7C386.7,505.6,380.3,512,372.5,512z"/>
			</g>
			<path id="Vector_58" d="M185.8,419c-7.7,0-19-3.1-21.5-3.8c-19.2-5.5-20.6-10.1-21.1-11.9c-1.5-4.8-2-15,3-21.8
				c3-4.1,7.6-6.3,13-6.3c13.9,0,19.2,5.5,23.4,10c7.4,7.3,11.8,16.4,12.7,26.6C195.7,416.3,191.4,419.2,185.8,419L185.8,419z
				 M152.5,399.8c3.8,3.4,24.3,9.1,32.5,9.4c-1.2-6.5-4.6-12.4-9.5-17.2c-3.8-4-6.5-6.9-16.2-6.9
				C151.6,384.9,151.4,395.1,152.5,399.8z"/>
			<g id="Group_11">
				<path id="Vector_59" d="M301.1,408h-93.5c-2.7,0-4.9-2.2-4.9-4.9c0-2.7,2.2-4.9,4.9-4.9h93.5C307.6,398.3,307.6,407.8,301.1,408
					z"/>
				<path id="Vector_60" d="M290.1,430h-71.5c-6.5-0.2-6.5-9.7,0-9.9h71.5C296.6,420.4,296.6,429.8,290.1,430z"/>
			</g>
			<path id="Vector_61" d="M322.9,419c-5.7,0.2-9.9-2.6-9.5-7.2c0.8-10.2,5.3-19.2,12.7-26.6c4.2-4.5,9.4-10,23.4-10
				c5.5,0,10,2.2,13,6.3c5,6.8,4.5,16.9,3,21.8c-0.5,1.8-2,6.4-21.1,11.9C341.9,415.9,330.6,419,322.9,419L322.9,419z M349.4,385.1
				c-9.7,0-12.4,2.9-16.2,6.9c-4.9,4.8-8.3,10.7-9.5,17.2c8.2-0.3,28.7-6,32.5-9.4C357.2,395.1,357,384.9,349.4,385.1z"/>
			<path id="Vector_62" d="M380.1,329.6c-8,0-13.8,3.8-16.4,10.4l-20.1-41.8c-3.7-7.6-11.4-12.6-19.9-12.7
				c-3.7-0.4-36.7-3.9-69.3-3.9c-32.6,0-65.6,3.5-69.3,3.9c-8.4,0.2-16.2,5.1-19.9,12.7L145,340c-2.6-6.5-8.5-10.4-16.4-10.4
				c-36.1,1.4-29.3,38,6,33.4c-4.1,8.3-8.3,15.2-12.8,20.8c-5.8,7.4-8.3,16.9-6.8,26c3.3,19.9,3.6,38.9,3.7,55.2
				c0,8.9,7.3,16.2,16.3,16.2h238.6c8.9,0,16.2-7.3,16.3-16.2c0.1-17.5,0.6-36.2,3.7-55.2c1.5-9.1-1-18.6-6.8-26
				c-4.4-5.6-8.6-12.5-12.8-20.8C409.4,367.6,416.1,331,380.1,329.6L380.1,329.6z M177,303.9c1.7-3.5,5.3-5.5,9.2-5.3
				c0.3,0,34.5-3.9,68.2-3.9c33.7,0,67.8,3.9,68.2,3.9c3.8-0.1,7.5,1.8,9.2,5.3l18.6,38.8H158.3L177,303.9L177,303.9z M133.5,349.8
				c-0.7,0.2-2.1,0.4-4.9,0.4c-6.5,0-10.3-2.6-10.8-3.7c0.5-1.1,4.3-3.7,10.8-3.7C131.9,342.6,133.8,343.8,133.5,349.8z M171.3,468
				c5.9-6.6,10-11,16.2-10.8h133.7c6.2-0.2,10.3,4.3,16.2,10.8H171.3L171.3,468z M380.6,407.7c-3.3,19.9-3.8,39.3-3.9,57.3
				c0,1.7-1.4,3.1-3.1,3.1h-17.6c-11.4-9.2-17-23.6-34.9-24H187.5c-17.9,0.4-23.5,14.8-34.9,24H135c-1.7,0-3.1-1.4-3.1-3.1
				c-0.1-18-0.6-37.4-3.9-57.3c-0.9-5.5,0.6-11.2,4.1-15.8c7.2-9.1,13.8-21,20.1-36.1h204.1c6.3,15.1,12.9,27,20.1,36.1
				C380,396.4,381.5,402.1,380.6,407.7z M380.1,350.2c-2.7,0-4.1-0.2-4.9-0.4c-0.3-6,1.6-7.2,4.9-7c6.5,0,10.3,2.6,10.8,3.7
				C390.4,347.5,386.6,350.2,380.1,350.2z"/>
			<g id="Group_12">
				<path id="Vector_63" d="M397.8,188.5h-29.6c-3.6,0-6.6,2.9-6.6,6.6v29.6c0,3.6,2.9,6.6,6.6,6.6h29.6c3.6,0,6.6-2.9,6.6-6.6V195
					C404.4,191.4,401.4,188.5,397.8,188.5z M391.2,218h-16.4v-16.4h16.4V218z"/>
				<path id="Vector_64" d="M282.9,200.5h-29.6c-3.6,0-6.6,2.9-6.6,6.6v29.6c0,3.6,2.9,6.6,6.6,6.6h29.6c3.6,0,6.6-2.9,6.6-6.6
					v-29.6C289.5,203.5,286.5,200.5,282.9,200.5z M276.3,230.1h-16.4v-16.4h16.4V230.1z"/>
				<path id="Vector_65" d="M282.9,147.5h-29.6c-3.6,0-6.6,2.9-6.6,6.6v29.6c0,3.6,2.9,6.6,6.6,6.6h29.6c3.6,0,6.6-2.9,6.6-6.6
					v-29.6C289.5,150.5,286.5,147.5,282.9,147.5z M276.3,177.1h-16.4v-16.4h16.4V177.1z"/>
				<path id="Vector_66" d="M282.9,94.5h-29.6c-3.6,0-6.6,2.9-6.6,6.6v29.6c0,3.6,2.9,6.6,6.6,6.6h29.6c3.6,0,6.6-2.9,6.6-6.6v-29.6
					C289.5,97.4,286.5,94.5,282.9,94.5z M276.3,124.1h-16.4v-16.4h16.4V124.1z"/>
				<path id="Vector_67" d="M397.8,241.5h-29.6c-3.6,0-6.6,2.9-6.6,6.6v29.6c0,3.6,2.9,6.6,6.6,6.6h29.6c3.6,0,6.6-2.9,6.6-6.6V248
					C404.4,244.4,401.4,241.5,397.8,241.5z M391.2,271h-16.4v-16.4h16.4V271z"/>
				<path id="Vector_68" d="M432.4,156h-14.5v-17.9c0-3.6-2.9-6.6-6.6-6.6h-22.9V98.8c0-3.6-2.9-6.6-6.6-6.6c-3.6,0-6.6,2.9-6.6,6.6
					v32.7h-22.9c-3.6,0-6.6,2.9-6.6,6.6V156h-8.4V70.1c0-3.6-2.9-6.6-6.6-6.6h-26.7V45.7c0-3.6-2.9-6.6-6.6-6.6h-22.9V6.6
					c0-3.6-2.9-6.6-6.6-6.6c-3.6,0-6.6,2.9-6.6,6.6v32.5h-22.9c-3.6,0-6.6,2.9-6.6,6.6v17.9H207c-3.6,0-6.6,2.9-6.6,6.6v25.7H181
					V77.9c0-3.6-2.9-6.6-6.6-6.6h-58.9c-3.6,0-6.6,2.9-6.6,6.6v17.9H77c-3.6,0-6.6,2.9-6.6,6.6v224.1c0,3.6,2.9,6.6,6.6,6.6
					c3.6,0,6.6-2.9,6.6-6.6V109h116.8v148.6c0,3.6,2.9,6.6,6.6,6.6c3.6,0,6.6-2.9,6.6-6.6c0-17.4,0-168.1,0-180.9h110.7v180.9
					c0,3.6,2.9,6.6,6.6,6.6c3.6,0,6.6-2.9,6.6-6.6v-88.5h88.4v148.1c0.3,8.7,12.8,8.7,13.2,0V162.5C438.9,158.9,436,156,432.4,156
					L432.4,156z M122.1,95.8V84.5h45.8v11.3H122.1z M245.2,52.2h21.2c1.1,0.3,2.3,0.3,3.3,0H291v11.3h-45.8L245.2,52.2L245.2,52.2z
					 M358.9,156v-11.3h45.8V156H358.9z"/>
				<path id="Vector_69" d="M126.9,183.2H97.4c-3.6,0-6.6,2.9-6.6,6.6v29.6c0,3.6,2.9,6.6,6.6,6.6h29.6c3.6,0,6.6-2.9,6.6-6.6v-29.6
					C133.5,186.1,130.6,183.2,126.9,183.2z M120.4,212.7H104v-16.4h16.4V212.7z"/>
				<path id="Vector_70" d="M126.9,236.2H97.4c-3.6,0-6.6,2.9-6.6,6.6v29.6c0,3.6,2.9,6.6,6.6,6.6h29.6c3.6,0,6.6-2.9,6.6-6.6v-29.6
					C133.5,239.1,130.6,236.2,126.9,236.2z M120.4,265.7H104v-16.4h16.4V265.7z"/>
				<path id="Vector_71" d="M126.9,130.1H97.4c-3.6,0-6.6,2.9-6.6,6.6v29.6c0,3.6,2.9,6.6,6.6,6.6h29.6c3.6,0,6.6-2.9,6.6-6.6v-29.6
					C133.5,133.1,130.6,130.1,126.9,130.1z M120.4,159.7H104v-16.4h16.4V159.7z"/>
				<path id="Vector_72" d="M185,183.2h-29.6c-3.6,0-6.6,2.9-6.6,6.6v29.6c0,3.6,2.9,6.6,6.6,6.6H185c3.6,0,6.6-2.9,6.6-6.6v-29.6
					C191.6,186.1,188.6,183.2,185,183.2z M178.4,212.7H162v-16.4h16.4V212.7z"/>
				<path id="Vector_73" d="M185,130.1h-29.6c-3.6,0-6.6,2.9-6.6,6.6v29.6c0,3.6,2.9,6.6,6.6,6.6H185c3.6,0,6.6-2.9,6.6-6.6v-29.6
					C191.6,133.1,188.6,130.1,185,130.1z M178.4,159.7H162v-16.4h16.4V159.7z"/>
			</g>
		</g>
	</g>
</g>
</svg>
