<svg width="60" height="60" version="1.1" id="Layer_1" xmlns="http://www.w3.org/2000/svg" xmlns:xlink="http://www.w3.org/1999/xlink" x="0px" y="0px"
	 viewBox="0 0 512 512" style="enable-background:new 0 0 512 512;" xml:space="preserve">
<style type="text/css">
	.st0{fill:#F9F8F9;}
	.st1{fill:#E8E8E8;}
	.st2{fill:#FFE07D;}
	.st3{fill:#FFD064;}
	.st4{fill:#B2E5FB;}
	.st5{fill:#DCDBDD;}
	.st6{fill:#7DC3EE;}
	.st7{fill:#64ACDC;}
</style>
<g>
	<g id="Capa_1">
		<g id="Group">
			<g id="Group_2">
				<path id="Vector" class="st0" d="M481.8,140.8v164.3l-3.2,5.6l3.2,133.3c0,13.8-11.2,25-25,25l-154.5-1.3l-3.6,1.3H59.8
					c-1.7,0-3.4-0.2-5-0.5c-11.4-2.3-18.4-14.6-18.4-26.7l0.5-301.1l215.9-8.6L481.8,140.8z"/>
				<path id="Vector_2" class="st1" d="M54.8,140.8v327.7c-11.4-2.3-20-12.4-20-24.5V140.8l9.3-2.9L54.8,140.8z"/>
				<path id="Vector_3" class="st2" d="M481.8,45.8c8.3,0,15,6.7,15,15v63l-1,1c0,8.3-6.7,15-15,15h-445c-8.3,0-15-6.7-15-15v-64
					c0-8.3,5.7-14,14-14l2-1h34.5l26.4,3.8l32.6-3.8h46l25.6,3.8l33.4-3.8h46l26.4,3.8l32.6-3.8h46l26.4,3.8l32.6-3.8H481.8z"/>
				<g id="Group_3">
					<path id="Vector_4" class="st3" d="M496.8,123.8v2c0,8.3-6.7,15-15,15h-447c-8.3,0-15-6.7-15-15v-65c0-8.3,6.7-15,15-15h2v70
						c0,4.4,3.6,8,8,8H496.8z"/>
					<path id="Vector_5" class="st3" d="M235.3,45.8V65c0,16.3-13.2,29.5-29.5,29.5S176.3,81.3,176.3,65V45.8H235.3z"/>
					<path id="Vector_6" class="st3" d="M130.3,45.8V65c0,16.3-13.2,29.5-29.5,29.5S71.3,81.3,71.3,65V45.8H130.3z"/>
					<path id="Vector_7" class="st3" d="M340.3,45.8V65c0,16.3-13.2,29.5-29.5,29.5c-16.3,0-29.5-13.2-29.5-29.5V45.8H340.3z"/>
					<path id="Vector_8" class="st3" d="M445.3,45.8V65c0,16.3-13.2,29.5-29.5,29.5c-16.3,0-29.5-13.2-29.5-29.5V45.8H445.3z"/>
				</g>
				<path id="Vector_9" class="st4" d="M130.8,222.5h-25c-2.8,0-5,2.2-5,5v25c0,2.8,2.2,5,5,5h25c2.8,0,5-2.2,5-5v-25
					C135.8,224.7,133.6,222.5,130.8,222.5z"/>
				<path id="Vector_10" class="st2" d="M200.8,222.5h-25c-2.8,0-5,2.2-5,5v25c0,2.8,2.2,5,5,5h25c2.8,0,5-2.2,5-5v-25
					C205.8,224.7,203.6,222.5,200.8,222.5z"/>
				<path id="Vector_11" class="st2" d="M270.8,222.5h-25c-2.8,0-5,2.2-5,5v25c0,2.8,2.2,5,5,5h25c2.8,0,5-2.2,5-5v-25
					C275.8,224.7,273.6,222.5,270.8,222.5z"/>
				<path id="Vector_12" class="st2" d="M130.8,292.5h-25c-2.8,0-5,2.2-5,5v25c0,2.8,2.2,5,5,5h25c2.8,0,5-2.2,5-5v-25
					C135.8,294.7,133.6,292.5,130.8,292.5z"/>
				<path id="Vector_13" class="st1" d="M410.8,292.5h-235c-2.8,0-5,2.2-5,5v25c0,2.8,2.2,5,5,5h235c2.8,0,5-2.2,5-5v-25
					C415.8,294.7,413.6,292.5,410.8,292.5z"/>
				<path id="Vector_14" class="st4" d="M130.8,362.5h-25c-2.8,0-5,2.2-5,5v25c0,2.8,2.2,5,5,5h25c2.8,0,5-2.2,5-5v-25
					C135.8,364.7,133.6,362.5,130.8,362.5z"/>
				<path id="Vector_15" class="st4" d="M200.8,362.5h-25c-2.8,0-5,2.2-5,5v25c0,2.8,2.2,5,5,5h25c2.8,0,5-2.2,5-5v-25
					C205.8,364.7,203.6,362.5,200.8,362.5z"/>
				<path id="Vector_16" class="st1" d="M295.8,362.5h-50c-2.8,0-5,2.2-5,5v25c0,2.8,2.2,5,5,5h50c2.8,0,5-2.2,5-5v-25
					C300.8,364.7,298.6,362.5,295.8,362.5z"/>
				<path id="Vector_17" class="st1" d="M340.8,222.5h-25c-2.8,0-5,2.2-5,5v25c0,2.8,2.2,5,5,5h25c2.8,0,5-2.2,5-5v-25
					C345.8,224.7,343.6,222.5,340.8,222.5z"/>
				<path id="Vector_18" class="st1" d="M410.8,222.5h-25c-2.8,0-5,2.2-5,5v25c0,2.8,2.2,5,5,5h25c2.8,0,5-2.2,5-5v-25
					C415.8,224.7,413.6,222.5,410.8,222.5z"/>
				<g id="Group_4">
					<path id="Vector_19" class="st0" d="M100.5,80.9c-9.7,0-16.1-6.7-16.1-16.3l0.3-38.5c0-8.1,4.1-16,11.6-18
						c1.4-0.4,2.9-0.6,4.5-0.6c9.7,0,17.5,7.8,17.5,17.5v40c0,1.6-0.2,3.1-0.6,4.5C115.7,77,108.6,80.9,100.5,80.9z"/>
					<path id="Vector_20" class="st1" d="M117.7,69.5c-2,7.5-8.8,13-16.9,13c-9.7,0-17.5-7.8-17.5-17.5V25c0-8.1,5.5-14.9,13-16.9
						v47.4c0,7.7,6.3,14,14,14H117.7z"/>
				</g>
				<g id="Group_5">
					<path id="Vector_21" class="st0" d="M205.5,80.9c-9.7,0-16.1-6.7-16.1-16.3l0.3-38.5c0-8.1,4.1-16,11.6-18
						c1.4-0.4,2.9-0.6,4.5-0.6c9.7,0,17.5,7.8,17.5,17.5v40c0,1.6-0.2,3.1-0.6,4.5C220.7,77,213.6,80.9,205.5,80.9z"/>
					<path id="Vector_22" class="st1" d="M222.7,69.5c-2,7.5-8.8,13-16.9,13c-9.7,0-17.5-7.8-17.5-17.5V25c0-8.1,5.5-14.9,13-16.9
						v47.4c0,7.7,6.3,14,14,14H222.7z"/>
				</g>
				<g id="Group_6">
					<path id="Vector_23" class="st0" d="M310.5,80.9c-9.7,0-16.1-6.7-16.1-16.3l0.3-38.5c0-8.1,4.1-16,11.6-18
						c1.4-0.4,2.9-0.6,4.5-0.6c9.7,0,17.5,7.8,17.5,17.5v40c0,1.6-0.2,3.1-0.6,4.5C325.7,77,318.6,80.9,310.5,80.9z"/>
					<path id="Vector_24" class="st1" d="M327.7,69.5c-2,7.5-8.8,13-16.9,13c-9.7,0-17.5-7.8-17.5-17.5V25c0-8.1,5.5-14.9,13-16.9
						v47.4c0,7.7,6.3,14,14,14H327.7z"/>
				</g>
				<g id="Group_7">
					<path id="Vector_25" class="st0" d="M415.5,80.9c-9.7,0-16.1-6.7-16.1-16.3l0.3-38.5c0-8.1,4.1-16,11.6-18
						c1.4-0.4,2.9-0.6,4.5-0.6c9.7,0,17.5,7.8,17.5,17.5v40c0,1.6-0.2,3.1-0.6,4.5C430.7,77,423.6,80.9,415.5,80.9z"/>
					<path id="Vector_26" class="st1" d="M432.7,69.5c-2,7.5-8.8,13-16.9,13c-9.7,0-17.5-7.8-17.5-17.5V25c0-8.1,5.5-14.9,13-16.9
						v47.4c0,7.7,6.3,14,14,14H432.7z"/>
				</g>
				<path id="Vector_27" class="st1" d="M481.8,305.1V444c0,13.8-11.2,25-25,25H298.8c-15-20.5-23.9-45.7-23.9-73
					c0-68.1,55.4-123.5,123.5-123.5C430.5,272.5,459.8,284.9,481.8,305.1z"/>
				<path id="Vector_28" class="st5" d="M300.8,367.5v25c0,2.8-2.2,5-5,5h-21c0-0.5,0-1,0-1.5c0-11.6,1.6-22.8,4.6-33.5h16.4
					C298.6,362.5,300.8,364.7,300.8,367.5z"/>
				<path id="Vector_29" class="st5" d="M415.8,297.5v25c0,2.8-2.2,5-5,5H295.6c9.3-13.9,21.4-25.8,35.4-35h79.8
					C413.6,292.5,415.8,294.7,415.8,297.5z"/>
				<g id="Group_8">
					<path id="Vector_30" class="st6" d="M398.3,503.8c-59.8,0-105.6-48-105.6-107.8s45.8-108.2,105.6-108.2c2.5,0,5-0.2,7.5-0.1
						c56.4,3.8,101,50.9,101,108.2c0,57.7-45.2,105-102,108.3C402.6,504.4,400.5,503.8,398.3,503.8z"/>
					<path id="Vector_31" class="st7" d="M406.3,504.2c-2.6,0.2-5.3,0.3-8,0.3c-59.8,0-108.5-48.7-108.5-108.5
						s48.7-108.5,108.5-108.5c2.7,0,5.4,0.1,8,0.3c-56.1,4.1-100.5,51.1-100.5,108.2S350.2,500.1,406.3,504.2z"/>
					<path id="Vector_32" class="st0" d="M398.3,473l-7.6,0.9c-0.8-0.1-1.6-0.2-2.4-0.3c-5.7-0.7-11.2-3.1-16.4-5
						c-29.8-10.9-50.5-38.8-50.5-72.7c0-33,19.2-60.8,48.2-72.3c6.7-2.7,13.6-5,21-5.7l7.4,0.9l7.7-0.9c37.2,3.6,67,33.3,70.5,70.5
						l-1.4,7.9l1.4,7.1c-3.6,37.2-33.3,66.9-70.5,70.5L398.3,473z"/>
					<path id="Vector_33" class="st1" d="M390.7,474c-37.2-3.6-66.8-33.3-70.4-70.4l1.2-7.8l-1.2-7.2c3.5-37.2,33.2-66.9,70.4-70.5
						c-33.2,9.3-57.7,40.8-57.7,78S357.5,464.6,390.7,474z"/>
				</g>
			</g>
			<g id="Group_9">
				<path id="Vector_34" d="M143.3,227.5c0-6.9-5.6-12.5-12.5-12.5h-25c-6.9,0-12.5,5.6-12.5,12.5v25c0,6.9,5.6,12.5,12.5,12.5h25
					c6.9,0,12.5-5.6,12.5-12.5V227.5z M128.3,250h-20v-20h20V250z"/>
				<path id="Vector_35" d="M175.8,215c-6.9,0-12.5,5.6-12.5,12.5v25c0,6.9,5.6,12.5,12.5,12.5h25c6.9,0,12.5-5.6,12.5-12.5v-25
					c0-6.9-5.6-12.5-12.5-12.5H175.8z M198.3,250h-20v-20h20V250z"/>
				<path id="Vector_36" d="M245.8,215c-6.9,0-12.5,5.6-12.5,12.5v25c0,6.9,5.6,12.5,12.5,12.5h25c6.9,0,12.5-5.6,12.5-12.5v-25
					c0-6.9-5.6-12.5-12.5-12.5H245.8z M268.3,250h-20v-20h20V250z"/>
				<path id="Vector_37" d="M143.3,297.5c0-6.9-5.6-12.5-12.5-12.5h-25c-6.9,0-12.5,5.6-12.5,12.5v25c0,6.9,5.6,12.5,12.5,12.5h25
					c6.9,0,12.5-5.6,12.5-12.5V297.5z M128.3,320h-20v-20h20V320z"/>
				<path id="Vector_38" d="M130.8,355h-25c-6.9,0-12.5,5.6-12.5,12.5v25c0,6.9,5.6,12.5,12.5,12.5h25c6.9,0,12.5-5.6,12.5-12.5v-25
					C143.3,360.6,137.7,355,130.8,355z M128.3,390h-20v-20h20V390z"/>
				<path id="Vector_39" d="M175.8,405h25c6.9,0,12.5-5.6,12.5-12.5v-25c0-6.9-5.6-12.5-12.5-12.5h-25c-6.9,0-12.5,5.6-12.5,12.5v25
					C163.3,399.4,168.9,405,175.8,405z M178.3,370h20v20h-20V370z"/>
				<path id="Vector_40" d="M315.8,215c-6.9,0-12.5,5.6-12.5,12.5v25c0,6.9,5.6,12.5,12.5,12.5h25c6.9,0,12.5-5.6,12.5-12.5v-25
					c0-6.9-5.6-12.5-12.5-12.5H315.8z M338.3,250h-20v-20h20V250z"/>
				<path id="Vector_41" d="M385.8,215c-6.9,0-12.5,5.6-12.5,12.5v25c0,6.9,5.6,12.5,12.5,12.5h25c6.9,0,12.5-5.6,12.5-12.5v-25
					c0-6.9-5.6-12.5-12.5-12.5H385.8z M408.3,250h-20v-20h20V250z"/>
				<path id="Vector_42" d="M441.3,182.5c0-4.1-3.4-7.5-7.5-7.5H375c-4.1,0-7.5,3.4-7.5,7.5c0,4.1,3.4,7.5,7.5,7.5h58.8
					C438,190,441.3,186.6,441.3,182.5z"/>
				<path id="Vector_43" d="M340,175H82.8c-4.1,0-7.5,3.4-7.5,7.5c0,4.1,3.4,7.5,7.5,7.5H340c4.1,0,7.5-3.4,7.5-7.5
					C347.5,178.4,344.1,175,340,175z"/>
				<path id="Vector_44" d="M489.3,324.1V147c8.7-3.1,15-11.4,15-21.2v-65c0-12.4-10.1-22.5-22.5-22.5h-41V25c0-13.8-11.2-25-25-25
					c-13.8,0-25,11.2-25,25v13.3h-55V25c0-13.8-11.2-25-25-25c-13.8,0-25,11.2-25,25v13.3h-55V25c0-13.8-11.2-25-25-25
					c-13.8,0-25,11.2-25,25v13.3h-55V25c0-13.8-11.2-25-25-25s-25,11.2-25,25v13.3h-41c-12.4,0-22.5,10.1-22.5,22.5v65
					c0,9.8,6.3,18.1,15,21.2v214.4c0,4.1,3.4,7.5,7.5,7.5c4.1,0,7.5-3.4,7.5-7.5V148.3h169.9c4.1,0,7.5-3.4,7.5-7.5
					c0-4.1-3.4-7.5-7.5-7.5H34.8c-4.1,0-7.5-3.4-7.5-7.5v-65c0-4.1,3.4-7.5,7.5-7.5h41V65c0,13.8,11.2,25,25,25s25-11.2,25-25V53.3
					h55V65c0,13.8,11.2,25,25,25c13.8,0,25-11.2,25-25V53.3h55V65c0,13.8,11.2,25,25,25c13.8,0,25-11.2,25-25V53.3h55V65
					c0,13.8,11.2,25,25,25c13.8,0,25-11.2,25-25V53.3h41c4.1,0,7.5,3.4,7.5,7.5v65c0,4.1-3.4,7.5-7.5,7.5H247.3
					c-4.1,0-7.5,3.4-7.5,7.5c0,4.1,3.4,7.5,7.5,7.5h227v160.1c-20.4-17.7-47-28.4-76-28.4c-11.7,0-23.1,1.8-33.7,5
					c-0.1,0-0.2,0-0.3,0h-84.8c-4.1,0-7.5,3.4-7.5,7.5c0,4.1,3.4,7.5,7.5,7.5h53.7c-8.3,5.7-15.9,12.4-22.5,20H178.3v-20h66.2
					c4.1,0,7.5-3.4,7.5-7.5c0-4.1-3.4-7.5-7.5-7.5h-68.7c-6.9,0-12.5,5.6-12.5,12.5v25c0,6.9,5.6,12.5,12.5,12.5h123.9
					c-3.9,6.3-7.2,13-9.9,20h-44c-6.9,0-12.5,5.6-12.5,12.5v25c0,6.9,5.6,12.5,12.5,12.5h36.8c1.6,20.9,8.8,40.2,20,56.5H59.8
					c-9.6,0-17.5-7.9-17.5-17.5v-47.4c0-4.1-3.4-7.5-7.5-7.5c-4.1,0-7.5,3.4-7.5,7.5V444c0,17.9,14.6,32.5,32.5,32.5h255.1
					c21.1,21.9,50.7,35.5,83.4,35.5c32.3,0,63.4-13.7,85.3-37.5c2.8-3,2.6-7.8-0.4-10.6c-3-2.8-7.8-2.6-10.6,0.4
					c-19.1,20.7-46.2,32.6-74.3,32.6c-55.7,0-101-45.3-101-101s45.3-101,101-101s101,45.3,101,101c0,14.6-3.1,28.6-9.1,41.8
					c-1.7,3.8-0.1,8.2,3.7,9.9c3.8,1.7,8.2,0.1,9.9-3.7c6.9-15.1,10.4-31.3,10.4-48C514.3,368.9,505,343.9,489.3,324.1z M110.8,65
					c0,5.5-4.5,10-10,10c-5.5,0-10-4.5-10-10V25c0-5.5,4.5-10,10-10c5.5,0,10,4.5,10,10V65z M215.8,65c0,5.5-4.5,10-10,10
					c-5.5,0-10-4.5-10-10V25c0-5.5,4.5-10,10-10c5.5,0,10,4.5,10,10V65z M320.8,65c0,5.5-4.5,10-10,10c-5.5,0-10-4.5-10-10V25
					c0-5.5,4.5-10,10-10c5.5,0,10,4.5,10,10V65z M425.8,65c0,5.5-4.5,10-10,10c-5.5,0-10-4.5-10-10V25c0-5.5,4.5-10,10-10
					c5.5,0,10,4.5,10,10V65z M248.3,370h36.9c-1.5,6.5-2.4,13.2-2.8,20h-34.2V370z"/>
				<path id="Vector_45" d="M398.3,310.1c-47.3,0-85.9,38.5-85.9,85.9s38.5,85.9,85.9,85.9c47.3,0,85.9-38.5,85.9-85.9
					S445.7,310.1,398.3,310.1z M405.8,466.5v-15.2c0-4.1-3.4-7.5-7.5-7.5c-4.1,0-7.5,3.4-7.5,7.5v15.2c-33.1-3.5-59.5-29.9-63-63
					h15.2c4.1,0,7.5-3.4,7.5-7.5c0-4.1-3.4-7.5-7.5-7.5h-15.2c3.5-33.1,29.9-59.5,63-63v15.2c0,4.1,3.4,7.5,7.5,7.5
					c4.1,0,7.5-3.4,7.5-7.5v-15.2c33.1,3.5,59.5,29.9,63,63h-15.2c-4.1,0-7.5,3.4-7.5,7.5c0,4.1,3.4,7.5,7.5,7.5h15.2
					C465.3,436.6,438.9,463,405.8,466.5z"/>
				<path id="Vector_46" d="M425.2,357.5L393,389.7c-1.5,1.5-2.2,3.4-2.2,5.3c0,1.9,0.7,3.8,2.2,5.3l17.5,17.5
					c1.5,1.5,3.4,2.2,5.3,2.2c1.9,0,3.8-0.7,5.3-2.2c2.9-2.9,2.9-7.7,0-10.6L408.9,395l26.8-26.8c2.9-2.9,2.9-7.7,0-10.6
					C432.8,354.6,428.1,354.6,425.2,357.5z"/>
			</g>
		</g>
	</g>
</g>
</svg>
