<svg width="60" height="60" version="1.1" id="Layer_1" xmlns="http://www.w3.org/2000/svg" xmlns:xlink="http://www.w3.org/1999/xlink" x="0px" y="0px"
	 viewBox="0 0 512 512" style="enable-background:new 0 0 512 512;" xml:space="preserve">
<style type="text/css">
	.st0{fill:#DFE9F4;}
	.st1{fill:#00CC99;}
	.st2{fill:#02C18B;}
	.st3{fill:#FFD542;}
	.st4{fill:#F2C538;}
	.st5{fill:#2DCEF6;}
	.st6{fill:#1EC5E0;}
	.st7{fill:#F34C6E;}
	.st8{fill:#E24067;}
	.st9{fill:#000033;}
</style>
<g id="Layer_1_1_">
	<g id="Group">
		<g id="Group_2">
			<g id="Group_3">
				<path id="Vector" class="st0" d="M471.3,495.4l-90-20.7l-37.5-251.3l50.4,8.2l25.5,4.1c10.1,1.6,18.3,8.9,21.3,18.7l27.4,91.8
					l34.5,115.5C508.6,481.3,491.2,499.9,471.3,495.4z"/>
				<path id="Vector_2" class="st0" d="M381.3,474.7l-95.6,23.6l-29.7,7.3V238.4l87.8-15L381.3,474.7z"/>
				<path id="Vector_3" class="st0" d="M256,238.4v267.2l-125.3-30.9l23.6-158.4l13.9-92.8l44.4,7.6L256,238.4z"/>
				<path id="Vector_4" class="st0" d="M168.2,223.4l-37.5,251.3l-30.4,7l-59.6,13.7c-19.9,4.6-37.3-14-31.5-33.6L35,375.3
					l36.1-120.9c2.9-9.8,11.2-17,21.3-18.7L168.2,223.4z"/>
			</g>
			<g id="Group_4">
				<path id="Vector_5" class="st1" d="M100.3,481.7l-59.6,13.7c-19.9,4.6-37.3-14-31.5-33.6L35,375.4h30.3
					c16.8,0,30.7,13.2,31.5,30.1L100.3,481.7z"/>
			</g>
			<g id="Group_5">
				<path id="Vector_6" class="st2" d="M100.3,481.7l-59.6,13.7c-19.9,4.5-37.4-14-31.5-33.6L35,375.4h16.9l-18.6,62.3
					c-5.8,19.6,11.6,38.2,31.5,33.6l34.7-8L100.3,481.7z"/>
			</g>
			<g id="Group_6">
				<path id="Vector_7" class="st3" d="M468.3,346.3l-40.7,6.7c-8.4,1.4-16.2-4.8-16.8-13.3l-3.2-44.6c-0.2-3.2-1.5-6.3-3.7-8.7
					l-16.3-18c-3.8-4.2-4.8-10.2-2.6-15.4l9.2-21.4l25.5,4.1c10.1,1.6,18.3,8.9,21.3,18.7L468.3,346.3z"/>
			</g>
			<g id="Group_7">
				<path id="Vector_8" class="st4" d="M468.3,346.3l-18.4,3l-23.9-80c-2.9-9.8-11.2-17.1-21.3-18.7l-17.5-2.8l6.9-16.2l25.5,4.1
					c10.1,1.6,18.4,8.9,21.3,18.7L468.3,346.3z"/>
			</g>
			<g id="Group_8">
				<path id="Vector_9" class="st5" d="M325.7,454.9l-40,43.4l-29.7,7.3V346.9l25,1.9c7.8,0.6,13.7,7.3,13.4,15.1l-2,47.9
					c-0.3,6.6,4,12.6,10.4,14.5l16.4,4.9C329.4,434.2,333,447,325.7,454.9z"/>
			</g>
			<g id="Group_9">
				<path id="Vector_10" class="st6" d="M307.4,474.8l-21.7,23.6l-29.7,7.3V346.9l24.1,1.8v132.8L307.4,474.8z"/>
			</g>
			<g id="Group_10">
				<path id="Vector_11" class="st7" d="M202.8,6.7C139.4,6.7,88.2,58,88.2,121.3c0,46.5,62,138.1,94.9,183.1
					c9.8,13.4,29.8,13.4,39.5,0c32.8-45.1,94.9-136.6,94.9-183.1C317.5,58,266.1,6.7,202.8,6.7z M202.8,167.5
					c-25,0-45.3-20.2-45.3-45.3c0-25,20.3-45.3,45.3-45.3c25,0,45.3,20.3,45.3,45.3C248.1,147.2,227.8,167.5,202.8,167.5z"/>
			</g>
			<g id="Group_11">
				<path id="Vector_12" class="st8" d="M314.6,95.6c-12.6,49.4-63.4,123.8-92,163.2c-9.7,13.4-29.7,13.4-39.5,0
					C154.4,219.4,103.7,145,91.1,95.6c-1.9,8.3-2.9,16.9-2.9,25.7c0,46.5,62,138.1,94.9,183.1c9.8,13.4,29.8,13.4,39.5,0
					c32.8-45.1,94.9-136.6,94.9-183.1C317.5,112.5,316.5,103.9,314.6,95.6z"/>
			</g>
			<g id="Group_12">
				<path id="Vector_13" class="st9" d="M510.5,459.5l-61.9-207.4c-3.8-12.6-14.6-22.2-27.7-24.3l-75.8-12.3
					c-2.1-0.4-57.9,9.5-60.4,9.9c22.5-38.3,40.8-77.5,40.8-104.1c0-19.5-4.5-38.1-13.3-55.4c-2-3.9-6.8-5.6-10.8-3.5
					c-3.9,2-5.6,6.8-3.5,10.8c7.6,15,11.5,31.2,11.5,48.2c0,31.9-34,96.9-93.4,178.4c-6.4,8.9-19.8,9.1-26.5,0
					c-28.1-38.5-93.4-133.1-93.4-178.4c0-58.7,47.8-106.6,106.6-106.6c28.9,0,55.9,11.4,76.1,32c3.1,3.1,8.2,3.2,11.4,0.2
					c3.1-3.1,3.2-8.2,0.1-11.4c-23.3-23.7-54.4-36.9-87.6-36.9c-67.7,0-122.7,55-122.7,122.7c0,26.5,18.2,65.6,40.6,103.7
					c-0.4-0.6-0.8-1.2-1.1-1.8L91,227.8c-13,2.2-23.9,11.7-27.6,24.3l-62,207.4c-7.6,25.9,15.7,49.8,41,43.7l88.1-20.2l123.5,30.4
					c3,0.7,124.3-29.7,127.3-30.4c0,0,93.4,21.2,96,21.2C499.9,504.1,517.4,482.2,510.5,459.5z M128.5,434.9l-5,33.2l-15.6,3.5
					l-1.1-24.9c-0.2-4.4-4-8-8.5-7.6c-4.4,0.2-7.9,3.9-7.6,8.4l1.3,27.9l-53.1,12.2c-13.8,3.2-26.1-9.7-22-23.4L41,383.4h24.4
					c12.6,0,22.9,9.8,23.4,22.4l0.6,14.2c0.2,4.4,4,8,8.5,7.6c4.4-0.2,7.8-3.9,7.6-8.4l-0.6-14.2c-1-21.2-18.3-37.7-39.5-37.7H45.8
					l33-110.6c2-6.8,7.9-11.9,14.8-13l34.8-5.7c-0.6-0.9-1.1-1.9-1.6-2.7c8.4,13.8,17.1,27.2,25.6,39.7L128.5,434.9z M248,495.4
					l-108.2-26.7l26.1-174.4c3.7,5.2,7.3,10.4,10.7,15c13.1,17.8,39.5,17.8,52.6,0c5.8-8,12.2-17,18.9-26.7L248,495.4z M309.8,484.1
					l21.8-23.7c11.5-12.5,5.5-32.3-10.1-36.9l-16.4-4.9c-2.8-0.8-4.7-3.5-4.6-6.4l0.8-19.6c0.2-4.4-3.3-8.2-7.7-8.4
					c-4.3-0.2-8.1,3.2-8.4,7.7l-0.8,19.6c-0.4,10.3,6.2,19.6,16.1,22.5l16.4,4.8c4.6,1.5,6.2,7,2.9,10.5l-38.3,41.7
					c-35.3,8.5,17.8-4.2-17.4,4.3V355.6l16.3,1.2c3.5,0.3,6.1,3.2,6,6.8c-0.2,4.4,3.3,8.2,7.7,8.4c4.2,0.3,8.2-3.3,8.4-7.7
					c0.5-12.2-8.7-22.5-20.8-23.4l-17.5-1.3v-80.9c3.1-4.9,6.4-9.9,9.6-15l63.4-10.9l35.2,236L309.8,484.1z M473.1,487.5l-84.7-19.4
					c-26.6-177.7-18.8-125.9-35.1-235l29.3,4.8l-5.1,11.9c-3.5,8.1-1.9,17.5,3.9,24.1l16.3,17.9c1,1,1.5,2.4,1.7,3.9l0.6,8.1
					c0.3,4.4,4.3,7.8,8.6,7.4c4.4-0.3,7.7-4.2,7.4-8.6l-0.6-8c-0.3-5-2.4-9.8-5.8-13.5l-16.3-18c-1.7-1.9-2.2-4.5-1.2-6.8l6.8-15.6
					l19.2,3.1c7,1.1,12.9,6.2,14.9,13c23.1,77.1,1.8,5.9,24.7,83.1l-31.6,5.2c-4.1,0.5-7.1-2.2-7.5-5.9l-1-13.9
					c-0.3-4.4-4.3-7.7-8.6-7.4c-4.4,0.2-7.8,4.1-7.5,8.5l1,13.9c0.9,13.7,14,23,26.1,20.6l33.8-5.6l32.4,108.7
					C499.2,478.1,486.7,490.7,473.1,487.5z"/>
				<path id="Vector_14" class="st9" d="M149.5,122.1c0,29.4,23.9,53.3,53.3,53.3c29.4,0,53.4-23.9,53.4-53.3
					c0-29.4-23.9-53.4-53.4-53.4C173.4,68.8,149.5,92.7,149.5,122.1z M240.1,122.1c0,20.5-16.7,37.3-37.3,37.3
					c-20.5,0-37.3-16.7-37.3-37.3c0-20.5,16.7-37.3,37.3-37.3C223.4,84.9,240.1,101.6,240.1,122.1z"/>
			</g>
		</g>
	</g>
</g>
</svg>
