<svg width="60" height="60" version="1.1" id="Layer_1" xmlns="http://www.w3.org/2000/svg" xmlns:xlink="http://www.w3.org/1999/xlink" x="0px" y="0px"
	 viewBox="0 0 512 512" style="enable-background:new 0 0 512 512;" xml:space="preserve">
<style type="text/css">
	.st0{fill:#323E66;}
	.st1{fill-rule:evenodd;clip-rule:evenodd;fill:#323E66;}
	.st2{fill:#FEC961;stroke:#000000;stroke-width:0.2;}
	.st3{fill-rule:evenodd;clip-rule:evenodd;fill:#FEC961;}
	.st4{fill:#C8E8FB;stroke:#000000;stroke-width:0.2;}
	.st5{fill-rule:evenodd;clip-rule:evenodd;fill:#C8E8FB;}
	.st6{fill:#AADBFB;stroke:#000000;stroke-width:0.2;}
	.st7{fill:none;stroke:#000000;stroke-width:0.2;}
	.st8{fill:#E9E9FF;stroke:#000000;stroke-width:0.2;}
	.st9{fill:#FDC72E;stroke:#000000;stroke-width:0.2;}
	.st10{fill:#FDDB1E;stroke:#000000;stroke-width:0.2;}
	.st11{fill:#A3A3CC;stroke:#000000;stroke-width:0.2;}
	.st12{fill:#BCBEE2;stroke:#000000;stroke-width:0.2;}
	.st13{fill:#5D689E;stroke:#000000;stroke-width:0.2;}
	.st14{fill:#6A75AD;stroke:#000000;stroke-width:0.2;}
	.st15{fill-rule:evenodd;clip-rule:evenodd;}
</style>
<g id="Frame_1000004464">
	<g id="Group_1000004471">
		<path id="Vector" class="st0" d="M98.1,401.3H56.6c-11.1,0-20.2,9-20.2,20.2v52.3c0,11.1,9,20.2,20.2,20.2h41.4
			c11.1,0,20.2-9,20.2-20.2v-52.3C118.2,410.4,109.2,401.3,98.1,401.3z"/>
		<path id="Vector_2" class="st1" d="M22.9,297.7h65.2v-16.8H67.7l0-9.5c0-4.3-1.5-8.1-4.6-11.1c-3.1-3.1-6.8-4.6-11.1-4.6l-29.1,0
			c-9.8,0-17.8,8-17.8,17.8v6.4C5.1,289.7,13.1,297.7,22.9,297.7L22.9,297.7z"/>
		<path id="Vector_3" class="st1" d="M489.1,297.7h-65.2v-16.8h20.5l0-9.5c0-4.3,1.5-8.1,4.6-11.1c3.1-3.1,6.8-4.6,11.1-4.6l29.1,0
			c9.8,0,17.8,8,17.8,17.8v6.4C506.9,289.7,498.9,297.7,489.1,297.7L489.1,297.7z"/>
		<path id="Vector_4" class="st0" d="M455.4,401.3h-41.4c-11.1,0-20.2,9-20.2,20.2v52.3c0,11.1,9,20.2,20.2,20.2h41.4
			c11.1,0,20.2-9,20.2-20.2v-52.3C475.5,410.4,466.5,401.3,455.4,401.3z"/>
		<g id="Group">
			<path id="Vector_5" class="st2" d="M433,280.5l-0.2-0.4h-0.4H79.6h-0.4l-0.2,0.4l-2.4,4.1l0.6,0.4l-0.6-0.4
				c-5.8,10-13,17.1-22.9,22.9l-12.8,7.6c-12.6,7.5-19.8,20.2-19.8,34.9v84.4c0,8.5,6.9,15.4,15.4,15.4h439.1
				c8.5,0,15.4-6.9,15.4-15.4V350c0-14.7-7.2-27.3-19.8-34.9l-12.8-7.6c-9.9-5.9-17.2-13-22.9-22.9L433,280.5z"/>
			<path id="Vector_6" class="st3" d="M490.2,434.4V350c0-14.4-7.1-26.8-19.5-34.2l-12.8-7.6c-10-5.9-17.4-13.1-23.2-23.2l-2.4-4.1
				H256v168.2h219.5C483.6,449.1,490.2,442.5,490.2,434.4L490.2,434.4z"/>
			<path id="Vector_7" class="st4" d="M444.4,298.5h1.7l-1.2-1.2c-3.6-3.7-6.7-7.8-9.5-12.6l-36.7-63.5l-0.6,0.4l0.6-0.4
				c-3.2-5.5-7.8-9.6-13.4-11.9c-3.6-1.5-9.8-2.8-18-3.9c-8.2-1.1-18.4-2-30-2.8c-23.2-1.5-52-2.3-81.5-2.5h0
				c-29.5,0.2-58.3,1-81.5,2.5c-11.6,0.8-21.8,1.7-30,2.8c-8.2,1.1-14.4,2.4-18,3.9c-5.6,2.3-10.2,6.4-13.4,11.9l0,0l-36.7,63.5
				c-2.8,4.8-5.9,8.9-9.5,12.6l-1.2,1.2h1.7H444.4z"/>
			<path id="Vector_8" class="st5" d="M79.5,297.7h353.1l-34.4-59.6c-3.1-5.4-7.6-9.4-13-11.6c-14-5.8-70.2-8.8-129.1-9.1
				c-58.9,0.3-115.1,3.3-129.1,9.1c-5.4,2.3-9.9,6.2-13,11.6L79.5,297.7z"/>
			<path id="Vector_9" class="st6" d="M444.4,298.5h1.7l-1.2-1.2c-3.6-3.7-6.7-7.8-9.5-12.6l-36.7-63.5l0,0
				c-3.2-5.5-7.8-9.6-13.4-11.9c-3.6-1.5-9.8-2.8-18-3.9c-8.2-1.1-18.4-2-30-2.8c-23.2-1.5-52-2.3-81.5-2.5l-0.7,0v0.7v97v0.7h0.7
				H444.4z"/>
			<path id="Vector_10" class="st5" d="M249.6,211v80.4h176.5l-34.4-59.6c-3.1-5.4-7.6-9.4-13-11.6
				C364.7,214.3,308.5,211.3,249.6,211z"/>
			<path id="Vector_11" class="st7" d="M182.1,360.4c-0.4-2.5,0.2-4.9,1.8-7L182.1,360.4z M182.1,360.4L182.1,360.4l0.2,0.9
				l8.8,32.8c1.1,4,4.6,6.8,8.8,6.8h112.1c4.2,0,7.7-2.7,8.8-6.8l8.8-32.8c0.8-2.8,0.2-5.6-1.6-7.9c-1.8-2.3-4.3-3.6-7.2-3.6H191.1
				c-2.9,0-5.5,1.2-7.2,3.6L182.1,360.4z"/>
			<path id="Vector_12" class="st7" d="M255.3,400.1h0.7v0.7h0h0.7h55.3c4.2,0,7.7-2.7,8.8-6.8l8.8-32.8c0.8-2.8,0.2-5.6-1.6-7.9
				s-4.3-3.6-7.2-3.6H256h-0.7v0.7V400.1z"/>
			<path id="Vector_13" class="st8" d="M143.4,356L143.4,356l-79.6-12.5c0,0,0,0,0,0c-2.7-0.4-5.2,0.3-7.3,2.1h0
				c-2.1,1.8-3.2,4.2-3.2,6.9v20.7c0,4.8,3.7,8.7,8.4,9.1h0l88,6.8c2,0.2,3.8-0.6,5.1-2.1c1.3-1.5,1.7-3.4,1.2-5.4h0l-5.1-19
				C149.9,359.1,147.1,356.5,143.4,356z"/>
			<path id="Vector_14" class="st9" d="M104.7,384.1c9,0,16.4-7.4,16.4-16.4c0-9-7.4-16.4-16.4-16.4s-16.4,7.4-16.4,16.4
				C88.3,376.8,95.7,384.1,104.7,384.1z"/>
			<path id="Vector_15" class="st10" d="M107.5,351.6l-0.1,0l-0.1,0c-7.7,1.3-13.6,8-13.6,16.2c0,8.1,5.9,14.8,13.6,16.2l0.1,0
				l0.1,0c7.7-1.3,13.6-8,13.6-16.2C121.1,359.6,115.2,352.9,107.5,351.6z"/>
			<path id="Vector_16" class="st8" d="M448.3,343.4L448.3,343.4L448.3,343.4L368.6,356l0,0c-3.6,0.6-6.4,3.1-7.4,6.6l-5.1,19l0,0
				c-0.5,1.9-0.1,3.8,1.2,5.4c1.3,1.5,3.1,2.3,5.1,2.1l88-6.8h0c4.8-0.4,8.4-4.3,8.4-9.1v-20.7c0-2.8-1.1-5.1-3.2-6.9l0,0
				C453.5,343.7,451,343,448.3,343.4z"/>
			<path id="Vector_17" class="st9" d="M407.3,384.1c9,0,16.4-7.4,16.4-16.4c0-9-7.4-16.4-16.4-16.4c-9,0-16.4,7.4-16.4,16.4
				C390.9,376.8,398.3,384.1,407.3,384.1z"/>
			<path id="Vector_18" class="st10" d="M404.8,351.6l-0.1,0l-0.1,0c-7.7,1.3-13.6,8-13.6,16.2c0,8.1,5.9,14.8,13.6,16.2l0.1,0
				l0.1,0c7.7-1.3,13.6-8,13.6-16.2C418.4,359.6,412.5,352.9,404.8,351.6z"/>
			<path id="Vector_19" class="st11" d="M310.4,121l0.4-0.6l-0.6-0.4l-56-32.3l-0.2-0.1l-0.3,0.1l-10,2.1L119.1,17.8l-0.3-0.2
				l-0.3,0.2L87.2,32l-0.5,0.2l0,0.5L90,67l0,0.4l0.3,0.2l21.9,12.6l0.4,0.2l0.4-0.2l20.7-13.4l-1.3,24.6l0,0.4l0.4,0.2l10.1,5.9
				l0.4,0.2l0.4-0.2l20.7-13.4L163,109l0,0.4l0.4,0.2l51.4,29.7l3.2,9.7l0.1,0.3l0.2,0.1l56,32.3l0.6,0.4l0.4-0.6L310.4,121z"/>
			<path id="Vector_20" class="st12" d="M310.4,121l0.4-0.6l-0.6-0.4l-56-32.3l-0.2-0.1l-0.3,0.1l-10,2.1L119.1,17.8l-0.3-0.2
				l-0.3,0.2L87.2,32l-0.5,0.2l0,0.5l1.9,20l0,0.4l0.3,0.2L113,67.2l0.4,0.2l0.4-0.2l20.7-13.4l-1.3,24.6l0,0.4l0.4,0.2l10.1,5.9
				l0.4,0.2l0.4-0.2L165,71.4L163.7,96l0,0.4l0.4,0.2l51.4,29.7l3.2,9.7l0.1,0.3l0.2,0.1l61.1,35.3l0.6,0.4l0.4-0.6L310.4,121z"/>
			<path id="Vector_21" class="st13" d="M414.9,145l-89.1-51.5c-9.9-5.7-22.8-2.3-28.5,7.6l-45.6,78.9c-5.7,9.9-2.3,22.8,7.6,28.5
				l89.1,51.5c9.9,5.7,22.8,2.3,28.5-7.6l45.6-78.9C428.2,163.6,424.8,150.7,414.9,145z"/>
			<path id="Vector_22" class="st14" d="M326.5,94L326.5,94l-0.8-0.5c-9.9-5.7-22.8-2.3-28.5,7.6l-45.6,78.9v0
				c-0.5,0.8-0.9,1.7-1.3,2.6l-0.1,0.2l0.1,0.2c1.4,5.1,4.7,9.6,9.6,12.4l84.4,48.8c9.9,5.7,22.8,2.3,28.5-7.6l45.6-78.9l0,0
				c1.3-2.2,2.1-4.6,2.5-7l0.1-0.3l-0.2-0.3c-1.6-2.1-3.6-3.9-6-5.2L326.5,94z"/>
			<path id="Vector_23" class="st13" d="M394.8,165L394.8,165l-32,55.4l-0.6-0.4l0.6,0.4c-1.7,2.9-5.5,4-8.5,2.3l-21.4-12.4
				c-3-1.7-4-5.5-2.3-8.5l0,0l32-55.4l0,0c1.7-2.9,5.5-4,8.5-2.3l0,0 M394.8,165l-23.7-20.8 M394.8,165c1.7-2.9,0.7-6.8-2.3-8.5l0,0
				l-21.4-12.4 M394.8,165l-23.7-20.8"/>
			<path id="Vector_24" class="st8" d="M391.3,171.1L391.3,171.1l-32,55.4l-0.6-0.4l0.6,0.4c-1.7,2.9-5.5,4-8.5,2.3l-21.4-12.4
				c-3-1.7-4-5.5-2.3-8.5l0,0l32-55.4l0,0c1.7-2.9,5.5-4,8.5-2.3l0,0 M391.3,171.1l-23.7-20.8 M391.3,171.1c1.7-2.9,0.7-6.8-2.3-8.5
				c0,0,0,0,0,0l-21.4-12.4 M391.3,171.1l-23.7-20.8"/>
			<path id="Vector_25" class="st15" d="M332.2,210.9l32-55.4c0.1-0.1,0.2-0.2,0.3-0.2c0.1,0,0.1,0,0.2,0l21.4,12.4
				c0.1,0.1,0.2,0.3,0.1,0.5l-32,55.4c-0.1,0.2-0.3,0.2-0.5,0.1l-21.4-12.4C332.2,211.3,332.1,211.1,332.2,210.9z M327.2,220.3
				l21.4,12.4c1.7,1,3.5,1.4,5.3,1.4c3.7,0,7.2-1.9,9.2-5.3l32-55.4c2.9-5,1.2-11.5-3.9-14.4l-21.4-12.4c-2.4-1.4-5.3-1.8-8-1.1
				c-2.7,0.7-5,2.5-6.4,4.9l-32,55.4C320.4,210.9,322.2,217.3,327.2,220.3z M316.4,425.4c0,2.8-2.3,5.1-5.1,5.1H200.7
				c-2.8,0-5.1-2.3-5.1-5.1c0-2.8,2.3-5.1,5.1-5.1h110.6C314.1,420.3,316.4,422.6,316.4,425.4z M463.1,425.4c0,2.8-2.3,5.1-5.1,5.1
				h-95.4c-2.8,0-5.1-2.3-5.1-5.1c0-2.8,2.3-5.1,5.1-5.1H458C460.8,420.3,463.1,422.6,463.1,425.4z M154.6,425.4
				c0,2.8-2.3,5.1-5.1,5.1H54c-2.8,0-5.1-2.3-5.1-5.1c0-2.8,2.3-5.1,5.1-5.1h95.4C152.3,420.3,154.6,422.6,154.6,425.4z
				 M150.2,383.2L150.2,383.2l-88.1-6.8c-1.7-0.1-3-1.5-3-3.2v-20.7c0-1,0.4-1.8,1.1-2.5c0.6-0.5,1.3-0.8,2-0.8c0.2,0,0.4,0,0.6,0.1
				l79.6,12.5c1.4,0.2,2.3,1.1,2.6,2.4l5.1,19l4.9-1.3L150.2,383.2z M155.1,361.5c-1.4-5.2-5.6-9-10.9-9.9l-79.6-12.5
				c-3.9-0.6-7.8,0.5-10.9,3.1c-3.1,2.6-4.7,6.2-4.7,10.3v20.7c0,7,5.5,12.9,12.5,13.5l88,6.8c0.3,0,0.6,0,0.8,0
				c3.1,0,5.9-1.3,7.9-3.7c2.2-2.6,2.9-6,2-9.3L155.1,361.5L155.1,361.5z M324,359.8l-2.8,10.4H190.8l-2.8-10.4
				c-0.3-1.1-0.1-2,0.6-2.8c0.7-0.9,1.5-1.3,2.6-1.3h129.7c1.1,0,1.9,0.4,2.6,1.3C324.1,357.8,324.3,358.7,324,359.8z M312.1,395
				H199.9c-1.5,0-2.8-0.9-3.1-2.4l-3.3-12.1h124.9l-3.3,12.1C314.8,394.1,313.6,395,312.1,395z M320.9,345.4H191.1
				c-4.3,0-8.1,1.9-10.7,5.3c-2.6,3.4-3.4,7.6-2.3,11.7l8.8,32.8c1.6,6,6.8,10,13,10h112.2c6.2,0,11.4-4,13-10l8.8-32.8
				c1.1-4.1,0.3-8.3-2.3-11.7C329,347.3,325.2,345.4,320.9,345.4z M449.1,349.2c0.2,0,0.4-0.1,0.6-0.1c0.8,0,1.4,0.3,2,0.8
				c0.8,0.7,1.1,1.4,1.1,2.5v20.7c0,1.7-1.3,3.1-3,3.2l-88,6.8l-0.1,0l0-0.1l5.1-19c0.4-1.3,1.3-2.2,2.6-2.4L449.1,349.2
				L449.1,349.2z M447.5,339.1l-79.6,12.5c-5.3,0.8-9.5,4.6-10.9,9.8l-5.1,19c-0.9,3.3-0.1,6.7,2,9.3c2,2.4,4.9,3.7,7.9,3.7
				c0.3,0,0.5,0,0.8,0l88-6.8c7-0.5,12.5-6.4,12.5-13.5v-20.7c0-4-1.7-7.7-4.7-10.3C455.3,339.6,451.5,338.5,447.5,339.1
				L447.5,339.1z M501.8,279.9c0,7-5.7,12.7-12.7,12.7h-42.5c-1.9-2-3.6-4.2-5.2-6.6h2.9c1.3,0,2.7-0.5,3.6-1.5c1-1,1.5-2.3,1.5-3.6
				l0-9.5c0-3,1-5.4,3.1-7.5c2.1-2.1,4.5-3.1,7.5-3.1l29.1,0c7,0,12.7,5.7,12.7,12.7L501.8,279.9L501.8,279.9z M468.1,320.2
				l-12.8-7.6c-4.9-2.9-9.2-6.1-13-9.7H69.7c-3.8,3.6-8.1,6.8-13,9.7l-12.8,7.6c-10.8,6.4-17,17.3-17,29.8v84.4
				c0,5.3,4.3,9.5,9.6,9.5h439.1c5.3,0,9.5-4.3,9.5-9.5V350C485.1,337.5,478.9,326.6,468.1,320.2z M455.4,488.9h-41.4
				c-8.3,0-15.1-6.8-15.1-15.1v-19.6h71.5v19.6C470.4,482.1,463.7,488.9,455.4,488.9L455.4,488.9z M113.1,473.8
				c0,8.3-6.8,15.1-15.1,15.1H56.7c-8.3,0-15.1-6.8-15.1-15.1v-19.6h71.5V473.8z M10.2,279.9v-6.4c0-7,5.7-12.7,12.7-12.7l29.1,0h0
				c2.9,0,5.4,1,7.5,3.1c2.1,2.1,3.1,4.5,3.1,7.5v9.5c0,1.4,0.5,2.7,1.5,3.6c1,1,2.3,1.5,3.6,1.5h2.9c-1.6,2.4-3.3,4.6-5.2,6.6H22.9
				C15.9,292.6,10.2,286.9,10.2,279.9L10.2,279.9z M118.3,224.1l-36.6,63.5c-1,1.8-2.1,3.4-3.2,5.1h355.1c-1.1-1.6-2.2-3.3-3.2-5.1
				L396,228.1l-15.3,26.5c-4.7,8.1-13.2,12.6-21.9,12.6c-4.3,0-8.6-1.1-12.6-3.4l-89.1-51.5c-2.9-1.7-5.4-3.9-7.4-6.5
				c-62.1,0.5-109.4,3.9-120.8,8.7C124.4,216.5,120.9,219.6,118.3,224.1L118.3,224.1z M223,145.5l-2.7-8.1c-0.4-1.2-1.2-2.2-2.3-2.8
				l-49-28.3l1.2-22.9c0.1-1.9-0.9-3.7-2.5-4.7c-1.7-1-3.7-0.9-5.4,0.1l-19.2,12.5l-4.7-2.7l1.2-22.9c0.1-1.9-0.9-3.7-2.6-4.7
				s-3.7-0.9-5.3,0.1l-19.2,12.5l-16.9-9.7l-2.7-28l25.6-11.7l122.4,70.7c1.1,0.6,2.4,0.8,3.6,0.6l8.4-1.7l32.7,18.9l-29.9,51.8
				L223,145.5L223,145.5z M302.3,104.1L256.7,183c-2,3.5-2.5,7.5-1.5,11.4c1,3.9,3.5,7.1,7,9.1l89.1,51.5c7.2,4.1,16.4,1.7,20.5-5.5
				l45.6-78.9c4.1-7.2,1.7-16.4-5.5-20.5l-89.1-51.5c-2.4-1.4-4.9-2-7.5-2C310.1,96.6,305.1,99.3,302.3,104.1z M489.1,250.6l-29.1,0
				h0c-5.6,0-10.7,2.1-14.7,6.1c-4,4-6.1,9.1-6.1,14.7v4.3h-3.8L402.5,219c-0.2-0.3-0.4-0.7-0.6-1l24.4-42.2
				c7-12.1,2.8-27.5-9.2-34.5l-89.1-51.5c-12.1-7-27.5-2.8-34.5,9.2l-2.7,4.7l-34.4-19.9c-1.1-0.6-2.4-0.8-3.6-0.6l-8.4,1.7l-123-71
				c-1.4-0.8-3.2-0.9-4.7-0.2L85.3,28c-2,0.9-3.2,3-3,5.1l3.3,34.2c0.2,1.6,1.1,3.1,2.5,3.9L110.1,84c1.7,1,3.7,0.9,5.4-0.1
				l13.4-8.7l-0.9,16c-0.1,1.9,0.9,3.7,2.6,4.7l10.1,5.9c1.7,1,3.7,0.9,5.3-0.1l13.4-8.7l-0.9,16c-0.1,1.9,0.9,3.7,2.5,4.7l50,28.9
				l2.7,8.1c0.4,1.2,1.2,2.2,2.3,2.8l34.4,19.9l-2.7,4.7c-3.1,5.4-4.1,11.7-2.8,17.8c-31,0.4-102.3,2-120.1,9.4
				c-6.5,2.7-11.8,7.5-15.5,13.8l-32.8,56.8h-3.8v-4.3c0-5.6-2.1-10.7-6.1-14.7c-4-4-9.1-6.1-14.7-6.1h0l-29.1,0
				C10.3,250.6,0,260.9,0,273.5v6.4c0,12.6,10.3,22.9,22.9,22.9h30c-0.5,0.3-1,0.6-1.5,0.9l-12.8,7.6c-14,8.3-22,22.4-22,38.6v84.4
				c0,9.1,6.2,16.8,14.7,19.1v20.3c0,14,11.3,25.3,25.3,25.3h41.4c14,0,25.3-11.4,25.3-25.3v-19.6h265.3v19.6
				c0,14,11.3,25.3,25.3,25.3h41.4c14,0,25.3-11.4,25.3-25.3v-20.3c8.4-2.3,14.7-10,14.7-19.1V350c0-16.3-8-30.3-22-38.6l-12.8-7.6
				c-0.5-0.3-1-0.6-1.5-0.9h30c12.6,0,22.9-10.3,22.9-22.9v-6.4C512,260.9,501.7,250.6,489.1,250.6L489.1,250.6z"/>
		</g>
	</g>
</g>
</svg>
