<svg width="60" height="60" version="1.1" id="Layer_1" xmlns="http://www.w3.org/2000/svg" xmlns:xlink="http://www.w3.org/1999/xlink" x="0px" y="0px"
	 viewBox="0 0 80 80" style="enable-background:new 0 0 80 80;" xml:space="preserve">
<style type="text/css">
	.st0{fill:#FCE7EC;}
	.st1{fill:#FEC961;}
	.st2{fill:#78C750;}
</style>
<path class="st0" d="M23.4,61.3v5.5c0,1.6-1.3,3-3,3h-7.9c-1.6,0-3-1.3-3-3v-5.6"/>
<path class="st0" d="M70.4,61.2v5.6c0,1.6-1.3,3-3,3h-7.9c-1.6,0-3-1.3-3-3v-5.5"/>
<path class="st1" d="M74.1,47.1v9.7c0,2.5-2,4.4-4.4,4.4H10.4c-2.4,0-4.4-2-4.4-4.4v-9.7c0-0.5,0-0.9,0.1-1.4c0.2-1.5,1-2.9,1.9-4.1
	l3.6-4.4h56.9l3.5,4.3C73.3,43.1,74.1,45,74.1,47.1C74.1,47.1,74.1,47.1,74.1,47.1z"/>
<path class="st0" d="M68.4,37.3H11.6l5.2-15.2c0.8-2.4,3.1-4,5.6-4h35.3c2.5,0,4.8,1.6,5.6,4L68.4,37.3z"/>
<path class="st1" d="M49.7,11.8l2.8,6.3H27.5l2.8-6.3c0.6-1.2,1.8-2,3.2-2h13.2C47.9,9.8,49.2,10.6,49.7,11.8z"/>
<path class="st2" d="M71,32.6c0,1.6,3.2,1.7,4.8,1.7c1.6,0,2.9-1.3,2.9-2.9c0-1.6-1.3-2.9-2.9-2.9C74.2,28.5,71,31,71,32.6z"/>
<path class="st2" d="M9,32.6c0,1.6-3.2,1.7-4.8,1.7S1.2,33,1.2,31.4c0-1.6,1.3-2.9,2.9-2.9C5.8,28.5,9,31,9,32.6z"/>
<path class="st0" d="M22,51.2c0,2.3-1.8,4.1-4.1,4.1s-4.1-1.8-4.1-4.1c0-2.3,1.8-4.1,4.1-4.1S22,49,22,51.2z"/>
<path class="st0" d="M66.1,51.2c0,2.3-1.8,4.1-4.1,4.1c-2.3,0-4.1-1.8-4.1-4.1c0-2.3,1.8-4.1,4.1-4.1C64.3,47.2,66.1,49,66.1,51.2z"
	/>
<path d="M45.1,12.7H34.9c-0.7,0-1.2,0.6-1.2,1.3c0,0.7,0.6,1.3,1.2,1.3h10.1c0.7,0,1.2-0.6,1.2-1.3C46.3,13.2,45.8,12.7,45.1,12.7z"
	/>
<path d="M75.8,27.2c-2.3,0-6.1,3-6.1,5.4c0,0.7,0.3,1.2,0.7,1.6v0.2c0,0.7-0.5,1.3-1.1,1.4l-4.9-14.3c-1-2.9-3.7-4.9-6.8-4.9h-4.3
	l-2.5-5.5c0,0,0,0,0,0c-0.8-1.7-2.4-2.8-4.3-2.8H33.4c-1.9,0-3.5,1.1-4.3,2.8l-2.5,5.5h-4.3c-3.1,0-5.8,2-6.8,4.9l-4.9,14.3
	c-0.6-0.2-1.1-0.7-1.1-1.4v-0.3c0.4-0.4,0.6-0.9,0.6-1.6c0-2.4-3.7-5.4-6-5.4c-2.3,0-4.2,1.9-4.2,4.2c0,2.3,1.9,4.2,4.2,4.2
	c0.6,0,1.8,0,3-0.2c0.3,1.2,1.1,2.2,2.1,2.7c-1.4,1.9-3.9,3.9-4.5,7.5C4.6,46.9,4.7,47,4.7,56.8c0,2.4,1.5,4.5,3.7,5.3v4.7
	c0,2.3,1.9,4.2,4.2,4.2h7.9c2.3,0,4.2-1.9,4.2-4.2v-4.3h30.6v4.3c0,2.3,1.9,4.2,4.2,4.2h7.9c2.3,0,4.2-1.9,4.2-4.2v-4.7
	c2.2-0.8,3.7-2.9,3.7-5.3v-9.7c0,0,0-0.1,0-0.1c0-4.7-3.5-7.3-4.6-9c1-0.5,1.8-1.5,2.1-2.7c1.2,0.2,2.4,0.2,3,0.2
	c2.3,0,4.2-1.9,4.2-4.2C80,29.1,78.1,27.2,75.8,27.2z M31.4,12.3c0.4-0.8,1.1-1.3,2-1.3h13.2c0.9,0,1.7,0.5,2,1.3l2,4.5H29.4
	L31.4,12.3z M17.9,22.5c0.6-1.9,2.4-3.2,4.4-3.2c-0.1,0,5.6,0,35.3,0c2,0,3.8,1.3,4.4,3.2L66.7,36H13.3L17.9,22.5z M2.5,31.4
	c0-0.9,0.8-1.7,1.7-1.7c1.1,0,3.4,2,3.5,2.8c-0.2,0.1-0.9,0.5-3.5,0.5C3.3,33.1,2.5,32.3,2.5,31.4z M22.2,66.8
	c0,0.9-0.8,1.7-1.7,1.7h-7.9c-0.9,0-1.7-0.8-1.7-1.7v-4.3h11.3V66.8z M67.4,68.5h-7.9c-0.9,0-1.7-0.8-1.7-1.7v-4.3h11.3v4.3
	C69.1,67.8,68.4,68.5,67.4,68.5z M72.8,47v9.8c0,1.8-1.4,3.2-3.2,3.2H10.4c-1.8,0-3.2-1.4-3.2-3.2c0-10.1-0.1-9.9,0.1-10.9
	c0.4-2.8,2.5-4.3,4.9-7.4h55.7C69.9,41.4,72.8,43.3,72.8,47z M75.8,33.1c-2.7,0-3.4-0.4-3.6-0.5c0.1-0.8,2.5-2.8,3.6-2.8
	c0.9,0,1.7,0.8,1.7,1.7C77.5,32.4,76.7,33.1,75.8,33.1z"/>
<path d="M17.9,45.9c-2.9,0-5.3,2.4-5.3,5.3c0,2.9,2.4,5.3,5.3,5.3c2.9,0,5.3-2.4,5.3-5.3C23.3,48.3,20.9,45.9,17.9,45.9z M17.9,54
	c-1.6,0-2.8-1.3-2.8-2.8c0-1.6,1.3-2.8,2.8-2.8c1.6,0,2.8,1.3,2.8,2.8C20.8,52.8,19.5,54,17.9,54z"/>
<path d="M62,45.9c-2.9,0-5.3,2.4-5.3,5.3c0,2.9,2.4,5.3,5.3,5.3c2.9,0,5.3-2.4,5.3-5.3C67.4,48.3,65,45.9,62,45.9z M62,54
	c-1.6,0-2.8-1.3-2.8-2.8c0-1.6,1.3-2.8,2.8-2.8c1.6,0,2.8,1.3,2.8,2.8C64.9,52.8,63.6,54,62,54z"/>
<path d="M47.4,50H32.6c-0.7,0-1.2,0.6-1.2,1.2c0,0.7,0.6,1.2,1.2,1.2h14.9c0.7,0,1.2-0.6,1.2-1.2C48.7,50.5,48.1,50,47.4,50z"/>
</svg>
