<svg xmlns="http://www.w3.org/2000/svg" version="1.1" xmlns:xlink="http://www.w3.org/1999/xlink" xmlns:svgjs="http://svgjs.com/svgjs" width="512" height="512" x="0" y="0" viewBox="0 0 480 480" style="enable-background:new 0 0 512 512" xml:space="preserve" class=""><g><path xmlns="http://www.w3.org/2000/svg" d="m48 472v-184h-40l80-96 80 96h-40v184zm0 0" fill="#f19595" data-original="#f19595" style="" class=""></path><path xmlns="http://www.w3.org/2000/svg" d="m240 104-80 96h40v272h80v-272h40zm0 0" fill="#f17e7e" data-original="#f17e7e" style="" class=""></path><path xmlns="http://www.w3.org/2000/svg" d="m352 472v-368h-40l80-96 80 96h-40v368zm0 0" fill="#f16565" data-original="#f16565" style="" class=""></path><path xmlns="http://www.w3.org/2000/svg" d="m272 312h-11.039062c6.710937-5.863281 11.039062-14.382812 11.039062-24 0-17.671875-14.328125-32-32-32s-32 14.328125-32 32c0 9.617188 4.328125 18.136719 11.039062 24h-11.039062c-13.257812 0-24 10.742188-24 24v48l16 8v80h80v-80l16-8v-48c0-13.257812-10.742188-24-24-24zm0 0" fill="#3584be" data-original="#3584be" style=""></path><path xmlns="http://www.w3.org/2000/svg" d="m232 376h16v-27.054688l11.574219-5.785156-7.148438-14.320312-12.425781 6.214844-12.425781-6.214844-7.148438 14.320312 11.574219 5.785156zm0 0" fill="#23577e" data-original="#23577e" style=""></path><path xmlns="http://www.w3.org/2000/svg" d="m24 64h16v-24h24v-16h-24v-24h-16v24h-24v16h24zm0 0" fill="#f1d656" data-original="#f1d656" style="" class=""></path><path xmlns="http://www.w3.org/2000/svg" d="m120 80h24v24h16v-24h24v-16h-24v-24h-16v24h-24zm0 0" fill="#f1d656" data-original="#f1d656" style="" class=""></path><g xmlns="http://www.w3.org/2000/svg" fill="#d8bf4d"><path d="m8 160h16v16h-16zm0 0" fill="#d8bf4d" data-original="#d8bf4d" style=""></path><path d="m272 8h16v16h-16zm0 0" fill="#d8bf4d" data-original="#d8bf4d" style=""></path><path d="m464 464h16v16h-16zm0 0" fill="#d8bf4d" data-original="#d8bf4d" style=""></path></g></g></svg>