<?xml version="1.0" encoding="utf-8"?>
<!-- Generator: Adobe Illustrator 24.3.0, SVG Export Plug-In . SVG Version: 6.00 Build 0)  -->
<svg version="1.1" id="Layer_1" xmlns="http://www.w3.org/2000/svg" xmlns:xlink="http://www.w3.org/1999/xlink" x="0px" y="0px"
	 viewBox="0 0 519.9 306" style="enable-background:new 0 0 519.9 306;" xml:space="preserve">
<style type="text/css">
	.st0{fill:#FFFFFF;}
	.st1{fill:#4FB5FD;}
	.st2{fill:#DDDDDD;}
	.st3{fill:#0D1A38;}
	.st4{fill:#CAE8FD;}
	.st5{fill:#252D3F;}
	.st6{opacity:0.32;fill:url(#SVGID_1_);enable-background:new    ;}
	.st7{opacity:0.54;}
	.st8{fill:url(#SVGID_2_);}
	.st9{fill:url(#SVGID_3_);}
	.st10{fill:url(#SVGID_4_);}
	.st11{fill:url(#SVGID_5_);}
	.st12{fill:url(#SVGID_6_);}
	.st13{opacity:0.32;fill:url(#SVGID_7_);enable-background:new    ;}
	.st14{opacity:0.32;fill:url(#SVGID_8_);enable-background:new    ;}
	.st15{opacity:0.43;fill:url(#SVGID_9_);enable-background:new    ;}
	.st16{opacity:0.55;}
	.st17{fill:#D4EDF9;}
	.st18{fill:#5B88AA;}
	.st19{fill:url(#SVGID_10_);}
	.st20{fill:#F8A887;}
	.st21{fill:#13207C;}
	.st22{fill:#09161C;}
	.st23{fill:url(#SVGID_11_);}
	.st24{fill:url(#SVGID_12_);}
	.st25{opacity:0.35;fill:#F8A887;enable-background:new    ;}
	.st26{fill:#0C144F;}
	.st27{fill:url(#SVGID_13_);}
	.st28{fill:url(#SVGID_14_);}
	.st29{fill:url(#SVGID_15_);}
	.st30{fill:#426482;}
	.st31{fill:#4169E1;}
</style>
<polygon class="st0" points="132.3,0.8 10.7,306.8 520.7,306.8 520.7,0.8 "/>
<g>
	<g>
		<g>
			<g>
				<path class="st1" d="M146.2,240.4c-3.3,0-6.1,2.7-6.1,6.1c0,3.3,2.7,6.1,6.1,6.1c3.3,0,6.1-2.7,6.1-6.1
					C152.3,243.2,149.6,240.4,146.2,240.4z M146.2,251.1c-2.6,0-4.6-2.1-4.6-4.6c0-2.6,2.1-4.6,4.6-4.6c2.6,0,4.6,2.1,4.6,4.6
					C150.9,249.1,148.7,251.1,146.2,251.1z"/>
				<path class="st1" d="M494.2,268.7c-3.3,0-6.1,2.7-6.1,6.1s2.7,6.1,6.1,6.1c3.3,0,6.1-2.7,6.1-6.1S497.5,268.7,494.2,268.7z
					 M494.2,279.5c-2.6,0-4.6-2.1-4.6-4.6c0-2.6,2.1-4.6,4.6-4.6s4.6,2.1,4.6,4.6C498.8,277.4,496.7,279.5,494.2,279.5z"/>
				<g>
					<g>
						<rect x="325.8" y="282" class="st2" width="86.9" height="1.1"/>
					</g>
					<g>
						<rect x="481.1" y="274.9" class="st0" width="11.8" height="1.1"/>
					</g>
					<g>
						<rect x="145" y="274.9" class="st0" width="11.8" height="1.1"/>
					</g>
				</g>
				<path class="st0" d="M370.8,111.3l-0.2-0.2c1.2-1.3,4.3-1.9,5.1-2c-1-2.4-11.5-28.9-12.1-39.6h0.2c0.6,11.1,12,39.5,12.1,39.7
					l0.1,0.2h-0.2C375.9,109.4,372.1,109.9,370.8,111.3z"/>
				
					<rect x="184.5" y="85.2" transform="matrix(0.7071 -0.7071 0.7071 0.7071 -8.2338 160.3205)" class="st0" width="9.9" height="9.9"/>
				<g>
					<rect x="163.3" y="274.9" class="st2" width="309.7" height="1.1"/>
				</g>
				<path class="st0" d="M234.9,136.5c0,0-0.4-0.8-1.3-1.1l0.1-0.2c1.2,0.2,1.5,1.2,1.5,1.3H234.9z"/>
				<g>
					<rect x="171" y="289.8" class="st2" width="268.3" height="1.1"/>
				</g>
				<g>
					<path class="st1" d="M218.3,45.8c-3.3,0-6.1,2.7-6.1,6.1c0,3.3,2.7,6.1,6.1,6.1s6.1-2.7,6.1-6.1
						C224.3,48.6,221.7,45.8,218.3,45.8z M218.3,56.5c-2.6,0-4.6-2.1-4.6-4.6c0-2.6,2.1-4.6,4.6-4.6s4.6,2.1,4.6,4.6
						C222.9,54.4,220.9,56.5,218.3,56.5z"/>
					<g>
						<g>
							<path class="st0" d="M256.2,114.8c-0.5-1-1.7-1.2-2.6-0.7c-1,0.5-1.2,1.7-0.7,2.6c0.5,1,1.7,1.2,2.6,0.7
								C256.3,116.8,256.7,115.7,256.2,114.8z"/>
							<path class="st0" d="M295.5,187.1c-0.5-1-1.7-1.2-2.6-0.7c-1,0.5-1.2,1.7-0.7,2.6c0.5,1,1.7,1.2,2.6,0.7
								C295.7,189.1,296,188,295.5,187.1z"/>
						</g>
						<path class="st0" d="M183.3,248.5c-0.5-1-1.7-1.2-2.6-0.7c-1,0.5-1.2,1.7-0.7,2.6s1.7,1.2,2.6,0.7
							C183.4,250.5,183.8,249.3,183.3,248.5z"/>
					</g>
					<g id="hand_x5F_with_x5F_phone">
						<g>
							<g>
								<g>
									<path class="st3" d="M257.3,64.4L257.3,64.4c-1.3,0-2.5-1.1-2.5-2.5V48c0-1.3,1.1-2.5,2.5-2.5l0,0c1.3,0,2.5,1.1,2.5,2.5
										v13.9C259.6,63.3,258.6,64.4,257.3,64.4z"/>
									<path class="st3" d="M257.3,85.5L257.3,85.5c-1.3,0-2.5-1.1-2.5-2.5V69.1c0-1.3,1.1-2.5,2.5-2.5l0,0c1.3,0,2.5,1.1,2.5,2.5
										v14C259.6,84.5,258.6,85.5,257.3,85.5z"/>
									<path class="st3" d="M384.5,273.8H259.3c-1.1,0-1.9-0.8-1.9-1.9V22.2c0-1.1,0.8-1.9,1.9-1.9h125.2c1.1,0,1.9,0.8,1.9,1.9
										V272C386.4,273,385.5,273.8,384.5,273.8z"/>
									<path class="st4" d="M263,41.4v204.7h117.8V41.4c0-2.9-0.8-5.5-2.4-7.6H265.3C263.8,35.8,263,38.6,263,41.4z"/>
									<path class="st5" d="M351.3,33.7h-58.8c-3.6,0-6.4-2.9-6.4-6.4l0,0c0-3.6,2.9-6.4,6.4-6.4h58.8c3.6,0,6.4,2.9,6.4,6.4l0,0
										C357.7,30.8,354.9,33.7,351.3,33.7z"/>
								</g>
							</g>
						</g>
					</g>
					<g>
						<g>
							
								<linearGradient id="SVGID_1_" gradientUnits="userSpaceOnUse" x1="320.7372" y1="-862.3071" x2="320.7372" y2="-786.0117" gradientTransform="matrix(1 0 0 -1 0 -590.5605)">
								<stop  offset="0" style="stop-color:#4FB5FD"/>
								<stop  offset="1" style="stop-color:#75E1FF"/>
							</linearGradient>
							<path class="st6" d="M372.2,215.5H269.3c-0.6,0-1.1-0.5-1.1-1.1v-19c0-0.6,0.5-1.1,1.1-1.1h102.9c0.6,0,1.1,0.5,1.1,1.1v19
								C373.3,215,372.8,215.5,372.2,215.5z"/>
							<g class="st7">
								<g>
									
										<linearGradient id="SVGID_2_" gradientUnits="userSpaceOnUse" x1="281.6855" y1="-807.1258" x2="281.6855" y2="-851.4733" gradientTransform="matrix(1 0 0 -1 0 -590.5605)">
										<stop  offset="0" style="stop-color:#1E445E"/>
										<stop  offset="1" style="stop-color:#75E1FF"/>
									</linearGradient>
									<path class="st8" d="M289.5,203.7h-15.6c-0.2,0-0.5-0.2-0.5-0.5v-3.4c0-0.2,0.2-0.5,0.5-0.5h15.6c0.2,0,0.5,0.2,0.5,0.5
										v3.4C289.9,203.5,289.7,203.7,289.5,203.7z"/>
									
										<linearGradient id="SVGID_3_" gradientUnits="userSpaceOnUse" x1="330.5447" y1="-807.1258" x2="330.5447" y2="-851.4733" gradientTransform="matrix(1 0 0 -1 0 -590.5605)">
										<stop  offset="0" style="stop-color:#1E445E"/>
										<stop  offset="1" style="stop-color:#75E1FF"/>
									</linearGradient>
									<path class="st9" d="M366.5,203.7h-71.9c-0.2,0-0.5-0.2-0.5-0.5v-3.4c0-0.2,0.2-0.5,0.5-0.5h71.9c0.2,0,0.5,0.2,0.5,0.5
										v3.4C367,203.5,366.7,203.7,366.5,203.7z"/>
								</g>
								
									<linearGradient id="SVGID_4_" gradientUnits="userSpaceOnUse" x1="355.6281" y1="-814.0417" x2="355.6281" y2="-858.3892" gradientTransform="matrix(1 0 0 -1 0 -590.5605)">
									<stop  offset="0" style="stop-color:#1E445E"/>
									<stop  offset="1" style="stop-color:#75E1FF"/>
								</linearGradient>
								<path class="st10" d="M366.5,210.6h-21.8c-0.2,0-0.5-0.2-0.5-0.5v-3.4c0-0.2,0.2-0.5,0.5-0.5h21.8c0.2,0,0.5,0.2,0.5,0.5
									v3.4C367,210.4,366.7,210.6,366.5,210.6z"/>
								<g>
									
										<linearGradient id="SVGID_5_" gradientUnits="userSpaceOnUse" x1="292.3252" y1="-814.0417" x2="292.3252" y2="-858.3892" gradientTransform="matrix(1 0 0 -1 0 -590.5605)">
										<stop  offset="0" style="stop-color:#1E445E"/>
										<stop  offset="1" style="stop-color:#75E1FF"/>
									</linearGradient>
									<path class="st11" d="M310.8,210.6h-36.9c-0.2,0-0.5-0.2-0.5-0.5v-3.4c0-0.2,0.2-0.5,0.5-0.5h36.9c0.2,0,0.5,0.2,0.5,0.5
										v3.4C311.2,210.4,311,210.6,310.8,210.6z"/>
									
										<linearGradient id="SVGID_6_" gradientUnits="userSpaceOnUse" x1="327.9293" y1="-814.0417" x2="327.9293" y2="-858.3892" gradientTransform="matrix(1 0 0 -1 0 -590.5605)">
										<stop  offset="0" style="stop-color:#1E445E"/>
										<stop  offset="1" style="stop-color:#75E1FF"/>
									</linearGradient>
									<path class="st12" d="M340.8,210.6H315c-0.2,0-0.5-0.2-0.5-0.5v-3.4c0-0.2,0.2-0.5,0.5-0.5h25.8c0.2,0,0.5,0.2,0.5,0.5v3.4
										C341.3,210.4,341.1,210.6,340.8,210.6z"/>
								</g>
							</g>
						</g>
						<g>
							<ellipse class="st1" cx="371.4" cy="193.9" rx="5.3" ry="5.3"/>
							<path class="st0" d="M375.4,193c0-0.4-0.2-0.7-0.7-0.7h-0.8l0,0c0,0-0.5,0-0.8,0l0,0c-0.4,0-0.8,0-0.8,0s0.2-0.4,0.5-0.8
								c0.2-0.4,0.4-1.7-0.4-1.5c-0.6,0.1-0.5,0.7-0.6,1.2c-0.1,0.5-0.6,0.7-1.2,1.3c-0.4,0.5-0.7,0.6-1,0.6v-0.1
								c0-0.1-0.1-0.1-0.1-0.1h-1.5c-0.1,0-0.1,0.1-0.1,0.1v3.7c0,0.1,0.1,0.1,0.1,0.1h1.5c0.1,0,0.1-0.1,0.1-0.1v-0.1
								c0.1,0,0.2,0,0.4,0c0.4,0,0.6,0.1,1,0.1c0.1,0,2.3,0,2.3,0c0.4,0,0.6-0.2,0.6-0.6c0-0.1,0-0.2-0.1-0.4l0,0l0,0l0,0
								c0.4,0,0.6-0.4,0.6-0.6c0-0.1,0-0.2-0.1-0.4l0,0l0,0l0,0c0.4,0,0.6-0.4,0.6-0.7c0-0.1,0-0.2-0.1-0.4
								C375.2,193.6,375.4,193.4,375.4,193z"/>
						</g>
					</g>
					<g>
						
							<linearGradient id="SVGID_7_" gradientUnits="userSpaceOnUse" x1="265.2209" y1="-707.1163" x2="368.1698" y2="-707.1163" gradientTransform="matrix(1 0 0 -1 0 -590.5605)">
							<stop  offset="0" style="stop-color:#4FB5FD"/>
							<stop  offset="1" style="stop-color:#75E1FF"/>
						</linearGradient>
						<path class="st13" d="M366.7,130.3H266.6c-0.8,0-1.4-0.6-1.4-1.4v-24.7c0-0.8,0.6-1.4,1.4-1.4h100.1c0.8,0,1.4,0.6,1.4,1.4
							v24.7C368.2,129.8,367.6,130.3,366.7,130.3z"/>
						
							<linearGradient id="SVGID_8_" gradientUnits="userSpaceOnUse" x1="310.8213" y1="-706.8027" x2="405.6524" y2="-704.8159" gradientTransform="matrix(1 0 0 -1 0 -590.5605)">
							<stop  offset="0" style="stop-color:#4FB5FD"/>
							<stop  offset="1" style="stop-color:#75E1FF"/>
						</linearGradient>
						<path class="st14" d="M287,126.8h-16.3c-1,0-1.8-0.8-1.8-1.8v-16.2c0-1,0.8-1.8,1.8-1.8h16.4c1,0,1.8,0.8,1.8,1.8V125
							C288.8,125.9,287.9,126.8,287,126.8z"/>
						<rect x="310.6" y="106.2" class="st0" width="32.7" height="3.2"/>
						<rect x="293.9" y="113.7" class="st0" width="66.2" height="3.2"/>
						<rect x="293.9" y="121.2" class="st0" width="66.2" height="3.2"/>
					</g>
					<g>
						
							<linearGradient id="SVGID_9_" gradientUnits="userSpaceOnUse" x1="293.8157" y1="-727.9862" x2="293.8157" y2="-683.0898" gradientTransform="matrix(1 0 0 -1 0 -590.5605)">
							<stop  offset="0" style="stop-color:#CDF8FF"/>
							<stop  offset="1" style="stop-color:#A6CEFF"/>
						</linearGradient>
						<path class="st15" d="M314.7,94h-41.7c-1.3,0-2.3-1.1-2.3-2.3V44.2c0-1.3,1.1-2.3,2.3-2.3h41.7c1.3,0,2.3,1.1,2.3,2.3v47.6
							C317.1,93,316,94,314.7,94z"/>
						<g>
							<rect x="273.9" y="51.6" class="st0" width="39.8" height="6.1"/>
							<rect x="273.9" y="64.8" class="st0" width="39.8" height="6.1"/>
							<rect x="273.9" y="78" class="st0" width="39.8" height="6.1"/>
						</g>
					</g>
					<g>
						<g class="st16">
							<path class="st17" d="M270.2,189.4h93.3c1,0,1.8-0.8,1.8-1.8v-55.8c0-1-0.8-1.8-1.8-1.8h-93.3c-1,0-1.8,0.8-1.8,1.8v55.8
								C268.5,188.6,269.3,189.4,270.2,189.4z"/>
						</g>
						<g>
							<path class="st0" d="M346.3,135.7h-29.1c-1.7,0-3,1.3-3,3v7.3c0,1.7,1.3,3,3,3h3.7l2,6.2l3.7-6.2h19.7c1.7,0,3-1.3,3-3v-7.3
								C349.3,137,348,135.7,346.3,135.7z"/>
							<g>
								<g>
									<path class="st18" d="M326.2,141.2H318c-0.2,0-0.5-0.2-0.5-0.5v-0.8c0-0.2,0.2-0.5,0.5-0.5h8.2c0.2,0,0.5,0.2,0.5,0.5v0.8
										C326.8,140.9,326.6,141.2,326.2,141.2z"/>
									<path class="st18" d="M336.1,141.2h-8.2c-0.2,0-0.5-0.2-0.5-0.5v-0.8c0-0.2,0.2-0.5,0.5-0.5h8.2c0.2,0,0.5,0.2,0.5,0.5v0.8
										C336.5,140.9,336.3,141.2,336.1,141.2z"/>
									<path class="st18" d="M343.3,141.2h-5.6c-0.2,0-0.5-0.2-0.5-0.5v-0.8c0-0.2,0.2-0.5,0.5-0.5h5.6c0.2,0,0.5,0.2,0.5,0.5v0.8
										C343.9,140.9,343.7,141.2,343.3,141.2z"/>
								</g>
								<g>
									<path class="st18" d="M338.8,145.3h-13.2c-0.2,0-0.5-0.2-0.5-0.5V144c0-0.2,0.2-0.5,0.5-0.5h13.2c0.2,0,0.5,0.2,0.5,0.5
										v0.8C339.3,145.1,339,145.3,338.8,145.3z"/>
									<path class="st18" d="M343.6,145.3h-3.1c-0.2,0-0.5-0.2-0.5-0.5V144c0-0.2,0.2-0.5,0.5-0.5h3.1c0.2,0,0.5,0.2,0.5,0.5v0.8
										C344,145.1,343.8,145.3,343.6,145.3z"/>
								</g>
							</g>
						</g>
						<g>
							<path class="st0" d="M358.9,153.3h-29.1c-1.7,0-3,1.3-3,3v7.3c0,1.7,1.3,3,3,3h3.7l2,6.2l3.7-6.2h19.7c1.7,0,3-1.3,3-3v-7.3
								C361.9,154.6,360.6,153.3,358.9,153.3z"/>
							<g>
								<g>
									<path class="st18" d="M340.1,158.8h-7.7c-0.2,0-0.5-0.2-0.5-0.5v-0.8c0-0.2,0.2-0.5,0.5-0.5h7.7c0.2,0,0.5,0.2,0.5,0.5v0.8
										C340.6,158.5,340.4,158.8,340.1,158.8z"/>
									<path class="st18" d="M349.5,158.8h-7.7c-0.2,0-0.5-0.2-0.5-0.5v-0.8c0-0.2,0.2-0.5,0.5-0.5h7.7c0.2,0,0.5,0.2,0.5,0.5v0.8
										C350,158.5,349.7,158.8,349.5,158.8z"/>
									<path class="st18" d="M356.5,158.8h-5.3c-0.2,0-0.5-0.2-0.5-0.5v-0.8c0-0.2,0.2-0.5,0.5-0.5h5.3c0.2,0,0.5,0.2,0.5,0.5v0.8
										C357,158.5,356.8,158.8,356.5,158.8z"/>
								</g>
								<g>
									<path class="st18" d="M352.1,162.9h-12.6c-0.2,0-0.5-0.2-0.5-0.5v-0.8c0-0.2,0.2-0.5,0.5-0.5h12.6c0.2,0,0.5,0.2,0.5,0.5
										v0.8C352.6,162.7,352.4,162.9,352.1,162.9z"/>
									<path class="st18" d="M356.6,162.9h-3c-0.2,0-0.5-0.2-0.5-0.5v-0.8c0-0.2,0.2-0.5,0.5-0.5h3c0.2,0,0.5,0.2,0.5,0.5v0.8
										C357.1,162.7,356.9,162.9,356.6,162.9z"/>
								</g>
							</g>
						</g>
						<g>
							<path class="st0" d="M310,145.9h-29.1c-1.7,0-3,1.3-3,3v7.3c0,1.7,1.3,3,3,3h3.7l2,6.2l3.7-6.2H310c1.7,0,3-1.3,3-3v-7.3
								C313.1,147.2,311.7,145.9,310,145.9z"/>
							<g>
								<g>
									<path class="st18" d="M291,151.5h-7.8c-0.2,0-0.5-0.2-0.5-0.5v-0.8c0-0.2,0.2-0.5,0.5-0.5h7.8c0.2,0,0.5,0.2,0.5,0.5v0.8
										C291.6,151.3,291.4,151.5,291,151.5z"/>
									<path class="st18" d="M300.5,151.5h-7.8c-0.2,0-0.5-0.2-0.5-0.5v-0.8c0-0.2,0.2-0.5,0.5-0.5h7.8c0.2,0,0.5,0.2,0.5,0.5v0.8
										C301,151.3,300.9,151.5,300.5,151.5z"/>
									<path class="st18" d="M307.5,151.5h-5.3c-0.2,0-0.5-0.2-0.5-0.5v-0.8c0-0.2,0.2-0.5,0.5-0.5h5.3c0.2,0,0.5,0.2,0.5,0.5v0.8
										C308.1,151.3,307.9,151.5,307.5,151.5z"/>
								</g>
								<g>
									<path class="st18" d="M303.1,155.7h-12.7c-0.2,0-0.5-0.2-0.5-0.5v-0.8c0-0.2,0.2-0.5,0.5-0.5h12.7c0.2,0,0.5,0.2,0.5,0.5
										v0.8C303.6,155.4,303.4,155.7,303.1,155.7z"/>
									<path class="st18" d="M307.8,155.7h-3c-0.2,0-0.5-0.2-0.5-0.5v-0.8c0-0.2,0.2-0.5,0.5-0.5h3c0.2,0,0.5,0.2,0.5,0.5v0.8
										C308.3,155.4,308,155.7,307.8,155.7z"/>
								</g>
							</g>
						</g>
					</g>
					<g>
						
							<linearGradient id="SVGID_10_" gradientUnits="userSpaceOnUse" x1="-1841.0403" y1="-1869.6489" x2="-1881.7175" y2="-1822.2179" gradientTransform="matrix(-0.5083 -0.8612 0.8612 -0.5083 868.1337 -2422.751)">
							<stop  offset="0" style="stop-color:#13207C"/>
							<stop  offset="1" style="stop-color:#004EBA"/>
						</linearGradient>
						<path class="st19" d="M221.2,110.8c1,1.5,13,18.9,15.1,20.3s20.9-1.1,21.4-1.1s0-4.5-0.1-4.9c-0.1-0.4-16.9-1.4-16.9-1.4
							s-7-13.7-7.1-14.3C233.5,109.1,221.2,110.8,221.2,110.8z"/>
						<g>
							<path class="st0" d="M271.3,107.8c0.1-0.1,1.5-1.4,1.5-1.4c0,0.1-2.6-3.4-2.7-3.3c-0.1,0.1-1.8,1.7-1.7,1.9
								C268.5,105.1,271.3,107.8,271.3,107.8z"/>
							<path class="st20" d="M272.6,106.5c0.4,0,2.3-1.1,2.3-2c0-1-2.5-2.3-3-2.4c-0.5-0.1-2.1-1.3-3.3,0
								C269.7,103.1,272.6,106.5,272.6,106.5z"/>
						</g>
						<g>
							<g>
								<g>
									<path class="st0" d="M216.5,215.9l0.1,3.3c0,0-0.5,0.7-1.5,0.7s-1.3-0.5-1.4-0.7c-0.1-0.2-0.5-3.7-0.5-3.7L216.5,215.9z"/>
									<path class="st21" d="M222.9,223H217c-0.2-0.1-0.4-0.1-0.6-0.2c-0.2-0.1-1.2-0.1-1.2-0.1v0.4h-2.5c0-0.8,0.6-3.4,0.6-3.7
										c0-0.2,0.2-0.2,0.4-0.2s0.8,0.8,1.5,0.8s1.4-0.8,1.7-0.8c0.2,0,0.7,0.4,0.7,0.4s4.4,2.6,5,2.9
										C223,222.4,222.9,222.7,222.9,223z"/>
									<path class="st22" d="M212.7,223c0-0.2,0-0.6,0.1-1c0.7,0,1.9,0,2.4,0c0.6,0,1.4,0.5,2,0.5c0.4,0,3.9,0,5.7,0
										c0,0.1,0,0.2,0,0.5H217c-0.2-0.1-0.4-0.1-0.6-0.2c-0.2-0.1-1.2-0.1-1.2-0.1v0.4L212.7,223L212.7,223z"/>
								</g>
								<g>
									<path class="st0" d="M241.4,215.9l0.1,3.3c0,0-0.5,0.7-1.5,0.7s-1.3-0.5-1.4-0.7c-0.1-0.2-0.5-3.7-0.5-3.7L241.4,215.9z"/>
									<path class="st21" d="M247.9,223h-5.9c-0.2-0.1-0.4-0.1-0.6-0.2c-0.2-0.1-1.2-0.1-1.2-0.1v0.4h-2.5c0-0.8,0.6-3.4,0.6-3.7
										c0-0.2,0.2-0.2,0.4-0.2s0.8,0.8,1.5,0.8c0.7,0,1.4-0.8,1.7-0.8c0.2,0,0.7,0.4,0.7,0.4s4.4,2.6,5,2.9
										C248,222.4,247.9,222.7,247.9,223z"/>
									<path class="st22" d="M237.6,223c0-0.2,0-0.6,0.1-1c0.7,0,1.9,0,2.4,0c0.6,0,1.4,0.5,2,0.5c0.4,0,3.9,0,5.7,0
										c0,0.1,0,0.2,0,0.5h-5.9c-0.2-0.1-0.4-0.1-0.6-0.2c-0.2-0.1-1.2-0.1-1.2-0.1v0.4L237.6,223L237.6,223z"/>
								</g>
								
									<linearGradient id="SVGID_11_" gradientUnits="userSpaceOnUse" x1="-3131.2756" y1="-863.6622" x2="-3131.2756" y2="-926.0917" gradientTransform="matrix(1 0 9.600000e-02 -0.9297 3439.3152 -649.3563)">
									<stop  offset="0" style="stop-color:#13207C"/>
									<stop  offset="1" style="stop-color:#004EBA"/>
								</linearGradient>
								<path class="st23" d="M212.6,215.9l4.8,0.1c2.1-8.4,15.5-62.8,15.6-63.5c0.1-0.8-12.7-0.4-12.7-0.4s-1,4.6-2.3,9.4
									c-1.5,5.7,0.2,22.3,0.2,22.3S210.9,189,212.6,215.9z"/>
								<path class="st0" d="M217.3,216.2v-0.2l-4.6-0.1c-1.5-26.4,5.5-31.7,5.5-31.9h0.1v-0.1c0-0.1-2.3-17.6,0.4-25.2l-0.2-0.1
									c-2.6,7.5-0.6,24-0.5,25.3c-0.7,0.6-7.1,6.5-5.6,32.1v0.1L217.3,216.2z"/>
								
									<linearGradient id="SVGID_12_" gradientUnits="userSpaceOnUse" x1="-3527.1816" y1="-828.9848" x2="-3527.1816" y2="-891.4141" gradientTransform="matrix(1 0 -0.1254 -0.9483 3657.6589 -633.644)">
									<stop  offset="0" style="stop-color:#13207C"/>
									<stop  offset="1" style="stop-color:#004EBA"/>
								</linearGradient>
								<path class="st24" d="M236.7,216.1l4.8,0.1c0.1-8.7,0.6-64.1,0.5-64.8c-0.1-0.8-12.8-0.5-12.8-0.5s0.1,4.8-0.1,9.5
									c-0.2,5.8,5.6,22.8,5.6,22.8S228.7,188.6,236.7,216.1z"/>
								<path class="st0" d="M241.4,216.4v-0.5l-4.5-0.1c-7.8-26.7-2.1-32.2-2.1-32.3l0.1-0.1v-0.1c0-0.1-5.6-15.7-5.6-21.9h-0.5
									c0,5.9,5,20.2,5.6,21.9c-0.8,1-5.3,7.4,2.1,32.8v0.1L241.4,216.4z"/>
							</g>
							<g>
								<path class="st20" d="M234.8,100.5c0,0,2.4,12.2,2.4,12.8c0,0.7-8.3,0-9.7-1.9c-1.4-1.9,1.8-10.3-0.7-13.9
									c-2.5-3.7,0.4-4.4,1.4-3.7C229.2,94.6,234.8,100.5,234.8,100.5z"/>
								<path class="st25" d="M231.8,99.2c0.7,0,1.4,0.1,2,0.2c0.6,0.6,1.1,1.1,1.1,1.1s0.5,2.7,1.1,5.7
									C234.4,105.4,231.9,103.4,231.8,99.2z"/>
								<path class="st20" d="M240,91.9c0,0.4,0.7,12-0.2,13c-1.1,1-5.2-1.3-6.2-1.9c-1-0.6-1.1-5.3-1.1-5.3s-5.7,1.1-4-3.8
									s3.1-9.2,7.3-6.8C240,89.2,240,91.9,240,91.9z"/>
								<path class="st26" d="M235,94.4c1.1-1.5,5.3-2.4,5.9-2.6s2.7-8.2-1.9-8.8s-8.8,2.4-10.5,2.7c-1.7,0.4-2.4-0.5-3.1-0.4
									c-0.7,0.2-3.9,4.5-1.9,8c2,3.3,1,5.2,1.3,6.2c0.4,1,3.1,7.1,8.3-1.3C233.2,98.4,234,96.1,235,94.4z"/>
								<path class="st20" d="M231,97.9c0.2,1.2,1,2.1,1.7,2.1c0.7,0,1.1-1,1-2.1c-0.2-1.2-1-2.1-1.7-2.1
									C231.2,95.8,230.7,96.7,231,97.9z"/>
								<path class="st20" d="M235.6,105c0,0,3.4,0.4,3.6,0c0-0.2-3.4-3-3.4-3l-0.5-0.1L235.6,105z"/>
							</g>
							
								<linearGradient id="SVGID_13_" gradientUnits="userSpaceOnUse" x1="16.4452" y1="-701.8953" x2="16.4452" y2="-715.657" gradientTransform="matrix(-1 0 0 -1 247.7856 -590.5605)">
								<stop  offset="0" style="stop-color:#13207C"/>
								<stop  offset="1" style="stop-color:#004EBA"/>
							</linearGradient>
							<path class="st27" d="M224,109.4c0.1-0.4,1.4-2.9,1.8-3c0.4-0.1,9.5-0.4,10.2,0.1c0.7,0.5,2.7,2.7,2.7,2.7l-5.1,1L224,109.4z
								"/>
							<path class="st0" d="M223.6,109.7l0.1-0.2c0.1-0.2,1.4-2.9,1.9-3.1s9.7-0.4,10.5,0.1c0.7,0.5,2.6,2.6,2.7,2.7l0.2,0.4l-5.6,1
								L223.6,109.7z M235.9,106.8c-0.6-0.4-9.3-0.4-10-0.1c-0.2,0.1-1.2,1.9-1.5,2.6l9.3,0.7l4.6-0.8
								C237.6,108.5,236.3,107.2,235.9,106.8z"/>
							
								<linearGradient id="SVGID_14_" gradientUnits="userSpaceOnUse" x1="26.9816" y1="-736.5917" x2="-14.7583" y2="-687.9221" gradientTransform="matrix(-1 0 0 -1 247.7856 -590.5605)">
								<stop  offset="0" style="stop-color:#13207C"/>
								<stop  offset="1" style="stop-color:#004EBA"/>
							</linearGradient>
							<path class="st28" d="M240,109.2c0,0,1.4,24.5,1.7,29.4c0.2,5,0.8,18.1,0.4,18.2c-1.3,0.2-20.9,1.7-23.9,0.6
								c-3-1.1,1.5-14.6,3-22.2c0.6-2.9-1.3-19.7-1.2-22.8C220.2,109.3,227.2,105.9,240,109.2z"/>
							
								<linearGradient id="SVGID_15_" gradientUnits="userSpaceOnUse" x1="-366.757" y1="-1240.304" x2="-408.8736" y2="-1191.1949" gradientTransform="matrix(-0.9574 -0.2889 0.2889 -0.9573 219.3755 -1153.887)">
								<stop  offset="0" style="stop-color:#13207C"/>
								<stop  offset="1" style="stop-color:#004EBA"/>
							</linearGradient>
							<path class="st29" d="M231.6,118.7c1.8,0.5,22.3,5.1,24.8,4.8c2.5-0.4,15.7-15.9,16-16.2s-3-3.3-3.3-3.4
								c-0.4-0.2-14.4,11.3-14.4,11.3s-14.3-5.6-14.9-5.8C239.5,108.8,231.6,118.7,231.6,118.7z"/>
						</g>
						<path class="st0" d="M256.1,123.6c0.1,0,0.2,0,0.4,0c1.9-0.2,9.5-8.7,15-14.9c0.6-0.7,1.1-1.3,1.2-1.3l-0.2-0.2
							c-0.1,0-0.4,0.5-1.2,1.3c-3.1,3.6-12.7,14.5-14.7,14.9c-1.2,0.1-7.1-0.8-15.9-2.7l-0.1,0.2
							C244.5,121.7,253.6,123.6,256.1,123.6z"/>
					</g>
					<g>
						
							<rect x="255.5" y="221.9" transform="matrix(0.9437 -0.3307 0.3307 0.9437 -67.8719 98.8028)" class="st30" width="1.9" height="54"/>
						
							<rect x="220.6" y="221.9" transform="matrix(0.9437 -0.3307 0.3307 0.9437 -69.8331 87.2815)" class="st30" width="1.9" height="54"/>
						
							<rect x="184.8" y="247.9" transform="matrix(0.1079 -0.9942 0.9942 0.1079 -59.8747 430.9739)" class="st30" width="50.9" height="1.9"/>
						
							<rect x="219.5" y="248" transform="matrix(0.1079 -0.9942 0.9942 0.1079 -28.9757 465.5435)" class="st30" width="50.9" height="1.9"/>
						<polygon class="st30" points="228.7,269.9 264.5,269.9 263.2,266.2 227.4,266.2 						"/>
						<polygon class="st30" points="224.9,259.1 260.8,259.1 259.5,255.4 223.7,255.4 						"/>
						<polygon class="st30" points="221.2,248.4 257,248.4 255.7,244.7 219.9,244.7 						"/>
						<polygon class="st30" points="217.4,237.6 253.2,237.6 251.9,233.9 216.1,233.9 						"/>
						<polygon class="st30" points="214.6,228.8 250.4,228.8 248.2,223.2 212.3,223.2 						"/>
					</g>
				</g>
			</g>
		</g>
	</g>
</g>
<polygon class="st31" points="16,306.5 137.9,-0.5 121.9,-0.5 0,306.5 "/>
</svg>
