<?xml version="1.0" encoding="utf-8"?>
<!-- Generator: Adobe Illustrator 24.3.0, SVG Export Plug-In . SVG Version: 6.00 Build 0)  -->
<svg version="1.1" id="Illustration" xmlns="http://www.w3.org/2000/svg" xmlns:xlink="http://www.w3.org/1999/xlink" x="0px"
	 y="0px" viewBox="0 0 480 306" style="enable-background:new 0 0 480 306;" xml:space="preserve">
<style type="text/css">
	.st0{fill:#FFFFFF;}
	.st1{display:none;fill-rule:evenodd;clip-rule:evenodd;fill:#FFFFFF;}
	.st2{display:none;opacity:0.5;fill:#D5F0FF;enable-background:new    ;}
	.st3{opacity:0.39;fill:#9FF4FF;enable-background:new    ;}
	.st4{fill:#DFE6FF;}
	.st5{fill:#84B2FE;}
	.st6{fill:#CDEBF7;}
	.st7{fill:#2C7EFE;}
	.st8{fill:#8183F1;}
	.st9{fill:#0643A3;}
	.st10{fill:#A6E4FF;}
	.st11{fill:#DD4A71;}
	.st12{fill:#0C69EF;}
	.st13{fill:#ED648F;}
	.st14{fill:#FFCDAD;}
	.st15{fill:#F8A780;}
	.st16{fill:#30BAD1;}
	.st17{fill:#8CDFF2;}
	.st18{fill:#F69668;}
	.st19{fill:#153663;}
	.st20{fill:#060352;}
	.st21{opacity:0.53;}
	.st22{fill:#00D7FF;}
</style>
<polygon class="st0" points="16,306 137.6,0 480,0 480,306 "/>
<rect x="-760" y="-847" class="st1" width="2000" height="2000"/>
<path class="st2" d="M-452.4,512.8c19.2,29.7,207.5,255.1,359.3,257.8c136.9,2.5,181.3-195.9,325-181.2
	c107,10.9,120.7,124.9,244.7,164.4c121.9,38.9,283.1-8,364.3-95.8C1263,201.6,1040.4-478.2,684-669.9
	c-161-86.5-258.9,152.8-596.9,110c-203.3-25.7-165.4-147.5-340.5-66.7C-456.7-532.8-785.5-1.3-452.4,512.8z"/>
<g>
	<g>
		<g>
			<path class="st3" d="M168.1,128c-7.4,15.8-30.6,11.6-46.9,29.6c-16.9,18.8-17,50.6,3.5,69.6c20.8,19.4,54.7,18.2,71.2,17.5
				c27.1-1,37.1-8.5,58.6-13.1c75-16.2,117.3,39.4,165.3,20.3c26.1-10.4,43.6-38.9,38.3-58.9c-9.1-34.4-87.5-39.9-84.4-57.3
				c2.7-14.5,58.4-12.5,67.7-34.1c8.4-19.4-26.3-44.8-50.4-55.8c-11.1-5.1-43.7-20.5-70.8-9.5c-21.4,8.8-20.6,25.3-39.4,29.4
				c-22.7,5-31.7-17.3-64-19c-23.8-1.2-54,9.1-60.9,26.2C147.5,93.2,176.9,108.9,168.1,128z"/>
		</g>
		<ellipse class="st4" cx="292.4" cy="279.7" rx="156.3" ry="10.3"/>
		<g>
			<path class="st5" d="M223.9,192.4v78.7c0,3.7-3,6.7-6.7,6.7h-52.7c-3.7,0-6.7-3-6.7-6.7v-78.7c0-3.7,3-6.7,6.7-6.7h52.7
				C220.9,185.7,223.9,188.7,223.9,192.4z"/>
			<path class="st6" d="M223.9,192.4v22.9h-66.2v-22.9c0-3.7,3-6.7,6.7-6.7h52.7C220.9,185.7,223.9,188.7,223.9,192.4z"/>
			<path class="st0" d="M216.6,192.1h-51.5c-2,0-3.6,1.7-3.6,3.6v10.5c0,2,1.7,3.6,3.6,3.6h51.5c2,0,3.6-1.7,3.6-3.6v-10.5
				C220.2,193.6,218.5,192.1,216.6,192.1z"/>
			<path class="st7" d="M172.3,222.4h-6.1c-1.8,0-3.2,1.8-3.2,3.8v2.2c0,2.2,1.4,3.8,3.2,3.8h6.1c1.8,0,3.2-1.8,3.2-3.8v-2.2
				C175.5,224.2,174.1,222.4,172.3,222.4z"/>
			<path class="st7" d="M186.9,222.4h-6.1c-1.8,0-3.2,1.8-3.2,3.8v2.2c0,2.2,1.4,3.8,3.2,3.8h6.1c1.8,0,3.2-1.8,3.2-3.8v-2.2
				C190,224.2,188.6,222.4,186.9,222.4z"/>
			<path class="st7" d="M201.4,222.4h-6.1c-1.8,0-3.2,1.8-3.2,3.8v2.2c0,2.2,1.4,3.8,3.2,3.8h6.1c1.8,0,3.2-1.8,3.2-3.8v-2.2
				C204.5,224.2,203.2,222.4,201.4,222.4z"/>
			<path class="st0" d="M172.3,234.9h-6.1c-1.8,0-3.2,1.8-3.2,3.8v2.2c0,2.2,1.4,3.8,3.2,3.8h6.1c1.8,0,3.2-1.8,3.2-3.8v-2.2
				C175.5,236.7,174.1,234.9,172.3,234.9z"/>
			<path class="st0" d="M186.9,234.9h-6.1c-1.8,0-3.2,1.8-3.2,3.8v2.2c0,2.2,1.4,3.8,3.2,3.8h6.1c1.8,0,3.2-1.8,3.2-3.8v-2.2
				C190,236.7,188.6,234.9,186.9,234.9z"/>
			<path class="st0" d="M201.4,234.9h-6.1c-1.8,0-3.2,1.8-3.2,3.8v2.2c0,2.2,1.4,3.8,3.2,3.8h6.1c1.8,0,3.2-1.8,3.2-3.8v-2.2
				C204.5,236.7,203.2,234.9,201.4,234.9z"/>
			<path class="st8" d="M215.4,222.4h-6.1c-1.8,0-3.2,3.9-3.2,8.8v4.8c0,4.8,1.4,8.8,3.2,8.8h6.1c1.8,0,3.2-3.9,3.2-8.8v-4.8
				C218.6,226.3,217.2,222.4,215.4,222.4z"/>
			<path class="st0" d="M172.3,247.2h-6.1c-1.8,0-3.2,1.8-3.2,3.8v2.2c0,2.2,1.4,3.8,3.2,3.8h6.1c1.8,0,3.2-1.8,3.2-3.8V251
				C175.5,248.8,174.1,247.2,172.3,247.2z"/>
			<path class="st0" d="M186.9,247.2h-6.1c-1.8,0-3.2,1.8-3.2,3.8v2.2c0,2.2,1.4,3.8,3.2,3.8h6.1c1.8,0,3.2-1.8,3.2-3.8V251
				C190,248.8,188.6,247.2,186.9,247.2z"/>
			<path class="st0" d="M201.4,247.2h-6.1c-1.8,0-3.2,1.8-3.2,3.8v2.2c0,2.2,1.4,3.8,3.2,3.8h6.1c1.8,0,3.2-1.8,3.2-3.8V251
				C204.5,248.8,203.2,247.2,201.4,247.2z"/>
			<path class="st0" d="M172.3,259.4h-6.1c-1.8,0-3.2,1.8-3.2,3.8v2.2c0,2.2,1.4,3.8,3.2,3.8h6.1c1.8,0,3.2-1.8,3.2-3.8v-2.2
				C175.5,261.1,174.1,259.4,172.3,259.4z"/>
			<path class="st0" d="M186.9,259.4h-6.1c-1.8,0-3.2,1.8-3.2,3.8v2.2c0,2.2,1.4,3.8,3.2,3.8h6.1c1.8,0,3.2-1.8,3.2-3.8v-2.2
				C190,261.1,188.6,259.4,186.9,259.4z"/>
			<path class="st0" d="M201.4,259.4h-6.1c-1.8,0-3.2,1.8-3.2,3.8v2.2c0,2.2,1.4,3.8,3.2,3.8h6.1c1.8,0,3.2-1.8,3.2-3.8v-2.2
				C204.5,261.1,203.2,259.4,201.4,259.4z"/>
			<path class="st9" d="M215.4,247.2h-6.1c-1.8,0-3.2,1.8-3.2,3.8v2.2c0,2.2,1.4,3.8,3.2,3.8h6.1c1.8,0,3.2-1.8,3.2-3.8V251
				C218.6,248.8,217.2,247.2,215.4,247.2z"/>
			<path class="st9" d="M215.4,259.4h-6.1c-1.8,0-3.2,1.8-3.2,3.8v2.2c0,2.2,1.4,3.8,3.2,3.8h6.1c1.8,0,3.2-1.8,3.2-3.8v-2.2
				C218.6,261.1,217.2,259.4,215.4,259.4z"/>
			<g>
				<g>
					<path class="st5" d="M210.2,198.6c0-0.5,0.2-0.8,0.5-1.1s0.7-0.4,1.2-0.4s0.9,0.1,1.2,0.4c0.3,0.3,0.4,0.7,0.4,1.2v0.4
						c0,0.5-0.1,0.8-0.4,1.1c-0.3,0.3-0.7,0.4-1.2,0.4s-0.9-0.1-1.2-0.4c-0.3-0.3-0.5-0.7-0.5-1.2V198.6z M211.4,199
						c0,0.2,0,0.3,0.1,0.4c0.1,0.1,0.2,0.2,0.4,0.2c0.4,0,0.5-0.2,0.5-0.7v-0.3c0-0.2,0-0.3-0.1-0.4c-0.1-0.1-0.2-0.2-0.4-0.2
						s-0.3,0.1-0.4,0.2c-0.1,0.1-0.1,0.3-0.1,0.5V199L211.4,199z M212.2,204.3l-0.8-0.4l3.8-6.1l0.8,0.4L212.2,204.3z M213.9,202.9
						c0-0.5,0.2-0.8,0.5-1.1s0.7-0.4,1.2-0.4s0.9,0.1,1.2,0.4c0.3,0.3,0.5,0.7,0.5,1.2v0.4c0,0.5-0.1,0.8-0.4,1.1
						c-0.3,0.3-0.7,0.4-1.2,0.4s-0.9-0.1-1.2-0.4s-0.5-0.7-0.5-1.2L213.9,202.9L213.9,202.9z M215,203.3c0,0.2,0.1,0.3,0.2,0.4
						c0.1,0.1,0.2,0.2,0.4,0.2c0.3,0,0.5-0.2,0.5-0.5v-0.5c0-0.2,0-0.3-0.1-0.4c-0.1-0.1-0.2-0.2-0.4-0.2s-0.3,0.1-0.4,0.2
						c-0.1,0.1-0.2,0.2-0.2,0.4V203.3L215,203.3z"/>
				</g>
				<g>
					<path class="st5" d="M205.4,197h-2.1c-1,0-1.9,0.9-1.9,2.2v1.1c0,0.3,0.3,0.6,0.6,0.6s0.6-0.3,0.6-0.6v-1.1
						c0-0.4,0.3-0.7,0.6-0.7h2.1c0.3,0,0.6,0.3,0.6,0.7v1.1c0,0.3,0.3,0.6,0.6,0.6s0.6-0.3,0.6-0.6v-1.1
						C207.3,198.1,206.5,197,205.4,197z"/>
					<path class="st5" d="M206.7,201.6c-0.3,0-0.6,0.3-0.6,0.6v1.1c0,0.4-0.3,0.7-0.6,0.7h-2.1c-0.3,0-0.6-0.3-0.6-0.7v-1.1
						c0-0.3-0.3-0.6-0.6-0.6s-0.6,0.3-0.6,0.6v1.1c0,1.1,0.8,2.2,1.9,2.2h2.1c1,0,1.9-0.9,1.9-2.2v-1.1
						C207.3,201.9,207,201.6,206.7,201.6z"/>
				</g>
				<g>
					<path class="st5" d="M198.2,197h-2.1c-1,0-1.9,0.9-1.9,2.2v1.1c0,0.3,0.3,0.6,0.6,0.6s0.6-0.3,0.6-0.6v-1.1
						c0-0.4,0.3-0.7,0.6-0.7h2.1c0.3,0,0.6,0.3,0.6,0.7v1.1c0,0.3,0.3,0.6,0.6,0.6s0.6-0.3,0.6-0.6v-1.1
						C200.2,198.1,199.2,197,198.2,197z"/>
					<path class="st5" d="M199.5,201.6c-0.3,0-0.6,0.3-0.6,0.6v1.1c0,0.4-0.3,0.7-0.6,0.7h-2.1c-0.3,0-0.6-0.3-0.6-0.7v-1.1
						c0-0.3-0.3-0.6-0.6-0.6s-0.6,0.3-0.6,0.6v1.1c0,1.1,0.8,2.2,1.9,2.2h2.1c1,0,1.9-0.9,1.9-2.2v-1.1
						C200.2,201.9,199.9,201.6,199.5,201.6z"/>
				</g>
				<g>
					<path class="st5" d="M192.4,201.1L192.4,201.1c-0.4,0-0.7-0.3-0.7-0.7v-2.5c0-0.4,0.3-0.7,0.7-0.7l0,0c0.4,0,0.7,0.3,0.7,0.7
						v2.5C193.1,200.8,192.8,201.1,192.4,201.1z"/>
					<path class="st5" d="M192.4,205.5L192.4,205.5c-0.4,0-0.7-0.3-0.7-0.7v-2.5c0-0.4,0.3-0.7,0.7-0.7l0,0c0.4,0,0.7,0.3,0.7,0.7
						v2.5C193.1,205.2,192.8,205.5,192.4,205.5z"/>
				</g>
			</g>
		</g>
		<g>
			<path class="st0" d="M257.8,85.7c-0.9-3,0.5-6.1,3.1-7.5c-2-3.6-4.4-6.7-7.5-9.2c-2,2.3-5.3,3-7.9,1.5c-2.7-1.4-3.9-4.6-3.1-7.5
				c-3.7-1.1-7.7-1.5-11.8-1.2c0.3,3-1.5,5.9-4.5,6.7c-3,0.9-6.1-0.5-7.5-3.1c-3.6,2-6.7,4.4-9.2,7.5c2.3,2,3,5.3,1.5,7.9
				c-1.4,2.7-4.6,3.9-7.5,3.1c-1.1,3.7-1.5,7.7-1.2,11.9c3-0.3,5.9,1.5,6.7,4.5c0.9,3-0.5,6.1-3.1,7.5c2,3.6,4.4,6.7,7.5,9.2
				c2-2.3,5.3-3,7.9-1.5c2.7,1.4,3.9,4.6,3.1,7.5c3.7,1.1,7.7,1.5,11.8,1.2c-0.3-3,1.5-5.9,4.5-6.7c3-0.9,6.1,0.5,7.5,3.1
				c3.6-2,6.7-4.4,9.2-7.5c-2.3-2-3-5.3-1.5-7.9c1.4-2.7,4.6-3.9,7.5-3.1c1.1-3.7,1.5-7.7,1.2-11.8
				C261.5,90.6,258.8,88.7,257.8,85.7z M238,108.8c-8.8,2.6-17.8-2.4-20.5-11.1c-2.6-8.8,2.4-17.8,11.1-20.5
				c8.8-2.6,17.8,2.4,20.5,11.1C251.6,97.1,246.7,106.2,238,108.8z"/>
			<path class="st0" d="M205.7,71.4c0.3-2,1.9-3.3,3.7-3.5c-0.2-2.6-0.8-5-1.9-7.2c-1.7,0.8-3.8,0.3-5-1.2s-1-3.7,0.2-5.1
				c-1.9-1.7-4-2.9-6.4-3.8c-0.6,1.8-2.5,2.9-4.3,2.7c-2-0.3-3.3-1.9-3.5-3.7c-2.6,0.2-5,0.8-7.2,1.9c0.8,1.7,0.3,3.8-1.2,5
				s-3.7,1-5.1-0.2c-1.7,1.9-2.9,4-3.8,6.4c1.8,0.6,2.9,2.5,2.7,4.3c-0.3,2-1.9,3.3-3.7,3.5c0.2,2.6,0.8,5,1.9,7.2
				c1.7-0.8,3.8-0.3,5,1.2c1.1,1.5,1,3.7-0.2,5.1c1.9,1.7,4,2.9,6.4,3.8c0.6-1.8,2.5-2.9,4.3-2.7c2,0.3,3.3,1.9,3.5,3.7
				c2.6-0.2,5-0.8,7.2-1.9c-0.8-1.7-0.3-3.8,1.2-5c1.5-1.1,3.7-1,5.1,0.2c1.7-1.9,2.9-4,3.8-6.4C206.6,75.1,205.4,73.4,205.7,71.4z
				 M188.4,79.4c-5.7-0.8-9.6-6-8.8-11.7s6-9.6,11.7-8.8s9.6,6,8.8,11.7C199.2,76.2,194.1,80.3,188.4,79.4z"/>
		</g>
		<g>
			<path class="st10" d="M368.6,93.4h-0.1C368.6,93.4,368.6,93.4,368.6,93.4L368.6,93.4z"/>
			<path class="st5" d="M245,93.4h102.1h9.1h12.3c-6.8,0-12.3,5.5-12.3,12.3v7.4v152.7c0,8.5-6.8,15.3-15.3,15.3h-113V110.5
				C227.9,101,235.5,93.4,245,93.4z"/>
			<path class="st7" d="M356.2,124.7V113v-7.4c0-6.8,5.5-12.3,12.3-12.3h0.1c3.3,0,6.4,1.4,8.6,3.6c2.3,2.3,3.6,5.3,3.6,8.7v19.2
				L356.2,124.7L356.2,124.7z"/>
			<path class="st7" d="M322.6,259.1c0.5,3.4,1.7,7.4,4.2,11.2c3.4,5.1,8.6,8.7,14.8,10.6H226.4c-2.8,0-5.5-0.6-7.7-1.8
				c-4.2-2.1-7.8-5.2-10.4-8.9c-2.6-3.8-3.7-7.7-4.2-11.2L322.6,259.1L322.6,259.1z"/>
			<g>
				<g>
					<path class="st0" d="M316,149.8c8.9,0,17.8,0,26.7,0"/>
					<path class="st0" d="M342.8,151.2h-26.7c-0.8,0-1.4-0.6-1.4-1.4s0.6-1.4,1.4-1.4h26.7c0.8,0,1.4,0.6,1.4,1.4
						C344.3,150.6,343.7,151.2,342.8,151.2z"/>
				</g>
				<g>
					<path class="st0" d="M280.8,149.8c10,0,20,0,30.1,0"/>
					<path class="st0" d="M311,151.2h-30.1c-0.8,0-1.4-0.6-1.4-1.4s0.6-1.4,1.4-1.4H311c0.8,0,1.4,0.6,1.4,1.4
						C312.4,150.6,311.8,151.2,311,151.2z"/>
				</g>
				<g>
					<path class="st0" d="M280.8,142.1c20.6,0,41.3,0,61.9,0"/>
					<path class="st0" d="M342.8,143.5h-61.9c-0.8,0-1.4-0.6-1.4-1.4c0-0.8,0.6-1.4,1.4-1.4h61.9c0.8,0,1.4,0.6,1.4,1.4
						C344.3,142.9,343.7,143.5,342.8,143.5z"/>
				</g>
				<g>
					<path class="st0" d="M280.8,157.5c15.2,0,30.3,0,45.5,0"/>
					<path class="st0" d="M326.3,159h-45.5c-0.8,0-1.4-0.6-1.4-1.4c0-0.8,0.6-1.4,1.4-1.4h45.5c0.8,0,1.4,0.6,1.4,1.4
						C327.8,158.4,327.2,159,326.3,159z"/>
				</g>
			</g>
			<g>
				<g>
					<path class="st0" d="M280.8,235.2c20.6,0,41.3,0,61.9,0"/>
					<path class="st0" d="M342.8,236.7h-61.9c-0.8,0-1.4-0.6-1.4-1.4c0-0.8,0.6-1.4,1.4-1.4h61.9c0.8,0,1.4,0.6,1.4,1.4
						C344.3,236,343.7,236.7,342.8,236.7z"/>
				</g>
				<g>
					<path class="st0" d="M280.8,227.5c20.6,0,41.3,0,61.9,0"/>
					<path class="st0" d="M342.8,228.9h-61.9c-0.8,0-1.4-0.6-1.4-1.4s0.6-1.4,1.4-1.4h61.9c0.8,0,1.4,0.6,1.4,1.4
						S343.7,228.9,342.8,228.9z"/>
				</g>
				<g>
					<path class="st0" d="M280.8,243c15.2,0,30.3,0,45.5,0"/>
					<path class="st0" d="M326.3,244.4h-45.5c-0.8,0-1.4-0.6-1.4-1.4c0-0.8,0.6-1.4,1.4-1.4h45.5c0.8,0,1.4,0.6,1.4,1.4
						C327.8,243.8,327.2,244.4,326.3,244.4z"/>
				</g>
			</g>
			<g>
				<path class="st0" d="M302,193.3c13.6,0,27.2,0,40.9,0"/>
				<path class="st0" d="M342.8,194.9H302c-0.8,0-1.4-0.6-1.4-1.4s0.6-1.4,1.4-1.4h40.9c0.8,0,1.4,0.6,1.4,1.4
					C344.3,194.2,343.7,194.9,342.8,194.9z"/>
			</g>
			<g>
				<path class="st0" d="M280.8,193.3c5.1,0,10,0,15.1,0"/>
				<path class="st0" d="M295.9,194.9h-15.1c-0.8,0-1.4-0.6-1.4-1.4s0.6-1.4,1.4-1.4h15.1c0.8,0,1.4,0.6,1.4,1.4
					C297.3,194.2,296.7,194.9,295.9,194.9z"/>
			</g>
			<g>
				<path class="st0" d="M280.8,185.6c20.6,0,41.3,0,61.9,0"/>
				<path class="st0" d="M342.8,187h-61.9c-0.8,0-1.4-0.6-1.4-1.4c0-0.8,0.6-1.4,1.4-1.4h61.9c0.8,0,1.4,0.6,1.4,1.4
					C344.3,186.4,343.7,187,342.8,187z"/>
			</g>
			<g>
				<path class="st0" d="M280.8,201.1c15.2,0,30.3,0,45.5,0"/>
				<path class="st0" d="M326.3,202.6h-45.5c-0.8,0-1.4-0.6-1.4-1.4s0.6-1.4,1.4-1.4h45.5c0.8,0,1.4,0.6,1.4,1.4
					C327.8,201.9,327.2,202.6,326.3,202.6z"/>
			</g>
			<g>
				<path class="st0" d="M260.2,165h-11.7c-4,0-7.2-3.2-7.2-7.2v-9.9c0-4,3.2-7.2,7.2-7.2h11.7c4,0,7.2,3.2,7.2,7.2v9.9
					C267.4,161.7,264.2,165,260.2,165z M248.6,142.6c-2.9,0-5.3,2.4-5.3,5.3v9.9c0,2.9,2.4,5.3,5.3,5.3h11.7c2.9,0,5.3-2.4,5.3-5.3
					v-9.9c0-2.9-2.4-5.3-5.3-5.3H248.6L248.6,142.6z"/>
			</g>
			<g>
				<path class="st0" d="M260.2,208.5h-11.7c-4,0-7.2-3.2-7.2-7.2v-9.9c0-4,3.2-7.2,7.2-7.2h11.7c4,0,7.2,3.2,7.2,7.2v9.9
					C267.4,205.3,264.2,208.5,260.2,208.5z M248.6,186.1c-2.9,0-5.3,2.4-5.3,5.3v9.9c0,2.9,2.4,5.3,5.3,5.3h11.7
					c2.9,0,5.3-2.4,5.3-5.3v-9.9c0-2.9-2.4-5.3-5.3-5.3H248.6z"/>
			</g>
			<g>
				<path class="st0" d="M260.2,250.4h-11.7c-4,0-7.2-3.2-7.2-7.2v-9.9c0-4,3.2-7.2,7.2-7.2h11.7c4,0,7.2,3.2,7.2,7.2v9.9
					C267.4,247.1,264.2,250.4,260.2,250.4z M248.6,228c-2.9,0-5.3,2.4-5.3,5.3v9.9c0,2.9,2.4,5.3,5.3,5.3h11.7
					c2.9,0,5.3-2.4,5.3-5.3v-9.9c0-2.9-2.4-5.3-5.3-5.3H248.6z"/>
			</g>
			<path class="st11" d="M245.6,151.4l9.5,3.5c0.4,0.2,0.4,0.8-0.1,0.9l0,0c-0.4,0.1-0.7-0.4-0.4-0.8l13.6-14.5
				c0.4-0.4,1,0.1,0.7,0.6l-11.6,18l-0.1,0.2c-0.6,0.9-1.9,1.1-2.7,0.6c-0.1-0.1-0.2-0.1-0.3-0.2L245.6,151.4L245.6,151.4z"/>
			<path class="st11" d="M245.6,195l9.5,3.5c0.4,0.2,0.4,0.8-0.1,0.9l0,0c-0.4,0.1-0.7-0.4-0.4-0.8l13.6-14.5c0.4-0.4,1,0.1,0.7,0.6
				l-11.6,18l-0.1,0.2c-0.6,0.9-1.9,1.1-2.7,0.6c-0.1-0.1-0.2-0.1-0.3-0.2L245.6,195L245.6,195z"/>
			<path class="st11" d="M245.6,236.9l9.5,3.5c0.4,0.2,0.4,0.8-0.1,0.9l0,0c-0.4,0.1-0.7-0.4-0.4-0.8l13.6-14.5
				c0.4-0.4,1,0.1,0.7,0.6l-11.6,18l-0.1,0.2c-0.6,0.9-1.9,1.1-2.7,0.6c-0.1-0.1-0.2-0.1-0.3-0.2L245.6,236.9L245.6,236.9z"/>
			<g>
				<path class="st12" d="M266.3,120c-0.1,0-0.2-0.1-0.3-0.1c0.4-0.2,0.8-0.5,1-0.9c0.3-0.4,0.4-0.9,0.4-1.5c0-0.9-0.3-1.5-1-2.2
					c-0.7-0.5-1.8-0.8-3.2-0.8h-5.5v11.2h5.9c1.4,0,2.6-0.3,3.4-0.8c0.7-0.5,1.1-1.3,1.1-2.3c0-0.6-0.2-1.2-0.5-1.7
					C267.3,120.5,266.9,120.2,266.3,120z M262.9,116.4c0.6,0,1.1,0.1,1.4,0.3c0.3,0.2,0.5,0.5,0.5,1c0,0.4-0.2,0.8-0.5,1
					s-0.8,0.3-1.4,0.3h-2.6v-2.7L262.9,116.4L262.9,116.4z M264.9,123.4c-0.3,0.2-0.8,0.3-1.5,0.3h-3.1v-2.8h3.1
					c0.6,0,1.1,0.1,1.5,0.3c0.3,0.2,0.5,0.6,0.5,1C265.5,122.9,265.3,123.2,264.9,123.4z"/>
				<path class="st12" d="M277.6,120.7c0,1-0.2,1.9-0.6,2.3c-0.4,0.5-1,0.7-1.9,0.7s-1.4-0.2-1.9-0.7c-0.4-0.5-0.6-1.2-0.6-2.3v-6.2
					H270v6.3c0,1.7,0.4,3,1.3,3.8c0.9,0.9,2.2,1.3,3.7,1.3s2.9-0.4,3.7-1.3c0.9-0.9,1.3-2.2,1.3-3.8v-6.3h-2.6v6.2H277.6z"/>
				<path class="st12" d="M291.2,115.1c-0.9-0.5-2.1-0.7-3.2-0.7h-5.2v11.2h5.2c1.2,0,2.3-0.2,3.2-0.7c0.9-0.5,1.7-1.1,2.2-2
					c0.5-0.8,0.8-1.9,0.8-3s-0.3-2.2-0.8-3C292.8,116.3,292.1,115.5,291.2,115.1z M291,121.9c-0.3,0.5-0.7,0.9-1.3,1.2
					c-0.5,0.3-1.2,0.4-2,0.4h-2.4v-7h2.4c0.7,0,1.4,0.1,2,0.4c0.5,0.3,1,0.7,1.3,1.2s0.4,1.1,0.4,1.9S291.4,121.4,291,121.9z"/>
				<path class="st12" d="M299.1,117.5c0.3-0.3,0.7-0.6,1.1-0.7c0.4-0.2,0.9-0.3,1.4-0.3c0.6,0,1.1,0.1,1.5,0.3
					c0.5,0.2,0.9,0.5,1.3,0.9l1.7-1.5c-0.5-0.6-1.2-1.1-2.1-1.4s-1.7-0.5-2.7-0.5c-0.9,0-1.8,0.1-2.5,0.4s-1.4,0.7-2,1.2
					c-0.5,0.5-1,1.1-1.3,1.9c-0.3,0.7-0.4,1.4-0.4,2.4c0,0.8,0.1,1.7,0.4,2.4c0.3,0.7,0.7,1.3,1.2,1.9c0.5,0.5,1.2,0.9,2,1.2
					c0.7,0.3,1.5,0.4,2.5,0.4c0.8,0,1.7-0.1,2.4-0.4c0.8-0.2,1.5-0.6,2.2-1V120h-2.4v3.3c-0.2,0.1-0.3,0.2-0.5,0.2
					c-0.5,0.2-1,0.2-1.5,0.2s-1-0.1-1.4-0.3c-0.4-0.2-0.8-0.4-1.1-0.7c-0.3-0.3-0.6-0.7-0.7-1.1c-0.2-0.4-0.3-0.9-0.3-1.4
					s0.1-1,0.3-1.4C298.5,118.1,298.7,117.8,299.1,117.5z"/>
				<polygon class="st12" points="311.1,121 316.3,121 316.3,119 311.1,119 311.1,116.5 317,116.5 317,114.4 308.5,114.4 
					308.5,125.8 317.3,125.8 317.3,123.6 311.1,123.6 				"/>
				<polygon class="st12" points="318.1,114.4 318.1,116.6 321.7,116.6 321.7,125.8 324.3,125.8 324.3,116.6 327.9,116.6 
					327.9,114.4 				"/>
			</g>
		</g>
		<g>
			<path class="st13" d="M379,206.2c7.4-4.5,19-3.5,25.4,1.9c15.5,12.7,12,58.6-14.6,72.5c-19.5,10.2-49.5,2.1-55.9-14
				c-2.2-5.6-2.4-13.6,1.5-19.5c6.5-9.7,17.3-4.3,27.9-13.8C374,223.6,369,212.3,379,206.2z"/>
			<path class="st11" d="M391.4,237.8c3.2,2.7,3.2,6.4,3.1,7.7c-0.4,4.7-4.6,7.3-5.3,7.7c-3.5,2.1-7.3,1.8-11.3,1.4
				c-5.7-0.4-5.8-1.9-9.5-1.7c-6.7,0.3-9.4,5-12.3,3.7c-2.4-0.9-3.9-5.2-2.4-7.8c2.9-5.2,14.1,0,22.8-6.7c3.9-3,5.2-6.6,9.1-6.8
				C388.5,235.3,390.8,237.2,391.4,237.8z"/>
		</g>
		<g>
			<path class="st14" d="M333.2,185.9c0-0.6-0.3-1.2-1-2.4c-0.3-0.4-0.5-0.9-1-1.5c-0.5-0.5-1-0.9-1.3-1.2c-0.7-0.4-1.3-0.8-1.9-1.1
				c0,0-4.7-2.9-5.5-2.5l0,0l-0.1,0.1c-0.4,0.9,3.8,2.3,4,4.7c0.1,1.3-1,1.9-0.6,2.8c0.4,1.1,2.1,0.7,4,2.5c0.7,0.7,0.8,1.1,1.3,1.1
				C332.1,188.6,333.2,187.2,333.2,185.9z"/>
			<path class="st15" d="M375.6,195c-4,1-10.3,2.1-18,1c-13.2-1.9-21.9-9-25.3-12.2c-0.4,0.3-1.1,0.7-1.7,1.4
				c-0.9,1.2-1.1,2.5-1.1,3.1c3.7,4.4,12.5,13.5,26.3,16.7c13.1,3,28.6,0.2,29-3.5C385.1,200.5,383.8,198.4,375.6,195z"/>
			<path class="st15" d="M390.6,208.2c-0.6,7.7-2.3,8.7-2.3,16.3l0,0c0,1.3,0.1,1.3,0.2,7.3c0,0.4,0,0.8,0,1.2
				c0.1,2.5,0.1,4.5,0.1,6c-10.4-0.6-20.9-1.3-31.4-2c12-12.4,14-20.2,13.4-25.2c-0.1-1-0.8-5.8,1.1-11c1.4-3.9,3.3-5.3,4-5.8
				c3.1-2,6.3-1.3,6.8-1.2c3.7,0.8,5.6,3.6,6.1,4.4C391,201.6,390.8,205.2,390.6,208.2z"/>
			<g>
				<path class="st16" d="M373.2,230.8l-21.6-0.3c-0.8,0-1.4,0.5-1.4,1.2s0.6,1.2,1.4,1.2l21.6,0.3c0.8,0,1.4-0.5,1.4-1.2
					C374.6,231.4,373.9,230.8,373.2,230.8z"/>
				<path class="st16" d="M361.5,233.2l-22.8-0.3c-0.4,0-0.7-0.3-0.7-0.6c-1-5.7-2-11.3-3-17c-0.1-0.5,0.3-0.9,0.8-0.9l22.7,0.3
					c0.4,0,0.7,0.3,0.7,0.6l3,17C362.4,232.6,362,233.2,361.5,233.2z"/>
				<path class="st17" d="M360.4,233.2l-22.8-0.3c-0.4,0-0.7-0.3-0.7-0.6c-1-5.7-2-11.3-3-17c-0.1-0.5,0.3-0.9,0.8-0.9l22.7,0.3
					c0.4,0,0.7,0.3,0.7,0.6l3,17C361.3,232.6,360.9,233.2,360.4,233.2z"/>
				<path class="st0" d="M350.2,224.1c0,1.4-1.2,2.6-2.7,2.6c-1.4,0-2.6-1.2-2.6-2.7s1.2-2.6,2.7-2.6
					C349,221.5,350.2,222.6,350.2,224.1z"/>
			</g>
			<path class="st14" d="M370,228.9c-0.3,0.7-1.1,0.4-2.8,1.3c-0.7,0.4-1.2,0.8-1.9,1.3c-1.2,0.9-1.2,1.2-2,1.5
				c-0.3,0.1-1.2,0.5-2.4,0.4c-1.2-0.2-2.5-0.9-3-2.2c-0.8-1.8-0.1-4.1,1.2-5c1.9-1.1,3.4,1.1,7,0.3c1.3-0.3,2.2-0.8,2.9-0.3
				C370.1,226.9,370.4,228.1,370,228.9z"/>
			<path class="st18" d="M384.2,216.4c-0.6,2.6-3.1,5.7-10.4,8.3c2-1.4,6.5-4.2,8-9.6c0.9-3.3,0.5-6.4-0.2-8.9
				C383.3,209.4,385.1,213,384.2,216.4z"/>
			<path class="st19" d="M364.1,233.2c-19,0.6-27.3-2.1-31.2,3.6c-0.3,0.4-2.2,3.1-1.3,5.9c2.2,7.5,21.7,7.2,35.1,7
				c20.3-0.3,22.9-4.2,23.6-5.8c1.3-2.8,0.8-6.5-1-9C385.9,230.7,379.6,232.7,364.1,233.2z"/>
			<path class="st14" d="M360.9,250.5c-1.5,2.4-4.6,2.3-9.4,3.1c-11.6,2.1-15.9,6.8-17.1,5.4c-1.7-2.1,6.1-13.4,12.6-12.7
				c2.3,0.2,3.1,1.8,5.6,1.4c4.1-0.5,5.5-5.4,7.3-4.8C361.5,243.3,362.6,247.8,360.9,250.5z"/>
			<path class="st19" d="M383.3,245.8c-9.6,3.1-19.2,6.3-28.8,9.4c-3.5-4.3-4.7-7.5-3.7-9.7C352.7,241.4,363.6,241.5,383.3,245.8z"
				/>
			<path class="st15" d="M385,195.8c-1.7-0.2-3.8,0.4-4.8,2c-1.5,2.3-0.2,5.2,1.4,8.4c1.7,3.3,3.5,6.9,2.7,10.2
				c-0.6,2.6-3.1,5.7-10.4,8.3c-2.3,0.8-5,1.5-8.3,2.2c-0.2,0.3-0.6,1.2-0.4,2.4c0.2,1.5,1.1,2.5,1.4,2.7c5.6,0.2,10.8-0.8,15.1-2.9
				c0.8-0.4,1.5-0.7,2.3-1.1c2.2-1.2,4-2.8,5.5-4.4c0.8-0.9,1.4-1.9,2.1-2.9c0.6-1,1-2.1,1.3-3.2C395.5,208.7,390.6,196.6,385,195.8
				z"/>
			<path class="st18" d="M388.5,233.1c-0.8-0.9-1.9-1.9-3.2-2.6c-1.2-0.7-2.5-1.1-3.8-1.3c0.8-0.4,1.5-0.7,2.3-1.1
				c1.7-0.9,3.2-2.1,4.4-3.3c0,1.3,0.1,1.3,0.2,7.3C388.5,232.2,388.5,232.6,388.5,233.1z"/>
			<g>
				<path class="st14" d="M376.9,191.6c-0.5,2.2-0.3,3.9-0.1,5.1c0.2,1.3,1.3,2.5,2.7,2.6c1.4,0.1,2.8-1,3-2.5
					c0.3-1.7,0.5-3.5,0.6-5.7c0.1-2.5-0.1-4.6-0.3-6.5C381.8,185,378,187.1,376.9,191.6z"/>
				<path class="st14" d="M374.4,181.6c-1,0.8-1.4,2-1.9,3.1c-0.3,1-2.4,6.6,0.8,9.3c2.2,1.9,5.8,1.4,8-0.1c3.4-2.3,5-7.6,2.4-10.9
					C381.4,180.1,376.8,179.7,374.4,181.6z"/>
				<path class="st0" d="M373.8,192.5c0.6,0.2,1.8,0.5,3.1,0.3c1-0.1,1.8-0.4,2.4-0.7c-0.1,0.2-0.7,1.4-2.1,1.9
					C376,194.3,374.6,193.7,373.8,192.5z"/>
				<path class="st20" d="M382.7,184.9c-2.7-3.8-10-0.6-12.1-3.9c-1.1-1.9-0.3-4.8,1.4-6.6c1.7-1.7,4-2.3,6.1-1.8
					c2.6,0.6,3.8,2.8,4,3.3c0.7,1.2,0.4,1.5,1.1,2.9c1.2,2.2,2.6,2.3,3.3,3.7c1.7,3.1-1.9,8.6-3,8.4
					C382.9,190.7,384.4,187.4,382.7,184.9z"/>
			</g>
		</g>
		<g>
			<g>
				<path class="st7" d="M379.6,160.9l-2.1,5.3l-11-4.4l2.1-5.3L379.6,160.9z M376.9,164.7l1.2-3.1l-8.9-3.5l-1.2,3.1L376.9,164.7z"
					/>
			</g>
			<g>
				<path class="st7" d="M368.6,159.6c-1.1,2.9-2.9,5.5-5.1,7.7c-2.1,2.2-4.5,3.8-7.3,5.1c-2.8,1.2-5.7,1.9-8.7,1.9
					c-3.1,0.1-6.2-0.5-9.1-1.7c-2.9-1.1-5.5-2.9-7.7-5.1c-2.2-2.1-3.8-4.5-5.1-7.3c-1.2-2.8-1.9-5.7-1.9-8.7
					c-0.1-3.1,0.5-6.2,1.7-9.1s2.9-5.5,5.1-7.7c2.1-2.2,4.5-3.8,7.3-5.1c2.8-1.2,5.7-1.9,8.7-1.9c3.1-0.1,6.2,0.5,9.1,1.7
					c2.9,1.1,5.5,2.9,7.7,5.1c2.2,2.1,3.8,4.5,5.1,7.3c1.2,2.8,1.9,5.7,1.9,8.7C370.3,153.6,369.8,156.7,368.6,159.6z M326.5,142.9
					c-4.5,11.3,1,24.1,12.4,28.7c11.3,4.5,24.1-1,28.7-12.3c4.5-11.3-1-24.1-12.3-28.7C343.9,126.1,331,131.5,326.5,142.9z
					 M365.6,158.5c-2,5-5.8,8.9-10.7,11c-5,2.2-10.4,2.2-15.4,0.2s-8.9-5.8-11-10.7c-2.2-5-2.2-10.4-0.2-15.4s5.8-8.9,10.7-11
					c5-2.2,10.4-2.2,15.4-0.2s8.9,5.8,11,10.7S367.6,153.5,365.6,158.5z M329.5,144c-3.8,9.7,0.9,20.6,10.5,24.6
					c9.7,3.8,20.6-0.9,24.6-10.5c3.8-9.7-0.9-20.6-10.5-24.6C344.3,129.6,333.3,134.3,329.5,144z"/>
			</g>
			<g class="st21">
				<path class="st7" d="M365.6,158.5c-2,5-5.8,8.9-10.7,11c-5,2.2-10.4,2.2-15.4,0.2s-8.9-5.8-11-10.7c-2.2-5-2.2-10.4-0.2-15.4
					s5.8-8.9,10.7-11c5-2.2,10.4-2.2,15.4-0.2s8.9,5.8,11,10.7S367.6,153.5,365.6,158.5z M329.5,144c-3.8,9.7,0.9,20.6,10.5,24.6
					c9.7,3.8,20.6-0.9,24.6-10.5c3.8-9.7-0.9-20.6-10.5-24.6C344.3,129.6,333.3,134.3,329.5,144z"/>
			</g>
			<g>
				<path class="st7" d="M417.6,178.9c0,0.1-0.1,0.1-0.1,0.2c-0.7,2-2.1,3.3-3.7,3.6c-0.6,0.1-1.3,0.1-2-0.1l0,0l0,0
					c-11.8-5.3-23.4-10.6-35.2-15.9l-0.5-0.2l2.6-6.5l0.5,0.2c12.1,4.2,24.2,8.4,36.3,12.6l0.2,0.1l0,0c0.6,0.3,1.1,0.7,1.5,1.2
					C418.3,175.3,418.4,177.1,417.6,178.9z M416.5,178.7L416.5,178.7c0.6-1.5,0.6-3-0.1-4c-0.3-0.4-0.6-0.6-1-0.9h-0.1
					c-12-4.1-23.8-8.3-35.8-12.4l-1.8,4.4c11.6,5.3,23.1,10.4,34.7,15.7c0.5,0.1,0.9,0.2,1.3,0.1
					C414.8,181.3,415.9,180.2,416.5,178.7L416.5,178.7z"/>
			</g>
			<g>
				<path class="st7" d="M359.2,140.1c0,0.1-0.1,0.1-0.1,0.1c-0.2,0.2-0.4,0.1-0.6,0c-1.5-1.7-3.5-3-5.7-3.8
					c-0.4-0.2-0.8-0.3-1.2-0.4c-0.2-0.1-0.3-0.3-0.3-0.5c0.1-0.2,0.3-0.3,0.5-0.3c0.4,0.1,0.8,0.3,1.2,0.4c2.3,0.9,4.3,2.3,6,4
					C359.2,139.8,359.2,140,359.2,140.1z"/>
			</g>
			<g>
				<path class="st7" d="M348.4,135c-0.1,0.2-0.2,0.3-0.4,0.3c-4.5-0.3-9,1.4-12.2,4.6c-0.2,0.2-0.4,0.2-0.6,0s-0.2-0.4,0-0.6
					c3.4-3.4,8-5.2,12.8-4.8c0.2,0,0.4,0.2,0.4,0.4C348.4,134.9,348.4,135,348.4,135z"/>
			</g>
		</g>
		<g>
			<ellipse class="st5" cx="190.8" cy="153.5" rx="22.7" ry="22.7"/>
			<ellipse class="st7" cx="190.8" cy="153.5" rx="20.1" ry="20.1"/>
			<ellipse class="st4" cx="190.8" cy="153.5" rx="18.9" ry="18.9"/>
			<path id="XMLID_00000118370622903765240480000018093170694852252586_" class="st7" d="M200.2,159c0.1,1.3-0.1,2.5-0.5,3.6
				c-0.4,1-1,2-2,2.7c-0.8,0.7-1.9,1.3-3.1,1.8c-0.4,0.1-0.9,0.3-1.3,0.4v0.9c0,0.7-0.5,1.2-1.1,1.3h-0.9c-0.6,0-1.2-0.5-1.3-1.2
				v-0.7c-0.6,0-1.3,0-2-0.1c-0.8-0.1-1.5-0.2-2.3-0.4c-0.6-0.2-1.2-0.4-1.7-0.6c-0.5-0.2-0.8-0.4-1-0.6s-0.4-0.4-0.5-0.8
				c-0.1-0.3-0.2-0.8-0.2-1.3c0-0.4,0-0.7,0-0.9c0-0.3,0.1-0.4,0.1-0.6c0-0.2,0.1-0.3,0.2-0.3c0.1-0.1,0.2-0.1,0.3-0.1
				c0.2,0,0.5,0.1,0.9,0.3s0.9,0.5,1.5,0.8c0.6,0.2,1.3,0.5,2.2,0.7c0.8,0.2,1.8,0.3,2.9,0.2c0.8,0,1.5-0.2,2.2-0.4
				c0.6-0.2,1.2-0.4,1.7-0.8c0.5-0.4,0.8-0.8,1-1.3s0.3-1.1,0.3-1.9s-0.2-1.3-0.6-1.8c-0.4-0.5-0.9-0.8-1.5-1.2
				c-0.6-0.3-1.3-0.6-2.2-0.9c-0.7-0.3-1.5-0.5-2.4-0.8s-1.7-0.6-2.5-0.9c-0.8-0.4-1.5-0.8-2.2-1.4c-0.6-0.6-1.1-1.2-1.5-2.1
				c-0.4-0.8-0.6-1.8-0.7-2.9c-0.1-1,0.1-2,0.4-3c0.3-0.9,0.9-1.8,1.7-2.5c0.7-0.7,1.8-1.3,2.9-1.9c0.4-0.2,0.9-0.3,1.4-0.5
				l-0.1-1.2c0-0.7,0.5-1.2,1.1-1.3h0.9c0.6,0,1.2,0.5,1.3,1.1v1c0.4,0,0.8,0,1.3,0.1c0.7,0.1,1.3,0.2,1.9,0.4
				c0.5,0.1,1,0.3,1.4,0.5s0.7,0.4,0.9,0.5s0.3,0.3,0.4,0.4c0.1,0.1,0.1,0.2,0.2,0.4c0,0.1,0.1,0.3,0.1,0.5s0.1,0.4,0.1,0.7
				s0,0.6,0,0.8s-0.1,0.4-0.1,0.6c-0.1,0.2-0.1,0.3-0.2,0.3c-0.1,0.1-0.2,0.1-0.3,0.1c-0.2,0-0.4-0.1-0.7-0.3s-0.7-0.4-1.3-0.6
				c-0.5-0.2-1.1-0.4-1.9-0.5c-0.7-0.2-1.5-0.3-2.4-0.2c-0.8,0-1.5,0.2-2.2,0.4c-0.6,0.2-1.1,0.5-1.4,0.8c-0.4,0.3-0.7,0.7-0.8,1.2
				c-0.2,0.5-0.3,0.9-0.2,1.5c0,0.7,0.3,1.3,0.6,1.9c0.4,0.5,0.9,0.9,1.5,1.2s1.3,0.6,2.2,0.9c0.8,0.3,1.7,0.5,2.5,0.8
				s1.7,0.6,2.5,0.9c0.8,0.3,1.5,0.8,2.2,1.3c0.6,0.5,1.1,1.2,1.5,2C200,156.9,200.2,157.9,200.2,159L200.2,159z"/>
			<path class="st0" d="M183.2,139.7c-5.6,0.3-5.8,0.6-6.2,6.2c-0.3-5.6-0.6-5.8-6.2-6.2c5.6-0.3,5.8-0.6,6.2-6.2
				C177.4,139.1,177.7,139.4,183.2,139.7z"/>
		</g>
		<g>
			<path class="st5" d="M441.5,76.1c0,13.2-10.7,23.9-23.9,23.9s-23.9-10.7-23.9-23.9c0-12.8,10-23.3,22.7-23.9
				c0.4,7.9,0.8,16,1.3,23.9l21-11.5C440.3,68.2,441.5,72,441.5,76.1z"/>
			<path class="st7" d="M442.8,57.8l-21,11.5c-0.4-7.9-0.8-16-1.3-23.9c0.4,0,0.8,0,1.3,0C430.8,45.2,438.8,50.2,442.8,57.8z"/>
		</g>
	</g>
</g>
<polygon class="st22" points="16,306 137.6,0 121.6,0 0,306 "/>
</svg>
