<?xml version="1.0" encoding="utf-8"?>
<!-- Generator: Adobe Illustrator 15.1.0, SVG Export Plug-In . SVG Version: 6.00 Build 0)  -->
<!DOCTYPE svg PUBLIC "-//W3C//DTD SVG 1.1//EN" "http://www.w3.org/Graphics/SVG/1.1/DTD/svg11.dtd">
<svg version="1.1" id="Layer_1" xmlns="http://www.w3.org/2000/svg" xmlns:xlink="http://www.w3.org/1999/xlink" x="0px" y="0px"
	 width="400px" height="200px" viewBox="0 0 400 200" enable-background="new 0 0 400 200" xml:space="preserve">
<g id="Page-1">
	<g id="Group-32" transform="translate(-417.000000, -98.000000)">
		<g id="Group-31" transform="translate(417.000000, 98.000000)">
			<path id="Shape" fill="#F5A623" d="M70.342,95.107c8.419-6.954,25.734-31.81-1.324-27.431
				c-11.784,1.803-29.102,13.264-32.589,26.4c-1.819-3.512-3.827-6.909-6.013-10.173c-3.246-4.509-6.974-1.031-3.367,3.605
				c10.222,13.264,17.317,29.235,17.317,45.33c0.842-7.984-0.481-17.771-3.607-27.304c1.562,0.519,3.246,0.774,4.81,0.774
				c5.532,9.014,13.949,16.74,23.449,20.347c8.659,3.479,20.204,1.416,15.514-12.49C82.007,106.567,76.114,99.872,70.342,95.107z
				 M71.545,70.896c15.032-1.673-1.083,17-6.373,20.478c-4.932-3.221-11.064-6.051-17.078-5.28
				C52.423,80.555,62.887,71.927,71.545,70.896z M47.974,90.212c4.087-0.386,8.538,1.932,11.905,4.249
				c-3.248,1.674-6.855,2.704-10.583,2.962C43.765,97.426,42.682,90.728,47.974,90.212z M68.778,119.317
				c-7.095-2.06-13.708-7.728-18.52-13.522c3.968-0.773,7.817-2.317,11.423-4.508c1.323-0.643,2.646-1.543,3.848-2.444
				c4.209,3.863,8.539,9.012,10.222,14.809C77.438,119.961,72.867,120.477,68.778,119.317z"/>
			<g id="flutterwave" transform="translate(296.324896, 38.912798)">
				<path id="Shape_1_" d="M-168.387,40.453h-20.582c-0.682,0-1.227,0.582-1.227,1.312h-0.137v32.208
					c0,0.728,0.545,1.311,1.228,1.311c0.682,0,1.227-0.583,1.363-1.311V59.4h17.447c0.683,0,1.091-0.585,1.091-1.167
					c0-0.729-0.545-1.165-1.091-1.165h-17.584V42.933h19.492c0.683,0,1.092-0.584,1.092-1.167
					C-167.295,41.379-167.658,40.939-168.387,40.453z M-158.98,38.705h-0.135c-0.547,0-0.954,0.582-0.954,1.167V73.83
					c0,0.729,0.545,1.164,1.089,1.164c0.683,0,1.091-0.585,1.091-1.164V40.017C-157.889,39.286-158.299,38.705-158.98,38.705z
					 M-129.265,50.948c0-0.727-0.544-1.166-1.091-1.166c-0.682,0-1.091,0.583-1.091,1.166v14.135c0,4.81-3.681,8.599-8.178,8.454
					c-4.772,0-7.497-3.35-7.497-8.599v-13.99c0-0.727-0.544-1.166-1.091-1.166c-0.544,0-1.09,0.583-1.09,1.166v14.429
					c0,5.974,3.543,10.346,9.404,10.346c3.546,0.147,6.953-1.894,8.587-5.246v3.645c0,0.729,0.546,1.166,1.09,1.166
					c0.682,0,1.091-0.583,1.091-1.166h-0.136L-129.265,50.948L-129.265,50.948z M-109.635,52.114c0.544,0,1.09-0.436,1.09-1.019
					c0-0.585-0.545-1.168-1.09-1.168h-7.499v-6.993c0-0.584-0.544-1.167-1.091-1.167h-0.135c-0.544,0-0.954,0.583-0.954,1.167v6.993
					h-2.591c-0.545,0-1.09,0.438-1.09,1.021c0,0.584,0.544,1.165,1.09,1.165h2.591v16.47c0,4.661,2.998,6.85,6.543,6.85
					c1.09,0,2.317-0.146,3.407-0.587c0.41-0.145,0.682-0.583,0.682-1.019c0-0.583-0.407-1.018-0.953-1.018
					c-0.819,0.29-1.771,0.438-2.727,0.438c-2.862,0-4.771-1.313-4.771-4.957V52.114H-109.635L-109.635,52.114z M-91.096,52.114
					c0.547,0,1.093-0.436,1.093-1.019c0-0.585-0.546-1.168-1.093-1.168h-7.499v-6.993c0-0.584-0.545-1.167-1.091-1.167h-0.136
					c-0.543,0-0.955,0.583-0.955,1.167v6.993h-2.59c-0.544,0-1.091,0.438-1.091,1.021c0,0.584,0.547,1.165,1.091,1.165h2.59v16.47
					c0,4.661,2.999,6.85,6.542,6.85c1.092,0,2.317-0.146,3.409-0.587c0.407-0.145,0.683-0.583,0.683-1.019
					c0-0.583-0.406-1.018-0.953-1.018c-0.819,0.29-1.774,0.438-2.727,0.438c-2.863,0-4.772-1.313-4.772-4.957V52.114H-91.096
					L-91.096,52.114z M-74.739,49.199c-6.406,0-11.179,5.831-11.179,13.26v0.146c0,8.017,5.317,13.261,11.588,13.261
					c3.407,0.146,6.816-1.311,9.131-4.082c0.273-0.287,0.409-0.581,0.409-0.873c0-0.583-0.547-1.166-1.091-1.166
					c-0.274,0-0.547,0.146-0.683,0.291c-1.908,2.186-4.77,3.497-7.633,3.497c-4.635,0-8.862-3.642-9.27-9.908h18.539
					c0.544,0,1.092-0.583,1.092-1.166C-63.835,55.03-68.059,49.199-74.739,49.199z M-83.6,61.295
					c0.41-5.538,4.088-9.765,8.725-9.765c5.314,0,8.179,4.664,8.451,9.765H-83.6z M-45.569,49.636
					c-4.226,0.293-7.904,3.352-9.406,7.58v-6.121c0-0.584-0.545-1.166-1.092-1.166c-0.679,0-1.09,0.437-1.226,1.166v23.317
					c0,0.583,0.547,1.166,1.094,1.166c0.678,0,1.09-0.436,1.224-1.166v-9.327c0-8.16,4.364-12.096,9.406-12.678h0.134
					c0.681,0,1.092-0.729,1.092-1.312C-44.343,50.221-44.887,49.636-45.569,49.636z"/>
				<path id="wave" stroke="#000000" stroke-width="0.75" d="M-5.322,48.292c-1.64,0-3.004,1.165-3.416,2.906l-3.957,13.516
					l-3.961-13.516c-0.41-1.741-1.911-3.052-3.686-3.052h-0.409c-1.775,0-3.278,1.164-3.688,3.052l-3.961,13.372l-3.822-13.516
					c-0.41-1.597-1.773-2.907-3.411-2.907h-0.138c-1.773,0-3.14,1.6-3.14,3.489c0,0.581,0.136,1.162,0.273,1.743l6.142,18.748
					c0.41,1.888,1.912,3.197,3.824,3.343h0.274c1.775,0,3.275-1.311,3.822-3.198l3.962-13.369l3.959,13.369
					c0.407,1.89,2.046,3.198,3.822,3.198h0.272c1.911,0,3.552-1.311,3.959-3.343l6.144-18.893c0.137-0.436,0.275-1.018,0.275-1.455
					v-0.143C-2.182,49.746-3.547,48.292-5.322,48.292z M12.152,48.292C9.42,48.146,6.828,48.729,4.234,49.6
					C3.14,50.037,2.46,51.198,2.46,52.508c0,1.744,1.364,3.053,3.002,2.906c0.275,0,0.686,0,0.955-0.147
					c1.641-0.581,3.277-0.725,4.914-0.725c3.552,0,5.325,1.597,5.325,4.796v0.436c-1.91-0.726-3.958-1.017-6.005-1.017
					c-5.873,0-9.969,2.762-9.969,8.575c0,5.229,3.961,8.137,8.465,8.137c2.868,0.147,5.599-1.163,7.509-3.343
					c0.139,1.888,1.638,3.198,3.413,3.198c1.913,0,3.413-1.6,3.413-3.634V59.774c0.138-3.052-0.818-6.104-2.731-8.43
					C18.706,49.454,15.972,48.292,12.152,48.292z M16.796,65.586c0,2.907-2.323,4.651-5.601,4.505c-2.183,0-3.823-1.164-3.823-3.196
					v-0.146c0-2.18,1.913-3.633,4.914-3.633c1.504,0,3.142,0.437,4.509,1.018L16.796,65.586L16.796,65.586z M47.786,48.146
					c-1.504,0-2.867,1.018-3.279,2.616l-5.46,15.404l-5.324-15.259c-0.409-1.597-1.772-2.761-3.414-2.761
					c-1.774,0-3.275,1.454-3.411,3.489c0,0.581,0.136,1.162,0.408,1.744l7.644,18.747c0.548,1.891,2.047,3.198,3.96,3.343h0.412
					c1.772-0.144,3.412-1.308,4.094-3.196l7.372-18.748c0.272-0.581,0.409-1.161,0.409-1.744v-0.143
					C51.197,49.746,49.697,48.146,47.786,48.146z M66.214,48c-7.234,0-12.285,6.248-12.285,13.808v1.162
					c0.271,7.265,6.143,12.933,12.97,12.497c3.141,0,6.145-1.016,8.602-3.196c0.684-0.582,0.957-1.31,0.957-2.181v-0.146
					c0-1.599-1.23-2.904-2.732-2.904c-0.547,0-1.23,0.145-1.64,0.581c-1.502,1.161-3.274,1.889-5.05,1.744
					c-3.004,0.145-5.598-2.033-6.007-5.231H75.09c1.773-0.146,3.139-1.745,3.004-3.633v-0.583
					C78.093,53.378,72.768,47.857,66.214,48z M60.89,59.774c0.55-3.488,2.46-5.668,5.324-5.668c2.868,0,4.779,2.326,5.189,5.668
					H60.89z"/>
			</g>
		</g>
	</g>
</g>
</svg>
