<?xml version="1.0" encoding="utf-8"?>
<!-- Generator: Adobe Illustrator 24.3.0, SVG Export Plug-In . SVG Version: 6.00 Build 0)  -->
<svg version="1.1" id="beautician" xmlns="http://www.w3.org/2000/svg" xmlns:xlink="http://www.w3.org/1999/xlink" x="0px" y="0px"
	 viewBox="0 0 52 52" style="enable-background:new 0 0 52 52;" xml:space="preserve">
<style type="text/css">
	.st0{fill:#FEACA4;}
	.st1{opacity:0.5;fill:#FFDEDC;enable-background:new    ;}
	.st2{fill:#D68751;}
	.st3{opacity:0.4;fill:#72492D;enable-background:new    ;}
	.st4{fill:#9387A2;}
	.st5{opacity:0.5;fill:#5F5968;enable-background:new    ;}
	.st6{fill:#FFFFFF;}
	.st7{fill:#FC785E;}
	.st8{opacity:0.5;fill:#A54B3F;enable-background:new    ;}
	.st9{opacity:0.3;fill:#E5D0C3;enable-background:new    ;}
	.st10{fill:#E1EBF4;}
	.st11{fill:#2D4356;}
	.st12{opacity:0.2;fill:#F9DBD7;enable-background:new    ;}
	.st13{opacity:0.2;fill:#676868;enable-background:new    ;}
	.st14{opacity:0.5;fill:#AA7371;enable-background:new    ;}
	.st15{opacity:0.5;fill:#9FA5AA;enable-background:new    ;}
</style>
<g>
	<path class="st0" d="M40.1,30l-0.6,3l0,0.2v11.9h-6.8V32.9l0-0.2L32.1,30h1.6v0.8c0,0.4,0.4,0.8,0.8,0.8s0.8-0.4,0.8-0.8V30h1.6
		v0.8c0,0.4,0.4,0.8,0.8,0.8s0.8-0.4,0.8-0.8V30L40.1,30L40.1,30z"/>
	<path class="st1" d="M40.1,30l-0.3,1.6h-7.4L32.1,30H40.1z"/>
	<path class="st2" d="M48.5,26.3l-1,1.7h-0.7l-1.1-1.8C46.7,25.9,47.6,25.9,48.5,26.3z"/>
	<path class="st3" d="M45.6,27.2h3.1L47.9,28h-1.4C46.6,28,45.6,27.2,45.6,27.2z"/>
	<path class="st2" d="M49.8,23.9l-0.6,1c-1.6-0.8-3.4-0.4-4.3-0.1l-0.5-0.9c0.9-0.4,1.8-0.7,2.8-0.7C48.1,23.2,49,23.4,49.8,23.9z"
		/>
	<path class="st3" d="M49.3,24l0.4,0.2l-0.4,0.6c-1.6-0.8-3.4-0.4-4.3-0.1l-0.9,0c0.1-0.1,0.1-0.4,0.2-0.5l0.7-0.3
		C45.9,23.6,47.6,23.2,49.3,24z"/>
	<path class="st4" d="M39.4,46.7L38.7,50l-0.1,0.2c0,0.1,0,0.1-0.1,0.2h-5c0-0.1,0-0.1-0.1-0.2L33.5,50l-0.7-3.3H39.4z"/>
	<path class="st5" d="M40.3,46.7L39.5,50l-0.1,0.2c0,0.1-0.1,0.1-0.1,0.2h-6.5c0-0.1-0.1-0.1-0.1-0.2L32.7,50l-0.9-3.3h0.4l0.5,1.7
		l0.1,0.2c0,0.1,0.1,0.1,0.1,0.2h6.5c0-0.1,0.1-0.1,0.1-0.2l0.1-0.2l0.5-1.7H40.3z"/>
	<path class="st6" d="M29.5,33.3l-0.6-2.9c0-0.1,0-0.1,0-0.2c-0.1-0.9,0.2-1.7,0.8-2.4c0.2-0.2,0.4-0.4,0.6-0.5
		c-0.8-0.9-1.3-1.9-1.6-3c0,0-2.1,2.5-5.3,2.5s-6.3-2-6.3-2s-2.6,5.2-5.8,4.6l9.7,21.6h3.7l4.9-10.3L29.5,33.3L29.5,33.3z"/>
	<path class="st7" d="M30.3,50.4H24c0-0.6,0.1-1.1,0.1-1.6c0.6-6.2,3.7-9.9,5.4-11.4v9.1c0,0.1,0,0.2,0,0.3l0.4,2L30.3,50.4z
		 M22,50.4H4.4c-1,0-1.9-0.8-2-1.8c-0.5-4.8-0.7-8.9-0.7-9.6c0.5-7,10.2-8.7,10.3-8.7h0l0,0c0.6-0.1,1.1-0.3,1.7-0.5l-4.2,6.1
		c-0.8,1.2-0.7,1.9,0.2,1.9c0.4,0,0.8-0.1,1.1-0.2c1.5-0.5,2.9-0.9,4.5-1.1c0.1,0,0.1,0,0.2,0C16,36.8,21.7,41.1,22,50.4z"/>
	<path class="st8" d="M30.3,50.4H1.9v-1.6h28C29.9,48.7,30.3,50.4,30.3,50.4z"/>
	<path class="st2" d="M34.2,23.5c-1.3,1-2.7,1.8-4.1,2.5c-0.3-0.6-0.6-1.2-0.8-1.8c1.4-2.1,2.7-5.3,3.3-10.1c0,0-7.1-3-9.3-8.5
		c-0.2-0.4-0.3-0.6-0.5-0.6c-0.2,0-0.3,0.2-0.4,0.6c-0.8,2.2-3.1,6.4-9.3,8.5c0,0,0.3,6.3,3.2,10.6c-0.2,0.5-0.4,1-0.7,1.5
		c-1.5-0.6-2.8-1.4-4.1-2.3c-1.7-8.3-1-14.4,2.1-18.1c3.1-3.9,8-4.1,8.9-4.1c0.1,0,0.2,0,0.2,0h0c4.4,0.2,7.7,1.7,9.7,4.4
		C36.6,11.7,34.7,21.3,34.2,23.5z"/>
	<path class="st3" d="M34.2,23.5c-0.8,0.6-1,1.3-1.8,1.8c0,0-2.6,1.7-2.4,0.5c-0.3-0.5-0.5-1.1-0.6-1.6c0.1-0.2,0.2-0.4,0.4-0.6
		c0.1,0.3,0.2,0.5,0.4,0.8c1.5-0.7,2.9-1.5,4.1-2.5c0.5-2.2,0.8-4.5,0.9-6.7C35.1,18,34.8,20.8,34.2,23.5z M16.3,24.6
		c-0.2,0.5-0.4,1-0.7,1.5c-1.5-0.6-2.8-1.4-4.1-2.3c-0.6-2.8-0.9-5.7-0.9-8.7c0.1,2.4,0.4,4.7,0.9,7c1.3,0.9,2.7,1.7,4.1,2.3
		c0.1-0.2,0.2-0.3,0.3-0.5C16,24.2,16.1,24.4,16.3,24.6z"/>
	<path class="st9" d="M35,16.8c-0.1-3.1-0.7-6.5-2.7-9.1c-2-2.8-5.3-4.3-9.7-4.4h0c0,0-0.1,0-0.2,0c-0.9,0-5.7,0.2-8.9,4.1
		c-1.9,2.3-2.9,5.4-3,9.4c-0.1-4.7,0.9-8.4,3-11c2.1-2.5,5.1-4.1,8.3-4.4c0.1,0,1.6,0,1.6,0c4,0.3,7,2.2,8.9,4.8
		C34.6,9.1,35.1,13.3,35,16.8z"/>
	<path class="st7" d="M48.3,40.1v0.5h-2.2v-0.5c0-0.4,0.4-0.8,0.8-0.8h0.6C47.9,39.4,48.3,39.7,48.3,40.1z"/>
	<path class="st10" d="M49.4,42.5l-0.5,7.7c0,0.1-0.1,0.1-0.1,0.1h-3.3c0,0-0.1-0.1-0.1-0.1l-0.5-7.7H49.4z"/>
	<path class="st11" d="M40.3,28.4h-8.4c-0.8,0-1.5,0.6-1.5,1.4c0,0.1,0,0.1,0,0.2l0.7,3.1v13.3l0.8,4c0.3,0.9,0.4,1.6,1.3,1.6H39
		c0.9,0,1-0.7,1.3-1.6l0.8-4.1v-13l0.7-3.3c0.1-0.8-0.5-1.5-1.3-1.6C40.4,28.4,40.4,28.4,40.3,28.4z M38.7,50l-0.1,0.2
		c0,0.1,0,0.1-0.1,0.2h-5c0-0.1,0-0.1-0.1-0.2L33.5,50l-0.7-3.3h6.5L38.7,50z M39.5,33l0,0.2v11.9h-6.8V32.9l0-0.2L32.1,30h1.6v0.8
		c0,0.4,0.4,0.8,0.8,0.8s0.8-0.4,0.8-0.8V30h1.6v0.8c0,0.4,0.4,0.8,0.8,0.8s0.8-0.4,0.8-0.8V30h1.6L39.5,33z"/>
	<path class="st2" d="M16.3,34.5c-0.1,0.1-0.4,0.3-1.2,0.4c-1.1,0.2-2.3,0.4-3.4,0.7l3.6-5.3l0.9,3.6C16.3,34.2,16.3,34.4,16.3,34.5
		z"/>
	<path class="st6" d="M30.8,15C29,26.5,23.3,26.8,23,26.8h0H23h-0.2c-6,0-7.6-8.5-8-11.7c4.4-1.8,6.8-4.6,8.1-6.9
		C25.2,11.7,28.9,14,30.8,15z"/>
	<path class="st12" d="M14.6,29.5l-2.4,2.4c-0.1,0-0.2,0.1-0.3,0.1l0,0h0c-0.1,0-9.4,1.6-10.3,8.3c0-0.6-0.6-1-0.6-1.2
		c0.5-7,10.6-9.3,10.7-9.3C11.8,29.7,14.1,29.7,14.6,29.5z"/>
	<path class="st13" d="M30.8,15C29,26.5,23.3,26.8,23,26.8h0c-0.1,0-0.1,0-0.2,0c-0.1,0-0.2,0-0.3,0c-5.8-0.3-7.4-8.5-7.7-11.7
		c0.1,0,0.2-0.1,0.2-0.1c0.7,3.8,2.6,10.1,7.8,10.1H23H23h0c0.3,0,5.4-0.3,7.5-10.3C30.7,14.9,30.7,15,30.8,15z"/>
	<path class="st11" d="M30.4,51.1l-0.1-0.2c0-0.1,0-0.1,0-0.1l-0.1-0.4h-6.2c0.2-7.1,3.6-11.2,5.4-13v-4.1l-0.5-2.5l-0.7,2.6
		c-0.3,1.1,0,1.8,0.6,2.3c-2.9,2.6-4.9,6.1-5.8,10c-1.3-5.5-4.3-8.6-5.8-10c0.6-0.5,0.9-1.2,0.6-2.3l-1.5-5.7c0.4-0.5,0.8-1,1-1.6
		c0.1,0,0.1,0.1,0.1,0.1c1.4,1.4,3.3,2.2,5.3,2.2c0.1,0,0.1,0,0.2,0c0,0,0,0,0,0c0.2,0,2.1-0.1,4.1-1.8c0.3-0.3,0.7-0.5,1-0.8
		c0.4,0.8,0.8,1.5,1.3,2.1c0-0.1,0.1-0.1,0.1-0.1c0.6-0.6,1.4-1,2.3-1h0.3c1.2-0.7,2.4-1.5,3.5-2.3c0,0,6.5-23.7-12.9-24.5
		c0,0-0.1,0-0.3,0C20.1,0,5,0.9,10,24.7c1.4,1.1,2.9,1.9,4.5,2.7c-0.8,0.7-1.7,1.1-2.8,1.3c0,0-11.2,1.8-11.7,10.3
		c0,0,0.1,4.4,0.7,9.8C1,50.6,2.5,52,4.4,52h26.4C30.6,51.7,30.5,51.4,30.4,51.1L30.4,51.1z M23,26.8L23,26.8L23,26.8h-0.2
		c-6,0-7.6-8.5-8-11.7c4.4-1.8,6.8-4.6,8.1-6.9c2.3,3.5,6.1,5.8,8,6.8C29,26.5,23.3,26.8,23,26.8z M11.5,23.8
		c-1.7-8.3-1-14.4,2.1-18.1c3.1-3.8,8-4.1,8.9-4.1c0.1,0,0.2,0,0.2,0h0c4.4,0.2,7.7,1.7,9.7,4.4c4.2,5.7,2.3,15.2,1.8,17.5
		c-1.3,1-2.7,1.8-4.1,2.5c-0.3-0.6-0.6-1.2-0.8-1.8c1.4-2.1,2.7-5.3,3.3-10.1c0,0-7.1-3-9.3-8.5c-0.2-0.4-0.3-0.6-0.5-0.6
		c-0.2,0-0.3,0.2-0.4,0.6c-0.8,2.3-3.1,6.4-9.3,8.5c0,0,0.3,6.3,3.2,10.6c-0.2,0.5-0.4,1-0.7,1.5C14.1,25.5,12.8,24.7,11.5,23.8z
		 M15.3,30.3l0.9,3.6c0.1,0.4,0.1,0.6,0,0.6c-0.1,0.1-0.4,0.3-1.2,0.4c-1.1,0.2-2.3,0.4-3.4,0.7L15.3,30.3z M4.4,50.4
		c-1,0-1.9-0.8-2-1.8c-0.5-4.8-0.7-8.9-0.7-9.6c0.5-7,10.2-8.7,10.3-8.7h0l0,0c0.6-0.1,1.1-0.3,1.7-0.5l-4.2,6.1
		c-0.8,1.2-0.7,1.9,0.2,1.9c0.4,0,0.8-0.1,1.1-0.2c1.5-0.5,2.9-0.9,4.5-1.1c0.1,0,0.1,0,0.2,0c0.5,0.4,6.2,4.6,6.5,13.9L4.4,50.4
		L4.4,50.4z"/>
	<path class="st3" d="M16.3,34.5c-0.1,0.1-0.4,0.3-1.2,0.4c-1.1,0.2-2.3,0.4-3.4,0.7l1.4-2c0.7-0.2,1.4-0.3,2.1-0.4
		c0.3,0,0.6-0.1,0.9-0.2l0.2,0.9C16.3,34.2,16.3,34.4,16.3,34.5z"/>
	<path class="st14" d="M32.7,43.5h6.8v1.6h-6.8V43.5z"/>
	<path class="st11" d="M48.3,39.3v0.5h-0.1c-0.2-0.3-0.4-0.4-0.7-0.4h-0.6c-0.3,0-0.6,0.2-0.7,0.4h-0.1v-0.5c0-0.4,0.4-0.8,0.8-0.8
		h0.6C47.9,38.6,48.3,38.9,48.3,39.3L48.3,39.3z"/>
	<path class="st15" d="M49.7,42.5l-0.6,7.7c0,0.1-0.1,0.1-0.1,0.1h-3.8c-0.1,0-0.1-0.1-0.1-0.1l-0.6-7.7h0.1l0.5,6.9
		c0,0.1,0.1,0.1,0.1,0.1H49c0.1,0,0.1-0.1,0.1-0.1L49.7,42.5L49.7,42.5z"/>
	<path class="st8" d="M48.3,40.1v0.5h-2.2v-0.5c0-0.1,0-0.3,0.1-0.4h2.1C48.3,39.9,48.3,40,48.3,40.1z"/>
	<path class="st11" d="M50,40.7v-0.5c0-1.1-0.8-2.1-1.9-2.3v-8.2h0.4l3.5-6.3c-1.3-1.1-2.9-1.7-4.5-1.8H47c-1.7,0.1-3.4,0.7-4.8,1.8
		l3.7,6.3h0.6v8.2c-1.1,0.2-2,1.2-2,2.3v0.5c-0.8,0.1-1.4,0.8-1.3,1.6l0.6,8.1c0.1,0.9,0.8,1.6,1.7,1.6h3.3c0.9,0,1.7-0.7,1.7-1.6
		l0.6-8.1C51.1,41.5,50.6,40.9,50,40.7z M44.4,23.8c0.9-0.4,1.8-0.7,2.8-0.7c0.9,0,1.9,0.3,2.7,0.7l-0.6,1c-1.6-0.8-3.4-0.4-4.3-0.1
		L44.4,23.8z M45.8,26.2c0.9-0.3,1.8-0.3,2.7,0.1l-1,1.7h-0.7L45.8,26.2z M46.1,40.1c0-0.4,0.4-0.8,0.8-0.8h0.6
		c0.4,0,0.8,0.3,0.8,0.8v0.5h-2.2L46.1,40.1z M48.9,50.2c0,0.1-0.1,0.1-0.1,0.1h-3.3c0,0-0.1-0.1-0.1-0.1l-0.5-7.7h4.6L48.9,50.2z"
		/>
	<path class="st13" d="M29.6,27.8L29.6,27.8C29.6,27.8,29.6,27.8,29.6,27.8c-0.1,0.1-0.1,0.1-0.1,0.1c-0.5-0.6-1-1.4-1.3-2.1
		c-0.3,0.3-0.6,0.6-1,0.8c-2.1,1.7-4,1.8-4.1,1.8l0,0l0,0h0h-0.2c-0.1,0-0.2,0-0.3,0c-1.9-0.1-3.7-0.9-5-2.2c-0.1,0-0.1-0.1-0.1-0.1
		c-0.3,0.6-0.6,1.1-1,1.6l0.3,1.2c0.3-0.4,0.5-0.8,0.7-1.2c0.1,0,0.1,0.1,0.1,0.1c1.4,1.4,3.3,2.2,5.3,2.2c0.1,0,0.1,0,0.2,0
		c0,0,0,0,0,0c0.2,0,2.1-0.1,4.1-1.8c0.3-0.3,0.7-0.5,1-0.8c0.2,0.5,0.5,1,0.8,1.4C29.1,28.5,29.3,28.1,29.6,27.8L29.6,27.8z"/>
</g>
</svg>
