<?xml version="1.0" encoding="utf-8"?>
<!-- Generator: Adobe Illustrator 24.3.0, SVG Export Plug-In . SVG Version: 6.00 Build 0)  -->
<svg version="1.1" id="real-estate-key" xmlns="http://www.w3.org/2000/svg" xmlns:xlink="http://www.w3.org/1999/xlink" x="0px"
	 y="0px" viewBox="0 0 52 52" style="enable-background:new 0 0 52 52;" xml:space="preserve">
<style type="text/css">
	.st0{fill:#333333;}
	.st1{fill:#1AD2A4;}
	.st2{fill:#65F0CD;}
	.st3{fill:#1DE9B6;}
	.st4{fill:#FFF176;}
</style>
<g>
	<path class="st0" d="M34.2,18.2c-0.2,0-0.3-0.1-0.5-0.2c-0.4-0.3-0.5-0.8-0.2-1.2c0.8-1.1,0.9-2.6,0.4-4.1c-0.5-1.6-1.7-3-3.2-4.1
		c-0.2-0.2-0.5-0.3-0.7-0.4c-0.4-0.2-0.6-0.8-0.3-1.2c0.2-0.4,0.8-0.6,1.2-0.3c0.3,0.2,0.6,0.3,0.9,0.5c1.9,1.3,3.3,3,3.9,5
		c0.6,2,0.4,4-0.6,5.6C34.7,18.1,34.5,18.2,34.2,18.2z"/>
	<rect x="40.7" y="10.4" class="st1" width="3.5" height="12.1"/>
	<path class="st0" d="M40.7,23.4c-0.5,0-0.9-0.4-0.9-0.9V10.4c0-0.5,0.4-0.9,0.9-0.9h3.5c0.5,0,0.9,0.4,0.9,0.9v6.1
		c0,0.5-0.4,0.9-0.9,0.9s-0.9-0.4-0.9-0.9v-5.2h-1.7v11.2C41.6,23,41.2,23.4,40.7,23.4z"/>
	<rect x="30.3" y="38.1" class="st2" width="6.9" height="12.1"/>
	<polygon class="st3" points="33.8,10.4 16.5,29.5 19.9,29.5 19.9,50.2 30.3,50.2 30.3,38.1 37.3,38.1 37.3,50.2 47.6,50.2 
		47.6,29.5 51.1,29.5 	"/>
	<polygon class="st2" points="33.8,8.7 16.5,29.5 51.1,29.5 	"/>
	<path class="st1" d="M24.6,21c1.9,0.8,3.9,0.9,5.7,0.5c0.2-0.1,0.4-0.1,0.6-0.2c2.1-0.6,3.6-1.9,4.3-3.7c0.2-0.4-0.1-0.9-0.5-1.1
		s-0.9,0.1-1.1,0.5c-0.5,1.2-1.6,2.2-3.1,2.6c-1.5,0.4-3.1,0.3-4.7-0.2L24.6,21C24.5,21,24.6,21,24.6,21z"/>
	<path class="st0" d="M49.4,51.1H7.8c-0.5,0-0.9-0.4-0.9-0.9s0.4-0.9,0.9-0.9h11.2v-19h-2.6c-0.3,0-0.6-0.2-0.8-0.5
		c-0.1-0.3-0.1-0.7,0.1-0.9L33.1,8.2c0.3-0.4,1-0.4,1.3,0L51.8,29c0.2,0.3,0.3,0.6,0.1,0.9c-0.2,0.3-0.4,0.5-0.8,0.5h-2.6v19h0.9
		c0.5,0,0.9,0.4,0.9,0.9S49.9,51.1,49.4,51.1z M20.8,49.4h26v-19H26c-0.5,0-0.9-0.4-0.9-0.9c0-0.5,0.4-0.9,0.9-0.9h23.3L33.8,10
		L18.3,28.6h3.4c0.5,0,0.9,0.4,0.9,0.9s-0.4,0.9-0.9,0.9h-0.9V49.4z"/>
	<path class="st0" d="M37.3,51.1c-0.5,0-0.9-0.4-0.9-0.9V39h-5.2v11.2c0,0.5-0.4,0.9-0.9,0.9c-0.5,0-0.9-0.4-0.9-0.9V38.1
		c0-0.5,0.4-0.9,0.9-0.9h6.9c0.5,0,0.9,0.4,0.9,0.9v12.1C38.1,50.7,37.7,51.1,37.3,51.1z"/>
	<g>
		<path class="st4" d="M20.8,1.8c-2.4,0-4.5,1.4-5.5,3.5H2.6L0.9,7l2.6,3.5l1.7-1.7h2.6l0.9,1.7h6.7c1,2.1,3,3.5,5.5,3.5
			c3.4,0,6.1-2.7,6.1-6.1S24.2,1.8,20.8,1.8z"/>
		<path class="st0" d="M20.8,14.8c-2.5,0-4.7-1.3-6-3.5H8.7c-0.3,0-0.6-0.2-0.8-0.5L7.3,9.6H5.6l-1.5,1.5c-0.2,0.2-0.4,0.3-0.7,0.3
			c-0.3,0-0.5-0.2-0.6-0.3L0.2,7.5c-0.3-0.3-0.2-0.8,0.1-1.1L2,4.6c0.2-0.2,0.4-0.3,0.6-0.3h12.2c1.2-2.2,3.5-3.5,6-3.5
			c3.8,0,6.9,3.1,6.9,6.9S24.6,14.8,20.8,14.8z M9.2,9.6h6.1c0.3,0,0.6,0.2,0.8,0.5c0.9,1.8,2.7,3,4.7,3c2.9,0,5.2-2.3,5.2-5.2
			s-2.3-5.2-5.2-5.2c-2,0-3.8,1.1-4.7,3c-0.2,0.3-0.4,0.5-0.8,0.5H3L2,7l1.6,2.1l1-1C4.8,7.9,5,7.8,5.3,7.8h2.6
			c0.3,0,0.6,0.2,0.8,0.5L9.2,9.6z"/>
		<circle class="st0" cx="22.5" cy="7.8" r="1.7"/>
	</g>
	<path class="st0" d="M29.4,20.5c-1.9,0-3.8-0.6-5.5-1.7c-1.9-1.3-3.3-3-3.9-5c-0.7-2-0.5-4,0.6-5.6c0.3-0.4,0.5-0.7,0.9-1
		s0.9-0.3,1.2,0.1c0.3,0.4,0.3,0.9-0.1,1.2c-0.2,0.2-0.4,0.5-0.6,0.7c-0.8,1.1-0.9,2.6-0.4,4.1c0.5,1.6,1.7,3,3.3,4.1
		c1.6,1,3.4,1.6,5,1.4c1.6-0.1,2.9-0.8,3.6-1.9c0.3-0.4,0.8-0.5,1.2-0.2c0.4,0.3,0.5,0.8,0.2,1.2c-1,1.6-2.8,2.5-4.9,2.7
		C29.8,20.5,29.6,20.5,29.4,20.5z"/>
	<circle class="st0" cx="4.4" cy="50.2" r="0.9"/>
</g>
</svg>
