<?xml version="1.0" encoding="utf-8"?>
<!-- Generator: Adobe Illustrator 24.3.0, SVG Export Plug-In . SVG Version: 6.00 Build 0)  -->
<svg version="1.1" id="Layer_1" xmlns="http://www.w3.org/2000/svg" xmlns:xlink="http://www.w3.org/1999/xlink" x="0px" y="0px"
	 viewBox="0 0 52 52" style="enable-background:new 0 0 52 52;" xml:space="preserve">
<style type="text/css">
	.st0{fill:#8099FF;}
	.st1{fill:#6B88FF;}
	.st2{fill:#8986A6;}
	.st3{fill:#DADDED;}
	.st4{fill:#FDEF85;}
	.st5{fill:#D6F3FF;}
	.st6{fill:#BAEBFF;}
	.st7{fill:#FDE73F;}
	.st8{fill:#FFFFFF;}
	.st9{fill:#C7FF80;}
	.st10{fill:#A9F745;}
	.st11{fill:#FF5757;}
	.st12{fill:#F23838;}
	.st13{fill:#060606;}
</style>
<g>
	<g>
		<g>
			<g>
				<g>
					<g>
						<path class="st0" d="M10,44.7V40c0-1,0.3-1.9,0.8-2.7l2.5-3.9L26,31.6l12.7,1.7l2.5,3.9C41.7,38.1,42,39,42,40v4.7l-16,1.6
							L10,44.7z"/>
						<path class="st1" d="M41.2,37.2l-2.5-3.9h-4.1l2.5,3.9c0.5,0.8,0.8,1.8,0.8,2.7v4.7H42V40C42,39,41.7,38.1,41.2,37.2
							L41.2,37.2z"/>
						<path class="st2" d="M10,47.8v2.5c0,0.5,0.4,0.9,0.9,0.9h2.9c0.5,0,0.9-0.4,0.9-0.9v-3.6H10L10,47.8L10,47.8z"/>
						<path class="st2" d="M37.2,47.8v2.5c0,0.5,0.4,0.9,0.9,0.9H41c0.5,0,0.9-0.4,0.9-0.9v-3.6h-4.8L37.2,47.8L37.2,47.8z"/>
						<path class="st3" d="M42.5,47.8h-33c-0.5,0-1-0.4-1-1v-1.2c0-0.5,0.4-1,1-1h33c0.5,0,1,0.4,1,1v1.2
							C43.5,47.4,43,47.8,42.5,47.8z"/>
					</g>
				</g>
				<g>
					<path class="st4" d="M15.1,40.4c2.2,0,4.2,1.3,5.1,3.3l0.4,1h-7.5l0-2.4C13.1,41.2,14,40.4,15.1,40.4z"/>
					<path class="st4" d="M36.9,40.4c-2.2,0-4.2,1.3-5.1,3.3l-0.4,1h7.5l0-2.4C38.9,41.2,38,40.4,36.9,40.4z"/>
				</g>
				<g>
					<ellipse class="st0" cx="40.9" cy="32.6" rx="2.6" ry="1.7"/>
					<ellipse class="st0" cx="11.1" cy="32.6" rx="2.6" ry="1.7"/>
				</g>
			</g>
			<g>
				<path class="st0" d="M33.5,22.9H18.5c-1.5,0-2.9,1.1-3.3,2.6L26,27.1l10.8-1.6C36.4,24,35.1,22.9,33.5,22.9z"/>
				<path class="st1" d="M33.5,22.9h-4.1c1.5,0,2.9,1.1,3.3,2.6h4.1C36.4,24,35.1,22.9,33.5,22.9z"/>
				<path class="st5" d="M15.2,25.5l-1.9,7.9h25.4l-1.9-7.9H15.2z"/>
				<path class="st6" d="M36.8,25.5h-4.1l1.9,7.9h4.1L36.8,25.5z"/>
			</g>
		</g>
		<g>
			<path class="st4" d="M2.5,11.5c-1.1-1.1-1.7-2.7-1.7-4.4c0-3.5,2.9-6.4,6.4-6.4s6.4,2.9,6.4,6.4c0,1.7-0.7,3.2-1.8,4.4L2.5,11.5z
				"/>
			<path class="st7" d="M11.8,11.5c1.1-1.1,1.8-2.7,1.8-4.4c0-3.5-2.9-6.4-6.4-6.4c-0.7,0-1.4,0.1-2,0.3c2.5,0.8,4.3,3.2,4.3,6
				c0,0.7-0.1,1.4-0.3,2L11.8,11.5z"/>
			<g>
				<g>
					<path class="st8" d="M7.1,13.5c1.8,0,3.5-0.8,4.6-2c-0.9-1.7-2.7-2.8-4.6-2.8c-2,0-3.7,1.1-4.6,2.8C3.7,12.7,5.3,13.5,7.1,13.5
						z"/>
				</g>
				<circle class="st8" cx="7.1" cy="6.3" r="2.5"/>
			</g>
		</g>
		<g>
			<path class="st9" d="M21.4,11.5c-1.1-1.1-1.7-2.7-1.7-4.4c0-3.5,2.9-6.4,6.4-6.4s6.4,2.9,6.4,6.4c0,1.7-0.7,3.2-1.8,4.4
				L21.4,11.5z"/>
			<path class="st10" d="M30.6,11.5c1.1-1.1,1.8-2.7,1.8-4.4c0-3.5-2.9-6.4-6.4-6.4c-0.7,0-1.4,0.1-2,0.3c2.5,0.8,4.3,3.2,4.3,6
				c0,0.7-0.1,1.4-0.3,2L30.6,11.5z"/>
			<g>
				<g>
					<path class="st8" d="M26,13.5c1.8,0,3.5-0.8,4.6-2C29.7,9.9,28,8.8,26,8.8c-2,0-3.7,1.1-4.6,2.8C22.5,12.7,24.2,13.5,26,13.5z"
						/>
				</g>
				<circle class="st8" cx="26" cy="6.3" r="2.5"/>
			</g>
		</g>
		<g>
			<path class="st11" d="M51.2,7.1c0,1.7-0.7,3.2-1.8,4.4c-1.2,1.2-2.8,0.5-4.6,0.5c-1.8,0-3.5,0.7-4.6-0.5
				c-1.1-1.1-1.7-2.7-1.7-4.4c0-3.5,2.9-6.4,6.4-6.4C48.4,0.8,51.2,3.6,51.2,7.1z"/>
			<path class="st12" d="M44.9,0.8c-0.7,0-1.4,0.1-2,0.3c2.5,0.8,4.3,3.2,4.3,6c0,0.9-0.2,1.8-0.5,2.6c-0.7,1.6,1.7,3,2.8,1.8
				c1.1-1.1,1.8-2.7,1.8-4.4C51.2,3.6,48.4,0.8,44.9,0.8z"/>
			<g>
				<g>
					<path class="st8" d="M44.9,13.5c1.8,0,3.5-0.8,4.6-2c-0.9-1.7-2.7-2.8-4.6-2.8c-2,0-3.7,1.1-4.6,2.8
						C41.4,12.7,43,13.5,44.9,13.5z"/>
				</g>
				<circle class="st8" cx="44.9" cy="6.3" r="2.5"/>
			</g>
		</g>
	</g>
	<g>
		<path class="st13" d="M29.1,41h-6.1c-0.4,0-0.8,0.3-0.8,0.8c0,0.4,0.3,0.8,0.8,0.8h6.1c0.4,0,0.8-0.3,0.8-0.8
			C29.8,41.3,29.5,41,29.1,41z"/>
		<path class="st13" d="M50.1,12c1.2-1.3,1.9-3,1.9-4.9C52,3.2,48.8,0,44.9,0c-3.9,0-7.1,3.2-7.1,7.1c0,3.6,2.8,6.7,6.4,7.1v8.2
			c0,1.3-1,2.3-2.3,2.3h-4.5c-0.6-1.5-2.1-2.6-3.8-2.6h-6.8v-7.9c3.6-0.4,6.4-3.5,6.4-7.1C33.1,3.2,29.9,0,26,0s-7.1,3.2-7.1,7.1
			c0,3.6,2.8,6.7,6.4,7.1v7.9h-6.8c-1.7,0-3.2,1-3.8,2.6h-4.5c-1.3,0-2.3-1-2.3-2.3v-8.2c3.6-0.3,6.4-3.5,6.4-7.1
			c0-3.9-3.2-7.1-7.1-7.1c-1,0-1,1.5,0,1.5c3.1,0,5.6,2.5,5.6,5.6c0,1.2-0.3,2.2-0.9,3.1c-0.6-0.8-1.4-1.4-2.3-1.8
			c0.5-0.6,0.9-1.3,0.9-2.2c0-1.8-1.4-3.2-3.2-3.2S3.9,4.5,3.9,6.3c0,0.8,0.3,1.6,0.8,2.2c-0.9,0.4-1.7,1-2.3,1.7
			C1.9,9.3,1.5,8.3,1.5,7.1c0-1.8,0.8-3.4,2.3-4.5c0.8-0.6-0.1-1.8-0.9-1.2C1,2.8,0,4.9,0,7.1c0,3.6,2.8,6.7,6.3,7.1v8.2
			c0,2.1,1.7,3.8,3.8,3.8h4.1l-1.1,4.4c-0.6-0.3-1.3-0.5-2.1-0.5c-1.9,0-3.3,1.1-3.3,2.5c0,1.7,2,2.5,3.5,2.5l-1.1,1.7
			c-0.6,0.9-0.9,2-0.9,3.2v4c-0.8,0.1-1.5,0.8-1.5,1.7v1.2c0,0.9,0.6,1.6,1.5,1.7v1.8c0,0.9,0.8,1.7,1.7,1.7h2.9
			c0.9,0,1.7-0.8,1.7-1.7v-1.7h15.1c1,0,1-1.5,0-1.5H14.8H9.5c-0.1,0-0.2-0.1-0.2-0.2v-1.2c0-0.1,0.1-0.2,0.2-0.2h33
			c0.1,0,0.2,0.1,0.2,0.2v1.2c0,0.1-0.1,0.2-0.2,0.2h-5.3h-2c-1,0-1,1.5,0,1.5h1.2v1.7c0,0.9,0.8,1.7,1.7,1.7H41
			c0.9,0,1.7-0.8,1.7-1.7v-1.8c0.8-0.1,1.5-0.8,1.5-1.7v-1.2c0-0.9-0.6-1.6-1.5-1.7v-4c0-1.1-0.3-2.2-0.9-3.2l-1.1-1.7
			c0.1,0,0.1,0,0.2,0c1.9,0,3.3-1.1,3.3-2.5c0-1.4-1.5-2.5-3.3-2.5c-0.8,0-1.5,0.2-2.1,0.5l-1.1-4.4h4c2.1,0,3.8-1.7,3.8-3.8v-8.2
			C47.3,14.1,49,13.3,50.1,12L50.1,12z M25.7,12.7c-1.2-0.1-2.4-0.5-3.4-1.4c0.8-1.1,2-1.8,3.4-1.9c0.2,0,0.3,0,0.5,0
			c1.3,0.1,2.6,0.8,3.4,1.9C28.6,12.3,27.1,12.8,25.7,12.7L25.7,12.7z M24.3,6.3c0-0.9,0.8-1.7,1.7-1.7c0.9,0,1.7,0.8,1.7,1.7
			c0,0.9-0.7,1.6-1.5,1.7c-0.1,0-0.1,0-0.2,0c-0.1,0-0.1,0-0.2,0C25,7.9,24.3,7.2,24.3,6.3L24.3,6.3z M26,1.5c3.1,0,5.6,2.5,5.6,5.6
			c0,1.2-0.3,2.2-0.9,3.1c-0.6-0.8-1.4-1.4-2.3-1.8c0.5-0.6,0.9-1.3,0.9-2.2c0-1.8-1.4-3.2-3.2-3.2c-1.8,0-3.2,1.4-3.2,3.2
			c0,0.8,0.3,1.6,0.8,2.2c-0.9,0.4-1.7,1-2.3,1.7c-0.6-0.9-0.9-1.9-0.9-3.1C20.4,4,22.9,1.5,26,1.5z M5.4,6.3c0-0.9,0.8-1.7,1.7-1.7
			s1.7,0.8,1.7,1.7c0,0.9-0.7,1.6-1.5,1.7C7.3,8,7.2,8,7.1,8C7.1,8,7,8,6.9,8C6.1,7.9,5.4,7.2,5.4,6.3L5.4,6.3z M6.9,9.5
			c1.6,0.1,2.9,0.6,3.9,1.9c-2.1,1.8-5.2,1.8-7.3,0C4.3,10.3,5.5,9.6,6.9,9.5z M37.6,32.6H14.4c0-0.1,0-0.3,0-0.4l1.4-5.9h20.4
			l1.5,6C37.6,32.3,37.6,32.4,37.6,32.6L37.6,32.6z M18.5,23.7h15.1c0.8,0,1.6,0.4,2.1,1H16.4C16.9,24.1,17.6,23.7,18.5,23.7z
			 M11.1,33.6c-1,0-1.8-0.5-1.8-1c0-0.5,0.8-1,1.8-1c1,0,2.1,0.5,1.4,1.6C12.1,33.4,11.7,33.6,11.1,33.6z M14,48.6v1.7
			c0,0.1-0.1,0.2-0.2,0.2h-2.9c-0.1,0-0.2-0.1-0.2-0.2v-1.7H14z M13.9,43.9l0-1.6c0-0.7,0.5-1.2,1.2-1.2c1.9,0,3.6,1.1,4.3,2.8
			L13.9,43.9L13.9,43.9z M32.6,43.9c0.8-1.7,2.5-2.8,4.3-2.8c0.7,0,1.2,0.5,1.2,1.2l0,1.6L32.6,43.9L32.6,43.9z M41.2,50.3
			c0,0.1-0.1,0.2-0.2,0.2h-2.9c-0.1,0-0.2-0.1-0.2-0.2v-1.7h3.3V50.3z M40.6,37.6c0.4,0.7,0.7,1.5,0.7,2.3v4h-1.6l0-1.6
			c0-1.5-1.2-2.7-2.7-2.7c-2.5,0-4.8,1.5-5.8,3.8l-0.2,0.6h-9.8l-0.2-0.6c-1-2.3-3.3-3.8-5.8-3.8c-1.5,0-2.7,1.2-2.7,2.7l0,1.6h-1.6
			v-4c0-0.8,0.2-1.6,0.7-2.3c0.7-1.2,2.3-3.6,2.3-3.6h24.4C38.2,34.1,39.8,36.5,40.6,37.6z M40.9,31.6c1,0,1.8,0.5,1.8,1
			c0,0.5-0.8,1-1.8,1C38.9,33.6,38.8,31.6,40.9,31.6z M44.9,1.5c3.1,0,5.6,2.5,5.6,5.6c0,1.2-0.3,2.2-0.9,3.1
			c-0.6-0.8-1.4-1.4-2.3-1.8c0.5-0.6,0.9-1.3,0.9-2.2c0-1.8-1.4-3.2-3.2-3.2s-3.2,1.4-3.2,3.2c0,0.8,0.3,1.6,0.8,2.2
			c-0.9,0.4-1.7,1-2.3,1.7c-0.6-0.9-0.9-1.9-0.9-3.1C39.3,4,41.8,1.5,44.9,1.5z M45.7,12.7c-1.6,0.2-3.3-0.2-4.5-1.3
			c0.8-1.1,2-1.8,3.4-1.9c0.2,0,0.3,0,0.5,0c1.3,0.1,2.6,0.8,3.4,1.9C47.7,12.1,46.8,12.5,45.7,12.7z M43.2,6.3
			c0-0.9,0.8-1.7,1.7-1.7s1.7,0.8,1.7,1.7c0,0.9-0.7,1.6-1.5,1.7c-0.1,0-0.1,0-0.2,0c-0.1,0-0.1,0-0.2,0C43.8,7.9,43.2,7.2,43.2,6.3
			L43.2,6.3z"/>
	</g>
</g>
</svg>
