<svg id="Capa_1" enable-background="new 0 0 512 512" height="512" viewBox="0 0 512 512" width="512" xmlns="http://www.w3.org/2000/svg"><g><g><g><path d="m397.971 206.41c-8.203-32.812-37.682-55.835-71.508-55.835h-100.862c-25.266 35.896-35.202 77.988-9.252 120.485 66.048 23.385 175.142 17.92 198.068 1.115z" fill="#5d6a83"/><path d="m225.601 150.576h-40.065c-33.826 0-63.305 23.023-71.508 55.835l-16.426 65.76c10.709 16.097 65.817 23.322 118.746-1.11-5.644-43.937-2.119-85.574 9.253-120.485z" fill="#526078"/><path d="m300.87 180.7h25.59c20.04 0 37.43 13.57 42.29 33.02l14.34 57.34c-57.18 17.16-112.73 16.76-166.74 0-21.2-31.9-19.33-62.58 1.71-90.36h47.83z" fill="#83deff"/><path d="m218.056 180.697h-32.52c-20.041 0-37.431 13.575-42.29 33.023l-14.338 57.341c27.123 14.094 56.216 14.466 87.44 0-4.098-31.9-3.357-62.583 1.708-90.364z" fill="#5ad6ff"/><path d="m444.258 310.218c0-21.627-17.531-39.158-39.158-39.158-22.524 0-112.352 0-188.751 0-14.563 38.17-8.835 74.909 30.979 105.424 64.814 16.566 130.373 18.241 196.929 0v-66.266z" fill="#7391dd"/><path d="m216.349 271.061c-49.32 0-93.043 0-109.449 0-21.627 0-39.158 17.53-39.158 39.158v66.267c56.726 26.782 117.007 23.198 179.586 0-7.356-15.488-13.75-31.995-18.973-49.356-5.68-18.878-9.642-37.674-12.006-56.069z" fill="#6386dd"/><path d="m323.773 336.825c0-15.522-12.591-28.113-28.113-28.113h-72.31c-12.191 30.309-3.106 52.745 23.978 67.773 30.595 14.796 54.798 11.097 76.444 0v-39.66z" fill="#83deff"/><path d="m223.35 308.712h-7.01c-15.522 0-28.113 12.591-28.113 28.113v39.66c19.38 16.419 39.12 14.372 59.101 0-7.356-15.488-13.75-31.995-18.973-49.356-1.851-6.151-3.513-12.294-5.005-18.417z" fill="#5ad6ff"/><path d="m466.849 195.758c12.48 0 22.591 10.111 22.591 22.591 0 12.465-10.101 22.591-22.591 22.591h-12.551c-9.69 0-17.571-7.872-17.571-17.571v-10.04c0-9.699 7.872-17.571 17.571-17.571z" fill="#c1e6f4"/><path d="m75.273 213.328v10.04c0 9.689-7.872 17.571-17.571 17.571h-12.55c-12.465 0-22.591-10.101-22.591-22.591 0-12.48 10.111-22.591 22.591-22.591h12.55c9.699.001 17.571 7.872 17.571 17.571z" fill="#abe0f4"/><path d="m97.864 470.614c0 18.715 15.171 33.886 33.886 33.886s33.886-15.171 33.886-33.886v-3.765c-24.221-10.88-46.895-11.432-67.773 0v3.765z" fill="#526078"/><path d="m97.864 436.727v30.121h67.773v-30.121c-23.774-17.016-46.45-18.236-67.773 0z" fill="#4b586e"/><path d="m346.364 470.614c0 18.715 15.171 33.886 33.886 33.886s33.886-15.171 33.886-33.886v-3.765c-22.591-11.158-45.182-11.158-67.773 0v3.765z" fill="#5d6a83"/><path d="m346.364 436.727v30.121h67.773v-30.121c-24.53-18.585-46.968-17.114-67.773 0z" fill="#526078"/><path d="m135.515 308.712c8.313 0 15.061 6.747 15.061 15.061 0 8.3-6.747 15.061-15.061 15.061h-15.061c-8.313 0-15.061-6.747-15.061-15.061 0-8.3 6.747-15.061 15.061-15.061z" fill="#fbe481"/><path d="m391.546 308.712c8.313 0 15.061 6.747 15.061 15.061 0 8.3-6.747 15.061-15.061 15.061h-15.061c-8.313 0-15.061-6.747-15.061-15.061 0-8.3 6.747-15.061 15.061-15.061z" fill="#fbe481"/><path d="m474.379 406.606c0-16.637-13.484-30.121-30.121-30.121-108.599 0-195.515 0-308.535 0-43.716 0-52.083 13.494-52.083 30.121 0 16.637 7.028 30.121 52.083 30.121h308.535c16.626 0 30.121-13.494 30.121-30.121z" fill="#c1e6f4"/><path d="m105.602 406.606c0-16.626 13.494-30.121 30.121-30.121h-67.98c-16.627 0-30.121 13.494-30.121 30.121 0 16.637 13.484 30.121 30.121 30.121h67.98c-16.637 0-30.121-13.484-30.121-30.121z" fill="#abe0f4"/><path d="m504.5 30.091c0-12.48-10.111-22.591-22.591-22.591h-395.869c-28.338 0-32.631 10.101-32.631 22.591 0 12.48 2.16 22.591 32.631 22.591h395.869c12.465 0 22.591-10.101 22.591-22.591z" fill="#ff938a"/><path d="m63.449 30.091c0-12.464 10.101-22.591 22.591-22.591h-55.949c-12.464 0-22.591 10.101-22.591 22.591 0 12.48 10.111 22.591 22.591 22.591h55.949c-12.48 0-22.591-10.111-22.591-22.591z" fill="#fd776a"/><path d="m481.909 0h-451.818c-16.592 0-30.091 13.498-30.091 30.091s13.499 30.091 30.091 30.091h37.682v30.152c0 4.142 3.357 7.5 7.5 7.5s7.5-3.358 7.5-7.5v-30.152h30.182v67.803c0 4.142 3.357 7.5 7.5 7.5s7.5-3.358 7.5-7.5v-67.803h30.183v45.212c0 4.142 3.357 7.5 7.5 7.5s7.5-3.358 7.5-7.5v-45.212h30.182v22.622c0 4.142 3.357 7.5 7.5 7.5s7.5-3.358 7.5-7.5v-22.622h30.18v37.682c0 4.142 3.357 7.5 7.5 7.5s7.5-3.358 7.5-7.5v-37.682h30.182v45.212c0 4.142 3.357 7.5 7.5 7.5s7.5-3.358 7.5-7.5v-45.212h30.182v60.273c0 4.142 3.357 7.5 7.5 7.5s7.5-3.358 7.5-7.5v-60.273h30.183v30.152c0 4.142 3.357 7.5 7.5 7.5s7.5-3.358 7.5-7.5v-30.152h30.182v60.273c0 4.142 3.357 7.5 7.5 7.5s7.5-3.358 7.5-7.5v-60.273h37.682c16.592 0 30.091-13.498 30.091-30.091s-13.501-30.091-30.093-30.091zm0 45.182h-451.818c-8.321 0-15.091-6.77-15.091-15.091s6.77-15.091 15.091-15.091h451.818c8.321 0 15.091 6.77 15.091 15.091s-6.77 15.091-15.091 15.091z"/><path d="m466.849 188.258h-12.551c-13.824 0-25.07 11.247-25.07 25.07v10.041c0 1.74.179 3.439.518 5.081-5.984 4.507-10.862 10.288-14.299 16.928l-10.199-40.786c-9.056-36.22-41.452-61.516-78.784-61.516h-140.928c-37.332 0-69.729 25.296-78.784 61.516l-10.198 40.787c-3.437-6.64-8.315-12.422-14.299-16.929.339-1.641.518-3.341.518-5.081v-10.041c0-13.824-11.246-25.07-25.07-25.07h-12.552c-16.592 0-30.091 13.499-30.091 30.091s13.499 30.091 30.091 30.091h12.551c6.606 0 12.619-2.572 17.101-6.762 4.827 4.09 8.478 9.433 10.527 15.508l3.036 10.224c-16.531 7.185-28.124 23.665-28.124 42.808v59.519c-17.163 3.486-30.121 18.692-30.121 36.869 0 20.744 16.877 37.621 37.621 37.621h22.621v26.386c0 22.82 18.566 41.387 41.387 41.387s41.387-18.566 41.387-41.387v-26.383h27.144c4.143 0 7.5-3.358 7.5-7.5 0-4.143-3.357-7.5-7.5-7.5-13.391 0-113.983-.003-132.538-.003-12.474 0-22.621-10.147-22.621-22.621s10.147-22.622 22.621-22.622h376.516c12.474 0 22.621 10.148 22.621 22.622s-10.147 22.621-22.621 22.621c-11.105 0-201.998.003-208.978.003-4.143 0-7.5 3.357-7.5 7.5 0 4.142 3.357 7.5 7.5 7.5h103.583v26.383c0 22.82 18.566 41.387 41.387 41.387s41.387-18.566 41.387-41.387v-26.386h22.621c20.744 0 37.621-16.877 37.621-37.621 0-18.177-12.958-33.383-30.121-36.869v-59.519c0-19.138-11.587-35.615-28.112-42.803l3.026-10.233c2.048-6.074 5.699-11.415 10.525-15.504 4.483 4.19 10.496 6.762 17.101 6.762h12.551c16.632 0 30.091-13.459 30.091-30.091-.001-16.593-13.501-30.091-30.092-30.091zm-409.147 45.181h-12.551c-8.321 0-15.091-6.77-15.091-15.091s6.77-15.091 15.091-15.091h12.551c5.553 0 10.07 4.518 10.07 10.07v10.041c0 5.554-4.517 10.071-10.07 10.071zm100.435 237.174c0 14.55-11.837 26.387-26.387 26.387s-26.387-11.837-26.387-26.387v-26.386h52.773v26.386zm248.5 0c0 14.55-11.837 26.387-26.387 26.387s-26.387-11.837-26.387-26.387v-26.386h52.773v26.386zm-221.101-312.537h140.928c30.436 0 56.85 20.624 64.231 50.154l13.836 55.33h-15.586l-12.919-51.659c-5.694-22.787-26.077-38.702-49.566-38.702h-25.59c-4.143 0-7.5 3.358-7.5 7.5s3.357 7.5 7.5 7.5h25.59c16.594 0 30.991 11.242 35.014 27.34l12.009 48.02h-234.966l12.01-48.022c4.022-16.097 18.42-27.338 35.014-27.338h80.35c4.143 0 7.5-3.358 7.5-7.5s-3.357-7.5-7.5-7.5h-80.35c-23.489 0-43.872 15.915-49.566 38.7l-12.919 51.66h-15.586l13.835-55.331c7.381-29.528 33.795-50.152 64.231-50.152zm130.736 210.908h-120.545v-32.159c0-11.366 9.247-20.613 20.613-20.613h79.318c11.366 0 20.613 9.247 20.613 20.613v32.159zm120.486-58.766v58.767h-105.486v-32.159c0-19.638-15.976-35.613-35.613-35.613h-79.318c-19.638 0-35.613 15.976-35.613 35.613v32.159h-105.486v-58.767c0-17.456 14.202-31.657 31.658-31.657 22.916 0 282.261.001 298.199 0 17.457-.001 31.659 14.201 31.659 31.657zm30.091-76.779h-12.551c-5.553 0-10.07-4.518-10.07-10.071v-10.041c0-5.553 4.518-10.07 10.07-10.07h12.551c8.321 0 15.091 6.77 15.091 15.091 0 8.342-6.749 15.091-15.091 15.091z"/><path d="m135.516 301.212h-15.061c-12.439 0-22.561 10.121-22.561 22.561 0 12.439 10.121 22.561 22.561 22.561h15.061c12.439 0 22.561-10.121 22.561-22.561-.001-12.44-10.122-22.561-22.561-22.561zm0 30.121h-15.061c-4.169 0-7.561-3.392-7.561-7.561s3.392-7.561 7.561-7.561h15.061c4.169 0 7.561 3.392 7.561 7.561-.001 4.169-3.392 7.561-7.561 7.561z"/><path d="m376.484 301.212c-12.44 0-22.561 10.121-22.561 22.561 0 12.439 10.121 22.561 22.561 22.561h15.061c12.44 0 22.561-10.121 22.561-22.561 0-12.439-10.121-22.561-22.561-22.561zm22.622 22.56c0 4.169-3.392 7.561-7.561 7.561h-15.061c-4.169 0-7.561-3.392-7.561-7.561s3.392-7.561 7.561-7.561h15.061c4.17.001 7.561 3.392 7.561 7.561z"/></g></g></g></svg>