<?xml version="1.0" encoding="utf-8"?>
<!-- Generator: Adobe Illustrator 24.3.0, SVG Export Plug-In . SVG Version: 6.00 Build 0)  -->
<svg version="1.1" id="delivery" xmlns="http://www.w3.org/2000/svg" xmlns:xlink="http://www.w3.org/1999/xlink" x="0px" y="0px"
	 viewBox="0 0 52 52" style="enable-background:new 0 0 52 52;" xml:space="preserve">
<style type="text/css">
	.st0{fill:#59BFC1;}
	.st1{fill:#FC785E;}
	.st2{fill:#2D4356;}
	.st3{fill:#E1EBF4;}
	.st4{fill:#FFDB80;}
	.st5{fill:#D68751;}
	.st6{opacity:0.3;fill:#D6F2F2;enable-background:new    ;}
	.st7{opacity:0.5;fill:#9FA5AA;enable-background:new    ;}
	.st8{opacity:0.5;fill:#FFFFFF;enable-background:new    ;}
	.st9{opacity:0.45;fill:#AD9359;enable-background:new    ;}
	.st10{opacity:0.3;fill:#E5D0C3;enable-background:new    ;}
	.st11{opacity:0.5;fill:#F9EDD2;enable-background:new    ;}
	.st12{opacity:0.4;fill:#72492D;enable-background:new    ;}
	.st13{opacity:0.5;fill:#A54B3F;enable-background:new    ;}
	.st14{opacity:0.3;fill:#18665C;enable-background:new    ;}
</style>
<g>
	<path class="st0" d="M6,44.2h13l0.5,1.5h19.9c4.9-5.2,10.4-1.4,10.4-1.4l1.1-0.7c-1-6.7-6.8-5.8-6.8-5.8s-0.7,1.4,0.5-4.5
		s-2.5-11-2.5-11l2.6-0.7l0.2-4.5l-1-1.7L40,17.3c0,0,0,0,0,0c1,2,0.3,4.4-1.7,5.4L39.6,36l-3.7,5.6h-7c0,0-4.4,0.6-5.2-3
		c-0.8-3.6,3.2-4.9,3.2-4.9v-2.2c0,0-9.2,0.6-9.2,0c0-0.6-6.5,0-6.5,0v2.3C5,38.7,6,44.2,6,44.2z"/>
	<path class="st1" d="M17.4,24.8l0.5,2.5h11.6v10.8l2.3,2.1l1.6-1.6l0.3-13.8l-6.5-2.4l2.1-7.3l7.2,5.8l1.6-2l-7-7.1
		c-2.7,1.5-6.1,0.8-8.1-1.6L17.4,24.8z"/>
	<path class="st2" d="M23.1,6c0,2.7,2.2,4.9,4.9,4.9s4.9-2.2,4.9-4.9S30.7,1.2,28,1.2C25.3,1.2,23.1,3.3,23.1,6z M24.7,6
		c0-1.8,1.5-3.3,3.3-3.3s3.3,1.5,3.3,3.3S29.8,9.3,28,9.3S24.7,7.8,24.7,6z"/>
	<path class="st3" d="M28,2.8c1.8,0,3.3,1.5,3.3,3.3S29.8,9.3,28,9.3S24.7,7.8,24.7,6S26.2,2.8,28,2.8z"/>
	<path class="st2" d="M0,29.3v2.4c0,0.4,0.4,0.8,0.8,0.8h9.9l-0.1,0.7c-0.7,0.4-1.3,0.9-1.9,1.4c-0.1,0-0.2,0-0.2,0h-2
		c-1.4,0-2.7,0.9-3.1,2.3l-0.6,2c-0.5,1.7,0.4,3.5,2.1,4.1c0,0.2,0,0.4,0,0.6l0,0c0,0.9,0.7,1.6,1.6,1.6H7c-0.1,0.3-0.1,0.5-0.1,0.8
		c0,2.7,2.2,4.9,4.9,4.9c2.7,0,4.9-2.2,4.9-4.9c0-0.3,0-0.5-0.1-0.8h1.7l0,0c0,0.9,0.7,1.6,1.6,1.6h19.2c0.5,0,0.9-0.2,1.2-0.6
		c0.1-0.1,0.2-0.2,0.3-0.3c0,0,0,0.1,0,0.1c0,0.4,0.1,0.7,0.1,1.1c0.6,2.6,3.2,4.2,5.9,3.6s4.2-3.2,3.6-5.9c0.1,0,0.1,0,0.1,0
		c0.4,0,0.8-0.1,1.1-0.4c0.5-0.4,0.7-1,0.5-1.6c-0.5-2.2-2.5-5.8-6.5-5.8c-0.1,0-0.2,0-0.3,0c0.7-3.2,1.2-8.5-1.6-13.9
		c1.3-0.1,2.3-1.1,2.3-2.4v-3.3c0-0.7-0.3-1.3-0.8-1.7c-0.8-0.8-1.9-0.9-2.9-0.4l-2.7,1.5c0.3,0.4,0.6,0.9,0.7,1.5l2.8-1.5
		c0.1-0.1,0.3-0.1,0.4-0.1c0.4,0,0.8,0.4,0.8,0.8v3.3c0,0.4-0.4,0.8-0.8,0.8h-2.9c6.4,8.5,2.2,17.8,2.2,17.8
		c0.2-0.1,0.4-0.2,0.7-0.3c0.7-0.2,1.3-0.4,2-0.4c3.8,0,4.9,4.6,4.9,4.6c-1.4-0.6-3-0.9-4.6-0.9c-2.6-0.1-5,1-6.7,2.8H19.9v-1.6H6.4
		c-0.1-3.9,2.2-7.6,5.7-9.3l0.2-1.7h14c-2.1,1-3.3,3.1-3.3,5.4c0,4,3.7,4.4,3.7,4.4h9.3l4.1-5.6l-1.5-14.1c-0.6,0.4-1.3,0.6-2,0.7
		c0.2,0.1,0.3,0.1,0.5,0.1l1.4,12.9l-3.2,4.4h-8.4c-0.6-0.1-2.1-0.6-2.1-2.8c0-2.8,2-3.8,2.2-3.9c0.1,0,0.2-0.1,0.2-0.1v-1.6
		c0.2-0.1,0.3-0.2,0.4-0.3c0-0.1,0.5-0.7,1.2-1.4v7.3c0,1.6,1.3,2.8,2.8,2.8s2.8-1.3,2.8-2.8V25.2c0-0.7-0.4-1.3-1.1-1.5l-5.6-1.9
		l1.8-5.1l5.2,4.5c0.9,0.8,2.3,0.7,3.2-0.1c0.9-0.9,1-2.4,0-3.4l-6.2-6.3c-0.5,0.3-1,0.7-1.6,0.9l0.2,0.1l6.5,6.6
		c0.3,0.3,0.3,0.8,0,1l0,0c-0.2,0.2-0.4,0.3-0.6,0.3c-0.2,0-0.4-0.1-0.5-0.2l-7.1-6l-3.2,8.9l7.2,2.4v12.6c0,0.7-0.5,1.2-1.2,1.2
		s-1.2-0.5-1.2-1.2v-11H18.6v-1.2l4.8-14.9c-0.4-0.4-0.8-0.9-1.1-1.4C22.1,9.5,22,9.8,21.9,10l-4.9,15c-0.1,0.2-0.1,0.3-0.1,0.5v1.2
		c0,0.3,0.1,0.6,0.2,0.8c-0.2,0.2-0.2,0.5-0.2,0.8v2.4h-1.6V17l0,0c0-0.9-0.7-1.6-1.6-1.6h-9l0,0c-0.9,0-1.6,0.7-1.6,1.6v13.8H1.5
		v-1.6c0-0.4-0.4-0.8-0.8-0.8S-0.1,28.8,0,29.3z M18.6,28.4h9.8c-0.9,1.2-2,2.4-2,2.4h-7.7V28.4z M44.1,48.9
		c-1.6-0.7-2.4-2.7-1.6-4.3c1-0.5,2.1-0.7,3.3-0.7c0.8,0,1.6,0.1,2.4,0.3c0.3,0.5,0.5,1.1,0.5,1.7c0,1.8-1.5,3.2-3.3,3.2
		C45,49.2,44.6,49.1,44.1,48.9z M11.7,49.2c-1.8,0-3.3-1.5-3.3-3.3c0-0.3,0-0.5,0.1-0.8h6.3c0.1,0.3,0.1,0.5,0.1,0.8l0,0
		C15,47.7,13.5,49.2,11.7,49.2L11.7,49.2z M7.2,36.2c-1.1,1.5-1.9,3.2-2.2,5c-0.6-0.4-0.9-1.2-0.7-1.9l0.6-2
		c0.2-0.7,0.9-1.1,1.6-1.1H7.2z M10.5,19.5H8V17h2.4V19.5z M4.9,30.8V17h1.6v2.4l0,0c0,0.9,0.7,1.6,1.6,1.6h2.4l0,0
		c0.9,0,1.6-0.7,1.6-1.6V17h1.6v13.8H4.9L4.9,30.8z"/>
	<path class="st1" d="M4.3,39.3l0.6-2c0.2-0.7,0.9-1.1,1.6-1.1h0.7c-1.1,1.5-1.9,3.2-2.2,5C4.4,40.8,4.1,40,4.3,39.3z"/>
	<path class="st2" d="M18.2,21.8h1.7l3.6-11c-0.4-0.4-0.8-0.9-1.1-1.4C22.2,9.5,22.1,9.8,22,10L18.2,21.8
		C18.2,21.7,18.2,21.8,18.2,21.8z"/>
	<path class="st3" d="M28.4,28.4c-0.9,1.2-2,2.4-2,2.4h-7.7v-2.4H28.4z"/>
	<path class="st4" d="M10.5,19.5H8V17h2.4V19.5z"/>
	<path class="st5" d="M6.5,17v2.4l0,0c0,0.9,0.7,1.6,1.6,1.6h2.4l0,0c0.9,0,1.6-0.7,1.6-1.6V17h1.6v13.8h-9V17H6.5z M8.6,45.1h6.3
		c0.1,0.3,0.1,0.5,0.1,0.8c0,1.8-1.5,3.3-3.3,3.3s-3.3-1.5-3.3-3.3C8.5,45.6,8.5,45.4,8.6,45.1z M42.5,44.6c1-0.5,2.1-0.7,3.3-0.7
		c0.8,0,1.6,0.1,2.4,0.3c0.3,0.5,0.5,1.1,0.5,1.7c0,1.8-1.5,3.3-3.3,3.3s-3.3-1.5-3.3-3.3C42.2,45.4,42.3,45,42.5,44.6z"/>
	<path class="st6" d="M40.3,18.2l2.8-1.5c0.1-0.1,0.3-0.1,0.4-0.1c0.4,0,0.8,0.4,0.8,0.8v0.8c0-0.4-0.4-0.8-0.8-0.8
		c-0.1,0-0.3,0.1-0.4,0.1l-2.6,1.4L40.3,18.2z M43.1,39.1c0.1,0,0.2-0.1,0.3-0.1c0.7-0.2,1.3-0.4,2-0.4c3.8,0,4.9,4.6,4.9,4.6
		c-0.1-0.1-0.2-0.1-0.3-0.1c-0.5-1.3-1.9-3.6-4.6-3.6c-0.7,0-1.4,0.1-2,0.4c-0.2,0.1-0.4,0.2-0.7,0.3C42.8,40.1,42.9,39.7,43.1,39.1
		z"/>
	<path class="st7" d="M24.8,5.6c0.2,1.5,1.3,2.6,2.8,2.8c1.8,0.2,3.4-1,3.6-2.8c0,0.2,0,0.3,0,0.4c0,1.8-1.5,3.3-3.3,3.3
		S24.7,7.8,24.7,6C24.7,5.9,24.7,5.8,24.8,5.6z"/>
	<path class="st8" d="M28,2.8c1.8,0,3.3,1.5,3.3,3.3c0,0.2,0,0.3,0,0.4C31,5,29.9,3.8,28.4,3.6c-1.8-0.2-3.4,1-3.6,2.8
		c0-0.2,0-0.3,0-0.4C24.7,4.2,26.2,2.8,28,2.8z"/>
	<path class="st9" d="M10.5,19.5H8v-0.8h2.4V19.5z"/>
	<path class="st10" d="M13.7,17.8h-1.6V17h1.6V17.8z M6.4,17.8H4.8V17h1.6C6.4,17,6.4,17.8,6.4,17.8z"/>
	<path class="st11" d="M10.5,17.8H8V17h2.4V17.8z"/>
	<path class="st12" d="M13.7,30.8h-9V30h9V30.8z"/>
	<path class="st13" d="M30.4,26.8H18.6V26h11.8V26.8z M31.7,38.2c0.7,0,1.2-0.5,1.2-1.2v0.8c0,0.7-0.5,1.2-1.2,1.2s-1.2-0.5-1.2-1.2
		V37C30.4,37.6,31,38.2,31.7,38.2z"/>
	<path class="st14" d="M19.9,44.3H39c1.7-1.8,4.2-2.9,6.7-2.8c1.5,0,2.9,0.3,4.2,0.8c0.1,0.3,0.2,0.6,0.3,0.9
		c-1.4-0.6-3-0.9-4.6-0.9c-2.6-0.1-5,1-6.7,2.8H19.9V44.3L19.9,44.3z M6.4,42.7h13.4v0.8H6.4C6.4,43.2,6.4,42.9,6.4,42.7z"/>
	<path class="st12" d="M8.5,45.5c0.2,1.5,1.4,2.6,2.8,2.8c1.8,0.2,3.4-1,3.6-2.8c0,0.1,0,0.3,0,0.4c0,1.8-1.5,3.3-3.3,3.3
		s-3.3-1.5-3.3-3.3C8.5,45.8,8.5,45.6,8.5,45.5z M42.2,45.5c0.2,1.5,1.4,2.6,2.8,2.8c1.8,0.2,3.4-1,3.6-2.8c0,0.1,0,0.3,0,0.4
		c0,1.8-1.5,3.3-3.3,3.3s-3.3-1.5-3.3-3.3C42.2,45.8,42.2,45.6,42.2,45.5z"/>
</g>
</svg>
