<?xml version="1.0" encoding="utf-8"?>
<!-- Generator: Adobe Illustrator 24.3.0, SVG Export Plug-In . SVG Version: 6.00 Build 0)  -->
<svg version="1.1" id="Layer_1" xmlns="http://www.w3.org/2000/svg" xmlns:xlink="http://www.w3.org/1999/xlink" x="0px" y="0px"
	 viewBox="0 0 52 52" style="enable-background:new 0 0 52 52;" xml:space="preserve">
<style type="text/css">
	.st0{fill:#D7E9F2;}
	.st1{fill:#51BF9F;}
	.st2{fill:#F0D39A;}
	.st3{fill:#FFE5AB;}
</style>
<g>
	<path d="M44.2,36.1c-1.5-0.8-3.1-1.4-4.3-1.7c0.7-3.1,2.9-13.8,2.9-19.4c0-4-1.4-9.3-5.3-12.4c-3-2.4-6.9-3.1-11.6-2.1
		c-4.7-0.9-8.5-0.2-11.4,2.2c-3.9,3.2-5.3,8.9-5.3,13.1c0,5.5,1.5,15.9,2,18.9c-0.5,0.1-1,0.3-1.5,0.5c-4.9,1.9-7.5,5.2-7.5,9.5v5
		c0,0.4,0.3,0.7,0.7,0.8c7.4,1.1,14.9,1.6,22.6,1.6c7.7,0,15.5-0.5,23.4-1.6c0.4-0.1,0.7-0.4,0.7-0.8v-5
		C49.7,41,47.8,38.1,44.2,36.1z M10.8,15.8c0-3.9,1.2-9.1,4.7-11.9c2.5-2.1,6-2.7,10.2-1.8c0.1,0,0.2,0,0.3,0
		c4.3-0.9,7.8-0.3,10.4,1.8c3.4,2.8,4.7,7.6,4.7,11.2c0,5.4-2.2,16.1-2.8,19.1c-0.8-0.2-1.3-0.2-1.3-0.2c-0.6-0.1-1.2-0.3-1.6-0.4
		c-2.4-0.8-3.2-1.9-3.5-3.6c2.2-2.4,3.6-6.2,3.6-10.3c0-0.9-0.1-1.7-0.2-2.5c0-0.2-0.1-0.3-0.2-0.4c-0.7-0.8-3.4-3.3-8.2-4.3
		c-3.6-0.7-5.5-2.9-5.8-3.3c-0.1-0.2-0.3-0.3-0.6-0.3c-0.2,0-0.5,0.1-0.6,0.2c-2.5,2.5-3.9,6.4-3.9,10.6c0,4.4,1.6,8.2,4,10.7
		c-0.3,1.5-1.1,2.6-3.4,3.3l-0.3,0.1h0c-0.4,0.1-0.8,0.2-1.3,0.3c-0.2,0-1.1,0.1-2.3,0.4C12.3,31.1,10.8,21.1,10.8,15.8L10.8,15.8z
		 M21.3,31.2c1.3,1,2.9,1.5,4.5,1.5c1.7,0,3.4-0.6,4.8-1.7c0.4,1.3,1.2,2.5,2.9,3.4c-1.2,3.1-4.2,5.2-7.5,5.2
		c-2.1,0-4.2-0.8-5.7-2.4c-0.8-0.8-1.4-1.8-1.8-2.8C19.9,33.7,20.8,32.6,21.3,31.2L21.3,31.2z M17.6,19.4c0-3.5,1-6.6,2.9-8.9
		c1,1,3,2.6,6.1,3.2c4,0.8,6.5,2.9,7.2,3.6c0.1,0.6,0.1,1.3,0.1,2c0,6.5-3.7,11.7-8.2,11.7C21.3,31.2,17.6,25.9,17.6,19.4L17.6,19.4
		z M48.1,48.9c-15.2,2-30.1,2-44.2,0v-4.3c0-3.6,2.2-6.3,6.5-8c2.5-1,4.9-1.2,4.9-1.2c0,0,0.1,0,0.1,0c0.5-0.1,0.9-0.2,1.4-0.3
		c0,0,0.1,0,0.1,0L17,35c0.5,1.3,1.2,2.4,2.2,3.4c1.8,1.8,4.2,2.8,6.8,2.8c4,0,7.6-2.5,9-6.2c0.5,0.2,1,0.3,1.8,0.4
		c0,0,0.8,0.1,2,0.4h0c0,0,0,0,0,0l0.1,0c1.2,0.3,2.9,0.8,4.5,1.7c3.1,1.7,4.6,4.1,4.6,7.1V48.9z"/>
	<path class="st0" d="M41.2,15c0,5.4-2.2,16.1-2.8,19.1c-0.8-0.2-1.3-0.2-1.3-0.2c-0.6-0.1-1.2-0.3-1.6-0.4
		c-2.4-0.8-3.2-1.9-3.5-3.6c2.2-2.4,3.6-6.2,3.6-10.3c0-0.9-0.1-1.7-0.2-2.5c0-0.2-0.1-0.3-0.2-0.4c-0.7-0.8-3.4-3.3-8.2-4.3
		c-3.6-0.7-5.5-2.9-5.8-3.3c-0.1-0.2-0.3-0.3-0.6-0.3c-0.2,0-0.5,0.1-0.6,0.2c-2.5,2.5-3.9,6.4-3.9,10.6c0,4.4,1.6,8.2,4,10.7
		c-0.3,1.5-1.1,2.6-3.4,3.3l-0.3,0.1h0c-0.4,0.1-0.8,0.2-1.3,0.3c-0.2,0-1.1,0.1-2.3,0.4c-0.5-3.2-2-13.2-2-18.5
		c0-3.9,1.2-9.1,4.7-11.9c2.5-2.1,6-2.7,10.2-1.8c0.1,0,0.2,0,0.3,0c4.3-0.9,7.8-0.3,10.4,1.8C39.9,6.5,41.2,11.4,41.2,15L41.2,15z"
		/>
	<path class="st1" d="M48.1,44.6v4.3c-15.2,2-30.1,2-44.2,0v-4.3c0-3.6,2.2-6.3,6.5-8c2.5-1,4.9-1.2,4.9-1.2c0,0,0.1,0,0.1,0
		c0.5-0.1,0.9-0.2,1.4-0.3c0,0,0.1,0,0.1,0L17,35c0.5,1.3,1.2,2.4,2.2,3.4c1.8,1.8,4.2,2.8,6.8,2.8c4,0,7.6-2.5,9-6.2
		c0.5,0.2,1,0.3,1.8,0.4c0,0,0.8,0.1,2,0.4h0c0,0,0,0,0,0l0.1,0c1.2,0.3,2.9,0.8,4.5,1.7C46.6,39.2,48.1,41.6,48.1,44.6L48.1,44.6z"
		/>
	<path class="st2" d="M33.5,34.4c-1.2,3.1-4.2,5.2-7.5,5.2c-2.1,0-4.2-0.8-5.7-2.4c-0.8-0.8-1.4-1.8-1.8-2.8
		c1.4-0.7,2.4-1.7,2.9-3.1c1.3,1,2.9,1.5,4.5,1.5c1.7,0,3.4-0.6,4.8-1.7C31,32.3,31.8,33.5,33.5,34.4L33.5,34.4z"/>
	<path class="st3" d="M34,19.4c0,6.5-3.7,11.7-8.2,11.7c-4.5,0-8.2-5.3-8.2-11.7c0-3.5,1-6.6,2.9-8.9c1,1,3,2.6,6.1,3.2
		c4,0.8,6.5,2.9,7.2,3.6C33.9,18.1,34,18.8,34,19.4L34,19.4z"/>
</g>
</svg>
