<?xml version="1.0" encoding="utf-8"?>
<!-- Generator: Adobe Illustrator 24.3.0, SVG Export Plug-In . SVG Version: 6.00 Build 0)  -->
<svg version="1.1" id="food-delivery" xmlns="http://www.w3.org/2000/svg" xmlns:xlink="http://www.w3.org/1999/xlink" x="0px"
	 y="0px" viewBox="0 0 52 52" style="enable-background:new 0 0 52 52;" xml:space="preserve">
<style type="text/css">
	.st0{fill:#C5DFDC;}
	.st1{fill:#682F2A;}
	.st2{fill:#616B77;}
	.st3{fill:#FFFFFF;}
	.st4{fill:#559AFF;}
	.st5{opacity:0.4;}
	.st6{fill:#FF8C83;}
	.st7{fill:#FECD04;}
	.st8{fill:#6CD8D5;}
	.st9{fill:#ABB734;}
	.st10{fill:#ED2F58;}
	.st11{fill:#FA4968;}
</style>
<g>
	<g>
		<path class="st0" d="M40.3,18.2h-4.9v-3.5c0-0.8,0.6-1.3,1.3-1.3h3.6V18.2L40.3,18.2z"/>
		<path class="st1" d="M40.3,18.9h-4.9c-0.4,0-0.6-0.3-0.6-0.6v-3.5c0-1.1,0.9-1.9,1.9-1.9h3.6c0.4,0,0.6,0.3,0.6,0.6v4.8
			C40.9,18.6,40.6,18.9,40.3,18.9z M36,17.6h3.6v-3.5h-3c-0.4,0-0.7,0.3-0.7,0.7V17.6z"/>
	</g>
	<g>
		<circle class="st2" cx="10.9" cy="44.3" r="5.6"/>
		<path class="st1" d="M10.9,50.5c-3.4,0-6.2-2.8-6.2-6.2s2.8-6.2,6.2-6.2s6.2,2.8,6.2,6.2S14.3,50.5,10.9,50.5z M10.9,39.4
			c-2.7,0-4.9,2.2-4.9,4.9s2.2,4.9,4.9,4.9s4.9-2.2,4.9-4.9C15.8,41.6,13.6,39.4,10.9,39.4z"/>
	</g>
	<g>
		<ellipse class="st2" cx="45.8" cy="44.3" rx="5.6" ry="5.6"/>
		<path class="st1" d="M45.8,50.5c-0.3,0-0.7,0-1-0.1c-3.4-0.5-5.7-3.7-5.1-7.1c0.3-1.6,1.1-3.1,2.5-4.1c1.4-1,3-1.4,4.6-1.1
			c1.6,0.3,3.1,1.1,4.1,2.5c1,1.4,1.4,3,1.1,4.6C51.4,48.3,48.8,50.5,45.8,50.5z M45.8,39.4c-1,0-2,0.3-2.9,0.9
			c-1.1,0.8-1.8,1.9-2,3.2c-0.4,2.7,1.4,5.2,4.1,5.7s5.2-1.4,5.7-4.1c0.2-1.3-0.1-2.6-0.9-3.7c-0.8-1.1-1.9-1.8-3.2-2
			C46.3,39.4,46,39.4,45.8,39.4z"/>
	</g>
	<g>
		<path class="st3" d="M45.8,46.8c-1.4,0-2.5-1.1-2.5-2.5s1.1-2.5,2.5-2.5s2.5,1.1,2.5,2.5S47.2,46.8,45.8,46.8z M10.9,46.8
			c-1.4,0-2.5-1.1-2.5-2.5s1.1-2.5,2.5-2.5s2.5,1.1,2.5,2.5S12.2,46.8,10.9,46.8z"/>
		<path class="st1" d="M45.8,47.5c-1.7,0-3.2-1.4-3.2-3.2s1.4-3.2,3.2-3.2s3.2,1.4,3.2,3.2C49,46.1,47.5,47.5,45.8,47.5z M45.8,42.4
			c-1,0-1.9,0.9-1.9,1.9c0,1,0.9,1.9,1.9,1.9c1,0,1.9-0.9,1.9-1.9C47.7,43.3,46.8,42.4,45.8,42.4z M10.9,47.5
			c-1.7,0-3.2-1.4-3.2-3.2s1.4-3.2,3.2-3.2s3.2,1.4,3.2,3.2C14,46.1,12.6,47.5,10.9,47.5z M10.9,42.4c-1,0-1.9,0.9-1.9,1.9
			c0,1,0.9,1.9,1.9,1.9s1.9-0.9,1.9-1.9C12.7,43.3,11.9,42.4,10.9,42.4z"/>
	</g>
	<g>
		<path class="st0" d="M39.8,37.9c-2.6,2.4-2.7,6.7-0.3,9.3l9.4-9C46.5,35.5,42.4,35.5,39.8,37.9z"/>
		<path class="st1" d="M39.5,47.8L39.5,47.8c-0.2,0-0.3-0.1-0.5-0.2c-1.3-1.4-2-3.2-1.9-5.2c0.1-1.9,0.9-3.7,2.2-5l0,0
			c2.9-2.7,7.4-2.6,10.1,0.3c0.2,0.3,0.2,0.6,0,0.9l-9.4,9C39.9,47.7,39.7,47.8,39.5,47.8z M40.2,38.4c-1.1,1.1-1.8,2.5-1.8,4.1
			c-0.1,1.4,0.4,2.7,1.2,3.8l8.5-8.1C45.8,36.3,42.4,36.3,40.2,38.4L40.2,38.4z"/>
	</g>
	<g>
		<path class="st4" d="M7,38.3l2.5-6.7h14.6l-1.8,5.7c-0.1,0.2-0.1,0.3-0.1,0.6v2.9c0,1,0.8,1.8,1.8,1.8h9.6c1,0,1.8-0.8,1.8-1.8
			V16.3h2.1L44,33.9c0.2,0.6,0.1,1.1-0.2,1.6l-6,8.7C37.5,44.7,37,45,36.4,45H19.9L7,38.3z"/>
		<path class="st1" d="M36.3,45.6H19.9c-0.1,0-0.2,0-0.3-0.1L6.7,38.9c-0.3-0.2-0.4-0.5-0.3-0.8l2.5-6.7c0.1-0.3,0.3-0.4,0.6-0.4
			h14.6c0.2,0,0.4,0.1,0.5,0.3c0.1,0.2,0.2,0.4,0.1,0.6l-1.8,5.7c0,0,0,0.1,0,0.1c0,0,0,0.2,0,0.3v2.9c0,0.6,0.5,1.2,1.2,1.2h9.6
			c0.6,0,1.2-0.5,1.2-1.2V16.3c0-0.4,0.3-0.6,0.6-0.6h2.1c0.3,0,0.5,0.2,0.6,0.4l6.4,17.5c0,0,0,0,0,0.1c0.2,0.7,0.1,1.4-0.2,2.1
			c0,0,0,0.1-0.1,0.1l-6,8.7C37.9,45.2,37.2,45.6,36.3,45.6z M20.1,44.3h16.3c0.4,0,0.8-0.2,1-0.5l6-8.7c0.2-0.4,0.2-0.8,0.1-1.1
			L37.2,17h-1v23.8c0,1.3-1.1,2.4-2.4,2.4H24c-1.3,0-2.4-1.1-2.4-2.4v-2.9c0-0.3,0-0.5,0.1-0.8l1.5-4.9H10L7.8,38L20.1,44.3z"/>
	</g>
	<g class="st5">
		<g>
			<path class="st3" d="M38.2,39.2c0,0-0.1,0-0.1,0C38,39.2,38,39,38.1,39l3.1-4.6L40,31c0-0.1,0-0.2,0.1-0.2c0.1,0,0.2,0,0.2,0.1
				l1.2,3.5c0,0.1,0,0.1,0,0.2l-3.2,4.7C38.3,39.2,38.3,39.2,38.2,39.2z"/>
		</g>
		<g>
			<path class="st3" d="M38.6,27c-0.1,0-0.2-0.1-0.2-0.1l-0.6-1.7c0-0.1,0-0.2,0.1-0.2s0.2,0,0.2,0.1l0.6,1.7
				C38.8,26.9,38.8,27,38.6,27C38.7,27,38.7,27,38.6,27z"/>
		</g>
	</g>
	<g>
		<path class="st0" d="M19.8,44.9c-0.2-5.3-4.1-9.5-9-9.5s-8.8,4.2-9,9.5H19.8z M23.7,31.6H8.6c-1.1,0-1.9-0.8-1.9-1.9l0,0
			c0-1.1,0.8-1.9,1.9-1.9h15.2c1.1,0,1.9,0.8,1.9,1.9l0,0C25.6,30.8,24.8,31.6,23.7,31.6z"/>
		<path class="st1" d="M19.8,45.6h-18c-0.2,0-0.3-0.1-0.5-0.2c-0.1-0.1-0.2-0.3-0.2-0.5c0.2-5.7,4.4-10.1,9.6-10.1s9.5,4.4,9.7,10.1
			c0,0.2-0.1,0.3-0.2,0.5C20.1,45.5,20,45.6,19.8,45.6z M2.4,44.3h16.7c-0.4-4.7-4-8.2-8.3-8.2C6.4,36.1,2.9,39.6,2.4,44.3z
			 M23.7,32.2H8.6c-1.4,0-2.5-1.1-2.5-2.5c0-1.4,1.1-2.5,2.5-2.5h15.2c1.4,0,2.5,1.1,2.5,2.5C26.3,31.1,25.1,32.2,23.7,32.2z
			 M8.6,28.4c-0.7,0-1.2,0.5-1.2,1.2s0.5,1.2,1.2,1.2h15.2c0.7,0,1.2-0.5,1.2-1.2s-0.5-1.2-1.2-1.2H8.6z"/>
	</g>
	<g>
		<path class="st3" d="M37.4,16.6c0,0.7-0.4,1.3-1.1,1.6l-3.3,1.3c-1.1,0.5-2.4,0.2-3.3-0.8l-2.3-2.5L26,24.5h-7.4
			c0-0.2,0-0.3,0.1-0.4l1.6-8.7c0.4-2.4,2.5-4.3,5.1-4.3c1.4,0,2.7,0.6,3.6,1.6l3.3,3.5l2.9-1.1C36.3,14.6,37.4,15.5,37.4,16.6z"/>
		<path class="st1" d="M26,24.6h-7.4c-0.1,0-0.2-0.1-0.2-0.2c0-0.2,0-0.3,0.1-0.5l1.6-8.7c0.4-2.6,2.7-4.4,5.3-4.4
			c1.5,0,2.8,0.6,3.7,1.6l3.2,3.4l2.8-1.1c0.6-0.2,1.2-0.1,1.7,0.3c0.5,0.4,0.8,0.9,0.8,1.5c0,0.8-0.5,1.5-1.2,1.7l-3.3,1.3
			c-1.2,0.5-2.6,0.2-3.5-0.8l-2-2.2l-1.4,7.9C26.2,24.6,26.1,24.6,26,24.6z M18.8,24.3h7l1.4-8.1c0-0.1,0.1-0.1,0.1-0.2
			c0.1,0,0.2,0,0.2,0.1l2.3,2.5c0.8,0.9,2,1.1,3.1,0.7l3.3-1.3c0.6-0.2,1-0.8,1-1.4c0-0.5-0.2-0.9-0.6-1.2c-0.4-0.3-0.9-0.4-1.4-0.3
			l-2.9,1.1c-0.1,0-0.2,0-0.2-0.1l-3.3-3.5c-0.9-1-2.1-1.5-3.5-1.5c-2.4,0-4.5,1.7-4.9,4.1l-1.6,8.7c0,0,0,0,0,0.1
			C18.8,24.2,18.8,24.2,18.8,24.3z"/>
	</g>
	<g>
		<path class="st6" d="M37.4,16.6c0,0.7-0.4,1.3-1.1,1.6L35,18.7l-0.9-3.3l1.1-0.4C36.3,14.6,37.4,15.5,37.4,16.6z"/>
		<path class="st1" d="M34.9,18.9C34.9,18.9,34.9,18.9,34.9,18.9c-0.1-0.1-0.2-0.1-0.2-0.2l-0.9-3.3c0-0.1,0-0.2,0.1-0.2l1.1-0.4
			c0.6-0.2,1.2-0.1,1.7,0.2c0.5,0.4,0.8,0.9,0.8,1.5c0,0.8-0.5,1.5-1.2,1.7L34.9,18.9C35,18.9,35,18.9,34.9,18.9z M34.3,15.6
			l0.8,2.9l1.2-0.5c0.6-0.2,1-0.8,1-1.4c0-0.5-0.2-0.9-0.6-1.2c-0.4-0.3-0.9-0.3-1.4-0.2L34.3,15.6z"/>
	</g>
	<g>
		<path class="st7" d="M34.9,18.7L33,19.5c-1.1,0.5-2.4,0.2-3.3-0.8l-2.3-2.6L26,24.5h-7.4c0-0.2,0-0.3,0.1-0.4l1.6-8.7
			c0.4-2.4,2.5-4.3,5.1-4.3c1.4,0,2.7,0.6,3.6,1.6l3.3,3.5l1.9-0.8L34.9,18.7z"/>
		<path class="st1" d="M26,25.1h-7.4c-0.4,0-0.6-0.3-0.6-0.6c0-0.2,0-0.4,0.1-0.6l1.5-8.6c0.5-2.8,2.9-4.8,5.7-4.8
			c1.6,0,3.1,0.6,4.1,1.8l3,3.1l1.5-0.6c0.2-0.1,0.4-0.1,0.5,0c0.2,0.1,0.3,0.2,0.3,0.4l0.8,3.4c0.1,0.3-0.1,0.6-0.4,0.7l-1.9,0.8
			c-1.4,0.6-3,0.2-4-0.9l-1.4-1.6l-1.2,7C26.6,24.9,26.3,25.1,26,25.1z M19.4,23.8h6.1l1.4-7.7c0.1-0.2,0.2-0.4,0.5-0.5
			c0.2-0.1,0.5,0,0.6,0.2l2.3,2.6c0.6,0.7,1.7,0.9,2.5,0.6l1.4-0.6l-0.5-2.1l-1.2,0.5c-0.2,0.1-0.5,0-0.7-0.2l-3.3-3.5
			c-0.8-0.9-1.9-1.4-3.1-1.4c-2.2,0-4.1,1.6-4.5,3.7L19.4,23.8z"/>
	</g>
	<g>
		<path class="st2" d="M31.6,28.3v11.3h-3.5V29.2l-6.5-1c-1.8-0.3-3.1-1.9-3-3.8H26l3.5,1.1C30.7,25.9,31.6,27.1,31.6,28.3z"/>
		<path class="st1" d="M31.6,40.3h-3.5c-0.4,0-0.6-0.3-0.6-0.6v-9.9l-5.9-0.9c-2.1-0.3-3.7-2.2-3.6-4.4c0-0.3,0.3-0.6,0.6-0.6H26
			c0.1,0,0.1,0,0.2,0l3.5,1.1c1.5,0.5,2.6,2,2.6,3.5v11.3C32.2,40,32,40.3,31.6,40.3z M28.8,39H31V28.3c0-0.9-0.8-1.9-1.7-2.3
			l-3.4-1h-6.6c0.2,1.3,1.2,2.3,2.5,2.5l6.5,1c0.3,0.1,0.5,0.3,0.5,0.6L28.8,39L28.8,39z"/>
	</g>
	<g>
		<path class="st7" d="M33.1,42.6h-3.6c-0.8,0-1.4-0.7-1.4-1.4v-1.6h3.6c0.8,0,1.4,0.7,1.4,1.4V42.6z"/>
		<path class="st1" d="M33.1,42.8h-3.6c-0.9,0-1.6-0.7-1.6-1.6v-1.6c0-0.1,0.1-0.2,0.2-0.2h3.6c0.9,0,1.6,0.7,1.6,1.6v1.6
			C33.3,42.7,33.3,42.8,33.1,42.8z M28.3,39.8v1.4c0,0.6,0.4,1.2,1.2,1.2h3.4V41c0-0.6-0.4-1.2-1.2-1.2H28.3z"/>
	</g>
	<g>
		<path class="st8" d="M30.2,11.8c0.5-0.8,0.8-3.3,0.8-4.3c0-2.9-2.1-5.3-4.8-5.3s-4.7,2.4-4.7,5.3c0,1.1,0.3,2.1,0.8,3L30.2,11.8z"
			/>
		<path class="st1" d="M30.2,12.5c0,0-0.1,0-0.1,0l-7.9-1.3c-0.2,0-0.4-0.2-0.5-0.3c-0.6-1.1-0.9-2.2-0.9-3.4c0-3.4,2.3-6,5.3-6
			c3,0,5.4,2.7,5.4,6c0,0.8-0.2,3.6-0.8,4.7C30.6,12.4,30.4,12.5,30.2,12.5z M22.7,10l7.1,1.2c0.3-0.9,0.5-2.7,0.5-3.6
			c0-2.6-1.8-4.7-4.1-4.7c-2.3,0-4,2.1-4,4.7C22.1,8.3,22.3,9.1,22.7,10z"/>
	</g>
	<g>
		<path class="st9" d="M30.2,11.8l-7.8-1.4c-0.5-0.8-0.8-1.9-0.8-3c0-2.9,2.1-5.3,4.7-5.3c2.1,0,4,1.6,4.5,3.8L27,5.7l-0.1,2.4
			l3.9,2l0.3-3c0,0.1,0,0.3,0,0.3C31,8.5,30.8,10.9,30.2,11.8z"/>
		<path class="st1" d="M30.2,12.5c0,0-0.1,0-0.1,0l-7.8-1.4c-0.2,0-0.3-0.2-0.4-0.3c-0.6-1-0.9-2.2-0.9-3.4c0-3.4,2.3-6,5.3-6
			c2.4,0,4.5,1.7,5.1,4.2c0.1,0.2,0,0.4-0.1,0.6c0,0.1-0.1,0.1-0.1,0.1c0.3,0.1,0.5,0.3,0.5,0.6v0.3v0c0,0.3-0.1,1.3-0.2,2.3l0,0.4
			c0,0.1-0.1,0.2-0.1,0.3c-0.2,0.7-0.3,1.4-0.6,1.8C30.6,12.4,30.4,12.5,30.2,12.5z M22.8,9.9l7,1.2c0.1-0.2,0.2-0.5,0.2-0.8
			l-3.4-1.7c-0.2-0.1-0.4-0.3-0.3-0.6l0.1-2.4c0-0.2,0.1-0.3,0.2-0.4C26.7,5.1,26.9,5,27,5l2.8,0.1c-0.7-1.5-2.1-2.4-3.6-2.4
			c-2.3,0-4,2.1-4,4.7C22.2,8.3,22.4,9.1,22.8,9.9z M27.6,7.7L30.2,9l0.2-2.1c0-0.2,0.1-0.4,0.3-0.5l-3-0.1L27.6,7.7z"/>
	</g>
	<g>
		<path class="st7" d="M42,18.2h-1.7v-4.8l2.4,1.6c0.3,0.3,0.6,0.7,0.6,1.1v1C43.2,17.6,42.6,18.2,42,18.2z"/>
		<path class="st1" d="M42,18.9h-1.7c-0.4,0-0.6-0.3-0.6-0.6v-4.8c0-0.2,0.1-0.4,0.3-0.6c0.2-0.1,0.4-0.1,0.6,0l2.4,1.6
			c0,0,0,0,0.1,0c0.5,0.4,0.8,1,0.8,1.6v1c0,0,0,0.1,0,0.1C43.8,18.1,43,18.9,42,18.9z M40.9,17.6H42c0.3,0,0.6-0.3,0.7-0.6V16
			c0-0.2-0.1-0.4-0.3-0.5l-1.5-0.9V17.6z"/>
	</g>
	<g>
		<path class="st10" d="M14.7,27.8h-12c-0.8,0-1.4-0.7-1.4-1.4v-9.9c0-0.8,0.7-1.4,1.4-1.4h12c0.8,0,1.4,0.7,1.4,1.4v9.9
			C16.1,27.2,15.5,27.8,14.7,27.8z"/>
		<path class="st1" d="M14.7,28.5h-12c-1.1,0-2-0.9-2-2v-9.8c0-1.1,0.9-2,2-2h12c1.1,0,2,0.9,2,2v9.9c0,0.5-0.2,1-0.5,1.4
			C15.8,28.2,15.3,28.5,14.7,28.5z M2.7,15.8c-0.4,0-0.8,0.4-0.8,0.8v9.9c0,0.4,0.4,0.8,0.8,0.8h12c0.2,0,0.4-0.1,0.6-0.2
			c0.1-0.1,0.2-0.3,0.2-0.5v-9.9c0-0.4-0.4-0.8-0.8-0.8H2.7z"/>
	</g>
	<g>
		<path class="st11" d="M1.3,18.1v8.4c0,0.8,0.6,1.3,1.3,1.3h12.1c0.8,0,1.3-0.6,1.3-1.3v-8.4H1.3z"/>
		<path class="st1" d="M14.7,28.4H2.6c-1.1,0-1.9-0.9-1.9-1.9v-8.3c0-0.4,0.3-0.6,0.6-0.6H16c0.4,0,0.6,0.3,0.6,0.6v8.4
			C16.6,27.5,15.8,28.4,14.7,28.4z M1.9,18.7v7.7c0,0.4,0.3,0.7,0.7,0.7h12.1c0.4,0,0.7-0.3,0.7-0.7v-7.7H1.9z"/>
	</g>
	<g>
		<path class="st1" d="M8.6,28H0.2C0.1,28,0,27.9,0,27.8c0-0.1,0.1-0.2,0.2-0.2h8.4c0.1,0,0.2,0.1,0.2,0.2C8.7,27.9,8.7,28,8.6,28z"
			/>
	</g>
	<g>
		<circle class="st9" cx="8.7" cy="22.1" r="1.7"/>
		<path class="st1" d="M8.7,24c-1,0-1.9-0.9-1.9-1.9s0.9-1.9,1.9-1.9s1.9,0.9,1.9,1.9S9.7,24,8.7,24z M8.7,20.6
			c-0.8,0-1.5,0.7-1.5,1.5s0.7,1.5,1.5,1.5c0.8,0,1.5-0.7,1.5-1.5S9.5,20.6,8.7,20.6z"/>
	</g>
	<g>
		<path class="st0" d="M10.3,25.5H7.1c-1.3,0-2.4-1.1-2.4-2.4l0,0h8.1l0,0C12.7,24.5,11.7,25.5,10.3,25.5z"/>
		<path class="st1" d="M10.3,25.7H7.1c-1.4,0-2.6-1.1-2.6-2.6C4.5,23,4.6,23,4.7,23h8.1c0.1,0,0.1,0,0.1,0.1c0,0,0.1,0.1,0.1,0.1
			C12.9,24.6,11.8,25.7,10.3,25.7z M4.9,23.3c0.1,1.1,1,2,2.2,2h3.3c1.1,0,2.1-0.9,2.2-2H4.9z"/>
	</g>
</g>
</svg>
