<?xml version="1.0" encoding="utf-8"?>
<!-- Generator: Adobe Illustrator 24.3.0, SVG Export Plug-In . SVG Version: 6.00 Build 0)  -->
<svg version="1.1" id="Capa_1" xmlns="http://www.w3.org/2000/svg" xmlns:xlink="http://www.w3.org/1999/xlink" x="0px" y="0px"
	 viewBox="0 0 52 52" style="enable-background:new 0 0 52 52;" xml:space="preserve">
<style type="text/css">
	.st0{fill:#73C3FF;}
	.st1{fill:#6EE5A1;}
	.st2{fill:#939393;}
	.st3{fill:#F8F6F6;}
	.st4{fill:#FEDBA6;}
</style>
<g>
	<g>
		<path class="st0" d="M48.6,22.8h-4c-0.4-1.7-1-3.2-1.9-4.6l2.9-2.9c0.3-0.3,0.3-0.7,0-1L42,10.8c-0.3-0.3-0.7-0.3-1,0l-2.9,2.9
			c-1.4-0.9-2.9-1.5-4.6-1.9v-4c0-0.4-0.3-0.7-0.7-0.7h-5c-0.4,0-0.7,0.3-0.7,0.7v4c-1.7,0.4-3.2,1-4.6,1.9l-2.9-2.9
			c-0.3-0.3-0.7-0.3-1,0l-3.5,3.5c-0.3,0.3-0.3,0.7,0,1l2.9,2.9c-0.9,1.4-1.5,2.9-1.9,4.6h-4c-0.4,0-0.7,0.3-0.7,0.7v5
			c0,0.4,0.3,0.7,0.7,0.7h4c0.4,1.7,1,3.2,1.9,4.6l-2.9,2.9c-0.3,0.3-0.3,0.7,0,1l3.5,3.5c0.3,0.3,0.7,0.3,1,0l2.9-2.9
			c1.4,0.9,2.9,1.5,4.6,1.9v4c0,0.4,0.3,0.7,0.7,0.7h5c0.4,0,0.7-0.3,0.7-0.7v-4c1.7-0.4,3.2-1,4.6-1.9l2.9,2.9c0.3,0.3,0.7,0.3,1,0
			l3.5-3.5c0.3-0.3,0.3-0.7,0-1l-2.9-2.9c0.9-1.4,1.5-2.9,1.9-4.6h4c0.4,0,0.7-0.3,0.7-0.7v-5C49.3,23.1,49,22.8,48.6,22.8
			L48.6,22.8z M30.3,34.7c-4.8,0-8.7-3.9-8.7-8.7s3.9-8.7,8.7-8.7s8.7,3.9,8.7,8.7S35.2,34.7,30.3,34.7z"/>
	</g>
	<g>
		<g>
			<path class="st1" d="M27,51.2H5.7c-1.6,0-3-1.3-3-3V3.7c0-1.6,1.3-3,3-3H27c1.6,0,3,1.3,3,3v44.5C30,49.9,28.6,51.2,27,51.2z"/>
		</g>
		<g>
			<path class="st2" d="M27,51.2H5.7c-1.6,0-3-1.3-3-3v-5.2H30v5.2C30,49.9,28.6,51.2,27,51.2z"/>
		</g>
	</g>
	<g>
		<g>
			<path class="st3" d="M10.8,10.6H6.1c-0.1,0-0.3-0.1-0.3-0.3V5.7c0-0.1,0.1-0.3,0.3-0.3h4.6c0.1,0,0.3,0.1,0.3,0.3v4.6
				C11,10.5,10.9,10.6,10.8,10.6z"/>
		</g>
		<g>
			<path class="st4" d="M18.6,10.6H14c-0.1,0-0.3-0.1-0.3-0.3V5.7c0-0.1,0.1-0.3,0.3-0.3h4.6c0.1,0,0.3,0.1,0.3,0.3v4.6
				C18.9,10.5,18.8,10.6,18.6,10.6L18.6,10.6z"/>
		</g>
		<g>
			<path class="st3" d="M26.5,10.6h-4.6c-0.1,0-0.3-0.1-0.3-0.3V5.7c0-0.1,0.1-0.3,0.3-0.3h4.6c0.1,0,0.3,0.1,0.3,0.3v4.6
				C26.8,10.5,26.7,10.6,26.5,10.6z"/>
		</g>
	</g>
	<g>
		<g>
			<path class="st4" d="M10.8,19.2H6.1c-0.1,0-0.3-0.1-0.3-0.3v-4.6c0-0.1,0.1-0.3,0.3-0.3h4.6c0.1,0,0.3,0.1,0.3,0.3v4.6
				C11,19.1,10.9,19.2,10.8,19.2z"/>
		</g>
		<g>
			<path class="st3" d="M18.6,19.2H14c-0.1,0-0.3-0.1-0.3-0.3v-4.6c0-0.1,0.1-0.3,0.3-0.3h4.6c0.1,0,0.3,0.1,0.3,0.3v4.6
				C18.9,19.1,18.8,19.2,18.6,19.2L18.6,19.2z"/>
		</g>
		<g>
			<path class="st4" d="M26.5,19.2h-4.6c-0.1,0-0.3-0.1-0.3-0.3v-4.6c0-0.1,0.1-0.3,0.3-0.3h4.6c0.1,0,0.3,0.1,0.3,0.3v4.6
				C26.8,19.1,26.7,19.2,26.5,19.2z"/>
		</g>
	</g>
	<g>
		<path d="M15.5,47.9h1.7c0.4,0,0.8-0.3,0.8-0.8c0-0.4-0.3-0.8-0.8-0.8h-1.7c-0.4,0-0.8,0.3-0.8,0.8C14.7,47.6,15.1,47.9,15.5,47.9z
			"/>
		<path d="M48.6,22h-3.4c-0.3-1.3-0.9-2.5-1.5-3.7l2.4-2.4c0.3-0.3,0.4-0.6,0.4-1c0-0.4-0.2-0.8-0.4-1l-3.5-3.5
			c-0.6-0.6-1.5-0.6-2.1,0L38,12.7c-1.2-0.7-2.4-1.2-3.7-1.5V7.8c0-0.8-0.7-1.5-1.5-1.5h-2.1V3.7C30.7,1.7,29,0,27,0H5.7
			C3.6,0,1.9,1.7,1.9,3.7v5c0,0.4,0.3,0.8,0.8,0.8s0.8-0.3,0.8-0.8v-5c0-1.2,1-2.2,2.2-2.2H27c1.2,0,2.2,1,2.2,2.2v38.6H3.4V12.2
			c0-0.4-0.3-0.8-0.8-0.8s-0.8,0.3-0.8,0.8v36c0,2.1,1.7,3.7,3.7,3.7H27c2.1,0,3.7-1.7,3.7-3.7v-2.5h2.1c0.8,0,1.5-0.7,1.5-1.5v-3.4
			c1.3-0.3,2.6-0.9,3.7-1.5l2.4,2.4c0.6,0.6,1.5,0.6,2.1,0l3.5-3.5c0.3-0.3,0.4-0.6,0.4-1c0-0.4-0.2-0.8-0.4-1l-2.4-2.4
			c0.7-1.2,1.2-2.4,1.5-3.7h3.4c0.8,0,1.5-0.7,1.5-1.5v-5C50.1,22.7,49.4,22,48.6,22L48.6,22z M29.2,48.3c0,1.2-1,2.2-2.2,2.2H5.7
			c-1.2,0-2.2-1-2.2-2.2v-4.4h25.7V48.3z M48.6,28.4h-4c-0.4,0-0.7,0.2-0.7,0.6c-0.3,1.5-1,3-1.8,4.4c-0.2,0.3-0.2,0.7,0.1,0.9
			l2.8,2.8l-3.4,3.4l-2.8-2.8c-0.3-0.3-0.6-0.3-0.9-0.1c-1.3,0.9-2.8,1.5-4.4,1.8c-0.3,0.1-0.6,0.4-0.6,0.7v4h-2.1v-1.1v-7.6
			c2.1-0.1,4.2-0.9,5.8-2.2c0.3-0.3,0.4-0.8,0.1-1.1c-0.3-0.3-0.8-0.4-1.1-0.1c-1.3,1.1-3,1.8-4.8,1.9V18.1c4.2,0.2,7.6,3.7,7.6,7.9
			c0,1.3-0.3,2.5-0.9,3.6c-0.2,0.4,0,0.8,0.3,1s0.8,0,1-0.3c0.7-1.3,1-2.8,1-4.3c0-5.1-4.1-9.3-9.1-9.5V7.8h2.1v4
			c0,0.4,0.2,0.7,0.6,0.7c1.6,0.3,3,1,4.4,1.8c0.3,0.2,0.7,0.1,0.9-0.1l2.8-2.8l3.4,3.4l-2.8,2.8c-0.3,0.3-0.3,0.6-0.1,0.9
			c0.9,1.3,1.5,2.8,1.8,4.4c0.1,0.3,0.4,0.6,0.7,0.6h4L48.6,28.4L48.6,28.4z"/>
		<path d="M6.1,11.3h4.6c0.6,0,1-0.5,1-1V5.7c0-0.6-0.5-1-1-1H6.1c-0.6,0-1,0.5-1,1v4.6C5.1,10.9,5.6,11.3,6.1,11.3z M6.6,6.2h3.6
			v3.6H6.6V6.2z"/>
		<path d="M14,11.3h4.6c0.6,0,1-0.5,1-1V5.7c0-0.6-0.5-1-1-1H14c-0.6,0-1,0.5-1,1v4.6C13,10.9,13.4,11.3,14,11.3z M14.5,6.2h3.6v3.6
			h-3.6V6.2z"/>
		<path d="M21.9,11.3h4.6c0.6,0,1-0.5,1-1V5.7c0-0.6-0.5-1-1-1h-4.6c-0.6,0-1,0.5-1,1v4.6C20.9,10.9,21.3,11.3,21.9,11.3L21.9,11.3z
			 M22.4,6.2H26v3.6h-3.6L22.4,6.2z"/>
		<path d="M5.1,18.9c0,0.6,0.5,1,1,1h4.6c0.6,0,1-0.5,1-1v-4.6c0-0.6-0.5-1-1-1H6.1c-0.6,0-1,0.5-1,1V18.9z M6.6,14.8h3.6v3.6H6.6
			V14.8z"/>
		<path d="M13,18.9c0,0.6,0.5,1,1,1h4.6c0.6,0,1-0.5,1-1v-4.6c0-0.6-0.5-1-1-1H14c-0.6,0-1,0.5-1,1L13,18.9z M14.5,14.8h3.6v3.6
			h-3.6V14.8z"/>
		<path d="M20.9,18.9c0,0.6,0.5,1,1,1h4.6c0.6,0,1-0.5,1-1v-4.6c0-0.6-0.5-1-1-1h-4.6c-0.6,0-1,0.5-1,1V18.9z M22.4,14.8H26v3.6
			h-3.6L22.4,14.8z"/>
	</g>
</g>
</svg>
