<?xml version="1.0" encoding="utf-8"?>
<!-- Generator: Adobe Illustrator 24.3.0, SVG Export Plug-In . SVG Version: 6.00 Build 0)  -->
<svg version="1.1" id="SvgjsSvg1001" xmlns:svgjs="http://svgjs.com/svgjs"
	 xmlns="http://www.w3.org/2000/svg" xmlns:xlink="http://www.w3.org/1999/xlink" x="0px" y="0px" viewBox="0 0 52 52"
	 style="enable-background:new 0 0 52 52;" xml:space="preserve">
<style type="text/css">
	.st0{fill:#EDF5FF;}
	.st1{fill:#3B6BAB;}
	.st2{fill:#FA686C;}
	.st3{fill:#FEE682;}
	.st4{fill:#FFA5A7;}
	.st5{fill:#E40C57;}
	.st6{fill:#00D27E;}
	.st7{fill:#8EEB90;}
	.st8{fill:#FE7C42;}
	.st9{fill:#FEA730;}
	.st10{fill:#FDD034;}
</style>
<g id="SvgjsG1008">
	<path class="st0" d="M40.4,4.2v39.5l-1.1,1.1H12.7l-1.1-1.1V4.2c0-2,1.6-3.6,3.6-3.6h3.6c2,0,4.6,1.4,7.2,1.4s5.2-1.4,7.2-1.4h3.6
		C38.8,0.5,40.4,2.2,40.4,4.2z"/>
	<path class="st1" d="M40.4,43.7v4.1c0,2-1.6,3.6-3.6,3.6H15.2c-2,0-3.6-1.6-3.6-3.6v-4.1H40.4z M33.2,0.5v1.8
		c0,1.1-0.9,2.1-2.1,2.1H20.8c-1.1,0-2.1-0.9-2.1-2.1V0.5C18.8,0.5,33.2,0.5,33.2,0.5z"/>
	<path class="st2" d="M26,45.9c0.9,0,1.7,0.8,1.7,1.7s-0.8,1.7-1.7,1.7s-1.7-0.8-1.7-1.7S25.1,45.9,26,45.9z"/>
	<path class="st3" d="M47,7.2c1.5,0,2.8,1.2,2.8,2.8s-1.2,2.8-2.8,2.8s-2.8-1.2-2.8-2.8S45.5,7.2,47,7.2z M4.4,39.3
		c1.2,0,2.2,1,2.2,2.2s-1,2.2-2.2,2.2s-2.2-1-2.2-2.2C2.2,40.3,3.2,39.3,4.4,39.3z"/>
	<path class="st4" d="M31.5,26H36v4.4h-4.4V26z"/>
	<path class="st5" d="M23.8,26h4.4v4.4h-4.4C23.8,30.4,23.8,26,23.8,26z"/>
	<path class="st2" d="M16,33.7h4.4v4.4H16V33.7z"/>
	<path class="st6" d="M23.8,33.7h4.4v4.4h-4.4C23.8,38.2,23.8,33.7,23.8,33.7z M31.5,33.7H36v4.4h-4.4V33.7z"/>
	<path class="st7" d="M16,26h4.4v4.4H16V26z"/>
	<path class="st8" d="M31.5,18.3H36v4.4h-4.4V18.3z"/>
	<path class="st9" d="M23.8,18.3h4.4v4.4h-4.4C23.8,22.7,23.8,18.3,23.8,18.3z"/>
	<path class="st10" d="M16,18.3h4.4v4.4H16V18.3z"/>
	<path class="st3" d="M31.5,10.5H36v4.4h-4.4V10.5z"/>
	<path class="st6" d="M23.8,10.5h4.4v4.4h-4.4C23.8,14.9,23.8,10.5,23.8,10.5z"/>
	<path class="st7" d="M16,10.5h4.4v4.4H16V10.5z"/>
	<circle cx="49.5" cy="41.8" r="0.8"/>
	<circle cx="46.2" cy="21.9" r="0.8"/>
	<circle cx="5.8" cy="26.8" r="0.8"/>
	<circle cx="3" cy="5.8" r="0.8"/>
	<path d="M36.8,0H15.2c-2.3,0-4.2,1.9-4.2,4.2v43.7c0,2.3,1.9,4.2,4.2,4.2h21.5c2.3,0,4.2-1.9,4.2-4.2V4.2C40.9,1.9,39.1,0,36.8,0z
		 M19.4,1.1h13.3v1.3c0,0.8-0.7,1.5-1.5,1.5H20.8c-0.8,0-1.5-0.7-1.5-1.5L19.4,1.1L19.4,1.1z M36.8,50.9H15.2
		c-1.7,0-3.1-1.4-3.1-3.1v-3.6h27.7v3.6C39.8,49.5,38.5,50.9,36.8,50.9L36.8,50.9z M39.8,43.1H12.2v-39c0-1.7,1.4-3.1,3.1-3.1h3v1.3
		c0,1.4,1.2,2.6,2.6,2.6h10.3c1.4,0,2.6-1.2,2.6-2.6V1.1h3c1.7,0,3.1,1.4,3.1,3.1V43.1z M50.3,10c0-1.8-1.5-3.3-3.3-3.3
		s-3.3,1.5-3.3,3.3s1.5,3.3,3.3,3.3C48.9,13.3,50.3,11.8,50.3,10z M47,12.2c-1.2,0-2.2-1-2.2-2.2s1-2.2,2.2-2.2s2.2,1,2.2,2.2
		S48.2,12.2,47,12.2z M4.4,38.7c-1.5,0-2.8,1.2-2.8,2.8s1.2,2.8,2.8,2.8s2.8-1.2,2.8-2.8C7.2,40,6,38.7,4.4,38.7z M4.4,43.1
		c-0.9,0-1.7-0.8-1.7-1.7s0.8-1.7,1.7-1.7s1.7,0.8,1.7,1.7C6.1,42.4,5.3,43.1,4.4,43.1z"/>
	<path d="M26,45.4c-1.2,0-2.2,1-2.2,2.2s1,2.2,2.2,2.2s2.2-1,2.2-2.2S27.2,45.4,26,45.4z M26,48.7c-0.6,0-1.1-0.5-1.1-1.1
		s0.5-1.1,1.1-1.1s1.1,0.5,1.1,1.1S26.6,48.7,26,48.7z M20.5,33.2H16c-0.3,0-0.5,0.2-0.5,0.5v4.4c0,0.3,0.2,0.5,0.5,0.5h4.4
		c0.3,0,0.5-0.2,0.5-0.5v-4.4C21,33.4,20.8,33.2,20.5,33.2z M19.9,37.6h-3.3v-3.3h3.3V37.6z M28.2,33.2h-4.4c-0.3,0-0.5,0.2-0.5,0.5
		v4.4c0,0.3,0.2,0.5,0.5,0.5h4.4c0.3,0,0.5-0.2,0.5-0.5v-4.4C28.8,33.4,28.5,33.2,28.2,33.2z M27.7,37.6h-3.3v-3.3h3.3V37.6z
		 M36,33.2h-4.4c-0.3,0-0.5,0.2-0.5,0.5v4.4c0,0.3,0.2,0.5,0.5,0.5H36c0.3,0,0.5-0.2,0.5-0.5v-4.4C36.5,33.4,36.3,33.2,36,33.2z
		 M35.4,37.6h-3.3v-3.3h3.3V37.6z M20.5,25.5H16c-0.3,0-0.5,0.2-0.5,0.5v4.4c0,0.3,0.2,0.5,0.5,0.5h4.4c0.3,0,0.5-0.2,0.5-0.5V26
		C21,25.7,20.8,25.5,20.5,25.5z M19.9,29.9h-3.3v-3.3h3.3V29.9z M28.2,25.5h-4.4c-0.3,0-0.5,0.2-0.5,0.5v4.4c0,0.3,0.2,0.5,0.5,0.5
		h4.4c0.3,0,0.5-0.2,0.5-0.5V26C28.8,25.7,28.5,25.5,28.2,25.5z M27.7,29.9h-3.3v-3.3h3.3V29.9z M36,25.5h-4.4
		c-0.3,0-0.5,0.2-0.5,0.5v4.4c0,0.3,0.2,0.5,0.5,0.5H36c0.3,0,0.5-0.2,0.5-0.5V26C36.5,25.7,36.3,25.5,36,25.5z M35.4,29.9h-3.3
		v-3.3h3.3V29.9z M20.5,17.7H16c-0.3,0-0.5,0.2-0.5,0.5v4.4c0,0.3,0.2,0.5,0.5,0.5h4.4c0.3,0,0.5-0.2,0.5-0.5v-4.4
		C21,18,20.8,17.7,20.5,17.7z M19.9,22.1h-3.3v-3.3h3.3V22.1z M28.2,17.7h-4.4c-0.3,0-0.5,0.2-0.5,0.5v4.4c0,0.3,0.2,0.5,0.5,0.5
		h4.4c0.3,0,0.5-0.2,0.5-0.5v-4.4C28.8,18,28.5,17.7,28.2,17.7z M27.7,22.1h-3.3v-3.3h3.3V22.1z M36,17.7h-4.4
		c-0.3,0-0.5,0.2-0.5,0.5v4.4c0,0.3,0.2,0.5,0.5,0.5H36c0.3,0,0.5-0.2,0.5-0.5v-4.4C36.5,18,36.3,17.7,36,17.7z M35.4,22.1h-3.3
		v-3.3h3.3V22.1z M20.5,10H16c-0.3,0-0.5,0.2-0.5,0.5v4.4c0,0.3,0.2,0.5,0.5,0.5h4.4c0.3,0,0.5-0.2,0.5-0.5v-4.4
		C21,10.2,20.8,10,20.5,10z M19.9,14.4h-3.3v-3.3h3.3V14.4z M28.2,10h-4.4c-0.3,0-0.5,0.2-0.5,0.5v4.4c0,0.3,0.2,0.5,0.5,0.5h4.4
		c0.3,0,0.5-0.2,0.5-0.5v-4.4C28.8,10.2,28.5,10,28.2,10z M27.7,14.4h-3.3v-3.3h3.3V14.4z M36,10h-4.4c-0.3,0-0.5,0.2-0.5,0.5v4.4
		c0,0.3,0.2,0.5,0.5,0.5H36c0.3,0,0.5-0.2,0.5-0.5v-4.4C36.5,10.2,36.3,10,36,10z M35.4,14.4h-3.3v-3.3h3.3V14.4z"/>
</g>
</svg>
