<?xml version="1.0" encoding="utf-8"?>
<!-- Generator: Adobe Illustrator 24.3.0, SVG Export Plug-In . SVG Version: 6.00 Build 0)  -->
<svg version="1.1" id="Filled_Expand" xmlns="http://www.w3.org/2000/svg" xmlns:xlink="http://www.w3.org/1999/xlink" x="0px"
	 y="0px" viewBox="0 0 52 52" style="enable-background:new 0 0 52 52;" xml:space="preserve">
<style type="text/css">
	.st0{fill:#96D228;}
	.st1{fill:#F0F0F0;}
	.st2{fill:#E1E1E1;}
	.st3{fill:#FFFFFF;}
	.st4{fill:#D99932;}
	.st5{fill:#F65D69;}
	.st6{fill:#E8AA41;}
	.st7{fill:#F1BD68;}
	.st8{fill:#D7F05A;}
	.st9{fill:#8CC3FA;}
</style>
<g>
	<path class="st0" d="M30.1,4.1c0-1.8,1.5-3.2,3.2-3.2c1.8,0,3.2,1.5,3.2,3.2c1.8,0,3.2,1.5,3.2,3.2v11.4h-13V7.3
		C26.8,5.5,28.3,4.1,30.1,4.1z"/>
	<path class="st1" d="M40.6,15.4h10.6v8.9H40.6V15.4z"/>
	<path class="st1" d="M47.9,10.6H37.4V7.3h10.6V10.6z"/>
	<path class="st2" d="M37.4,10.6l3.2,4.9v8.9h-6.5v-8.9L37.4,10.6z"/>
	<path class="st3" d="M40.6,15.4h10.6l-3.2-4.9H37.4L40.6,15.4z"/>
	<path class="st4" d="M19.5,24.4h11.4L26.9,6c-0.6-2.6-2.8-4.4-5.4-4.4c-3.1,0-5.6,2.5-5.6,5.6c0,0.4,0,0.8,0.1,1.2L19.5,24.4z"/>
	<circle class="st5" cx="31.7" cy="21.9" r="6.5"/>
	<path class="st4" d="M40.6,51.2h10.6l-5.3-4.9L40.6,51.2z"/>
	<path class="st6" d="M38,21.9l-2.6,2.4l-2.6-2.4l-2.6,2.4l-2.6-2.4l-2.6,2.4l-2.6-2.4l-2.6,2.4v26.8h21.1V24.4L38,21.9z"/>
	<path class="st7" d="M45.9,46.3l-5.3,4.9V24.4l2.6-2.4l2.6,2.4V46.3z"/>
	<path class="st6" d="M45.9,46.3l5.3,4.9V24.4l-2.6-2.4l-2.6,2.4V46.3z"/>
	<path class="st8" d="M9.8,16.5v-5.1H4.9v5.1c0,2.5-0.7,5-2,7.1s-2,4.6-2,7.1v18.9c0,0.9,0.7,1.6,1.6,1.6h9.7c0.9,0,1.6-0.7,1.6-1.6
		V30.7c0-2.5-0.7-5-2-7.1C10.5,21.4,9.8,19,9.8,16.5L9.8,16.5z"/>
	<path class="st1" d="M0.8,31.7h13v11.4h-13V31.7z"/>
	<path class="st9" d="M4.9,8.1h4.9c0.4,0,0.8,0.4,0.8,0.8v2.4l0,0H4.1l0,0V8.9C4.1,8.5,4.4,8.1,4.9,8.1z"/>
	<path class="st5" d="M23.2,36.6c-1.3-0.2-2.6,0.1-3.7,0.9c-1-0.8-2.4-1.1-3.7-0.9c-3.1,0.6-5,4.2-4.3,8.2s3.8,6.8,6.9,6.3
		c0.4-0.1,0.8-0.2,1.1-0.4c0.4,0.2,0.7,0.3,1.1,0.4c3.1,0.5,6.2-2.3,6.9-6.3C28.2,40.9,26.2,37.2,23.2,36.6L23.2,36.6z"/>
	<path d="M51.9,15l-3.1-4.7v-3c0-0.4-0.4-0.8-0.8-0.8h-7.4c-0.3-1.6-1.6-2.9-3.2-3.2c-0.4-2.2-2.5-3.7-4.7-3.3
		c-1.7,0.3-3,1.6-3.3,3.3c-0.8,0.2-1.5,0.5-2.1,1.1c-1.1-2.2-3.3-3.6-5.7-3.6c-3.5,0-6.4,2.8-6.4,6.4c0,0.5,0,0.9,0.1,1.3l3.4,15.9
		v11.7c-0.9-0.4-2-0.5-3-0.3c-0.4,0.1-0.7,0.2-1.1,0.3v-5.5c0-2.7-0.7-5.3-2.2-7.5c-1.2-2-1.9-4.3-1.9-6.7v-4.3
		c0.4,0,0.8-0.4,0.8-0.8V8.9c0-0.9-0.7-1.6-1.6-1.6H4.9C4,7.3,3.2,8.1,3.2,8.9v2.4c0,0.4,0.4,0.8,0.8,0.8v4.3c0,2.4-0.7,4.7-1.9,6.7
		C0.7,25.4,0,28,0,30.7v18.9C0,50.9,1.1,52,2.4,52l0,0h9.7c0.8,0,1.6-0.4,2-1.1c1,0.7,2.2,1.1,3.4,1.1c0.3,0,0.6,0,0.9-0.1
		c0.2,0,0.3-0.1,0.5-0.1c0.1,0.1,0.3,0.2,0.5,0.2h31.7c0.4,0,0.8-0.4,0.8-0.8V15.4C52,15.3,52,15.1,51.9,15L51.9,15z M47.1,8.1v1.6
		h-8.9V8.1H47.1z M30.1,4.9c0.4,0,0.8-0.4,0.8-0.8c0-1.3,1.1-2.4,2.4-2.4c1.3,0,2.4,1.1,2.4,2.4c0,0.4,0.4,0.8,0.8,0.8
		c1,0,1.9,0.7,2.3,1.6h-1.5c-0.4,0-0.8,0.4-0.8,0.8v3l-3,4.5c-0.6-0.2-1.2-0.2-1.8-0.2c-0.7,0-1.4,0.1-2,0.3l-1.8-8.6
		C28.2,5.5,29.1,4.9,30.1,4.9L30.1,4.9z M37.4,21.4l-2,1.8l-2.1-1.9c-0.3-0.3-0.8-0.3-1.1,0l-2.1,1.9L28,21.3
		c-0.3-0.3-0.8-0.3-1.1,0l-0.8,0.8c0-0.1,0-0.1-0.1-0.2c-0.1-3.1,2.3-5.8,5.4-5.9C34.6,15.9,37.2,18.3,37.4,21.4z M16.9,8.2
		c-0.5-2.6,1.1-5.1,3.6-5.6s5.1,1.1,5.6,3.6l2,9.4c-2.3,1.3-3.8,3.7-3.8,6.4c0,0.3,0,0.7,0.1,1l-1.8-1.6c-0.3-0.3-0.8-0.3-1.1,0
		L20,22.8L16.9,8.2z M4.9,8.9h4.9v1.6H4.9V8.9z M1.6,30.7c0-2.4,0.7-4.7,1.9-6.7c1.4-2.3,2.2-4.9,2.2-7.5v-4.3h3.2v4.3
		c0,2.7,0.7,5.3,2.2,7.5c1.2,2,1.9,4.3,1.9,6.7v0.2H1.6V30.7z M1.6,32.5H13v4.7c-1.4,1.3-2.2,3.1-2.4,5.1h-9V32.5z M12.2,50.4H2.4
		c-0.4,0-0.8-0.4-0.8-0.8v-5.7h8.9c0,0.4,0.1,0.8,0.1,1.1c0.3,1.8,1.1,3.4,2.3,4.7C12.9,50.1,12.6,50.4,12.2,50.4L12.2,50.4z
		 M23.8,49.6c-0.9,0.7-2,0.9-3.1,0.8c-0.3-0.1-0.6-0.2-0.9-0.3c-0.2-0.1-0.5-0.1-0.7,0c-0.3,0.1-0.6,0.2-0.9,0.3
		c-1.1,0.2-2.2-0.1-3.1-0.8c-1.5-1.2-2.6-2.9-2.9-4.8c-0.6-3.6,1-6.8,3.7-7.3c0.2,0,0.4-0.1,0.6-0.1c0.7,0,1.4,0.2,2.1,0.6v1
		c0,0.4,0.4,0.8,0.8,0.8s0.8-0.4,0.8-0.8v-1c0.8-0.5,1.8-0.7,2.7-0.6c2.6,0.5,4.3,3.7,3.7,7.3C26.4,46.7,25.4,48.4,23.8,49.6
		L23.8,49.6z M39.8,50.4H25.4c1.5-1.4,2.5-3.3,2.9-5.4c0.8-4.4-1.5-8.6-5-9.2c-0.9-0.2-1.9-0.1-2.8,0.3c0.4-1.3,1.7-2.2,3.1-2.2
		c0.4,0,0.8-0.4,0.8-0.8s-0.4-0.8-0.8-0.8c-1.2,0-2.4,0.4-3.2,1.3v-8.8l1.8-1.7l2.1,1.9c0.3,0.3,0.8,0.3,1.1,0l2.1-1.9l2.1,1.9
		c0.3,0.3,0.8,0.3,1.1,0l2.1-1.9l2.1,1.9c0.3,0.3,0.8,0.3,1.1,0l2.1-1.9l1.8,1.7L39.8,50.4z M39.8,22.5L39,21.8
		c-0.1-2.7-1.6-5.1-3.9-6.3l2.3-3.4l2.4,3.7V22.5z M38.9,11.4h8.6l2.2,3.2h-8.6L38.9,11.4z M41.4,24.7l1.8-1.7l1.8,1.7V46l-3.7,3.4
		V24.7z M42.7,50.4l3.2-3l3.2,3H42.7z M50.4,49.3L46.7,46V24.7l1.8-1.7l1.8,1.7V49.3z M50.4,22.5l-1.3-1.2c-0.3-0.3-0.8-0.3-1.1,0
		l-2.1,1.9l-2.1-1.9c-0.3-0.3-0.8-0.3-1.1,0l-1.3,1.2v-6.3h8.9V22.5z"/>
	<path d="M20.9,12.8l3.2-3.2c0.3-0.3,0.3-0.8,0-1.2c-0.3-0.3-0.8-0.3-1.2,0l-3.2,3.2c-0.3,0.3-0.3,0.8,0,1.2
		C20.1,13.1,20.6,13.1,20.9,12.8z"/>
	<path d="M21.4,18.5c0.3,0.3,0.8,0.3,1.1,0c0,0,0,0,0,0l3.2-3.2c0.3-0.3,0.3-0.8,0-1.2s-0.8-0.3-1.2,0l-3.2,3.2
		C21,17.6,21,18.1,21.4,18.5C21.4,18.5,21.4,18.5,21.4,18.5z"/>
</g>
</svg>
