<?xml version="1.0" encoding="utf-8"?>
<!-- Generator: Adobe Illustrator 24.3.0, SVG Export Plug-In . SVG Version: 6.00 Build 0)  -->
<svg version="1.1" id="Layer_1" xmlns="http://www.w3.org/2000/svg" xmlns:xlink="http://www.w3.org/1999/xlink" x="0px" y="0px"
	 viewBox="0 0 52 52" style="enable-background:new 0 0 52 52;" xml:space="preserve">
<style type="text/css">
	.st0{fill:#F6B493;}
	.st1{fill:#E59A7A;}
	.st2{fill:#495766;}
	.st3{fill:#303C47;}
</style>
<g id="Layer_3">
	<path class="st0" d="M5.1,19.2c-2.8,0-5.1,2.3-5.1,5.1s2.3,5.1,5.1,5.1s5.1-2.3,5.1-5.1c0,0,0,0,0,0C10.3,21.5,8,19.2,5.1,19.2z"/>
	<path class="st1" d="M8.8,20.8c-1.3,1.2-2,2.8-2,4.5v3.9c2.7-0.9,4.1-3.8,3.2-6.5C9.8,22,9.4,21.3,8.8,20.8L8.8,20.8z"/>
	<path class="st0" d="M38.3,34.4c-0.1-0.2-0.3-0.3-0.5-0.3H26.2c-0.2,0-0.4,0.1-0.6,0.3L23.7,37c-0.6,0.6-0.9,1.4-0.9,2.2v8.7
		c0,1.7,1.3,3.2,3,3.2H26c1.7,0,3.1-1.4,3.2-3.1v-7.5l2.3-2.2l-0.4,2c-0.1,0.3-0.1,0.7,0,1l1.2,7.2c0.2,1.6,1.5,2.8,3.1,2.8
		c0.1,0,0.3,0,0.4,0c1.7-0.2,3-1.8,2.7-3.5c0,0,0,0,0,0c0,0,0,0,0,0l-1.1-6.7l1.1-5.9C38.5,34.8,38.4,34.6,38.3,34.4L38.3,34.4z"/>
	<path class="st2" d="M42.9,34.2h4.9c0.4,0,0.7,0.3,0.7,0.7v15.6c0,0.4-0.3,0.7-0.7,0.7h-4.9c-0.4,0-0.7-0.3-0.7-0.7V34.9
		C42.1,34.5,42.5,34.2,42.9,34.2z"/>
	<path class="st2" d="M9.1,34.2H4.3c-0.4,0-0.7,0.3-0.7,0.7v15.6c0,0.4,0.3,0.7,0.7,0.7h4.9c0.4,0,0.7-0.3,0.7-0.7v-9.2
		c0-0.3-0.2-0.5-0.4-0.7c-0.3-0.1-0.6-0.4-0.7-0.7c-0.1-0.4-0.1-0.8,0-1.2l1.1-2.4c0-0.1,0.1-0.2,0.1-0.3v-1
		C9.9,34.5,9.5,34.2,9.1,34.2L9.1,34.2z"/>
	<path class="st3" d="M47.7,34.2h-4.9c-0.4,0-0.7,0.3-0.7,0.7v3h6.3v-3C48.4,34.5,48.1,34.2,47.7,34.2z"/>
	<path class="st3" d="M9.3,34.2H4.4c-0.4,0-0.7,0.3-0.7,0.7v3H10v-3C10,34.5,9.7,34.2,9.3,34.2z"/>
	<circle class="st0" cx="24" cy="6" r="4.4"/>
	<path class="st0" d="M24,11.2c-2.8,0-5.1-2.3-5.1-5.1c0-2.8,2.3-5.1,5.1-5.1c2.8,0,5.1,2.3,5.1,5.1c0,0,0,0,0,0
		C29.1,8.9,26.8,11.2,24,11.2z M24,2.3c-2.1,0-3.7,1.7-3.7,3.7c0,2.1,1.7,3.7,3.7,3.7s3.7-1.7,3.7-3.7c0,0,0,0,0,0
		C27.7,4,26,2.3,24,2.3z"/>
	<path class="st2" d="M0.7,28.1h8.9c0.4,0,0.7,0.3,0.7,0.7v6.1c0,0.4-0.3,0.7-0.7,0.7H0.7c-0.4,0-0.7-0.3-0.7-0.7v-6.1
		C0,28.4,0.3,28.1,0.7,28.1z"/>
	<path class="st2" d="M52,28.1H14.3c-0.4,0-0.7,0.3-0.7,0.7v6.1c0,0.4,0.3,0.7,0.7,0.7l0,0h37c0.4,0,0.7-0.3,0.7-0.7l0,0V28.1z"/>
	<path class="st3" d="M13.6,28.8v6.1c0,0.4,0.3,0.7,0.7,0.7l0,0h2.5l0.2-0.4c0-0.1,0.1-0.2,0.1-0.3v-6.8h-2.7
		C13.9,28.1,13.6,28.4,13.6,28.8z"/>
	<g>
		<path class="st0" d="M26.1,21.2L19,24.7c-0.4,0.2-0.9,0.3-1.4,0.3c-0.4,0-0.7-0.1-1.1-0.2c-0.8-0.3-1.5-0.9-1.8-1.7
			c-0.2-0.4-0.3-0.9-0.3-1.3c0-0.2,0-0.5,0.1-0.7h0.6c0.4,0,0.7,0.3,0.7,0.7c0,0,0,0,0,0c0,0.2,0,0.5,0.1,0.7
			c0.4,0.9,1.4,1.3,2.3,0.9c0,0,0,0,0,0l4.4-2.2c0.1,0,0.2-0.1,0.3-0.1H26.1z"/>
		<path class="st0" d="M39.6,17.3l0,6.3h-1.5c-0.8-0.7-1.8-1.3-2.8-1.8c-1.1-0.4-2.2-0.7-3.3-0.7c-0.1,0-0.2,0-0.2,0h-0.4l0.4-2.6
			c0.2-1.2-0.3-2.5-1.4-3.2l-2.6,4.5c-0.3,0.5-0.8,1-1.3,1.2l-0.2,0.1L19,24.7c-0.4,0.2-0.9,0.3-1.4,0.3c-0.4,0-0.7-0.1-1.1-0.2
			c-0.8-0.3-1.5-0.9-1.8-1.7c-0.2-0.4-0.3-0.9-0.3-1.3c0-0.2,0-0.5,0.1-0.7c0.2-0.9,0.9-1.7,1.7-2.2l6.5-3.2l4.1-7
			c0.5-0.8,1.4-1.4,2.3-1.5c0.1,0,0.3,0,0.4,0C35.1,7.3,39.6,11.8,39.6,17.3L39.6,17.3z"/>
		<path class="st0" d="M39.6,17.3l0,6.3h-1.5c-0.8-0.7-1.8-1.3-2.8-1.8c-1.1-0.4-2.2-0.7-3.3-0.7c-0.1,0-0.2,0-0.2,0h-0.4l0.4-2.6
			c0.2-1.2-0.3-2.5-1.4-3.2l-2.6,4.5c-0.3,0.5-0.8,1-1.3,1.2l-0.2,0.1L19,24.7c-0.4,0.2-0.9,0.3-1.4,0.3c-0.4,0-0.7-0.1-1.1-0.2
			c-0.8-0.3-1.5-0.9-1.8-1.7c-0.2-0.4-0.3-0.9-0.3-1.3c0-0.2,0-0.5,0.1-0.7c0.2-0.9,0.9-1.7,1.7-2.2l6.5-3.2l4.1-7
			c0.5-0.8,1.4-1.4,2.3-1.5c0.1,0,0.3,0,0.4,0C35.1,7.3,39.6,11.8,39.6,17.3L39.6,17.3z"/>
		<path class="st0" d="M15,28.1h37c-0.3-2.6-2.5-4.5-5.1-4.5h-8.7c-0.8-0.7-1.8-1.3-2.8-1.8c-1.1-0.4-2.2-0.7-3.3-0.7
			c-0.1,0-0.2,0-0.2,0h-5.6L19,24.7c-0.4,0.2-0.9,0.3-1.4,0.3c-0.4,0-0.7-0.1-1.1-0.2c-0.8-0.3-1.5-0.9-1.8-1.7
			c-0.2-0.4-0.3-0.9-0.3-1.3c0-0.2,0-0.5,0.1-0.7H13c-2.3,0-4.2,1.9-4.2,4.2v9.4L7.4,38c-0.4,0.8-0.4,1.8,0,2.6
			c0.4,0.8,1.1,1.3,1.9,1.5c1.3,0.3,2.7-0.4,3.2-1.6l2.3-5.2c0-0.1,0.1-0.2,0.1-0.3L15,28.1z"/>
	</g>
	<path class="st1" d="M32,21.2c1.1,0,2.3,0.3,3.3,0.7c1,0.4,2,1,2.8,1.8h1.5v-2h-0.7C38,20.9,37.1,20.4,36,20
		c-1.3-0.5-2.6-0.8-4-0.8c-0.1,0-0.2,0-0.3,0h-0.1l-0.3,2h0.4C31.8,21.2,31.9,21.2,32,21.2L32,21.2z"/>
	<path class="st0" d="M15,28.1h37c-0.3-2.6-2.5-4.5-5.1-4.5h-8.7c-0.8-0.7-1.8-1.3-2.8-1.8c-1.1-0.4-2.2-0.7-3.3-0.7
		c-0.1,0-0.2,0-0.2,0h-5.6L19,24.7c-0.4,0.2-0.9,0.3-1.4,0.3c-0.4,0-0.7-0.1-1.1-0.2c-0.8-0.3-1.5-0.9-1.8-1.7
		c-0.2-0.4-0.3-0.9-0.3-1.3c0-0.2,0-0.5,0.1-0.7H13c-2.3,0-4.2,1.9-4.2,4.2v9.4L7.4,38c-0.4,0.8-0.4,1.8,0,2.6
		c0.4,0.8,1.1,1.3,1.9,1.5c1.3,0.3,2.7-0.4,3.2-1.6l2.3-5.2c0-0.1,0.1-0.2,0.1-0.3L15,28.1z"/>
	<path class="st0" d="M15,28.1h37c-0.3-2.6-2.5-4.5-5.1-4.5h-8.7c-0.8-0.7-1.8-1.3-2.8-1.8c-1.1-0.4-2.2-0.7-3.3-0.7
		c-0.1,0-0.2,0-0.2,0h-5.6L19,24.7c-0.4,0.2-0.9,0.3-1.4,0.3c-0.4,0-0.7-0.1-1.1-0.2c-0.8-0.3-1.5-0.9-1.8-1.7
		c-0.2-0.4-0.3-0.9-0.3-1.3c0-0.2,0-0.5,0.1-0.7H13c-2.3,0-4.2,1.9-4.2,4.2v9.4L7.4,38c-0.4,0.8-0.4,1.8,0,2.6
		c0.4,0.8,1.1,1.3,1.9,1.5c1.3,0.3,2.7-0.4,3.2-1.6l2.3-5.2c0-0.1,0.1-0.2,0.1-0.3L15,28.1z"/>
	<path class="st1" d="M17.6,27.1c0.8,0,1.6-0.2,2.3-0.5l7.4-3.7c0.8-0.4,1.5-1,2-1.7v0h-3.1L19,24.7c-0.4,0.2-0.9,0.3-1.4,0.3
		c-0.4,0-0.7-0.1-1.1-0.2c-0.8-0.3-1.5-0.9-1.8-1.7c-0.2-0.4-0.3-0.9-0.3-1.3c0-0.2,0-0.5,0.1-0.7H13c-0.2,0-0.4,0-0.6,0
		c0,0.2,0,0.4,0,0.6c0,0.8,0.1,1.5,0.4,2.2c0.6,1.3,1.7,2.3,3,2.7C16.4,27,17,27.1,17.6,27.1L17.6,27.1z"/>
	<path class="st1" d="M24.8,35.6L23.8,37c-0.2,0.2-0.3,0.4-0.5,0.6H38l0.4-2H24.8z"/>
	<path d="M47.7,41.2c-0.4,0-0.7,0.3-0.7,0.7V43c0,0.4,0.3,0.7,0.7,0.7s0.7-0.3,0.7-0.7l0,0v-1.1C48.4,41.5,48.1,41.2,47.7,41.2z"/>
	<path d="M46.8,23.6h-7.2l0-6.3c0-2.2-0.7-4.3-2-6c-0.2-0.3-0.7-0.4-1-0.1c-0.3,0.2-0.4,0.7-0.1,1c1.1,1.5,1.7,3.3,1.7,5.2l0,6.3
		h-0.1c-1.5-1.3-3.4-2.2-5.4-2.4l0.4-2.5c0.3-2.1-0.8-4.1-2.7-5c-0.3-0.1-0.7,0-0.9,0.3l-3,5.1c-0.2,0.3-0.4,0.5-0.7,0.7l-7.4,3.7
		c-0.9,0.4-1.9,0.1-2.3-0.8c0,0,0,0,0,0c-0.1-0.2-0.1-0.5-0.1-0.7c0-0.7,0.4-1.3,1-1.6l6.7-3.3c0.1-0.1,0.2-0.2,0.3-0.3l4.2-7.2
		c0.3-0.5,0.8-0.8,1.3-0.8c0.1,0,0.1,0,0.2,0c1.7,0,3.4,0.5,4.8,1.5c0.3,0.2,0.8,0.1,1-0.2s0.1-0.8-0.2-1l0,0
		c-1.7-1.1-3.6-1.7-5.6-1.7c-0.2,0-0.4,0-0.7,0.1C29.7,4.6,28,1.8,25.3,1S19.7,1.9,19,4.7s0.9,5.6,3.6,6.3c1,0.3,2.1,0.2,3.1-0.1
		l-2.9,5L16.3,19c-0.9,0.4-1.5,1.2-1.7,2.2H13c-1.2,0-2.3,0.5-3.1,1.4c-1-2.7-4-4-6.6-3s-4,4-3,6.6c0.3,0.7,0.7,1.4,1.3,1.9H0.7
		c-0.4,0-0.7,0.3-0.7,0.7v6.1c0,0.4,0.3,0.7,0.7,0.7h2.8v14.9c0,0.4,0.3,0.7,0.7,0.7h4.9c0.4,0,0.7-0.3,0.7-0.7v-8.3
		c0.1,0,0.1,0,0.2,0c1.1,0,2.2-0.7,2.6-1.7l2.1-4.8h10.1l-1,1.4c-0.6,0.6-0.9,1.4-0.9,2.2v8.7c0,1.7,1.3,3.2,3,3.2H26
		c1.7,0,3.1-1.4,3.2-3.1v-7.5l2.3-2.2l-0.4,2c-0.1,0.3-0.1,0.7,0,1l1.2,7.2c0.2,1.6,1.5,2.8,3.1,2.8c0.1,0,0.3,0,0.4,0
		c1.7-0.2,3-1.8,2.7-3.5c0,0,0,0,0,0l-1.1-6.7l1-5.3h3.8v14.9c0,0.4,0.3,0.7,0.7,0.7h4.9c0.4,0,0.7-0.3,0.7-0.7v-4.5
		c0-0.4-0.3-0.7-0.7-0.7c-0.4,0-0.7,0.3-0.7,0.7v3.8h-3.5V35.6H47v3.4c0,0.4,0.3,0.7,0.7,0.7c0.4,0,0.7-0.3,0.7-0.7l0,0v-3.4h2.8
		c0.4,0,0.7-0.3,0.7-0.7v-6.1C52,26,49.7,23.6,46.8,23.6L46.8,23.6z M20.2,6c0-2.1,1.7-3.7,3.7-3.7S27.7,4,27.7,6S26,9.7,24,9.7
		C21.9,9.7,20.2,8.1,20.2,6z M26.4,21.1c0.6-0.3,1-0.7,1.3-1.2l2.6-4.5c1,0.7,1.5,1.9,1.4,3.2l-0.4,2.6h-5.2L26.4,21.1z M1.4,24.4
		c0-2.1,1.7-3.7,3.7-3.7c2.1,0,3.7,1.7,3.7,3.7s-1.7,3.7-3.7,3.7c0,0,0,0,0,0C3.1,28.1,1.4,26.4,1.4,24.4L1.4,24.4z M8.9,27.9v0.2
		H8.7C8.7,28,8.8,28,8.9,27.9L8.9,27.9z M1.4,29.5h7.4v4.6H4.3H1.4V29.5z M5,49.7V35.6h3.5v0.1l-1,2.3c-0.4,0.9-0.3,1.9,0.1,2.7
		c0.2,0.4,0.5,0.7,0.9,0.9v8.1L5,49.7z M27.9,39.7c-0.1,0.1-0.2,0.3-0.2,0.5V48c0,1-0.8,1.7-1.7,1.7c0,0,0,0,0,0
		c-1-0.1-1.7-0.9-1.7-1.8v-8.7c0-0.5,0.2-0.9,0.5-1.2c0,0,0-0.1,0.1-0.1l1.7-2.3h5.3l0,0.2L27.9,39.7z M37,47.8
		c0.1,0.9-0.6,1.8-1.5,1.9c-0.9,0.1-1.8-0.6-1.9-1.5L32.4,41c0-0.2,0-0.4,0-0.5l0.8-4l0.9-0.9h2.8l-1,5.2c0,0.1,0,0.2,0,0.3L37,47.8
		z M50.6,34.2H15v-4.6h35.6L50.6,34.2z M14.3,28.1c-0.4,0-0.7,0.3-0.7,0.7v5.9l-2.2,5.1c-0.3,0.6-1,1-1.6,0.8
		c-0.8-0.2-1.3-1-1.1-1.8c0-0.1,0.1-0.2,0.1-0.3l1.5-3.4v0c0,0,0-0.1,0-0.1c0,0,0-0.1,0-0.1v-9.5c0-1.5,1.2-2.7,2.7-2.7h1.5
		c0,0.2,0.1,0.4,0.2,0.6c0.4,0.8,1,1.4,1.8,1.7c0.8,0.3,1.7,0.2,2.4-0.1l4.3-2.1h8.5c0,0,0.1,0,0.2,0c2,0,4,0.8,5.5,2.2
		c0.1,0.1,0.3,0.2,0.5,0.2h9c1.8,0,3.3,1.3,3.7,3L14.3,28.1z"/>
</g>
</svg>
