<?xml version="1.0" encoding="utf-8"?>
<!-- Generator: Adobe Illustrator 24.3.0, SVG Export Plug-In . SVG Version: 6.00 Build 0)  -->
<svg version="1.1" id="body-massage" xmlns="http://www.w3.org/2000/svg" xmlns:xlink="http://www.w3.org/1999/xlink" x="0px"
	 y="0px" viewBox="0 0 200 200" style="enable-background:new 0 0 200 200;" xml:space="preserve">
<style type="text/css">
	.st0{fill:#2A2F63;}
	.st1{fill:#43B5DD;}
	.st2{fill:#4FBDE5;}
	.st3{fill:#37A9DA;}
	.st4{fill:#CADEE5;}
	.st5{fill:#D7E9F2;}
	.st6{fill:#BCD2D8;}
	.st7{fill:#F4D398;}
	.st8{fill:#E9C992;}
</style>
<path class="st0" d="M188,143.7h-42l0.7-6.2c1.2-0.4,2.3-1.1,3.2-2c1.5-1.7,2.3-4,2.1-6.2l-1.6-18.2c-0.7-7-7-12.1-14-11.4L83,106.1
	c1.5-9.3,4.6-18.2,9.2-26.4l4.5,7.2c1.7,2.6,4.4,4.5,7.5,5.1l23.1,3.4c0.7,0.1,1.5,0.2,2.2,0.2c4.9,0.4,9.3-3.2,10-8.1
	c1.2-6.1-2.7-12.1-8.9-13.4l-17.3-3.5l-8.5-14c0-12.1-12.5-19.5-12.9-19.8c-5.9-4-13.9-3.4-19.1,1.6C52.3,61.4,45.5,92.9,43.2,111
	l-22.8,2.9c-3.1,0.4-5.4,3.1-5.4,6.2V132c0,3.5,2.8,6.2,6.2,6.2h102.7l-0.7,5.7H12c-3.2,0-6.2,1.3-8.5,3.5
	c-4.6,4.8-4.4,12.4,0.4,16.9c2.2,2.1,5.1,3.3,8.1,3.3h5.5V194c-0.5,1.7,0.5,3.4,2.2,3.8c1.7,0.5,3.4-0.5,3.8-2.2
	c0.1-0.5,0.1-1.1,0-1.6v-26.4h102.3l11.1,18.2c3.2,5.3,10.2,7,15.5,3.8c0.2-0.1,0.5-0.3,0.7-0.4c5-3.5,6.4-10.3,3.1-15.4l-3.7-6.2
	h24.2v26.4c0.4,1.7,2.1,2.7,3.8,2.3c1.1-0.3,2-1.2,2.3-2.3v-26.3h5.5c3.2,0,6.2-1.3,8.5-3.5c2.2-2.3,3.4-5.3,3.3-8.4
	C200,149,194.6,143.7,188,143.7z M122.4,161.5H12c-3.3,0-5.9-2.6-5.9-5.9c0-3.3,2.6-5.9,5.9-5.9c0,0,0,0,0,0h110.5l-0.6,6.4
	C121.6,158,121.8,159.8,122.4,161.5z M77.3,42.5c3.3-2.7,8-2.9,11.4-0.4c0,0,10.4,6.2,10,15.2c-0.1,0.6,0.1,1.2,0.4,1.7l9.6,15.9
	c0.5,0.7,1.2,1.2,2,1.4l18.7,3.7c2.9,0.6,4.7,3.4,4.1,6.2c0,0,0,0,0,0c-0.5,2.3-1.5,3.1-4,3.1c-0.4,0-0.8,0-1.2,0L105.3,86
	c-1.4-0.3-2.6-1.1-3.4-2.3l-7.1-11.2c-0.5-0.9-1.5-1.4-2.5-1.4c-1,0-2,0.4-2.6,1.2c-6.9,10.4-11.3,22.2-13,34.6l-27.4,3.5
	C51.8,92.6,58.5,63.5,77.3,42.5z M149.6,184.2c-2.4,1.7-5.7,1.1-7.4-1.3c0-0.1-0.1-0.1-0.1-0.2l-13.6-22.2c-0.6-1-0.9-2.2-0.7-3.4
	l2.6-21.6c0.1-0.9-0.2-1.7-0.8-2.3c-0.6-0.7-1.4-1-2.2-1H21v-11.9l116.2-14.7h0.7c3.4,0,6.3,2.6,6.7,6l1.6,18.2
	c0.1,1.2-0.8,2.2-1.9,2.3c0,0-0.1,0-0.1,0c-1.6,0-2.9,1.1-3.1,2.7l-2.5,20.7c-0.1,0.7,0.1,1.4,0.4,1.9l11.9,19.7
	C152.3,179.3,151.8,182.4,149.6,184.2z M192.2,159.8c-1.1,1.1-2.6,1.7-4.2,1.7h-39.4l-4-6.5l0.7-5.3H188c3.3,0,5.9,2.7,5.9,6
	C193.9,157.3,193.3,158.7,192.2,159.8z M0,1 M0,1"/>
<path class="st1" d="M133.5,86.3c-0.5,2.3-1.5,3.1-4,3.1c-0.4,0-0.8,0-1.2,0L105.2,86c-1.4-0.3-2.6-1.1-3.4-2.3l-7.1-11.2
	c-0.5-0.9-1.5-1.4-2.5-1.4c-1,0-2,0.4-2.6,1.2c-6.9,10.4-11.3,22.2-13,34.6l-27.3,3.5c2.4-17.6,9.1-46.9,27.9-67.7
	c3.3-2.7,8-2.9,11.4-0.4c0,0,10.4,6.2,10,15.2c-0.1,0.6,0.1,1.2,0.4,1.7l9.6,15.9c0.5,0.7,1.2,1.2,2,1.4l18.7,3.7
	C132.2,80.9,134,83.5,133.5,86.3z"/>
<path class="st2" d="M87.1,41.2c-2,0-3.9,0.8-5.3,2.1C63.4,63.8,56.6,92,54.1,109.7l-4.7,0.7c2.4-17.6,9.1-46.9,27.9-67.7
	C80,40.3,83.8,39.7,87.1,41.2z"/>
<path class="st3" d="M91.3,71.2c-0.6,0.2-1.2,0.6-1.6,1.1c-6.9,10.4-11.3,22.2-13,34.6l-3.7,0.4c1.9-12.8,6.5-25.1,13.4-36.2
	c0.1-0.2,0.4-0.4,0.6-0.6c0.6-0.4,1.2-0.7,1.9-0.7C89.9,69.9,90.8,70.4,91.3,71.2z"/>
<path class="st4" d="M149.6,184.2c-2.4,1.7-5.7,1.1-7.4-1.3c0-0.1-0.1-0.1-0.1-0.2l-13.6-22.2c-0.6-1-0.9-2.2-0.7-3.4l2.6-21.6
	c0.1-0.9-0.2-1.7-0.8-2.3c-0.6-0.7-1.4-1-2.2-1H21v-11.9l116.2-14.7h0.7c3.4,0,6.3,2.6,6.7,6l1.6,18.2c0.1,1.2-0.8,2.2-1.9,2.3
	c0,0-0.1,0-0.1,0c-1.6,0-2.9,1.1-3.1,2.7l-2.5,20.7c-0.1,0.7,0.1,1.4,0.4,1.9l11.9,19.7C152.3,179.3,151.8,182.4,149.6,184.2z"/>
<path class="st5" d="M144.6,112.4c-1.3-1.6-3.2-2.5-5.2-2.5h-0.7L21.1,124.3v-4.3l116.1-14.5h0.7c3.4,0,6.3,2.6,6.7,6L144.6,112.4z"
	/>
<path class="st6" d="M129.5,131.3v1.4c-0.6-0.5-1.3-0.8-2-0.8H21.2v-4.1h105.4c0.5,0,0.9,0.1,1.3,0.3c0.4,0.1,0.7,0.4,0.9,0.7
	C129.4,129.6,129.6,130.5,129.5,131.3z"/>
<path class="st0" d="M111.1,5c-10.4,0-18.7,8.4-18.7,18.7s8.4,18.7,18.7,18.7s18.7-8.4,18.7-18.7S121.4,5,111.1,5z M111.1,36.3
	c-6.9,0-12.5-5.6-12.5-12.5s5.6-12.5,12.5-12.5c6.9,0,12.5,5.6,12.5,12.5S118,36.3,111.1,36.3z"/>
<path class="st7" d="M123.7,23.7c0,6.9-5.6,12.5-12.5,12.5c-6.9,0-12.5-5.6-12.5-12.5s5.6-12.5,12.5-12.5
	C118.1,11.2,123.7,16.8,123.7,23.7z"/>
<path class="st8" d="M123.7,23.7c0.2,6.9-5.3,12.6-12.2,12.8c-4.2,0.1-8.2-1.9-10.6-5.4c2.2,1.8,5,2.7,7.8,2.7
	c6.9-0.1,12.4-5.6,12.5-12.5c0-2.7-0.8-5.3-2.4-7.5C121.8,16.2,123.6,19.8,123.7,23.7z"/>
<path class="st0" d="M173.2,98.9c-10.2,0-18.5,8.3-18.6,18.5s8.3,18.5,18.5,18.6c10.2,0,18.5-8.3,18.6-18.5c0,0,0,0,0-0.1
	C191.7,107.2,183.4,98.9,173.2,98.9z M173.2,129.9c-6.9,0-12.5-5.6-12.5-12.5c0-6.9,5.6-12.5,12.5-12.5c6.9,0,12.5,5.6,12.5,12.5
	C185.7,124.3,180.1,129.9,173.2,129.9z"/>
<circle class="st7" cx="173.2" cy="117.4" r="12.5"/>
<path class="st8" d="M185.7,117.4c0,6.9-5.6,12.5-12.5,12.5c-6.9,0-12.5-5.6-12.5-12.5c0-0.6,0-1.1,0-1.7
	c1.1,6.8,7.6,11.4,14.4,10.3c5.3-0.9,9.4-5,10.3-10.3C185.5,116.3,185.6,116.9,185.7,117.4z"/>
</svg>
