<?xml version="1.0" encoding="utf-8"?>
<!-- Generator: Adobe Illustrator 24.3.0, SVG Export Plug-In . SVG Version: 6.00 Build 0)  -->
<svg version="1.1" id="Layer_1" xmlns="http://www.w3.org/2000/svg" xmlns:xlink="http://www.w3.org/1999/xlink" x="0px" y="0px"
	 viewBox="0 0 52 52" style="enable-background:new 0 0 52 52;" xml:space="preserve">
<style type="text/css">
	.st0{fill-rule:evenodd;clip-rule:evenodd;fill:#FBC894;}
	.st1{fill-rule:evenodd;clip-rule:evenodd;fill:#FBBD80;}
	.st2{fill-rule:evenodd;clip-rule:evenodd;fill:#E2AA73;}
	.st3{fill-rule:evenodd;clip-rule:evenodd;fill:#0593FC;}
	.st4{fill-rule:evenodd;clip-rule:evenodd;fill:#0584E3;}
	.st5{fill:#CF3939;}
	.st6{fill-rule:evenodd;clip-rule:evenodd;fill:#FF4646;}
	.st7{fill-rule:evenodd;clip-rule:evenodd;fill:#F1F1F1;}
	.st8{fill-rule:evenodd;clip-rule:evenodd;fill:#E63F3F;}
</style>
<g>
	<g>
		<g>
			<path class="st0" d="M32.2,39.7l7.9-4.3c1.4-0.7,1.9-2.5,1.1-3.8c-0.7-1.4-2.5-1.9-3.8-1.1L28.8,35L32.2,39.7z"/>
			<path class="st1" d="M30.9,44.8l16.5-9c1.4-0.7,1.9-2.5,1.1-3.8c-0.7-1.4-2.5-1.9-3.8-1.1l-8.5,4.6c-0.1-1.1-0.9-2-1.9-2.3
				c-3.2-1-6.5-2.1-9.7-3.1c-2.6-0.8-5.1-0.6-7.5,0.7l-10,5.4l5.7,10.5l3.7-2c1.7-0.9,3.6-1.1,5.5-0.5l3.6,1.1
				C27.3,45.9,29.2,45.7,30.9,44.8L30.9,44.8z"/>
			<path class="st2" d="M10.6,34.1l-3.6,2l5.7,10.5l3.7-2c0.1,0,0.1-0.1,0.2-0.1L10.6,34.1z"/>
			<path class="st3" d="M3.2,35.7L11.5,50c0.2,0.4,0.7,0.5,1,0.3l3.7-2.1c0.4-0.2,0.5-0.7,0.3-1L8.2,32.8c-0.2-0.4-0.7-0.5-1-0.3
				l-3.7,2.1C3.2,34.9,3,35.3,3.2,35.7z"/>
			<path class="st1" d="M20.4,34.6c1.3,0.4,2.6,0.8,3.9,1.2c2.8,0.9,5.5,1.8,8.3,2.7c1.5,0.5,3.1-0.3,3.6-1.8
				c0.5-1.5-0.3-3.1-1.8-3.6l-7.6-2.4L20.4,34.6z"/>
			<path class="st4" d="M3.2,35.7L11.5,50c0,0,0,0,0,0L3.8,36.7c-0.2-0.4-0.1-0.8,0.3-1l3.7-2.1c0.3-0.2,0.8-0.1,1,0.2l-0.6-1
				c-0.2-0.4-0.7-0.5-1-0.3l-3.7,2.1C3.2,34.9,3,35.3,3.2,35.7L3.2,35.7z"/>
		</g>
		<path class="st5" d="M25.9,9.7V2.9c0-0.7,0.6-1.3,1.3-1.3h12.5c0.7,0,1.3,0.6,1.3,1.3v6.8h-2.6V4.2h-9.9v5.5H25.9z"/>
		<g>
			<path class="st6" d="M22,7.3H45c0.8,0,1.5,0.7,1.5,1.5v15.5c0,0.8-0.7,1.5-1.5,1.5H22c-0.8,0-1.5-0.7-1.5-1.5V8.7
				C20.5,7.9,21.1,7.3,22,7.3z"/>
			<path class="st7" d="M32.4,10.8h2.2c0.3,0,0.6,0.3,0.6,0.6v3.4h3.4c0.3,0,0.6,0.3,0.6,0.6v2.2c0,0.3-0.3,0.6-0.6,0.6h-3.4v3.4
				c0,0.3-0.3,0.6-0.6,0.6h-2.2c-0.3,0-0.6-0.3-0.6-0.6v-3.4h-3.4c-0.3,0-0.6-0.3-0.6-0.6v-2.2c0-0.3,0.3-0.6,0.6-0.6h3.4v-3.4
				C31.8,11.1,32.1,10.8,32.4,10.8z"/>
			<path class="st8" d="M22.2,24.2V8.7c0-0.8,0.7-1.5,1.5-1.5h-1.7c-0.8,0-1.5,0.7-1.5,1.5v15.5c0,0.8,0.7,1.5,1.5,1.5h1.7
				C22.8,25.6,22.2,25,22.2,24.2z"/>
		</g>
	</g>
	<path d="M50,31.8c-0.5-0.9-1.3-1.5-2.2-1.8c-1-0.3-2-0.2-2.8,0.3l-2.4,1.3c0-0.1-0.1-0.2-0.1-0.2c-0.5-0.9-1.3-1.5-2.2-1.8
		c-1-0.3-2-0.2-2.8,0.3l-4.1,2.2c-2.8-0.9-5.7-1.8-8.5-2.7c-2.9-0.9-5.7-0.7-8.4,0.8L9.1,34l-0.8-1.4c-0.4-0.7-1.4-1-2.2-0.6
		l-3.8,2.2c-0.7,0.4-1,1.4-0.6,2.1c0,0,0,0,0,0l8.5,14.8c0.2,0.4,0.5,0.6,1,0.7c0.1,0,0.3,0.1,0.4,0.1c0.3,0,0.5-0.1,0.8-0.2
		l3.8-2.2c0.8-0.4,1-1.4,0.6-2.2l-0.8-1.3l0.4-0.2c1.6-0.9,3.3-1,5-0.5l3.7,1.2c0.8,0.3,1.7,0.4,2.5,0.4c1.3,0,2.6-0.3,3.8-1l17-9.3
		c0.9-0.5,1.5-1.3,1.8-2.2C50.5,33.6,50.4,32.6,50,31.8L50,31.8z M38.1,31.2c0.5-0.3,1.1-0.3,1.6-0.2c0.5,0.2,1,0.5,1.3,1
		c0,0.1,0.1,0.2,0.1,0.2L37,34.6c-0.4-0.8-0.9-1.4-1.7-1.8L38.1,31.2z M11.7,50.4L3.2,35.6l3.7-2.1l7.3,12.7c0,0,0,0,0,0
		c0,0,0,0,0,0l1.1,2L11.7,50.4z M48.7,34.1c-0.2,0.5-0.5,1-1,1.3l-17,9.3c-1.6,0.9-3.3,1-5,0.5L22,43.9c-2.2-0.7-4.3-0.5-6.3,0.6
		l-0.4,0.2l-5.4-9.3l7.1-3.9c2.3-1.2,4.7-1.5,7.2-0.7c3.4,1.1,6.7,2.2,10.1,3.2c0.8,0.2,1.3,0.9,1.4,1.7c0,0,0,0.1,0,0.1
		c0,0,0,0.1,0,0.1c0,0.3,0,0.5-0.1,0.7c-0.2,0.5-0.5,1-1,1.2c-0.5,0.3-1.1,0.3-1.6,0.1c-2.8-0.9-5.7-1.8-8.5-2.7
		c-0.4-0.1-0.9,0.1-1,0.5c-0.1,0.4,0.1,0.9,0.5,1c2.8,0.9,5.7,1.8,8.5,2.7c0.4,0.1,0.8,0.2,1.1,0.2c0.6,0,1.2-0.1,1.7-0.4
		c0.9-0.5,1.5-1.2,1.9-2.2c0.1-0.3,0.2-0.7,0.2-1l8.3-4.5c0.5-0.3,1.1-0.3,1.6-0.2c0.5,0.2,1,0.5,1.3,1C48.8,33,48.9,33.6,48.7,34.1
		L48.7,34.1z M21.8,26.4h23.8c1.3,0,2.3-1,2.3-2.3v-16c0-1.3-1-2.3-2.3-2.3h-3.3V2.1c0-1.2-1-2.1-2.1-2.1H27.3c-1.2,0-2.1,1-2.1,2.1
		v3.7h-3.3c-1.3,0-2.3,1-2.3,2.3v16C19.5,25.4,20.5,26.4,21.8,26.4L21.8,26.4z M26.8,2.1c0-0.3,0.2-0.5,0.5-0.5h12.9
		c0.3,0,0.5,0.2,0.5,0.5v3.7h-1V3.5c0-0.4-0.4-0.8-0.8-0.8H28.6c-0.4,0-0.8,0.4-0.8,0.8v2.4h-1L26.8,2.1L26.8,2.1z M29.4,5.8V4.3H38
		v1.6H29.4z M21.1,8.2c0-0.4,0.3-0.7,0.7-0.7h23.8c0.4,0,0.7,0.3,0.7,0.7v16c0,0.4-0.3,0.7-0.7,0.7H21.8c-0.4,0-0.7-0.3-0.7-0.7
		L21.1,8.2z M28.5,18.7h2.7v2.7c0,0.8,0.6,1.4,1.4,1.4h2.3c0.8,0,1.4-0.6,1.4-1.4v-2.7h2.7c0.8,0,1.4-0.6,1.4-1.4V15
		c0-0.8-0.6-1.4-1.4-1.4h-2.7v-2.7c0-0.8-0.6-1.4-1.4-1.4h-2.3c-0.8,0-1.4,0.6-1.4,1.4v2.7h-2.7c-0.8,0-1.4,0.6-1.4,1.4v2.3
		C27.1,18.1,27.7,18.7,28.5,18.7z M28.7,15.2H32c0.4,0,0.8-0.4,0.8-0.8v-3.3h1.9v3.3c0,0.4,0.4,0.8,0.8,0.8h3.3v1.9h-3.3
		c-0.4,0-0.8,0.4-0.8,0.8v3.3h-1.9v-3.3c0-0.4-0.4-0.8-0.8-0.8h-3.3V15.2z"/>
</g>
</svg>
