<?xml version="1.0" encoding="utf-8"?>
<!-- Generator: Adobe Illustrator 24.3.0, SVG Export Plug-In . SVG Version: 6.00 Build 0)  -->
<svg version="1.1" id="telemedicine" xmlns="http://www.w3.org/2000/svg" xmlns:xlink="http://www.w3.org/1999/xlink" x="0px"
	 y="0px" viewBox="0 0 200 200" style="enable-background:new 0 0 200 200;" xml:space="preserve">
<style type="text/css">
	.st0{fill:#ED6563;}
	.st1{fill:#464A51;}
	.st2{fill:#FB6B69;}
	.st3{fill:#45BFD9;}
	.st4{fill:#48CAE4;}
	.st5{fill:none;}
</style>
<g>
	<path class="st0" d="M55.6,199.1c-7.3,0-14-4.4-16.8-11.1c-1-2.3-1.6-4.8-1.6-7.3V19.3c0-10.2,8.2-18.4,18.4-18.4c0,0,0,0,0,0h88
		c10.3-0.3,18.9,7.7,19.2,18c0,0.1,0,0.3,0,0.4v161.4c0,10.2-8.2,18.4-18.4,18.4c0,0,0,0,0,0L55.6,199.1z"/>
	<path class="st0" d="M163.7,19.3v161.4c0,10.6-8.7,19.3-19.3,19.3H55.6c-7.7,0-14.6-4.6-17.6-11.7c-1.1-2.4-1.7-5-1.7-7.6V19.3
		C36.3,8.7,45,0,55.6,0h88.8C155,0,163.7,8.7,163.7,19.3z"/>
	<path class="st1" d="M144.4,0H55.6C45,0,36.3,8.7,36.3,19.3v161.4c0,2.6,0.6,5.2,1.7,7.6c3,7.1,9.9,11.7,17.6,11.7h88.8
		c10.6,0,19.3-8.7,19.3-19.3V19.3C163.7,8.7,155,0,144.4,0z M116.6,8.9l-1.6,5.5c-0.5,1.7-2.1,2.9-3.9,2.9H88.9
		c-1.8,0.1-3.4-1.1-3.9-2.9l-1.6-5.5H116.6z M154.9,180.7c0,5.8-4.7,10.5-10.5,10.5h0H55.6c-4.2,0-8.1-2.5-9.7-6.4
		c-0.5-1.3-0.8-2.7-0.8-4.1V19.3c0-5.8,4.7-10.5,10.5-10.5h18.6l2.4,8.1c1.6,5.5,6.6,9.2,12.3,9.2h22.3c5.7,0,10.7-3.7,12.3-9.2
		l2.4-8.1h19c5.6,0.3,10.1,4.9,10.1,10.5V180.7z"/>
	<path class="st2" d="M116.6,8.9l-1.6,5.5c-0.5,1.7-2.1,2.9-3.9,2.9H88.9c-1.8,0.1-3.4-1.1-3.9-2.9l-1.6-5.5H116.6z"/>
	<path class="st3" d="M144.8,8.8c0.6,6.1,1,12.3,1,18.5c0.1,35.6-10.8,70.4-31.3,99.6h22.6c2.4,0,4.4,2,4.4,4.4c0,2.4-2,4.4-4.4,4.4
		c0,0,0,0,0,0h-29.2c-6.2,8-13.2,15.4-20.9,22c1.1-0.4,2.3-0.5,3.5-0.5h18.9c7.2,0,13.1,5.8,13.1,13.1c0,7.2-5.8,13.1-13.1,13.1
		c0,0,0,0,0,0H90.5c-7.2,0-13.1-5.8-13.1-13c0,0,0,0,0-0.1c0-2,0.4-4,1.4-5.7c-10.2,8-21.2,14.9-33,20.4c1.7,3.9,5.5,6.4,9.7,6.4
		h88.8c5.8,0,10.5-4.7,10.5-10.5v0V19.3C154.9,13.7,150.5,9,144.8,8.8z M137.1,118.1h-5.7c-2.4,0-4.4-2-4.4-4.4c0-2.4,2-4.4,4.4-4.4
		h5.7c2.4,0,4.4,2,4.4,4.4C141.5,116.1,139.5,118.1,137.1,118.1C137.1,118.1,137.1,118.1,137.1,118.1z"/>
	<path class="st2" d="M113.8,170.2c0,2.4-1.9,4.3-4.3,4.3H90.5c-2.4,0-4.3-1.9-4.3-4.3c0-2.4,1.9-4.3,4.3-4.3c0,0,0,0,0,0h18.9
		C111.8,165.9,113.8,167.8,113.8,170.2z"/>
	<path class="st4" d="M83.9,126.8h30.6c20.5-29.2,31.4-63.9,31.3-99.6c0-6.2-0.3-12.4-1-18.5h-19l-2.4,8.1
		c-1.6,5.5-6.6,9.2-12.3,9.2H88.9c-5.7,0-10.7-3.7-12.3-9.2l-2.4-8.1H55.6c-5.8,0-10.5,4.7-10.5,10.5c0,0,0,0,0,0v161.4
		c0,1.4,0.3,2.8,0.8,4.1c11.7-5.5,22.8-12.3,33-20.4c1.5-3.4,4.5-5.9,8.2-6.8c7.6-6.7,14.6-14,20.9-22h-24c-2.4,0-4.3-2-4.4-4.4
		C79.5,128.8,81.4,126.8,83.9,126.8z M88.1,68.9h5.6v-5.7c0-2.4,2-4.3,4.4-4.4c2.4,0,4.4,2,4.4,4.4v5.7h5.7c2.4,0,4.4,2,4.4,4.4
		c0,2.4-2,4.4-4.4,4.4h-5.7v5.7c0,2.4-2,4.4-4.4,4.4c-2.4,0-4.3-2-4.4-4.4v-5.7h-5.6c-2.4,0-4.4-2-4.4-4.4
		C83.7,70.8,85.6,68.9,88.1,68.9z M68.6,135.6h-5.7c-2.4,0-4.4-2-4.4-4.4s2-4.4,4.4-4.4h5.7c2.4,0,4.4,2,4.4,4.4
		S71,135.6,68.6,135.6z M62.9,118.1c-2.4,0-4.4-2-4.4-4.4c0-2.4,2-4.4,4.4-4.4h53.2c2.4,0,4.4,2,4.4,4.4c0,2.4-2,4.4-4.4,4.4H62.9z"
		/>
	<path class="st5" d="M144.8,8.8h-19l-2.4,8.1c-1.6,5.5-6.6,9.2-12.3,9.2H88.9c-5.7,0-10.7-3.7-12.3-9.2l-2.4-8.1H55.6
		c-5.8,0-10.5,4.7-10.5,10.5c0,0,0,0,0,0v161.4c0,1.4,0.3,2.8,0.8,4.1c-2.6,1.3-5.3,2.5-7.9,3.5c-1.1-2.4-1.7-5-1.7-7.6V19.3
		C36.3,8.7,45,0,55.6,0h88C144.1,2.9,144.5,5.8,144.8,8.8z"/>
</g>
</svg>
