<?xml version="1.0" encoding="utf-8"?>
<!-- Generator: Adobe Illustrator 24.3.0, SVG Export Plug-In . SVG Version: 6.00 Build 0)  -->
<svg version="1.1" id="grid" xmlns="http://www.w3.org/2000/svg" xmlns:xlink="http://www.w3.org/1999/xlink" x="0px" y="0px"
	 viewBox="0 0 52 52" style="enable-background:new 0 0 52 52;" xml:space="preserve">
<style type="text/css">
	.st0{fill:#FF7885;}
	.st1{fill:#5AD0FF;}
	.st2{fill:#FFD766;}
	.st3{fill:#36FFB6;}
</style>
<g>
	<path class="st0" d="M17,28.8h6.2v22.1H1.1V28.8h13.5"/>
	<path class="st1" d="M23.2,10.3v12.9H1.1V1.1h22.1v6.8"/>
	<path class="st2" d="M50.9,17v6.2H28.8V1.1h22.1v13.5"/>
	<path class="st3" d="M35,50.9h-6.2V28.8h22.1v22.1H37.4"/>
	<path d="M1.1,52h22.1c0.7,0,1.1-0.4,1.1-1.1V28.8c0-0.7-0.4-1.1-1.1-1.1H17v2.2h5.1v19.9H2.2V29.8h12.4v-2.2H1.1
		c-0.7,0-1.1,0.4-1.1,1.1v22.1C0,51.5,0.5,52,1.1,52z M1.1,24.3h22.1c0.7,0,1.1-0.4,1.1-1.1V10.3h-2.2v11.8H2.2V2.2h19.9v5.6h2.2
		V1.1c0-0.7-0.4-1.1-1.1-1.1H1.1C0.5,0,0,0.5,0,1.1v22.1C0,23.8,0.5,24.3,1.1,24.3z M50.9,0H28.8c-0.7,0-1.1,0.4-1.1,1.1v22.1
		c0,0.7,0.4,1.1,1.1,1.1h22.1c0.7,0,1.1-0.4,1.1-1.1V17h-2.2v5.1H29.9V2.2h19.9v12.4H52V1.1C52,0.5,51.5,0,50.9,0z M50.9,27.7H28.8
		c-0.7,0-1.1,0.4-1.1,1.1v22.1c0,0.7,0.4,1.1,1.1,1.1h6.2v-2.2h-5.1V29.9h19.9v19.9H37.4V52h13.5c0.7,0,1.1-0.4,1.1-1.1V28.8
		C52,28.2,51.5,27.7,50.9,27.7z"/>
</g>
</svg>
