<?xml version="1.0" encoding="utf-8"?>
<!-- Generator: Adobe Illustrator 24.3.0, SVG Export Plug-In . SVG Version: 6.00 Build 0)  -->
<svg version="1.1" id="svg8" xmlns:svg="http://www.w3.org/2000/svg"
	 xmlns="http://www.w3.org/2000/svg" xmlns:xlink="http://www.w3.org/1999/xlink" x="0px" y="0px" viewBox="0 0 52 52"
	 style="enable-background:new 0 0 52 52;" xml:space="preserve">
<style type="text/css">
	.st0{fill:#FF9955;}
	.st1{fill:#E4EFF8;}
	.st2{fill:#FF7F29;}
	.st3{fill:#C4DCF0;}
	.st4{fill:#549AD4;}
	.st5{fill:#3588CB;}
	.st6{fill:#FFC6A0;}
	.st7{fill:#FFAF7A;}
</style>
<g id="layer2">
	<path id="rect4820-7" class="st0" d="M22.7,0.8h26c1.4,0,2.4,1.1,2.4,2.4V26c0,1.4-1.1,2.4-2.4,2.4h-26c-1.4,0-2.4-1.1-2.4-2.4V3.3
		C20.3,1.9,21.4,0.8,22.7,0.8L22.7,0.8z"/>
	<path id="path4836-6" class="st1" d="M39,0.8l0,9.7l-3.2-1.6l-3.2,1.6V0.8"/>
	<path id="path4822-3" class="st2" d="M22,0.9c-1,0.3-1.7,1.2-1.7,2.3V26c0,1.4,1.1,2.4,2.4,2.4h26c1.1,0,2-0.7,2.3-1.7
		c-0.2,0.1-0.5,0.1-0.7,0.1h-26c-1.4,0-2.4-1.1-2.4-2.4V1.6C21.9,1.4,22,1.2,22,0.9L22,0.9z"/>
	<path id="path4838-1" class="st3" d="M32.5,0.8v9.7l1.6-0.8V0.8L32.5,0.8z"/>
	<path id="rect4824-7" class="st4" d="M1.6,34.1h7.3c0.5,0,0.8,0.4,0.8,0.8v14.6c0,0.5-0.4,0.8-0.8,0.8H1.6c-0.5,0-0.8-0.4-0.8-0.8
		V34.9C0.8,34.5,1.2,34.1,1.6,34.1L1.6,34.1z"/>
	<path id="path4826-5" class="st5" d="M1.6,34.1c-0.5,0-0.8,0.4-0.8,0.8v14.6c0,0.5,0.4,0.8,0.8,0.8h7.3c0.5,0,0.8-0.4,0.8-0.8v-0.8
		H3.3c-0.5,0-0.8-0.4-0.8-0.8V34.1L1.6,34.1z"/>
	<path id="path4828-9" class="st6" d="M9.8,36v11.7c1.1-0.2,3.2-0.6,4.8-0.6c2.4,0,5.3,4.1,8.9,4.1c4.1,0,21.6-10.4,21.6-10.4
		c1-0.5,1.6-1.6,1.2-2.6c-0.4-1.1-1.6-1.6-2.6-1.2l-12.8,4.4l-0.1,0c0.2-1-0.2-2-1.2-2.6L21.1,34c0,0-1.4-0.9-4.1-0.9
		C15.2,33.2,12.8,34.3,9.8,36L9.8,36z"/>
	<path id="path4830-6" class="st7" d="M46.2,38.1c-0.2,0.5-0.6,0.9-1.1,1.1c0,0-17.5,10.4-21.6,10.4c-3.6,0-6.5-4.1-8.9-4.1
		c-1.6,0-3.7,0.4-4.8,0.6v1.6c1.1-0.2,3.2-0.6,4.8-0.6c2.4,0,5.3,4.1,8.9,4.1c4.1,0,21.6-10.4,21.6-10.4c1-0.5,1.6-1.6,1.2-2.6
		C46.3,38.1,46.3,38.1,46.2,38.1L46.2,38.1z"/>
	<path id="path4832-2" vector-effect="none" d="M19.5,3.3l0,22.7c0,1.8,1.4,3.2,3.3,3.2h26c1.8,0,3.3-1.5,3.3-3.2V3.3
		C52,1.5,50.6,0,48.7,0c-8.9,0-17.1,0-26,0C20.9,0,19.5,1.5,19.5,3.3L19.5,3.3z M22.7,1.6h8.9v8.9c0,0.6,0.6,1,1.2,0.7l2.9-1.4
		l2.9,1.4c0.5,0.3,1.2-0.1,1.2-0.7V1.6h8.9c0.9,0,1.6,0.7,1.6,1.6V26c0,0.9-0.7,1.6-1.6,1.6l-26,0c-0.9,0-1.6-0.7-1.6-1.6l0-22.7
		C21.1,2.4,21.8,1.6,22.7,1.6L22.7,1.6z M33.3,1.6h4.9v7.6l-2.1-1c-0.2-0.1-0.5-0.1-0.7,0l-2.1,1V1.6z M13,6.5c-1.1,0-1.1,1.6,0,1.6
		h3.2c1.1,0,1.1-1.6,0-1.6H13z M0.8,9.8c-1.1,0-1.1,1.6,0,1.6h9.7c1.1,0,1.1-1.6,0-1.6H0.8z M6.5,14.6c-1.1,0-1.1,1.6,0,1.6H13
		c1.1,0,1.1-1.6,0-1.6H6.5z M2.4,19.5c-1.1,0-1.1,1.6,0,1.6h8.1c1.1,0,1.1-1.6,0-1.6H2.4z M40.6,21.1c-0.4,0-0.8,0.3-0.8,0.8v2.4
		c0,1.1,1.6,1.1,1.6,0v-2.4C41.4,21.4,41,21.1,40.6,21.1z M43.9,21.1c-0.4,0-0.8,0.3-0.8,0.8v2.4c0,1.1,1.6,1.1,1.6,0v-2.4
		C44.7,21.4,44.3,21.1,43.9,21.1z M47.1,21.1c-0.4,0-0.8,0.3-0.8,0.8v2.4c0,1.1,1.6,1.1,1.6,0v-2.4C47.9,21.4,47.5,21.1,47.1,21.1z
		 M17.1,32.4c-1.9,0-4.2,1-6.5,2.3c-0.1-0.8-0.8-1.4-1.6-1.4H1.6C0.7,33.3,0,34,0,34.9v14.6c0,0.9,0.7,1.6,1.6,1.6h7.3
		c0.9,0,1.6-0.7,1.6-1.6v-1.1c1.1-0.2,2.7-0.5,4.1-0.5c0.9,0,2.1,0.9,3.6,1.9c1.5,1,3.3,2.2,5.4,2.2c1.2,0,3.2-0.7,5.4-1.7
		c2.2-1,4.8-2.3,7.3-3.6c4.9-2.6,9.2-5.2,9.3-5.2c1.3-0.7,2.1-2.1,1.6-3.6c-0.5-1.5-2.2-2.2-3.6-1.7l-11.9,4.1
		c-0.2-0.9-0.7-1.7-1.6-2.1l-8.4-4.9C21.5,33.3,19.9,32.4,17.1,32.4L17.1,32.4z M17.1,34c2.2,0,3.4,0.6,3.7,0.8l8.5,4.9
		c0.8,0.5,1,1.5,0.6,2.2c-0.4,0.8-1.4,1.1-2.2,0.6l-4.9-2.8c-0.9-0.5-1.7,0.9-0.8,1.4l4.9,2.8c1.5,0.9,3.5,0.4,4.4-1.2
		c0.1-0.2,0.2-0.4,0.3-0.6L44,37.8c0.6-0.2,1.3,0.1,1.6,0.7c0.2,0.6-0.1,1.2-0.8,1.6c0,0-4.4,2.6-9.2,5.2c-2.4,1.3-5,2.6-7.2,3.5
		c-2.2,1-3.9,1.6-4.7,1.6c-1.6,0-3-0.9-4.5-1.9c-1.4-1-3-2.2-4.5-2.2c-1.4,0-2.9,0.2-4.1,0.4V36.5C13.3,34.9,15.5,34,17.1,34
		L17.1,34z M1.6,34.9h7.3v14.6H1.6V34.9z M4.1,46.3c-0.4,0-0.8,0.4-0.8,0.8s0.4,0.8,0.8,0.8s0.8-0.4,0.8-0.8S4.5,46.3,4.1,46.3z"/>
</g>
</svg>
