<?xml version="1.0" encoding="utf-8"?>
<!-- Generator: Adobe Illustrator 24.3.0, SVG Export Plug-In . SVG Version: 6.00 Build 0)  -->
<svg version="1.1" id="mechanic" xmlns="http://www.w3.org/2000/svg" xmlns:xlink="http://www.w3.org/1999/xlink" x="0px" y="0px"
	 viewBox="0 0 52 52" style="enable-background:new 0 0 52 52;" xml:space="preserve">
<style type="text/css">
	.st0{fill:#8E6338;}
	.st1{fill:#88C6C2;}
	.st2{fill:#686667;}
	.st3{fill:#FADDA2;}
</style>
<g>
	<g>
		<path class="st0" d="M31.3,6.8l-1.7,2.6c-1.1-0.6-2.3-0.9-3.5-0.9c-1.7,0-2.9,0.6-3.5,0.9l-1.7-2.6C21.3,6.3,23.2,5,26,5
			C26.8,5,29,5.1,31.3,6.8z"/>
	</g>
	<g>
		<path class="st1" d="M31.2,1.5c3.8,1.2,5.6,5.4,5.3,11.4h-0.1l-2.6,2.6c-1.2-0.6-2.7-1.2-4.4-1.7c-1.2-0.4-2.4-0.7-3.5-0.9
			c-1.1,0.2-2.2,0.5-3.5,0.9c-1.7,0.5-3.1,1.1-4.4,1.7l-2.6-2.6C15.2,6.8,17,2.8,20.8,1.5c0.8-0.3,3.5-0.9,5.2-0.9
			C27.8,0.6,30.4,1.2,31.2,1.5z M29.5,9.4l1.7-2.6C29,5.1,26.7,5,26,5c-2.8,0-4.7,1.3-5.3,1.7l1.7,2.6c0.6-0.3,1.8-0.9,3.5-0.9
			C26.7,8.5,28,8.6,29.5,9.4z M18.7,34.3c1.1,2.3,4,3.9,7.3,3.9s6.2-1.6,7.4-3.9c0.2,0.1,0.4,0.2,0.6,0.2l11.6,2.8
			c2.4,0.6,4,2.7,4,5.1v9H2.4v-9c0-2.4,1.7-4.5,4-5.1l11.6-2.8C18.3,34.5,18.5,34.4,18.7,34.3z M40,41.8h3.1c-0.7-1.5-2.2-2.6-4-2.6
			c-1.8,0-3.3,1.1-4,2.6H16.5c-0.7-1.5-2.2-2.6-4-2.6s-3.3,1.1-4,2.6h3.1v3.5H8.5c0.7,1.6,2.2,2.6,4,2.6s3.3-1.1,4-2.6h18.6
			c0.7,1.6,2.2,2.6,4,2.6s3.3-1.1,4-2.6H40L40,41.8L40,41.8z"/>
	</g>
	<g>
		<path class="st2" d="M43.3,41.8h-3.1v3.5h3.1c-0.7,1.6-2.2,2.6-4,2.6s-3.3-1.1-4-2.6H16.7c-0.7,1.6-2.2,2.6-4,2.6s-3.3-1.1-4-2.6
			h3.1v-3.5H8.7c0.7-1.5,2.2-2.6,4-2.6s3.3,1.1,4,2.6h18.6c0.7-1.5,2.2-2.6,4-2.6S42.6,40.2,43.3,41.8z"/>
	</g>
	<g>
		<path class="st3" d="M18.7,34.3c0.1-0.1,0.3-0.1,0.4-0.2c0,0,0.1,0,0.1,0c0.1-0.1,0.2-0.2,0.4-0.3c0.1-0.1,0.3-0.2,0.4-0.3
			c0.4-0.4,0.6-0.9,0.8-1.4c0-0.1,0.1-0.2,0.1-0.3c0-0.1,0-0.1,0-0.2c0-0.1,0-0.3,0-0.4v-2.7c0.1,0.1,0.2,0.2,0.2,0.3
			c0.5,0.6,1,1.1,1.5,1.5l0.2,0.1c0.5,0.5,0.8,0.8,0.8,0.8s0.1,0.1,0.3,0.2c0.1,0,0.2,0.1,0.2,0.1c0.3,0.1,0.7,0.3,1,0.4
			c0.1,0.1,0.3,0.1,0.4,0.1c0.2,0.1,0.4,0.1,0.5,0.1h0.1c0,0,0.1,0,0.1,0s0.1,0,0.2,0c0.1,0,0.2,0,0.3-0.1c0.1,0,0.3-0.1,0.4-0.1
			c0.8-0.3,1.6-0.7,1.6-0.7s0,0,0.1-0.1l0.1-0.1c0.1-0.1,0.2-0.2,0.3-0.3l0.2-0.2l0.2-0.2c0.3-0.3,0.6-0.6,1-1l0.4-0.5
			c0.1-0.1,0.3-0.3,0.4-0.4v2.6c0,0.1,0,0.3,0,0.4c0,0.1,0,0.1,0,0.2c0,0.1,0.1,0.2,0.1,0.3c0,0.1,0.1,0.2,0.1,0.2
			c0.1,0.3,0.2,0.6,0.4,0.8c0.1,0.1,0.2,0.2,0.3,0.4s0.2,0.2,0.3,0.3l0,0c0.1,0.1,0.2,0.2,0.3,0.3c0.1,0,0.1,0.1,0.1,0.1
			c0.1,0.1,0.2,0.1,0.3,0.2c0,0,0.1,0,0.1,0c-1.1,2.3-4,3.9-7.4,3.9S19.8,36.6,18.7,34.3L18.7,34.3L18.7,34.3z M17,22.7
			c0.3,0.6,0.6,1.2,1,2.1c-2.8-1-4.9-3.1-6-5.8v-2.4c0-0.6,0.5-1,1.1-0.9l2.4,0.6l0.1,0.3c0,0.3,0,0.6,0.1,0.9c0,0.2,0,0.3,0,0.5
			c0.2,1.9,0.5,2.9,1.1,4.2C16.8,22.4,16.9,22.6,17,22.7z M35.2,22.5c0.1-0.2,0.2-0.4,0.2-0.5c0.1-0.3,0.2-0.5,0.3-0.8
			c0-0.1,0.1-0.2,0.1-0.3c0.3-0.8,0.4-1.6,0.5-2.7c0-0.2,0-0.4,0.1-0.6c0-0.2,0-0.5,0-0.7c0-0.1,0-0.3,0-0.4l0-0.1l2.4-0.6
			c0.5-0.1,0.9,0.2,1.1,0.6c0,0.1,0,0.1,0,0.2V19c-1.1,2.7-3.2,4.8-5.9,5.7c0.1-0.1,0.1-0.3,0.2-0.4c0.1-0.1,0.1-0.2,0.2-0.3
			c0.2-0.4,0.4-0.9,0.6-1.2C35.1,22.7,35.2,22.6,35.2,22.5z"/>
	</g>
	<g>
		<path class="st3" d="M15.5,12.9l2.6,2.6c1.2-0.6,2.7-1.2,4.4-1.7c1.2-0.4,2.4-0.7,3.5-0.9c1.1,0.2,2.2,0.5,3.5,0.9
			c1.7,0.5,3.1,1.1,4.4,1.7l2.6-2.6h0.1c0,0.3,0,0.6-0.1,0.9c0,1.2,0,2.3-0.1,3.1c0,0.3,0,0.5,0,0.7c0,0.2,0,0.4-0.1,0.6
			c-0.1,1.1-0.3,2-0.5,2.7c0,0.1-0.1,0.2-0.1,0.3c-0.1,0.3-0.2,0.5-0.3,0.8c-0.1,0.2-0.2,0.3-0.2,0.5c-0.1,0.1-0.1,0.2-0.1,0.3
			c-0.2,0.4-0.4,0.8-0.6,1.2c-0.1,0.1-0.1,0.2-0.2,0.3c-0.1,0.2-0.3,0.5-0.4,0.8c-0.5,0.9-1.6,2.2-2.6,3.4c-0.1,0.1-0.3,0.3-0.4,0.4
			l-0.4,0.5c-0.4,0.4-0.7,0.7-1,1c-0.1,0.1-0.1,0.1-0.2,0.2l-0.2,0.2c-0.2,0.1-0.3,0.3-0.3,0.3c0,0-0.1,0.1-0.1,0.1
			c-0.1,0-0.1,0.1-0.1,0.1s-0.8,0.4-1.6,0.7c-0.1,0.1-0.3,0.1-0.4,0.1c-0.1,0-0.2,0.1-0.3,0.1l-0.2,0c0,0-0.1,0-0.1,0h-0.1
			c-0.2,0-0.3-0.1-0.5-0.1c-0.1,0-0.3-0.1-0.4-0.1c-0.4-0.1-0.8-0.3-1-0.4c-0.1-0.1-0.2-0.1-0.2-0.1c-0.2-0.1-0.3-0.2-0.3-0.2
			s-0.3-0.4-0.9-0.9c-0.1-0.1-0.1-0.1-0.2-0.2c-0.4-0.4-0.9-1-1.5-1.5c-1.1-1.2-2.3-2.6-2.8-3.6C18.1,25,18,24.9,18,24.8
			c-0.4-0.8-0.8-1.5-1-2.1c-0.1-0.2-0.1-0.3-0.2-0.4c-0.6-1.3-0.9-2.3-1.1-4.2c0-0.2,0-0.3,0-0.5c0-0.3,0-0.6-0.1-0.9
			c-0.1-0.8-0.1-1.7-0.1-2.9C15.5,13.5,15.5,13.2,15.5,12.9z"/>
	</g>
	<g>
		<g>
			<path d="M26.3,32.7l-0.2-1.2l0.2,0l0.2,1.2L26.3,32.7z M26.8,32.7l-0.3-1.2l0.1,0c0.1,0,0.2-0.1,0.3-0.1l0.4,1.2
				C27.1,32.6,26.9,32.6,26.8,32.7L26.8,32.7z M29.1,31.6C29.1,31.6,29.2,31.6,29.1,31.6L29.1,31.6C29.2,31.6,29.2,31.6,29.1,31.6z
				 M29.1,31.5l-0.9-0.6c0.1-0.1,0.1-0.2,0.2-0.2L29.1,31.5z M29.5,31.2l-0.9-0.9l0.1-0.1c0.1-0.1,0.2-0.2,0.2-0.2l0.8,1
				c0,0-0.1,0.1-0.1,0.1l0,0L29.5,31.2z M30.9,29.9L30,29l0.4-0.5l0.9,0.9L30.9,29.9z M31.7,29l-0.9-0.9c1.3-1.5,2.2-2.6,2.5-3.3
				c0.1-0.2,0.2-0.3,0.2-0.5c0.1-0.1,0.1-0.2,0.2-0.3l1.1,0.6c-0.1,0.1-0.1,0.2-0.2,0.3c-0.1,0.2-0.2,0.3-0.2,0.5
				C34,26.3,33.1,27.4,31.7,29z M35,24.3l-1.1-0.6c0.1-0.2,0.2-0.4,0.3-0.6c0.1-0.2,0.2-0.4,0.3-0.6l1.1,0.5
				c-0.1,0.2-0.2,0.4-0.3,0.7C35.2,23.9,35.1,24.1,35,24.3z M35.7,22.8l-1.1-0.5c0.1-0.2,0.2-0.3,0.2-0.5l0.6,0.3l0.6,0.3
				C35.9,22.4,35.8,22.6,35.7,22.8z M36.3,21.5L35.1,21c0-0.1,0.1-0.1,0.1-0.2l1.2,0.4C36.4,21.2,36.4,21.4,36.3,21.5z M37,18.3
				l-1.3-0.1c0-0.2,0-0.4,0.1-0.6l1.3,0.1C37,17.9,37,18.1,37,18.3z M33.9,16.1c-0.1,0-0.2,0-0.3-0.1c-1.3-0.6-2.8-1.2-4.3-1.7
				c-1.1-0.3-2.2-0.6-3.3-0.8c-1.1,0.2-2.2,0.5-3.3,0.8c-1.5,0.5-2.9,1-4.3,1.7c-0.2,0.1-0.5,0.1-0.7-0.1L15,13.3l0.9-0.9l2.3,2.3
				c1.3-0.6,2.7-1.1,4.1-1.6c1.2-0.4,2.4-0.6,3.6-0.9c0.1,0,0.2,0,0.2,0c1.2,0.2,2.4,0.5,3.6,0.9c1.4,0.4,2.8,1,4.1,1.6l2.3-2.3
				l0.9,0.9L34.3,16C34.2,16.1,34,16.1,33.9,16.1z"/>
		</g>
		<g>
			<path d="M25.3,32.7l-0.1,0c-0.1,0-0.2-0.1-0.3-0.1l0.4-1.2c0.1,0,0.2,0.1,0.2,0.1l0.1,0L25.3,32.7z M23.8,32.1
				c-0.1,0-0.1,0-0.1-0.1c-0.1,0-0.1-0.1-0.1-0.1l0.6-1.1c0,0,0.1,0,0.1,0.1s0.1,0.1,0.1,0.1L23.8,32.1z M22.2,30.9L22,30.7l0.9-0.9
				l0.2,0.2L22.2,30.9z M20.5,29.2c-1.5-1.7-2.5-2.9-2.9-3.7c0-0.1-0.1-0.2-0.1-0.2l-0.1-0.1l1.1-0.6l0.1,0.1
				c0.1,0.1,0.1,0.2,0.1,0.3c0.4,0.7,1.2,1.9,2.7,3.4L20.5,29.2z M16.4,23c-0.1-0.2-0.2-0.3-0.2-0.5l1.2-0.5
				c0.1,0.1,0.1,0.3,0.2,0.4L16.4,23z M15.1,18.1c0-0.1,0-0.1,0-0.2c0-0.1,0-0.2,0-0.3l1.3-0.1c0,0.1,0,0.2,0,0.3c0,0.1,0,0.2,0,0.2
				L15.1,18.1z M37.1,16.9l-1.3-0.1c0-0.9,0.1-1.9,0.1-3.1c0,0,0,0,0-0.1c0-0.3,0.1-0.6,0.1-0.8c0.2-5.8-1.5-9.6-4.9-10.7
				c-0.8-0.3-3.4-0.8-5-0.8c-1.7,0-4.3,0.6-5,0.8c-4.3,1.5-5,6.7-4.9,10.8c0,0.3,0,0.5,0.1,0.8c0,0,0,0.1,0,0.1c0,1,0,2,0.1,2.9
				L15,16.7c0-0.9-0.1-1.9-0.1-2.9c0-0.3,0-0.6-0.1-0.9c-0.3-6.4,1.7-10.7,5.7-12C21.6,0.6,24.2,0,26,0c1.8,0,4.5,0.6,5.4,0.9
				c4,1.3,6,5.6,5.7,12c0,0.3,0,0.6-0.1,0.9C37.1,15,37.1,16,37.1,16.9z"/>
		</g>
		<g>
			<path d="M49.6,52H2.4c-0.3,0-0.6-0.3-0.6-0.6v-9c0-2.7,1.9-5.1,4.5-5.7l11.6-2.8c0.2-0.1,0.3-0.1,0.5-0.2l0.5,1.1
				c-0.2,0.1-0.4,0.2-0.7,0.2L6.6,37.9C4.5,38.4,3,40.2,3,42.4v8.3h46v-8.3c0-2.2-1.5-4-3.5-4.5l-11.6-2.8c-0.3-0.1-0.5-0.2-0.7-0.2
				l0.5-1.1c0.1,0.1,0.3,0.1,0.5,0.2l11.6,2.8c2.7,0.6,4.5,3,4.5,5.7v9C50.2,51.7,50,52,49.6,52z M33,34.9c-0.1-0.1-0.3-0.1-0.4-0.2
				l0.7-1.1c0.1,0.1,0.1,0.1,0.2,0.1L33,34.9z M19,34.9l-0.5-1.1c0.1-0.1,0.2-0.1,0.3-0.2l0.7,1.1C19.3,34.7,19.1,34.8,19,34.9z
				 M19.5,34.6l-0.6-1.1c0.1-0.1,0.2-0.1,0.3-0.2l0,0c0.1-0.1,0.2-0.2,0.3-0.3l0,0c0.1-0.1,0.2-0.2,0.2-0.3l1.1,0.7
				c-0.1,0.2-0.2,0.3-0.3,0.4c-0.1,0.2-0.3,0.3-0.4,0.4C19.8,34.4,19.6,34.5,19.5,34.6z M32.5,34.6c-0.2-0.1-0.3-0.2-0.4-0.3l0,0
				c-0.2-0.1-0.3-0.3-0.4-0.4c-0.1-0.1-0.2-0.3-0.3-0.4l1-0.7c0.1,0.1,0.2,0.2,0.2,0.3c0.1,0.1,0.2,0.2,0.3,0.3l-0.7,0.9l0.8-0.8
				c0.1,0.1,0.2,0.1,0.2,0.2L32.5,34.6z M30.9,32.6c-0.1-0.1-0.1-0.2-0.1-0.4l1.2-0.3c0,0.1,0,0.1,0,0.1L30.9,32.6z M21.2,32.5
				L20,32.1c0-0.1,0-0.1,0.1-0.1l1.2,0.3C21.2,32.3,21.2,32.4,21.2,32.5z M30.7,31.8C30.7,31.8,30.7,31.8,30.7,31.8
				c0-0.1,0-0.2,0-0.2l1.2-0.2c0,0,0,0.1,0,0.1c0,0.1,0,0.1,0,0.1L30.7,31.8z M21.3,31.8l-1.2-0.2c0,0,0-0.1,0-0.1c0,0,0-0.1,0-0.1
				l1.2,0.2C21.3,31.6,21.3,31.7,21.3,31.8C21.3,31.8,21.3,31.8,21.3,31.8z M18,25.4c-0.1,0-0.1,0-0.2,0c-2.9-1-5.3-3.3-6.4-6.2
				c0-0.1-0.1-0.2-0.1-0.2v-2.4c0-0.5,0.2-0.9,0.6-1.2c0.4-0.3,0.9-0.4,1.3-0.3l2.4,0.6c0.2,0.1,0.4,0.2,0.4,0.4l0.1,0.3
				c0,0.1,0.1,0.2,0.1,0.2c0,0.3,0,0.6,0.1,0.9c0,0.1,0,0.2,0,0.3c0,0.1,0,0.2,0,0.2c0.2,1.8,0.5,2.8,1,4c0.1,0.1,0.1,0.3,0.2,0.4
				c0.2,0.3,0.3,0.7,0.5,1.1c0.2,0.3,0.3,0.6,0.5,1c0.1,0.2,0.1,0.5-0.1,0.7C18.4,25.4,18.2,25.4,18,25.4z M12.6,18.9
				c0.8,2,2.2,3.5,4,4.6c-0.1-0.2-0.2-0.3-0.2-0.5s-0.1-0.3-0.2-0.4c-0.6-1.3-1-2.4-1.1-4.4c0-0.1,0-0.2,0-0.2c0-0.1,0-0.2,0-0.3
				c0-0.2,0-0.4,0-0.7l-2.1-0.5c-0.1,0-0.2,0-0.2,0.1c0,0-0.1,0.1-0.1,0.2L12.6,18.9L12.6,18.9z M34,25.4c-0.2,0-0.3-0.1-0.5-0.2
				c-0.2-0.2-0.2-0.5-0.1-0.7l0.1-0.1c0.1-0.1,0.1-0.2,0.1-0.3c0,0,0-0.1,0-0.1c0.1-0.1,0.1-0.2,0.1-0.2l0.1-0.1
				c0.2-0.5,0.4-0.9,0.6-1.2l0.1-0.1c0-0.1,0.1-0.1,0.1-0.2l0.1-0.1c0.1-0.1,0.1-0.3,0.2-0.4c0.1-0.3,0.2-0.5,0.3-0.7v0
				c0-0.1,0.1-0.1,0.1-0.2c0.3-0.8,0.4-1.6,0.5-2.6v0c0-0.1,0-0.3,0-0.4l0-0.2c0-0.2,0-0.4,0-0.7c0-0.1,0-0.3,0-0.4
				c0-0.1,0-0.1,0-0.2l0-0.1c0.1-0.2,0.2-0.4,0.4-0.4l2.4-0.6c0.4-0.1,0.9,0,1.3,0.3c0.4,0.3,0.6,0.7,0.6,1.2V19
				c0,0.1,0,0.2-0.1,0.2c-1.1,2.8-3.4,5.1-6.3,6.1C34.2,25.4,34.1,25.4,34,25.4z M36.3,21.5c-0.1,0.3-0.2,0.5-0.3,0.8
				c-0.1,0.2-0.1,0.3-0.2,0.4l-0.1,0.2c0,0.1-0.1,0.1-0.1,0.2c-0.1,0.1-0.1,0.2-0.2,0.3c1.7-1,3.1-2.6,3.9-4.5v-2.3
				c0-0.1-0.1-0.2-0.1-0.2c0,0-0.1-0.1-0.2-0.1l-2,0.5v0c0,0.2,0,0.5,0,0.7l0,0.2c0,0.2,0,0.3-0.1,0.5c-0.1,1.1-0.3,2-0.5,2.9
				C36.4,21.2,36.4,21.3,36.3,21.5z"/>
		</g>
		<g>
			<path d="M39.1,48.5c-1.8,0-3.5-1-4.4-2.6H16.9c-0.9,1.6-2.5,2.6-4.4,2.6c-2,0-3.8-1.2-4.6-3c-0.1-0.2-0.1-0.4,0.1-0.6
				s0.3-0.3,0.5-0.3H11v-2.3H8.5c-0.2,0-0.4-0.1-0.5-0.3c-0.1-0.2-0.1-0.4-0.1-0.6c0.8-1.8,2.6-3,4.6-3c1.8,0,3.5,1,4.4,2.6h17.8
				c0.9-1.6,2.5-2.6,4.4-2.6c2,0,3.8,1.2,4.6,3c0.1,0.2,0.1,0.4-0.1,0.6c-0.1,0.2-0.3,0.3-0.5,0.3h-2.5v2.2h2.5
				c0.2,0,0.4,0.1,0.5,0.3c0.1,0.2,0.1,0.4,0.1,0.6C42.9,47.3,41.1,48.5,39.1,48.5z M16.5,44.6h18.6c0.3,0,0.5,0.2,0.6,0.4
				c0.6,1.4,1.9,2.2,3.4,2.2c1.1,0,2.2-0.5,2.9-1.4h-2c-0.3,0-0.6-0.3-0.6-0.6v-3.5c0-0.3,0.3-0.6,0.6-0.6h2
				c-0.7-0.9-1.7-1.4-2.9-1.4c-1.5,0-2.8,0.9-3.4,2.2c-0.1,0.2-0.3,0.4-0.6,0.4H16.5c-0.3,0-0.5-0.2-0.6-0.4
				c-0.6-1.4-1.9-2.2-3.4-2.2c-1.1,0-2.2,0.5-2.9,1.4h2c0.3,0,0.6,0.3,0.6,0.6v3.5c0,0.3-0.3,0.6-0.6,0.6h-2
				c0.7,0.9,1.7,1.4,2.9,1.4c1.5,0,2.8-0.9,3.4-2.2C16,44.8,16.3,44.6,16.5,44.6z M26,38.9c-3.5,0-6.6-1.7-7.9-4.3
				c-0.2-0.3,0-0.7,0.3-0.9l0.1,0c0.1-0.1,0.2-0.1,0.3-0.2c0,0,0.1,0,0.1,0c0.1-0.1,0.2-0.1,0.3-0.2c0.1-0.1,0.2-0.2,0.3-0.3
				c0.1-0.1,0.2-0.2,0.2-0.3c0.2-0.3,0.3-0.5,0.4-0.8c0-0.1,0.1-0.2,0.1-0.3c0,0,0,0,0-0.1c0,0,0-0.1,0-0.1c0-0.1,0-0.2,0-0.3v-2.7
				c0-0.3,0.2-0.5,0.4-0.6c0.2-0.1,0.5,0,0.7,0.2c0.1,0.1,0.2,0.2,0.2,0.2l0,0c0.5,0.5,1,1,1.4,1.5l0,0c0.1,0.1,0.1,0.1,0.2,0.2
				l0.1,0.1c0.4,0.4,0.6,0.6,0.8,0.8c0.1,0,0.1,0.1,0.2,0.1c0,0,0,0,0.1,0s0.1,0,0.1,0.1c0.1,0,0.1,0,0.1,0.1c0.3,0.1,0.6,0.3,1,0.4
				c0.1,0.1,0.2,0.1,0.4,0.1c0.1,0,0.3,0.1,0.4,0.1h0c0,0,0.1,0,0.1,0c0,0,0,0,0.1,0h0c0,0,0.1,0,0.1,0c0.1,0,0.1,0,0.2,0l0.1,0
				c0.1,0,0.2-0.1,0.3-0.1c0.6-0.2,1.2-0.5,1.5-0.6l0.1-0.1c0.1-0.1,0.2-0.2,0.4-0.4L29,30c0.1-0.1,0.2-0.2,0.3-0.3
				c0.2-0.2,0.4-0.4,0.6-0.7l0.4-0.5c0.1-0.1,0.3-0.3,0.4-0.4c0.2-0.2,0.4-0.3,0.7-0.2c0.2,0.1,0.4,0.3,0.4,0.6v2.6
				c0,0.1,0,0.2,0,0.3c0,0,0,0.1,0,0.1c0,0,0,0,0,0.1c0,0.1,0,0.2,0.1,0.3c0,0.1,0,0.1,0,0.1c0,0,0,0.1,0,0.1
				c0.1,0.2,0.2,0.4,0.3,0.6c0.1,0.1,0.2,0.2,0.2,0.3c0.1,0.1,0.2,0.2,0.3,0.3c0,0,0.1,0,0.1,0.1c0.1,0.1,0.2,0.1,0.2,0.2
				c0,0,0.1,0,0.1,0.1c0,0,0.1,0,0.1,0.1c0.1,0.1,0.1,0.1,0.2,0.1c0,0,0.1,0,0.1,0.1c0.1,0.1,0.3,0.2,0.3,0.3c0.1,0.2,0.1,0.4,0,0.5
				C32.6,37.2,29.5,38.9,26,38.9z M19.5,34.6c1.2,1.8,3.7,3,6.5,3s5.3-1.2,6.5-3c-0.1-0.1-0.2-0.2-0.3-0.3c0,0-0.1,0-0.1-0.1
				c-0.2-0.1-0.3-0.3-0.4-0.4c-0.1-0.1-0.2-0.3-0.3-0.4c0,0,0,0,0,0c-0.2-0.3-0.4-0.6-0.5-0.9c-0.1-0.1-0.1-0.2-0.1-0.3
				c0-0.1-0.1-0.2-0.1-0.3c0-0.1,0-0.2-0.1-0.3v0c0-0.2,0-0.3,0-0.4v-1c-0.1,0.1-0.3,0.3-0.4,0.4c-0.1,0.1-0.2,0.2-0.3,0.3l-0.3,0.3
				c-0.2,0.1-0.3,0.3-0.3,0.3l-0.1,0.1c0,0,0,0-0.1,0.1l0,0c-0.1,0.1-0.1,0.1-0.2,0.1c0,0-0.9,0.4-1.7,0.7c-0.1,0-0.2,0.1-0.3,0.1
				l-0.1,0c-0.1,0-0.2,0.1-0.3,0.1c-0.1,0-0.1,0-0.2,0c0,0-0.1,0-0.1,0c-0.1,0-0.1,0-0.1,0H26h0c-0.2,0-0.4-0.1-0.6-0.1h0
				c-0.1,0-0.3-0.1-0.4-0.1c-0.4-0.1-0.8-0.3-1.1-0.4h0c-0.1,0-0.1,0-0.1-0.1c0,0-0.1,0-0.1-0.1c-0.2-0.1-0.4-0.2-0.4-0.2
				c-0.1,0-0.1-0.1-0.1-0.1c0,0-0.3-0.3-0.9-0.8l-0.1-0.1c0,0-0.1-0.1-0.1-0.1c0,0,0,0-0.1,0L22,30.7c-0.2-0.2-0.4-0.4-0.6-0.6v1
				c0,0.2,0,0.3,0,0.4v0c0,0.1,0,0.2-0.1,0.3c0,0.1-0.1,0.2-0.1,0.3c-0.1,0.4-0.3,0.9-0.6,1.2c-0.1,0.2-0.2,0.3-0.3,0.4
				c-0.1,0.2-0.3,0.3-0.4,0.4C19.8,34.4,19.6,34.5,19.5,34.6z M33.7,33.9L33.7,33.9L33.7,33.9z M33.5,33.7L33.5,33.7L33.5,33.7z
				 M32.5,33.2L32.5,33.2L32.5,33.2z M32.5,33.2C32.5,33.2,32.5,33.2,32.5,33.2C32.5,33.2,32.5,33.2,32.5,33.2z M32.5,33.2
				L32.5,33.2L32.5,33.2z M32.5,33.2C32.5,33.2,32.5,33.2,32.5,33.2C32.5,33.2,32.5,33.2,32.5,33.2z M26.2,32.8
				C26.2,32.8,26.2,32.8,26.2,32.8C26.2,32.8,26.2,32.8,26.2,32.8z M29.5,10c-0.1,0-0.2,0-0.3-0.1C28,9.3,26.8,9.1,26,9.1
				c-1.1,0-2.2,0.3-3.2,0.8c-0.3,0.2-0.6,0.1-0.8-0.2l-1.7-2.6c-0.2-0.3-0.1-0.7,0.2-0.9C22.1,5,24,4.4,26,4.4
				c1.2,0,3.5,0.2,5.6,1.9c0.3,0.2,0.3,0.6,0.2,0.9L30,9.7C29.9,9.9,29.7,10,29.5,10z M21.6,6.9l1.1,1.6c1-0.5,2.2-0.7,3.3-0.7
				c0.8,0,2,0.1,3.3,0.7l1.1-1.6c-1.7-1.1-3.5-1.3-4.4-1.3C24.1,5.6,22.6,6.3,21.6,6.9z"/>
		</g>
	</g>
</g>
</svg>
