<?xml version="1.0" encoding="utf-8"?>
<!-- Generator: Adobe Illustrator 24.3.0, SVG Export Plug-In . SVG Version: 6.00 Build 0)  -->
<svg version="1.1" id="Capa_1" xmlns="http://www.w3.org/2000/svg" xmlns:xlink="http://www.w3.org/1999/xlink" x="0px" y="0px"
	 viewBox="0 0 52 52" style="enable-background:new 0 0 52 52;" xml:space="preserve">
<style type="text/css">
	.st0{fill:#5A5A5A;}
	.st1{fill:#8AC9FE;}
	.st2{fill:#60B7FF;}
	.st3{fill:#FAC600;}
	.st4{fill:#E0AE10;}
	.st5{fill:#444444;}
	.st6{fill:#EBEBEB;}
</style>
<g>
	<path class="st0" d="M7.9,23.6H2c-0.7,0-1.2-0.5-1.2-1.2v-1.7c0-0.7,0.5-1.2,1.2-1.2h5.9V23.6z"/>
	<path class="st0" d="M44.1,23.6H50c0.7,0,1.2-0.5,1.2-1.2v-1.7c0-0.7-0.5-1.2-1.2-1.2h-5.9V23.6z"/>
	<path class="st1" d="M42.1,14.3c-0.7-1.4-2.2-2.3-3.8-2.3H26H13.7c-1.6,0-3,0.9-3.8,2.3l-4.8,9.3H26h20.9L42.1,14.3z"/>
	<path class="st2" d="M46.9,23.6h-2.7l-4.7-9.3c-0.7-1.4-2.2-2.3-3.8-2.3h2.7c1.6,0,3,0.9,3.8,2.3L46.9,23.6z"/>
	<path class="st3" d="M30.8,6.7H21c-0.6,0-1.1,0.3-1.3,0.8L17.5,12h8.4h8.4l-2.1-4.5C31.9,7,31.4,6.7,30.8,6.7L30.8,6.7z"/>
	<path class="st4" d="M34.3,12h-2.1l-2.1-4.5c-0.2-0.5-0.8-0.8-1.3-0.8h2.1c0.6,0,1.1,0.3,1.3,0.8L34.3,12z"/>
	<path class="st0" d="M6.9,45.4H2.7c-1.1,0-1.9-0.9-1.9-1.9v-11h8v11C8.8,44.5,7.9,45.4,6.9,45.4z"/>
	<path class="st0" d="M49.3,45.4h-4.1c-1.1,0-1.9-0.9-1.9-1.9v-11h8v11C51.2,44.5,50.3,45.4,49.3,45.4L49.3,45.4z"/>
	<path class="st5" d="M8.8,32.4v11c0,1.1-0.9,1.9-1.9,1.9H4.7c1.1,0,1.9-0.9,1.9-1.9v-11H8.8z"/>
	<path class="st5" d="M51.2,32.4v11c0,1.1-0.9,1.9-1.9,1.9h-2.1c1.1,0,1.9-0.9,1.9-1.9v-11H51.2z"/>
	<path class="st3" d="M46.8,23.6H26H5.2l-1.6,0.7c-1.7,0.8-2.8,2.4-2.8,4.3v3.7c0,1,0.4,1.9,1,2.7L8,41.5c0.6,0.6,1.4,1,2.2,1H26
		h15.8c0.8,0,1.7-0.4,2.2-1l6.1-6.6c0.7-0.7,1-1.7,1-2.7v-3.7c0-1.9-1.1-3.5-2.8-4.3L46.8,23.6z"/>
	<path class="st4" d="M49.2,24.7c1.2,0.9,2,2.3,2,3.8v3.7c0,1-0.4,1.9-1,2.7L44,41.5c-0.6,0.6-1.4,1-2.2,1H10.2
		c-0.8,0-1.7-0.4-2.2-1l-1.5-1.6c0.4,0.3,1,0.4,1.5,0.4h32.7c0.9,0,1.7-0.4,2.3-1c1.8-1.9,3.5-3.8,5.3-5.7c0.8-0.9,1-1.5,1-2.8
		L49.2,24.7z"/>
	<path class="st0" d="M27.5,34.8h-9.8c-0.5,0-0.8,0.5-0.7,0.9l1.1,3.1c0.1,0.3,0.4,0.5,0.7,0.5h8.7h5.7c0.3,0,0.6-0.2,0.7-0.5
		l1.1-3.1c0.1-0.4-0.2-0.9-0.7-0.9H27.5z"/>
	<path class="st5" d="M34.9,35.7l-1.1,3.1c-0.1,0.3-0.4,0.5-0.7,0.5H18.8c-0.3,0-0.6-0.2-0.7-0.5l-0.4-1.2c0,0,0,0,0,0h14.1
		c0.3,0,0.5-0.2,0.6-0.5l0.8-2.4h1C34.8,34.8,35.1,35.2,34.9,35.7L34.9,35.7z"/>
	<circle class="st6" cx="9.7" cy="30.9" r="3.2"/>
	<circle class="st6" cx="42.3" cy="30.9" r="3.2"/>
	<path class="st0" d="M22.2,23.6h-2.9c0-1.6-1.3-2.9-2.9-2.9s-2.9,1.3-2.9,2.9h-2.9c0-3.2,2.6-5.8,5.8-5.8
		C19.6,17.8,22.2,20.4,22.2,23.6z"/>
	<path d="M9.7,26.9c-2.2,0-4,1.8-4,4s1.8,4,4,4s4-1.8,4-4C13.7,28.7,11.9,26.9,9.7,26.9z M9.7,33.3c-1.3,0-2.4-1.1-2.4-2.4
		c0-1.3,1.1-2.4,2.4-2.4s2.4,1.1,2.4,2.4C12.1,32.3,11,33.3,9.7,33.3z"/>
	<path d="M50.1,24.4c1.1,0,1.9-0.9,1.9-2v-1.7c0-1.1-0.9-2-2-2h-4.7l-2.4-4.7c-0.9-1.7-2.6-2.7-4.5-2.7h-3.6l-1.9-4
		c-0.4-0.8-1.2-1.3-2.1-1.3H21c-0.9,0-1.7,0.5-2.1,1.3l-1.9,4h-3.3c-1.9,0-3.6,1-4.5,2.7l-2.4,4.7H2c-1.1,0-2,0.9-2,2v1.7
		c0,1.1,0.9,2,1.9,2C0.7,25.4,0,27,0,28.6v9.6C0,38.7,0.4,39,0.8,39s0.8-0.4,0.8-0.8v-2.4l5.8,6.2c0.2,0.2,0.4,0.4,0.6,0.5v0.9
		c0,0.6-0.5,1.1-1.1,1.1H2.7c-0.6,0-1.1-0.5-1.1-1.1v-1.5c0-0.4-0.4-0.8-0.8-0.8S0,41.5,0,41.9v1.5c0,1.5,1.2,2.7,2.7,2.7h4.1
		c1.5,0,2.7-1.2,2.7-2.7v-0.2c0.2,0,0.4,0.1,0.6,0.1h31.6c0.2,0,0.4,0,0.6-0.1v0.2c0,1.5,1.2,2.7,2.7,2.7h4.1c1.5,0,2.7-1.2,2.7-2.7
		V28.6C52,27,51.3,25.4,50.1,24.4z M50,20.3c0.2,0,0.4,0.2,0.4,0.4v1.7c0,0.2-0.2,0.4-0.4,0.4h-2.6l-1.3-2.5H50z M20.4,7.9
		c0.1-0.2,0.4-0.4,0.6-0.4h9.8c0.3,0,0.5,0.1,0.6,0.4l1.6,3.3H18.8L20.4,7.9z M10.6,14.6c0.6-1.2,1.8-1.9,3.1-1.9h3.8c0,0,0,0,0,0
		h16.8c0,0,0,0,0,0h4c1.3,0,2.5,0.7,3.1,1.9l4.2,8.1H22.9c-0.4-3.3-3.2-5.8-6.6-5.8s-6.2,2.5-6.6,5.8H6.5L10.6,14.6z M16.4,19.9
		c-1.8,0-3.3,1.2-3.6,2.9h-1.3c0.4-2.4,2.5-4.2,5-4.2s4.6,1.8,5,4.2H20C19.6,21.1,18.1,19.9,16.4,19.9z M18.3,22.8h-3.9
		c0.3-0.8,1.1-1.3,1.9-1.3S18,22,18.3,22.8z M1.6,22.4v-1.7c0-0.2,0.2-0.4,0.4-0.4H6l-1.3,2.5H2C1.8,22.8,1.6,22.6,1.6,22.4
		L1.6,22.4z M50.4,43.4c0,0.6-0.5,1.1-1.1,1.1h-4.1c-0.6,0-1.1-0.5-1.1-1.1v-0.9c0.2-0.1,0.4-0.3,0.6-0.5l5.8-6.2L50.4,43.4
		L50.4,43.4z M50.4,32.2c0,0.8-0.3,1.5-0.8,2.1L43.4,41c-0.4,0.5-1,0.7-1.6,0.7H10.2c-0.6,0-1.2-0.3-1.6-0.7l-6.1-6.6
		c-0.5-0.6-0.8-1.3-0.8-2.1v-3.7c0-1.5,0.9-2.9,2.3-3.6l1.4-0.6h41.3l1.4,0.6c1.4,0.6,2.3,2,2.3,3.6L50.4,32.2z"/>
	<path d="M34.3,34H17.7c-0.5,0-0.9,0.2-1.2,0.6c-0.3,0.4-0.4,0.9-0.2,1.4l1.1,3.1c0.2,0.6,0.8,1,1.4,1h14.5c0.6,0,1.2-0.4,1.4-1
		l1.1-3.1c0.2-0.5,0.1-1-0.2-1.4C35.2,34.2,34.8,34,34.3,34L34.3,34z M33.1,38.5H18.9l-1-2.9h16.3L33.1,38.5z"/>
	<path d="M42.3,26.9c-2.2,0-4,1.8-4,4s1.8,4,4,4c2.2,0,4-1.8,4-4C46.3,28.7,44.5,26.9,42.3,26.9L42.3,26.9z M42.3,33.3
		c-1.3,0-2.4-1.1-2.4-2.4c0-1.3,1.1-2.4,2.4-2.4c1.3,0,2.4,1.1,2.4,2.4C44.7,32.3,43.6,33.3,42.3,33.3z"/>
	<path d="M17.9,32.4c-0.4,0-0.8-0.4-0.8-0.8v-2.1c0-0.4,0.4-0.8,0.8-0.8s0.8,0.4,0.8,0.8v2.1C18.7,32.1,18.3,32.4,17.9,32.4z"/>
	<path d="M21.3,32.4c-0.4,0-0.8-0.4-0.8-0.8v-2.1c0-0.4,0.4-0.8,0.8-0.8s0.8,0.4,0.8,0.8v2.1C22.1,32.1,21.8,32.4,21.3,32.4z"/>
	<path d="M24.7,32.4c-0.4,0-0.8-0.4-0.8-0.8v-2.1c0-0.4,0.4-0.8,0.8-0.8c0.4,0,0.8,0.4,0.8,0.8v2.1C25.5,32.1,25.2,32.4,24.7,32.4z"
		/>
	<path d="M28.2,32.4c-0.4,0-0.8-0.4-0.8-0.8v-2.1c0-0.4,0.4-0.8,0.8-0.8S29,29,29,29.5v2.1C29,32.1,28.6,32.4,28.2,32.4z"/>
	<path d="M31.6,32.4c-0.4,0-0.8-0.4-0.8-0.8v-2.1c0-0.4,0.4-0.8,0.8-0.8c0.4,0,0.8,0.4,0.8,0.8v2.1C32.4,32.1,32,32.4,31.6,32.4z"/>
	<path d="M35,32.4c-0.4,0-0.8-0.4-0.8-0.8v-2.1c0-0.4,0.4-0.8,0.8-0.8c0.4,0,0.8,0.4,0.8,0.8v2.1C35.8,32.1,35.4,32.4,35,32.4z"/>
</g>
</svg>
