<?xml version="1.0" encoding="utf-8"?>
<!-- Generator: Adobe Illustrator 24.3.0, SVG Export Plug-In . SVG Version: 6.00 Build 0)  -->
<svg version="1.1" id="Layer_1" xmlns="http://www.w3.org/2000/svg" xmlns:xlink="http://www.w3.org/1999/xlink" x="0px" y="0px"
	 viewBox="0 0 200 163.1" style="enable-background:new 0 0 200 163.1;" xml:space="preserve">
<style type="text/css">
	.st0{fill-rule:evenodd;clip-rule:evenodd;}
	.st1{fill:#D9F2FF;}
	.st2{fill-rule:evenodd;clip-rule:evenodd;fill:#97DCFF;}
</style>
<g id="taxi_6">
	<path id="Vector" class="st0" d="M84.1-0.4c-4,0-7.6,2.1-9.6,5.6l-4.2,7.3H62c-8.5,0-16.3,4.9-20,12.6L27.7,54.9H26
		c0.2-1.5,0.4-3.4,0.4-5.5c0-4.2-3.2-6.4-5.8-7.3c-2.7-1-5.9-1.2-8.8-1c-2.9,0.3-6,1.1-8.3,2.7c-1.2,0.8-2.4,2.1-3,3.8
		c-0.6,1.8-0.4,3.7,0.5,5.3c2.1,4.2,6.3,6.5,9.9,7.7c3.7,1.3,7.5,1.7,10,1.7h2.7l-6.9,11.6c-4.5,7.5-6.8,16-6.8,24.7v20.9v36.9
		c0,4.1,3.3,7.4,7.4,7.4h27.7c4.1,0,7.4-3.3,7.4-7.4v-11.1h47.9h47.9v11.1c0,4.1,3.3,7.4,7.4,7.4h27.7c4.1,0,7.4-3.3,7.4-7.4v-36.9
		V98.5c0-8.7-2.4-17.2-6.8-24.7l-6.9-11.6h2.7c2.5,0,6.3-0.4,10-1.7c3.6-1.2,7.8-3.5,9.9-7.7c0.8-1.7,1.1-3.5,0.5-5.3
		c-0.6-1.7-1.8-2.9-3-3.8c-2.3-1.6-5.4-2.4-8.3-2.7c-2.9-0.3-6.1,0-8.8,1c-2.6,1-5.8,3.2-5.8,7.3c0,2.2,0.2,4,0.4,5.5h-1.8
		l-14.3-29.8c-3.7-7.7-11.4-12.6-20-12.6h-8.4l-4.2-7.3c-2-3.4-5.6-5.6-9.6-5.6h-16H84.1z M100.1,12.5H78.8l2.1-3.7
		c0.7-1.1,1.9-1.9,3.2-1.9h16h16c1.3,0,2.5,0.7,3.2,1.9l2.1,3.7H100.1z M55.9,62.3H32.1l-9.2,15.4c-3.8,6.3-5.8,13.5-5.8,20.9v20.8
		l1.3,15.2c0.2,1.9,1.8,3.4,3.7,3.4h26.4h51.6h51.6h26.4c1.9,0,3.5-1.5,3.7-3.4l1.3-15.2V98.5c0-7.4-2-14.6-5.8-20.9l-9.2-15.4h-68
		H85.4c-2,0-3.7-1.7-3.7-3.7c0-2,1.7-3.7,3.7-3.7h14.8h64.2l-12.7-26.7c-2.5-5.1-7.6-8.4-13.3-8.4h-10.5h-27.7H72.5H62
		c-5.7,0-10.9,3.3-13.3,8.4L35.9,54.9h20c2,0,3.7,1.7,3.7,3.7C59.5,60.6,57.9,62.3,55.9,62.3z M17.1,156.3v-12.2
		c1.5,0.7,3.2,1.2,4.9,1.2h22.7v11.1H17.1z M178.2,145.3c1.8,0,3.5-0.4,4.9-1.2v12.2h-27.7v-11.1H178.2z M19,49.5
		c0,2.4-0.2,4.1-0.5,5.3c-1.6-0.2-3.5-0.5-5.3-1.1c-2.7-0.9-4.7-2.3-5.6-3.8l0,0c0.8-0.6,2.5-1.2,4.7-1.4c2.2-0.2,4.2,0,5.6,0.5
		C18.6,49.2,18.9,49.4,19,49.5z M181.3,49.5c0,2.4,0.2,4.1,0.5,5.3c1.6-0.2,3.5-0.5,5.3-1.1c2.7-0.9,4.7-2.3,5.6-3.8l0,0
		c-0.8-0.6-2.5-1.2-4.7-1.4c-2.2-0.2-4.2,0-5.6,0.5C181.7,49.2,181.4,49.4,181.3,49.5z M33.6,75.9c-3.3-0.7-6.6,0.9-8.1,3.9
		l-0.7,1.4c-1.5,2.9-1.9,6.3-1.3,9.5l0.5,2.7c0.7,3.3,3.4,5.7,6.7,5.9l19.6,1.4c3.9,0.3,7.3-2.5,7.8-6.3l0.9-6.1
		c0.5-3.8-2-7.4-5.8-8.3L33.6,75.9z M174.8,79.8c-1.5-3-4.9-4.6-8.1-3.9L147,80.1c-3.8,0.8-6.3,4.4-5.8,8.3l0.9,6.1
		c0.5,3.8,4,6.6,7.8,6.3l19.6-1.4c3.3-0.2,6.1-2.7,6.7-5.9l0.5-2.7c0.6-3.2,0.2-6.6-1.3-9.5L174.8,79.8z M32.1,83.1l19.7,4.2
		l-0.9,6.1L31.3,92l-0.5-2.7c-0.3-1.6-0.1-3.3,0.6-4.7L32.1,83.1z M148.5,87.3l19.7-4.2l0.7,1.4c0.7,1.5,1,3.1,0.6,4.7L169,92
		l-19.6,1.4L148.5,87.3z M69.9,80.7c-3.5,0-6.5,2.5-7.2,5.9c-1,5.2,0.9,10.6,4.9,14l1,0.8c4,3.3,9,5.1,14.2,5.1h17.3h17.3
		c5.2,0,10.2-1.8,14.2-5.1l1-0.8c4.1-3.4,6-8.8,4.9-14c-0.7-3.4-3.7-5.9-7.2-5.9h-30.2H69.9z M72.4,94.9c-2-1.7-2.9-4.3-2.4-6.8
		h30.2h30.2c0.5,2.5-0.4,5.2-2.4,6.8l-1,0.8c-2.7,2.2-6,3.4-9.4,3.4h-17.3H82.8c-3.5,0-6.8-1.2-9.4-3.4L72.4,94.9z M55.9,115.7
		c-5.1,0-9.2,4.1-9.2,9.2c0,5.1,4.1,9.2,9.2,9.2h44.3h44.3c5.1,0,9.2-4.1,9.2-9.2c0-5.1-4.1-9.2-9.2-9.2h-44.3H55.9z M54,125
		c0-1,0.8-1.8,1.8-1.8h44.3h44.3c1,0,1.8,0.8,1.8,1.8c0,1-0.8,1.8-1.8,1.8h-44.3H55.9C54.8,126.8,54,126,54,125z M35.6,130.5
		c3.1,0,5.5-2.5,5.5-5.5c0-3.1-2.5-5.5-5.5-5.5c-3.1,0-5.5,2.5-5.5,5.5C30,128,32.5,130.5,35.6,130.5z M170.2,125
		c0,3.1-2.5,5.5-5.5,5.5c-3.1,0-5.5-2.5-5.5-5.5c0-3.1,2.5-5.5,5.5-5.5C167.7,119.4,170.2,121.9,170.2,125z M70.6,62.3
		c2,0,3.7-1.7,3.7-3.7c0-2-1.7-3.7-3.7-3.7c-2,0-3.7,1.7-3.7,3.7C66.9,60.6,68.6,62.3,70.6,62.3z"/>
	<path id="Vector_2" class="st1" d="M81.7,58.6c0-2,1.7-3.7,3.7-3.7h14.8h64.2l-12.7-26.7c-2.5-5.1-7.6-8.4-13.3-8.4h-10.5h-27.7
		H72.4H61.9c-5.7,0-10.9,3.3-13.3,8.4L35.9,54.9h20c2,0,3.7,1.7,3.7,3.7h7.4c0-2,1.7-3.7,3.7-3.7c2,0,3.7,1.7,3.7,3.7H81.7z"/>
	<path id="Vector_3" class="st2" d="M55.9,62.3H32.1l-9.2,15.4c-3.8,6.3-5.8,13.5-5.8,20.9v20.8l1.3,15.2c0.2,1.9,1.8,3.4,3.7,3.4
		h26.4h51.6h51.6h26.4c1.9,0,3.5-1.5,3.7-3.4l1.3-15.2V98.5c0-7.4-2-14.6-5.8-20.9l-9.2-15.4h-68H85.4c-2,0-3.7-1.7-3.7-3.7h-7.4
		c0,2-1.7,3.7-3.7,3.7c-2,0-3.7-1.7-3.7-3.7h-7.4C59.6,60.6,57.9,62.3,55.9,62.3z M33.6,75.9c-3.3-0.7-6.6,0.9-8.1,3.9l-0.7,1.4
		c-1.5,2.9-1.9,6.3-1.3,9.5l0.5,2.7c0.7,3.3,3.4,5.7,6.7,5.9l19.6,1.4c3.9,0.3,7.3-2.5,7.8-6.3l0.9-6.1c0.5-3.8-2-7.4-5.8-8.3
		L33.6,75.9z M174.8,79.8c-1.5-3-4.9-4.6-8.1-3.9L147,80.1c-3.8,0.8-6.3,4.4-5.8,8.3l0.9,6.1c0.5,3.8,4,6.6,7.8,6.3l19.6-1.4
		c3.3-0.2,6.1-2.7,6.7-5.9l0.5-2.7c0.6-3.2,0.2-6.6-1.3-9.5L174.8,79.8z M69.9,80.7c-3.5,0-6.5,2.5-7.2,5.9c-1,5.2,0.9,10.6,4.9,14
		l1,0.8c4,3.3,9,5.1,14.2,5.1h17.3h17.3c5.2,0,10.2-1.8,14.2-5.1l1-0.8c4.1-3.4,6-8.8,4.9-14c-0.7-3.4-3.7-5.9-7.2-5.9h-30.2H69.9z
		 M55.9,115.7c-5.1,0-9.2,4.1-9.2,9.2c0,5.1,4.1,9.2,9.2,9.2h44.3h44.3c5.1,0,9.2-4.1,9.2-9.2c0-5.1-4.1-9.2-9.2-9.2h-44.3H55.9z
		 M35.6,130.5c3.1,0,5.5-2.5,5.5-5.5c0-3.1-2.5-5.5-5.5-5.5S30,121.9,30,125C30,128,32.5,130.5,35.6,130.5z M170.2,125
		c0,3.1-2.5,5.5-5.5,5.5c-3.1,0-5.5-2.5-5.5-5.5c0-3.1,2.5-5.5,5.5-5.5C167.7,119.4,170.2,121.9,170.2,125z"/>
	<path id="Vector_4" class="st1" d="M69.9,88.1c-0.5,2.5,0.4,5.2,2.4,6.8l1,0.8c2.7,2.2,6,3.4,9.4,3.4h17.3h17.3
		c3.5,0,6.8-1.2,9.4-3.4l1-0.8c2-1.7,2.9-4.3,2.4-6.8h-30.2H69.9z M168.2,83.1l-19.7,4.2l0.9,6.1L169,92l0.5-2.7
		c0.3-1.6,0.1-3.3-0.6-4.7L168.2,83.1z M51.7,87.3l-19.7-4.2l-0.7,1.4c-0.7,1.5-1,3.1-0.6,4.7l0.5,2.7l19.6,1.4L51.7,87.3z"/>
</g>
</svg>
