<svg xmlns="http://www.w3.org/2000/svg" xml:space="preserve" id="Layer_1" width="650" height="587" x="0" y="0" style="enable-background:new 0 0 828.1 748.2" version="1.1" viewBox="0 0 828.1 748.2"><style>.st2{fill:#fff}.st3{fill:#1f1f39}.st4{fill:#3b3b4c}.st5{fill:#efaea6}.st6{opacity:.14;fill:#1f1f39;enable-background:new}.st8{fill:#201b2c}.st9{fill:#eeada5}.st11{fill:#775155}.st12{opacity:.28;fill:#1f1f39;enable-background:new}.st13{fill:#0771a5}.st14{opacity:.18;fill:#1f1f39;enable-background:new}.st15{fill:#f4ad00}.st16,.st18{opacity:.2;fill:#0267a4;enable-background:new}.st18{opacity:.22;fill:#e56e1f}.st20{fill:#f5b1b4}.st21{fill:#0067a7}.st25,.st28{opacity:.17;fill:#070716;enable-background:new}.st28{opacity:.62;fill:#1f1f39}.st29{fill:#0267a4}.st31{fill:#e84e19}</style><path d="m351 726 1-21h16l-2 23-11 7-4-9z" class="st2"/><path d="M350 724c-2-1-1 1-2 3-1 6-22 6-25 7-2 0-5 9 3 9h38c2 0 3-1 3-3 2-6 1-14-1-15-3 0-9 1-16-1z" class="st3"/><path d="m508 713-16-15 11-12 16 16-2 13-9-2z" class="st2"/><path d="M505 712c-1 1 1 2 2 4 4 5-10 21-12 23-1 2 4 9 10 3l24-28v-5c-3-4-10-10-12-8-3 2-6 7-12 11z" class="st3"/><path d="M501 709s-51-42-66-76c-10-25-12-54-17-78l-31 74c-8 19-14 87-14 91s-24-2-24-5l13-94c2-14 22-105 32-131l10 3s50 7 51 10v6l2 33c1 34-1 72 1 82 1 14 49 57 58 69 2 1-4 9-15 16z" class="st4"/><path d="M426 403h14c2-6 9-20 9-25v-6l-10 3-5 1-2 7-8 9c-3 3 2 11 2 11z" class="st5"/><path d="m434 376-3 7c8 6 14 1 13-2l-5-6-5 1z" class="st6"/><path d="M443 353c-4 4-15 8-12 10s-8 8-5 10c6 6 18 9 22 6l11-12-16-14z" class="st5"/><path d="m447 363-4-3c-1-2 3-2 1-5-3-3-6-6-3-9 4-5 7-1 9 2 1 2 5-2 8 1s1 4 3 6c1 1 6 2 7 5 1 7-5 8-5 14 1 7-15 7-16 5 0-2 5-4 5-6-1-3-2-2-5-2s-6-2-2-3c5-2 4-4 2-5z" class="st3"/><path d="m409 573 8-18-2-16s-5 21-6 34z" style="opacity:.57;fill:#1f1f39;enable-background:new"/><path d="M518 549h-14c-2 1-4 3-3 6v9h3v-6c-1-3 1-5 2-5h11c1 0 3 2 3 4v6h3l-1-9c0-3-1-5-4-5z" class="st8"/><path d="m507 535-2 6c-1 4-5 10-3 11s4-2 5-3v4c1 2 7 3 9 2s4-5 4-9l-2-12c-1-1-10 1-11 1z" class="st9"/><path d="M504 550c-2 0-3 2-3 5v9h3v-6c0-3 1-5 2-5l1-3v-1l-3 1z" class="st8"/><path d="m469 569 2 39c0 2 2 4 4 4l71-2c7-1 7-6 7-8l-1-38c0-2-3-8-9-8l-63 3h-2c-5 1-9 5-9 10z" style="fill:#54353a"/><path d="m469 569 2 39c0 2 2 4 4 4l1-12c-2-14 1-30 4-41h-2c-5 1-9 5-9 10z" class="st11"/><path d="m394 286 1-12c-1-4 5-12 4-13 0-3-4-2-5-1 0 0 1-5-1-7-2-3-10-3-11 0-2 2-2 7-1 11l1 18 12 4z" class="st9"/><path d="M457 542c-7-6-23-15-28-33h26l2 33z" class="st12"/><path d="M447 389c-5-2-9 4-13 3-3 0-2-3-3-4l-4-2c-6-1-33 108-33 108s14 8 25 11c11 2 30 3 31-1l7-106s-5-6-10-9z" class="st2"/><path d="M522 533c-2 2-12 2-18 2-1-5 0-21-5-45-4-16-27-41-29-43v2h-1l-1 3v1l-5 10v1l-1 1v2l-1 5-1 2c-1 12 8 39 9 46 1 9-8 9-12 6-3-2-19-6-26-12-6-7-2-19 0-27 2-9-4-27 5-43 10-20 10-48 12-54 0 0 22 14 30 26 13 17 38 56 40 70 1 15 7 39 4 47z" class="st13"/><path d="M470 447v2h-1l-1 3v1l-5 10v1l-1 1v2l-1 5v-32l9 7z" class="st12"/><path d="M427 387c-17-22-25-42-27-54-3-12-2-55-2-59 0-2-19-2-19 2 1 2-1 45 1 61 3 13 15 57 19 65 4 9-1 51-4 58s-12 42-6 47 22 8 25 4c3-3-9-42-5-61s4-23 11-43" class="st13"/><path d="M435 394c1-1 6 10 13 14l7 1h17l-8-7c-6 2-5 1-8 1l-8-2-10-7-3-3c-3 0-1 3 0 3z" class="st14"/><path d="M432 392c0-1 0-3 3-3l3 2c4 3 10 8 18 9s24-9 35-7c11 3 14 12 30 15 16 2 33-4 37-4s8 2 8 4-3 5-6 6-32 4-40 3c-12-2-23-13-31-14s-25 4-34 3c-11 0-19-12-20-12l-2 1-1-3z" class="st15"/><path d="M394 264c3-4 1-3 1-6 1-1 1-2 3 0 2 1 2 2 1 3l-1 3h-4zM394 254v4c0 1 0 3-2 3-3 1-9 2-10 0-1-1-2-5-1-7h13z" class="st9"/><path d="M333 137c15-4 17-11 18-33 4 21 7 28 23 29-13 7-18 10-18 34-6-24-9-26-23-30z" class="st16"/><path d="m475 205-4-3c-2 0-3 2 0 5s4-2 4-2z" class="st5"/><path d="M439 34c16-14 20 6 20 21 0 4-1 8-5 10l-32 24c-2-5 2-40 17-55zm153 153v-2c3-13-23-23-39-30-2-1-2-3 0-5 3-2 4-8 4-12l-1-1v-1l-1-1-1-2-3-4-1-1-1-2-1-1v-1l-2-2-57-74c-2-3-7-4-10-1-22 15 0-74-41-38-20 17-30 62-30 81 1 5-2 12-6 17-16 18-20 42-7 60v1l1 2-1 3c-1 4-5 6-10 9l-1 1-2 1h-5l-1-1-2-1a43 43 0 0 0-53 1c-46 41-31 4-67 8-59 26 124 219 99 104-1-6 2-14 8-18l20-15 7-7c6-7 9-15 11-22a36 36 0 0 0-3-22l-1-1v-1h-1v-2c0-2 1-4 3-5l9-7 1-1h1l1-1c2-1 4 0 5 1 14 18 40 22 63 11 5-3 11-3 16-2 18 6 65 9 87-5l1-1c6-4 9-7 11-10zm-36 2c-18 11-51 4-58 2-1-1 19-15 30-23 5-4 11-5 17-3 13 5 28 14 11 24z" class="st15"/><g style="opacity:.67"><path d="m406 145-1-1v-10c0-2 2-3 4-3s3 1 3 3v7c1 1 0 3-2 4h-4zM411 124v-4l8-10 46-34h5c1 2 0 4-1 5l-46 34-6 8c-2 2-4 3-5 2l-1-1z" class="st2"/></g><path d="M592 187v-2c3-13-23-23-39-30-2-1-2-3 0-5 3-2 4-8 4-12l-1-1v-1l-1-1-1-2-3-4-1-1-1-2-1-1v-1l-2-2c-42 33-103 88-151 45v1l1 2-1 3c-1 4-5 6-10 9l-1 1-2 1h-5l-1-1 8 14c1 2 5 8 12 14l-1-2-1-1v-2c0-2 1-3 3-5l9-7 2-1h1c2-1 4-1 5 1h1c13 18 39 22 62 11 5-3 11-4 17-2 17 5 64 8 86-6h1c6-4 9-7 11-10zm-36 2c-18 11-51 4-58 2-1-1 19-15 30-23 5-4 11-5 17-3 13 5 28 14 11 24zM249 194c50 61 86 72 139 61l-7 7-20 15c-6 4-9 12-7 18 24 111-148-66-105-101z" class="st18"/><path d="M507 120c7-2 8-5 8-15 2 9 4 12 11 13-6 3-8 4-9 14-2-10-4-11-10-12zM308 269c10-3 11-8 12-23 3 14 5 20 16 20-9 5-12 7-12 23-4-16-6-17-16-20z" class="st2"/><path d="M-20 742c0 3 200 6 453 6s396-2 396-5-143-5-396-5-453 1-453 4z" style="opacity:.1;fill:#32323f;enable-background:new"/><path d="M610 332c-5-20 5-16 4-19-1-4-8 3-5-3 5-10-7-7-9-4-3 3-3 10-1 18v9l11-1z" class="st20"/><path d="m680 603 13 30c13 30 90 10 94 11 8 3 9 5 11 8l7 8 7-13-9-14s-85-2-89-10l-7-25-3-10-6-27-4-24c1-6-10-36-23-27-21 15-18 33-18 33l25 55 2 5z" class="st5"/><path d="M793 632c2-2 8-6 15-2 6 5 15 5 15 5l-1 3s-11-2-13 0c1 4 11 20 11 23-2 5-6 12-8 13-2 2-6 5-6 1l-2-17c1 0 3 0 3-5 0-6-10-16-15-20l1-1z" class="st21"/><path d="m673 518-8 6v1l-23 30s-6-10-10-4c-6 7-17 45-18 59l-7 99c-1 4-4 8-11 11v1c-3 1-2 5 1 5h13l1-1 8-3 1-2 21-112c2-7 28-58 28-58l14 8c3 0 11-2 19-19 2-5-4-13-7-16l-1-1-19-4h-2z" class="st5"/><path d="m612 732-18 2h-7l-12-5c-1-2 1-6 5-7l7-1h8c-1 1-1 3 3 4 6 2 18-3 22-7l2 1c0 3 2 9-4 14-5 5-8 12-8 12l-2-1s5-9 4-12z" class="st21"/><path d="M710 602c-2 5-32 3-49-3-16-6-42-1-46-10-2-5 12-49 27-92 20 7 52-9 52-9v1c2 3 9 16 13 28l3 13c0 11-7 34-6 50 1 10 9 16 6 22z" style="fill:#334"/><path d="m658 403-9 5-12 48s4 30 11 40c8 14 37-1 35-4-10-29-14-89-14-89h-11z" class="st2"/><path d="M707 517c-17 8-40-3-40-3l24-22 3-3c2 4 9 16 13 28z" style="opacity:.28;fill:#070716;enable-background:new"/><path d="m759 503-1-2 1-2 1-1 1-2h1l8-7h1c1-1 3 0 5 2l2 2 3 4-2 2-3-4h-1c-1-2-2-2-3-2h-1l-7 6-1 1c-1 1-1 3 1 5l3 4-2 2-3-4-2-3-1-1z" class="st8"/><path d="m753 485 3 6c1 3 2 9 4 9s1-3 1-4c1-1 0 2 3 3 2 1 6-1 7-4s-1-5-3-8c-3-3-5-4-7-8l-8 6z" class="st9"/><path d="m759 503-1-2 1-2 1-1 1-2h1v2l1 2v4l1 1 3 4-2 1-3-3-2-3-1-1z" class="st8"/><path d="m744 533 24 28c1 2 3 2 5 1l52-42c6-5 2-9 1-11l-22-27c-1-2-7-5-12-1l-45 38-2 1c-4 4-4 9-1 13z" style="fill:#603a3e"/><path d="m744 533 24 28c1 2 3 2 5 1-1-2-2-5-6-9-9-10-16-24-20-34l-2 1c-4 4-4 9-1 13z" class="st11"/><path d="m738 444 26 37c-4 8-10 10-10 10l-29-39c-3-5-31-14-34-12-4 4-7 20-6 31l2 6c5 10 10 11 10 16-1 5-27 24-30 21s-2-38-5-46c-2-8-8-21-4-31l9-30v-1l1-4 7 3c6 3 13 7 19 12 18 13 39 20 44 27zM642 448c-3 9 8 33 10 51v1l-1 8c-1 4-6 7-9 7s-5-1-4-3c3-23-9-42-9-68 0-5 3-14 2-18l-24-54c-3-8-10-35-10-46 0-4 13-4 14-1 0 9 7 35 9 42 4 9 21 34 30 40l-1 6-1 9c-1 11-2 14-6 26z" class="st21"/><path d="m686 471-7-13c0-4 5-13 12-18-3 4-7 20-5 31zM694 417c-16 0-23-3-27-10v-1l8-1c6 3 13 7 19 12z" class="st25"/><path d="M646 370c-2 4 0 6-2 9s-4 3-3 4l3 2v3c1 0 2 0 1 1-1 0-2 0-1 1s-1 7 1 7c1 1 6-2 8 0 2 1-2 8-3 10 0 3 0 18 2 18 4-1 5-10 15-18 12-9-3-25-3-25l-3-9-15-3z" class="st20"/><path d="M743 415c-4 4-23-12-34 0-5 5-10 0-15-2h-2l-8 1h-4l-6-2-6-4c-6-6-8-16-10-19v-4c1-2 3-4 2-5-1-2-3-2-4-1-1 3-3 4-3 1 0-6-4-8-5-8l-3-1c-2-2-1-5 0-6 3-6 10-7 18-5 12 2 16 20 19 22s6-2 14 2c9 4 8 9 11 11l15 1c12 1 28 13 21 19z" style="fill:#2e2e49"/><path d="M115 558z" style="opacity:.46;fill:#1f1f39;enable-background:new"/><path d="m231 724 1-23-18-1v25l12 8 5-9z" class="st2"/><path d="m233 721 1 4c1 7 25 8 29 9 1 0 4 9-5 9l-43-2-3-3c-1-6 0-16 2-16 4-1 11 1 19-1z" class="st3"/><path d="m21 653 23-3-1-17-26 4-6 12 10 4z" class="st2"/><path d="M24 654c0 2-2 1-4 2-7 2-5 25-6 28 0 2-9 6-10-3l-3-41 3-4c6-2 16-2 16 0 2 4 1 11 4 18z" class="st3"/><path d="M235 713c-16 6-28 2-28 2-4-12 8-88 2-99-5-8-17-21-29-33l-27-25c4 23 5 51 3 69-4 31-121 30-121 30-9-11-12-23-11-25 16-7 90-9 93-18 3-14-3-39-8-60l-9-28-1-2 2-13c0-4 17-10 28-4 24 12 37-4 37-4 31 37 69 77 75 97 4 14-6 108-6 113z" class="st4"/><path d="M26 640c0 4 3 10 9 17l-9-17z" class="st4"/><path d="M131 520c-2 11-16 29-22 34l-9-28 31-6zM181 583c-14-14-27-25-28-25l-2-12c1 0 19 18 30 37z" class="st28"/><path d="M247 336c9-8 25-28 28-24 2 3-10 10-6 13 1 1 8 7 3 11-5 6-8-1-16 12-5 6-9-12-9-12z" class="st9"/><path d="m125 403 15 2s14 1 11-2c-3-4-3-8-5-11l-2-6-1-9v-1l-2-3-5-9s-8 6-8 13c-1 5-4 20-3 26z" class="st5"/><path d="m144 386-1-9v-1l-2-3-2-1-5 6c-2 3 3 10 10 8z" class="st6"/><path d="M125 389c6-3 8 7 14 7 4-1 3-2 4-4 1-1 2-2 3-1 35 27 14 110 19 115 4 4-21 17-37 16-23-2-25-27-25-31l3-85s11-7 19-17z" class="st2"/><path d="M260 346c0 2-31 28-45 40l-42 35c-4 5-5 26-3 31l4 13c2 8 14 43 5 56-6 8-12 8-16 5-8-6-5-35-12-63-3-13-1-23 0-34v-11l-1-8c-4-13-4-19-4-19 20-3 50-16 56-21l14-10 19-16 5-4 5-4 3-2h2v1c3 1 8 5 9 9l1 2zM131 527c-7 10-20 12-31 7-5-2-3-24-1-41v-25l-1-1-1-5-1-12-1-4v-6a105 105 0 0 1 1-27l3-7c11-15 26-18 26-18 1 3 4 7 5 15l1 10 6 17c1 9-3 15-2 24 0 1-2 9-1 18 0 15 4 20 4 29-1 18-1 18-7 26z" class="st29"/><path d="M104 498c9 6 16 2 17 5 2 2-6 3-4 4 2 2 7 3 8 5 1 3-3 9-11 9s-10-9-16-14c-6-6 6-9 6-9z" class="st9"/><path d="M111 395c-23 8-57 60-54 72s36 44 41 43 15-8 14-10-31-29-31-34c1-6 31-40 31-40l-1-31z" class="st29"/><path d="M139 400c-1-1-9 9-18 12h-8l-22-3 12-9c6 3 7 5 11 5l8-1 14-5c1-1 2-3 4-3 2 1-1 4-1 4z" class="st14"/><path d="M143 397c0-1 0-3-3-3l-3 2c-6 2-13 6-21 5-8 0-23-13-35-13s-17 10-34 10c-17-1-34-11-39-11s-8 1-8 3 2 5 5 7 32 9 41 10c13 0 26-9 35-8 8 0 25 8 34 9 12 1 23-9 24-9l2 1 2-3z" class="st15"/><path d="m99 468-1-1-1-5-2-12v-4l9-12-5 34z" style="opacity:.3;fill:#1f1f39;enable-background:new"/><path d="M142 353c3 4 13 10 10 12-4 2 6 9 3 11-9 5-22 6-25 2l-9-14 21-11z" class="st5"/><path d="m132 369 8-9c1-1-3-3 0-6 3-2 5-4 2-8-1-2-4-4-7-1-2 1-4-2-8 0-4 1-3 4-6 7-1 1-6 2-8 5-3 7 4 7 2 13-2 7 15 10 17 9 0 0 1-2-2-4l-3-4c1-1 2-6 5-2" class="st3"/><path d="M718 226c-4 4-8 14-9 20l-23-5c1-6 4-15 11-24l21 9zM158 155l-5 11-13-3c0-3 2-9 6-13l12 5z" class="st31"/><path d="m752 141-14 8-20-5c2-3 7-6 14-9l20 6zM583 192c-4 0-9 9-11 15l-19-5c2-4 5-11 10-17 7 3 13 6 20 7zM218 226c-6 5-9 9-11 13l-31-1 16-13 26 1z" class="st16"/><path d="M616 256c-6-16 13-24 13-24l3 9-16 15zM189 312c-5-15 14-23 14-23l3 8-17 15zM207 176c16-3 22 17 22 17l-9 2-13-19zM220 97c-12-24-35-24-35-24l6-14s37 8 36 19-7 19-7 19z" class="st31"/><path d="M659 171c-21 4-25 21-25 21l-9-7s13-25 21-23 13 9 13 9z" class="st16"/><path d="M290 425c-3-12 17-20 17-20l6 10c0 1-17 15-15 21s-8-11-8-11zM71 245c-2-12 17-20 17-20l6 10c1 1-17 15-15 21s-8-11-8-11zM563 118c-3-11 17-20 17-20l5 10c0 1-17 15-15 21s-7-11-7-11z" class="st31"/><path d="M233 462c-9-12-8-18 0-20s0 3 8 8c7 4 8 4 3 8-5 5-11 4-11 4zM704 350c-12-7-14-13-7-18s1 2 10 4c8 1 9 0 6 7-2 6-9 7-9 7zM760 255c-8-11-8-18 0-20s0 3 8 8c7 5 8 4 3 9-5 4-11 3-11 3zM137 267c-2-22 2-18 4-15s10 5 3 10l-7 5z" class="st16"/><path d="M813 192c1-9 0-19-6-17-7 2 1-21 1-21s15 7 16 19c0 11-11 19-11 19z" class="st31"/><path d="M86 178c-5-3-11-6-12-2-1 5-11-7-11-7s9-6 15-3c7 3 8 12 8 12z" class="st16"/><path d="M525 359c-5 1-10 1-15-1l-2-2c10-2 10-8 10-17l3 4c2 1 5 0 8-1 1 7-2 13-4 17z" class="st31"/><path d="M545 298c-4-3-9-5-13-6l-3 1 3-14 6 1 10 7c1 4-1 8-3 11z" class="st16"/></svg>