<?xml version="1.0" encoding="utf-8"?>
<!-- Generator: Adobe Illustrator 24.3.0, SVG Export Plug-In . SVG Version: 6.00 Build 0)  -->
<svg version="1.1" id="Layer_1" xmlns="http://www.w3.org/2000/svg" xmlns:xlink="http://www.w3.org/1999/xlink" x="0px" y="0px"
	 viewBox="0 0 512 512" style="enable-background:new 0 0 512 512;" xml:space="preserve">
<style type="text/css">
	.st0{fill:#F78E48;}
	.st1{fill:#FCE8DB;}
	.st2{fill:#E2530C;}
	.st3{fill:#ADADF3;}
	.st4{font-family:'Arial-BoldMT';}
	.st5{font-size:17.6877px;}
	.st6{fill:#3B3BE0;}
	.st7{fill:#FAC795;}
	.st8{fill:#FF6E00;}
	.st9{fill:#55312F;}
	.st10{fill:#F5AD6D;}
</style>
<g>
	<g>
		<g>
			<path class="st0" d="M273.3,476.5H16.5C7.4,476.5,0,469.2,0,460V102.6c0-9.1,7.4-16.5,16.5-16.5h256.8c9.1,0,16.5,7.4,16.5,16.5
				V460C289.7,469.2,282.4,476.5,273.3,476.5z"/>
			<rect x="21.4" y="107.6" class="st1" width="247" height="347.6"/>
			<path class="st2" d="M227.5,107.5h-160V84c0-10.3,8.3-18.6,18.6-18.6h122.8c10.3,0,18.6,8.3,18.6,18.6V107.5z"/>
			<path class="st2" d="M178.5,65.4h-60.6l0,0c0-16.5,13.4-30,30-30h0.7C165,35.4,178.5,48.8,178.5,65.4L178.5,65.4z"/>
		</g>
		<g>
			<g>
				<g>
					<text transform="matrix(1 0 0 1 221.0127 160.2419)" class="st3 st4 st5">Y</text>
				</g>
			</g>
		</g>
		<g>
			<rect x="39" y="182.2" class="st0" width="143.6" height="8.9"/>
			<rect x="202.5" y="182.2" class="st6" width="48.2" height="8.9"/>
		</g>
		<g>
			<rect x="39" y="249.8" class="st0" width="143.6" height="8.9"/>
			<rect x="202.5" y="249.8" class="st6" width="48.2" height="8.9"/>
		</g>
		<g>
			<rect x="39" y="216.1" class="st0" width="92.5" height="8.9"/>
			<rect x="144.4" y="216.1" class="st0" width="31.1" height="8.9"/>
		</g>
		<g>
			<rect x="39" y="283.6" class="st0" width="121.7" height="8.9"/>
			<rect x="177.6" y="283.6" class="st0" width="40.9" height="8.9"/>
		</g>
		<g>
			<rect x="39" y="317.5" class="st0" width="143.6" height="8.9"/>
			<rect x="202.5" y="317.5" class="st0" width="48.2" height="8.9"/>
		</g>
		<g>
			<rect x="39" y="351.2" class="st0" width="121.7" height="8.9"/>
			<rect x="177.6" y="351.2" class="st0" width="40.9" height="8.9"/>
		</g>
		<g>
			<rect x="39" y="385" class="st0" width="121.7" height="8.9"/>
			<rect x="177.6" y="385" class="st0" width="40.9" height="8.9"/>
		</g>
		<rect x="199.8" y="216.1" class="st6" width="37.2" height="8.9"/>
		<ellipse class="st0" cx="215" cy="425.5" rx="19" ry="19"/>
	</g>
	<path class="st7" d="M269,188.1l19.8,40.7l13.5,3.1c0.7,0.2,1.4,0.5,2,1.1l4.7,4.6c1.1,1.1,1.1,2.9,0,3.9l0,0
		c-0.8,0.7-1.9,1-2.8,0.6l-5.2-1.9l4.5,7.2c1.5,2.4-0.2,5.4-2.9,5.5l0,0c-10.1,0.3-19.8-3.8-26.7-11.1l-0.6-0.7l-19-34.3"/>
	<polygon points="198.4,237.2 197.7,457.2 220.5,457.2 241.2,283 271.4,457.2 294.5,457.2 276.4,237.2 	"/>
	<path d="M400.4,243.8l-24.1,213.3h24.1l34.4-166.7l19.3,166.7h23.3l3.8-173.2c0-1.5,0-3-0.1-4.6l-1.8-28.6L400.4,243.8z"/>
	<path class="st7" d="M417.7,176.6l-15.2,26.8l-53.9,8.6l-6.8-8.8c-1-1.2-2.6-1.7-4.1-1.1l0,0c-1.6,0.7-2.4,2.4-2,4.1l0.9,3.3
		l-10.6-1.1c-1.4-0.2-2.6,1.1-2.3,2.4l3.5,23c0.4,2.4,2.8,3.9,5.1,3.3l19.5-5.7l47.5-2.5l35.6-29"/>
	<polygon class="st8" points="477.4,457.2 477.4,476.5 432.3,476.5 432.3,462.2 454.1,457.2 	"/>
	<polygon class="st8" points="400.4,457.2 400.4,476.5 355.3,476.5 355.3,462.2 377,457.2 	"/>
	<polygon class="st8" points="197.7,457.2 197.7,476.5 242.8,476.5 242.8,462.2 221.1,457.2 	"/>
	<polygon class="st8" points="271.1,457.2 271.1,476.5 316.2,476.5 316.2,462.2 294.5,457.2 	"/>
	<path class="st8" d="M219.2,107.6h13.2c18.6,0,34,14.2,35.6,32.7l8.4,96.9h-78l-2.6-22.1l-8.4-73.4c-2.1-18.2,12.1-34.1,30.4-34.1
		L219.2,107.6L219.2,107.6z"/>
	<path class="st7" d="M223.1,145.6l24.8,39.4l68.9,24.8h14.3c2.1,0,4.2,0.8,5.8,2.3l8.8,8.2c1.6,1.5,1.8,4,0.3,5.7l-10.4,12.1
		c-1.5,1.7-4,1.9-5.7,0.5l-10.4-8.6c-0.9-0.8-2-1.3-3.2-1.6l-77.9-18.4c-2.2-0.5-4.1-1.7-5.5-3.5l-31.3-39"/>
	<path class="st8" d="M497,181.8l-18.9,4.4l4,12.5l-16.5,51l-65.1-5.7l9.4-100.8c1.8-14.8,14.4-25.8,29.3-25.8h1.3l28,2.4
		c13.1,1.1,24.1,10.1,27.9,22.7l11.1,37L497,181.8z"/>
	<path class="st9" d="M258.3,48.9c0,3.4-2.1,6.2-5.1,7.4c-0.9,0.3-1.8,0.5-2.8,0.5h-5.8c-2,0-3.5,1.7-3.2,3.6l0.3,2.2
		c0.1,0.9-0.3,1.7-1,2.3l-2.9,2.1c-0.7,0.5-1.1,1.3-1,2.1l0.3,3.9c0,0.1,0,0.1,0,0.2c0,1.4-1,2.5-2.4,2.7c-0.9,0.1-1.8-0.2-2.4-0.8
		l-1.3-1.4c-1-1.1-2.5-1.7-3.9-1.7c-1.1,0-2.2,0.3-3.2,1c-1.4,1-2.2,2.7-2.2,4.4l0.1,9.7h-6.3c-0.3,0-0.6,0-0.9-0.1l0,0
		c-2.3-0.3-4.2-2-4.9-4.2c-2.1-7.2-1.8-17.7-1.1-26.4c0.8-8.8,8.1-15.5,16.9-15.5h24.8c2.2,0,4.2,0.9,5.6,2.3
		C257.5,44.7,258.3,46.7,258.3,48.9z"/>
	<path class="st7" d="M257.7,81.8c-0.9,0.6-1.4,1.5-1.6,2.5l-2,12.1c-0.4,2.6-2.6,4.4-5.2,4.4h-10l-2.8,12
		c-1.5,6.4-7.9,10.3-14.3,8.6c-5.2-1.3-8.7-6-8.7-11.2c0-0.3,0-0.6,0-0.9l1.6-22.2l0,0c0.3,0,0.6,0.1,0.9,0.1h6.3l-0.1-9.7
		c0-1.7,0.8-3.4,2.2-4.4c1-0.7,2.1-1,3.2-1c1.4,0,2.9,0.6,3.9,1.7l1.3,1.4c0.6,0.6,1.5,1,2.4,0.8c1.4-0.2,2.4-1.3,2.4-2.7
		c0-0.1,0-0.1,0-0.2l-0.3-3.9c-0.1-0.8,0.3-1.7,1-2.1l2.9-2.1c0.7-0.5,1.1-1.4,1-2.3l-0.3-2.2c-0.2-1.9,1.3-3.6,3.2-3.6h5.8
		c1,0,2-0.2,2.8-0.5l3.4,6.6c0.6,1.2,0.9,2.5,0.9,3.8v6.9c0,0.7,0.2,1.4,0.5,2l0.6,1.1C259.8,78.4,259.3,80.6,257.7,81.8z"/>
	<path class="st7" d="M508.8,212.2L473,280l-5.3,16c-0.3,0.9-0.9,1.6-1.6,2.1l-15.9,9.9c-1.2,0.7-2.7,0.5-3.6-0.5l-4.7-5
		c-0.9-0.9-1-2.4-0.4-3.5l4.1-6.7l-1.4-4.9c-0.4-1.3-0.1-2.7,0.8-3.7l14.8-16.9l5.6-17.4l16.5-51l-4-12.5l18.9-4.4l10.3-2.4
		l3.6,11.9C512.9,198.2,512.2,205.8,508.8,212.2z"/>
	<path class="st9" d="M482.4,76.9c-1.3,14.7-6.7,26.5-16.6,35c-0.1,0.1-0.3,0.2-0.4,0.4l-2.5-17.7c-0.2-1.6,0.1-3.2,0.9-4.6l1.5-2.7
		c0.8-1.5,0.7-3.4-0.3-4.8c-0.9-1.2-2.2-1.8-3.6-1.8c-0.8,0-1.6,0.2-2.3,0.6l-3,1.8c-1.6,1-3.8,0.7-5.1-0.7L434.2,65
		c-1,0.8-2.2,1.1-3.3,1.1c-1.5,0-2.9-0.6-4-1.7c-0.6-0.6-1-1.3-1.3-2.2l-0.1-0.2c-0.8-2.4,0.1-5.1,2.3-6.5c5.2-3.3,10.8-6,16.7-8.1
		c7.8-2.7,16.4-1.3,23.1,3.5l4.4,3.2C479.1,59.4,483.1,68.1,482.4,76.9z"/>
	<path class="st7" d="M465.3,112.3c0.1-0.1,0.3-0.2,0.4-0.4v9.5c0,3-1.2,5.7-3.2,7.7s-4.7,3.2-7.7,3.2c-6,0-10.9-4.9-10.9-10.9
		v-13.3c-21.6-3.1-18.3-35.3-17.1-43.6c1.1,1.1,2.5,1.7,4,1.7c1.1,0,2.3-0.4,3.3-1.1L451,82.4c1.3,1.4,3.4,1.7,5.1,0.7l3-1.8
		c0.7-0.4,1.5-0.6,2.3-0.6c1.4,0,2.7,0.6,3.6,1.8c1,1.4,1.1,3.3,0.3,4.8l-1.5,2.7c-0.8,1.4-1.1,3-0.9,4.6L465.3,112.3z"/>
	<path class="st10" d="M238.9,100.8l-1.7,7.2c-7.3,0.3-18.9-4.2-22.9-14.5C214.2,93.4,228.7,102.5,238.9,100.8z"/>
	<path class="st10" d="M444,108.1v5.8c7.3,0.3,16.3-1.9,20.3-8.9C464.3,105,452.2,109.8,444,108.1z"/>
	<path class="st7" d="M302.9,243.4h-25c0,0,6.8,7.1,16,8.7l8.2,0.7c2.9,0.2,4.8-3,3.3-5.4L302.9,243.4z"/>
</g>
</svg>
