<svg width="30" height="20" viewBox="0 0 30 20" fill="none" xmlns="http://www.w3.org/2000/svg">
<path d="M28.4062 3.16992L26.5 20.0005H3.5L1.96875 3.49779L15 9.89123L28.4062 3.16992Z" fill="#F2F2F2"/>
<path d="M27.7812 0L15 10.4918L2.21875 0H15H27.7812Z" fill="#F2F2F2"/>
<path d="M3.5 4.86348V20.0001H1.40625C0.625 20.0001 0 19.4536 0 18.7706V2.62305L2.28125 2.67769L3.5 4.86348Z" fill="#F14336"/>
<path d="M30 2.62294V18.7432C30 19.4262 29.375 19.9727 28.5937 19.9727H26.5V4.86338L27.6562 2.48633L30 2.62294Z" fill="#D32E2A"/>
<path d="M30 1.25683V2.62295L26.5 4.86339L15 12.1858L3.5 4.86339L0 2.62295V1.25683C0 0.573771 0.625 0.0273225 1.40625 0.0273225H2.21875L15 8.14208L27.7812 0H28.5938C29.375 0 30 0.573771 30 1.25683Z" fill="#F14336"/>
<path d="M3.5 4.86348L0 4.37168V2.62305L3.5 4.86348Z" fill="#D32E2A"/>
</svg>
