<?xml version="1.0" encoding="utf-8"?>
<!-- Generator: Adobe Illustrator 24.3.0, SVG Export Plug-In . SVG Version: 6.00 Build 0)  -->
<svg version="1.1" id="Layer_1" xmlns="http://www.w3.org/2000/svg" xmlns:xlink="http://www.w3.org/1999/xlink" x="0px" y="0px"
	 viewBox="0 0 565.5 526.4" style="enable-background:new 0 0 565.5 526.4;" xml:space="preserve">
<style type="text/css">
	.st0{fill:#F8F3FF;}
	.st1{fill:#FFECE4;}
	.st2{fill:#FFFFFF;}
	.st3{fill:#2C1E70;}
	.st4{fill:#52C1FF;}
	.st5{fill:#29B2EF;}
	.st6{fill:#080730;}
	.st7{fill:#FF987A;}
	.st8{fill:#F47456;}
	.st9{fill:#4F3C94;}
	.st10{fill:#2F207A;}
	.st11{fill:#58082E;}
	.st12{fill:#3D0422;}
	.st13{fill:#F97A5D;}
	.st14{fill:#FFC43F;}
	.st15{fill:#F2A41C;}
	.st16{fill:#1A1459;}
	.st17{fill:#E8354C;}
	.st18{fill:#CCB0F4;}
	.st19{fill:#E7DCF9;}
	.st20{fill:#FFB92F;}
	.st21{opacity:0.2;fill:#FFFFFF;enable-background:new    ;}
	.st22{fill:#FF6972;}
	.st23{fill:#D0F99B;}
	.st24{fill:#FFCE6C;}
</style>
<path class="st0" d="M254.5,23.7L215.9,7.4c-16-6.7-34.3-5.1-48.9,4.6l-17.6,11.6l-0.7-0.9l17.6-11.6c14.9-9.8,33.6-11.6,49.9-4.6
	l38.6,16.2L254.5,23.7z M14.7,170.4l-1.8-4C2,142.4,10,114.5,32,100l61.8-40.9l0.7,0.9l-61.8,40.9C11.1,115.1,3.3,142.4,14,165.9
	l1.8,4L14.7,170.4z"/>
<path class="st0" d="M268.1,395.5l0-1.1l123.1,0.9l0,1.1L268.1,395.5z"/>
<path class="st1" d="M112.3,358.9L22.9,162c-8.6-19-2.2-41.3,15.2-52.8l134.3-88.9c11.8-7.8,26.7-9.2,39.8-3.8L459,120.1
	c16.1,6.7,26.4,22.6,25.9,40.1l-4.6,184.2c-0.6,23.1-19.5,41.4-42.6,41.3l-287.2-2C134,383.7,119.1,373.9,112.3,358.9z"/>
<path class="st2" d="M380.8,51.8v171.9c0,10.7-8.7,19.4-19.4,19.4H132.8c-10.7,0-19.4-8.7-19.4-19.4V51.8c0-10.7,8.7-19.4,19.4-19.4
	h228.6C372.2,32.5,380.8,41.1,380.8,51.8z"/>
<path class="st1" d="M564.3,514.6c0,6.5-124.7,11.8-278.5,11.8c-153.8,0-278.5-5.3-278.5-11.8c0-6.5,124.7-11.8,278.5-11.8
	C439.7,502.7,564.3,508,564.3,514.6z"/>
<path class="st3" d="M465.4,436.6L321.7,333.3c-0.1-0.1-0.2-0.3-0.1-0.4c0.1-0.1,0.3-0.2,0.4-0.1L465.7,436c0.1,0.1,0.2,0.3,0.1,0.4
	C465.7,436.7,465.6,436.7,465.4,436.6z"/>
<path class="st3" d="M178.1,436.5c-0.1-0.1-0.1-0.3,0.1-0.4l143.7-103.3c0.1-0.1,0.3-0.1,0.4,0.1c0.1,0.1,0.1,0.3-0.1,0.4
	L178.5,436.6C178.4,436.7,178.2,436.7,178.1,436.5z M380.8,86.4c-0.2,0-0.3-0.1-0.3-0.3V51.8c0-10.5-8.5-19.1-19.1-19.1h-52.1
	c-0.2,0-0.3-0.1-0.3-0.3c0-0.2,0.1-0.3,0.3-0.3h52.1c10.8,0,19.8,8.8,19.8,19.8v34.2C381.1,86.3,381,86.4,380.8,86.4z M291.3,32.8
	h-30.7c-0.2,0-0.3-0.1-0.3-0.3c0-0.2,0.1-0.3,0.3-0.3h30.7c0.2,0,0.3,0.1,0.3,0.3C291.6,32.7,291.4,32.8,291.3,32.8z"/>
<path class="st4" d="M89,170.9c0,0,14.1,19.3,32,34.8c6.3,5.4,13,10.4,19.9,13.8c8,4.1,16,6.1,23.3,4.3
	c30.5-7.2,15.7-95.2,15.7-95.2l-24.5,0.1l-6.2,52.2c0,0-25.8-25.3-37.9-26.3C103.6,154.1,89,170.9,89,170.9z"/>
<path class="st5" d="M120.1,191.5c0,4.8,0.3,9.5,0.9,14.2c6.3,5.4,13,10.4,19.9,13.8v-0.1c-2.9-8.4-5.6-16.8-8.5-25.3
	c-0.8-2.3-1.1-5.3-3.2-6.8c-2.4-1.8-6.5-2.2-8.2,0.1C120.1,188.5,120.1,190,120.1,191.5z"/>
<path class="st6" d="M155.2,128.7c0,1,5.7,0.2,12.3,1.8c9.3,2.1,12.4-0.8,12.4-1.8s-5.5-1.8-12.4-1.8
	C160.8,127,155.2,127.7,155.2,128.7z"/>
<path class="st7" d="M30.4,466.1l-1.8,23.6l-0.4,6.6l20.6,5.7l2-20.9l1.1-11.4L30.4,466.1z"/>
<path class="st8" d="M30.4,466.1l-1.8,23.6c1.2-0.3,2.2-1.1,2.7-2.2c0.7-1.7-0.1-3.4-0.6-5.1c-0.6-1.8-0.8-3.8-0.8-5.6
	c0-1.1,0.3-2.3,1.3-2.7c0.9-0.2,1.8,0.4,2.4,1c4.6,4,10.8,6.2,17,6l1.1-11.4L30.4,466.1z"/>
<path class="st9" d="M28.4,485.3l-2.5,20.3c-0.1,1,0.6,1.9,1.5,2.1l52.3,9.2c0,0,5.6-3.2-6.3-8.2c-11.9-5-16.6-20.3-23.3-24.6
	c-6.7-4.3-13,10.3-13,10.3v-1.5c-0.1-3.9-2.5-7.4-6.2-8.9C29.8,483.3,28.6,484.1,28.4,485.3z"/>
<path class="st2" d="M52.6,496.4c0.1,0,0.2,0,0.2-0.1l0.4-3.1v-0.1c0,0-0.1-0.1-0.1,0l-2.7,0.6c-0.1,0-0.1,0.1-0.1,0.2
	c0,0.1,0.1,0.1,0.2,0.1l2.4-0.4L52.6,496.4z"/>
<path class="st2" d="M59.6,501.7c0.1-0.1,0.1-0.2,0-0.2L51,489.9c-0.1-0.1-0.2-0.1-0.2,0c-0.1,0.1-0.1,0.2,0,0.2l8.6,11.6
	C59.4,501.7,59.5,501.8,59.6,501.7z"/>
<path class="st2" d="M53.1,493.3c-0.1,0-0.3-0.2-0.3-0.6c0-0.4,0.4-1.1,0.7-1.4c0.2-0.4,0.6-0.9,0.9-1.3c0.3-0.4,0.7-0.8,1.1-0.6
	c0.4,0.1,0.6,0.7,0.6,1c0,0.7-0.3,1.4-1,2C55,492.5,53.9,493.5,53.1,493.3C53.2,493.3,53.2,493.3,53.1,493.3z M54.7,490.3
	c-0.3,0.4-0.6,0.9-0.9,1.3c-0.2,0.3-0.6,0.9-0.6,1.2c0,0.1,0.1,0.2,0.1,0.2c0.3,0.1,1.1-0.4,1.5-0.8c0.6-0.6,0.9-1.1,0.9-1.8
	c0-0.2-0.1-0.6-0.3-0.7C55,489.7,54.8,490,54.7,490.3z M56.9,498.2c-0.1,0-0.2-0.2-0.3-0.6c0-0.4,0.4-1,0.7-1.4
	c0.2-0.4,0.6-0.9,0.9-1.3c0.3-0.4,0.7-0.8,1.1-0.6c0.4,0.1,0.6,0.7,0.6,1c0,0.7-0.3,1.4-1,2C58.7,497.4,57.5,498.4,56.9,498.2z
	 M58.3,495.2c-0.3,0.4-0.6,0.9-0.9,1.3c-0.1,0.3-0.6,0.9-0.6,1.2c0,0.1,0.1,0.2,0.1,0.2c0.3,0.1,1.1-0.4,1.5-0.8
	c0.6-0.6,0.9-1.1,0.9-1.8c0-0.2-0.1-0.6-0.3-0.7C58.7,494.7,58.5,495,58.3,495.2z"/>
<path class="st2" d="M56.3,501.3c0.1,0,0.2,0,0.2-0.1l0.4-3.1V498c0,0-0.1-0.1-0.1,0l-2.6,0.6c-0.1,0-0.1,0.1-0.1,0.2
	c0,0.1,0.1,0.1,0.2,0.1l2.4-0.4L56.3,501.3C56.2,501.3,56.1,501.2,56.3,501.3z"/>
<path class="st10" d="M76.8,510.1c7.4,4.1,3,6.6,3,6.6l-52.3-9.2c-1-0.2-1.7-1.1-1.5-2.1l0.6-4.2L76.8,510.1z"/>
<path class="st7" d="M95.7,472.2c0,0.1,3,30.4,3,30.3l21.3,2.1c-4.2-54.5,0.1,1-2.4-32v-0.3H95.7z"/>
<path class="st8" d="M95.7,472.2l2.4,24.3c1.3-0.9,2.4-2.3,2.8-3.9c0.3-1.5-0.2-3.2-0.8-4.8s-1.2-3.1-1.2-4.6c0-1.7,0.8-3.4,2.3-4
	c1.7-0.7,3.4,0.3,5.1,1c2.3,0.9,5,1.2,7.4,0.9c0.9-0.1,2.9-0.4,4.5-0.8l-0.6-7.8l-0.1-0.3H95.7z"/>
<path class="st9" d="M97,491.5l1,20.4c0,1,0.9,1.8,1.9,1.8H153c0,0,5-4.1-7.6-7.1c-12.6-2.9-19.8-17.2-27.2-20.2
	c-7.4-3.1-11,12.4-11,12.4l-0.3-1.5c-0.8-3.9-3.8-6.8-7.6-7.7C98.2,489.3,96.9,490.3,97,491.5z"/>
<path class="st2" d="M122.8,498.3c0.1,0,0.2-0.1,0.2-0.2v-3.2c0-0.1,0-0.1-0.1-0.1h-0.1l-2.5,1c-0.1,0-0.1,0.1-0.1,0.2
	c0,0.1,0.1,0.1,0.2,0.1l2.3-0.9v2.9C122.7,498.3,122.7,498.3,122.8,498.3z"/>
<path class="st2" d="M130.4,502.4h0.1c0.1-0.1,0.1-0.2,0-0.2l-10.5-9.9c-0.1-0.1-0.2-0.1-0.2,0c-0.1,0.1-0.1,0.2,0,0.2l10.5,9.9
	H130.4z"/>
<path class="st2" d="M122.8,495.2c-0.1,0-0.3-0.1-0.3-0.4c-0.1-0.3,0.1-0.9,0.2-1.2c0-0.1,0.1-0.2,0.1-0.2c0.2-0.4,0.3-1,0.7-1.4
	c0.1-0.2,0.2-0.3,0.3-0.6c0.2-0.2,0.4-0.3,0.7-0.2c0.4,0.1,0.7,0.6,0.8,0.9c0.1,0.7-0.1,1.5-0.7,2.2
	C124.4,494,123.5,495.2,122.8,495.2z M124,491.5c-0.1,0.1-0.2,0.3-0.3,0.4c-0.2,0.4-0.4,0.9-0.6,1.4c0,0.1-0.1,0.2-0.1,0.2
	c-0.1,0.3-0.3,0.8-0.2,1c0,0.1,0.1,0.2,0.1,0.2c0.3,0.1,1-0.7,1.3-1c0.4-0.6,0.7-1.3,0.6-1.9c0-0.2-0.2-0.6-0.4-0.6
	C124.2,491.4,124.1,491.4,124,491.5z M127.3,499.4c-0.1,0-0.3-0.1-0.3-0.4c-0.1-0.3,0.1-0.9,0.2-1.2c0-0.1,0.1-0.2,0.1-0.2
	c0.2-0.6,0.3-1,0.7-1.4c0.1-0.2,0.2-0.3,0.3-0.6c0.2-0.2,0.4-0.3,0.7-0.2c0.4,0.1,0.7,0.6,0.8,0.9c0.1,0.7-0.1,1.5-0.7,2.2
	c0,0-1,1.1-1.5,1.1L127.3,499.4z M128.5,495.7c-0.1,0.1-0.2,0.3-0.3,0.4c-0.2,0.4-0.4,0.9-0.6,1.4c0,0.1-0.1,0.2-0.1,0.2
	c-0.1,0.3-0.3,0.8-0.2,1c0,0.1,0.1,0.2,0.1,0.2c0.3,0.1,1-0.7,1.3-1c0.4-0.6,0.7-1.3,0.6-1.9c0-0.2-0.2-0.6-0.4-0.6
	C128.7,495.6,128.6,495.6,128.5,495.7z"/>
<path class="st2" d="M127.2,502.5c0.1,0,0.2-0.1,0.2-0.2v-3.2c0-0.1,0-0.1-0.1-0.1h-0.1l-2.5,1c-0.1,0-0.1,0.1-0.1,0.2
	c0,0.1,0.1,0.1,0.2,0.1l2.3-0.9v2.9C127.1,502.4,127.1,502.5,127.2,502.5z"/>
<path class="st10" d="M148.9,507.7c8,2.8,4.1,6,4.1,6H99.9c-1,0-1.8-0.8-1.9-1.8l-0.2-4.3h51.1V507.7z"/>
<path class="st11" d="M28.6,472.4c6.4,5.4,15.9,6.8,26.3,5.7l33.6-167.5l5,164.3c8.9,2.4,18,5.5,27.9-0.7l5.1-221.6l-8.2,0.1
	l-63.6,1.1L52.3,272L28.6,472.4z"/>
<path class="st0" d="M69.3,296.1l4.6,36.5c0.2,1.9-1.1,3.5-3,3.9l-61.3,7.8c-1.9,0.2-3.5-1.1-3.9-3l-4.6-36.5
	c-0.2-1.9,1.1-3.5,3-3.9l61.3-7.8C67.4,292.9,69,294.2,69.3,296.1z"/>
<path class="st12" d="M56.9,469.5l-1.9,8.6c-10.4,1.2-20-0.3-26.3-5.7l1.1-8.7C37.4,469,46.6,470.6,56.9,469.5z M52.6,272.1
	c41.3,4.2,71.8-16.8,71.8-16.8s-2.2-0.9-5.9-2.4L54.9,254L52.6,272.1z"/>
<path class="st4" d="M39.6,162.5c1.7,13.8,4,29.9,6.5,48.6c1,7.2,2,14.7,3.1,22.5c0.9,6.5,1.8,13.3,2.7,20.3
	c1.2,9.6,46.7,9.6,74.4,2.4c1.3-0.3,2.3-1.4,2.5-2.8c0.1-0.7,0.2-1.5,0.4-2.5c0-0.2,0.1-0.6,0.1-0.8c3.4-20.2,13.1-90.4-17.4-95.7
	c-1.7-0.3-4.3-0.6-7.3-0.9l-3.6-0.3c-8.1-0.7-17-1.2-17-1.2c-4.6,0-11.3,0.3-18.1,1c-1.8,0.2-3.4,0.3-5.2,0.6
	C47.9,155.7,39.2,158.3,39.6,162.5z"/>
<path class="st5" d="M49.5,201.8l-0.6,29.3l-8.7-31.9L49.5,201.8z"/>
<path class="st2" d="M65.9,153.4c1.4,9.1,17,17.2,24.3,17.2c2.1,0,4-0.6,5.4-1.7c1.9-1.3,3-3.3,3.2-5.6l2.1-9.7
	c-8.1-0.7-16.9-1.2-16.9-1.2C79.4,152.4,72.8,152.7,65.9,153.4z"/>
<path class="st5" d="M90.2,170.9c-5.1,0-14.4-3.9-20.1-9.7c-0.1-0.1-0.1-0.3,0-0.4c0.1-0.1,0.3-0.1,0.4,0c5.5,5.6,14.8,9.5,19.7,9.5
	c2,0,3.8-0.6,5.2-1.5c1.8-1.2,2.9-3.2,3.1-5.4c0-0.2,0.2-0.3,0.3-0.3c0.2,0,0.3,0.2,0.3,0.3c-0.2,2.4-1.4,4.5-3.3,5.9
	C94.2,170.4,92.3,170.9,90.2,170.9z"/>
<path class="st7" d="M72,125.7v26.4c0,6.1,20.5,16.6,20.5,10.4l5.1-23.4c-7.3,0.6-18.2-1.1-24.6-9.6L72,125.7z"/>
<path class="st12" d="M88.5,310.6l1.7,50.5l6.3-60.9c-1.9,0.1-3.9,0.1-5.7-0.4L88.5,310.6z"/>
<path class="st9" d="M94.9,300.8c-2.9,0-5.9-0.6-7.9-2.4c-0.1-0.1-0.1-0.3,0-0.4c0.1-0.1,0.3-0.1,0.4,0c5,4.4,15.9,1,16,0.9
	c0.2-0.1,0.3,0,0.4,0.2s0,0.3-0.2,0.4C103.3,299.5,99.3,300.8,94.9,300.8z"/>
<path class="st9" d="M94.9,300.8c-2.9,0-5.9-0.6-7.9-2.4c-0.1-0.1-0.1-0.3,0-0.4c0.1-0.1,0.3-0.1,0.4,0c5,4.4,15.9,1,16,0.9
	c0.2-0.1,0.3,0,0.4,0.2s0,0.3-0.2,0.4C103.3,299.5,99.3,300.8,94.9,300.8z"/>
<path class="st9" d="M87,298.3c-0.1-0.1-0.1-0.3,0-0.4c0.1-0.1,0.3-0.1,0.4,0c2.3,2.1,6,2.4,9.2,2.2c3.6-0.2,6.8-1.3,6.8-1.3
	c0.2-0.1,0.3,0,0.4,0.2c0.1,0.2,0,0.3-0.2,0.4c0,0-3.3,1.1-7.1,1.3C93.3,300.9,89.4,300.6,87,298.3z"/>
<path class="st12" d="M87,298.3c-0.1-0.1-0.1-0.3,0-0.4c0.1-0.1,0.3-0.1,0.4,0c2.3,2.1,6,2.4,9.2,2.2c3.6-0.2,6.8-1.3,6.8-1.3
	c0.2-0.1,0.3,0,0.4,0.2c0.1,0.2,0,0.3-0.2,0.4c0,0-3.3,1.1-7.1,1.3C93.3,300.9,89.4,300.6,87,298.3z M92.9,294.3
	c-0.2-0.1-0.2-0.2-0.2-0.4c4.3-10.1,2.8-27.4,2.8-27.6c0-0.2,0.1-0.3,0.3-0.3c0.2,0,0.3,0.1,0.3,0.3c0,0.2,1.5,17.7-2.9,27.9
	C93.2,294.3,93,294.3,92.9,294.3z M98.6,294.3c-0.2-0.1-0.2-0.2-0.2-0.4c4.3-10.1,2.8-27.4,2.8-27.6c0-0.2,0.1-0.3,0.3-0.3
	c0.2,0,0.3,0.1,0.3,0.3c0,0.2,1.5,17.7-2.9,27.9C98.9,294.3,98.7,294.3,98.6,294.3z M56.3,276.6c-0.1-0.2,0-0.3,0.2-0.4
	c9.4-3.5,8.6-12.8,8.5-13.3c0-0.2,0.1-0.3,0.3-0.3c0.2,0,0.3,0.1,0.3,0.3c0,0.1,0.9,10.2-8.9,13.9C56.5,277,56.4,276.8,56.3,276.6z
	 M123.1,276.3c-8.7-4.5-9.5-13.1-9.5-13.3c0-0.2,0.1-0.3,0.3-0.3s0.3,0.1,0.3,0.3c0,0.1,0.8,8.4,9.2,12.7c0.1,0.1,0.2,0.3,0.1,0.4
	C123.4,276.3,123.2,276.3,123.1,276.3z"/>
<path class="st7" d="M103.3,137.9c0,0,7.3-3.1,6.5-8.6c-0.3-2.3-1.2-4.9-2.5-7.6c-1-2-2.1-4.1-3.3-6.2c-5.2-8.6-11.9-16.6-11.9-16.6
	l-24.8,10.3l6,20.2C81.6,140.8,98.2,140,103.3,137.9z"/>
<path class="st11" d="M63.6,129.9c0,0-0.7-1.8-0.7-3.9c0-2.1,0.6-4.4,2.9-5.4c5-2.2,7.3,6.7,7.3,6.7l0.4,1.4c0-2.7,0.3-6.8-2.4-8.5
	c10.6-3.6,0.8-8.8,0.8-8.8c23.5-0.2,22.1-9.3,22.1-9.3c1.2,0.6,2.6,2.5,3.9,4.2c1.3-1.4,2.3-3,2.9-4.4c3.5-8.8-5.7-17-10-15.6
	c-4.2,1.3-4.5,9.2-8.3,10.4c-4.4,1.4-6.5-6.3-18.7-1.5c-12.3,4.8-6.1,14.1-6.1,14.1C48,113.2,63.6,129.9,63.6,129.9z"/>
<path class="st12" d="M63.6,129.9c0,0-0.7-1.8-0.7-3.9c-0.8-0.8-1.5-1.5-2.4-2.2c-0.9-2.8-1.8-5.5-2.8-8.3c-0.2-0.8-0.6-1.5-0.6-2.3
	c0-0.8,0.3-1.7,1-2.1c0.7-0.4,1.7-0.4,2.1,0.3c-0.9-1.4-1.9-3.1-2.1-4.8c-0.2-1.8,0.3-3.8,1.8-4.6c1.5-0.9,3.4-0.6,5.2-0.4
	c9.1,1,18.7-2.9,24.3-10.1c0.8-1,1.5-2,2.8-2.3c1.5-0.4,3.2,0.8,4.2,2.1c2.5,3,4.1,7,4.2,10.8c3.5-8.8-5.7-17-10-15.6
	C86.3,88,86,95.8,82.2,97c-4.4,1.4-6.5-6.3-18.7-1.5c-12.3,4.8-6.1,14.1-6.1,14.1C48,113.1,63.6,129.9,63.6,129.9z"/>
<path class="st12" d="M71.1,120.7c-0.1,0-0.2-0.1-0.3-0.2c-0.1-0.2,0-0.3,0.2-0.4c3-1,4.5-2.2,4.6-3.6c0.2-2.3-4-4.5-4-4.5
	c-0.1-0.1-0.2-0.2-0.2-0.3c0-0.1,0.2-0.2,0.3-0.2c13.1-0.1,18.3-3.1,20.4-5.4c1.5-1.9,1.3-3.4,1.3-3.5c0-0.2,0.1-0.3,0.3-0.3
	c0.2,0,0.3,0.1,0.3,0.2c0,0.1,0.3,1.9-1.4,4c-2.1,2.4-7.2,5.4-19.8,5.7c1.3,0.9,3.5,2.7,3.3,4.5C76.3,118.1,74.5,119.6,71.1,120.7
	C71.2,120.7,71.2,120.7,71.1,120.7z"/>
<path class="st7" d="M71.3,122.5c-1.1-1.8-2.4-2.7-4.2-2.3c-1.8,0.2-3.4,1.4-4.2,3c-1.5,2.9-0.4,6.5,2.1,8.5c2.5,2,7.8,3.1,9.1,1.5
	C75.7,130.9,72.8,124.9,71.3,122.5z"/>
<path class="st13" d="M70.3,128.6c-0.1,0-0.3-0.1-0.3-0.2c-0.8-3.2-4.1-3.2-4.2-3.2c-0.2,0-0.3-0.1-0.3-0.3c0-0.2,0.1-0.3,0.3-0.3
	c0.1,0,4,0,4.9,3.8C70.7,128.4,70.5,128.5,70.3,128.6z"/>
<path class="st13" d="M70.3,128.6c-0.1,0-0.2-0.1-0.3-0.2c0,0-0.3-0.8-1-1c-0.6-0.2-1.3,0-2.2,0.7c-0.1,0.1-0.3,0.1-0.4-0.1
	c-0.1-0.1-0.1-0.3,0.1-0.4c1-0.8,2-1,2.8-0.8c1,0.3,1.4,1.3,1.4,1.4c0.1,0.2,0,0.3-0.2,0.4H70.3z"/>
<path class="st13" d="M87.6,138.3C87.4,138.3,87.4,138.3,87.6,138.3c-8.2-0.8-11.9-5.6-12-5.9c-0.1-0.1-0.1-0.3,0.1-0.4
	c0.1-0.1,0.3-0.1,0.4,0.1c0,0,3.8,4.9,11.6,5.5c0.2,0,0.3,0.2,0.3,0.3C87.8,138.1,87.7,138.3,87.6,138.3z"/>
<path class="st12" d="M93,105.6c-0.1,0-0.1,0-0.2-0.1c-0.1-0.1-0.2-0.3-0.1-0.4c2.2-2.8,0.1-6.8,0.1-7c-0.1-0.1,0-0.3,0.1-0.4
	c0.1-0.1,0.3,0,0.4,0.1c0.1,0.2,2.2,4.5-0.2,7.6C93.2,105.6,93.1,105.6,93,105.6z"/>
<path class="st13" d="M97.7,139c-0.2,0.1-4.5,0.2-7.1-0.1c1.8,2.1,3.8,3.4,6.3,3.8L97.7,139z"/>
<path class="st5" d="M149.2,181.3c-0.1,0-0.1,0-0.2-0.1l-11.5-10.4c-0.1-0.1-0.1-0.3,0-0.4c0.1-0.1,0.3-0.1,0.4,0l11,9.9l2.4-21
	c0-0.2,0.2-0.3,0.3-0.3c0.2,0,0.3,0.2,0.3,0.3l-2.5,21.5c0,0.1-0.1,0.2-0.2,0.2C149.3,181.3,149.2,181.3,149.2,181.3z"/>
<path class="st5" d="M161,206.3c-0.2,0-0.3-0.2-0.3-0.3c1.1-18-11.5-24.6-11.6-24.7c-0.1-0.1-0.2-0.3-0.1-0.4
	c0.1-0.1,0.3-0.2,0.4-0.1c0.1,0.1,13.1,7,12,25.3C161.3,206.2,161.2,206.3,161,206.3z M49.2,233.7c0.9,6.5,1.8,13.3,2.6,20.3
	c1.2,9.6,46.7,9.6,74.4,2.4c1.3-0.3,2.3-1.4,2.5-2.8c0.1-0.7,0.2-1.5,0.4-2.5c0-0.2,0.1-0.6,0.1-0.8c-1.4,0-3,0.2-4.4,0.4
	c-11.2,1.9-22.2,4.4-33.5,4.8c-11.3,0.3-23-1.5-32.4-7.7c-4-2.5-7.8-6.4-8.8-11.2C50,235.4,50,234.2,49.2,233.7z"/>
<path class="st7" d="M336.8,154.1c0,0-17.1-4.4-22.4-8.6c-4.5-3.6-4.6,0.2-2.3,2.7c-4.4-3.8-4.6,0-2.4,2.5c-1.5-0.1-1.2,2.3,0.3,4.1
	c-1.4-0.1-1.1,2.3,0.3,4.1c2.9,3.4,6.8,8.1,16.6,9.4c4.6,0.7,10.7,0.1,15.3,11l16.7-9.9c0,0-1.4-2.1-2.3-8.4
	c-0.8-6.3-3.8-9.6-9.8-9.1c-6.1,0.6-9.4-6.5-10.9-7.3C334.2,143.9,326.1,148.3,336.8,154.1z"/>
<path class="st7" d="M339.2,173c0,0,2.8,12.3,8,27c6.8,19.4,17.9,43,32.4,47.6c20.9,6.7,46.2-22.8,46.2-22.8l-19-27.9L393,207.4
	l-6.7,5.2c0,0-24.7-38.1-28.2-44.8L339.2,173z"/>
<path class="st13" d="M425.7,224.8c0,0-25.4,29.5-46.2,22.8c-14.4-4.6-25.5-28.2-32.4-47.6c1.5-0.1,3.2,0.3,4.5,1.1
	c2.1,1.2,3.6,3.2,5.1,5.2c3.3,4.9,5.7,10.4,8.6,15.6c2.9,5.2,6.2,10.3,11,13.8c4.9,3.4,11.3,5.1,16.8,3c5.5-2.1,9.4-8.6,7.5-14.2
	c-1.1-3.1-3.6-5.5-5.3-8.3c-1.5-2.7-2.3-5.6-2.4-8.6l13.7-10.5L425.7,224.8z"/>
<path class="st14" d="M437.4,217.6c0,0-2.4,3.1-5.7,6.6c-3,3.2-6.7,6.7-9.7,8.2c-1.7,0.8-3,1-4,0.2c-5.1-4.1-21-21.3-22.1-27.5
	c-0.9-4.6,18-19.8,18-19.8l12.6,17.3l7.4,10.2L437.4,217.6z"/>
<path class="st15" d="M436.4,199.5l-2.5,13.3l-2.2,11.5c-3,3.2-6.7,6.7-9.7,8.2l-3.9-27.1l8.4-2.7L436.4,199.5z"/>
<path class="st13" d="M384.7,227.8l-0.7-0.2c3.8-8.9,1.9-14.8,1.9-14.8l0.7-0.2C386.7,212.7,388.6,218.6,384.7,227.8z"/>
<path class="st16" d="M547.2,462.7c0,0-2.2,12.1-11.9,15.9c-7.2,2.8-10.6,0.9-10.6,0.9l6.1-18.7L547.2,462.7z"/>
<path class="st7" d="M517.5,480.9l-2.4,24.9l-0.2,2.2l-19.7,1.1l2.2-20.5l0.8-7.5L517.5,480.9z"/>
<path class="st13" d="M517.5,480.9l-2.5,24.9c-0.7-0.3-1.2-0.7-1.7-1.2c-1.2-1.4-1.4-3.5-1.2-5.5c0.2-1.9,0.8-3.8,0.9-5.7
	c0-1.2-0.2-2.4-1.1-3.2c-0.9-0.7-2.1-0.7-3.1-0.6c-3.2,0.2-6.4,0.4-9.5-0.3c-0.7-0.2-1.3-0.4-1.9-0.7l0.8-7.5L517.5,480.9z"/>
<path class="st17" d="M518.4,498.9l-0.8,7.6l-0.6,5.4c-0.1,1.5-1.4,2.7-3,2.7h-39c-1.7,0-2.8-1.2-3-2.7c-0.3-2.8,3.8-5.7,7-6
	l2.8-0.2l1.4-0.1c1.3-0.1,2.4-0.6,3.5-1.3c1-0.7,1.9-1.7,2.4-2.8c2.5-5,7.6-8.2,13-8.4c1.1,0,2.1,0.8,2.2,2l0.4,7.4
	c0,0.8,0.8,1.4,1.5,1.4c0.7,0,1.2-0.3,1.4-1l0.9-2.2c0.4-1.2,1.3-2.2,2.3-3c1.3-0.9,2.9-1.3,4.5-1.2l0.8,0.1
	C517.6,496.8,518.5,497.8,518.4,498.9z"/>
<path class="st2" d="M518.4,498.9l-0.8,7.6c-3.6-1.2-6.3-4.6-6.3-8.7v-0.1c1.3-0.9,2.9-1.3,4.5-1.2l0.8,0.1
	C517.6,496.8,518.5,497.8,518.4,498.9z M481.8,505.7c-0.1,3.8-3.2,6.8-7,6.8c-1,0-1.9-0.2-2.8-0.6c-0.3-2.8,3.8-5.7,7-6L481.8,505.7
	z M517.2,511.5h-27.5c-0.2,0-0.3-0.1-0.3-0.3s0.1-0.3,0.3-0.3h27.5c0.2,0,0.3,0.1,0.3,0.3S517.3,511.5,517.2,511.5z M499.8,496.3
	c0,0.4-0.3,0.9-0.9,0.9c-0.4,0-0.9-0.3-0.9-0.9c0-0.4,0.3-0.9,0.9-0.9C499.5,495.4,499.8,495.9,499.8,496.3z"/>
<path class="st2" d="M498.3,495.9l-1.7-2.4c-0.1-0.1-0.1-0.3,0.1-0.4c0.1-0.1,0.3-0.1,0.4,0.1l1.7,2.4c0.1,0.1,0.1,0.3-0.1,0.4
	C498.6,496.1,498.4,496,498.3,495.9z M496.9,498.3c0,0.4-0.3,0.9-0.9,0.9c-0.4,0-0.9-0.3-0.9-0.9c0-0.4,0.3-0.9,0.9-0.9
	C496.4,497.4,496.9,497.9,496.9,498.3z"/>
<path class="st2" d="M495.3,497.9l-1.7-2.4c-0.1-0.1-0.1-0.3,0.1-0.4c0.1-0.1,0.3-0.1,0.4,0.1l1.7,2.4c0.1,0.1,0.1,0.3-0.1,0.4
	C495.7,498,495.4,498,495.3,497.9z M493.8,500.3c0,0.4-0.3,0.9-0.9,0.9c-0.4,0-0.9-0.3-0.9-0.9c0-0.4,0.3-0.9,0.9-0.9
	C493.4,499.4,493.8,499.8,493.8,500.3z"/>
<path class="st2" d="M492.2,499.9l-1.7-2.4c-0.1-0.1-0.1-0.3,0.1-0.4c0.1-0.1,0.3-0.1,0.4,0.1l1.7,2.4c0.1,0.1,0.1,0.3-0.1,0.4
	C492.6,500,492.3,500,492.2,499.9z"/>
<path class="st7" d="M544.3,459l14.9,20.2l1.3,1.8l-13.8,13.9l-12.3-16.7l-9.1-10.7L544.3,459z"/>
<path class="st13" d="M544.3,459l14.8,20.1c-0.7,0.2-1.3,0.3-2.1,0.2c-1.9-0.2-3.4-1.7-4.5-3.3c-1.1-1.5-2-3.3-3.2-4.8
	c-0.8-0.9-1.8-1.7-3-1.7c-1.1,0.1-2,0.9-2.7,1.7c-2.2,2.3-4.4,4.6-7.3,6.1c-0.6,0.3-1.2,0.6-1.9,0.8l-9.1-10.7L544.3,459z"/>
<path class="st17" d="M557.2,471.9l4.5,6.2l3.2,4.3c0.9,1.2,0.8,3-0.4,4l-28.9,26.2c-1.2,1.1-2.9,1-4,0c-0.4-0.4-0.9-1-1-1.8
	c-0.1-0.6-0.1-1-0.1-1.5c0-2.1,0.8-4.2,2.3-5.9l1.9-2.1l1-1.1c0.9-1,1.4-2.1,1.8-3.3s0.3-2.5,0-3.8c-1.4-5.4,0.1-11.2,4.1-14.9
	c0.8-0.8,2.1-0.8,2.9,0l5.3,5.2c0.6,0.6,1.5,0.6,2.1,0c0.4-0.4,0.7-1.1,0.4-1.7l-0.9-2.2c-0.4-1.2-0.6-2.5-0.2-3.8
	c0.3-1.5,1.2-2.9,2.5-3.9l0.7-0.4C555.2,470.7,556.5,470.9,557.2,471.9z"/>
<path class="st2" d="M557.2,471.9l4.5,6.2c-3.5,1.5-7.8,0.8-10.5-2.2l-0.1-0.1c0.3-1.5,1.2-2.9,2.5-3.9l0.7-0.4
	C555.2,470.7,556.5,470.9,557.2,471.9z M534.6,501.4c2.4,2.9,2.2,7.2-0.7,9.7c-0.8,0.7-1.5,1.1-2.4,1.4c-0.4-0.4-0.9-1-1-1.8
	c-0.1-0.6-0.1-1-0.1-1.5c0-2.1,0.8-4.2,2.3-5.9L534.6,501.4z M544,500.5c-0.1,0-0.2,0-0.2-0.1c-0.1-0.1-0.1-0.3,0-0.4l20.4-18.4
	c0.1-0.1,0.3-0.1,0.4,0c0.1,0.1,0.1,0.3,0,0.4l-20.4,18.4C544.1,500.5,544.1,500.5,544,500.5z M540.3,483.1l-2.9-0.7
	c-0.2,0-0.3-0.2-0.2-0.4c0.1-0.2,0.2-0.3,0.4-0.2l2.9,0.7c0.2,0,0.3,0.2,0.2,0.4C540.6,483.1,540.4,483.2,540.3,483.1z M539.3,486.6
	l-2.9-0.7c-0.2,0-0.3-0.2-0.2-0.4c0-0.2,0.2-0.3,0.4-0.2l2.9,0.7c0.2,0,0.3,0.2,0.2,0.4C539.6,486.5,539.5,486.6,539.3,486.6z
	 M538.4,490l-2.9-0.7c-0.2,0-0.3-0.2-0.2-0.4c0-0.2,0.2-0.3,0.4-0.2l2.9,0.7c0.2,0,0.3,0.2,0.2,0.4C538.7,490,538.5,490.1,538.4,490
	z"/>
<path class="st9" d="M547.2,462.7c-11.3,0.3-18.2,6.7-22.5,16.9l-4.5-6.4L491.9,433l-32.8-46.8c-4.7-7.2-7.3-15.7-7.3-24.3V295
	l40.5-16.5l-0.2,3.9l-0.2,5.7l-0.6,12.7l-0.2,4.4l-0.8,17.6l-2,44.7l36.2,58.7l9.7,15.7L547.2,462.7z"/>
<path class="st10" d="M452.4,334.3l-0.3-0.6c17.4-8.3,10.2-25.7,9.9-26.5l0.7-0.2C462.6,307.1,470.4,325.8,452.4,334.3z"/>
<path class="st14" d="M519.7,472.6l5,7.1c4.3-10.2,11.3-16.6,22.5-16.9l-3.4-5.5C533.7,457.2,526.2,463.6,519.7,472.6z"/>
<path class="st12" d="M491.3,300.8c-0.8-3.9-2-7.7-0.1-11.5c0.2-0.4,0.4-0.8,0.7-1.1L491.3,300.8z"/>
<path class="st10" d="M534.3,441.8c-4.4,2.2-9.7,2.4-14.5,1.2c-5.5-1.4-10.6-4.6-15-8.4c-15.9-13.4-25.5-35.1-25.3-56.9
	c0.1-9.4,1.9-18.7,4.1-27.7c2.1-8.6,5.1-18,6.8-27.3l-2,44.7L534.3,441.8z"/>
<path class="st9" d="M535.6,306.2l-11,119.8l-4.3,47.2l-1,11.3c-0.1,0.8-0.6,1.4-1.3,1.7c-9.8,4.1-15.8-0.2-21.1-0.6
	c-1-0.1-1.9-0.9-1.9-1.9l-2.9-50.8l-7.3-126.6l-1.1-19.3l8.5-4.6l26.3-14.1l11.7,17.3c0.8,1.1,1.4,2.2,2,3.4
	C534.8,294.2,536.1,300.3,535.6,306.2z"/>
<path class="st10" d="M488.4,332.4c-9.8-13.1-0.1-23.3,0-23.3l0.4,0.4c-0.4,0.4-9.5,9.8,0,22.5L488.4,332.4z M482.8,332.4
	c-9.8-13.1-0.1-23.3,0-23.3l0.4,0.4c-0.4,0.4-9.5,9.8,0,22.5L482.8,332.4z M532.1,288.9c-15.3,8.8-28.9,13.9-41,16.3
	c-2.2,0.4-4.3,0.8-6.4,1.1c-13.2,1.8-24.2,0.3-32.9-2.3V295l40.5-16.5l-0.2,3.9l26.3-14.1l11.7,17.3
	C530.9,286.6,531.5,287.7,532.1,288.9z"/>
<path class="st14" d="M494.5,478.3l0.3,5.5c0.1,1,0.9,1.9,1.9,1.9c5.3,0.3,11.3,4.6,21.1,0.6c0.7-0.3,1.2-1,1.3-1.7l0.6-6.3
	C511,481.6,502.6,481.9,494.5,478.3z M527.5,283.4c-14.5,6.2-52.8,18.1-70.3,19.1h-1.2c-1.4,0-2.7,0-3.8-0.1
	c-7-0.9-25.8-75.9-25.8-75.9s-21.9-26-17.8-34.8c2.2-4.7,16.6-16.8,24.2-20.8c2.2-1.2,4.7-2.1,7.6-2.8c2.3-0.6,4.9-1,7.7-1.3
	c0,0,10.7-0.6,22.5,1.9c1.9,0.3,3.8,0.9,5.6,1.4c8.3,2.4,16.3,6.5,21.2,13.5c3.3,4.8,7.4,13.3,11.5,23.4c3,7.4,6,15.7,8.6,24
	C525.8,256.3,531.6,281.6,527.5,283.4z"/>
<path class="st15" d="M527.5,283.4c-14.5,6.2-52.8,18.1-70.3,19.1h-1.2c2.1-2.4,4.3-4.7,6.3-7.3c11.9-14.8,17.1-33.8,22-52.2l0.3,3
	c2.4-4.3,5-8.6,8.4-12.2c3.4-3.5,8.1-6.2,12.9-6.4c4.1-0.2,8.1,1.3,11.7,3.4C525.8,256.3,531.7,281.6,527.5,283.4z"/>
<path class="st11" d="M449.2,236.2c0,0,34.3,12.6,38.3,7.4c4-5.2-0.9-17.6-9.9-17.6C452.3,225.9,449.2,236.2,449.2,236.2z"/>
<path class="st7" d="M490.8,233.7c-4.1,13.3-12.1,38-15.8,45.1c-6.6,12.7-22.2,27.4-34.9,39.9c-3.8,3.6-7.3,7.2-10.2,10.4
	c-1.5,1.8-3.4,3.4-5.7,3.6c-0.6,0-9.9,1.1-15.2-0.3c-4-1.1-3.9-6.2-3.9-6.2c-3.1,0.7-5.5,4.3-7.2,5.6c-1.7,1.4-2.2,1.4-3,0.7
	c-0.4-0.4-0.7-1.4-0.4-2.3c-1.7,1.4-2.3,1.3-3,0.6c-0.4-0.6-0.6-1.3-0.3-2.3c-1,0.7-1.4,0.4-2-0.1c-2.3-2.7,7.3-12.6,11.5-12.6
	c2.9,0,6.7,1.7,10.3,2.9l35.7-50.8l4.7-22.1l3.5-16.5L490.8,233.7z"/>
<path class="st13" d="M490.8,233.7c-4.1,13.3-12.1,38-15.8,45.1c-6.6,12.7-22.2,27.4-34.9,39.9c-0.3-1.4-0.2-3.1,0.2-4.5
	c0.8-2.3,2.4-4.4,4-6.3c5.7-6.7,11.9-13.1,16.8-20.5s8.4-16.1,7.7-25c-0.2-3.9-1.4-8-4.4-10.4c-2-1.7-4.6-2.4-7.1-3.2
	c-2.1-0.7-4.3-1.7-6.1-3.1l3.5-16.5L490.8,233.7z"/>
<path class="st14" d="M489.2,240.8c0.8,0,10.3-33.9,10.3-33.9l-40-11.3c0,0-15.3,45.2-9.7,40.1C457.9,228.7,486.4,240.8,489.2,240.8
	z"/>
<path class="st15" d="M489.2,241.2c-0.8,0-2.8-0.7-5.9-1.7c-9.6-3.1-27.4-8.8-33.3-3.5l-0.4-0.4c6.3-5.6,24.3,0.2,34,3.3
	c2.5,0.9,4.6,1.5,5.4,1.5c1-1.8,6.5-20.9,10-33.7l0.7,0.2C490.1,241.2,489.6,241.2,489.2,241.2z"/>
<path class="st13" d="M394.2,330.2c-0.1-0.1-0.1-0.3,0-0.4c1.5-1.3,4-6.4,7.2-7.1c0.2,0,0.3,0.1,0.4,0.2c0,0.2-0.1,0.3-0.2,0.4
	c-2.9,0.7-5.2,5.5-7,7C394.5,330.4,394.3,330.4,394.2,330.2z M390.9,328.4c-0.1-0.1-0.1-0.3,0-0.4c1.5-1.3,4-6.4,7.2-7.1
	c0.2,0,0.3,0.1,0.4,0.2c0,0.2-0.1,0.3-0.2,0.4c-3,0.7-5.2,5.5-7,7C391.2,328.5,391,328.5,390.9,328.4z M404.7,326.2
	c-0.1-0.1,0-0.3,0.1-0.4c0,0,1.3-0.7,3.1-0.7c0.2,0,0.3,0.1,0.3,0.3c0,0.2-0.1,0.3-0.3,0.3c-0.1,0-1.5,0-2.8,0.6
	C405,326.4,404.8,326.3,404.7,326.2z M457.7,274.7c-3.1-5.9-11.2-6.7-11.2-6.7l0.1-0.7c0.3,0,8.4,0.9,11.7,7.1L457.7,274.7z"/>
<path class="st18" d="M427.6,330.4H278.6c-1,0-2-0.6-2.5-1.4l-37-59.4c-1.2-2,0.2-4.6,2.5-4.6h87.3c1,0,2,0.6,2.5,1.4l36.3,58.3H422
	C425.1,324.7,427.6,327.2,427.6,330.4z"/>
<path class="st2" d="M326.5,266.4l37,59.4c1.2,2-0.2,4.6-2.5,4.6h-87.3c-1,0-2-0.6-2.5-1.4l-37-59.4c-1.2-2,0.2-4.6,2.5-4.6H324
	C324.9,264.9,325.9,265.5,326.5,266.4z"/>
<path class="st19" d="M360.9,330.4h-87.3c-1,0-2-0.6-2.5-1.4l-2.9-4.5c28.3,2.9,62.4,0.1,87.6-11l7.7,12.4
	C364.7,327.8,363.3,330.4,360.9,330.4z"/>
<path class="st3" d="M294.1,265.2h-4.6c-0.2,0-0.3-0.1-0.3-0.3c0-0.2,0.1-0.3,0.3-0.3h4.6c0.2,0,0.3,0.1,0.3,0.3
	C294.5,265.1,294.3,265.2,294.1,265.2z M266.2,321.8l-32.4-52.1c-1.4-2.2,0.2-5.1,2.9-5.1h41.5c0.2,0,0.3,0.1,0.3,0.3
	c0,0.2-0.1,0.3-0.3,0.3h-41.5c-2.1,0-3.4,2.3-2.3,4.1l32.4,52.1c0.1,0.1,0,0.3-0.1,0.4C266.4,322,266.2,322,266.2,321.8z"/>
<path class="st19" d="M299.6,296c1,3-0.7,5.5-3.6,5.5c-3,0-6.3-2.4-7.3-5.5c-1-3,0.7-5.5,3.6-5.5C295.4,290.5,298.6,293,299.6,296z"
	/>
<path class="st7" d="M496.4,335.1c0,2.5-2.1,4.6-4.6,4.6H154.6c-2.5,0-4.6-2.1-4.6-4.6c0-2.5,2.1-4.6,4.6-4.6h337.1
	C494.3,330.4,496.4,332.5,496.4,335.1z M195.5,339.8l-25.8,174.7h-3.9l20.4-174.7H195.5z M450.7,339.8l25.9,174.7h3.9l-20.4-174.7
	H450.7z"/>
<path class="st13" d="M192.9,356l2.7-16.2h-9.3l-2.2,16.2H192.9z M462.2,356l-2.1-16.2h-9.4l2.8,16.2H462.2z"/>
<path class="st2" d="M541.7,482.4c0.3,0.3,0.3,0.9-0.1,1.2c-0.3,0.3-0.9,0.3-1.2-0.1c-0.3-0.3-0.3-0.9,0.1-1.2
	C540.8,482,541.4,482.1,541.7,482.4z M540.8,485.8c0.3,0.3,0.3,0.9-0.1,1.2c-0.3,0.3-0.9,0.3-1.2-0.1c-0.3-0.3-0.3-0.9,0.1-1.2
	C539.9,485.5,540.5,485.5,540.8,485.8z M539.8,489.4c0.3,0.3,0.3,0.9-0.1,1.2c-0.3,0.3-0.9,0.3-1.2-0.1c-0.3-0.3-0.3-0.9,0.1-1.2
	C538.9,489,539.5,489,539.8,489.4z"/>
<path class="st10" d="M513.7,321.8c-5.7-8.1,0-22.9,0.2-23.4l0.7,0.2c-0.1,0.1-5.9,15-0.3,22.9c2.3,3.3,6.5,4.9,12.4,4.6v0.7
	C521.6,326.9,516.6,325.9,513.7,321.8z"/>
<path class="st13" d="M328.9,157.1C328.8,157.1,328.8,157.1,328.9,157.1c-9.9-2.1-14.2-5.6-17.2-8.8c-0.1-0.1-0.1-0.3,0-0.4
	c0.1-0.1,0.3-0.1,0.4,0c2.9,3.1,7.1,6.5,16.8,8.6c0.2,0,0.3,0.2,0.2,0.4C329.1,157,329,157.1,328.9,157.1z M326.1,160.3
	c-9.8-2.5-14-6.2-16.9-9.5c-0.1-0.1-0.1-0.3,0-0.4c0.1-0.1,0.3-0.1,0.4,0c2.8,3.2,6.8,6.7,16.5,9.3c0.2,0,0.3,0.2,0.2,0.4
	C326.4,160.2,326.3,160.3,326.1,160.3z M326.4,164.4c-9.8-2.5-14-6.2-16.9-9.5c-0.1-0.1-0.1-0.3,0-0.4c0.1-0.1,0.3-0.1,0.4,0
	c2.8,3.2,6.8,6.7,16.5,9.3c0.2,0,0.3,0.2,0.2,0.4C326.6,164.3,326.5,164.4,326.4,164.4z M343.2,160.3c-3.8-0.7-6.1-2.9-6.6-6.2
	c0-0.2,0.1-0.4,0.2-0.4c0.2,0,0.3,0,0.3,0.2v0.1c0.7,3.9,3.6,5.2,6.1,5.6c0.2,0,0.3,0.2,0.2,0.3
	C343.5,160.2,343.4,160.3,343.2,160.3z"/>
<path class="st14" d="M295.9,90.9c-0.3,10.5,4.9,19.7,12.9,24.9c3.5,2.3,6.1,6,6.4,10.3v0.1l0.2,8.9c0.1,3.8,3.3,6.7,7.1,6.7
	l7.8-0.2c3.8-0.1,6.8-3.3,6.7-7.1l-0.2-8.9c0-0.8,0.1-1.7,0.1-2.4c0.4-3.4,2.2-6.6,5-8.7c6.8-5.4,11.2-13.8,10.9-23.2
	c-0.4-16-14-28.6-30.1-27.6C308.2,64.3,296.5,76.4,295.9,90.9z"/>
<path class="st20" d="M308.8,115.8c3.5,2.3,6.1,6,6.4,10.3v0.1l0.2,8.9c0.1,3.8,3.3,6.7,7.1,6.7l7.8-0.2c3.8-0.1,6.8-3.3,6.7-7.1
	l-0.2-8.9c0-0.8,0.1-1.7,0.1-2.4c0.4-3.4,2.2-6.6,5-8.7c0.9-0.7,1.7-1.4,2.4-2.2c-1.3,0.2-2.8,0.3-4.1,0.3
	c-19.7,0.6-36-14.9-36.5-34.6c0-2,0.1-4,0.3-6c-4.9,5-8,11.6-8.2,18.9C295.6,101.4,300.8,110.6,308.8,115.8z"/>
<path class="st2" d="M325.2,125.3c0.7-4.5-3.3-13.8-5.6-20.4c-0.8,0.1-1.7,0.1-2.5,0.1c-5.5-0.3-6.6-3.5-5.2-7.1
	c1.1-2.9,3.3-3.5,4.9-2.9c1.5,0.7,2,2.5,2.1,3.9c0.2,1.3,0.7,3.1,1.3,5.1c0.9-0.3,1.2-1.1,1.8-2c1.4-2.8,4.2-2.7,5.6-0.1
	c0.6,0.9,1,1.7,2,2c0.4-2,0.8-3.8,0.9-5.2c0.3-4.3,3-5,5-3.6c0.8,0.4,1.4,1.3,1.9,2.3c1.7,3.5,0.6,6.7-4.9,7.4
	c-0.8,0.1-1.5,0.2-2.3,0.1c-1.5,6.7-4.4,16.1-3.5,20.7C326.4,125.3,324.9,125.3,325.2,125.3z M326.7,102.1c-1.1-1.9-3-2.1-4.1,0.1
	c-0.6,1.1-1,2-2.2,2.4c1.7,5,4.3,11.2,5.3,15.9c0.6-4.9,2.3-11,3.5-16.1C327.9,104.1,327.4,103.2,326.7,102.1z M318,98.9
	c-0.2-1.8-0.8-2.8-1.7-3.2c-1.1-0.4-2.8,0-3.8,2.4c-1.2,3.2-0.3,5.6,4.5,6c0.8,0,1.5,0.1,2.2,0C318.7,102.1,318.1,100.3,318,98.9z
	 M331.1,98.6c-0.1,1.4-0.4,3.2-1,5.3c0.7,0,1.3,0,2.1-0.1c4.9-0.6,5.6-3.1,4.2-6.2c-0.4-0.9-1-1.5-1.5-2
	C333.3,94.5,331.5,95,331.1,98.6z"/>
<path class="st4" d="M315.2,125.3c0.1,1.1,0.3,9.9,0.3,10.5c0.4,3.5,3.4,6.2,7.1,6.1l7.8-0.2c3.6-0.1,6.5-2.9,6.7-6.4
	c0-0.7-0.2-9.3-0.2-10.5L315.2,125.3z"/>
<path class="st5" d="M315.3,128.3l21.5-0.6l0,0.9l-21.5,0.6L315.3,128.3z"/>
<path class="st5" d="M315.4,131.7l21.5-0.6l0,0.9l-21.5,0.6L315.4,131.7z"/>
<path class="st5" d="M315.6,134.9v0.9l21.5-0.6v-0.9L315.6,134.9z"/>
<path class="st9" d="M322.2,141.9c0,1.2,1.1,2.2,2.3,2.2l4-0.1c1.2,0,2.2-1.1,2.2-2.3L322.2,141.9z"/>
<path class="st3" d="M322.4,142.8l7.4-0.2c0,0.4-0.1,0.8-0.2,1.1c0.8-0.4,1.2-1.2,1.2-2.1l-8.5,0.2
	C322.2,142.2,322.3,142.4,322.4,142.8z"/>
<path class="st21" d="M343.1,89.6c1.5-1.8-1.3-6.6-6.2-10.9c-5-4.2-10.2-6.3-11.7-4.5c-1.5,1.8,1.3,6.6,6.2,10.9
	C336.4,89.4,341.6,91.4,343.1,89.6z"/>
<path class="st3" d="M323.2,58.5c-0.2,0-0.3-0.1-0.3-0.3l-0.1-3c0-0.2,0.1-0.3,0.3-0.3c0.1,0,0.3,0.1,0.3,0.3l0.1,3
	C323.5,58.4,323.4,58.5,323.2,58.5z M355.8,71c-0.1-0.1-0.1-0.3,0-0.4l2.1-2.2c0.1-0.1,0.3-0.1,0.4,0c0.1,0.1,0.1,0.3,0,0.4
	l-2.1,2.2C356.1,71.1,355.9,71.1,355.8,71z M291.1,72.7l-2.2-2.1c-0.1-0.1-0.1-0.3,0-0.4c0.1-0.1,0.3-0.1,0.4,0l2.2,2.1
	c0.1,0.1,0.1,0.3,0,0.4C291.4,72.8,291.2,72.8,291.1,72.7z"/>
<path class="st3" d="M323.2,58.5c-0.2,0-0.3-0.1-0.3-0.3l-0.1-3c0-0.2,0.1-0.3,0.3-0.3c0.1,0,0.3,0.1,0.3,0.3l0.1,3
	C323.5,58.4,323.4,58.5,323.2,58.5z"/>
<path class="st12" d="M435.2,115.2c0,0-2.1,4.2,2,9.4l5.4-9.8L435.2,115.2z"/>
<path class="st2" d="M476.2,170.3c-1.4,8-12.1,10.7-20.2,10.7c-8.9,0-14.7-3.3-15.3-8.9c-0.1-1-0.2-2.2-0.4-3.8
	c2.3-0.6,4.9-1,7.7-1.3c0,0,10.7-0.6,22.5,1.9C472.5,169.3,474.3,169.7,476.2,170.3z"/>
<path class="st7" d="M466.4,173.6c-7,3-19.7,2.7-20.2-2.3c-0.4-3.2-0.9-8.4-1.1-11.5c-0.1-1.5-0.2-2.5-0.2-2.5s-1.2,0.2-3,0.1
	c-0.7,0-1.4-0.1-2.3-0.3c-3.8-0.8-8.2-3.3-8-10.9c0-2.3,0.3-4.9,0.9-7.3c0.1-0.7,0.3-1.4,0.4-2.1c0.4-1.7,0.9-3.3,1.4-5
	c2.9-8.6,6.8-15.8,6.8-15.8l26.7,0.8l-1.1,15.5l-0.4,5.6l0.1,0.3c0,0,0.3,2.3,0.7,5.7c0.2,1.8,0.4,3.9,0.8,6
	c0.9,6.5,2.2,14.1,2.9,18.3C471.3,170.5,469.4,172.4,466.4,173.6z"/>
<path class="st13" d="M466.4,173.6c-0.7-0.8-1.1-1.8-1.3-2.8c-0.3-1.7-0.2-3.4-0.1-5.1l0.4-5.9c0.2-2.5-2.4-4.4-4.7-3.3
	c-2.4,1.2-5,2.3-7.6,3c-2,0.4-4,0.6-6,0.4c-0.4,0-1.1-0.1-1.9-0.2c-0.1-1.5-0.2-2.5-0.2-2.5s-1.2,0.2-3,0.1c-0.7,0-1.4-0.1-2.3-0.3
	c-0.2-1.3,1.5-2.4,2.6-2.9c1.7-0.7,3.5-0.7,5.3-0.9c6.2-0.6,12-3.1,16.8-7.1c1-0.8,1.9-1.8,3-2.3c0.2,1.8,0.4,3.9,0.8,6
	c0.9,6.5,2.2,14.1,2.9,18.3C471.3,170.5,469.4,172.4,466.4,173.6z"/>
<path class="st11" d="M467.3,132.7c2.4-2.8-2-1.9-1-5.5c-2.9-0.8-3.8-1.8-3.8-2.9c0-2.1,3.4-4.2,3.4-4.2c-17,3.9-24.6,4-29.6-1.4
	c-0.9-1-1.5-2.5-1.7-4.3c-0.2-4.4,3-10.1,13.7-11.3c14.9-1.7,17.4,5.6,17.4,5.6c12.5-3.1,11.2,8.6,8.7,17c-0.8,3-1.8,5.4-2.3,6.8
	c-0.2,0.7-0.4,1-0.4,1L467.3,132.7"/>
<path class="st7" d="M466.6,128.6c0.7-1.4,1.5-2.5,3-2.7c1.4-0.1,2.9,0.7,3.6,1.9s1,2.7,0.7,4.1c-0.3,1.4-1.1,2.7-2.1,3.6
	c-1.4,1.5-4.7,2.8-6.2,1.1C464.5,135.5,465.4,131.5,466.6,128.6z"/>
<path class="st7" d="M444.7,127.5c-0.2,2.4-1.4,4.9-3.2,6.3c-0.8,0.7-2.3,1.5-2.3,3.2c0,0.8,0.6,1.4,1.2,1.5c0.6,0.2,1.3,0,1.9-0.1"
	/>
<path class="st7" d="M442.1,145.7c-3.5,3.9-6,1-7-0.9c-0.2-0.4,0.2-0.9,0.7-0.7c1.9,0.8,3.9,1,5.9,0.8
	C442.1,144.7,442.4,145.3,442.1,145.7z"/>
<path class="st12" d="M474.6,125.7c-1-1.5-1-3.3-1.7-10.6c-0.1-1.7-0.4-3.6-1.8-4.6c-0.9-0.7-2.1-0.8-3.3-0.6
	c-1.1,0.2-2.1,0.8-3.2,1.2c0.8-0.9,0.6-2.4-0.3-3.3c-0.9-0.9-2.1-1.3-3.3-1.5c-5.2-1.3-10.6-1.4-15.7,0.2c-3.8,1.2-7.3,3.5-9.8,6.7
	c-0.2,0.3-0.7,0.8-1,1.1c-0.2-4.4,3-10.1,13.7-11.3c14.9-1.7,17.4,5.6,17.4,5.6C478.3,105.6,477,117.3,474.6,125.7z"/>
<path class="st12" d="M466.2,127.6h-0.1c-2.3-0.6-3.6-1.4-4-2.9c-0.6-2.4,2.5-5,2.8-5.1c0.2-0.2,0.6-0.1,0.8,0.1s0.1,0.6-0.1,0.8
	c-0.8,0.7-2.7,2.5-2.3,4c0.2,1.1,1.9,1.7,3.2,2c0.3,0.1,0.4,0.3,0.4,0.7C466.6,127.4,466.4,127.6,466.2,127.6z"/>
<path class="st4" d="M301,210.5v18.2c0,1.5-1.2,2.7-2.6,2.7h-7.7c-1.5,0-2.6-1.2-2.6-2.7v-18.2c0-1.5,1.2-2.7,2.6-2.7h7.7
	C299.8,207.7,301,208.9,301,210.5z"/>
<path class="st7" d="M321.5,220.4v8.2c0,1.5-1.2,2.7-2.6,2.7h-7.7c-1.5,0-2.6-1.2-2.6-2.7v-8.2c0-1.5,1.2-2.7,2.6-2.7h7.7
	C320.3,217.8,321.5,219,321.5,220.4z M221,220.4v8.2c0,1.5-1.2,2.7-2.6,2.7h-7.7c-1.5,0-2.6-1.2-2.6-2.7v-8.2c0-1.5,1.2-2.7,2.6-2.7
	h7.7C219.8,217.8,221,219,221,220.4z"/>
<path class="st0" d="M202.3,205.9v22.8c0,1.5-1.2,2.7-2.6,2.7h-7.7c-1.5,0-2.6-1.2-2.6-2.7v-22.8c0-1.5,1.2-2.7,2.6-2.7h7.7
	C201.1,203.3,202.3,204.5,202.3,205.9z"/>
<path class="st22" d="M281.1,223.2v5.5c0,1.5-1.2,2.7-2.6,2.7h-7.7c-1.5,0-2.6-1.2-2.6-2.7v-5.5c0-1.5,1.2-2.7,2.6-2.7h7.7
	C279.9,220.4,281.1,221.6,281.1,223.2z"/>
<path class="st23" d="M261.2,201.7v26.8c0,1.5-1.2,2.7-2.7,2.7h-7.7c-1.5,0-2.6-1.2-2.6-2.7v-26.8c0-1.5,1.2-2.7,2.6-2.7h7.7
	C260,199.1,261.2,200.3,261.2,201.7z"/>
<path class="st24" d="M241.4,216.9v11.8c0,1.5-1.2,2.7-2.6,2.7H231c-1.5,0-2.6-1.2-2.6-2.7v-11.8c0-1.5,1.2-2.7,2.6-2.7h7.7
	C240.2,214.1,241.4,215.3,241.4,216.9z"/>
<path class="st0" d="M283.5,123.8l-6.3-1.7c-0.8-4.3-2.4-8.4-4.6-12l3.5-6.1c0.4-0.8,0.3-1.9-0.3-2.5l-5.9-5.9
	c-0.7-0.7-1.7-0.8-2.4-0.3l-5.6,3.3c-3.5-2.4-7.5-4.2-11.7-5.3l-1.8-6.7c-0.2-0.9-1-1.5-2-1.5h-8.3c-0.9,0-1.8,0.7-2,1.5l-1.7,6.3
	c-4.3,0.8-8.4,2.4-12,4.6l-6.1-3.5c-0.8-0.4-1.8-0.3-2.4,0.3l-5.9,5.9c-0.7,0.7-0.8,1.7-0.3,2.4l3.3,5.6c-2.4,3.5-4.2,7.5-5.3,11.7
	l-6.7,1.8c-0.9,0.2-1.5,1-1.5,2v8.3c0,0.9,0.7,1.8,1.5,2l6.3,1.7c0.8,4.3,2.4,8.4,4.6,12l-3.5,6.1c-0.4,0.8-0.3,1.8,0.3,2.4l5.9,5.9
	c0.7,0.7,1.7,0.8,2.4,0.3l5.6-3.3c3.5,2.4,7.5,4.2,11.8,5.3l1.8,6.7c0.2,0.9,1,1.5,2,1.5h8.3c0.9,0,1.8-0.7,2-1.5l1.7-6.3
	c4.3-0.8,8.4-2.4,12-4.6l6.1,3.5c0.8,0.4,1.8,0.3,2.4-0.3l5.9-5.9c0.7-0.7,0.8-1.7,0.3-2.4l-3.3-5.6c2.4-3.5,4.2-7.5,5.3-11.7
	l6.7-1.8c0.9-0.2,1.5-1,1.5-2v-8.3C285.1,124.9,284.5,124.1,283.5,123.8z M241.4,145.1c-8.9,0-16.2-7.3-16.2-16.2
	s7.3-16.2,16.2-16.2s16.2,7.3,16.2,16.2C257.6,137.9,250.3,145.1,241.4,145.1z"/>
<path class="st19" d="M241.4,105.1c-13.1,0-23.9,10.7-23.9,23.9c0,13.1,10.7,23.9,23.9,23.9c13.1,0,23.8-10.7,23.8-23.9
	C265.2,115.8,254.5,105.1,241.4,105.1z M241.4,145.1c-8.9,0-16.2-7.3-16.2-16.2c0-8.9,7.3-16.2,16.2-16.2s16.2,7.3,16.2,16.2
	C257.6,137.9,250.3,145.1,241.4,145.1z"/>
<path class="st7" d="M21.2,305c0.1,0.6,0.2,1,0.3,1.5c0.7,3.3,1.9,5.9,1.9,5.9c0.8,2.9,2.8,2.7,2.4-0.4l-0.1-6l3.5,8.3
	c1.8,4.2,4.1,3.1,3.1-0.3l-1.7-7.2l5.3,7.7c1.7,2.5,4.3,2.2,3-0.9l-3.6-10.3l4.7,6.4c2.1,2.5,4,1.8,3.1-1l-5-12.3
	c1.9-0.2,5.3-1,5.3-1c-0.7-2-3.3-3.9-5.7-5.5c-0.3-0.2-0.4-1.3-0.7-2.7c-0.3-1.9-0.6-4.1-0.8-5.2L18,287.2
	C21.8,295.2,18.3,294.5,21.2,305z"/>
<path class="st8" d="M21.2,305c0.2-0.4,0.2-0.9,0.3-1.3c0.2-2.2-1-4.4-1-6.6c0-2.2,1.3-4.3,3-5.6c1.8-1.3,4-2,6.2-2.3
	c1.8-0.2,3.6-0.2,5.4-0.7c0.8-0.2,1.4-0.6,2-0.9c-0.3-1.9-0.6-4.1-0.8-5.2L18,287.5C21.8,295.2,18.3,294.5,21.2,305z"/>
<path class="st4" d="M42.6,158.4c0,0-27.9,20.9-41,53.2c-6.7,16.8,9.1,62.1,13.5,74.1c0.7,1.7,2.4,2.7,4.2,2.3l17.7-3.3
	c2-0.3,3.3-2.2,3-4.2l-8.3-52.7c0,0,21.8-27.2,22.5-39.2C55,179.3,42.6,158.4,42.6,158.4z"/>
<path class="st5" d="M34.3,246.9l-3-19c0-0.1,0-0.2,0.1-0.2l9.6-13.1c0.1-0.1,0.3-0.2,0.4-0.1c0.1,0.1,0.2,0.3,0.1,0.4l-9.6,13
	l3,18.9c0,0.2-0.1,0.3-0.2,0.3C34.6,247.2,34.4,247.1,34.3,246.9z"/>
<path class="st5" d="M11.8,228c-0.1-0.2,0-0.3,0.2-0.4c11.4-4.4,19.8,0,19.9,0c0.1,0.1,0.2,0.3,0.1,0.4c-0.1,0.1-0.3,0.2-0.4,0.1
	c-0.1,0-8.2-4.3-19.3,0C12.1,228.2,11.9,228.1,11.8,228z M51.6,198l-0.7-0.2c5.5-13.4-2.2-26.8-2.3-27l0.6-0.3
	C49.2,170.6,57.2,184.4,51.6,198z"/>
<path class="st3" d="M458.1,80.1l-2.8-4.1h-23.1c-2.5,0-4.6-2.1-4.6-4.6v-24c0-2.5,2.1-4.6,4.6-4.6h54.2c2.5,0,4.6,2.1,4.6,4.6v24
	c0,2.5-2.1,4.6-4.6,4.6h-23.8l-2.8,4.1C459.4,80.8,458.6,80.8,458.1,80.1z M432.3,43.6c-2.2,0-4,1.8-4,4v24c0,2.2,1.8,4,4,4h23.3
	c0.1,0,0.2,0,0.2,0.1l2.9,4.2c0.1,0.2,0.4,0.2,0.6,0l2.9-4.2c0.1-0.1,0.1-0.1,0.2-0.1h24.1c2.2,0,4-1.8,4-4v-24c0-2.2-1.8-4-4-4
	H432.3z"/>
<path class="st7" d="M448.5,58.9c0,2.8-2.2,5-5,5c-2.8,0-5-2.2-5-5c0-2.8,2.2-5,5-5C446.3,53.9,448.5,56.2,448.5,58.9z M464.4,58.9
	c0,2.8-2.2,5-5,5c-2.8,0-5-2.2-5-5c0-2.8,2.2-5,5-5C462.1,53.9,464.4,56.2,464.4,58.9z M480.2,58.9c0,2.8-2.2,5-5,5
	c-2.8,0-5-2.2-5-5c0-2.8,2.2-5,5-5C478,53.9,480.2,56.2,480.2,58.9z"/>
<path class="st22" d="M146.8,48.5v13.3c0,1.8-1.4,3.2-3.2,3.2h-13.2c-1.8,0-3.2-1.4-3.2-3.2V48.5c0-1.8,1.4-3.2,3.2-3.2h13.2
	C145.4,45.3,146.8,46.8,146.8,48.5z M195.1,49.1h-33.7c-0.9,0-1.5,0.7-1.5,1.5s0.7,1.5,1.5,1.5h33.7c0.9,0,1.5-0.7,1.5-1.5
	C196.6,49.9,196,49.1,195.1,49.1z M204.4,50.7c0,0.9,0.7,1.5,1.5,1.5h56c0.9,0,1.5-0.7,1.5-1.5c0-0.9-0.7-1.5-1.5-1.5h-56
	C205.1,49.1,204.4,49.9,204.4,50.7z"/>
<path class="st0" d="M285.2,58.1h-64.3c-0.2,0-0.3-0.1-0.3-0.3c0-0.2,0.1-0.3,0.3-0.3h64.3c0.2,0,0.3,0.1,0.3,0.3
	C285.5,58,285.3,58.1,285.2,58.1z M197.5,58.1h-15.5c-0.2,0-0.3-0.1-0.3-0.3c0-0.2,0.1-0.3,0.3-0.3h15.5c0.2,0,0.3,0.1,0.3,0.3
	C197.9,58,197.8,58.1,197.5,58.1z M251.9,61.5h-22.1c-0.2,0-0.3-0.1-0.3-0.3c0-0.2,0.1-0.3,0.3-0.3h22.1c0.2,0,0.3,0.1,0.3,0.3
	C252.2,61.3,252.1,61.5,251.9,61.5z M211.9,61.5h-51.2c-0.2,0-0.3-0.1-0.3-0.3c0-0.2,0.1-0.3,0.3-0.3h51.2c0.2,0,0.3,0.1,0.3,0.3
	C212.2,61.3,212,61.5,211.9,61.5z"/>
<path class="st23" d="M146.8,76.9v13.3c0,1.8-1.4,3.2-3.2,3.2h-13.2c-1.8,0-3.2-1.4-3.2-3.2V76.9c0-1.8,1.4-3.2,3.2-3.2h13.2
	C145.4,73.8,146.8,75.3,146.8,76.9z M173.5,77.6h-12c-0.9,0-1.5,0.7-1.5,1.5c0,0.9,0.7,1.5,1.5,1.5h12c0.9,0,1.5-0.7,1.5-1.5
	C175.1,78.2,174.3,77.6,173.5,77.6z M182.8,79.1c0,0.9,0.7,1.5,1.5,1.5h29.4c0.9,0,1.5-0.7,1.5-1.5c0-0.9-0.7-1.5-1.5-1.5h-29.4
	C183.5,77.6,182.8,78.2,182.8,79.1z"/>
<path class="st0" d="M215.3,86.6h-54.8c-0.2,0-0.3-0.1-0.3-0.3c0-0.2,0.1-0.3,0.3-0.3h54.8c0.2,0,0.3,0.1,0.3,0.3
	C215.6,86.5,215.5,86.6,215.3,86.6z M207.8,90h-14.2c-0.2,0-0.3-0.1-0.3-0.3s0.1-0.3,0.3-0.3h14.2c0.2,0,0.3,0.1,0.3,0.3
	S208,90,207.8,90z M190.2,90h-29.7c-0.2,0-0.3-0.1-0.3-0.3s0.1-0.3,0.3-0.3h29.7c0.2,0,0.3,0.1,0.3,0.3S190.5,90,190.2,90z"/>
<path class="st2" d="M141.2,52l-4.5,6.2c-0.1,0.2-0.4,0.2-0.6,0l-2.6-4.1c-0.2-0.3,0.1-0.7,0.4-0.6l2.5,1.3l4.3-3.4
	C141.1,51.2,141.4,51.6,141.2,52z M141.2,79.7l-4.5,6.2c-0.1,0.2-0.4,0.2-0.6,0l-2.6-4.1c-0.2-0.3,0.1-0.7,0.4-0.6l2.5,1.3l4.3-3.4
	C141.1,79,141.4,79.5,141.2,79.7z"/>
<path class="st7" d="M178.6,118.2c-0.1,5.3-1.2,8-2.5,9.2c-1.3,1.4-2.8,1.2-2.8,1.2v2.5c-1.7,0-3.5-0.2-6-0.8
	c-6-1.3-11.2-0.9-12.1-1.4v-0.6c0.3-3.9,0.6-7.8,0.4-9.4c-0.1-3.3,9.2-27.1,11.8-26.3c2.9,0.8-1.5,15.8-1.5,15.8
	S178.8,107.2,178.6,118.2z"/>
<path class="st7" d="M178,120.8l-0.2,2.1c-0.1,1.4-1.7,2.3-3,1.7l0.1-9.7"/>
<path class="st7" d="M159.2,124.4l2.1-7.7l7.7-9.4c0.7-0.2,1.3,0.1,2,0.8c0.8,1,1,2.4,0.6,3.6l-2,6.1c0,0,5.4,2.5,3.5,9.4"/>
<path class="st15" d="M425.4,214.8c-3.9-15.6,1.5-32.4,1.5-32.6l0.7,0.2c0,0.2-5.3,16.8-1.5,32.1L425.4,214.8z"/>
<path class="st3" d="M314,211c-0.1,0-0.2,0-0.2-0.1c-0.1-0.2-12.7-17.8-19.7-17.8c-3.3,0-6.4,4.2-9.4,8.3c-3.1,4.2-6.3,8.5-9.8,8.5
	h-0.2c-4.3-0.2-7.3-5.9-10.3-11.2c-2.9-5.2-5.7-10.6-9.7-10.8c-3.9-0.2-7.6,4.4-11.4,8.9c-2.9,3.5-5.6,6.8-8.4,8.1
	c-4.6,2-15.5,3.9-20.5,2.3c-6.7-2-19.3-16.9-19.9-17.6c-0.1-0.1-0.1-0.3,0-0.4c0.1-0.1,0.3-0.1,0.4,0c0.1,0.1,12.9,15.4,19.5,17.3
	c4.7,1.4,15.6-0.4,20.1-2.3c2.6-1.1,5.3-4.4,8.2-7.8c3.8-4.5,7.5-9.2,11.6-9.2h0.3c4.3,0.2,7.3,5.9,10.3,11.2
	c2.9,5.2,5.7,10.6,9.7,10.8c3.3,0.2,6.5-4.1,9.5-8.3c3.1-4.2,6.3-8.5,9.9-8.5c7.4,0.1,19.7,17.3,20.2,18.1c0.1,0.1,0.1,0.3-0.1,0.4
	C314.2,210.9,314.1,211,314,211z"/>
</svg>
