<?xml version="1.0" encoding="utf-8"?>
<!-- Generator: Adobe Illustrator 24.3.0, SVG Export Plug-In . SVG Version: 6.00 Build 0)  -->
<svg version="1.1" id="Layer_1" xmlns="http://www.w3.org/2000/svg" xmlns:xlink="http://www.w3.org/1999/xlink" x="0px" y="0px"
	 viewBox="0 0 512 512" style="enable-background:new 0 0 512 512;" xml:space="preserve">
<style type="text/css">
	.st0{fill:url(#SVGID_1_);}
	.st1{fill:url(#SVGID_2_);}
	.st2{fill:#FF6E00;}
	.st3{fill:#26264F;}
	.st4{fill:url(#SVGID_3_);}
	.st5{fill:url(#SVGID_4_);}
	.st6{fill:url(#SVGID_5_);}
	.st7{fill:url(#SVGID_6_);}
	.st8{fill:url(#SVGID_7_);}
	.st9{fill:url(#SVGID_8_);}
	.st10{fill:url(#SVGID_9_);}
	.st11{fill:url(#SVGID_10_);}
	.st12{fill:url(#SVGID_11_);}
	.st13{fill:url(#SVGID_12_);}
	.st14{fill:url(#SVGID_13_);}
	.st15{fill:url(#SVGID_14_);}
	.st16{fill:url(#SVGID_15_);}
	.st17{fill:url(#SVGID_16_);}
	.st18{fill:url(#SVGID_17_);}
	.st19{fill:url(#SVGID_18_);}
	.st20{fill:url(#SVGID_19_);}
	.st21{fill:url(#SVGID_20_);}
	.st22{fill:#FFFFFF;}
</style>
<g id="Background">
</g>
<g id="Illustration">
	<g>
		
			<linearGradient id="SVGID_1_" gradientUnits="userSpaceOnUse" x1="451.4531" y1="362.9016" x2="33.8283" y2="1000.686" gradientTransform="matrix(1 0 0 1 0 -204.6)">
			<stop  offset="0" style="stop-color:#FDF53F"/>
			<stop  offset="1" style="stop-color:#D93C65"/>
		</linearGradient>
		<path class="st0" d="M414.3,476.5H217.6V254c0-17.9,14.5-32.4,32.4-32.4h143.9c17.9,0,32.4,14.5,32.4,32.4v210.8
			C426,471.2,420.8,476.5,414.3,476.5z"/>
		
			<linearGradient id="SVGID_2_" gradientUnits="userSpaceOnUse" x1="278.6772" y1="474.5475" x2="-11.7827" y2="918.1296" gradientTransform="matrix(1 0 0 1 0 -204.6)">
			<stop  offset="0" style="stop-color:#53D8FF"/>
			<stop  offset="1" style="stop-color:#3840F7"/>
		</linearGradient>
		<path class="st1" d="M279.9,476.5H93.4V354.1c0-17.9,14.5-32.4,32.4-32.4h121.7c17.9,0,32.4,14.5,32.4,32.4L279.9,476.5
			L279.9,476.5z"/>
		<g>
			<g>
				<path class="st2" d="M251.3,49.4c24.5-7.2,47.8-5.3,59.5-2.2c13.8,3.6,18.3,6.4,30.5,7.8c10.9,1.2,39.6-7.6,35.9-0.9
					c-4.8,8.6-3.5,42.3,3.6,56.3c1,2.1-33.1,7.2-53.7,3.4c-28.5-5.2-37.6-14-56.3-10c-8.6,1.9-15.2,5.5-19.4,8.3
					C253.3,91.2,249.4,70.2,251.3,49.4z"/>
				<path class="st3" d="M251.5,328.6c-0.6,0-1-0.4-1-1V42.7c0-0.6,0.4-1,1-1s1,0.4,1,1v285C252.6,328.2,252.1,328.6,251.5,328.6z"
					/>
			</g>
			<g>
				
					<linearGradient id="SVGID_3_" gradientUnits="userSpaceOnUse" x1="-1092.9982" y1="526.8112" x2="-1073.3787" y2="526.8112" gradientTransform="matrix(-1 0 0 1 -944.3383 -204.6)">
					<stop  offset="0" style="stop-color:#2B3582"/>
					<stop  offset="1" style="stop-color:#150E42"/>
				</linearGradient>
				<path class="st4" d="M129,328.8c0-0.2,0-0.3,0.1-0.4c2.2-8.9,11.4-13.4,11.4-13.4l4.4,0.3c2.5,7.8,4.2,11.6,3.7,13.8
					c0,0.1,0,0.2-0.1,0.2C144.9,329.5,137.5,329.8,129,328.8z"/>
				
					<linearGradient id="SVGID_4_" gradientUnits="userSpaceOnUse" x1="-1043.595" y1="502.8669" x2="-1115.8219" y2="559.5797" gradientTransform="matrix(-1 0 0 1 -944.3383 -204.6)">
					<stop  offset="0" style="stop-color:#CB236D"/>
					<stop  offset="0.9001" style="stop-color:#59246D"/>
					<stop  offset="1" style="stop-color:#4C246D"/>
				</linearGradient>
				<path class="st5" d="M148.7,329.2c-0.2,0.7-0.7,1.3-1.4,1.4c-5.2,1-13.4,0.2-16.8-0.3c-0.7-0.1-1.3-0.8-1.3-1.6
					C137.5,329.8,144.9,329.5,148.7,329.2z"/>
				
					<linearGradient id="SVGID_5_" gradientUnits="userSpaceOnUse" x1="1953.9913" y1="503.7484" x2="1950.071" y2="537.9634" gradientTransform="matrix(1 0 0 1 -1811.8352 -204.6)">
					<stop  offset="0" style="stop-color:#F9B776"/>
					<stop  offset="1" style="stop-color:#F47960"/>
				</linearGradient>
				<path class="st6" d="M136.8,308l1.9,9.2c0.2,0.7,0.7,1.2,1.3,1.3c0.8,0.1,1.9,0.2,3-0.1c1-0.2,1.6-1.1,1.6-2.2l-1.3-8.3
					L136.8,308L136.8,308z"/>
				
					<linearGradient id="SVGID_6_" gradientUnits="userSpaceOnUse" x1="2020.5703" y1="519.7318" x2="1950.7244" y2="574.575" gradientTransform="matrix(1 0 0 1 -1811.8352 -204.6)">
					<stop  offset="0" style="stop-color:#CB236D"/>
					<stop  offset="0.9001" style="stop-color:#59246D"/>
					<stop  offset="1" style="stop-color:#4C246D"/>
				</linearGradient>
				<path class="st7" d="M185.9,329.2c-4.7-0.2-7.2-0.7-8.4-1.2c0,0.4,0,0.9,0,1.5c0,0.5,0.4,0.9,0.9,0.9l25.8-0.2
					c0.8,0,1.3-0.9,0.9-1.7C201.7,328.7,193.1,329.3,185.9,329.2z"/>
				
					<linearGradient id="SVGID_7_" gradientUnits="userSpaceOnUse" x1="1989.3845" y1="527.0244" x2="2017.0209" y2="527.0244" gradientTransform="matrix(1 0 0 1 -1811.8352 -204.6)">
					<stop  offset="0" style="stop-color:#2B3582"/>
					<stop  offset="1" style="stop-color:#150E42"/>
				</linearGradient>
				<path class="st8" d="M205.2,328.4c0-0.1-0.1-0.2-0.2-0.2c-2.2-3.2-8.1-9.5-19.6-12.3l-5.5-0.2c0,0-2.5,4.2-2.5,12.1
					c1.3,0.5,3.6,1,8.4,1.2C193.2,329.3,201.8,328.7,205.2,328.4z"/>
				
					<linearGradient id="SVGID_8_" gradientUnits="userSpaceOnUse" x1="1995.3627" y1="508.134" x2="1991.6953" y2="540.14" gradientTransform="matrix(1 0 0 1 -1811.8352 -204.6)">
					<stop  offset="0" style="stop-color:#F9B776"/>
					<stop  offset="1" style="stop-color:#F47960"/>
				</linearGradient>
				<path class="st9" d="M179,307.4c0.1,0.4,0.8,6.6,1.1,9c0.1,0.6,0.4,1,1,1c0.9,0.2,2.5,0.2,3.8-0.1c0.7-0.2,1.3-0.9,1.3-1.6v-9.7
					L179,307.4z"/>
				<path d="M140.6,186.3c0,0-8.8,78.2-4,127.1c0,0,5.9,0,8.8-1c0,0,9.1-76.5,12.1-98.4c0.2-0.8,1.3-0.9,1.5-0.1
					c3.6,18.4,18,90.6,19.6,97.4c0,0,4.9,1.9,8.8,0c0,0-7.8-104.6-13.7-123.2L140.6,186.3z"/>
				<path class="st2" d="M122.9,95.4c0,0,29.5-4,56.6,0.1c6.6,1,11.3,7.2,10.4,13.8l-2.5,18.3c0,0-7.8,42-13.7,60.6
					c0,0-22.5,4-33.3-1.9c0,0-8.8-52.8-13.7-60.6C126.9,125.8,121.9,105.2,122.9,95.4z"/>
				
					<linearGradient id="SVGID_9_" gradientUnits="userSpaceOnUse" x1="145.0361" y1="286.9003" x2="162.6098" y2="286.9003" gradientTransform="matrix(1 0 0 1 0 -204.6)">
					<stop  offset="0" style="stop-color:#F9B776"/>
					<stop  offset="1" style="stop-color:#F47960"/>
				</linearGradient>
				<path class="st10" d="M148.7,68.7L145,93.8c0,0,10.3,4.7,17.6-0.2L161.1,76L148.7,68.7z"/>
				<g>
					
						<linearGradient id="SVGID_10_" gradientUnits="userSpaceOnUse" x1="1356.8348" y1="-454.2658" x2="1387.6329" y2="-461.7616" gradientTransform="matrix(0.8757 -0.4828 0.4828 0.8757 650.5044 -222.1855)">
						<stop  offset="0" style="stop-color:#F9B776"/>
						<stop  offset="1" style="stop-color:#F47960"/>
					</linearGradient>
					<path class="st11" d="M164.7,52.5c0.2,0.2,2.3,12.8,3.7,20.7c0.6,3.3-1.8,6.3-5.1,6.5l-3,0.2c-5.5,0.3-10.3-3.6-11.2-9
						l-2.2-14.1C147,56.5,161.8,47.3,164.7,52.5z"/>
					<path d="M143.7,56.5c-1.1-1.4-2.2-3.7,0.3-6.2c2.5-2.5,5.3-1.9,7.1-1c0.8,0.3,1.7,0.2,2.3-0.4c0.3-0.3,0.6-0.4,1.2-0.4
						c1,0.2,2-0.6,2.1-1.6c0.2-1.8,1.1-3.9,4.3-4.5c5.8-1.1,8.6,4.7,8.5,8.7c-0.2,4-6.4,4.9-10,4.2c-2.7-0.4-4.9,1.8-5.9,3
						c-0.4,0.4-0.5,1-0.4,1.6l0.9,4c-0.6,1.2-1.3,2.5-2.2,3.5c-0.7,0.7-1.3,1.1-2.1,1.3c-1-2-4-2.3-5.4-2.4c-0.5,0-1-0.3-1.4-0.7
						c-1-1.2-2.8-4,0.4-6.5C144.3,58.5,144.3,57.3,143.7,56.5z"/>
					
						<linearGradient id="SVGID_11_" gradientUnits="userSpaceOnUse" x1="1355.7302" y1="-458.8834" x2="1386.5288" y2="-466.3793" gradientTransform="matrix(0.8757 -0.4828 0.4828 0.8757 650.5044 -222.1855)">
						<stop  offset="0" style="stop-color:#F9B776"/>
						<stop  offset="1" style="stop-color:#F47960"/>
					</linearGradient>
					<path class="st12" d="M150.9,72.9c0,0-0.2-7.1-3-7.8c-2.8-0.7-5.9,1.4-3.5,5.7C147.5,76.1,150.9,72.9,150.9,72.9z"/>
				</g>
				<path class="st2" d="M139.7,129.2c0,0-84-22.8-42.3-81.7l2.8,4c0,0-12.6,39.8,29,43.6C129.3,95.2,140,122.9,139.7,129.2z"/>
				
					<linearGradient id="SVGID_12_" gradientUnits="userSpaceOnUse" x1="107.7178" y1="234.6365" x2="97.7899" y2="267.2566" gradientTransform="matrix(1 0 0 1 0 -204.6)">
					<stop  offset="0" style="stop-color:#F9B776"/>
					<stop  offset="1" style="stop-color:#F47960"/>
				</linearGradient>
				<path class="st13" d="M97.1,47.9c0,0-0.9-11.4,4.7-12.3c5.7-1,7.6,4.7,8.6,7.5c0.9,2.8-8.5,8.5-10.3,8.5
					C98.1,51.6,97.1,47.9,97.1,47.9z"/>
				<path class="st2" d="M184.8,135.4c0,0,10.9,42.9,65.3-4.4l-4.2-2.5c0,0-47.9,33.9-56.3-24C189.7,104.6,184.8,130.2,184.8,135.4z
					"/>
				
					<linearGradient id="SVGID_13_" gradientUnits="userSpaceOnUse" x1="2994.0613" y1="659.3804" x2="2984.1338" y2="691.9995" gradientTransform="matrix(-6.670000e-02 -0.9978 -0.9978 6.670000e-02 1124.592 3063.0913)">
					<stop  offset="0" style="stop-color:#F9B776"/>
					<stop  offset="1" style="stop-color:#F47960"/>
				</linearGradient>
				<path class="st14" d="M249.9,131.4c0,0,11.4,0.2,12-5.5c0.5-5.7-5.3-7.2-8.1-8c-2.9-0.7-7.9,9-7.8,10.9
					C246.1,130.8,249.9,131.4,249.9,131.4z"/>
			</g>
		</g>
		<g>
			
				<linearGradient id="SVGID_14_" gradientUnits="userSpaceOnUse" x1="353.9989" y1="447.3777" x2="400.6621" y2="383.4587" gradientTransform="matrix(1 0 0 1 0 -204.6)">
				<stop  offset="0" style="stop-color:#FDF53F"/>
				<stop  offset="1" style="stop-color:#D93C65"/>
			</linearGradient>
			<polygon class="st15" points="389.8,213 385,213 377.6,191.2 398.3,189.9 			"/>
			
				<linearGradient id="SVGID_15_" gradientUnits="userSpaceOnUse" x1="384.6749" y1="399.0626" x2="388.1362" y2="339.4052" gradientTransform="matrix(1 0 0 1 0 -204.6)">
				<stop  offset="0" style="stop-color:#FDF53F"/>
				<stop  offset="1" style="stop-color:#D93C65"/>
			</linearGradient>
			<path class="st16" d="M365,150.5c0,1.9,0,38,18.3,43.9c18.3,5.9,26.6-24.7,26-46.5L365,150.5z"/>
			
				<linearGradient id="SVGID_16_" gradientUnits="userSpaceOnUse" x1="387.9318" y1="415.5117" x2="386.19" y2="444.0342" gradientTransform="matrix(1 0 0 1 0 -204.6)">
				<stop  offset="0" style="stop-color:#FDF53F"/>
				<stop  offset="1" style="stop-color:#D93C65"/>
			</linearGradient>
			<rect x="372.8" y="216.3" class="st17" width="29.4" height="3.6"/>
			
				<linearGradient id="SVGID_17_" gradientUnits="userSpaceOnUse" x1="405.9978" y1="400.647" x2="370.113" y2="439.8385" gradientTransform="matrix(1 0 0 1 0 -204.6)">
				<stop  offset="0" style="stop-color:#FDF53F"/>
				<stop  offset="1" style="stop-color:#D93C65"/>
			</linearGradient>
			<polygon class="st18" points="402.1,216.3 372.8,216.3 380.1,212.3 394.7,212.3 			"/>
			
				<linearGradient id="SVGID_18_" gradientUnits="userSpaceOnUse" x1="387.6112" y1="363.5245" x2="388.6292" y2="337.871" gradientTransform="matrix(1 0 0 1 0 -204.6)">
				<stop  offset="0" style="stop-color:#FDF53F"/>
				<stop  offset="1" style="stop-color:#D93C65"/>
			</linearGradient>
			<path class="st19" d="M362.9,145.3c-1.6,0.1-2.9,1.3-2.9,2.7v2.8c0,1.3,1.3,2.4,2.9,2.3l50.3-2.8c1.6-0.1,2.9-1.3,2.9-2.7v-3.2
				c0-1.3-1.3-2.4-2.9-2.3L362.9,145.3z"/>
			
				<linearGradient id="SVGID_19_" gradientUnits="userSpaceOnUse" x1="417.2221" y1="415.3724" x2="398.8974" y2="374.0397" gradientTransform="matrix(1 0 0 1 0 -204.6)">
				<stop  offset="0" style="stop-color:#FDF53F"/>
				<stop  offset="1" style="stop-color:#D93C65"/>
			</linearGradient>
			<path class="st20" d="M396.4,197.3c-1.2,0-2.2-0.7-2.3-1.7c-0.2-1,0.8-2.1,2.1-2.2c0.3,0,17.1-1.8,18.8-11
				c0.3-1.6,0.3-3.6-1.5-4.5c-1.4-0.7-3.6-0.4-5.3,0.5c-0.9,0.6-1.9,1.6-1.6,3c0.3,1-0.4,2.2-1.7,2.4s-2.5-0.4-2.8-1.5
				c-0.8-2.8,0.4-5.4,3.3-7.2c3.1-1.9,7.4-2.2,10.4-0.7c1.7,0.9,4.6,3.2,3.6,8.4c-0.9,5.2-5.2,9.3-12.5,12
				c-5.3,1.9-10.2,2.4-10.3,2.4C396.6,197.3,396.4,197.3,396.4,197.3z"/>
			
				<linearGradient id="SVGID_20_" gradientUnits="userSpaceOnUse" x1="356.0093" y1="403.1828" x2="378.8136" y2="381.6003" gradientTransform="matrix(1 0 0 1 0 -204.6)">
				<stop  offset="0" style="stop-color:#FDF53F"/>
				<stop  offset="1" style="stop-color:#D93C65"/>
			</linearGradient>
			<path class="st21" d="M378.8,197.3c1.2,0,2.2-0.7,2.3-1.7c0.2-1-0.8-2.1-2.1-2.2c-0.3,0-17.1-1.8-18.8-11
				c-0.3-1.6-0.3-3.6,1.5-4.5c1.4-0.7,3.6-0.4,5.3,0.5c0.9,0.6,1.9,1.6,1.6,3c-0.3,1,0.4,2.2,1.7,2.4s2.5-0.4,2.8-1.5
				c0.8-2.8-0.4-5.4-3.3-7.2c-3.1-1.9-7.4-2.2-10.4-0.7c-1.7,0.9-4.6,3.2-3.6,8.4c0.9,5.2,5.2,9.3,12.5,12
				c5.3,1.9,10.2,2.4,10.3,2.4C378.7,197.3,378.7,197.3,378.8,197.3z"/>
			<path class="st22" d="M399.4,147.6c-0.2,0-0.4-0.2-0.4-0.3s0.2-0.4,0.3-0.4l4.5-0.3c0.2,0,0.4,0.2,0.4,0.3s-0.2,0.4-0.3,0.4
				L399.4,147.6L399.4,147.6z"/>
			<path class="st22" d="M365,149.5c-0.2,0-0.4-0.2-0.4-0.3c0-0.2,0.2-0.4,0.3-0.4l26.9-1.5c0.2,0,0.4,0.2,0.4,0.3s-0.2,0.4-0.3,0.4
				L365,149.5C365.1,149.5,365,149.5,365,149.5z"/>
			<path class="st22" d="M385.8,190.3L385.8,190.3c-4.9-0.5-8.8-4.5-11.6-11.8c-2.3-5.9-3.4-13-4-17.8c0-0.2,0.2-0.4,0.3-0.4
				s0.4,0.2,0.4,0.3c0.9,8.3,4,27.7,14.8,28.9c0.2,0,0.3,0.2,0.3,0.4C386.2,190.1,386,190.3,385.8,190.3z"/>
			<path class="st22" d="M370.4,157.2c-0.2,0-0.4-0.2-0.4-0.3c-0.1-1.1-0.1-1.7-0.1-1.8c0-0.2,0.2-0.4,0.4-0.4
				c0.2,0,0.4,0.2,0.4,0.4c0,0,0,0.7,0.1,1.7C370.7,157,370.6,157.2,370.4,157.2L370.4,157.2z"/>
		</g>
	</g>
</g>
</svg>
