<?xml version="1.0" encoding="utf-8"?>
<!-- Generator: Adobe Illustrator 24.3.0, SVG Export Plug-In . SVG Version: 6.00 Build 0)  -->
<svg version="1.1" id="Layer_1" xmlns="http://www.w3.org/2000/svg" xmlns:xlink="http://www.w3.org/1999/xlink" x="0px" y="0px"
	 viewBox="0 0 2247.9 1726.3" style="enable-background:new 0 0 2247.9 1726.3;" xml:space="preserve">
<style type="text/css">
	.st0{fill:#E5E0F8;}
	.st1{fill-rule:evenodd;clip-rule:evenodd;fill:#E7E4FB;}
	.st2{fill-rule:evenodd;clip-rule:evenodd;fill:#CAC5EF;}
	.st3{fill-rule:evenodd;clip-rule:evenodd;fill:#C1B7E9;}
	.st4{fill-rule:evenodd;clip-rule:evenodd;fill:#F7A900;}
	.st5{fill-rule:evenodd;clip-rule:evenodd;fill:#FBC800;}
	.st6{fill-rule:evenodd;clip-rule:evenodd;fill:#F9DF13;}
	.st7{fill-rule:evenodd;clip-rule:evenodd;fill:#F65973;}
	.st8{fill:#E3455E;}
	.st9{fill-rule:evenodd;clip-rule:evenodd;fill:#8068C1;}
	.st10{fill-rule:evenodd;clip-rule:evenodd;fill:#B0A3E1;}
	.st11{fill-rule:evenodd;clip-rule:evenodd;fill:#6C59AD;}
	.st12{fill:#4D3E82;}
	.st13{fill-rule:evenodd;clip-rule:evenodd;fill:#98FFFF;}
	.st14{fill-rule:evenodd;clip-rule:evenodd;fill:#F3F2FC;}
	.st15{fill:#D8D2F3;}
	.st16{fill-rule:evenodd;clip-rule:evenodd;fill:#FDAB91;}
	.st17{fill-rule:evenodd;clip-rule:evenodd;fill:#F49275;}
	.st18{fill-rule:evenodd;clip-rule:evenodd;fill:#423C59;}
	.st19{fill:#423C59;}
	.st20{fill:#F49275;}
	.st21{fill-rule:evenodd;clip-rule:evenodd;fill:#FDFDFD;}
	.st22{fill-rule:evenodd;clip-rule:evenodd;fill:#FFFFFF;}
	.st23{fill-rule:evenodd;clip-rule:evenodd;fill:#E3455E;}
	.st24{fill-rule:evenodd;clip-rule:evenodd;fill:#8673C6;}
	.st25{fill:#6C59AD;}
	.st26{fill-rule:evenodd;clip-rule:evenodd;fill:#FFBEAA;}
	.st27{fill:#C1B7E9;}
	.st28{fill-rule:evenodd;clip-rule:evenodd;fill:#EEECFA;}
	.st29{fill:#FBC800;}
	.st30{fill-rule:evenodd;clip-rule:evenodd;fill:#7663B5;}
	.st31{fill-rule:evenodd;clip-rule:evenodd;fill:#8C7ACB;}
	.st32{fill-rule:evenodd;clip-rule:evenodd;fill:#9E8ED6;}
	.st33{fill:#7663B5;}
	.st34{fill-rule:evenodd;clip-rule:evenodd;fill:#D8D2F3;}
	.st35{fill:#F7A900;}
</style>
<g>
	<path class="st0" d="M429.6,1674H3c-1.7,0-3-1.3-3-3s1.3-3,3-3h426.6c1.7,0,3,1.3,3,3S431.3,1674,429.6,1674z"/>
	<path class="st0" d="M1887.2,1621.7H430.5c-1.7,0-3-1.3-3-3s1.3-3,3-3h1456.7c1.7,0,3,1.3,3,3
		C1890.2,1620.3,1888.9,1621.7,1887.2,1621.7z"/>
	<path class="st0" d="M1433.9,1674h-32c-1.7,0-3-1.3-3-3s1.3-3,3-3h32c1.7,0,3,1.3,3,3S1435.6,1674,1433.9,1674z M1371.4,1674
		h-249.2c-1.7,0-3-1.3-3-3s1.3-3,3-3h249.2c1.7,0,3,1.3,3,3S1373.1,1674,1371.4,1674z M1089.4,1674h-63.9c-1.7,0-3-1.3-3-3
		s1.3-3,3-3h63.9c1.7,0,3,1.3,3,3S1091.1,1674,1089.4,1674z M992.6,1674H743.5c-1.7,0-3-1.3-3-3s1.3-3,3-3h249.2c1.7,0,3,1.3,3,3
		S994.3,1674,992.6,1674z M712.9,1674h-32c-1.7,0-3-1.3-3-3s1.3-3,3-3h32c1.7,0,3,1.3,3,3S714.6,1674,712.9,1674z"/>
	
		<ellipse transform="matrix(0.6139 -0.7894 0.7894 0.6139 -343.4759 937.6224)" class="st1" cx="786.7" cy="819.9" rx="838.5" ry="623.1"/>
	<path class="st2" d="M677.6,961.3c-103.2,0-186.9,83.7-186.9,186.9c0,103.2,83.7,186.9,186.9,186.9c103.2,0,186.9-83.7,186.9-186.9
		C864.5,1045,780.8,961.3,677.6,961.3L677.6,961.3z M627,723.3h50.6h50.6c8.2,0,15.3,4.4,19,11.7l33.5,66.9
		c24.1,7.2,47.1,16.8,68.8,28.5l71-23.7c7.8-2.6,15.9-0.7,21.7,5.1l35.8,35.8l35.8,35.8c5.8,5.8,7.7,13.9,5.1,21.7l-23.7,71
		c11.8,21.7,21.4,44.8,28.5,68.9l66.9,33.5c7.4,3.7,11.7,10.8,11.7,19l0,50.6l0,50.6c0,8.2-4.4,15.3-11.7,19l-66.9,33.5
		c-7.2,24.1-16.8,47.2-28.5,68.9l23.7,71c2.6,7.8,0.7,15.9-5.1,21.7l-35.8,35.8l-35.8,35.8c-5.8,5.8-13.9,7.7-21.7,5.1l-71-23.7
		c-21.7,11.8-44.8,21.4-68.9,28.5l-33.5,66.9c-3.7,7.4-10.8,11.7-19,11.7h-50.6H627c-8.2,0-15.3-4.4-19-11.7l-33.5-66.9
		c-24.1-7.2-47.2-16.8-68.9-28.5l-71,23.7c-7.8,2.6-15.9,0.7-21.7-5.1l-35.8-35.8l-35.8-35.8c-5.8-5.8-7.7-13.9-5.1-21.7l23.7-71
		c-11.8-21.7-21.4-44.8-28.5-68.8l-66.9-33.5c-7.4-3.7-11.7-10.8-11.7-19v-50.6v-50.6c0-8.2,4.4-15.3,11.7-19l67-33.5
		c7.2-24.1,16.8-47.1,28.5-68.8l-23.7-71c-2.6-7.8-0.7-15.9,5.1-21.7l35.8-35.8l35.8-35.8c5.8-5.8,13.9-7.7,21.7-5.1l71,23.7
		c21.7-11.8,44.8-21.4,68.8-28.5l33.5-67C611.6,727.7,618.7,723.3,627,723.3z"/>
	<path class="st3" d="M2235.7,527.1l-570.4-7.1c-4.9-0.1-9.1,2.6-11.2,6.9c-2.1,4.4-1.5,9.3,1.6,13.1l104.6,127.6l-477,477
		l-250.7-273.3c-2.9-3.1-7.5-3.7-11.1-1.3L72.2,1516.2c-1.2,0.8-1.6,2.5-0.9,3.7s2.3,1.8,3.7,1.2l890-411l285.8,330.8l766.9-459.3
		l103.6,126.3c3.1,3.8,7.8,5.3,12.5,4.1c4.7-1.2,8.1-4.8,9-9.6l104.7-560.7c0.7-3.7-0.2-7.1-2.6-10
		C2242.7,528.7,2239.5,527.1,2235.7,527.1z"/>
	<g>
		<g>
			<path class="st4" d="M1302.4,1618.7h191c5.6,0,10.2-4.6,10.2-10.2V994.7c0-5.6-4.6-10.2-10.2-10.2h-191
				c-5.6,0-10.2,4.6-10.2,10.2v613.8C1292.2,1614.1,1296.8,1618.7,1302.4,1618.7z"/>
			<path class="st5" d="M1384,1618.7h191c5.6,0,10.2-4.6,10.2-10.2V994.7c0-5.6-4.6-10.2-10.2-10.2h-191c-5.6,0-10.2,4.6-10.2,10.2
				v613.8C1373.8,1614.1,1378.4,1618.7,1384,1618.7z"/>
			<path class="st6" d="M1384,994.4h191c0.1,0,0.3,0.1,0.3,0.3v236.1c-35.3,45.5-90.5,74.7-152.5,74.7c-13.4,0-26.4-1.4-39-3.9
				V994.7C1383.7,994.5,1383.9,994.4,1384,994.4z"/>
		</g>
		<g>
			<path class="st4" d="M1043.1,1618.7h191c5.6,0,10.2-4.6,10.2-10.2v-402.4c0-5.6-4.6-10.2-10.2-10.2h-191
				c-5.6,0-10.2,4.6-10.2,10.2v402.4C1032.9,1614.1,1037.5,1618.7,1043.1,1618.7z"/>
			<path class="st5" d="M1124.7,1618.7h191c5.6,0,10.2-4.6,10.2-10.2v-402.4c0-5.6-4.6-10.2-10.2-10.2h-191
				c-5.6,0-10.2,4.6-10.2,10.2v402.4C1114.5,1614.1,1119.1,1618.7,1124.7,1618.7z"/>
			<path class="st6" d="M1124.7,1205.8h191c0.1,0,0.3,0.1,0.3,0.3v130.4c-35.3,45.5-90.5,74.7-152.5,74.7c-13.4,0-26.4-1.4-39-3.9
				v-201.2C1124.4,1205.9,1124.5,1205.8,1124.7,1205.8z"/>
		</g>
		<g>
			<path class="st4" d="M783.7,1618.7h191c5.6,0,10.2-4.6,10.2-10.2v-191c0-5.6-4.6-10.2-10.2-10.2h-191c-5.6,0-10.2,4.6-10.2,10.2
				v191C773.5,1614.1,778.1,1618.7,783.7,1618.7z"/>
			<path class="st5" d="M865.3,1618.7h191c5.6,0,10.2-4.6,10.2-10.2v-191c0-5.6-4.6-10.2-10.2-10.2h-191c-5.6,0-10.2,4.6-10.2,10.2
				v191C855.1,1614.1,859.7,1618.7,865.3,1618.7z"/>
			<path class="st6" d="M865.3,1417.2h191c0.1,0,0.3,0.1,0.3,0.3v24.7c-35.3,45.5-90.5,74.7-152.5,74.7c-13.4,0-26.4-1.4-39-3.9
				v-95.5C865,1417.3,865.2,1417.2,865.3,1417.2z"/>
		</g>
		<path class="st6" d="M1307.7,1220.7c0-2.3,1.8-4.1,4.1-4.1c2.3,0,4.1,1.8,4.1,4.1v283.4c0,2.3-1.8,4.1-4.1,4.1
			c-2.3,0-4.1-1.8-4.1-4.1V1220.7z"/>
		<path class="st6" d="M1307.7,1530.9c0-2.3,1.8-4.1,4.1-4.1c2.3,0,4.1,1.8,4.1,4.1v68.6c0,2.3-1.8,4.1-4.1,4.1
			c-2.3,0-4.1-1.8-4.1-4.1V1530.9z"/>
		<path class="st6" d="M1048.4,1429.8c0-2.3,1.8-4.1,4.1-4.1s4.1,1.8,4.1,4.1v74.2c0,2.3-1.8,4.1-4.1,4.1s-4.1-1.8-4.1-4.1V1429.8z"
			/>
		<path class="st6" d="M1048.4,1530.9c0-2.3,1.8-4.1,4.1-4.1s4.1,1.8,4.1,4.1v68.6c0,2.3-1.8,4.1-4.1,4.1s-4.1-1.8-4.1-4.1V1530.9z"
			/>
		<path class="st6" d="M1567.1,1216.8c0-2.3,1.8-4.1,4.1-4.1s4.1,1.8,4.1,4.1v287.2c0,2.3-1.8,4.1-4.1,4.1s-4.1-1.8-4.1-4.1V1216.8
			L1567.1,1216.8z M1567.1,1530.9c0-2.3,1.8-4.1,4.1-4.1s4.1,1.8,4.1,4.1v68.6c0,2.3-1.8,4.1-4.1,4.1s-4.1-1.8-4.1-4.1V1530.9z"/>
	</g>
	<g>
		<path class="st7" d="M356.3,1664h127c12.2,0,22.7-4.8,30.7-14.1c7.9-9.3,11.1-20.4,9.2-32.5l-31.5-198.1
			c-1.7-10.4-6.6-18.8-14.9-25.3l-97-76.5h-23.6h-23.6l-97,76.5c-8.3,6.5-13.2,14.9-14.9,25.3l-31.5,198.1
			c-1.9,12.1,1.2,23.2,9.2,32.5c7.9,9.3,18.4,14.1,30.7,14.1H356.3z"/>
		<path class="st7" d="M356.3,1317.4h23.6l46.3-50.9c2.1-2.3,2.6-5.3,1.3-8.1s-3.9-4.5-6.9-4.5h-64.3h-64.3c-3.1,0-5.7,1.7-6.9,4.5
			c-1.2,2.8-0.7,5.9,1.3,8.1l46.3,50.9H356.3z"/>
		<path class="st6" d="M356.3,1417.9c22.7,0,43.2,9.2,58,24c14.8,14.8,24,35.4,24,58c0,22.7-9.2,43.2-24,58
			c-14.8,14.8-35.4,24-58,24c-22.7,0-43.2-9.2-58-24s-24-35.4-24-58c0-22.7,9.2-43.2,24-58C313.2,1427.1,333.7,1417.9,356.3,1417.9z
			"/>
		<path class="st5" d="M394.3,1305.4h-38h-38c-5.6,0-10.3,4.6-10.3,10.3c0,5.6,4.6,10.3,10.3,10.3h38h38c5.6,0,10.3-4.6,10.3-10.3
			C404.5,1310,399.9,1305.4,394.3,1305.4z"/>
		<path class="st7" d="M325.5,1524.5c0-3.4,2.8-6.2,6.2-6.2s6.2,2.8,6.2,6.2v4.1c0,0.6,0.2,1.1,0.6,1.4c0.4,0.4,0.9,0.6,1.4,0.6
			h32.8c0.6,0,1.1-0.2,1.4-0.6s0.6-0.9,0.6-1.4V1514c0-0.5-0.1-0.9-0.3-1.2c-0.2-0.3-0.6-0.6-1-0.7l-38-12.7c-2.9-1-5.4-2.8-7.1-5.2
			c-1.7-2.4-2.7-5.3-2.7-8.4v-14.6c0-4,1.6-7.5,4.2-10.1s6.2-4.2,10.1-4.2h10.3v-3.8c0-3.4,2.8-6.2,6.2-6.2s6.2,2.8,6.2,6.2v3.8
			h10.3c4,0,7.5,1.6,10.1,4.2s4.2,6.2,4.2,10.1v4.1c0,3.4-2.8,6.2-6.2,6.2s-6.2-2.8-6.2-6.2v-4.1c0-0.6-0.2-1.1-0.6-1.4
			c-0.4-0.4-0.9-0.6-1.4-0.6h-32.8c-0.6,0-1.1,0.2-1.4,0.6s-0.6,0.9-0.6,1.4v14.6c0,0.5,0.1,0.9,0.3,1.2c0.2,0.3,0.6,0.6,1.1,0.7
			l38,12.7c3,1,5.4,2.8,7.1,5.2c1.7,2.4,2.7,5.3,2.7,8.4v14.6c0,4-1.6,7.5-4.2,10.1s-6.2,4.2-10.1,4.2h-10.3v3.8
			c0,3.4-2.8,6.2-6.2,6.2s-6.2-2.8-6.2-6.2v-3.8h-10.3c-4,0-7.5-1.6-10.1-4.2s-4.2-6.2-4.2-10.1L325.5,1524.5L325.5,1524.5z"/>
		<path class="st8" d="M523.1,1620.3c-1.4,0-2.7-1.1-3-2.5l-30-188.9c-0.3-1.6,0.9-3.2,2.5-3.4c1.6-0.3,3.2,0.9,3.4,2.5l30,188.9
			c0.3,1.6-0.9,3.2-2.5,3.4C523.5,1620.3,523.3,1620.3,523.1,1620.3z M189.5,1620.3c-0.2,0-0.3,0-0.5,0c-1.6-0.3-2.8-1.8-2.5-3.4
			l30-188.9c0.3-1.6,1.8-2.8,3.4-2.5c1.6,0.3,2.8,1.8,2.5,3.4l-30,188.9C192.2,1619.3,190.9,1620.3,189.5,1620.3z"/>
	</g>
	<g>
		<g>
			<g>
				<g>
					<g>
						<path class="st9" d="M1011.9,1388.4l-99.8-38.9c-2.5-1-5.2-0.5-6.9,1.5c-12,14.7-38.8,11.9-55.8,4.2c-2.3-1.1-5-0.5-6.6,1.4
							c-7.5,8.7-18.2,50.7,4.6,50.7h158c6.9,0,11.1-3.5,12.2-7.6C1018.8,1395.5,1017.2,1390.4,1011.9,1388.4z"/>
						<path class="st10" d="M966.6,1397.3H852.1h-17.3l-2.1,6.2c-0.3,0.9-0.2,1.8,0.4,2.5s1.4,1.2,2.3,1.2h131.2h38.8
							c6.9,0,11.1-3.5,12.2-7.6c0.2-0.7,0.3-1.5,0.3-2.3L966.6,1397.3L966.6,1397.3z"/>
					</g>
					<path class="st9" d="M860,1349.5c5.7,0,10.4,4.7,10.4,10.4c0,5.7-4.7,10.4-10.4,10.4c-5.7,0-10.4-4.7-10.4-10.4
						C849.6,1354.2,854.3,1349.5,860,1349.5z"/>
				</g>
				<path class="st11" d="M1051.4,922.9c-23-9.2-48.7-0.2-61.2,20.3l-66.4,109.1c-10.4,16.9-18.1,32.2-22.5,51.5l-58.5,252.7
					c15,13.2,64.3,10.9,77.1-4.1l158.6-363.4c0.2-0.4,0.4-0.9,0.6-1.3C1089.4,962.2,1077,933.2,1051.4,922.9z"/>
				<path class="st12" d="M925.7,1342.5c-0.4,0-0.8-0.1-1.2-0.3c-1.5-0.7-2.2-2.4-1.6-3.9l143.2-328.2c0.7-1.5,2.4-2.2,3.9-1.5
					c1.5,0.7,2.2,2.4,1.6,3.9l-143.2,328.2C927.9,1341.8,926.8,1342.5,925.7,1342.5z"/>
			</g>
			<g>
				<path class="st11" d="M664.6,775c16.2-37.2,59.5-54.3,96.7-38.2c3.7,1.6,7.2,3.5,10.5,5.6l288,184.8
					c21.6,13.8,29.4,42.1,17.2,65.2c-12.4,23.6-41.1,33.1-65,22L701.2,871C665.1,854.3,648.7,811.7,664.6,775z"/>
				<path class="st13" d="M716.9,797.7c3.6-8.3,13.3-12.2,21.7-8.6c8.3,3.6,12.2,13.3,8.6,21.7c-3.6,8.3-13.3,12.2-21.7,8.6
					C717.2,815.8,713.3,806,716.9,797.7z"/>
				<path class="st11" d="M1017.7,962.6c3.6-8.3,13.3-12.2,21.7-8.6c8.3,3.6,12.2,13.3,8.6,21.7c-3.6,8.3-13.3,12.2-21.7,8.6
					C1017.9,980.7,1014.1,971,1017.7,962.6z"/>
				<path class="st12" d="M1037,915.6c-0.6,0-1.1-0.2-1.6-0.5L789.1,757.1c-1.4-0.9-1.8-2.8-0.9-4.1c0.9-1.4,2.8-1.8,4.1-0.9
					l246.3,158.1c1.4,0.9,1.8,2.8,0.9,4.1C1039,915.1,1038,915.6,1037,915.6z"/>
			</g>
		</g>
		<g>
			<path class="st14" d="M741.5,358.2c20.5-20.5,53.9-20.5,74.4,0c1.3,1.3,2.5,2.7,3.7,4.1l148.8,165.6c15.8,15.8,15.8,41.5,0,57.3
				c-15.8,15.8-41.5,15.8-57.3,0L744.4,435.4c-1-0.9-2-1.8-3-2.8C720.9,412,720.9,378.7,741.5,358.2z"/>
			<path class="st15" d="M898.3,576.6c-0.7,0-1.4-0.3-2-0.8L771.5,463.7c-1.2-1.1-1.3-3-0.2-4.2c1.1-1.2,3-1.3,4.2-0.2l124.8,112.1
				c1.2,1.1,1.3,3,0.2,4.2C900,576.3,899.1,576.6,898.3,576.6z"/>
		</g>
		<g>
			<g>
				<path class="st16" d="M1032.3,468.8L1050,489l63.3-65.7c8.4-8.7,8.5-22.5,0.1-31.4c-8.4-8.9-22.2-9.5-31.4-1.6l-68.9,59.7
					L1032.3,468.8z"/>
			</g>
			<path class="st14" d="M969.7,583.8L1108.2,436c-3.8-15.5-25.9-37.6-39.1-41.2L914.2,525.1c-0.8,0.7-1.6,1.4-2.3,2.1
				c-16.2,15.4-16.9,41-1.5,57.3c15.4,16.2,41,16.9,57.3,1.5C968.3,585.2,969,584.5,969.7,583.8z"/>
			<path class="st14" d="M928.7,567c-5.8-6.1-5.6-15.8,0.6-21.7c6.1-5.8,15.8-5.6,21.7,0.6c5.8,6.1,5.6,15.8-0.6,21.7
				C944.2,573.4,934.5,573.2,928.7,567z"/>
			<path class="st15" d="M913.7,528.5c-0.9,0-1.7-0.4-2.3-1.1c-1.1-1.3-0.9-3.2,0.4-4.2l135.8-114.3c1.3-1.1,3.2-0.9,4.2,0.4
				c1.1,1.3,0.9,3.2-0.4,4.2L915.7,527.8C915.1,528.3,914.4,528.5,913.7,528.5z"/>
		</g>
		<path class="st16" d="M619.2,222.4v76c0,4.4-2.2,8.8-5.4,12.6v31.7h43.6H701V311c-3.2-3.8-5.4-8.2-5.4-12.6v-76L619.2,222.4
			L619.2,222.4z"/>
		<path class="st17" d="M619.2,222.4v16.1c0.3,1.2,0.5,2.4,0.7,3.3c6.1,30.3,45.2,57.7,76.2,60.1c-0.3-1.1-0.4-2.3-0.4-3.4v-76
			L619.2,222.4L619.2,222.4z"/>
		<circle class="st6" cx="657.4" cy="222.4" r="19.5"/>
		<path class="st18" d="M597.7,195.5l-0.9-1.4c-33.2-25.8-27.1-90.6,12-102.6c8.3-24.2,39.1-28.8,62.4-25.4
			c31.7,4.6,53.1,28.1,75.6,8.1c9.5,12.6,8.6,30.3-0.1,44.7c7.5,20.6,2.3,58.3-16.4,75.3l-0.9,1.4L597.7,195.5z"/>
		<path class="st16" d="M616.1,220.1c-4.3-13.5-19.2-24.3-20.6-35.6c-1.5-12.4-0.3-28.3,1.3-40.1c4.6-33.9,28.4-58.2,70.6-58.4
			c37.8,0.1,63.3,21.5,69.3,58.2c4.3,25.8,1.2,58.9-3.6,84.8c-3.8,20.1-10.2,41.1-21.3,49.8c-22.4,17.6-65.9-6.8-80.9-27
			C624.4,242.8,620.1,232.5,616.1,220.1z"/>
		<path class="st19" d="M650.4,170.7c-1,0-1.9-0.4-2.6-1.2c-1.4-1.5-1.3-3.7,0.2-5.1c7.8-7.2,25.1-9.5,37.4-1.2c1.7,1.1,2.1,3.3,1,5
			c-1.1,1.6-3.3,2.1-5,1c-10-6.7-23.3-4.2-28.4,0.5C652.2,170.4,651.3,170.7,650.4,170.7z"/>
		<g>
			<path class="st18" d="M665.8,176.6c-3.3,0-6,3.8-6,8.5c0,4.7,2.7,8.5,6,8.5s6-3.8,6-8.5S669.1,176.6,665.8,176.6z"/>
			<path class="st18" d="M720.1,176.6c3.3,0,6,3.8,6,8.5c0,4.7-2.7,8.5-6,8.5s-6-3.8-6-8.5S716.8,176.6,720.1,176.6z"/>
		</g>
		<path class="st19" d="M712.3,169.9c-1.2,0-2.3-0.6-3-1.6c-1.1-1.6-0.7-3.9,1-5c11.2-7.5,26-6.2,34.3-1.1c1.7,1,2.2,3.3,1.2,5
			c-1,1.7-3.3,2.2-5,1.2c-6.4-4-18.1-4.7-26.5,0.9C713.7,169.7,713,169.9,712.3,169.9z"/>
		<path class="st18" d="M588.6,154.1l6.4,23c10.9-2.1,20.6,13.1,20.6-5.2v-24c0-9.2,7-19.8,19.6-19.8c31.3,21.7,81.4,15.9,97.8-15.5
			l-42.3-30.9l-58.2-0.6l-38.4,38L588.6,154.1z"/>
		<path class="st20" d="M705.1,225.1c-1.3,0-2.5-0.8-2.9-2.1c-0.5-1.6,0.4-3.3,2-3.7c0.4-0.1,2.1-0.8,3.3-1.9
			c1.6-1.4,1.4-2.3,1.3-2.5c-0.5-1.6,0.4-3.3,2-3.7c1.6-0.5,3.3,0.4,3.7,2c0.9,3.1-0.2,6.3-3.1,8.8c-2.1,1.8-4.5,2.8-5.5,3.1
			C705.7,225.1,705.4,225.1,705.1,225.1z"/>
		<path class="st21" d="M678.5,239.6h42.7c-2.3,12.1-10.3,16.8-18.6,16.9C693.3,256.6,683.3,251,678.5,239.6z"/>
		<path class="st16" d="M605.2,181.8c-5-6.2-13.8-7.5-16.8,2.1c-1.5,4.9-0.9,11.2,0.2,15.6c3,12.5,18.1,23.1,28.4,20.4L605.2,181.8z
			"/>
		<g>
			<path class="st22" d="M805.6,700.8V582.5l25.3-180.9c0.6-5,0.5-10.1-0.4-15.1c-3.3-19.8-17.7-35.8-36.6-41.5l-75.9-23l-42.2,2.9
				l-56.7-26.5c0,10.5-12.3,21-22.5,23.6l-89.5,22.3l-29.6,68l64.9,193l-10.8,95.4L805.6,700.8L805.6,700.8z"/>
			<path class="st15" d="M805.6,585.5c-0.1,0-0.3,0-0.4,0c-1.6-0.2-2.8-1.7-2.6-3.4l22.2-158.3c0.2-1.6,1.8-2.8,3.4-2.6
				c1.6,0.2,2.8,1.7,2.6,3.4l-22.2,158.3C808.3,584.4,807,585.5,805.6,585.5z"/>
			<path class="st22" d="M619.2,298.4l56.7,26.5c8.9-3.2,20-13.5,19.7-26.5l22.5,23.6l-9.6,32.1c-0.6,1.8-2,3.1-3.9,3.4
				c-1.9,0.3-3.7-0.5-4.7-2.1l-15.1-22.7c-0.9-1.4-2.4-2.2-4-2.2h-9.4c-1.8,0-3.3,0.9-4.2,2.4l-15.5,26.8c-0.7,1.2-1.7,1.9-3,2.3
				c-1.3,0.3-2.5,0.2-3.7-0.5l-61.2-36.3L619.2,298.4z"/>
			<path class="st15" d="M645,364.6c-0.5,0-1-0.1-1.5-0.4l-45-26.7c-1.4-0.8-1.9-2.7-1.1-4.1c0.8-1.4,2.7-1.9,4.1-1l45,26.7
				c1.4,0.8,1.9,2.7,1.1,4.1C647,364,646,364.6,645,364.6z M708.7,361.7c-0.2,0-0.5,0-0.7-0.1c-1.6-0.4-2.6-2-2.2-3.6l5.7-22.3
				c0.4-1.6,2-2.6,3.6-2.2c1.6,0.4,2.6,2,2.2,3.6l-5.7,22.3C711.3,360.8,710.1,361.7,708.7,361.7z"/>
			<path class="st7" d="M659.2,618.6l30.3,34.4c2.4,2.7,5.5,4,9.1,3.8c3.6-0.2,6.6-1.8,8.6-4.7l23.3-32.2c4.9-6.8,6.5-14.5,4.7-22.6
				l-48.9-225.3l-8.6-1.7l-8.6,1.7l-17.1,225.7C651.5,605.7,653.9,612.7,659.2,618.6z"/>
			<path class="st23" d="M669.2,372.1l-8.8-17.2c-1.8-3.5-1.7-7.4,0.3-10.8l6.4-11c0.9-1.5,2.4-2.4,4.2-2.4h9.4c1.7,0,3.1,0.8,4,2.2
				l7.7,11.6c2.2,3.2,2.5,7,1,10.6l-7.1,17.1L669.2,372.1L669.2,372.1z"/>
		</g>
		<g>
			<path class="st11" d="M732.1,730.8c3.4,0,6.7,0.2,10,0.7v-30.6h63.5l0,103.6c-0.1,40.5-33,73.3-73.5,73.3
				c-40.6,0-73.5-32.9-73.5-73.5C658.6,763.7,691.5,730.8,732.1,730.8z"/>
			<path class="st24" d="M594.3,877.8c-38.2,0.1-70.6-29.3-73.5-67.9c-0.4-4.7-0.3-9.4,0.3-13.9l10.7-95.1h273.8v32.5
				c0,15.2-1.8,29.4-12.1,40.6l-73.9,80.4c-12.7,13.8-24.5,23.6-44.5,23.6L594.3,877.8L594.3,877.8z"/>
		</g>
		<g>
			<polygon class="st11" points="805.6,731.8 805.6,698.7 532,698.7 528.2,731.8 			"/>
			<path class="st10" d="M671.9,737h51.5c2.9,0,5.2-2.4,5.2-5.2v-33.1c0-2.9-2.4-5.2-5.2-5.2h-51.5c-2.9,0-5.2,2.4-5.2,5.2v33.1
				C666.7,734.7,669,737,671.9,737L671.9,737z M676.3,703.2H719v24.2h-42.7L676.3,703.2L676.3,703.2z"/>
		</g>
		<g>
			<g>
				<g>
					<g>
						<path class="st9" d="M655.2,1564.9l10.2,21.4c3.1,6.6,7.9,15.2,3.7,22.4c0,5.5-4.5,9.9-10,9.9h-65.4h0h-48.1
							c-6.9,0-11.1-3.5-12.2-7.6c-1.2-4.1,0.9-8.5,5.8-11.3l60.7-34.8h31.5H655.2z"/>
						<path class="st10" d="M668.5,1618.7c0.9,0,1.7-0.4,2.3-1.2s0.7-1.7,0.4-2.5l-2.1-6.2h-10.5l-125.6,0c0,0.8,0.1,1.6,0.3,2.3
							c1.2,4.1,5.3,7.6,12.2,7.6L668.5,1618.7z"/>
					</g>
				</g>
				<path class="st24" d="M608.7,1097c-24.7,0.6-44.8,19.1-48.2,42.9l-17.8,126.5c-2.9,19.6-3.7,36.7-0.3,56.2L586,1573
					c19,6.2,50.4,6.4,71.6-3.3l2.2-422.5c0-0.5,0-0.9,0-1.4C659.2,1118.2,636.3,1096.4,608.7,1097z"/>
				<path class="st25" d="M657.7,1565.1C657.7,1565.1,657.7,1565.1,657.7,1565.1c-1.7,0-3-1.4-3-3l2-390.8c0-1.7,1.3-3,3-3
					c0,0,0,0,0,0c1.7,0,3,1.4,3,3l-2,390.8C660.7,1563.8,659.4,1565.1,657.7,1565.1z"/>
			</g>
			<g>
				<path class="st24" d="M583.9,731.5c40.2-5.6,77.3,22.4,82.9,62.7c0.6,4,0.8,8,0.7,11.9l-7.7,342.1c-0.6,25.6-20.7,47-46.8,48.7
					c-26.6,1.7-49.7-17.8-52.7-44l-39.4-340C516.5,773.1,544.3,737,583.9,731.5z"/>
				<path class="st24" d="M591.8,787.9c9-1.3,17.3,5,18.6,14s-5,17.3-14,18.6s-17.3-5-18.6-14S582.8,789.2,591.8,787.9z"/>
				<path class="st24" d="M607.7,1130.6c9-1.3,17.3,5,18.6,14s-5,17.3-14,18.6s-17.3-5-18.6-14
					C592.4,1140.2,598.7,1131.9,607.7,1130.6z"/>
				<path class="st25" d="M660.4,1124C660.4,1124,660.4,1124,660.4,1124c-1.7,0-3-1.4-3-3.1l4.9-219.3c0-1.7,1.4-3,3.1-2.9
					c1.7,0,3,1.4,2.9,3.1l-4.9,219.3C663.4,1122.7,662.1,1124,660.4,1124z"/>
			</g>
		</g>
		<g>
			<path class="st16" d="M1199.5,352.9c1.7-1.4,1.9-4,0.4-5.7c-1.3-1.5-3.6-1.7-5.1-0.5l-27.7,20c-0.5,0.4-1.3,0.3-1.7-0.2
				c-0.4-0.5-0.4-1.3,0.1-1.7l38-38.4c1.7-1.7,1.7-4.4,0.1-6.1c-1.6-1.8-4.3-1.9-6.1-0.4l-37.7,31c-0.6,0.5-1.5,0.5-2.1-0.1
				c-0.6-0.6-0.6-1.5,0-2.1l37.6-42.7c1.5-1.7,1.5-4.2-0.1-5.9c-1.7-1.8-4.5-1.9-6.3-0.2l-42,39c-0.7,0.6-1.7,0.6-2.3,0
				c-0.7-0.6-0.7-1.6-0.2-2.3L1173,300c1.3-1.7,1.3-4.1-0.2-5.7c-1.7-1.9-4.6-1.9-6.4-0.1l-70.7,71.2c-11.9,11-12.7,29.5-1.7,41.4
				c10.8,11.7,28.9,12.7,40.8,2.3v0L1199.5,352.9z"/>
			<path class="st26" d="M1108.8,335.8l0.8,16.9c8.8,6.4,15.7,18.8,15.9,29.9c0.2,13.5-11.3,22.3-22.1,21.6
				c-16.1-1.1-20-16.1-18.4-29.8c0.9-7.8,3.3-15.6,5-22.5l5.8-20.3c0.2-0.9,0.5-1.7,1-2.4l12.7-17.9c6,4.4,6.1,12,3.2,18.3
				C1111.5,332.4,1110.3,334.3,1108.8,335.8z"/>
		</g>
		<g>
			<g>
				<path class="st22" d="M556.1,357.1c-21.1-19.9-54.4-19-74.4,2.2c-1.3,1.3-2.4,2.8-3.6,4.2L334.2,533.3
					c-15.3,16.3-14.6,41.9,1.7,57.3c16.3,15.3,41.9,14.6,57.3-1.7l162.3-154.6c1-0.9,2-1.9,2.9-2.8
					C578.2,410.4,577.2,377.1,556.1,357.1z"/>
				<path class="st22" d="M539,375.2c-11.1-10.5-28.7-10-39.2,1.1c-10.5,11.1-10,28.7,1.1,39.2c11.1,10.5,28.7,10,39.2-1.1
					C550.7,403.3,550.1,385.7,539,375.2z"/>
				<path class="st15" d="M416.3,569.8c-0.8,0-1.6-0.3-2.2-0.9c-1.1-1.2-1.1-3.1,0.1-4.2l142-135.3c1.2-1.1,3.1-1.1,4.2,0.1
					c1.1,1.2,1.1,3.1-0.1,4.2L418.4,569C417.8,569.6,417,569.8,416.3,569.8z"/>
			</g>
			<g>
				<g>
					<path class="st16" d="M450.5,654.4l19-19l59,69.5c7.8,9.2,7.1,23-1.8,31.4c-8.9,8.3-22.8,8.1-31.4-0.4L430.1,672L450.5,654.4z"
						/>
				</g>
				<path class="st22" d="M395.2,535.8l129,156.2c-4.8,15.2-28.2,35.9-41.6,38.7L336.2,590.9c-0.7-0.7-1.5-1.5-2.2-2.2
					c-15.2-16.4-14.3-42,2.1-57.2c16.4-15.2,42-14.3,57.2,2.1C393.9,534.2,394.6,535,395.2,535.8z"/>
				<path class="st22" d="M353.2,549.9c-6.2,5.8-6.5,15.5-0.8,21.7c5.8,6.2,15.5,6.5,21.7,0.8c6.2-5.8,6.5-15.5,0.8-21.7
					C369.1,544.5,359.4,544.1,353.2,549.9z"/>
				<path class="st15" d="M507.9,675.3c-0.9,0-1.7-0.4-2.3-1.1L393.1,538c-1.1-1.3-0.9-3.2,0.4-4.2c1.3-1.1,3.2-0.9,4.2,0.4
					l112.5,136.2c1.1,1.3,0.9,3.2-0.4,4.2C509.3,675,508.6,675.3,507.9,675.3z"/>
			</g>
		</g>
		<g>
			<g>
				<path class="st17" d="M567.8,678.8l-9.8-5.6l4.3-4.2c2-1.9,4.3-2.9,7-3.1l39.8-3c-1.6,4.4-4.2,7.7-9,8.6L567.8,678.8z"/>
				<path class="st16" d="M522.3,739.8l-15.9-15.1l39-52.1c2.8-3.8,7.9-4.5,12.3-2.9l49.8,18.4c1.1,0.4,1.8,1.3,1.8,2.5
					c0.1,1.1-0.5,2.2-1.5,2.7l-12,6.3c-3.2,1.7-6.3,2.3-9.9,1.8l-26.6-3.1L522.3,739.8z"/>
			</g>
			<path class="st26" d="M530,747.6c-6.3,6.2-16.9,6.5-23.3,0.2c-4.2-4.1-5.6-8.3-5.4-12.3c0.7-11.2,11.6-16.1,20.2-20.5l33.9-17.4
				c3-1.5,6.3-1.2,9.4,0.3l32.7,16.2c-2.2,3.9-7.1,4.4-9.9,3.7l-20.4-4.3L530,747.6z"/>
		</g>
	</g>
	<g>
		<polygon class="st22" points="1855.9,307.8 1869.1,343 1904.4,343 1875.7,367.3 1886.7,404.7 1855.9,382.7 1825,404.7 1836,367.3 
			1807.4,343 1842.6,343 		"/>
		<path class="st27" d="M1825,407.7c-0.6,0-1.2-0.2-1.7-0.6c-1-0.7-1.5-2.1-1.1-3.3l10.5-35.6l-27.2-23c-1-0.8-1.3-2.1-0.9-3.3
			c0.4-1.2,1.6-2,2.8-2l33.2,0l12.5-33.3c0.4-1.2,1.6-1.9,2.8-1.9s2.4,0.8,2.8,1.9l12.5,33.3l33.2,0c1.3,0,2.4,0.8,2.8,2
			c0.4,1.2,0.1,2.5-0.9,3.3l-27.2,23l10.5,35.6c0.4,1.2-0.1,2.5-1.1,3.3c-1,0.7-2.4,0.7-3.5,0l-29.1-20.8l-29.1,20.8
			C1826.2,407.5,1825.6,407.7,1825,407.7z M1815.6,346l22.4,19c0.9,0.8,1.3,2,0.9,3.1l-8.6,29.1l23.8-17c1-0.7,2.4-0.7,3.5,0
			l23.8,17l-8.6-29.1c-0.3-1.1,0-2.4,0.9-3.1l22.4-19l-27.1,0c-1.3,0-2.4-0.8-2.8-1.9l-10.4-27.8l-10.4,27.8
			c-0.4,1.2-1.6,1.9-2.8,1.9L1815.6,346z"/>
	</g>
	<circle class="st28" cx="2007.8" cy="166.1" r="29.9"/>
	<ellipse class="st28" cx="2019.3" cy="1414.8" rx="38.5" ry="38.5"/>
	
		<ellipse transform="matrix(0.9985 -5.549771e-02 5.549771e-02 0.9985 -2.4059 22.4067)" class="st28" cx="402.2" cy="54.5" rx="26.7" ry="26.7"/>
	<path class="st0" d="M1911.2,1674h-426.6c-1.7,0-3-1.3-3-3s1.3-3,3-3h426.6c1.7,0,3,1.3,3,3S1912.9,1674,1911.2,1674z"/>
	<g>
		<g>
			<path class="st29" d="M1779.7,1474.2l-24.4-42.3c-0.5-0.8-1.2-1.3-2.2-1.3h-6.4v-12h6.4c5.2,0,9.9,2.7,12.6,7.3l24.4,42.3
				L1779.7,1474.2z"/>
			<path class="st29" d="M1616.1,1474.2l-10.4-6l24.4-42.3c2.6-4.5,7.3-7.3,12.6-7.3h6.4v12h-6.4c-1,0-1.7,0.4-2.2,1.3
				L1616.1,1474.2z"/>
		</g>
		<path class="st30" d="M1647.6,1418.4v12.7c0,2.2,1.8,4,4,4h92.4c2.2,0,4-1.8,4-4v-12.7c0-2.2-1.8-4-4-4h-92.4
			C1649.5,1414.3,1647.6,1416.1,1647.6,1418.4z"/>
		<path class="st30" d="M1540,1467.5h289.3c8.3,0,15.1,6.8,15.1,15.2v173.1c0,8.3-6.8,15.2-15.1,15.2H1540
			c-8.3,0-15.1-6.8-15.1-15.2v-173.1C1524.9,1474.4,1531.7,1467.5,1540,1467.5z"/>
		<path class="st31" d="M1566.4,1467.5h289.3c8.3,0,15.1,6.8,15.1,15.2v173.1c0,8.3-6.8,15.2-15.1,15.2h-289.3
			c-8.3,0-15.1-6.8-15.1-15.2v-173.1C1551.3,1474.4,1558.1,1467.5,1566.4,1467.5z"/>
		<path class="st32" d="M1568.4,1467.5c-5.1,0-9.4,4.2-9.4,9.4v49c0,19.5,16,35.5,35.5,35.5h233.2c19.5,0,35.5-16,35.5-35.5v-49
			c0-5.1-4.2-9.4-9.4-9.4H1568.4z"/>
		<path class="st33" d="M1827.7,1564.4h-233.2c-1.7,0-3-1.3-3-3s1.3-3,3-3h233.2c1.7,0,3,1.3,3,3S1829.3,1564.4,1827.7,1564.4z"/>
		<path class="st5" d="M1691.9,1553.6h38.4c2.6,0,4.8,2.2,4.8,4.8v17.4c0,2.6-2.2,4.8-4.8,4.8h-38.4c-2.6,0-4.8-2.2-4.8-4.8v-17.4
			C1687.1,1555.8,1689.2,1553.6,1691.9,1553.6z"/>
		<rect x="1695.7" y="1562.3" class="st4" width="30.8" height="9.8"/>
	</g>
	<path class="st0" d="M1342.9,1726.3H974.8c-1.7,0-3-1.3-3-3s1.3-3,3-3h368.1c1.7,0,3,1.3,3,3S1344.5,1726.3,1342.9,1726.3z"/>
	<path class="st0" d="M1731.5,134.9c-1.7,0-3-1.3-3-3V96.7c0-1.7,1.3-3,3-3s3,1.3,3,3v35.1C1734.5,133.5,1733.2,134.9,1731.5,134.9z
		 M1777.1,116c-0.8,0-1.5-0.3-2.1-0.9l-24.9-24.9c-1.2-1.2-1.2-3.1,0-4.2c1.2-1.2,3.1-1.2,4.2,0l24.9,24.9c1.2,1.2,1.2,3.1,0,4.2
		C1778.6,115.7,1777.9,116,1777.1,116z M1686,116c-0.8,0-1.5-0.3-2.1-0.9c-1.2-1.2-1.2-3.1,0-4.2l24.9-24.9c1.2-1.2,3.1-1.2,4.2,0
		c1.2,1.2,1.2,3.1,0,4.2l-24.9,24.9C1687.5,115.7,1686.7,116,1686,116z M1796,70.4h-35.1c-1.7,0-3-1.3-3-3s1.3-3,3-3h35.1
		c1.7,0,3,1.3,3,3S1797.6,70.4,1796,70.4z M1702.2,70.4h-35.1c-1.7,0-3-1.3-3-3s1.3-3,3-3h35.1c1.7,0,3,1.3,3,3
		S1703.9,70.4,1702.2,70.4z M1752.2,49.7c-0.8,0-1.5-0.3-2.1-0.9c-1.2-1.2-1.2-3.1,0-4.2l24.9-24.9c1.2-1.2,3.1-1.2,4.2,0
		c1.2,1.2,1.2,3.1,0,4.2l-24.9,24.9C1753.8,49.4,1753,49.7,1752.2,49.7z M1710.8,49.7c-0.8,0-1.5-0.3-2.1-0.9L1683.8,24
		c-1.2-1.2-1.2-3.1,0-4.2c1.2-1.2,3.1-1.2,4.2,0l24.9,24.9c1.2,1.2,1.2,3.1,0,4.2C1712.4,49.4,1711.6,49.7,1710.8,49.7z
		 M1731.5,41.1c-1.7,0-3-1.3-3-3V3c0-1.7,1.3-3,3-3s3,1.3,3,3v35.1C1734.5,39.8,1733.2,41.1,1731.5,41.1z"/>
	<g>
		<path class="st7" d="M1343.2,693l-31.8-212.3l-106.1,124.8c-13.6,16-20.2,34-20.2,55v106.8c0,5.8,4.8,10.6,10.6,10.6h20.1
			l47.3-84.9L1343.2,693L1343.2,693z"/>
		<path class="st7" d="M1534.3,693l31.8-212.3l106.1,124.8c13.6,16,20.2,34,20.2,55v106.8c0,5.8-4.8,10.6-10.6,10.6h-20.1
			l-47.3-84.9L1534.3,693L1534.3,693z"/>
		<path class="st14" d="M1343.2,693h95.5h95.5c156.6-212.3,125.5-530.8-95.5-637C1217.7,162.2,1186.6,480.7,1343.2,693z"/>
		<path class="st15" d="M1567.8,644c-0.5,0-1-0.1-1.5-0.4c-1.4-0.8-2-2.6-1.2-4.1c79.7-142.5,85.4-317.2,14.6-445.1
			c-0.8-1.4-0.3-3.3,1.2-4.1c1.5-0.8,3.3-0.3,4.1,1.2c71.8,129.7,66,306.7-14.7,450.9C1569.8,643.4,1568.8,644,1567.8,644z
			 M1309.7,644c-1.1,0-2.1-0.6-2.6-1.5c-80.7-144.3-86.4-321.3-14.7-450.9c0.8-1.5,2.6-2,4.1-1.2c1.4,0.8,2,2.6,1.2,4.1
			c-70.8,127.9-65,302.6,14.6,445.1c0.8,1.4,0.3,3.3-1.2,4.1C1310.7,643.8,1310.2,644,1309.7,644z"/>
		<path class="st5" d="M1438.7,905.3c74.3-21.2,127.4-116.8,95.5-191.1h-95.5h-95.5C1311.3,788.5,1364.4,884.1,1438.7,905.3z"/>
		<path class="st10" d="M1343.2,693h191.1c5.8,0,10.6,4.8,10.6,10.6s-4.8,10.6-10.6,10.6h-191.1c-5.8,0-10.6-4.8-10.6-10.6
			C1332.6,697.8,1337.3,693,1343.2,693z"/>
		<path class="st6" d="M1438.7,841.6c37.6-14.2,64.4-77.8,48.3-127.4h-48.3h-48.3C1374.3,763.8,1401.1,827.4,1438.7,841.6z"/>
		<path class="st22" d="M1372.1,693h66.6h66.6c109.2-212.3,87.5-530.8-66.6-637C1284.6,162.2,1262.9,480.7,1372.1,693z"/>
		<path class="st7" d="M1547.1,141c-28.8-34.9-64.9-64-108.4-84.9c-43.5,20.9-79.6,50-108.4,84.9H1547.1z"/>
		
			<ellipse transform="matrix(0.998 -6.375925e-02 6.375925e-02 0.998 -19.6031 92.4549)" class="st10" cx="1438.8" cy="353.4" rx="72.4" ry="72.4"/>
		<circle class="st34" cx="1438.7" cy="353.3" r="54.3"/>
		<path class="st7" d="M1428.1,523.1h21.2c5.8,0,10.6,4.8,10.6,10.6v233.6c0,5.8-4.8,10.6-10.6,10.6h-21.2
			c-5.8,0-10.6-4.8-10.6-10.6V533.7C1417.5,527.9,1422.3,523.1,1428.1,523.1z"/>
		<path class="st8" d="M1537.3,132.6c-0.8,0-1.6-0.3-2.2-1c-27.3-30.2-59.7-54.5-96.4-72.3c-36.7,17.8-69.1,42.1-96.4,72.3
			c-1.1,1.2-3,1.3-4.2,0.2c-1.2-1.1-1.3-3-0.2-4.2c28.1-31.1,61.6-56.1,99.5-74.3c0.8-0.4,1.8-0.4,2.6,0
			c37.9,18.2,71.4,43.2,99.5,74.3c1.1,1.2,1,3.1-0.2,4.2C1538.8,132.4,1538,132.6,1537.3,132.6z"/>
		<path class="st8" d="M1692.4,770.3c-1.7,0-3-1.3-3-3V660.5c0-20.3-6.4-37.6-19.5-53.1l-39-45.9c-1.1-1.3-0.9-3.2,0.3-4.2
			c1.3-1.1,3.2-0.9,4.2,0.3l39,45.9c14.1,16.6,20.9,35.2,20.9,56.9v106.8C1695.4,768.9,1694.1,770.3,1692.4,770.3z M1654.1,767.3
			c-1.1,0-2.1-0.6-2.6-1.5l-39.7-71.4c-0.8-1.4-0.3-3.3,1.2-4.1c1.4-0.8,3.3-0.3,4.1,1.2l39.7,71.4c0.8,1.4,0.3,3.3-1.2,4.1
			C1655.1,767.2,1654.6,767.3,1654.1,767.3z"/>
		<path class="st8" d="M1185,770.3c-1.7,0-3-1.3-3-3V660.5c0-21.7,6.8-40.4,20.9-56.9l39-45.9c1.1-1.3,3-1.4,4.2-0.3
			c1.3,1.1,1.4,3,0.3,4.2l-39,45.9c-13.1,15.4-19.5,32.8-19.5,53.1v106.8C1188,768.9,1186.7,770.3,1185,770.3z M1223.3,767.3
			c-0.5,0-1-0.1-1.5-0.4c-1.4-0.8-2-2.6-1.2-4.1l39.7-71.4c0.8-1.4,2.6-2,4.1-1.2c1.4,0.8,2,2.6,1.2,4.1l-39.7,71.4
			C1225.4,766.8,1224.4,767.3,1223.3,767.3z"/>
		<path class="st35" d="M1438.7,908.3c-0.3,0-0.6,0-0.8-0.1c-24.6-7-47.6-22.1-66.5-43.6c-18.2-20.6-31.4-46.4-37.2-72.4
			c-0.4-1.6,0.7-3.2,2.3-3.6c1.6-0.4,3.2,0.7,3.6,2.3c11.6,52,52.1,97.6,98.6,111.3c46.5-13.7,87-59.3,98.6-111.3
			c0.4-1.6,2-2.6,3.6-2.3c1.6,0.4,2.6,2,2.3,3.6c-5.8,26.1-19,51.8-37.2,72.4c-18.9,21.5-41.9,36.5-66.5,43.6
			C1439.3,908.3,1439,908.3,1438.7,908.3z M1543.6,769.8c0,0-0.1,0-0.1,0c-1.7-0.1-2.9-1.5-2.9-3.1c0.4-10.3-0.4-20.4-2.4-30
			c-0.3-1.6,0.7-3.2,2.3-3.6c1.6-0.3,3.2,0.7,3.6,2.3c2.1,10.1,3,20.7,2.5,31.5C1546.5,768.5,1545.2,769.8,1543.6,769.8z
			 M1333.9,769.8c-1.6,0-2.9-1.3-3-2.9c-0.4-10.8,0.4-21.4,2.5-31.5c0.3-1.6,1.9-2.7,3.6-2.3c1.6,0.3,2.7,1.9,2.3,3.6
			c-2,9.6-2.8,19.7-2.4,30c0.1,1.7-1.2,3.1-2.9,3.1C1334,769.8,1333.9,769.8,1333.9,769.8z"/>
	</g>
	<path class="st22" d="M1063.9,665.3c-5.5,0.6-10.4,3.1-14.1,6.8c-3.7,3.7-6.2,8.6-6.8,14.1c-0.4,3.6-5.7,3.6-6.1,0
		c-0.6-5.5-3.1-10.4-6.8-14.1s-8.6-6.2-14.1-6.8c-3.6-0.4-3.6-5.7,0-6.1c5.5-0.6,10.4-3.1,14.1-6.8s6.2-8.6,6.8-14.1
		c0.4-3.6,5.7-3.6,6.1,0c0.6,5.5,3.1,10.4,6.8,14.1c3.7,3.7,8.6,6.2,14.1,6.8C1067.4,659.5,1067.4,664.9,1063.9,665.3z"/>
	<path class="st22" d="M1278.2,895.5c-2.1,0.2-3.9,1.2-5.3,2.6c-1.4,1.4-2.3,3.2-2.6,5.3c-0.2,1.3-2.2,1.3-2.3,0
		c-0.2-2.1-1.2-3.9-2.6-5.3c-1.4-1.4-3.2-2.3-5.3-2.6c-1.3-0.2-1.3-2.2,0-2.3c2.1-0.2,3.9-1.2,5.3-2.6c1.4-1.4,2.3-3.2,2.6-5.3
		c0.2-1.3,2.2-1.3,2.3,0c0.2,2.1,1.2,3.9,2.6,5.3c1.4,1.4,3.2,2.3,5.3,2.6C1279.5,893.4,1279.5,895.4,1278.2,895.5z"/>
	<path class="st15" d="M964.1,328.3c-0.8,0-1.5-0.3-2.1-0.9l-13.3-13.3c-1.2-1.2-1.2-3.1,0-4.2c1.2-1.2,3.1-1.2,4.2,0l13.3,13.3
		c1.2,1.2,1.2,3.1,0,4.2C965.6,328,964.8,328.3,964.1,328.3z M910.9,328.3c-0.8,0-1.5-0.3-2.1-0.9c-1.2-1.2-1.2-3.1,0-4.2l13.3-13.3
		c1.2-1.2,3.1-1.2,4.2,0c1.2,1.2,1.2,3.1,0,4.2L913,327.4C912.5,328,911.7,328.3,910.9,328.3z M924.2,288.4c-0.8,0-1.5-0.3-2.1-0.9
		l-13.3-13.3c-1.2-1.2-1.2-3.1,0-4.2s3.1-1.2,4.2,0l13.3,13.3c1.2,1.2,1.2,3.1,0,4.2C925.7,288.1,925,288.4,924.2,288.4z
		 M950.8,288.4c-0.8,0-1.5-0.3-2.1-0.9c-1.2-1.2-1.2-3.1,0-4.2l13.3-13.3c1.2-1.2,3.1-1.2,4.2,0c1.2,1.2,1.2,3.1,0,4.2l-13.3,13.3
		C952.3,288.1,951.5,288.4,950.8,288.4z"/>
</g>
</svg>
