<?xml version="1.0" encoding="utf-8"?>
<!-- Generator: Adobe Illustrator 24.3.0, SVG Export Plug-In . SVG Version: 6.00 Build 0)  -->
<svg version="1.1" id="Capa_1" xmlns="http://www.w3.org/2000/svg" xmlns:xlink="http://www.w3.org/1999/xlink" x="0px" y="0px"
	 viewBox="0 0 512 512" style="enable-background:new 0 0 512 512;" xml:space="preserve">
<style type="text/css">
	.st0{fill-rule:evenodd;clip-rule:evenodd;fill:#FFDCD5;}
	.st1{fill-rule:evenodd;clip-rule:evenodd;fill:#FF6E00;}
	.st2{fill-rule:evenodd;clip-rule:evenodd;fill:#B8ECBC;}
	.st3{fill-rule:evenodd;clip-rule:evenodd;fill:#FF9EB1;}
	.st4{fill-rule:evenodd;clip-rule:evenodd;fill:#FFFFFF;}
</style>
<g>
	<g>
		<path class="st0" d="M35.2,152.6l-9,134c-1.2,31.3,8.9,40.2,27.3,56.9c15.8,14.3,52.2,40.6,52.2,69.4v10.9h103.6v-27
			c-0.4-14.7-0.7-28.8-4.6-43c-7.6-28.7-23-48.5-62.3-59.1c-5.7-1.5-7.2-1.8-10.8-7.6L107.2,247c-4.6-7.5-12.8-11.3-20.9-11
			l-6.5-83.5c-0.9-12.2-10-22.4-22.3-22.4S36,140.3,35.2,152.6L35.2,152.6z"/>
	</g>
	<g>
		<path class="st0" d="M309.3,353.5c-3.8,14.3-4.2,28.3-4.6,43v27h103.7v-10.9c0-28.8,36.4-55.1,52.2-69.4
			c12.8-11.7,21.7-19.5,25.3-33.8v-51.9l-7-105c-0.8-12.3-10.1-22.3-22.4-22.3c-12.3,0-21.4,10.2-22.3,22.4l-6.5,83.5
			c-8.2-0.4-16.4,3.5-20.9,11l-24.4,39.7c-3.6,5.8-5.1,6.1-10.8,7.6C332.3,305,316.9,324.8,309.3,353.5L309.3,353.5z"/>
	</g>
	<g>
		<path class="st1" d="M408.5,423.6H304.8h-2.2c-7.8,0-14.2,6.4-14.2,14.2v34.1c0,7.8,6.4,14.2,14.2,14.2h108
			c7.8,0,14.2-6.4,14.2-14.2v-34.1c0-7.8-6.4-14.2-14.2-14.2H408.5z"/>
	</g>
	<g>
		<path class="st1" d="M103.4,423.6c-7.8,0-14.2,6.4-14.2,14.2v34.1c0,7.8,6.4,14.2,14.2,14.2h108c7.8,0,14.2-6.4,14.2-14.2v-34.1
			c0-7.8-6.4-14.2-14.2-14.2h-2.2H105.6H103.4z"/>
	</g>
	<g>
		<path class="st2" d="M283.7,26v101.7h0.1L337,92.8V26H283.7z"/>
	</g>
	<g>
		<path class="st3" d="M230.4,26v101.7c8.4-2.8,17.3-4.3,26.7-4.3s18.3,1.5,26.7,4.3V26H230.4z"/>
	</g>
	<g>
		<path class="st2" d="M177,26v66.8l53.3,34.9h0.1V26H177z"/>
	</g>
	<g>
		<path class="st1" d="M257,164.8c23.4,0,42.3,19,42.3,42.3s-19,42.3-42.3,42.3s-42.3-19-42.3-42.3S233.6,164.8,257,164.8L257,164.8
			z M230.3,127.7c-33.2,11.1-57.1,42.5-57.1,79.4c0,46.3,37.5,83.7,83.7,83.7s83.7-37.5,83.7-83.7c0-36.9-23.9-68.2-57-79.4h-0.1
			c-8.4-2.8-17.3-4.3-26.7-4.3C247.7,123.4,238.7,124.9,230.3,127.7L230.3,127.7z"/>
	</g>
	<g>
		<path class="st4" d="M257,164.8c-23.4,0-42.3,19-42.3,42.3s19,42.3,42.3,42.3s42.3-19,42.3-42.3S280.3,164.8,257,164.8L257,164.8z
			"/>
	</g>
</g>
</svg>
