<svg width="30" height="20" viewBox="0 0 30 20" fill="none" xmlns="http://www.w3.org/2000/svg">
<path d="M30 -0.00390625H0V19.9961H30V-0.00390625Z" fill="#F1F0F0"/>
<path d="M30 2.50195H0V5.00195H30V2.50195Z" fill="#D81F2A"/>
<path d="M30 7.50195H0V10.002H30V7.50195Z" fill="#D81F2A"/>
<path d="M30 12.502H0V15.002H30V12.502Z" fill="#D81F2A"/>
<path d="M30 17.502H0V20.002H30V17.502Z" fill="#D81F2A"/>
<path d="M15 -0.00390625H0V10.7961H15V-0.00390625Z" fill="#3755A6"/>
<path d="M5.84375 4.4707L5.64375 5.1707H4.84375L5.44375 5.6707L5.24375 6.3707L5.84375 5.8707L6.44375 6.3707L6.24375 5.6707L6.84375 5.1707H6.04375L5.84375 4.4707Z" fill="#F1F0F0"/>
<path d="M6.04375 7.86992L5.84375 7.16992L5.64375 7.86992H4.84375L5.44375 8.36992L5.24375 9.06992L5.84375 8.56992L6.44375 9.06992L6.24375 8.36992L6.84375 7.86992H6.04375Z" fill="#F1F0F0"/>
<path d="M2.74688 7.86992L2.54688 7.16992L2.34687 7.86992H1.54688L2.14687 8.36992L1.94687 9.06992L2.54688 8.56992L3.14687 9.06992L2.94687 8.36992L3.54688 7.86992H2.74688Z" fill="#F1F0F0"/>
<path d="M2.54688 4.4707L2.34687 5.1707H1.54688L2.14687 5.6707L1.94687 6.3707L2.54688 5.8707L3.14687 6.3707L2.94687 5.6707L3.54688 5.1707H2.74688L2.54688 4.4707Z" fill="#F1F0F0"/>
<path d="M5.84375 1.76953L5.64375 2.46953H4.84375L5.44375 2.96953L5.24375 3.66953L5.84375 3.16953L6.44375 3.66953L6.24375 2.96953L6.84375 2.46953H6.04375L5.84375 1.76953Z" fill="#F1F0F0"/>
<path d="M2.54688 1.76953L2.34687 2.46953H1.54688L2.14687 2.96953L1.94687 3.66953L2.54688 3.16953L3.14687 3.66953L2.94687 2.96953L3.54688 2.46953H2.74688L2.54688 1.76953Z" fill="#F1F0F0"/>
<path d="M9.14844 4.4707L8.94844 5.1707H8.14844L8.74844 5.6707L8.54844 6.3707L9.14844 5.8707L9.74844 6.3707L9.54844 5.6707L10.1484 5.1707H9.34844L9.14844 4.4707Z" fill="#F1F0F0"/>
<path d="M9.34844 7.86992L9.14844 7.16992L8.94844 7.86992H8.14844L8.74844 8.36992L8.54844 9.06992L9.14844 8.56992L9.74844 9.06992L9.54844 8.36992L10.1484 7.86992H9.34844Z" fill="#F1F0F0"/>
<path d="M12.6453 7.87031L12.4453 7.07031L12.2453 7.77031H11.4453L12.0453 8.27031L11.8453 8.97031L12.4453 8.47031L13.0453 8.97031L12.8453 8.27031L13.4453 7.77031H12.6453V7.87031Z" fill="#F1F0F0"/>
<path d="M12.4453 4.4707L12.2453 5.1707H11.4453L12.0453 5.6707L11.8453 6.3707L12.4453 5.8707L13.0453 6.3707L12.8453 5.6707L13.4453 5.1707H12.6453L12.4453 4.4707Z" fill="#F1F0F0"/>
<path d="M9.14844 1.76953L8.94844 2.46953H8.14844L8.74844 2.96953L8.54844 3.66953L9.14844 3.16953L9.74844 3.66953L9.54844 2.96953L10.1484 2.46953H9.34844L9.14844 1.76953Z" fill="#F1F0F0"/>
<path d="M12.4453 1.76953L12.2453 2.46953H11.4453L12.0453 2.96953L11.8453 3.66953L12.4453 3.26953L13.0453 3.66953L12.8453 2.96953L13.4453 2.46953H12.6453L12.4453 1.76953Z" fill="#F1F0F0"/>
</svg>
