<svg version="1.1" id="Layer_1" xmlns="http://www.w3.org/2000/svg" x="0" y="0" viewBox="0 0 519.9 306" style="enable-background:new 0 0 519.9 306" xml:space="preserve"><style>.st0{fill:#fff}.st1{fill:#4fb5fd}.st2{fill:#ddd}.st3{fill:#0d1a38}.st18{fill:#5b88aa}.st20{fill:#f8a887}.st21{fill:#13207c}.st22{fill:#09161c}.st30{fill:#426482}</style><path class="st0" d="m132.3.8-121.6 306h510V.8z"/><path class="st1" d="M146.2 240.4c-3.3 0-6.1 2.7-6.1 6.1 0 3.3 2.7 6.1 6.1 6.1 3.3 0 6.1-2.7 6.1-6.1 0-3.3-2.7-6.1-6.1-6.1zm0 10.7c-2.6 0-4.6-2.1-4.6-4.6 0-2.6 2.1-4.6 4.6-4.6 2.6 0 4.6 2.1 4.6 4.6.1 2.6-2.1 4.6-4.6 4.6zM494.2 268.7c-3.3 0-6.1 2.7-6.1 6.1s2.7 6.1 6.1 6.1c3.3 0 6.1-2.7 6.1-6.1s-2.8-6.1-6.1-6.1zm0 10.8c-2.6 0-4.6-2.1-4.6-4.6 0-2.6 2.1-4.6 4.6-4.6s4.6 2.1 4.6 4.6c0 2.5-2.1 4.6-4.6 4.6z"/><path class="st2" d="M325.8 282h86.9v1.1h-86.9z"/><path class="st0" d="M481.1 274.9h11.8v1.1h-11.8zM145 274.9h11.8v1.1H145zM370.8 111.3l-.2-.2c1.2-1.3 4.3-1.9 5.1-2-1-2.4-11.5-28.9-12.1-39.6h.2c.6 11.1 12 39.5 12.1 39.7l.1.2h-.2c.1 0-3.7.5-5 1.9z"/><path transform="rotate(-45.001 189.407 90.102)" class="st0" d="M184.5 85.2h9.9v9.9h-9.9z"/><path class="st2" d="M163.3 274.9H473v1.1H163.3z"/><path class="st0" d="M234.9 136.5s-.4-.8-1.3-1.1l.1-.2c1.2.2 1.5 1.2 1.5 1.3h-.3z"/><g><path class="st2" d="M171 289.8h268.3v1.1H171z"/></g><g><path class="st1" d="M218.3 45.8c-3.3 0-6.1 2.7-6.1 6.1 0 3.3 2.7 6.1 6.1 6.1s6.1-2.7 6.1-6.1c-.1-3.3-2.7-6.1-6.1-6.1zm0 10.7c-2.6 0-4.6-2.1-4.6-4.6 0-2.6 2.1-4.6 4.6-4.6s4.6 2.1 4.6 4.6c0 2.5-2 4.6-4.6 4.6z"/><path class="st0" d="M256.2 114.8c-.5-1-1.7-1.2-2.6-.7-1 .5-1.2 1.7-.7 2.6.5 1 1.7 1.2 2.6.7.8-.6 1.2-1.7.7-2.6zM295.5 187.1c-.5-1-1.7-1.2-2.6-.7-1 .5-1.2 1.7-.7 2.6.5 1 1.7 1.2 2.6.7.9-.6 1.2-1.7.7-2.6zM183.3 248.5c-.5-1-1.7-1.2-2.6-.7-1 .5-1.2 1.7-.7 2.6s1.7 1.2 2.6.7c.8-.6 1.2-1.8.7-2.6z"/><g id="hand_x5F_with_x5F_phone"><path class="st3" d="M257.3 64.4c-1.3 0-2.5-1.1-2.5-2.5V48c0-1.3 1.1-2.5 2.5-2.5 1.3 0 2.5 1.1 2.5 2.5v13.9c-.2 1.4-1.2 2.5-2.5 2.5zM257.3 85.5c-1.3 0-2.5-1.1-2.5-2.5V69.1c0-1.3 1.1-2.5 2.5-2.5 1.3 0 2.5 1.1 2.5 2.5v14c-.2 1.4-1.2 2.4-2.5 2.4z"/><path class="st3" d="M384.5 273.8H259.3c-1.1 0-1.9-.8-1.9-1.9V22.2c0-1.1.8-1.9 1.9-1.9h125.2c1.1 0 1.9.8 1.9 1.9V272c0 1-.9 1.8-1.9 1.8z"/><path d="M263 41.4v204.7h117.8V41.4c0-2.9-.8-5.5-2.4-7.6H265.3c-1.5 2-2.3 4.8-2.3 7.6z" style="fill:#cae8fd"/><path d="M351.3 33.7h-58.8c-3.6 0-6.4-2.9-6.4-6.4 0-3.6 2.9-6.4 6.4-6.4h58.8c3.6 0 6.4 2.9 6.4 6.4 0 3.5-2.8 6.4-6.4 6.4z" style="fill:#252d3f"/></g><linearGradient id="SVGID_1_" gradientUnits="userSpaceOnUse" x1="320.737" y1="-862.307" x2="320.737" y2="-786.012" gradientTransform="matrix(1 0 0 -1 0 -590.56)"><stop offset="0" style="stop-color:#4fb5fd"/><stop offset="1" style="stop-color:#75e1ff"/></linearGradient><path d="M372.2 215.5H269.3c-.6 0-1.1-.5-1.1-1.1v-19c0-.6.5-1.1 1.1-1.1h102.9c.6 0 1.1.5 1.1 1.1v19c0 .6-.5 1.1-1.1 1.1z" style="opacity:.32;fill:url(#SVGID_1_);enable-background:new"/><g style="opacity:.54"><linearGradient id="SVGID_2_" gradientUnits="userSpaceOnUse" x1="281.685" y1="-807.126" x2="281.685" y2="-851.473" gradientTransform="matrix(1 0 0 -1 0 -590.56)"><stop offset="0" style="stop-color:#1e445e"/><stop offset="1" style="stop-color:#75e1ff"/></linearGradient><path d="M289.5 203.7h-15.6c-.2 0-.5-.2-.5-.5v-3.4c0-.2.2-.5.5-.5h15.6c.2 0 .5.2.5.5v3.4c-.1.3-.3.5-.5.5z" style="fill:url(#SVGID_2_)"/><linearGradient id="SVGID_3_" gradientUnits="userSpaceOnUse" x1="330.545" y1="-807.126" x2="330.545" y2="-851.473" gradientTransform="matrix(1 0 0 -1 0 -590.56)"><stop offset="0" style="stop-color:#1e445e"/><stop offset="1" style="stop-color:#75e1ff"/></linearGradient><path d="M366.5 203.7h-71.9c-.2 0-.5-.2-.5-.5v-3.4c0-.2.2-.5.5-.5h71.9c.2 0 .5.2.5.5v3.4c0 .3-.3.5-.5.5z" style="fill:url(#SVGID_3_)"/><linearGradient id="SVGID_4_" gradientUnits="userSpaceOnUse" x1="355.628" y1="-814.042" x2="355.628" y2="-858.389" gradientTransform="matrix(1 0 0 -1 0 -590.56)"><stop offset="0" style="stop-color:#1e445e"/><stop offset="1" style="stop-color:#75e1ff"/></linearGradient><path d="M366.5 210.6h-21.8c-.2 0-.5-.2-.5-.5v-3.4c0-.2.2-.5.5-.5h21.8c.2 0 .5.2.5.5v3.4c0 .3-.3.5-.5.5z" style="fill:url(#SVGID_4_)"/><g><linearGradient id="SVGID_5_" gradientUnits="userSpaceOnUse" x1="292.325" y1="-814.042" x2="292.325" y2="-858.389" gradientTransform="matrix(1 0 0 -1 0 -590.56)"><stop offset="0" style="stop-color:#1e445e"/><stop offset="1" style="stop-color:#75e1ff"/></linearGradient><path d="M310.8 210.6h-36.9c-.2 0-.5-.2-.5-.5v-3.4c0-.2.2-.5.5-.5h36.9c.2 0 .5.2.5.5v3.4c-.1.3-.3.5-.5.5z" style="fill:url(#SVGID_5_)"/><linearGradient id="SVGID_6_" gradientUnits="userSpaceOnUse" x1="327.929" y1="-814.042" x2="327.929" y2="-858.389" gradientTransform="matrix(1 0 0 -1 0 -590.56)"><stop offset="0" style="stop-color:#1e445e"/><stop offset="1" style="stop-color:#75e1ff"/></linearGradient><path d="M340.8 210.6H315c-.2 0-.5-.2-.5-.5v-3.4c0-.2.2-.5.5-.5h25.8c.2 0 .5.2.5.5v3.4c0 .3-.2.5-.5.5z" style="fill:url(#SVGID_6_)"/></g></g><circle class="st1" cx="371.4" cy="193.9" r="5.3"/><path class="st0" d="M375.4 193c0-.4-.2-.7-.7-.7H372.3s.2-.4.5-.8c.2-.4.4-1.7-.4-1.5-.6.1-.5.7-.6 1.2-.1.5-.6.7-1.2 1.3-.4.5-.7.6-1 .6v-.1c0-.1-.1-.1-.1-.1H368c-.1 0-.1.1-.1.1v3.7c0 .1.1.1.1.1h1.5c.1 0 .1-.1.1-.1v-.1h.4c.4 0 .6.1 1 .1h2.3c.4 0 .6-.2.6-.6 0-.1 0-.2-.1-.4.4 0 .6-.4.6-.6 0-.1 0-.2-.1-.4.4 0 .6-.4.6-.7 0-.1 0-.2-.1-.4.4 0 .6-.2.6-.6z"/><g><linearGradient id="SVGID_7_" gradientUnits="userSpaceOnUse" x1="265.221" y1="-707.116" x2="368.17" y2="-707.116" gradientTransform="matrix(1 0 0 -1 0 -590.56)"><stop offset="0" style="stop-color:#4fb5fd"/><stop offset="1" style="stop-color:#75e1ff"/></linearGradient><path d="M366.7 130.3H266.6c-.8 0-1.4-.6-1.4-1.4v-24.7c0-.8.6-1.4 1.4-1.4h100.1c.8 0 1.4.6 1.4 1.4v24.7c.1.9-.5 1.4-1.4 1.4z" style="opacity:.32;fill:url(#SVGID_7_);enable-background:new"/><linearGradient id="SVGID_8_" gradientUnits="userSpaceOnUse" x1="310.821" y1="-706.803" x2="405.652" y2="-704.816" gradientTransform="matrix(1 0 0 -1 0 -590.56)"><stop offset="0" style="stop-color:#4fb5fd"/><stop offset="1" style="stop-color:#75e1ff"/></linearGradient><path d="M287 126.8h-16.3c-1 0-1.8-.8-1.8-1.8v-16.2c0-1 .8-1.8 1.8-1.8h16.4c1 0 1.8.8 1.8 1.8V125c-.1.9-1 1.8-1.9 1.8z" style="opacity:.32;fill:url(#SVGID_8_);enable-background:new"/><path class="st0" d="M310.6 106.2h32.7v3.2h-32.7zM293.9 113.7h66.2v3.2h-66.2zM293.9 121.2h66.2v3.2h-66.2z"/></g><g><linearGradient id="SVGID_9_" gradientUnits="userSpaceOnUse" x1="293.816" y1="-727.986" x2="293.816" y2="-683.09" gradientTransform="matrix(1 0 0 -1 0 -590.56)"><stop offset="0" style="stop-color:#cdf8ff"/><stop offset="1" style="stop-color:#a6ceff"/></linearGradient><path d="M314.7 94H273c-1.3 0-2.3-1.1-2.3-2.3V44.2c0-1.3 1.1-2.3 2.3-2.3h41.7c1.3 0 2.3 1.1 2.3 2.3v47.6c.1 1.2-1 2.2-2.3 2.2z" style="opacity:.43;fill:url(#SVGID_9_);enable-background:new"/><path class="st0" d="M273.9 51.6h39.8v6.1h-39.8zM273.9 64.8h39.8v6.1h-39.8zM273.9 78h39.8v6.1h-39.8z"/></g><g><g style="opacity:.55"><path d="M270.2 189.4h93.3c1 0 1.8-.8 1.8-1.8v-55.8c0-1-.8-1.8-1.8-1.8h-93.3c-1 0-1.8.8-1.8 1.8v55.8c.1 1 .9 1.8 1.8 1.8z" style="fill:#d4edf9"/></g><path class="st0" d="M346.3 135.7h-29.1c-1.7 0-3 1.3-3 3v7.3c0 1.7 1.3 3 3 3h3.7l2 6.2 3.7-6.2h19.7c1.7 0 3-1.3 3-3v-7.3c0-1.7-1.3-3-3-3z"/><path class="st18" d="M326.2 141.2H318c-.2 0-.5-.2-.5-.5v-.8c0-.2.2-.5.5-.5h8.2c.2 0 .5.2.5.5v.8c.1.2-.1.5-.5.5zM336.1 141.2h-8.2c-.2 0-.5-.2-.5-.5v-.8c0-.2.2-.5.5-.5h8.2c.2 0 .5.2.5.5v.8c-.1.2-.3.5-.5.5zM343.3 141.2h-5.6c-.2 0-.5-.2-.5-.5v-.8c0-.2.2-.5.5-.5h5.6c.2 0 .5.2.5.5v.8c.1.2-.1.5-.5.5z"/><g><path class="st18" d="M338.8 145.3h-13.2c-.2 0-.5-.2-.5-.5v-.8c0-.2.2-.5.5-.5h13.2c.2 0 .5.2.5.5v.8c0 .3-.3.5-.5.5zM343.6 145.3h-3.1c-.2 0-.5-.2-.5-.5v-.8c0-.2.2-.5.5-.5h3.1c.2 0 .5.2.5.5v.8c-.1.3-.3.5-.5.5z"/></g><g><path class="st0" d="M358.9 153.3h-29.1c-1.7 0-3 1.3-3 3v7.3c0 1.7 1.3 3 3 3h3.7l2 6.2 3.7-6.2h19.7c1.7 0 3-1.3 3-3v-7.3c0-1.7-1.3-3-3-3z"/><path class="st18" d="M340.1 158.8h-7.7c-.2 0-.5-.2-.5-.5v-.8c0-.2.2-.5.5-.5h7.7c.2 0 .5.2.5.5v.8c0 .2-.2.5-.5.5zM349.5 158.8h-7.7c-.2 0-.5-.2-.5-.5v-.8c0-.2.2-.5.5-.5h7.7c.2 0 .5.2.5.5v.8c0 .2-.3.5-.5.5zM356.5 158.8h-5.3c-.2 0-.5-.2-.5-.5v-.8c0-.2.2-.5.5-.5h5.3c.2 0 .5.2.5.5v.8c0 .2-.2.5-.5.5z"/><g><path class="st18" d="M352.1 162.9h-12.6c-.2 0-.5-.2-.5-.5v-.8c0-.2.2-.5.5-.5h12.6c.2 0 .5.2.5.5v.8c0 .3-.2.5-.5.5zM356.6 162.9h-3c-.2 0-.5-.2-.5-.5v-.8c0-.2.2-.5.5-.5h3c.2 0 .5.2.5.5v.8c0 .3-.2.5-.5.5z"/></g></g><g><path class="st0" d="M310 145.9h-29.1c-1.7 0-3 1.3-3 3v7.3c0 1.7 1.3 3 3 3h3.7l2 6.2 3.7-6.2H310c1.7 0 3-1.3 3-3v-7.3c.1-1.7-1.3-3-3-3z"/><path class="st18" d="M291 151.5h-7.8c-.2 0-.5-.2-.5-.5v-.8c0-.2.2-.5.5-.5h7.8c.2 0 .5.2.5.5v.8c.1.3-.1.5-.5.5zM300.5 151.5h-7.8c-.2 0-.5-.2-.5-.5v-.8c0-.2.2-.5.5-.5h7.8c.2 0 .5.2.5.5v.8c0 .3-.1.5-.5.5zM307.5 151.5h-5.3c-.2 0-.5-.2-.5-.5v-.8c0-.2.2-.5.5-.5h5.3c.2 0 .5.2.5.5v.8c.1.3-.1.5-.5.5z"/><g><path class="st18" d="M303.1 155.7h-12.7c-.2 0-.5-.2-.5-.5v-.8c0-.2.2-.5.5-.5h12.7c.2 0 .5.2.5.5v.8c0 .2-.2.5-.5.5zM307.8 155.7h-3c-.2 0-.5-.2-.5-.5v-.8c0-.2.2-.5.5-.5h3c.2 0 .5.2.5.5v.8c0 .2-.3.5-.5.5z"/></g></g></g><g><linearGradient id="SVGID_10_" gradientUnits="userSpaceOnUse" x1="-1841.04" y1="-1869.649" x2="-1881.717" y2="-1822.218" gradientTransform="rotate(-120.551 -257.594 -1459.2)"><stop offset="0" style="stop-color:#13207c"/><stop offset="1" style="stop-color:#004eba"/></linearGradient><path d="M221.2 110.8c1 1.5 13 18.9 15.1 20.3s20.9-1.1 21.4-1.1 0-4.5-.1-4.9c-.1-.4-16.9-1.4-16.9-1.4s-7-13.7-7.1-14.3c-.1-.3-12.4 1.4-12.4 1.4z" style="fill:url(#SVGID_10_)"/><path class="st0" d="M271.3 107.8c.1-.1 1.5-1.4 1.5-1.4 0 .1-2.6-3.4-2.7-3.3-.1.1-1.8 1.7-1.7 1.9.1.1 2.9 2.8 2.9 2.8z"/><path class="st20" d="M272.6 106.5c.4 0 2.3-1.1 2.3-2 0-1-2.5-2.3-3-2.4-.5-.1-2.1-1.3-3.3 0 1.1 1 4 4.4 4 4.4z"/><path class="st0" d="m216.5 215.9.1 3.3s-.5.7-1.5.7-1.3-.5-1.4-.7c-.1-.2-.5-3.7-.5-3.7l3.3.4z"/><path class="st21" d="M222.9 223H217c-.2-.1-.4-.1-.6-.2-.2-.1-1.2-.1-1.2-.1v.4h-2.5c0-.8.6-3.4.6-3.7 0-.2.2-.2.4-.2s.8.8 1.5.8 1.4-.8 1.7-.8c.2 0 .7.4.7.4s4.4 2.6 5 2.9c.4-.1.3.2.3.5z"/><path class="st22" d="M212.7 223c0-.2 0-.6.1-1h2.4c.6 0 1.4.5 2 .5h5.7v.5H217c-.2-.1-.4-.1-.6-.2-.2-.1-1.2-.1-1.2-.1v.4l-2.5-.1z"/><path class="st0" d="m241.4 215.9.1 3.3s-.5.7-1.5.7-1.3-.5-1.4-.7c-.1-.2-.5-3.7-.5-3.7l3.3.4z"/><path class="st21" d="M247.9 223H242c-.2-.1-.4-.1-.6-.2-.2-.1-1.2-.1-1.2-.1v.4h-2.5c0-.8.6-3.4.6-3.7 0-.2.2-.2.4-.2s.8.8 1.5.8 1.4-.8 1.7-.8c.2 0 .7.4.7.4s4.4 2.6 5 2.9c.4-.1.3.2.3.5z"/><path class="st22" d="M237.6 223c0-.2 0-.6.1-1h2.4c.6 0 1.4.5 2 .5h5.7v.5h-5.9c-.2-.1-.4-.1-.6-.2-.2-.1-1.2-.1-1.2-.1v.4l-2.5-.1z"/><linearGradient id="SVGID_11_" gradientUnits="userSpaceOnUse" x1="-3131.276" y1="-863.662" x2="-3131.276" y2="-926.092" gradientTransform="matrix(1 0 .096 -.9297 3439.315 -649.356)"><stop offset="0" style="stop-color:#13207c"/><stop offset="1" style="stop-color:#004eba"/></linearGradient><path d="m212.6 215.9 4.8.1c2.1-8.4 15.5-62.8 15.6-63.5.1-.8-12.7-.4-12.7-.4s-1 4.6-2.3 9.4c-1.5 5.7.2 22.3.2 22.3s-7.3 5.2-5.6 32.1z" style="fill:url(#SVGID_11_)"/><path class="st0" d="M217.3 216.2v-.2l-4.6-.1c-1.5-26.4 5.5-31.7 5.5-31.9h.1v-.1c0-.1-2.3-17.6.4-25.2l-.2-.1c-2.6 7.5-.6 24-.5 25.3-.7.6-7.1 6.5-5.6 32.1v.1l4.9.1z"/><linearGradient id="SVGID_12_" gradientUnits="userSpaceOnUse" x1="-3527.182" y1="-828.985" x2="-3527.182" y2="-891.414" gradientTransform="matrix(1 0 -.1254 -.9483 3657.659 -633.644)"><stop offset="0" style="stop-color:#13207c"/><stop offset="1" style="stop-color:#004eba"/></linearGradient><path d="m236.7 216.1 4.8.1c.1-8.7.6-64.1.5-64.8-.1-.8-12.8-.5-12.8-.5s.1 4.8-.1 9.5c-.2 5.8 5.6 22.8 5.6 22.8s-6 5.4 2 32.9z" style="fill:url(#SVGID_12_)"/><path class="st0" d="M241.4 216.4v-.5l-4.5-.1c-7.8-26.7-2.1-32.2-2.1-32.3l.1-.1v-.1c0-.1-5.6-15.7-5.6-21.9h-.5c0 5.9 5 20.2 5.6 21.9-.8 1-5.3 7.4 2.1 32.8v.1l4.9.2z"/><g><path class="st20" d="M234.8 100.5s2.4 12.2 2.4 12.8c0 .7-8.3 0-9.7-1.9-1.4-1.9 1.8-10.3-.7-13.9-2.5-3.7.4-4.4 1.4-3.7 1 .8 6.6 6.7 6.6 6.7z"/><path d="M231.8 99.2c.7 0 1.4.1 2 .2l1.1 1.1s.5 2.7 1.1 5.7c-1.6-.8-4.1-2.8-4.2-7z" style="opacity:.35;fill:#f8a887;enable-background:new"/><path class="st20" d="M240 91.9c0 .4.7 12-.2 13-1.1 1-5.2-1.3-6.2-1.9-1-.6-1.1-5.3-1.1-5.3s-5.7 1.1-4-3.8 3.1-9.2 7.3-6.8c4.2 2.1 4.2 4.8 4.2 4.8z"/><path d="M235 94.4c1.1-1.5 5.3-2.4 5.9-2.6s2.7-8.2-1.9-8.8-8.8 2.4-10.5 2.7c-1.7.4-2.4-.5-3.1-.4-.7.2-3.9 4.5-1.9 8 2 3.3 1 5.2 1.3 6.2.4 1 3.1 7.1 8.3-1.3.1.2.9-2.1 1.9-3.8z" style="fill:#0c144f"/><path class="st20" d="M231 97.9c.2 1.2 1 2.1 1.7 2.1s1.1-1 1-2.1c-.2-1.2-1-2.1-1.7-2.1-.8 0-1.3.9-1 2.1zM235.6 105s3.4.4 3.6 0c0-.2-3.4-3-3.4-3l-.5-.1.3 3.1z"/></g><linearGradient id="SVGID_13_" gradientUnits="userSpaceOnUse" x1="16.445" y1="-701.895" x2="16.445" y2="-715.657" gradientTransform="rotate(180 123.893 -295.28)"><stop offset="0" style="stop-color:#13207c"/><stop offset="1" style="stop-color:#004eba"/></linearGradient><path d="M224 109.4c.1-.4 1.4-2.9 1.8-3 .4-.1 9.5-.4 10.2.1.7.5 2.7 2.7 2.7 2.7l-5.1 1-9.6-.8z" style="fill:url(#SVGID_13_)"/><path class="st0" d="m223.6 109.7.1-.2c.1-.2 1.4-2.9 1.9-3.1s9.7-.4 10.5.1c.7.5 2.6 2.6 2.7 2.7l.2.4-5.6 1-9.8-.9zm12.3-2.9c-.6-.4-9.3-.4-10-.1-.2.1-1.2 1.9-1.5 2.6l9.3.7 4.6-.8-2.4-2.4z"/><linearGradient id="SVGID_14_" gradientUnits="userSpaceOnUse" x1="26.982" y1="-736.592" x2="-14.758" y2="-687.922" gradientTransform="rotate(180 123.893 -295.28)"><stop offset="0" style="stop-color:#13207c"/><stop offset="1" style="stop-color:#004eba"/></linearGradient><path d="M240 109.2s1.4 24.5 1.7 29.4c.2 5 .8 18.1.4 18.2-1.3.2-20.9 1.7-23.9.6s1.5-14.6 3-22.2c.6-2.9-1.3-19.7-1.2-22.8.2-3.1 7.2-6.5 20-3.2z" style="fill:url(#SVGID_14_)"/><linearGradient id="SVGID_15_" gradientUnits="userSpaceOnUse" x1="-366.757" y1="-1240.304" x2="-408.874" y2="-1191.195" gradientTransform="rotate(-163.216 24.534 -593.12) skewX(-.002)"><stop offset="0" style="stop-color:#13207c"/><stop offset="1" style="stop-color:#004eba"/></linearGradient><path d="M231.6 118.7c1.8.5 22.3 5.1 24.8 4.8 2.5-.4 15.7-15.9 16-16.2s-3-3.3-3.3-3.4c-.4-.2-14.4 11.3-14.4 11.3s-14.3-5.6-14.9-5.8c-.3-.6-8.2 9.3-8.2 9.3z" style="fill:url(#SVGID_15_)"/><path class="st0" d="M256.1 123.6h.4c1.9-.2 9.5-8.7 15-14.9.6-.7 1.1-1.3 1.2-1.3l-.2-.2c-.1 0-.4.5-1.2 1.3-3.1 3.6-12.7 14.5-14.7 14.9-1.2.1-7.1-.8-15.9-2.7l-.1.2c3.9.8 13 2.7 15.5 2.7z"/></g><g><path transform="rotate(-19.312 256.426 248.866)" class="st30" d="M255.5 221.9h1.9v54h-1.9z"/><path transform="rotate(-19.312 221.586 248.869)" class="st30" d="M220.6 221.9h1.9v54h-1.9z"/><path transform="rotate(-83.806 210.194 248.84)" class="st30" d="M184.8 247.9h50.9v1.9h-50.9z"/><path transform="rotate(-83.806 244.904 248.908)" class="st30" d="M219.5 248h50.9v1.9h-50.9z"/><path class="st30" d="M228.7 269.9h35.8l-1.3-3.7h-35.8zM224.9 259.1h35.9l-1.3-3.7h-35.8zM221.2 248.4H257l-1.3-3.7h-35.8zM217.4 237.6h35.8l-1.3-3.7h-35.8zM214.6 228.8h35.8l-2.2-5.6h-35.9z"/></g></g><path style="fill:#4169e1" d="M16 306.5 137.9-.5h-16L0 306.5z"/></svg>