<svg width="386" height="261" xmlns="http://www.w3.org/2000/svg" xml:space="preserve" id="Layer_1" x="0" y="0" style="enable-background:new 0 0 526 356.2" version="1.1" viewBox="0 0 526 356.2"><style>.st2{fill:#fff}.st3{fill:#9bb8cc}.st4{fill:#133b53}.st5{fill:#7bbfba}.st6{fill:#479da3}.st7{fill:#5a69f2}.st8{fill:#2c39b0}.st9{fill:#e1ecef}</style><linearGradient id="SVGID_1_" x1="438.342" x2="818.181" y1="100.322" y2="100.322" gradientTransform="matrix(-1 0 0 1 818.181 64)" gradientUnits="userSpaceOnUse"><stop offset="0" style="stop-color:#303db9"/><stop offset="1" style="stop-color:#3f51f3"/></linearGradient><path d="M0-27.6v384.1h367.1c11.7-27.5 15.7-57.4 10.5-86.4-11.5-64.9-68.5-122.1-141.1-141.6-22.1-5.9-49.2-9.6-64.2-26.7S156.5 59 146.2 39.6C134.3 16.9 111.8-.8 86.1-11.8c-5.4-2.3-11-4.4-16.7-6.3C47-25.4 23.5-28.6 0-27.6z" style="fill:url(#SVGID_1_)"/><linearGradient id="SVGID_00000129195385241421955970000004657062147672415906_" x1="918.428" x2="687.864" y1="258.354" y2="131.196" gradientTransform="matrix(-1 0 0 1 818.181 64)" gradientUnits="userSpaceOnUse"><stop offset="0" style="stop-color:#2f3db9"/><stop offset="1" style="stop-color:#3f51f3"/></linearGradient><path d="M0-12.9v369.3h345.8c2-29.6-1.5-59.5-12.8-87.3-15.7-38.6-45.9-69.5-84.1-86.2-30.3-13-66.8-17.6-90-38.9-29.5-27-26-69.9-44.6-103.5C96.5 8.3 56-12.8 14.9-13.9c-5-.2-10 .2-14.9 1z" style="fill:url(#SVGID_00000129195385241421955970000004657062147672415906_)"/><path d="M11 89.4h122.1c-.6-2.1-3.8-9.5-20.1-6.7 1.4-1.1 2.4-2.6 3.1-4.2.6-1.7.8-3.4.6-5.2-.2-1.1-.7-2-1.5-2.8-.7-.7-1.6-1.2-2.5-1.5-6.4-2.3-17.7 6.6-17.7 6.6 13.9-21.7-23.8-30.8-24-3.4 0 0-5.5-9.9-11.6-7.1-2.4 1.5-.9 5.6.2 7.5C42 64 25.9 69.3 33.4 79.1 16 79.4 11 89.4 11 89.4zM380.4 135.8c-3.4-5.8-8.8-7.4-18.3-4.2 1.9-4.4-3.8-12.8-13-3.8 2.7-14.5-18.9-16.2-17.9-2.1-5.4-6.8-19.8-2.9-14.2 5.2-8.4-2.1-11.8-.1-17.3 5l80.7-.1zM239.4 65.1c-3.4-5.8-8.8-7.4-18.3-4.2 1.9-4.4-3.8-12.8-13-3.8 2.8-14.5-18.9-16.2-17.9-2.1-5.4-6.8-19.8-2.9-14.2 5.2-8.4-2.1-11.8-.1-17.3 5h80.7v-.1zM270.5 82.2H309c1.5-5 .6-10.6-15.1-6.1-5-9.1-14.6 0-23.4 6.1zM76.1 162.2h38.5c1.5-5 .6-10.6-15.1-6.1-3.8-7.1-10-5.8-15.7 2.1-10.1-7.8-17-.1-7.7 4zM170.2 160.6h-32.4v-32.4h32.4v32.4z" class="st2"/><path d="m170.2 148.8-32.4-3.4v-17.2h32.4v20.6z" class="st3"/><path d="m205.5 108.7-70.5-.8v36h24.6l45.9-35.2z" class="st4"/><path d="M307.7 128.2H340v32.4h-32.3v-32.4z" class="st2"/><path d="m307.7 148.8 32.3-3.4v-17.2h-32.3v20.6z" class="st3"/><path d="m272.5 108.7 70.5-.8v36h-24.6l-45.9-35.2z" class="st4"/><path d="M128.7 322.2h220.9V172.8L239.1 87.5l-110.5 85.3.1 149.4z" class="st2"/><path d="m239.3 87.5 110.5 85.3v12.5L327.5 168v-4.7l-72-58.6v7.5l-11.6-8.9-115 84.5v-15l110.4-85.3z" class="st3"/><path d="m327.4 322.2-72-.3V112.2l72 55.8v154.2z" class="st5"/><path d="M327.4 163.3v4.7l-72-55.8v-7.6l72 58.7z" class="st6"/><path d="m239.1 83.7 127.5 94.5-8.3 9.1-119.2-92L120 187.4l-8.1-11 127.2-92.7z" class="st4"/><path d="M268.4 249.8h46.3v59.6h-46.3v-59.6z" class="st2"/><path d="M293.3 252.5h18.4v53.7h-18.4v-53.7zM271.5 252.5h18.4v53.7h-18.4v-53.7z" class="st4"/><path d="M268.4 308.6h46.3v.8h-46.3v-.8z" class="st3"/><path d="M261.5 309.4h59.9v6.6h-59.9v-6.6z" class="st2"/><path d="M258.5 315.8h65.8v6.4h-65.8v-6.4z" class="st2"/><path d="M261.5 315h59.9v.8h-59.9v-.8z" class="st3"/><path d="M268.4 164.9h46.3v40.6h-46.3v-40.6z" class="st2"/><path d="M293.3 167.6h18.4v34.7h-18.4v-34.7zM271.5 167.6h18.4v34.7h-18.4v-34.7z" class="st4"/><path d="m265.1 209.2 52.9 2.5v-3.2h-52.9v.7zM316.6 205.5h-1.9v-40.6h1l.9 40.6z" class="st6"/><path d="M265.1 205.5H318v3h-52.9v-3zM183.3 164.9h28.5V185h-28.5v-20.1zM214.3 164.9h28V185h-28v-20.1z" class="st4"/><path d="M183.3 188h62.2v-23.1h1l.9 25-64.1-1.1v-.8zM234 222.6l1.1 99.6h-3.2v-99.6h2.1z" class="st3"/><path d="M349.6 221.9H508v100.3H349.6V221.9z" class="st7"/><path d="m349.6 223.9 158.4 5.6v-7.6H349.6v2z" class="st8"/><path d="M349.6 221.9h160.9v-10.5l-160.9 2v8.5z" class="st4"/><path d="M376.6 252.5h104.6v69.7H376.6v-69.7z" class="st2"/><path d="M376.6 257.4h104.6v1.2H376.6v-1.2zM376.6 261.4h104.6v1.2H376.6v-1.2zM376.6 265.3h104.6v1.2H376.6v-1.2zM376.6 269.3h104.6v1.2H376.6v-1.2zM376.6 273.3h104.6v1.2H376.6v-1.2zM376.6 277.3h104.6v1.2H376.6v-1.2zM376.6 281.3h104.6v1.2H376.6v-1.2zM376.6 285.3h104.6v1.2H376.6v-1.2zM376.6 289.3h104.6v1.2H376.6v-1.2zM376.6 293.3h104.6v1.2H376.6v-1.2zM376.6 297.3h104.6v1.2H376.6v-1.2zM376.6 301.3h104.6v1.2H376.6v-1.2zM376.6 305.3h104.6v1.2H376.6v-1.2zM376.6 309.3h104.6v1.2H376.6v-1.2zM376.6 313.2h104.6v1.2H376.6v-1.2zM376.6 317.2h104.6v1.2H376.6v-1.2z" class="st9"/><path d="M375 254.4h109.1v-6L375 249.6v4.8z" class="st4"/><path d="M349.7 322.2h3.3l-1.4-100.3h-1.9v100.3z" class="st8"/><path d="M83.2 221.9h148.7v100.3H83.2V221.9z" class="st7"/><path d="M83.2 309.5h148.7v12.7H83.2v-12.7zM83.2 233.5l148.7 7v-11H83.2v4z" class="st8"/><path d="M119.1 249.8h77v48.5h-77v-48.5z" class="st2"/><path d="M180 252.5h13.2v42.8H180v-42.8zM136.8 252.5h41.1v42.8h-41.1v-42.8zM121.6 252.5h13.2v42.8h-13.2v-42.8z" class="st4"/><path d="M119.1 249.2h78.1l.9 49.1H196v-48.5h-77l.1-.6z" class="st8"/><path d="M196.1 297.9h-77v1.2l79.1 3.5v-4.7h-2.1z" class="st8"/><path d="M78.7 229.5h154.1v-7.2L78.7 222v7.5z" class="st2"/><path d="m78.7 224 154.1 1.7v-3.5l-154.1-.3v2.1z" class="st3"/><path d="m74.1 219.9 38.7-19.7H198l41.3 20.5v2.3l-165.2-.6v-2.5z" class="st4"/><path d="M224.3 227.3h5.5v5.4h-5.5v-5.4zM214.1 227.3h5.5v5.4h-5.5v-5.4zM203.8 227.3h5.5v5.4h-5.5v-5.4zM193.5 227.3h5.5v5.4h-5.5v-5.4zM183.2 227.3h5.5v5.4h-5.5v-5.4zM162.7 227.3h5.5v5.4h-5.5v-5.4zM173 227.3h5.5v5.4H173v-5.4zM152.4 227.3h5.5v5.4h-5.5v-5.4zM142.2 227.3h5.5v5.4h-5.5v-5.4zM131.9 227.3h5.5v5.4h-5.5v-5.4zM121.6 227.3h5.5v5.4h-5.5v-5.4zM111.4 227.3h5.5v5.4h-5.5v-5.4zM90.8 227.3h5.5v5.4h-5.5v-5.4zM101.1 227.3h5.5v5.4h-5.5v-5.4zM80.5 227.3H86v5.4h-5.5v-5.4z" class="st2"/><path d="M224.3 229.5h5.5v1h-5.5v-1zM214.1 229.5h5.5v1h-5.5v-1zM203.8 229.5h5.5v1h-5.5v-1zM193.5 229.5h5.5v1h-5.5v-1zM183.2 229.5h5.5v1h-5.5v-1zM162.7 229.5h5.5v1h-5.5v-1zM173 229.5h5.5v1H173v-1zM152.4 229.5h5.5v1h-5.5v-1zM142.2 229.5h5.5v1h-5.5v-1zM131.9 229.5h5.5v1h-5.5v-1zM121.6 229.5h5.5v1h-5.5v-1zM111.4 229.5h5.5v1h-5.5v-1zM90.8 229.5h5.5v1h-5.5v-1zM101.1 229.5h5.5v1h-5.5v-1zM80.5 229.5H86v1h-5.5v-1z" class="st3"/><path d="M512.1 284.7h1.8v37.5h-1.8v-37.5z" class="st4"/><path d="M508.6 273.5h11.5c-1.4 0-2.6.5-3.6 1.5s-1.5 2.3-1.5 3.6v7.5l1 .5h-11.8c-.1 0-.2 0-.3-.1-.1 0-.2-.1-.2-.2-.1-.1-.1-.2-.2-.2 0-.1-.1-.2-.1-.3v-7.3c0-1.3.6-2.6 1.5-3.6 1.1-.9 2.4-1.4 3.7-1.4z" class="st4"/><path d="M520 273.5c1.3 0 2.6.6 3.5 1.5.9 1 1.5 2.2 1.5 3.6v7.4c0 .1-.1.3-.2.4-.1.1-.2.2-.4.2h-8.9c-.1 0-.3-.1-.4-.2-.1-.1-.2-.2-.2-.4v-7.4c0-1.3.5-2.6 1.5-3.6 1-.9 2.3-1.5 3.6-1.5z" class="st2"/><path d="M510.7 271.8v-1.9h3.3v6.8c0 .2-.1.4-.2.6-.1.2-.3.3-.5.4s-.4.1-.6.1c-.2 0-.4-.1-.6-.3-.2-.2-.3-.3-.3-.6s0-.4.1-.6c.1-.2.2-.4.4-.5s.4-.2.6-.2v-3.5l-2.2-.3z" class="st8"/><path d="M316.5 309.4h-1.8v-59.6h1l.8 59.6z" class="st6"/><path d="m70.4 321.5-.9-13.4 7.4-8.6-.5-.4-4.4 3.7-.6-3.7-.7.2.1 4.6-1.8 1.7-.7-13.7 3.6-4.5-.4-.3-3.7 3-.2-7.1h-1l-.6 8.8-.9 8.7-4.9-5.3-.5.3 1.8 2.8h-3.1v.5l3.4.5 3.3 5.2-.8 16.8h6.1v.2z" style="fill:#994f61"/><path d="M38.8 273.1c-.1-1.7.1-3.3.8-4.9.3-.8.8-1.4 1.5-2 .6-.5 1.4-.9 2.2-1.1.5-.1 1-.1 1.4.1.5.2.9.4 1.2.8-2-2.2-3.5-4.9-4.4-7.7-.4-1.4-.5-3-.2-4.4.3-1.5.9-2.9 1.8-4 1-1.1 2.2-1.9 3.5-2.3 1.4-.5 2.8-.6 4.2-.4 2.9.5 5.4 2 7.3 4.2-.2-4.5-1.2-9-.4-13.4s4.3-8.7 8.7-8.6c3 .1 5.6 2.3 7.5 4.6 4 4.9 6.4 10.9 7 17.3 1.1-1.6 2.4-3.1 3.9-4.4.8-.6 1.6-1.1 2.6-1.4.9-.3 1.9-.4 2.9-.3 3.2.5 5.2 3.8 6 6.9.8 3.4.7 6.9-.4 10.2-1.7 5.5-5.8 9.8-9.8 13.9.9-.3 2-.3 2.9.1.9.4 1.7 1.1 2.1 2 1.2 2.4 0 5.2-1.6 7.2-1.5 1.6-3.2 2.9-5.2 3.8-10.8 5.4-23.9 4.6-34.7-.1-3.9-1.7-7.1-4.7-9-8.5-1.1-2.2-1.8-4.9-1.8-7.6zM73.3 295.8c.5-.6 2-.8 2 .2.4-3.3 4.7-2 2.7 1.1 3.3-3.4 6.2 1 2 2.9 3.6.1 1.6 5.3-1.6 3 .3.1.4.4.5.7.1.3.1.6 0 .9s-.3.5-.6.6c-.3.1-.6.2-.9.1-3.6-.6-7.4-6.5-4.1-9.5z" class="st6"/><path d="M79.8 286.1c.3-.9.5-1.8.4-2.7-.1-.5-.2-.9-.5-1.3s-.6-.7-1-.9c-.2-.1-.5-.2-.8-.2s-.5.1-.8.2c1.4-.9 2.6-2 3.5-3.4.4-.7.7-1.5.8-2.3.1-.8 0-1.7-.3-2.4s-.9-1.3-1.5-1.8-1.4-.8-2.2-.9c-1.6-.2-3.2.2-4.5 1.1 1-2.2 1.8-4.5 2.3-6.9.3-2.5-.9-5.4-3.3-6-.8-.1-1.7-.1-2.5.1s-1.6.6-2.2 1.1c-2.9 2-5.2 4.8-6.5 8-.3-1-.8-2-1.4-2.9-.3-.5-.7-.9-1.1-1.2-.5-.3-1-.5-1.5-.6-.9 0-1.8.2-2.6.7s-1.4 1.2-1.8 2c-1 1.7-1.5 3.6-1.5 5.5.3 3.2 1.3 6.2 2.9 9-.4-.3-1-.4-1.5-.4-.5.1-1 .3-1.4.7-.4.6-.7 1.3-.8 2-.1.7.1 1.4.5 2.1.5 1.1 1.3 2 2.2 2.8 2.5 2.2 5.4 3.8 8.6 4.8 3.2 1 6.5 1.2 9.8.7 2.3-.3 4.5-1.4 6.1-3.1 1.3-1 2.1-2.3 2.6-3.8z" class="st5"/><path d="M92 274.9c-.4.8-.4 1.7-.2 2.5.4-.1.8-.3 1.1-.6.3-.3.6-.6.8-1 .2-.4.3-.8.4-1.2 0-.4 0-.9-.1-1.3-.9.3-1.6.9-2 1.6zM95.7 277.3c-.2.2-.4.5-.5.7-.1.3-.1.6-.1.9s.2.6.3.9c.2.3.4.5.7.6.3.1.6.2.9.2s.6-.1.9-.2c.3-.2.5-.4.7-.6s.3-.6.3-.9c-.9-.9-2-1.5-3.2-1.6zM57.2 300c.4-.2.7-.6.9-1-.4-.1-.9-.1-1.3 0-.1-.1-.3-.1-.4 0s-.3.1-.4.2c-.1.1-.2.2-.2.4v.4c.1.1.1.2.3.3.1.1.3.1.4.1.1 0 .3 0 .4-.1l.3-.3zM56.4 297.7c.5.4 1.1.6 1.7.6-.1-.6-.3-1.2-.8-1.7-.5-.4-1.1-.6-1.7-.6 0 .7.3 1.3.8 1.7z" class="st6"/><path d="M57.3 261c.2 0 .5 0 .7-.2.2-.1.4-.3.5-.4.1-.2.2-.4.2-.6 0-.2 0-.5-.1-.7-.1-.2-.2-.4-.4-.5l-.6-.3c-.2 0-.5 0-.7.1s-.4.2-.6.4c.1.7.5 1.6 1 2.2zM78.9 268.2c-.2-.1-.4-.1-.5-.1s-.4.1-.5.2-.2.3-.3.5v.6c.1.2.2.3.3.4.2.1.3.2.5.2s.4 0 .5-.1c.2-.1.3-.2.4-.4.5-.3 1-.7 1.3-1.2-.5-.2-1.1-.2-1.7-.1zM60.7 258.1c-.3 1.1-.3 2.4.2 3.5.5-.2 1-.6 1.5-1 .4-.4.7-.9.9-1.5s.3-1.2.3-1.8-.2-1.2-.5-1.7c-1 .6-1.9 1.4-2.4 2.5zM75.5 303.4h.9c.4 0 .9-.3 1.2-.6.1-.2.2-.3.3-.5v-.6c-.2-.5-.9-.4-1.2-.8-.1-.1-.1-.3-.1-.4v-.4c.1-.3.1-.6 0-.8-.1-.3-.3-.5-.6-.5-.3.1-.3.2-.5.4-.1.1-.2.1-.3.2-.5 0-.7-.8-1.2-.7-.5.1-.9.7-1 1.2-.1.4-.2.9-.1 1.3s.3.9.6 1.2c.4.6 1.1.9 2 1zM75.9 322.1c3.1-4.6 7.1-7.1 12.3-5.7 3.4-7.8 13.9-6.5 16.4 1.6 4.9-1.5 9.2.7 13.2 4.1H75.9z" class="st5"/><path d="M335 315.9c3.8-12.2 19.5-14.1 24.7-2.3 6.5-1.8 11.7.5 15.9 5.2 2.1-2.6 7-3.7 10.7-1.5 2.9-9.4 15.1-10.9 19.1-1.8 6.1-1.7 10.7 1.3 14.3 6.6H315.1c6.1-5.1 12.6-8.3 19.9-6.2z" class="st6"/><path d="M361.1 322.1c3.1-4.6 7.1-7.1 12.3-5.7 3.5-7.8 13.9-6.5 16.4 1.6 4.9-1.5 9.2.7 13.2 4.1h-41.9z" class="st5"/><path d="M340 305.6c.6.4 1.3.6 2 .6 0-.4-.1-.7-.3-1-.2-.3-.4-.6-.7-.8s-.6-.4-1-.5c-.3-.1-.7-.1-1.1-.1.2.6.5 1.3 1.1 1.8zM342.5 302.9c-.2 1 0 2 .5 2.9.8-.5 1.5-1.4 1.8-2.3.2-1 0-2-.5-2.9-.9.6-1.5 1.4-1.8 2.3z" class="st6"/><path d="M394.2 315.1c.2.7.7 1.3 1.3 1.7.2-.3.3-.7.4-1 .1-.4 0-.7-.1-1.1s-.3-.7-.5-1-.5-.5-.8-.7c-.3.6-.4 1.4-.3 2.1zM397.8 314.3c-.7.7-1.2 1.6-1.3 2.6.5.1 1 0 1.5-.2s.9-.4 1.3-.7c.4-.3.7-.7.9-1.2.2-.5.3-.9.4-1.4-1 0-2 .3-2.8.9zM491.9 322.1c2.3-3.5 5.4-5.4 9.3-4.4 2.6-5.8 10.5-4.9 12.4 1.2 3.7-1.1 6.9.5 10 3.1l-31.7.1z" class="st5"/><path d="M505 320.5c-.9-1.3-2.2-2.3-3.8-2.7l.5-.9c.8.3 1.5.8 2 1.5.6.6 1 1.3 1.3 2.1zM513.6 319c-.9.4-1.8 1-2.4 1.7.5-1 1.2-1.9 2.2-2.4l.2.7z" class="st6"/><path d="M52.2 321.4h474.1v1.6H52.2v-1.6z" class="st4"/><linearGradient id="SVGID_00000128451043499867859310000015936778748221191342_" x1="270.052" x2="475.781" y1="275.432" y2="275.432" gradientTransform="matrix(-1 0 0 1 818.181 64)" gradientUnits="userSpaceOnUse"><stop offset="0" style="stop-color:#303db9"/><stop offset="1" style="stop-color:#3f51f3"/></linearGradient><path d="M342.4 322.9V356h190.8c12.3 0 19.3-12.3 11.9-21l-12.6-9.1c-1.6-1.1-3.2-2.1-5-2.9H342.4z" style="fill:url(#SVGID_00000128451043499867859310000015936778748221191342_)"/><path d="m503.4 81.6-9.2 20.2c-.9 2.1-4.4 1-3.4-1l7.2-15.5c-10 4-18.2 12-25.5 19.6-9.5 9.8-18.7 19.7-25.9 31.3l-.6 1c1.1-.3 2.1-.5 3.2-.7 4.1-.7 8.3-.3 11.6 2.4 3.2 2.8 3.4 8.1 2.4 12.1-1.9 8.2-9.4 17.5-18 18.9-3.5.6-7.5-.4-9.5-3.5s-1.8-6.7-1.4-10c.7-4.4 2-8.6 3.9-12.6-2.7 1.2-5.4 2.6-8 3.8-9.9 4.9-19.9 9.6-30.9 11.5-5.3 1-10.8.9-16-.5-3.2-.9-7.3-2.8-7.8-6.4-.4-2.3 3.1-3.1 3.5-.8.4 2.3 3.1 3.1 4.9 3.7 3.3 1 6.7 1.3 10.1 1.1 7.1-.6 14-2.3 20.6-5.2 6.3-2.6 12.3-5.8 18.4-8.7 2.6-1.2 5.1-2.5 7.8-3.5 1.5-2.6 3-5.1 4.6-7.6 7.2-11 16.4-20.6 25.6-30 6.5-6.7 13.5-13.2 21.9-17.5-4.9.4-9.7.8-14.6.9-2.3 0-2.2-3.5.1-3.6 7.8-.1 15.7-1 23.5-1.7.3 0 .5.1.7.2.2.1.4.3.6.5.1.2.2.5.3.7 0 .4 0 .7-.1.9zm-66 78.5c0 3.5 1.5 6.1 5.2 6.4 4.6.3 8.7-3.4 11.5-6.6 2.5-2.9 4.4-6.3 5.4-10 .9-3.4.4-8-3.2-9.5-3.4-1.5-7.5-.4-10.9.6-.8.3-1.6.6-2.5.9-2.9 5.6-5.4 11.9-5.5 18.2z" class="st4"/></svg>