<?xml version="1.0" encoding="utf-8"?>
<!-- Generator: Adobe Illustrator 24.3.0, SVG Export Plug-In . SVG Version: 6.00 Build 0)  -->
<svg version="1.1" id="Layer_1" xmlns="http://www.w3.org/2000/svg" xmlns:xlink="http://www.w3.org/1999/xlink" x="0px" y="0px"
	 viewBox="0 0 1638 1563.3" style="enable-background:new 0 0 1638 1563.3;" xml:space="preserve">
<style type="text/css">
	.st0{fill:none;stroke:#DEE5F8;stroke-width:5;stroke-miterlimit:10;}
	.st1{fill:none;stroke:#DEE5F8;stroke-width:3.75;stroke-miterlimit:10;}
	.st2{fill:#FBC343;}
	.st3{fill:#6F3428;}
	.st4{opacity:0.3;fill:#6F3428;enable-background:new    ;}
	.st5{opacity:0.6;fill:#FFFFFF;enable-background:new    ;}
	.st6{opacity:0.1;fill:#6F3428;enable-background:new    ;}
	.st7{opacity:0.3;}
	.st8{fill:#102048;}
	.st9{fill:#F9B384;}
	.st10{fill:#708CD5;}
	.st11{fill:#E28B6D;}
	.st12{fill:#C9B89F;}
	.st13{fill:#D8AB8D;}
	.st14{fill:#1F3C88;}
	.st15{fill:#ACBFEE;}
	.st16{fill:#EECAAF;}
	.st17{fill:#E6DFD3;}
	.st18{opacity:0.15;fill:#102048;enable-background:new    ;}
	.st19{fill:#F09586;enable-background:new    ;}
	.st20{fill:#BC5E51;}
	.st21{fill:#C2DACE;}
	.st22{fill:#DEE5F8;}
</style>
<g>
	<g>
		<g>
			<path class="st0" d="M622.2,1066.6H400.6c-5.5,0-9.9-4.4-9.9-9.9v-20.9c0-5.5,4.4-9.9,9.9-9.9h221.5c5.5,0,9.9,4.4,9.9,9.9v20.9
				C632.1,1062.2,627.6,1066.6,622.2,1066.6z"/>
			<path class="st1" d="M754.1,1066.2H664c-6.9,0-12.4-5.6-12.4-12.4v-15.9c0-6.9,5.6-12.4,12.4-12.4h90.2c6.9,0,12.4,5.6,12.4,12.4
				v15.9C766.6,1060.6,761,1066.2,754.1,1066.2z"/>
			<path class="st0" d="M699.1,515.8h-90.2c-6.9,0-12.4-5.6-12.4-12.4v-15.9c0-6.9,5.6-12.4,12.4-12.4h90.2
				c6.9,0,12.4,5.6,12.4,12.4v15.9C711.5,510.3,705.9,515.8,699.1,515.8z"/>
			<path class="st0" d="M835.1,515.8h-90.2c-6.9,0-12.4-5.6-12.4-12.4v-15.9c0-6.9,5.6-12.4,12.4-12.4h90.2
				c6.9,0,12.4,5.6,12.4,12.4v15.9C847.5,510.3,842,515.8,835.1,515.8z"/>
			<path class="st0" d="M1180.6,882.4h-90.2c-6.9,0-12.4-5.6-12.4-12.4v-15.9c0-6.9,5.6-12.4,12.4-12.4h90.2
				c6.9,0,12.4,5.6,12.4,12.4V870C1193,876.9,1187.4,882.4,1180.6,882.4z"/>
		</g>
		<g>
			<path class="st2" d="M1612.3,334v11.7c3.9,0,8.4,1.1,11.3,9c3.3,8.7,3.4,22.5,0.4,38.7c-3.4,18.3-10.6,39.4-20.8,61.1
				c-21.2,44.6-54.1,89.2-94,127.5l-5.9-130.4l34.8-48.2h29.3c11.2,0,20.2-9.1,20.2-20.2v-27.5c0.2-0.3,0.9-1.2,3.1-2.5
				c10.7-6.2,17.6-7.5,21.4-7.5V334 M1612.3,334c-7.5,0-16.6,2.9-27.3,9.1c-4.9,2.9-9,6.9-9,12.5v27.6c0,4.7-3.8,8.5-8.5,8.5h-35.3
				l-40.7,56.4l7.2,159.6C1635.4,489,1667.5,334,1612.3,334L1612.3,334z"/>
			<path class="st2" d="M1191.5,334v11.7c3.9,0,10.8,1.3,21.4,7.5c2.2,1.3,3,2.2,3.1,2.5v27.5c0,11.2,9.1,20.2,20.2,20.2h29.3
				l34.8,48.2l-5.9,130.4c-39.9-38.3-72.8-82.9-94-127.5c-10.3-21.7-17.5-42.8-20.8-61.1c-3-16.3-2.8-30,0.4-38.7
				c3-7.9,7.4-9,11.3-9V334 M1191.5,334c-55.2,0-23.1,155,113.7,273.7l7.2-159.6l-40.7-56.4h-35.3c-4.7,0-8.5-3.8-8.5-8.5v-27.6
				c0-5.7-4.1-9.7-9-12.5C1208.1,336.9,1199,334,1191.5,334L1191.5,334z"/>
			<rect x="1286.8" y="890.8" class="st3" width="230.2" height="119.4"/>
			<path class="st2" d="M1481.7,890.8H1322v-39c0-17.4,14.1-31.5,31.5-31.5h96.7c17.4,0,31.5,14.1,31.5,31.5V890.8z"/>
			<path class="st2" d="M1451.6,820.3h-99.4V796c0-10.8,8.8-19.6,19.6-19.6h60.2c10.8,0,19.6,8.8,19.6,19.6L1451.6,820.3
				L1451.6,820.3z"/>
			<path class="st2" d="M1429.6,764.2l3.1,12.3H1371l3.1-12.3c4.1-16.3,4.1-32.7,0-49l-3.1-12.3h61.7l-3.1,12.3
				c-1.3,5.4-2.2,10.8-2.7,16.2C1426,742.3,1426.9,753.2,1429.6,764.2z"/>
			<path class="st4" d="M1432.7,702.9l-3.1,12.3c-1.3,5.4-2.2,10.8-2.7,16.2c-3.4-22.5-55.8-28.4-55.8-28.4L1432.7,702.9
				L1432.7,702.9z"/>
			<path class="st2" d="M1451.6,659v24.2c0,2-0.3,3.9-0.8,5.8c-2.4,8-9.9,13.9-18.8,13.9h-60.2c-10.8,0-19.6-8.8-19.6-19.6V659
				H1451.6z"/>
			<path class="st4" d="M1451.6,659v24.2c0,2-0.3,3.9-0.8,5.8c-26.6-24.4-94-25.1-98.6-25.2V659H1451.6z"/>
			<path class="st2" d="M1556.3,365.9l-28.5,124.5l-31.6,138.1c-4.7,20.7-23.1,35.3-44.3,35.3H1352c-21.1,0-39.4-14.5-44.3-35.1
				c0-0.1,0-0.1-0.1-0.2l-60.1-262.6c-1.2-5.3,2.2-10.7,7.6-11.8c97.9-19.3,195.8-19.3,293.7,0
				C1554.1,355.2,1557.5,360.6,1556.3,365.9z"/>
			<path class="st5" d="M1336.4,440.9c2.2,17.9-1.4,33.1-8,33.9s-13.7-13.1-15.9-31c-2.2-17.9,1.4-33.1,8-33.9
				S1334.2,423,1336.4,440.9z"/>
			<path class="st6" d="M1527.8,490.4l-31.6,138.1c-4.7,20.7-23.1,35.3-44.3,35.3H1352c-21.1,0-39.4-14.5-44.3-35.1
				C1417.5,621.8,1490.5,552.2,1527.8,490.4z"/>
			<g class="st7">
				<path class="st3" d="M1371.1,776.4c5.1-1.3,10.2-2,15.3-2.6c5.1-0.6,10.3-0.8,15.5-0.9c10.3,0,20.8,0.7,30.8,3.4
					c-5.2,0.1-10.3,0.1-15.4,0.2l-15.4,0.1C1391.7,776.8,1381.5,777,1371.1,776.4z"/>
			</g>
			<g class="st7">
				<path class="st3" d="M1352.2,820.3c16.5-2.2,33.1-3.1,49.7-3.4c8.3-0.1,16.6,0,24.9,0.5c8.3,0.4,16.6,1.2,24.8,2.9
					c-8.3-0.3-16.6-0.1-24.9,0l-24.8,0.4C1385.4,820.8,1368.8,821,1352.2,820.3z"/>
			</g>
			<g>
				<path class="st2" d="M1357.2,167.6l10.3,74.1c0.6,4.3-5.2,6.3-7.3,2.5l-37.4-64.8c-2.3-4-0.4-9,4-10.5l20.9-7.2
					C1352,160.2,1356.6,163,1357.2,167.6z"/>
				<path class="st2" d="M1460.6,123.2l-40.5,127.2c-2.3,7.4-13.1,6.1-13.7-1.6l-10.3-133.1c-0.6-8.2,6.3-14.8,14.5-13.9l39.1,4.5
					C1457.8,107.3,1463.1,115.4,1460.6,123.2z"/>
				<path class="st2" d="M1507.9,201.1l-48.3,46.1c-2.8,2.7-7.2-0.5-5.6-4l27.4-60.8c1.7-3.7,6.3-5,9.7-2.6l16.1,11.4
					C1510.5,193.5,1510.8,198.3,1507.9,201.1z"/>
			</g>
		</g>
		<g>
			<g>
				<path class="st8" d="M421.7,577.3c21.7,13.5,44.7-4,47.2-18.8c3.8-22.1-16.4-47.5-47.2-28.6c0,0-26.7-31.2-52.7-0.3
					c0,0-44.3,22.3-19.7,61c24.5,38.6,55.4-14,55.4-14L421.7,577.3z"/>
				<polygon class="st9" points="419,636.2 412.2,653.2 385.9,719 343.5,668.7 383.5,609.5 407.4,627.5 				"/>
				<path class="st8" d="M419,636.2l-6.8,17c-9.3-9.2-18.3-21.2-22-26.5l17.2,0.8L419,636.2z"/>
				<path class="st9" d="M443.6,627.7c-0.4,9-2.2,15.9-6.5,19c-12.6,8.9-58.8-29-58.8-29l-3.2-53.4l64.9,4.6
					c0.1,8.6,1,18.2,1.9,27.8C443.1,607.7,444,618.7,443.6,627.7z"/>
				<path class="st8" d="M381.2,590.4c15.9,3,20-14.6,20-14.6c17-10.4,31.1,13.6,46.4,4.7l2.4-30.7l-67.3-3.4L358.4,562l6.9,18.8
					L381.2,590.4z"/>
				<path class="st9" d="M391.2,590.8c-8.5-9.7-22.4-5.6-23.7,4.9s7.3,28,21.3,17.8L391.2,590.8z"/>
				<path class="st8" d="M385.4,597.7c-0.5-1.1-1.4-2.1-2.4-2.8s-2.1-1.4-3.3-1.7c-1.2-0.3-2.3-0.4-3.4,0.1c-1,0.4-1.9,1.4-2.6,2.5
					l-0.7-0.3c0.3-1.4,1.2-2.8,2.6-3.6s3.2-0.8,4.6-0.4c1.5,0.5,2.8,1.2,3.8,2.3c1,1,1.9,2.4,2,3.9H385.4z"/>
			</g>
			<g>
				<path class="st9" d="M447.6,759c14-16.3,15.4-39.6,20.7-44.4c9.9-8.9,5.4,18.3,5.4,18.3s6.4-18.3,21.9-22.5
					c10.1-2.7,11.9,6.7,11.1,14.6c-1.5,13.1-5.8,28.1-16.3,36.8c-4.5,3.7-10.3,6.5-13.5,11.5c-1.8,2.8-3.4,6.1-4.3,9.3L447.6,759z"
					/>
				<polygon class="st10" points="445.4,759.5 451.9,750.7 478.4,774.3 471,785 				"/>
				<path class="st8" d="M361.5,846l84.4-94l31.3,30.7c-22.4,50.9-52.1,83.6-99.6,108.6L361.5,846z"/>
				<path class="st11" d="M481.6,732.1c1.7-0.3,3.3,0.1,4.8,0.5c1.5,0.5,2.9,1.2,4.2,1.9c1.3,0.8,2.6,1.7,3.8,2.7
					c1.2,1.1,2.3,2,3,3.8l-0.9,0.3c-0.8-0.8-2.3-1.6-3.4-2.4c-1.2-0.8-2.5-1.5-3.7-2.3c-1.2-0.7-2.5-1.4-3.8-2.1
					c-1.3-0.6-2.6-1.2-3.9-1.5L481.6,732.1z"/>
				<path class="st11" d="M473.5,737.8c1.7,0.7,3.4,1.6,4.6,3.3c1.2,1.6,1.7,3.8,1.4,5.8c-0.2,2-1,3.8-2.1,5.3s-2.5,2.9-4.5,3.5
					l-0.3-0.9c1.2-0.9,2.2-2.4,2.9-3.8c0.8-1.4,1.3-3,1.5-4.5s0-3-0.7-4.3c-0.7-1.4-2-2.4-3.3-3.6L473.5,737.8z"/>
			</g>
			<path class="st12" d="M181.2,846l-89.8-24.5l0,0c1.8-6.7,8.7-10.6,15.3-8.8l65.7,17.9C179.1,832.4,183,839.3,181.2,846L181.2,846
				z"/>
			<g>
				<path class="st13" d="M146.5,1337c0,0,18.4,39.1,71.2,26.5l-25.5-33.8L146.5,1337z"/>
				<g>
					<polygon class="st9" points="164.4,1332.2 145.6,1374.5 166.2,1406.9 191.6,1386.2 202.8,1339.7 					"/>
				</g>
				<g>
					<g>
						<path class="st14" d="M145.6,1374.5l45.9,11.7l26.1,64.5c2.4,6-3.8,11.9-9.7,9.1l-81.5-39.4c-5.9-2.9-8.4-9.9-5.7-15.9
							l0.7-1.6C126.7,1391.4,135.1,1381.5,145.6,1374.5L145.6,1374.5z"/>
					</g>
					<g>
						<path class="st14" d="M145.6,1374.5l45.9,11.7l26.1,64.5c2.4,6-3.8,11.9-9.7,9.1l-81.5-39.4c-5.9-2.9-8.4-9.9-5.7-15.9
							l0.7-1.6C126.7,1391.4,135.1,1381.5,145.6,1374.5L145.6,1374.5z"/>
					</g>
				</g>
				<g>
					
						<rect x="188.2" y="1410.3" transform="matrix(0.8724 -0.4888 0.4888 0.8724 -665.1321 275.2869)" class="st15" width="13" height="2.5"/>
					
						<rect x="194" y="1424.5" transform="matrix(0.8719 -0.4897 0.4897 0.8719 -672.5068 280.8252)" class="st15" width="13" height="2.5"/>
				</g>
				<path class="st16" d="M207.7,900.7c-8.9,20.9-20.9,53.1-0.7,91.7c8.2,15.7,11,33.7,7,51L146.5,1337l71.2,26.5l145.7-425.1
					L207.7,900.7z"/>
			</g>
			<g>
				<path class="st10" d="M398.2,689.3c14.4,41.3,14.8,111.9-12.5,186.3l-42.2,12l17-137.9L398.2,689.3z"/>
				<path class="st10" d="M351.9,653.8l11.6-25.6c0,0,32.7,22.8,49.9,50l-20,37.7L351.9,653.8z"/>
			</g>
			<path class="st14" d="M360.4,870.1c-112-3.6-170.7,59.2-170.3,56.8c18-61.2,35-106.9,50.2-141c27.5-61.9,49.2-85.8,60.4-94.8
				c5.5-4.4,8.5-5.3,8.5-5.3l51-42.7c4.4,2.3,8.6,5.5,12.4,9.1c14.4,13.5,22.6,32.2,24.5,51.8C405,780.6,360.4,870.1,360.4,870.1z"
				/>
			<path class="st8" d="M328.1,693.5c-16.4,8.7-44.8,54-87.7,92.4c27.5-61.9,49.2-85.8,60.4-94.8L328.1,693.5z"/>
			<g>
				<path class="st9" d="M143.8,788.6l-18,25.6c0,0-2.2,10.5-7.1,14.6c0,0,2.2,10.7,10.6,14.5c9.6,4.3,21.5,4.1,29.2-6.9
					s8.7-43.6,8.7-43.6L143.8,788.6z"/>
				<path class="st10" d="M131.4,793.9c0,1.7-3.3,10.8-3.3,10.8l39.2,5.4v-17.3L131.4,793.9z"/>
				<path class="st14" d="M360.4,643c0,0-74.6-11.2-135.3,20.2c-8.6,4.4-16.4,10.2-23.3,16.9c-29.3,28.4-55.4,56.3-75.2,115.6
					l46.6,7.6l47-69.4c4.1-5.9,10.2-10.1,17.2-11.7c24.9-5.7,84.5-19.6,93.9-25.1L360.4,643z"/>
			</g>
			<g>
				<path class="st13" d="M425.8,1089.5c0,0,28.1,37.4,74.6,18.6l-31-33L425.8,1089.5z"/>
				<g>
					<polygon class="st9" points="442.9,1079.6 424.1,1122 444.7,1154.3 470.1,1133.7 481.3,1087.1 					"/>
				</g>
				<g>
					<path class="st14" d="M424.1,1122l45.9,11.7l26.1,64.5c2.4,6-3.8,11.9-9.7,9.1l-81.5-39.4c-5.9-2.9-8.4-9.9-5.7-15.9l0.7-1.6
						C405.2,1138.8,413.6,1129,424.1,1122L424.1,1122z"/>
				</g>
				<g>
					
						<rect x="466.6" y="1156.6" transform="matrix(0.8724 -0.4888 0.4888 0.8724 -505.5893 378.9877)" class="st15" width="13" height="2.5"/>
				</g>
				<g>
					
						<rect x="472.3" y="1170.8" transform="matrix(0.8719 -0.4897 0.4897 0.8719 -512.6249 384.6112)" class="st15" width="13" height="2.5"/>
				</g>
				<path class="st16" d="M207.7,900.7c15.3-10.6,113-36.2,175-34.3c68.9,2.1,124.2,9.9,146.7,60.4s-29,181.3-29,181.3l-74.6-18.6
					l18-121.3c0,0-94.4,11.9-139.4,12.4L207.7,900.7z"/>
				<path class="st13" d="M363.4,977.3c-7.7,0-15.1,2-22.6,3.5c-7.6,1.6-15.4,2.2-23.2,2.1c-7.8-0.2-15.5-0.9-23.1-1.9
					c-3.8-0.6-7.6-1.2-11.4-1.8c-3.8-0.8-7.6-1.5-11.3-2.3l0.2-1c3.8,0.5,7.6,1,11.4,1.6c3.8,0.5,7.6,1,11.4,1.4
					c7.6,0.8,15.3,1.5,22.9,1.6c7.6,0.2,15.2-0.4,22.8-1.7c3.8-0.6,7.5-1.4,11.4-1.9s7.8-0.6,11.6-0.5L363.4,977.3z"/>
			</g>
			<path class="st17" d="M221.1,904.8l-23.7,86.9l-2.8,10.1c-2.9,10.7-14,17-24.7,14.1L14.8,973.6c-10.7-2.9-17.1-14-14.1-24.7
				l15.6-57.2l10.9-39.8c2.9-10.7,14-17.1,24.7-14.1L207,880.1C217.7,883,224,894,221.1,904.8z"/>
			<path class="st12" d="M77.5,872.1l13.8-50.5c1.8-6.7,8.7-10.6,15.3-8.8l0,0l-17,62.5L77.5,872.1z"/>
			<path class="st12" d="M156.2,890.2l16.2-59.6l0,0c6.7,1.8,10.6,8.7,8.8,15.3l-13,47.5L156.2,890.2z"/>
			<circle class="st8" cx="82.7" cy="877" r="10.8"/>
			<circle class="st8" cx="161.5" cy="894.5" r="10.8"/>
			<path class="st18" d="M197.4,991.6l-2.8,10.1c-2.9,10.7-14,17-24.7,14.1L14.8,973.6c-10.7-2.9-17.1-14-14.1-24.7L21.4,873
				C16.2,944.8,128.1,991.4,197.4,991.6z"/>
		</g>
		<g>
			<polygon class="st19" points="1548.4,1013.5 1548.4,1119.7 383.7,1563.3 110.2,1563.3 110.2,1461.2 381.3,1461.2 381.6,1404.9 
				381.9,1348.5 654.2,1348.5 654.2,1235.9 925.3,1235.9 925.3,1126.1 1196.4,1126.1 1196.4,1013.4 			"/>
			<path class="st20" d="M922.4,1238.8H655c-3,0-5.4-2.4-5.4-5.4l0,0c0-3,2.4-5.4,5.4-5.4h267.4c3,0,5.4,2.4,5.4,5.4l0,0
				C927.8,1236.4,925.4,1238.8,922.4,1238.8z"/>
			<path class="st20" d="M1194,1130.5H926.7c-3,0-5.4-2.4-5.4-5.4l0,0c0-3,2.4-5.4,5.4-5.4H1194c3,0,5.4,2.4,5.4,5.4l0,0
				C1199.5,1128,1197,1130.5,1194,1130.5z"/>
			<path class="st20" d="M1548.5,1016.4h-352.6c-3,0-5.4-2.4-5.4-5.4l0,0c0-3,2.4-5.4,5.4-5.4h352.6c3,0,5.4,2.4,5.4,5.4l0,0
				C1554,1013.9,1551.5,1016.4,1548.5,1016.4z"/>
			<path class="st20" d="M651,1350.8H383.7c-3,0-5.4-2.4-5.4-5.4l0,0c0-3,2.4-5.4,5.4-5.4H651c3,0,5.4,2.4,5.4,5.4l0,0
				C656.5,1348.4,654,1350.8,651,1350.8z"/>
			<path class="st20" d="M378.7,1463.4H111.3c-3,0-5.4-2.4-5.4-5.4l0,0c0-3,2.4-5.4,5.4-5.4h267.4c3,0,5.4,2.4,5.4,5.4l0,0
				C384.1,1461,381.7,1463.4,378.7,1463.4z"/>
		</g>
		<g>
			<g>
				<g>
					<path class="st21" d="M677.2,864.9l-1.5-16.8l26.8-2.4c139.2-12.3,256.2-106.4,298.2-239.6l34.3-108.8l16.1,5.1l-34.3,108.8
						C972.8,750.9,850,849.6,704,862.5L677.2,864.9z"/>
				</g>
				<g>
					<polygon class="st21" points="1043.5,600.5 1036.2,520.4 981.8,583.5 969,572.5 1049.4,479.4 1060.3,599 					"/>
				</g>
			</g>
			<path class="st22" d="M419.6,281.3c0,2.9-1.1,5.6-3.1,8.2H110.8c-1.2-2.6-1.8-5.4-1.8-8.2c0-15.3,17.8-27.8,39.8-27.8
				c7,0,13.5,1.3,19.2,3.5c3-21.8,32.9-38.9,69.2-38.9c37.9,0,68.7,18.6,69.5,41.6c11.9-3.9,27.1-6.2,43.6-6.2
				C388.6,253.5,419.6,265.9,419.6,281.3z"/>
			<path class="st22" d="M952.4,75.6c0,3.4-1.3,6.8-3.7,9.9H582.8c-1.4-3.1-2.1-6.4-2.1-9.9c0-18.4,21.3-33.2,47.6-33.2
				c8.3,0,16.2,1.5,23,4.1c3.6-26,39.3-46.5,82.9-46.5c45.4,0,82.3,22.2,83.2,49.8c14.2-4.6,32.4-7.4,52.2-7.4
				C915.3,42.4,952.4,57.3,952.4,75.6z"/>
		</g>
	</g>
</g>
</svg>
