<svg xmlns="http://www.w3.org/2000/svg" xml:space="preserve" id="Layer_1" x="0" y="0" style="enable-background:new 0 0 145 30" version="1.1" viewBox="0 0 145 30"><style>.st0{fill:#4169e1}</style><path d="m19.7 29.7-5.6-8-4.7 8h-9l9.3-14.5L0 1.4h9.4l5.4 7.8 4.6-7.8h9l-9.2 14.3 9.8 14h-9.3zM49.5 1.4v18.8c0 3.2-.9 5.6-2.6 7.3-1.7 1.7-4.1 2.5-7.2 2.5-3.2 0-5.8-.9-7.8-2.7-1.9-1.8-2.9-4.4-2.9-7.7h7.9c0 2.2.9 3.3 2.5 3.3 1.5 0 2.2-.9 2.2-2.7V1.4h7.9zm25.2 16.8c0 .6 0 1.2-.1 1.8h-15c.1 1.2.4 2.2 1 2.8.6.6 1.4.9 2.4.9 1.3 0 2.3-.6 2.8-1.8h8.5c-.4 1.6-1 2.9-2.1 4.2-1 1.2-2.3 2.2-3.8 2.9-1.5.7-3.2 1-5.1 1-2.2 0-4.2-.5-6-1.4-1.7-.9-3.1-2.3-4.1-4-1-1.7-1.5-3.8-1.5-6.1 0-2.4.5-4.4 1.5-6.1 1-1.7 2.3-3.1 4.1-4 1.8-.9 3.8-1.4 6-1.4s4.2.5 6 1.4c1.7.9 3.1 2.2 4.1 3.9.8 1.6 1.3 3.6 1.3 5.9zm-8.1-2c0-1-.3-1.7-1-2.2-.6-.6-1.5-.8-2.4-.8-1 0-1.8.3-2.4.8-.6.5-1 1.3-1.2 2.3h7zM91 29.7l-6.3-9.2v9.2h-7.9V0h7.9v16L91 7.2h9.5l-9 11.3 9.1 11.2H91z"/><path d="M143.4 7.9h-11.9v4.3c.5-.5 1.2-.9 2.1-1.3.9-.3 1.8-.5 2.9-.5 1.9 0 3.5.4 4.7 1.3 1.3.9 2.2 2 2.8 3.4.6 1.4.9 2.9.9 4.6 0 3.1-.9 5.5-2.6 7.3-1.8 1.7-4.2 2.6-7.4 2.6-2.2 0-4.1-.4-5.7-1.1-1.6-.8-2.8-1.8-3.6-3.1-.8-1.3-1.3-2.9-1.3-4.6h7.5c.1.6.3 1.1.8 1.6.4.4 1.1.7 2 .7.9 0 1.6-.3 2.1-.9.5-.6.7-1.5.7-2.5s-.3-1.8-.8-2.3c-.5-.5-1.2-.8-2.2-.8-.7 0-1.3.2-1.7.5-.4.3-.7.8-.8 1.3h-7.5V1.1h18.9v6.8zM100.3 23.8c2.6-2 4.8-3.8 6.4-5.3 1.7-1.5 3.1-3 4.2-4.5 1.1-1.6 1.7-3.1 1.7-4.5 0-.9-.2-1.5-.6-2-.4-.5-.9-.7-1.7-.7-.8 0-1.4.3-1.8 1-.4.6-.6 1.6-.6 2.9h-7.7c.1-2.4.6-4.4 1.6-5.9 1-1.6 2.2-2.7 3.8-3.5 1.6-.7 3.3-1.1 5.2-1.1 3.3 0 5.8.8 7.4 2.4 1.6 1.6 2.4 3.7 2.4 6.3 0 2.8-.9 5.4-2.8 7.8-1.9 2.4-4.2 4.6-7 6.5H121v6.4h-20.7v-5.8z" class="st0"/></svg>