<svg width="386" height="246" xmlns="http://www.w3.org/2000/svg" xml:space="preserve" id="Layer_1" x="0" y="0" style="enable-background:new 0 0 499 319" version="1.1" viewBox="0 0 499 319"><style>.st0{fill:#e0f2ff}.st1{fill:#4895e0}.st2{fill:#79b9f7}.st3{fill:#316699}.st4{fill:#bcdffd}.st5{fill:#121b46}.st6{fill:#fff}.st7{fill:#1b2869}.st8{fill:none;stroke:#364ec9;stroke-width:2;stroke-linecap:round;stroke-linejoin:round;stroke-dasharray:7,7}.st9{fill:#a8d0f7}.st10{fill:#35c4a6}.st11{fill:#f46a2b}.st15{fill:#fdb32c}.st16{fill:none;stroke:#fff;stroke-width:2.2;stroke-linecap:round;stroke-linejoin:round}.st17{fill:#cc6f49}.st19{fill:#ed8d5d}.st21{fill:#c8d5e8}</style><path d="M423.8 226.1c50.5-12.9 83.6-65.7 73.8-120.8-.2-1.2-.4-2.4-.7-3.6-4.2-21.2-13.6-43.3-31.7-52.6-15.7-7.9-34.4-4.3-50.2 3.3-15.8 7.7-29.8 19-45.3 27.3-27.6 14.7-59.6 19-90.1 12-38.3-8.9-71-34.7-105.8-53.9S96.5 6 61.2 24.4c-24 12.5-40.6 37.7-50 64.6-19.7 55.8-11 122.2 22.1 169.9 24.4 35.2 74.7 34 115.3 36.9 71.3 5 142.7-8.7 207.2-39.7 20.3-9.8 40-21.2 61.3-28 2.2-.7 4.5-1.4 6.7-2z" class="st0"/><path d="M417 37.1c3.7-2.9 7.4-6.1 10-10.2 2.6-4.1 4.1-9.3 3-14.1-.7-2.7-2-5.1-3.8-7.1-1.9-2-4.2-3.6-6.8-4.5-5-1.8-10.4-1.5-15.5-.2-20 4.7-38.3 24.7-40.4 47.3-1.5 16.2 5 16.2 16.2 11.1C393 53.5 405.6 46 417 37.1z" class="st0"/><path d="M360.1 212.8c-9.7 0-19.5-3.2-24.8-10.3-14.3-2.5-25.5-17.2-25.6-33.4 0-2.2.2-4.4.5-6.5l.2-1.5 1 1.1c.4.5.9.9 1.5 1.2 1.9 1 4 1.7 6.2 2.1l1.3.3c3.2.7 6.3 1.8 9.2 3.1l.2.1c.9.5 2 .8 3 .8.5 0 1.1-.3 1.4-.7.2-.2.3-.5.3-.8 0-.7-.8-1.3-1.6-1.8l-14-9.1c-1.6-1.2-3.5-2.1-5.6-2.6l-1.2-.1.3-.9c2.8-7.2 6.9-13.8 12.1-19.4l.9-1 .3 1.3c.4 1.6 2 2.8 3.5 4.1l1.1.9c2.3 2.2 4.3 4.7 5.9 7.5.4.7.9 1.4 1.3 2 1.9 2.8 4.5 6.2 8.3 7.4.3.1.6.2.8.1.3-.1.5-.3.6-.5.2-.2.2-.5.2-.8-.1-.8-.4-1.5-.8-2.1-.9-1.4-2-2.8-3.1-4.1-.8-1-1.7-2.1-2.5-3.2-2.4-3.6-4.2-7.6-5.2-11.8l-.2-.8c-.3-1.7-.9-3.3-1.8-4.8-.3-.4-.6-.8-1-1.1l-.6-.6.7-.5c4.8-3.8 9.9-7.2 15.3-10.2l.7-.4.4.7c.6 1.2 1.4 2.2 2.3 3.3l.5.6c3.2 4.1 5.7 8.8 7.3 13.8.1.2.3 1 .6 1h.2c.3-.3.6-.8.6-1.2 1.1-5.4-1.3-10.8-3.4-15l-.1-.3c-1-1.7-1.7-3.5-2-5.5v-.8l.4-.2c4-2.1 8.1-4 12.2-6l3.8-1.8.2 1c.1.6.2 1.2.4 1.7l2.7 12.1c.1.7.4 1.3.8 1.5.2 0 .4 0 .7-.1.2-.1.4-.2.5-.4.4-.6.6-1.2.7-1.9.7-3 1.1-6.1 1.2-9.1 0-.6 0-1.3-.1-2 0-1-.1-2-.1-3 .1-1.1.2-2.1.5-3.1l.1-.3.3-.1c6.1-3 11.9-6.4 17.6-10.1 1.1-.7 2.3-1.2 3.7-1.3 1.3-.1 2.6.2 3.8.7 1.2.6 2.2 1.5 2.9 2.6.7 1.1 1.2 2.4 1.2 3.7.3 5 .5 10.3.5 16.2v.1l-.1.1c-.3.7-.6 1.3-1 2-1.3 1.8-2.9 3.3-4.8 4.4-.9.5-1.8.9-2.7 1.4-.6.3-1.2.5-1.7.8-2.7 1.5-5.2 3.3-7.5 5.3-.5.4-1 .9-1.3 1.5-.1.2-.2.4-.1.6 0 .2.1.4.3.6.4.3 1 .1 1.7 0L404 126c1.5-.3 2.9-.9 4.1-1.6l1.2-.7v1.4c-.1 5.4-.3 10.8-.4 16.3v.4l-.1.2c-.5.8-1.3 1.5-2.1 2-1.8.7-3.8 1-5.7.9h-.3c-4.7.1-10.6.6-14.8 4-.4.3-.7.7-.8 1.1v.2c.2.2 1 .1 1.2.1 5.2-.9 10.4-1 15.6-.1l.8.1c1.6.4 3.3.5 5 .4l.9-.1-.1.9c-.4 6.2-1.3 12.4-2.6 18.4l-.2.8-.6-.4c-.5-.2-1.1-.4-1.7-.4-1.7-.1-3.4.1-5 .6l-.8.2c-4.2 1.1-8.6 1.4-12.9 1-1.3-.2-2.7-.4-4-.7-1.7-.4-3.4-.6-5.1-.8-.8-.1-1.5 0-2.3.3-.3.1-.5.3-.6.6-.1.2-.2.5-.1.8.1.3.3.5.5.7 2.8 2.8 7 3.5 10.4 3.9l2.4.2c3.2.1 6.3.7 9.3 1.7l1.3.6c1.8.8 3.6 1.5 5.1 1.2l1.3-.3-.5 1.3c-2.7 7-6.8 13.5-12.1 18.9l-.5.6-.5-.6c-1.3-1.3-2.8-2.3-4.4-3.1l-14.6-8.1c-.8-.5-1.7-.9-2.3-.6-.3.1-.5.4-.6.6-.2.5-.2 1.1.1 1.6.5.9 1.3 1.7 2.2 2.3l.1.1c2.6 2 4.9 4.2 7.1 6.7l.9 1c1.3 1.7 2.9 3.2 4.8 4.4l.1.1 1.1.6-1 .7c-2.3 1.5-4.8 2.8-7.4 3.8-5.1 1.8-10.2 2.7-15.3 2.6zm-48.6-48.6c-.2 1.6-.3 3.2-.3 4.9.1 15.7 10.9 29.8 24.7 32.1h.3l.2.2c7.7 10.6 25.8 12.1 38.2 7.4 2.1-.8 4.2-1.8 6.1-3-1.6-1.2-3.1-2.7-4.3-4.3-.3-.3-.6-.7-.9-1-2.1-2.4-4.4-4.6-6.8-6.5l-.1-.1c-1.1-.7-2-1.7-2.6-2.8-.2-.4-.3-.9-.3-1.3 0-.5.1-.9.2-1.4.1-.3.3-.6.5-.9.2-.3.5-.5.8-.6 1.4-.6 2.9.2 3.6.7l14.6 8.1c1.5.8 2.9 1.7 4.2 2.8 4.6-4.9 8.2-10.6 10.8-16.8-1.7-.2-3.3-.7-4.8-1.4-.4-.2-.9-.4-1.3-.5-2.9-1-5.9-1.5-8.9-1.6-.8-.1-1.6-.1-2.5-.2-3.6-.4-8.1-1.2-11.3-4.3-.4-.3-.7-.8-.9-1.3-.2-.6-.1-1.2.2-1.8.3-.6.7-1 1.3-1.3.9-.4 2-.6 3-.4 1.8.2 3.5.4 5.3.8 1.3.3 2.6.5 3.9.7 4.1.5 8.3.1 12.4-.9l.8-.2c1.8-.6 3.7-.8 5.6-.7.4.1.8.1 1.2.2 1.2-5.5 2-11 2.4-16.6-1.5 0-3.1-.2-4.6-.5l-.8-.1c-5-.9-10.1-.8-15.1.1-.4.1-.9.2-1.4.1-.5-.1-.9-.3-1.2-.6-.3-.4-.4-.8-.4-1.3.2-.8.6-1.6 1.3-2.1 4.6-3.7 10.8-4.3 15.7-4.3h.3c1.8.1 3.5-.1 5.1-.8.6-.4 1.1-.8 1.5-1.4.2-5 .3-9.9.4-14.9-1.1.5-2.2.9-3.4 1.2l-11.9 3.3c-.5.2-1 .3-1.5.2-.5 0-1-.2-1.5-.5-.4-.4-.7-.9-.8-1.4-.1-.5 0-1.1.2-1.6.4-.8 1-1.4 1.7-2 2.4-2.1 5-3.9 7.8-5.5l1.8-.9c.9-.4 1.8-.8 2.6-1.3 1.7-1 3.2-2.4 4.3-4 .3-.5.6-1 .7-1.6 0-5.9-.2-11-.5-15.9-.1-1-.4-2.1-1-2.9-.6-.9-1.4-1.6-2.3-2-.9-.5-2-.7-3.1-.6-1.1.1-2.1.4-3 1-5.6 3.7-11.4 7-17.4 10-.2.8-.3 1.6-.4 2.5 0 1 0 2 .1 2.9 0 .7.1 1.3.1 2-.1 3.2-.5 6.3-1.2 9.4-.1.9-.4 1.7-.9 2.5-.3.5-.8.8-1.3 1-.5.2-1.1.2-1.6 0-.4-.3-.8-.6-1.1-1.1-.3-.4-.4-.9-.5-1.5l-2.7-12.1c-.1-.3-.1-.6-.2-.8l-2.1 1c-4 2-7.9 3.8-11.8 5.8.3 1.7.9 3.3 1.7 4.7l.2.3c2.3 4.4 4.7 10.1 3.5 15.9-.1.8-.6 1.6-1.3 2.2l-.6.3h-.7c-1.1-.2-1.5-1.5-1.7-2-1.5-4.8-3.9-9.4-7-13.4l-.5-.6c-.7-.9-1.4-1.8-2-2.8-4.8 2.7-9.4 5.8-13.8 9.2.2.2.4.5.6.7 1 1.6 1.7 3.4 2 5.3l.2.8c1 4.1 2.6 7.9 5 11.4.8 1.1 1.6 2.1 2.4 3.1 1.2 1.4 2.2 2.8 3.2 4.3.6.9 1 1.9 1 2.9 0 .6-.2 1.2-.6 1.7-.4.5-.9.8-1.5 1-.5.1-1 0-1.5-.2-4.2-1.3-7-5-9-7.9-.5-.7-.9-1.4-1.4-2.1-1.5-2.6-3.4-5-5.6-7.1-.3-.3-.7-.6-1.1-.9-1.4-1-2.6-2.2-3.5-3.7-4.6 5.1-8.2 10.9-10.7 17.3 2 .5 3.9 1.4 5.6 2.6l14 9.1c.8.5 2.2 1.4 2.3 2.9 0 .3 0 .7-.1 1-.1.3-.3.6-.5.9-.6.7-1.5 1.1-2.4 1.2-1.3 0-2.6-.4-3.7-1l-.2-.1c-2.9-1.3-5.9-2.3-9-3l-1.3-.3c-2.3-.4-4.6-1.1-6.6-2.3-.1-.4-.4-.5-.6-.7z" class="st1"/><path d="M228.1 207.5c-.7-2.3-1.6-4.5-2.7-6.7 0 .1-.1.1-.1.2-1.4 2-3.5 3.3-5.4 4.7-2.3 1.7-4.4 3.5-6.4 5.6-.7.9-1.5 1.6-2.5 2-.5.2-1.1.2-1.6 0s-.9-.6-1.2-1.1c-.1-.5 0-.9.1-1.4.1-.4.4-.9.7-1.2l8.3-12.2c.9-1.4 1.9-2.7 3.2-3.8-4.3-5-9.6-9-15.5-11.9.2 1.9-1.2 4-2.1 5.9-1.6 3.1-1.9 6.7-2.6 10.1-.7 3.4-1.8 7-4.4 9.2-.3.3-.6.4-.9.5-.4.1-.8 0-1.1-.2-.3-.2-.6-.5-.7-.9-.2-.8-.3-1.6-.1-2.4.4-2.7 1.5-5.3 2-7.9.7-3.7.8-7.5.2-11.2-.4-1.8-.5-3.6-.3-5.4.1-.6.3-1.1.6-1.6-5.2-1.7-10.6-2.9-16-3.7-.1 1.8-.4 3.5-1 5.2-1.2 4.4-1.6 9-1.2 13.5 0 .6.1 1.3-.4 1.7-.7.5-1.6-.2-2-.9-2.7-3.9-2.8-9-2.5-13.8.3-1.7.2-3.5-.3-5.2-.4-.7-.9-1.3-1.5-1.8h-.1c-4.8-.6-9.5-1.2-14.3-1.7.6 1.3 1 2.6 1.2 4 .6 3.6 1.3 7.2 1.9 10.7.1.3.2.7.1 1.1 0 .4-.2.7-.4 1-.3.2-.6.4-.9.4-.3 0-.7-.1-1-.2-.6-.4-1-.9-1.4-1.5-1.6-2.2-3-4.6-4.2-7.2-.5-1.3-1-2.7-1.6-4-.8-1.7-1.9-3.2-3.4-4.3-.5-.4-1-.7-1.6-.9-4.7-.4-9.5-.7-14.2-.8-1 0-2.1.2-3 .7-.9.5-1.7 1.2-2.2 2.1-.5.9-.8 1.9-.9 2.9 0 1 .2 2.1.7 3 2.8 5.3 5.4 10.8 7.5 16.4.8.3 1.7.5 2.6.6 1.4.2 2.9.1 4.3.2 2.8.3 5.5.9 8.1 1.8.7.1 1.3.4 1.9.9.3.2.5.5.5.9.1.3.1.7-.1 1-.2.3-.5.5-.8.7-.3.2-.7.2-1 .2l-10.8 1.4-1.6.2 1 2.7c1.4 3.8 2.8 7.5 4.3 11.2h.3c1.7-.1 3.4-.5 5-1.3 4.4-1.8 9.3-3.2 13.9-1.9.8.2 1.7.9 1.5 1.6-.2.6-.9.8-1.4.9-4.5 1-8.7 2.8-12.5 5.2-1.2.8-2.4 1.6-3.7 2.2 2.2 4.9 4.8 9.7 7.7 14.2.4-.3.7-.6 1.1-.8 1.6-.8 3.4-1.3 5.2-1.4 3.7-.5 7.3-1.8 10.6-3.6 2.4-1.4 4.5-3.1 6.9-4.4.7-.4 1.5-.6 2.3-.6.4 0 .8.2 1.1.4.3.3.5.6.6 1 0 .4-.1.7-.2 1-1.3 3.2-4.4 5.4-7.4 7s-6.3 3.1-8.8 5.5c-1.5 1.5-3.1 3.5-5.1 3.9 4.5 5 9.9 9.1 16 12.1v-.2c.6-1.8 1.5-3.5 2.8-4.9l9.1-11.7c.6-.7 1.3-1.5 2.2-1.5.5.1 1 .4 1.4.8.3.4.5 1 .5 1.5-.1 1.1-.5 2.1-1.2 3-1.4 2.5-2.5 5.1-3.4 7.8-.7 2.3-1.3 4.7-2.8 6.6-.4.5-.8.9-1.3 1.3 1.8.5 3.7.8 5.6 1 13.2 1.1 27.5-6.8 30.8-19.7 10.4-6 13.2-22.4 10-33.8zm-64.1-1.7c-.4.9-1.6 1.1-2.5 1-1.9 0-3.8 0-5.7-.1-1 0-2.3-.4-2.2-1.4.1-.5.6-.8 1-1.1 1.1-.5 2.4-.6 3.6-.3v-.5c1.2.4 2.4 0 3.6.1 1.2.1 2.6 1.1 2.2 2.3zm23 0c-.2.6-.4 1.3-1 1.4-.6.1-1.3-.4-1.7-1-1.7-2.6-2.4-5.6-2.1-8.7-.1-.2-.1-.3-.1-.5s0-.4.1-.5c.1-.2.2-.3.3-.4.1-.1.3-.2.5-.3.4-.1.8 0 1.2.1.4.1.7.3 1 .6 2.5 2.1 2.6 6 1.8 9.3z" class="st2"/><path d="M191.4 238.8c-4.3 2.6-4.2 7.9-4.4 12.6-.1 1.8-.3 3.5-.5 5.2-.8 5.7-9.2 5.7-10 0-.2-1.7-.4-3.4-.4-5.2-.2-6.5.5-13.1-.5-19.6-1.1-7.1-4.5-14.2-11.1-17.2-1.7-.8-3.7-1.1-5.5-.8-5.9 1-6.8 6.8-7.9 11.2-.3 1.5-.6 2.9-.9 4.4-.2 1.4-.8 2.7-1.8 3.7-.9 1-2.2 1.8-3.5 2.1-1.4.3-2.8.3-4.1-.2-1.3-.5-2.5-1.3-3.3-2.4-5-6.6-10.8-12.5-17.3-17.5-2-1.5-4.6-3.9-7.1-3.8-2 0-11.7 2.5-13.2 11.4-.3 2.2-.1 4.5.7 6.6.8 2.1 2.1 4 3.9 5.4 6.3 5.3 13.3 9.7 20.8 13.2 1.3.6 2.3 1.5 3 2.7.7 1.2 1.1 2.6 1.1 3.9 0 1.4-.5 2.7-1.3 3.9-.8 1.1-1.9 2-3.2 2.6-2.1.8-4.1 1.7-6.1 2.7-3.7 1.8-7.7 4.1-7.4 9.2.1 1.9.9 3.8 2.1 5.3 4.3 5.8 12.1 7.5 19.1 7.1 6.5-.4 12.8-2.5 19.3-3.7 1.6-.3 3.3-.5 5-.7 1.2-.1 2.5.2 3.5.9s1.7 1.8 2 3 .1 2.5-.5 3.6-1.6 1.9-2.8 2.3c-1.6.6-3.2 1.1-4.9 1.6-4.5 1.2-9.8 2.3-11.4 7-.4 1.2-.5 2.5-.3 3.8.2 1.3.7 2.5 1.5 3.5 3 4.3 8.2 5.7 13.1 6.3 9.4 1 19-.4 27.7-4.2 1.2-.5 2.4-1.1 3.6-1.6 4.4-1.9 8.2-5.1 11-9.1.8-1.3 1.8-2.5 2.9-3.6 3.4-3.5 5.7-7.9 6.6-12.7.3-1.3.6-2.6.8-3.9 1.8-9.3 1.2-18.9-1.9-27.9-1.6-4.7-4-9.5-8.9-11.5-1.2-.5-2.5-.8-3.7-.7-1.5.1-2.7.5-3.8 1.1z" class="st1"/><path d="m199.4 294.9-11.9-9.9-12-9.8-13.1-10.6-.3-5.4-.4-5.8c-.3-3.8-.6-7.7-.9-11.5-.3-3.8-.7-7.7-1.2-11.5-.4-3.8-.9-7.7-1.4-11.5.1 3.9.4 7.7.7 11.5.3 3.8.6 7.7.9 11.5.3 3.8.7 7.7 1.2 11.5l.7 5.7c.2 1.8.4 3.6.7 5.4l-11-8.8-14.4-11.4c0-1.7-.1-3.4-.3-5.1-.2-1.9-.6-3.8-1.2-5.7-.1 1.9 0 3.9.2 5.8.2 1.6.5 3.2 1 4.7l-9.5-7.5c-8.1-6.4-16.2-12.7-24.4-19 7.4 6.2 14.9 12.3 22.3 18.4-2.1.2-4.1.6-6.2 1-2.3.5-4.5 1.2-6.7 2.1 4.4-.4 8.8-1.4 13-2.9l1.4 1.1 24.1 19.4 6.5 5.2c-1.5.4-3 .9-4.5 1.3l-5 1.5c-3.3 1-6.6 2.1-9.9 3.2-3.3 1.1-6.6 2.3-9.8 3.5-3.2 1.2-6.5 2.4-9.8 3.7 3.3-1 6.7-2 10-3 3.3-1.1 6.6-2.1 9.9-3.2s6.6-2.3 9.8-3.5l4.9-1.8c1.5-.6 2.9-1.1 4.4-1.7l17.6 14 12.2 9.6 3.6 2.8c-1.5.2-3 .5-4.5.8l-4.5.9c-3 .6-6 1.3-8.9 2-3 .6-5.9 1.4-8.9 2.2-2.9.8-5.9 1.6-8.8 2.5 3-.5 6-1.1 9-1.7 3-.6 6-1.3 8.9-1.9 3-.6 5.9-1.4 8.9-2.2l4.4-1.2c1.5-.4 2.9-.8 4.4-1.3l8.8 6.6z" class="st3"/><path d="m194.8 280.3.3 5.5c.1 1.8.2 3.7.4 5.5.1-1.9.1-3.7.1-5.5v-5.5c0-3.7-.1-7.4-.2-11.1-.1-3.7-.2-7.4-.4-11.1l-.6-11.1c-.1 3.7-.1 7.4-.1 11.1 0 3.7.1 7.4.2 11.1-.1 3.7.1 7.4.3 11.1z" class="st3"/><path d="M402.8 266.7c-3.3-4.3-9.1-3.5-14.2-3.1-1.9.1-3.8.2-5.7.1-6.3-.2-7.4-9.2-1.3-10.8 1.8-.5 3.7-.9 5.5-1.2 7-1.1 14.2-1.2 21.1-3.1 7.5-2.1 14.8-6.7 17.1-14.3.6-2 .7-4.1.2-6.1-1.8-6.2-8.2-6.5-13.1-7-1.6-.2-3.2-.3-4.9-.4-1.5-.1-3-.6-4.2-1.4-1.2-.9-2.2-2.1-2.7-3.5-.6-1.4-.7-3-.4-4.4.3-1.5 1-2.8 2.1-3.9 6.4-6.2 12-13.3 16.6-21 1.4-2.4 3.5-5.5 3.2-8.2-.3-2.1-4.3-12.3-14.1-12.8-2.4-.1-4.8.5-7 1.6s-4 2.8-5.3 4.9c-4.9 7.5-8.7 15.7-11.5 24.2-.5 1.4-1.4 2.7-2.5 3.6s-2.6 1.5-4.1 1.6c-1.5.1-3-.2-4.3-.8-1.3-.7-2.4-1.8-3.2-3.1-1.2-2.1-2.4-4.2-3.7-6.2-2.4-3.8-5.5-7.7-10.9-6.8-2.1.4-4 1.4-5.5 2.9-5.6 5.5-6.5 14-5.1 21.6 1.3 7 4.4 13.5 6.6 20.3.5 1.7 1 3.5 1.4 5.3.3 1.3.1 2.7-.6 3.8-.7 1.2-1.7 2-3 2.5-1.3.4-2.6.4-3.9-.1-1.2-.5-2.3-1.4-2.9-2.6-.9-1.6-1.6-3.3-2.3-5-1.9-4.7-3.7-10.2-9.1-11.3-1.4-.2-2.8-.2-4.1.2-1.3.4-2.6 1.1-3.6 2-4.3 3.8-5.1 9.6-5 15 .1 10.3 2.9 20.4 8.2 29.3.7 1.2 1.5 2.5 2.2 3.7 2.7 4.5 6.6 8.2 11.3 10.6 1.5.7 2.9 1.6 4.2 2.6 4.2 3.2 9.3 5.1 14.5 5.4 1.4.1 2.9.3 4.3.4 10.3.7 20.6-1.2 29.9-5.6 4.9-2.3 9.7-5.6 11.2-11.1.4-1.3.5-2.7.3-4.1-.3-1.3-.9-2.6-1.7-3.7z" class="st2"/><path d="M408 227.4c-3.5-.3-6.9-.5-10.4-.7-3.5-.2-6.9-.4-10.4-.5l-5.2-.1h-4.3l.5-.7 18.4-28.3 2.6-4c3.1-1.1 6.1-2.4 9-3.9 3.1-1.5 6.1-3.1 9-4.9-3.2 1.2-6.3 2.5-9.4 4-2.9 1.4-5.8 2.9-8.5 4.6l6.4-10.1 9-14.2-9.4 14-9.4 14-1.3 1.9c.7-3.7 1.1-7.5 1.4-11.3.3-4 .6-8 .6-12-.7 3.9-1.2 7.9-1.6 11.9-.3 3.8-.6 7.7-.6 11.5l-17.1 26.1-5.6 8.6c-.3-1.7-.6-3.3-.9-5l-1.2-5.6-2.4-11.1c-.8-3.7-1.7-7.4-2.7-11.1-.9-3.7-1.9-7.4-2.9-11 .7 3.7 1.4 7.5 2.2 11.2.8 3.7 1.6 7.4 2.5 11.1.8 3.7 1.7 7.4 2.7 11.1l1.4 5.5c.5 1.6.9 3.3 1.4 4.9L359 253.1c-3.7 5.7-7.4 11.4-11 17.2-.6-1.7-1.2-3.5-1.8-5.2l-2-5.7c-1.4-3.8-2.8-7.5-4.2-11.3s-2.9-7.5-4.5-11.2c-1.5-3.7-3.1-7.4-4.7-11.1 1.3 3.8 2.6 7.6 4 11.4s2.8 7.5 4.2 11.3c1.4 3.7 2.9 7.5 4.4 11.2l2.3 5.6c.7 1.7 1.4 3.4 2.2 5.1-2.4 3.7-4.8 7.5-7.1 11.2 2.4-3.6 4.9-7.2 7.3-10.8v.1-.1l2.7-4c1.8.2 3.6.3 5.4.4l5.4.3c3.6.2 7.2.4 10.8.5 3.6.1 7.2.2 10.9.3 3.6 0 7.2.1 10.9 0-3.6-.3-7.2-.6-10.8-.8-3.6-.2-7.2-.4-10.9-.5l-10.8-.3-5.4-.1h-5.4l8.8-13.2 18-27.3c1.4.2 2.9.3 4.3.4l5.2.4c3.5.3 6.9.5 10.4.7 3.5.2 6.9.4 10.4.4 3.5.1 6.9.2 10.4.2-3.5-.2-6.9-.5-10.4-.8z" class="st3"/><path d="M341.4 12.7h-147c-6.4 0-11.5 5.2-11.5 11.5v283.2c0 6.4 5.2 11.5 11.5 11.5h147c6.4 0 11.5-5.2 11.5-11.5V24.2c0-6.4-5.1-11.5-11.5-11.5z" class="st4"/><path d="M349 30.2H186.8v260.9H349V30.2zM287.7 19.1h-48.1V23h48.1v-3.9zM296.2 21.1c0 .4-.1.8-.3 1.1-.2.3-.5.6-.9.8-.4.2-.8.2-1.2.1-.4-.1-.8-.3-1-.6-.3-.3-.5-.6-.6-1-.1-.4 0-.8.1-1.2.2-.4.4-.7.8-.9.3-.2.7-.3 1.1-.3.5 0 1.1.2 1.4.6s.6.8.6 1.4zM288.9 298H247v8.3h41.9V298z" class="st5"/><path d="M349 30.2H186.8v9.3H349v-9.3zM349 270.9H186.8v20.3H349v-20.3z" class="st6"/><path d="M335.3 245.7h-33.7c-1.9 0-3.5 1.6-3.5 3.5v33.7c0 1.9 1.6 3.5 3.5 3.5h33.7c1.9 0 3.5-1.6 3.5-3.5v-33.7c0-1.9-1.6-3.5-3.5-3.5z" class="st7"/><path d="M335.3 245.7h-33.7c-1.9 0-3.5 1.6-3.5 3.5v33.7c0 1.9 1.6 3.5 3.5 3.5h33.7c1.9 0 3.5-1.6 3.5-3.5v-33.7c0-1.9-1.6-3.5-3.5-3.5z" class="st8"/><path d="M234.2 245.7h-33.7c-1.9 0-3.5 1.6-3.5 3.5v33.7c0 1.9 1.6 3.5 3.5 3.5h33.7c1.9 0 3.5-1.6 3.5-3.5v-33.7c0-1.9-1.5-3.5-3.5-3.5z" class="st9"/><path d="M203.2 258.5c0-.4.1-.7.3-1.1.2-.3.4-.6.7-.8 1-.9 4.3-5 5.2-4.4.9.5 3.6 6.1 3.2 7.1s-2.4 1.7-2.1 3.3c.3 1.6 7.2 11.3 10.9 11s2.4-3.1 4-2.8 6.3 3.6 6.2 5c-.1 1.4-3.4 5.8-7.6 4.8-5.2-1.3-10-4-13.7-8s-6.1-8.8-7.1-14.1z" class="st6"/><path d="M284.7 245.7H251c-1.9 0-3.5 1.6-3.5 3.5v33.7c0 1.9 1.6 3.5 3.5 3.5h33.7c1.9 0 3.5-1.6 3.5-3.5v-33.7c0-1.9-1.5-3.5-3.5-3.5z" class="st10"/><path d="M282.1 256.9h-28.3v19.6h28.3v-19.6z" class="st6"/><path d="m254.2 257.8 6.6 6.6 3.3 3.3c.6.5 1.1 1.1 1.7 1.5l.9.6.2.1.1-.1.2-.1c1.3-.9 2.5-1.8 3.6-2.9l3.5-3.1 3.5-3.1 3.5-3.1c-2.1 2.3-4.3 4.5-6.6 6.7-1.1 1.1-2.3 2.2-3.4 3.2-1.2 1.1-2.4 2.1-3.7 3-.1.1-.2.1-.3.2-.1.1-.3.1-.4.2-.2 0-.4 0-.5-.1-.1 0-.2-.1-.3-.2-.3-.2-.7-.5-1-.7-.6-.5-1.2-1.1-1.8-1.6-1.1-1.1-2.2-2.2-3.2-3.4-1.9-2.1-4-4.5-5.9-7z" class="st5"/><path d="M254.1 275.4c2.3-3.2 5.1-6 8.3-8.3-1.1 1.6-2.4 3.1-3.8 4.5s-2.9 2.7-4.5 3.8zM279.9 275.4c-1.6-1.1-3.1-2.4-4.5-3.8s-2.7-2.9-3.8-4.5c1.6 1.1 3.1 2.4 4.5 3.8s2.7 2.9 3.8 4.5z" class="st5"/><path d="M284.7 160.5H251c-1.9 0-3.5 1.6-3.5 3.5v33.7c0 1.9 1.6 3.5 3.5 3.5h33.7c1.9 0 3.5-1.6 3.5-3.5V164c0-2-1.5-3.5-3.5-3.5z" class="st7"/><path d="M284.7 160.5H251c-1.9 0-3.5 1.6-3.5 3.5v33.7c0 1.9 1.6 3.5 3.5 3.5h33.7c1.9 0 3.5-1.6 3.5-3.5V164c0-2-1.5-3.5-3.5-3.5z" class="st8"/><path d="M233.9 160.5h-33.7c-1.9 0-3.5 1.6-3.5 3.5v33.7c0 1.9 1.6 3.5 3.5 3.5h33.7c1.9 0 3.5-1.6 3.5-3.5V164c0-2-1.6-3.5-3.5-3.5z" class="st9"/><path d="M234.3 195.1v-12.2c-.4-.7-.9-1.5-1.4-2.1-2-2.3-5.4-3.6-8.2-2.3-1.9.9-3 2.7-4.3 4.2-1.3 1.6-3.2 3-5.2 2.7-1.8-.3-3-1.8-4.1-3.3l-5.5-7.6c-.7-1-1.5-2-2.6-2.7-.5-.3-1-.5-1.5-.6-.6-.1-1.1 0-1.6.2V195h34.4zM225.7 173.7c2 0 3.6-1.6 3.6-3.6s-1.6-3.6-3.6-3.6-3.6 1.6-3.6 3.6 1.6 3.6 3.6 3.6zM325.9 178.3v-3.6h-2.6c-.3-1.1-.7-2.2-1.4-3.1l1.9-1.9-2.6-2.6-1.9 2c-.9-.6-2-1-3.1-1.3V165h-3.6v2.6c-1.1.2-2.2.6-3.1 1.3l-1.9-1.9-2.6 2.6 1.8 1.8c-.7 1-1.1 2-1.4 3.2h-2.5v3.6h2.4c.2 1.2.7 2.3 1.3 3.4l-1.6 1.6 2.6 2.6 1.6-1.6c1 .7 2.2 1.2 3.4 1.4v2.3h3.6v-2.3c1.2-.2 2.3-.7 3.3-1.4l1.7 1.6 2.6-2.6-1.7-1.7c.6-1 1.1-2.1 1.3-3.3l2.5.1zm-11.5 1.8c-.7 0-1.3-.2-1.9-.6-.6-.4-1-.9-1.3-1.5-.3-.6-.3-1.3-.2-2 .1-.7.5-1.3.9-1.8.5-.5 1.1-.8 1.8-.9.7-.1 1.4-.1 2 .2.6.3 1.2.7 1.5 1.3.4.6.6 1.2.6 1.9 0 .9-.4 1.8-1 2.4-.7.6-1.5 1-2.4 1zM334.6 191.4v-1.9h-1.4c-.1-.6-.4-1.2-.7-1.7l1-1-1.4-1.4-1 1c-.5-.3-1.1-.6-1.7-.7v-1.5h-2v1.5c-.6.1-1.2.3-1.7.7l-1-1-1.4 1.4 1 1c-.4.5-.6 1.1-.8 1.7h-1.3v2h1.3c.1.6.4 1.3.7 1.8l-.9.9 1.4 1.4.9-.9c.6.4 1.2.6 1.8.8v1.2h2v-1.2c.6-.1 1.3-.4 1.8-.8l.9.9 1.4-1.4-.9-.9c.3-.5.6-1.2.7-1.8l1.3-.1zm-6.3 1c-.4 0-.7-.1-1-.3-.3-.2-.5-.5-.7-.8-.1-.3-.2-.7-.1-1.1.1-.4.2-.7.5-1 .3-.3.6-.4 1-.5.4-.1.7 0 1.1.1.3.1.6.4.8.7.2.3.3.7.3 1 0 .2 0 .5-.1.7-.1.2-.2.4-.4.6s-.4.3-.6.4c-.3.1-.5.2-.8.2z" class="st6"/><path d="M284.7 58.2H251c-1.9 0-3.5 1.6-3.5 3.5v33.7c0 1.9 1.6 3.5 3.5 3.5h33.7c1.9 0 3.5-1.6 3.5-3.5V61.7c0-2-1.5-3.5-3.5-3.5z" class="st7"/><path d="M284.7 58.2H251c-1.9 0-3.5 1.6-3.5 3.5v33.7c0 1.9 1.6 3.5 3.5 3.5h33.7c1.9 0 3.5-1.6 3.5-3.5V61.7c0-2-1.5-3.5-3.5-3.5z" class="st8"/><path d="M335.6 58.2h-33.7c-1.9 0-3.5 1.6-3.5 3.5v33.7c0 1.9 1.6 3.5 3.5 3.5h33.7c1.9 0 3.5-1.6 3.5-3.5V61.6c0-1.9-1.6-3.4-3.5-3.4z" class="st11"/><path d="M321.9 82.6c3.7-3.4 3.9-9.2.4-12.9-3.4-3.7-9.2-3.9-12.9-.4-3.7 3.4-3.9 9.2-.4 12.9 3.5 3.7 9.3 3.9 12.9.4z" style="fill:none;stroke:#fff;stroke-width:2.66;stroke-miterlimit:10"/><path d="m324.5 83.7-2.8-2.8" style="fill:none;stroke:#fff;stroke-width:2.06;stroke-miterlimit:10"/><path d="m330.9 90.1-6.4-6.4" style="fill:none;stroke:#fff;stroke-width:3.09;stroke-miterlimit:10"/><path d="M284.7 109.4H251c-1.9 0-3.5 1.6-3.5 3.5v33.7c0 1.9 1.6 3.5 3.5 3.5h33.7c1.9 0 3.5-1.6 3.5-3.5v-33.7c0-1.9-1.5-3.5-3.5-3.5z" class="st15"/><path d="M265.4 122h-2.9v16.3h2.9V122z" class="st6"/><path d="M262.4 127.6v-5.9l14.8-4v5.9l-14.8 4zM265.4 138.3c0 .7-.2 1.3-.6 1.9-.4.6-.9 1-1.5 1.2-.6.3-1.3.3-2 .2-.7-.1-1.3-.5-1.7-.9-.5-.5-.8-1.1-.9-1.7-.1-.7-.1-1.3.2-1.9.3-.6.7-1.1 1.2-1.5.6-.4 1.2-.6 1.9-.6.9 0 1.8.4 2.4 1 .6.5 1 1.4 1 2.3z" class="st6"/><path d="M277.2 120.6h-2.9V137h2.9v-16.4z" class="st6"/><path d="M277.2 136.9c0 .7-.2 1.3-.6 1.9-.4.6-.9 1-1.5 1.2-.6.3-1.3.3-1.9.2-.7-.1-1.3-.5-1.7-.9-.5-.5-.8-1.1-.9-1.7-.1-.7-.1-1.3.2-1.9.3-.6.7-1.1 1.2-1.5.6-.4 1.2-.6 1.9-.6.9 0 1.8.4 2.4 1 .6.6.9 1.4.9 2.3z" class="st6"/><path d="M233.9 109.4h-33.7c-1.9 0-3.5 1.6-3.5 3.5v33.7c0 1.9 1.6 3.5 3.5 3.5h33.7c1.9 0 3.5-1.6 3.5-3.5v-33.7c0-1.9-1.6-3.5-3.5-3.5z" class="st7"/><path d="M233.9 109.4h-33.7c-1.9 0-3.5 1.6-3.5 3.5v33.7c0 1.9 1.6 3.5 3.5 3.5h33.7c1.9 0 3.5-1.6 3.5-3.5v-33.7c0-1.9-1.6-3.5-3.5-3.5z" class="st8"/><path d="M335.6 109.4h-33.7c-1.9 0-3.5 1.6-3.5 3.5v33.7c0 1.9 1.6 3.5 3.5 3.5h33.7c1.9 0 3.5-1.6 3.5-3.5v-33.7c0-1.9-1.6-3.5-3.5-3.5z" class="st9"/><path d="M318.8 141.6c6.6 0 11.9-5.3 11.9-11.9 0-6.6-5.3-11.9-11.9-11.9-6.6 0-11.9 5.3-11.9 11.9 0 6.6 5.3 11.9 11.9 11.9z" class="st16"/><path d="M318.3 122.5v7.8l3.6-3.6" class="st16"/><path d="M457.5 298.2c-.8-2-10.2-24.6-20-47.5.1-1.3.1-2.7.2-4-6.3.2-12.7 0-19-.6l.1 2.1c.2 3.9 1.3 7.8 3.2 11.2l13.5 24.1L447 304l8.8.7 1.6-6.5c.1.1.1 0 .1 0z" class="st17"/><path d="M419.1 250.7s.2 1.2.3 1.9c.2.6 16.2.2 18.1-1.8v-.7c.1-.1-13.9.6-18.4.6z" class="st5"/><path d="M457.6 297.8s0-.1.1-.1c0 0 .1 0 .1-.1h.1s.1 0 .1.1c.6.7 1.9 2.1 3.2 3.5 1.3 1.4.8 3.5.4 4.3-.1.2-.3.4-.5.5l-24.4 12.9s-2-1.1 4.9-7.2c6.8-6.1 2.7-6.8 5.3-7.7 2.6-1 7.4.7 8.9-2.2.7-1.3 1.3-2.6 1.8-4z" class="st11"/><path d="M402.3 243.2c-4.1-1-8.2-2-12.2-3.3-3.3 30.6-6.1 69.6-6.1 69.6l5.1 4.9 6.7-4.1 13.7-64.8c-2.4-.8-4.8-1.5-7.2-2.3z" class="st17"/><path d="M389.3 246.5s4.1 3.5 19.2 3.9l-.6 2.9s-12 .9-18.7-4.7l.1-2.1z" class="st5"/><path d="M395.9 309.7h.2l.1.1v.1c0 .9 0 2.8.1 4.7.1 1.9-1.7 3.2-2.4 3.6-.2.1-.4.1-.7.1l-26.9-5.9s-.8-2.1 8.3-2.3c9.2-.2 6.4-3.4 9-2.5 2.6 1 5.2 5.4 8.2 4.1 1.5-.6 2.8-1.2 4.1-2z" class="st11"/><path d="M415 152.9v-1.1c0-2.9-.7-5.8-2.1-8.3-2.9-4.7-9.3-3.6-10.6 1.7-.4 2-.7 4.1-.6 6.1 0 5.2-.5 14.8-1.2 25.1-9.5 14.9-19.4 30-19.9 30.8l3.5 3.8c5.4-3.4 10.3-7.4 14.8-11.9 5-4.9 9.5-10.3 13.5-15.9 1.1-1.5 1.7-3.2 1.9-5 .8-8.4 1-16.9.7-25.3zM377.2 211.1l-3.1 4.1-1.2-.1c.3.5.8.8 1.4.8s1.1 0 1.6-.4c0 0 1.4 1 2.3.6.2.2.5.4.9.5.3.1.7.1 1 .1.7.1 1.5 0 2.1-.4 1-.6 1.8-5.2 1.8-5.2l-3.5-3.9s-5.7 1.4-6.5 2.9c-.9 1.5.1 1.5.1 1.5l3.1-.5z" class="st17"/><path d="M402.9 149.5c3.7-.4 7.5-.4 11.2-.8 6.5-.6 13-1.3 19.4-2.4.7-.1 1.4-.3 2.2-.4-.2-1.9-1.1-3.7-2.5-5.1-1.3-1.2-3-1.9-4.8-1.9-1.4 0-2.8-.3-4.1-.9-1.8-5.6 0-16 .2-17.4v-.1l-14.3 8.1c.3.5.4 1 .4 1.6.1 1.5 0 3-.3 4.4-.3 1.7-.7 3.1-.8 3.7-1.3 1.6-3.2 2.3-5.7 3.8-.5 2.4-.8 4.9-.9 7.4z" class="st17"/><path d="M410.3 134.6c7.8 1 11.8-8.3 11.9-8.7-1.3 2-3.3 3.4-5.6 4-2 .5-4 .6-6 .3.1 1.5 0 3-.3 4.4z" style="fill:#c4533a"/><path d="M431.6 182.2c-2-4.1 4.4-30.4 4.6-35.7.1-2-.6-3.9-1.9-5.4-1.3-1.5-3.2-2.4-5.2-2.5-1.6 0-3.2-.2-4.8-.7 0 0-16.5 10.9-18.3 10.2-1.8-.7 2.6-9.1 2.6-9.1s-7.7 4.5-9.6 8.2c-1.9 3.7 1.5 14.5 1.7 15.7.2 1.2 2.2 20.5 2.2 20.5-11 17.7-14.1 50.5-14.9 62 6.4 8 50.2 4.6 50.2 4.6s1.5-25.1 2-38.9c.6-13.8-6.6-24.8-8.6-28.9z" class="st11"/><path d="M407.3 140.2c-.7 1.1-1.3 2.2-1.8 3.4-.6 1.1-1 2.3-1.3 3.5v.9c0 .1 0 .3.1.4 0 .1.1.1.1.2.5.2 1 .2 1.6.1 1.2-.2 2.4-.6 3.6-1.1 2.3-1 4.6-2.1 6.8-3.4 1.1-.6 2.2-1.3 3.3-2 1.1-.7 2.1-1.4 3.2-2.2-1.8 1.9-3.9 3.5-6.1 4.9-2.2 1.4-4.5 2.6-6.9 3.6-1.2.5-2.5.9-3.8 1.1-.3.1-.7.1-1.1.1-.4 0-.8-.1-1.2-.4-.2-.2-.3-.4-.4-.6 0-.2-.1-.4-.1-.6 0-.4 0-.7.1-1.1.8-2.5 2.2-4.8 3.9-6.8zM403.3 222.1c1 .3 2 .4 3 .3 1-.2 1.9-.5 2.8-1 1.7-1.1 3.4-2.4 4.9-3.8-.5.9-1.1 1.8-1.9 2.6-.7.8-1.6 1.5-2.5 2-1 .5-2.1.8-3.2.8-1.1.2-2.2-.2-3.1-.9zM408.3 224.8c.6-.5 1.2-1 1.9-1.4.6-.4 1.3-.8 2-1.1-.3.8-.8 1.5-1.5 2-.7.4-1.6.6-2.4.5z" class="st5"/><path d="M420.3 198.6s2.9 11.2 6.1 13c3.1 1.9 21.3-6.3 21.5-10 .2-3.7-6.1-13.2-6.1-13.2l-21.5 10.2z" class="st10"/><path d="M419.6 198.5c6.9-4 14.1-7.4 21.6-10.2h.3c.1 0 .2.1.2.1.1.1.1.1.1.2v.3c-.9 2.5-3.7 9.4-8.7 11.9-4 1.9-13.5-2.3-13.5-2.3z" class="st10"/><path d="M420.4 198.6c-10-20.7-1.5-47.1 2.6-57.4.5-1.2 1.3-2.2 2.4-3 1.1-.7 2.4-1.1 3.7-1.1l.7 1.5c-1 .1-2.1.4-2.9 1-.9.6-1.6 1.4-2 2.3-4 10.1-12.3 35.8-2.7 55.8l-1.8.9z" class="st10"/><path d="M421.9 199.4c1.1.3 2.1.6 3.2.8 1 .3 2.1.4 3.2.5 1 .1 2.1.1 3.1 0 1-.2 1.9-.7 2.7-1.3 1.7-1.3 3.2-2.8 4.5-4.5 1.3-1.7 2.4-3.6 3.2-5.6-.2 1.1-.5 2.1-1 3.1s-1 2-1.6 2.9c-1.2 1.9-2.7 3.5-4.5 4.9-.9.7-2 1.2-3.1 1.4-1.1.1-2.3.1-3.4-.1-2.2-.4-4.3-1.1-6.3-2.1z" class="st5"/><path d="M439.6 189.3c-1.3-14.6-4.2-43.3-6.5-47.8l-.1-.2c-.4-.7-.9-1.3-1.6-1.7-.7-.4-1.5-.6-2.3-.6v-1.9c1.2 0 2.3.3 3.3.9 1 .6 1.8 1.5 2.3 2.5l.1.2c2.9 6 6.5 46.8 6.7 48.5l-1.9.1z" class="st10"/><path d="m406.7 174.3-33.7.7c-1.9 0-3.5 1.6-3.4 3.6l.6 33.7c0 1.9 1.6 3.5 3.6 3.4l33.7-.6c1.9 0 3.5-1.6 3.4-3.6l-.6-33.7c-.1-2-1.7-3.5-3.6-3.5z" class="st15"/><path d="M437.9 152.9v-1.1c0-2.9-.7-5.8-2.1-8.3-2.9-4.7-9.3-3.6-10.6 1.7-.4 2-.7 4.1-.6 6.1 0 5.2-.5 14.8-1.2 25.1-9.5 14.9-19.4 30-19.9 30.8l3.5 3.8c5.4-3.4 10.3-7.4 14.8-11.9 4.9-4.9 9.5-10.3 13.5-15.9 1.1-1.5 1.7-3.2 1.9-5 .8-8.4 1-16.9.7-25.3z" class="st17"/><path d="m400.2 211.1-3.1 4.1-1.2-.1c.3.5.8.8 1.4.8.6.1 1.1 0 1.6-.4 0 0 1.4 1 2.3.6.2.2.5.4.9.5.3.1.6.1 1 .1.7.1 1.5 0 2.1-.4 1-.6 1.8-5.2 1.8-5.2l-3.5-3.9s-5.7 1.4-6.5 2.9c-.9 1.5.1 1.5.1 1.5l3.1-.5z" class="st17"/><path d="m418.3 184.3 5.1-7.7 1.2-22.7-2.6 22.8-3.7 7.6z" class="st5"/><path d="M428.6 116.2c-.2-.6-.6-1.1-1.1-1.5-.5-.3-1.2-.5-1.8-.3-.1 0-.2.1-.4.1.2-4.1-.4-8.6-3.3-11.1-6.2-5.4-15-3.5-16.9 1.3-1.4 4-2.1 8.1-2.1 12.3-.1 1.8-.1 3.6-.1 5.3v.5c0 .8.1 1.5.3 2.3 1 2.8 4.9 4.5 7.6 5 1.7.4 3.4.3 5.1-.1 1.7-.4 3.2-1.2 4.5-2.3 2.1-1.8 3.6-4.3 4.1-7 .6 0 1.1 0 1.7-.2.8-.3 1.5-.9 1.9-1.6.3-.4.5-.9.5-1.4.1-.3.1-.8 0-1.3z" class="st17"/><path d="M408.5 108.8c-.3-.3-.8-.4-1.2-.4-.4 0-.9 0-1.3.2-.4.1-.8.4-1.2.7-.3.3-.6.6-.8 1 0 .1-.1.2 0 .3 0 .1.1.2.2.2s.1.1.2 0c.1 0 .2 0 .2-.1.2-.2.5-.4.8-.6.3-.2.6-.3.9-.4.3-.1.6-.1 1-.1.3 0 .7 0 1-.1h.1c.1 0 .1 0 .1-.1l.1-.1s0-.1.1-.1v-.2c-.2-.1-.2-.1-.2-.2zM427.6 117.1c0-.2 0-.4-.1-.6-.1-.2-.2-.4-.3-.5-.2-.1-.4-.2-.6-.2-.2 0-.4 0-.6.1-.4.2-.7.4-1 .7-.3.3-.5.7-.6 1v.2c0 .1.1.1.1.1h.2c.1 0 .1 0 .2-.1.2-.3.6-.5.9-.6.1 0 .1-.1.2-.1s.1 0 .2.1.2.3.3.4c.1.4.2.8-.1 1-.4.2-.8.2-1.2.1.4.2.9.3 1.3.2.1-.1.2-.1.3-.2.1-.1.1-.2.1-.4s0-.5-.1-.7c-.1-.3-.2-.5-.4-.7-.1-.1-.3-.1-.4-.2h-.4c-.5.1-.9.4-1.2.8l.5.3c.2-.6.7-1.2 1.2-1.6.1-.1.3-.1.5-.1s.3 0 .5.1c.1.1.3.2.4.4 0 .1 0 .3.1.5z" class="st5"/><path d="M432.5 118.2c.1-1-.1-1.9-.7-2.7-.6-.8-1.1-1.6-1.5-2.5-.5-1.4-.3-3.1-1.1-4.4-.9-1.5-2.4-2.5-4.1-2.9.4-.7.6-1.6.6-2.4 0-.8-.3-1.7-.8-2.4s-1.1-1.3-1.9-1.6c-.8-.3-1.6-.5-2.5-.3-1.1.2-2.3.8-3.4.4-1.4-.4-2.1-2.2-3.5-2.7s-2.6.3-3.6 1.2c-.9 1-2 1.8-3.2 2.4-1.2.4-2.5.2-3.6.8-1.4.9-1.7 2.8-1.5 4.5.2 1.7.5 3.5-.2 4.9-.6 1.2-1.8 2-2.3 3.2-1 2.7 2.2 5.4 1.5 8.1-.4 1.6-2.1 2.9-1.7 4.6.2.4.5.8.8 1.2.4.3.8.5 1.3.7.9.2 1.8.6 2.6 1.2 1 .8 1.4 2.2 2.2 3.2.6.6 1.3 1.1 2.1 1.4.8.3 1.7.3 2.5.1.2-.9.2-1.9.3-2.8v-1c-2.7-.6-6.5-2.3-7.4-5-.2-.7-.3-1.5-.3-2.3v-.5c0-1.7 0-3.5.1-5.3 0-.7.1-1.4.1-2.2.2-.1.3-.3.4-.5.2-.5.4-.9.7-1.3 1.1-1.3 3.3-.6 4.6-1.7.9-.8 1-2.2 2-2.9.9-.7 2.3-.4 3.5-.2 1.2.3 2.9.4 3.7-.5-.2.5-.2 1-.1 1.5s.3 1 .6 1.4c.7 1 1.9 1.5 2.2 2.6.1.8.1 1.5-.1 2.3-.1.4-.1.8.1 1.1.1.4.4.7.7.9.2.1.5.1.7.1.2 0 .5-.1.7-.3.4-.3.8-.6 1.1-1l1.8-2.2h.1c.6-.1 1.3 0 1.8.3s.9.9 1.1 1.5c.1.5.2 1 .1 1.5s-.3 1-.5 1.4c-.5.7-1.2 1.3-2 1.6-.5.1-1.1.2-1.7.2-.6 3.6-.9 7.3-1 11 .6-.9.8-2 1.6-2.6 1-.6 2.5 0 3.6-.5s1.3-1.9 1.2-3.2c-.1-1.2-.4-2.5 0-3.6.3-1.5 2-2.4 2.3-3.8z" class="st5"/><path d="m119.2 294.9.1 9.5 3.8 5.4 7.5-.2s.6-4.9 1.5-12.5c-4.2-.7-8.6-1.5-12.9-2.2z" class="st19"/><path d="M136 314.5c-.8-.4-1.5-1-2.1-1.6-1.1-1.5-2-3.2-2.7-5 0 0-3-.1-6.8-.5-3.7-.4-5.4-4.3-5.4-4.3-2.7 2-3.3 7.2-3.3 7.2l4 1.9 1-1.9.9 2.4.1.2 12.4 5.9c.2.1.5.2.8.2l6.5-.2h1.2c.3-3-3.4-3.9-6.6-4.3z" class="st15"/><path d="M82.5 290.2c-.9 8.4-1.5 13.7-1.5 13.7l10.2 9.8 4.8-21.6c-4.4-.4-9-1-13.5-1.9z" class="st19"/><path d="M97.7 314c-.8-.4-1.5-1-2.1-1.6-1.1-1.5-2-3.2-2.7-5 0 0-3-.1-6.7-.5s-5.4-4.3-5.4-4.3c-2.7 2-3.3 7.2-3.3 7.2l4 1.9 1-1.9.9 2.4.1.2 12.4 5.9c.2.1.5.2.8.2l6.6-.1h1.2c.1-3.1-3.5-4-6.8-4.4z" class="st15"/><path d="m104.3 172.3 33.3.1s5.3 24.7 4.5 35.2c-.8 10.6-9.9 95.9-9.9 95.9l-13.3-3.4-.8-98.5h-1.6L94.2 303.2l-12.9-5.3 9.9-89.2c.6-5.5 1.9-10.9 3.9-16 2.4-6.4 6-14.9 9.2-20.4z" class="st5"/><path d="M123.2 183.4v5.3l-.1 5.3c0 .1 0 .1-.1.2-1.6 2.5-3.3 5-5 7.5 0 .1-.1.1-.2.2-.1 0-.1.1-.2.1h-1.5c-.1 0-.1-.1-.2-.1 0 0-.1-.1-.1-.2v-.2c.3-3.1.6-6.2 1-9.3.4-3.1.7-6.2 1.2-9.3-.1 3.1-.3 6.3-.5 9.4-.2 3.1-.5 6.2-.7 9.3l-.5-.5h1.3l-.4.2c1.7-2.5 3.4-4.9 5.2-7.4l-.1.2.4-5.3c.2-1.9.4-3.6.5-5.4zM106.3 182.4c0 1.5-.3 3-.8 4.5-.4 1.5-1.1 2.9-2 4.1-.9 1.3-2.2 2.3-3.7 2.8-1.5.4-3.1.3-4.5-.3 1.4.2 2.9.1 4.3-.4 1.3-.6 2.4-1.5 3.2-2.7.9-1.2 1.6-2.5 2.1-3.8.5-1.3 1-2.7 1.4-4.2zM134.9 182.7c0 1.3.1 2.7.2 4 .1 1.3.3 2.6.7 3.8.3 1.2.9 2.4 1.8 3.3.9.9 2.1 1.5 3.4 1.7-.7.1-1.4 0-2.1-.1-.7-.2-1.3-.5-1.9-1-1.1-.9-1.8-2.2-2.2-3.6-.4-1.3-.6-2.7-.5-4.1.1-1.4.3-2.7.6-4z" class="st6"/><path d="M97.3 193.8c-.8 4.3-1.6 8.6-2.3 12.9-.7 4.3-1.4 8.6-1.9 12.9l-3.2 26-3.4 25.9-1.8 13-1.9 12.9 1.4-13 1.5-13 3.2-26 3.5-25.9c1.1-8.7 3-17.2 4.9-25.7zM121 197.5c.2 8.5.3 17 .4 25.5l.1 25.5-.1 25.5-.1 12.8-.2 12.7-.3-12.7-.1-12.8-.1-25.5.1-25.5c.1-8.4.1-17 .3-25.5z" class="st6"/><path d="m175.5 100.6-4.9-1.8-1.3 1.9c-2.5 3.9-8.6 13.1-15.3 23.1l-.7.2-2.8.9c.1 1.3.2 2.7.2 4v5.3c.4 1.8.7 3.5 1.1 5.3 2.7-.8 5.6-1.6 8.6-2.7 1.2-.4 2.3-1.2 2.9-2.3 1.9-3.4 3.6-6.9 5.3-10.6.8-1.8 1.5-3.6 2.2-5.5 2.3-5.7 3.9-11.6 4.7-17.8z" class="st19"/><path d="M173.3 102.3s6.5-5.7 7.7-8.7v-.1s0-.1-.1-.1l-.1-.1h-.1c-.4.1-1.2.6-2.7 2.2 0 0 2.1-4.1 1.8-4.9-.3-.8-3.7 4-3.7 4s1.9-4.9 1.4-5.4-3.3 4.6-3.3 4.6 1.6-5.1 1.2-5.2c-1.1-.2-3.6 6.9-4.3 6.6-.7-.4-.7-2.2-.6-3.1V92s0-.1-.1-.1l-.1-.1h-.1c-.4 0-1 .2-1.2 1.2-.6 2.9-.4 5.9.5 8.8l3.8.5z" class="st19"/><path d="m127.8 130.4 24-6.7 2.8 15.4s-17.6 5.5-24.1 4.8c-6.7-.9-2.7-13.5-2.7-13.5z" class="st15"/><path d="M150.6 124.6c1.5 4.5 2.4 9.3 2.7 14.1-1.5-4.6-2.4-9.3-2.7-14.1z" class="st5"/><path d="M201.9 59.8h-33.7c-1.9 0-3.5 1.6-3.5 3.5V97c0 1.9 1.6 3.5 3.5 3.5h33.7c1.9 0 3.5-1.6 3.5-3.5V63.3c0-2-1.6-3.5-3.5-3.5z" class="st9"/><path d="m177.6 79.1 14.3-7.3v2.1l-12.1 6v.1l12.1 6v2.1l-14.3-7.4v-1.6z" class="st6"/><path d="M191.9 76c1.5 0 2.7-1.2 2.7-2.7 0-1.5-1.2-2.7-2.7-2.7-1.5 0-2.7 1.2-2.7 2.7 0 1.5 1.2 2.7 2.7 2.7zM191.9 89.6c1.5 0 2.7-1.2 2.7-2.7 0-1.5-1.2-2.7-2.7-2.7-1.5 0-2.7 1.2-2.7 2.7 0 1.5 1.2 2.7 2.7 2.7zM178.2 82.3c1.5 0 2.7-1.2 2.7-2.7s-1.2-2.7-2.7-2.7-2.7 1.2-2.7 2.7 1.2 2.7 2.7 2.7z" class="st6"/><path d="M111.7 132.1c1.2-5.7-2.5-16.7-2.9-18l-.1-.1 15.8 5.8c-.2.5-.2 1.1-.2 1.7.2 1.5.5 3 1 4.4.7 2.1 1.6 3.9 1.6 3.9l-15.2 2.3z" class="st19"/><path d="M125.3 125.7c-7.7 2.3-13.2-6.4-13.4-6.8 1.6 1.8 3.8 2.9 6.3 3.1 2 .2 4.1 0 6-.7.2 1.5.6 3 1.1 4.4z" style="fill:#e6794e"/><path d="M111.2 129.5s-5.6 1.1-8.2 9.1c-2.6 8-.2 22.3-1.2 24.9-1 2.6-3.6 15.3-1.3 16.4 2.3 1.1 37.2 4.7 39.5 0 2.3-4.7-2.3-11.1-2.3-17.1 0-6 1.3-21.9 1-25.5-.3-3.6-11.8-7.7-11.8-7.7s-8.9 9.3-15.7-.1z" class="st15"/><path d="M118.2 163.6c2-1.6 3.9-3 5.9-4.5 2-1.5 3.8-3.1 5.7-4.7-3 4.1-7 7.3-11.6 9.2zM124.5 164.4c1-1 2-1.9 3.1-2.8 1-.9 2-1.8 3.2-2.7-.6 1.3-1.5 2.5-2.6 3.4-1 .9-2.3 1.6-3.7 2.1z" class="st5"/><path d="M143.7 118.6c1 1.7 2 3.4 2.8 5.1 9.7-7.9 19.5-17.9 26.1-30.1l-4.1-3.5s-14.5 10.7-29.3 21.3c1.6 2.5 3.1 4.8 4.5 7.2z" class="st19"/><path d="M171.6 94s8.1-3.1 10.2-5.5l.1-.1v-.1s0-.1-.1-.1h-.1c-.4 0-1.4.1-3.3 1.1 0 0 3.4-3.1 3.4-3.9 0-.8-4.8 2.5-4.8 2.5s3.4-3.9 3.2-4.6c-.3-.7-4.7 3.1-4.7 3.1s3.3-4.2 2.9-4.4c-1-.5-5.8 5.2-6.3 4.7-.6-.6.1-2.3.5-3.2v-.2s0-.1-.1-.1l-.1-.1c-.3-.1-.6-.1-.9.1-.3.1-.5.4-.6.7a16.6 16.6 0 0 0-2.6 8.4l3.3 1.7z" class="st19"/><path d="m140.3 110.5 7.8 12.3s-10.6 10.2-19.5 15.1-17.6 8-21.5 2.9c-3.9-5 6.2-13.2 9.9-15 3.8-1.7 23.3-15.3 23.3-15.3z" class="st15"/><path d="M109.1 143.4s6.4 3.9 14.2-1.3c0 0-8.7 11.5-14.2 1.3zM125.9 139.3c1.7-1.1 3.4-2.2 5-3.3 1.7-1.1 3.3-2.2 4.9-3.4 3.2-2.3 6.4-4.7 9.6-7.2-1.3 1.5-2.8 2.9-4.3 4.2-1.5 1.3-3.1 2.6-4.7 3.8-1.6 1.2-3.3 2.3-5.1 3.3-1.7 1-3.5 1.9-5.4 2.6zM138.9 111.8c1.5 1.7 2.9 3.6 4.1 5.5 1.3 1.9 2.4 3.9 3.3 6-1.5-1.7-2.9-3.6-4.1-5.5-1.2-1.9-2.3-3.9-3.3-6z" class="st5"/><path d="M130.9 115.1c-.5 2.9-4.2 5.3-6.8 6.3-1.6.6-3.4.9-5.1.7-1.7-.1-3.4-.7-4.9-1.6-2.5-1.5-4.4-3.9-5.4-6.6-1.6-4.5-4-13-.2-17.6 5.3-6.4 14.5-6 17.2-1.4.7 1.2 1.3 2.5 1.9 3.8.2.4.3.8.5 1.2 1.3 4.2 2.3 8.5 2.9 12.8 0 .9 0 1.6-.1 2.4z" class="st19"/><path d="M121.5 100.1c-.4-.2-.9-.3-1.3-.3-.4.1-.9.2-1.3.4s-.8.5-1.1.8c-.3.3-.5.7-.6 1.1v.3c0 .1.1.2.2.2h.2c.1 0 .1-.1.2-.1.2-.3.4-.5.7-.8.2-.2.5-.4.8-.5.3-.1.6-.2.9-.2.3 0 .7-.1 1-.2h.1s.1 0 .1-.1l.1-.1v-.4c.1.1.1 0 0-.1zM128 100h-.1c-.3 0-.7 0-1 .1-.3.1-.6.1-1 .1h-.4l-.1-.1-.1-.1v-.2c0-.1 0-.2.1-.2.3-.4.7-.6 1.1-.7.3-.1.6-.1.9-.1.3.3.4.8.6 1.2zM111.9 110.8v-.6c0-.2.1-.4.3-.5.2-.2.3-.3.6-.3.2-.1.4-.1.6 0 .4.1.8.3 1.1.6.3.3.6.6.8 1V111.3l-.1.1h-.4c-.3-.2-.6-.4-1-.5h-.2c-.1 0-.1.1-.2.1-.1.1-.2.3-.2.5-.1.4-.1.8.2 1 .4.1.8 0 1.2-.1-.4.3-.8.4-1.3.4-.1 0-.3-.1-.4-.2-.1-.1-.2-.2-.2-.4v-.7c0-.3.1-.5.3-.7.1-.1.2-.2.4-.2.1-.1.3-.1.4-.1.5.1.9.3 1.3.6l-.4.4c-.3-.6-.9-1.1-1.5-1.4-.2-.1-.3-.1-.5-.1s-.3.1-.5.2c-.1 0-.2.3-.3.6z" class="st5"/><path d="M130.2 106.7c-.3-3.1-1.3-6.1-2.9-8.8.5-.6.8-1.4.8-2.1 0-.8-.3-1.6-.8-2.2-2.2-2.7-6-4.2-9.5-4.3-2.3-.1-4.5.5-6.4 1.7-1.9 1.2-3.5 2.9-4.4 4.9-.4-.4-.8-.9-1.2-1.3-.5.9-.7 1.9-.7 2.8-1 .2-1.6 1.6-1.5 2.7.5-.1.8-.6 1.3-.7-.7 2.3-1 4.7-.8 7.1.2 2.4.9 4.7 2.1 6.8 1.4 2.5 3.2 3.8 3.1 6.7h.5c.2 0 .3-.1.4-.2 1.2-.4 2.2-1.1 3-2.1.8-.9 1.3-2.1 1.6-3.3-.8.1-1.5-.1-2.2-.5-.7-.4-1.2-.9-1.6-1.6-.3-.6-.4-1.2-.3-1.8.1-.6.4-1.2.8-1.7.7-.7 1.8-1 3.3.1 2 1.5 2.2-4.7 1-6.8 2.4-.1 4.8-.9 6.8-2.3l-1.7-.9c2 .3 4.1 0 6-1 .2.4.3.8.5 1.1.2.4.3.8.5 1.2 1 3 1.8 6.1 2.3 9.2.1-1 .1-1.8 0-2.7z" class="st5"/><path d="M122.9 97.9s-9.8 6-10.8 16.2c0 0-1.3 3-3.2 3.7-2.3-2.3-4.1-5.2-5.1-8.3-1.1-3.1-1.4-6.5-1-9.7 1.5-11.2 11.9-10.9 11.9-10.9s6.3-4.5 11.6 1.1c3.8 4 3.9 19.1 3.9 19.1l-2.3-9.2c0 .1-2.9-2.2-5-2z" class="st11"/><path d="M115.2 89.3c1 .3 1.9.7 2.7 1.2.8.5 1.6 1.1 2.3 1.8.7.7 1.3 1.5 1.8 2.3.5.9.8 1.8.9 2.8-.4-.8-1-1.6-1.5-2.4-.6-.7-1.2-1.4-1.9-2.1-1.3-1.2-2.8-2.3-4.3-3.6zM112.5 90.6c.4-.2.9-.4 1.3-.5.5-.1 1-.1 1.4 0-.8.5-1.7.6-2.7.5zM114 93.2l1.2-.9c.4-.3.9-.5 1.4-.6-.3.4-.7.7-1.1 1-.5.3-1 .5-1.5.5zM116.6 95.4c.2-.4.4-.7.7-1 .3-.3.6-.5 1-.7-.1.4-.3.8-.6 1.1-.3.3-.7.5-1.1.6z" class="st5"/><path d="M119.3 97.7c-.4.2-.9.3-1.3.2-.4-.1-.8-.4-1.1-.7-.3-.4-.4-.8-.3-1.3 0-.4.3-.9.6-1.2.3-.3.8-.5 1.2-.5.4 0 .9.1 1.2.4.3.3.6.7.6 1.1.1.4 0 .9-.3 1.3-.1.3-.3.6-.6.7zM117.7 89.4c.2-.3.5-.6.9-.8.3-.2.7-.3 1.1-.3-.2.3-.5.6-.9.8-.3.2-.7.3-1.1.3zM119.7 90.7c.1-.3.3-.6.6-.8.2-.2.5-.3.9-.4-.1.3-.3.6-.6.8s-.6.3-.9.4zM121.3 92.8c.3-.3.6-.6 1-.8.4-.2.8-.4 1.2-.4-.2.3-.6.6-.9.8-.4.2-.9.3-1.3.4zM123.1 95.2c.2-.3.6-.5.9-.6.4-.1.7-.1 1.1 0-.3.2-.6.4-1 .5-.3 0-.7.1-1 .1z" class="st5"/><path d="M413.7 35.1h-53.2c-1.5 0-2.7 1.2-2.7 2.7v34.5c0 1.5 1.2 2.7 2.7 2.7h53.2c1.5 0 2.7-1.2 2.7-2.7V37.7c0-1.5-1.2-2.6-2.7-2.6z" class="st4"/><path d="M416.4 40.1v-2.4a2.732 2.732 0 0 0-2.7-2.7h-53.2a2.732 2.732 0 0 0-2.7 2.7v2.4h58.6z" class="st5"/><path d="M402.3 38.5c.6 0 1.1-.5 1.1-1.1 0-.6-.5-1.1-1.1-1.1-.6 0-1.1.5-1.1 1.1 0 .6.5 1.1 1.1 1.1zM407.7 37.4c0 .2-.1.4-.2.6s-.3.3-.5.4c-.2.1-.4.1-.6.1-.2 0-.4-.1-.6-.3-.2-.2-.3-.4-.3-.6 0-.2 0-.4.1-.6.1-.2.2-.4.4-.5.2-.1.4-.2.6-.2.3 0 .6.1.8.3.2.3.3.5.3.8zM411.9 37.4c0 .2-.1.4-.2.6-.1.2-.3.3-.5.4-.2.1-.4.1-.6.1-.2 0-.4-.1-.6-.3-.2-.2-.3-.4-.3-.6s0-.4.1-.6c.1-.2.2-.4.4-.5.2-.1.4-.2.6-.2.3 0 .6.1.8.3.2.3.3.5.3.8z" class="st21"/><path d="m381.9 53.6-7.7 3.2 7.7 3.1v2.6l-11.1-4.6v-2.2l11.1-4.6v2.5zM385.4 68.1H383l7.2-22.8h2.5l-7.3 22.8zM404.8 55.7v2.2l-11.1 4.6v-2.6l7.7-3.1-7.7-3.2V51l11.1 4.7z" class="st5"/><path d="M447 238c0 .5-.2 1-.4 1.4s-.7.8-1.2 1c-.5.2-1 .2-1.5.1s-1-.3-1.3-.7c-.4-.4-.6-.8-.7-1.3-.1-.5 0-1 .1-1.5.2-.5.5-.9 1-1.2s.9-.4 1.4-.4c.3 0 .7.1 1 .2.3.1.6.3.8.6.2.2.4.5.6.8.1.3.2.6.2 1zM36 126c-1 0-2-.3-2.8-.8-.8-.6-1.5-1.3-1.9-2.3-.4-.9-.5-1.9-.3-2.9s.7-1.9 1.4-2.6c.7-.7 1.6-1.2 2.6-1.4 1-.2 2-.1 2.9.3.9.4 1.7 1 2.3 1.9.6.8.8 1.8.8 2.8 0 1.3-.5 2.6-1.5 3.6-.8.8-2.1 1.4-3.5 1.4zm0-9.1c-.8 0-1.6.2-2.3.7-.7.4-1.2 1.1-1.5 1.8-.3.7-.4 1.6-.2 2.4.2.8.5 1.5 1.1 2.1.6.6 1.3 1 2.1 1.1.8.2 1.6.1 2.4-.2.7-.3 1.4-.8 1.8-1.5s.7-1.5.7-2.3c0-1.1-.4-2.1-1.2-2.8-.8-.9-1.8-1.3-2.9-1.3zM398.9 15.1c-.9 0-1.7-.3-2.4-.7-.7-.5-1.3-1.2-1.6-2-.3-.8-.4-1.7-.2-2.5.2-.9.6-1.6 1.2-2.2.6-.6 1.4-1 2.2-1.2.9-.2 1.7-.1 2.5.2.8.3 1.5.9 2 1.6.5.7.7 1.6.7 2.4 0 1.2-.5 2.3-1.3 3.1-.9.8-2 1.3-3.1 1.3zm0-7.8c-.7 0-1.3.2-1.9.6-.6.4-1 .9-1.3 1.5-.3.6-.3 1.3-.2 2 .1.7.5 1.3.9 1.7.5.5 1.1.8 1.7.9.7.1 1.3.1 2-.2.6-.3 1.2-.7 1.5-1.3.4-.6.6-1.2.6-1.9 0-.9-.4-1.8-1-2.4-.6-.5-1.4-.9-2.3-.9zM447.6 50.7c-2 0-4-.6-5.6-1.7-.1 0-.1-.1-.1-.1 0-.1-.1-.1-.1-.2v-.2c0-.1 0-.1.1-.2s.2-.2.3-.2c.1 0 .3 0 .4.1 1.8 1.2 4 1.8 6.1 1.5h.2c.1 0 .1 0 .2.1.1 0 .1.1.1.1 0 .1.1.1.1.2s0 .3-.1.4c-.1.1-.2.2-.3.2h-1.3zm7.1-3.2c-.1 0-.2 0-.3-.1l-.2-.2c0-.1-.1-.2 0-.3 0-.1.1-.2.1-.2 1.2-1.4 2-3.1 2.2-4.9.2-1.8-.1-3.6-1-5.3 0-.1 0-.1-.1-.2v-.2c0-.1 0-.1.1-.2l.1-.1c.1 0 .1-.1.2-.1h.2c.1 0 .1 0 .2.1l.1.1c1 1.8 1.3 3.8 1.1 5.8-.2 2-1.1 3.9-2.4 5.4 0 .1-.1.1-.2.1 0 .3 0 .3-.1.3zm-16.2-3.9c-.1 0-.2 0-.3-.1-.1-.1-.1-.2-.2-.3-.2-.8-.3-1.6-.3-2.4 0-1.6.4-3.1 1.1-4.6 0-.1.1-.1.1-.2 0 0 .1-.1.2-.1h.2c.1 0 .1 0 .2.1.1 0 .1.1.1.1s.1.1.1.2v.2c0 .1 0 .1-.1.2-.7 1.3-1 2.7-1 4.1 0 .7.1 1.5.3 2.2 0 .1 0 .3-.1.4-.1.1-.2.2-.3.2zm5.7-11.1c-.1 0-.2 0-.3-.1l-.2-.2v-.4c.1-.1.1-.2.3-.3 2.3-.9 4.8-.9 7-.1.1 0 .1.1.2.1 0 0 .1.1.1.2v.4c0 .1-.1.1-.1.2 0 0-.1.1-.2.1h-.4c-2-.8-4.3-.8-6.3 0l-.1.1z" class="st2"/></svg>