<svg xmlns="http://www.w3.org/2000/svg" xml:space="preserve" id="Layer_1" width="386" height="228" x="0" y="0" style="enable-background:new 0 0 543 321.5" version="1.1" viewBox="0 0 543 321.5"><style>.st0{fill:#e5f5f9}.st7{fill:#fedd4e}.st8{fill:#e5f5f8}.st13{fill:#e7f5f7}.st21{fill:#e7a61d}.st29{fill:#f0bb2d}.st43{fill:#fedd50}.st47{fill:#fedd4f}.st51{fill:#cc4a20}.st54{fill:#e6f6f9}.st55{fill:#e8a71c}.st57{fill:#e7900b}.st75{fill:#f1bb2d}.st81{fill:#e9a51b}.st82{fill:#e8920a}.st98{fill:#fede50}.st107{fill:#f0bc2e}.st109{fill:#e06d32}.st169{fill:#fddc4f}</style><path d="M181.1 68.8c.7-1.8 1.8-3.4 3.2-4.8 1.1.1.8-.5.5-1.1 1.7-3 3.9-5.5 6.3-7.9 3.5-1.6 5.1-.9 6.4 2.7 1.6 4.3 1.7 4 6.3 4.2 3.9.2 7.7.3 11.6.2 3.3 0 3.9-.5 4.2-3.8.2-1.7 1.1-2.8 2.7-3.2 1.4-.4 2.1-1.2 2.8-2.4 3.7-6.5 8.8-11.6 15.6-15.1 4.4-2.3 8.9-4.6 13.3-6.9 1.5-.8 2.1-1.8.8-3.3-1.1-1.3-1.6-3.1-2.7-4.5-1.3-1.7-.4-3.9 1.8-4.1 2.3-.2 1.8-1.2 1.3-2.6-.5-1.5-1.7-3-.9-4.7.5-.8 1.4-.5 2.5-1-1.5-.3-2 .6-2.8 1.1-1.8.3-3.5 1.4-5.3.1 4.9-2.7 10.3-4.5 15.6-6.1 7.3-2.3 14.7-3.9 22.2-4.8 9-1.1 18-1 27-.2 5.4.5 10.7 1.3 16 2.7 3 1.4 6.2 1.8 9.3 2.8 4.3 1.4 8.6 3 12.6 5 1.8.9 2 2.3.7 3.8-.2.2-.3.4-.6.5-6.1 3-7.8 8.9-9.5 14.7-.1.4-.3.8-.5 1.2-.4.7-.2 2.1-1.4 1.8-.9-.2-.9-1.4-1.1-2.3-.3-.9.1-1.9-.2-3.1-1.6.5-2.5 1.5-2.8 3.1-.5 2.4-.8 4.9-2.2 7-.7 1-.2 2.2.2 3.3 1.1 2.6 2 5.2 2.1 8.1.1 2.8 1.9 4.9 3.8 6.7 3.2 3.1 6.7 5.9 9.8 9.2 1.1 1.2 2.5 2 4.1 2.2 3.4.2 6.5 1.5 9.6 2.6 1.7.6 3.4.8 5.2.4.5-.1 1-.2 1.6-.3 3.7-.8 7.5.3 11-.7 3.4-.9 6.2-3.5 9.7-4.5 1.3-.4 2.6-.4 3.9 0 1.6.5 2.4 1.4 2.1 3.1-.1.9-.4 1.9 0 2.6 1.8 3.3 2.1 7 2.8 10.6.1.4.3.8.4 1.3.2.9.1 1.8-.9 2.2-.9.3-1.6-.1-2-.9-.8-1.7-2.4-2.8-3.6-4.2-1.1-1.4-2.4-1.7-3.9-.6-2.6 1.8-5.5 2.6-8.6 3.2-3.2.5-5.2 3.1-7.9 4.6-1.2.7-.6 2.6 1.1 3.3 1.1.5 2.2.4 3.3.8.7.2 1.7.3 1.7 1.4 0 .9-.7 1.3-1.5 1.7-.7.3-1.5.4-2.3.4-1.5 0-3 .3-4.2 1.2-1.3 1-2.6.9-3.9 0-1.5-1-2.6-1.1-3.4 1-.7 2.1-6.1 4.9-8.3 4.7-1.7-.2-2.9.5-3.5 2.1-.4.9-.7 1.8-1.2 2.6-.8 1-1.9 1.2-3.1 1.1-1.4-.1-3-1.6-4.1.8-.3.7-1.1-.4-1.1-.9.9-4.4-1.8-6.5-4.9-8.5 1-2.8 3.1-2.3 5.3-1.4.4-1.8.2-3.5.5-5.1.3-1.5.9-2.2 2.5-1.9 1.4.2 2.6-.1 3.7-1 .8-.7 1.5-1.6 1.4-2.7-.1-1.2-1.2-1.4-2.1-1.6-3.8-1-7.4-2.3-10.9-3.9-2.4-1.1-4.5-2.8-6.9-3.9-1.1-.5-1.7-1.5-1.8-2.8-.1-5.2-2.7-9.6-4.2-14.3-2-6.3-4.3-12.6-5.1-19.3 0-.4-.1-.9 0-1.3 1.8-4.3 2.3-8.9 3.5-13.4.7-2.6-.1-4.8-2.8-5.5-1-.3-2.1-.6-3.1-.4-5.3.7-10.6-.1-15.8.3-.9.1-1.8.2-2.6-.1-4.7-1.5-9.5-1.5-14.3-1.9-4.5-.4-8.7 1-12.9 2.4-2.3.8-4.6 1.7-7 2-2 .2-2.5 1.1-1.5 2.8 1.8 3.2 2.2 6.3.5 9.5-.5 1 .1 1.6.8 2.2 2.1 2 4.6 2.4 7.4 1.9 1.8-.3 3.4-.3 3.8 2 .2 1.1 1 .9 1.9.7 3.2-.9 6.3-.3 9.2 1.1 2.9 1.4 6.1 1.9 8.7 3.8 1.2.8 2.3 1.6 2.9 2.9.6 1.3 1.8 2 2.8 2.7 3.4 2.6 4.4 6.2 4.3 10.2-.1 2.7-1.6 4.4-4.3 4.9-1.4.3-2 .9-2 2.3-.1 4.5-.8 8.9-3.7 12.6-.6.8-.4 1.5.4 2 1.5.9 2.8 2 4.6 2.5 2.5.6 4.3 1.9 4.5 4.8.1 1.3.9 2 2.1 2.4 1.1.4 2.2.5 3.3.7 1.9.5 2.7 1.5 1.7 3.5-3.5 1.7-7.2.9-10.8 1-1.1 0-2.3-.4-3.1.8-2.4.3-14.7-4-16.2-5.7-.3-.3-.5-.7-.8-1-.4-.5-.9-1.1-1.1-1.7-.3-1.4.6-2.6.7-3.9.5-2.1.7-4.3 2.1-6.2 4.3-1.6 6.9-5 8.9-8.9 1.7-3.2 1-6.5.3-9.7 0-.9.4-1.9.1-2.8-.9-2.3-2.8-2.7-5.3-1.2-2 .1-3.9-.2-5.9-.3-2.1-.1-3.6-1-4.2-3.2-.2-.7 0-1.4 0-2.1-.1-1.8-1.4-2.5-3.6-1.9-2.1-.1-4.2-.2-6.3.2-1.8-.5-3.2.6-4.6 1.4-1.1.6-2.1.9-2.2-.8-.1-1.5-.9-1.2-1.8-.9-1.8.7-3.1.2-3.9-1.5-.7-1.5-1.7-1.5-3-.8-2.5 1.4-4.5 3.3-5.4 5.9-1.4 4-4.5 5.9-8 7.5-1.9.9-3.8 1.8-5.8 2.7-1.5.6-2.6 1.6-3.4 3.2-1.8 3.8-7.5 4.9-10.7 2.2-.3-.3-.6-.6-1.3-.6-.3 1.3.2 2.3 1.2 3.1.5.4 1.1.6 1.4 1.2.7 1.1 1.4 2.2.3 3.3-1 1-2.5 1.1-3.3.1-1.7-2-3.4-1.9-5.6-1.1-1.7.6-3.3-.1-4.9-.8-2.3-1-4.6-1.2-7-.9-2.5.3-4.7-.1-6.3-2.3-.8-1.1-1.9-1.5-3.2-.8-.5.2-1 .6-1.5.5-2.1-.4-2.7 1-2.9 2.5-.2 1.4-.8 2.5-1.9 3.3-1.2.9-1.6 1.9.2 2.7 1.4.6 2.3 1.3.4 2.5-.3.2-.4.4-.5.8-.2 2.7-.5 3-3.1 2.9-1.1-.1-2.5-1-3 1-.4 1.6.2 2.6 1.6 3.5 2.5 1.6 4.2 7.7 2 11.7-2.4 4.5-4.5 9.3-5.3 14.5-.6 3.9-.3 7.7.4 11.5.4 2.1 1.7 4 3.7 4.9 2.8 1.3 4 3.3 3.6 6.3-.1.4-.1.9.1 1.3 2.6 4.1 3.2 9 5.1 13.4 1.4 3.4 3.1 6.7 2.1 10.6-.3 1.3-.7 2.5-2.1 2.7-1.3.1-2-1-2.5-2-.6-1.3-1.1-2.6-1.3-4-.3-1.5-.7-2.7-2-3.5-1.2-.8-1.3-2-1.3-3.3 0-.8.3-1.6.2-2.4-.1-1-.8-1.6-1.8-1.6-1 .1-.9 1-.9 1.7.1 1.9.3 3.6 1.8 5.1 1.9 1.8 2.5 4.1 2.4 6.7-.1 2.9 1.1 5.6.4 8.6-.5 2-1.2 3.6-2.9 4.8-2.1 1.6-3.6 3.5-3.2 6.5.2 1.5.2 3.9-1.7 3.8-1.8-.2-1.9-2.8-1.4-4.2 1-3.4-.6-5.7-2.4-8.2-.1-.2-.3-.5-.3-.7.2-4-.3-7.8-1.3-11.8-2.1-8.2-6-15.5-10-22.8-1.5-2.9-3.6-5.6-5.8-8.1-.8-.9-1.6-1.7-2.9-.6-.5.2-.7 0-.8-.5 4.3-10.6 8.7-21.2 13-31.8.5-1.1.9-2.3 1.8-3.2 1.3 2.1-1.1 3.4-.9 5.9.9-3.3 2.6-5.7 3.7-8.4.9-2.2 1.6-4.5 4-5.6.4-.2.6-.6.7-1.1.5-5.2 3.9-9 6.1-13.4.7-1.5 1.9-2.8 2.6-4.3.1-.2.6-.5 0-.7-.5-.4-.8-.2-1-.3z" class="st0"/><path d="M27.9 281.9c-1.4-.1-2.8-.1-4.2-.3-3.4-.4-5.2-3.9-3.3-6.6 4.7-6.5 9.2-13.1 14.3-19.3 1.3-.7 2.1.4 3 1 1.1.7 2 1.7 3.5 2.2.5-1.5.2-3 .2-4.4 0-1-.2-2 .1-2.9 1.7-5.2-1.3-8.7-4.5-12-6.2-6.6-11-14.1-14.5-22.5-3.9-9.3-6-19.1-6.9-29.1-1.3-14.5.6-28.7 4.1-42.8 1.4-5.5 3.2-11 6.6-15.7 1.8-2.5 4.3-4.4 6.7-6.4 1.4-1.2 1.8-1.9.5-3.5-4.2-5.3-8.2-10.7-12.3-16.2-2.2-3-1.8-4.7 1.3-6.7 1.8-1.4 3.7-.8 5.7-.7 1.1.2 1.7 1.1 2.4 2 3.6 4.5 7 9.3 10.5 13.9 2.3 3 2.2 3 5.5 1.2.9-.5 1.7-1 2.5-1.5.5-.3 1-.5 1.5-.7 10.9-4.8 22.3-7.1 34.2-7.5 1 0 2.1 0 3.1.2 2.4.8 4.9 0 7.3.7 5.6 1.6 11.3 2.6 16.7 4.7 10.2 3.8 19.9 8.5 27.8 16.2 5.2 5 9.9 10.3 14 16.3 6.9 10.1 10.8 21.2 12.9 33.1.7 3.8 1.3 7.6 1.8 11.4.4 3 .3 6-.4 8.9-1.4 6-2.1 12.1-3.9 18-3.3 10.7-8.5 20.3-15.5 28.8-5.6 6.7-11.9 12.8-19.4 17.7-8.9 5.9-18.9 9.1-28.8 12.9-2.6.8-5.3 1.2-8 1.2-9.7.1-19.3.3-28.7-2.5-4.4-1.3-8.7-2.7-12.9-4.4-.8-.4-1.6-.9-2.4-1.1-5-3-5.1-3-8.5 1.7-2.9 4.1-6 8-8.7 12.1-.7 1-1.3 2.1-2.5 2.7-.3 0-.6 0-.8-.1z" style="fill:#e9a319"/><path d="M536.6 311.7c1.7.5 3.3 1.1 5 1.6.6.2 1.2.4.9 1.3-.3.7-.8 1-1.5.7-1.3-.7-2 0-2.9.8-1.3 1.1-3.2.8-4.8 1.1-6.4 1.2-12.9 1.5-19.3 1.9-11.2.7-22.4 1.4-33.6 1.8-8 .2-16 .7-23.9.9-15.1.5-30.2.8-45.3 1.2-8.3.2-16.5 0-24.8.4-13.9.6-27.8.1-41.7.6-26.5.9-53-.1-79.4.6-11.7.3-23.4.6-35.1.3-23.5-.6-47 .1-70.5-.6-12.2-.3-24.5.2-36.7-.5-11-.6-22 .1-33-.5-7.8-.5-15.7.1-23.4-.5-6.6-.5-13.2-.1-19.8-.5-11.2-.6-22.5-.8-33.7-1.1-7.7-.2-15.4-.7-23.1-1-9.1-.3 11.8-.8 2.7-1.6-6.8-.6-13.6-.8-20.3-2.5-.9-.2-2.5-.1-2.5-1.3s1.5-1.4 2.5-1.6c4.5-1.3 9.1-1.9 13.7-2.3 8.4-.8-13.3-1.4-4.9-2.1 3.7-.3 7.4-.3 11-.5 5.5-.2 11-.9 16.6-.6 1.4.1 2.1-.5 2.6-1.6.6.5.8 1.2.8 1.9 0 2.9.7 3.1 3.9 3.1h33.2c.4 0 .9 0 1.3.1 18.2-.1 36.5 0 54.7-.1h52.1c2.2 0 3.3-.7 3.2-3 0-.8.1-1.6.6-2.3 1.4-.7 1.8.6 2 1.3 1.3 4.2 4.2 5.2 8.1 4.6.6-.1 1.2-.1 1.8 0 3.4.4 6.1-.5 8.2-3.5 1.1-1.5 2.3-3.4 4.7-3.3 2.7.7 5.4.2 8.1.4 1.3.1 2.7-.2 3.8.7 1.2 2.1.5 4.3.7 6.5.2 2.5.6 3 3.1 2.7 5.4-.7 10.9-.4 16.3-.3 4.2 0 8.4-.7 12.6-.6 2.1 0 2.7-1.2 2.8-3s-.4-3.7.9-5.3c.6-.4 1.3-.6 2-.6 11.4-.1 22.8-.1 34.1 0 1.6 1.2.9 3 1.1 4.6.1 1-.1 1.9.3 2.8.4 1 1.4 1 2.2.9 1.1-.1 1.5-.7 1.6-1.7.2-1.8 0-3.7.1-5.5 0-1.1-.1-2.3.8-3.2 1.3-.7 2.6-.7 3.8.2 1.1 2 .6 4.1.7 6.2.1 3.4.2 3.6 3.6 3.6 14.3 0 28.7.2 43 .1.5 0 1.1 0 1.6.1 1.8.2 3.5-.2 5.3-.1 12.4-.1 24.9-.1 37.3 0 1.6-.1 3.3-.1 4.9 0 3 0 6.1.4 9.1-.3.8-.2 1.7-.1 2.5-.1 1.6.2 3.1.3 4.7.3 30.7-.1 61.5.2 92.2.1 3.2-.1 6.4 0 9.7 0 3.2 0 3.2 0 3.8-3.2.1-.4.2-.8.5-1.2.2-.2.5-.4.8-.5 3.1-.5 6.1.1 9.2.3 8.1.4 16.1 1 24.1 2.2 1.3-.2 2.4 0 3.3.7z" style="fill:#b5e4ed"/><path d="M50.8 311.7c-12.4 0-24.8 0-37.2.1-1.7 0-2.1-.7-2-2.2.1-1.2 0-2.5-.1-3.7 0-7 .1-14.1 0-21.1 0-2.2.7-2.8 2.8-2.8 4.5 0 9.1.4 13.7-.2l.6-.2c2.5-.3 5-.3 7.6-.4 5.1.1 10.2.2 15.3-.1 18.5.3 37.1 0 55.6.1 1.5 0 3-.1 4.5.2 2.1 1 .7 1.8-.2 2.4-2 1.2-3.9 2.3-6 3.4-16.8 8.6-33.8 16.4-51.3 23.5-1.1.6-2.2.7-3.3 1z" style="fill:#67d4ec"/><path d="M423 129.6c3.3-7.1 5-14.8 8-22 3.3-7.9 7.7-15 14.6-20.4 2.5-1.9 5.1-3.4 8.5-3.1 1.8.2 2.9.9 3.7 2.8 2.3 5.9.7 11.7-.8 17.3-4.8 18-13.6 34.2-23.5 49.9-1.2 1.9-2.3 3.7-3.5 5.6-.7 2.8-2.8 4.8-4.3 7.1-3.1 4.7-6.3 9.3-9.9 13.6-.6.7-1.1 1.6-2 2-.3.1-.6.2-.9.2-3.6.2-7.2.2-10.7.1-2.9-.1-3.4-.7-3.5-3.7-.1-4.3.2-8.6-.2-12.8 0-.5.1-1 .4-1.4 3.2-1.2 6.5-.6 9.7-.5 2.9.3 3.2.1 3.2-2.8.1-3.9 0-7.9 0-11.8 0-.3 0-.6.1-.8.1-.9.4-1.7 1-2.4 4-5.3 6.6-11.4 10.1-16.9z" style="fill:#68d4eb"/><path d="m38.4 66.7 76.7.1c1.2.6 1.3 1.8 1.3 3 .1 8 .1 16 0 24 0 3-1 3.8-4.1 3.9-3.7.1-7.4 0-11.1 0H61.1c-1.4 0-2.8.1-4.2-.2-.5-.2-1.1-.3-1.1-.9s.7-.7 1.2-.8c2.6-.8 2.6-.8 1.4-3.3-4.3-9-10.6-16.4-18.1-22.9-.8-.9-2.1-1.4-1.9-2.9z" style="fill:#1883c8"/><path d="M55.8 96.7c19.2 0 38.4 0 57.5.1 1.3 0 2.2-.4 2.2-1.9V68.2c0-.5-.3-1-.5-1.5 11.7 0 23.3-.1 35-.2 1.4 0 1.5.7 1.5 1.8-.1 9.3-.1 18.6-.1 27.9-1.7 1.4-3.8.6-5.7.8-2.5 0-5.1-.1-7.6.5-5.5.2-11 0-16.2.1 1.1 4.2 1.1 8.5.2 12.7-1.2 1.2-2.4.6-3.6.2-7.8-3-15.9-4.6-24.1-6-2.1-.4-4.2.1-6.3-.1-11.8-.5-23.2 1.7-34.3 6-1.2.5-2.5.9-3.7 1.4-.2-.1-.5-.2-.6-.5-.6-4.7-1.4-9.4 1-14 1.8-1.2 3.5-1.7 5.3-.6z" style="fill:#035fb1"/><path d="M26.3 129.5c-2.8 6.7-5.6 13.4-7.2 20.5-1.7 7.6-2.1 15.3-2.9 23-1.4 14 1.1 27.5 5.8 40.7 3.3 9.4 8.4 17.9 15.4 25.1 1.6 1.7 3.1 3.6 4.7 5.3.5.6.7 1.2.6 1.9-.7 4.6-.5 9.2-.6 14.1-3.1-.9-4.7-3.7-7.4-4.6 0-.8-.5-1.2-1.1-1.7C16.9 239 7 220.6 4 198.6c-2.8-20.3 1.2-39.1 12-56.6 2.9-4.4 6.1-8.8 10.3-12.5z" class="st7"/><path d="M500.2 308.6h-.5c-1.6-3.5-1.2-7.1-.3-10.6 1.4-1.1 3-.8 4.5-.8 2.5 0 5-.1 7.5.1 3.7-.2 3.7-.2 3.7-3.9v-8.1c0-.9.1-1.9-.6-2.7-1-.9-2.2-.6-3.3-.6-11.2-.1-22.3.2-33.5.1-1.4 0-2.8.1-4.2-.4-2.1-1.6-.7-3.9-1-5.8-.1-.9.1-1.9.5-2.8 1.8-2.4 3.3-4.9 4.7-7.5.4-.4 1-.6 1.5-.8.6-.2 1.2-.2 1.8-.2 1.7 0 2.3-.9 2.3-2.5 0-3.8.1-7.7-.1-11.5-.1-.9.2-1.8.6-2.5 2.3-3.5 4.9-6.8 8.3-9.3.4-.3.9-.6 1.4-.4 1.1 2.4 2.8 4.2 4.6 5.9 8.8 8.5 16.6 17.8 23 28.3 6.9 11.4 11.8 23.6 14.7 36.6-1.7.2-2.1-1.1-2.4-2.2-1.7-5.6-4.9-10.7-5.3-16.7 0-.7-.3-1.4-.7-2-3-3.9-4.3-8.8-6.8-12 1.7 4.7 3.7 10.2 3.1 16.3-.3 3.2-4.8 7-8.5 7-2.1 0-4.1.5-6.2.8-1.5.2-3 0-4.4-.5-2.3-.7-3.3.3-2.8 2.7.1.3.1.5.2.8 1.8 3.6 1.8 3.6-1.8 5.2z" class="st8"/><path d="M88.2 104.4c10.5-.6 20.5 1.7 30.3 5.3 1.1.4 2.2.7 3.2 1 1.5.2 2.7 1 4 1.5 2.5 1.2 5 2.6 7.3 4.1 1.3.8 2.2.6 3.1-.6 3.5-4.6 6.8-9.3 10.3-13.9 1.7-2.1-.4-3.5-.6-5.3l5.6-.3c3.9 1.7 4.4 3.6 1.9 7-4.1 5.6-8.1 11.2-12.2 16.8-.6.8-1.3 1.5 0 2.3 3.6 2.5 6.5 5.8 9.7 8.8.2.2.3.4.5.6 1.8.4 2.5 2.1 3.6 3.3 8 9.8 13.4 20.9 16.3 33.3.5 2.2.6 4.4.8 6.7 0 .1-.1.1-.1.2s0 .1.1.2c1.1 1.6 1.1 3.5 1.2 5.3.5 12.1-.3 24-4.4 35.6-3.6 10.1-9 19.2-16 27.3-.1.2-.3.5-.4.7-3 3.2-6.1 6.3-9.6 9-1.8 1.4-1.9 2.5-.5 4.3 4.1 5.2 7.7 10.7 11.6 16 .7.9 1.4 1.8 1.7 3 .3 2.3-.9 3.7-2.6 5-1.9 1-3.9.9-5.9.5-1.1-.7-.5-1.5-.2-2.3.7-1.4.5-2.7-.4-4-3.4-4.9-7-9.7-10.5-14.5-1.2-1.6-2.5-1.7-4-.5-1.7 1.2-3.6 2.2-5.4 3.3-1.8.8-3.4 1.8-5.2 2.7-5.5 2.1-11.1 3.8-16.9 5-1.3.3-2.7.9-3.9-.4 7.4-3.1 15.2-5.2 22.2-9.2 4.5-2.5 8.7-5.3 12.7-8.5 3.8-3 7-6.6 10.2-10.2 3.4-3.8 6.4-8 9.1-12.4 2.3-3.9 4.8-7.8 6.2-12 2.2-6.3 4.6-12.6 5-19.4.2-3 1.5-5.9 1.7-9 .3-4.4-1.2-8.6-1.6-12.9-.4-3.9-1.1-7.7-2.1-11.5-1.5-5.9-3.9-11.5-6.5-17-3.6-7.6-8.9-13.9-14.5-19.8-5.8-6.1-12.1-11.6-20.2-14.8-2.7-1.1-5.1-3.1-7.8-3.9-3.6-1.1-6.9-2.9-10.8-3.3-3-.3-5.8-1.8-8.8-2.5-2.3-.5-4.8.3-7.2-.6z" style="fill:#d24f1c"/><path d="M449.5 194c7.9-2.1 14.9-6.1 21.6-10.8 3.4-2.4 6.9-4.8 10.4-7.2 2.8-1.9 5.9-3.1 9.3-3.5 1.6-.2 3 .1 4 1.5.9 1.4.3 2.7-.4 4-1.3 2.1-3 4-5.1 5.2-8.2 4.9-14.1 12.1-20 19.3-4 4.9-8.2 9.7-13 13.8-.4.9-1.2 1-2 1-7.9 0-15.8.2-23.7-.1-2-1.6-2.3-3.8-.5-6.1 2.3-3 5.7-3.8 9.2-3.5 5.1.5 10 1.7 14.6 4.1.8.4 1.7 1 2.7.4.3-.9-.4-1.1-.9-1.3-9.1-4.5-18.4-7.3-28.7-5.7-6.6 1-11.6 3.9-13.4 10.8-.1.3-.3.6-.6.9-1 .6-2 .6-3 .2-1.6-.9-.4-2.2-.5-3.2-.2-4.3.8-8.5.6-12.8 0-.9.1-1.8.7-2.5 2.1-1.2 4.4-.6 6.6-.7 2.2-.1 4.3-.1 6.5.1 2.1.6 4 .8 4.9-1.8.6-.6 1.4-.7 2.2-.6 5.3.7 10.5-.3 15.6-1.5.9-.1 1.9-.2 2.9 0z" style="fill:#69d5eb"/><path d="M493.8 238.3c-4.1 3.1-7.5 7-10 11.5-1.6 1.6-3.5.8-5.4 1-6.1.1-12.3.1-18.4 0-6.4.3-6.6.2-6.6-6.3 0-2.6-.3-5.2.2-7.8.6-1.2 1.8-1.2 2.9-1.4 2.9-.6 5.8-1 8.6-2.1.9-.2 1.7-.3 2.6-.3 1.8.2 3.5 0 5.1-.8.2-.7.5-1.3 1.2-1.6 6.3-2.8 11.2-7.5 16.4-11.9 4.1-3.5 8.5-6.5 14-7.5 5.3-.9 8.3 2.3 6.7 7.4-1.8 6.2-6.4 10.4-11 14.5-1.9 1.8-4.4 3.2-6.3 5.3z" style="fill:#6bd5eb"/><path d="M55.8 96.7c-1.6 0-3.1 0-4.6.7-4.8.5-9.6.1-14.3.2-2.6-.1-5.3.6-7.9-.7-2.2-.4-4.4 0-6.6 0-1-.7-.8-1.7-.8-2.6 0-8.4.1-16.8 0-25.2 0-1.8.5-2.5 2.4-2.4 4.8.1 9.6.1 14.4.1 3.1 3.1 6.5 5.8 9.5 9.1 4.7 5.2 8.6 10.8 11.6 17.2 1.4 3.1 1.4 3.1-2 3.3-.6-.1-1.2-.1-1.7.3z" style="fill:#68d3eb"/><path d="M254.5 11.2c-.2 2.2 1.1 4 1.7 6 .6 1.8.5 2.9-1.8 2.1-1.1-.4-1.6.1-2.1 1s-.6 1.6.3 2.3c2 1.5 2.1 4.1 3.9 5.8 1 1-.9 2.1-1.8 2.6-2.7 1.6-5.6 2.8-8.4 4.3-5.2 2.8-10.4 5.3-14.6 9.8-2.7 2.8-4.9 5.8-6.4 9.3-.4.8-1 1.1-1.9 1.2-2.2.1-3.3 1.3-3.1 3.6s-1.2 3.9-3.6 3.7c-4-.3-8.2-.5-12-.1-5.2.5-7.1-1.2-8.1-5.8-.4-1.9-1.9-3.2-4.2-1.7-.4.3-.8.2-1.1-.2 1-2.4 3.2-3.7 4.8-5.6.9-1 1.8-.1 2.6.1 2.8.9 5.2 2.5 7.6 4.1 3.4 2.3 5.2 1.9 7.3-1.6 3.4-5.8 7.9-10.9 12.6-15.6 6-6 12.8-11 20-15.5 3.2-2 3.2-2.1 2.2-5.9-.2-.7-.4-1.4-.4-2.1 0-.3.1-.5.3-.7l.6-.6 5.6-.5z" class="st8"/><path d="M298.4 99.8c0-.9-.1-2.2 1.4-1.9 4.3.9 8.6.5 12.9-.1.8-.7 1.7-.8 2.7-.8 6.6 0 13.2-.1 19.7 0 1.1 0 2.3.1 2.9 1.3 4.8 1.6 4.8 1.6 5.4 9 .9-1.3.9-1.3 1.1-2.9 1.8 1.8 3.8 2.6 6.1 1.4 1.5-1.2 3-.3 4.6-.1.4 0 .7.1 1 .3 6.6 3.1 13.4 2.7 20.3.9 2-.5 4-.3 6 .2 3.6.8 7.1 1 10.7 0 1.1-.3 2.3-.2 3.4.1 2.8.6 3.1 1.4 1.7 4.2 3.5.1 6.9.3 10.3.6 2.4.2 4.7-.1 7.1.3 1.5.2 1.8-.4 1.5-1.8-1.5-7.4-3.8-14.6-5.9-21.8-.5-1.8-1.5-3.6-.7-5.6l.3-.3c2.1 3.5 2.9 7.5 4.1 11.3 1.7 5.4 3 10.9 4 16.5.3 1.5.2 3 .3 4.4-1.2 1.2-2.8.7-4.2.7-2 .1-4 0-6 0-21.3-.1-42.5.2-63.8.1-1.6 0-3.2.2-4.7-.6-1.7-2.6-1.1-5.6-1.4-8.4-.5-5.3-.3-5.3-5.7-5.3-8.4 0-16.9-.1-25.3 0-2.6 0-5-.7-7.6-.5-.8 0-1.7-.1-2.2-1.2z" class="st13"/><path d="M248.1 12.8c.5 1.7 1.1 3.3 1.6 5 .6 1.7-.7 2.1-1.7 2.8-7.1 4.5-13.9 9.2-20 15-5.4 5.1-10.2 10.7-14.1 17-2.4 3.9-4.4 4.2-8.2 1.6-3-2.1-6.2-4-9.9-4.8-.8-.2-1.6-.5-2.5-.7-5.6-1.1-5.6-1.1-3.4-6.9 3.5-1.5 6.6-.3 9.6 1.2-.7-.9-3-.5-2.6-2.4.2-1.2 1.4-1.3 2.6-1 2.4.6 4.5 1.7 6.4 3.4 1.4.5 1.5 1.8 2 2.9.6 1.4 1.1 1.3 1.9.2 1.9-2.7 3.9-5.4 6-8 7.1-8.5 15.7-15.4 24.8-21.5 2.4-1.4 4.5-3.5 7.5-3.8z" style="fill:#e68c0a"/><path d="M449.5 194c-5.9 2.1-12 2.9-18.2 2.4-.8-.1-1.5-.3-2.2.2-1.2-.9-.9-2.2-1-3.4-.1-2.7 0-5.4 0-8.2 0-1.6-.7-2.4-2.4-2.4-2.8.1-5.6-.1-8.4 0-1.2 0-2.4.2-3.2-1 5.6-7.1 10.6-14.7 15.9-22 1.5 5.9 4.4 11.2 7.3 16.5 3.4 6.3 7.6 12.3 12.2 17.9z" style="fill:#e5f6f9"/><path d="M379.2 1.3c5.4-.7 10.6.3 15.4 2.7 8.2 4.1 12.2 12.5 10.8 21.8-1.3 8.5-5.3 15.5-10.9 21.8l-1.5 1.8c-.9 1.7-2.4 2.7-3.6 4.1-4.5 4.3-10 6.6-15.7 8.5-3.8.8-7.6 1.5-11.5 1.1-7.9-.6-13.7-4.6-17.3-11.7-.3-.6-.6-1.3-.5-2 .2-.5.4-1 1.1-.6.5.3.8.9 1.1 1.4 3.1 4.7 7.4 6.9 13 7.2 7.9.5 14.9-2.1 21.2-6.6 9.4-6.6 15.9-15.2 18.2-26.7-.1-2.4.8-4.7.5-7.1-.9-6.5-3.9-11.4-10.5-13.4-1.1-.3-2.2-.7-3.3-1-1.4-.5-2.8-.2-4.2-.3-.8 0-2 .4-2.3-1z" style="fill:#e58f08"/><path d="M500.2 308.6c.1-.5.2-.8.7-1 2.2-.6 3-1.4 1-3.5-1.3-1.3-1.1-3.4 0-4.9.9-1.2 2.3-.7 3.5 0 1.4.8 3.1.8 4.4.3 2.8-1.1 5.6-.3 8.4-1 1.2-.3 5.2-4.7 5.3-6 .1-3.4 0-6.8-1.4-10-1.1-2.7-.2-6-2.8-8.3 1.9 2.4 4.8 4.1 5.3 7.4.1.4.2.9.5 1.2 3.7 3.8 4.3 8.8 5.5 13.6.9 3.7 3.3 6.8 3.9 10.5.1 1 .8 1.8 1.7 2.2.5.8.6 1.7.6 2.6-5.5-.6-11.1-1-16.6-1.8-3-.5-6.1-.3-9.1-.7-3.8-.3-7.4-.3-10.9-.6z" style="fill:#e4f6f9"/><path d="M379.2 1.3c2.2 1.1 4.7-.4 6.9.9-.7.9-1.8.8-2.7.7-10.3-.5-18.2 4.6-25.5 10.9-5.1 4.4-8.5 10.1-11.1 16.2-1.4 3.4-2.2 7-1.8 10.8.1.7.1 1.4 1.1 1.4 1 .4.9 1.4 1.2 2.2 1.8 6.5 6.7 10.2 13.5 10.5 6.7.2 12.6-2 18.1-5.7 8.8-6 15.1-13.8 17.6-24.4.1-.6.3-1.2.9-1.6 1-.1 1.7.5 2.4 1.2-2.8 13.2-10.6 22.6-22 29.3-6.8 4-13.9 5.5-21.7 4-4.4-.9-7.6-3.4-10-7.1-.3-.5 0-1.8-1.3-1.3-1.6-.6-1.7-2.1-2-3.4-.9-3.9-.7-7.9.2-11.8 1.5-7 5-12.9 9.2-18.5 1-1.3 2.4-2.1 3.7-2.9C362.1 7.3 369 3 377.2 1.4c.6 0 1.3 0 2-.1z" style="fill:#f6c842"/><path d="M248.1 12.8C240.7 17 234 22 227.5 27.4c-6.9 5.8-12.7 12.6-17.7 20-1.1 1.5-1.5 1.4-2.1-.2-.5-1.4-1.2-2.7-1.8-4.1 3.2-2.3 4.9-5.8 7.5-8.7 7.5-8.2 16.3-14.7 25.7-20.4 2.7-1.6 6-.8 9-1.6.1.1 0 .3 0 .4z" style="fill:#fdd14c"/><path d="M355.9 12.8c-5.2 5.3-9.3 11.2-11.4 18.3-1.8 6.1-2.7 12.2.3 18.2 3.7 9.7 13.4 14.9 24.1 12.9 1.7-.3 3.4-.6 5.2-.9.2.8-.3 1.2-.8 1.4-5.2 2.4-10.3 4.5-16.1 1.4-2.4-1.3-5.1-1.9-7.5-3.3-1-.6-2.1-1-2.8-2-4-5.9-7.2-12-7.6-19.3 0-.6.1-1.2.3-1.8.9-2.5 1.7-4.9 2.3-7.5.4-2.7 1.3-5.1 2.4-7.6 1.5-3.7 3.9-5.9 7.3-7.7 1.9-1 1.5-2.6-.7-3.6C345 8.6 339 6 332.5 4.7c-1-.2-2.1-.4-2.8-1.3 8.8 1.9 17.4 4.6 25.3 9.2.2 0 .5.1.9.2z" class="st13"/><path d="M423 129.6c-2.1 5.8-5.2 11-8.8 15.9-.7 1-1.6 1.9-1.9 3.1-2.2 1-4.3 1.5-6.2-.5-.5-5.6-.9-11.3.2-16.9 2-1.4 4.3-.7 6.5-.8 1.1-.1 2.2-.1 3.3 0 1.7.1 3.4-.3 5.1.2 1.3.4 1-1.2 1.8-1z" style="fill:#e3f6fa"/><path d="M429.9 216.5c8.8.2 17.6.3 26.4 0l.6.3c.2.3.1.6-.2.8-3.1.9-6.4.3-9.5.4-1.3.1-2.6 0-3.9 0-2.2.4-4.5.6-6.8.5-6.9-.3-12.1 2.7-15.6 8.6-.3.5-.6.8-1.1 1.1-2 .6-3-.3-3.3-2.2-.3-1.5-.5-2.9-.5-4.4 0-1.2-.4-2.2-1.3-3-.6 0 .6-.9-.6-.8-2.2.2-4.4.9-6.5-.6.5-1.3 1.5-.8 2.3-.5l3-.2c3.3-1.1 6.6-.5 9.9-.5 2.4-.2 4.9-.6 7.1.5z" class="st21"/><path d="M79.1 66.2c-1.6.4-2.1-.2-2.1-1.9-.1-7.5-.2-7.6 7.3-7.5 4.1.1 8.2-.6 12.2.3-2 .6-2.9 2.1-3.8 3.9-2.4 4.8-8.3 5.5-12 1.7-.2-.2-.5-.5-1-.5-.7 1.3.6 2.8-.6 4z" style="fill:#e57834"/><path d="M462 179.8c.1 3.4-3.6 5.5-6.9 3.9-2.5-1.2-4.7-3-6.5-5.2-1-1.2-.7-2.2.4-3.2 2.9-2.4 11.6 0 12.8 3.6 0 .4.1.7.2.9z" style="fill:#75d7ea"/><path d="M456.8 217.2v-.5c4.7 0 9.4 0 14.2-.1 1.7 0 1.8.8 1.8 2.1 0 4.5.1 8.9.1 13.4 0 1.5-.8 1.9-2.1 1.8-.9-.1-1.9-.1-2.8-.2-.6-1.7-.3-3.5-.2-5.2.5-5.2-2-8.3-6.5-10.1-1.4-.8-3.2.1-4.5-1.2z" style="fill:#e0701b"/><path d="m181.1 68.8 1.4-.6c.1.5.3 1.1.1 1.5-.4.9-1 1.8-1.7 2.6-2.9 3.5-3.8 8.1-6.6 11.6-1.2 1.5.4 4-.6 4.5-1.6.8-2.8 1.6-3.5 3.1-1.4 3-2.7 6-4 9-.5 1.1-1 2.1-2.3 3-.8-3 1.9-4.8 1.8-7.3 2.3-5.6 5-11 8.1-16.2 2.3-3.8 4.1-8 7.3-11.2z" class="st8"/><path d="M459.8 167.1c-1.6 0-3.1 0-4.7-.5-2-.7-2.3-2-1.2-3.7 1.5-2.4 6.2-4.4 9-3.7 2.1.5 3.7 2.4 3.3 4.4-.4 2.1-1.6 3.5-3.9 3.5h-2.5z" style="fill:#7adaed"/><path d="M79.1 66.2c-.2-1.1-.4-2.2-.5-3.4-.1-.8-.3-1.8.7-2.1.7-.2 1.2.7 1.6 1.2 2.5 3 5.8 3.6 9 1.5 1.3-.9 2.3-2.1 2.6-3.5.5-2.2 1.8-3 3.9-2.7.5 2.5.1 5.1.3 7.6.1 1.2-.4 1.5-1.5 1.5-5.4-.1-10.7-.1-16.1-.1z" style="fill:#d24b1e"/><path d="M421.4 130.5c-1.5 1.1-3.1.5-4.7.5-.3-.2-.5-.5-.6-.9-.4-4.9-.5-9.9-.1-14.9 1.6-.4 3.3-.4 4.9 0 .4 3.6.1 7.3.2 10.9 0 1-.2 2.1.2 3.1l.1 1.3z" style="fill:#e36c19"/><path d="M393.5 50.8c3.4 2.8 5.2 6.8 7.4 10.4 3.7 5.9 6.5 12.2 9.3 18.5.4.9.5 1.9.7 2.8-1.4 0-1.9-1.2-2.3-2.2-2.1-5.3-5-10.2-7.3-15.4-1.7-3.8-4.2-7.1-6.8-10.3-.8-1-1.8-2-1.3-3.5l.3-.3z" class="st13"/><path d="M199.6 39.7c-1 .1-2.3.1-2.2 1.3.1 1.6 2.2.9 3.2 2.7-3.7-1.5-7.1-2-10.6-1.8 2.7-3.1 6-3.4 9.6-2.2z" style="fill:#fad253"/><path d="M421.4 129.2c-.5-3.7-.1-7.4-.3-11.1-.1-.9-.2-1.9-.2-2.8-.1-.1-.1-.2-.1-.3 0-.1.1-.1.1-.1.8.4.6 1.2.6 1.8-.1 4.1-.1 8.3-.1 12.5z" class="st13"/><path d="M420.8 114.8v.4c-1.6 0-3.1.1-4.7.1-2.1 1.2-4.3.8-6.4.3-.1-.1-.3-.2-.3-.3-.1-.1-.1-.3-.1-.5l10.1-.2 1.4.2z" class="st29"/><path d="m389.1 52.9 3.9-3.5c.2.5.3 1 .5 1.5-1.5.7-2.2 2.9-4.4 2z" class="st13"/><path d="M184.8 63c.5.1 1.4-.2 1.4.7 0 .4-.4 1-.7 1.2-.7.4-1.1-.2-1.1-.9-.1-.4 0-.8.4-1zm-32.9 181.1c4.3-5.6 8.5-11.1 11.8-17.4 7.8-15.2 10.3-31.4 8.5-48.3-.1-1-.1-1.9-.1-2.9 1.8 1 3.9 5.2 3.2 6.9-.8 2-.2 3.7.3 5.7 1.7-1.4 1.5-3.2 1.1-4.5-.8-2.8 1.2-4.8 2.6-5.6 3.9-2.1 4.1-5.6 3.6-8.8-.5-3 .3-6.3-1.3-9.1-.3-.6-.5-1.4-1.1-1.7-2.7-1.5-2-4.2-2.3-6.5-.1-.7.2-2.5 1.4-2 1.1.5 3.3.5 2.9 2.7-.2 1-.5 2-.4 3.1.1.5.1 1.4.3 1.5 3.5 1.2 2.6 4.8 3.8 7.2.3.5.4 1.2.7 1.7.4.7.8 1.5 1.8 1.2.8-.3 1.1-1 1.3-1.9.9-4.1-.6-7.7-2.4-11.1-.7-1.4-1.4-2.8-1.3-4.5.1-2.3-1.4-4.1-2.4-6-1-1.8-1.5-3.5-1.2-5.5.3-1.5-.4-3-1.8-3.5-4.9-1.8-5.9-5.9-6.2-10.3-.3-3.9-.6-8.2 1.1-11.7 1.8-3.6 2.2-7.7 4.5-11 1.6-2.3 1.7-4.8.2-7.4-.8-1.5-1.2-2.9-3.1-3.7-1.5-.6-1.4-4.5-.2-5.6.5-.5.9-.2 1.4.1.9.7 2 .4 3.1.4 1.5 0 1.9-.5 1-1.9-1-1.5-.9-1.6.9-1.6.4 0 .7-.1.8-.5s-.2-.6-.5-.7c-.5-.1-1.1 0-1.5-.3-1.3-.7-2.1-2-.6-2.8 3.2-1.7 2.2-5.5 4.6-7.7.7 1 1.7 1.4 3 .3 1.6-1.3 3.2-.5 3.9 1.1 1.1 2.2 3.1 2.5 4.9 2.2 3.1-.5 5.9-.2 8.7 1.1 2 .9 3.9 1 5.8-.1 1.5-.9 2.5-.6 3.2.9.2.3.4.6.6.8 1 .9 2.2 1.2 3 .2s.2-2.5-.8-2.9c-1.8-.6-2.4-1.9-2.7-3.5-.1-.6-.9-1.3 0-1.8.7-.5 1.7-.4 2.1.4 2.2 3.8 5.5 1.4 8.3 1.3 1 0 1.6-1.1 1.8-2.1.4-2.1 1.9-3.1 3.6-3.9 3.4-1.7 6.9-3.4 10.3-5 1.5-.7 1.9-2 2.5-3.3 1.5-3.6 3.7-6.5 7.3-8.3 1.5-.7 2.4-.8 3 1 .6 1.9 1.7 2.9 3.7 1.4.7-.5 1.8-.6 2.5-.1 1.2.8-1 1.5-.1 2.7 2-.5 3.5-3.1 6.1-1.7 0 .7-.6 1-1 1.4-3.3 2.7-3.8 5.6-1.4 9.1.6.9 1.6 1.7 1.8 2.9 0 3-.7 5.8-.5 8.9.5 5.6 2.5 10.1 7 13.5.5.4.9.8 1.2 1.3.6 2-.2 4-.4 6-.3.7-.7 1.2-1.3 1.6-4.3 2.5-9.1 3.5-13.5 5.6s-8.2 4.6-10 9.5c-3.1 7.5-4.1 15.4-5.1 23.4-.6 4.7-1.4 9.4-1.8 14.1-.6 7.4-4.5 13.2-8.7 18.9-1.8 2.4-3.5 4.9-4 7.9-.3 1.6-.4 3.2.4 4.6 1 1.9.7 3.5-.6 5.1-.9.8-2 1-3.2 1.1-1.8.2-3.5.6-5.2 1-4.7 1.2-7.8 4-8.8 8.8-.4 2-1.6 3.3-3.2 4.3-1.4.9-2.7 1.9-4.2 2.8-5.5 3.4-6.5 8.4-5.3 14.2.7 3.4 1.6 6.7 2.6 10 .9 2.9 1.1 5.9.1 8.8-4.8 14.4-8.8 29-14.3 43.1-.6 1.5-1.7 2.6-2.9 3.8-3 2.8-5 6.3-7.5 9.4-.7.8-1 2.2-2.5 1.8-1.1-1.8-.6-4.1-2.1-5.8-.6-.7.2-1.6.8-2.3.8-.9 1.8-1.7 2.5-2.7.8-1 1.1-2.2-.3-2.9-1.2-.6-2.4-.5-3.2.8-.4.7-.5 1.5-.7 2.3-.3 1.5-1.4 2.2-2.8 2.5-1.3.3-1.8-.8-2.3-1.7-.3-.6-.6-1.1-1.4-1.1-.8.1-1.2.7-1.4 1.4-.5 1.5-.5 3.1-1 4.6-.4 1.2-1.1 2.5-2.4.6-.1-.4 0 .1-.1-.3-1.2-6.7.4-6.1-7.5-6.1h-28.7c-1.4 0-2.9.3-3.9-1-.2-.6 0-1 .6-1.1 5.8-.2 11.6.1 17.4-.2 2.6.4 5.4-.5 8 .8 2.2.4 4.3.3 6.4-.4.4 0 .7-.2 1-.1 3.8.9 4.6-2.6 6.3-4.5.8-.9.1-2.2-.4-3.2-1.1-2.2-2.7-4.1-3.7-6.4-1 2.1-1.1 4.1-.5 6.2.4 1.3.8 2.6-.7 3.5-4.7-6.6-9.4-13.3-14.2-19.9-.9-1.2-.9-1.7.3-2.7 4.2-3 7.6-6.6 11.1-9.9.9.7.4 1.5 0 2.1-1.8 2.3-3 5.2-6.1 6.4-.5.2-1 .4-1 1.1 8.5-3 26.2-27.7 27.3-40.8-.7 2-1.9 3.8-2.3 6-.7 3.9-3.2 7-5.1 10.3-2.4 4.3-4.5 8.8-7.9 12.4-1.3 1.3-2.4 3.1-4.9 2.5zM338 98.4c-1-.6-2.2-.5-3.3-.5h-22c0-1.8-.7-2.8-2.7-2.7-1.4.1-2.7-.7-4-1.1-1.1-.3-1.1-1.1-1.2-2.1-.2-3.2-1.1-4.2-4.3-4.7-2.3-.4-3.6-2.4-5.6-3.1-1.1-.4-.2-1.6.4-2.2 3.2-3.4 3.6-7.8 3.8-12.1.1-2.1.1-3.4 2.9-3.3 2.4.1 3.3-2.1 3.5-4.2.3-4.6-1.5-8.3-5.5-10.8-1-.6-1.5-1.4-2-2.6-.9-2-3.2-2.9-5-3.4-3.3-1.1-6.3-3.1-9.9-3.5-1.8-.2-3.6-.7-5.1.4-1.9 1.3-2.6-.1-2.5-1.3.2-2.3-.9-2-2.4-1.6-3.9 1.1-7-.6-9.9-2.9-.8-.6-.2-1 .1-1.5 2-3.2 2.1-6.3-.2-9.5-1.4-2-.4-3.5 1.9-3.9s4.5-1 6.7-1.8c4.8-1.7 9.8-3.8 15.2-2.4.7.2 1.4.1 2.1.1 2.5.1 5 .3 7.5.8 6.7 1.6 13.6.7 20.4.5 3.1-.1 5.8.1 7.8 2.9.7 1 .9 1.8.4 2.9-1 1.9-1.7 3.7-1.3 6 .2 1-.4 2.3-1 3.2-2.7 4.2-1.8 8.7-.6 12.9 1.9 6.8 4 13.6 6.7 20.1.8 2 1.5 4.1 1.3 6.4-.1 1 .1 2 1 2.6 5 2.8 9.9 5.8 15.5 7.2.9.2 1.9.4 2.8.7 1 .4 2.6.3 2.7 1.7.1.7 0 1.5-.3 2.2s-.8 1.3-1.4 1.7c-1.3.9-2.7 1.8-4.4 1.2-1.1-.4-1.8-.3-1.7 1.2.1 1.5-.7 3.1 0 4.6.2.5.1 1.3-.6 1.6-.5.2-1.1-.1-1.4-.4-2-2-3.2-.6-4.4.7z" class="st8"/><path d="M409.2 80c.5.9 1.1 1.7 1.6 2.6 0 4 1.9 7.6 2.9 11.4 1.5 5.9 3.2 11.8 4.8 17.7.4 1.5-.8 1.6-1.8 1.5-6-.7-12-.8-18.1-1-.8 0-1.7 0-1.9-1-.2-1.5 1.4-1.2 2.3-2.1-1.8-1.3-3.8-1.9-5.8-1.2-3 1.1-6.1.9-9.1.4-3.3-.6-6.4-.7-9.8 0-5.6 1.2-11.5 1.8-17.1-1.1-2-1-4.3-1.3-6.7-1.3.7-2.3.8-6.1 4-5.3 4.1 1 5.4-2.8 8.3-3.3.5-.1.5-.5.6-1 .4-2.6 1.8-3.3 3.8-1.7 1.5 1.2 2.5 1.5 4 0 1.2-1.1 2.9-1.1 4.5-.9.7.1 1.4 0 2-.3.5-.3 1.1-.5 1-1.1 0-.7-.8-.5-1.2-.7-1.6-.9-3.9.3-5.2-1.9-1.1-1.9-1-3.4 1.1-4.2 1.4-.5 2.6-1.3 3.8-2.3 1-.9 2.2-1.5 3.7-1.7 3.1-.3 6-1.2 8.5-3.2 1.7-1.4 3.2-1.1 4.4.8 1.1 1.8 3.5 2.4 3.9 4.8.1.4.8.7 1.3.4.4-.2.6-.8.4-1.2-2.1-3.3-.2-7.7-2.9-10.9-.8-1-.8-2.3-.6-3.6.3-2.5-1.1-4-3.6-3.4-3.3.8-6.6 2-9.2 4.2-1.1.9-1.9.8-3.2.8-3.8.2-7.7-.3-11.5.9-1.7.5-3.4.3-5.1-.4-3.1-1.1-6.1-2.7-9.6-2.6-1.4 0-2.8-.6-3.6-1.5-4.4-4.9-10.2-8.3-13.8-13.9-.7-1.1-1.2-2.2-1.1-3.4.3-3.1-1-5.8-2.3-8.5-.5-1.1-.7-2.3 0-3.2 1.6-1.9 1.7-4.3 2.2-6.6.1-.5.2-1.1.4-1.5.8-1.5 2.2-2.9 3.5-2.7 1.9.3.1 2 .3 3 .2 1 .4 2 .7 3.2.6-1 .5-2.2 1.4-2.8.1 2.4-.2 4.7-1.3 6.9-.7 1.3-.4 2.7-.3 4.1.4 6.5 3.9 11.7 7 17 1.1 1.8 3.4 2.5 5.3 3.2 3.2 1.2 6.1 3 9.6 3.5.9.1 2 .4 2.9.1 3.1-1.1 6.4-1.7 9.1-3.7 4.3-1.9 8.7-3.6 12.6-6.3.9-.7 1.5-1.7 2.6-2.1 1.9.2 2.4-2.5 4.4-2.1-.1 1.3.6 2.3 1.4 3.3 3.2 3.8 5.7 8.1 8 12.5 2.4 4.4 4.1 9.1 6.5 13.4" class="st8"/><path d="m298.4 99.8 1.8.6c.3 0 .5.2.5.5-.1 1.3-1.1 1.7-2 2.3-3.2 2.4-5.3 5.5-6.1 9.5-1.1 5.9-1.4 11.9-.6 17.8.6 4.8-.1 6.2-4.4 8.5-.7.4-1.6.6-2.4 1.4 1.8 1.2 3.6 2.1 5.3 3.1 1.7 1.1 2.6 2.5 2.6 4.6.1 2.5.5 5.1.9 7.6.4 2.3-.3 3.9-2.3 5.1-5.9 3.4-12 6.6-18.3 9.3-1 .4-2.2 1-3.1-.3-.5-5.3-1.2-10.6-.8-16 0-.5 0-1.1.2-1.6 3.3-7.5 2.9-15.5 2.8-23.4 0-8.2.3-16.4.6-24.5 0-1.1.2-2.3.5-3.4.1-1.4.4-2.7 1.8-3.2 2.4-1 4.3-2.5 5.5-4.9.2-.3.5-.5.9-.4 1 1.9 2.6 2.7 4.7 3.3 4.2 1.2 8 2.8 11.9 4.1z" style="fill:#22a4dd"/><path d="M266.4 64.2c-1.6-1.7-3.2-3.4-3.6-5.9-.5-3.8 1.6-5.8 4.6-7.4 2.2-.8 4.5-.6 6.7-.1 2.4.2 3 2 3.7 3.8.3 2.2 1.7 3.1 3.8 3.1 2.1.1 4.2.3 6.3.4 2.9.3 4.4 1.6 5.3 4.3 1.5 4.4 1.6 8.8-1.3 12.4-2.1 2.6-3.7 6.6-8.1 6.5-3.5-.9-4.8-5.1-2-7.5 1.9-1.7 2.7-3.8 3.6-5.9.3-.7.6-1.5-.1-2.2-.6-.6-1.4-.3-2 0-3.1 1.5-6.4 1.7-9.8 1.4-2.8.1-5.4-.6-7.1-2.9z" style="fill:#2b4488"/><path d="M266.4 64.2c5.6 3.2 11.3 3.4 17.1.7.9-.4 1.7-.6 2.4.2s1 1.8.3 2.7c-1.5 2.2-1.3 5.2-4.3 6.8-2.3 1.2-1.2 4.7 1.7 6.9l-1.7 6.3c-2.6 1.5-5.1 2-7.7.2-8.5-4.6-10.3-15.4-7.8-23.8z" style="fill:#f19286"/><path d="M172.1 175.1c-1.3-5.5-2.4-11.1-4.3-16.5-3.6-10.1-9.5-18.7-16.3-26.8.5-2.1 1.3-2.8 2.9-.7 3.5 4.3 6.8 8.7 9.1 13.9.8 1.9 1.9 3.8 3.1 5.5.9 1.4 1.5 2.7 1.4 4.4 0 .5 0 1.2.3 1.5 3.7 3 2.4 7.8 4.1 11.7.7 1.8.4 4.7-.3 7z" class="st8"/><path d="M274.1 88c2.6.8 5.2.1 7.7-.1 0 1.2-.5 2.4-1 3.5-1.6 2.7-4.9 3.9-7.5 2.8.4-2.1.6-4.2.8-6.2z" style="fill:#4462a1"/><path d="M273.4 94.1c3 .4 5.2-1.3 7.5-2.8l1 1.2c-1 2.9-2.9 5.1-6 5.9-1.2.3-1.3 1.2-1.5 2.1-.5.5-.9.9-1.6.5.3-2-.5-4-.4-6l1-.9z" style="fill:#eb937d"/><path d="M293.1 62.5c-1.3-2-3-3.4-5.3-4.3.2-1.6 1.5-1.9 2.5-1.4 1.6.7 3.1 1.8 3.3 3.8 0 .6-.4 1.3-.5 1.9zm67.1 21.1c1.9 0 2.1 1.4 2.4 2.5.2.7-.5 1.2-1.1 1.1-1.3-.2-2.7-.9-3.1-2.1-.3-.9.9-1.4 1.8-1.5zm-82.5-28.9c-1-1.5-2-2.9-3.7-3.8.2-1.1.9-1.3 1.6-.6.9.8 2.6.9 2.3 2.7.1.5-.1 1.1-.2 1.7zm-23.3-43.5c.7-1.4 1.4-2.2 2.8-1.7.5.2.7.9.4 1.4-.9 1.6-2.1.3-3.2.3z" class="st8"/><path d="M85.6 121.4c31.9-.9 59.2 23.6 64.7 54.6 4.4 25.3-3.2 46.9-22.2 64.1-21.8 19.6-54.9 22-78.3 6-18.9-13-28.6-31.2-29.9-54-.9-17.4 4.2-33 15-46.7 11.6-14.7 31-24.5 50.7-24z" style="fill:#b2e2ea"/><path d="m121.4 281.2-.6.5c-1.4 2-3.4 1.1-5.2 1.3-1.1 0-2.3.2-3.2-.7l-57.6-.1c-1.2 0-2.5.1-3.6-.5-.7-.3-1.1-.9-1.2-1.6-1-4.3-.8-8.7-.5-13.1 0-.5.3-1 .9-1.2 5.6 1.9 11.2 4.1 17 5.3 11.1 2.2 22.3 2.6 33.5.5 6.3-.3 12.1-2.5 18-4.5l3-.9c.8.6.9 1.5.9 2.4.1 3.3.1 6.7 0 10-.1 1-.2 2-1.4 2.6z" style="fill:#025bad"/><path d="M35.9 281.9c-2.5.2-4.9.5-7.4-.2 4.4-6 8.8-12.1 13-18.2 1-1.4 1.8-1.9 3.3-.8 1.2.9 2.5 1.6 3.7 2.5.5 1-.3 1.7-.7 2.3-2.8 3.9-5.6 7.9-8.5 11.7-.9 1.1-1.8 2.4-3.4 2.7z" style="fill:#cf4d1a"/><path d="M29 96.9c2.7-.4 5.4-.3 8 0 2.6 1.5 3.9 4.1 5.8 6.3 1.8 2.1 3.4 4.4 5.1 6.6.5.7 1.5 1.3 1.1 2.5-1.3 1.5-3.2 2-4.8 3-1.4.9-2-.6-2.6-1.4-3.4-4.4-6.7-8.9-10-13.4-.9-1.2-2.2-2.1-2.6-3.6z" style="fill:#d1531c"/><path d="M35.9 281.9c5-5 8.6-11.1 12.7-16.8.8-.2 1.4-.1 1.8.7-.2 4.4-.2 8.8.1 13.1.1 1 .2 1.9.7 2.8-2.5 1-5.1.3-7.7.4-2.6 0-5.1.2-7.6-.2z" style="fill:#fafdfd"/><path d="m49.1 112.2-12-15.3h11.5c.9 0 1.9-.3 2.7.5-1.4 2.1-1 4.4-1 6.7 0 2.5 0 5.1.1 7.7-.4.4-.8.4-1.3.4z" style="fill:#fbfdfc"/><path d="M270.8 305.5c-1.3.4-2.6.5-3.9.5h-32.3c-1.3-1.6-1.1-3.6-1.3-5.5-.2-1.5-.4-2.9-.5-4.4-.1-1.3-.9-2-2-2.5-1.7-1.3-.7-2.8-.3-4.2.5-8.8-.4-17.5-.6-26.2 0-.9-.2-1.7-.1-2.6 3.4-10.6 6.6-21.3 9.8-32 .4-1.3.8-2.6 2.3-2.9 6.5-.3 12.9-.1 19.4-.1 2.1 0 3.2 1 3.1 3-.1 2.7.3 4.7 3.7 4.6.7 0 1.3.5 1.7 1.1.8 5.1.9 10.2 0 15.3-1.8 1.5-4 .8-6.1.9-3.2.1-3.4.2-3.4 3.4v8.4c0 1.7.7 2.3 2.4 2.4 2.5.2 5.1-.6 7.5.7.3.4.6.9.6 1.4 0 4 .7 7.9.6 11.8-.1 2.8-.7 3.2-3.5 3.5-1.9.2-4-.9-5.7.8-.6 4.1-.2 8.2-.2 12.3 0 1.4.8 2 2.1 2.1 1.4.1 2.8 0 4.2.1 2 .1 3.1 1 3 3.1 0 1.1 0 2.3.3 3.4-.2.5-.2 1.2-.8 1.6z" class="st0"/><path d="M115.6 282.2c1.7-.2 3.6.4 5.2-.5.8.7 1.9.4 2.8.4 11.7 0 23.4.1 35 0 2 0 2.9.4 2.7 2.5-.2 1.8.1 3.7.2 5.5.3.3.6.7.7 1.1.1.4.2.9.1 1.3-.8 4 0 8 0 11.9 0 .2 0 .3-.1.4s-.2.3-.3.4c-1.1 1.5-.4 3.2-.5 4.8 0 1.4-.5 1.8-1.9 1.8-17.1-.1-34.3-.1-51.4-.1-.3-1.1.5-1.8 1.2-2.4 6.2-6.2 7.3-13.8 6.1-22.1-.2-1.6-1.1-3.3.2-5z" style="fill:#0361b5"/><path d="M115.6 282.2c-.2 3.2 1.1 6.3 1.1 9.6 0 7.5-2 13.9-7.7 19-.3.3-.5.7-.8 1l-57.4-.1c10.3-4.5 20.7-9 31-13.7 9.5-4.3 18.9-8.9 28-14 .9-.5 2-.7 2.5-1.8h3.3z" style="fill:#1c8bce"/><path d="M485.9 313.7c-11.6.1-23.2.2-34.8.2-19.8 0-39.7 0-59.5-.1-1.1 0-2.3.2-3.4-.4-.3-.4-.7-.9-.7-1.4-.1-4.4-.5-8.8.2-13.1.3-.7.9-1 1.5-1.3 2.7-.8 5.5.1 8.2-.7 5.4-.5 10.9-.2 16.3-.2 6.9-.1 13.8 0 20.8 0 1.3 0 2.6-.1 3.9.4 1.3 1.3 0 1.2-.7 1.2-2.7.1-5.4 0-7.4 0 3-.2 6.6.4 10.3-.4 1.1-.2 2.3-.1 3.4 0 .9 0 2.2-.2 2.6.8.4 1.1-.9 1.5-1.6 2-3.1 2.2-4.2 5.7-6 8.9-.7 1.3-1 2.9-2.5 3.4 3.9-.8 8-.2 12.2-.4 4.3-.1 8.6-.1 12.9 0 7.1-.1 14.2 0 21.4-.1.8 0 1.6 0 2.3.4.2.1.3.2.4.3.1.2.1.3.2.5z" class="st43"/><path d="M198.1 306c-3.3 0-6.7 0-10-.1-.9 0-2 .5-2.3-1-.1-1.4 1.2-1.9 2.1-2.4 5.3-2.5 8.5-6.2 8.5-12.4 0-1.9 1-3.7 1.7-5.5.8-1.9.5-2.9-1.7-2.9-.1-.1-.2-.2-.2-.3 0-.1-.1-.3 0-.4 4.2-7.5 8.6-14.9 12.8-22.4 1-1.8 2-1.8 2.5-.2 2.4 7.3 5 14.6 6.6 22.2v.5c-1.6 5.4-2.9 10.9-4.7 16.3-3.9 5.1-9 7.9-15.3 8.6z" style="fill:#e4f5f9"/><path d="M198.1 306c.8-.3 1.5-.8 2.4-1 4.9-1.2 8.9-3.9 12.4-7.4 1.2-1.4 3.1-1.7 4.6-2.7 1.5-.6 2.7-1.7 4.4-1.5 1.8.7 3.5.4 5.3.1 1.2-.2 2.3-.6 3.5-.2 2-.4 2.7.4 2.8 2.5.1 3.4.7 6.8 1 10.2 0 1.9 0 3.9-.1 5.8-.1 2.1-1 3.3-3.4 3.3-10.2.2-20.4.5-30.6.9-2 .1-2.7-.6-2.6-2.6.2-2.5.3-4.9.3-7.4z" style="fill:#3c3749"/><path d="M372.3 313.7h-38c-.8-.5-1-1.4-1.2-2.2-.7-3.1-1.5-6.1-2.2-9.1-.3-1.2-.7-2.4.3-3.5 2-.8 4.1-.9 6.2-.7 3 .3 5.9.3 8.8-.2 7.9-.1 15.8 0 23.7-.1.9 0 1.8 0 2.5.6.6.7.7 1.6.8 2.4.1 3.5.1 7 0 10.5-.1.8-.2 1.6-.9 2.3z" style="fill:#e8930b"/><path d="M330 313.7c-15.8 0-31.7 0-47.5.1-1.8 0-2.2-.8-2.2-2.4.1-2.7-.1-5.4-.1-8.2-.8-1.5-.8-3 .2-4.4 2.1-.7 4.2-1 6.4-1h25.7c1.2 0 2.5-.2 3.5.8 2 3.7 3 7.7 3.6 11.8.3 2.2-.3 2.7-2.7 2.7h-5.6c4.5.6 9.7-.8 14.9-.5 1.1.1 2.3-.1 3.4.4.4.1.5.4.4.7z" class="st47"/><path d="M196.3 281.7c1.2.2 2.1-.9 3.5-.4-.1 1.8-1 3.3-1.5 4.9-1.1 3.4-2 6.9-2.3 10.5-.1 1.4-.7 2.2-1.9 2.8-3 1.5-5.7 3.4-8.3 5.5-2.3 1.4-4 3.4-5.5 5.5-.8 1.2-1.8 1.7-3.3 1.7-3.3 0-6.7 0-10 .1-1.3 0-2.1-.3-2.6-1.6-.7-1.9-1.7-3.6-2.6-5.5v-.2c-.1-1.4 1.1-1.5 1.9-1.6 3.9-.6 6.4-2.9 8.3-6.1.8-1.3 1.5-2.8 3.1-3.5 3.3-3.8 5.7-8.3 9.5-11.7 1.5 1.2-.6 1.9-.4 3.1 2.9-.8 5.8-1.9 8.7-2.8 1.2-.3 2.2-.9 3.4-.7z" style="fill:#3b3647"/><path d="M485.9 313.7v-.3c-1.1-1.4-.6-3-.7-4.6-.2-3.5.6-7-.9-10.4.6-1.3 1.9-1.1 3-1.2 2.4-.1 4.7-.1 7.1 0 1.8.1 3.7-.5 5.3.7.1 3.5.1 7.1.2 10.6-.4 5.2-.4 5.2-5.7 5.1-2.9.1-5.6.1-8.3.1z" style="fill:#e16815"/><path d="M388.2 298.6v14.8l-2.1.1c-2.9.2-5.7.4-8.6-.1-.5-.6-.7-1.4-.7-2.2.2-4.2-.8-8.5.6-12.7 3.6-1.1 7.2-1.1 10.8.1z" style="fill:#e8950b"/><path d="M270.8 305.5c0-.6 0-1.2-.1-1.8-.3-2.1.3-4.2-.4-6.2-.1-.4-.1-.9-.1-1.3-.1-5 1.5-6.3 6.6-5.1 1.3 2.2.6 4.6.7 6.9-.1 1.8.5 3.7-.7 5.3 0 3.1-.1 6.1-.1 9.2.1 2.2-1.5 1.8-2.7 1.7-1.2 0-3 .8-3-1.7 0-2.3-.1-4.7-.2-7z" class="st51"/><path d="M330 313.7v-.2c0-.1 0-.1-.1-.2-1-.7-1.3-1.8-1.6-2.9-1-3.9-2.3-7.7-3.4-11.6-.2-.6-.4-1.3-.5-1.9-.1-.4 0-.8.3-1.1 1.7-.7 3-2.1 5-2 1.2 1.6 1.4 3.5 1.4 5.4 1.1 4.8 2.1 9.6 3.2 14.5-1.4.1-2.9.7-4.3 0z" style="fill:#cd4f21"/><path d="M377.6 298.8v14.5c0 .1-.1.2-.2.3-.1.1-.2.1-.3.1h-4.9v-15c1.9-1.3 3.7-1.4 5.4.1z" style="fill:#e16f15"/><path d="M276.8 303.3v-5.4c1.2-.8 2.4-.7 3.6 0 .4.4.4.8.2 1.3l-.4 4.1h-3.4z" class="st54"/><path d="m377.2 313.7.5-.4 8.4.1c-3 .7-6 .5-8.9.3z" class="st43"/><path d="M406.5 148.1c1.9 1.2 3.9.4 5.8.4.1.2 0 .3 0 .5-1.7 1.5-3.8.6-5.7.9-5.5.1-11.1-.1-16.6.2-3.6-.1-7.3-.6-10.9.5-1.4.4-2.9-.8-4.5-.8-4 .2-8 .1-12.1 0-9.4.2-18.8.2-28.2.1-.9 0-1.8 0-2.6-.5-.8-.8-.9-1.6-.1-2.5 2.3.4 4.7.4 7 .4 1.8 0 3-.7 3.8-2.2 2.2-3.8 4.6-7.4 6.8-11.2 1.5-2.5 3.4-3.8 6.4-3.5 2.2.2 4.4-.1 6.6.1 2.3.1 4.5-.2 6.4-1.6 1.5 1.3 1.3 3.2 1.5 4.9.2 2.2-.2 4.5.3 7.1 1.8-1.7 3.1-3.5 4.1-5.3 2.4-4.3 6-5.7 10.7-5.2 1.4.6 2.9.7 4.4 1.1 1.5.6 2.5 1.7 2.7 3.3.1 3.4 0 6.8.1 10.1 0 .9-.2 1.9.8 2.6 3.1.8 6.2.2 9.3.4 1.5 0 2.8-.4 4 .2z" class="st55"/><path d="M398.8 166.1c.8 4.3.3 8.7.3 13.1 0 2 .4 2.8 2.6 2.7 3.9-.1 7.9 0 11.8 0 .5.6.5 1.3.4 2-1.1 4.6-2.3 9.2-3.7 13.8-.2.6-.5 1.1-1.1 1.5-2 .8-4.1.4-6.2.4-4.4-.1-8.8.4-13.1-.3-.2-.1-.4-.1-.5-.2-1.7-4.8-6-7.3-8.9-11.1-1.6-2.1-2.7-4.3-2.4-7 .1-.7-.1-2.2 1.5-1.4.6 1.1 1.5 1.6 2.8 1.6 4.3-.1 8.5.4 12.8.1 2.1-.2 2.7-1 2.7-2.9v-8.9c.2-1.4 0-2.6 1-3.4z" style="fill:#f0bb30"/><path d="M389.7 149.6c2-1 4.1-.5 6.2-.5 3.6-.1 7.2 0 10.7 0 1.6.3 2.3 1.6 2.5 3 .6 3.9.4 7.8.2 11.8 0 .4-.3.8-.6 1.1h-9.9c-.7.6-1.6.8-2.5.8-6.8.1-13.7 0-20.5-.2-.4 0-.7-.1-1-.3-1.2-1-.5-1.8.4-2.2 5.9-2.9 10.3-7.3 13.4-13 .3-.4.6-.7 1.1-.5z" class="st57"/><path d="M374.4 164.4c.8.8 1.8.5 2.7.5h21.6v1.1c0 4.3-.2 8.6 0 12.9.1 2.2-.5 2.9-2.9 3-4.8.2-9.6-.4-14.3-.1-2 .1-2.8-.6-2.4-2.6 2.9-2.3 6.2-1.8 9.5-1.7 1.2.1 2.4.6 3.5-.2-.3-.9-1.2-.8-1.6-1.3-.4-3.8-2.1-6.7-5.6-8.5-2.8-1.4-5.7-.6-8.5-.8-1.2 0-2.3 0-3.5-.2-.8-.5-2.2-.2-2.3-1.6 1.3-.8 2.5-1.2 3.8-.5z" style="fill:#dd6718"/><path d="M409.3 198.7c1.4-5.2 2.7-10.4 4.1-15.6.1-.4.1-.9.2-1.3.1-.1.3-.2.4-.2l3.3.3c5.2 1.1 8.2 4.7 8.1 10 0 2.3.7 4.7-.7 6.9h-13.6c-.7.3-1.3.4-1.8-.1z" style="fill:#e7950a"/><path d="M408.8 165v-10.7c0-2-.5-3.8-2.1-5.1l5.7-.1c.5 4.9.2 9.7.2 14.6-.1 2.6-2.4 1.4-3.8 1.3z" style="fill:#e06d1a"/><path d="M145.9 96.6c2.8 2.7 2.9 3.4.7 6.4-3.4 4.6-6.9 9.1-10.2 13.7-.9 1.3-1.7 1.5-3 .7-2.5-1.5-5.1-3-7.7-4.5 3.5-4.9 7.2-9.7 10.8-14.5.5-.6 1.1-1.1 1.9-1.4 2.5-1.1 5-.8 7.5-.4z" style="fill:#e8a31a"/><path d="M138.4 96.9c-3.7 5-7.5 10-11.2 15-.4.5-.8.9-1.5.9-1.2-.8-2.9-.8-3.9-2.1-.1-4.6.7-9.2-.7-13.9l17.3.1z" style="fill:#fcfdfc"/><path d="M460 250c6.2-.3 12.3-.4 18.5 0 .3.3.7.6.8 1 .8 4.8 1.3 9.6-.2 14.4l-1 .5c-1.4.7-2.9 0-4.4.2-3.6.5-7.1.8-10.7.1-1.5-.3-2.3.4-2.2 2 .1 2.7.1 5.4 0 8.2-.1 2.2.1 4.1 2 5.6-.9 1.2-2.2.9-3.4.9h-15.9c-1.2 0-2.4.1-3.6.4-3.8.5-7.7.2-11.6.2-9.2 0-18.4.1-27.6 0-1.4 0-3.3.6-3.7-1.8.8-1 1.9-.8 2.9-.8h8.4c4 0 8.1-.1 12.1 0 2.3.1 3.9-.7 4.6-3 .3-1.1.9-2.1 1.4-3.1 1.3-2.4 1.4-4.7-.8-6.7-.6-.6-1.4-1.4-.9-2.3.5-.8 1.5-.8 2.4-.8 6.5-.1 13-.2 19.5 0 3.5.1 5.7-.9 7.5-4 2-3.5 4.5-7 5.9-11z" style="fill:#e7920b"/><path d="M439.9 282.7c.8-.8 1.8-.5 2.7-.5h17.3c.9 0 1.9.3 2.7-.5 1.4-1.3 3.1-.8 4.7-.8 2 0 4-.2 6 .2 3.1.5 6.3.2 9.4.2 10.3.1 20.7 0 31 0 .7 0 1.4-.3 2 .3-1.6 1.4-3.5.7-5.3.9-1.3.1-2.6-.1-3.9 0-2.6.1-5.3.1-7.9 0-2.1 0-3 .8-3 2.9.1 2.7.1 5.4 0 8.2 0 1.6-.1 3.2-1.3 4.4-3.3.3-6.7-.6-10 .6-.2.2-.4.4-.6.5-.3.1-.5.1-.8 0-6.7-1.4-11 3.1-15.8 6.3-2.8 1.9-3.8 5.2-5.5 7.9h-13.2c-.7-.9-.2-1.7.3-2.4 3.5-5.7 7.6-10.8 14.2-13.2 1.2-.4 1.8-1.1 1.8-2.5.2-3.2 1.3-6.2 1.9-9.3.4-1.9-.2-2.6-2.1-2.6h-16.1c-2.8 0-5.8 1-8.5-.6z" class="st55"/><path d="M494.3 298c.9-4.5.5-9.1.5-13.6 0-2.1.7-2.8 2.7-2.7 3 .1 6 .1 8.9.1 4 1.8 6.2 4.8 6 9.2-.1 2.3.7 4.7-.7 6.9l-12.2.1h-5.2z" style="fill:#e79209"/><path d="M473.3 281.1c-2.2 1.3-4.5.4-6.8.6-1.3.1-2.6 0-3.9.1-2 .2-2.7-.4-2.7-2.6.1-4.1.4-8.2-.2-12.3-.2-1.3.6-1.4 1.6-1.5 1.6-.2 3.1.4 4.7.5 2.6.3 5.2-.5 7.8-.5.3 2.5 1.2 5 .1 7.5-.8 2.6-.2 5.4-.6 8.2z" style="fill:#df6916"/><path d="M511.8 297.9c0-1.9-.2-3.9.1-5.8.5-4.1-1.3-7-4.5-9.4-.3-.3-.6-.7-.8-1 3.1-.1 6.2-.1 9.3-.2.5 5 .2 10 .2 15 0 1-.3 1.5-1.4 1.4-1 .1-2 0-2.9 0z" style="fill:#e16c1b"/><path d="M479.1 265.4c-.2-5.1.5-10.3-.5-15.4l5.3-.2c.9 4.8.2 9.7.3 14.6 0 1-.7 1.1-1.4 1.1-1.3-.1-2.5-.1-3.7-.1z" style="fill:#e36b18"/><path d="M473.8 272.8c-.2-2.5-.8-5-.1-7.5 1.4.1 2.9 0 4.3.5-.7 2.8-2.2 5-4.2 7z" style="fill:#62d2e3"/><path d="M146.7 281.6c-2.7.2-5.3.4-7.9-.3-1.2 0-1.6-1-2.1-1.7-3.2-4.3-6.3-8.7-9.4-13-.5-.8-1.2-1.5-.7-2.6 2-1.9 4.5-3 6.7-4.5 1.5-1 2.3.1 3 1.1 2.7 3.6 5.2 7.2 7.8 10.8.8 1.1 1.6 2.1 2.3 3.2 2.5 3.1 2.5 3.4.3 7z" style="fill:#e9a01a"/><path d="M126.6 263.9c.3 1.8 1.8 3 2.8 4.4 3.1 4.4 6.3 8.7 9.4 13-4.1.9-8.2.3-12.3.4-1.7 0-3.5.5-5.1-.4 1-5 .4-10 .4-15 1.4-1.4 3-2.1 4.8-2.4z" class="st54"/><path d="M155.1 276.6c0-.8.5-1.4.4-2.3-.8-4.6-.7-4.6.5-8.8 1.9 3 3.9 5.7 5.3 8.8.7 1.5.1 3-1.1 4-.9.7-2 1-1.4 2.6.2.4-.4.8-.8.8-1.6-.1-3.3.6-4.8-.5 1.1-1.3 2.1-2.7 1.9-4.6z" class="st0"/><path d="M429.9 216.5c-5.7.2-11.3.3-17-.1.8-6.3 5.8-10.6 13.3-11.8 11-1.7 21.1 1.1 30.7 6.1.6.3 1.7.6 1.1 1.7-.4.8-1.2 1.3-2.2 1.1-.5-.1-1-.3-1.5-.6-4.7-2.8-9.9-3.9-15.3-4.5-4.8-.6-8.7 1.8-9.5 5.6 0 .9.2 1.6.4 2.5z" style="fill:#ddeeeb"/><path d="m409.3 198.7 1.7.1c-.2 5.3-.4 10.6-.6 15.8-2.5 1.9-5.2 1.8-7.8.3-.8-1-.9-2.2-.9-3.5-.1-3.5.2-6.9-.2-10.4-.1-1.2.3-2 1.6-2.3h6.2z" style="fill:#e16f11"/><path d="M424.6 198.8c0-1.7-.2-3.4.1-5 .9-6.1-2.5-9.4-7.4-11.9 3.2 0 6.5 0 9.7-.2 1.6-.1 1.9.7 1.9 2 0 4.3.1 8.6.2 12.8-.4 2.9-.6 3-4.5 2.3z" style="fill:#e26b19"/><path d="M402.9 214.6c2.5.9 4.9.7 7.4 0 .4.8-1.3 1.1-.4 2-.7.3-1.6-.1-2.3.5-1.7 1.4-3.7.7-5.6.7-2.7-.8-5.4-.2-8.1-.4-2.1-1.1-4.3-.1-6.5-.6-.4-.5-.8-1 0-1.5 4.5-1.4 9.2-.7 13.8-1.3.7-.1 1.2.3 1.7.6z" style="fill:#cdaa57"/><path d="M460 250c.2 2-.5 3.8-1.5 5.5-1.7 2.7-3.4 5.3-5 8-1 1.7-2.3 2.4-4.3 2.3-8-.1-16 0-23.9 0-.4.6 0 .9.3 1.2 3.4 3.7 2.9 3.9 1.4 8.8-1.7 5.3-4.8 6.5-9.8 5.9-2.8-.4-5.6-.1-8.4-.1-.1-.1-.1-.2-.1-.4 0-.1.1-.2.2-.3 2.2-.4 2.7-1.8 2.3-3.9-.3-1.2-.4-2.4-.4-3.6-.5-4.5-1.8-9-.4-13.5.8-2.5 1.3-5.1 3.3-7 2.8-3.1 6.5-3.4 10.3-3.2 4.4.2 8.8 0 13.2.1 1.5 0 3.2-.5 4.5.9.5.5.5 0 .6-.1.8-.7 1.7-.9 2.6-1.1 1.5-.3 3.1-.2 4.6-.2 3.3-.2 3.4-.3 3.4-3.5v-7.9c0-1-.1-2.1.7-3 1.4 0 1 .8.7 1.5-.1 3.9-.1 7.9-.2 11.8-.1 1.6.6 2 2 1.9 1.3-.2 2.6-.1 3.9-.1z" style="fill:#f0bb2f"/><path d="M461.6 217.8c5.4 2.2 7.4 5.4 6.9 9.4-.3 2.1.4 4.3-.5 6.4l-2.9.3c-3.8.4-7.6.9-11.4.3-3.3.5-6.6.2-9.9.2-3.5.2-6.9-.2-10.4.4-1.1 0-2.3.1-2.7-1.1-.4-1.2.4-2 1.1-2.8 3.5-3.8 6.6-8 10.1-11.9.7-.8 1.3-1.5 2.3-1.5 5.8.1 11.6-.3 17.4.3z" class="st75"/><path d="M453.8 233.6c3.8 0 7.6-.3 11.3.3-3.5 1.3-7.1 2.1-10.9 2.3l-.4-1.6c-.4-.3-.5-.6 0-1z" style="fill:#e4f7f1"/><path d="M369.1 129c-1.3 2-3.2 2.3-5.4 2.2-3-.2-6 .1-9-.1-1.8-.1-2.9.5-3.9 2-2.5 4.3-5.3 8.5-7.8 12.8-.9 1.5-1.8 2.2-3.6 2.1-1.7-.1-3.5 0-5.3 0-.8 0-1.9.2-2-1.1-1-1.1-.4-2.4-.2-3.5 1.2-7.1 2.6-14.2 3.9-21.3.2-.8.7-1.5 1.6-1.6 2.2-.2 2.7-1.6 2.6-3.5 0-.8.1-1.6.7-2.2 19.7 0 39.4-.1 59.1-.1 3.2 0 6.3.1 9.5.1v.3c-.8.9-1.9.9-2.9.9-4.8 0-9.6.1-14.4-.1-3.1-.1-6.1 0-9.2-.1-2.1-.1-3.4.6-4.3 2.6-1.5 3.4-3.8 6.2-6.5 8.8-.8 1-1.7 1.7-2.9 1.8z" class="st43"/><path d="M340.6 114.9c0 .7-.1 1.4-.1 2.1.1 2.4.2 4.7-3.3 4.2-.7-.1-.8.5-.9 1-.1 1.9-1.1 2.3-2.7 1.4-1.5-.8-3-1.6-4.8-1.7-3.9-.1-7.9 0-11.8 0-2.1 0-2.9.9-3 3-.1 3.6.5 7.2-.4 10.7-1.8.7-1.5-.9-1.6-1.6-.4-4-.8-8-1.1-12-.3-3.2-.8-6.4-1.3-9.6-.7-4.5-3.2-7.7-7.2-9.7-.7-.4-1.4-.7-1.8-1.4l-.3-.7c1.8-.6 3.7-.2 5.5-.2h30c3.9 0 4.5.7 4.6 4.6 0 3.3.1 6.6.2 9.9z" class="st51"/><path d="M345.9 42.4c-.1.5-.3 1.1-1 .9-.8-.2-.6-1-.6-1.6-.3-5.7 1-11 3.7-16.1 3.9-7.2 9-13 15.9-17.5 6.8-4.4 14-6.6 22.1-6 10.6 1.9 14.1 9.2 14.2 16.8 0 1.8-.4 3.6-.5 5.5-.9.1-1.7-.1-2.1-1.1-1.1-1.2-.7-2.7-.7-4 .4-9.5-7.5-15.4-17-14.4-16.7 1.7-30.8 16.6-33.2 30.8-.2 2.2.6 4.6-.8 6.7z" style="fill:#fce158"/><path d="M345.9 42.4c-1.6-17.6 14.6-34.6 31.3-37.9 5-1 9.9-.6 14.4 2.3 4 2.7 6 6.5 6.1 11.3v5.3c-1.2 4.5-2.6 8.9-5.1 12.8-6.5 10-15.2 17.1-27.1 19.2-6 1.1-11.7.1-16.1-5-2.1-2.3-2.5-5.3-3.5-8z" style="fill:#e6920a"/><path d="m391.4 115.3 17.9-.1 6.9.1c1.1 5.2.3 10.4.6 15.6l-10 .2c-.7.6-1.6.8-2.5.8-4.8-.1-9.7.3-14.5-.3-1.5 0-3 .3-4.2-1 .7-.9 1.8-1.1 2.7-1.6 3.7-2 4.5-3.7 4.1-7.9-.3-1.9-1.8-3.7-1-5.8z" style="fill:#e7930b"/><path d="M389.7 131.7c.9-.9 2-.5 3-.5h14c0 5.6-.1 11.3-.1 16.9-3.5 1-7.2.3-10.7.5-1.1.1-2.3 0-3.4 0-.6-3.6-.1-7.3-.3-10.9-.1-1.1.3-2.3-.2-3.3-.1-1.5-1.5-1.9-2.3-2.7z" style="fill:#df6716"/><path d="M414.6 218.2c1.5-.1 2.3.4 2.1 2.1-.1 1.7.3 3.5.4 5.2.1 2.1 1 2.6 2.8 2.2 1.7-.4 1.5.8 1.3 1.6-.7 2.1-1.8 4-4 4.8-3.9.5-7.9.1-11.8.1h-37.1c-1.3 0-2.6.2-3.8-.6-.3-.3-.6-.7-.6-1.1 0-4.6-.7-9.2.4-13.8 1.1-1.1 2.5-1.2 3.9-1.2 8.6 0 17.2-.1 25.8 0 6.6 0 13.2.3 19.8.3.2.1.5.2.8.4z" class="st43"/><path d="M364.4 233.6h53.3c2.1 1.2 4.6 1.7 6.3 3.6.7.7 1.7.9 2.6.1.8-.7 1.8-1.2 1-2.5-.5-.9.2-1.4.7-2 3.5-3.9 6.9-8 10.2-12 1.1-1.4 2.5-2.5 3.9-3.5h14.3c1.6.2 3.3-.5 4.8.5-4.2 0-8.4.4-12.6-.1-4-.4-6.5 1.2-8.7 4.2-2.5 3.4-5.3 6.7-8.2 9.8-.5.5-1.4 1-.9 2 .4.8 1.2.4 1.9.5-1.3 1.8-.7 3 .8 4.5 3.2 3.1 6.5 6 9.7 9.1.6.6 1.8 1 1.1 2.3-1.1.8-3.1.6-3.3 2.9.4-2.3-.8-2.5-2.4-2.4-6 .1-12 .1-17.9 0-2.3 0-4.3.2-5.8 2.2-.2.3-.6 1-1.2.4-.1-1.1-.9-1.3-1.9-1.3-10.5.1-21 0-31.6 0-2.1 0-2.8.9-2.7 2.9.1 2.5 0 4.9 0 7.4 0 1.1.1 2.3-.7 3.3-1.2.8-2.4.8-3.7.3-2.1-3.6-2.4-7.6-1.6-11.6.5-2.1-.1-2.8-2.2-2.8-2 0-2-.1-2.5-1.5 3.3-1.2 6.8-.6 10.2-.4 9.8.6 19.5.3 29.3.1 2.9-.1 3-.4 2-3.1-1.1-3-2.3-5.9-2.3-9.2 0-1.7-1-2.2-2.5-2.3h-35.1c-1.2 0-2.5.1-3.7-.3-.3-.1-.6-.3-.7-.6l.1-.5z" class="st81"/><path d="M394 218.2c-7.7 0-15.4.1-23.1.1-2.2 0-4.4 0-6.5.5-.6 4.8 0 9.7-.3 14.6-1.9 1.7-4.2.9-6.2.8-2-.1-4-.2-6 .1-4.6.6-8.7-.3-12-3.8-.9-1.2.1-2 .8-2.7 1.4-1.6 2.6-3.3 3.7-5.1.9-1.4 1.5-3 1.3-4.7-.1-.8-.2-1.6.7-2.1 3.2-.8 6.4-.2 9.6-.4 1.7-.1 3.3.1 4.7-.1-2.4-.1-5 .5-7.6-.4-1.1-1.2-.4-2.4.4-3.3 3.8-4.4 8.5-7.1 14.3-7.5 2.8-.2 2.1 2.2 2.3 3.8-.2 1.9-.9 3.6-1.5 5.3-1 2.6-1 2.7 2 2.7h13.7c1.2 0 2.5 0 3.6.7 2-.6 4-.9 5.9.2 2.8.6 5.6-.2 8.4.4h13.7c.1.8-.9.5-1 1.1h-.9c-6.6-.5-13.3-.5-20-.2z" class="st82"/><path d="M442.6 217.3c-4.7 5.4-9.3 10.8-14 16.2-.3.3-.7.5-.5 1.1.3.7 2.3 1.1.4 2.3-1.5 1-2.8 3-4.9 1-1.3-1.2-2.5-2.2-4.3-2.5-.6-.1-1.1-1.1-1.6-1.7.9-1.5 2.3-2.6 2.8-4.4.2-.8.4-1.4-.7-1.5 2.4-6 8.4-10 14.9-10 2.7-.1 5.3.3 7.9-.5z" class="st75"/><path d="M217.6 281c-.6-3.7-2.1-7.2-3.1-10.9-1.2-4.1-2.5-8.2-3.8-12.8-2.5 4.3-4.6 8.2-6.9 12-2.4 4.1-4.4 8.4-7.5 12-3.4.8-6.5.3-9.1-2.2 5.1-14.1 9.5-28.4 14.1-42.7 1.1-3.3 1.1-6.4.1-9.8-1.4-4.5-2.8-9-3-13.8-.2-3.8 1.2-6.8 4.1-9.2.7-.6 1.5-1.3 2.3-1.8 3.9-2.2 7-4.8 8-9.6.7-3.1 3.6-4.5 6.5-5.6 3.2-1.2 6.5-1.3 9.7-2.1 1.7-1.1 3.7-.8 5.6-1.5 5.3.9 10.6.3 15.9-.3 3.7.1 7.5-.2 11.2 0 2.4 0 4.7-.2 7.1.1 5.5 1.1 11.1 1.9 16.6 3.3 1.7.5 3.4 1 5 1.5 6.9 2.1 11 6.7 12.6 13.6.2 2.3-.9 4.3-1.6 6.4-2.6 3.6-6 5.9-10.3 6.8-7.4.6-14.8.5-22.1.1-1.5-.1-3-.3-4.5-.3-3.8-.7-7.6-.4-11.4-1.1-1.2-.2-2.2.2-3.2.9-6.1 3.7-12.5 6.9-18.5 10.6-.9.6-1.9 1-2.3 2.1-.6 1.7 0 3.3.3 4.9.6 3.5.2 7.2 1 10.7-.2 5.8 1.1 11.6 0 17.4.3 9.2.6 18.5 1 27.7 0 .9.3 1.9-.2 2.8-2.9 1-5.8 2.2-8.8 2.7-1.8-.7-1.9-2.5-2.6-4-.7-2.5-1.9-5.1-2.2-7.9z" style="fill:#2e4a70"/><path d="M272.5 95.1c.5 1.9 2.1 3.7.6 5.8.1.9-.2 1.7-.7 2.5-5.2 9.2-6.9 19.5-8.7 29.7-1 5.4-1 10.8-1 16.3-.1 6.8-.9 13.6 0 20.4.2 1.1.2 2.3.4 3.4.1 1-.6 1.4-1.3 1.7-1.8.6-3.5 1.6-5.4 2-2.8.4-5.6 1.2-8.3-.1-1.2-1.8-.4-3.8-.9-5.7.3-12.5.1-25.1.1-37.6 0-7.8.2-15.6 1.5-23.3 1.6-5.1 5.8-7.6 10.2-9.5 4.5-2.2 9-3.8 13.5-5.6z" style="fill:#20a5de"/><path d="M248.8 110c.8 4-.4 8-.4 11.9 0 1.1-.2 2.3-.2 3.4v42.5c0 1.1.2 2.3-.5 3.3.4 1-.4 1.6-.9 2.2-2 2.3-3.8 4.9-6.4 6.5-1.4 0-1.8-1.2-2.6-2-.9-.9-1.7-2.3-3.2-1.2-1.4 1-2 4-1.1 5.1.4.5 1.1.9 1.2 1.6-1.7 1-3.6 1-5.5.9.8-1.7 1-3.1.1-5.1-1.5-3.5 0-6.9 1.9-9.9 1.3-2.1 2.7-4.1 4.3-6 5-6.3 6.1-13.8 7-21.5 1.1-9.2 1.8-18.6 4.7-27.5.4-1.3 1.1-2.7 1.6-4.2z" style="fill:#1582c6"/><path d="M190.6 183.5c-.7-1.4-.5-2.8-.5-4.2 0-2.8 1.2-4.4 3.2-4.2 2.1.2 3.8 2.7 3.5 5-.2 1.8-.9 3.4-.5 5.4.7 3.6 3.5 4.7 6 6.4.9.7 2.9.7 2.5 2.2-.5 1.9-.6 4.4-2.7 5.1-2.9 1-4 4.5-7.1 5.2-.9.2-1.2 1.8-1 2.8.5 2.5-.3 4.8-.9 7.2-.5 1.9-2.2 2.3-3.7 1.1-.5-.4-.8-.8-.4-1.5 2.4-4.7 3.2-9.7 1.6-14.8-1.6-4.9-2.6-9.8-.1-14.7 0-.3 0-.7.1-1z" class="st0"/><path d="M226 79.8c.3.3.7.5.9.9 3.5 5.9 8.6 7.8 15.2 6.9 4.5-.6 9.1-.6 13.7-1 1.5-.1 1.9.4 2 1.9.2 5.7.3 5.7-5.3 6.3-4.3.5-8.5 1-12.8 1.5-5.6.6-9.8 3.2-12.1 8.4-1.3-.3-1.1-1.3-.9-2.1 1.2-7 .7-13.9-.9-20.8-.2-.7-.3-1.4.2-2z" style="fill:#e58f0d"/><path d="M174.4 245.6c.2-3.3-.4-6.2.3-9.3 1.2-5.9 4.1-11 7.8-15.6 1.4-1.7 4.4-1.4 5.9-3.3.2-.3 1 0 1 .5-.1 1.6 1.6 2.7 1.5 4.1-.1 3.3.5 6.3-1.5 9.8-3 5.2-7.1 8.7-11.9 11.8-.9.5-1.5 1.8-3.1 2zm.9 48.2c-1.7 2.5-3.5 5-5.2 7.5-.9 1.3-2.3 1.5-3.6 2-1.5.6-3.3.5-4.6 1.7-1.1-1.7-.6-3.5-.6-5.3-.1-3.2.1-6.4.2-9.6 1.1-.1 1.6-.9 1.5-1.8-.2-1.5.7-2.9.7-4.4s1.1-2 2.2-2.2c1.1-.2 1.7.7 2 1.7.2.8.2 1.8 1.3 1.6 1.1-.3 2.4-.6 2.5-2.2.2-2.3.8-4.4 3.9-3.9 2.2.4 3.1 2.2 1.8 4-.5.7-1.2 1.3-1.8 1.9-1.5 1.4-3.1 2.5-.7 4.8.7.8.3 2.8.4 4.2z" class="st0"/><path d="M224.3 105.7c-2.6 1-3.8.1-4.3-2.6-1.3-6.8-1.7-13.5-.8-20.4.4-2.6 1.3-4 4.2-3.3.8.5 1.1 1.3 1.2 2.2.8 7.3.7 14.7.6 22 0 .8-.2 1.6-.9 2.1z" style="fill:#eb8d0b"/><path d="M151.9 244.1c3.4-.6 5.2-3.4 6.7-5.9 3.7-6 7.7-11.9 10.2-18.6.9-2.3 1.8-4.7 2.5-7.1.2-.6.1-1.6 1.2-1.4.9.2.7 1.2.6 1.8-.8 2.7-.8 5.6-2.5 8.1-2 3.1-3.2 6.8-4.8 10.2-1.8 3.6-4.6 6.3-6.7 9.7-3.1 5-7.7 8.8-12.1 12.7-.3.2-.5.5-.8.7-.9.5-2 .9-2.5-.2-.6-1.1.2-1.7 1.3-2.1 3.9-1.3 5.5-4.6 6.9-7.9.1-.1 0 0 0 0z" class="st0"/><path d="M224.3 105.7c.1-8 .2-16-.5-24.1-.1-.8-.1-1.6-.5-2.3.9.1 1.8-.4 2.6.4 2.1 7.8 2.9 15.7 1.2 23.7-.1.4 0 .9.4 1.2-.6 2-2 1.1-3.2 1.1z" style="fill:#f9e360"/><path d="M187.2 279.1c2.9 1.3 5.9 1.9 9.1 2.2 0 .1.1.1.1.2v.2l-13.5 4.8c0-2 2.3-2.6 1.9-4.4l2.4-3z" style="fill:#f3988c"/><path d="M162.6 256.8c.3-2.2 1.1-4.3 3.5-5.4.4-.2.8-.8 1.4-.4.5.4.5 1.1.3 1.7-.8 2.2-2.7 3.8-3.8 5.9-.2.3-.6.4-.9.1-.7-.4-.4-1.1-.5-1.9zm-10 6c.9.3 1.9.6 2 1.8.1 1-.2 2.1-1.4 2.2-1.3.2-1.6-.9-1.7-1.9-.1-.9-.1-1.8 1.1-2.1z" class="st0"/><path d="m256.5 176.1 6.4-2.6c2.3-1.9 5-2.9 7.9-3.3 5.3-1.5 10-4.2 14.8-6.7 2.1-1.1 4.1-2.4 6.2-3.5 1.4-.7 1.9-1.7 1.7-3.1-.5-3.3-1.1-6.5-1.1-9.9 0-1.4-1.1-2.1-2.2-2.7-2.2-1.3-4.3-2.5-6.8-4 1.6-.8 2.9-1.3 4.1-1.9 3.9-2 4.5-3.4 3.8-7.8-1-6.6-.6-13.1.9-19.5 1.1-4.5 4.3-7.5 8.1-9.9 6.3 1.8 9.1 6.3 10.1 12.4 1.2 7.4 1.5 14.8 2.4 22.2 1.1.7.9 1.8 1 2.8.2 8.9-.9 17.6-3.1 26.2-.1.3-.1.6-.2.8-.5 1.2-1.2 2.4-1.8 3.6-1.5 1.6-2.9 3.3-4.3 4.9-1.6.4-3.1 1.2-4.7 1.8-9.6 4-19.5 5.8-29.9 5.5-.6 0-1.2 0-1.8.1-2.1.5-4.4.1-6.2 1.6h-11.7c.6-1.6 2.2-1.6 3.4-1.9 2.1-.6 3.3-1.5 2.6-3.8 0-.3 0-.8.4-1.3z" style="fill:#1783c8"/><path d="M262 149.2c-.3-17 2.5-33.3 11-48.3l1.5-.4c-1.2 12.2-1.2 24.5-1.1 36.8 0 5.7-.9 11.2-3.2 16.4-.3.6-.5 1.3-.9 1.9-1.5 1.8-3.1 1.9-4.6.1-1.5-1.9-2.3-4.1-2.7-6.5z" style="fill:#e29416"/><path d="M262 149.2c.9 1.8 1.6 3.6 2.6 5.3 1.5 2.5 2.4 2.5 4.3.4.4-.5.9-.8 1.3-1.2l.7 16.6c-2.5 1.5-5.3 2.2-7.9 3.3-1.4-.3-.9-1.5-1-2.3-.7-7.4-.5-14.8 0-22.1z" style="fill:#fbfdfd"/><path d="M145.7 188.9c.2 18.2-6.7 33.4-19.8 45.6-8.9 8.4-19.6 13.7-31.9 15.5-15.7 2.3-30.3-.7-43.1-10.3-9.3-7-16.6-15.7-20.8-26.9-3.5-9.6-4.9-19.4-4.3-29.4.8-12.2 5.3-23.2 12.7-32.9 9.9-13.2 23.3-20.7 39.5-22.9 17.3-2.3 32.8 2.6 46.1 13.9 12.3 10.5 19.2 23.9 21.5 39.8.4 2.4.1 5 .1 7.6z" class="st8"/><path d="M230.4 259.8c-.5-5.9-.8-11.7-.8-17.6.3-4.3 1.8-8.3 2.9-12.4.7-2.6.8-2.6-2-2.9-.8-.1-1.6 0-2-.9 2.6-2.4 5.9-3.7 8.9-5.5 3.8-2.3 7.8-4.3 11.7-6.4 1.4-.8 3-.8 4.6-.7 3.4.2 6.8.3 10.2.2 8 .5 15.9.6 23.9.4 1.2 0 2.4-.2 3.7-.3 3.2-.3 6.4-.4 9.5-.8 1.7-.3 3.4-.3 5.1 0 3.9.6 7.9.3 11.8.2 1.7 0 3.4.3 5-.1 2.3.1 5-.8 6.5 1.9.1.4.1.9.1 1.3.1 2 0 4 0 6 0 2.1-1 3.3-3 3.6-3.5.6-7 .5-10.5.4-3.4-.1-3.5.1-2.7 3.4.3 1.1.6 2.2.8 3.3.1.7.3 1.4.5 2.1 2.7 9.9 5.4 19.8 7.9 29.7.1.6.3 1.1.4 1.6 1.4 4.9 2.7 9.8 4.1 14.7 1 3.5 1.7 7.1 2.5 10.7.2.7.2 1.4-.4 1.9-1.5.9-2.8 2.1-4.7 2.1-1.3 0-1.3-1.1-1.5-1.8-2.6-9.1-5.5-18.1-7.7-27.3 0-.6-.2-1.1-.4-1.6-1.7-5.4-3.2-10.8-4.8-16.1-1.2-4.4-2.5-8.8-3.8-13.2-.9-2.9-1.4-5.9-2.7-8.7-.9-.8-2-.6-3-.7h-20.2c-2.9 0-3.1.2-3.2 3.2 0 1.3 0 2.6-.3 3.9-.5 5.3-.6 10.7 0 16 .5 5.2.2 10.4.2 15.7.1 5.2.1 10.4 0 15.6v1.5c.1 2.1.1 4.2 0 6.2 0 .9 0 1.9-.9 2.6-1.8.6-4.3-.3-5.3 1.1-.9 1.2-.4 3.5-.5 5.3-1.5-.5-1.2-1.8-1.2-2.8-.1-3-.1-6 0-8.9 0-2-.7-2.8-2.8-2.8-1.9 0-4.1.6-5.8-.9 0-.5.1-.9.7-.9.7-.1 1.4 0 2.1-.1 6.8 0 6.8 0 6.4-6.8-.2-3-.3-6-.4-8.9-.2-.4-.5-.7-.6-1.2-.2-5-.6-9.9 0-14.9l-.1-15.4c-.8-1.6-1-3.4-1.1-5.1-.1-1.6-.8-2.2-2.4-2.4-8-1.1-16.1-.3-24.1-.5-1 .5-1 1.6-1.2 2.5-3 9.9-6.1 19.8-9.1 29.7.3.7 0 1.3-.3 1.8z" style="fill:#e16d2c"/><path d="M269.3 249.4c1 5.3.5 10.7.5 16.1-2.8 0-5.6-.1-8.4 0-1.5 0-2-.5-2-2 .1-4 .1-8.1 0-12.1 0-1.5.6-2 2-1.9 2.6-.1 5.2-.1 7.9-.1z" style="fill:#fede51"/><path d="M261 282.1c2.5 0 4.9.1 7.4 0 1.7-.1 2.1.6 2.1 2.1-.1 3.6 0 7.2 0 10.8 0 .9-.2 1.8.4 2.5 0 2-.1 4-.1 6-.1-.1-.1-.1-.1-.2-.4-1.8.9-4.2-.7-5.2-1.4-.8-3.6-.3-5.4-.3-3.5 0-3.5 0-3.5-3.4-.2-4-.2-8.1-.1-12.3z" style="fill:#fedd4d"/><path d="M241.5 226c7.2-.7 14.5-.2 21.7-.3 5.3 0 5.3.1 5.9 5.1.1 1 0 2.1 0 3.1-.5-.1-1-.3-1.5-.3-4-.2-4.2-.2-4-4.3.1-2.7-.6-3.4-3.3-3.4-6.2.3-12.5.1-18.8.1z" style="fill:#fdde4c"/><path d="M222.3 292.8c2.8-1.2 5.7-2.4 8.9-2.4-1.4.8-.8 1.9-.4 2.9-2.2.9-4.6.9-6.9 1.5-.9.3-1.4-.4-1.9-1.1-.5-.5 0-.7.3-.9z" style="fill:#eb9793"/><path d="M411.4 273.7c.2 1.3.4 2.6.5 3.8.4 3.3.2 3.6-3.1 3.6-2.9.6-5.8.1-8.8.3-.9.1-1.9-.2-2.8.2 0 1.7 1.3 1.1 2.1 1.1h40.5l8.9.1c.5 1.1-.2 1.9-.6 2.6-2.3 3.6-4.7 7.1-7.1 10.7-.5.8-1 1.7-2.2 1.4h-41.7c-1.4-.6-1.3-2-1.4-3.2-.1-3.2-.1-6.3 0-9.5 0-2.2-.9-3-3-2.9-2.5.1-4.9.1-7.4.1-5.9-.3-11.9.1-17.8-.1-1.4 0-2.8.2-4.1-.5-.7-.6-.8-1.4-.6-2.3.9-1.6 2.1-3 3.5-4.2 1.3-1.1 2.9-2.1 4.5-1.8 5.3.9 10.5-.5 15.7-.2 2.5.1 4.9.5 7.3.6 4.9.2 9.8.6 14.4-1.6 2.4-.9 2.5.7 3.2 1.8z" class="st98"/><path d="M438.9 297.5c3.9-4.5 7-9.6 10-14.8 5.6 0 11.2 0 16.9-.1 1.7 0 2.4.2 1.8 2.2-.8 2.8-1.3 5.8-1.9 8.7-.1.3-.4.7-.3 1 1.2 3-.9 3.4-3 4.1-5.5 1.8-8.8 6.2-11.9 10.6-.8 1.2-1.9 2.3-2 3.9h-13.1c1.3-.3 1.7-1.4 2.2-2.4 1-2 2-3.9 2.9-5.9 1.3-2.6 2.9-5 5.9-6.4H428c3.5-.9 7.3.4 10.9-.9z" style="fill:#f0bc30"/><path d="M461.6 313.3c.5-3.9 2.8-6.9 5.8-9.1 3.9-2.8 7.7-6 12.8-6.2 1.4-.1 2.8.3 4.2.5 1.4.1 1.6 1.1 1.6 2.2 0 4.2 0 8.4-.1 12.5l-24.3.1z" style="fill:#e7920a"/><path d="M385.6 281.7c3.2-.9 6.5-.3 9.7-.3 1.4 0 1.4 1 1.4 2v11.3c0 1-.2 1.9.4 2.8-2.6 1.2-5.3.3-8 .6-1.5.1-3.1.8-4.5-.5.1-5.1-.3-10.2.3-15.2.2-.3.4-.6.7-.7z" style="fill:#63d2e5"/><path d="M385 297.5c1.3 1.1 2.9.2 4.2.6l-1 .5-10.5.2-5.3-.1-26.4-.2c.7-2 2.4-1.7 3.9-1.7 5.4-.1 10.8 0 16.2 0 1.2 0 2.4 0 3.6-.4 3.6-.4 7.2-.3 10.8-.1 1.5.4 3.1.1 4.5 1.2z" style="fill:#8fa492"/><path d="M217.6 281c1.4 2.5 2 5.2 2.6 7.9-.1 2.5-.8 4.7-2.6 6.5-1.5 1-3 1.8-4.7 2.2 1.3-5.6 2.8-11.2 4.7-16.6z" style="fill:#ca5028"/><path d="m217.6 295.4 2.6-6.5c.9 1.2.7 2.9 2.1 3.9-.1.3-.3.6-.4.9l-4.3 1.7z" style="fill:#dee9f0"/><path d="M369.7 297.1c-6 .7-12 .2-18 .4-2 .1-4-.2-5.8 1-.9.6-2 .6-3.1.6-3.9 0-7.8-.5-11.7.1-1.2-1.6-.9-3.6-1.6-5.3-.2-3.2-1.5-6.1-2.2-9.1-1.3-5.4-2.9-10.8-4.3-16.2-.2-.7-.2-1.4-.3-2.1.4-.6 1.1-.8 1.8-.8 3.2.1 6.4-.5 9.5.4.8 1.5-.7 1.5-1.4 1.8-2.9 1.5-2.9 1.4-2.2 4.7.1.4.2.9.3 1.3 1.2 5.5 1.2 5.5 6.9 5.5 6.9-.1 13.7 1.1 20.5 1.1 3.8 0 3.8-.1 3.8-3.8 0-2.8-.1-5.6.1-8.4.1-.8-.4-2.4 1.5-2 .9 4.3 1.2 8.6-.2 12.9v2.1c2.4 6.1-.6 12.2-6.8 13.6-1.8.4-3.5 1.1-5.3 1.5 5.1-.2 10.2-.1 15.4-.1 1.1-.1 2.3-.3 3.1.8z" class="st29"/><path d="M325.4 298.6c1.9 4.8 3.1 9.8 4.5 14.8h-19.7v-.5h5.7c3.4 0 3.4-.1 2.8-3.4-.6-3.6-2-6.9-2.9-10.4 3.1-2.2 6.3-1.5 9.6-.5z" style="fill:#efbc2f"/><path d="M325.4 298.6c-3.2.2-6.4-.4-9.6.5-.8-.8-1.8-.5-2.7-.5-8.6 0-17.2-.1-25.7 0-2.3 0-4.5.3-6.8.5l-.1-1.1c.7-.8 1.7-.8 2.7-.8 7.7.2 15.3-1 23-.5 5.6-.2 11.2.2 16.8-.2.6-.1 1.2.1 1.7.5.6.4.6 1 .7 1.6z" style="fill:#cdb051"/><path d="M306.2 297.5c-8.6-.2-17.1.9-25.7.6l-3.7-.1c-.1-2.2-.1-4.4-.2-6.7.1-3 .1-6 .2-9 .7-.8 1.7-.8 2.7-.8H305c.9 0 2.1-.2 2.7.7.7 1.1-.4 1.9-.9 2.8-.9 1.5-1.9 3-2.3 4.7-.5 2.1-.6 4 1.1 5.6.5.6 1 1.3.6 2.2z" class="st47"/><path d="M306.3 297.5c-.1-.2-.1-.3-.2-.5-3.5-4.7-3.6-7-.1-12 .5-.8 1.1-1.6 1.8-2.7h-30.9v-1.1c2.2-1.5 4.7-.6 7.1-.8h21.8c3.2 0 3.5-.3 2.4-3.3-1-2.7-1.9-5.5-3-8.1-.4-.9-1-1.9 0-2.9 3.8-.5 7.6-1 11.3.3 2.7 9.9 5.3 19.8 8.5 29.6v1c-6.4 1-12.6.3-18.7.5z" class="st107"/><path d="M374.4 164.4c-1.2.3-2.4.6-3.7.5-.6.6-1.4.7-2.2.7-5.5 0-11 .2-16.4-.1-2-.7-1-1.9-.4-2.9 3-5 6.5-9.7 11-13.6 4.5 0 8.9-.1 13.4 0 1.7 0 3.2.7 5.1.1 1.8-.6 4-.2 6-.1.8 0 1.8-.3 2.5.5-3.4 6.8-8.6 11.6-15.3 14.9z" style="fill:#f0bd2f"/><path d="M362.8 149.1c-1 2.8-3.6 4.2-5.3 6.4-2.2 3-4.4 6.1-6.4 9.3-.5.7-1.3.8-2.1.8-5.6.1-11.2-.2-16.8.5-.9.1-1.8.1-2.6-.4-.9-.7-1-1.7-.8-2.6.5-4.2 1.1-8.3 2-12.5.1-.6.3-1.2.9-1.5h31.1z" class="st7"/><path d="M331.8 149.2c-.7 4.4-1.4 8.7-2.1 13.1-.2 1-.1 2.1-.1 3.1.2.2.3.5.3.8-.3 4.7-1.2 9.3-1.6 14 .6 1.8 2.7.4 3.4 1.7-.9 1.9-2.8.8-4.1 1.4-.3 0-.6.1-.9 0-1.8-.3-3.8-.2-5.4-1.5-.3-.4-.4-.8-.4-1.3.3-3.8.8-7.5 1.4-11.2.3-1.9-.4-2.6-2.2-2.5-2.4.1-4.7.1-7.1 0-1.1 0-2.3.2-3.1-.9v-.3l.1-.1c.9-.9 2.1-.8 3.2-.8 2.3 0 4.6-.1 6.9 0 2.2.1 3.2-.9 3.4-3.1.3-4.4.8-8.8 1.5-13.1.8-4.8 1.5-9.7 2.2-14.6.5-3.4.9-6.8 1.4-10.2.1-.9.3-1.9 1-2.7 1.4.6 3 1.1 4.3 1.9s2 .5 2.5-.8c-.3 4.6-1.5 9.1-2.3 13.7-.6 3.7-1.3 7.4-1.9 11.1-.8.7-.5 1.5-.4 2.3z" class="st109"/><path d="M391.4 115.3c.9 2.4 1.5 4.8 1.8 7.3.5 3.6-2.7 7-7.7 8-.7.2-1.4.6-2 .4-4.7-1.1-6.4 2.6-8.6 5.4-1.2 1.5-2.2 3.1-3.4 4.7-.3.4-.5 1.1-1.2.8-.5-.2-.7-.8-.7-1.3 0-2.1-.2-4.2 0-6.3.2-1.9-1.2-3.5-.6-5.3 4-3.2 7.2-7.1 9.3-11.8.7-1.5 1.6-2 3.2-2 3.4.2 6.6.1 9.9.1z" class="st29"/><path d="M391.9 134.3c1.1 2 .4 4.1.5 6.1.1 2.7 0 5.4 0 8.1-1-1.6-.4-3.4-.5-5.1-.1-3 0-6 0-9.1z" class="st57"/><path d="M387.6 216.6c-6.6 0-13.1 0-19.7.1-1.9 0-2.1-.6-1.1-2.1 1.3-2.1 2-4.4 2.4-6.9.5-2.5.4-5 .7-7.6.3-2-.9-3.5-2.3-4.9-1.8-1.8-3.3-3.9-4.3-6.3-1.1-2.9-1-5.7 1.2-8.1 4-3.6 9-4.6 14-5.6 3.4-.1 6.7-1.1 10.1-.2.8.2 1.5.2 2.2.7.9.6 3-.4 2.8 1.4-.2 1.8-2 1.4-3.2 1.2-3.8-.6-7.5-.4-11.1.8-1.3 1.8-.7 3.7 0 5.4 1.1 2.5 2.8 4.6 5 6.3 2.4 2 5 4 4.9 7.7.2 1.4-.7 2.3-1.4 3.2-.5.6-1.1 1.1-1.6 1.7-3.6 3.9-3.6 5.9-.2 10 .5.6 1.2 1.1 1.3 1.9l.3 1.3z" style="fill:#fee49f"/><path d="M387.1 215.6c-.3-.2-.6-.4-.8-.6-4.8-4.6-4.9-7.4-.3-12.1 1.2-1.3 2.3-2.6 3.1-4.1l13.9.1c-.3.4-1 .9-.9 1.2.9 4.5 0 9.1.5 13.6 0 .3.3.7.4 1l-15.9.9z" class="st21"/><path d="M378.2 176c-2.7 1-5.6 1.2-8.3 2.5-1.8.8-3.5 1.6-4.9 2.9-2.7 1.9-5.6 1.4-8.6 1.1-5-1.6-10.1-.5-15.1-.9-1.7-.1-3.5.4-5.1-.7-1-1.6-.3-3.5-.7-5.2-.5-2.4-.5-4.9-1.2-7.2-.4-1.6.1-2.9 2-2.9 12.2.2 24.4-.6 36.6.4l3.7.1c1.7.4 2.5 1.6 2.4 3.3-.2 2.1.5 4.5-.8 6.6z" class="st107"/><path d="M378.2 176c0-2.2-.1-4.5 0-6.7.1-1.5-.5-2.5-1.6-3.2 4-.1 7.9-.5 11.4 2.5 2.3 2.1 3.3 4.3 2.9 7.3-4.3-.3-8.5-.1-12.7.1zm-5.3-10.1c-11.7 0-23.5 0-35.2.1-3.1 0-3.1 0-2.4 3.1.8 3.8 1.2 7.8 1.2 11.7-.8.7-1 .6-1.7-.8-.4-3.3-.7-6.6-1.1-9.9-.2-2.1-.9-3.5-3.2-3.6-.4 0-.6-.3-.9-.5v-.6l21.6-.5 19.6.1c.4.8 1.6.2 2.1.9z" class="st57"/><path d="M397.2 281.6c3.8-1.1 7.7-.2 11.6-.5 0 .2 0 .3-.1.5h-11.5z" class="st43"/><path d="M401.9 217.2c-2.8-.1-5.7.5-8.4-.4 2.8.1 5.6-.5 8.4.4z" class="st21"/><path d="M363.4 279v-13.2c.1-.1.2-.2.4-.3 3.1-.7 6.2-.5 9.3-.1 1.4.2 2.7.4 4.1-.1v-12.1c0-1.1-.1-2.1 1.5-2.1h36.6c.1 1.1-.9 1.3-1.1 2.1-3.9 5.6-4.2 11.8-3 18.3.1.8.2 1.5.3 2.3-1-1.4-1.9-1.8-3.5-.5-.9.7-2.5.9-3.7.8-4.1-.1-8.2 1-12.5 0-3.9-.9-8-.5-12-.1-2.6.3-5.2.5-7.8 0-2.4-.4-4.4.7-5.9 2.6-.9.8-1.7 1.8-2.7 2.4z" class="st43"/><path d="M444.7 250c-1.2-1.8-2.8-3.2-4.5-4.6-3.1-2.4-5.7-5.4-8.5-8.2-2-2 .4-2.3 1.3-3.1 3.5-1 7.1-.4 10.6-.5 6.4 3.2 8.7 9.7 5.8 16.3l-4.7.1z" style="fill:#e8940b"/><path d="M449.5 250c0-2-.2-4 0-6 .5-4.3-1.4-7.1-5-9.1-.5-.3-.9-.6-.9-1.2h10.1v1c0 3.7 0 7.5-.1 11.2 0 4.3 1 4.1-4.1 4.1z" style="fill:#e26c16"/><path d="M329.5 121.1c-.6 4.8-1.1 9.7-1.7 14.5-.4 3.3-.9 6.6-1.4 9.9-.8 5.8-1.6 11.7-2.3 17.5-.2 1.9-1 2.6-3 2.5-3.7-.2-7.4 0-11.1 0 1.1-6.1 2.7-12.2 2.9-18.4.1-3.8.1-7.6.1-11.3.1-3.9.3-7.9.3-11.8 0-2 .6-3 2.9-2.9 4.4.1 8.8 0 13.3 0z" style="fill:#fee04e"/><path d="M382.4 20.3c-1.1 0-2.3-.1-3.4 0-4.7.7-5.6 2.1-4.5 6.8.2 1 .7 1 1.5.8 3.3-.8 6.7-.8 8.2 2.7 1.4 3.2-.4 6.1-2.8 8.4-2.2 2.2-4.9 3.5-7.7 4.3-2.3.7-3.8 1.5-3.9 4 0 1.1-.7 1.6-1.6 1.8-1.6.3-3.3.6-2.7-2.1.4-1.8-.5-2.7-2.3-2.5-2 .1-3.8-.4-5.4-1.7-1-.8-1.8-1.8-.8-3.1.9-1.2 2-2.1 3.6-1.1 1.9 1.1 3.9 2 6.2 1.7 1-.1 1.8-.3 1.9-1.4.1-1.7 1.2-3.4.2-5.1-.3-.5-1-.1-1.5-.1-2.9 0-5.7-.4-7.4-3.1-1.3-2-.2-5.9 2-8.2 1.6-1.7 3.4-3.1 5.5-4 1.5-.7 3.2-1.1 2.8-3.5-.2-1.2 1.2-1.1 1.9-1.4.8-.3 2.1-.5 2.4.4.6 1.9 2.1 1.6 3.4 1.5 2.8-.1 5.5-.1 7.6 2 .6.6 1.7 1 1.3 2.1-.3.9-1.3.7-2.1.7s-1.6 0-2.4.1z" style="fill:#fddc4c"/><path d="M394 218.2c.6-.7 1.4-.5 2.2-.5h15.6c.8 0 1.6-.2 2.2.5h-20z" class="st21"/><path d="M363.9 233.6v-12.3c0-.8-.3-1.8.5-2.5 0 4.9 0 9.8.1 14.8l-.1.1c-.2.1-.4.1-.5-.1z" class="st81"/><path d="M363.9 233.6h.5c0 .2.1.4.1.6 0 .1.1.2 0 .4 0 .1-.1.2-.2.3-.2.1-.5.2-.7.2-1 0-2.1-.3-3.1-.3-1.6.1.4 2.1-1.2 2.3-6.6-.9-13.1-1-19.6.3-2.2.4-4.6 0-6.8.5-.9.2-2.1.2-2.3 1.4-.2 1 .4 1.9 1.2 2.5 1.7 1.2 3.5 2.3 4.3 4.4.3.7 1.4.7 2.1.8 6.3 1.2 12.6.5 18.9.6 1.5 0 1.9-.9 1.9-2.2 0-1.5-.5-3-.4-4.4 0-1.2-.3-2.5 1.1-3.3 1.4.1 1.3 1.3 1.5 2.1.5 2 .5 4 .8 6 .2 1.5.9 2.4 2.4 2.7.9.6 2.1.7 2.8 1.6 1.5.9 3.1.3 4.6.4 1.2.1 2.1.4 1.6 1.7-1.5 3.9-1.2 7.7.1 11.6.2.5 0 1 0 1.6-2.4.6-4.8.1-7.2.3-.9.1-1.9-.2-2.8.2-1.1 2.9-.4 5.9-.5 8.8-.1 6.5 0 6.7-6.6 6.5-7.4-.2-14.8-1.2-22.2-1.1-1.9 0-3.3-.7-3.4-3.1-.1-1.4-.5-2.7-.9-4.1-1.1-4.6-1.1-4.7 3.5-6 .4-.1.8-.3 1.2-.5.6-.7 1.4-.7 2.3-.8 6.2.5 12.4.1 18.6 0 .8 0 1.6 0 2.3-.4 3.1-.7 5.7-2.1 7.8-4.5.5-.5.9-1.1 1.2-1.7.7-1.7.1-2.5-1.7-2.2-1.2.2-2.4.3-3.7.2-1.8-.2-3.2-.8-3.4-2.9-.2-1.8-1.6-2.2-3-2.2-1.7-.1-2.4.9-2.5 2.4-.3 3.5-2.1 6.7-1.6 10.3.1.6-.3 1-.9 1.2-3.5.1-6.9.3-10.3-.1-.9-.6-.9-1.7-.9-2.6-.1-1.1.1-2.3.3-3.4.5-3.3 1.2-6.9-3.5-7.9-.7-1.4-1.8-2.1-3.4-2.1-.9 0-1.7-.2-2.6-.3-4.4-.6-4.9-1.1-5-5.6v-2.9c0-4.1.6-4.9 4.7-6.1 1.5-.3 3-.7 4.5-.8 1.8-.4 2.6-2.3 4.1-3 .7-.4 1.2-1.3 2.3-1 .5.1 1.3 0 1.5.3 2.3 3.2 5.8 3.7 9.2 3.3 3.9-.8 8.4.4 13 0z" style="fill:#e8920c"/><path d="M367 250c-.9-.3-2.3.6-2.7-1.1-.5-.6-.7-1.4-.8-2.2-.1-3.3-.1-6.6 0-9.9 0-.8.2-1.5.8-2.2 0-.1.1-.3.1-.4 13.4 0 26.9-.1 40.3-.1 1.5 0 2.6.1 2.4 2.1-.4 4.9 1.9 9.1 3.8 13.5-.2.5-.7.3-1.1.3-13.2 1-26.5.4-39.7 0H367z" style="fill:#fedd51"/><path d="M363.3 265.8c3.3-1.1 6.7-.2 10-.5h3.7c-1.6 1.1-3.4.5-5.1.5-2.8.1-5.7 0-8.6 0z" class="st29"/><path d="M356.4 181.8c2.9.1 5.7.1 8.5-.5-2.4 3.6-2.2 6.6 1 11 .7.9 1.4 1.8 2.2 2.5 2.2 2 3 4.4 2.2 7.3-.5 1.8-.3 3.8-1.2 5.6-.1-3.3-.1-3.2-3.3-2.7-5.2.8-9.3 3.5-12.5 7.5-.5.5-.7 1.2-.6 2-.5.6-1.2.8-1.9.8-3.6-.1-7.2.3-10.7-.2-1.7-1.2-.4-2.4.2-3.4 2.5-4.3 5.7-8 9.9-10.7.4-.2.7-.4 1.1-1H333c-1.6 0-2.1.6-1.6 2.1.9 2.8 1.6 5.6 2.2 8.4.3 1.4.6 2.7.1 4.1-.2.1-.4.2-.6.2s-.4 0-.6-.1c-1.1-1-1.1-2.5-1.4-3.9-.4-1.7-.7-3.4-1-5.2-.5-2.7-.8-5.5-4.6-5.5-.4 0-.7-.5-.9-.9 0-.1 0-.3.1-.4.1-.1.2-.3.3-.3 1.9-.9 3.9-.4 5.8-.6 2.3-1.2 4.8-1.6 7.4-1.6 3 0 6 .2 8.9-.3 1.4-.2 2.4-.8 2.9-2.3 1-3 1.6-6.1 2.7-9.1.4-1.2-.2-1.6-1.3-1.6-1.8 0-3.5-.2-5.3 0-4 .5-8.1-.3-12.1.5-2.2-.1-4.5.7-6.6-.8 1.2-1.2 2.9 0 4.2-.9.5-.9 1.5-.9 2.3-.9 6.1.4 12.2 0 18.3.2 1.5.2 2.9.4 4.2.7z" style="fill:#e9a81b"/><path d="m339.6 229.9-5.8 4.7c-1-.8-2.1-.3-3.3-.3-4.9.2-9.7.1-14.6.1-.8 0-1.6-.2-2.2-.7-.4-1.7-.8-3.4-1.3-5.1-.8-2.9-.8-2.9 2.4-2.9 4.1 0 8.2.3 12.2-.4 1.4-.2 2-.9 2-2.2v-6.8c.2-.2.4-.4.6-.4 5.1-.6 10.2-.5 15.4-.1.3 0 .6.3.8.6 1.4 4.9-1.8 8-4.3 11.4-.5.6-1.2 1.3-1.9 2.1z" class="st107"/><path d="M345.9 216.2H329v-1.1c1.1-.9 2.4-.8 3.6-.5h1c2 .9 3.9-.6 5.9 0h23.9v.8c-5.7 1.4-11.6.5-17.5.8z" style="fill:#d69e38"/><path d="M267.7 181.2c1.9-.6 3.9-.3 5.9-.3 9.9-.1 19.4-2.4 28.3-6.6.9-.4 1.7-1.1 2.7-.3 1.8 2 1.7 4.6 1.8 6.9.3 5.6.1 11.2 0 16.8 0 2.7-.9 3.6-3.8 3.9-.8-1.8-1.5-3.7-2.4-5.5-2.9-5.7-8.5-7.3-14-8.9-5.2-1.5-10.6-2.4-15.9-3.2-.4-.1-.8-.4-1.1-.5-.5-.9-1.1-1.5-1.5-2.3z" style="fill:#1ea1da"/><path d="M256.5 176.1c.2.9.4 1.7.6 2.6.4 1.7-.2 2.6-1.9 3-1.7.4-3.3 1.1-5 1.7-5.2.7-10.4 1.5-15.6.2-.9-.9-2.7-1-2.6-2.6.2-1.9.9-3.7 2.2-5.2 1.1-1.2 2.4-.3 3.3.8.9 1 1.4 2.5 2.8 3 .5-.2.9-.4 1.4-.5 1.2.1 1.9-.6 2.6-1.5 1.2-.9 2.6-1.3 4.1-1l8.1-.5z" style="fill:#ed9787"/><path d="M302.7 201.5c2.9-.9 3.5-3.1 3.3-5.9-.4-7.2.3-14.5-1.4-21.7.1-2.4 2.1-3.2 3.6-4.5 1 2.2.2 4.5.4 6.8.1 1.1.1 2.2 0 3.4-.1 1-.5 1.8-.5 2.8.2 9.1-.8 18.2-.5 27.3 0 1.4-.2 2.8-1.3 3.9H301c-1.3-1.8-.9-3.8-.2-5.7.6-2.2 1.3-4.3 1.9-6.4z" style="fill:#d24821"/><path d="M228.6 226c.5 0 1 .1 1.6.1 4.3.1 4.3.1 3.1 4.1l-3.6 12c-.8-5.1-.8-10.2-1.8-15.2-.2-.5.2-.8.7-1z" style="fill:#e9f0f3"/><path d="M300.8 207.8c.1 1.9.1 3.8.2 5.7-3.2.8-6.3.7-9.5.2 3.9-.7 6.7-3.1 9.3-5.9z" style="fill:#efe4d7"/><path d="M264 213.6c-3.4.9-6.9.2-10.3.4-1.5.1-3 .1-4.4.1.8-1.3 2.1-1.8 3.6-1.6 3.6.4 7.3.7 11.1 1.1z" style="fill:#e2c8b1"/><path d="M267.7 181.2c1.9-.2 1.6 1.1 1.4 2.2l-7.2-.1c-.8-1.2 0-1.4 1-1.6 1.6-.1 3.2-.3 4.8-.5z" style="fill:#d1e8f0"/><path d="M248.3 176.6c-1.1 1.1-2.9.4-4 1.5-.7.8-1.7 1.2-2.6 1.7l-1.4-.1c2.5-2.8 5.2-5.4 7.3-8.5 1.6 1.6.3 3.6.7 5.4z" style="fill:#e9f4f6"/><path d="M307.9 179.7c-.1-3.4-.1-6.9.4-10.3.5-1.2.8-2.5 1.7-3.5 3.9 0 7.9.1 11.8.1 1.4 0 2 .3 1.7 2-.8 4.3-1.3 8.6-1.9 12.9-1.2 1-2.7.6-4.1.7h-6.8c-1.4-.1-2.5-.3-2.8-1.9z" style="fill:#fedf4e"/><path d="m85.3 152.4.6 10.5c.2 4.8.4 9.7.7 14.5.1 1.2 0 2.6 1.3 3.3 1.4.8 2.3-.4 3.2-1.1 6.8-5.6 13.5-11.3 20.3-16.9.5-.5 1.1-1.6 1.9-.7.8.9-.4 1.3-.8 1.8-6.1 6.6-12.2 13.2-18.3 19.7-.9 1-1.3 1.8-1 3.2.9 3.7-1 7.1-4.6 8-1.9.5-1.8 1.3-1.4 2.7.3.9.4 1.9.4 2.8 0 1.5-.8 2.3-2.3 2.3s-2.7-1.2-2.2-2.3c1.6-3.8-.1-5.7-3.3-7.4-1.5-.8-2-2.7-2-4.4s-.8-2.5-2-3.4c-3.2-2.2-6.4-4.4-9-7.3-1.8-2-2.9-4.1-2.1-6.9.5-1.7 1-2.2 2.6-1 4.2 3.2 8.5 6.3 12.7 9.4.8.6 1.6 1.7 2.7 1.1 1.3-.6 1-2 1-3 .2-7.4.4-14.8.5-22.2.2-1 0-1.9 1.1-2.7z" style="fill:#147cc2"/><path d="M143 189.6v5.5c0 1.5-.6 2.2-2.2 2-5.7-.6-11.3-1.1-17-1.6-1.4-.1-1.8-.7-1.8-2 0-2.6.1-5.3 0-7.9 0-1.5.7-2.1 2-2.2 5.8-.4 11.6-.7 17.3-1.1 1.3-.1 1.7.5 1.7 1.7 0 1.9.1 3.8 0 5.6z" style="fill:#50c4e3"/><path d="M27.9 188.5c-.1-7.1-.1-7.2 7-6.7 3.6.2 7.1.7 10.7 1 1.4.1 1.8.6 1.8 1.9-.1 1.9-.2 3.9-.3 5.8 0 2.2-1.2 2.6-2.9 2.8-4.7.5-9.4 1.1-14.1 1.7-1.6.2-2.3-.4-2.3-2 .2-1.5.1-3 .1-4.5z" style="fill:#53c6e3"/><path d="M88.6 239.7v7.1c0 1.4-.5 2.2-2 2.1h-.3c-7.9.4-7.9.4-7.7-7.4.1-3.1-.1-6.1.3-9.2.2-1.3.6-1.9 1.9-1.8 1.8.1 3.7.1 5.5 0 1.6-.1 2.2.7 2.1 2.2.1 2.3.1 4.6.2 7z" style="fill:#51c3e3"/><path d="M123.3 232.7c-.1.7-.5 1-.9 1.3-2.3 1.8-4.6 3.5-6.9 5.3-1.2.9-1.9.8-2.7-.5-1.9-3.2-3.3-6.6-4.9-9.9 0-.1-.1-.2-.1-.2-.1-3.6 3.6-3.7 5.4-5.5 1.3-1.3 2.1 0 2.9 1 2 2.5 4.1 5 6.2 7.5.4.2.7.6 1 1z" style="fill:#4fc4de"/><path d="M50.6 163.2c-1.2 1.7-2.4 3.7-4 5.3-1.1 1.1-2.2-.3-3.2-.8-2.8-1.3-5.5-2.8-8.2-4.1-1.5-.7-1.9-1.7-1-3.1.6-1.1 1.2-2.1 1.9-3.2 2-3.4 2-3.5 5.2-1.3 2.8 1.9 5.5 3.8 8.2 5.7.4.3 1 .5 1.1 1.5z" style="fill:#4fc5e2"/><path d="M38.7 224.4c-.4.1-.7-.1-.9-.4-.1-.2-.3-.4-.4-.7-4.4-5.9-4.4-5.9 1.9-9.7l.9-.6c5.8-3.5 5.8-3.4 9.7 2 .6.9.5 1.4-.3 1.9-3.5 2.4-6.9 4.8-10.4 7.2-.2.1-.3.2-.5.3z" style="fill:#4fc6e3"/><path d="M83.4 146.4c-2.3.7-3.2 0-3.3-2.6-.1-4-.6-8-1.2-12-.3-1.8.2-2.3 2-2.4 2.8-.1 5.5-.8 8.3.1-.1 5.8-2.1 11-4.7 16.1-.3.4-.7.6-1.1.8z" style="fill:#49c0e3"/><path d="M123.4 167.6c-1.8-.6-1.9-2.4-2.7-3.7-.6-.9-.7-1.8.4-2.5 3.5-2.4 7-4.7 10.5-7.1.7-.5 1.2-.4 1.6.5.4.9.9 1.7 1.4 2.5 2.3 4.2 2.3 4.3-2.2 6.3-3 1.5-6 2.7-9 4z" style="fill:#54c4e1"/><path d="M135.2 218.1c0 1.2-3.3 6-3.8 6.2-.7.2-1.1-.3-1.6-.6-2.8-1.7-5.5-3.4-8.3-5.1-1.3-.8-1.5-1.6-.9-3 2.3-4.8 2.3-4.9 6.9-2.1 2.2 1.3 4.3 2.6 6.5 4 .5.2 1.2.5 1.2.6z" style="fill:#4ac4e5"/><path d="M62.7 147.2c.1 1-.4 1.1-.8 1.4-4.5 2.8-4.5 2.8-7.7-1.4-1.2-1.5-2.4-3-3.7-4.4-.9-1-1-1.6.1-2.5 5.1-4.5 5.5-4.4 8.8 1.3 1.1 1.9 2.3 3.9 3.3 5.6z" style="fill:#52c3e0"/><path d="M109.4 148.6c-3.1-.2-4.5-2.6-3-5.3 1.3-2.4 2.6-4.8 3.9-7.1.7-1.3 1.6-1.5 3-.8 5.2 2.7 5.2 2.9 1.5 7.5-1.2 1.5-2.3 3.1-3.6 4.5-.4.5-.8 1.3-1.8 1.2z" style="fill:#52c5e2"/><path d="M65.9 233.1c-.1.3-.3 1-.6 1.6-1 1.9-1.9 3.8-3 5.6-.6 1.1-.7 3.2-2.2 2.9-1.8-.4-3.4-1.7-5-2.7-.5-.3-.1-.9.1-1.4 1.4-2.8 2.8-5.7 4.1-8.6.6-1.2 1.2-1.6 2.4-.9 1.1.6 2.2 1.2 3.2 1.8.7.3 1.1.6 1 1.7z" style="fill:#4ec3e4"/><path d="M83.4 146.4c3-5.2 4.2-11.1 5.7-16.8 1 .3.6 1.1.6 1.8 0 4.1-.1 8.2 0 12.3 0 1.8-.4 2.4-2.3 2.5-1.2 0-2.6.4-4 .2z" style="fill:#1a91cc"/><path d="M68.7 142.6c.1 1-.2 1.5-.9 1.7-.6.2-1.2.1-1.6-.6-1.4-2.6-2.8-5.2-4.1-7.9-.7-1.4.6-1.8 1.4-2.3 1-.6 1.4.2 1.7.9 1.3 2.8 2.7 5.5 3.5 8.2z" style="fill:#2ea1ce"/><path d="M75.8 139c0 1-.5 1.6-1.3 1.8-1 .3-1.1-.6-1.3-1.2-.6-2.4-1.2-4.7-1.8-7.1-.3-1.1.1-1.7 1.2-1.8.8-.1 1.6-.1 1.8 1 .5 2.4 1 4.9 1.4 7.3z" style="fill:#2996c1"/><path d="M96.1 245.6c.1 1.1 0 1.7-.8 1.8-.8.2-1.4-.1-1.6-.9-.4-2.3-.9-4.6-1.3-7-.1-.6.2-1 .8-1.2.7-.1 1.3 0 1.5.8.5 2.3 1 4.6 1.4 6.5z" style="fill:#2f9bc1"/><path d="M100.3 140.3c.7-2.1 1.5-4.6 2.4-7.1.3-.7.7-1.2 1.6-.8.8.4.8 1 .5 1.7-.9 2.4-1.8 4.7-2.7 7.1-.2.6-.5 1.2-1.3 1s-.5-.9-.5-1.9z" style="fill:#319bc8"/><path d="M103.1 244.5c.1.9-.6 1-1.1 1.2-.6.2-1-.1-1.2-.7-.7-2.4-1.3-4.9-2-7.3-.1-.6.2-1 .7-1.3.5-.2 1-.1 1.1.4.9 2.6 1.7 5.1 2.5 7.7z" style="fill:#349ac3"/><path d="M50 156.4c-.2.9-.9.9-1.4.6-2.6-1.4-4.8-3.6-7-5.5-.5-.4-.2-.8.2-1.1.4-.4.8-.8 1.4-.3 2.2 1.9 4.4 3.8 6.5 5.7.1.1.2.3.3.6z" style="fill:#4eaec5"/><path d="M47.2 144.7c.4.2.7.3.9.6 2 1.9 4.1 3.8 6.1 5.8.4.4.7.8.2 1.3-.4.5-1 .4-1.4 0-2.3-1.9-4.5-3.8-6.8-5.8-.3-.2-.5-.6-.2-.9.4-.3.8-.6 1.2-1z" style="fill:#3ca3c7"/><path d="M94 138.2c.4-2.1.9-4.3 1.3-6.4.2-1 .7-1.4 1.6-1.1 1 .3.8 1.1.6 1.7-.5 2.1-1 4.2-1.5 6.4-.2.7-.3 1.5-1.3 1.2-.8-.3-.8-1.1-.7-1.8z" style="fill:#2e92c3"/><path d="M72.3 244.6c.3-1.4.7-3.6 1.3-5.7.2-.7.7-1.3 1.5-1.1.9.3.7 1 .5 1.7-.4 2-.8 3.9-1.1 5.9-.1.7-.3 1.4-1.2 1.3-1 0-1.1-.6-1-2.1z" style="fill:#3391c8"/><path d="M43.2 229.9c-.3-.2-.6-.4-.7-.7-.3-.4-.1-.9.2-1.2 2-1.8 3.9-3.5 5.9-5.2.4-.4 1-.5 1.4 0 .5.5.2 1-.2 1.3-1.9 1.7-3.7 3.4-5.6 5.1-.3.3-.6.4-1 .7z" style="fill:#31a3c5"/><path d="M122.9 145.1c-.4.4-.7.8-1.1 1.2-1.6 1.7-3.3 3.4-4.9 5.1-.5.5-1 1.3-1.7.8-.9-.7 0-1.4.5-1.9 1.6-1.9 3.3-3.7 4.9-5.5.5-.6 1.2-.8 1.9-.4.2.1.3.4.4.7z" style="fill:#3192c7"/><path d="M55.9 229.5c-1.3 2-2.9 4.5-4.5 7-.3.5-.8.3-1.1 0-.5-.4-.5-.9-.2-1.4 1.5-2.2 2.9-4.4 4.4-6.5.2-.3.7-.5 1.1-.5.4 0 .5.4.3 1.4z" style="fill:#3392bc"/><path d="M66.7 244.7c-1.1-.2-1.4-.7-1.1-1.5.8-2.1 1.7-4.2 2.6-6.3.2-.6.7-.8 1.3-.6.5.1.8.5.6.9-.9 2.4-1.8 4.8-2.7 7.1-.1.2-.6.3-.7.4z" style="fill:#3197c0"/><path d="M33.3 210.7c-.9-.1-1.3-.3-1.5-.9-.2-.5.2-.8.6-1 2.2-.9 4.3-1.8 6.5-2.7.6-.2 1.3-.3 1.5.5.2.6-.4.9-.8 1.1-2.1 1-4.3 2.1-6.3 3z" style="fill:#2ea1c8"/><path d="M119.5 222.9c.8-.7 1.5-.4 2 0 1.8 1.3 3.7 2.7 5.5 4 .4.3.8.8.4 1.3-.4.7-1 .7-1.6.3-2.2-1.6-4.5-3.3-6.3-5.6z" style="fill:#3fa7c9"/><path d="M139 210.1c-.2 1-.8 1.1-1.4.9-2.2-.9-4.3-1.8-6.5-2.8-.3-.1-.5-.5-.5-.8 0-.5.5-.7.9-.7 2.6.3 4.8 1.5 7 2.7.3.1.4.6.5.7z" style="fill:#38a5ca"/><path d="M118.9 157c2.7-3 5.6-5 8.4-7.1.3-.2.7-.2.9.1.1.2.2.5.1.7-.2 1.1-7.3 6.1-9.4 6.3z" style="fill:#3ba6bf"/><path d="M106.1 235.7c.2.1.5.3.7.6 1 1.7 2 3.5 3 5.3.3.5.3 1-.3 1.4-.6.4-1.2.4-1.6-.3-1-1.9-2-3.7-2.8-5.6-.3-.8 0-1.3 1-1.4z" style="fill:#37a4c0"/><path d="M32.4 172.3c2 .6 4.4 1.3 6.7 2.1.4.1.9.3.7.9-.2.5-.6.7-1 .6-2.5-.6-4.9-1.2-7.4-1.8-.6-.1-1-.5-.8-1.1.2-.9.9-.7 1.8-.7z" style="fill:#3c98c4"/><path d="M134 200.4c2 .5 4.2 1 6.4 1.4.8.2 1.3.5 1.1 1.4s-.8.6-1.4.5c-2.2-.6-4.4-1.1-6.6-1.7-.5-.1-1.4 0-1.2-.9.1-.8.9-.7 1.7-.7z" style="fill:#3ea0c0"/><path d="M134.5 177.6c-.6-.1-1.3.2-1.4-.5-.1-.7.5-.8 1-1 2.2-.6 4.4-1.1 6.6-1.6.5-.1 1.1-.1 1.2.6.1.7-.4.9-.9 1-2.2.5-4.4 1-6.5 1.5z" style="fill:#3e9cb7"/><path d="M133.5 171.9c-.7-.1-1.2.1-1.3-.5-.1-.5.3-.8.7-.9l6-2.1c.6-.2 1-.1 1.3.5.3.7-.1 1.1-.6 1.2-2.1.6-4.2 1.2-6.1 1.8z" style="fill:#46a6bc"/><path d="M40 170.7c-1.9-.5-4-1.1-6-1.7-.5-.2-1.4-.2-1.1-1.1.2-.7.8-.5 1.3-.4l6.3 1.8c.5.1 1.1.4.9 1.1-.1.6-.7.3-1.4.3z" style="fill:#3d9cc2"/><path d="M38.3 201.1c-.3.2-.5.6-.9.7l-6.3 1.8c-.4.1-.9.3-1.1-.3-.2-.5.1-.9.5-1.1 2.3-.6 4.7-1.2 7.1-1.8.3-.1.7.1.7.7z" style="fill:#41abd2"/><path d="m276.7 265.3-.1-15.8.3-.3c1.1-.6 2.4-.6 3.6-.5 2.1.1 2.8-.9 2.8-2.8-.1-2.4 0-4.7 0-7.1 0-1.1-.1-2.3.8-3.2 3.2-1.5 6.7-.9 10.1-1.1 3.2-.1 6.5-.1 9.7-.1 1.3 0 2.7 0 3.5 1.4l3.7 13.2c-.4.5-1 .7-1.6.7-7.6.4-15.2-.4-22.8-.3-.3-.2-.1.5-.1.1 0 0 0-.1.1-.1 3.1.2 6.1.1 9.2.1 1.6 0 2.7.6 3.3 2 1.7 3.9 3.2 7.8 4.7 11.7.3.8.5 1.7-.3 2.4-1.2.6-2.6.4-3.8.4h-15.9c-2.5 0-5 .7-7.2-.7z" style="fill:#fede4f"/><path d="M306.3 213.5c.4-9.4.7-18.8 1.1-28.2 0-1.1.1-2.3.2-3.4.3-.4.8-.4 1.3-.4 3.5.6 6.9.7 10.4.6.9 0 1.8 0 2.5.6.8 2.8-.1 5.6-.4 8.3-.7 6.6-1.4 13.1-2.1 19.7-.1.9 0 2-.8 2.7-4.1.9-8.1.9-12.2.1z" class="st47"/><path d="M329 235.2c-1.4.9-3.9.7-4.1 2.8-.3 3.3-.6 6.7.6 9.9.1.3.7.4 1.1.5 1.9.2 3.8.5 5.7.5 2 0 3 .7 3 2.7.5.8.9 1.7.8 2.7-.3 3.7.7 7.4-.3 11.1-4.6.6-9.1.8-13.7-.1-2.6-10-5.3-20-7.9-30.1.2-.2.4-.4.6-.5s.5-.2.8-.2c4-.2 8-.2 12 0 .3 0 .5.1.8.2.2.1.4.3.6.5z" style="fill:#efbb2f"/><path d="M303.6 265.2c-1.7-4.5-3.5-9-5.2-13.5-.5-1.3-1.3-1.8-2.8-1.8-3.5-.1-7 .5-10.4-1H311c1.8 5.4 3.4 10.8 4.8 16.4-2.4 1.2-4.9.3-7.4.6-1.5-.3-3.3.5-4.8-.7z" style="fill:#f1bd30"/><path d="M276.6 233.5c.2-2.5-1-5.7.6-7.3 1.6-1.5 4.7-.4 7.1-.4 6-.1 12 0 17.9 0 1.1 0 2.5-.4 2.4 1.5.1 1.3-1.1 1.2-1.8 1.5-2.1.9-4.3 1.8-5.7 3.6-1.7 2.2-3.8 2.9-6.4 2.6-.9-.1-1.7.1-2.6-.1-3.7.1-7.3-.4-10.9-.7-.2-.2-.4-.4-.6-.7z" class="st169"/><path d="M318.5 213.5c.2-6.5 1.2-12.9 1.8-19.4.4-3.7.9-7.5 1.3-11.2-.3-.2-.3-.5-.2-.9l.2-.2c1.8.3 3.7.2 5.3 1.1.6.6.7 1.4.6 2.2-.5 4-1 7.9-1.6 11.9-.1.3-.2.7-.4 1-.2.3-.4.5-.7.7v.6c.6 1.1.7 2.3.5 3.6-.4 2.6-.7 5.2-.9 7.8-.1 1.1-.3 2.1-1.3 2.8-1.5.8-3.1.8-4.6 0z" style="fill:#d85929"/><path d="M276.7 265.3h6.8c.6.3 1 .7 1.1 1.4.1.3.1.6.2.9.1 3.4.1 6.8.1 10.2 0 1.1 0 2.3-.9 3.2l-7.3.1v-15.8z" style="fill:#e4f5f6"/><path d="M323.2 213.5c.6-4.7 1.1-9.5 1.7-14.2.3.1.7.3 1 .3 3.8.5 3.9.7 4.7 4.6.7 3.4 1.4 6.8 2.1 10.3-1.1 1.1-2.4.4-3.6.5-.4-1.9-2.1-.8-3.1-1.2-.9-.2-1.9-.2-2.8-.3z" style="fill:#fedb46"/><path d="M288.2 234.6c.8 0 1.6 0 2.3.1 2.3.3 4.1-.3 5.6-2.3 2.1-2.9 5.5-3.8 8.6-5.1l2.6 8.5c-.9-.7-2-.6-3.1-.5-6.7.1-13.4-.4-20 .5-.4-1 .3-1.2 1-1.3 1-.1 2.1-.3 3 .1z" style="fill:#efb631"/><path d="M329 235.2h-14.7l-.5-1.6c6.1 0 12.3-.1 18.4 0 .5 0 2-.9 1.6 1l-4.8.6z" style="fill:#d8b75f"/><path d="M284.2 266.9c-.1-.2-.1-.3 0-.5.9-.9 2-.6 3-.6 6.6-.2 13.2-.3 19.9-.3.4 0 .9 0 1.3-.2l7.5-.1c.4.3.5.7.4 1.1l-11.6.1c-1.9 1.3-4 .8-6.1 1-4.1.6-8.2.2-12.2.2-.8.1-1.6 0-2.2-.7z" style="fill:#deb45c"/><path d="M322.2 265.3h13.7l.3.1c.3.3.4.5.2.9l-2.1.1c-3.9 0-7.7 0-11.6.1-.4-.3-.6-.7-.5-1.2z" style="fill:#deb974"/><path d="M276.6 249.5c-.7-5.3-.6-10.6 0-16l.2.2c.6.6.7 1.4.7 2.2.1 3.8.1 7.5 0 11.3 0 .8-.1 1.6-.7 2.2l-.2.1z" class="st169"/><path d="M369.7 297.1h-19.9c2.1-2.5 4.7-2.7 7.1-3.2 4.1-.9 5.8-2.9 5.9-7 0-1.9.3-3.8.5-5.7h19.5c.9 0 1.9-.3 2.8.4h-.1c-.2.2-.4.3-.7.4-3.6 1.2-3.6 1.2-3.3 4.9.1 2.5.1 5 0 7.6 0 .9-.1 1.8-.8 2.4l-11 .2z" style="fill:#e7930a"/><path d="M380.8 297c-.2-4.3.5-8.5-.5-12.8-.4-1.8.3-2.9 2.3-2.6.9.1 1.9 0 2.9 0v14.1c0 .6-.1 1.2-.5 1.7-1.4-.1-2.9.3-4.2-.4z" style="fill:#e16e15"/><path d="M284.2 266.9c6.8 0 13.7-.1 20.5-.5 1.6 4.1 3.1 8.2 4.8 12.2.7 1.8.5 2.5-1.7 2.5-7.9-.1-15.8-.1-23.7-.1 0-4.6.1-9.4.1-14.1z" class="st98"/><path d="M329.6 166c.9 0 1.7.1 2.6 0 1.3-.1 1.9.7 2 1.8.3 4.1 1.3 8.2 1.1 12.4-2.5 1.8-5.2 1.1-7.9.5.8-4.9.9-9.8 2.2-14.7z" style="fill:#fddf48"/><path d="M324.9 198.7c1-5.2 1.6-10.5 2.1-15.7.2 0 .3-.1.5-.1h6.8c.8 1.2 0 2.2-.5 3.1-1.2 2.4-2 5-2.8 7.6-.5 1.8 1 3.4.1 5l-6.2.1z" style="fill:#fddc4b"/><path d="M327.5 180.8c2.6-.1 5.3.5 7.9-.5.3.4.4 1.1 1.1.5H352c1.6 0 3.1.2 4.5 1-8.3.1-16.5.1-24.8.2-1 0-2-.1-3-.1-.9 0-1.4-.2-1.2-1.1z" style="fill:#edc87a"/><path d="M308.5 182h-.9c-.3-.8.3-1.5.3-2.2.7.9 1.6 1.1 2.7 1.1h11c0 .3.1.7.1 1-2.9 1.1-6 .4-9 .4-1.5 0-2.8-.1-4.2-.3z" style="fill:#f8e796"/><path d="M377.6 35.9c-.1 1.8-2.8 3.7-4.8 3.6-.8 0-1.1-.5-.8-.9 1.1-1.8-.4-5.1 2.6-5.6 1.5-.2 2.6 1.5 3 2.9z" style="fill:#e89c19"/><path d="M371.3 25.8c-.3 1.1.5 2.4-.6 3.2-.7.5-1.5 0-2.2-.4-1.2-.7-1.1-2-.8-3 .4-1.2 1.4-2.6 2.7-2.5 1.7.1.5 1.8.9 2.7z" style="fill:#ec9d15"/><path d="M359.6 237.8c-1 1.6-.5 3.4-.3 5.1 0 .5.3 1 .3 1.5.3 3.9.3 4-3.7 3.9-6.6-.2-13.3.7-19.9-1-1.1-.3-1.7-.3-1.4-1.7.3-1.4-1.1-1.9-2.1-2.4-.7-.3-1.4-.4-2-1.2-2.4-3.4-2.2-4.5 2-5 7.9-.9 15.8-2 23.8-1.4 1.1.1 2.2.7 3.2 1 .4.5.5.9.1 1.2zm-9.5 27.5c-1.3-3 .4-5.8.8-8.7.1-.7.3-1.4.3-2.2.2-1.8.4-3.5 3-3.4 2.9.1 4 .8 4 3.4 0 1.2.9 1.5 1.6 1.7 1.6.4 3.3.5 4.9-.1.7-.3 1.3-.9 2.1-.1s.8 1.7.6 2.7c-.7 2.3-2.7 3.6-4.4 5.1-1.4 1.2-3.1 2-5 1.6-2.6.8-5.2.9-7.9 0z" class="st82"/><path d="M359.6 237.8v-1.1c.1-1-.8-1.5-1.3-2.3 2.1-.8 4 0 6 .2v14.3c-1.9.2-3.1 0-3.3-2.6-.2-2.8-.1-5.8-1.4-8.5z" style="fill:#de7016"/><path d="M335.8 265.3c-.8-4.6-.4-9.2-.5-13.7.2.1.5.3.7.3 3.5.4 3.4.4 3.5 4.1.1 3.1-.9 6.2-.6 9.3-.9.9-2 .5-3.1 0z" class="st82"/><path d="m335.9 265.3 3.2-.1h19c-.2 1.3-1.2 1-2 1h-19.6l-.6-.9z" class="st29"/><path d="M331.1 198.7c-2-4-.1-7.6 1.2-11.2.6-1.5 1.7-2.8 2-4.5 5.9-.6 11.8-.5 17.7-.6 1.8 0 2.3.3 1.7 2.1-1.2 3.4-2.1 6.8-3.1 10.3-.3 1.2-.9 1.7-2.3 2-3.3.6-6.6.4-9.9.4-2.7-.1-5.1.1-7.3 1.5zm8.5 15.9c-1.2.3-2.4.8-3.7 1-.8.1-2 .4-2.2-1-.9-4.6-1.8-9.3-3.4-13.7-.5-1.2.1-1.6 1.2-1.6 7.1 0 14.2 0 21.4.3-5.6 4-10.4 8.7-13.3 15z" class="st107"/><path d="M241.7 179.7c.7-.9 1.5-1.5 2.6-1.7-.1 1.9-1.2 2.1-2.6 1.7z" style="fill:#3a6bb4"/><path d="M276.8 249.4c-.3-5.2-.3-10.4 0-15.7 3.8 0 7.7 0 11.4.9-1.4.3-3.1-.8-4 1.1 0 3.9-.2 7.7-.1 11.6 0 1.6-.5 2.2-2.1 2.1-1.7-.1-3.5 0-5.2 0z" style="fill:#e3f4f7"/><path d="M308.3 265.4c-.8.7-1.9.4-2.8.4-7.1.2-14.2.5-21.3.7l-.6-1.1 20.1-.1 4.6.1z" style="fill:#f5e3b3"/><path d="m308.5 182 13.1-.1v1.1c-4.4-.5-8.8.4-13.1-1z" class="st109"/></svg>