<svg version="1.1" id="Illustration" xmlns="http://www.w3.org/2000/svg" x="0" y="0" viewBox="0 0 480 306" style="enable-background:new 0 0 480 306" xml:space="preserve"><style>.st0{fill:#fff}.st4{fill:#dfe6ff}.st5{fill:#84b2fe}.st7{fill:#2c7efe}.st9{fill:#0643a3}.st11{fill:#dd4a71}.st12{fill:#0c69ef}.st14{fill:#ffcdad}.st15{fill:#f8a780}.st16{fill:#30bad1}.st18{fill:#f69668}.st19{fill:#153663}</style><path class="st0" d="M16 306 137.6 0H480v306z"/><path d="M168.1 128c-7.4 15.8-30.6 11.6-46.9 29.6-16.9 18.8-17 50.6 3.5 69.6 20.8 19.4 54.7 18.2 71.2 17.5 27.1-1 37.1-8.5 58.6-13.1 75-16.2 117.3 39.4 165.3 20.3 26.1-10.4 43.6-38.9 38.3-58.9-9.1-34.4-87.5-39.9-84.4-57.3 2.7-14.5 58.4-12.5 67.7-34.1 8.4-19.4-26.3-44.8-50.4-55.8-11.1-5.1-43.7-20.5-70.8-9.5-21.4 8.8-20.6 25.3-39.4 29.4-22.7 5-31.7-17.3-64-19-23.8-1.2-54 9.1-60.9 26.2-8.4 20.3 21 36 12.2 55.1z" style="opacity:.39;fill:#9ff4ff;enable-background:new"/><ellipse class="st4" cx="292.4" cy="279.7" rx="156.3" ry="10.3"/><path class="st5" d="M223.9 192.4v78.7c0 3.7-3 6.7-6.7 6.7h-52.7c-3.7 0-6.7-3-6.7-6.7v-78.7c0-3.7 3-6.7 6.7-6.7h52.7c3.7 0 6.7 3 6.7 6.7z"/><path d="M223.9 192.4v22.9h-66.2v-22.9c0-3.7 3-6.7 6.7-6.7h52.7c3.8 0 6.8 3 6.8 6.7z" style="fill:#cdebf7"/><path class="st0" d="M216.6 192.1h-51.5c-2 0-3.6 1.7-3.6 3.6v10.5c0 2 1.7 3.6 3.6 3.6h51.5c2 0 3.6-1.7 3.6-3.6v-10.5c0-2.1-1.7-3.6-3.6-3.6z"/><path class="st7" d="M172.3 222.4h-6.1c-1.8 0-3.2 1.8-3.2 3.8v2.2c0 2.2 1.4 3.8 3.2 3.8h6.1c1.8 0 3.2-1.8 3.2-3.8v-2.2c0-2-1.4-3.8-3.2-3.8zM186.9 222.4h-6.1c-1.8 0-3.2 1.8-3.2 3.8v2.2c0 2.2 1.4 3.8 3.2 3.8h6.1c1.8 0 3.2-1.8 3.2-3.8v-2.2c-.1-2-1.5-3.8-3.2-3.8zM201.4 222.4h-6.1c-1.8 0-3.2 1.8-3.2 3.8v2.2c0 2.2 1.4 3.8 3.2 3.8h6.1c1.8 0 3.2-1.8 3.2-3.8v-2.2c-.1-2-1.4-3.8-3.2-3.8z"/><path class="st0" d="M172.3 234.9h-6.1c-1.8 0-3.2 1.8-3.2 3.8v2.2c0 2.2 1.4 3.8 3.2 3.8h6.1c1.8 0 3.2-1.8 3.2-3.8v-2.2c0-2-1.4-3.8-3.2-3.8zM186.9 234.9h-6.1c-1.8 0-3.2 1.8-3.2 3.8v2.2c0 2.2 1.4 3.8 3.2 3.8h6.1c1.8 0 3.2-1.8 3.2-3.8v-2.2c-.1-2-1.5-3.8-3.2-3.8zM201.4 234.9h-6.1c-1.8 0-3.2 1.8-3.2 3.8v2.2c0 2.2 1.4 3.8 3.2 3.8h6.1c1.8 0 3.2-1.8 3.2-3.8v-2.2c-.1-2-1.4-3.8-3.2-3.8z"/><path d="M215.4 222.4h-6.1c-1.8 0-3.2 3.9-3.2 8.8v4.8c0 4.8 1.4 8.8 3.2 8.8h6.1c1.8 0 3.2-3.9 3.2-8.8v-4.8c0-4.9-1.4-8.8-3.2-8.8z" style="fill:#8183f1"/><path class="st0" d="M172.3 247.2h-6.1c-1.8 0-3.2 1.8-3.2 3.8v2.2c0 2.2 1.4 3.8 3.2 3.8h6.1c1.8 0 3.2-1.8 3.2-3.8V251c0-2.2-1.4-3.8-3.2-3.8zM186.9 247.2h-6.1c-1.8 0-3.2 1.8-3.2 3.8v2.2c0 2.2 1.4 3.8 3.2 3.8h6.1c1.8 0 3.2-1.8 3.2-3.8V251c-.1-2.2-1.5-3.8-3.2-3.8zM201.4 247.2h-6.1c-1.8 0-3.2 1.8-3.2 3.8v2.2c0 2.2 1.4 3.8 3.2 3.8h6.1c1.8 0 3.2-1.8 3.2-3.8V251c-.1-2.2-1.4-3.8-3.2-3.8zM172.3 259.4h-6.1c-1.8 0-3.2 1.8-3.2 3.8v2.2c0 2.2 1.4 3.8 3.2 3.8h6.1c1.8 0 3.2-1.8 3.2-3.8v-2.2c0-2.1-1.4-3.8-3.2-3.8zM186.9 259.4h-6.1c-1.8 0-3.2 1.8-3.2 3.8v2.2c0 2.2 1.4 3.8 3.2 3.8h6.1c1.8 0 3.2-1.8 3.2-3.8v-2.2c-.1-2.1-1.5-3.8-3.2-3.8zM201.4 259.4h-6.1c-1.8 0-3.2 1.8-3.2 3.8v2.2c0 2.2 1.4 3.8 3.2 3.8h6.1c1.8 0 3.2-1.8 3.2-3.8v-2.2c-.1-2.1-1.4-3.8-3.2-3.8z"/><path class="st9" d="M215.4 247.2h-6.1c-1.8 0-3.2 1.8-3.2 3.8v2.2c0 2.2 1.4 3.8 3.2 3.8h6.1c1.8 0 3.2-1.8 3.2-3.8V251c0-2.2-1.4-3.8-3.2-3.8zM215.4 259.4h-6.1c-1.8 0-3.2 1.8-3.2 3.8v2.2c0 2.2 1.4 3.8 3.2 3.8h6.1c1.8 0 3.2-1.8 3.2-3.8v-2.2c0-2.1-1.4-3.8-3.2-3.8z"/><path class="st5" d="M210.2 198.6c0-.5.2-.8.5-1.1s.7-.4 1.2-.4.9.1 1.2.4c.3.3.4.7.4 1.2v.4c0 .5-.1.8-.4 1.1-.3.3-.7.4-1.2.4s-.9-.1-1.2-.4c-.3-.3-.5-.7-.5-1.2v-.4zm1.2.4c0 .2 0 .3.1.4.1.1.2.2.4.2.4 0 .5-.2.5-.7v-.3c0-.2 0-.3-.1-.4-.1-.1-.2-.2-.4-.2s-.3.1-.4.2c-.1.1-.1.3-.1.5v.3zm.8 5.3-.8-.4 3.8-6.1.8.4-3.8 6.1zm1.7-1.4c0-.5.2-.8.5-1.1s.7-.4 1.2-.4.9.1 1.2.4c.3.3.5.7.5 1.2v.4c0 .5-.1.8-.4 1.1-.3.3-.7.4-1.2.4s-.9-.1-1.2-.4-.5-.7-.5-1.2l-.1-.4zm1.1.4c0 .2.1.3.2.4.1.1.2.2.4.2.3 0 .5-.2.5-.5v-.5c0-.2 0-.3-.1-.4-.1-.1-.2-.2-.4-.2s-.3.1-.4.2c-.1.1-.2.2-.2.4v.4zM205.4 197h-2.1c-1 0-1.9.9-1.9 2.2v1.1c0 .3.3.6.6.6s.6-.3.6-.6v-1.1c0-.4.3-.7.6-.7h2.1c.3 0 .6.3.6.7v1.1c0 .3.3.6.6.6s.6-.3.6-.6v-1.1c.2-1.1-.6-2.2-1.7-2.2zM206.7 201.6c-.3 0-.6.3-.6.6v1.1c0 .4-.3.7-.6.7h-2.1c-.3 0-.6-.3-.6-.7v-1.1c0-.3-.3-.6-.6-.6s-.6.3-.6.6v1.1c0 1.1.8 2.2 1.9 2.2h2.1c1 0 1.9-.9 1.9-2.2v-1.1c-.2-.3-.5-.6-.8-.6zM198.2 197h-2.1c-1 0-1.9.9-1.9 2.2v1.1c0 .3.3.6.6.6s.6-.3.6-.6v-1.1c0-.4.3-.7.6-.7h2.1c.3 0 .6.3.6.7v1.1c0 .3.3.6.6.6s.6-.3.6-.6v-1.1c.3-1.1-.7-2.2-1.7-2.2zM199.5 201.6c-.3 0-.6.3-.6.6v1.1c0 .4-.3.7-.6.7h-2.1c-.3 0-.6-.3-.6-.7v-1.1c0-.3-.3-.6-.6-.6s-.6.3-.6.6v1.1c0 1.1.8 2.2 1.9 2.2h2.1c1 0 1.9-.9 1.9-2.2v-1.1c-.1-.3-.4-.6-.8-.6z"/><g><path class="st5" d="M192.4 201.1c-.4 0-.7-.3-.7-.7v-2.5c0-.4.3-.7.7-.7.4 0 .7.3.7.7v2.5c0 .4-.3.7-.7.7zM192.4 205.5c-.4 0-.7-.3-.7-.7v-2.5c0-.4.3-.7.7-.7.4 0 .7.3.7.7v2.5c0 .4-.3.7-.7.7z"/></g><g><path class="st0" d="M257.8 85.7c-.9-3 .5-6.1 3.1-7.5-2-3.6-4.4-6.7-7.5-9.2-2 2.3-5.3 3-7.9 1.5-2.7-1.4-3.9-4.6-3.1-7.5-3.7-1.1-7.7-1.5-11.8-1.2.3 3-1.5 5.9-4.5 6.7-3 .9-6.1-.5-7.5-3.1-3.6 2-6.7 4.4-9.2 7.5 2.3 2 3 5.3 1.5 7.9-1.4 2.7-4.6 3.9-7.5 3.1-1.1 3.7-1.5 7.7-1.2 11.9 3-.3 5.9 1.5 6.7 4.5.9 3-.5 6.1-3.1 7.5 2 3.6 4.4 6.7 7.5 9.2 2-2.3 5.3-3 7.9-1.5 2.7 1.4 3.9 4.6 3.1 7.5 3.7 1.1 7.7 1.5 11.8 1.2-.3-3 1.5-5.9 4.5-6.7 3-.9 6.1.5 7.5 3.1 3.6-2 6.7-4.4 9.2-7.5-2.3-2-3-5.3-1.5-7.9 1.4-2.7 4.6-3.9 7.5-3.1 1.1-3.7 1.5-7.7 1.2-11.8-3 .3-5.7-1.6-6.7-4.6zM238 108.8c-8.8 2.6-17.8-2.4-20.5-11.1-2.6-8.8 2.4-17.8 11.1-20.5 8.8-2.6 17.8 2.4 20.5 11.1 2.5 8.8-2.4 17.9-11.1 20.5z"/><path class="st0" d="M205.7 71.4c.3-2 1.9-3.3 3.7-3.5-.2-2.6-.8-5-1.9-7.2-1.7.8-3.8.3-5-1.2s-1-3.7.2-5.1c-1.9-1.7-4-2.9-6.4-3.8-.6 1.8-2.5 2.9-4.3 2.7-2-.3-3.3-1.9-3.5-3.7-2.6.2-5 .8-7.2 1.9.8 1.7.3 3.8-1.2 5s-3.7 1-5.1-.2c-1.7 1.9-2.9 4-3.8 6.4 1.8.6 2.9 2.5 2.7 4.3-.3 2-1.9 3.3-3.7 3.5.2 2.6.8 5 1.9 7.2 1.7-.8 3.8-.3 5 1.2 1.1 1.5 1 3.7-.2 5.1 1.9 1.7 4 2.9 6.4 3.8.6-1.8 2.5-2.9 4.3-2.7 2 .3 3.3 1.9 3.5 3.7 2.6-.2 5-.8 7.2-1.9-.8-1.7-.3-3.8 1.2-5 1.5-1.1 3.7-1 5.1.2 1.7-1.9 2.9-4 3.8-6.4-1.8-.6-3-2.3-2.7-4.3zm-17.3 8c-5.7-.8-9.6-6-8.8-11.7s6-9.6 11.7-8.8 9.6 6 8.8 11.7c-.9 5.6-6 9.7-11.7 8.8z"/></g><g><path d="M368.6 93.4h-.1.1z" style="fill:#a6e4ff"/><path class="st5" d="M245 93.4H368.5c-6.8 0-12.3 5.5-12.3 12.3v160.1c0 8.5-6.8 15.3-15.3 15.3h-113V110.5c0-9.5 7.6-17.1 17.1-17.1z"/><path class="st7" d="M356.2 124.7v-19.1c0-6.8 5.5-12.3 12.3-12.3h.1c3.3 0 6.4 1.4 8.6 3.6 2.3 2.3 3.6 5.3 3.6 8.7v19.2l-24.6-.1zM322.6 259.1c.5 3.4 1.7 7.4 4.2 11.2 3.4 5.1 8.6 8.7 14.8 10.6H226.4c-2.8 0-5.5-.6-7.7-1.8-4.2-2.1-7.8-5.2-10.4-8.9-2.6-3.8-3.7-7.7-4.2-11.2l118.5.1z"/><path class="st0" d="M316 149.8h26.7M342.8 151.2h-26.7c-.8 0-1.4-.6-1.4-1.4s.6-1.4 1.4-1.4h26.7c.8 0 1.4.6 1.4 1.4.1.8-.5 1.4-1.4 1.4zM280.8 149.8h30.1M311 151.2h-30.1c-.8 0-1.4-.6-1.4-1.4s.6-1.4 1.4-1.4H311c.8 0 1.4.6 1.4 1.4 0 .8-.6 1.4-1.4 1.4zM280.8 142.1h61.9M342.8 143.5h-61.9c-.8 0-1.4-.6-1.4-1.4 0-.8.6-1.4 1.4-1.4h61.9c.8 0 1.4.6 1.4 1.4.1.8-.5 1.4-1.4 1.4zM280.8 157.5h45.5M326.3 159h-45.5c-.8 0-1.4-.6-1.4-1.4 0-.8.6-1.4 1.4-1.4h45.5c.8 0 1.4.6 1.4 1.4.1.8-.5 1.4-1.4 1.4zM280.8 235.2h61.9M342.8 236.7h-61.9c-.8 0-1.4-.6-1.4-1.4 0-.8.6-1.4 1.4-1.4h61.9c.8 0 1.4.6 1.4 1.4.1.7-.5 1.4-1.4 1.4zM280.8 227.5h61.9M342.8 228.9h-61.9c-.8 0-1.4-.6-1.4-1.4s.6-1.4 1.4-1.4h61.9c.8 0 1.4.6 1.4 1.4s-.5 1.4-1.4 1.4zM280.8 243h45.5M326.3 244.4h-45.5c-.8 0-1.4-.6-1.4-1.4 0-.8.6-1.4 1.4-1.4h45.5c.8 0 1.4.6 1.4 1.4.1.8-.5 1.4-1.4 1.4z"/><g><path class="st0" d="M302 193.3h40.9M342.8 194.9H302c-.8 0-1.4-.6-1.4-1.4s.6-1.4 1.4-1.4h40.9c.8 0 1.4.6 1.4 1.4 0 .7-.6 1.4-1.5 1.4z"/></g><g><path class="st0" d="M280.8 193.3h15.1M295.9 194.9h-15.1c-.8 0-1.4-.6-1.4-1.4s.6-1.4 1.4-1.4h15.1c.8 0 1.4.6 1.4 1.4 0 .7-.6 1.4-1.4 1.4z"/></g><g><path class="st0" d="M280.8 185.6h61.9M342.8 187h-61.9c-.8 0-1.4-.6-1.4-1.4 0-.8.6-1.4 1.4-1.4h61.9c.8 0 1.4.6 1.4 1.4.1.8-.5 1.4-1.4 1.4z"/></g><g><path class="st0" d="M280.8 201.1h45.5M326.3 202.6h-45.5c-.8 0-1.4-.6-1.4-1.4s.6-1.4 1.4-1.4h45.5c.8 0 1.4.6 1.4 1.4.1.7-.5 1.4-1.4 1.4z"/></g><g><path class="st0" d="M260.2 165h-11.7c-4 0-7.2-3.2-7.2-7.2v-9.9c0-4 3.2-7.2 7.2-7.2h11.7c4 0 7.2 3.2 7.2 7.2v9.9c0 3.9-3.2 7.2-7.2 7.2zm-11.6-22.4c-2.9 0-5.3 2.4-5.3 5.3v9.9c0 2.9 2.4 5.3 5.3 5.3h11.7c2.9 0 5.3-2.4 5.3-5.3v-9.9c0-2.9-2.4-5.3-5.3-5.3h-11.7z"/></g><g><path class="st0" d="M260.2 208.5h-11.7c-4 0-7.2-3.2-7.2-7.2v-9.9c0-4 3.2-7.2 7.2-7.2h11.7c4 0 7.2 3.2 7.2 7.2v9.9c0 4-3.2 7.2-7.2 7.2zm-11.6-22.4c-2.9 0-5.3 2.4-5.3 5.3v9.9c0 2.9 2.4 5.3 5.3 5.3h11.7c2.9 0 5.3-2.4 5.3-5.3v-9.9c0-2.9-2.4-5.3-5.3-5.3h-11.7z"/></g><g><path class="st0" d="M260.2 250.4h-11.7c-4 0-7.2-3.2-7.2-7.2v-9.9c0-4 3.2-7.2 7.2-7.2h11.7c4 0 7.2 3.2 7.2 7.2v9.9c0 3.9-3.2 7.2-7.2 7.2zM248.6 228c-2.9 0-5.3 2.4-5.3 5.3v9.9c0 2.9 2.4 5.3 5.3 5.3h11.7c2.9 0 5.3-2.4 5.3-5.3v-9.9c0-2.9-2.4-5.3-5.3-5.3h-11.7z"/></g><path class="st11" d="m245.6 151.4 9.5 3.5c.4.2.4.8-.1.9-.4.1-.7-.4-.4-.8l13.6-14.5c.4-.4 1 .1.7.6l-11.6 18-.1.2c-.6.9-1.9 1.1-2.7.6-.1-.1-.2-.1-.3-.2l-8.6-8.3zM245.6 195l9.5 3.5c.4.2.4.8-.1.9-.4.1-.7-.4-.4-.8l13.6-14.5c.4-.4 1 .1.7.6l-11.6 18-.1.2c-.6.9-1.9 1.1-2.7.6-.1-.1-.2-.1-.3-.2l-8.6-8.3zM245.6 236.9l9.5 3.5c.4.2.4.8-.1.9-.4.1-.7-.4-.4-.8l13.6-14.5c.4-.4 1 .1.7.6l-11.6 18-.1.2c-.6.9-1.9 1.1-2.7.6-.1-.1-.2-.1-.3-.2l-8.6-8.3z"/><g><path class="st12" d="M266.3 120c-.1 0-.2-.1-.3-.1.4-.2.8-.5 1-.9.3-.4.4-.9.4-1.5 0-.9-.3-1.5-1-2.2-.7-.5-1.8-.8-3.2-.8h-5.5v11.2h5.9c1.4 0 2.6-.3 3.4-.8.7-.5 1.1-1.3 1.1-2.3 0-.6-.2-1.2-.5-1.7-.3-.4-.7-.7-1.3-.9zm-3.4-3.6c.6 0 1.1.1 1.4.3.3.2.5.5.5 1 0 .4-.2.8-.5 1s-.8.3-1.4.3h-2.6v-2.7l2.6.1zm2 7c-.3.2-.8.3-1.5.3h-3.1v-2.8h3.1c.6 0 1.1.1 1.5.3.3.2.5.6.5 1 .1.7-.1 1-.5 1.2zM277.6 120.7c0 1-.2 1.9-.6 2.3-.4.5-1 .7-1.9.7s-1.4-.2-1.9-.7c-.4-.5-.6-1.2-.6-2.3v-6.2H270v6.3c0 1.7.4 3 1.3 3.8.9.9 2.2 1.3 3.7 1.3s2.9-.4 3.7-1.3c.9-.9 1.3-2.2 1.3-3.8v-6.3h-2.6v6.2h.2zM291.2 115.1c-.9-.5-2.1-.7-3.2-.7h-5.2v11.2h5.2c1.2 0 2.3-.2 3.2-.7.9-.5 1.7-1.1 2.2-2 .5-.8.8-1.9.8-3s-.3-2.2-.8-3c-.6-.6-1.3-1.4-2.2-1.8zm-.2 6.8c-.3.5-.7.9-1.3 1.2-.5.3-1.2.4-2 .4h-2.4v-7h2.4c.7 0 1.4.1 2 .4.5.3 1 .7 1.3 1.2s.4 1.1.4 1.9 0 1.4-.4 1.9zM299.1 117.5c.3-.3.7-.6 1.1-.7.4-.2.9-.3 1.4-.3.6 0 1.1.1 1.5.3.5.2.9.5 1.3.9l1.7-1.5c-.5-.6-1.2-1.1-2.1-1.4s-1.7-.5-2.7-.5c-.9 0-1.8.1-2.5.4s-1.4.7-2 1.2c-.5.5-1 1.1-1.3 1.9-.3.7-.4 1.4-.4 2.4 0 .8.1 1.7.4 2.4.3.7.7 1.3 1.2 1.9.5.5 1.2.9 2 1.2.7.3 1.5.4 2.5.4.8 0 1.7-.1 2.4-.4.8-.2 1.5-.6 2.2-1V120h-2.4v3.3c-.2.1-.3.2-.5.2-.5.2-1 .2-1.5.2s-1-.1-1.4-.3c-.4-.2-.8-.4-1.1-.7-.3-.3-.6-.7-.7-1.1-.2-.4-.3-.9-.3-1.4s.1-1 .3-1.4c.3-.7.5-1 .9-1.3zM311.1 121h5.2v-2h-5.2v-2.5h5.9v-2.1h-8.5v11.4h8.8v-2.2h-6.2zM318.1 114.4v2.2h3.6v9.2h2.6v-9.2h3.6v-2.2z"/></g></g><g><path d="M379 206.2c7.4-4.5 19-3.5 25.4 1.9 15.5 12.7 12 58.6-14.6 72.5-19.5 10.2-49.5 2.1-55.9-14-2.2-5.6-2.4-13.6 1.5-19.5 6.5-9.7 17.3-4.3 27.9-13.8 10.7-9.7 5.7-21 15.7-27.1z" style="fill:#ed648f"/><path class="st11" d="M391.4 237.8c3.2 2.7 3.2 6.4 3.1 7.7-.4 4.7-4.6 7.3-5.3 7.7-3.5 2.1-7.3 1.8-11.3 1.4-5.7-.4-5.8-1.9-9.5-1.7-6.7.3-9.4 5-12.3 3.7-2.4-.9-3.9-5.2-2.4-7.8 2.9-5.2 14.1 0 22.8-6.7 3.9-3 5.2-6.6 9.1-6.8 2.9 0 5.2 1.9 5.8 2.5z"/></g><g><path class="st14" d="M333.2 185.9c0-.6-.3-1.2-1-2.4-.3-.4-.5-.9-1-1.5-.5-.5-1-.9-1.3-1.2-.7-.4-1.3-.8-1.9-1.1 0 0-4.7-2.9-5.5-2.5l-.1.1c-.4.9 3.8 2.3 4 4.7.1 1.3-1 1.9-.6 2.8.4 1.1 2.1.7 4 2.5.7.7.8 1.1 1.3 1.1 1 .2 2.1-1.2 2.1-2.5z"/><path class="st15" d="M375.6 195c-4 1-10.3 2.1-18 1-13.2-1.9-21.9-9-25.3-12.2-.4.3-1.1.7-1.7 1.4-.9 1.2-1.1 2.5-1.1 3.1 3.7 4.4 12.5 13.5 26.3 16.7 13.1 3 28.6.2 29-3.5.3-1-1-3.1-9.2-6.5z"/><path class="st15" d="M390.6 208.2c-.6 7.7-2.3 8.7-2.3 16.3 0 1.3.1 1.3.2 7.3v1.2c.1 2.5.1 4.5.1 6-10.4-.6-20.9-1.3-31.4-2 12-12.4 14-20.2 13.4-25.2-.1-1-.8-5.8 1.1-11 1.4-3.9 3.3-5.3 4-5.8 3.1-2 6.3-1.3 6.8-1.2 3.7.8 5.6 3.6 6.1 4.4 2.4 3.4 2.2 7 2 10z"/><path class="st16" d="m373.2 230.8-21.6-.3c-.8 0-1.4.5-1.4 1.2s.6 1.2 1.4 1.2l21.6.3c.8 0 1.4-.5 1.4-1.2 0-.6-.7-1.2-1.4-1.2z"/><path class="st16" d="m361.5 233.2-22.8-.3c-.4 0-.7-.3-.7-.6-1-5.7-2-11.3-3-17-.1-.5.3-.9.8-.9l22.7.3c.4 0 .7.3.7.6l3 17c.2.3-.2.9-.7.9z"/><path d="m360.4 233.2-22.8-.3c-.4 0-.7-.3-.7-.6-1-5.7-2-11.3-3-17-.1-.5.3-.9.8-.9l22.7.3c.4 0 .7.3.7.6l3 17c.2.3-.2.9-.7.9z" style="fill:#8cdff2"/><path class="st0" d="M350.2 224.1c0 1.4-1.2 2.6-2.7 2.6-1.4 0-2.6-1.2-2.6-2.7s1.2-2.6 2.7-2.6c1.4.1 2.6 1.2 2.6 2.7z"/><path class="st14" d="M370 228.9c-.3.7-1.1.4-2.8 1.3-.7.4-1.2.8-1.9 1.3-1.2.9-1.2 1.2-2 1.5-.3.1-1.2.5-2.4.4-1.2-.2-2.5-.9-3-2.2-.8-1.8-.1-4.1 1.2-5 1.9-1.1 3.4 1.1 7 .3 1.3-.3 2.2-.8 2.9-.3 1.1.7 1.4 1.9 1 2.7z"/><path class="st18" d="M384.2 216.4c-.6 2.6-3.1 5.7-10.4 8.3 2-1.4 6.5-4.2 8-9.6.9-3.3.5-6.4-.2-8.9 1.7 3.2 3.5 6.8 2.6 10.2z"/><path class="st19" d="M364.1 233.2c-19 .6-27.3-2.1-31.2 3.6-.3.4-2.2 3.1-1.3 5.9 2.2 7.5 21.7 7.2 35.1 7 20.3-.3 22.9-4.2 23.6-5.8 1.3-2.8.8-6.5-1-9-3.4-4.2-9.7-2.2-25.2-1.7z"/><path class="st14" d="M360.9 250.5c-1.5 2.4-4.6 2.3-9.4 3.1-11.6 2.1-15.9 6.8-17.1 5.4-1.7-2.1 6.1-13.4 12.6-12.7 2.3.2 3.1 1.8 5.6 1.4 4.1-.5 5.5-5.4 7.3-4.8 1.6.4 2.7 4.9 1 7.6z"/><path class="st19" d="M383.3 245.8c-9.6 3.1-19.2 6.3-28.8 9.4-3.5-4.3-4.7-7.5-3.7-9.7 1.9-4.1 12.8-4 32.5.3z"/><path class="st15" d="M385 195.8c-1.7-.2-3.8.4-4.8 2-1.5 2.3-.2 5.2 1.4 8.4 1.7 3.3 3.5 6.9 2.7 10.2-.6 2.6-3.1 5.7-10.4 8.3-2.3.8-5 1.5-8.3 2.2-.2.3-.6 1.2-.4 2.4.2 1.5 1.1 2.5 1.4 2.7 5.6.2 10.8-.8 15.1-2.9.8-.4 1.5-.7 2.3-1.1 2.2-1.2 4-2.8 5.5-4.4.8-.9 1.4-1.9 2.1-2.9.6-1 1-2.1 1.3-3.2 2.6-8.8-2.3-20.9-7.9-21.7z"/><path class="st18" d="M388.5 233.1c-.8-.9-1.9-1.9-3.2-2.6-1.2-.7-2.5-1.1-3.8-1.3.8-.4 1.5-.7 2.3-1.1 1.7-.9 3.2-2.1 4.4-3.3 0 1.3.1 1.3.2 7.3.1.1.1.5.1 1z"/><g><path class="st14" d="M376.9 191.6c-.5 2.2-.3 3.9-.1 5.1.2 1.3 1.3 2.5 2.7 2.6 1.4.1 2.8-1 3-2.5.3-1.7.5-3.5.6-5.7.1-2.5-.1-4.6-.3-6.5-1 .4-4.8 2.5-5.9 7z"/><path class="st14" d="M374.4 181.6c-1 .8-1.4 2-1.9 3.1-.3 1-2.4 6.6.8 9.3 2.2 1.9 5.8 1.4 8-.1 3.4-2.3 5-7.6 2.4-10.9-2.3-2.9-6.9-3.3-9.3-1.4z"/><path class="st0" d="M373.8 192.5c.6.2 1.8.5 3.1.3 1-.1 1.8-.4 2.4-.7-.1.2-.7 1.4-2.1 1.9-1.2.3-2.6-.3-3.4-1.5z"/><path d="M382.7 184.9c-2.7-3.8-10-.6-12.1-3.9-1.1-1.9-.3-4.8 1.4-6.6 1.7-1.7 4-2.3 6.1-1.8 2.6.6 3.8 2.8 4 3.3.7 1.2.4 1.5 1.1 2.9 1.2 2.2 2.6 2.3 3.3 3.7 1.7 3.1-1.9 8.6-3 8.4-.6-.2.9-3.5-.8-6z" style="fill:#060352"/></g></g><g><path class="st7" d="m379.6 160.9-2.1 5.3-11-4.4 2.1-5.3 11 4.4zm-2.7 3.8 1.2-3.1-8.9-3.5-1.2 3.1 8.9 3.5z"/><path class="st7" d="M368.6 159.6c-1.1 2.9-2.9 5.5-5.1 7.7-2.1 2.2-4.5 3.8-7.3 5.1-2.8 1.2-5.7 1.9-8.7 1.9-3.1.1-6.2-.5-9.1-1.7-2.9-1.1-5.5-2.9-7.7-5.1-2.2-2.1-3.8-4.5-5.1-7.3-1.2-2.8-1.9-5.7-1.9-8.7-.1-3.1.5-6.2 1.7-9.1s2.9-5.5 5.1-7.7c2.1-2.2 4.5-3.8 7.3-5.1 2.8-1.2 5.7-1.9 8.7-1.9 3.1-.1 6.2.5 9.1 1.7 2.9 1.1 5.5 2.9 7.7 5.1 2.2 2.1 3.8 4.5 5.1 7.3 1.2 2.8 1.9 5.7 1.9 8.7 0 3.1-.5 6.2-1.7 9.1zm-42.1-16.7c-4.5 11.3 1 24.1 12.4 28.7 11.3 4.5 24.1-1 28.7-12.3 4.5-11.3-1-24.1-12.3-28.7-11.4-4.5-24.3.9-28.8 12.3zm39.1 15.6c-2 5-5.8 8.9-10.7 11-5 2.2-10.4 2.2-15.4.2s-8.9-5.8-11-10.7c-2.2-5-2.2-10.4-.2-15.4s5.8-8.9 10.7-11c5-2.2 10.4-2.2 15.4-.2s8.9 5.8 11 10.7 2.2 10.4.2 15.4zM329.5 144c-3.8 9.7.9 20.6 10.5 24.6 9.7 3.8 20.6-.9 24.6-10.5 3.8-9.7-.9-20.6-10.5-24.6-9.8-3.9-20.8.8-24.6 10.5z"/><path class="st7" d="M365.6 158.5c-2 5-5.8 8.9-10.7 11-5 2.2-10.4 2.2-15.4.2s-8.9-5.8-11-10.7c-2.2-5-2.2-10.4-.2-15.4s5.8-8.9 10.7-11c5-2.2 10.4-2.2 15.4-.2s8.9 5.8 11 10.7 2.2 10.4.2 15.4zM329.5 144c-3.8 9.7.9 20.6 10.5 24.6 9.7 3.8 20.6-.9 24.6-10.5 3.8-9.7-.9-20.6-10.5-24.6-9.8-3.9-20.8.8-24.6 10.5z" style="opacity:.53"/><path class="st7" d="M417.6 178.9c0 .1-.1.1-.1.2-.7 2-2.1 3.3-3.7 3.6-.6.1-1.3.1-2-.1-11.8-5.3-23.4-10.6-35.2-15.9l-.5-.2 2.6-6.5.5.2 36.3 12.6.2.1c.6.3 1.1.7 1.5 1.2 1.1 1.2 1.2 3 .4 4.8zm-1.1-.2c.6-1.5.6-3-.1-4-.3-.4-.6-.6-1-.9h-.1c-12-4.1-23.8-8.3-35.8-12.4l-1.8 4.4c11.6 5.3 23.1 10.4 34.7 15.7.5.1.9.2 1.3.1 1.1-.3 2.2-1.4 2.8-2.9zM359.2 140.1c0 .1-.1.1-.1.1-.2.2-.4.1-.6 0-1.5-1.7-3.5-3-5.7-3.8-.4-.2-.8-.3-1.2-.4-.2-.1-.3-.3-.3-.5.1-.2.3-.3.5-.3.4.1.8.3 1.2.4 2.3.9 4.3 2.3 6 4 .2.2.2.4.2.5zM348.4 135c-.1.2-.2.3-.4.3-4.5-.3-9 1.4-12.2 4.6-.2.2-.4.2-.6 0s-.2-.4 0-.6c3.4-3.4 8-5.2 12.8-4.8.2 0 .4.2.4.4v.1z"/></g><g><circle class="st5" cx="190.8" cy="153.5" r="22.7"/><circle class="st7" cx="190.8" cy="153.5" r="20.1"/><circle class="st4" cx="190.8" cy="153.5" r="18.9"/><path id="XMLID_00000118370622903765240480000018093170694852252586_" class="st7" d="M200.2 159c.1 1.3-.1 2.5-.5 3.6-.4 1-1 2-2 2.7-.8.7-1.9 1.3-3.1 1.8-.4.1-.9.3-1.3.4v.9c0 .7-.5 1.2-1.1 1.3h-.9c-.6 0-1.2-.5-1.3-1.2v-.7c-.6 0-1.3 0-2-.1-.8-.1-1.5-.2-2.3-.4-.6-.2-1.2-.4-1.7-.6-.5-.2-.8-.4-1-.6s-.4-.4-.5-.8c-.1-.3-.2-.8-.2-1.3v-.9c0-.3.1-.4.1-.6 0-.2.1-.3.2-.3.1-.1.2-.1.3-.1.2 0 .5.1.9.3s.9.5 1.5.8c.6.2 1.3.5 2.2.7.8.2 1.8.3 2.9.2.8 0 1.5-.2 2.2-.4.6-.2 1.2-.4 1.7-.8s.8-.8 1-1.3.3-1.1.3-1.9-.2-1.3-.6-1.8c-.4-.5-.9-.8-1.5-1.2-.6-.3-1.3-.6-2.2-.9-.7-.3-1.5-.5-2.4-.8s-1.7-.6-2.5-.9c-.8-.4-1.5-.8-2.2-1.4-.6-.6-1.1-1.2-1.5-2.1-.4-.8-.6-1.8-.7-2.9-.1-1 .1-2 .4-3 .3-.9.9-1.8 1.7-2.5.7-.7 1.8-1.3 2.9-1.9.4-.2.9-.3 1.4-.5l-.1-1.2c0-.7.5-1.2 1.1-1.3h.9c.6 0 1.2.5 1.3 1.1v1c.4 0 .8 0 1.3.1.7.1 1.3.2 1.9.4.5.1 1 .3 1.4.5s.7.4.9.5.3.3.4.4c.1.1.1.2.2.4 0 .1.1.3.1.5s.1.4.1.7v.8c0 .2-.1.4-.1.6-.1.2-.1.3-.2.3-.1.1-.2.1-.3.1-.2 0-.4-.1-.7-.3s-.7-.4-1.3-.6c-.5-.2-1.1-.4-1.9-.5-.7-.2-1.5-.3-2.4-.2-.8 0-1.5.2-2.2.4-.6.2-1.1.5-1.4.8-.4.3-.7.7-.8 1.2-.2.5-.3.9-.2 1.5 0 .7.3 1.3.6 1.9.4.5.9.9 1.5 1.2s1.3.6 2.2.9c.8.3 1.7.5 2.5.8s1.7.6 2.5.9c.8.3 1.5.8 2.2 1.3.6.5 1.1 1.2 1.5 2 .6.9.8 1.9.8 3z"/><path class="st0" d="M183.2 139.7c-5.6.3-5.8.6-6.2 6.2-.3-5.6-.6-5.8-6.2-6.2 5.6-.3 5.8-.6 6.2-6.2.4 5.6.7 5.9 6.2 6.2z"/></g><g><path class="st5" d="M441.5 76.1c0 13.2-10.7 23.9-23.9 23.9s-23.9-10.7-23.9-23.9c0-12.8 10-23.3 22.7-23.9.4 7.9.8 16 1.3 23.9l21-11.5c1.6 3.6 2.8 7.4 2.8 11.5z"/><path class="st7" d="m442.8 57.8-21 11.5c-.4-7.9-.8-16-1.3-23.9h1.3c9-.2 17 4.8 21 12.4z"/></g><path style="fill:#00d7ff" d="M16 306 137.6 0h-16L0 306z"/></svg>