<?xml version="1.0" encoding="utf-8"?>
<!-- Generator: Adobe Illustrator 24.3.0, SVG Export Plug-In . SVG Version: 6.00 Build 0)  -->
<svg version="1.1" id="Layer_1" xmlns="http://www.w3.org/2000/svg" xmlns:xlink="http://www.w3.org/1999/xlink" x="0px" y="0px"
	 viewBox="0 0 580 306" style="enable-background:new 0 0 580 306;" xml:space="preserve">
<style type="text/css">
	.st0{fill:#FFFFFF;}
	.st1{fill:#019588;}
	.st2{fill:#9DEAD6;}
	.st3{fill:#0062E0;}
	.st4{fill:#579BE5;}
	.st5{fill:#054AA7;}
	.st6{opacity:0.9;}
	.st7{fill:#6D4D42;}
	.st8{fill:#724B44;}
	.st9{fill:#604038;}
	.st10{fill:#603C32;}
	.st11{fill:#562013;}
	.st12{fill:#4489E4;}
	.st13{fill:#0352B9;}
	.st14{fill:#4169E1;}
</style>
<polygon class="st0" points="137.9,0 16.3,306 582.3,306 582.3,0 "/>
<g>
	<g>
		<g>
			<g>
				<g>
					<ellipse class="st1" cx="344" cy="255.6" rx="227.6" ry="24.7"/>
				</g>
			</g>
		</g>
	</g>
	<g>
		<g>
			<g>
				<g>
					<g>
						<g>
							<polygon class="st2" points="476.8,133.8 476.8,241.1 295,241.1 295,93.3 297.6,91.6 343.1,60.3 426.2,60.3 451.7,78.7 
															"/>
						</g>
					</g>
				</g>
			</g>
			<g>
				<g>
					<g>
						<g>
							<polygon class="st3" points="484.8,151.3 476.8,151.2 297.6,149.7 297.6,60.3 443.3,60.3 451.7,78.7 476.8,133.8 							"/>
						</g>
					</g>
				</g>
			</g>
			<g>
				<g>
					<g>
						<g>
							<g>
								<polygon class="st4" points="348.2,97.2 348.2,241.1 166.4,241.1 166.4,93.8 257,31.4 								"/>
							</g>
						</g>
					</g>
				</g>
			</g>
			<g>
				<g>
					<g>
						<g>
							<polygon class="st2" points="348.2,131.5 348.2,241.1 166.4,241.1 166.4,128.1 257,65.7 							"/>
						</g>
					</g>
				</g>
			</g>
			<g>
				<g>
					<g>
						<g>
							<rect x="348.2" y="150.2" class="st5" width="14.4" height="90.9"/>
						</g>
					</g>
				</g>
			</g>
			<g class="st6">
				<g>
					<g>
						<g>
							<g>
								<rect x="348.2" y="116.1" class="st5" width="14.4" height="34.1"/>
							</g>
						</g>
					</g>
				</g>
			</g>
			<g>
				<g>
					<g>
						<g>
							<path class="st5" d="M376,121.2c0,2.3-0.9,4.7-2.9,6.5c-3,2.7-7.5,3-10.9,0.7l-14-9.7L257,54.9l-90.5,63.9l-11.1,7.8
								c-1.8,1.3-4,1.9-6.1,1.9c-3.1,0-6.2-1.4-8.3-4c-3.8-4.8-2.7-11.8,2.3-15.2l23.1-15.9L257,31l91.3,65.8l24.1,17.4
								C374.7,115.9,376,118.5,376,121.2z"/>
						</g>
					</g>
				</g>
			</g>
		</g>
		<g>
			<g>
				<g>
					<g>
						<g>
							<path class="st7" d="M296,242.1h-73.1v-11.8c0-1.7,1.4-3.1,3.1-3.1h66.9c1.7,0,3.1,1.4,3.1,3.1V242.1z"/>
						</g>
					</g>
				</g>
			</g>
			<g>
				<g>
					<g>
						<g>
							<path class="st7" d="M286,227.2h-52.4v-74.8c0-0.6,0.5-1.1,1.1-1.1H285c0.6,0,1.1,0.5,1.1,1.1v74.8H286z"/>
						</g>
					</g>
				</g>
			</g>
		</g>
		<g>
			<g>
				<g>
					<g>
						<g>
							<path class="st0" d="M432.5,224.1H404v-54.7c0-3.2,2.6-5.8,5.8-5.8h16.9c3.2,0,5.8,2.6,5.8,5.8L432.5,224.1L432.5,224.1z"/>
						</g>
					</g>
				</g>
			</g>
			<g>
				<g>
					<g>
						<g>
							<g>
								<path class="st8" d="M431.1,222.7h-25.6v-52.5c0-2.9,2.3-5.2,5.2-5.2h15.2c2.9,0,5.2,2.3,5.2,5.2L431.1,222.7L431.1,222.7z"
									/>
							</g>
						</g>
					</g>
				</g>
				<g>
					<g>
						<g>
							<g>
								<g>
									<rect x="417.2" y="165" class="st0" width="2.1" height="57.7"/>
								</g>
							</g>
						</g>
					</g>
				</g>
				<g>
					<g>
						<g>
							<g>
								<g>
									<rect x="405.5" y="194.6" class="st0" width="25.6" height="2.1"/>
								</g>
							</g>
						</g>
					</g>
				</g>
			</g>
		</g>
		<g>
			<g>
				<g>
					<g>
						<g>
							<path class="st0" d="M326.9,193h-20.4v-39.1c0-2.3,1.8-4.1,4.1-4.1h12.1c2.3,0,4.1,1.8,4.1,4.1L326.9,193L326.9,193z"/>
						</g>
					</g>
				</g>
			</g>
			<g>
				<g>
					<g>
						<g>
							<g>
								<path class="st8" d="M325.9,192h-18.3v-37.5c0-2.1,1.7-3.7,3.7-3.7h10.9c2.1,0,3.7,1.7,3.7,3.7L325.9,192L325.9,192z"/>
							</g>
						</g>
					</g>
				</g>
				<g>
					<g>
						<g>
							<g>
								<g>
									<rect x="316" y="150.8" class="st0" width="1.5" height="41.2"/>
								</g>
							</g>
						</g>
					</g>
				</g>
				<g>
					<g>
						<g>
							<g>
								<g>
									<rect x="307.6" y="171.9" class="st0" width="18.3" height="1.5"/>
								</g>
							</g>
						</g>
					</g>
				</g>
			</g>
		</g>
		<g>
			<g>
				<g>
					<g>
						<g>
							<path class="st0" d="M212,193h-20.4v-39.1c0-2.3,1.8-4.1,4.1-4.1h12.1c2.3,0,4.1,1.8,4.1,4.1L212,193L212,193z"/>
						</g>
					</g>
				</g>
			</g>
			<g>
				<g>
					<g>
						<g>
							<g>
								<path class="st8" d="M211,192h-18.3v-37.5c0-2.1,1.7-3.7,3.7-3.7h10.9c2.1,0,3.7,1.7,3.7,3.7L211,192L211,192z"/>
							</g>
						</g>
					</g>
				</g>
				<g>
					<g>
						<g>
							<g>
								<g>
									<rect x="201.1" y="150.8" class="st0" width="1.5" height="41.2"/>
								</g>
							</g>
						</g>
					</g>
				</g>
				<g>
					<g>
						<g>
							<g>
								<g>
									<rect x="192.7" y="171.9" class="st0" width="18.3" height="1.5"/>
								</g>
							</g>
						</g>
					</g>
				</g>
			</g>
		</g>
		<g>
			<g>
				<g>
					<g>
						<g>
							<path class="st0" d="M282.6,127.7h-46.4c0-12.8,10.4-23.2,23.2-23.2C272.2,104.5,282.6,114.9,282.6,127.7z"/>
						</g>
					</g>
				</g>
			</g>
			<g>
				<g>
					<g>
						<g>
							<path class="st8" d="M281.4,127.7h-44c0-12.2,9.9-22,22-22C271.6,105.7,281.4,115.6,281.4,127.7z"/>
						</g>
					</g>
				</g>
			</g>
			<g>
				<g>
					<g>
						<g>
							<g>
								<polygon class="st0" points="259.1,128.4 258.8,105.7 259.4,105.7 259.7,127.1 275.9,113.2 276.3,113.6 								"/>
							</g>
						</g>
					</g>
				</g>
			</g>
			<g>
				<g>
					<g>
						<g>
							<g>
								
									<rect x="250.8" y="109.8" transform="matrix(0.626 -0.7799 0.7799 0.626 -0.32 240.9756)" class="st0" width="0.6" height="22"/>
							</g>
						</g>
					</g>
				</g>
			</g>
		</g>
	</g>
	<g>
		<g>
			<g>
				<g>
					<g>
						<g>
							<polygon class="st9" points="476.7,245.2 484.6,245.2 484.6,181.1 480.7,176.7 476.7,181.1 							"/>
						</g>
					</g>
				</g>
			</g>
			<g>
				<g>
					<g>
						<g>
							<polygon class="st9" points="489.7,245.2 497.7,245.2 497.7,181.1 493.7,176.7 489.7,181.1 							"/>
						</g>
					</g>
				</g>
			</g>
			<g>
				<g>
					<g>
						<g>
							<polygon class="st9" points="502.8,245.2 510.7,245.2 510.7,181.1 506.8,176.7 502.8,181.1 							"/>
						</g>
					</g>
				</g>
			</g>
			<g>
				<g>
					<g>
						<g>
							<polygon class="st9" points="515.8,245.2 523.8,245.2 523.8,181.1 519.8,176.7 515.8,181.1 							"/>
						</g>
					</g>
				</g>
			</g>
			<g>
				<g>
					<g>
						<g>
							<polygon class="st9" points="528.9,245.2 536.8,245.2 536.8,181.1 532.9,176.7 528.9,181.1 							"/>
						</g>
					</g>
				</g>
			</g>
			<g>
				<g>
					<g>
						<g>
							<polygon class="st9" points="541.9,245.2 549.9,245.2 549.9,181.1 545.9,176.7 541.9,181.1 							"/>
						</g>
					</g>
				</g>
			</g>
		</g>
		<g>
			<g>
				<g>
					<g>
						<rect x="476.7" y="194.2" class="st9" width="73.2" height="1.9"/>
					</g>
				</g>
			</g>
		</g>
		<g>
			<g>
				<g>
					<g>
						<rect x="476.7" y="227.2" class="st9" width="73.2" height="1.9"/>
					</g>
				</g>
			</g>
		</g>
	</g>
	<g>
		<g>
			<g>
				<g>
					<g>
						<g>
							<rect x="170.6" y="189.1" class="st10" width="3.1" height="7.7"/>
						</g>
					</g>
				</g>
			</g>
			<g>
				<g>
					<g>
						<g>
							<rect x="203.2" y="189.1" class="st10" width="3.1" height="7.7"/>
						</g>
					</g>
				</g>
			</g>
			<g>
				<g>
					<g>
						<g>
							<rect x="169.7" y="195.9" class="st11" width="37.6" height="22"/>
						</g>
					</g>
				</g>
			</g>
			<g>
				<g>
					<g>
						<g>
							<rect x="170.6" y="196.8" class="st12" width="35.7" height="20.2"/>
						</g>
					</g>
				</g>
			</g>
			<g>
				<g>
					<g>
						<g>
							<g>
								<path class="st0" d="M171.3,208.9l1.8-0.4c0.2,1,1.1,1.5,2.5,1.5c0.7,0,1.2-0.1,1.5-0.4c0.4-0.3,0.5-0.6,0.5-1
									c0-0.3-0.1-0.5-0.2-0.8c-0.2-0.2-0.5-0.4-1-0.6l-2-0.5c-0.7-0.2-1.2-0.4-1.5-0.6c-0.3-0.2-0.6-0.5-0.8-1
									c-0.2-0.4-0.3-0.8-0.3-1.3c0-0.9,0.3-1.7,1-2.2c0.7-0.6,1.6-0.8,2.6-0.8c0.9,0,1.7,0.2,2.4,0.6c0.7,0.4,1.1,0.9,1.3,1.7
									l-1.8,0.4c-0.3-0.8-0.9-1.2-1.9-1.2c-0.6,0-1,0.1-1.3,0.4c-0.3,0.2-0.5,0.6-0.5,0.9c0,0.6,0.5,1,1.4,1.2l1.8,0.4
									c1.1,0.3,1.8,0.7,2.1,1.2c0.4,0.5,0.5,1.1,0.5,1.7c0,1-0.4,1.8-1.1,2.4c-0.8,0.6-1.8,0.9-3,0.9c-1,0-1.9-0.2-2.7-0.6
									C172.1,210.4,171.5,209.8,171.3,208.9z"/>
							</g>
						</g>
					</g>
				</g>
				<g>
					<g>
						<g>
							<g>
								<path class="st0" d="M189.3,211.4h-2l-0.8-2.5h-4l-0.8,2.5h-1.6l3.4-10.4h2.3L189.3,211.4z M186,207.4l-1.5-4.6l-1.5,4.6
									H186z"/>
							</g>
						</g>
					</g>
				</g>
				<g>
					<g>
						<g>
							<g>
								<path class="st0" d="M196.9,211.4h-6.4V201h2v8.7h4.4V211.4z"/>
							</g>
						</g>
					</g>
				</g>
				<g>
					<g>
						<g>
							<g>
								<path class="st0" d="M205,211.4h-6.7V201h6.7v1.5h-4.8v2.8h3.9v1.5h-3.9v2.9h4.9L205,211.4L205,211.4z"/>
							</g>
						</g>
					</g>
				</g>
			</g>
		</g>
		<g>
			<g>
				<g>
					<g>
						<g>
							<g>
								<rect x="161.3" y="184.5" class="st10" width="3.9" height="81.8"/>
							</g>
						</g>
					</g>
				</g>
				<g>
					<g>
						<g>
							<g>
								<rect x="159.9" y="184.5" class="st10" width="6.6" height="33.1"/>
							</g>
						</g>
					</g>
				</g>
				<g>
					<g>
						<g>
							<g>
								<rect x="160.2" y="187" class="st10" width="49.8" height="3.9"/>
							</g>
						</g>
					</g>
				</g>
			</g>
		</g>
	</g>
	<g>
		<g>
			<g>
				<g>
					<g>
						<g>
							<g>
								<path class="st5" d="M220.4,261.8c-0.1-0.2-10.1-22.6-16.2-26.6l0.1-0.1c2.6,1.7,6.1,6.7,10.5,14.9
									c3.3,6.1,5.8,11.8,5.8,11.8L220.4,261.8z"/>
							</g>
						</g>
					</g>
				</g>
			</g>
			<g>
				<g>
					<g>
						<g>
							<path class="st13" d="M205,235.7c0-0.1-0.2-0.4-0.4-0.7s-0.5-0.6-0.8-0.9c-0.3-0.3-0.7-0.5-1.1-0.6c-0.4-0.1-0.7-0.1-1,0.1
								c-0.2,0.2-0.2,0.5,0,0.8s0.7,0.6,1.3,0.9c0.6,0.3,1.1,0.4,1.4,0.5C204.9,235.8,205,235.8,205,235.7z"/>
						</g>
					</g>
				</g>
			</g>
			<g>
				<g>
					<g>
						<g>
							<path class="st13" d="M224.3,253.6c-0.2-1-1-1.7-2-1.6c-1,0-1.8,0.2-2.4,1c-0.6,0.9-1,2.4-1,3.6c0,0.9,0.1,1.7,0.3,2.5
								c-0.4-0.7-0.9-1.4-1.5-2c-0.8-0.9-2.2-1.7-3.2-1.9s-1.8,0.2-2.5,0.9c-0.7,0.7-0.9,1.6-0.3,2.5c0.5,0.9,1.8,1.7,3.3,2.4
								c1.5,0.6,3,1,4,1.2c0.8,0.1,1.3,0.1,1.4-0.1c0.3,0,0.6-0.4,1-0.9c0.6-0.8,1.4-2.1,2.1-3.6C224.2,256,224.5,254.6,224.3,253.6
								z"/>
						</g>
					</g>
				</g>
			</g>
			<g>
				<g>
					<g>
						<g>
							<path class="st13" d="M219.5,246.8c-0.2-0.7-0.9-1.1-1.8-1.1c-0.9,0-1.7,0.1-2.2,0.6c-0.6,0.5-0.9,1.5-0.9,2.3
								c0,0.6,0.2,1.1,0.3,1.6c-0.4-0.4-0.8-0.9-1.4-1.3c-0.8-0.6-2-1.1-3-1.3c-1-0.1-1.6,0.1-2.3,0.6c-0.7,0.4-0.8,1-0.2,1.6
								c0.5,0.6,1.6,1.1,3.1,1.5c1.4,0.4,2.8,0.7,3.7,0.8c0.7,0.1,1.2,0.1,1.3,0c0.2,0,0.5-0.2,0.9-0.6c0.5-0.5,1.3-1.3,1.9-2.2
								C219.5,248.4,219.7,247.5,219.5,246.8z"/>
						</g>
					</g>
				</g>
			</g>
			<g>
				<g>
					<g>
						<g>
							<path class="st13" d="M214.5,239.8c-0.3-0.5-1-0.7-1.8-0.5s-1.5,0.4-1.9,0.9s-0.6,1.4-0.4,2c0.1,0.4,0.3,0.8,0.5,1.2
								c-0.4-0.3-0.9-0.6-1.5-0.8c-0.8-0.3-2-0.6-2.9-0.5s-1.5,0.4-2,0.8c-0.5,0.4-0.5,1,0,1.3c0.6,0.4,1.7,0.6,3,0.7
								c1.4,0.1,2.6,0.1,3.5,0c0.7-0.1,1.1-0.1,1.2-0.3c0.2-0.1,0.5-0.3,0.8-0.6c0.4-0.5,1-1.3,1.4-2.1
								C214.7,241.1,214.8,240.3,214.5,239.8z"/>
						</g>
					</g>
				</g>
			</g>
			<g>
				<g>
					<g>
						<g>
							<path class="st13" d="M210.6,235.3c-0.3-0.4-0.9-0.6-1.6-0.5c-0.7,0.1-1.3,0.3-1.7,0.8s-0.5,1.2-0.4,1.7
								c0.1,0.4,0.3,0.7,0.5,1.1c-0.4-0.2-0.8-0.5-1.3-0.7c-0.7-0.3-1.8-0.5-2.6-0.4c-0.8,0-1.3,0.3-1.7,0.7c-0.5,0.4-0.5,0.8,0,1.2
								c0.5,0.3,1.5,0.5,2.6,0.6c1.2,0.1,2.3,0,3,0c0.6,0,0.9-0.1,1.1-0.2c0.2,0,0.4-0.2,0.7-0.5c0.4-0.4,0.8-1.1,1.2-1.8
								C210.8,236.4,210.9,235.7,210.6,235.3z"/>
						</g>
					</g>
				</g>
			</g>
		</g>
		<g>
			<g>
				<g>
					<g>
						<g>
							<g>
								<path class="st5" d="M219.9,261.9h-0.2c0-0.1,0.5-6.3,1.5-13.1c1.3-9.2,3-15.1,4.8-17.5l0.1,0.1
									C221.7,237.1,219.9,261.6,219.9,261.9z"/>
							</g>
						</g>
					</g>
				</g>
			</g>
			<g>
				<g>
					<g>
						<g>
							<path class="st13" d="M225.5,232c0-0.1,0.1-0.4,0.2-0.7c0.1-0.3,0.2-0.7,0.4-1.1c0.2-0.4,0.5-0.7,0.8-1
								c0.3-0.2,0.7-0.3,0.9-0.2c0.3,0.1,0.4,0.4,0.2,0.7c-0.1,0.4-0.5,0.8-0.9,1.2s-0.9,0.8-1.2,1
								C225.7,232.1,225.5,232.2,225.5,232z"/>
						</g>
					</g>
				</g>
			</g>
			<g>
				<g>
					<g>
						<g>
							<path class="st13" d="M213.4,255.4c-0.2-1,0.3-1.9,1.3-2.2c0.9-0.3,1.8-0.4,2.6,0.2c0.9,0.6,1.8,1.9,2.2,3.1
								c0.3,0.8,0.4,1.7,0.5,2.4c0.2-0.8,0.4-1.6,0.7-2.4c0.5-1.1,1.4-2.4,2.4-2.9c0.9-0.5,1.7-0.4,2.6,0c0.9,0.4,1.4,1.3,1.1,2.3
								c-0.2,1-1.1,2.2-2.3,3.3s-2.5,1.9-3.3,2.4c-0.7,0.4-1.1,0.5-1.4,0.4c-0.3,0.1-0.7-0.1-1.3-0.5c-0.8-0.5-2-1.5-3.2-2.6
								C214.4,257.7,213.6,256.5,213.4,255.4z"/>
						</g>
					</g>
				</g>
			</g>
			<g>
				<g>
					<g>
						<g>
							<path class="st13" d="M215.6,247.5c0-0.7,0.5-1.3,1.4-1.6s1.6-0.5,2.3-0.2s1.4,1.1,1.6,1.8c0.2,0.5,0.2,1.1,0.2,1.6
								c0.2-0.5,0.5-1.1,0.9-1.7c0.5-0.8,1.5-1.7,2.4-2.2c0.8-0.5,1.6-0.4,2.3-0.3c0.8,0.2,1.1,0.7,0.8,1.4s-1.2,1.6-2.4,2.5
								s-2.4,1.6-3.2,2c-0.7,0.3-1.1,0.5-1.3,0.4c-0.2,0.1-0.6,0-1.1-0.2c-0.7-0.3-1.6-0.8-2.5-1.5
								C216.2,248.9,215.6,248.1,215.6,247.5z"/>
						</g>
					</g>
				</g>
			</g>
			<g>
				<g>
					<g>
						<g>
							<path class="st13" d="M218,239.1c0.1-0.6,0.7-1,1.5-1.1s1.6-0.2,2.1,0.2c0.6,0.4,1,1.1,1.1,1.7c0,0.5,0,0.9-0.1,1.3
								c0.3-0.4,0.7-0.8,1.1-1.2c0.6-0.6,1.7-1.2,2.6-1.5c0.9-0.3,1.5-0.1,2.2,0.1c0.7,0.2,0.8,0.7,0.4,1.3
								c-0.4,0.5-1.4,1.1-2.6,1.7c-1.2,0.5-2.5,0.9-3.3,1.2c-0.7,0.2-1.1,0.2-1.2,0.2c-0.2,0-0.5-0.1-0.9-0.3
								c-0.6-0.3-1.3-0.9-2-1.5C218.2,240.4,217.8,239.7,218,239.1z"/>
						</g>
					</g>
				</g>
			</g>
			<g>
				<g>
					<g>
						<g>
							<path class="st13" d="M220.1,233.6c0.1-0.5,0.6-0.9,1.3-1s1.4-0.1,1.9,0.2s0.9,0.9,0.9,1.5c0,0.4,0,0.8-0.1,1.2
								c0.3-0.3,0.6-0.7,1-1.1c0.6-0.5,1.5-1.1,2.3-1.3c0.7-0.2,1.3-0.1,1.9,0.1c0.6,0.2,0.7,0.6,0.4,1.1s-1.2,1-2.3,1.5
								s-2.1,0.8-2.9,1c-0.6,0.2-0.9,0.2-1.1,0.1c-0.2,0-0.5-0.1-0.8-0.3c-0.5-0.3-1.2-0.7-1.7-1.3
								C220.3,234.7,220,234.1,220.1,233.6z"/>
						</g>
					</g>
				</g>
			</g>
		</g>
	</g>
	<g>
		<g>
			<g>
				<g>
					<g>
						<g>
							<g>
								<path class="st5" d="M380.4,255.1c0-0.2-1.6-20-5.2-24.7l0.1-0.1c1.5,2,2.9,6.8,4,14.2c0.8,5.5,1.2,10.6,1.2,10.6H380.4z"/>
							</g>
						</g>
					</g>
				</g>
			</g>
			<g>
				<g>
					<g>
						<g>
							<path class="st13" d="M375.7,231c0-0.1,0-0.3-0.1-0.6s-0.2-0.6-0.4-0.9c-0.2-0.3-0.4-0.6-0.6-0.8c-0.3-0.2-0.5-0.3-0.8-0.2
								c-0.2,0.1-0.3,0.3-0.2,0.6c0.1,0.3,0.4,0.7,0.7,1c0.4,0.3,0.7,0.6,1,0.8C375.6,231,375.7,231.1,375.7,231z"/>
						</g>
					</g>
				</g>
			</g>
			<g>
				<g>
					<g>
						<g>
							<path class="st13" d="M385.6,249.9c0.1-0.8-0.3-1.5-1-1.8c-0.8-0.3-1.4-0.4-2.1,0.1s-1.4,1.6-1.7,2.5c-0.2,0.7-0.4,1.4-0.4,2
								c-0.1-0.6-0.3-1.3-0.6-1.9c-0.4-0.9-1.2-1.9-1.9-2.3c-0.7-0.4-1.4-0.3-2.1,0s-1.1,1-0.9,1.9c0.2,0.8,0.9,1.8,1.9,2.7
								s2,1.6,2.7,2c0.6,0.3,0.9,0.4,1.1,0.3c0.2,0,0.5-0.1,1-0.4c0.7-0.4,1.6-1.2,2.6-2.2C384.8,251.8,385.5,250.7,385.6,249.9z"/>
						</g>
					</g>
				</g>
			</g>
			<g>
				<g>
					<g>
						<g>
							<path class="st13" d="M383.7,243.5c0-0.6-0.4-1.1-1.1-1.3c-0.7-0.3-1.3-0.4-1.9-0.1c-0.6,0.3-1.1,0.9-1.3,1.5
								c-0.1,0.4-0.2,0.9-0.2,1.3c-0.2-0.4-0.4-0.9-0.7-1.3c-0.4-0.6-1.2-1.4-1.9-1.8c-0.7-0.4-1.3-0.3-1.9-0.2s-0.9,0.6-0.6,1.2
								c0.2,0.6,0.9,1.3,1.9,2s1.9,1.3,2.6,1.6c0.5,0.3,0.9,0.4,1,0.3c0.2,0.1,0.5,0,0.9-0.2c0.5-0.2,1.3-0.6,2-1.2
								C383.3,244.6,383.7,244,383.7,243.5z"/>
						</g>
					</g>
				</g>
			</g>
			<g>
				<g>
					<g>
						<g>
							<path class="st13" d="M381.8,236.7c-0.1-0.5-0.6-0.8-1.3-0.9c-0.7-0.1-1.3-0.1-1.7,0.2c-0.5,0.3-0.8,0.9-0.9,1.4
								c0,0.4,0,0.7,0.1,1.1c-0.2-0.3-0.5-0.7-0.9-1c-0.5-0.5-1.4-1-2.1-1.2s-1.2-0.1-1.8,0.1c-0.5,0.2-0.7,0.6-0.3,1
								c0.3,0.4,1.1,0.9,2.1,1.4c1,0.4,2,0.8,2.7,0.9c0.5,0.1,0.9,0.2,1,0.1c0.2,0,0.4-0.1,0.8-0.3c0.4-0.3,1.1-0.7,1.6-1.2
								C381.6,237.7,381.9,237.2,381.8,236.7z"/>
						</g>
					</g>
				</g>
			</g>
			<g>
				<g>
					<g>
						<g>
							<path class="st13" d="M380.1,232.2c-0.1-0.4-0.5-0.7-1.1-0.8s-1.1-0.1-1.5,0.1c-0.4,0.3-0.7,0.8-0.8,1.2c0,0.3,0,0.6,0.1,0.9
								c-0.2-0.3-0.5-0.6-0.8-0.9c-0.4-0.4-1.2-0.8-1.8-1c-0.6-0.2-1.1-0.1-1.5,0.1c-0.5,0.2-0.6,0.5-0.3,0.9c0.3,0.4,1,0.8,1.9,1.2
								s1.7,0.7,2.3,0.8c0.5,0.1,0.7,0.2,0.9,0.1c0.2,0,0.4-0.1,0.7-0.2c0.4-0.2,0.9-0.6,1.4-1.1
								C379.9,233.1,380.2,232.6,380.1,232.2z"/>
						</g>
					</g>
				</g>
			</g>
		</g>
		<g>
			<g>
				<g>
					<g>
						<g>
							<g>
								<path class="st5" d="M380,255l-0.1-0.1c0,0,2-4.7,4.7-9.6c3.5-6.7,6.4-10.7,8.4-12.1l0.1,0.1C388.1,236.7,380,254.9,380,255
									z"/>
							</g>
						</g>
					</g>
				</g>
			</g>
			<g>
				<g>
					<g>
						<g>
							<path class="st13" d="M392.3,233.8c0-0.1,0.1-0.3,0.3-0.5c0.2-0.2,0.4-0.5,0.7-0.8c0.3-0.3,0.6-0.4,0.9-0.5s0.6-0.1,0.8,0.1
								c0.2,0.1,0.2,0.4,0,0.6c-0.2,0.2-0.6,0.5-1,0.7c-0.5,0.2-0.9,0.4-1.2,0.4C392.4,233.9,392.3,233.9,392.3,233.8z"/>
						</g>
					</g>
				</g>
			</g>
			<g>
				<g>
					<g>
						<g>
							<path class="st13" d="M376.8,248.4c0.2-0.8,0.8-1.3,1.6-1.3c0.8,0,1.5,0.1,2,0.8s0.8,1.9,0.8,2.9c0,0.7-0.1,1.4-0.2,2
								c0.3-0.5,0.7-1.1,1.2-1.6c0.7-0.7,1.7-1.4,2.6-1.6c0.8-0.2,1.4,0.2,2,0.7s0.7,1.3,0.2,2.1c-0.4,0.7-1.4,1.4-2.6,1.9
								s-2.4,0.8-3.2,1c-0.6,0.1-1,0.1-1.2-0.1c-0.2,0-0.5-0.3-0.8-0.7c-0.5-0.6-1.1-1.7-1.7-2.9
								C376.9,250.4,376.6,249.2,376.8,248.4z"/>
						</g>
					</g>
				</g>
			</g>
			<g>
				<g>
					<g>
						<g>
							<path class="st13" d="M380.6,242.9c0.2-0.5,0.7-0.9,1.5-0.9c0.7,0,1.4,0.1,1.8,0.5c0.5,0.4,0.7,1.2,0.7,1.8
								c0,0.4-0.1,0.9-0.2,1.3c0.3-0.3,0.7-0.7,1.1-1c0.6-0.5,1.6-0.9,2.4-1s1.3,0.1,1.9,0.4c0.5,0.3,0.6,0.8,0.2,1.3
								s-1.3,0.9-2.5,1.3c-1.1,0.3-2.2,0.5-3,0.6c-0.6,0.1-0.9,0.1-1.1,0c-0.2,0-0.4-0.2-0.8-0.5c-0.4-0.4-1-1-1.5-1.8
								C380.7,244.2,380.4,243.4,380.6,242.9z"/>
						</g>
					</g>
				</g>
			</g>
			<g>
				<g>
					<g>
						<g>
							<path class="st13" d="M384.7,237.2c0.2-0.4,0.8-0.6,1.5-0.4c0.7,0.1,1.2,0.3,1.6,0.7s0.5,1.1,0.4,1.6c-0.1,0.4-0.3,0.7-0.4,1
								c0.3-0.2,0.7-0.5,1.2-0.6c0.6-0.3,1.6-0.5,2.4-0.4c0.7,0,1.2,0.3,1.6,0.7s0.4,0.8,0,1.1s-1.4,0.5-2.5,0.6s-2.1,0.1-2.8,0
								c-0.5,0-0.9-0.1-1-0.2c-0.2,0-0.4-0.2-0.6-0.5c-0.3-0.4-0.8-1-1.1-1.7C384.5,238.2,384.4,237.6,384.7,237.2z"/>
						</g>
					</g>
				</g>
			</g>
			<g>
				<g>
					<g>
						<g>
							<path class="st13" d="M387.8,233.5c0.2-0.3,0.7-0.5,1.3-0.4c0.6,0.1,1.1,0.3,1.4,0.6c0.3,0.4,0.4,1,0.3,1.4
								c-0.1,0.3-0.2,0.6-0.4,0.9c0.3-0.2,0.6-0.4,1-0.6c0.6-0.2,1.4-0.4,2.1-0.4c0.6,0,1,0.3,1.4,0.6s0.4,0.7,0,0.9
								c-0.4,0.3-1.2,0.4-2.1,0.5c-1,0.1-1.9,0-2.5,0c-0.5,0-0.8-0.1-0.9-0.2c-0.2,0-0.3-0.2-0.5-0.4c-0.3-0.3-0.7-0.9-1-1.5
								C387.7,234.4,387.6,233.9,387.8,233.5z"/>
						</g>
					</g>
				</g>
			</g>
		</g>
	</g>
	<g>
		<g>
			<g>
				<g>
					<g>
						<g>
							<g>
								<path class="st5" d="M481.5,272.1c0-0.2-1.6-20-5.2-24.7l0.1-0.1c1.5,2,2.9,6.8,4,14.2c0.8,5.5,1.2,10.6,1.2,10.6H481.5z"/>
							</g>
						</g>
					</g>
				</g>
			</g>
			<g>
				<g>
					<g>
						<g>
							<path class="st13" d="M476.8,247.9c0-0.1,0-0.3-0.1-0.6s-0.2-0.6-0.4-0.9c-0.2-0.3-0.4-0.6-0.6-0.8c-0.3-0.2-0.5-0.3-0.8-0.2
								c-0.2,0.1-0.3,0.3-0.2,0.6c0.1,0.3,0.4,0.7,0.7,1c0.4,0.3,0.7,0.6,1,0.8C476.7,248,476.8,248,476.8,247.9z"/>
						</g>
					</g>
				</g>
			</g>
			<g>
				<g>
					<g>
						<g>
							<path class="st13" d="M486.6,266.8c0.1-0.8-0.3-1.5-1-1.8c-0.8-0.3-1.4-0.4-2.1,0.1s-1.4,1.6-1.7,2.5c-0.2,0.7-0.4,1.4-0.4,2
								c-0.1-0.6-0.3-1.3-0.6-1.9c-0.4-0.9-1.2-1.9-1.9-2.3c-0.7-0.4-1.4-0.3-2.1,0s-1.1,1-0.9,1.9c0.2,0.8,0.9,1.8,1.9,2.7
								c1,0.9,2,1.6,2.7,2c0.6,0.3,0.9,0.4,1.1,0.3c0.2,0,0.5-0.1,1-0.4c0.7-0.4,1.6-1.2,2.6-2.2
								C485.9,268.7,486.5,267.7,486.6,266.8z"/>
						</g>
					</g>
				</g>
			</g>
			<g>
				<g>
					<g>
						<g>
							<path class="st13" d="M484.8,260.4c0-0.6-0.4-1.1-1.1-1.3c-0.7-0.3-1.3-0.4-1.9-0.1s-1.1,0.9-1.3,1.5
								c-0.1,0.4-0.2,0.9-0.2,1.3c-0.2-0.4-0.4-0.9-0.7-1.3c-0.4-0.6-1.2-1.4-1.9-1.8c-0.7-0.4-1.3-0.3-1.9-0.2
								c-0.6,0.1-0.9,0.6-0.6,1.2c0.2,0.6,0.9,1.3,1.9,2s1.9,1.3,2.6,1.6c0.5,0.3,0.9,0.4,1,0.3c0.2,0.1,0.5,0,0.9-0.2
								c0.5-0.2,1.3-0.6,2-1.2C484.4,261.5,484.8,260.9,484.8,260.4z"/>
						</g>
					</g>
				</g>
			</g>
			<g>
				<g>
					<g>
						<g>
							<path class="st13" d="M482.9,253.6c-0.1-0.5-0.6-0.8-1.3-0.9c-0.7-0.1-1.3-0.1-1.7,0.2c-0.5,0.3-0.8,0.9-0.9,1.4
								c0,0.4,0,0.7,0.1,1.1c-0.2-0.3-0.5-0.7-0.9-1c-0.5-0.5-1.4-1-2.1-1.2s-1.2-0.1-1.8,0.1c-0.5,0.2-0.7,0.6-0.3,1
								c0.3,0.4,1.1,0.9,2.1,1.4c1,0.4,2,0.8,2.7,0.9c0.5,0.1,0.9,0.2,1,0.1c0.2,0,0.4-0.1,0.8-0.3c0.4-0.3,1.1-0.7,1.6-1.2
								C482.7,254.7,483,254.1,482.9,253.6z"/>
						</g>
					</g>
				</g>
			</g>
			<g>
				<g>
					<g>
						<g>
							<path class="st13" d="M481.2,249.2c-0.1-0.4-0.5-0.7-1.1-0.8s-1.1-0.1-1.5,0.1c-0.4,0.3-0.7,0.8-0.8,1.2c0,0.3,0,0.6,0.1,0.9
								c-0.2-0.3-0.5-0.6-0.8-0.9c-0.4-0.4-1.2-0.8-1.8-1c-0.6-0.2-1.1-0.1-1.5,0.1c-0.5,0.2-0.6,0.5-0.3,0.9c0.3,0.4,1,0.8,1.9,1.2
								s1.7,0.7,2.3,0.8c0.5,0.1,0.7,0.2,0.9,0.1c0.2,0,0.4-0.1,0.7-0.2c0.4-0.2,0.9-0.6,1.4-1.1C481,250,481.3,249.6,481.2,249.2z"
								/>
						</g>
					</g>
				</g>
			</g>
		</g>
		<g>
			<g>
				<g>
					<g>
						<g>
							<g>
								<path class="st5" d="M481.1,272l-0.1-0.1c0,0,2-4.7,4.7-9.6c3.5-6.7,6.4-10.7,8.4-12.1l0.1,0.1
									C489.2,253.6,481.1,271.8,481.1,272z"/>
							</g>
						</g>
					</g>
				</g>
			</g>
			<g>
				<g>
					<g>
						<g>
							<path class="st13" d="M493.4,250.7c0-0.1,0.1-0.3,0.3-0.5c0.2-0.2,0.4-0.5,0.7-0.8c0.3-0.3,0.6-0.4,0.9-0.5s0.6-0.1,0.8,0.1
								c0.2,0.1,0.2,0.4,0,0.6c-0.2,0.2-0.6,0.5-1,0.7c-0.5,0.2-0.9,0.4-1.2,0.4C493.5,250.8,493.4,250.8,493.4,250.7z"/>
						</g>
					</g>
				</g>
			</g>
			<g>
				<g>
					<g>
						<g>
							<path class="st13" d="M477.9,265.3c0.2-0.8,0.8-1.3,1.6-1.3c0.8,0,1.5,0.1,2,0.8c0.5,0.7,0.8,1.9,0.8,2.9
								c0,0.7-0.1,1.4-0.2,2c0.3-0.5,0.7-1.1,1.2-1.6c0.7-0.7,1.7-1.4,2.6-1.6c0.8-0.2,1.4,0.2,2,0.7s0.7,1.3,0.2,2.1
								c-0.4,0.7-1.4,1.4-2.6,1.9s-2.4,0.8-3.2,1c-0.6,0.1-1,0.1-1.2-0.1c-0.2,0-0.5-0.3-0.8-0.7c-0.5-0.6-1.1-1.7-1.7-2.9
								C478,267.3,477.7,266.1,477.9,265.3z"/>
						</g>
					</g>
				</g>
			</g>
			<g>
				<g>
					<g>
						<g>
							<path class="st13" d="M481.7,259.8c0.2-0.5,0.7-0.9,1.5-0.9c0.7,0,1.4,0.1,1.8,0.5c0.5,0.4,0.7,1.2,0.7,1.8
								c0,0.4-0.1,0.9-0.2,1.3c0.3-0.3,0.7-0.7,1.1-1c0.6-0.5,1.6-0.9,2.4-1s1.3,0.1,1.9,0.4c0.5,0.3,0.6,0.8,0.2,1.3
								s-1.3,0.9-2.5,1.3c-1.1,0.3-2.2,0.5-3,0.6c-0.6,0.1-0.9,0.1-1.1,0c-0.2,0-0.4-0.2-0.8-0.5c-0.4-0.4-1-1-1.5-1.8
								C481.8,261.1,481.5,260.3,481.7,259.8z"/>
						</g>
					</g>
				</g>
			</g>
			<g>
				<g>
					<g>
						<g>
							<path class="st13" d="M485.8,254.1c0.2-0.4,0.8-0.6,1.5-0.4c0.7,0.1,1.2,0.3,1.6,0.7s0.5,1.1,0.4,1.6c-0.1,0.4-0.3,0.7-0.4,1
								c0.3-0.2,0.7-0.5,1.2-0.6c0.6-0.3,1.6-0.5,2.4-0.4c0.7,0,1.2,0.3,1.6,0.7c0.4,0.4,0.4,0.8,0,1.1c-0.4,0.3-1.4,0.5-2.5,0.6
								s-2.1,0.1-2.8,0c-0.5,0-0.9-0.1-1-0.2c-0.2,0-0.4-0.2-0.6-0.5c-0.3-0.4-0.8-1-1.1-1.7C485.6,255.1,485.5,254.5,485.8,254.1z"
								/>
						</g>
					</g>
				</g>
			</g>
			<g>
				<g>
					<g>
						<g>
							<path class="st13" d="M488.9,250.4c0.2-0.3,0.7-0.5,1.3-0.4c0.6,0.1,1.1,0.3,1.4,0.6c0.3,0.4,0.4,1,0.3,1.4
								c-0.1,0.3-0.2,0.6-0.4,0.9c0.3-0.2,0.6-0.4,1-0.6c0.6-0.2,1.4-0.4,2.1-0.4c0.6,0,1,0.3,1.4,0.6s0.4,0.7,0,0.9
								c-0.4,0.3-1.2,0.4-2.1,0.5c-1,0.1-1.9,0-2.5,0c-0.5,0-0.8-0.1-0.9-0.2c-0.2,0-0.3-0.2-0.5-0.4c-0.3-0.3-0.7-0.9-1-1.5
								C488.7,251.3,488.7,250.8,488.9,250.4z"/>
						</g>
					</g>
				</g>
			</g>
		</g>
	</g>
</g>
<polygon class="st14" points="16,307 137.9,0 121.9,0 0,307 "/>
</svg>
