<svg width="60" height="60" version="1.1" id="Layer_1" xmlns="http://www.w3.org/2000/svg" xmlns:xlink="http://www.w3.org/1999/xlink" x="0px" y="0px" viewBox="0 0 34.5 31.6" style="enable-background:new 0 0 34.5 31.6;" xml:space="preserve">
<style type="text/css">
	.st0{fill:#3C3B42;}
	.st1{fill:#2B2A2F;}
	.st2{fill:#FFCC5C;}
	.st3{fill:#F7B546;}
	.st4{fill:#EFF2FA;}
	.st5{fill:#8B6946;}
	.st6{fill:#75563A;}
	.st7{fill:#90CFF1;}
	.st8{opacity:0.25;fill:#EFF2FA;enable-background:new    ;}
	.st9{fill:#F04C4D;}
	.st10{fill:#E13340;}
	.st11{fill:#D5E5F1;}
</style>
<g>
	<path class="st0" d="M29.2,2.2v2.7H4.8V2.2c0-0.8,0.7-1.3,1.3-1.3h21.7C28.6,0.9,29.2,1.5,29.2,2.2z"/>
	<path class="st1" d="M27.8,0.9h-1.1c0.8,0,1.4,0.6,1.4,1.3c0,0.4-0.3,0.7-0.7,0.7H4.8v2.1h24.4V2.1C29.2,1.5,28.6,0.9,27.8,0.9z"/>
	<path class="st2" d="M2.1,9h29.8v20.4H2.1V9z"/>
	<path class="st3" d="M15.6,15.8H7.5c-0.8,0-1.3,0.6-1.3,1.3l0,0v8.1c0,0.8,0.6,1.3,1.3,1.3h8.1c0.8,0,1.3-0.6,1.3-1.3v-8.1
		C17,16.4,16.4,15.8,15.6,15.8z M15.6,25.3H7.5v-8.1h8.1V25.3z M31.9,11.1H2.1v3.3c0.2,0.1,0.5,0.1,0.7,0.1c1.1,0,2.1-0.9,2.1-2.1
		c0,1.1,0.9,2.1,2.1,2.1s2.1-0.9,2.1-2.1c0,1.1,0.9,2.1,2.1,2.1s2.1-0.9,2.1-2.1c0,1.1,0.9,2.1,2.1,2.1c1.1,0,2.1-0.9,2.1-2.1
		c0,1.1,0.9,2.1,2.1,2.1s2.1-0.9,2.1-2.1c0,1.1,0.9,2.1,2.1,2.1s2.1-0.9,2.1-2.1c0,1.1,0.9,2.1,2.1,2.1s2.1-0.9,2.1-2.1
		c0,1.1,0.9,2.1,2.1,2.1c0.3,0,0.5-0.1,0.7-0.1v-3.3H31.9z"/>
	<path class="st4" d="M6.1,17.1v6.8c0,0.8,0.6,1.3,1.3,1.3h8.1c0.8,0,1.3-0.6,1.3-1.3v-6.8c0-0.8-0.6-1.3-1.3-1.3h-8
		C6.8,15.8,6.1,16.4,6.1,17.1z"/>
	<path class="st5" d="M29.2,19.9v9.5h-8.1v-9.5c0-2.3,1.8-4.1,4.1-4.1S29.2,17.6,29.2,19.9z"/>
	<path class="st6" d="M25.6,15.9c-0.2,0-0.4-0.1-0.6-0.1l0,0l0,0c-0.2,0-0.4,0-0.6,0.1c-0.2,0-0.3,0.1-0.5,0.1c1.8,0.5,3,2.1,3,4
		v5.4c0,0.8-0.6,1.3-1.3,1.3H21v2.7h8.1v-9.5C29.2,17.9,27.7,16.1,25.6,15.9z"/>
	<path class="st0" d="M33.3,30.7H0.7v-1.3c0-0.8,0.6-1.3,1.3-1.3h29.8c0.8,0,1.3,0.6,1.3,1.3L33.3,30.7L33.3,30.7z"/>
	<path class="st1" d="M31.9,28h-2.7c0.8,0,1.3,0.6,1.3,1.3v1.3h2.7v-1.3C33.3,28.6,32.6,28,31.9,28z"/>
	<path class="st7" d="M6.9,16.5h9.5v8.1H6.9V16.5z"/>
	<path class="st8" d="M16.6,19.2c-0.3-0.3-0.7-0.3-0.9,0l-1.7,1.7c-0.3,0.3-0.3,0.7,0,0.9c0.3,0.3,0.7,0.3,0.9,0l0,0l1.7-1.7
		C16.9,20,16.9,19.5,16.6,19.2z M12.5,22.3l-0.3,0.3c-0.3,0.3-0.3,0.7,0,0.9c0.3,0.3,0.7,0.3,0.9,0l0.3-0.3c0.3-0.3,0.3-0.7,0-0.9
		C13.2,22,12.8,22,12.5,22.3z M14.4,19.1c0.3-0.3,0.3-0.7,0-0.9c-0.3-0.3-0.7-0.3-0.9,0l-2.2,2.2c-0.3,0.3-0.3,0.7,0,0.9
		c0.3,0.3,0.7,0.3,0.9,0L14.4,19.1z M9.6,21.9l-0.3,0.3c-0.3,0.3-0.3,0.7,0,0.9s0.7,0.3,0.9,0l0.3-0.3c0.3-0.3,0.3-0.7,0-0.9
		C10.3,21.7,9.8,21.7,9.6,21.9z"/>
	<path class="st4" d="M15.6,15.8H7.5c-0.8,0-1.3,0.6-1.3,1.3l0,0v6.8c0,0.8,0.6,1.3,1.3,1.3h8.1c0.8,0,1.3-0.6,1.3-1.3v-6.8
		C17,16.4,16.4,15.8,15.6,15.8z M15.6,23.9H7.5v-6.8h8.1V23.9z"/>
	<circle class="st0" cx="23.1" cy="24.2" r="0.7"/>
	<path class="st9" d="M30.7,4.4c-0.2-0.5-0.7-0.8-1.2-0.8H4.3c-0.6,0-1,0.3-1.2,0.8L0.7,9.7V11c0,1.1,0.9,2.1,2.1,2.1
		s2.1-0.9,2.1-2.1c0,1.1,0.9,2.1,2.1,2.1S9,12.1,9,11c0,1.1,0.9,2.1,2.1,2.1s2.1-0.9,2.1-2.1c0,1.1,0.9,2.1,2.1,2.1
		c1.1,0,2.1-0.9,2.1-2.1c0,1.1,0.9,2.1,2.1,2.1c1.1,0,2.1-0.9,2.1-2.1c0,1.1,0.9,2.1,2.1,2.1s2.1-0.9,2.1-2.1c0,1.1,0.9,2.1,2.1,2.1
		s2.1-0.9,2.1-2.1c0,1.1,0.9,2.1,2.1,2.1c1.1,0,1.9-0.9,1.9-2.1V9.7L30.7,4.4z"/>
	<path class="st9" d="M20.4,3.6H17v7.5c0,1.1,0.9,2.1,2.1,2.1s2.1-0.9,2.1-2.1V9.7L20.4,3.6z M6.9,3.6H4.3c-0.6,0-1,0.3-1.2,0.8
		L0.7,9.7V11c0,1.1,0.9,2.1,2.1,2.1s2.1-0.9,2.1-2.1V9.7L6.9,3.6z"/>
	<path class="st4" d="M10.3,3.6H6.9l-2.1,6V11c0,1.1,0.9,2.1,2.1,2.1s2.1-0.9,2.1-2.1V9.7L10.3,3.6z M17,3.6h-3.4l-0.7,6.1v1.3
		c0,1.1,0.9,2.1,2.1,2.1s2.1-0.9,2.1-2.1L17,3.6L17,3.6z M23.8,3.6h-3.4L21,9.8v1.3c0,1.1,0.9,2.1,2.1,2.1c1.1,0,2.1-0.9,2.1-2.1
		V9.7L23.8,3.6z"/>
	<path class="st9" d="M27.2,3.6h-3.4l1.3,6.1v1.3c0,1.1,0.9,2.1,2.1,2.1s2.1-0.9,2.1-2.1V9.7L27.2,3.6z"/>
	<path class="st4" d="M30.9,4.4c-0.2-0.5-0.7-0.8-1.2-0.8h-2.5l2.1,6.1V11c0,1.1,0.9,2.1,2.1,2.1c1.1,0,2.1-0.9,2.1-2.1V9.7
		L30.9,4.4z"/>
	<path class="st9" d="M13.6,3.6h-3.4l-1.3,6V11c0,1.1,0.9,2.1,2.1,2.1S13,12.1,13,11V9.7L13.6,3.6z"/>
	<path class="st10" d="M4.8,9.7V11c0,1.1-0.9,2.1-2.1,2.1s-2-0.8-2-2V9.7"/>
	<path class="st11" d="M8.9,9.7V11c0,1.1-0.9,2.1-2.1,2.1S4.7,12.1,4.7,11V9.7"/>
	<path class="st10" d="M12.9,9.7V11c0,1.1-0.9,2.1-2.1,2.1S8.8,12.1,8.8,11V9.7"/>
	<path class="st11" d="M17,9.7V11c0,1.1-0.9,2.1-2.1,2.1s-2.1-0.9-2.1-2.1V9.7"/>
	<path class="st10" d="M21.1,9.7V11c0,1.1-0.9,2.1-2.1,2.1S17,12.1,17,11V9.7"/>
	<path class="st11" d="M25.2,9.7V11c0,1.1-0.9,2.1-2.1,2.1C22,13.1,21,12.1,21,11V9.7"/>
	<path class="st10" d="M29.2,9.7V11c0,1.1-0.9,2.1-2.1,2.1s-2.1-0.9-2.1-2.1V9.7"/>
	<path class="st11" d="M33.3,9.7V11c0,1.1-0.9,2.1-2.1,2.1s-2.1-0.9-2.1-2.1V9.7"/>
</g>
</svg>
