<svg
   version="1.1"
   id="svg8583"
   xml:space="preserve"
    width="60" height="60"
   viewBox="0 0 682.66669 682.66669"
   xmlns="http://www.w3.org/2000/svg"
   xmlns:svg="http://www.w3.org/2000/svg"><defs
     id="defs8587"><clipPath
       clipPathUnits="userSpaceOnUse"
       id="clipPath8597"><path
         d="M 0,512 H 512 V 0 H 0 Z"
         id="path8595" /></clipPath></defs><g
     id="g8589"
     transform="matrix(1.3333333,0,0,-1.3333333,0,682.66667)"><g
       id="g8591"><g
         id="g8593"
         clip-path="url(#clipPath8597)"><g
           id="g8599"
           transform="translate(231.042,403.1699)"><path
             d="M 0,0 C 0.067,1.628 0.04,3.281 -0.087,4.953 -1.622,25.044 -17.911,41.236 -38.01,42.66 -62.025,44.361 -82.035,25.383 -82.035,1.73 c 0,-0.571 0.012,-1.14 0.035,-1.706 0.928,-22.682 -4.385,-45.113 -16.171,-64.515 -6.375,-10.495 -9.94,-22.887 -9.648,-36.133 0.786,-35.714 30.111,-64.807 65.83,-65.323 37.366,-0.54 67.826,29.588 67.826,66.829 0,12.959 -3.69,25.054 -10.076,35.294 C 3.901,-44.806 -0.93,-22.394 0,0"
             style="fill:#22b280;fill-opacity:1;fill-rule:nonzero;stroke:none"
             id="path8601" /></g><g
           id="g8603"
           transform="translate(256.8799,304.0537)"><path
             d="m 0,0 c 0,-37.24 -30.46,-67.37 -67.83,-66.83 -4.74,0.07 -9.36,0.64 -13.82,1.67 29.72,6.78 51.9,33.38 51.9,65.16 0,12.96 -3.69,25.05 -10.07,35.29 -11.86,19.02 -16.69,41.43 -15.76,63.83 0.06,1.62 0.04,3.279 -0.09,4.95 -1.22,15.94 -11.73,29.43 -26.06,35.03 5.48,2.14 11.54,3.129 17.88,2.68 20.1,-1.43 36.39,-17.62 37.92,-37.71 0.13,-1.671 0.16,-3.33 0.09,-4.95 -0.93,-22.4 3.9,-44.81 15.76,-63.83 C -3.69,25.05 0,12.96 0,0"
             style="fill:#09a66d;fill-opacity:1;fill-rule:nonzero;stroke:none"
             id="path8605" /></g><g
           id="g8607"
           transform="translate(231.042,403.1699)"><path
             d="M 0,0 C 0.067,1.628 0.04,3.281 -0.087,4.953 -1.622,25.044 -17.911,41.236 -38.01,42.66 -62.025,44.361 -82.035,25.383 -82.035,1.73 c 0,-0.571 0.012,-1.14 0.035,-1.706 0.928,-22.682 -4.385,-45.113 -16.171,-64.515 -6.375,-10.495 -9.94,-22.887 -9.648,-36.133 0.786,-35.714 30.111,-64.807 65.83,-65.323 37.366,-0.54 67.826,29.588 67.826,66.829 0,12.959 -3.69,25.054 -10.076,35.294 C 3.901,-44.806 -0.93,-22.394 0,0 Z"
             style="fill:none;stroke:#000000;stroke-width:15;stroke-linecap:round;stroke-linejoin:round;stroke-miterlimit:10;stroke-dasharray:none;stroke-opacity:1"
             id="path8609" /></g><g
           id="g8611"
           transform="translate(396.5483,381.9189)"><path
             d="M 0,0 C 0.068,1.628 0.041,3.28 -0.087,4.952 -1.621,25.043 -17.911,41.235 -38.01,42.659 -62.024,44.36 -82.035,25.382 -82.035,1.73 c 0,-0.572 0.012,-1.14 0.035,-1.707 0.929,-22.682 -4.385,-45.113 -16.171,-64.515 -6.375,-10.495 -9.939,-22.886 -9.648,-36.132 0.786,-35.715 30.111,-64.807 65.83,-65.323 37.366,-0.541 67.826,29.587 67.826,66.829 0,12.959 -3.69,25.053 -10.075,35.293 C 3.902,-44.807 -0.929,-22.395 0,0"
             style="fill:#97d729;fill-opacity:1;fill-rule:nonzero;stroke:none"
             id="path8613" /></g><g
           id="g8615"
           transform="translate(422.3901,282.8037)"><path
             d="m 0,0 c 0,-37.24 -30.46,-67.37 -67.83,-66.83 -3.07,0.04 -6.09,0.3 -9.05,0.75 26.03,9.14 44.69,33.93 44.69,63.08 0,12.96 -3.69,25.05 -10.08,35.29 -11.85,19.02 -16.69,41.43 -15.76,63.83 0.07,1.62 0.04,3.279 -0.08,4.95 -1.29,16.78 -12.86,30.84 -28.35,35.829 6.64,3.621 14.39,5.461 22.61,4.871 20.1,-1.42 36.39,-17.61 37.92,-37.7 0.13,-1.671 0.16,-3.33 0.09,-4.95 -0.93,-22.4 3.9,-44.81 15.76,-63.83 C -3.69,25.05 0,12.96 0,0"
             style="fill:#8bc827;fill-opacity:1;fill-rule:nonzero;stroke:none"
             id="path8617" /></g><g
           id="g8619"
           transform="translate(396.5483,381.9189)"><path
             d="M 0,0 C 0.068,1.628 0.041,3.28 -0.087,4.952 -1.621,25.043 -17.911,41.235 -38.01,42.659 -62.024,44.36 -82.035,25.382 -82.035,1.73 c 0,-0.572 0.012,-1.14 0.035,-1.707 0.929,-22.682 -4.385,-45.113 -16.171,-64.515 -6.375,-10.495 -9.939,-22.886 -9.648,-36.132 0.786,-35.715 30.111,-64.807 65.83,-65.323 37.366,-0.541 67.826,29.587 67.826,66.829 0,12.959 -3.69,25.053 -10.075,35.293 C 3.902,-44.807 -0.929,-22.395 0,0 Z"
             style="fill:none;stroke:#000000;stroke-width:15;stroke-linecap:round;stroke-linejoin:round;stroke-miterlimit:10;stroke-dasharray:none;stroke-opacity:1"
             id="path8621" /></g><g
           id="g8623"
           transform="translate(362.6987,454.5615)"><path
             d="M 0,0 -2.093,-26.846"
             style="fill:none;stroke:#000000;stroke-width:15;stroke-linecap:round;stroke-linejoin:round;stroke-miterlimit:10;stroke-dasharray:none;stroke-opacity:1"
             id="path8625" /></g><g
           id="g8627"
           transform="translate(301.3862,350.1973)"><path
             d="M 0,0 C -9.966,0 -19.408,-2.636 -27.869,-7.329 -36.33,-2.636 -45.771,0 -55.738,0 c -36.247,0 -65.631,-34.696 -65.631,-77.496 0,-42.8 29.384,-77.495 65.631,-77.495 9.967,0 19.408,2.636 27.869,7.329 8.461,-4.693 17.903,-7.329 27.869,-7.329 36.247,0 65.631,34.695 65.631,77.495 C 65.631,-34.696 36.247,0 0,0"
             style="fill:#fe4855;fill-opacity:1;fill-rule:nonzero;stroke:none"
             id="path8629" /></g><g
           id="g8631"
           transform="translate(367.02,272.7031)"><path
             d="m 0,0 c 0,-42.8 -29.39,-77.5 -65.63,-77.5 -6.37,0 -12.52,1.08 -18.33,3.08 27.31,9.381 47.26,39.15 47.26,74.42 0,35.271 -19.95,65.03 -47.26,74.41 5.81,2.011 11.96,3.08 18.33,3.08 C -29.39,77.49 0,42.801 0,0"
             style="fill:#fb2b3b;fill-opacity:1;fill-rule:nonzero;stroke:none"
             id="path8633" /></g><g
           id="g8635"
           transform="translate(365.4697,289.417)"><path
             d="m 0,0 c -6.475,34.762 -32.699,60.78 -64.083,60.78 -9.967,0 -19.409,-2.636 -27.869,-7.33 -8.461,4.694 -17.903,7.33 -27.869,7.33 -36.248,0 -65.632,-34.695 -65.632,-77.496 0,-42.799 29.384,-77.496 65.632,-77.496 9.966,0 19.408,2.637 27.869,7.33 8.46,-4.693 17.902,-7.33 27.869,-7.33 31.617,0 58.006,26.402 64.233,61.551"
             style="fill:none;stroke:#000000;stroke-width:15;stroke-linecap:round;stroke-linejoin:round;stroke-miterlimit:10;stroke-dasharray:none;stroke-opacity:1"
             id="path8637" /></g><g
           id="g8639"
           transform="translate(351.2437,154.9014)"><path
             d="m 0,0 c -19.815,0 -38.551,4.609 -55.196,12.815 -14.074,6.939 -11.181,27.641 4.217,30.664 31.656,6.214 61.869,21.589 86.398,46.119 35.032,35.032 51.392,81.673 49.051,127.55 24.922,-22.851 40.537,-55.668 40.537,-92.141 C 125.007,55.968 69.039,0 0,0"
             style="fill:#fbc66d;fill-opacity:1;fill-rule:nonzero;stroke:none"
             id="path8641" /></g><g
           id="g8643"
           transform="translate(476.25,279.9033)"><path
             d="m 0,0 c 0,-69.029 -55.97,-125 -125.01,-125 -4.86,0 -9.66,0.28 -14.38,0.82 62.27,7.13 110.63,60.01 110.63,124.18 0,20.5 -4.93,39.83 -13.67,56.9 1.86,11.661 2.49,23.48 1.89,35.25 C -15.61,69.29 0,36.48 0,0"
             style="fill:#e9b765;fill-opacity:1;fill-rule:nonzero;stroke:none"
             id="path8645" /></g><g
           id="g8647"
           transform="translate(351.2437,154.9014)"><path
             d="m 0,0 c -19.815,0 -38.551,4.609 -55.196,12.815 -14.074,6.939 -11.181,27.641 4.217,30.664 31.656,6.214 61.869,21.589 86.398,46.119 35.032,35.032 51.392,81.673 49.051,127.55 24.922,-22.851 40.537,-55.668 40.537,-92.141 C 125.007,55.968 69.039,0 0,0 Z"
             style="fill:none;stroke:#000000;stroke-width:15;stroke-linecap:round;stroke-linejoin:round;stroke-miterlimit:10;stroke-dasharray:none;stroke-opacity:1"
             id="path8649" /></g><g
           id="g8651"
           transform="translate(469.2759,362.8096)"><path
             d="M 0,0 -5.827,-27.778 H -35.744 L -41.571,0 c -2.126,10.135 5.608,19.659 15.964,19.659 h 9.644 C -5.608,19.659 2.126,10.135 0,0"
             style="fill:#c96d35;fill-opacity:1;fill-rule:nonzero;stroke:none"
             id="path8653" /></g><g
           id="g8655"
           transform="translate(469.2803,362.8135)"><path
             d="M 0,0 -5.83,-27.78 H -26.97 L -21.14,0 c 1.7,8.14 -2.95,15.89 -10.22,18.63 1.78,0.66 3.71,1.03 5.75,1.03 h 9.64 C -5.61,19.66 2.12,10.13 0,0"
             style="fill:#ac5e2d;fill-opacity:1;fill-rule:nonzero;stroke:none"
             id="path8657" /></g><g
           id="g8659"
           transform="translate(469.2759,362.8096)"><path
             d="M 0,0 -5.827,-27.778 H -35.744 L -41.571,0 c -2.126,10.135 5.608,19.659 15.964,19.659 h 9.644 C -5.608,19.659 2.126,10.135 0,0 Z"
             style="fill:none;stroke:#000000;stroke-width:15;stroke-linecap:round;stroke-linejoin:round;stroke-miterlimit:10;stroke-dasharray:none;stroke-opacity:1"
             id="path8661" /></g><g
           id="g8663"
           transform="translate(116.3594,303.9971)"><path
             d="m 0,0 c -8.307,-3.44 -15.266,-8.897 -20.697,-15.73 -8.673,0.991 -17.452,-0.072 -25.759,-3.512 -30.211,-12.515 -42.724,-51.577 -27.948,-87.25 14.777,-35.672 51.246,-54.446 81.457,-41.933 8.306,3.442 15.266,8.899 20.697,15.732 8.672,-0.992 17.452,0.071 25.759,3.511 30.211,12.514 42.723,51.578 27.948,87.249 C 66.681,-6.26 30.211,12.514 0,0"
             style="fill:#fbc66d;fill-opacity:1;fill-rule:nonzero;stroke:none"
             id="path8665" /></g><g
           id="g8667"
           transform="translate(169.8701,174.8135)"><path
             d="m 0,0 c -4.46,-1.84 -9.06,-3 -13.7,-3.53 18.34,17.52 24.05,48.33 12.19,76.96 -12.58,30.39 -40.92,48.52 -67.72,45.47 4.5,4.31 9.76,7.81 15.72,10.28 C -23.3,141.7 13.17,122.92 27.95,87.25 42.72,51.58 30.21,12.521 0,0"
             style="fill:#e9b765;fill-opacity:1;fill-rule:nonzero;stroke:none"
             id="path8669" /></g><g
           id="g8671"
           transform="translate(116.3594,303.9971)"><path
             d="m 0,0 c -8.307,-3.44 -15.266,-8.897 -20.697,-15.73 -8.673,0.991 -17.452,-0.072 -25.759,-3.512 -30.211,-12.515 -42.724,-51.577 -27.948,-87.25 14.777,-35.672 51.246,-54.446 81.457,-41.933 8.306,3.442 15.266,8.899 20.697,15.732 8.672,-0.992 17.452,0.071 25.759,3.511 30.211,12.514 42.723,51.578 27.948,87.249 C 66.681,-6.26 30.211,12.514 0,0 Z"
             style="fill:none;stroke:#000000;stroke-width:15;stroke-linecap:round;stroke-linejoin:round;stroke-miterlimit:10;stroke-dasharray:none;stroke-opacity:1"
             id="path8673" /></g><g
           id="g8675"
           transform="translate(480.6899,184.0449)"><path
             d="m 0,0 c 0,-71.91 -82.25,-130.21 -183.71,-130.21 h -81.96 c -101.46,0 -183.71,58.3 -183.71,130.21 z"
             style="fill:#d87f49;fill-opacity:1;fill-rule:nonzero;stroke:none"
             id="path8677" /></g><g
           id="g8679"
           transform="translate(31.3101,184.0449)"><path
             d="m 0,0 c 0,-20.221 6.528,-39.354 18.134,-56.43 h 328.225 c 13.965,0 20.304,-17.348 9.705,-26.442 -33.695,-28.913 -84.664,-47.339 -141.704,-47.339 h 51.31 c 101.46,0 183.71,58.3 183.71,130.21 z"
             style="fill:#c96d35;fill-opacity:1;fill-rule:nonzero;stroke:none"
             id="path8681" /></g><g
           id="g8683"
           transform="translate(418.5654,86.4434)"><path
             d="m 0,0 c 38.094,23.859 62.125,58.739 62.125,97.602 h -449.38 c 0,-71.911 82.25,-130.21 183.71,-130.21 h 81.96 c 33.738,0 65.346,6.453 92.519,17.703"
             style="fill:none;stroke:#000000;stroke-width:15;stroke-linecap:round;stroke-linejoin:round;stroke-miterlimit:10;stroke-dasharray:none;stroke-opacity:1"
             id="path8685" /></g><g
           id="g8687"
           transform="translate(476.5781,159.1875)"><path
             d="m 0,0 h -441.156 c -15.421,0 -27.922,12.501 -27.922,27.922 0,15.42 12.501,27.921 27.922,27.921 H 0 c 15.421,0 27.922,-12.501 27.922,-27.921 C 27.922,12.501 15.421,0 0,0"
             style="fill:#e29974;fill-opacity:1;fill-rule:nonzero;stroke:none"
             id="path8689" /></g><g
           id="g8691"
           transform="translate(504.5,187.1094)"><path
             d="m 0,0 c 0,-7.709 -3.12,-14.689 -8.18,-19.739 -5.05,-5.05 -12.03,-8.181 -19.74,-8.181 h -33.79 c 7.71,0 14.69,3.131 19.74,8.181 5.05,5.05 8.18,12.03 8.18,19.739 0,15.421 -12.5,27.921 -27.92,27.921 h 33.79 C -12.5,27.921 0,15.421 0,0"
             style="fill:#dc8758;fill-opacity:1;fill-rule:nonzero;stroke:none"
             id="path8693" /></g><g
           id="g8695"
           transform="translate(98.8765,215.0312)"><path
             d="m 0,0 h -63.455 c -15.42,0 -27.921,-12.502 -27.921,-27.922 0,-15.421 12.501,-27.922 27.921,-27.922 h 441.157 c 15.421,0 27.922,12.501 27.922,27.922 C 405.624,-12.502 393.123,0 377.702,0 H 32.661"
             style="fill:none;stroke:#000000;stroke-width:15;stroke-linecap:round;stroke-linejoin:round;stroke-miterlimit:10;stroke-dasharray:none;stroke-opacity:1"
             id="path8697" /></g><g
           id="g8699"
           transform="translate(109.0122,128.1055)"><path
             d="M 0,0 H 20.118"
             style="fill:none;stroke:#000000;stroke-width:15;stroke-linecap:round;stroke-linejoin:round;stroke-miterlimit:10;stroke-dasharray:none;stroke-opacity:1"
             id="path8701" /></g><g
           id="g8703"
           transform="translate(126.2061,101.3594)"><path
             d="M 0,0 H 20.118"
             style="fill:none;stroke:#000000;stroke-width:15;stroke-linecap:round;stroke-linejoin:round;stroke-miterlimit:10;stroke-dasharray:none;stroke-opacity:1"
             id="path8705" /></g><g
           id="g8707"
           transform="translate(304.2446,128.1055)"><path
             d="M 0,0 H 20.118"
             style="fill:none;stroke:#000000;stroke-width:15;stroke-linecap:round;stroke-linejoin:round;stroke-miterlimit:10;stroke-dasharray:none;stroke-opacity:1"
             id="path8709" /></g><g
           id="g8711"
           transform="translate(342.7808,110.3594)"><path
             d="M 0,0 H 20.118"
             style="fill:none;stroke:#000000;stroke-width:15;stroke-linecap:round;stroke-linejoin:round;stroke-miterlimit:10;stroke-dasharray:none;stroke-opacity:1"
             id="path8713" /></g><g
           id="g8715"
           transform="translate(294.0669,96.9609)"><path
             d="M 0,0 H 20.118"
             style="fill:none;stroke:#000000;stroke-width:15;stroke-linecap:round;stroke-linejoin:round;stroke-miterlimit:10;stroke-dasharray:none;stroke-opacity:1"
             id="path8717" /></g><g
           id="g8719"
           transform="translate(352.2798,454.7734)"><path
             d="M 0,0 36.04,3.393"
             style="fill:none;stroke:#000000;stroke-width:15;stroke-linecap:round;stroke-linejoin:round;stroke-miterlimit:10;stroke-dasharray:none;stroke-opacity:1"
             id="path8721" /></g><g
           id="g8723"
           transform="translate(273.5171,333.3301)"><path
             d="M 0,0 C 0,0 -1.228,34.83 13.427,49.144"
             style="fill:none;stroke:#000000;stroke-width:15;stroke-linecap:round;stroke-linejoin:round;stroke-miterlimit:10;stroke-dasharray:none;stroke-opacity:1"
             id="path8725" /></g><g
           id="g8727"
           transform="translate(96.2202,291.7021)"><path
             d="M 0,0 C -1.444,6.968 -2.211,16.376 -0.16,27.432"
             style="fill:none;stroke:#000000;stroke-width:15;stroke-linecap:round;stroke-linejoin:round;stroke-miterlimit:10;stroke-dasharray:none;stroke-opacity:1"
             id="path8729" /></g><g
           id="g8731"
           transform="translate(256.5366,328.5762)"><path
             d="M 0,0 C 0,0 13.327,-6.241 33.961,0"
             style="fill:none;stroke:#000000;stroke-width:15;stroke-linecap:round;stroke-linejoin:round;stroke-miterlimit:10;stroke-dasharray:none;stroke-opacity:1"
             id="path8733" /></g><g
           id="g8735"
           transform="translate(179.396,421.0264)"><path
             d="M 0,0 C 0,0 8.35,-10.418 22.991,-12.107"
             style="fill:none;stroke:#000000;stroke-width:15;stroke-linecap:round;stroke-linejoin:round;stroke-miterlimit:10;stroke-dasharray:none;stroke-opacity:1"
             id="path8737" /></g><g
           id="g8739"
           transform="translate(190.0425,414.9727)"><path
             d="M 0,0 C 0,0 3.156,28.271 33.001,36.155"
             style="fill:none;stroke:#000000;stroke-width:15;stroke-linecap:round;stroke-linejoin:round;stroke-miterlimit:10;stroke-dasharray:none;stroke-opacity:1"
             id="path8741" /></g></g></g></g></svg>
