<?xml version="1.0" encoding="utf-8"?>
<!-- Generator: Adobe Illustrator 24.3.0, SVG Export Plug-In . SVG Version: 6.00 Build 0)  -->
<svg version="1.1" id="_1" xmlns="http://www.w3.org/2000/svg" xmlns:xlink="http://www.w3.org/1999/xlink" x="0px" y="0px"
	 viewBox="0 0 1451.8 1264.7" style="enable-background:new 0 0 1451.8 1264.7;" xml:space="preserve">
<style type="text/css">
	.st0{fill:#B3B3B3;}
	.st1{fill:#00A138;}
	.st2{fill:#6FD189;}
	.st3{fill:#FFA42F;}
	.st4{fill:#FFCC46;}
	.st5{fill:#FFDD85;}
	.st6{fill:#E4E0FF;}
	.st7{fill:#C72E6E;}
	.st8{fill:#DB4A87;}
	.st9{fill:#ED7E94;}
	.st10{fill:#FF96A9;}
	.st11{fill:#322666;}
	.st12{fill:#3F327A;}
	.st13{fill:#FEF2FE;}
	.st14{fill:#F6DEF8;}
	.st15{fill:#E5649A;}
	.st16{fill:#EAC7ED;}
	.st17{fill:#FF66A4;}
	.st18{fill:#BF4D7B;}
</style>
<g>
	<path class="st0" d="M744.9,367.6h329.3c0,0-0.3,174.7-17,375.4c-16.7,200.6-27.4,335.3-118.3,489.3l-351.2,0.1
		c0,0,164.3-334.6,168.8-537.6C761,491.8,744.9,367.6,744.9,367.6z"/>
	<path class="st0" d="M754.7,322.5c0,0,52-15.5,44.2-76.8H986c0,0-4.8,120.1,48.7,124.6c0,0,47.8,442.9-74,777.5
		c0,0-73.1-6.2-85,73.1H677.2c0,0,30.6-67.3-19.2-93.4C658,1127.4,864.9,785.1,754.7,322.5z"/>
	
		<ellipse transform="matrix(0.1689 -0.9856 0.9856 0.1689 -102.169 1598.2753)" class="st0" cx="896.6" cy="859.7" rx="96.1" ry="89.7"/>
	<g>
		<path class="st0" d="M935,850.1l-32.7-5.6l0.5-2.8c0.5-3,0.5-4.9-0.1-6c-0.6-1-2.1-1.8-4.6-2.2c-2-0.3-3.6-0.2-4.7,0.4
			c-1.1,0.6-1.8,1.7-2.1,3.3c-0.4,2.6,0.3,4.6,2.1,6c1.8,1.4,7.3,4.4,16.6,9.1c7.9,4,13.2,6.9,16,8.8c2.8,1.9,5,4.2,6.6,7.1
			c1.6,2.9,2.2,6.1,1.5,9.9c-1,6-4.6,10.2-10.8,12.6c-6.2,2.4-15,3.1-26.3,2l-1.1,6.3l-15-2.6l1.1-6.5c-8.7-1.9-16-5-22-9.1
			c-6-4.1-8.4-9.9-7.1-17.3l0.6-3.3l32.7,5.6l-0.7,4.1c-0.8,4.5-0.9,7.3-0.4,8.6c0.5,1.2,2,2,4.6,2.5c2.2,0.4,3.9,0.3,5.1-0.3
			c1.2-0.6,1.9-1.6,2.2-3.1c0.6-3.8,0.6-6.5-0.2-8.3c-0.7-1.8-3.9-4.1-9.6-7.1c-9.4-4.9-15.8-8.4-19.1-10.5
			c-3.3-2.1-6.1-4.8-8.2-7.9c-2.1-3.2-2.9-6.5-2.3-9.9c0.9-5,4.3-8.4,10.3-10.3c6-1.9,14.6-2.2,25.8-1l0.9-5.3l15,2.6l-0.9,5.3
			c10,2.4,17.2,5.4,21.7,9.1c4.5,3.7,6.4,8,5.5,12.9C935.7,847.7,935.4,848.7,935,850.1z"/>
	</g>
</g>
<g>
	<path class="st1" d="M678.2,183h364.5c0,0-3.4,341.9-20.1,542.5c-16.7,200.6-31.9,352.8-122.8,506.8H544.7
		c0,0,172.6-351.9,177.1-555C726.4,474.3,678.2,183,678.2,183z"/>
	<path class="st2" d="M720.1,305c0,0,52-15.5,44.2-76.8h187.1c0,0,2.6,75.4,56.2,79.9c0,0,40.4,487.6-81.4,822.2
		c0,0-73.1-6.2-85,73.1H642.6c0,0,30.6-67.3-19.2-93.4C623.4,1109.9,830.3,767.6,720.1,305z"/>
	
		<ellipse transform="matrix(0.1689 -0.9856 0.9856 0.1689 47.925 1431.9048)" class="st1" cx="873" cy="687.5" rx="96.1" ry="89.7"/>
	<g>
		<path class="st2" d="M911.4,677.9l-32.7-5.6l0.5-2.8c0.5-3,0.5-4.9-0.1-6c-0.6-1-2.1-1.8-4.6-2.2c-2-0.3-3.6-0.2-4.7,0.4
			c-1.1,0.6-1.8,1.7-2.1,3.3c-0.4,2.6,0.3,4.6,2.1,6c1.8,1.4,7.3,4.4,16.6,9.1c7.9,4,13.2,6.9,16,8.8c2.8,1.9,5,4.2,6.6,7.1
			c1.6,2.9,2.2,6.1,1.5,9.9c-1,6-4.6,10.2-10.8,12.6c-6.2,2.4-15,3.1-26.3,2l-1.1,6.3l-15-2.6l1.1-6.5c-8.7-1.9-16-5-22-9.1
			c-6-4.1-8.4-9.9-7.1-17.3l0.6-3.3l32.7,5.6l-0.7,4.1c-0.8,4.5-0.9,7.3-0.4,8.6c0.5,1.2,2,2,4.6,2.5c2.2,0.4,3.9,0.3,5.1-0.3
			c1.2-0.6,1.9-1.6,2.2-3.1c0.6-3.8,0.6-6.5-0.2-8.3c-0.7-1.8-3.9-4.1-9.6-7.1c-9.4-4.9-15.8-8.4-19.1-10.5
			c-3.3-2.1-6.1-4.8-8.2-7.9c-2.1-3.2-2.9-6.5-2.3-9.9c0.9-5,4.3-8.4,10.3-10.3c6-1.9,14.6-2.2,25.8-1l0.9-5.3l15,2.6l-0.9,5.3
			c10,2.4,17.2,5.4,21.7,9.1c4.5,3.7,6.4,8,5.5,12.9C912.1,675.5,911.8,676.5,911.4,677.9z"/>
	</g>
</g>
<g>
	<g>
		<path class="st3" d="M800.4,1220.1v1.9c0,3.9-3.2,7-7,7H551.1c-3.9,0-7-3.2-7-7v-27.2c0-3.9,3.2-7,7-7h4.8
			C637.6,1208,717.8,1226.8,800.4,1220.1z"/>
		<path class="st4" d="M800.4,1194.9v25.3c-82.5,6.7-162.8-12.2-244.4-32.3h237.4C797.2,1187.8,800.4,1191,800.4,1194.9z"/>
		<path class="st4" d="M796.5,1220.4c-0.9,2.9-3.6,5.1-6.8,5.1H555c-3.9,0-7-3.2-7-7v-19.8c0-3.9,3.2-7,7-7h16.1
			C646.3,1209.9,720.5,1225.8,796.5,1220.4z"/>
		<path class="st5" d="M796.8,1198.6v19.8c0,0.7-0.1,1.4-0.3,2c-76,5.4-150.2-10.5-225.3-28.9h218.6
			C793.6,1191.6,796.8,1194.7,796.8,1198.6z"/>
		<g>
			<g>
				<path class="st3" d="M785.3,1221.2c-0.2,0-0.3,0-0.5-0.1c0.4,0,0.7,0,1.1,0C785.7,1221.1,785.5,1221.2,785.3,1221.2z"/>
			</g>
			<g>
				<path class="st4" d="M783.6,1219.4v-21.7c0-1,0.8-1.8,1.8-1.8s1.8,0.8,1.8,1.8v21.7c0,0.8-0.5,1.4-1.2,1.7c-0.4,0-0.7,0-1.1,0
					C784.1,1220.9,783.6,1220.2,783.6,1219.4z"/>
			</g>
			<g>
				<path class="st4" d="M770.3,1221.2c-1,0-1.8-0.8-1.8-1.8v-21.7c0-1,0.8-1.8,1.8-1.8c1,0,1.8,0.8,1.8,1.8v21.7
					C772,1220.4,771.2,1221.2,770.3,1221.2z"/>
			</g>
			<g>
				<path class="st4" d="M755.2,1221.2c-1,0-1.8-0.8-1.8-1.8v-21.7c0-1,0.8-1.8,1.8-1.8c1,0,1.8,0.8,1.8,1.8v21.7
					C757,1220.4,756.2,1221.2,755.2,1221.2z"/>
			</g>
			<g>
				<path class="st3" d="M740.1,1221.2c-0.4,0-0.8-0.2-1.1-0.4c0.7,0,1.4,0.1,2.1,0.1C740.9,1221,740.5,1221.2,740.1,1221.2z"/>
			</g>
			<g>
				<path class="st4" d="M738.4,1219.4v-21.7c0-1,0.8-1.8,1.8-1.8c1,0,1.8,0.8,1.8,1.8v21.7c0,0.6-0.3,1.2-0.8,1.5
					c-0.7,0-1.4-0.1-2.1-0.1C738.6,1220.4,738.4,1219.9,738.4,1219.4z"/>
			</g>
			<g>
				<path class="st3" d="M651.6,1219.4c0,1-0.8,1.8-1.8,1.8c-1,0-1.8-0.8-1.8-1.8v-10.6c1.2,0.2,2.4,0.5,3.5,0.7V1219.4z"/>
			</g>
			<g>
				<path class="st4" d="M649.8,1195.9c1,0,1.8,0.8,1.8,1.8v11.8c-1.2-0.2-2.4-0.5-3.5-0.7v-11.1
					C648,1196.7,648.8,1195.9,649.8,1195.9z"/>
			</g>
			<g>
				<path class="st3" d="M696.7,1219.4c0,1-0.8,1.8-1.8,1.8c-1,0-1.8-0.8-1.8-1.8v-3.1c1.2,0.2,2.4,0.3,3.5,0.5V1219.4z"/>
			</g>
			<g>
				<path class="st4" d="M695,1195.9c1,0,1.8,0.8,1.8,1.8v19.1c-1.2-0.2-2.4-0.3-3.5-0.5v-18.6C693.2,1196.7,694,1195.9,695,1195.9z
					"/>
			</g>
			<g>
				<path class="st3" d="M711.8,1219.4c0,1-0.8,1.8-1.8,1.8c-1,0-1.8-0.8-1.8-1.8v-1.2c1.2,0.1,2.4,0.3,3.5,0.4V1219.4z"/>
			</g>
			<g>
				<path class="st4" d="M710,1195.9c1,0,1.8,0.8,1.8,1.8v20.9c-1.2-0.1-2.4-0.2-3.5-0.4v-20.5
					C708.3,1196.7,709.1,1195.9,710,1195.9z"/>
			</g>
			<g>
				<path class="st3" d="M725.1,1221.2L725.1,1221.2c-0.9,0-1.6-0.7-1.7-1.5c1.1,0.1,2.3,0.2,3.4,0.3
					C726.5,1220.6,725.9,1221.2,725.1,1221.2z"/>
			</g>
			<g>
				<path class="st4" d="M723.3,1197.7c0-1,0.8-1.8,1.8-1.8l0,0c1,0,1.8,0.8,1.8,1.8v21.7c0,0.2,0,0.4-0.1,0.5
					c-1.1-0.1-2.3-0.2-3.4-0.3c0-0.1,0-0.2,0-0.2V1197.7z"/>
			</g>
			<g>
				<path class="st4" d="M664.9,1195.9c1,0,1.8,0.8,1.8,1.8v14.5c-1.2-0.2-2.4-0.4-3.5-0.6v-13.9
					C663.1,1196.7,663.9,1195.9,664.9,1195.9z"/>
			</g>
			<g>
				<path class="st3" d="M666.6,1219.4c0,1-0.8,1.8-1.8,1.8c-1,0-1.8-0.8-1.8-1.8v-7.8c1.2,0.2,2.4,0.4,3.5,0.6V1219.4z"/>
			</g>
			<g>
				<path class="st3" d="M606.4,1219.4c0,1-0.8,1.8-1.8,1.8c-1,0-1.8-0.8-1.8-1.8v-20.3c1.2,0.3,2.4,0.5,3.5,0.8V1219.4z"/>
			</g>
			<g>
				<path class="st4" d="M604.6,1195.9c1,0,1.8,0.8,1.8,1.8v2.3c-1.2-0.3-2.4-0.5-3.5-0.8v-1.5
					C602.8,1196.7,603.6,1195.9,604.6,1195.9z"/>
			</g>
			<g>
				<path class="st4" d="M619.7,1195.9c1,0,1.8,0.8,1.8,1.8v5.6c-1.2-0.3-2.4-0.5-3.5-0.8v-4.9
					C617.9,1196.7,618.7,1195.9,619.7,1195.9z"/>
			</g>
			<g>
				<path class="st3" d="M621.5,1219.4c0,1-0.8,1.8-1.8,1.8c-1,0-1.8-0.8-1.8-1.8v-16.9c1.2,0.3,2.4,0.5,3.5,0.8V1219.4z"/>
			</g>
			<g>
				<path class="st3" d="M574.5,1195.9c1,0,1.8,0.8,1.8,1.8v21.7c0,1-0.8,1.8-1.8,1.8c-1,0-1.8-0.8-1.8-1.8v-21.7
					C572.7,1196.7,573.5,1195.9,574.5,1195.9z"/>
			</g>
			<g>
				<path class="st4" d="M634.7,1195.9c1,0,1.8,0.8,1.8,1.8v8.8c-1.2-0.2-2.4-0.5-3.5-0.7v-8.1
					C633,1196.7,633.8,1195.9,634.7,1195.9z"/>
			</g>
			<g>
				<path class="st3" d="M636.5,1219.4c0,1-0.8,1.8-1.8,1.8c-1,0-1.8-0.8-1.8-1.8v-13.6c1.2,0.2,2.4,0.5,3.5,0.7V1219.4z"/>
			</g>
			<g>
				<path class="st3" d="M591.3,1197.7v21.7c0,1-0.8,1.8-1.8,1.8l0,0c-1,0-1.8-0.8-1.8-1.8v-21.7c0-0.9,0.6-1.6,1.4-1.7
					c0.5,0.1,0.9,0.2,1.4,0.3C591.1,1196.6,591.3,1197.1,591.3,1197.7z"/>
			</g>
			<g>
				<path class="st3" d="M589.6,1195.9c0.4,0,0.8,0.1,1.1,0.4c-0.5-0.1-0.9-0.2-1.4-0.3C589.3,1195.9,589.4,1195.9,589.6,1195.9
					L589.6,1195.9z"/>
			</g>
			<g>
				<path class="st3" d="M559.4,1195.9c1,0,1.8,0.8,1.8,1.8v21.7c0,1-0.8,1.8-1.8,1.8s-1.8-0.8-1.8-1.8v-21.7
					C557.7,1196.7,558.5,1195.9,559.4,1195.9z"/>
			</g>
			<g>
				<path class="st3" d="M681.7,1219.4c0,1-0.8,1.8-1.8,1.8s-1.8-0.8-1.8-1.8v-5.3c1.2,0.2,2.4,0.4,3.5,0.6V1219.4z"/>
			</g>
			<g>
				<path class="st4" d="M679.9,1195.9c1,0,1.8,0.8,1.8,1.8v17c-1.2-0.2-2.4-0.4-3.5-0.6v-16.4
					C678.1,1196.7,678.9,1195.9,679.9,1195.9z"/>
			</g>
		</g>
	</g>
	<g>
		<path class="st3" d="M789.2,890.1v1.9c0,3.9-3.2,7-7,7H540c-3.9,0-7-3.2-7-7v-27.2c0-3.9,3.2-7,7-7h4.8
			C626.4,877.9,706.7,896.7,789.2,890.1z"/>
		<path class="st4" d="M789.2,864.8v25.3c-82.5,6.7-162.8-12.2-244.4-32.3h237.4C786,857.8,789.2,860.9,789.2,864.8z"/>
		<path class="st4" d="M785.3,890.4c-0.9,2.9-3.6,5.1-6.8,5.1H543.8c-3.9,0-7-3.2-7-7v-19.8c0-3.9,3.2-7,7-7H560
			C635.1,879.9,709.3,895.8,785.3,890.4z"/>
		<path class="st5" d="M785.6,868.6v19.8c0,0.7-0.1,1.4-0.3,2c-76,5.4-150.2-10.5-225.3-28.9h218.6
			C782.5,861.5,785.6,864.7,785.6,868.6z"/>
		<g>
			<g>
				<path class="st3" d="M774.1,891.1c-0.2,0-0.3,0-0.5-0.1c0.4,0,0.7,0,1.1,0C774.6,891.1,774.4,891.1,774.1,891.1z"/>
			</g>
			<g>
				<path class="st4" d="M772.4,889.3v-21.7c0-1,0.8-1.8,1.8-1.8c1,0,1.8,0.8,1.8,1.8v21.7c0,0.8-0.5,1.4-1.2,1.7
					c-0.4,0-0.7,0-1.1,0C772.9,890.8,772.4,890.2,772.4,889.3z"/>
			</g>
			<g>
				<path class="st4" d="M759.1,891.1c-1,0-1.8-0.8-1.8-1.8v-21.7c0-1,0.8-1.8,1.8-1.8c1,0,1.8,0.8,1.8,1.8v21.7
					C760.9,890.3,760.1,891.1,759.1,891.1z"/>
			</g>
			<g>
				<path class="st4" d="M744,891.1c-1,0-1.8-0.8-1.8-1.8v-21.7c0-1,0.8-1.8,1.8-1.8c1,0,1.8,0.8,1.8,1.8v21.7
					C745.8,890.3,745,891.1,744,891.1z"/>
			</g>
			<g>
				<path class="st3" d="M729,891.1c-0.4,0-0.8-0.2-1.1-0.4c0.7,0,1.4,0.1,2.1,0.1C729.7,891,729.3,891.1,729,891.1z"/>
			</g>
			<g>
				<path class="st4" d="M727.2,889.3v-21.7c0-1,0.8-1.8,1.8-1.8c1,0,1.8,0.8,1.8,1.8v21.7c0,0.6-0.3,1.1-0.8,1.5
					c-0.7,0-1.4-0.1-2.1-0.1C727.5,890.4,727.2,889.9,727.2,889.3z"/>
			</g>
			<g>
				<path class="st3" d="M640.4,889.3c0,1-0.8,1.8-1.8,1.8c-1,0-1.8-0.8-1.8-1.8v-10.6c1.2,0.2,2.4,0.5,3.5,0.7V889.3z"/>
			</g>
			<g>
				<path class="st4" d="M638.6,865.8c1,0,1.8,0.8,1.8,1.8v11.8c-1.2-0.2-2.4-0.5-3.5-0.7v-11.1
					C636.8,866.6,637.6,865.8,638.6,865.8z"/>
			</g>
			<g>
				<path class="st3" d="M685.6,889.3c0,1-0.8,1.8-1.8,1.8c-1,0-1.8-0.8-1.8-1.8v-3.1c1.2,0.2,2.4,0.3,3.5,0.5V889.3z"/>
			</g>
			<g>
				<path class="st4" d="M683.8,865.8c1,0,1.8,0.8,1.8,1.8v19.1c-1.2-0.2-2.4-0.3-3.5-0.5v-18.6C682,866.6,682.8,865.8,683.8,865.8z
					"/>
			</g>
			<g>
				<path class="st3" d="M700.6,889.3c0,1-0.8,1.8-1.8,1.8c-1,0-1.8-0.8-1.8-1.8v-1.2c1.2,0.1,2.4,0.3,3.5,0.4V889.3z"/>
			</g>
			<g>
				<path class="st4" d="M698.9,865.8c1,0,1.8,0.8,1.8,1.8v20.9c-1.2-0.1-2.4-0.2-3.5-0.4v-20.5
					C697.1,866.6,697.9,865.8,698.9,865.8z"/>
			</g>
			<g>
				<path class="st3" d="M713.9,891.1L713.9,891.1c-0.9,0-1.6-0.7-1.7-1.5c1.1,0.1,2.3,0.2,3.4,0.3
					C715.4,890.6,714.7,891.1,713.9,891.1z"/>
			</g>
			<g>
				<path class="st4" d="M712.1,867.6c0-1,0.8-1.8,1.8-1.8l0,0c1,0,1.8,0.8,1.8,1.8v21.7c0,0.2,0,0.4-0.1,0.5
					c-1.1-0.1-2.3-0.2-3.4-0.3c0-0.1,0-0.2,0-0.2V867.6z"/>
			</g>
			<g>
				<path class="st4" d="M653.7,865.8c1,0,1.8,0.8,1.8,1.8v14.5c-1.2-0.2-2.4-0.4-3.5-0.6v-13.9
					C651.9,866.6,652.7,865.8,653.7,865.8z"/>
			</g>
			<g>
				<path class="st3" d="M655.5,889.3c0,1-0.8,1.8-1.8,1.8c-1,0-1.8-0.8-1.8-1.8v-7.8c1.2,0.2,2.4,0.4,3.5,0.6V889.3z"/>
			</g>
			<g>
				<path class="st3" d="M595.2,889.3c0,1-0.8,1.8-1.8,1.8s-1.8-0.8-1.8-1.8v-20.3c1.2,0.3,2.4,0.5,3.5,0.8V889.3z"/>
			</g>
			<g>
				<path class="st4" d="M593.4,865.8c1,0,1.8,0.8,1.8,1.8v2.3c-1.2-0.3-2.4-0.5-3.5-0.8v-1.5C591.7,866.6,592.5,865.8,593.4,865.8z
					"/>
			</g>
			<g>
				<path class="st4" d="M608.5,865.8c1,0,1.8,0.8,1.8,1.8v5.6c-1.2-0.3-2.4-0.5-3.5-0.8v-4.9C606.7,866.6,607.5,865.8,608.5,865.8z
					"/>
			</g>
			<g>
				<path class="st3" d="M610.3,889.3c0,1-0.8,1.8-1.8,1.8c-1,0-1.8-0.8-1.8-1.8v-16.9c1.2,0.3,2.4,0.5,3.5,0.8V889.3z"/>
			</g>
			<g>
				<path class="st3" d="M563.3,865.8c1,0,1.8,0.8,1.8,1.8v21.7c0,1-0.8,1.8-1.8,1.8c-1,0-1.8-0.8-1.8-1.8v-21.7
					C561.6,866.6,562.4,865.8,563.3,865.8z"/>
			</g>
			<g>
				<path class="st4" d="M623.6,865.8c1,0,1.8,0.8,1.8,1.8v8.8c-1.2-0.2-2.4-0.5-3.5-0.7v-8.1C621.8,866.6,622.6,865.8,623.6,865.8z
					"/>
			</g>
			<g>
				<path class="st3" d="M625.3,889.3c0,1-0.8,1.8-1.8,1.8c-1,0-1.8-0.8-1.8-1.8v-13.6c1.2,0.2,2.4,0.5,3.5,0.7V889.3z"/>
			</g>
			<g>
				<path class="st3" d="M580.2,867.6v21.7c0,1-0.8,1.8-1.8,1.8l0,0c-1,0-1.8-0.8-1.8-1.8v-21.7c0-0.9,0.6-1.6,1.4-1.7
					c0.5,0.1,0.9,0.2,1.4,0.3C579.9,866.5,580.2,867,580.2,867.6z"/>
			</g>
			<g>
				<path class="st3" d="M578.4,865.8c0.4,0,0.8,0.1,1.1,0.4c-0.5-0.1-0.9-0.2-1.4-0.3C578.2,865.9,578.3,865.8,578.4,865.8
					L578.4,865.8z"/>
			</g>
			<g>
				<path class="st3" d="M548.3,865.8c1,0,1.8,0.8,1.8,1.8v21.7c0,1-0.8,1.8-1.8,1.8c-1,0-1.8-0.8-1.8-1.8v-21.7
					C546.5,866.6,547.3,865.8,548.3,865.8z"/>
			</g>
			<g>
				<path class="st3" d="M670.5,889.3c0,1-0.8,1.8-1.8,1.8s-1.8-0.8-1.8-1.8V884c1.2,0.2,2.4,0.4,3.5,0.6V889.3z"/>
			</g>
			<g>
				<path class="st4" d="M668.7,865.8c1,0,1.8,0.8,1.8,1.8v17c-1.2-0.2-2.4-0.4-3.5-0.6v-16.4C667,866.6,667.8,865.8,668.7,865.8z"
					/>
			</g>
		</g>
	</g>
	<g>
		<path class="st3" d="M775.2,848.9v1.9c0,3.9-3.2,7-7,7H525.9c-3.9,0-7-3.2-7-7v-27.2c0-3.9,3.2-7,7-7h4.8
			C612.4,836.7,692.6,855.5,775.2,848.9z"/>
		<path class="st4" d="M775.2,823.6v25.3c-82.5,6.7-162.8-12.2-244.4-32.3h237.4C772,816.5,775.2,819.7,775.2,823.6z"/>
		<path class="st4" d="M771.3,849.1c-0.9,2.9-3.6,5.1-6.8,5.1H529.8c-3.9,0-7-3.2-7-7v-19.8c0-3.9,3.2-7,7-7H546
			C621.1,838.6,695.3,854.6,771.3,849.1z"/>
		<path class="st5" d="M771.6,827.3v19.8c0,0.7-0.1,1.4-0.3,2c-76,5.4-150.2-10.5-225.3-28.9h218.6
			C768.4,820.3,771.6,823.4,771.6,827.3z"/>
		<g>
			<g>
				<path class="st3" d="M760.1,849.9c-0.2,0-0.3,0-0.5-0.1c0.4,0,0.7,0,1.1,0C760.5,849.8,760.3,849.9,760.1,849.9z"/>
			</g>
			<g>
				<path class="st4" d="M758.3,848.1v-21.7c0-1,0.8-1.8,1.8-1.8c1,0,1.8,0.8,1.8,1.8v21.7c0,0.8-0.5,1.4-1.2,1.7
					c-0.4,0-0.7,0-1.1,0C758.9,849.6,758.3,848.9,758.3,848.1z"/>
			</g>
			<g>
				<path class="st4" d="M745.1,849.9c-1,0-1.8-0.8-1.8-1.8v-21.7c0-1,0.8-1.8,1.8-1.8s1.8,0.8,1.8,1.8v21.7
					C746.8,849.1,746,849.9,745.1,849.9z"/>
			</g>
			<g>
				<path class="st4" d="M730,849.9c-1,0-1.8-0.8-1.8-1.8v-21.7c0-1,0.8-1.8,1.8-1.8c1,0,1.8,0.8,1.8,1.8v21.7
					C731.8,849.1,731,849.9,730,849.9z"/>
			</g>
			<g>
				<path class="st3" d="M714.9,849.9c-0.4,0-0.8-0.2-1.1-0.4c0.7,0,1.4,0.1,2.1,0.1C715.7,849.8,715.3,849.9,714.9,849.9z"/>
			</g>
			<g>
				<path class="st4" d="M713.2,848.1v-21.7c0-1,0.8-1.8,1.8-1.8c1,0,1.8,0.8,1.8,1.8v21.7c0,0.6-0.3,1.2-0.8,1.5
					c-0.7,0-1.4-0.1-2.1-0.1C713.4,849.1,713.2,848.7,713.2,848.1z"/>
			</g>
			<g>
				<path class="st3" d="M626.4,848.1c0,1-0.8,1.8-1.8,1.8s-1.8-0.8-1.8-1.8v-10.6c1.2,0.2,2.4,0.5,3.5,0.7V848.1z"/>
			</g>
			<g>
				<path class="st4" d="M624.6,824.6c1,0,1.8,0.8,1.8,1.8v11.8c-1.2-0.2-2.4-0.5-3.5-0.7v-11.1
					C622.8,825.4,623.6,824.6,624.6,824.6z"/>
			</g>
			<g>
				<path class="st3" d="M671.5,848.1c0,1-0.8,1.8-1.8,1.8c-1,0-1.8-0.8-1.8-1.8V845c1.2,0.2,2.4,0.3,3.5,0.5V848.1z"/>
			</g>
			<g>
				<path class="st4" d="M669.8,824.6c1,0,1.8,0.8,1.8,1.8v19.1c-1.2-0.2-2.4-0.3-3.5-0.5v-18.6C668,825.4,668.8,824.6,669.8,824.6z
					"/>
			</g>
			<g>
				<path class="st3" d="M686.6,848.1c0,1-0.8,1.8-1.8,1.8c-1,0-1.8-0.8-1.8-1.8v-1.2c1.2,0.1,2.4,0.3,3.5,0.4V848.1z"/>
			</g>
			<g>
				<path class="st4" d="M684.8,824.6c1,0,1.8,0.8,1.8,1.8v20.9c-1.2-0.1-2.4-0.2-3.5-0.4v-20.5
					C683.1,825.4,683.9,824.6,684.8,824.6z"/>
			</g>
			<g>
				<path class="st3" d="M699.9,849.9L699.9,849.9c-0.9,0-1.6-0.7-1.7-1.5c1.1,0.1,2.3,0.2,3.4,0.3
					C701.3,849.4,700.7,849.9,699.9,849.9z"/>
			</g>
			<g>
				<path class="st4" d="M698.1,826.4c0-1,0.8-1.8,1.8-1.8h0c1,0,1.8,0.8,1.8,1.8v21.7c0,0.2,0,0.4-0.1,0.5
					c-1.1-0.1-2.3-0.2-3.4-0.3c0-0.1,0-0.2,0-0.2V826.4z"/>
			</g>
			<g>
				<path class="st4" d="M639.7,824.6c1,0,1.8,0.8,1.8,1.8v14.5c-1.2-0.2-2.4-0.4-3.5-0.6v-13.9
					C637.9,825.4,638.7,824.6,639.7,824.6z"/>
			</g>
			<g>
				<path class="st3" d="M641.4,848.1c0,1-0.8,1.8-1.8,1.8c-1,0-1.8-0.8-1.8-1.8v-7.8c1.2,0.2,2.4,0.4,3.5,0.6V848.1z"/>
			</g>
			<g>
				<path class="st3" d="M581.2,848.1c0,1-0.8,1.8-1.8,1.8c-1,0-1.8-0.8-1.8-1.8v-20.3c1.2,0.3,2.4,0.5,3.5,0.8V848.1z"/>
			</g>
			<g>
				<path class="st4" d="M579.4,824.6c1,0,1.8,0.8,1.8,1.8v2.3c-1.2-0.3-2.4-0.5-3.5-0.8v-1.5C577.6,825.4,578.4,824.6,579.4,824.6z
					"/>
			</g>
			<g>
				<path class="st4" d="M594.5,824.6c1,0,1.8,0.8,1.8,1.8v5.6c-1.2-0.3-2.4-0.5-3.5-0.8v-4.9C592.7,825.4,593.5,824.6,594.5,824.6z
					"/>
			</g>
			<g>
				<path class="st3" d="M596.3,848.1c0,1-0.8,1.8-1.8,1.8c-1,0-1.8-0.8-1.8-1.8v-16.9c1.2,0.3,2.4,0.5,3.5,0.8V848.1z"/>
			</g>
			<g>
				<path class="st3" d="M549.3,824.6c1,0,1.8,0.8,1.8,1.8v21.7c0,1-0.8,1.8-1.8,1.8s-1.8-0.8-1.8-1.8v-21.7
					C547.5,825.4,548.3,824.6,549.3,824.6z"/>
			</g>
			<g>
				<path class="st4" d="M609.5,824.6c1,0,1.8,0.8,1.8,1.8v8.8c-1.2-0.2-2.4-0.5-3.5-0.7v-8.1C607.8,825.4,608.6,824.6,609.5,824.6z
					"/>
			</g>
			<g>
				<path class="st3" d="M611.3,848.1c0,1-0.8,1.8-1.8,1.8c-1,0-1.8-0.8-1.8-1.8v-13.6c1.2,0.2,2.4,0.5,3.5,0.7V848.1z"/>
			</g>
			<g>
				<path class="st3" d="M566.1,826.4v21.7c0,1-0.8,1.8-1.8,1.8l0,0c-1,0-1.8-0.8-1.8-1.8v-21.7c0-0.9,0.6-1.6,1.4-1.7
					c0.5,0.1,0.9,0.2,1.4,0.3C565.9,825.3,566.1,825.8,566.1,826.4z"/>
			</g>
			<g>
				<path class="st3" d="M564.4,824.6c0.4,0,0.8,0.1,1.1,0.4c-0.5-0.1-0.9-0.2-1.4-0.3C564.1,824.6,564.2,824.6,564.4,824.6
					L564.4,824.6z"/>
			</g>
			<g>
				<path class="st3" d="M534.2,824.6c1,0,1.8,0.8,1.8,1.8v21.7c0,1-0.8,1.8-1.8,1.8c-1,0-1.8-0.8-1.8-1.8v-21.7
					C532.5,825.4,533.3,824.6,534.2,824.6z"/>
			</g>
			<g>
				<path class="st3" d="M656.5,848.1c0,1-0.8,1.8-1.8,1.8c-1,0-1.8-0.8-1.8-1.8v-5.3c1.2,0.2,2.4,0.4,3.5,0.6V848.1z"/>
			</g>
			<g>
				<path class="st4" d="M654.7,824.6c1,0,1.8,0.8,1.8,1.8v17c-1.2-0.2-2.4-0.4-3.5-0.6v-16.4C652.9,825.4,653.7,824.6,654.7,824.6z
					"/>
			</g>
		</g>
	</g>
	<g>
		<path class="st3" d="M785.3,972.7v1.9c0,3.9-3.2,7-7,7H536.1c-3.9,0-7-3.2-7-7v-27.2c0-3.9,3.2-7,7-7h4.8
			C622.5,960.6,702.8,979.4,785.3,972.7z"/>
		<path class="st4" d="M785.3,947.5v25.3c-82.5,6.7-162.8-12.2-244.4-32.3h237.4C782.1,940.4,785.3,943.6,785.3,947.5z"/>
		<path class="st4" d="M781.4,973c-0.9,2.9-3.6,5.1-6.8,5.1H539.9c-3.9,0-7-3.2-7-7v-19.8c0-3.9,3.2-7,7-7h16.1
			C631.2,962.5,705.4,978.4,781.4,973z"/>
		<path class="st5" d="M781.7,951.2V971c0,0.7-0.1,1.4-0.3,2c-76,5.4-150.2-10.5-225.3-28.9h218.6
			C778.6,944.2,781.7,947.3,781.7,951.2z"/>
		<g>
			<g>
				<path class="st3" d="M770.3,973.8c-0.2,0-0.3,0-0.5-0.1c0.4,0,0.7,0,1.1,0C770.7,973.7,770.5,973.8,770.3,973.8z"/>
			</g>
			<g>
				<path class="st4" d="M768.5,972v-21.7c0-1,0.8-1.8,1.8-1.8c1,0,1.8,0.8,1.8,1.8V972c0,0.8-0.5,1.4-1.2,1.7c-0.4,0-0.7,0-1.1,0
					C769,973.5,768.5,972.8,768.5,972z"/>
			</g>
			<g>
				<path class="st4" d="M755.2,973.8c-1,0-1.8-0.8-1.8-1.8v-21.7c0-1,0.8-1.8,1.8-1.8s1.8,0.8,1.8,1.8V972
					C757,973,756.2,973.8,755.2,973.8z"/>
			</g>
			<g>
				<path class="st4" d="M740.1,973.8c-1,0-1.8-0.8-1.8-1.8v-21.7c0-1,0.8-1.8,1.8-1.8c1,0,1.8,0.8,1.8,1.8V972
					C741.9,973,741.1,973.8,740.1,973.8z"/>
			</g>
			<g>
				<path class="st3" d="M725.1,973.8c-0.4,0-0.8-0.2-1.1-0.4c0.7,0,1.4,0.1,2.1,0.1C725.8,973.7,725.4,973.8,725.1,973.8z"/>
			</g>
			<g>
				<path class="st4" d="M723.3,972v-21.7c0-1,0.8-1.8,1.8-1.8c1,0,1.8,0.8,1.8,1.8V972c0,0.6-0.3,1.1-0.8,1.5
					c-0.7,0-1.4-0.1-2.1-0.1C723.6,973,723.3,972.5,723.3,972z"/>
			</g>
			<g>
				<path class="st3" d="M636.5,972c0,1-0.8,1.8-1.8,1.8c-1,0-1.8-0.8-1.8-1.8v-10.6c1.2,0.2,2.4,0.5,3.5,0.7V972z"/>
			</g>
			<g>
				<path class="st4" d="M634.7,948.5c1,0,1.8,0.8,1.8,1.8v11.8c-1.2-0.2-2.4-0.5-3.5-0.7v-11.1C633,949.3,633.7,948.5,634.7,948.5z
					"/>
			</g>
			<g>
				<path class="st3" d="M681.7,972c0,1-0.8,1.8-1.8,1.8c-1,0-1.8-0.8-1.8-1.8v-3.1c1.2,0.2,2.4,0.3,3.5,0.5V972z"/>
			</g>
			<g>
				<path class="st4" d="M679.9,948.5c1,0,1.8,0.8,1.8,1.8v19.1c-1.2-0.2-2.4-0.3-3.5-0.5v-18.6
					C678.1,949.3,678.9,948.5,679.9,948.5z"/>
			</g>
			<g>
				<path class="st3" d="M696.7,972c0,1-0.8,1.8-1.8,1.8c-1,0-1.8-0.8-1.8-1.8v-1.2c1.2,0.1,2.4,0.3,3.5,0.4V972z"/>
			</g>
			<g>
				<path class="st4" d="M695,948.5c1,0,1.8,0.8,1.8,1.8v20.9c-1.2-0.1-2.4-0.2-3.5-0.4v-20.5C693.2,949.3,694,948.5,695,948.5z"/>
			</g>
			<g>
				<path class="st3" d="M710,973.8L710,973.8c-0.9,0-1.6-0.7-1.7-1.5c1.1,0.1,2.3,0.2,3.4,0.3C711.5,973.2,710.8,973.8,710,973.8z"
					/>
			</g>
			<g>
				<path class="st4" d="M708.2,950.3c0-1,0.8-1.8,1.8-1.8h0c1,0,1.8,0.8,1.8,1.8V972c0,0.2,0,0.4-0.1,0.5c-1.1-0.1-2.3-0.2-3.4-0.3
					c0-0.1,0-0.2,0-0.2V950.3z"/>
			</g>
			<g>
				<path class="st4" d="M649.8,948.5c1,0,1.8,0.8,1.8,1.8v14.5c-1.2-0.2-2.4-0.4-3.5-0.6v-13.9C648,949.3,648.8,948.5,649.8,948.5z
					"/>
			</g>
			<g>
				<path class="st3" d="M651.6,972c0,1-0.8,1.8-1.8,1.8c-1,0-1.8-0.8-1.8-1.8v-7.8c1.2,0.2,2.4,0.4,3.5,0.6V972z"/>
			</g>
			<g>
				<path class="st3" d="M591.3,972c0,1-0.8,1.8-1.8,1.8c-1,0-1.8-0.8-1.8-1.8v-20.3c1.2,0.3,2.4,0.5,3.5,0.8V972z"/>
			</g>
			<g>
				<path class="st4" d="M589.6,948.5c1,0,1.8,0.8,1.8,1.8v2.3c-1.2-0.3-2.4-0.5-3.5-0.8v-1.5C587.8,949.3,588.6,948.5,589.6,948.5z
					"/>
			</g>
			<g>
				<path class="st4" d="M604.6,948.5c1,0,1.8,0.8,1.8,1.8v5.6c-1.2-0.3-2.4-0.5-3.5-0.8v-4.9C602.8,949.3,603.6,948.5,604.6,948.5z
					"/>
			</g>
			<g>
				<path class="st3" d="M606.4,972c0,1-0.8,1.8-1.8,1.8c-1,0-1.8-0.8-1.8-1.8v-16.9c1.2,0.3,2.4,0.5,3.5,0.8V972z"/>
			</g>
			<g>
				<path class="st3" d="M559.4,948.5c1,0,1.8,0.8,1.8,1.8V972c0,1-0.8,1.8-1.8,1.8c-1,0-1.8-0.8-1.8-1.8v-21.7
					C557.7,949.3,558.5,948.5,559.4,948.5z"/>
			</g>
			<g>
				<path class="st4" d="M619.7,948.5c1,0,1.8,0.8,1.8,1.8v8.8c-1.2-0.2-2.4-0.5-3.5-0.7v-8.1C617.9,949.3,618.7,948.5,619.7,948.5z
					"/>
			</g>
			<g>
				<path class="st3" d="M621.4,972c0,1-0.8,1.8-1.8,1.8c-1,0-1.8-0.8-1.8-1.8v-13.6c1.2,0.2,2.4,0.5,3.5,0.7V972z"/>
			</g>
			<g>
				<path class="st3" d="M576.3,950.3V972c0,1-0.8,1.8-1.8,1.8l0,0c-1,0-1.8-0.8-1.8-1.8v-21.7c0-0.9,0.6-1.6,1.4-1.7
					c0.5,0.1,0.9,0.2,1.4,0.3C576,949.2,576.3,949.7,576.3,950.3z"/>
			</g>
			<g>
				<path class="st3" d="M574.5,948.5c0.4,0,0.8,0.1,1.1,0.4c-0.5-0.1-0.9-0.2-1.4-0.3C574.3,948.5,574.4,948.5,574.5,948.5
					L574.5,948.5z"/>
			</g>
			<g>
				<path class="st3" d="M544.4,948.5c1,0,1.8,0.8,1.8,1.8V972c0,1-0.8,1.8-1.8,1.8c-1,0-1.8-0.8-1.8-1.8v-21.7
					C542.6,949.3,543.4,948.5,544.4,948.5z"/>
			</g>
			<g>
				<path class="st3" d="M666.6,972c0,1-0.8,1.8-1.8,1.8c-1,0-1.8-0.8-1.8-1.8v-5.3c1.2,0.2,2.4,0.4,3.5,0.6V972z"/>
			</g>
			<g>
				<path class="st4" d="M664.8,948.5c1,0,1.8,0.8,1.8,1.8v17c-1.2-0.2-2.4-0.4-3.5-0.6v-16.4C663.1,949.3,663.9,948.5,664.8,948.5z
					"/>
			</g>
		</g>
	</g>
	<g>
		<path class="st3" d="M756.8,931.4v1.9c0,3.9-3.2,7-7,7H507.5c-3.9,0-7-3.2-7-7v-27.2c0-3.9,3.2-7,7-7h4.8
			C594,919.2,674.2,938.1,756.8,931.4z"/>
		<path class="st4" d="M756.8,906.1v25.3c-82.5,6.7-162.8-12.2-244.4-32.3h237.4C753.6,899.1,756.8,902.3,756.8,906.1z"/>
		<path class="st4" d="M752.9,931.7c-0.9,2.9-3.6,5.1-6.8,5.1H511.4c-3.9,0-7-3.2-7-7v-19.8c0-3.9,3.2-7,7-7h16.1
			C602.7,921.2,676.9,937.1,752.9,931.7z"/>
		<path class="st5" d="M753.2,909.9v19.8c0,0.7-0.1,1.4-0.3,2c-76,5.4-150.2-10.5-225.3-28.9h218.6C750,902.8,753.2,906,753.2,909.9
			z"/>
		<g>
			<g>
				<path class="st3" d="M741.7,932.4c-0.2,0-0.3,0-0.5-0.1c0.4,0,0.7,0,1.1,0C742.1,932.4,741.9,932.4,741.7,932.4z"/>
			</g>
			<g>
				<path class="st4" d="M739.9,930.7v-21.7c0-1,0.8-1.8,1.8-1.8c1,0,1.8,0.8,1.8,1.8v21.7c0,0.8-0.5,1.4-1.2,1.7
					c-0.4,0-0.7,0-1.1,0C740.5,932.2,739.9,931.5,739.9,930.7z"/>
			</g>
			<g>
				<path class="st4" d="M726.7,932.4c-1,0-1.8-0.8-1.8-1.8v-21.7c0-1,0.8-1.8,1.8-1.8c1,0,1.8,0.8,1.8,1.8v21.7
					C728.4,931.6,727.6,932.4,726.7,932.4z"/>
			</g>
			<g>
				<path class="st4" d="M711.6,932.4c-1,0-1.8-0.8-1.8-1.8v-21.7c0-1,0.8-1.8,1.8-1.8c1,0,1.8,0.8,1.8,1.8v21.7
					C713.4,931.6,712.6,932.4,711.6,932.4z"/>
			</g>
			<g>
				<path class="st3" d="M696.5,932.4c-0.4,0-0.8-0.2-1.1-0.4c0.7,0,1.4,0.1,2.1,0.1C697.3,932.3,696.9,932.4,696.5,932.4z"/>
			</g>
			<g>
				<path class="st4" d="M694.8,930.7v-21.7c0-1,0.8-1.8,1.8-1.8c1,0,1.8,0.8,1.8,1.8v21.7c0,0.6-0.3,1.2-0.8,1.5
					c-0.7,0-1.4-0.1-2.1-0.1C695,931.7,694.8,931.2,694.8,930.7z"/>
			</g>
			<g>
				<path class="st3" d="M608,930.7c0,1-0.8,1.8-1.8,1.8c-1,0-1.8-0.8-1.8-1.8v-10.6c1.2,0.2,2.4,0.5,3.5,0.7V930.7z"/>
			</g>
			<g>
				<path class="st4" d="M606.2,907.2c1,0,1.8,0.8,1.8,1.8v11.8c-1.2-0.2-2.4-0.5-3.5-0.7v-11.1C604.4,908,605.2,907.2,606.2,907.2z
					"/>
			</g>
			<g>
				<path class="st3" d="M653.1,930.7c0,1-0.8,1.8-1.8,1.8c-1,0-1.8-0.8-1.8-1.8v-3.1c1.2,0.2,2.4,0.3,3.5,0.5V930.7z"/>
			</g>
			<g>
				<path class="st4" d="M651.4,907.2c1,0,1.8,0.8,1.8,1.8V928c-1.2-0.2-2.4-0.3-3.5-0.5v-18.6C649.6,908,650.4,907.2,651.4,907.2z"
					/>
			</g>
			<g>
				<path class="st3" d="M668.2,930.7c0,1-0.8,1.8-1.8,1.8c-1,0-1.8-0.8-1.8-1.8v-1.2c1.2,0.1,2.4,0.3,3.5,0.4V930.7z"/>
			</g>
			<g>
				<path class="st4" d="M666.4,907.2c1,0,1.8,0.8,1.8,1.8v20.9c-1.2-0.1-2.4-0.2-3.5-0.4v-20.5C664.7,908,665.4,907.2,666.4,907.2z
					"/>
			</g>
			<g>
				<path class="st3" d="M681.5,932.4L681.5,932.4c-0.9,0-1.6-0.7-1.7-1.5c1.1,0.1,2.3,0.2,3.4,0.3
					C682.9,931.9,682.3,932.4,681.5,932.4z"/>
			</g>
			<g>
				<path class="st4" d="M679.7,908.9c0-1,0.8-1.8,1.8-1.8l0,0c1,0,1.8,0.8,1.8,1.8v21.7c0,0.2,0,0.4-0.1,0.5
					c-1.1-0.1-2.3-0.2-3.4-0.3c0-0.1,0-0.2,0-0.2V908.9z"/>
			</g>
			<g>
				<path class="st4" d="M621.3,907.2c1,0,1.8,0.8,1.8,1.8v14.5c-1.2-0.2-2.4-0.4-3.5-0.6v-13.9C619.5,908,620.3,907.2,621.3,907.2z
					"/>
			</g>
			<g>
				<path class="st3" d="M623,930.7c0,1-0.8,1.8-1.8,1.8c-1,0-1.8-0.8-1.8-1.8v-7.8c1.2,0.2,2.4,0.4,3.5,0.6V930.7z"/>
			</g>
			<g>
				<path class="st3" d="M562.8,930.7c0,1-0.8,1.8-1.8,1.8s-1.8-0.8-1.8-1.8v-20.3c1.2,0.3,2.4,0.5,3.5,0.8V930.7z"/>
			</g>
			<g>
				<path class="st4" d="M561,907.2c1,0,1.8,0.8,1.8,1.8v2.3c-1.2-0.3-2.4-0.5-3.5-0.8v-1.5C559.2,908,560,907.2,561,907.2z"/>
			</g>
			<g>
				<path class="st4" d="M576.1,907.2c1,0,1.8,0.8,1.8,1.8v5.6c-1.2-0.3-2.4-0.5-3.5-0.8v-4.9C574.3,908,575.1,907.2,576.1,907.2z"
					/>
			</g>
			<g>
				<path class="st3" d="M577.8,930.7c0,1-0.8,1.8-1.8,1.8c-1,0-1.8-0.8-1.8-1.8v-16.9c1.2,0.3,2.4,0.5,3.5,0.8V930.7z"/>
			</g>
			<g>
				<path class="st3" d="M530.9,907.2c1,0,1.8,0.8,1.8,1.8v21.7c0,1-0.8,1.8-1.8,1.8c-1,0-1.8-0.8-1.8-1.8v-21.7
					C529.1,908,529.9,907.2,530.9,907.2z"/>
			</g>
			<g>
				<path class="st4" d="M591.1,907.2c1,0,1.8,0.8,1.8,1.8v8.8c-1.2-0.2-2.4-0.5-3.5-0.7v-8.1C589.4,908,590.2,907.2,591.1,907.2z"
					/>
			</g>
			<g>
				<path class="st3" d="M592.9,930.7c0,1-0.8,1.8-1.8,1.8c-1,0-1.8-0.8-1.8-1.8V917c1.2,0.2,2.4,0.5,3.5,0.7V930.7z"/>
			</g>
			<g>
				<path class="st3" d="M547.7,908.9v21.7c0,1-0.8,1.8-1.8,1.8l0,0c-1,0-1.8-0.8-1.8-1.8v-21.7c0-0.9,0.6-1.6,1.4-1.7
					c0.5,0.1,0.9,0.2,1.4,0.3C547.5,907.9,547.7,908.4,547.7,908.9z"/>
			</g>
			<g>
				<path class="st3" d="M546,907.2c0.4,0,0.8,0.1,1.1,0.4c-0.5-0.1-0.9-0.2-1.4-0.3C545.7,907.2,545.8,907.2,546,907.2L546,907.2z"
					/>
			</g>
			<g>
				<path class="st3" d="M515.8,907.2c1,0,1.8,0.8,1.8,1.8v21.7c0,1-0.8,1.8-1.8,1.8c-1,0-1.8-0.8-1.8-1.8v-21.7
					C514.1,908,514.9,907.2,515.8,907.2z"/>
			</g>
			<g>
				<path class="st3" d="M638.1,930.7c0,1-0.8,1.8-1.8,1.8c-1,0-1.8-0.8-1.8-1.8v-5.3c1.2,0.2,2.4,0.4,3.5,0.6V930.7z"/>
			</g>
			<g>
				<path class="st4" d="M636.3,907.2c1,0,1.8,0.8,1.8,1.8v17c-1.2-0.2-2.4-0.4-3.5-0.6v-16.4C634.5,908,635.3,907.2,636.3,907.2z"
					/>
			</g>
		</g>
	</g>
	<g>
		<path class="st3" d="M777.2,1014v1.9c0,3.9-3.2,7-7,7H528c-3.9,0-7-3.2-7-7v-27.2c0-3.9,3.2-7,7-7h4.8
			C614.5,1001.8,694.7,1020.6,777.2,1014z"/>
		<path class="st4" d="M777.2,988.7v25.3c-82.5,6.7-162.8-12.2-244.4-32.3h237.4C774.1,981.7,777.2,984.8,777.2,988.7z"/>
		<path class="st4" d="M773.4,1014.3c-0.9,2.9-3.6,5.1-6.8,5.1H531.9c-3.9,0-7-3.2-7-7v-19.8c0-3.9,3.2-7,7-7H548
			C623.2,1003.7,697.3,1019.7,773.4,1014.3z"/>
		<path class="st5" d="M773.7,992.4v19.8c0,0.7-0.1,1.4-0.3,2c-76,5.4-150.2-10.5-225.3-28.9h218.6
			C770.5,985.4,773.7,988.6,773.7,992.4z"/>
		<g>
			<g>
				<path class="st3" d="M762.2,1015c-0.2,0-0.3,0-0.5-0.1c0.4,0,0.7,0,1.1,0C762.6,1015,762.4,1015,762.2,1015z"/>
			</g>
			<g>
				<path class="st4" d="M760.4,1013.2v-21.7c0-1,0.8-1.8,1.8-1.8c1,0,1.8,0.8,1.8,1.8v21.7c0,0.8-0.5,1.4-1.2,1.7
					c-0.4,0-0.7,0-1.1,0C761,1014.7,760.4,1014,760.4,1013.2z"/>
			</g>
			<g>
				<path class="st4" d="M747.1,1015c-1,0-1.8-0.8-1.8-1.8v-21.7c0-1,0.8-1.8,1.8-1.8c1,0,1.8,0.8,1.8,1.8v21.7
					C748.9,1014.2,748.1,1015,747.1,1015z"/>
			</g>
			<g>
				<path class="st4" d="M732.1,1015c-1,0-1.8-0.8-1.8-1.8v-21.7c0-1,0.8-1.8,1.8-1.8c1,0,1.8,0.8,1.8,1.8v21.7
					C733.9,1014.2,733.1,1015,732.1,1015z"/>
			</g>
			<g>
				<path class="st3" d="M717,1015c-0.4,0-0.8-0.2-1.1-0.4c0.7,0,1.4,0.1,2.1,0.1C717.7,1014.9,717.4,1015,717,1015z"/>
			</g>
			<g>
				<path class="st4" d="M715.3,1013.2v-21.7c0-1,0.8-1.8,1.8-1.8s1.8,0.8,1.8,1.8v21.7c0,0.6-0.3,1.2-0.8,1.5
					c-0.7,0-1.4-0.1-2.1-0.1C715.5,1014.3,715.3,1013.8,715.3,1013.2z"/>
			</g>
			<g>
				<path class="st3" d="M628.4,1013.2c0,1-0.8,1.8-1.8,1.8c-1,0-1.8-0.8-1.8-1.8v-10.6c1.2,0.2,2.4,0.5,3.5,0.7V1013.2z"/>
			</g>
			<g>
				<path class="st4" d="M626.7,989.7c1,0,1.8,0.8,1.8,1.8v11.8c-1.2-0.2-2.4-0.5-3.5-0.7v-11.1
					C624.9,990.5,625.7,989.7,626.7,989.7z"/>
			</g>
			<g>
				<path class="st3" d="M673.6,1013.2c0,1-0.8,1.8-1.8,1.8c-1,0-1.8-0.8-1.8-1.8v-3.1c1.2,0.2,2.4,0.3,3.5,0.5V1013.2z"/>
			</g>
			<g>
				<path class="st4" d="M671.9,989.7c1,0,1.8,0.8,1.8,1.8v19.1c-1.2-0.2-2.4-0.3-3.5-0.5v-18.6
					C670.1,990.5,670.9,989.7,671.9,989.7z"/>
			</g>
			<g>
				<path class="st3" d="M688.7,1013.2c0,1-0.8,1.8-1.8,1.8s-1.8-0.8-1.8-1.8v-1.2c1.2,0.1,2.4,0.3,3.5,0.4V1013.2z"/>
			</g>
			<g>
				<path class="st4" d="M686.9,989.7c1,0,1.8,0.8,1.8,1.8v20.9c-1.2-0.1-2.4-0.2-3.5-0.4v-20.5
					C685.1,990.5,685.9,989.7,686.9,989.7z"/>
			</g>
			<g>
				<path class="st3" d="M702,1015L702,1015c-0.9,0-1.6-0.7-1.7-1.5c1.1,0.1,2.3,0.2,3.4,0.3C703.4,1014.5,702.8,1015,702,1015z"/>
			</g>
			<g>
				<path class="st4" d="M700.2,991.5c0-1,0.8-1.8,1.8-1.8h0c1,0,1.8,0.8,1.8,1.8v21.7c0,0.2,0,0.4-0.1,0.5
					c-1.1-0.1-2.3-0.2-3.4-0.3c0-0.1,0-0.2,0-0.2V991.5z"/>
			</g>
			<g>
				<path class="st4" d="M641.7,989.7c1,0,1.8,0.8,1.8,1.8v14.5c-1.2-0.2-2.4-0.4-3.5-0.6v-13.9C640,990.5,640.8,989.7,641.7,989.7z
					"/>
			</g>
			<g>
				<path class="st3" d="M643.5,1013.2c0,1-0.8,1.8-1.8,1.8c-1,0-1.8-0.8-1.8-1.8v-7.8c1.2,0.2,2.4,0.4,3.5,0.6V1013.2z"/>
			</g>
			<g>
				<path class="st3" d="M583.3,1013.2c0,1-0.8,1.8-1.8,1.8c-1,0-1.8-0.8-1.8-1.8V993c1.2,0.3,2.4,0.5,3.5,0.8V1013.2z"/>
			</g>
			<g>
				<path class="st4" d="M581.5,989.7c1,0,1.8,0.8,1.8,1.8v2.3c-1.2-0.3-2.4-0.5-3.5-0.8v-1.5C579.7,990.5,580.5,989.7,581.5,989.7z
					"/>
			</g>
			<g>
				<path class="st4" d="M596.6,989.7c1,0,1.8,0.8,1.8,1.8v5.6c-1.2-0.3-2.4-0.5-3.5-0.8v-4.9C594.8,990.5,595.6,989.7,596.6,989.7z
					"/>
			</g>
			<g>
				<path class="st3" d="M598.3,1013.2c0,1-0.8,1.8-1.8,1.8c-1,0-1.8-0.8-1.8-1.8v-16.9c1.2,0.3,2.4,0.5,3.5,0.8V1013.2z"/>
			</g>
			<g>
				<path class="st3" d="M551.4,989.7c1,0,1.8,0.8,1.8,1.8v21.7c0,1-0.8,1.8-1.8,1.8c-1,0-1.8-0.8-1.8-1.8v-21.7
					C549.6,990.5,550.4,989.7,551.4,989.7z"/>
			</g>
			<g>
				<path class="st4" d="M611.6,989.7c1,0,1.8,0.8,1.8,1.8v8.8c-1.2-0.2-2.4-0.5-3.5-0.7v-8.1C609.8,990.5,610.6,989.7,611.6,989.7z
					"/>
			</g>
			<g>
				<path class="st3" d="M613.4,1013.2c0,1-0.8,1.8-1.8,1.8c-1,0-1.8-0.8-1.8-1.8v-13.6c1.2,0.2,2.4,0.5,3.5,0.7V1013.2z"/>
			</g>
			<g>
				<path class="st3" d="M568.2,991.5v21.7c0,1-0.8,1.8-1.8,1.8l0,0c-1,0-1.8-0.8-1.8-1.8v-21.7c0-0.9,0.6-1.6,1.4-1.7
					c0.5,0.1,0.9,0.2,1.4,0.3C567.9,990.4,568.2,990.9,568.2,991.5z"/>
			</g>
			<g>
				<path class="st3" d="M566.4,989.7c0.4,0,0.8,0.1,1.1,0.4c-0.5-0.1-0.9-0.2-1.4-0.3C566.2,989.7,566.3,989.7,566.4,989.7
					L566.4,989.7z"/>
			</g>
			<g>
				<path class="st3" d="M536.3,989.7c1,0,1.8,0.8,1.8,1.8v21.7c0,1-0.8,1.8-1.8,1.8c-1,0-1.8-0.8-1.8-1.8v-21.7
					C534.5,990.5,535.3,989.7,536.3,989.7z"/>
			</g>
			<g>
				<path class="st3" d="M658.6,1013.2c0,1-0.8,1.8-1.8,1.8c-1,0-1.8-0.8-1.8-1.8v-5.3c1.2,0.2,2.4,0.4,3.5,0.6V1013.2z"/>
			</g>
			<g>
				<path class="st4" d="M656.8,989.7c1,0,1.8,0.8,1.8,1.8v17c-1.2-0.2-2.4-0.4-3.5-0.6v-16.4C655,990.5,655.8,989.7,656.8,989.7z"
					/>
			</g>
		</g>
	</g>
	<g>
		<path class="st3" d="M799.9,1055.2v1.9c0,3.9-3.2,7-7,7H550.6c-3.9,0-7-3.2-7-7v-27.2c0-3.9,3.2-7,7-7h4.8
			C637.1,1043,717.3,1061.9,799.9,1055.2z"/>
		<path class="st4" d="M799.9,1029.9v25.3c-82.5,6.7-162.8-12.2-244.4-32.3h237.4C796.7,1022.9,799.9,1026,799.9,1029.9z"/>
		<path class="st4" d="M796,1055.5c-0.9,2.9-3.6,5.1-6.8,5.1H554.5c-3.9,0-7-3.2-7-7v-19.8c0-3.9,3.2-7,7-7h16.1
			C645.8,1045,720,1060.9,796,1055.5z"/>
		<path class="st5" d="M796.3,1033.7v19.8c0,0.7-0.1,1.4-0.3,2c-76,5.4-150.2-10.5-225.3-28.9h218.6
			C793.1,1026.6,796.3,1029.8,796.3,1033.7z"/>
		<g>
			<g>
				<path class="st3" d="M784.8,1056.2c-0.2,0-0.3,0-0.5-0.1c0.4,0,0.7,0,1.1,0C785.2,1056.2,785,1056.2,784.8,1056.2z"/>
			</g>
			<g>
				<path class="st4" d="M783,1054.5v-21.7c0-1,0.8-1.8,1.8-1.8c1,0,1.8,0.8,1.8,1.8v21.7c0,0.8-0.5,1.4-1.2,1.7c-0.4,0-0.7,0-1.1,0
					C783.6,1056,783,1055.3,783,1054.5z"/>
			</g>
			<g>
				<path class="st4" d="M769.8,1056.2c-1,0-1.8-0.8-1.8-1.8v-21.7c0-1,0.8-1.8,1.8-1.8s1.8,0.8,1.8,1.8v21.7
					C771.5,1055.4,770.7,1056.2,769.8,1056.2z"/>
			</g>
			<g>
				<path class="st4" d="M754.7,1056.2c-1,0-1.8-0.8-1.8-1.8v-21.7c0-1,0.8-1.8,1.8-1.8c1,0,1.8,0.8,1.8,1.8v21.7
					C756.5,1055.4,755.7,1056.2,754.7,1056.2z"/>
			</g>
			<g>
				<path class="st3" d="M739.6,1056.2c-0.4,0-0.8-0.2-1.1-0.4c0.7,0,1.4,0.1,2.1,0.1C740.4,1056.1,740,1056.2,739.6,1056.2z"/>
			</g>
			<g>
				<path class="st4" d="M737.9,1054.5v-21.7c0-1,0.8-1.8,1.8-1.8c1,0,1.8,0.8,1.8,1.8v21.7c0,0.6-0.3,1.1-0.8,1.5
					c-0.7,0-1.4-0.1-2.1-0.1C738.1,1055.5,737.9,1055,737.9,1054.5z"/>
			</g>
			<g>
				<path class="st3" d="M651.1,1054.5c0,1-0.8,1.8-1.8,1.8s-1.8-0.8-1.8-1.8v-10.6c1.2,0.2,2.4,0.5,3.5,0.7V1054.5z"/>
			</g>
			<g>
				<path class="st4" d="M649.3,1031c1,0,1.8,0.8,1.8,1.8v11.8c-1.2-0.2-2.4-0.5-3.5-0.7v-11.1C647.5,1031.8,648.3,1031,649.3,1031z
					"/>
			</g>
			<g>
				<path class="st3" d="M696.2,1054.5c0,1-0.8,1.8-1.8,1.8c-1,0-1.8-0.8-1.8-1.8v-3.1c1.2,0.2,2.4,0.3,3.5,0.5V1054.5z"/>
			</g>
			<g>
				<path class="st4" d="M694.5,1031c1,0,1.8,0.8,1.8,1.8v19.1c-1.2-0.2-2.4-0.3-3.5-0.5v-18.6C692.7,1031.8,693.5,1031,694.5,1031z
					"/>
			</g>
			<g>
				<path class="st3" d="M711.3,1054.5c0,1-0.8,1.8-1.8,1.8c-1,0-1.8-0.8-1.8-1.8v-1.2c1.2,0.1,2.4,0.3,3.5,0.4V1054.5z"/>
			</g>
			<g>
				<path class="st4" d="M709.5,1031c1,0,1.8,0.8,1.8,1.8v20.9c-1.2-0.1-2.4-0.2-3.5-0.4v-20.5C707.8,1031.8,708.6,1031,709.5,1031z
					"/>
			</g>
			<g>
				<path class="st3" d="M724.6,1056.2L724.6,1056.2c-0.9,0-1.6-0.7-1.7-1.5c1.1,0.1,2.3,0.2,3.4,0.3
					C726,1055.7,725.4,1056.2,724.6,1056.2z"/>
			</g>
			<g>
				<path class="st4" d="M722.8,1032.7c0-1,0.8-1.8,1.8-1.8l0,0c1,0,1.8,0.8,1.8,1.8v21.7c0,0.2,0,0.4-0.1,0.5
					c-1.1-0.1-2.3-0.2-3.4-0.3c0-0.1,0-0.2,0-0.2V1032.7z"/>
			</g>
			<g>
				<path class="st4" d="M664.4,1031c1,0,1.8,0.8,1.8,1.8v14.5c-1.2-0.2-2.4-0.4-3.5-0.6v-13.9C662.6,1031.8,663.4,1031,664.4,1031z
					"/>
			</g>
			<g>
				<path class="st3" d="M666.1,1054.5c0,1-0.8,1.8-1.8,1.8c-1,0-1.8-0.8-1.8-1.8v-7.8c1.2,0.2,2.4,0.4,3.5,0.6V1054.5z"/>
			</g>
			<g>
				<path class="st3" d="M605.9,1054.5c0,1-0.8,1.8-1.8,1.8c-1,0-1.8-0.8-1.8-1.8v-20.3c1.2,0.3,2.4,0.5,3.5,0.8V1054.5z"/>
			</g>
			<g>
				<path class="st4" d="M604.1,1031c1,0,1.8,0.8,1.8,1.8v2.3c-1.2-0.3-2.4-0.5-3.5-0.8v-1.5C602.3,1031.8,603.1,1031,604.1,1031z"
					/>
			</g>
			<g>
				<path class="st4" d="M619.2,1031c1,0,1.8,0.8,1.8,1.8v5.6c-1.2-0.3-2.4-0.5-3.5-0.8v-4.9C617.4,1031.8,618.2,1031,619.2,1031z"
					/>
			</g>
			<g>
				<path class="st3" d="M621,1054.5c0,1-0.8,1.8-1.8,1.8c-1,0-1.8-0.8-1.8-1.8v-16.9c1.2,0.3,2.4,0.5,3.5,0.8V1054.5z"/>
			</g>
			<g>
				<path class="st3" d="M574,1031c1,0,1.8,0.8,1.8,1.8v21.7c0,1-0.8,1.8-1.8,1.8c-1,0-1.8-0.8-1.8-1.8v-21.7
					C572.2,1031.8,573,1031,574,1031z"/>
			</g>
			<g>
				<path class="st4" d="M634.2,1031c1,0,1.8,0.8,1.8,1.8v8.8c-1.2-0.2-2.4-0.5-3.5-0.7v-8.1C632.5,1031.8,633.3,1031,634.2,1031z"
					/>
			</g>
			<g>
				<path class="st3" d="M636,1054.5c0,1-0.8,1.8-1.8,1.8c-1,0-1.8-0.8-1.8-1.8v-13.6c1.2,0.2,2.4,0.5,3.5,0.7V1054.5z"/>
			</g>
			<g>
				<path class="st3" d="M590.8,1032.7v21.7c0,1-0.8,1.8-1.8,1.8l0,0c-1,0-1.8-0.8-1.8-1.8v-21.7c0-0.9,0.6-1.6,1.4-1.7
					c0.5,0.1,0.9,0.2,1.4,0.3C590.6,1031.6,590.8,1032.2,590.8,1032.7z"/>
			</g>
			<g>
				<path class="st3" d="M589.1,1031c0.4,0,0.8,0.1,1.1,0.4c-0.5-0.1-0.9-0.2-1.4-0.3C588.8,1031,588.9,1031,589.1,1031L589.1,1031z
					"/>
			</g>
			<g>
				<path class="st3" d="M558.9,1031c1,0,1.8,0.8,1.8,1.8v21.7c0,1-0.8,1.8-1.8,1.8c-1,0-1.8-0.8-1.8-1.8v-21.7
					C557.2,1031.8,558,1031,558.9,1031z"/>
			</g>
			<g>
				<path class="st3" d="M681.2,1054.5c0,1-0.8,1.8-1.8,1.8c-1,0-1.8-0.8-1.8-1.8v-5.3c1.2,0.2,2.4,0.4,3.5,0.6V1054.5z"/>
			</g>
			<g>
				<path class="st4" d="M679.4,1031c1,0,1.8,0.8,1.8,1.8v17c-1.2-0.2-2.4-0.4-3.5-0.6v-16.4C677.6,1031.8,678.4,1031,679.4,1031z"
					/>
			</g>
		</g>
	</g>
	<g>
		<path class="st3" d="M808.9,1137.7v1.9c0,3.9-3.2,7-7,7H559.7c-3.9,0-7-3.2-7-7v-27.2c0-3.9,3.2-7,7-7h4.8
			C646.1,1125.5,726.4,1144.3,808.9,1137.7z"/>
		<path class="st4" d="M808.9,1112.4v25.3c-82.5,6.7-162.8-12.2-244.4-32.3h237.4C805.7,1105.4,808.9,1108.5,808.9,1112.4z"/>
		<path class="st4" d="M805,1138c-0.9,2.9-3.6,5.1-6.8,5.1H563.5c-3.9,0-7-3.2-7-7v-19.8c0-3.9,3.2-7,7-7h16.1
			C654.8,1127.4,729,1143.4,805,1138z"/>
		<path class="st5" d="M805.3,1116.1v19.8c0,0.7-0.1,1.4-0.3,2c-76,5.4-150.2-10.5-225.3-28.9h218.6
			C802.2,1109.1,805.3,1112.3,805.3,1116.1z"/>
		<g>
			<g>
				<path class="st3" d="M793.8,1138.7c-0.2,0-0.3,0-0.5-0.1c0.4,0,0.7,0,1.1,0C794.3,1138.6,794.1,1138.7,793.8,1138.7z"/>
			</g>
			<g>
				<path class="st4" d="M792.1,1136.9v-21.7c0-1,0.8-1.8,1.8-1.8c1,0,1.8,0.8,1.8,1.8v21.7c0,0.8-0.5,1.4-1.2,1.7
					c-0.4,0-0.7,0-1.1,0C792.6,1138.4,792.1,1137.7,792.1,1136.9z"/>
			</g>
			<g>
				<path class="st4" d="M778.8,1138.7c-1,0-1.8-0.8-1.8-1.8v-21.7c0-1,0.8-1.8,1.8-1.8s1.8,0.8,1.8,1.8v21.7
					C780.6,1137.9,779.8,1138.7,778.8,1138.7z"/>
			</g>
			<g>
				<path class="st4" d="M763.7,1138.7c-1,0-1.8-0.8-1.8-1.8v-21.7c0-1,0.8-1.8,1.8-1.8c1,0,1.8,0.8,1.8,1.8v21.7
					C765.5,1137.9,764.7,1138.7,763.7,1138.7z"/>
			</g>
			<g>
				<path class="st3" d="M748.7,1138.7c-0.4,0-0.8-0.2-1.1-0.4c0.7,0,1.4,0.1,2.1,0.1C749.4,1138.6,749,1138.7,748.7,1138.7z"/>
			</g>
			<g>
				<path class="st4" d="M746.9,1136.9v-21.7c0-1,0.8-1.8,1.8-1.8s1.8,0.8,1.8,1.8v21.7c0,0.6-0.3,1.1-0.8,1.5
					c-0.7,0-1.4-0.1-2.1-0.1C747.1,1137.9,746.9,1137.5,746.9,1136.9z"/>
			</g>
			<g>
				<path class="st3" d="M660.1,1136.9c0,1-0.8,1.8-1.8,1.8c-1,0-1.8-0.8-1.8-1.8v-10.6c1.2,0.2,2.4,0.5,3.5,0.7V1136.9z"/>
			</g>
			<g>
				<path class="st4" d="M658.3,1113.4c1,0,1.8,0.8,1.8,1.8v11.8c-1.2-0.2-2.4-0.5-3.5-0.7v-11.1
					C656.5,1114.2,657.3,1113.4,658.3,1113.4z"/>
			</g>
			<g>
				<path class="st3" d="M705.3,1136.9c0,1-0.8,1.8-1.8,1.8c-1,0-1.8-0.8-1.8-1.8v-3.1c1.2,0.2,2.4,0.3,3.5,0.5V1136.9z"/>
			</g>
			<g>
				<path class="st4" d="M703.5,1113.4c1,0,1.8,0.8,1.8,1.8v19.1c-1.2-0.2-2.4-0.3-3.5-0.5v-18.6
					C701.7,1114.2,702.5,1113.4,703.5,1113.4z"/>
			</g>
			<g>
				<path class="st3" d="M720.3,1136.9c0,1-0.8,1.8-1.8,1.8c-1,0-1.8-0.8-1.8-1.8v-1.2c1.2,0.1,2.4,0.3,3.5,0.4V1136.9z"/>
			</g>
			<g>
				<path class="st4" d="M718.5,1113.4c1,0,1.8,0.8,1.8,1.8v20.9c-1.2-0.1-2.4-0.2-3.5-0.4v-20.5
					C716.8,1114.2,717.6,1113.4,718.5,1113.4z"/>
			</g>
			<g>
				<path class="st3" d="M733.6,1138.7L733.6,1138.7c-0.9,0-1.6-0.7-1.7-1.5c1.1,0.1,2.3,0.2,3.4,0.3
					C735.1,1138.2,734.4,1138.7,733.6,1138.7z"/>
			</g>
			<g>
				<path class="st4" d="M731.8,1115.2c0-1,0.8-1.8,1.8-1.8h0c1,0,1.8,0.8,1.8,1.8v21.7c0,0.2,0,0.4-0.1,0.5
					c-1.1-0.1-2.3-0.2-3.4-0.3c0-0.1,0-0.2,0-0.2V1115.2z"/>
			</g>
			<g>
				<path class="st4" d="M673.4,1113.4c1,0,1.8,0.8,1.8,1.8v14.5c-1.2-0.2-2.4-0.4-3.5-0.6v-13.9
					C671.6,1114.2,672.4,1113.4,673.4,1113.4z"/>
			</g>
			<g>
				<path class="st3" d="M675.1,1136.9c0,1-0.8,1.8-1.8,1.8c-1,0-1.8-0.8-1.8-1.8v-7.8c1.2,0.2,2.4,0.4,3.5,0.6V1136.9z"/>
			</g>
			<g>
				<path class="st3" d="M614.9,1136.9c0,1-0.8,1.8-1.8,1.8c-1,0-1.8-0.8-1.8-1.8v-20.3c1.2,0.3,2.4,0.5,3.5,0.8V1136.9z"/>
			</g>
			<g>
				<path class="st4" d="M613.1,1113.4c1,0,1.8,0.8,1.8,1.8v2.3c-1.2-0.3-2.4-0.5-3.5-0.8v-1.5
					C611.4,1114.2,612.2,1113.4,613.1,1113.4z"/>
			</g>
			<g>
				<path class="st4" d="M628.2,1113.4c1,0,1.8,0.8,1.8,1.8v5.6c-1.2-0.3-2.4-0.5-3.5-0.8v-4.9
					C626.4,1114.2,627.2,1113.4,628.2,1113.4z"/>
			</g>
			<g>
				<path class="st3" d="M630,1136.9c0,1-0.8,1.8-1.8,1.8c-1,0-1.8-0.8-1.8-1.8v-16.9c1.2,0.3,2.4,0.5,3.5,0.8V1136.9z"/>
			</g>
			<g>
				<path class="st3" d="M583,1113.4c1,0,1.8,0.8,1.8,1.8v21.7c0,1-0.8,1.8-1.8,1.8c-1,0-1.8-0.8-1.8-1.8v-21.7
					C581.2,1114.2,582,1113.4,583,1113.4z"/>
			</g>
			<g>
				<path class="st4" d="M643.3,1113.4c1,0,1.8,0.8,1.8,1.8v8.8c-1.2-0.2-2.4-0.5-3.5-0.7v-8.1
					C641.5,1114.2,642.3,1113.4,643.3,1113.4z"/>
			</g>
			<g>
				<path class="st3" d="M645,1136.9c0,1-0.8,1.8-1.8,1.8c-1,0-1.8-0.8-1.8-1.8v-13.6c1.2,0.2,2.4,0.5,3.5,0.7V1136.9z"/>
			</g>
			<g>
				<path class="st3" d="M599.9,1115.2v21.7c0,1-0.8,1.8-1.8,1.8l0,0c-1,0-1.8-0.8-1.8-1.8v-21.7c0-0.9,0.6-1.6,1.4-1.7
					c0.5,0.1,0.9,0.2,1.4,0.3C599.6,1114.1,599.9,1114.6,599.9,1115.2z"/>
			</g>
			<g>
				<path class="st3" d="M598.1,1113.4c0.4,0,0.8,0.1,1.1,0.4c-0.5-0.1-0.9-0.2-1.4-0.3C597.9,1113.4,598,1113.4,598.1,1113.4
					L598.1,1113.4z"/>
			</g>
			<g>
				<path class="st3" d="M568,1113.4c1,0,1.8,0.8,1.8,1.8v21.7c0,1-0.8,1.8-1.8,1.8c-1,0-1.8-0.8-1.8-1.8v-21.7
					C566.2,1114.2,567,1113.4,568,1113.4z"/>
			</g>
			<g>
				<path class="st3" d="M690.2,1136.9c0,1-0.8,1.8-1.8,1.8c-1,0-1.8-0.8-1.8-1.8v-5.3c1.2,0.2,2.4,0.4,3.5,0.6V1136.9z"/>
			</g>
			<g>
				<path class="st4" d="M688.4,1113.4c1,0,1.8,0.8,1.8,1.8v17c-1.2-0.2-2.4-0.4-3.5-0.6v-16.4
					C686.7,1114.2,687.5,1113.4,688.4,1113.4z"/>
			</g>
		</g>
	</g>
	<g>
		<path class="st3" d="M777.7,1096.4v1.9c0,3.9-3.2,7-7,7H528.5c-3.9,0-7-3.2-7-7v-27.2c0-3.9,3.2-7,7-7h4.8
			C614.9,1084.3,695.2,1103.1,777.7,1096.4z"/>
		<path class="st4" d="M777.7,1071.2v25.3c-82.5,6.7-162.8-12.2-244.4-32.3h237.4C774.5,1064.1,777.7,1067.3,777.7,1071.2z"/>
		<path class="st4" d="M773.8,1096.7c-0.9,2.9-3.6,5.1-6.8,5.1H532.3c-3.9,0-7-3.2-7-7v-19.8c0-3.9,3.2-7,7-7h16.1
			C623.6,1086.2,697.8,1102.1,773.8,1096.7z"/>
		<path class="st5" d="M774.1,1074.9v19.8c0,0.7-0.1,1.4-0.3,2c-76,5.4-150.2-10.5-225.3-28.9h218.6
			C771,1067.9,774.1,1071,774.1,1074.9z"/>
		<g>
			<g>
				<path class="st3" d="M762.7,1097.5c-0.2,0-0.3,0-0.5-0.1c0.4,0,0.7,0,1.1,0C763.1,1097.4,762.9,1097.5,762.7,1097.5z"/>
			</g>
			<g>
				<path class="st4" d="M760.9,1095.7V1074c0-1,0.8-1.8,1.8-1.8c1,0,1.8,0.8,1.8,1.8v21.7c0,0.8-0.5,1.4-1.2,1.7
					c-0.4,0-0.7,0-1.1,0C761.4,1097.2,760.9,1096.5,760.9,1095.7z"/>
			</g>
			<g>
				<path class="st4" d="M747.6,1097.5c-1,0-1.8-0.8-1.8-1.8V1074c0-1,0.8-1.8,1.8-1.8c1,0,1.8,0.8,1.8,1.8v21.7
					C749.4,1096.7,748.6,1097.5,747.6,1097.5z"/>
			</g>
			<g>
				<path class="st4" d="M732.5,1097.5c-1,0-1.8-0.8-1.8-1.8V1074c0-1,0.8-1.8,1.8-1.8c1,0,1.8,0.8,1.8,1.8v21.7
					C734.3,1096.7,733.5,1097.5,732.5,1097.5z"/>
			</g>
			<g>
				<path class="st3" d="M717.5,1097.5c-0.4,0-0.8-0.2-1.1-0.4c0.7,0,1.4,0.1,2.1,0.1C718.2,1097.3,717.8,1097.5,717.5,1097.5z"/>
			</g>
			<g>
				<path class="st4" d="M715.7,1095.7V1074c0-1,0.8-1.8,1.8-1.8c1,0,1.8,0.8,1.8,1.8v21.7c0,0.6-0.3,1.1-0.8,1.5
					c-0.7,0-1.4-0.1-2.1-0.1C716,1096.7,715.7,1096.2,715.7,1095.7z"/>
			</g>
			<g>
				<path class="st3" d="M628.9,1095.7c0,1-0.8,1.8-1.8,1.8c-1,0-1.8-0.8-1.8-1.8v-10.6c1.2,0.2,2.4,0.5,3.5,0.7V1095.7z"/>
			</g>
			<g>
				<path class="st4" d="M627.1,1072.2c1,0,1.8,0.8,1.8,1.8v11.8c-1.2-0.2-2.4-0.5-3.5-0.7V1074
					C625.4,1073,626.1,1072.2,627.1,1072.2z"/>
			</g>
			<g>
				<path class="st3" d="M674.1,1095.7c0,1-0.8,1.8-1.8,1.8c-1,0-1.8-0.8-1.8-1.8v-3.1c1.2,0.2,2.4,0.3,3.5,0.5V1095.7z"/>
			</g>
			<g>
				<path class="st4" d="M672.3,1072.2c1,0,1.8,0.8,1.8,1.8v19.1c-1.2-0.2-2.4-0.3-3.5-0.5V1074
					C670.5,1073,671.3,1072.2,672.3,1072.2z"/>
			</g>
			<g>
				<path class="st3" d="M689.1,1095.7c0,1-0.8,1.8-1.8,1.8c-1,0-1.8-0.8-1.8-1.8v-1.2c1.2,0.1,2.4,0.3,3.5,0.4V1095.7z"/>
			</g>
			<g>
				<path class="st4" d="M687.4,1072.2c1,0,1.8,0.8,1.8,1.8v20.9c-1.2-0.1-2.4-0.2-3.5-0.4V1074
					C685.6,1073,686.4,1072.2,687.4,1072.2z"/>
			</g>
			<g>
				<path class="st3" d="M702.4,1097.5L702.4,1097.5c-0.9,0-1.6-0.7-1.7-1.5c1.1,0.1,2.3,0.2,3.4,0.3
					C703.9,1096.9,703.2,1097.5,702.4,1097.5z"/>
			</g>
			<g>
				<path class="st4" d="M700.6,1074c0-1,0.8-1.8,1.8-1.8l0,0c1,0,1.8,0.8,1.8,1.8v21.7c0,0.2,0,0.4-0.1,0.5
					c-1.1-0.1-2.3-0.2-3.4-0.3c0-0.1,0-0.2,0-0.2V1074z"/>
			</g>
			<g>
				<path class="st4" d="M642.2,1072.2c1,0,1.8,0.8,1.8,1.8v14.5c-1.2-0.2-2.4-0.4-3.5-0.6V1074
					C640.4,1073,641.2,1072.2,642.2,1072.2z"/>
			</g>
			<g>
				<path class="st3" d="M644,1095.7c0,1-0.8,1.8-1.8,1.8c-1,0-1.8-0.8-1.8-1.8v-7.8c1.2,0.2,2.4,0.4,3.5,0.6V1095.7z"/>
			</g>
			<g>
				<path class="st3" d="M583.7,1095.7c0,1-0.8,1.8-1.8,1.8s-1.8-0.8-1.8-1.8v-20.3c1.2,0.3,2.4,0.5,3.5,0.8V1095.7z"/>
			</g>
			<g>
				<path class="st4" d="M581.9,1072.2c1,0,1.8,0.8,1.8,1.8v2.3c-1.2-0.3-2.4-0.5-3.5-0.8v-1.5C580.2,1073,581,1072.2,581.9,1072.2z
					"/>
			</g>
			<g>
				<path class="st4" d="M597,1072.2c1,0,1.8,0.8,1.8,1.8v5.6c-1.2-0.3-2.4-0.5-3.5-0.8v-4.9C595.2,1073,596,1072.2,597,1072.2z"/>
			</g>
			<g>
				<path class="st3" d="M598.8,1095.7c0,1-0.8,1.8-1.8,1.8c-1,0-1.8-0.8-1.8-1.8v-16.9c1.2,0.3,2.4,0.5,3.5,0.8V1095.7z"/>
			</g>
			<g>
				<path class="st3" d="M551.8,1072.2c1,0,1.8,0.8,1.8,1.8v21.7c0,1-0.8,1.8-1.8,1.8c-1,0-1.8-0.8-1.8-1.8V1074
					C550.1,1073,550.9,1072.2,551.8,1072.2z"/>
			</g>
			<g>
				<path class="st4" d="M612.1,1072.2c1,0,1.8,0.8,1.8,1.8v8.8c-1.2-0.2-2.4-0.5-3.5-0.7v-8.1
					C610.3,1073,611.1,1072.2,612.1,1072.2z"/>
			</g>
			<g>
				<path class="st3" d="M613.8,1095.7c0,1-0.8,1.8-1.8,1.8c-1,0-1.8-0.8-1.8-1.8v-13.6c1.2,0.2,2.4,0.5,3.5,0.7V1095.7z"/>
			</g>
			<g>
				<path class="st3" d="M568.7,1074v21.7c0,1-0.8,1.8-1.8,1.8l0,0c-1,0-1.8-0.8-1.8-1.8V1074c0-0.9,0.6-1.6,1.4-1.7
					c0.5,0.1,0.9,0.2,1.4,0.3C568.4,1072.9,568.7,1073.4,568.7,1074z"/>
			</g>
			<g>
				<path class="st3" d="M566.9,1072.2c0.4,0,0.8,0.1,1.1,0.4c-0.5-0.1-0.9-0.2-1.4-0.3C566.7,1072.2,566.8,1072.2,566.9,1072.2
					L566.9,1072.2z"/>
			</g>
			<g>
				<path class="st3" d="M536.8,1072.2c1,0,1.8,0.8,1.8,1.8v21.7c0,1-0.8,1.8-1.8,1.8c-1,0-1.8-0.8-1.8-1.8V1074
					C535,1073,535.8,1072.2,536.8,1072.2z"/>
			</g>
			<g>
				<path class="st3" d="M659,1095.7c0,1-0.8,1.8-1.8,1.8s-1.8-0.8-1.8-1.8v-5.3c1.2,0.2,2.4,0.4,3.5,0.6V1095.7z"/>
			</g>
			<g>
				<path class="st4" d="M657.2,1072.2c1,0,1.8,0.8,1.8,1.8v17c-1.2-0.2-2.4-0.4-3.5-0.6V1074C655.5,1073,656.3,1072.2,657.2,1072.2
					z"/>
			</g>
		</g>
	</g>
	<g>
		<path class="st3" d="M808.4,1178.9v1.9c0,3.9-3.2,7-7,7H559.2c-3.9,0-7-3.2-7-7v-27.2c0-3.9,3.2-7,7-7h4.8
			C645.6,1166.7,725.9,1185.6,808.4,1178.9z"/>
		<path class="st4" d="M808.4,1153.6v25.3c-82.5,6.7-162.8-12.2-244.4-32.3h237.4C805.3,1146.6,808.4,1149.7,808.4,1153.6z"/>
		<path class="st4" d="M804.6,1179.2c-0.9,2.9-3.6,5.1-6.8,5.1H563.1c-3.9,0-7-3.2-7-7v-19.8c0-3.9,3.2-7,7-7h16.1
			C654.4,1168.7,728.5,1184.6,804.6,1179.2z"/>
		<path class="st5" d="M804.8,1157.4v19.8c0,0.7-0.1,1.4-0.3,2c-76,5.4-150.2-10.5-225.3-28.9h218.6
			C801.7,1150.3,804.8,1153.5,804.8,1157.4z"/>
		<g>
			<g>
				<path class="st3" d="M793.4,1179.9c-0.2,0-0.3,0-0.5-0.1c0.4,0,0.7,0,1.1,0C793.8,1179.9,793.6,1179.9,793.4,1179.9z"/>
			</g>
			<g>
				<path class="st4" d="M791.6,1178.2v-21.7c0-1,0.8-1.8,1.8-1.8c1,0,1.8,0.8,1.8,1.8v21.7c0,0.8-0.5,1.4-1.2,1.7
					c-0.4,0-0.7,0-1.1,0C792.2,1179.7,791.6,1179,791.6,1178.2z"/>
			</g>
			<g>
				<path class="st4" d="M778.3,1179.9c-1,0-1.8-0.8-1.8-1.8v-21.7c0-1,0.8-1.8,1.8-1.8c1,0,1.8,0.8,1.8,1.8v21.7
					C780.1,1179.1,779.3,1179.9,778.3,1179.9z"/>
			</g>
			<g>
				<path class="st4" d="M763.3,1179.9c-1,0-1.8-0.8-1.8-1.8v-21.7c0-1,0.8-1.8,1.8-1.8c1,0,1.8,0.8,1.8,1.8v21.7
					C765,1179.1,764.2,1179.9,763.3,1179.9z"/>
			</g>
			<g>
				<path class="st3" d="M748.2,1179.9c-0.4,0-0.8-0.2-1.1-0.4c0.7,0,1.4,0.1,2.1,0.1C748.9,1179.8,748.6,1179.9,748.2,1179.9z"/>
			</g>
			<g>
				<path class="st4" d="M746.4,1178.2v-21.7c0-1,0.8-1.8,1.8-1.8c1,0,1.8,0.8,1.8,1.8v21.7c0,0.6-0.3,1.2-0.8,1.5
					c-0.7,0-1.4-0.1-2.1-0.1C746.7,1179.2,746.4,1178.7,746.4,1178.2z"/>
			</g>
			<g>
				<path class="st3" d="M659.6,1178.2c0,1-0.8,1.8-1.8,1.8c-1,0-1.8-0.8-1.8-1.8v-10.6c1.2,0.2,2.4,0.5,3.5,0.7V1178.2z"/>
			</g>
			<g>
				<path class="st4" d="M657.8,1154.7c1,0,1.8,0.8,1.8,1.8v11.8c-1.2-0.2-2.4-0.5-3.5-0.7v-11.1
					C656.1,1155.4,656.9,1154.7,657.8,1154.7z"/>
			</g>
			<g>
				<path class="st3" d="M704.8,1178.2c0,1-0.8,1.8-1.8,1.8c-1,0-1.8-0.8-1.8-1.8v-3.1c1.2,0.2,2.4,0.3,3.5,0.5V1178.2z"/>
			</g>
			<g>
				<path class="st4" d="M703,1154.7c1,0,1.8,0.8,1.8,1.8v19.1c-1.2-0.2-2.4-0.3-3.5-0.5v-18.6C701.3,1155.4,702,1154.7,703,1154.7z
					"/>
			</g>
			<g>
				<path class="st3" d="M719.9,1178.2c0,1-0.8,1.8-1.8,1.8c-1,0-1.8-0.8-1.8-1.8v-1.2c1.2,0.1,2.4,0.3,3.5,0.4V1178.2z"/>
			</g>
			<g>
				<path class="st4" d="M718.1,1154.7c1,0,1.8,0.8,1.8,1.8v20.9c-1.2-0.1-2.4-0.2-3.5-0.4v-20.5
					C716.3,1155.4,717.1,1154.7,718.1,1154.7z"/>
			</g>
			<g>
				<path class="st3" d="M733.1,1179.9L733.1,1179.9c-0.9,0-1.6-0.7-1.7-1.5c1.1,0.1,2.3,0.2,3.4,0.3
					C734.6,1179.4,733.9,1179.9,733.1,1179.9z"/>
			</g>
			<g>
				<path class="st4" d="M731.4,1156.4c0-1,0.8-1.8,1.8-1.8l0,0c1,0,1.8,0.8,1.8,1.8v21.7c0,0.2,0,0.4-0.1,0.5
					c-1.1-0.1-2.3-0.2-3.4-0.3c0-0.1,0-0.2,0-0.2V1156.4z"/>
			</g>
			<g>
				<path class="st4" d="M672.9,1154.7c1,0,1.8,0.8,1.8,1.8v14.5c-1.2-0.2-2.4-0.4-3.5-0.6v-13.9
					C671.1,1155.4,671.9,1154.7,672.9,1154.7z"/>
			</g>
			<g>
				<path class="st3" d="M674.7,1178.2c0,1-0.8,1.8-1.8,1.8c-1,0-1.8-0.8-1.8-1.8v-7.8c1.2,0.2,2.4,0.4,3.5,0.6V1178.2z"/>
			</g>
			<g>
				<path class="st3" d="M614.4,1178.2c0,1-0.8,1.8-1.8,1.8c-1,0-1.8-0.8-1.8-1.8v-20.3c1.2,0.3,2.4,0.5,3.5,0.8V1178.2z"/>
			</g>
			<g>
				<path class="st4" d="M612.7,1154.7c1,0,1.8,0.8,1.8,1.8v2.3c-1.2-0.3-2.4-0.5-3.5-0.8v-1.5
					C610.9,1155.4,611.7,1154.7,612.7,1154.7z"/>
			</g>
			<g>
				<path class="st4" d="M627.7,1154.7c1,0,1.8,0.8,1.8,1.8v5.6c-1.2-0.3-2.4-0.5-3.5-0.8v-4.9
					C626,1155.4,626.8,1154.7,627.7,1154.7z"/>
			</g>
			<g>
				<path class="st3" d="M629.5,1178.2c0,1-0.8,1.8-1.8,1.8c-1,0-1.8-0.8-1.8-1.8v-16.9c1.2,0.3,2.4,0.5,3.5,0.8V1178.2z"/>
			</g>
			<g>
				<path class="st3" d="M582.6,1154.7c1,0,1.8,0.8,1.8,1.8v21.7c0,1-0.8,1.8-1.8,1.8c-1,0-1.8-0.8-1.8-1.8v-21.7
					C580.8,1155.4,581.6,1154.7,582.6,1154.7z"/>
			</g>
			<g>
				<path class="st4" d="M642.8,1154.7c1,0,1.8,0.8,1.8,1.8v8.8c-1.2-0.2-2.4-0.5-3.5-0.7v-8.1
					C641,1155.4,641.8,1154.7,642.8,1154.7z"/>
			</g>
			<g>
				<path class="st3" d="M644.6,1178.2c0,1-0.8,1.8-1.8,1.8c-1,0-1.8-0.8-1.8-1.8v-13.6c1.2,0.2,2.4,0.5,3.5,0.7V1178.2z"/>
			</g>
			<g>
				<path class="st3" d="M599.4,1156.4v21.7c0,1-0.8,1.8-1.8,1.8l0,0c-1,0-1.8-0.8-1.8-1.8v-21.7c0-0.9,0.6-1.6,1.4-1.7
					c0.5,0.1,0.9,0.2,1.4,0.3C599.1,1155.3,599.4,1155.9,599.4,1156.4z"/>
			</g>
			<g>
				<path class="st3" d="M597.6,1154.7c0.4,0,0.8,0.1,1.1,0.4c-0.5-0.1-0.9-0.2-1.4-0.3C597.4,1154.7,597.5,1154.7,597.6,1154.7
					L597.6,1154.7z"/>
			</g>
			<g>
				<path class="st3" d="M567.5,1154.7c1,0,1.8,0.8,1.8,1.8v21.7c0,1-0.8,1.8-1.8,1.8c-1,0-1.8-0.8-1.8-1.8v-21.7
					C565.7,1155.4,566.5,1154.7,567.5,1154.7z"/>
			</g>
			<g>
				<path class="st3" d="M689.7,1178.2c0,1-0.8,1.8-1.8,1.8s-1.8-0.8-1.8-1.8v-5.3c1.2,0.2,2.4,0.4,3.5,0.6V1178.2z"/>
			</g>
			<g>
				<path class="st4" d="M688,1154.7c1,0,1.8,0.8,1.8,1.8v17c-1.2-0.2-2.4-0.4-3.5-0.6v-16.4C686.2,1155.4,687,1154.7,688,1154.7z"
					/>
			</g>
		</g>
	</g>
</g>
<g>
	<path class="st6" d="M1438.9,1256.7H20.8c-2,0-3.6-1.7-3.6-3.8c0-2.1,1.6-3.8,3.6-3.8h1418.1c2,0,3.6,1.7,3.6,3.8
		C1442.5,1255,1440.9,1256.7,1438.9,1256.7z"/>
</g>
<g>
	<path class="st7" d="M367.5,760.8l-48.5,18c-3.9,58.2-2.9,117.5,10.3,174.4l100.8-51L367.5,760.8z"/>
	<path class="st8" d="M319,778.7l-98.3,36.4l26.6,179.4l82-41.5C316.1,896.3,315.1,836.9,319,778.7z"/>
	<polygon class="st7" points="220.7,815.1 177.2,974.6 247.3,994.6 	"/>
	<g>
		<path class="st7" d="M260.5,799.3c-0.4-2.6-10.2-64.7,29.8-72.9c31.6-6.5,52,24.2,58.3,41.3l-10.2,3.8c-0.2-0.4-15.7-40.7-46-34.4
			c-29.9,6.1-21.4,59.9-21.3,60.4L260.5,799.3z"/>
	</g>
	<path class="st9" d="M476.9,164.5c3.3-6.1,5.4-9.3,5.4-9.3s7.3-49.2-21.7-14.5c-6,7.2-11.3,15.1-16,23.2
		C455.2,165.3,466,165.7,476.9,164.5z"/>
	<path class="st10" d="M444.5,163.8c-17.9,30.9-26.3,63.8-26.3,63.8s21.1,45.9,33.8,0c8.3-30,18.6-51.7,24.8-63.2
		C466,165.7,455.2,165.3,444.5,163.8z"/>
	<path class="st10" d="M482.7,126.3c9.5-19-17.9-25.8-27-43l-25.7,14l9.9,7.8c-5.1,7.2-9,14.7-9,21.1c0,5.7,4.8,10.6,11.4,14.7
		c0.7,0.4,1.4,0.9,2.2,1.3C460.2,143.1,475.3,140,482.7,126.3z"/>
	<path class="st9" d="M525.2,116.8c0,0-19.3-41.4-60.4-38.4l-9,4.9c9.1,17.2,36.5,23.9,27,43c-7.5,13.7-22.5,16.9-38.3,15.8
		c15.2,8.5,37.8,13,37.8,13L525.2,116.8z"/>
	<path class="st11" d="M495,108c0,0-53.2-14.5-72.5-98.5c0,0,91.8,52.6,119.6,102.1c0,0-14.5,33.2-59.8,43.5l16.3-31.4
		c0,0,12.7-4.2,12.1-14.5S495,108,495,108z"/>
	<path class="st12" d="M427.8,607.5c-35.7,13.6-74.1,16.1-98.2-12.9c-1.9,63.2-1.3,189.4,23.8,328.9c20.3-18.6,40-38.1,63-53.1
		C422.7,782.2,424.9,695.4,427.8,607.5z"/>
	<path class="st11" d="M461.2,591.4c-10.5,6.1-21.8,11.7-33.4,16.1c-2.8,87.8-5,174.7-11.3,262.9c-23,15-42.7,34.4-63,53.1
		c17.7,98.1,47.5,202.8,97.3,296.7C450.7,1220.2,493.2,764.9,461.2,591.4z"/>
	<path class="st12" d="M467.2,747.2C449.5,683,433.3,618.8,427.3,552H315.6l-9.9,130.5L423.8,697l15.3,174
		c-170.7,159.5-191.8,267-191.8,267c212.7-123.2,313.2-221.1,313.2-221.1c-1.7-66.9-14.2-136-28.9-195.8
		C511.7,733.3,490.5,742.6,467.2,747.2z"/>
	<path class="st13" d="M671.4,234.4c-4,5.8-7.8,11.5-11.2,16.6c18.3-8.1,40.4-8.1,60-1.1c4.1-4.6,8.1-9.2,11.9-14
		C713.3,227.6,692.1,228.7,671.4,234.4z"/>
	<path class="st14" d="M720.3,249.9c3.9,1.4,7.8,3.1,11.4,5c4.2-4,8.2-8.2,12.1-12.5c-3.8-2.6-7.7-4.8-11.7-6.5
		C728.4,240.7,724.4,245.4,720.3,249.9z"/>
	<path class="st13" d="M282.7,658.9c1.2,5.5,2.3,10.5,3.4,14.9c12.4,4.2,24.7,7.4,37.2,8.9c-0.2-5.6-0.5-11.3-0.8-16.8
		C309.3,665.2,295.8,662.2,282.7,658.9z"/>
	<path class="st14" d="M329.5,666.1c-2.3,0-4.6-0.1-6.9-0.2c0.3,5.5,0.6,11.2,0.8,16.8c2.1,0.3,4.2,0.5,6.2,0.6L329.5,666.1z"/>
	<path class="st10" d="M296.8,739.9c24.6-8.2,27.2-32.3,26.5-57.2c-12.5-1.5-24.8-4.8-37.2-8.9c3.1,13.5,5.3,21.7,5.3,21.7
		s-32.6-15.1-32.3,12.4C265.9,726.8,277.8,745.8,296.8,739.9z"/>
	<path class="st9" d="M329.6,688l0-4.6c-2.1-0.2-4.2-0.4-6.2-0.6c0.7,24.8-1.9,49-26.5,57.2c-19,5.8-30.9-13.1-37.7-32
		c0.1,6.2,1.8,14.5,6,25.7c22.7,60.7,61.6,18.1,72.5,5.4C348.5,726.3,329.6,688,329.6,688z"/>
	<path class="st11" d="M461.2,591.4c-2.9-15.6-6.3-28.9-10.5-39.3h-119c0,0-1.3,15.5-2.1,42.5C361.5,633.1,418.5,616.2,461.2,591.4z
		"/>
	<path class="st12" d="M748,142.3c-207.2,17-445.2,119.7-445.2,119.7S266,432.7,263.3,505.2c-1.8,47,10.6,113.1,19.5,153.7
		c15.3,3.8,31.3,7.3,46.7,7.1l-1.8-298.6l214.5-105.1L701,198c-8.1,6.9-19.4,21.9-29.5,36.4c20.6-5.7,41.9-6.8,60.7,1.4
		c21-26.3,38.2-55.8,57.6-83.2C776.4,147.8,762.3,144.6,748,142.3z"/>
	<path class="st11" d="M531.6,721.2C507.8,624.5,478,552,478,552h-50.7c6,66.7,22.2,130.9,39.9,195.1
		C490.5,742.6,511.7,733.3,531.6,721.2z"/>
	<path class="st11" d="M812.7,140c-21-0.3-42.7,0.5-64.7,2.3c14.3,2.3,28.3,5.5,41.7,10.4c-19.4,27.4-36.6,56.9-57.6,83.2
		c4,1.8,7.9,3.9,11.7,6.5C785.6,196.8,812.7,140,812.7,140z"/>
	<path class="st10" d="M699.2,323.1c10.9-10.9,9.1-38.1-9.1-45.3c11.1-8.3,21-17.7,30.2-27.8c-19.6-7-41.7-7.1-60,1.1
		c-7,10.7-11.9,18.6-11.9,18.6c-15,26.5-15.4,46.2-8,58.7C660.8,337.8,685.2,341.6,699.2,323.1z"/>
	<path class="st9" d="M720.3,249.9c-9.1,10.1-19.1,19.5-30.2,27.8c18.1,7.2,19.9,34.4,9.1,45.3c-13.9,18.5-38.4,14.7-58.7,5.3
		c11.7,20,43.1,22,66,4.7c37.2-28.1,2.7-58.9,2.7-58.9c7.9-5.7,15.4-12.2,22.6-19.2C728,253,724.2,251.3,720.3,249.9z"/>
	<path class="st13" d="M390.3,228.2c0,0-68.3,249.3-60.1,329.1c8.2,79.7,126.2,15,126.2,15l30.8-376.1l-55.8,16.1L390.3,228.2z"/>
	<path class="st12" d="M477.9,198.9c0,0-55.2,182.2-47,292.8c8.2,110.6,47.1,224.7,47.1,224.7s46.2-10.9,82.5-48.9
		c0,0-45.3-113.3-48-171.3c-2.7-58,29.6-233.8,29.6-233.8l-29.3-73.7L477.9,198.9z"/>
	<path class="st11" d="M404.9,222.6c0,0-83.4,275.4-76,425.2c0,0-30.7-246.2-16.2-302.4l46.5-39.9l-21.9-14.5l40.5-58.3L404.9,222.6
		z"/>
	<polygon class="st8" points="431.5,215.4 418.4,230.7 425.9,240.5 439.1,230.7 	"/>
	<path class="st15" d="M427.8,234.2c0-2.3,0.1-3.5,0.1-3.5c-39.3,95.9-73.1,216.7-73.1,216.7l37.2,69.8l0.1-0.1
		C381.6,421.5,411.4,328.4,427.8,234.2z"/>
	<path class="st8" d="M427.8,234.2c-16.4,94.2-46.2,187.3-35.8,282.9l52.5-59.7C426.1,411.5,427.5,259.2,427.8,234.2z"/>
	<polygon class="st11" points="452.1,1204.6 491.6,1247.4 325.8,1247.4 	"/>
	<polygon class="st11" points="265.8,1089.6 247.3,1247.4 214.3,1063.4 	"/>
	<path class="st11" d="M519.7,301.9l-32.6-21.1l23-20.4l-8.5-68.5l-23.6,6.9c0,0-55.2,182.2-47,292.8c1.5,20.3,4,40.6,7.2,60.4
		C439.8,484.4,519.7,301.9,519.7,301.9z"/>
	<polygon class="st11" points="542.1,262.4 731.7,169 701,198 	"/>
	<g>
		<g>
			<path class="st11" d="M474.9,586.8c-0.8,0-1.7-0.4-2.2-1.1c-0.9-1.2-0.6-2.9,0.6-3.8l37.6-27.2c1.2-0.9,2.9-0.6,3.8,0.6
				c0.9,1.2,0.6,2.9-0.6,3.8l-37.6,27.2C476,586.6,475.5,586.8,474.9,586.8z"/>
		</g>
		<g>
			<path class="st11" d="M487.1,300.1c-1,0-1.9-0.5-2.4-1.5c-0.7-1.3-0.2-3,1.2-3.7l42.1-21.7c1.3-0.7,3-0.2,3.7,1.2
				c0.7,1.3,0.2,3-1.2,3.7l-42.1,21.7C488,300,487.5,300.1,487.1,300.1z"/>
		</g>
	</g>
	<g>
		<path class="st12" d="M498.4,305.4c-0.3,0-0.6-0.1-0.9-0.2l-17.7-9.5c-0.9-0.5-1.2-1.6-0.7-2.5c0.5-0.9,1.6-1.2,2.5-0.7l17.7,9.5
			c0.9,0.5,1.2,1.6,0.7,2.5C499.7,305.1,499.1,305.4,498.4,305.4z"/>
	</g>
	<path class="st13" d="M735.7,245.9c0,1.5-1.5,2.7-3.2,2.7c-1.8,0-3.2-1.2-3.2-2.7c0-1.5,1.5-2.7,3.2-2.7
		C734.2,243.2,735.7,244.4,735.7,245.9z"/>
	<g>
		<path class="st12" d="M747.2,233.5c0,2-1.4,3.6-3,3.6c-1.7,0-3-1.6-3-3.6c0-2,1.4-3.6,3-3.6C745.8,229.9,747.2,231.5,747.2,233.5z
			"/>
		<path class="st12" d="M753.2,226.3c0,2-1.4,3.6-3,3.6s-3-1.6-3-3.6c0-2,1.4-3.6,3-3.6S753.2,224.3,753.2,226.3z"/>
		<path class="st12" d="M759.3,219.1c0,2-1.4,3.6-3,3.6c-1.7,0-3-1.6-3-3.6c0-2,1.4-3.6,3-3.6C757.9,215.4,759.3,217.1,759.3,219.1z
			"/>
		<path class="st12" d="M764.7,211.8c0,2-1.4,3.6-3,3.6c-1.7,0-3-1.6-3-3.6c0-2,1.4-3.6,3-3.6C763.3,208.2,764.7,209.8,764.7,211.8z
			"/>
	</g>
	<path class="st14" d="M291.2,666.9c0.3,1.9-0.4,3.6-1.6,3.8c-1.2,0.2-2.4-1.2-2.8-3.1c-0.3-1.9,0.4-3.6,1.6-3.8
		C289.7,663.6,290.9,665,291.2,666.9z"/>
	<g>
		<path class="st11" d="M289,650.1c0.4,2.4-0.7,4.6-2.4,4.8c-1.7,0.3-3.4-1.4-3.8-3.8c-0.4-2.4,0.7-4.6,2.4-4.8
			C286.9,646.1,288.6,647.7,289,650.1z"/>
		<path class="st11" d="M287,638.3c0.4,2.4-0.7,4.6-2.4,4.8c-1.7,0.3-3.4-1.4-3.8-3.8c-0.4-2.4,0.7-4.6,2.4-4.8
			C284.9,634.2,286.6,635.9,287,638.3z"/>
		<path class="st11" d="M285,626.7c0.4,2.4-0.7,4.6-2.4,4.8c-1.7,0.3-3.4-1.4-3.8-3.8c-0.4-2.4,0.7-4.6,2.4-4.8
			C282.9,622.6,284.6,624.3,285,626.7z"/>
		<path class="st11" d="M283.2,615.7c0.4,2.4-0.7,4.6-2.4,4.8c-1.7,0.3-3.4-1.4-3.8-3.8c-0.4-2.4,0.7-4.6,2.4-4.8
			C281,611.7,282.8,613.4,283.2,615.7z"/>
	</g>
	<polygon class="st11" points="424.6,705.8 386.6,689 423.9,726.3 	"/>
	<polygon class="st16" points="431.5,215.4 444.5,241.7 469.4,203.2 445.1,232.3 	"/>
	<polygon class="st16" points="431.5,215.4 408.3,243 407.5,222.4 410.7,233.1 	"/>
	<path class="st16" d="M389.9,530.9c0,3.3-1.6,6-3.6,6s-3.6-2.7-3.6-6c0-3.3,1.6-6,3.6-6S389.9,527.6,389.9,530.9z"/>
	<path class="st16" d="M389.9,578.6c0,3.3-1.6,6-3.6,6s-3.6-2.7-3.6-6c0-3.3,1.6-6,3.6-6S389.9,575.3,389.9,578.6z"/>
</g>
<g>
	<g>
		<path class="st17" d="M264.3,144.2c-0.4,0-0.8,0.4-1.2,1.2c-2.4,2.3-9,7.2-21.4,9c-0.7-13-5.6-25.7-14.5-36.1
			c5.1-5.5,16.5-15.8,31.5-15.1c1,0.4,1.7,0.5,2.1,0.2l0,0l0,0l0,0c1.3-1.3-3-7.7-9.6-14.4c-6.6-6.7-13-11.1-14.3-9.8l0,0l0,0l0,0
			c-0.3,0.3-0.3,1,0,1.9c-0.1,4.5-1.9,16.7-15.5,31.5c-10.3-9.2-22.9-14.2-35.9-15.2c0.7-6.7,3.2-15.1,9.9-21.2
			c0.9-0.4,1.4-0.8,1.4-1.2l0,0l0,0l0,0c0-1.6-6.6-2.9-14.9-3c-8.2-0.1-14.9,1.2-14.9,2.7l0,0l0,0l0,0c0,0.4,0.4,0.8,1.2,1.1
			c2.3,2.4,7.2,8.9,9.2,21.4c-12.7,0.7-25.1,5.4-35.5,14.1c-5.5-5.2-15.5-16.7-14.6-31.5c0.4-1,0.5-1.7,0.2-2.1l0,0l0,0l0,0
			c-1.3-1.3-7.8,2.9-14.5,9.5c-6.8,6.5-11.2,12.9-10,14.2l0,0l0,0l0,0c0.3,0.3,1,0.3,1.9,0c4.5,0.2,16.6,2,31.1,15.6
			c-9.3,10.2-14.6,22.9-15.6,35.9c-6.7-0.8-14.8-3.4-20.8-10c-0.4-0.9-0.7-1.4-1.2-1.4l0,0l0,0l0,0c-1.6,0-3,6.6-3.1,14.8
			c-0.1,8.2,1,14.9,2.6,15c0.4,0,0.8-0.4,1.2-1.2c2.4-2.3,8.9-7.1,21.2-8.9c0.7,13,5.5,25.8,14.6,36.4c-5.3,5.6-16.5,15.4-31.1,14.7
			c-1-0.4-1.7-0.5-2.1-0.2l0,0l0,0l0,0c-1.3,1.3,3,7.7,9.6,14.4c6.6,6.7,13,11.1,14.3,9.8c0.3-0.3,0.3-1,0-1.9
			c0.1-4.5,1.8-16.5,15.1-31.1c10.4,9.2,23.2,14.3,36.2,15.2c-0.8,6.6-3.3,14.7-9.8,20.7c-0.9,0.4-1.4,0.8-1.4,1.2
			c0,1.6,6.6,2.9,14.9,3c8.2,0.1,14.9-1.2,14.9-2.7l0,0l0,0l0,0c0-0.4-0.4-0.8-1.2-1.1c-2.3-2.4-7.1-8.8-9.1-21
			c12.8-0.9,25.4-5.7,35.7-14.7c5.6,5.2,15.6,16.5,14.9,31.3c-0.4,1-0.5,1.7-0.2,2.1c1.3,1.3,7.7-3,14.4-9.6
			c6.7-6.6,11.1-13,9.8-14.3c-0.3-0.3-1-0.3-1.9,0c-4.5-0.1-16.6-1.9-31.3-15.3c9-10.2,14-22.7,15-35.5c6.7,0.8,15,3.3,21,10.1
			c0.4,0.9,0.7,1.4,1.2,1.4l0,0l0,0c1.6,0,3-6.6,3.1-14.8C267.1,150.9,266,144.2,264.3,144.2z"/>
	</g>
	<g>
		<g>
			<path class="st18" d="M158.8,179.7c3.7-3.6,9.5-3.5,13.1,0.1s3.5,9.5-0.1,13.1c-3.7,3.6-9.5,3.5-13.1-0.1
				C155.1,189.1,155.1,183.3,158.8,179.7z"/>
		</g>
		<g>
			<ellipse class="st18" cx="178.8" cy="147" rx="11.4" ry="11.4"/>
		</g>
		<g>
			<path class="st18" d="M194.2,162.6c2.3-2.3,6.1-2.3,8.4,0.1c2.3,2.3,2.3,6.1-0.1,8.4c-2.3,2.3-6.1,2.3-8.4-0.1
				C191.8,168.7,191.8,164.9,194.2,162.6z"/>
		</g>
		<g>
			<path class="st18" d="M200.5,125.7c4.5-4.4,11.7-4.4,16.1,0.1s4.4,11.7-0.1,16.1c-4.5,4.4-11.7,4.4-16.1-0.1
				C195.9,137.3,195.9,130.1,200.5,125.7z"/>
		</g>
		<g>
			<path class="st18" d="M142.3,141.1c2.6-2.5,6.7-2.5,9.3,0.1c2.5,2.6,2.5,6.7-0.1,9.3c-2.6,2.5-6.7,2.5-9.3-0.1
				C139.6,147.9,139.7,143.7,142.3,141.1z"/>
		</g>
		<g>
			<path class="st18" d="M193,192.8c2.6-2.5,6.7-2.5,9.3,0.1c2.5,2.6,2.5,6.7-0.1,9.3c-2.6,2.5-6.7,2.5-9.3-0.1
				C190.4,199.5,190.4,195.3,193,192.8z"/>
		</g>
	</g>
</g>
<g>
	<g>
		<path class="st17" d="M1362.2,140.5c-0.5,0-1,0.5-1.4,1.4c-2.9,2.7-10.8,8.6-25.8,10.8c-0.9-15.6-6.7-30.9-17.5-43.5
			c6.1-6.7,19.9-19,37.9-18.2c1.2,0.5,2.1,0.6,2.5,0.2l0,0l0,0l0,0c1.5-1.5-3.6-9.3-11.5-17.4c-7.9-8.1-15.6-13.4-17.2-11.8l0,0l0,0
			l0,0c-0.4,0.4-0.4,1.2,0.1,2.3c-0.2,5.5-2.3,20.1-18.7,37.9c-12.4-11.1-27.6-17.2-43.2-18.3c0.9-8.1,3.8-18.1,11.9-25.5
			c1.1-0.4,1.7-0.9,1.7-1.4l0,0l0,0l0,0c0-1.9-8-3.5-17.9-3.6c-9.9-0.1-17.9,1.4-17.9,3.3l0,0l0,0l0,0c0,0.5,0.5,1,1.4,1.4
			c2.7,2.9,8.7,10.8,11.1,25.7c-15.2,0.9-30.3,6.5-42.7,16.9c-6.7-6.2-18.6-20-17.6-37.9c0.5-1.2,0.6-2.1,0.2-2.5l0,0l0,0l0,0
			c-1.5-1.5-9.3,3.6-17.5,11.4c-8.1,7.8-13.5,15.5-12,17.1l0,0l0,0l0,0c0.4,0.4,1.2,0.4,2.3-0.1c5.4,0.2,20,2.4,37.4,18.7
			c-11.2,12.4-17.5,27.6-18.8,43.2c-8-1-17.8-4-25-12.1c-0.4-1.1-0.9-1.7-1.4-1.7l0,0l0,0l0,0c-1.9-0.1-3.6,8-3.7,17.8
			c-0.2,9.9,1.2,17.9,3.2,17.9c0.5,0,1-0.5,1.4-1.4c2.9-2.7,10.7-8.5,25.4-10.8c0.8,15.7,6.7,31.1,17.5,43.7
			c-6.3,6.8-19.9,18.5-37.4,17.7c-1.2-0.5-2.1-0.6-2.5-0.2l0,0l0,0l0,0c-1.5,1.5,3.6,9.3,11.5,17.4c7.9,8.1,15.6,13.4,17.2,11.8
			c0.4-0.4,0.4-1.2-0.1-2.3c0.2-5.4,2.2-19.9,18.2-37.4c12.5,11.1,27.9,17.2,43.6,18.3c-1,8-3.9,17.7-11.8,25
			c-1.1,0.4-1.7,0.9-1.7,1.4c0,1.9,8,3.5,17.9,3.6c9.9,0.1,17.9-1.4,17.9-3.3l0,0l0,0l0,0c0-0.5-0.5-1-1.4-1.4
			c-2.7-2.9-8.6-10.6-10.9-25.3c15.4-1,30.5-6.9,43-17.7c6.7,6.2,18.7,19.9,17.9,37.7c-0.5,1.2-0.6,2.1-0.2,2.5
			c1.5,1.5,9.3-3.6,17.4-11.5c8.1-7.9,13.4-15.6,11.8-17.2c-0.4-0.4-1.2-0.4-2.3,0.1c-5.4-0.2-20-2.3-37.7-18.4
			c10.8-12.2,16.9-27.3,18.1-42.7c8.1,1,17.9,4,25.3,12.1c0.4,1.1,0.9,1.7,1.4,1.7l0,0l0,0c1.9,0.1,3.6-8,3.7-17.8
			C1365.6,148.6,1364.1,140.5,1362.2,140.5z"/>
	</g>
	<g>
		<g>
			<path class="st18" d="M1235.2,183.2c4.4-4.3,11.5-4.3,15.8,0.1c4.3,4.4,4.3,11.5-0.1,15.8c-4.4,4.3-11.5,4.3-15.8-0.1
				C1230.7,194.6,1230.8,187.5,1235.2,183.2z"/>
		</g>
		<g>
			<path class="st18" d="M1249.6,134.1c5.4-5.3,14.1-5.2,19.4,0.2c5.3,5.4,5.2,14.1-0.2,19.4c-5.4,5.3-14.1,5.2-19.4-0.2
				C1244.1,148.1,1244.2,139.4,1249.6,134.1z"/>
		</g>
		<g>
			<path class="st18" d="M1277.8,162.8c2.8-2.7,7.3-2.7,10,0.1c2.7,2.8,2.7,7.3-0.1,10c-2.8,2.7-7.3,2.7-10-0.1
				C1274.9,170,1275,165.5,1277.8,162.8z"/>
		</g>
		<g>
			<path class="st18" d="M1285.3,118.2c5.4-5.3,14.1-5.2,19.4,0.2c5.3,5.4,5.2,14.1-0.2,19.4c-5.4,5.3-14.1,5.2-19.4-0.2
				C1279.8,132.2,1279.9,123.5,1285.3,118.2z"/>
		</g>
		<g>
			<path class="st18" d="M1215.3,136.8c3.1-3,8.1-3,11.2,0.1c3,3.1,3,8.1-0.1,11.2c-3.1,3-8.1,3-11.2-0.1
				C1212.2,144.9,1212.2,139.9,1215.3,136.8z"/>
		</g>
		<g>
			<path class="st18" d="M1276.3,199c3.1-3,8.1-3,11.2,0.1c3,3.1,3,8.1-0.1,11.2c-3.1,3-8.1,3-11.2-0.1
				C1273.2,207,1273.3,202,1276.3,199z"/>
		</g>
	</g>
</g>
<g>
	<g>
		<path class="st17" d="M1377.6,669.3c-0.4,0-0.8,0.5-1.2,1.2c-2.5,2.3-9.1,7.3-21.9,9.1c-0.8-13.2-5.7-26.2-14.8-36.9
			c5.2-5.7,16.9-16.1,32.2-15.4c1,0.4,1.8,0.5,2.1,0.2l0,0l0,0l0,0c1.3-1.3-3.1-7.9-9.8-14.7c-6.7-6.8-13.3-11.3-14.6-10.1l0,0l0,0
			l0,0c-0.3,0.3-0.3,1,0.1,1.9c-0.2,4.7-1.9,17.1-15.8,32.2c-10.5-9.4-23.4-14.6-36.7-15.6c0.8-6.9,3.3-15.4,10.1-21.6
			c0.9-0.4,1.4-0.8,1.4-1.2l0,0l0,0l0,0c0-1.6-6.7-3-15.2-3c-8.4-0.1-15.2,1.2-15.2,2.8l0,0l0,0l0,0c0,0.4,0.5,0.8,1.2,1.2
			c2.3,2.5,7.4,9.1,9.4,21.9c-12.9,0.8-25.7,5.6-36.2,14.4c-5.7-5.4-15.8-17-15-32.1c0.5-1,0.5-1.8,0.2-2.1l0,0l0,0l0,0
			c-1.3-1.3-7.9,3-14.8,9.7s-11.5,13.2-10.2,14.5l0,0l0,0l0,0c0.3,0.3,1,0.3,1.9,0c4.6,0.2,17,2,31.8,15.9
			c-9.5,10.5-14.9,23.4-16,36.7c-6.8-0.9-15.1-3.4-21.2-10.2c-0.4-0.9-0.8-1.4-1.2-1.4l0,0l0,0l0,0c-1.6,0-3,6.7-3.2,15.1
			c-0.2,8.4,1.1,15.2,2.6,15.3c0.4,0,0.8-0.5,1.2-1.2c2.5-2.3,9.1-7.2,21.6-9.1c0.7,13.3,5.7,26.4,14.9,37.1
			c-5.4,5.7-16.8,15.7-31.8,15c-1-0.4-1.8-0.5-2.1-0.2l0,0l0,0l0,0c-1.3,1.3,3.1,7.9,9.8,14.7c6.7,6.8,13.3,11.3,14.6,10.1
			c0.3-0.3,0.3-1-0.1-1.9c0.2-4.6,1.9-16.8,15.4-31.7c10.6,9.5,23.6,14.7,37,15.6c-0.9,6.7-3.3,15-10,21.2c-0.9,0.4-1.4,0.8-1.4,1.2
			c0,1.6,6.8,3,15.2,3c8.4,0.1,15.2-1.2,15.2-2.8l0,0l0,0l0,0c0-0.4-0.5-0.8-1.2-1.2c-2.3-2.5-7.3-9-9.3-21.5
			c13.1-0.9,26-5.9,36.5-15c5.7,5.3,15.9,16.9,15.2,31.9c-0.4,1-0.5,1.8-0.2,2.1c1.3,1.3,7.9-3.1,14.7-9.8
			c6.8-6.7,11.3-13.3,10.1-14.6c-0.3-0.3-1-0.3-1.9,0.1c-4.6-0.2-17-1.9-31.9-15.7c9.2-10.4,14.3-23.2,15.4-36.2
			c6.8,0.9,15.3,3.4,21.4,10.2c0.4,0.9,0.8,1.4,1.2,1.4l0,0l0,0c1.6,0,3-6.7,3.2-15.1C1380.3,676.2,1379.2,669.3,1377.6,669.3z"/>
	</g>
	<g>
		<g>
			<path class="st18" d="M1269.7,705.5c3.7-3.6,9.8-3.6,13.4,0.1c3.6,3.7,3.6,9.8-0.1,13.4c-3.7,3.6-9.8,3.6-13.4-0.1
				C1266,715.2,1266,709.3,1269.7,705.5z"/>
		</g>
		<g>
			<path class="st18" d="M1281.9,663.9c4.6-4.5,11.9-4.4,16.5,0.2c4.5,4.6,4.4,11.9-0.2,16.5c-4.6,4.5-11.9,4.4-16.5-0.2
				C1277.3,675.8,1277.4,668.4,1281.9,663.9z"/>
		</g>
		<g>
			<path class="st18" d="M1305.9,688.2c2.4-2.3,6.2-2.3,8.5,0.1c2.3,2.4,2.3,6.2-0.1,8.5c-2.4,2.3-6.2,2.3-8.5-0.1
				C1303.4,694.4,1303.5,690.5,1305.9,688.2z"/>
		</g>
		<g>
			<path class="st18" d="M1312.3,650.4c4.6-4.5,11.9-4.4,16.5,0.2c4.5,4.6,4.4,11.9-0.2,16.5c-4.6,4.5-11.9,4.4-16.5-0.2
				C1307.6,662.3,1307.7,654.9,1312.3,650.4z"/>
		</g>
		<g>
			<path class="st18" d="M1252.9,666.2c2.6-2.6,6.9-2.6,9.5,0.1c2.6,2.6,2.6,6.9-0.1,9.5c-2.6,2.6-6.9,2.6-9.5-0.1
				C1250.2,673.1,1250.2,668.9,1252.9,666.2z"/>
		</g>
		<g>
			<path class="st18" d="M1304.7,719c2.6-2.6,6.9-2.6,9.5,0.1c2.6,2.6,2.6,6.9-0.1,9.5s-6.9,2.6-9.5-0.1
				C1302,725.8,1302,721.6,1304.7,719z"/>
		</g>
	</g>
</g>
</svg>
