<?xml version="1.0" encoding="utf-8"?>
<!-- Generator: Adobe Illustrator 24.3.0, SVG Export Plug-In . SVG Version: 6.00 Build 0)  -->
<svg version="1.1" id="Layer_1" xmlns="http://www.w3.org/2000/svg" xmlns:xlink="http://www.w3.org/1999/xlink" x="0px" y="0px"
	 viewBox="0 0 3220 1474.9" style="enable-background:new 0 0 3220 1474.9;" xml:space="preserve">
<style type="text/css">
	.st0{fill:#E3EFFF;}
	.st1{fill:#BFDAFF;}
	.st2{fill:#231F20;}
	.st3{fill:#FFE9D1;}
	.st4{fill:#FFFFFF;}
	.st5{clip-path:url(#SVGID_2_);}
	.st6{fill:#FFD3A3;}
	.st7{clip-path:url(#SVGID_4_);}
	.st8{clip-path:url(#SVGID_6_);}
	.st9{clip-path:url(#SVGID_8_);}
	.st10{clip-path:url(#SVGID_10_);}
	.st11{clip-path:url(#SVGID_12_);}
	.st12{clip-path:url(#SVGID_14_);}
	.st13{clip-path:url(#SVGID_16_);}
	.st14{clip-path:url(#SVGID_18_);}
	.st15{clip-path:url(#SVGID_20_);}
	.st16{clip-path:url(#SVGID_22_);}
	.st17{clip-path:url(#SVGID_24_);}
	.st18{clip-path:url(#SVGID_26_);}
	.st19{clip-path:url(#SVGID_28_);}
	.st20{fill:#FF4202;}
	.st21{fill:#FF0602;}
	.st22{fill:#414042;}
	.st23{fill:#58595B;}
	.st24{fill:#FFB964;}
	.st25{fill:#C73302;}
	.st26{fill:#FF622B;}
	.st27{fill:#FF2402;}
	.st28{fill:#FFA02B;}
	.st29{fill:#BCBEC0;}
	.st30{fill:#D9DCDE;}
	.st31{fill:#273A57;}
	.st32{fill:#FF2002;}
	.st33{fill:#A7A9AC;}
	.st34{fill:#D1D3D4;}
	.st35{fill:#FF7C70;}
	.st36{fill:#20211B;}
	.st37{fill:#FF4D4D;}
	.st38{fill:#6FABFF;}
	.st39{fill:#3C7CD6;}
	.st40{fill:#2F3027;}
</style>
<g>
	<rect x="1642.3" y="327.7" class="st0" width="510" height="1142.7"/>
</g>
<g>
	<g>
		<rect x="1683.5" y="397.8" class="st1" width="79.5" height="131"/>
	</g>
	<g>
		<rect x="1915.6" y="397.8" class="st1" width="79.5" height="131"/>
	</g>
	<g>
		<path class="st1" d="M2114.1,531.8h-85.5v-137h85.5V531.8z M2034.6,525.8h73.5v-125h-73.5L2034.6,525.8L2034.6,525.8z"/>
	</g>
</g>
<g>
	<g>
		<path class="st1" d="M1766,709.1h-85.5v-137h85.5V709.1z M1686.5,703.1h73.5v-125h-73.5V703.1z"/>
	</g>
	<g>
		<path class="st1" d="M1882,709.1h-85.5v-137h85.5V709.1z M1802.5,703.1h73.5v-125h-73.5V703.1z"/>
	</g>
	<g>
		<rect x="2031.6" y="575.1" class="st1" width="79.5" height="131"/>
	</g>
</g>
<g>
	<rect x="85" y="735.7" class="st0" width="354.9" height="734.7"/>
</g>
<g>
	<rect x="356.6" y="350.9" class="st0" width="584.2" height="1119.5"/>
</g>
<g>
	<g>
		<path class="st1" d="M181.8,875.5h-59.4v-94h59.4V875.5z M128.4,869.5h47.4v-82h-47.4V869.5z"/>
	</g>
	<g>
		<rect x="203.4" y="784.5" class="st1" width="53.4" height="88"/>
	</g>
	<g>
		<rect x="359.3" y="784.5" class="st1" width="53.4" height="88"/>
	</g>
</g>
<g>
	<g>
		<rect x="125.4" y="923.1" class="st1" width="53.4" height="88"/>
	</g>
	<g>
		<rect x="281.4" y="923.1" class="st1" width="53.4" height="88"/>
	</g>
</g>
<g>
	<g>
		<path class="st1" d="M337.8,1152.7h-59.4v-94h59.4V1152.7z M284.4,1146.7h47.4v-82h-47.4V1146.7z"/>
	</g>
</g>
<g>
	<g>
		<rect x="125.4" y="1200.3" class="st1" width="53.4" height="88"/>
	</g>
	<g>
		<path class="st1" d="M259.8,1291.4h-59.4v-94h59.4V1291.4z M206.4,1285.4h47.4v-82h-47.4V1285.4z"/>
	</g>
	<g>
		<rect x="359.3" y="1200.3" class="st1" width="53.4" height="88"/>
	</g>
</g>
<g>
	<g>
		<rect x="203.4" y="1339" class="st1" width="53.4" height="88"/>
	</g>
</g>
<g>
	<rect x="1362.6" y="770" class="st0" width="354.9" height="700.3"/>
</g>
<g>
	<g>
		<rect x="1799.5" y="752.4" class="st1" width="79.5" height="131"/>
	</g>
	<g>
		<rect x="1915.6" y="752.4" class="st1" width="79.5" height="131"/>
	</g>
	<g>
		<rect x="2031.6" y="752.4" class="st1" width="79.5" height="131"/>
	</g>
</g>
<g>
	<rect x="2522.1" y="842.7" class="st0" width="389.3" height="627.7"/>
</g>
<g>
	<rect x="2130.8" y="534.7" class="st0" width="354.9" height="935.7"/>
</g>
<g>
	<g>
		<path class="st2" d="M1329.1,215H871.4c-44.8,0-81.2,36.4-81.2,81.2v1093c0,44.8,36.4,81.2,81.2,81.2h457.7
			c44.8,0,81.2-36.4,81.2-81.2v-1093C1410.3,251.4,1373.9,215,1329.1,215z"/>
	</g>
</g>
<g>
	<g>
		<path class="st3" d="M871.4,1448.9c-32.9,0-59.7-26.8-59.7-59.7v-1093c0-32.9,26.8-59.7,59.7-59.7h457.7
			c32.9,0,59.7,26.8,59.7,59.7v1093c0,32.9-26.8,59.7-59.7,59.7H871.4z"/>
	</g>
</g>
<g>
	<rect x="811.7" y="391.3" class="st4" width="577.1" height="909.2"/>
</g>
<g>
	<rect x="-0.4" y="1466.9" class="st2" width="3153.3" height="6.9"/>
</g>
<g>
	<g>
		<g>
			<rect x="2711.2" y="341.4" width="56.5" height="2.8"/>
		</g>
	</g>
	<g>
		<g>
			<rect x="2738.1" y="314.5" width="2.8" height="56.5"/>
		</g>
	</g>
</g>
<g>
	<g>
		<g>
			<rect x="743.4" y="25.8" width="56.5" height="2.8"/>
		</g>
	</g>
	<g>
		<g>
			<rect x="770.2" y="-1" width="2.8" height="56.5"/>
		</g>
	</g>
</g>
<g>
	<g>
		<g>
			<rect x="85" y="388.2" width="56.5" height="2.8"/>
		</g>
	</g>
	<g>
		<g>
			<rect x="111.9" y="361.3" width="2.8" height="56.5"/>
		</g>
	</g>
</g>
<g>
	<g>
		<g>
			<rect x="2845.8" y="186.5" width="31.2" height="2.8"/>
		</g>
	</g>
	<g>
		<g>
			<rect x="2860" y="172.3" width="2.8" height="31.2"/>
		</g>
	</g>
</g>
<g>
	<g>
		<g>
			<rect x="2994.7" y="690.3" width="31.2" height="2.8"/>
		</g>
	</g>
	<g>
		<g>
			<rect x="3008.9" y="676.1" width="2.8" height="31.2"/>
		</g>
	</g>
</g>
<g>
	<g>
		<g>
			<rect x="186.4" y="510.5" width="31.2" height="2.8"/>
		</g>
	</g>
	<g>
		<g>
			<rect x="200.7" y="496.3" width="2.8" height="31.2"/>
		</g>
	</g>
</g>
<g>
	<g>
		<g>
			<rect x="1701.9" y="55.5" width="31.2" height="2.8"/>
		</g>
	</g>
	<g>
		<g>
			<rect x="1716.1" y="41.2" width="2.8" height="31.2"/>
		</g>
	</g>
</g>
<g>
	<g>
		<defs>
			<rect id="SVGID_1_" x="811.7" y="391.3" width="577.1" height="909.2"/>
		</defs>
		<clipPath id="SVGID_2_">
			<use xlink:href="#SVGID_1_"  style="overflow:visible;"/>
		</clipPath>
		<g class="st5">
			
				<rect x="719.8" y="826.7" transform="matrix(0.6136 -0.7896 0.7896 0.6136 -456.6264 1000.8558)" class="st6" width="149" height="280.5"/>
		</g>
	</g>
	<g>
		<defs>
			<rect id="SVGID_3_" x="811.7" y="391.3" width="577.1" height="909.2"/>
		</defs>
		<clipPath id="SVGID_4_">
			<use xlink:href="#SVGID_3_"  style="overflow:visible;"/>
		</clipPath>
		<g class="st7">
			
				<rect x="1274.9" y="1160.2" transform="matrix(0.6136 -0.7896 0.7896 0.6136 -505.4244 1568.0176)" class="st4" width="149" height="280.5"/>
		</g>
	</g>
	<g>
		<defs>
			<rect id="SVGID_5_" x="811.7" y="391.3" width="577.1" height="909.2"/>
		</defs>
		<clipPath id="SVGID_6_">
			<use xlink:href="#SVGID_5_"  style="overflow:visible;"/>
		</clipPath>
		<g class="st8">
			<polygon class="st6" points="761.5,806.3 979.7,939.5 1150.4,699.8 914.5,556.3 			"/>
		</g>
	</g>
	<g>
		<defs>
			<rect id="SVGID_7_" x="811.7" y="391.3" width="577.1" height="909.2"/>
		</defs>
		<clipPath id="SVGID_8_">
			<use xlink:href="#SVGID_7_"  style="overflow:visible;"/>
		</clipPath>
		<g class="st9">
			<polygon class="st6" points="940.8,1115.5 1077.1,943.7 1288.2,1132.8 1113.1,1295.4 			"/>
		</g>
	</g>
	<g>
		<defs>
			<rect id="SVGID_9_" x="811.7" y="391.3" width="577.1" height="909.2"/>
		</defs>
		<clipPath id="SVGID_10_">
			<use xlink:href="#SVGID_9_"  style="overflow:visible;"/>
		</clipPath>
		<g class="st10">
			<polygon class="st6" points="1120.6,842.7 1245.1,668.8 1447.4,787.2 1299.4,957.9 			"/>
		</g>
	</g>
	<g>
		<defs>
			<rect id="SVGID_11_" x="811.7" y="391.3" width="577.1" height="909.2"/>
		</defs>
		<clipPath id="SVGID_12_">
			<use xlink:href="#SVGID_11_"  style="overflow:visible;"/>
		</clipPath>
		<g class="st11">
			<polygon class="st6" points="1191.1,1002.9 1222.8,962.1 1438.7,1043.6 1341.5,1149.6 			"/>
		</g>
	</g>
	<g>
		<defs>
			<rect id="SVGID_13_" x="811.7" y="391.3" width="577.1" height="909.2"/>
		</defs>
		<clipPath id="SVGID_14_">
			<use xlink:href="#SVGID_13_"  style="overflow:visible;"/>
		</clipPath>
		<g class="st12">
			<polygon class="st6" points="966.1,534.7 1165.1,661.7 1314.9,498.9 1176.1,391.3 			"/>
		</g>
	</g>
	<g>
		<defs>
			<rect id="SVGID_15_" x="811.7" y="391.3" width="577.1" height="909.2"/>
		</defs>
		<clipPath id="SVGID_16_">
			<use xlink:href="#SVGID_15_"  style="overflow:visible;"/>
		</clipPath>
		<g class="st13">
			<polygon class="st6" points="683.3,425.4 754.7,593.6 1079.4,420.6 1043.1,219.9 			"/>
		</g>
	</g>
	<g>
		<defs>
			<rect id="SVGID_17_" x="811.7" y="391.3" width="577.1" height="909.2"/>
		</defs>
		<clipPath id="SVGID_18_">
			<use xlink:href="#SVGID_17_"  style="overflow:visible;"/>
		</clipPath>
		<g class="st14">
			<polygon class="st6" points="1288.3,621.1 1417.1,435.7 1605.7,582.3 1473,753.1 			"/>
		</g>
	</g>
	<g>
		<defs>
			<rect id="SVGID_19_" x="811.7" y="391.3" width="577.1" height="909.2"/>
		</defs>
		<clipPath id="SVGID_20_">
			<use xlink:href="#SVGID_19_"  style="overflow:visible;"/>
		</clipPath>
		<g class="st15">
			<polygon class="st6" points="1342.8,970.1 1615.3,619.4 1750.3,703.6 1520.9,1047.6 			"/>
		</g>
	</g>
	<g>
		<defs>
			<rect id="SVGID_21_" x="811.7" y="391.3" width="577.1" height="909.2"/>
		</defs>
		<clipPath id="SVGID_22_">
			<use xlink:href="#SVGID_21_"  style="overflow:visible;"/>
		</clipPath>
		<g class="st16">
			<polygon class="st6" points="1184.7,331 1336.5,469.1 1494.9,279.7 1389,166.1 			"/>
		</g>
	</g>
	<g>
		<defs>
			<rect id="SVGID_23_" x="811.7" y="391.3" width="577.1" height="909.2"/>
		</defs>
		<clipPath id="SVGID_24_">
			<use xlink:href="#SVGID_23_"  style="overflow:visible;"/>
		</clipPath>
		<g class="st17">
			<polygon class="st4" points="1449.5,416.3 1627.3,554.5 1751.3,406.6 1571.7,259 			"/>
		</g>
	</g>
	<g>
		<defs>
			<rect id="SVGID_25_" x="811.7" y="391.3" width="577.1" height="909.2"/>
		</defs>
		<clipPath id="SVGID_26_">
			<use xlink:href="#SVGID_25_"  style="overflow:visible;"/>
		</clipPath>
		<g class="st18">
			<path class="st6" d="M794.4,1313.7c9.9-9.9,114.5-158.8,114.5-158.8l159.7,202.5l-92.4,118.9L794.4,1313.7z"/>
		</g>
	</g>
	<g>
		<defs>
			<rect id="SVGID_27_" x="811.7" y="391.3" width="577.1" height="909.2"/>
		</defs>
		<clipPath id="SVGID_28_">
			<use xlink:href="#SVGID_27_"  style="overflow:visible;"/>
		</clipPath>
		<g class="st19">
			<polygon class="st6" points="761.7,1268.6 840.2,1145.4 654.5,1001 597.8,1177.7 			"/>
		</g>
	</g>
</g>
<g>
	<g>
		<path class="st20" d="M2918.7,1345.9H1246.2l-43.9-30v-107.4l47.4-23.1v-138.6c0,0,82-168.6,187.1-274.9
			c0,0,331.9-67.2,695.3-18.5c0,0,151.3,67,332.6,217.1c0,0,292.2,57.8,437.8,146.7c0,0,30,50.8,58.9,113.2L2918.7,1345.9z"/>
	</g>
	<g>
		<polygon class="st21" points="1249.6,1073.3 1370.9,1073.3 1407.9,1143.4 1249.6,1143.4 		"/>
	</g>
	<g>
		<path class="st0" d="M2216,866.8l62.4,42.6l-75.7,58.8h-642l56-138.8c0,0,22.5-39.1,50.2-38.8s239.1,0,239.1,0h210.6l58.5,65
			L2216,866.8z"/>
	</g>
	<g>
		<path class="st22" d="M1515.3,968.2c0,0,55.4-113.2,119-195.2c0,0,237.9-18.5,487.4,2.3c0,0,168.6,94.7,288.8,192.9h-207.8
			l16-54.3l-121.9-90.1c-200.4,4.6-456.8,32.3-456.8,32.3l42.4,112h-167.1V968.2z"/>
	</g>
	<g>
		<path class="st23" d="M1634.3,773c0,0,237.9-18.5,487.4,2.3c0,0,168.6,94.7,288.8,192.9H2301c-93-125.7-200.9-177.6-200.9-177.6
			h-461.8l-59.5,177.6h-63.5C1515.3,968.2,1570.7,855,1634.3,773z"/>
	</g>
	<g>
		<path class="st24" d="M2945.1,1196.6c-30-1.6-74.5-4.6-114.2-10c-67.8-9.2-73.9-47.7-74.7-73.2c-0.8-25.4,23.1-35.4,94.7-5.4
			c31.7,13.3,52.6,25.5,66.1,35C2924.6,1156.8,2934.5,1175.3,2945.1,1196.6z"/>
	</g>
	<g>
		<path class="st22" d="M1419,790.6l50.6,31l-91.2,146.7h-86C1323,916.1,1367.7,847.1,1419,790.6z"/>
	</g>
	<g>
		<rect x="2054.7" y="1013.7" class="st2" width="90.9" height="6.9"/>
	</g>
	<g>
		<rect x="1592.9" y="1013.7" class="st2" width="90.9" height="6.9"/>
	</g>
	<g>
		<path class="st2" d="M1928.4,765.6l104.5,202.6h-65.3l-81.4-202.6C1909.6,765.6,1903.1,765.1,1928.4,765.6z"/>
	</g>
	<g>
		<rect x="1952.9" y="755.2" transform="matrix(0.9081 -0.4188 0.4188 0.9081 -183.2143 899.0037)" width="6.9" height="223.4"/>
	</g>
	<g>
		<g>
			<path class="st25" d="M2420.2,971.7h-910.4l2.4-5c0.6-1.1,56.3-114.5,119.3-195.8l0.9-1.2l1.5-0.1c1-0.1,99.2-7.6,233.3-7.6
				c90.2,0,175.9,3.3,254.7,9.9l0.8,0.1l0.7,0.4c1.7,0.9,170.3,96,289.3,193.2L2420.2,971.7z M1520.9,964.8h879.8
				c-114.1-91.6-268.6-179.6-280-186c-78.4-6.5-163.6-9.8-253.4-9.8c-124.7,0-218.3,6.5-231.2,7.4
				C1581.4,847.3,1532.3,942.1,1520.9,964.8z"/>
		</g>
	</g>
	<g>
		<path class="st26" d="M2382.4,951.1c-6.7,24.5-52.3,29.6-88.8,26.4c-36.5-3.2-53-35.2-37.3-72.1c13.2-30.9,57-23.7,93.8,0
			C2381.3,925.5,2384.4,943.5,2382.4,951.1z"/>
	</g>
	<g>
		<path class="st26" d="M2961.4,1230.4l-42.7,115.5H1246.2l-43.9-30v-107.4H2951C2954.4,1215.6,2957.9,1222.9,2961.4,1230.4z"/>
	</g>
	<g>
		<path class="st27" d="M1246.6,1345.9h1671.6c13.1,0,23.7,10.6,23.7,23.7l0,0c0,13.1-10.6,23.7-23.7,23.7H1246.6
			c-13.1,0-23.7-10.6-23.7-23.7l0,0C1223,1356.5,1233.6,1345.9,1246.6,1345.9z"/>
	</g>
	<g>
		<g>
			<rect x="1219.2" y="1297" class="st25" width="1695.6" height="6.9"/>
		</g>
	</g>
	<g>
		<g>
			
				<rect x="2192.1" y="1154.7" transform="matrix(0.1742 -0.9847 0.9847 0.1742 827.4349 3302.8794)" class="st25" width="381.7" height="6.9"/>
		</g>
	</g>
	<g>
		<g>
			
				<rect x="1611.9" y="943.7" transform="matrix(0.8774 -0.4797 0.4797 0.8774 -357.4433 916.847)" class="st25" width="6.9" height="428.3"/>
		</g>
	</g>
	<g>
		<g>
			<rect x="1787.5" y="1238.5" class="st25" width="480.5" height="6.9"/>
		</g>
	</g>
	<g>
		<g>
			<rect x="1249.6" y="1181.9" class="st25" width="106.6" height="6.9"/>
		</g>
	</g>
	<g>
		<g>
			<rect x="1999.6" y="968.2" class="st25" width="6.9" height="377.7"/>
		</g>
	</g>
	<g>
		<path class="st25" d="M1636.1,1393.3c13.3-22.8,20.9-49.4,20.9-77.7c0-85.5-69.3-154.8-154.8-154.8s-154.8,69.3-154.8,154.8
			c0,28.3,7.6,54.8,20.9,77.7H1636.1z"/>
	</g>
	<g>
		<path class="st25" d="M2796,1393.3c13.3-22.8,20.9-49.4,20.9-77.7c0-85.5-69.3-154.8-154.8-154.8s-154.8,69.3-154.8,154.8
			c0,28.3,7.6,54.8,20.9,77.7H2796z"/>
	</g>
	<g>
		<g>
			<path class="st25" d="M1450.8,1063.5c-19.9,0-36.2-16.2-36.2-36.2c0-19.9,16.2-36.2,36.2-36.2c19.9,0,36.2,16.2,36.2,36.2
				C1487,1047.2,1470.8,1063.5,1450.8,1063.5z M1450.8,998c-16.1,0-29.2,13.1-29.2,29.2s13.1,29.2,29.2,29.2s29.2-13.1,29.2-29.2
				S1466.9,998,1450.8,998z"/>
		</g>
	</g>
	<g>
		<path class="st28" d="M2812.3,1094.3c10.4,31.8,40.8,71.4,125.1,87.1c2.5,4.9,5.1,9.9,7.7,15.2c-30-1.6-74.5-4.6-114.2-10
			c-67.8-9.2-73.9-47.7-74.7-73.2C2755.6,1093.2,2770.5,1082.8,2812.3,1094.3z"/>
	</g>
	<g>
		<circle class="st2" cx="2643.2" cy="1315.6" r="154.8"/>
	</g>
	<g>
		<ellipse cx="2643.2" cy="1315.6" rx="104" ry="104"/>
	</g>
	<g>
		<circle class="st29" cx="2643.2" cy="1315.6" r="75.7"/>
	</g>
	<g>
		<path class="st30" d="M2596.6,1274.4c-1.8,6.4-2.7,13.2-2.7,20.1c0,42,34.1,76.1,76.1,76.1c2.4,0,4.7-0.1,7-0.3
			c-9.4,5.5-20.3,8.6-31.9,8.6c-35.1,0-63.5-28.4-63.5-63.5C2581.6,1299.8,2587.3,1285.5,2596.6,1274.4z"/>
	</g>
	<g>
		<g>
			<polygon class="st25" points="1380.3,971.7 1292.4,971.7 1292.4,964.8 1376.5,964.8 1464.9,822.7 1417.2,793.5 1420.9,787.6 
				1474.5,820.4 			"/>
		</g>
	</g>
	<g>
		<path class="st31" d="M2530.2,1157.1c0,0-605.7-67.3-997-76.5l40.7,76.5H2530.2z"/>
	</g>
	<g>
		<path class="st32" d="M1343.9,1073.3h27l37,70.1h-107C1334,1122.1,1342.6,1093.6,1343.9,1073.3z"/>
	</g>
	<g>
		<path class="st27" d="M2336.1,950.9c21.1-9.7,23.2-26.5,19.3-41.9c26.2,18.6,28.9,35,27,42.1c-6.7,24.5-52.3,29.6-88.8,26.4
			c-15.7-1.4-27.7-8.1-35-18.3C2284,961.5,2314.1,961,2336.1,950.9z"/>
	</g>
	<g>
		<circle class="st2" cx="1483.5" cy="1315.6" r="154.8"/>
	</g>
	<g>
		<ellipse cx="1483.5" cy="1315.6" rx="104" ry="104"/>
	</g>
	<g>
		<circle class="st29" cx="1483.5" cy="1315.6" r="75.7"/>
	</g>
	<g>
		<path class="st30" d="M1437,1274.4c-1.8,6.4-2.7,13.2-2.7,20.1c0,42,34.1,76.1,76.1,76.1c2.4,0,4.7-0.1,7-0.3
			c-9.4,5.5-20.3,8.6-31.9,8.6c-35.1,0-63.5-28.4-63.5-63.5C1422,1299.8,1427.6,1285.5,1437,1274.4z"/>
	</g>
</g>
<g>
	<polygon class="st33" points="1028.7,1092.4 946.5,1041.8 1183.3,697.3 912.1,532.4 1039.9,454.1 1118.4,518.4 1114,523.7 
		1039.3,462.6 925.4,532.4 1193.2,695.2 1191.1,698.2 956.4,1039.8 1032.3,1086.5 	"/>
</g>
<g>
	<path class="st34" d="M1205.7,469c6.8-16.1-4.9-31-25.1-36s-47,0.5-62.2,14.5c-7.9,7.3-11.6,15.6-10.7,23.6l0,0l6.4,52.6l69.2-33.7
		c0.4-0.2,0.8-0.4,1.2-0.6h0.1l0,0C1194.7,484.3,1202.2,477.1,1205.7,469z"/>
</g>
<g>
	<path class="st20" d="M1172.6,434.1c0-32.4-26.2-58.6-58.6-58.6s-58.6,26.2-58.6,58.6c0,14.4,5.2,27.6,13.9,37.9l0,0l44.8,51.9
		l44.3-51.4c0.3-0.4,0.6-0.7,1-1.1l0.1-0.1l0,0C1167.6,461.1,1172.6,448.2,1172.6,434.1z M1114,464.3c-17.1,0-30.9-13.8-30.9-30.9
		s13.8-30.9,30.9-30.9s30.9,13.8,30.9,30.9C1144.8,450.5,1131,464.3,1114,464.3z"/>
</g>
<g>
	<path class="st34" d="M1120.3,1037.7c6.8-16.1-4.9-31-25.1-36s-47,0.5-62.2,14.5c-7.9,7.3-11.6,15.6-10.7,23.6l0,0l6.4,52.6
		l69.3-33.7c0.4-0.2,0.8-0.4,1.2-0.6h0.1l0,0C1109.3,1053,1116.8,1045.8,1120.3,1037.7z"/>
</g>
<g>
	<path class="st20" d="M1087,1002.8c0-32.4-26.2-58.6-58.6-58.6s-58.6,26.2-58.6,58.6c0,14.4,5.2,27.6,13.9,37.9l0,0l44.8,51.9
		l44.3-51.4c0.3-0.4,0.6-0.7,1-1.1l0.1-0.1l0,0C1082.1,1029.8,1087,1016.9,1087,1002.8z M1028.4,1033c-17.1,0-30.9-13.8-30.9-30.9
		c0-17.1,13.8-30.9,30.9-30.9c17.1,0,30.9,13.8,30.9,30.9S1045.5,1033,1028.4,1033z"/>
</g>
<g>
	<rect x="1260.5" y="300.6" class="st4" width="80" height="6.9"/>
</g>
<g>
	<rect x="1260.5" y="320.8" class="st4" width="80" height="6.9"/>
</g>
<g>
	<rect x="1260.5" y="341.1" class="st4" width="80" height="6.9"/>
</g>
<g>
	<g>
		<g>
			<path class="st35" d="M643.4,1384.3l16.8,9.5c0,0,2.3,21.3,5.4,33.5c3.2,12.2,21.3,12.4,4.1,17.3s-15.4,9.8-26.3,5.1
				c-10.9-4.7-20.8-14.8-20.8-14.8l6.7-50.5L643.4,1384.3L643.4,1384.3z"/>
		</g>
	</g>
	<g>
		<g>
			<path class="st35" d="M473.4,1376.9l-9.7,58.8c0,0-16.4,17.8-20.1,14c-3.6-3.8-10.4-9.7-10.4-11.9c0-2.3,2.4-14,2.4-14l3-34.4
				h13.1L473.4,1376.9z"/>
		</g>
	</g>
	<g>
		<g>
			<path class="st36" d="M622.6,1434.9c0,0-5.1,9.5-4.9,32.1h122.9c0,0-3.5-15.4-30.5-21.6s-38.8-26-48.4-24c-6.8,1.4,0,18.6,0,18.6
				L622.6,1434.9z"/>
		</g>
	</g>
	<g>
		<g>
			<path class="st36" d="M469.7,1467h-93.2c0,0-2.7-10.3,11.6-19.7c14.3-9.5,29-10.5,38.7-18.5s22.7-8.2,23.7-3.1
				c1.1,5.1-2.4,11.3-2.4,11.3l15.7-1.4C463.7,1435.7,470.8,1447.3,469.7,1467z"/>
		</g>
	</g>
	<g>
		<g>
			<path class="st37" d="M467.1,1415.4l-30.2-5.3l1.3-14.7c7.3,0.4,24.6,1.2,31.9,1.7L467.1,1415.4z"/>
		</g>
	</g>
	<g>
		<g>
			<path class="st37" d="M625.9,1410.5l2.7-20.5c7.6,0.4,18.7,1,27.5,1.6l4,2.3c0,0,1.2,11,3,21.7L625.9,1410.5z"/>
		</g>
	</g>
	<g>
		<g>
			<path class="st38" d="M628,680.2l62.2-28.6c0,0,38.8,94.4,59.2,198.9s19.3,181.4,19.3,181.4h-32.6l-35.9-97.2
				c0,0-35.1-114.7-41.9-130C651.5,789.1,628,680.2,628,680.2z"/>
		</g>
	</g>
	<g>
		<g>
			<path class="st2" d="M697.7,904.8l30.3,12.5c0,0,17.8,91.8-14.3,199.7s-49,288-49,288h-72.2c0,0-2.2-100.2,17.4-170.7
				c19.6-70.4,35.3-100.6,37.3-218.1H633c0,0-25.3,67.8-76.1,158.7c-50.8,91-71,230.1-71,230.1h-62.7c0,0-1.8-78.5,20.5-152.5
				s99-201.5,102.5-335.3L697.7,904.8z"/>
		</g>
	</g>
	<g>
		<g>
			<path d="M647.3,1016.3h36.9c0,0-18.6,24.3-25.6,80.4c-7,56.2,0.8,91.8-30.6,153.1c-24.8,48.3-16.8,125-12.3,155.3h-23.1
				c0,0-2.2-100.2,17.4-170.7C629.5,1163.9,645.2,1133.8,647.3,1016.3z"/>
		</g>
	</g>
	<g>
		<g>
			<path d="M423.1,1405.1c0,0-1.8-78.5,20.5-152.5s99-201.5,102.5-335.3l151.6-12.5l30.3,12.5c0,0,0.4,2.1,1,6l-171.9,31.2
				c0,0-4.4,61.6-29.2,124.1c-24.9,62.5-72.6,161.5-74.5,232.5c-1.1,38.6,5,71.8,10.7,94H423.1z"/>
		</g>
	</g>
	<g>
		<g>
			<path class="st38" d="M588.1,631.5l23.8,6c0,0,54.2,6.7,78.3,14l-20.7,70.2l-163.9,10c0,0-4.4-50.2,1-72.5l37.1-14.5l33.8-8.7
				l7.7-4.7h2.9V631.5z"/>
		</g>
	</g>
	<g>
		<g>
			<path class="st38" d="M640.1,698.8l29.3,23c0,0,26.5,51.1,58.6,195.5H546.1l-18.3-174.7l6.7-50.9L640.1,698.8z"/>
		</g>
	</g>
	<g>
		<g>
			<path class="st38" d="M506.5,659.3c-20.3,23.4-37.3,53-71.5,110.7l-76.3-95.2l-27.6,16.9c0,0,53.5,122.8,102.1,158.7
				c0,0,74.5-35.6,114.6-107.9c46.5-83.6-34.7-62.4-34.7-62.4L506.5,659.3z"/>
		</g>
	</g>
	<g>
		<g>
			<path class="st35" d="M599.9,455.6c0,0,29.4,36.8,38.1,80.9c8.7,44.1-10,60.2-41.5,53.5l15.4,47.5l-8.6,34.3l-59.6-26.9
				l-11.4-85.6l-23.4-34.1l5.4-55.5l30.8-14h54.8V455.6z"/>
		</g>
	</g>
	<g>
		<g>
			<path class="st36" d="M566.6,526.3c-15.7,2.2-25.9-31.2-35.2-22.3c-9.4,8.9,2.2,43.2,22.3,51.3c0,0,15.2,21,3.6,32.5
				s-32.5-18.7-32.5-18.7s-19.6,8.9-31.2-17.4c-11.6-26.3,1.8-45.5,1.8-45.5s-32.1-29-20.5-53.1s40.6-15.6,40.6-15.6
				s8.9-44.1,27.6-48.6c18.7-4.5,23.6,12.5,23.6,12.5s16.1-13.5,36.6-7.7c26.4,7.5,23.1,50,23.1,50s24.8,1.8,24,22.7
				c-1.1,26.6-32.1,17.6-32.1,17.6s-10.6-19-18.4-28.5c0,0-4.2,14.5-19.4,18.5s-25.4-7.1-26.8,4
				C552.4,489.3,585.8,523.6,566.6,526.3z"/>
		</g>
	</g>
	<g>
		<g>
			<path class="st37" d="M572.9,577.3c6.2,6.5,23.6,12.7,23.6,12.7l6.7,20.8C581.3,598.5,572.9,577.3,572.9,577.3z"/>
		</g>
	</g>
	<g>
		<g>
			<path class="st39" d="M684.2,671.8c0,0,43.3,160.3,43.9,245.5C728.1,917.3,744,804.8,684.2,671.8z"/>
		</g>
	</g>
	<g>
		<g>
			<polygon class="st39" points="533.9,800.3 530.6,768.9 551.9,743.7 			"/>
		</g>
	</g>
	<g>
		<g>
			<path class="st35" d="M358.8,674.7c0,0,6.2-25.5-8-37.3s-9.1-39.9-17.2-36.5c-8.2,3.3-6.9,28-0.9,36.8c0,0-39.9-1.8-39,4.9
				c0.9,6.6,8.8,9.7,8.8,9.7s-12.4,0.3-12.1,5.1s10.9,6.3,10.9,6.3s-12.4,0.9-10.9,6s13,7.2,13,7.2s-11.5-0.9-9.7,4.7
				c1.8,5.6,37.4,10,37.4,10L358.8,674.7z"/>
		</g>
	</g>
	<g>
		<g>
			<path class="st35" d="M736.1,1031.8c0,0-13.8,43.2-6.1,49.5s9.5-15.9,9.5-15.9s-5.4,43.6,0,39s6.8-9.6,6.8-9.6s0.5,15.4,4.1,12.2
				c3.6-3.2,5-10,5-10s3.6,16.3,5.9,10.4c2.3-5.9,0-14,0-14s5.5,17.3,7.5,10.9s3.9-45.6,0-72.7h-32.7V1031.8z"/>
		</g>
	</g>
	<g>
		<g>
			<path d="M658.9,917.5l3.6-0.3C648.1,761.9,605.4,672,605,671.1l-3.2,1.6C602.1,673.4,644.6,762.9,658.9,917.5z"/>
		</g>
	</g>
	<g>
		<g>
			<path d="M586.3,723.9c0-3.8,3.1-6.8,6.8-6.8c3.8,0,6.8,3.1,6.8,6.8c0,3.8-3.1,6.8-6.8,6.8C589.4,730.8,586.3,727.7,586.3,723.9z
				 M589.9,723.9c0,1.8,1.5,3.3,3.3,3.3s3.3-1.5,3.3-3.3s-1.5-3.3-3.3-3.3S589.9,722.1,589.9,723.9z"/>
		</g>
	</g>
	<g>
		<g>
			<path d="M601.5,785.5c0-3.8,3.1-6.8,6.8-6.8c3.8,0,6.8,3.1,6.8,6.8c0,3.8-3.1,6.8-6.8,6.8S601.5,789.2,601.5,785.5z M605.1,785.5
				c0,1.8,1.5,3.3,3.3,3.3s3.3-1.5,3.3-3.3s-1.5-3.3-3.3-3.3S605.1,783.6,605.1,785.5z"/>
		</g>
	</g>
	<g>
		<g>
			<path d="M611.6,847c0-3.8,3.1-6.8,6.8-6.8c3.8,0,6.8,3.1,6.8,6.8c0,3.8-3.1,6.8-6.8,6.8C614.7,853.8,611.6,850.7,611.6,847z
				 M615.2,847c0,1.8,1.5,3.3,3.3,3.3s3.3-1.5,3.3-3.3s-1.5-3.3-3.3-3.3S615.2,845.2,615.2,847z"/>
		</g>
	</g>
	<g>
		<g>
			<path class="st40" d="M502.1,564.8c26.7-20.6,19.3-47.6,13.3-69.3c-2.6-9.6-5.1-18.6-4.4-25.8c1-9.9,8-11.1,16.9-12.7
				c10.4-1.8,23.3-4,25.4-24.2c1.2-11.4,7.3-20.5,18.1-27c14.9-9,33.7-9.9,36.5-8.8l1-2.5c-3.5-1.4-23.3-0.4-38.9,9
				c-11.6,7-18.1,16.7-19.4,29c-1.9,18.1-12.7,20-23.2,21.8c-8.8,1.5-17.9,3.1-19.1,15.1c-0.8,7.7,1.8,17,4.5,26.8
				c6.1,22,12.9,46.9-12.3,66.4L502.1,564.8z"/>
		</g>
	</g>
	<g>
		<g>
			<path class="st40" d="M535.5,503.7l2-1.9c-0.1-0.2-14.2-15.4-11.2-25.1c1.1-3.6,4.7-6.1,10.5-7.4c24.6-5.4,25.8-8.4,33.9-27.9
				c1-2.5,2.1-5.2,3.5-8.2c2.3-5.3,6.1-8.9,11.2-10.7c15.8-5.3,39.8,8.1,40,8.2l1.3-2.4c-1-0.6-25.3-14.1-42.2-8.4
				c-5.9,2-10.2,6.1-12.8,12.2c-1.3,3.1-2.4,5.8-3.5,8.3c-7.8,18.8-8.7,21.2-31.9,26.3c-6.9,1.5-11.1,4.6-12.5,9.2
				C520.2,487.2,534.9,503.1,535.5,503.7z"/>
		</g>
	</g>
	<g>
		<g>
			<path class="st37" d="M546.1,540.7c0.4,0,0.8,0,1.2-0.1c2-0.4,3.3-1.6,3.9-3.5c2-5.9-4.3-17.8-7.5-21.4c-2.9-3.2-7.2-4.6-10-3.3
				c-1.3,0.6-3.5,2.4-2.8,7.1c0.1,0.7,0.8,1.3,1.5,1.2s1.3-0.8,1.2-1.5c-0.2-1.6-0.2-3.6,1.2-4.3c1.7-0.8,4.8,0.4,6.8,2.6
				c3.2,3.6,8.4,14.3,6.9,18.7c-0.3,1-0.9,1.5-1.9,1.7c-2.5,0.5-5.5-2.2-7.1-5c-1.6-2.7-1.8-4.9-1.2-5.7c0.6-0.7,2.4-0.6,4.9,0.3
				c0.7,0.3,1.5-0.1,1.7-0.8c0.3-0.7-0.1-1.5-0.8-1.7c-3.8-1.4-6.4-1.2-7.9,0.5c-1.9,2.2-0.7,6,0.9,8.8
				C539.1,537.4,542.4,540.7,546.1,540.7z"/>
		</g>
	</g>
	<g>
		<g>
			<path class="st4" d="M652.6,1405.3l3.5-0.4c-0.1-0.7-6.8-72.5,23.5-193.8c29.8-119.2,28-252.5,20.5-294.1l-3.5,0.6
				c7.5,41.4,9.3,174-20.4,292.6C645.6,1332.2,652.5,1404.5,652.6,1405.3z"/>
		</g>
	</g>
	<g>
		<g>
			<path class="st4" d="M448.5,1405.6c8.9-78.4,47.2-153.3,84.3-225.8c11-21.5,21.4-41.9,31.1-62.4c42.5-89.8,51.3-198.9,51.4-200
				l-3.6-0.3c-0.1,1.1-8.8,109.5-51,198.7c-9.7,20.5-20.1,40.8-31.1,62.3c-37.2,72.8-75.6,148-84.6,227L448.5,1405.6z"/>
		</g>
	</g>
</g>
<g>
	<g>
		<path class="st1" d="M2331,709.1h-85.5v-137h85.5V709.1z M2251.5,703.1h73.5v-125h-73.5V703.1z"/>
	</g>
	<g>
		<rect x="2364.5" y="575.1" class="st1" width="79.5" height="131"/>
	</g>
</g>
<g>
	<path class="st38" d="M2492.7,362.7c0-116.3-94.3-210.6-210.6-210.6s-210.6,94.3-210.6,210.6c0,51.9,18.8,99.4,49.9,136.1h-0.1
		l161.1,186.4l159.1-184.8c1.1-1.3,2.3-2.6,3.4-4l0.2-0.2l0,0C2474.8,459.8,2492.7,413.3,2492.7,362.7z M2282,471.4
		c-61.3,0-111-49.7-111-111s49.7-111,111-111s111,49.7,111,111S2343.3,471.4,2282,471.4z"/>
</g>
<g>
	<path class="st2" d="M2279.6,687.4l-165.9-192h0.3c-29.8-37.7-46.1-84.5-46.1-132.7h6.9c0,48.9,17.4,96.5,49.1,133.8l3,3.6
		l158,182.9L2279.6,687.4z M2443.9,502.6l-3.5-3h-2.8l1.2-1.4l-0.1-0.1l1-1.1c0.6-0.7,1.3-1.5,1.9-2.2l0.6-0.8
		c30.3-36.9,46.9-83.5,46.9-131.3c0-114.2-92.9-207.2-207.2-207.2v-6.9c118.1,0,214.1,96,214.1,214.1c0,47-15.6,92.8-44,130h0.4
		l-5.1,6c-0.8,0.9-1.6,1.9-2.5,2.9L2443.9,502.6z M2282,474.9c-63.1,0-114.5-51.4-114.5-114.5s51.4-114.5,114.5-114.5v6.9
		c-59.3,0-107.5,48.2-107.5,107.5s48.2,107.5,107.5,107.5s107.5-48.2,107.5-107.5h6.9C2396.5,423.5,2345.1,474.9,2282,474.9z"/>
</g>
</svg>
