<?xml version="1.0" encoding="utf-8"?>
<!-- Generator: Adobe Illustrator 24.3.0, SVG Export Plug-In . SVG Version: 6.00 Build 0)  -->
<svg version="1.1" id="layer_1" xmlns="http://www.w3.org/2000/svg" xmlns:xlink="http://www.w3.org/1999/xlink" x="0px" y="0px"
	 viewBox="0 0 900 444" style="enable-background:new 0 0 900 444;" xml:space="preserve">
<style type="text/css">
	.st0{enable-background:new    ;}
	.st1{fill:#42E4FF;}
	.st2{fill:#90E4FF;}
	.st3{fill:#3E85FF;}
	.st4{fill:#2E7DE7;}
	.st5{fill:#F7C3B1;}
	.st6{fill:#D4DFEF;}
	.st7{fill:#D0DAE7;}
	.st8{fill:#FF5E99;}
	.st9{fill:#310078;}
	.st10{fill:url(#SVGID_3_);}
	.st11{fill:#DEE7FF;}
	.st12{opacity:0.28;fill:#FFFFFF;}
	.st13{fill:url(#SVGID_4_);}
	.st14{fill:url(#SVGID_5_);}
	.st15{fill:url(#SVGID_6_);}
	.st16{fill:url(#SVGID_7_);}
	.st17{fill:url(#SVGID_8_);}
	.st18{fill:url(#SVGID_9_);}
	.st19{fill:url(#SVGID_10_);}
	.st20{fill:url(#SVGID_11_);}
	.st21{fill:#EDC9BE;}
	.st22{fill:#B7C8DC;}
	.st23{fill:url(#SVGID_12_);}
	.st24{fill:#51D7F5;}
	.st25{fill:url(#SVGID_13_);}
	.st26{fill:#F1CDC2;}
	.st27{fill:url(#SVGID_14_);}
	.st28{fill:#866CC6;}
	.st29{fill:#320079;}
	.st30{fill:#EDB9A7;}
	.st31{fill:#EBC1B6;}
	.st32{fill:url(#SVGID_15_);}
	.st33{fill:#D1E2E6;}
	.st34{fill:#B1CDD2;}
	.st35{fill:#EEC7B9;}
	.st36{fill:url(#SVGID_16_);}
	.st37{fill:#D1EBFF;}
	.st38{fill:#FF5E92;}
	.st39{fill:#8EE2F7;}
	.st40{fill:#C5ECFF;}
</style>
<g>
	<g>
		<g class="st0">
			<g>
				<polygon class="st1" points="311.9,340.2 305.7,337.6 400.3,363 406.5,365.6 				"/>
			</g>
			<g>
				<path class="st2" d="M273.6,430.4c-5-2.1-9.7-4.6-14.1-7.4l52.4-82.8l94.6,25.4c-1.2,4.3-2.7,8.6-4.5,12.9
					c-7.8,18.2-20.4,32.9-35.7,43.1c-8,5.4-16.8,9.5-26,12.3C319.1,440.4,295.6,439.8,273.6,430.4z"/>
			</g>
			<path class="st1" d="M270.2,428.9c-0.4-0.2-0.7-0.4-1.1-0.5c-0.7-0.4-1.5-0.7-2.2-1.1c-0.4-0.2-0.8-0.4-1.2-0.6
				c-0.7-0.4-1.5-0.8-2.2-1.2c-0.3-0.2-0.7-0.4-1-0.6c-1-0.6-2.1-1.2-3.1-1.8l-6.2-2.6c1,0.6,2,1.3,3.1,1.9c0.3,0.2,0.7,0.4,1,0.6
				c0.7,0.4,1.5,0.8,2.2,1.2c0.4,0.2,0.8,0.4,1.2,0.6c0.7,0.4,1.5,0.7,2.2,1.1c0.4,0.2,0.7,0.4,1.1,0.5c0.1,0.1,0.3,0.1,0.4,0.2
				c1,0.5,2,0.9,2.9,1.3l6.2,2.6C272.4,429.9,271.3,429.4,270.2,428.9z"/>
			<g>
				<polygon class="st1" points="259.5,423 253.3,420.4 305.7,337.6 311.9,340.2 				"/>
			</g>
		</g>
		<g class="st0">
			<g>
				<path class="st3" d="M303.6,331.4L266,241c23.5-9.7,50.7-10.4,76,0.3c2.6,1.1,5.2,2.3,7.6,3.6L303.6,331.4z"/>
			</g>
			<g>
				<polygon class="st4" points="303.6,331.4 297.4,328.8 259.8,238.3 266,241 				"/>
			</g>
			<path class="st4" d="M335.8,238.6c-25.2-10.7-52.5-10-76-0.3l6.2,2.6c23.5-9.7,50.7-10.4,76,0.3L335.8,238.6z"/>
		</g>
		<g>
			<g>
				<path class="st5" d="M191.7,283.8c5.7,0.1,26.3-6.7,26.3-6.7s3.3-2,3.7-3.2c0.4-1.2,2-4.5,3.4-4.2c0.4,0.1-1.3,1.1-1.2,2.9
					c0,1.9-2.4,4.2,5.1,4c2.8-0.2,6.2-0.6,6.9-0.5c0.9,0.1,0.6,1.6,0.3,1.7c0,0,1.2,0.9,1.3,1.3c0.1,0.4-0.9,1.2-0.9,1.2
					s0.2,1.5-0.7,1.9c0,0-0.6,0.9-2.1,1.5c-1.7,0.6-5.8,1.5-7.7,1.2c-2.1-0.3-3.3-1.3-5.1-1.9c-1-0.3-2.1-0.3-3.1,0.2
					c-4.8,2.4-17.8,11.1-26.5,10C186.9,292.3,186.1,283.7,191.7,283.8z"/>
				<path class="st6" d="M176.1,255.2c0.1,6.3,6.1,14.5,9.2,18.3c2.4,3,12.4,10.5,12.4,10.5l-6.2,10.8c0,0-10.9-6.4-15.3-10.2
					c-6.3-5.3-17-17.4-17.2-28.3c-0.2-7.5,7.2-13.2,12.3-10.3C174.7,247.9,176.1,253.4,176.1,255.2z"/>
				<path class="st7" d="M194.5,296.8c0,0-6.4-2.5-6.6-3c-0.2-0.6,4.9-16.8,5.6-16.7c0.8,0.1,5.4,3.4,5.4,3.4S196.4,295,194.5,296.8
					z"/>
			</g>
			<g class="st0">
				<g>
					<path class="st8" d="M238.2,414c-39.1-24.7-55.6-74.7-37-118.7c10.2-24.1,29.1-41.8,51.5-51.1l36.9,88.6L238.2,414z"/>
				</g>
				<g class="st0">
					<defs>
						<path id="SVGID_1_" class="st0" d="M238.2,414l-6-2.6c-39.1-24.7-55.6-74.7-37-118.7c10.2-24.1,29.1-41.8,51.5-51.1l6,2.6
							c-22.4,9.3-41.2,27-51.5,51.1C182.6,339.2,199.1,389.3,238.2,414z"/>
					</defs>
					<use xlink:href="#SVGID_1_"  style="overflow:visible;fill:#FF007B;"/>
					<clipPath id="SVGID_2_">
						<use xlink:href="#SVGID_1_"  style="overflow:visible;"/>
					</clipPath>
				</g>
			</g>
			<g>
				<g>
					<path class="st9" d="M195.4,436.4c0-0.4-0.1-0.8-0.2-1.3c-0.3-2-2.1-3.7-3.6-4.2c-2.5-0.9-6.2-0.6-10.4-1.7
						c-4.2-1.1-5.4-3-5.4-3l-5.5-0.6c0,0-1.5,6.1-1.9,9.7c-0.1,1.2-0.1,2.2,0.2,2.4c1,0.7,20.1,0.3,25.5,0.1
						C194.9,437.9,195.5,437.2,195.4,436.4z"/>
					<path class="st5" d="M173.7,429.9c-0.5,0-1-0.1-1.4-0.2c-1.1-0.5-1.9-1.5-1.9-2.8l-0.1-2.5l-0.3-6.2l7.2-0.2l-0.4,7.1l-0.1,1.8
						C176.5,428.5,175.2,429.8,173.7,429.9z"/>
				</g>
				<g>
					<path class="st9" d="M153.9,437.1c0.1-0.4,0.2-0.8,0.3-1.2c0.4-2-0.7-4.2-1.8-5.2c-2-1.7-5.6-2.8-9.1-5.3c-3.5-2.5-4-4.7-4-4.7
						l-5-2.5c0,0-3.6,5.2-5.2,8.3c-0.6,1.1-0.9,2-0.7,2.3c0.6,1,18.6,7.4,23.8,9.2C152.9,438.3,153.7,437.9,153.9,437.1z"/>
					<path class="st5" d="M136,423.2c-0.5-0.2-0.9-0.4-1.3-0.7c-0.9-0.8-1.2-2.1-0.8-3.3l0.8-2.3l1.9-5.9l6.8,2.4l-2.9,6.5l-0.7,1.6
						C139.1,422.9,137.5,423.6,136,423.2z"/>
				</g>
				<linearGradient id="SVGID_3_" gradientUnits="userSpaceOnUse" x1="132.3677" y1="365.0056" x2="188.0675" y2="365.0056">
					<stop  offset="0" style="stop-color:#370072"/>
					<stop  offset="1" style="stop-color:#4164E0"/>
				</linearGradient>
				<path class="st10" d="M143.9,311.1c1.3-5.8,26.3-3.8,26.3-3.8s-0.1,1.2-0.1,3.2c3.6-1.4,9.6-5,15.9-3.6c0,0,2.5,19.8,2.1,41.4
					c-0.4,21.5-8.9,75-8.9,75h-12.1c0,0,1.1-58.3-1.2-81.3c-1.5,9.7-4.4,29.8-6.8,40c-4,16.7-16.6,37.8-16.6,37.8l-10.1-2.3
					c4.1-18.3,7.9-27.5,8.3-40.1C141.4,354.9,139.6,329.6,143.9,311.1z"/>
				<path class="st11" d="M165.3,237.5c0,0-12.5,0.2-16.4,11.3c-3.9,11.1-8.6,55.4-7.5,65.6c0,0,31.1,6,46.6-1.6
					c0,0-4.6-36.8-5.3-45.2C182,259.3,175.9,239.1,165.3,237.5z"/>
				<path class="st9" d="M165.9,342c0,0,3-14.4,3.7-21.3c0,0-0.4,17.7-3.3,25.6L165.9,342z"/>
				<path class="st9" d="M157.8,319.4c0,0,2.4,9.7,0.4,12c-2,2.3-7.7,3.4-9.1,2.9c-3.1-1.2-3.1-9-3.1-9S153.3,323.4,157.8,319.4z"/>
				<path class="st5" d="M169.4,229.5c0,0-1.2,7-0.1,11.5c0.2,0.9-0.3,1.8-1.1,2c-3.3,1.1-7.8-2.2-10-3.7
					c-0.5-2.5,0.8-12.3,0.8-12.3L169.4,229.5z"/>
				<path class="st5" d="M198.6,275c5.6,0.3,26.7-6.8,26.7-6.8s0-2,0.4-3.3c0.4-1.2-0.6-3.8-0.2-3.9c0.4-0.1,2.5,0.9,2.5,2.7
					c0,1.8,0.8,5.2,8.3,5.2c2.8-0.1,6.3-0.4,7-0.3c0.9,0.2,0.5,1.6,0.2,1.7c0,0,1.2,0.9,1.2,1.3c0.1,0.4-0.9,1.2-0.9,1.2
					s0.1,1.5-0.8,1.9c0,0-0.6,0.9-2.2,1.4c-1.7,0.5-5.8,1.3-7.8,0.9c-2.1-0.4-3.3-1.5-5.1-2.1c-1-0.4-2.1-0.3-3.1,0.1
					c-4.9,2.2-21,10.1-24.7,10.3C195.7,285.5,193,274.8,198.6,275z"/>
				<path class="st6" d="M166.9,256.2c2.7,5.7,11.4,10.8,15.8,13.1c3.4,1.8,15.5,4.7,15.5,4.7l-1.3,12.4c0,0-12.5-1.5-18.1-3.2
					c-7.9-2.3-22.6-9.1-27.2-19c-3.2-6.8,1.3-15,7.1-14.4C162.7,250.2,166.2,254.7,166.9,256.2z"/>
				<path class="st6" d="M199.6,290c0,0-6.5-2.3-6.7-2.9c-0.2-0.6,4.4-17,5.2-16.9c0.8,0.1,5.5,3.2,5.5,3.2S201.4,288.2,199.6,290z"
					/>
				<path class="st5" d="M166,203.7c7,0,12.7,6.6,12.7,14.8c0,0.5,0,1-0.1,1.4c0.5,0.6,1.2,1.5,0.9,2.4c-0.2,0.6-0.8,0.7-1.5,0.8
					c-1.7,5.9-6.4,10.1-12,10.1c-7,0-12.7-6.6-12.7-14.8C153.3,210.3,158.9,203.7,166,203.7z"/>
				<path class="st9" d="M148.1,211.1c0.9-12.6,16.6-17.9,22.3-17c0.8,0.1,0.2,1.3-0.6,2.1c7.2-0.7,15.1,0.6,16.2,8.5
					c0.8,5.7-14,8.3-24.1,6.9c-0.8-0.1-1.7-0.1-2.3,0.4c-0.8,0.6-1.6,2.6-0.5,7c-0.9-0.8-2.8-1.9-3.6-0.4c-0.6,1.1-0.2,3.5,2.9,4.4
					c1.3,3,0.7,6.1,0.3,7.9C158.7,230.9,147.5,220,148.1,211.1z"/>
			</g>
		</g>
		<g>
			<path class="st3" d="M745.8,254.3c-0.8,0-1.5-0.1-2.3-0.3c-58.5-15-88.9-50.4-97.9-78.5c-2.5-8-1.2-16.4,3.8-23.2
				c5-6.8,12.6-10.7,21.1-10.7h25.4c5.1,0,9.3,4.2,9.3,9.3c0,5.1-4.2,9.3-9.3,9.3h-25.4c-2.4,0-4.7,1.1-6.1,3.1
				c-1.4,1.9-1.8,4.4-1.1,6.6c2.6,8.1,18.8,49.2,84.8,66.1c5,1.3,8,6.3,6.7,11.3C753.7,251.5,749.9,254.3,745.8,254.3z"/>
			<path class="st12" d="M664.7,198c1,1.6-1.3,3.2-2.4,1.7c-6.7-9.1-11-18.2-13.3-26.5c-1.9-7.1-0.4-14.4,4.2-20.1
				c3.3-4.1,7.8-6.9,12.8-8c1.1-0.2,1.7,1.3,0.7,1.9c-2.7,1.5-5.8,3.9-8,7.2c-4.4,6.7-5.8,14.2-3.7,21.9
				C656.9,183,660.1,190.5,664.7,198z"/>
			<path class="st3" d="M789.3,254.3c-4.1,0-7.9-2.8-9-7c-1.3-5,1.7-10,6.7-11.3c66-16.9,82.3-58.1,84.8-66.1
				c0.7-2.3,0.3-4.7-1.1-6.6c-1.4-2-3.7-3.1-6.1-3.1h-25.4c-5.1,0-9.3-4.2-9.3-9.3c0-5.1,4.2-9.3,9.3-9.3h25.4
				c8.4,0,16.1,3.9,21.1,10.7c4.9,6.8,6.3,15.2,3.8,23.2c-9,28.1-39.4,63.5-97.9,78.5C790.8,254.2,790,254.3,789.3,254.3z"/>
			<linearGradient id="SVGID_4_" gradientUnits="userSpaceOnUse" x1="767.4152" y1="344.1722" x2="767.4152" y2="305.3968">
				<stop  offset="0" style="stop-color:#42E4FF"/>
				<stop  offset="1" style="stop-color:#3E85FF"/>
			</linearGradient>
			<path class="st13" d="M783.7,279.2h-16.3h-16.3c4.1,49.5-51.5,64.9-51.5,64.9h67.7h67.7C835.1,344.2,779.6,328.7,783.7,279.2z"/>
			<linearGradient id="SVGID_5_" gradientUnits="userSpaceOnUse" x1="767.4099" y1="279.2465" x2="767.4099" y2="305.5134">
				<stop  offset="0" style="stop-color:#370072"/>
				<stop  offset="1" style="stop-color:#4164E0"/>
			</linearGradient>
			<path class="st14" d="M786.5,302.5c-6,2-12.4,3-19.1,3c-6.6,0-13.1-1.1-19.1-3c2.4-6.7,3.6-14.5,2.8-23.2h32.6
				C783,288,784.1,295.7,786.5,302.5z"/>
			<linearGradient id="SVGID_6_" gradientUnits="userSpaceOnUse" x1="767.4146" y1="128.9285" x2="767.4146" y2="294.9785">
				<stop  offset="0" style="stop-color:#42E4FF"/>
				<stop  offset="1" style="stop-color:#3E85FF"/>
			</linearGradient>
			<path class="st15" d="M767.4,295.9L767.4,295.9c-31.1,0-57.4-23.3-61-54.3L692.2,120h150.5l-14.3,121.6
				C824.8,272.6,798.6,295.9,767.4,295.9z"/>
			<linearGradient id="SVGID_7_" gradientUnits="userSpaceOnUse" x1="683.9321" y1="119.9771" x2="850.8982" y2="119.9771">
				<stop  offset="0" style="stop-color:#370072"/>
				<stop  offset="1" style="stop-color:#4164E0"/>
			</linearGradient>
			<path class="st16" d="M846.9,128.2h-159c-2.2,0-4-1.8-4-4v-8.5c0-2.2,1.8-4,4-4h159c2.2,0,4,1.8,4,4v8.5
				C850.9,126.4,849.1,128.2,846.9,128.2z"/>
			<linearGradient id="SVGID_8_" gradientUnits="userSpaceOnUse" x1="695.5678" y1="347.0067" x2="839.2613" y2="347.0067">
				<stop  offset="0" style="stop-color:#4164E0"/>
				<stop  offset="1" style="stop-color:#370072"/>
			</linearGradient>
			<path class="st17" d="M839.3,352.2H695.6v-5.3c0-2.8,2.2-5,5-5h133.7c2.8,0,5,2.2,5,5V352.2z"/>
			<path class="st12" d="M765,285.3c1.3,0.4,1,2.4-0.3,2.4c0,0-0.1,0-0.1,0c-29.8,0-45.6-22.3-49.1-51.8L701,111.7h16.7l14.4,124.1
				C734.9,259.7,744.5,278.8,765,285.3z"/>
			<linearGradient id="SVGID_9_" gradientUnits="userSpaceOnUse" x1="683.9321" y1="390.4749" x2="850.8982" y2="390.4749">
				<stop  offset="0" style="stop-color:#4164E0"/>
				<stop  offset="1" style="stop-color:#370072"/>
			</linearGradient>
			<path class="st18" d="M850.9,429.3h-167v-67.2c0-5.8,4.7-10.5,10.5-10.5h146c5.8,0,10.5,4.7,10.5,10.5V429.3z"/>
			<linearGradient id="SVGID_10_" gradientUnits="userSpaceOnUse" x1="739.8462" y1="390.4742" x2="794.9841" y2="390.4742">
				<stop  offset="0" style="stop-color:#42E4FF"/>
				<stop  offset="1" style="stop-color:#3E85FF"/>
			</linearGradient>
			<path class="st19" d="M795,390.5c0-15.2-12.3-27.6-27.6-27.6c-15.2,0-27.6,12.3-27.6,27.6c0,15.2,12.3,27.6,27.6,27.6
				C782.6,418,795,405.7,795,390.5z"/>
			<linearGradient id="SVGID_11_" gradientUnits="userSpaceOnUse" x1="748.4004" y1="390.4743" x2="786.4299" y2="390.4743">
				<stop  offset="0" style="stop-color:#370072"/>
				<stop  offset="1" style="stop-color:#4164E0"/>
			</linearGradient>
			<polygon class="st20" points="767.4,372.4 773.3,384.3 786.4,386.2 776.9,395.5 779.2,408.6 767.4,402.4 755.7,408.6 
				757.9,395.5 748.4,386.2 761.5,384.3 			"/>
			<path class="st12" d="M737.6,187.2l-9.3-75.4h17.5c0,0-1.7,33.9-2.8,75.2C742.9,190.3,738,190.5,737.6,187.2z"/>
		</g>
		<g>
			<g>
				<polygon class="st9" points="550.1,430.1 541.8,430.1 583.4,257.5 591.7,257.5 				"/>
				<polygon class="st9" points="692.9,430.1 701.2,430.1 659.6,257.5 651.3,257.5 				"/>
				<path class="st9" d="M664.2,263.7h-89.4c-3.4,0-6.2-2.8-6.2-6.2l0,0c0-3.4,2.8-6.2,6.2-6.2h89.4c3.4,0,6.2,2.8,6.2,6.2l0,0
					C670.4,260.9,667.6,263.7,664.2,263.7z"/>
				<rect x="575.8" y="300.4" class="st9" width="90.5" height="9.7"/>
				<rect x="562.7" y="346.9" class="st9" width="113.5" height="9.7"/>
				<rect x="555.2" y="386.8" class="st9" width="130.7" height="9.7"/>
			</g>
		</g>
		<g>
			<path class="st21" d="M602.2,94.7c1.1-3.4,1.8-5.7,1.6-6c-0.8-1.2-1.7-6.7-1.6-7.5c0.1-0.7-1.5-3.9,0.1-3.4
				c1.6,0.5,1.6,5.3,3.1,4c4.8-4.3,6.6-8.6,7.7-9.4c1.1-0.7,1.6,0.8,1.6,0.8c0.2-0.5,1.5-2,2.2-1.3c0.6,0.6,0,2.3,0,2.3
				s1.2-0.1,1.5,0.5c0.6,1.1-0.7,2.2-0.7,2.2c0.6,0.1,0.9,1.6,0.9,2.2c-0.1,1.4-8.4,9.8-8.7,10.5c-0.1,0.2-0.6,3.6-1.4,8.6
				C606.1,96.9,604.4,96.3,602.2,94.7z"/>
			<path class="st22" d="M613.8,150.8c4.9-1.6-3.9-28.3-4.5-30.7c-0.7-2.4,0.4-23.7,0.9-25.2c0.5-1.6-8.1-4.4-8.1-4.4
				s-6.8,24.8-6.7,30.4C595.4,126.4,597.9,155.8,613.8,150.8z"/>
			<g>
				<linearGradient id="SVGID_12_" gradientUnits="userSpaceOnUse" x1="564.4614" y1="118.9294" x2="580.2298" y2="118.9294">
					<stop  offset="0" style="stop-color:#42E4FF"/>
					<stop  offset="1" style="stop-color:#3E85FF"/>
				</linearGradient>
				<path class="st23" d="M564.7,117.2c1-4.2,5.2-6.9,9.4-6c4.2,1,6.9,5.2,6,9.4c-1,4.2-5.2,6.9-9.4,6
					C566.4,125.7,563.7,121.4,564.7,117.2z"/>
				<path class="st24" d="M552.5,151L552.5,151c3,0.7,5.9-1.2,6.6-4.1l12.3-23.8l-13.6-3.1l-9.4,24.4
					C547.7,147.4,549.6,150.4,552.5,151z"/>
				<polygon class="st2" points="506.9,126.4 544.1,123.2 548.6,102.9 516.5,84.1 				"/>
				<linearGradient id="SVGID_13_" gradientUnits="userSpaceOnUse" x1="553.7596" y1="129.3745" x2="568.6894" y2="129.3745">
					<stop  offset="0" style="stop-color:#42E4FF"/>
					<stop  offset="1" style="stop-color:#3E85FF"/>
				</linearGradient>
				<path class="st25" d="M554.8,129.3l12.2,2.7c0.7,0.2,1.5-0.3,1.6-1l0,0c0.2-0.7-0.3-1.5-1-1.6l-12.2-2.7c-0.7-0.2-1.5,0.3-1.6,1
					l0,0C553.6,128.4,554.1,129.2,554.8,129.3z"/>
				<path class="st1" d="M506.5,128.3L506.5,128.3c1.3,0.3,2.7-0.5,3-1.9l9.3-41.3c0.3-1.3-0.5-2.7-1.9-3l0,0
					c-1.3-0.3-2.7,0.5-3,1.9l-9.3,41.3C504.3,126.7,505.1,128,506.5,128.3z"/>
				<path class="st1" d="M545.6,124.8l21,4.7c3.3,0.7,6.6-1.3,7.4-4.6l2.4-10.7c0.7-3.3-1.3-6.6-4.6-7.4l-21-4.7
					c-3.3-0.7-6.6,1.3-7.4,4.6l-2.4,10.7C540.2,120.8,542.3,124.1,545.6,124.8z"/>
			</g>
			<path class="st3" d="M660.5,329.8c0,0,2.6,0.2,3.9,2c1.3,1.9-5,14.9-8.1,15.5c-3.1,0.6-9.4,0.2-10-0.5c-0.6-0.6,4.3-3.7,5.4-4.5
				c1.1-0.8,3.2-11,3.2-11L660.5,329.8z"/>
			<path class="st26" d="M608.9,115.9c0,0-2.8,2.7-4.3,4.2c-1.5,1.6-3.2,2.2-3.2,2.8c0,0.6,1.4,1.8,1.4,1.8s-1.4,8.6,0.9,11.5
				c2.2,2.9,9.2,3.6,13,2.2c3.8-1.4,7-16.8,7-16.8S613.2,112.9,608.9,115.9z"/>
			<g>
				<path class="st3" d="M615.8,334.2c0,0,2.5,0.8,3.3,3c0.8,2.1-8.6,13.1-11.8,12.9c-3.2-0.2-9.2-2.2-9.6-3c-0.4-0.7,5.1-2.5,6.3-3
					c1.3-0.5,5.9-9.9,5.9-9.9L615.8,334.2z"/>
				<path class="st3" d="M619,337.2c0,0,0.9,9.5,0.4,11.8l-1.5,0.3c0,0-2-8.2-2.2-9.4C615.6,338.8,619,337.2,619,337.2z"/>
			</g>
			<path class="st26" d="M610,135.3c0,0-1.8,8.5-4.5,11.2s6,1.8,6,1.8l7.9-10.6L610,135.3z"/>
			<path class="st26" d="M609.2,329.2c0,0-11-69.4-12.2-77.9c-1.2-8.4-2.8-44.9-0.4-48.6c2.4-3.7,33.9-0.4,33.9-0.4l3.2-0.4
				c0,0,4.4,14.8,6.2,38.1c1.1,14.5,2.1,46.1,3.9,48.9c1.8,2.9,12.2,28.2,13.5,32.7l3,8.3c0,0-5.8,12-6.7,11.2
				c-0.9-0.8,1.1-9.5,1.1-9.5l-2.8-6.9l0,0c0,0-16.1-23.2-19.4-31c-3.3-7.8-11.6-51.7-11.6-51.7l-3.5,0.4c0,0-0.3,49.6-0.4,55.4
				c-0.1,5.8-1.8,31.5-1.8,31.5l0.5,5.2c0,0-8.7,10.1-9.3,9.1c-0.6-1,3.5-9,3.5-9L609.2,329.2L609.2,329.2z"/>
			<path class="st3" d="M633.8,202.5c0,0,6.8,2.6,7.1,24.6c0.3,22-0.8,36,13.5,52c0,0-19,13.7-64.4,7.8c0,0,8.9-32.4,2.5-52.9
				c-4.1-12.8,6.5-39.1,10.2-45.7C606.6,181.7,633.8,202.5,633.8,202.5z"/>
			<path class="st3" d="M664.4,331.9c0,0,3.2,9,3.4,11.4l-1.3,0.6c0,0-4-7.4-4.5-8.5C661.5,334.3,664.4,331.9,664.4,331.9z"/>
			<path class="st21" d="M547.9,137.1c1.4-0.1,5.1,3.8,4.3,3s-3.2-3.1-2.6-3.7c0.4-0.5,1.1,0,2.8,1.3c1.7,1.2,5.1,4.6,5.2,4.4
				c0.1-0.2-1.3-1.9-1.9-2.3c-0.5-0.4-2.5-2.8-1.6-2.7c0.8,0.1,3.9,2.3,5.7,3.5c1.8,1.1,3.2,4.5,4.1,6.6c0.5,1.1,1.2,2.1,2.1,2.8
				c1.4,1.1,3.7,2.9,5.4,4.2c2.7,1.9-3.8,7.3-3.8,7.3s-3.6-3.9-5.7-6.4c-0.9-1.1-2.1-1.9-3.5-2.3c-4.1-1.3-4.7-2.5-6.2-4
				c-1.8-1.8-5.6-6.8-5.1-7.1c0.7-0.4,1.5,0.7,2.6,1.8c-1.7-1.7-3.1-4.3-2.5-4.4c0.6-0.1,2.1,1.5,3.4,2.5
				C549,140,546.6,137.2,547.9,137.1z"/>
			<path class="st2" d="M597.4,195.4c4.2-13.3-0.1-18.4-2.3-23.9c-1.6-4.1,4.2-18.7,10.5-25c0,0,2.5,1.1,9-1.7
				c0.1,0,0.1-0.1,0.2-0.1c6.3,3.3,14,13.1,14.4,24.1c0.5,12.9,9.3,37.1,9.3,37.1c-11.7,4.9-48,4.3-48,4.3S595.1,202.7,597.4,195.4z
				"/>
			<path class="st22" d="M615.6,154.6c-0.5-4.9-6.4-6.1-15.8-1.4c-9.4,4.7-14.5,7-16.9,7.2c-2.4,0.2-14.9-9.4-16.3-10.2
				c-1.4-0.8-5.6,5.8-5.6,5.8s11.6,15.2,16.8,16.1C583.2,173.1,617.4,170.3,615.6,154.6z"/>
			<linearGradient id="SVGID_14_" gradientUnits="userSpaceOnUse" x1="603.0397" y1="141.266" x2="658.496" y2="141.266">
				<stop  offset="0" style="stop-color:#FF8373"/>
				<stop  offset="1" style="stop-color:#FF296D"/>
			</linearGradient>
			<path class="st27" d="M640,123.4c-5-3.5-8.2-5.6-9.1-9.2c-1.4-5.9-7.8-7-12.5-7.2c-3.6-0.1-9.6-5.2-14.1-1.5
				c-1.7,1.4-1.9,3.9,0.7,7.9c0.9,1.3,1.8,2.1,2.7,2.6c1.2,0.6,2.2,1.5,2.9,2.7c0.5,0.8,1.1,1.6,1.9,2.3c3.5,2.9,3.5,6.5,1.3,8.4
				c-2.2,1.9-0.6,6.4,0.6,8.7c2.4,4.3-6.3,7.5-3.3,11.7c3,4.2,7.7,6.2,8.1,13.2c0.6,10.5,11.6,14.6,19.8,15.4
				c9.9,0.9,22.7-8.5,18.8-21.4c-4.8-15.8-15-16.9-14.2-20.5C644.4,133,644.9,126.9,640,123.4z"/>
		</g>
		<g>
			<path class="st28" d="M468.5,433.8c0,0-0.2,1.5,0.3,2.6c0.3,0.8,10.9,2.8,20.9,1c0.9-0.2,1.5-1,1.4-1.8l-0.1-1.1L468.5,433.8z"/>
			<path class="st29" d="M468.5,433.6c0.6-1.9,10.7-3.3,14.2-3.5c4-0.2,0.3-2.7,3.5-2.3c3.2,0.4,3.2,0.4,3.2,0.4s1.3,2.2,1.5,5.5
				c0,0.2,0,0.4,0,0.7c0,2.3-6.7,2.1-13,2c-4.1,0-7.5-0.2-9.3-2C468.5,434.1,468.4,433.9,468.5,433.6z"/>
			<path class="st30" d="M490.3,419.4l0,10.6c0,0-10.2,2-7.9,0.1l-0.7-9.8L490.3,419.4z"/>
			<path class="st28" d="M434.4,433.9c0,0-0.3,1.5,0,2.6c0.3,0.8,10.6,3.8,20.7,2.9c0.9-0.1,1.5-0.8,1.6-1.7l0-1.1L434.4,433.9z"/>
			<path class="st29" d="M434.5,433.7c0.8-1.8,11-2.3,14.5-2.2c4,0.1,0.5-2.6,3.7-2c3.2,0.7,3.2,0.7,3.2,0.7s1.1,2.3,1,5.6
				c0,0.2,0,0.4,0,0.7c-0.2,2.3-6.9,1.4-13.1,0.8c-4.1-0.4-7.4-0.9-9-2.8C434.4,434.2,434.4,433.9,434.5,433.7z"/>
			<path class="st30" d="M457.5,421.6l-1,10.6c0,0-10.3,1.1-7.9-0.7l0.2-9.8L457.5,421.6z"/>
			<path class="st31" d="M399.8,289.2c0.2-0.4,2-1.7,4.3-2.8c1.8-0.9,4.9-2.1,5.9-2.7c0.3-0.2,0.4-0.3,0.3-0.4
				c-0.1-0.1-0.3-0.1-0.6-0.1c0,0-3.1,1.2-4.5,0.7c-1.4-0.5,2.7-2.2,2.7-2.2c1-0.6,2.1-1.1,2.7-1.1c1.4-0.1,5.3,2.4,5.3,2.4
				s18-6.6,21.4-9c3.5-2.4,6.7-20.2,6.7-20.2l9.7,4.9c0,0-6.5,20-9.4,23.1c-2.8,3-27.2,6.2-27.2,6.2c-2,3.6-5.7,4.3-7.3,4.7
				c0,0-5.7,0.6-5.7,0.6c-1.5,0.4-2.3-1-2.3-1c-1,0.2-1,0-1,0c-1.1-0.1-0.5-2-0.4-2.1C400.2,290.3,399.5,290,399.8,289.2z"/>
			<linearGradient id="SVGID_15_" gradientUnits="userSpaceOnUse" x1="444.6319" y1="361.0207" x2="501.7755" y2="361.0207">
				<stop  offset="0" style="stop-color:#370072"/>
				<stop  offset="1" style="stop-color:#4164E0"/>
			</linearGradient>
			<path class="st32" d="M451.2,301.9c0,0,34.4-12.8,50.1,1.9c3,21-7.9,59.3-8.2,76.3c-0.2,13.7-0.3,26.8-1.1,45.2l-11-0.3
				c0,0-3.6-18.2-5.5-43.7c-0.8-11.4-0.8-27.5,0.8-45.8l-3,0.1c0,0-7.6,27.8-9.5,42.8c-1.8,14.3-3.5,30.8-4.4,46.9l-12.5-0.5
				c0,0-2.2-31.1-2.1-47.1C444.8,356.4,448.8,315.5,451.2,301.9z"/>
			<g class="st0">
				<g>
					<path class="st33" d="M423.5,361l-94.6-25.4l46-86.6C415.3,270.5,435.3,317.2,423.5,361z"/>
				</g>
				<g>
					<polygon class="st34" points="328.9,335.6 322.7,333 368.7,246.4 374.8,249 					"/>
				</g>
			</g>
			<path class="st35" d="M389.2,294.9c0.2-0.4,2-1.7,4.3-2.8c1.8-0.9,4.9-2.1,5.9-2.7c0.3-0.2,0.4-0.3,0.3-0.4
				c-0.1-0.1-0.3-0.1-0.6-0.1c0,0-3.1,1.2-4.5,0.7c-1.4-0.5,2.7-2.2,2.7-2.2c1-0.6,2.1-1.1,2.7-1.1c1.4-0.1,5.3,2.4,5.3,2.4
				s18-6.6,21.4-9c3.5-2.4,6.7-20.2,6.7-20.2l9.7,4.9c0,0-6.5,20-9.4,23.1c-2.8,3-27.2,6.2-27.2,6.2c-2,3.6-5.7,4.3-7.3,4.7
				c0,0-5.7,0.6-5.7,0.6c-1.5,0.4-2.3-1-2.3-1c-1,0.2-1,0-1,0c-1.1-0.1-0.5-2-0.4-2.1C389.6,295.9,388.9,295.6,389.2,294.9z"/>
			<path class="st1" d="M440.8,280.8c-1.6-7.1-12.4-13.5-12.4-13.5c8.3-13.5,8.5-31.7,28.4-37.4c2.8-0.8,11.8-3.7,17.5,1.3
				c30.7,27.1,30.7,79.9,30.7,79.9c-23.4,4.1-56.5-3.9-56.5-3.9c1.1-6.9,6.6-21.8,0.7-40.6C447.7,274.7,440.8,280.8,440.8,280.8z"/>
			<path class="st35" d="M436.8,208.3c0,0,0.8,4.9,1.5,6.9c0.6,2.1-1.1,3.5-1,4.2c0.1,0.6,1.9,1.4,1.9,1.4s2,6.3,4.5,7.3
				c2.5,1,6.2-1.3,6.2-1.3l2.4,5.1c0,0,9.2,4.6,13.7-3.5l-2.6-9.2c0,0-0.8-13.5-8.6-17.8C446.9,197.1,436.8,208.3,436.8,208.3z"/>
			<path class="st9" d="M430.4,206.8c-2.3-2.6-2-5,1.3-6c6.6-1.9,7.5-8.8,18.4-9.1c2-0.1,4.1,0.3,6.1,0.9c-0.5-0.9-1.2-2-1.2-2
				c1.4,0.6,2.3,1.7,2.8,2.5c1.1-0.3,3.7-1,4.6-0.1c0,0-1.8,0.2-2.9,1c6.8,3.8,11.4,11.8,8,21.8c-2,5.9-9.6,5.6-13.5,3
				c0,0,3.9-1.6,2.8-4.3c-0.8-2.1-3.2-2.7-4.1-1c-1.4,2.6-1,2.7-1.9,3c0,0-1-4.1-3.1-6.8c0,0-10.2,3.4-14.7-0.3c0,0,2,0.2,2.6,0
				C435.3,209.5,432.7,209.5,430.4,206.8z"/>
			<path class="st29" d="M495.5,315.3c0,0-8.9,1.5-13.8,0v8.7l6.9,4l5.7-2.4C494.2,325.6,496.3,317.9,495.5,315.3z"/>
			<path class="st29" d="M468.6,314.8c0,0-8.9,0.8-13.8-0.7l-0.6,9.9l6.7,4.1l6.5-3.1C467.3,325.1,469.4,317.4,468.6,314.8z"/>
		</g>
		<g>
			<g>
				<g>
					<linearGradient id="SVGID_16_" gradientUnits="userSpaceOnUse" x1="9.2767" y1="340.532" x2="80.7431" y2="340.532">
						<stop  offset="0" style="stop-color:#42E4FF"/>
						<stop  offset="1" style="stop-color:#3E85FF"/>
					</linearGradient>
					<path class="st36" d="M73.5,347.3c0.2-3.8,3.2-5.5,6.4-6.3c-2.2-11.1-8.2-21-14.5-23.8c-2.5-1.1-5.7-2.3-9.3-3.6
						c-1.4,3.1-4.8,5.3-8.1,3.1c-2.1-1.3-2.4-3.9-1.7-6.3c-17.2-5.2-37-10.1-37-10.1s3.8,8.4,6.9,26.2c1.6,0.1,3.1,0.8,3.3,2.5
						c0.2,1.7-0.9,2.7-2.4,3.3c0.4,2.6,0.8,5.3,1.1,8.2c3.3-1.3,7.7,0.9,8.1,4.8c0.4,3.9-3.6,6-7,6.6c0,0.3,0,0.6,0.1,0.9
						c2.7,35.8,38,26.7,38,26.7c16-3.4,22.4-14.5,23.2-26.6C77.1,353.3,73.3,351.6,73.5,347.3z M57,322.2c-0.4,0.1-0.8,0.1-1.1,0
						c-0.1-0.1-0.2-0.1-0.3-0.2c-0.4-0.2-0.6-0.6-0.6-1.1c0-0.2,0.1-0.4,0.3-0.6c0.2-0.2,0.4-0.5,0.7-0.6c0.4-0.2,0.9,0,1.2,0.4
						c0,0,0,0,0,0c0,0,0,0,0,0.1c0,0,0.1,0.1,0.1,0.1c0.1,0.2,0.2,0.4,0.3,0.6C57.8,321.4,57.5,322.1,57,322.2z"/>
					<path class="st37" d="M62.1,365.4c0,0,0-0.1,0-0.1c0,0-0.1-0.1-0.1-0.1c-1.4-3-2.9-5.8-4.4-8.6c5.1-6.6,5-18.1,5-18.6
						c0-0.9-0.7-1.5-1.6-1.5c-0.9,0-1.5,0.7-1.5,1.6c0,0.1,0,9.6-3.6,15.5c-2.3-4-4.6-7.7-6.9-11.1c-0.4-0.6-0.8-1.2-1.2-1.8
						c2-8.6-2-17-2.2-17.4c-0.4-0.8-1.3-1.1-2.1-0.7c-0.8,0.4-1.1,1.3-0.7,2.1c0,0.1,2.8,5.9,2.4,12.3
						c-9.7-13.8-18.5-23.1-18.6-23.2c-0.6-0.6-1.6-0.6-2.2-0.1c-0.6,0.6-0.6,1.6-0.1,2.2c0.2,0.2,11.8,12.6,23.1,30
						c-5.5,0.3-12.9-4.1-15.6-6c-0.7-0.5-1.7-0.3-2.2,0.3c-0.5,0.7-0.3,1.7,0.3,2.2c0.5,0.3,11.2,8,19.3,6.4
						c3.2,5.1,6.4,10.6,9.2,16.3c-8.6,2.7-18.8-3.9-19-4c-0.7-0.5-1.7-0.3-2.1,0.4c-0.5,0.7-0.3,1.7,0.4,2.1
						c0.1,0.1,3.3,2.1,7.7,3.7c5.3,1.8,10.2,2,14.3,0.6c5.3,11.3,9.1,23.4,9.5,35c0,0.9,0.7,1.5,1.6,1.5c0.2,0,0.3,0,0.5-0.1
						c0.6-0.2,1-0.8,1-1.5C72,390.2,67.7,377.2,62.1,365.4z"/>
				</g>
				<g>
					<path class="st38" d="M79.4,380.3c0,0,34.1,8.2,35.6-19.9c1.7-32.6,1.3-45.5,5.3-53.9c0,0-41.1,5.9-50.8,23
						C55.9,353.5,66.1,379.3,79.4,380.3z"/>
					<path class="st37" d="M101.8,344.2c-0.5-0.5-1.3-0.4-1.8,0.1c-1.8,2-6.9,6.9-11.4,7.6c5.9-15.9,12.8-27.8,12.9-28.1
						c0.4-0.6,0.2-1.4-0.4-1.7c-0.6-0.4-1.4-0.2-1.7,0.4c-0.1,0.1-5.3,9.1-10.6,21.9c-1.5-5.1-0.4-10.2-0.3-10.2
						c0.2-0.7-0.3-1.4-0.9-1.5c-0.7-0.2-1.4,0.3-1.5,0.9c-0.1,0.3-1.7,7.8,1.4,14.3c-0.2,0.5-0.4,1.1-0.6,1.6
						c-1.2,3.1-2.3,6.5-3.4,10.1c-4-4.1-5.7-11.7-5.7-11.7c-0.1-0.7-0.8-1.1-1.5-1c-0.7,0.1-1.1,0.8-1,1.5c0.1,0.4,2.1,9.5,7.4,13.9
						c-0.7,2.5-1.4,5-1.9,7.6c0,0.1-0.1,0.1-0.1,0.2c0,0,0,0.1,0,0.1c-2.3,10.4-3.4,21.5-1.4,31.6c0.1,0.5,0.6,0.9,1.1,1
						c0.1,0,0.3,0,0.4,0c0.7-0.1,1.1-0.8,1-1.5c-1.8-9.3-1-19.6,1.2-29.6c3.5,0.4,7.4-0.7,11.3-3.1c3.2-2,5.4-4.2,5.5-4.3
						c0.5-0.5,0.5-1.3,0-1.8c-0.5-0.5-1.3-0.5-1.8,0c-0.1,0.1-7,7.2-14.4,6.7c1.2-5.1,2.7-10,4.3-14.6c6.7-0.2,13.9-8.2,14.2-8.6
						C102.4,345.5,102.3,344.7,101.8,344.2z"/>
				</g>
				<path class="st39" d="M93.9,445h-32c-2.6,0-4.9-2.2-5.3-5.3L50,394.9h55.8l-6.6,44.9C98.7,442.8,96.5,445,93.9,445z"/>
				<path class="st1" d="M105.5,402.8H50.3c-2.9,0-5.2-3.6-5.2-7.9l0,0c0-4.4,2.3-7.9,5.2-7.9h55.2c2.9,0,5.2,3.6,5.2,7.9l0,0
					C110.7,399.3,108.3,402.8,105.5,402.8z"/>
			</g>
		</g>
		<path class="st40" d="M430.1,151.1l-4.6-1.4c0.8-2.5,0.9-5,0.3-5.8c-0.1-0.1-0.2-0.4-1.1-0.3c-0.1,0-0.2,0-0.3,0
			c-5.6,0-8.5-4.9-9.3-7.6l4.6-1.3l-2.3,0.7l2.3-0.7c0.1,0.2,1.4,4.3,4.8,4.1c2.8-0.1,4.3,1.1,5.1,2.2
			C431.9,143.9,430.9,148.5,430.1,151.1z"/>
		<path class="st8" d="M455.9,117.7c-1.2,0-2.2-0.3-2.9-0.7l2.3-4.2l-0.1,0c0.1,0,1.7,0.7,4.2-1.7c1.8-1.7,3.6-2.6,5.4-2.4
			c2.8,0.2,4.5,2.3,5.7,3.8l0.1,0.1l-3.7,3.1l-0.1-0.1c-0.6-0.8-1.6-2-2.3-2c-0.1,0-0.7,0.1-1.8,1.1
			C460.3,117,457.8,117.7,455.9,117.7z"/>
		<path class="st1" d="M400.6,81.3c-6.8,0-11.3-6.2-11.5-6.5L393,72c0,0.1,3.8,5.2,8.6,4.4l0.7,4.8
			C401.8,81.3,401.2,81.3,400.6,81.3z"/>
		<path class="st40" d="M455.9,70.9l-4.2-2.3c1-1.8,0.3-4.4-0.1-5.3l4.4-1.9C456.1,61.6,458.2,66.6,455.9,70.9z"/>
		<path class="st40" d="M420.2,12.9c-1-5.5-0.5-9.4,1.4-11.8c1.5-1.9,3.3-2.1,3.7-2.1l0.3,4.8c0.1,0,0.2,0,0.2,0
			c-0.6,0.2-1.9,2.1-0.8,8.3L420.2,12.9z"/>
		<path class="st8" d="M483,35.5c-3-6.4,1-11.4,1.1-11.6l3.7,3c-0.1,0.1-2.2,2.9-0.5,6.5L483,35.5z"/>
		<path class="st1" d="M510.1,57.1c-0.3-0.5-3-4.7-1.3-8.5c1.1-2.3,3.4-3.8,7.1-4.2l0.6,4.8c-1.8,0.2-2.9,0.7-3.3,1.4
			c-0.5,1,0.4,3,0.9,3.8L510.1,57.1z"/>
	</g>
</g>
</svg>
