<?xml version="1.0" encoding="utf-8"?>
<!-- Generator: Adobe Illustrator 24.3.0, SVG Export Plug-In . SVG Version: 6.00 Build 0)  -->
<svg version="1.1" id="_x30_6" xmlns="http://www.w3.org/2000/svg" xmlns:xlink="http://www.w3.org/1999/xlink" x="0px" y="0px"
	 viewBox="0 0 614 303" style="enable-background:new 0 0 614 303;" xml:space="preserve">
<style type="text/css">
	.st0{fill:#CDE1FF;}
	.st1{fill:#DEEAFF;}
	.st2{fill:#3E4AD6;}
	.st3{fill:#FFFFFF;}
	.st4{fill:#B6D2FF;}
	.st5{clip-path:url(#SVGID_4_);}
	.st6{fill:#DD314B;}
	.st7{opacity:0.6;}
	.st8{fill:#F7778F;}
	.st9{fill:#F8F8F8;}
	.st10{opacity:0.4;}
	.st11{opacity:0.5;}
	.st12{fill:#FF9A2C;}
	.st13{fill:#FFBD66;}
	.st14{opacity:0.7;}
	.st15{fill:#D86C00;}
	.st16{fill:#4F3110;}
	.st17{fill:#D3C5B6;}
	.st18{fill:#A04512;}
	.st19{fill:#D16934;}
	.st20{fill:#FFAF8F;}
	.st21{fill:#7F330D;}
	.st22{fill:#E58E67;}
	.st23{fill:#E88949;}
	.st24{clip-path:url(#SVGID_8_);}
	.st25{fill:#2739BA;}
	.st26{fill:#7985E2;}
	.st27{opacity:0.9;}
	.st28{fill:#AA1834;}
	.st29{fill:#FAC9A8;}
	.st30{clip-path:url(#SVGID_10_);}
	.st31{fill:#FFB27D;}
	.st32{fill:#B21B39;}
	.st33{clip-path:url(#SVGID_12_);}
	.st34{clip-path:url(#SVGID_14_);}
	.st35{fill:#FFDCE3;}
	.st36{clip-path:url(#SVGID_16_);}
	.st37{fill:#C62242;}
	.st38{fill:#983E2A;}
	.st39{clip-path:url(#SVGID_18_);}
	.st40{fill:#7F2519;}
	.st41{fill:#E56B4A;}
	.st42{fill:#EF738B;}
	.st43{fill:#F4D9CE;}
	.st44{fill:#EFE7DF;}
	.st45{fill:#E5D9CF;}
	.st46{clip-path:url(#SVGID_20_);}
	.st47{clip-path:url(#SVGID_22_);}
</style>
<g>
	<ellipse class="st0" cx="208.7" cy="286.1" rx="63.4" ry="5.6"/>
</g>
<g>
	<g>
		<circle class="st1" cx="203.7" cy="134.6" r="106.5"/>
	</g>
	<g>
		<circle class="st0" cx="385.5" cy="150.7" r="131.3"/>
	</g>
</g>
<g>
	<g>
		<g>
			<g>
				<defs>
					<path id="SVGID_1_" d="M426.8,260.5c0,6.3-5.1,11.3-11.3,11.3l-102.9,0.1c-2.3,0-4.4-0.7-6.1-1.8c-3.1-2-5.2-5.5-5.2-9.5l0-26
						l-0.1-200.8c0-6.3,5.1-11.3,11.3-11.3l14.7,0l0,2.3c0,4.2,3.4,7.6,7.6,7.6l61-0.1c4.2,0,7.6-3.4,7.6-7.6l0-2.3l11.9,0
						c3.4,0,6.5,1.5,8.6,4c1.7,2,2.7,4.6,2.7,7.4l0.1,200.9L426.8,260.5z"/>
				</defs>
				<clipPath id="SVGID_2_">
					<use xlink:href="#SVGID_1_"  style="overflow:visible;"/>
				</clipPath>
			</g>
		</g>
		<g>
			<g>
				<path class="st2" d="M415.1,2.9L313.8,3c-15,0-27.1,12.2-27.1,27.1l0.1,84.8l0,22.5l0,5.2l0.1,119.9c0,15,12.2,27.1,27.1,27.1
					h2.8l98.5-0.1c15,0,27.1-12.2,27.1-27.1L442.2,30C442.2,15.1,430.1,2.9,415.1,2.9z"/>
			</g>
			<g>
				<path class="st3" d="M414.9,12.6l-101,0.1c-10.3,0-18.6,8.3-18.6,18.6l0.1,231.8c0,10.3,8.3,18.6,18.6,18.6l101-0.1
					c10.3,0,18.6-8.3,18.6-18.6l-0.1-231.8C433.6,20.9,425.2,12.6,414.9,12.6z"/>
			</g>
			<g>
				<g>
					<path class="st4" d="M426.7,33.7c0-2.8-1-5.4-2.7-7.4c-0.5-0.6-1-1.1-1.6-1.5c-1.9-1.5-4.4-2.4-7-2.4l-11.9,0l0,2.3
						c0,4.2-3.4,7.6-7.6,7.6l-61,0.1c-4.2,0-7.6-3.4-7.6-7.6l0-2.3l-14.7,0c-6.3,0-11.3,5.1-11.3,11.3l0.1,200.8l0,26
						c0,1.8,0.4,3.4,1.1,4.9c0.9,1.9,2.3,3.5,4.1,4.6c1.8,1.1,3.9,1.8,6.1,1.8l102.9-0.1c6.3,0,11.3-5.1,11.3-11.3l0-25.9
						L426.7,33.7z"/>
				</g>
				<g>
					<defs>
						<path id="SVGID_3_" d="M426.8,260.5c0,6.3-5.1,11.3-11.3,11.3l-102.9,0.1c-2.3,0-4.4-0.7-6.1-1.8c-3.1-2-5.2-5.5-5.2-9.5l0-26
							l-0.1-200.8c0-6.3,5.1-11.3,11.3-11.3l14.7,0l0,2.3c0,4.2,3.4,7.6,7.6,7.6l61-0.1c4.2,0,7.6-3.4,7.6-7.6l0-2.3l11.9,0
							c3.4,0,6.5,1.5,8.6,4c1.7,2,2.7,4.6,2.7,7.4l0.1,200.9L426.8,260.5z"/>
					</defs>
					<clipPath id="SVGID_4_">
						<use xlink:href="#SVGID_3_"  style="overflow:visible;"/>
					</clipPath>
					<g class="st5">
						<g>
							<path class="st3" d="M419.2,210l-0.3-54.5l35.4-0.2l0-5.6l-35.4,0.2l-0.3-57.9l35.4-0.2l0-5.6l-35.4,0.2l-0.2-37.7l35.4-0.2
								l0-5.6L418.3,43l-0.3-51l-5.5,0l0.1,23l-117.1,0.7l0,5.6l17-0.1l0.1,22.4l-17,0.1l0,5.6l17-0.1l0.2,37.7L296,87l0,5.6l17-0.1
								l0.2,29.5l-17,0.1l0,5.6l17-0.1l0.5,74.9l59.1-0.3l0.1,25.9l-76,0.5l0,5.6l39.2-0.2l0.1,23.1l-39.4,0.2l0,5.6l69.2-0.4
								l0.2,27l5.5,0l-0.2-32.6l-29.8,0.2l-0.1-23.1l72.2-0.4l0.3,55.8l5.5,0l-0.4-73.8l35.5-0.2l0-5.6L419.2,210z M413.1,86.3
								l-42.6,0.3c-1.3-8.9-8.2-16-17-17.2L353.4,49l59.5-0.4L413.1,86.3z M365.2,89.4c0,8.1-6.3,14.7-14.3,14.7
								c-7.9,0-14.4-6.5-14.4-14.6c0-8.1,6.3-14.7,14.3-14.7C358.7,74.8,365.1,81.3,365.2,89.4z M412.7,20.6l0.1,22.4l-50.2,0.3
								l-0.1-22.4L412.7,20.6z M318.1,21.2l38.9-0.2l0.1,22.4l-38.9,0.2L318.1,21.2z M318.3,49.2l29.6-0.2l0.1,20.5
								c-8.7,1.3-15.6,8.4-16.8,17.4l-12.7,0.1L318.3,49.2z M318.5,92.5l12.7-0.1c1.3,8.9,8.2,16,17,17.2l0.1,12.3l-29.6,0.2
								L318.5,92.5z M319.2,197l-0.4-69.3l53.7-0.3l0.3,69.3L319.2,197z M353.8,121.8l-0.1-12.3c8.7-1.3,15.6-8.4,16.8-17.4
								l42.6-0.3l0.2,29.5L353.8,121.8z M378.5,228.2L378,127.3l35.3-0.2l0.6,100.9L378.5,228.2z"/>
						</g>
					</g>
				</g>
			</g>
			<g>
				<path class="st4" d="M390.7,21.8h-52.4c-1.5,0-2.7,1.2-2.7,2.7c0,1.5,1.2,2.7,2.7,2.7h52.4c1.5,0,2.7-1.2,2.7-2.7
					C393.4,23,392.2,21.8,390.7,21.8z"/>
			</g>
		</g>
		<g>
			<g>
				<defs>
					<path id="SVGID_5_" d="M426.8,260.5c0,6.3-5.1,11.3-11.3,11.3l-102.9,0.1c-2.3,0-4.4-0.7-6.1-1.8c-3.1-2-5.2-5.5-5.2-9.5l0-26
						l-0.1-200.8c0-6.3,5.1-11.3,11.3-11.3l14.7,0l0,2.3c0,4.2,3.4,7.6,7.6,7.6l61-0.1c4.2,0,7.6-3.4,7.6-7.6l0-2.3l11.9,0
						c3.4,0,6.5,1.5,8.6,4c1.7,2,2.7,4.6,2.7,7.4l0.1,200.9L426.8,260.5z"/>
				</defs>
				<clipPath id="SVGID_6_">
					<use xlink:href="#SVGID_5_"  style="overflow:visible;"/>
				</clipPath>
			</g>
		</g>
	</g>
	<g>
		<g>
			<path class="st6" d="M385.2,44.2c-3.4,0.2-6.1,3.1-6.2,6.6c0,1.8,0.6,3.4,1.6,4.6c1.3,1.5,2.6,3.1,3.7,4.9l1.2,1.9l0.9-1.4
				c1.2-1.9,2.5-3.7,3.9-5.3c1.1-1.2,1.8-2.8,1.8-4.6C392.2,47.1,389,44,385.2,44.2z M385.6,54.2c-1.8,0-3.3-1.5-3.3-3.4
				c0-1.9,1.5-3.4,3.3-3.4c1.8,0,3.3,1.5,3.3,3.4C389,52.7,387.5,54.2,385.6,54.2z"/>
			<path class="st3" d="M390.3,45.7c-1.4-1.3-3.2-2-5.1-1.9l0,0.4l0-0.4c-3.6,0.2-6.4,3.3-6.5,7c0,1.8,0.6,3.5,1.7,4.9
				c1.6,1.9,2.7,3.3,3.7,4.8l1.6,2.4l1.2-1.9c1.4-2.2,2.6-3.8,3.9-5.2c1.2-1.3,1.9-3.1,1.9-4.9C392.6,49,391.8,47,390.3,45.7z
				 M390.2,55.3c-1.3,1.4-2.6,3.1-4,5.3l-0.6,0.9l-0.9-1.4c-1-1.5-2.1-3-3.7-4.9c-1-1.2-1.6-2.8-1.6-4.4c0.1-3.3,2.6-6.1,5.8-6.3
				c0.1,0,0.3,0,0.4,0c1.6,0,3,0.6,4.2,1.7c1.3,1.2,2,2.9,2,4.7C391.8,52.6,391.2,54.1,390.2,55.3z"/>
			<path class="st3" d="M385.6,46.9c-2.1,0-3.7,1.7-3.7,3.8s1.7,3.8,3.7,3.8c2.1,0,3.7-1.7,3.7-3.8S387.7,46.9,385.6,46.9z
				 M385.6,53.8c-1.6,0-3-1.4-3-3.1s1.3-3.1,3-3.1c1.6,0,3,1.4,3,3.1S387.3,53.8,385.6,53.8z"/>
		</g>
		<g>
			<g>
				<g class="st7">
					<g>
						<path class="st3" d="M386.1,65.3c-2.5-0.1-4.5,1.8-4.6,4.3c-0.1,2.5,1.8,4.5,4.3,4.6c2.5,0.1,4.5-1.8,4.6-4.3
							C390.5,67.4,388.6,65.4,386.1,65.3z"/>
					</g>
				</g>
				<g>
					<g>
						<path class="st6" d="M385.9,66.7c-1.6,0-3,1.3-3,3c0,1.6,1.3,3,3,3c1.6,0,3-1.3,3-3C388.9,68.1,387.6,66.7,385.9,66.7z"/>
					</g>
				</g>
				<g>
					<g>
						<path class="st6" d="M319,245.8c-1.1,0-1.9,0.9-1.9,1.9c0,1.1,0.9,1.9,1.9,1.9s1.9-0.9,1.9-1.9
							C320.9,246.7,320.1,245.8,319,245.8z"/>
					</g>
				</g>
				<g>
					<g>
						<path class="st6" d="M406.6,89.2l-19.5,1.4V69.3h-2.3V91c0,0.6,0.2,1.1,0.6,1.5c0.4,0.4,1,0.6,1.5,0.5l19.5-1.4l-6.2,120
							c0,0.4-0.2,0.7-0.6,0.9l-45.6,23c-0.4,0.2-0.8,0.3-1.3,0.3l-32.4-1.6c-0.5,0-1.1,0.2-1.5,0.5c-0.4,0.4-0.6,0.9-0.7,1.4
							l-0.5,10.9l2.3,0.1l0.5-10.7l32.1,1.6c0.8,0,1.7-0.1,2.4-0.5l45.6-23c1.1-0.5,1.7-1.6,1.8-2.8l6.2-120.3
							c0-0.6-0.2-1.1-0.6-1.5C407.8,89.4,407.2,89.2,406.6,89.2z"/>
					</g>
				</g>
			</g>
			<g>
				<g>
					<circle class="st8" cx="405" cy="143.6" r="5.8"/>
				</g>
			</g>
			<g>
				<g>
					<path class="st9" d="M405,139.6c-2.2,0-4,1.8-4,4c0,2.2,1.8,4,4,4s4-1.8,4-4C409.1,141.4,407.3,139.6,405,139.6z"/>
				</g>
				<g>
					<path class="st6" d="M405,139.3c-2.4,0-4.3,1.9-4.3,4.3c0,2.4,1.9,4.3,4.3,4.3c2.4,0,4.3-1.9,4.3-4.3
						C409.3,141.2,407.4,139.3,405,139.3z M405,147.3c-2.1,0-3.7-1.7-3.7-3.7c0-2.1,1.7-3.7,3.7-3.7c2.1,0,3.7,1.7,3.7,3.7
						C408.8,145.7,407.1,147.3,405,147.3z"/>
				</g>
			</g>
		</g>
	</g>
	<g class="st10">
		<path class="st3" d="M426.7,33.7c0-2.8-1-5.4-2.7-7.4c-0.5-0.6-1-1.1-1.6-1.5L302.4,265.5c0.9,1.9,2.3,3.5,4.1,4.6
			c1.8,1.1,3.9,1.8,6.1,1.8l102.9-0.1c6.3,0,11.3-5.1,11.3-11.3l0-25.9L426.7,33.7z"/>
	</g>
	<g class="st11">
		<path class="st2" d="M316.4,134.1c-0.5-0.3-1.4-0.8-1.9-0.9c-3.3-0.6-6.3-0.9-9.6-1.5c-0.2,0-0.3-0.1-0.4-0.2
			c0.6-0.2,1.2-0.7,1.6-1.5c1.8,0.2,3.5,0.4,5.3,0.6c0.7,0.1,1.3,0.2,2,0c0.7-0.1,1.3-0.5,1.6-1.1c0.4-0.9-0.2-2-1.1-2.5
			c-0.9-0.5-1.9-0.6-2.9-0.6l-4.7-0.3c-0.5-1.3-1.4-2.1-2.5-2.1c-0.2,0-0.4,0-0.6,0.1l-1.4-8.7c-0.2-1-0.1-2,0.2-3l1.1-3.2
			c0.1,0,0.1,0,0.2,0c4.6,0,8.3-3.7,8.3-8.3c0-3.7-2.4-6.8-5.8-7.9c-0.8-0.3-1.7-0.4-2.6-0.4c-0.8,0-1.5,0.1-2.2,0.3
			c-2.8,0.7-4.9,2.9-5.8,5.6c-0.2,0.8-0.4,1.6-0.4,2.4c0,0.8,0.1,1.7,0.4,2.4c0.6,1.9,1.8,3.5,3.5,4.6c0.7,0.4,1.5,0.8,2.3,1
			c0.2,0.1,0.3,0.1,0.5,0.1l-0.5,1.5l-0.5,1.4c-0.4,1.2-0.5,2.5-0.3,3.7l0.8,4.8l0.6,3.5c-0.3,0-0.5,0.2-0.5,0.4h-0.1
			c-2.1-0.1-4-0.6-5.8-1.6c-1.1-0.6-2.2-1.5-3.3-2.5c-1.8-1.8-3.3-4-5.4-5.4l0,22.5c2.5-1.5,4.7-3.5,7.2-5.1c0.5-0.3,1-0.6,1.5-0.8
			c1.8-0.9,3.5-1.3,5.4-1.1c0,0,0,0,0,0.1c-0.2,0.3-0.1,0.7,0.2,0.9c0.1,0,0.1,0.1,0.2,0.1c0.8,0.5,1.4,1.7,2.3,2
			c0.5,0.2,1,0,1.6,0.1c4.1,0.2,7.4-0.1,10.8,1.4c-0.2,0.1-0.3,0.8-0.2,1c0.4,0.4,1.2,0.1,1.4-0.4
			C317.2,135.1,316.9,134.5,316.4,134.1z"/>
	</g>
	<g class="st10">
		<path class="st2" d="M319,234.8c1.6-6,1.8-12.4,1.1-18.6c-1-8.7-3.6-17.1-6.2-25.5c-2.8-9.1-5.6-18.2-8.5-27.3
			c-1.1-3.7-2.3-7.4-4.2-10.7c-0.9-1.5-1.9-2.9-3.2-4.2c-0.8-0.8-1.7-1.5-2.6-2.2c-2.6-1.8-5.6-2.9-8.7-3.7l0.1,119.9
			c0,15,12.2,27.1,27.1,27.1h2.8c1-2.3,1.9-5,2.5-7.9c0.6-3,1.1-6.3,1.2-9.8c0.2-3.2,0.1-6.6-0.2-10.1c1.9-0.6,3.7-1.2,5.4-1.8
			C324.5,251.7,322.3,242.9,319,234.8z"/>
	</g>
</g>
<g>
	<g>
		<g>
			<g>
				<g>
					
						<rect x="136.7" y="113.7" transform="matrix(0.9991 -4.339325e-02 4.339325e-02 0.9991 -6.1544 8.029)" class="st12" width="90.3" height="64.1"/>
				</g>
				<g>
					
						<rect x="136.8" y="115" transform="matrix(0.9991 -4.339299e-02 4.339299e-02 0.9991 -6.2385 6.74)" class="st13" width="30.7" height="64.1"/>
				</g>
				<g>
					<g>
						<path class="st3" d="M151.9,146.9l-6,14.1c-2,4.7-3.9,9.4-5.9,14.2c2.1-4.7,4.1-9.3,6.2-14l6.1-14.1l6-14.1
							c2-4.7,3.9-9.4,5.9-14.2c-2.1,4.7-4.1,9.3-6.2,14L151.9,146.9z"/>
					</g>
					<g>
						<path class="st3" d="M152.3,146.9l-7.3-13.5c-2.4-4.5-4.9-9-7.4-13.4c2.3,4.6,4.7,9.1,7.1,13.6l7.2,13.5l7.3,13.5
							c2.4,4.5,4.9,9,7.4,13.4c-2.3-4.6-4.7-9.1-7.1-13.6L152.3,146.9z"/>
					</g>
				</g>
				<g class="st14">
					<polygon class="st3" points="146,115.3 146.7,131.7 147.4,131.6 147.9,131 148.3,131.6 148.6,131.2 148.7,131.6 149.1,131.6 
						149.3,131.5 150.3,131.5 150.7,131 151,131.5 151.9,131.4 152.4,131.4 153,131.4 153.8,130 154.9,131.3 156.1,131.2 
						155.3,114.9 					"/>
				</g>
				<g>
					<g>
						<g>
							
								<rect x="210.3" y="163.2" transform="matrix(0.9991 -4.339535e-02 4.339535e-02 0.9991 -7.0833 9.297)" class="st3" width="0.7" height="9.2"/>
						</g>
						<g>
							
								<rect x="211.8" y="163.1" transform="matrix(0.9991 -4.338876e-02 4.338876e-02 0.9991 -7.0779 9.3635)" class="st3" width="0.7" height="9.2"/>
						</g>
						<g>
							
								<rect x="213.4" y="163.1" transform="matrix(0.9991 -4.339535e-02 4.339535e-02 0.9991 -7.0745 9.4329)" class="st3" width="0.7" height="9.2"/>
						</g>
						<g>
							
								<rect x="215" y="163" transform="matrix(0.9991 -4.338884e-02 4.338884e-02 0.9991 -7.069 9.4994)" class="st3" width="0.7" height="9.2"/>
						</g>
						<g>
							
								<rect x="216.5" y="162.9" transform="matrix(0.9991 -4.339542e-02 4.339542e-02 0.9991 -7.0656 9.5688)" class="st3" width="0.7" height="9.2"/>
						</g>
						<g>
							
								<rect x="218.1" y="162.8" transform="matrix(0.9991 -4.338884e-02 4.338884e-02 0.9991 -7.0602 9.6353)" class="st3" width="0.7" height="9.2"/>
						</g>
						<g>
							
								<rect x="219.7" y="162.8" transform="matrix(0.9991 -4.339535e-02 4.339535e-02 0.9991 -7.0568 9.7047)" class="st3" width="0.7" height="9.2"/>
						</g>
						<g>
							
								<rect x="221.2" y="162.7" transform="matrix(0.9991 -4.339535e-02 4.339535e-02 0.9991 -7.0523 9.7727)" class="st3" width="0.7" height="9.2"/>
						</g>
						<g>
							
								<rect x="222.8" y="162.6" transform="matrix(0.9991 -4.339542e-02 4.339542e-02 0.9991 -7.0479 9.8406)" class="st3" width="0.7" height="9.2"/>
						</g>
					</g>
					<g>
						<path class="st3" d="M203.9,168.6c1.8-0.3,2.4-2.1,2.3-5.2l-5.9,0.3c0.1,3.1,0.9,4.8,2.7,5l0.1,3.4l-2.5,0.8l5.9-0.3L204,172
							L203.9,168.6z"/>
					</g>
					<g>
						<polygon class="st3" points="195.4,163.8 192.1,168.7 193.6,168.6 193.8,173.1 197.8,173 197.6,168.5 199.1,168.4 						"/>
					</g>
				</g>
			</g>
			<g>
				<g>
					
						<rect x="145.6" y="69.8" transform="matrix(0.9991 -4.339300e-02 4.339300e-02 0.9991 -3.8185 7.7552)" class="st12" width="62.2" height="44.1"/>
				</g>
				<g>
					
						<rect x="186.6" y="68.9" transform="matrix(0.9991 -4.339362e-02 4.339362e-02 0.9991 -3.7607 8.6431)" class="st13" width="21.2" height="44.1"/>
				</g>
				<g class="st14">
					<polygon class="st3" points="193.1,69 193.6,80.3 194.4,80.3 195,79.3 195.7,80.2 196.1,80.2 196.5,80.2 197,80.2 197.2,79.8 
						197.5,80.2 198.2,80.1 198.4,80.1 198.6,80.1 198.7,79.9 198.9,80.1 199.2,79.7 199.5,80.1 200,80 199.5,68.8 					"/>
				</g>
				<g>
					<g>
						<g>
							
								<rect x="158.1" y="105.5" transform="matrix(0.9991 -4.339264e-02 4.339264e-02 0.9991 -4.5661 6.9725)" class="st3" width="0.5" height="6.4"/>
						</g>
						<g>
							
								<rect x="157" y="105.5" transform="matrix(0.9991 -4.339274e-02 4.339274e-02 0.9991 -4.5691 6.9257)" class="st3" width="0.5" height="6.4"/>
						</g>
						<g>
							
								<rect x="155.9" y="105.6" transform="matrix(0.9991 -4.339264e-02 4.339264e-02 0.9991 -4.5722 6.8789)" class="st3" width="0.5" height="6.4"/>
						</g>
						<g>
							
								<rect x="154.9" y="105.6" transform="matrix(0.9991 -4.339254e-02 4.339254e-02 0.9991 -4.5752 6.832)" class="st3" width="0.5" height="6.4"/>
						</g>
						<g>
							
								<rect x="153.8" y="105.7" transform="matrix(0.9991 -4.339264e-02 4.339264e-02 0.9991 -4.5783 6.7853)" class="st3" width="0.5" height="6.4"/>
						</g>
						<g>
							
								<rect x="152.7" y="105.7" transform="matrix(0.9991 -4.339264e-02 4.339264e-02 0.9991 -4.5813 6.7385)" class="st3" width="0.5" height="6.4"/>
						</g>
						<g>
							
								<rect x="151.6" y="105.8" transform="matrix(0.9991 -4.339254e-02 4.339254e-02 0.9991 -4.5844 6.6916)" class="st3" width="0.5" height="6.4"/>
						</g>
						<g>
							
								<rect x="150.5" y="105.8" transform="matrix(0.9991 -4.339264e-02 4.339264e-02 0.9991 -4.5874 6.6449)" class="st3" width="0.5" height="6.4"/>
						</g>
						<g>
							
								<rect x="149.5" y="105.9" transform="matrix(0.9991 -4.339264e-02 4.339264e-02 0.9991 -4.5905 6.5981)" class="st3" width="0.5" height="6.4"/>
						</g>
					</g>
					<g>
						<path class="st3" d="M163.6,108.8c1.2-0.2,1.7-1.5,1.6-3.6l-4.1,0.2c0.1,2.1,0.6,3.3,1.9,3.4l0.1,2.3l-1.7,0.6l4.1-0.2
							l-1.8-0.4L163.6,108.8z"/>
					</g>
					<g>
						<polygon class="st3" points="166.2,108.4 167.3,108.3 167.4,111.4 170.2,111.3 170,108.2 171.1,108.2 168.5,105 						"/>
					</g>
				</g>
				<g class="st7">
					<polygon class="st15" points="146.5,112.2 146.6,115.2 187.6,113.5 187.2,104.8 					"/>
				</g>
			</g>
		</g>
	</g>
	<g>
		<g>
			<g>
				<g>
					<path class="st16" d="M192,210.1c-1.3,0-6.3,0-7.6,0c-9.7,0-17.6,16.3-17.6,36.4c0,20.1,7.9,36.4,17.6,36.4c1.3,0,6.3,0,7.6,0
						c9.7,0,17.6-16.3,17.6-36.4C209.5,226.4,201.7,210.1,192,210.1z"/>
				</g>
			</g>
			<g>
				<g>
					<ellipse class="st3" cx="180.7" cy="246.5" rx="8.2" ry="25.6"/>
				</g>
			</g>
			<g>
				<g>
					<ellipse class="st17" cx="178.9" cy="241.4" rx="6.9" ry="21.5"/>
				</g>
			</g>
		</g>
		<g>
			<g>
				<g>
					<path class="st18" d="M241.9,177.4c-7.2-9.1-18-15.3-29.5-16.9c-11.5-1.6-23.6,1.3-33.1,8.1c-3.4,2.4-6.6,5.4-8.2,9.3
						c-2.4,5.6-1.4,12.1-0.2,18.1c3,15.9,6,31.9,9,47.8c0.3,1.9,0.7,3.8,1.8,5.3c1.5,2,3.9,2.9,6.3,3.6c17.7,5.1,36.6,1.4,54.6-2.3
						c3.6-0.7,7.7-1.7,9.7-4.8c1.1-1.7,1.5-3.8,1.8-5.8c1.4-10.2,1.4-20.5,0-30.7C252.6,197.7,249,186.4,241.9,177.4z"/>
				</g>
			</g>
			<g>
				<g>
					<path class="st19" d="M189.4,236.6c-0.1-6.2-0.7-12.4-1.7-18.5c-1.2-7.2-2.8-14.7-5.5-21.6c-0.1-0.1-0.1-0.3-0.2-0.4
						c-2.6-6.5-6.4-14.6-13.6-16.6c-0.3-0.1-0.6-0.1-0.8-0.2c-0.5,0-1,0-1.5,0c-4.7,0.4-9.2,3.1-12.2,6.8c-4,4.9-5.9,11.1-7.4,17.2
						c-3.9,16.4-3.1,34.1,2.5,50c13.6,1.5,24.9,2.2,39.5,1.6c0.7,0,0.9-8.7,1-14.2c0-0.1,0-0.2,0-0.4c0-0.2,0-0.4,0-0.5
						c0-1.1,0-2.1,0-2.6C189.4,237,189.4,236.8,189.4,236.6z"/>
				</g>
			</g>
			<g>
				<g>
					<path class="st20" d="M189.9,218.4c-1.2-7.2-2.8-14.7-5.5-21.6c-0.1-0.1-0.1-0.3-0.2-0.4c-2.6-6.5-6.4-14.6-13.6-16.6
						c-1-0.3-2-0.4-3-0.4c-0.5,0-1,0-1.5,0c-4.7,0.4-9.2,3.1-12.2,6.8c-4,4.9-5.9,11.1-7.4,17.2c-3.9,16.4-3.1,34.1,2.5,50v0
						c11,1.2,20.4,2,30.9,2.1h0c3.4,0,7,0,10.8-0.2c0.9,0,1-16.7,1-18.3C191.5,230.7,190.9,224.5,189.9,218.4z"/>
				</g>
			</g>
			<g>
				<g>
					<path class="st19" d="M189.4,236.9c-0.1-6.2-0.7-12.4-1.7-18.5c-1.2-7.2-2.8-14.7-5.5-21.6c-0.1-0.1-0.1-0.3-0.2-0.4
						c-2.6-6.5-6.4-14.6-13.6-16.6c-0.8-0.2-1.5-0.3-2.3-0.4c-4.7,0.4-9.2,3.1-12.2,6.8c-4,4.9-5.9,11.1-7.4,17.2
						c-3.9,16.4-3.1,34.1,2.5,50v0c11,1.2,20.4,2,30.9,2.1h0c2.7,0,5.6-0.1,8.6-0.2c0.7,0,0.9-9,1-14.4c0-0.1,0-0.2,0-0.4
						c0-0.2,0-0.4,0-0.5c0-1.1,0-2.1,0-2.6C189.4,237.1,189.4,237,189.4,236.9z"/>
				</g>
			</g>
			<g>
				<g>
					<path class="st21" d="M245.7,256.5c-16.8,4.9-30.6-3.3-48-5.2c-6.1-0.7-12.9-1.7-16.9-6.3c-0.8,2.5,0.3,5.4,2.2,7.3
						c1.9,1.9,4.4,3,6.9,3.9c18.1,6.6,38.1,5.2,57.1,2.2C247.9,255.7,244.8,259.3,245.7,256.5z"/>
				</g>
			</g>
		</g>
		<g>
			
				<ellipse transform="matrix(0.9926 -0.1211 0.1211 0.9926 -25.7004 22.666)" class="st22" cx="173.6" cy="222.8" rx="6.8" ry="23.7"/>
		</g>
	</g>
	<g>
		<g>
			<g>
				<g>
					<g>
						<polygon class="st23" points="178.8,283.1 196.2,281.3 201.3,243.8 181.8,242.3 						"/>
					</g>
				</g>
			</g>
			<g>
				<g>
					<g>
						<g>
							<g>
								<path class="st13" d="M204.8,287.7c-1.8-0.3-4-2.1-5.5-3.8c0-0.2-0.5-9.2-1.9-9.7c-0.7-0.3-1.4,0.6-1.8,1.6
									c-1-2.3-3.3-2.8-5.6-2.7c-5.9,0.4-9.3,7.5-9.3,7.5s-2.2-9-3.9-4.5c-0.4,1.2-0.8,3.3-1.2,5.8c0,0.1,0,0.3-0.1,0.4
									c-0.6,4.4-1.1,9.7-1.4,13.3c-0.2,2.4-0.3,3.9-0.3,3.9h36.5c0.5-1.4,0.7-2.7,0.7-3.9C210.9,291.1,208.1,288.2,204.8,287.7z"
									/>
							</g>
						</g>
					</g>
					<g>
						<g>
							<g>
								<g>
									<path class="st3" d="M175.5,282.4c2.9,3.5,2.6,8.1,2.1,12.3c-0.1,0.6,0.8,0.6,0.9,0c0.5-4.5,0.7-9.3-2.4-12.9
										C175.8,281.3,175.1,282,175.5,282.4z"/>
								</g>
							</g>
						</g>
					</g>
				</g>
				<g>
					<path class="st3" d="M173.8,299.5h36.5c0.5-1.4,0.7-2.7,0.7-3.9h-36.8C173.9,297.9,173.8,299.5,173.8,299.5z"/>
				</g>
			</g>
		</g>
		<g>
			<path class="st2" d="M225.3,137.8l-56-1.1c0,0-0.6,1.6-1.1,4.1c-1.3,6-2.6,17.5,3.9,25.6c6.3,7.9,11,16.2,13.4,20.7
				c1.1,2.1,1.7,4.5,1.5,6.9l-11.6,73.5l24.2,1.5l18.9-73.2c0.2-1.6,0.1-3.3-0.3-4.9l-6.7-26.6l23.5,31.8l27.5-33.5l-35.2-23.5
				L225.3,137.8z"/>
		</g>
		<g>
			<defs>
				<path id="SVGID_7_" d="M169.3,136.6c0,0-6.4,18.2,2.8,29.7c6.3,7.9,11,16.2,13.4,20.7c1.1,2.1,1.7,4.5,1.5,6.9l-11.6,73.5
					l24.2,1.5l18.9-73.2c0.2-1.6,0.1-3.3-0.3-4.9l-6.7-26.6l23.5,31.8l27.5-33.5l-37.3-24.8L169.3,136.6z"/>
			</defs>
			<clipPath id="SVGID_8_">
				<use xlink:href="#SVGID_7_"  style="overflow:visible;"/>
			</clipPath>
			<g class="st24">
				<g>
					<polygon class="st25" points="166.6,271 206.3,276.1 208,261.8 168.2,258.1 					"/>
				</g>
				<g>
					<path class="st25" d="M250.7,180.8c-10.6-6.6-43.5-25.5-43.5-25.5l9.8,25.3l18.2,30.4C235.3,211,261.3,187.4,250.7,180.8z"/>
				</g>
			</g>
		</g>
		<g>
			<path class="st26" d="M178.6,136.7c0.2,5.3-1.7,9.6-5.6,12.6c-2.9,2.3-5.9,3-5.9,3l0.1,0.5c0.1,0,3.1-0.7,6.1-3.1
				c2.8-2.2,6-6.2,5.8-13L178.6,136.7z"/>
		</g>
		<g>
			<path class="st26" d="M173.2,149.4l-0.4,0.2c0.2,0.4,21.6,38.1,22.1,42.5c0.5,4.4-10.9,66.9-11.1,67.6l0.5,0.1
				c0.5-2.6,11.6-63.2,11.1-67.7C194.9,187.6,174.1,151,173.2,149.4z"/>
		</g>
		<g>
			
				<rect x="189.5" y="251.1" transform="matrix(6.347150e-02 -0.998 0.998 6.347150e-02 -82.1379 433.2108)" class="st26" width="0.5" height="18.5"/>
		</g>
		<g>
			<g>
				
					<rect x="188.9" y="189.1" transform="matrix(0.9674 -0.2534 0.2534 0.9674 -41.6549 55.3982)" class="st25" width="10.7" height="0.5"/>
			</g>
			<g>
				
					<rect x="194.9" y="189.1" transform="matrix(6.507798e-02 -0.9979 0.9979 6.507798e-02 -11.8926 376.865)" class="st25" width="0.5" height="11.3"/>
			</g>
		</g>
		<g class="st27">
			<path class="st25" d="M169.3,136.6c0,0-1.1,3.9-1.7,6.4c6.5,2.8,17.1,4,27.7,3.7c12.2-0.3,25-4.8,32-7.6l-2-1.3L169.3,136.6z"/>
		</g>
		<g>
			<path class="st28" d="M212,41.5c0,0-3.3,19.3,2.9,19.2c6.1-0.2,5.4-17.5,5.4-17.5L212,41.5z"/>
		</g>
		<g>
			<path class="st29" d="M272.4,76.6L258,81.3c0,0-13,11.8-13.6,11.3c-2.4-2.4-18.8-18.8-18.8-18.8L212,88.1c0,0,16.3,24,30.6,25.1
				C253.3,114.1,275.3,78.4,272.4,76.6z"/>
		</g>
		<g>
			<defs>
				<path id="SVGID_9_" d="M225.6,73.8c0,0,16.4,16.4,18.8,18.8C245,93.1,258,81.3,258,81.3l14.4-4.7c2.9,1.8-19.1,37.4-29.8,36.6
					c-14.3-1.1-30.6-25.1-30.6-25.1L225.6,73.8z"/>
			</defs>
			<clipPath id="SVGID_10_">
				<use xlink:href="#SVGID_9_"  style="overflow:visible;"/>
			</clipPath>
			<g class="st30">
				<g>
					<polygon class="st31" points="222.2,107.8 230.7,114.7 243.2,87.9 243.4,87.3 238.4,80.4 					"/>
				</g>
				<g>
					<path class="st23" d="M264.8,83.9c-1-0.2-2.1-0.4-3.1-0.7c-2.9-0.8-5.7-1.6-8.6-2.4l-0.8,2.7c1.7-0.1,3,1.5,4,2.9
						c2,2.6,4.5,5.2,7.7,5.9c2,0.5,4.3,0.2,5.8-1.3c1.5-1.4,1.8-4.1,0.3-5.5C268.8,84.1,266.7,84.2,264.8,83.9z"/>
				</g>
			</g>
		</g>
		<g>
			<g>
				<g>
					<g>
						<path class="st32" d="M272.8,66.8l-11.5-1c-0.7-0.1-1.5,0.6-1.8,1.4l-5.7,19.1c-0.3,0.9,0.1,1.6,0.9,1.7l11.5,1
							c0.7,0.1,1.5-0.6,1.8-1.4l5.7-19.1C273.9,67.6,273.5,66.8,272.8,66.8z"/>
					</g>
				</g>
				<g>
					<g>
						<path class="st6" d="M274,66.9l-11.5-1c-0.7-0.1-1.5,0.6-1.8,1.4L255,86.4c-0.3,0.9,0.1,1.6,0.9,1.7l11.5,1
							c0.7,0.1,1.5-0.6,1.8-1.4l5.7-19.1C275.1,67.7,274.7,66.9,274,66.9z"/>
					</g>
				</g>
				<g>
					<g>
						<path class="st3" d="M267,71.5c-1-0.1-2.1,0.8-2.5,2c-0.2,0.7-0.1,1.3,0.2,1.8c0.2,0.4,0.6,0.6,1.1,0.6c0,0,0.1,0,0.1,0
							c1,0,2-0.9,2.3-2v0c0.2-0.7,0.1-1.3-0.2-1.8C267.8,71.8,267.4,71.6,267,71.5z M267.7,73.8L267.7,73.8c-0.3,1-1.2,1.7-1.9,1.7
							c-0.3,0-0.5-0.2-0.7-0.4c-0.2-0.4-0.3-0.9-0.1-1.4c0.3-0.9,1.1-1.7,1.8-1.7c0,0,0.1,0,0.1,0c0.3,0,0.5,0.2,0.7,0.4
							C267.9,72.8,267.9,73.3,267.7,73.8z"/>
					</g>
				</g>
			</g>
			<g>
				<g>
					<path class="st29" d="M270.8,75.3c-1.3-0.8-3.7,2-5.9,2.5c0,0-1.1,0.7,0.1,1.5c1.2,0.8,3.8-0.4,4.3-0.4c0.6,0-0.1,1.9-0.1,1.9
						s-6.7-0.3-7.7,1s5.6,2.7,5.6,2.7s-3.9-0.1-4.9,0.8c-1,0.9,3.9,2.4,3.9,2.4s-2.6,0-2.7,1.5c-0.1,1.4,0.9,2,2.4,2.3
						c1.5,0.3,2.9-0.2,3.5-0.8c0.6-0.6,0.1-2.1,0.1-2.1s2.5-1.3,2.6-2.2c0.1-1-0.6-1.6-0.6-1.6s1.2-0.2,1.6-1.3
						c0.4-1.1-0.1-1.8-0.1-1.8s1-2.1,1.3-3.4C274.4,77.1,272.2,76.1,270.8,75.3z"/>
				</g>
				<g>
					<defs>
						<path id="SVGID_11_" d="M269.2,80.8c0,0-6.7-0.3-7.7,1c-1,1.4,5.6,2.7,5.6,2.7s-3.9-0.1-4.9,0.8c-1,0.9,3.9,2.4,3.9,2.4
							s-2.6,0-2.7,1.5c-0.1,1.4,0.9,2,2.4,2.3c1.5,0.3,2.9-0.2,3.5-0.8c0.6-0.6,0.1-2.1,0.1-2.1s2.5-1.3,2.6-2.2
							c0.1-1-0.6-1.6-0.6-1.6s1.2-0.2,1.6-1.3c0.4-1.1-0.1-1.8-0.1-1.8s1-2.1,1.3-3.4c0.3-1.2-1.9-2.2-3.2-3c-1.3-0.8-3.7,2-5.9,2.5
							c0,0-1.1,0.7,0.1,1.5c1.2,0.8,3.8-0.4,4.3-0.4C269.9,79,269.2,80.8,269.2,80.8z"/>
					</defs>
					<clipPath id="SVGID_12_">
						<use xlink:href="#SVGID_11_"  style="overflow:visible;"/>
					</clipPath>
					<g class="st33">
						<g>
							<path class="st23" d="M269.8,77.9c-0.7,0-1.4,0.3-2,0.6c-1.4,0.6-3,0.6-4.5,0.3l-0.7-0.3c0.4,0.8,0.9,1.7,1.8,2
								c0.3,0.1,0.7,0.1,1,0.1c1.5,0.1,3,0.2,4.5,0.2c0.1,0,0.2,0,0.3-0.1c0.1-0.1,0.1-0.2,0.2-0.3c0.1-0.5,0.2-0.9,0.3-1.4
								c0.1-0.3,0.1-0.7-0.2-1C270.2,78,270,77.9,269.8,77.9z"/>
						</g>
						<g>
							<path class="st23" d="M262.5,87.5c-1.1,0.5-0.1,2-0.1,2s1.9-1.5,4.9-1.1C266,87.6,263.6,87,262.5,87.5z"/>
						</g>
					</g>
				</g>
			</g>
		</g>
		<g>
			<g>
				<g>
					<g>
						<path class="st3" d="M231.8,78.9c-6.6-6.8-9.4-6.6-9.4-6.6c-8.8,2.6-13.2,19-9.9,24c2.8,4.3,17.9,13.3,17.9,13.3l13-20.4
							C243.4,89.2,236.3,83.6,231.8,78.9z"/>
					</g>
				</g>
			</g>
			<g>
				<defs>
					<path id="SVGID_13_" d="M222.4,72.3c0,0,2.8-0.3,9.4,6.6c4.5,4.7,11.6,10.3,11.6,10.3l-13,20.4c0,0-15.1-9-17.9-13.3
						C209.2,91.3,213.6,74.9,222.4,72.3z"/>
				</defs>
				<clipPath id="SVGID_14_">
					<use xlink:href="#SVGID_13_"  style="overflow:visible;"/>
				</clipPath>
				<g class="st34">
					<path class="st35" d="M232,95.7c0.7-3.2,2.1-6.3,3.9-9c-1.2,0.5-2.3,1.1-3.3,1.9c-2.6-4.5-5.5-8.8-8.6-13c-1-1.3-2-2.7-3.5-3.5
						l-11,3.4c-2.4,5-6.8,9.3-7.3,14.9c-0.2,2,0.2,4,1,5.8c1.2,2.5,3.2,4.6,5.3,6.5c6.8,6.1,14.4,11.3,22.6,15.4
						c0.3,0.1,0.6,0.3,0.9,0.2c0.5-0.1,0.7-0.6,0.9-1c4-9.7,8.1-19.5,12.1-29.2c-3.2,2.4-6.5,4.6-9.9,6.7
						C234.1,95.3,233.1,95.9,232,95.7z"/>
				</g>
			</g>
		</g>
		<g>
			<g>
				<g>
					<path class="st6" d="M203.1,64.9c0,0-20.6,1.7-24,6.2c0,0,0,0,0,0c-0.7,0.8-1.2,1.6-1.5,2.4c-0.8,2.1-1.5,4.3-2.1,6.5
						c-0.1,0.2-0.1,0.4-0.2,0.6c-0.8,2.9-1.5,5.8-2.1,8.7c0,0.2-0.1,0.4-0.1,0.6c-0.3,1.3-0.5,2.6-0.7,3.9
						c-3.1,18.7-5.4,43.5-5.4,43.5l12.5,3.3c2.6,0.7,5.3,0.9,8,0.6l36.1-3.8c0,0-3.3-10.9-2.8-13.4c0-0.2,0.1-0.4,0.1-0.6
						c0.7-3.9,1.7-9.9,2.8-16.3c0,0,0,0,0,0c0.2-1.1,0.4-2.2,0.5-3.3c0-0.3,0.1-0.5,0.1-0.8c0.2-1.1,0.3-2.1,0.5-3.2
						c0.1-0.5,0.2-1,0.2-1.5c0-0.2,0.1-0.4,0.1-0.7c1.7-10.6,2.7-22.2,1.2-23.7C222.1,69.8,203.1,64.9,203.1,64.9z"/>
				</g>
				<g>
					<defs>
						<path id="SVGID_15_" d="M225.1,97.9c0,0.2-0.1,0.4-0.1,0.7c-0.1,0.5-0.2,1-0.2,1.4c-0.2,1-0.3,2.1-0.5,3.2
							c0,0.3-0.1,0.5-0.1,0.8c-0.2,1.1-0.4,2.2-0.5,3.3c0,0,0,0,0,0c-1.1,6.4-2.1,12.4-2.8,16.3c0,0.2-0.1,0.4-0.1,0.6
							c-0.4,2.5,2.8,13.4,2.8,13.4l-36.1,3.8c-2.7,0.3-5.4,0.1-8-0.6l-12.5-3.3c0,0,2.3-24.8,5.4-43.5c0.2-1.3,0.4-2.6,0.7-3.9
							c0-0.2,0.1-0.4,0.1-0.6c0.6-2.9,1.3-5.8,2.1-8.7c0.1-0.2,0.1-0.4,0.2-0.6c0.6-2.2,1.3-4.3,2.1-6.5c0.3-0.8,0.8-1.6,1.5-2.4
							c0,0,0,0,0,0c3.5-4.5,24-6.2,24-6.2s18.6,5.3,23.2,9.2C226.5,74.3,226.8,87.4,225.1,97.9z"/>
					</defs>
					<clipPath id="SVGID_16_">
						<use xlink:href="#SVGID_15_"  style="overflow:visible;"/>
					</clipPath>
					<g class="st36">
						<g>
							<path class="st37" d="M192.5,126.1c-3.1,0-6.3,0.1-9.4,0.1c4.8-3.9,11-5.4,17.1-6.7c-4.5,0.1-8.9-0.1-13.3-0.8
								c-0.8-0.1-1.6-0.3-2.1-0.8c-0.8-0.9-0.5-2.3-0.2-3.4c2.7-9.4,4.1-19.3,3.9-29.1c0-3.1-0.2-6.2-1.2-9.2
								c-0.9-3-2.7-5.7-5.3-7.4l-14.5,3.5c-2.2,9.9-3.8,19.8-5.4,29.8c-1.7,10.4-3.4,20.8-5.1,31.2c-0.3,1.8-0.6,3.9,0.4,5.5
								c1.1,1.8,3.3,2.6,5.3,3.3c3.7,1.3,7.2,3,10.4,5.2c2.1,1.4,4.1,3,6.5,3.9c3.5,1.3,7.4,0.8,11-0.1c12.2-3,23.1-10.1,35.3-13.3
								c-13.6-0.5-27.1-2.6-40.1-6.3C187.7,129.1,190,127.3,192.5,126.1z"/>
						</g>
						<g>
							<path class="st37" d="M218,122.9c-0.3,0.4-0.6,0.7-0.9,1c-0.5,0.3-1.1,0.4-1.7,0.5c-4.3,0.6-8.6,1.5-12.8,2.8
								c7,0,14.3-1.4,21,0.9c1-4.6,2.1-9.3,3.1-13.9l-3.4,0.7C221.7,117.7,219.9,120.4,218,122.9z"/>
						</g>
						<g>
							<path class="st37" d="M193.5,110c0,0-4,2.1-4.2,2.3c13.8-3.9,25.8-13.7,32.4-26.4C214,95.6,204.4,103.9,193.5,110z"/>
						</g>
					</g>
				</g>
				<g>
					<polygon class="st3" points="211.2,94.1 214.3,94.5 217.6,90.7 211.6,90.1 					"/>
				</g>
				<g>
					<polygon class="st3" points="215.3,95.5 221.1,96 221.5,92.8 217.8,92.4 					"/>
				</g>
			</g>
		</g>
		<g>
			<g>
				<path class="st38" d="M212.7,29.7c-6.9-1-15.2,1.4-18,5c-0.3,0.4-0.7,0.7-1.1,1c-6.2,4.7-4.9,10.8-3,14.9c1.3,2.6,4.3,3.8,7,2.8
					l18.4-6.9c0.7-0.3,1.4-0.7,1.9-1.2c2.6-2.7-0.1-5.8-0.6-10.5C217.1,32.1,215.2,30,212.7,29.7z"/>
			</g>
			<g>
				<path class="st29" d="M215.2,38.6c-0.4,0.1-0.8,0.4-1,0.9c-0.2,0.5-0.2,1-0.3,1.5c-0.2,2.2-0.7,4.6-2.4,6.1
					c-1.4,1.2-3.4,1.5-5.3,1.7c2-1.4,3-4,2.6-6.4c0-0.2-0.4-0.2-0.4,0c-0.2,1.3-0.8,2.6-1.8,3.6c-1.3,1.3-3.1,1.9-4.9,2.2
					c-1,0.2-2,0.3-3,0.4l0,2.8c-0.3-0.3-0.7-0.5-1.1-0.7c-2.6-1.2-5.5-0.3-6.6,2.1c-1.1,2.3,0.1,5.2,2.7,6.3
					c1.7,0.8,2.3,0.5,3.7,0.3l-0.5,2.6c-0.2,1.1-0.6,2.1-1.2,3l-2.3,3.5c0,0,12.1,14.8,16.2,3.3c0.4-1,0.7-2,1.2-2.9l0,0l-1.8-1.7
					l-0.3-0.2c-0.1-0.7,0-1.8,0-2.7c5.1,0,9.2-4.1,9.2-9.2l0-12.8C217.9,40.5,216.8,39,215.2,38.6z"/>
			</g>
			<g>
				<defs>
					<path id="SVGID_17_" d="M208.7,64.1c-0.1,1-0.1,2,0,2.7l0.3,0.2l1.8,1.7l0,0c-0.4,0.9-0.8,1.9-1.2,2.9
						c-4.1,11.5-16.2-3.3-16.2-3.3l2.3-3.5c0.6-0.9,1-1.9,1.2-3l0.5-2.6c-1.4,0.2-2.1,0.5-3.7-0.3c-2.6-1.2-3.8-4-2.7-6.3
						c1.1-2.3,4-3.2,6.6-2.1c0.4,0.2,0.8,0.4,1.1,0.7l0-2.8c1,0,2-0.2,3-0.4c1.8-0.4,3.6-1,4.9-2.2c1-0.9,1.6-2.2,1.8-3.6
						c0-0.2,0.4-0.3,0.4,0c0.4,2.4-0.6,5-2.6,6.4c1.9-0.2,3.9-0.5,5.3-1.7c1.7-1.4,2.2-3.8,2.4-6.1c0-0.5,0.1-1,0.3-1.5
						c0.2-0.4,0.6-0.8,1-0.9c1.6,0.4,2.8,1.9,2.7,3.6l0,12.8C217.9,60,213.8,64.1,208.7,64.1z"/>
				</defs>
				<clipPath id="SVGID_18_">
					<use xlink:href="#SVGID_17_"  style="overflow:visible;"/>
				</clipPath>
				<g class="st39">
					<g>
						<path class="st23" d="M213,37.7c-1.5,0.2-3.1,0.3-4.4,1c-1.8,0.9-3.1,2.5-4.4,4.1c-1.3,1.5-2.9,3-4.8,3.4
							c-0.3,0.1-0.8,0-0.9-0.3l-0.8,2.8c3,0.4,6.2-0.5,8.5-2.4c-0.5,1.2-1.4,2.2-2.5,2.8c1.9,0.2,3.9-0.1,5.6-1
							c1.7-0.9,3.1-2.6,3.5-4.5c0.2-1.2,0.1-2.4,0.5-3.5c0.5-1.3,1.7-2.2,3.1-2.4C215.3,37.5,214.1,37.6,213,37.7z"/>
					</g>
					<g>
						<path class="st23" d="M198.7,72.2c-1.5-1.9-2.6-4.3-2.3-6.7c0.1-0.9,0.5-1.8,0.7-2.7c0.3-1.2,0.4-2.4,0.2-3.6l-3.7,3
							c-0.3,1.6-0.8,3.1-1.5,4.6c-0.6,1.3-1.4,2.7-0.9,4c0.3,0.9,1.2,1.5,2.1,2c3.3,1.9,6.8,3.5,10.5,4.5
							C202.2,75.6,200.3,74,198.7,72.2z"/>
					</g>
				</g>
			</g>
			<g>
				<path class="st23" d="M208.7,64.1c0,0-5.6,0.4-7.9-2.8c0.8,4.7,5.7,5.3,8.1,5.7l-0.3-0.2C208.6,66.1,208.6,65.1,208.7,64.1z"/>
			</g>
			<g>
				<path class="st40" d="M207.5,48.6c-0.6-0.1-1.2,0.6-1.3,1.4c-0.1,0.9,0.2,1.7,0.8,1.7c0.6,0.1,1.2-0.6,1.3-1.4
					C208.4,49.5,208.1,48.7,207.5,48.6z"/>
			</g>
			<g>
				<path class="st40" d="M214.4,48.5c-0.6-0.1-1.2,0.6-1.3,1.4c-0.1,0.9,0.2,1.7,0.8,1.7c0.6,0.1,1.2-0.6,1.3-1.4
					C215.4,49.4,215,48.6,214.4,48.5z"/>
			</g>
			<g>
				<path class="st31" d="M213,52.5l-3.5,1.8c-0.1,0.1-0.1,0.3,0.1,0.2l3.1-0.2c0.1,0,0.1,0,0.1-0.1l0.4-1.6
					C213.3,52.6,213.1,52.5,213,52.5z"/>
			</g>
			<g>
				<g>
					<path class="st31" d="M196.8,54c-0.1-0.1-0.2-0.2-0.3-0.4c-0.2-0.2-0.4-0.4-0.7-0.6c-0.3-0.2-0.5-0.3-0.8-0.4
						c-0.3-0.1-0.6-0.1-0.9-0.1c-0.6,0.1-1.2,0.3-1.6,0.7c0.5-0.2,1.1-0.3,1.6-0.3c0.5,0,1,0.2,1.5,0.5c0.2,0.2,0.4,0.3,0.6,0.5
						c0.1,0.1,0.2,0.2,0.3,0.3c0.1,0.1,0.2,0.2,0.3,0.3c0.3,0.4,0.6,0.9,0.9,1.4c-0.1-0.6-0.3-1.1-0.6-1.7
						C197,54.2,196.9,54.1,196.8,54z"/>
				</g>
				<g>
					<path class="st31" d="M194.8,53.7c-0.1,0.1-0.3,0.2-0.4,0.4c-0.1,0.1-0.2,0.3-0.2,0.5c-0.1,0.4,0,0.7,0.1,1
						c0.1,0.3,0.3,0.6,0.6,0.8c-0.1-0.3-0.1-0.6-0.2-0.9c0-0.3,0-0.6,0-0.8c0.1-0.2,0.2-0.5,0.4-0.7c0.2-0.2,0.4-0.4,0.7-0.5
						C195.4,53.5,195.1,53.5,194.8,53.7z"/>
				</g>
			</g>
			<g>
				<g>
					<g>
						<g>
							<g>
								<g>
									<g>
										<path class="st40" d="M208,45.4c-1.5-0.8-3.4-0.2-4.1,1.3c-0.4,0.8,0.9,1.3,1.3,0.5c0.4-0.9,1.5-0.9,2.3-0.5
											C208.3,47.2,208.8,45.8,208,45.4z"/>
									</g>
								</g>
							</g>
						</g>
					</g>
				</g>
			</g>
			<g>
				<g>
					<g>
						<g>
							<g>
								<g>
									<g>
										<path class="st23" d="M210.4,60.7c-0.5,0.3-1.1,0.5-1.7,0.1c-0.4-0.2-0.8,0.3-0.4,0.6c0.8,0.5,1.6,0.3,2.4-0.1
											C211.1,61.2,210.8,60.5,210.4,60.7z"/>
									</g>
								</g>
							</g>
						</g>
					</g>
				</g>
			</g>
			<g>
				<g>
					<g>
						<g>
							<g>
								<g>
									<g>
										<path class="st41" d="M202.5,52.6c-1.1-0.1-2.1,0.3-2.1,0.9c0,0.6,0.8,1.1,2,1.2c1.1,0.1,2.1-0.3,2.1-0.9
											C204.5,53.2,203.6,52.6,202.5,52.6z"/>
									</g>
								</g>
							</g>
						</g>
					</g>
				</g>
			</g>
			<g>
				<g>
					<g>
						<g>
							<g>
								<g>
									<g>
										<path class="st41" d="M216.8,51.8c-1.1,0.1-2,0.7-2,1.3c0.1,0.6,1,1,2.2,0.9c0.2,0,0.3,0,0.5-0.1l-0.1-2.1
											C217.2,51.8,217,51.8,216.8,51.8z"/>
									</g>
								</g>
							</g>
						</g>
					</g>
				</g>
			</g>
			<g>
				<g>
					<g>
						<g>
							<g>
								<g>
									<g>
										<path class="st40" d="M215.9,45.4c-1.3-0.6-2.8-1-4,0.1c-0.7,0.6,0.3,1.6,1,1c0.8-0.7,1.8-0.1,2.6,0.2
											C216.3,47.1,216.7,45.8,215.9,45.4z"/>
									</g>
								</g>
							</g>
						</g>
					</g>
				</g>
			</g>
			<g>
				<g>
					<path class="st23" d="M211.7,57.4c-0.3,1.1-1.9,0.9-2.6,0.6c-0.8-0.3-1.5-0.8-1.9-1.5c-0.2-0.4-0.9-0.1-0.7,0.3
						c0.7,1.1,1.7,1.8,3,2c1.1,0.2,2.6,0,2.9-1.2C212.5,57.2,211.8,57,211.7,57.4z"/>
				</g>
			</g>
			<g>
				<g>
					<g>
						<g>
							<path class="st3" d="M206.9,47.8c-2.1-0.1-3.9,1.4-4,3.5c-0.1,2.1,1.4,3.9,3.5,4c2.1,0.1,3.9-1.4,4-3.5
								C210.6,49.7,209,47.9,206.9,47.8z M210,51.8c-0.1,1.8-1.7,3.2-3.6,3.1c-1.8-0.1-3.2-1.7-3.1-3.6c0.1-1.8,1.7-3.2,3.6-3.1
								C208.8,48.3,210.2,49.9,210,51.8z"/>
						</g>
					</g>
				</g>
				<g>
					<g>
						<g>
							<path class="st3" d="M216.1,48.3c-2.1-0.1-3.9,1.4-4,3.5c-0.1,2.1,1.4,3.9,3.5,4c2.1,0.1,3.9-1.4,4-3.5
								C219.7,50.3,218.2,48.5,216.1,48.3z M219.2,52.3c-0.1,1.8-1.7,3.2-3.6,3.1c-1.8-0.1-3.2-1.7-3.1-3.6c0.1-1.8,1.7-3.2,3.6-3.1
								C217.9,48.9,219.3,50.5,219.2,52.3z"/>
						</g>
					</g>
				</g>
				<g>
					<g>
						<g>
							<g>
								<path class="st3" d="M212.4,51.5c-0.6-0.4-1.3-0.5-1.9-0.2c-0.2,0.1,0,0.4,0.1,0.3c0.5-0.3,1.2-0.2,1.6,0.2
									C212.3,51.9,212.5,51.7,212.4,51.5z"/>
							</g>
						</g>
					</g>
				</g>
			</g>
		</g>
		<g>
			<g>
				<path class="st6" d="M196.6,51.9l-1.5,5.6c0,0,5.6,9.5,14.5,7.1C198.2,64.9,196.6,51.9,196.6,51.9z"/>
			</g>
			<g>
				<g>
					<g>
						<path class="st6" d="M214.6,30.4c-3.8-2.8-8.9-3.7-13.6-3c-3.4,0.5-6.6,1.9-9.1,4.3c-2.5,2.4-3.9,5.8-4.6,9.2
							c-0.7,3.1-0.9,6.3-0.3,9.4c0.7,3.1,2.3,6.1,4.9,8.1c0.1,0.1,0.2,0.2,0.4,0.3c0.5,0.3,1,0.6,1.6,0.6c1.6,0,2.1-1.6,2.3-2.9
							c0.5-3,0.6-6.3,0.3-9.5c-0.2-2.3,1.6-4.3,3.9-4.1c6.2,0.4,12.4,1,18.7,1.3c0.3,0,0.6,0,0.8-0.2c0.3-0.2,0.4-0.6,0.4-0.9
							c0.1-0.5,0.1-1,0.1-1.5C220.3,37,218,32.9,214.6,30.4z"/>
					</g>
				</g>
				<g>
					<g>
						<path class="st42" d="M193.3,32.2c-4.1,3.8-5.8,10-4.4,15.4c-0.4-4.5,1-9.2,3.9-12.6c2.9-3.5,7.3-5.7,11.8-6l4.2-0.1
							C203.7,27,197.4,28.3,193.3,32.2z"/>
					</g>
				</g>
			</g>
			<g>
				<path class="st3" d="M197.8,39.8c-5.1,0.3-4.1,11.1-4,15.2c0,1.7-0.8,2.7-1.9,3.4c0.1,0.1,0.2,0.2,0.4,0.3
					c0.5,0.3,1,0.6,1.6,0.6c1.6,0,2.1-1.6,2.3-2.9c0.5-3,0.6-6.3,0.3-9.5c-0.2-2.3,1.6-4.3,3.9-4.1c6.2,0.4,12.4,1,18.7,1.3
					c0.3,0,0.6,0,0.8-0.2c0.3-0.2,0.4-0.6,0.4-0.9c0.1-0.5,0.1-1,0.1-1.5C214.5,40.8,201.7,39.6,197.8,39.8z"/>
			</g>
		</g>
	</g>
	<g>
		<g>
			<g>
				<path class="st3" d="M270.8,137.8c-9.7-1-19.5-0.2-28.9,2.4c6.4,23.7,14.1,48.3,28,69.7c3.6-0.8,7.1-1.9,10.6-3
					c-4.2-9.9-6.6-20.4-7.9-31.1C271.2,163.2,271,150.5,270.8,137.8z"/>
			</g>
		</g>
		<g>
			<g>
				<g>
					<g>
						<path class="st20" d="M303.8,191.6c-2.8-9.1-5.6-18.2-8.5-27.3c-1.7-5.4-3.5-11-7.4-14.9c-4-4.1-9.7-5.8-15.5-6.6
							c-1.8-0.2-3.6-0.4-5.4-0.5c-14.8-0.7-29.9,1.5-43.1,8.2c-4.5,2.3-8.9,5.2-11.9,9.3c-3.8,5.2-4.9,11.9-5.3,18.3
							c-1.5,22.4,4.4,44.5,7,66.8c0.7,6.6,1,14-3.2,19.3c-1.3,1.6-3.1,3.5-2.2,5.4c0.7,1.4,2.4,1.7,3.9,1.8c0.4,0,0.8,0.1,1.2,0.1
							c9.3,0.9,18.7,1.4,28.1,1c12.4-0.5,24.7-2.4,36.3-6.8c8.4-3.2,16.5-7.9,22.5-14.5c2.3-2.6,4.4-5.4,5.9-8.6
							c3.9-7.8,4.6-16.9,3.6-25.6C309,208.4,306.4,200,303.8,191.6z"/>
					</g>
				</g>
				<g>
					<g>
						<path class="st19" d="M303.8,191.6c-2.8-9.1-5.6-18.2-8.5-27.3c-1.7-5.4-3.5-11-7.4-14.9c-4-4.1-9.7-5.8-15.5-6.6
							c-1.1-0.1-2.2-0.2-3.2-0.2c-14.8-0.7-29.9,1.5-43.1,8.2c-4.5,2.3-8.9,5.2-11.9,9.3c-3.8,5.2-4.9,11.9-5.3,18.3
							c-1.5,22.4,4.4,44.5,7,66.8c0.7,6.6,1,14-3.2,19.3c-1.3,1.6-3.1,3.5-2.2,5.4c0.5,1.1,1.7,1.5,3,1.7c9.3,0.9,18.7,1.4,28.1,1
							c12.4-0.5,24.7-2.4,36.3-6.8c8.4-3.2,16.5-7.9,22.5-14.5c2.3-2.6,4.4-5.4,5.9-8.6c3.9-7.8,4.6-16.9,3.6-25.6
							C309,208.4,306.4,200,303.8,191.6z"/>
					</g>
				</g>
				<g>
					<g>
						<path class="st22" d="M224.5,161.6c-0.9-1.6-3-1.9-4.4-0.7c-4.1,3.7-6.5,9.3-7.1,14.9c-0.8,7,0.7,14,2.1,20.8
							c4.9-0.8,2.8-0.5,7.7-1.2c-0.5-4.7-0.9-9.6,0.1-14.2c0.8-4,2.7-7.9,5.6-10.7c0.9-0.8,1-2.2,0.1-3.2
							C227.1,165.6,225.7,163.7,224.5,161.6z"/>
					</g>
				</g>
				<g>
					<g>
						<path class="st22" d="M287.6,155.6c-0.6-0.7-1.8-0.3-1.9,0.7c-0.1,1.1-0.3,2.1-0.6,3.2c-0.2,0.8,0,1.7,0.6,2.3
							c3.7,3.4,6.5,7.7,8,12.4c0.7,0.2,1.5-0.4,1.7-1.1c0.2-0.7,0.1-1.5-0.1-2.3C294.3,165.8,291.3,159.8,287.6,155.6z"/>
					</g>
				</g>
				<g>
					<g>
						<path class="st18" d="M270.8,137.8c-10.6-1.1-21.3-0.2-31.6,2.6c0.6,2.3,1.2,4.5,1.9,6.8c2.7,13.8,16,66.5,16,66.5l13.3-3.2
							l-17.3-60.7c6-0.5,12-1.7,17.9-3.3C270.9,143.6,270.9,140.7,270.8,137.8z"/>
					</g>
					<g>
						<g>
							<path class="st43" d="M270.9,145.7c-8.7,2.5-17.6,3.7-26.6,3.2c6,20.9,13.4,42.2,25.6,60.9c3.6-0.8,7.1-1.9,10.6-3
								c-4.2-9.9-6.6-20.4-7.9-31.1C271.5,165.8,271.1,155.8,270.9,145.7z"/>
						</g>
					</g>
				</g>
				<g>
					<g>
						<path class="st18" d="M279.2,205c-7.8-1.7-15.9,2.4-21.7,9.3c-5.8,6.9-9.6,16.4-11.8,26.2c-2.2,9.8-3.1,20.1-3.9,30.2
							c0,0.6-0.1,1.2-0.1,1.8c12.4-0.5,24.7-2.4,36.3-6.8c8.4-3.2,16.5-7.9,22.5-14.5c0.2-0.7,0.4-1.4,0.6-2.1
							c1.9-8,0.5-16.8-2.4-24.2C294.7,215.1,287.7,206.8,279.2,205z"/>
					</g>
				</g>
			</g>
			<g>
				<g>
					<path class="st17" d="M295.9,93.9c-0.8-0.3-1.7-0.4-2.6-0.4c-4.6,0-8.3,3.7-8.3,8.3c0,2.9,1.5,5.5,3.8,7
						c0.8,0.5,1.8,0.9,2.8,1.1l-1,2.9c-0.4,1.2-0.5,2.5-0.3,3.7l1.6,10.3c0.1,0.4,0.4,0.6,0.7,0.6c0,0,0.1,0,0.1,0
						c0.4-0.1,0.7-0.4,0.6-0.8l-1.6-10.3c-0.2-1-0.1-2,0.2-3l1.1-3.2c0.1,0,0.1,0,0.2,0c4.6,0,8.3-3.7,8.3-8.3
						C301.6,98.1,299.2,95,295.9,93.9z"/>
				</g>
				<g>
					<path class="st44" d="M293.3,93.5c-4.6,0-8.3,3.7-8.3,8.3c0,2.9,1.5,5.5,3.8,7c5-0.2,9-4.3,9-9.3c0-2.1-0.7-4.1-1.9-5.6
						C295.1,93.7,294.2,93.5,293.3,93.5z"/>
				</g>
				<g>
					<path class="st17" d="M215.8,123.8c-0.4-1.8-1.6-3.4-3.2-4.2l-3.4-1.9c0.5-1.2,0.8-2.6,0.8-4c0-5.8-4.7-10.5-10.5-10.5
						c-0.6,0-1.2,0-1.7,0.1c-5,0.8-8.8,5.2-8.8,10.4c0,5.6,4.3,10.1,9.8,10.5c0.2,0,0.5,0,0.7,0c3.9,0,7.3-2.1,9.1-5.2l3.4,1.8
						c1.3,0.7,2.2,1.9,2.5,3.3l3.2,13.5c0.1,0.3,0.4,0.6,0.7,0.6c0.1,0,0.1,0,0.2,0c0.4-0.1,0.6-0.5,0.5-0.9L215.8,123.8z"/>
				</g>
				<g>
					<path class="st44" d="M197.7,103.3c-5,0.8-8.8,5.2-8.8,10.4c0,5.6,4.3,10.1,9.8,10.5c2.7-2.5,4.4-6.1,4.4-10
						C203.1,109.7,201,105.8,197.7,103.3z"/>
				</g>
				<g>
					<g>
						<g>
							<path class="st3" d="M293.8,124.9c-1.5,0-2.8,1.7-2.8,3.8c0,2.1,1.2,3.8,2.8,3.8s2.8-1.7,2.8-3.8
								C296.5,126.6,295.3,124.9,293.8,124.9z"/>
						</g>
					</g>
					<g>
						<g>
							<path class="st16" d="M303.8,128c-0.9-0.5-1.9-0.6-2.9-0.6c-3.1-0.2-6.2-0.4-9.2-0.5c-0.1,1.2-0.2,2.4-0.2,3.6
								c3.3,0.4,6.6,0.8,9.8,1.2c0.7,0.1,1.3,0.2,2,0c0.7-0.1,1.3-0.5,1.6-1.1C305.3,129.6,304.7,128.5,303.8,128z"/>
						</g>
					</g>
				</g>
				<g>
					<g>
						<g>
							<path class="st19" d="M282.1,121.2c-1.9-1.8-3.3-4.1-5.5-5.5c-3.6-2.2-8.3-1.4-12.5-0.9c-6.3,0.7-12.9,0.2-18.6,2.8
								c-4.3,1.9-7.6,5.3-11.3,8.2c-6.2,5.1-13.4,8.9-21.1,11.4c1.4,1.5,2.4,3.4,3.2,5.5c6.1-1.2,12.5-1.4,18.8-1.2
								c9.8,0.4,19.6,1.6,29.3,0.5c4-0.4,8-1.3,11.5-3.3c2.8-1.6,5.2-3.8,8-5.6c2.8-1.7,5.3-2.6,8.4-1.6c2-1.4,2.1-4.8,0.7-6.4
								C288.6,125.6,285.2,124.3,282.1,121.2z"/>
						</g>
					</g>
				</g>
				<g>
					<g>
						<path class="st45" d="M223.7,140.9c0-1.3-0.7-2.5-1.5-3.5c-0.6-0.8-1.2-1.5-2-1.9c-1.3-0.6-2.8-0.2-4.2,0.2
							c-0.9,0.3-1.9,0.7-2.1,1.6c-0.1,0.4,0,0.9,0.1,1.3c0.5,1.6,1.5,3.1,2.8,4.2c0.8,0.7,1.9,1.3,2.1,2.3c0.2,0.8-0.2,1.6-0.8,2.1
							c-0.5,0.6-1.3,0.9-1.9,1.3c-5.5,3.2-10.2,7.7-14.1,12.8c-0.1,0.1-0.2,0.3-0.3,0.4c0,0,0,0,0,0c-0.2,0.3-0.4,0.7-0.4,1.1
							c0.1,0.7,0.7,1.2,1.4,1.3c0.5,0.1,1.1,0,1.3-0.4c0.1-0.3,0-0.7,0-1c-0.1-0.3-0.1-0.7-0.1-1c5-5.9,11.4-10.7,18.5-13.9
							c0.8-0.4,1.2-1.2,1-2.1c-0.2-0.7-0.3-1.5-0.2-2.3C223.4,142.6,223.7,141.8,223.7,140.9z"/>
					</g>
				</g>
				<g>
					<g>
						<g>
							<path class="st22" d="M276.1,119c-1.5-1.3-3.6-1.7-5.6-1.9c-6.3-0.6-12.8,0-18.9,1.7c-3.8,1.1-7.8,2.9-9.5,6.5
								c-1.8,3.8-0.7,9.4,2.4,12.2c3.1,2.8,7.3,2.6,11.5,2.7c4.9,0.1,10.2-0.7,14.8-2.1c4.9-1.5,5.6-2.1,7.1-4.5
								c1.6-2.6,1.4-5.8,0.9-8.8C278.3,122.7,277.7,120.4,276.1,119z"/>
						</g>
					</g>
					<g>
						<g>
							<path class="st3" d="M275,118.9c-0.8-0.7-1.9-1-2.8-0.7c2,2,3.2,4.8,3.8,7.6c0.6,2.8,0.6,5.7,0.7,8.6c1.7-4.1,1.7-8.9,0-12.9
								C276.3,120.5,275.8,119.6,275,118.9z"/>
						</g>
					</g>
				</g>
				<g>
					<g>
						<path class="st45" d="M306.3,135c-0.5-0.3-1.4-0.8-1.9-0.9c-3.3-0.6-6.3-0.9-9.6-1.5c-0.9-0.3-1.1-1.4-1-2.3
							c0.2-0.9,0.6-1.7,0.6-2.6c0-1.5-1.3-2.7-2.8-2.8c-0.4,0-0.6,0.3-0.5,0.7c0.7,1.9,0.5,4.1-0.5,5.8c-0.2,0.3-0.1,0.7,0.2,0.9
							c0.9,0.5,1.5,1.8,2.5,2.1c0.5,0.2,1,0,1.6,0.1c4.1,0.2,7.4-0.1,10.8,1.4c-0.2,0.1-0.3,0.8-0.2,1c0.4,0.4,1.2,0.2,1.4-0.4
							C307.1,135.9,306.8,135.3,306.3,135z"/>
					</g>
				</g>
				<g>
					<g>
						<g>
							<path class="st16" d="M188.7,146.5c0.6,1.4,1.1,2.8,1.7,4.2c8-3.4,16.2-6.2,24.6-8.4c-0.5-1.6-1.3-3-2.2-4.4
								C204.8,140.8,196.7,143.6,188.7,146.5z"/>
						</g>
					</g>
					<g>
						<g>
							<path class="st3" d="M216.5,138.6c-0.5-0.8-1.1-1.6-2-2.1c-0.8-0.5-1.9-0.7-2.8-0.4c-0.9,0.3-1.6,1.2-1.6,2.2
								c0.1,1.8,1.7,4.6,3.5,6.2c1.1,1,2.8,0.7,3.5-0.7c0.3-0.6,0.5-1.3,0.5-1.8C217.5,140.8,217.1,139.7,216.5,138.6z"/>
						</g>
					</g>
					<g>
						<g>
							<path class="st16" d="M187.4,146.3c-1.5,0.8-1.9,3-1,4.8c1,1.9,3,2.8,4.5,2c1.5-0.8,1.9-3,1-4.8
								C190.9,146.4,188.9,145.5,187.4,146.3z"/>
						</g>
					</g>
				</g>
			</g>
			<g>
				<g>
					<g>
						<g>
							<path class="st16" d="M285.6,221.7c-1.4,0.2-6.9,0.9-8.3,1.1c-10.5,1.4-16.8,20.2-13.9,42c2.9,21.8,13.7,38.4,24.3,37
								c1.4-0.2,6.9-0.9,8.3-1.1c10.5-1.4,16.8-20.2,13.9-42C307,236.9,296.2,220.3,285.6,221.7z"/>
						</g>
					</g>
					<g>
						<g>
							
								<ellipse transform="matrix(0.9915 -0.1299 0.1299 0.9915 -31.8075 38.2178)" class="st3" cx="277.2" cy="263" rx="8.2" ry="27.1"/>
						</g>
					</g>
				</g>
				<g>
					<g>
						<g>
							<path class="st20" d="M289.9,212.8c-3.4-1.5-6.7-2.1-9.7-1.9c-6.2,0.5-11.6,4.3-14.9,10.9c-3.4,6.8-6.3,15.9-5.9,23.5
								c0.5,8.5,0.7,18,2.5,26.3c0,0.1,0,0.2,0.1,0.3c16.2-1.9,39.6-5.7,53.8-11.1c-2-12.8-6.1-27.1-13.7-37.6
								C298.9,218.8,294.8,215,289.9,212.8z"/>
						</g>
					</g>
					<g>
						<g>
							<path class="st19" d="M287.2,212.8c-2.4-1.1-4.8-1.7-7.1-1.9c-6.2,0.5-11.6,4.3-14.9,10.9c-3.4,6.8-6.3,15.9-5.9,23.5
								c0.5,8.5,0.7,18,2.5,26.3c16.1-2,37.7-5.7,51.3-10.8c-2-12.8-6.1-27.1-13.7-37.6C296.3,218.8,292.2,215,287.2,212.8z"/>
						</g>
					</g>
					<g>
						<g>
							<path class="st22" d="M292.7,262.3c-0.8-1-1.1-2.2-1.5-3.3c-3.9-12.7-7.4-25.6-10.5-38.5c-0.5-2.1-1.1-4.4-3-5.4
								c-1.7-0.9-3.8-0.4-5.4,0.5c-2.9,1.6-5.2,4.3-6.2,7.5c1.3-1.5,3.6-2,5.6-1.3c1.9,0.6,3.5,2.2,4.5,3.9c1,1.7,1.7,3.7,2.3,5.6
								c3,9.5,6,18.9,9,28.4c0.4,1.2,0.8,2.5,1.7,3.4c1.8,1.6,4.5,1.2,6.9,0.7C294.8,264,293.5,263.3,292.7,262.3z"/>
						</g>
					</g>
				</g>
				<g>
					<g>
						<g>
							<path class="st17" d="M271.9,231.1c-1.6-1.7-4.6-1.1-6.2,0.6c-1.6,1.7-2,4.2-2.2,6.5c-0.9,11.1,3,21.9,5.6,32.7
								c0.5,2.2,1,4.4,2.2,6.2c1.2,1.8,3.4,3.3,5.6,3c2.4-0.3,4.1-2.7,4.6-5.1c0.4-2.4-0.1-4.8-0.7-7.2
								C277.8,255.6,274.8,243.4,271.9,231.1z"/>
						</g>
					</g>
					<g>
						<g>
							<path class="st3" d="M271.4,258.6c-1.7,0-3.1,4-3.1,8.9c0,4.9,1.4,8.9,3.1,8.9c1.7,0,3.1-4,3.1-8.9
								C274.5,262.6,273.1,258.6,271.4,258.6z"/>
						</g>
					</g>
					<g>
						<g>
							<path class="st19" d="M271.6,235.7c-0.2-1-0.3-2-0.9-2.8c-0.6-0.8-1.7-1.3-2.6-0.8c-0.6,0.3-0.9,1-0.9,1.7
								c0,0.7,0.2,1.3,0.3,2c1.9,6.8,3.4,13.8,4.5,20.8c1.5,0.4,2.4,1.8,3.1,3.2c2.2,4.6,2.9,10,1.8,15c-0.2,0.8-0.4,1.7,0.2,2.3
								c0.4,0.5,1.2,0.6,1.8,0.4c0.6-0.3,1.1-0.8,1.4-1.4c0.9-1.9,0.5-4.1,0.1-6.2C277.7,258.5,273.6,247.4,271.6,235.7z"/>
						</g>
					</g>
				</g>
			</g>
		</g>
	</g>
	<g>
		<g>
			<path class="st29" d="M184.2,91.3l-18.3-2c0,0-7.5,33.3-5.3,43.3c1.3,6.1,16.5,11.2,27.9,14.2c2.6-3.5,8.3-4.8,10.9-8.3l-21-14.8
				L184.2,91.3z"/>
		</g>
		<g>
			<defs>
				<path id="SVGID_19_" d="M199.5,138.4l-21-14.8l5.8-32.3l-18.3-2c0,0-7.5,33.3-5.3,43.3c1.3,6.1,16.5,11.2,27.9,14.2
					C191.2,143.2,196.8,141.9,199.5,138.4z"/>
			</defs>
			<clipPath id="SVGID_20_">
				<use xlink:href="#SVGID_19_"  style="overflow:visible;"/>
			</clipPath>
			<g class="st46">
				<g>
					<path class="st31" d="M159.4,93.4l-4.7,6.4c0,0,13,13.5,29.2,12.8c16.2-0.7,6.4-13.8,6.4-13.8L159.4,93.4z"/>
				</g>
				<g>
					<path class="st23" d="M186.4,148.9l20.1,1.2l3.2-16c0,0-8.3,1.7-15,3.4S186.4,148.9,186.4,148.9z"/>
				</g>
				<g>
					
						<ellipse transform="matrix(0.9478 -0.3189 0.3189 0.9478 -34.5444 57.7591)" class="st23" cx="159.1" cy="134.4" rx="7.4" ry="8.3"/>
				</g>
			</g>
		</g>
		<g>
			<g>
				<path class="st29" d="M208.4,139.8c-0.4-0.9-1.2-1.7-2.2-1.9c-2.3-0.7-4.8-0.6-7.1,0.2l-5.4,1.9c-3,1-5.1,3.6-5.6,6.7l0,0.2
					l2.7-0.7c1.4-0.3,2.8-0.2,4.1,0.5c0.9,0.5,1.9,0.9,3.1,1.3l2.6,5.5c0.5,1.1,1.8,1.6,2.9,1.2l3.7-1.4c1.2-0.5,1.8-1.8,1.4-3
					l-2.6-7l4.4,6.7c0.3,0.5,0.9,0.6,1.4,0.4c0.6-0.2,0.9-1,0.7-1.6L208.4,139.8z"/>
			</g>
			<g>
				
					<rect x="204.2" y="142.5" transform="matrix(0.9363 -0.3511 0.3511 0.9363 -39.0232 81.2086)" class="st31" width="0.5" height="11.5"/>
			</g>
			<g>
				
					<rect x="201.6" y="143.4" transform="matrix(0.9363 -0.3511 0.3511 0.9363 -39.5282 80.3691)" class="st31" width="0.5" height="11.5"/>
			</g>
		</g>
		<g>
			<g>
				<g>
					<path class="st3" d="M179.6,70.5c0,0-7.7,0.7-10.5,7.9c-2.8,7.2-7,23.2-7,23.2s13.7,6,21.7,3.7c0,0,3.8-16,3.2-22.6
						C186,71.7,179.6,70.5,179.6,70.5z"/>
				</g>
			</g>
			<g>
				<defs>
					<path id="SVGID_21_" d="M179.6,70.5c0,0-7.7,0.7-10.5,7.9c-2.8,7.2-7,23.2-7,23.2s13.7,6,21.7,3.7c0,0,3.8-16,3.2-22.6
						C186,71.7,179.6,70.5,179.6,70.5z"/>
				</defs>
				<clipPath id="SVGID_22_">
					<use xlink:href="#SVGID_21_"  style="overflow:visible;"/>
				</clipPath>
				<g class="st47">
					<path class="st35" d="M182.6,71.3c2.4,3.4,2.1,7.9,1.4,12c-0.9,5.8-2.4,11.6-4.3,17.1c-0.1,0.2-0.1,0.4-0.3,0.5
						c-0.2,0.1-0.4,0.1-0.6,0.2c-7.7,0.5-15.7,0.9-23-1.6c3.5,4.9,8.7,8.4,14.5,10.2c5.7,1.8,12,1.8,17.8,0.4
						c1.3-0.3,2.6-0.7,3.5-1.7c0.9-1,1.2-2.5,1.4-3.9c1.5-10.9,1.9-22.2-1.1-32.7L182.6,71.3z"/>
				</g>
			</g>
		</g>
	</g>
</g>
</svg>
