<svg xmlns="http://www.w3.org/2000/svg" enable-background="new 0 0 66 66" viewBox="0 0 66 66"><path d="M24.6 61.9c-1.9 0-3.5-1.6-3.5-3.5 0-1.9 1.6-3.5 3.5-3.5s3.5 1.6 3.5 3.5C28.1 60.3 26.5 61.9 24.6 61.9zM24.6 56.7c-1 0-1.7.8-1.7 1.7 0 1 .8 1.7 1.7 1.7s1.7-.8 1.7-1.7C26.3 57.4 25.5 56.7 24.6 56.7zM28.9 8.8h-8.6c-.5 0-.9-.4-.9-.9S19.8 7 20.3 7h8.6c.5 0 .9.4.9.9S29.4 8.8 28.9 8.8z"/><path d="M43.9,47.6c-1.6,0-0.8,2.3-1,4.1H6.3V13.1h25.4c0.6,0,1-0.4,1-1s-0.4-1-1-1H6.3V7.9c0-1.5,1.2-3.1,3.1-3.1h29
					c0.6,0,1-0.4,1-1s-0.4-1-1-1h-29c-3,0-5.1,2.5-5.1,5.1c0,15.5,0,36.9,0,52c0,2.8,2.3,5.1,5.1,5.1h30.3c2.7,0,5.1-2.2,5.1-5.1
					C44.9,48.5,45.3,47.6,43.9,47.6z M39.7,63H9.4c-1.8,0-3.1-1.5-3.1-3.1v-6.1h36.6v6.1C42.9,61.5,41.5,63,39.7,63z"/><path d="M61.5,1.4C61.4,1.2,61.1,1,60.8,1h0c-6.7,0-17.6,1-21.6,6.4l-6.4,8.4c-5.9-1.2-11.9,0.7-16.2,4.9
					c-1.5,1.5-2.6,3.1-3.5,4.9c-0.2,0.4-0.1,0.8,0.2,1.1c0.2,0.2,0.4,0.3,0.7,0.3c0.1,0,0.3,0,0.4-0.1c3.3-1.6,7.1-2,10.7-1.1
					c-0.1,0.1-2.3,3-2.2,2.8c-0.7,0.9-0.8,1.8-0.6,2.8l-1.7,2c-0.5,0.5-0.5,1.2-0.1,1.8c0.1,0.1,0.2,0.2,0.3,0.3l-2.7,3.1
					c-0.4,0.5-0.5,1.2-0.1,1.7c0.2,0.2,0.4,0.4,0.6,0.5l-2.5,3.4c-0.4,0.6-0.4,1.3,0.1,1.8c0.3,0.3,0.6,0.4,1,0.4
					c0.3,0,0.6-0.1,0.8-0.3l3.5-2.4c0.1,0.2,0.3,0.5,0.5,0.6c0.5,0.4,1.2,0.3,1.7-0.1l3.2-2.6c0.1,0.1,0.2,0.3,0.3,0.4
					c0.5,0.4,1.3,0.4,1.8-0.1l2.1-1.7c2.6,0.6,3.6-1.5,4.9-2.1l0.8-0.6c0.9,3.6,0.5,7.4-1.1,10.7c-0.2,0.4-0.1,0.8,0.2,1.1
					c0.2,0.2,0.5,0.3,0.7,0.3c0.1,0,0.3,0,0.4-0.1c7.2-3.5,11.5-11.4,9.8-19.7l8.3-6.4C61.8,18.7,62.1,2.4,61.5,1.4z M59.7,3
					c0,1.3-0.1,3.6-0.4,6.2l-5.8-5.8C54.7,3.2,57.9,3,59.7,3z M21.4,23.4c-1.7,0-3.4,0.2-5.1,0.7c0.5-0.7,1.1-1.4,1.7-2
					c3.6-3.5,8.5-5.2,13.4-4.5l-5,6.5C24.8,23.6,23.1,23.4,21.4,23.4z M28.8,39.6c-0.1-0.1-0.2-0.3-0.3-0.4
					c-0.5-0.4-1.2-0.4-1.8,0.1l-3.1,2.5c-0.1-0.2-0.2-0.4-0.4-0.5c-0.5-0.4-1.2-0.4-1.7,0L20,42.4l1.1-1.5c0.4-0.5,0.4-1.2,0-1.7
					c-0.1-0.2-0.3-0.3-0.5-0.4l2.6-3c0.4-0.5,0.5-1.3,0.1-1.8c-0.1-0.1-0.2-0.2-0.4-0.3l0.5-0.5l5.9,5.9L28.8,39.6z M32.9,38.1
					C32.9,38.1,32.8,38.2,32.9,38.1c-0.6,0.4-1.2,0.3-1.7-0.1l-6.5-6.5c-0.4-0.4-0.5-1-0.2-1.5c0.2-0.2,0.8-1.1,1-1.3l8.6,8.5
					L32.9,38.1z M38.6,46.4c1-3.3,1-6.8,0-10.1l6.5-5C45.9,36.9,43.7,42.7,38.6,46.4z M54.1,22c-7,5.3-14.9,11.3-18.5,14.1l-8.9-8.9
					c10.1-13.3,6.6-8.7,7.3-9.7l6.7-8.9c2-2.7,6.3-4.1,10.3-4.8l7.9,7.9C58.2,15.7,56.8,20,54.1,22z"/><path d="M45.7,9.7c-2,2-2,5.3,0,7.3c2,2,5.3,2,7.3,0c2-2,2-5.3,0-7.3C51,7.7,47.7,7.7,45.7,9.7z M51.6,15.6
					C51.6,15.6,51.6,15.6,51.6,15.6c-1.2,1.2-3.3,1.3-4.5,0c-1.2-1.2-1.2-3.3,0-4.5c1.2-1.2,3.3-1.2,4.5,0
					C52.9,12.4,52.8,14.4,51.6,15.6z"/></svg>