<svg xmlns="http://www.w3.org/2000/svg" enable-background="new 0 0 66 66" viewBox="0 0 66 66"><path d="M35.8152 39.9216h-5.6309c-.8457 0-1.5332.688-1.5332 1.5332v5.6221c0 .8452.6875 1.5327 1.5332 1.5327h5.6309c.8457 0 1.5332-.6875 1.5332-1.5327v-5.6221C37.3484 40.6096 36.6609 39.9216 35.8152 39.9216zM35.3484 46.6096h-4.6973v-4.688h4.6973V46.6096zM46.9783 39.9216h-5.6309c-.8457 0-1.5332.688-1.5332 1.5332v5.6221c0 .8452.6875 1.5327 1.5332 1.5327h5.6309c.8457 0 1.5332-.6875 1.5332-1.5327v-5.6221C48.5115 40.6096 47.824 39.9216 46.9783 39.9216zM46.5115 46.6096h-4.6973v-4.688h4.6973V46.6096zM24.6531 39.9216h-5.6318c-.8447 0-1.5322.688-1.5322 1.5332v5.6221c0 .8452.6875 1.5327 1.5322 1.5327h5.6318c.8447 0 1.5322-.6875 1.5322-1.5327v-5.6221C26.1853 40.6096 25.4978 39.9216 24.6531 39.9216zM24.1853 46.6096H19.489v-4.688h4.6963V46.6096zM32.9998 54.7751c-1.9453 0-3.5283 1.583-3.5283 3.5283s1.583 3.5283 3.5283 3.5283 3.5283-1.583 3.5283-3.5283S34.9451 54.7751 32.9998 54.7751zM32.9998 59.8318c-.8428 0-1.5283-.6855-1.5283-1.5283s.6855-1.5283 1.5283-1.5283 1.5283.6855 1.5283 1.5283S33.8425 59.8318 32.9998 59.8318zM30.1414 7.2981h5.7168c.5527 0 1-.4478 1-1s-.4473-1-1-1h-5.7168c-.5527 0-1 .4478-1 1S29.5886 7.2981 30.1414 7.2981zM40.1414 7.2981h.7168c.5527 0 1-.4478 1-1s-.4473-1-1-1h-.7168c-.5527 0-1 .4478-1 1S39.5886 7.2981 40.1414 7.2981z"/><path d="M53.5095,4.9177c0-2.1616-1.7539-3.9199-3.9102-3.9199H16.4001c-2.1562,0-3.9102,1.7583-3.9102,3.9199
		c-0.0001,16.5346-0.0003,37.9691-0.0005,56.1719c0,2.1572,1.7554,3.9126,3.9126,3.9126h33.1953
		c2.1572,0,3.9131-1.7554,3.9131-3.9126C53.5101,42.5474,53.5098,23.8782,53.5095,4.9177z M14.49,51.6052V11.5979
		c7.9518,0,27.9737,0,37.0195,0v40.0073H14.49z M14.49,4.9177c0-1.0586,0.8564-1.9199,1.9102-1.9199h33.1992
		c1.0537,0,1.9102,0.8613,1.9102,1.9199v4.6802c-9.2991,0-28.3555,0-37.0195,0V4.9177z M49.5974,63.0022H16.4021
		c-1.0547,0-1.9126-0.8579-1.9126-1.9126v-7.4814h37.021v7.4814C51.5105,62.1443,50.6521,63.0022,49.5974,63.0022z"/><path d="M35.8152 28.2346h-5.6309c-.8457 0-1.5332.688-1.5332 1.5332v5.6221c0 .8452.6875 1.5327 1.5332 1.5327h5.6309c.8457 0 1.5332-.6875 1.5332-1.5327v-5.6221C37.3484 28.9226 36.6609 28.2346 35.8152 28.2346zM35.3484 34.9226h-4.6973v-4.688h4.6973V34.9226zM46.9783 28.2346h-5.6309c-.8457 0-1.5332.688-1.5332 1.5332v5.6221c0 .8452.6875 1.5327 1.5332 1.5327h5.6309c.8457 0 1.5332-.6875 1.5332-1.5327v-5.6221C48.5115 28.9226 47.824 28.2346 46.9783 28.2346zM46.5115 34.9226h-4.6973v-4.688h4.6973V34.9226z"/></svg>