<svg xmlns="http://www.w3.org/2000/svg" viewBox="0 0 48 48"><path fill="#231f20" d="M40.4 4.4C40.4 2 38.4 0 36 0H12C9.6 0 7.6 2 7.6 4.4v39.2c0 2.4 2 4.4 4.4 4.4h24c2.4 0 4.4-2 4.4-4.4V4.4zm-1.5 4.4v28.5H9.1V8.8h29.8zM12 1.5h24c1.6 0 2.9 1.3 2.9 2.9v2.9H9.1V4.4c0-1.6 1.3-2.9 2.9-2.9zm26.9 42.1c0 1.6-1.3 2.9-2.9 2.9H12c-1.6 0-2.9-1.3-2.9-2.9v-4.9H39v4.9z"/><path fill="#231f20" d="M21.3 4.8h5.4c.4 0 .7-.3.7-.7s-.3-.7-.7-.7h-5.4c-.4 0-.7.3-.7.7s.3.7.7.7zM29 4.6c.3-.3.3-.7 0-1-.3-.3-.8-.3-1.1 0-.3.3-.3.8 0 1 .3.3.8.3 1.1 0zM24 45.8c1.8 0 3.2-1.4 3.2-3.2s-1.4-3.2-3.2-3.2c-1.8 0-3.2 1.4-3.2 3.2s1.4 3.2 3.2 3.2zm0-4.9c.9 0 1.7.8 1.7 1.7s-.8 1.7-1.7 1.7c-.9 0-1.7-.8-1.7-1.7s.8-1.7 1.7-1.7zM24 28.2c2.9 0 5.2-2.3 5.2-5.2 0-2.9-2.3-5.2-5.2-5.2-2.9 0-5.2 2.3-5.2 5.2 0 2.9 2.3 5.2 5.2 5.2zm0-8.9c2.1 0 3.7 1.7 3.7 3.7 0 2.1-1.7 3.7-3.7 3.7-2.1 0-3.7-1.7-3.7-3.7s1.6-3.7 3.7-3.7z"/><path fill="#231f20" d="M14.2 25l1.3.3c.2.7.5 1.5.9 2.1l-.7 1.1c-.3.4-.2 1 .2 1.3l1.3 1.3c.3.4.9.5 1.4.2l1.1-.7c.7.4 1.4.7 2.1.9l.3 1.2c.1.5.5.9 1.1.9h1.9c.5 0 .9-.3 1.1-.9l.3-1.3c.7-.2 1.4-.5 2.1-.9l1.1.7c.2.1.4.1.6.1.3 0 .6-.1.8-.3l1.3-1.3c.4-.3.5-.9.2-1.4l-.7-1.1c.4-.6.7-1.3.9-2.1l1.3-.3c.5-.1.8-.6.8-1.1v-1.9c0-.5-.4-.9-.9-1.1l-1.3-.3c-.2-.8-.5-1.5-.9-2.1l.7-1.1c.3-.4.2-1-.2-1.4l-.7-.7c-.5-.5-.8-.9-1.4-.9-.4 0-.7.2-1.2.6-.1.1-.3.2-.4.3-.7-.4-1.4-.7-2.1-.9l-.5-1c-.1-.5-.6-.8-1.1-.8H23c-.5 0-.9.4-1.1.9l-.3 1.3c-.7.2-1.4.5-2.1.9l-1.1-.7c-.4-.3-1.1-.2-1.4.1l-1.4 1.3c-.3.4-.4.9-.1 1.3l.7 1.1c-.4.7-.7 1.4-.9 2.1l-1.1.3c-.5.1-.8.6-.8 1.1V24c-.1.4.3.9.8 1zm.6-2.6l1.2-.3c.4-.1.7-.4.8-.8.2-.8.5-1.5.9-2.2.2-.4.2-.8 0-1.1l-.7-1 .9-.9 1 .6c.4.3.9.2 1.2 0 .7-.4 1.4-.7 2.1-.9.4-.1.7-.4.8-.8l.3-1.2h1.3l.3 1.2c.1.4.4.8.8.9.8.2 1.5.5 2.1.8.4.3.9.2 1.2 0 .3-.2.5-.3.7-.4.1-.1.3-.2.4-.2.1.1.2.2.3.4.1.2.3.3.5.6l-.6.9c-.2.4-.2.8 0 1.1.4.6.7 1.4.9 2.1.1.4.4.8.8.9l1.2.3v1.3l-1.2.2c-.4.1-.8.4-.8.8-.2.8-.5 1.5-.9 2.1-.2.4-.2.8 0 1.2l.7 1-1 .9-1-.7c-.3-.2-.8-.2-1.2 0-.7.4-1.4.7-2.1.9-.4.1-.8.4-.8.8l-.3 1.2h-1.2l-.3-1.1c-.1-.4-.4-.7-.8-.8-.7-.2-1.5-.5-2.1-.9-.3-.2-.8-.2-1.2 0l-1 .7-.9-.9.7-1c.2-.4.2-.8 0-1.2-.4-.7-.7-1.4-.9-2.1-.1-.4-.4-.7-.8-.8l-1.2-.3v-1.3z"/></svg>