<?xml version="1.0"?>
<svg xmlns="http://www.w3.org/2000/svg" height="512px" viewBox="-48 0 480 480" width="512px"><path d="m383.902344 103.503906c-.042969-.707031-.183594-1.402344-.414063-2.070312-.089843-.257813-.152343-.496094-.265625-.746094-.386718-.871094-.929687-1.664062-1.597656-2.34375l-96-96c-.679688-.667969-1.472656-1.210938-2.34375-1.601562-.242188-.109376-.488281-.175782-.738281-.261719-.679688-.234375-1.386719-.375-2.101563-.417969-.128906.0273438-.273437-.0625-.441406-.0625h-240c-22.082031.0273438-39.9726562 17.917969-40 40v400c.0273438 22.082031 17.917969 39.972656 40 40h304c22.082031-.027344 39.972656-17.917969 40-40v-336c0-.167969-.089844-.320312-.097656-.496094zm-27.214844-7.503906h-60.6875c-4.417969 0-8-3.582031-8-8v-60.6875zm-12.6875 368h-304c-13.253906 0-24-10.746094-24-24v-400c0-13.253906 10.746094-24 24-24h232v72c0 13.253906 10.746094 24 24 24h72v328c0 13.253906-10.746094 24-24 24zm0 0" fill="#f16508"/><path d="m296 232h-8v-40c-.042969-39.746094-32.253906-71.957031-72-72h-48c-39.746094.042969-71.957031 32.253906-72 72v40h-8c-13.253906 0-24 10.746094-24 24v152c0 13.253906 10.746094 24 24 24h208c13.253906 0 24-10.746094 24-24v-152c0-13.253906-10.746094-24-24-24zm-184-40c.039062-30.910156 25.089844-55.960938 56-56h48c30.910156.039062 55.960938 25.089844 56 56v40h-16v-40c-.027344-22.082031-17.917969-39.972656-40-40h-48c-22.082031.027344-39.972656 17.917969-40 40v40h-16zm128 40h-96v-40c0-13.253906 10.746094-24 24-24h48c13.253906 0 24 10.746094 24 24zm64 176c0 4.417969-3.582031 8-8 8h-208c-4.417969 0-8-3.582031-8-8v-152c0-4.417969 3.582031-8 8-8h208c4.417969 0 8 3.582031 8 8zm0 0" fill="#f16508"/><path d="m201.710938 265.160156c-12.03125-2.949218-24.753907-.207031-34.503907 7.441406-9.746093 7.691407-15.367187 19.476563-15.210937 31.894532.15625 12.414062 6.070312 24.054687 16.003906 31.503906v40c0 13.253906 10.746094 24 24 24s24-10.746094 24-24v-40c12.945312-9.710938 18.78125-26.253906 14.792969-41.9375-3.550781-14.300781-14.757813-25.441406-29.082031-28.902344zm2.304687 59.582032c-2.476563 1.433593-4.003906 4.078124-4 6.9375v44.320312c0 4.417969-3.582031 8-8 8s-8-3.582031-8-8v-44.320312c.003906-2.859376-1.523437-5.503907-4-6.9375-6.871094-3.984376-11.328125-11.109376-11.902344-19.035157-.570312-7.921875 2.816407-15.617187 9.046875-20.546875 4.195313-3.355468 9.410156-5.175781 14.785156-5.160156 2.042969.003906 4.082032.25 6.070313.726562 8.441406 2.109376 15.054687 8.671876 17.222656 17.097657 2.714844 10.476562-1.878906 21.480469-11.238281 26.917969zm0 0" fill="#f16508"/><path d="m112 40c0-4.417969-3.582031-8-8-8h-48c-13.253906 0-24 10.746094-24 24v48c0 4.417969 3.582031 8 8 8s8-3.582031 8-8v-48c0-4.417969 3.582031-8 8-8h48c4.417969 0 8-3.582031 8-8zm0 0" fill="#f16508"/></svg>
