<?xml version="1.0" encoding="utf-8"?>
<!-- Generator: Adobe Illustrator 24.3.0, SVG Export Plug-In . SVG Version: 6.00 Build 0)  -->
<svg version="1.1" id="Layer_1" xmlns="http://www.w3.org/2000/svg" xmlns:xlink="http://www.w3.org/1999/xlink" x="0px" y="0px"
	 viewBox="0 0 50 50" style="enable-background:new 0 0 50 50;" xml:space="preserve">
<style type="text/css">
	.st0{fill-rule:evenodd;clip-rule:evenodd;fill:#44AC00;}
</style>
<path class="st0" d="M45.5,8.5c-1,0-1.9,0.4-2.6,1L16.7,31.1L7.8,19c-1.4-1.9-4.1-2.3-6-0.9c-1.9,1.4-2.3,4.2-0.9,6.1c0,0,0,0,0,0
	L12.5,40c1.4,1.9,4.1,2.3,6,0.9c0,0,0.1-0.1,0.1-0.1l29.6-24.4c1.9-1.5,2.2-4.3,0.7-6.2C48.1,9.1,46.8,8.5,45.5,8.5z"/>
</svg>
