<?xml version="1.0" encoding="utf-8"?>
<!-- Generator: Adobe Illustrator 24.3.0, SVG Export Plug-In . SVG Version: 6.00 Build 0)  -->
<svg version="1.1" id="_x30_9" xmlns="http://www.w3.org/2000/svg" xmlns:xlink="http://www.w3.org/1999/xlink" x="0px" y="0px"
	 viewBox="0 0 3467.613 2609.032" enable-background="new 0 0 3467.613 2609.032" xml:space="preserve">
<path fill="#EBF0FF" d="M810.239,2455.734c-56.062,11.235-48.382,67.649-5.042,92.467c20.522,11.752,44.858,15.664,68.562,19.099
	c475.312,68.879,951.743,33.723,1428.686,21.41c34.818-0.899,69.706-0.073,104.338-4.174
	c44.257-5.247,218.823-78.65,126.156-129.902c-17.598-9.733-38.854-10.915-59.198-11.85c-92.154-4.239-184.308-8.343-276.474-12.278
	c-94.666-4.041-189.396-8.084-284.122-6.977c-290.182,3.39-572.913,41.826-863.376,16.311
	C970.268,2432.856,888.013,2440.152,810.239,2455.734z"/>
<path fill="#EBF0FF" d="M3460.026,973.138c-0.408,10.682-0.985,21.411-1.718,32.201c-0.709,10.513-1.562,21.075-2.571,31.697
	c-1.009,10.682-2.175,21.423-3.497,32.201c-16.822,137.972-58.683,283.322-130.042,432.252
	c-36.467,76.093-80.635,153.124-133.106,230.574c-124.827,184.268-342.113,323.333-599.987,418.579
	c-9.624,3.544-19.297,7.041-29.029,10.465c-8.483,3.004-17.014,5.948-25.593,8.855c-2.247,0.757-4.494,1.514-6.753,2.259
	c-12.316,4.145-24.728,8.17-37.211,12.099c-24.656,7.786-49.6,15.187-74.796,22.217c-45.959,12.844-92.771,24.451-140.147,34.833
	c-39.795,8.723-79.998,16.569-120.478,23.562c-86.066,14.863-173.334,25.833-260.373,32.946c-9.961,0.829-19.921,1.586-29.882,2.295
	c-8.699,0.625-17.386,1.214-26.073,1.766c-357.193,22.457-705.698-20.102-947.555-125.08c-15.908-6.897-31.348-14.07-46.307-21.52
	c-18.96-9.432-37.127-19.297-54.453-29.582c-57.133-33.955-105.098-72.573-141.889-115.828
	c-23.61-27.767-46.608-56.268-68.716-85.525c-5.383-7.125-10.718-14.298-15.992-21.52c-7.149-9.781-14.19-19.633-21.111-29.582
	c-44.409-63.754-84.047-130.859-116.164-201.353c-3.256-7.137-6.44-14.31-9.528-21.52c-4.205-9.792-8.267-19.657-12.172-29.582
	c-9.384-23.863-17.879-48.086-25.376-72.693c-12.64-41.477-22.144-84.624-28.44-128.66c-1.021-7.149-1.958-14.322-2.811-21.52
	c-1.118-9.408-2.091-18.852-2.908-28.32c-1.622-18.66-2.667-37.428-3.148-56.244c-0.288-11.391-0.372-22.781-0.228-34.184H1363.89
	V510.138c14.082-3.833,28.14-7.786,42.162-11.847c119.12-34.532,235.897-77.559,348.289-129.394
	c87.183-40.191,175.304-85.273,250.556-145.566c36.491-29.233,87.917-62.504,150.204-93.936v-0.012
	c92.374-46.62,208.623-89.202,335.421-108.631c22.865-3.508,46.079-6.26,69.557-8.134c9.636-0.781,19.309-1.406,29.029-1.886
	c14.467-0.709,29.017-1.07,43.64-1.07c2.054,0,4.121,0.012,6.188,0.024c0.541,0,1.093,0,1.646,0.012
	c1.91,0.012,3.809,0.036,5.719,0.072c2.271,0.036,4.542,0.072,6.813,0.132c1.682,0.036,3.364,0.084,5.058,0.132
	c0.12,0,0.24,0.012,0.373,0.012c1.117,0.036,2.235,0.072,3.352,0.108c1.61,0.048,3.232,0.108,4.854,0.18
	c2.042,0.072,4.097,0.168,6.14,0.264c5.01,0.228,10.021,0.505,15.043,0.841c3.532,0.228,7.065,0.469,10.597,0.757
	c0.529,0.036,1.057,0.072,1.574,0.12c1.646,0.132,3.292,0.264,4.938,0.408c1.129,0.096,2.247,0.192,3.376,0.3
	c1.622,0.132,3.244,0.288,4.866,0.445c12.364,1.177,24.764,2.655,37.176,4.434c1.598,0.228,3.196,0.456,4.794,0.709
	c1.37,0.192,2.752,0.409,4.122,0.625c2.247,0.337,4.506,0.697,6.752,1.07c1.37,0.216,2.74,0.444,4.122,0.685
	c1.718,0.289,3.424,0.589,5.143,0.889c4.565,0.805,9.119,1.646,13.685,2.535c0.985,0.192,1.959,0.385,2.932,0.577
	c1.67,0.325,3.352,0.673,5.022,1.021c0.24,0.036,0.493,0.096,0.745,0.144c1.526,0.312,3.052,0.637,4.59,0.973
	c2.956,0.613,5.899,1.262,8.855,1.935c1.995,0.444,3.989,0.901,5.984,1.37c1.49,0.348,2.98,0.697,4.47,1.069
	c1.37,0.324,2.739,0.661,4.121,0.997c2.307,0.565,4.626,1.142,6.945,1.754c1.778,0.445,3.569,0.901,5.347,1.382
	c1.598,0.42,3.196,0.853,4.806,1.286c1.286,0.348,2.583,0.697,3.869,1.057c1.742,0.48,3.496,0.973,5.239,1.478
	c1.069,0.3,2.127,0.601,3.196,0.913c1.081,0.312,2.163,0.625,3.244,0.949c1.165,0.336,2.343,0.685,3.508,1.045
	c1.61,0.481,3.22,0.961,4.842,1.466c1.466,0.444,2.932,0.901,4.398,1.37c1.406,0.433,2.823,0.889,4.229,1.346
	c1.43,0.445,2.872,0.914,4.301,1.382c0.421,0.144,0.841,0.276,1.262,0.42c1.286,0.421,2.571,0.841,3.857,1.274
	c1.262,0.433,2.523,0.853,3.785,1.286c4.494,1.538,8.976,3.112,13.457,4.746c1.37,0.48,2.74,0.985,4.097,1.502
	c4.59,1.682,9.156,3.437,13.733,5.227c1.73,0.685,3.473,1.37,5.203,2.067c2.151,0.865,4.29,1.73,6.44,2.619
	c3.04,1.25,6.092,2.535,9.144,3.845c1.274,0.541,2.547,1.094,3.821,1.646c0.637,0.276,1.262,0.553,1.898,0.829
	c1.55,0.673,3.1,1.358,4.638,2.055c3.448,1.538,6.897,3.112,10.345,4.71c1.73,0.805,3.448,1.61,5.167,2.427
	c6.524,3.1,13.049,6.308,19.549,9.624c1.85,0.949,3.701,1.899,5.551,2.86c0.673,0.348,1.357,0.697,2.031,1.069
	c1.622,0.853,3.256,1.706,4.878,2.583c0.408,0.204,0.829,0.432,1.237,0.661c1.586,0.853,3.172,1.706,4.758,2.583
	c1.19,0.637,2.379,1.286,3.557,1.958c0.829,0.445,1.646,0.901,2.463,1.37c1.081,0.589,2.163,1.202,3.244,1.814
	c1.37,0.781,2.751,1.562,4.121,2.343c0.697,0.397,1.394,0.793,2.091,1.214c1.334,0.757,2.667,1.538,3.989,2.319
	c0.865,0.493,1.73,0.997,2.583,1.514c1.586,0.937,3.172,1.874,4.746,2.836c2.151,1.285,4.29,2.583,6.428,3.893
	c2.511,1.538,5.01,3.1,7.522,4.686c1.766,1.106,3.52,2.223,5.274,3.352c2.139,1.37,4.266,2.752,6.38,4.145
	c2.127,1.394,4.253,2.8,6.368,4.217c2.115,1.418,4.241,2.848,6.356,4.302c5.635,3.857,11.21,7.774,16.749,11.787
	c1.778,1.273,3.556,2.571,5.323,3.869c1.466,1.081,2.944,2.163,4.398,3.244c3.797,2.812,7.558,5.659,11.294,8.543
	c1.442,1.093,2.872,2.211,4.29,3.316c1.958,1.526,3.917,3.064,5.863,4.614c1.706,1.358,3.4,2.715,5.094,4.073l1.117,0.901
	c1.802,1.466,3.604,2.932,5.395,4.41c1.922,1.586,3.833,3.172,5.743,4.782c1.694,1.418,3.376,2.836,5.059,4.277
	c3.593,3.052,7.161,6.14,10.706,9.264c1.07,0.937,2.127,1.874,3.184,2.824c3.076,2.727,6.14,5.491,9.18,8.279
	c27.539,25.244,53.564,52.411,77.883,81.356c30.783,36.611,58.864,76.069,83.867,118.099
	c21.676,36.395,41.057,74.699,57.926,114.735C3438.062,661.508,3466.442,811.327,3460.026,973.138z"/>
<path fill="#B3C7FF" d="M3460.026,973.138c-0.408,10.682-0.985,21.411-1.718,32.201c-0.709,10.513-1.562,21.075-2.571,31.697
	c-1.009,10.682-2.175,21.423-3.497,32.201c-16.822,137.972-58.683,283.322-130.042,432.252
	c-36.467,76.093-80.635,153.124-133.106,230.574c-124.827,184.268-342.113,323.333-599.987,418.579
	c-9.624,3.544-19.297,7.041-29.029,10.465c-8.483,3.004-17.014,5.948-25.593,8.855c-2.247,0.757-4.494,1.514-6.753,2.259
	c-12.316,4.145-24.728,8.17-37.211,12.099V20.753c22.865-3.508,46.079-6.26,69.557-8.134c9.636-0.781,19.309-1.406,29.029-1.886
	c14.467-0.709,29.017-1.07,43.64-1.07c2.054,0,4.121,0.012,6.188,0.024c0.541,0,1.093,0,1.646,0.012
	c1.91,0.012,3.809,0.036,5.719,0.072c2.271,0.036,4.542,0.072,6.813,0.132c1.682,0.036,3.364,0.084,5.058,0.132
	c0.12,0,0.24,0.012,0.373,0.012c1.117,0.036,2.235,0.072,3.352,0.108c1.61,0.048,3.232,0.108,4.854,0.18
	c2.042,0.072,4.097,0.168,6.14,0.264c5.01,0.228,10.021,0.505,15.043,0.841c3.532,0.217,7.065,0.469,10.597,0.757
	c0.529,0.036,1.057,0.072,1.574,0.12c1.646,0.132,3.292,0.264,4.938,0.408c1.129,0.096,2.247,0.192,3.376,0.3
	c1.622,0.132,3.244,0.288,4.866,0.445c12.364,1.177,24.764,2.655,37.176,4.434c1.598,0.228,3.196,0.456,4.794,0.709
	c1.37,0.192,2.752,0.409,4.122,0.625c2.247,0.337,4.494,0.697,6.752,1.07c1.37,0.216,2.74,0.444,4.122,0.685
	c1.718,0.289,3.424,0.589,5.143,0.889c4.565,0.805,9.119,1.646,13.685,2.535c0.985,0.192,1.959,0.385,2.932,0.577
	c1.67,0.325,3.352,0.673,5.022,1.021c0.24,0.036,0.493,0.096,0.745,0.144c1.526,0.312,3.052,0.637,4.59,0.973
	c2.956,0.613,5.899,1.262,8.855,1.935c1.995,0.444,3.989,0.901,5.984,1.37c1.49,0.348,2.98,0.697,4.47,1.069
	c1.37,0.324,2.739,0.661,4.121,0.997c2.307,0.565,4.626,1.142,6.945,1.754c1.778,0.445,3.569,0.901,5.347,1.382
	c1.598,0.42,3.196,0.853,4.806,1.286c1.286,0.348,2.583,0.697,3.869,1.057c1.742,0.48,3.496,0.973,5.239,1.478
	c1.069,0.3,2.127,0.601,3.196,0.913c1.081,0.312,2.163,0.625,3.244,0.949c1.165,0.336,2.343,0.685,3.508,1.045
	c1.61,0.481,3.22,0.961,4.842,1.466c1.466,0.444,2.932,0.901,4.398,1.37c1.406,0.433,2.823,0.889,4.229,1.346
	c1.43,0.445,2.872,0.914,4.301,1.382c0.421,0.144,0.841,0.276,1.262,0.42c1.286,0.421,2.571,0.841,3.857,1.274
	c1.262,0.433,2.523,0.853,3.785,1.286c4.494,1.538,8.976,3.112,13.457,4.746c1.37,0.48,2.74,0.985,4.097,1.502
	c4.59,1.682,9.156,3.437,13.733,5.227c1.73,0.685,3.473,1.37,5.203,2.067c2.151,0.865,4.29,1.73,6.44,2.619
	c3.04,1.25,6.092,2.535,9.144,3.845c1.274,0.541,2.547,1.094,3.821,1.646c0.637,0.276,1.262,0.553,1.898,0.829
	c1.55,0.673,3.1,1.358,4.638,2.055c3.448,1.526,6.897,3.1,10.345,4.71c1.73,0.805,3.448,1.61,5.167,2.427
	c6.524,3.088,13.049,6.296,19.549,9.624c1.85,0.949,3.701,1.899,5.551,2.86c0.673,0.348,1.357,0.697,2.031,1.069
	c1.622,0.853,3.256,1.706,4.878,2.583c0.408,0.204,0.829,0.432,1.237,0.661c1.586,0.853,3.172,1.706,4.758,2.583
	c1.19,0.637,2.379,1.286,3.557,1.958c0.829,0.445,1.646,0.901,2.463,1.37c1.081,0.589,2.163,1.202,3.244,1.814
	c1.37,0.781,2.751,1.562,4.121,2.343c0.697,0.397,1.394,0.793,2.091,1.214c1.334,0.757,2.667,1.538,3.989,2.319
	c0.865,0.493,1.73,0.997,2.583,1.514c1.586,0.937,3.172,1.874,4.746,2.836c2.151,1.285,4.29,2.583,6.428,3.893
	c2.511,1.538,5.01,3.1,7.522,4.686c1.766,1.106,3.52,2.223,5.274,3.352c2.139,1.37,4.266,2.752,6.38,4.145
	c2.127,1.394,4.253,2.8,6.368,4.217c2.115,1.418,4.241,2.848,6.356,4.302c5.635,3.857,11.21,7.774,16.749,11.787
	c1.778,1.273,3.556,2.571,5.323,3.869c1.466,1.081,2.944,2.163,4.398,3.244c3.797,2.812,7.558,5.659,11.294,8.543
	c1.442,1.093,2.872,2.211,4.29,3.316c1.958,1.526,3.917,3.064,5.863,4.614c1.706,1.358,3.4,2.715,5.094,4.073l1.117,0.901
	c1.802,1.466,3.604,2.932,5.395,4.41c1.922,1.586,3.833,3.172,5.743,4.782c1.694,1.418,3.376,2.836,5.059,4.277
	c3.593,3.052,7.161,6.14,10.706,9.264c1.07,0.937,2.127,1.874,3.184,2.824c3.076,2.727,6.14,5.491,9.18,8.279
	c27.539,25.244,53.564,52.411,77.883,81.356c30.783,36.611,58.864,76.069,83.867,118.099
	c21.676,36.395,41.057,74.699,57.926,114.735C3438.062,661.508,3466.442,811.327,3460.026,973.138z"/>
<path fill="#85A9F9" d="M3460.026,973.138h-899.95V12.619c9.636-0.781,19.309-1.406,29.029-1.886
	c157.593-7.69,325.484,25.016,480.59,131.196c32.73,22.408,63.934,47.196,93.395,74.183c27.539,25.244,53.564,52.411,77.883,81.356
	c30.783,36.611,58.864,76.069,83.867,118.099c21.676,36.395,41.057,74.699,57.926,114.735
	C3438.062,661.508,3466.442,811.327,3460.026,973.138z"/>
<path fill="#85A9F9" d="M3455.737,1037.036c-1.009,10.682-2.175,21.423-3.497,32.201
	c-16.822,137.972-58.683,283.322-130.042,432.252c-36.467,76.093-80.635,153.124-133.106,230.574
	c-124.827,184.268-342.113,323.333-599.987,418.579c-9.624,3.544-19.297,7.041-29.029,10.465V1037.036H3455.737z"/>
<path fill="#F8F9FF" d="M3460.026,973.138c-0.408,10.682-0.985,21.411-1.718,32.201h-869.203V10.732
	c157.593-7.69,325.484,25.016,480.59,131.196c32.73,22.408,63.934,47.196,93.395,74.183c27.539,25.244,53.564,52.411,77.883,81.356
	c30.783,36.611,58.864,76.069,83.867,118.099c21.676,36.395,41.057,74.699,57.926,114.735
	C3438.062,661.508,3466.442,811.327,3460.026,973.138z"/>
<g>
	<path fill="#B3C7FF" d="M2645.532,557.177h-14.449c-5.034,0-9.154-4.119-9.154-9.154V343.768c0-5.035,4.119-9.154,9.154-9.154
		h14.449c5.034,0,9.154,4.119,9.154,9.154v204.256C2654.686,553.058,2650.566,557.177,2645.532,557.177z"/>
	<path fill="#FFFFFF" d="M2629.154,543.652h-14.449c-5.035,0-9.154-4.119-9.154-9.154V330.242c0-5.035,4.119-9.154,9.154-9.154
		h14.449c5.034,0,9.154,4.119,9.154,9.154v204.256C2638.307,539.532,2634.188,543.652,2629.154,543.652z"/>
</g>
<path opacity="0.39" fill="#B3C7FF" enable-background="new    " d="M2527.731,2172.222c-12.316,4.145-24.728,8.17-37.211,12.099
	c-24.656,7.786-49.6,15.187-74.796,22.217c-45.959,12.844-92.771,24.451-140.147,34.833c-39.795,8.723-79.998,16.569-120.478,23.562
	l49.443-409.952l57.349-475.448l71.196-717.353h49.967c0.469,3.965,81.38,698.969,107.465,884.51
	C2510.032,1685.504,2525.424,2009.69,2527.731,2172.222z"/>
<path opacity="0.39" fill="#B3C7FF" enable-background="new    " d="M2391.116,643.148l0.288,4.133l104.161,1518.596
	c-12.688,5.143-25.485,10.129-38.377,14.983c-93.744,35.349-192.294,63.345-292.718,84.071V129.384
	c92.374-46.62,208.623-89.202,335.421-108.631c22.865-3.508,46.079-6.26,69.557-8.134c9.636-0.781,19.309-1.406,29.029-1.886
	c31.324-1.526,63.056-1.454,95.03,0.468c93.719,5.635,189.398,27.251,282.433,71.383
	C2832.02,443.321,2391.116,643.148,2391.116,643.148z"/>
<path fill="#F8F9FF" d="M3452.24,1069.237c-16.822,137.972-58.683,283.322-130.042,432.252
	c-36.467,76.093-80.635,153.124-133.106,230.574c-124.827,184.268-342.113,323.333-599.987,418.579V1069.237H3452.24z"/>
<g>
	
		<line fill="none" stroke="#FFFFFF" stroke-width="7.1195" stroke-miterlimit="10" x1="2736.116" y1="548.945" x2="2970.837" y2="308.862"/>
	
		<line fill="none" stroke="#FFFFFF" stroke-width="7.1195" stroke-miterlimit="10" x1="3163.091" y1="216.111" x2="2941.648" y2="442.612"/>
	
		<line fill="none" stroke="#FFFFFF" stroke-width="7.1195" stroke-miterlimit="10" x1="3240.974" y1="297.467" x2="3038.251" y2="504.815"/>
	
		<line fill="none" stroke="#FFFFFF" stroke-width="7.1195" stroke-miterlimit="10" x1="3096.578" y1="649.055" x2="3331.299" y2="408.972"/>
	<polyline fill="none" stroke="#FFFFFF" stroke-width="7.1195" stroke-miterlimit="10" points="3382.768,530.3 3382.768,530.312 
		3288.267,626.964 	"/>
</g>
<g opacity="0.52">
	<path fill="#9BDAF9" d="M2696.806,642.139c-27.975-29.693-21.08-79.737,2.924-112.724c27.029-37.144,71.162-59.147,116.317-67.587
		c66.594-12.447,141.287,4.905,186.206,55.62c12.873,14.535,23.155,31.455,37.757,44.251c30.758,26.954,75.37,31.161,116.087,27.326
		c23.388-2.202,46.788-6.62,70.201-4.699c35.15,2.884,67.496,19.784,97.771,37.874c35.807,21.395,73.332,49.339,80.726,90.391
		c7.25,40.248-17.057,78.94-42.115,111.26s-53.306,66.213-55.755,107.036c-1.895,31.584,12.23,61.825,16.078,93.232
		c7.709,62.916-28.905,125.279-74.74,165.984c-22.313,19.816-53.399,32.903-82.131,24.842
		c-21.397-6.003-38.549-23.119-48.196-43.139c-13.91-28.869-13.835-62.288-9.723-93.397c2.148-16.249,5.051-33.962-3.283-48.075
		c-4.865-8.237-12.996-14.035-21.461-18.491c-51.844-27.288-120.727-4.936-150.307,44.589c-7.759,12.99-13.136,27.725-23.794,38.464
		c-13.919,14.026-36.222,18.983-54.89,12.564c-18.816-6.47-33.231-24.246-35.676-43.993c-1.946-15.723,3.123-31.364,7.893-46.472
		c13.221-41.868,23.621-84.268,34.038-126.846c10.098-41.272,18.69-86.346,2.972-127.39c-9.658-25.22-27.828-46.173-48.677-62.92
		c-22.306-17.918-47.78-23.064-74.233-32.369C2724.764,661.832,2708.659,654.721,2696.806,642.139z"/>
</g>
<g>
	<path fill="#B3C7FF" d="M1363.888,510.138v769.091H341.97c-0.144,11.403-0.06,22.793,0.228,34.184H1406.05V498.291
		C1392.028,502.352,1377.97,506.305,1363.888,510.138z"/>
	<path fill="#85A9F9" d="M1363.888,510.138v769.091H341.97c0.072-6.849,0.228-13.686,0.469-20.534h1000.915V515.629
		C1350.202,513.827,1357.051,512.001,1363.888,510.138z"/>
	<path fill="#F2F4FF" d="M1343.354,515.629v743.065H342.439c3.196-92.987,20.57-185.769,52.952-271.463
		c15.392-40.756,34.184-79.902,56.448-116.705c98.874-163.445,272.532-274.214,464.465-284.079
		c102.287-5.263,201.065-19.549,301.417-40.924C1259.787,536.572,1301.684,526.611,1343.354,515.629z"/>
	<g>
		
			<line fill="none" stroke="#FFFFFF" stroke-width="7.1195" stroke-miterlimit="10" x1="452.338" y1="1043.832" x2="687.059" y2="803.749"/>
		
			<line fill="none" stroke="#FFFFFF" stroke-width="7.1195" stroke-miterlimit="10" x1="657.874" y1="937.5" x2="892.596" y2="697.417"/>
		
			<line fill="none" stroke="#FFFFFF" stroke-width="7.1195" stroke-miterlimit="10" x1="754.468" y1="999.702" x2="989.19" y2="759.619"/>
		
			<line fill="none" stroke="#FFFFFF" stroke-width="7.1195" stroke-miterlimit="10" x1="812.8" y1="1143.942" x2="1047.521" y2="903.859"/>
		
			<line fill="none" stroke="#FFFFFF" stroke-width="7.1195" stroke-miterlimit="10" x1="1013.214" y1="854.644" x2="1247.935" y2="614.561"/>
		
			<line fill="none" stroke="#FFFFFF" stroke-width="7.1195" stroke-miterlimit="10" x1="1004.494" y1="1121.856" x2="1239.215" y2="881.773"/>
	</g>
</g>
<g>
	<path fill="#B3C7FF" d="M1894.726,1369.657v958.333h-55.955v-26.05c-357.193,22.457-705.698-20.102-947.555-125.08
		c-15.908-6.897-31.348-14.07-46.307-21.52c-18.96-9.432-37.127-19.297-54.453-29.582
		c-57.133-33.955-105.098-72.573-141.889-115.828c-23.61-27.767-46.608-56.268-68.716-85.525
		c-5.383-7.125-10.718-14.298-15.992-21.52c-7.149-9.781-14.19-19.633-21.111-29.582c-44.409-63.754-84.047-130.859-116.164-201.353
		c-3.256-7.137-6.44-14.31-9.528-21.52c-4.205-9.792-8.267-19.657-12.172-29.582c-9.384-23.863-17.879-48.086-25.376-72.693
		c-12.64-41.477-22.144-84.624-28.44-128.66c-1.021-7.149-1.958-14.322-2.811-21.52c-1.118-9.408-2.091-18.852-2.908-28.32h1549.377
		V1369.657z"/>
	<g>
		<path fill="#F2F4FF" d="M1864.844,1397.977v222.873H404.882c-9.384-23.863-17.879-48.086-25.376-72.693
			c-12.64-41.477-22.144-84.624-28.44-128.66c-1.021-7.149-1.958-14.322-2.811-21.52H1864.844z"/>
		<path fill="#F2F4FF" d="M1864.844,1650.431v222.873H542.747c-44.409-63.754-84.047-130.859-116.164-201.353
			c-3.256-7.137-6.44-14.31-9.528-21.52H1864.844z"/>
		<path fill="#F2F4FF" d="M1864.844,1902.886v222.873H790.455c-57.133-33.955-105.098-72.573-141.889-115.828
			c-23.61-27.767-46.608-56.268-68.716-85.525c-5.383-7.125-10.718-14.298-15.992-21.52H1864.844z"/>
		<path fill="#F2F4FF" d="M1864.844,2155.341v222.873h-26.073v-76.274c-357.193,22.457-705.698-20.102-947.555-125.08
			c-15.908-6.897-31.348-14.07-46.307-21.52L1864.844,2155.341L1864.844,2155.341z"/>
	</g>
	<path fill="#85A9F9" d="M1864.844,1397.977v222.873h-26.073v-201.353H351.066c-1.021-7.149-1.958-14.322-2.811-21.52H1864.844z"/>
	<path fill="#85A9F9" d="M1864.844,1650.431v222.873h-26.073v-201.353H426.582c-3.256-7.137-6.44-14.31-9.528-21.52H1864.844z"/>
	<path fill="#85A9F9" d="M1864.844,1902.886v222.873h-26.073v-201.353H579.85c-5.383-7.125-10.718-14.298-15.992-21.52H1864.844z"/>
	<path fill="#85A9F9" d="M1864.844,2155.341v222.873h-26.073V2176.86H891.216c-15.908-6.897-31.348-14.07-46.307-21.52
		L1864.844,2155.341L1864.844,2155.341z"/>
</g>
<g>
	<g>
		<path fill="#92E7E0" d="M1664.803,1003.488c-3.756,45.637-13.626,109.92-54.326,123.104
			c-40.702,13.179-51.217,46.098-74.663-26.444c0,0-37.499-177.512-9.062-241.607c0,0,24.585,6.081,42.72,26.953
			c0,0-8.905-32.492-35.106-59.22c0,0,9.448-34.331,24.611-51.093c0,0,34.277,35.715,47.278,61.995c0,0-17.481,23.897-21.875,52.624
			c0,0,28.405-14.681,43.8-10.816C1628.18,878.983,1668.558,957.851,1664.803,1003.488z"/>
		<g opacity="0.47">
			<path fill="#92E7E0" d="M1776.079,966.618c0,0-18.283,4.256-35.434,11.982c0,0,19.859,4.972,29.008,12.045
				c0,0-26.754,114.505-60.655,133.954l-68.557,0.515l-56.087,0.418c0,0,44.179-105.919,68.799-131.329
				c0,0,16.735-3.134,35.586,17.341c0,0-2.517-33.388-14.678-43.966c0,0,41.166-52.689,115.867-78.878
				C1789.928,888.701,1782.397,946.042,1776.079,966.618z"/>
		</g>
		<path fill="#58C9D1" d="M1700.949,1106.815c0,0,29.877-42.149,85.185-65.476c0,0-3.731,76.642-17.286,80.125
			C1755.294,1124.946,1700.949,1106.815,1700.949,1106.815z"/>
		<path fill="#58C9D1" d="M1664.803,1003.488c-3.756,45.637-13.626,109.92-54.326,123.104c-11.283-74.98-51.5-351.412-51.5-351.412
			s34.277,35.715,47.278,61.995c0,0-17.481,23.897-21.875,52.624c0,0,28.405-14.681,43.8-10.816
			C1628.18,878.983,1668.558,957.851,1664.803,1003.488z"/>
		<g opacity="0.47">
			<path fill="#58C9D1" d="M1776.079,966.618c0,0-18.283,4.256-35.434,11.982c0,0,19.859,4.972,29.008,12.045
				c0,0-26.754,114.505-60.655,133.954l-68.557,0.515c19.094-38.537,105.895-210.214,149.487-236.413
				C1789.928,888.701,1782.397,946.042,1776.079,966.618z"/>
		</g>
		<path fill="none" stroke="#1A4EA2" stroke-width="1.3672" stroke-miterlimit="10" d="M1640.441,1125.113
			c0,0,94.347-196.233,149.487-236.413"/>
		<path fill="#1A4EA2" d="M1610.477,1126.592l-6.96-43.849l-6.775-43.877l-13.224-87.803c-4.264-29.289-8.586-58.57-12.719-87.878
			l-6.12-43.974c-1.961-14.669-3.907-29.341-5.701-44.031c2.055,14.656,4.263,29.289,6.484,43.92l6.567,43.907l13.086,87.821
			l12.852,87.856l6.328,43.943L1610.477,1126.592z"/>
		<path fill="#1A4EA2" d="M1585.379,958.142c0.226-2.977,0.84-5.912,1.502-8.829c0.385-1.444,0.781-2.889,1.223-4.319
			c0.485-1.415,0.903-2.858,1.446-4.255c0.549-1.393,1.044-2.813,1.669-4.177l1.89-4.085l2.145-3.96
			c0.708-1.325,1.57-2.559,2.348-3.844l1.219-1.894l1.336-1.814c0.912-1.192,1.735-2.455,2.721-3.589
			c1.978-2.26,3.869-4.598,6.11-6.606l1.617-1.561l0.808-0.78l0.866-0.717l3.47-2.85c1.136-0.974,2.42-1.756,3.654-2.596
			c1.237-0.836,2.484-1.655,3.735-2.46c-4.658,3.724-9.285,7.445-13.264,11.836c-4.103,4.254-7.716,8.954-10.914,13.905
			c-3.257,4.921-5.959,10.198-8.257,15.644c-0.604,1.351-1.084,2.751-1.634,4.126c-0.51,1.389-0.96,2.801-1.428,4.207
			C1586.727,952.348,1585.965,955.219,1585.379,958.142z"/>
		<g opacity="0.5">
			<path fill="#1A4EA2" d="M1579.276,916.8c-2.745-4.002-5.758-7.786-8.88-11.455c-3.152-3.644-6.48-7.125-10.025-10.363
				l-2.696-2.386c-0.913-0.778-1.881-1.487-2.812-2.245c-0.471-0.37-0.927-0.763-1.411-1.116l-1.474-1.03
				c-0.998-0.663-1.936-1.425-2.968-2.034l-3.078-1.872c-1.017-0.645-2.127-1.111-3.187-1.683c-2.089-1.234-4.405-1.93-6.619-2.955
				c4.697,1.195,9.315,2.949,13.539,5.434c4.21,2.487,8.19,5.386,11.793,8.694c3.588,3.321,6.921,6.909,9.911,10.762
				C1574.361,908.396,1577.065,912.473,1579.276,916.8z"/>
		</g>
		<path opacity="0.5" fill="none" stroke="#1A4EA2" stroke-width="1.3672" stroke-miterlimit="10" enable-background="new    " d="
			M1595.938,1029.271c0,0-12.873-35.076-48.14-44.31"/>
	</g>
	<path fill="#F49F4A" d="M1779.102,1170.718v143.391c0,30.471-24.703,55.174-55.174,55.174h-141.409
		c-30.471,0-55.175-24.704-55.175-55.174v-143.391c0-30.471,24.704-55.174,55.175-55.174h141.409
		C1754.399,1115.544,1779.102,1140.247,1779.102,1170.718z"/>
	<path fill="#E58128" d="M1779.102,1170.718v108.511c-10.814-8.146-30.843-20.955-68.295-29.81
		c-45.875-10.838-144.365-23.166-183.463-27.839v-50.861c0-30.471,24.704-55.174,55.175-55.174h141.409
		C1754.399,1115.544,1779.102,1140.247,1779.102,1170.718z"/>
	<rect x="1510.856" y="1111.387" fill="#FFC38D" width="284.732" height="94.66"/>
</g>
<path fill="#EBF0FF" d="M1077.354,294.314c-36.351,97.494,97.128,145.402,172.446,150.542
	c141.812,9.68,288.399-49.681,408.885-118.96c105.747-60.804,202.664-135.564,301.339-207.277
	c23.502-17.081,48.616-36.045,56.744-63.939c-126.287,12.028-245.843,57.017-365.346,96.704
	c-122.235,40.595-246.073,56.006-374.877,43.309C1192.025,186.363,1110.442,205.574,1077.354,294.314z"/>
<g>
	
		<rect x="2101.442" y="1009.976" transform="matrix(0.7562 -0.6544 0.6544 0.7562 -33.3307 1963.9867)" fill="#0F2470" width="1034.613" height="33.485"/>
	<path fill="#FFC890" d="M2355.106,1059.675c0,9.216-29.726,21.52-27.671,31.756c2.055,10.249,7.173,53.288-4.097,72.753
		c-7.966,13.77-34.869,22.409-49.6,30.988c-3.052,1.79-5.575,3.557-7.305,5.383c-0.012,0.012-0.012,0.012-0.012,0.012
		s0,0-0.012,0.012c-1.73,1.814-2.655,3.677-2.499,5.623c0.312,4.037,4.65,13.421,8.795,24.523
		c-17.398,24.007-56.544,50.981-56.544,50.981s-42.859,4.59-72.296-1.85c-7.137-4.109-11.114-9.949-11.114-18.323
		c0-16.761,7.498-31.901,7.594-49.263c0.024-5.143-0.589-10.465-2.247-16.089c-2.655-9.072-8.002-18.912-17.65-29.942
		c-35.866-40.984-10.249-223.377,105.543-212.107c0,0,37.92-4.097,56.364,19.465c0.144,0.18,0.276,0.36,0.408,0.541
		c18.071,23.526,20.198,55.895,35.445,65.039C2333.587,1048.404,2355.106,1050.447,2355.106,1059.675z"/>
	<path fill="#FF9D6C" d="M2254.177,990.394c10.405-13.89,21.688-15.788,28.584-16.257c-0.132-0.18-0.265-0.36-0.408-0.541
		c-18.444-23.562-56.364-19.465-56.364-19.465c-115.792-11.27-141.409,171.123-105.543,212.107
		c9.648,11.03,14.995,20.871,17.65,29.942c16.81-0.625,57.229-4.578,74.604-27.659c13.436-17.852,18.58-27.64,18.972-35.475
		c7.706,2.908,20.906,2.078,23.976-0.821c3.798-3.587,8.018-6.54-7.806-4.431c-12.379,1.651-17.947-4.991-19.784-7.961
		c-0.237-0.451-0.48-0.906-0.735-1.369c-7.161-13.048-8.903-45.274,2.932-42.138c11.835,3.124,35.566,29.089,37.356,15.212
		S2234.1,1017.188,2254.177,990.394z"/>
	<path d="M2272.705,1230.725c-17.398,24.007-56.544,50.981-56.544,50.981s-42.859,4.59-72.296-1.85
		c-7.137-4.109-11.114-9.949-11.114-18.323c0-16.761,7.498-31.901,7.594-49.263c0,0,21.339,17.098,63.705,7.486
		c41.718-9.468,61.747-18.888,62.36-19.177c-1.73,1.814-2.655,3.677-2.499,5.623
		C2264.222,1210.239,2268.56,1219.623,2272.705,1230.725z"/>
	<path fill="#FFC890" d="M2711.458,992.341c-3.436,9.228-47.076,77.259-52.844,91.857c-5.755,14.599-1.922,156.007-3.46,218.643
		c-1.526,62.636-27.275,119.889-58.022,126.041c-13.133,2.631-35.385,1.033-56.568-1.646c-21.94-2.8-42.726-6.753-51.041-8.411
		c-2.439-0.481-3.809-0.769-3.809-0.769c-7.582,0.457-14.07-1.418-19.873-5.01c-13.001-8.038-22.517-24.74-33.054-43.364
		c-15.26-26.914,10.646-78.364,23.706-91.052c3.544-3.448,7.786-5.863,12.063-7.546c11.487-4.554,23.322-3.905,23.322-3.905
		s6.513,1.586,15.296,3.593c17.05,3.905,42.666,9.372,45.754,7.87c0.012-0.012,0.012-0.012,0.012-0.012
		c4.614-2.295,59.572-196.355,59.572-196.355s-14.226-31.516-16.148-46.884c-1.923-15.368,15.379-39.579,22.288-53.024
		c6.921-13.457,4.999-28.44,15.368-23.058c10.381,5.383,2.691,35.349,10.381,44.962c7.69,9.6,61.963-31.348,61.963-31.348
		s1.202,1.43,2.523,3.713C2711.097,980.433,2713.632,986.573,2711.458,992.341z"/>
	<path fill="#FF9D6C" d="M2549.683,1310.447c5.803,21.976-45.202-22.396-51.005-8.291c-5.804,14.094-9.961,93.299,12.856,110.313
		c8.423,6.272,20.186,10.802,29.029,14.767c-21.94-2.8-42.726-6.753-51.041-8.411c-2.439-0.481-3.809-0.769-3.809-0.769
		c-7.582,0.457-14.07-1.418-19.873-5.01c-13.001-8.038-22.517-24.74-33.054-43.364c-15.26-26.914,10.646-78.364,23.706-91.052
		c3.544-3.448,7.786-5.863,12.063-7.546c11.487-4.554,23.322-3.905,23.322-3.905s6.513,1.586,15.296,3.593
		c17.05,3.905,42.666,9.372,45.754,7.87C2552.518,1279.099,2544.012,1288.988,2549.683,1310.447z"/>
	<path d="M2507.173,1270.772c0,0-12.256-0.204-17.639,12.087c-5.371,12.304-16.521,116.285-0.012,135.966
		c-2.439-0.481-3.809-0.769-3.809-0.769c-7.582,0.457-14.07-1.418-19.873-5.01c-7.822-29.234-19.958-103.476,2.716-141.962
		c11.487-4.554,23.322-3.905,23.322-3.905S2498.39,1268.766,2507.173,1270.772z"/>
	<path fill="#FFC890" d="M2029.646,1577.909c-6.573,0-27.107-7.354-51.173-18.083c-40.48-18.071-90.957-45.706-101.818-63.994
		c-11.078-18.66,18.504-55.355,41.261-79.386c12.821-13.541,23.478-23.057,23.478-23.057s142.526,16.281,149.783,43.063
		C2098.446,1463.234,2047.285,1577.909,2029.646,1577.909z"/>
	<g>
		<path fill="#FFC890" d="M1864.848,2313.898c0,0-32.577,26.987-33.581,43.325c-1.005,16.338-48.661,0.05-53.658-15.879
			c-4.996-15.928,8.922-35.609,8.922-35.609s20.005-8.945,40.126-35.277C1846.779,2244.126,1864.848,2313.898,1864.848,2313.898z"/>
		<g>
			<path fill="#454B6B" d="M1730.441,2332.88c-2.418,2.742-4.47,5.68-5.57,8.569l165.271,161.373c0,0,5.541,2.676,14.099-3.047
				c1.985-1.33,4.133-3.11,6.41-5.482c12.099-12.599-39.776-83.875-51.956-112.64c-15.749-37.177-20.578-28.317-20.578-28.317
				s-31.301-14.008-49.197-47.243c0,0,4.866-23.582-43.089,13.529C1745.831,2319.622,1736.872,2325.558,1730.441,2332.88z"/>
			<path fill="#20307B" d="M1730.441,2332.88c-2.418,2.742-4.47,5.68-5.57,8.569l165.271,161.373c0,0,5.541,2.676,14.099-3.047
				L1730.441,2332.88z"/>
			<path fill="#FFFFFF" d="M1844.603,2395.918c0.615,0.591,1.531,0.666,2.082,0.157c6.825-6.297,14.998-7.391,15.08-7.402
				c0.809-0.102,1.288-0.854,1.07-1.681s-1.049-1.414-1.858-1.312c-0.369,0.046-9.104,1.217-16.515,8.055
				c-0.57,0.525-0.534,1.476,0.08,2.121C1844.562,2395.878,1844.583,2395.898,1844.603,2395.918z"/>
			<path fill="#FFFFFF" d="M1858.139,2413.442c0.615,0.591,1.531,0.666,2.082,0.157c6.658-6.142,12.231-6.131,12.286-6.13
				c0.826,0.013,1.42-0.646,1.322-1.474c-0.097-0.829-0.841-1.516-1.668-1.54c-0.269-0.008-6.666-0.113-14.163,6.805
				c-0.57,0.525-0.534,1.476,0.08,2.121C1858.098,2413.402,1858.119,2413.423,1858.139,2413.442z"/>
			<path fill="#FFFFFF" d="M1832.589,2376.379c0.619,0.594,1.54,0.666,2.089,0.151c11.176-10.467,18.726-3.974,18.801-3.907
				c0.666,0.593,1.617,0.6,2.126,0.015c0.508-0.584,0.363-1.533-0.284-2.133c-0.396-0.353-9.85-8.507-22.88,3.697
				c-0.566,0.53-0.524,1.48,0.094,2.123C1832.552,2376.344,1832.57,2376.361,1832.589,2376.379z"/>
		</g>
	</g>
	<g>
		<path fill="#FFC890" d="M2360.958,2360.534c0,0-5.491,41.945,4.895,54.597c10.386,12.652-35.611,33.163-50.114,24.896
			s-17.706-32.158-17.706-32.158s8.565-20.171,5.377-53.157C2300.223,2321.727,2360.958,2360.534,2360.958,2360.534z"/>
		<g>
			<path fill="#454B6B" d="M2275.425,2465.937c0.095,3.655,0.593,7.204,1.753,10.068l230.919,5.697c0,0,5.881-1.812,8.253-11.83
				c0.548-2.325,0.91-5.092,0.964-8.38c0.285-17.465-86.235-34.362-114.739-47.14c-36.845-16.512-34.35-6.734-34.35-6.734
				s-32.464,11.047-68.198-1.114c0,0-12.489-20.586-22.353,39.243C2277.672,2445.749,2275.151,2456.196,2275.425,2465.937z"/>
			<path fill="#20307B" d="M2275.425,2465.937c0.095,3.655,0.593,7.204,1.753,10.068l230.919,5.697c0,0,5.881-1.812,8.253-11.83
				L2275.425,2465.937z"/>
			<path fill="#FFFFFF" d="M2401.964,2434.396c0.853,0.014,1.575-0.555,1.632-1.302c0.713-9.258,5.955-15.624,6.007-15.687
				c0.523-0.626,0.362-1.503-0.36-1.96c-0.722-0.458-1.731-0.322-2.254,0.304c-0.239,0.285-5.84,7.089-6.614,17.143
				c-0.06,0.773,0.613,1.444,1.502,1.499C2401.906,2434.395,2401.935,2434.396,2401.964,2434.396z"/>
			<path fill="#FFFFFF" d="M2423.808,2438.019c0.852,0.014,1.575-0.555,1.632-1.302c0.696-9.032,4.785-12.817,4.827-12.854
				c0.614-0.553,0.6-1.44-0.035-1.98c-0.635-0.541-1.648-0.538-2.271,0.007c-0.202,0.177-4.96,4.456-5.742,14.626
				c-0.06,0.773,0.613,1.444,1.502,1.499C2423.751,2438.017,2423.78,2438.018,2423.808,2438.019z"/>
			<path fill="#FFFFFF" d="M2379.861,2428.263c0.857,0.014,1.581-0.561,1.633-1.312c1.061-15.275,11.012-15.659,11.112-15.66
				c0.892-0.019,1.593-0.662,1.568-1.436c-0.026-0.774-0.778-1.37-1.66-1.369c-0.531,0.011-13.007,0.474-14.243,18.284
				c-0.054,0.773,0.624,1.441,1.514,1.491C2379.811,2428.261,2379.836,2428.262,2379.861,2428.263z"/>
		</g>
	</g>
	<path fill="#700000" d="M2274.219,965.691c-10.201-3.797-18.251-0.18-23.922,7.918c-1.274,1.826-2.439,3.881-3.473,6.128
		c-4.554,9.925-6.705,23.646-6.2,38.269c0.337,9.792,3.016,19.381,6.452,28.224c8.051,20.606,20.318,37.151,17.17,42.655
		c-4.494,7.882-26.434-36.563-46.692-11.811c-20.258,24.752,8.435,55.703,8.435,55.703c-16.305,60.761-84.949,57.938-118.135,51.75
		c-4.77-0.889-9.504-3.004-14.118-6.128c-0.925-0.625-1.838-1.286-2.751-1.983c-5.515-4.217-10.85-9.804-15.884-16.353h-0.012
		c-8.086-10.477-15.428-23.382-21.555-36.959c-1.814-4.013-3.533-8.086-5.119-12.184c-5.683-14.611-9.865-29.39-12.015-42.282
		c-6.236-37.416,49.719-103.08,119.721-126.137c12.075-3.977,24.571-6.681,37.248-7.762c31.06-2.643,50.224,0.649,62.047,5.96
		C2276.358,950.059,2274.219,965.691,2274.219,965.691z"/>
	<path fill="#4C0000" d="M2274.219,965.691c-22.649-8.423-34.725,19.681-33.595,52.315c1.129,32.621,28.128,63.008,23.622,70.879
		c-4.494,7.882-26.434-36.563-46.692-11.811c-20.258,24.752,8.435,55.703,8.435,55.703c-16.305,60.761-84.949,57.938-118.135,51.75
		c-20.714-3.857-40.552-30.94-54.321-61.423c14.61,16.653,50.212,53.937,97.637,22.048
		c52.255-35.145,60.005-187.031,104.245-204.453C2276.358,950.059,2274.219,965.691,2274.219,965.691z"/>
	<path fill="#FF9D6C" d="M2029.646,1577.909c-6.573,0-27.107-7.354-51.173-18.083c-3.725-31.732,10.297-76.85-5.131-88.421
		c-15.296-11.462-41.357-39.434-55.427-54.958c12.821-13.541,23.478-23.057,23.478-23.057s142.526,16.281,149.783,43.063
		C2098.446,1463.234,2047.285,1577.909,2029.646,1577.909z"/>
	<path d="M1926.173,1407.952c0,0,22.586,35.76,45.73,47.866c23.144,12.106,41.708,42.75,40.815,49.616
		c-0.893,6.866,27.548-9.737,29.685-26.828c2.136-17.091-11.394-34.894-11.394-34.894l-91.507-50.323L1926.173,1407.952z"/>
	<path fill="#FEBD57" d="M2481.604,1290.237c-3.52,26.938-20.522,120.189,4.109,127.819c0,0,4.686,11.138-53.372-11.727
		c0,0,3.521,117.883-9.384,128.444c-12.904,10.549-351.785-42.234-387.039-53.961c-29.005-9.648-65.52-32.417-94.525-62.083
		c-6.248-6.38-12.148-13.073-17.542-20.03c0,0,59.5-88.097,110.457-133.503c11.823-10.549,23.177-18.78,33.234-23.094
		c17.723-7.594,31.156-13.649,41.357-18.011c0.012-0.012,0.012-0.012,0.012-0.012c20.534-8.783,27.996-10.742,30.988-4.626
		c0,0,21.483,16.209,50.212,15.62c28.74-0.589,73.798-28.873,73.798-28.873s19.645-5.851,46.668-1.189h0.012
		c11.246,1.935,23.778,5.695,36.707,12.46c7.545,3.953,16.929,7.51,27.299,10.754c50.104,15.704,123.554,31.047,126.954,41.248
		C2501.549,1269.474,2485.125,1263.299,2481.604,1290.237z"/>
	<path fill="#FF8C3E" d="M2422.957,1534.774c-12.904,10.549-351.785-42.234-387.039-53.961
		c-29.005-9.648-65.52-32.417-94.525-62.083c1.31,0.493,48.878,18.311,59.284-8.88c6.849-17.879,16.629-92.326,33.631-144.653
		c11.823-10.549,23.177-18.78,33.234-23.094c17.723-7.594,31.156-13.649,41.357-18.011c-0.505,1.574-37.764,117.09-26.698,162.411
		c11.138,45.634,59.236,73.197,103.813,72.609c44.565-0.589,87.171-39.147,96.748-65.724
		c13.819-38.351,1.466-154.061,27.815-188.377h0.012c11.246,1.935,23.778,5.695,36.707,12.46c7.545,3.953,16.929,7.51,27.299,10.754
		c-0.36,1.887-0.865,3.785-1.49,5.671c-6.452,19.357-28.741,135.125,7.029,152.607c35.782,17.482,52.207,19.825,52.207,19.825
		S2435.862,1524.212,2422.957,1534.774z"/>
	<path fill="#1A4EA2" d="M2449.343,2095.458c-2.343,38.125-48.975,258.102-48.975,258.102
		c-31.095,26.987-123.602-2.199-123.602-2.199c-3.508-49.852,1.91-168.515-3.953-210.16
		c-5.864-41.645-76.826-236.943-76.826-236.943s-23.466,139.006-31.672,174.776c-8.219,35.782-25.22,69.208-79.77,124.924
		c-54.537,55.715-205.27,130.787-205.27,130.787c-17.158-6.224-30.074-14.671-39.759-23.538
		c-24.103-22.084-28.272-46.836-28.272-46.836c31.673-53.961,165.98-178.885,168.912-202.35
		c2.932-23.454,1.165-129.61,5.863-244.561c1.898-46.547,10.814-114.206,13.83-152.679c0.493-6.296-12.087-21.063-11.571-27.191
		c4.121-48.963,15.644-58.431,20.618-101.434c9.384-81.308,40.299-283.118,57.938-299.327c10.153-9.324,22.577-12.147,31.288-12.856
		c6.404-0.517,10.79,0.108,10.79,0.108c-15.476,6.14-70.698,142.37-23.19,205.703c22.529,30.038,56.412,41.885,90.416,42.763
		c37.668,0.985,75.48-11.475,98.142-27.515c43.111-30.495,33.727-159.516,32.55-195.886c-1.177-36.359,19.357-43.508,19.357-43.508
		c17.458,1.298,27.539,7.786,32.838,12.833c3.617,3.436,5.01,6.212,5.01,6.212c-19.621,4.265-10.874,57.313-14.983,97.829
		c-4.097,40.516-14.658,129.562,1.177,149.507c15.836,19.934,81.14,21.087,81.14,21.087c2.788,0.493,4.734,6.2,6.056,15.115
		c4.89,32.946,1.37,109.676,1.37,128.6c0,24.043-8.807,16.425-11.739,22.288c-2.932,5.863,7.63,116.116,12.905,150.144
		C2445.246,1843.268,2451.698,2057.333,2449.343,2095.458z"/>
	<path fill="none" stroke="#000000" stroke-width="0.949" stroke-miterlimit="10" d="M2012.426,1659.531
		c0,0,39.532,38.975,169.262,33.964s224.94-33.964,224.94-33.964"/>
	<path fill="#0F2470" d="M2195.987,1904.258c0,0-23.466,139.006-31.672,174.776c-8.219,35.782-25.22,69.208-79.77,124.924
		c-54.537,55.715-205.27,130.787-205.27,130.787c-17.158-6.224-30.074-14.671-39.759-23.538
		c58.731-37.716,242.145-158.963,271.463-220.554c35.001-73.51,33.006-232.029,47.004-255.531
		C2171.98,1811.62,2195.987,1904.258,2195.987,1904.258z"/>
	<path d="M2264.246,1088.884c-4.494,7.882-26.434-36.563-46.692-11.811c-20.258,24.752,8.435,55.703,8.435,55.703
		c-16.305,60.761-84.949,57.938-118.135,51.75c-11.487-2.139-22.709-11.415-32.754-24.463
		c103.776,23.31,115.528-62.708,127.627-87.316c11.943-24.319,43.568-26.47,44.349-26.518
		C2255.127,1066.836,2267.394,1083.381,2264.246,1088.884z"/>
	<path fill="#4C0000" d="M2250.297,973.609c-1.274,1.826-2.439,3.881-3.473,6.128c-1.045-0.312-61.567-18.311-112.151,48.254
		c-41.321,54.369-42.126,125.392-40.937,150.408c-0.925-0.625-1.838-1.286-2.751-1.983c-5.563-21.087-14.094-68.8,5.647-115.708
		C2123.042,998,2195.386,942.958,2250.297,973.609z"/>
	<path fill="#4C0000" d="M2156.12,942.501c-16.497,10.682-42.078,29.233-71.828,57.734c-42.786,40.996-38.725,93.203-35.878,110.685
		c-5.683-14.611-9.865-29.39-12.015-42.282C2030.163,1031.222,2086.119,965.558,2156.12,942.501z"/>
	<path fill="#FF9D6C" d="M2239.315,1111.165c2.197,1.021,4.727,1.44,7.077,0.852s4.474-2.265,5.303-4.541
		c0.903-2.478,0.215-5.254-0.832-7.675c-2.141-4.953-12.455-13.399-17.642-7.421
		C2228.161,1098.212,2233.344,1108.391,2239.315,1111.165z"/>
	<path d="M2164.495,1831.554c0,0-11.978-1.694-4.06,28.658c7.918,30.353,20.427,131.42,20.427,131.42l14.609-84.336
		C2195.472,1907.296,2181.752,1845.786,2164.495,1831.554z"/>
	<path fill="#003177" d="M2176.137,1472.546c-80.623,4.085-117.102-42.042-116.393-114.182
		c0.721-72.164,38.365-134.38,38.365-134.38s0.012,0,0.012-0.012c6.404-0.517,10.79,0.108,10.79,0.108
		c-15.476,6.14-70.698,142.37-23.19,205.703C2108.251,1459.822,2142.134,1471.669,2176.137,1472.546z"/>
	<path fill="#003177" d="M2437.424,1508.22c-27.467-1.274-70.422-7.233-93.275-22.565c-35.013-23.502-9.288-205.895-4.289-237.327
		c5.01-31.444,19.164-29.858,19.164-29.858c3.617,3.436,5.01,6.212,5.01,6.212c-19.621,4.265-10.874,57.313-14.983,97.829
		c-4.097,40.516-14.658,129.562,1.177,149.507c15.836,19.934,81.14,21.087,81.14,21.087
		C2434.156,1493.597,2436.102,1499.304,2437.424,1508.22z"/>
	<path d="M2432.341,1406.33L2432.341,1406.33c-17.349-3.115-34.018-9.243-49.254-18.107l-2.953-1.718
		c0,0-32.336-11.663,52.645,80.363L2432.341,1406.33z"/>
	<path fill="#700000" d="M2029.983,1248.652c-10.081-5.467-17.602-11.21-23.021-17.098c-33.763-36.599,13.385-78.424,28.957-88
		c18.083-11.114,34.484,1.009,34.484,1.009s5.227,3.761,11.535,8.952c8.639,7.137,19.321,16.99,21.472,23.718
		C2106.629,1187.314,2102.736,1288.063,2029.983,1248.652z"/>
	<path fill="#4C0000" d="M2029.983,1248.652c-10.081-5.467-17.602-11.21-23.021-17.098c10.573,4.217,25.208,6.344,42.655-1.322
		c28.729-12.616,32.225-57.914,32.321-76.718c8.639,7.137,19.321,16.99,21.472,23.718
		C2106.629,1187.314,2102.736,1288.063,2029.983,1248.652z"/>
	<path fill="#FF9D6C" d="M2708.886,976.636c-11.799,9.793-31.348,25.232-41.501,28.921c-15.151,5.515-24.799,7.714-31.408,0.276
		c-6.608-7.438-1.958-46.523-1.958-46.523c10.381,5.383,2.691,35.349,10.381,44.962c7.69,9.6,61.963-31.348,61.963-31.348
		S2707.565,974.354,2708.886,976.636z"/>
	
		<rect x="2905.347" y="552.67" transform="matrix(0.7309 -0.6825 0.6825 0.7309 289.4333 2230.0947)" fill="#0476AF" width="134.555" height="390.714"/>
	
		<rect x="2915.206" y="542.811" transform="matrix(0.7309 -0.6825 0.6825 0.7309 298.8152 2234.1707)" fill="#2794D7" width="134.555" height="390.714"/>
</g>
<g>
	
		<line fill="none" stroke="#FFFFFF" stroke-width="8.4688" stroke-miterlimit="10" x1="2637.374" y1="1657.902" x2="2872.095" y2="1417.818"/>
	
		<line fill="none" stroke="#FFFFFF" stroke-width="8.4688" stroke-miterlimit="10" x1="2864.461" y1="1572.64" x2="3099.182" y2="1332.557"/>
	
		<line fill="none" stroke="#FFFFFF" stroke-width="8.4688" stroke-miterlimit="10" x1="2994.45" y1="1667.491" x2="3229.171" y2="1427.408"/>
	
		<line fill="none" stroke="#FFFFFF" stroke-width="8.4688" stroke-miterlimit="10" x1="3322.198" y1="1501.489" x2="3278.006" y2="1546.691"/>
</g>
<path fill="#85A9F9" d="M2155.099,641.29c0,0,108.244,11.304,226.646,1.858l1.304,19.016c0,0-143.026,21.49-227.95-4.434V641.29z"/>
<path opacity="0.39" fill="#B3C7FF" enable-background="new    " d="M2391.116,643.148l0.288,4.133
	c-11.162,5.587-17.314,8.627-17.314,8.627h-99.968c0,0,260.854-152.919,344.504-368.042c40.035-102.96,62.42-201.69,74.88-276.666
	c93.719,5.635,189.398,27.251,282.433,71.383C2832.02,443.321,2391.116,643.148,2391.116,643.148z"/>
<g>
	<path fill="#12133F" d="M902.484,1108.374c0,0,86.142,5.398,101.18,74.421c15.039,69.023-70.68,77.281-91.638,52.136
		c-20.958-25.144-35.225-91.468-35.225-91.468L902.484,1108.374z"/>
	<path fill="#FFC890" d="M886.506,1360.489c0,0-37.14-47.004-40.624-69.052c-3.472-21.964,12.039-14.587,9.324-33.415l-0.036-0.252
		c-1.166-7.702-5.155-18.684-9.492-29.053c-6.464-15.44-13.722-29.558-13.722-29.558l64.282-78.004l0.745-0.913
		c0,0,0.108,0.3,0.3,0.877c1.334,3.821,6.933,19.633,14.418,35.542c3.797,8.086,8.074,16.185,12.52,22.769
		c5.695,8.411,12.616,12.016,18.948,13.289c9.829,1.97,18.191-1.682,18.191-1.682s9.288,37.728,11.607,58.383
		C975.287,1270.085,886.506,1360.489,886.506,1360.489z"/>
	<path fill="#FF9D6C" d="M886.506,1360.489c0,0-37.14-47.004-40.624-69.052c-3.472-21.964,12.039-14.587,9.324-33.415
		c0.577,3.328,6.885,39.074,18.696,46.595c11.787,7.498,63.141-65.279,69.268-111.899c9.829,1.97,18.191-1.682,18.191-1.682
		s9.288,37.728,11.607,58.383C975.287,1270.085,886.506,1360.489,886.506,1360.489z"/>
	<path d="M911.702,1156.661c-1.562,5.167-9.12,27.743-27.395,49.011c-20.823,24.223-38.629,23.045-38.629,23.045
		c-6.464-15.44-13.722-29.558-13.722-29.558l64.282-78.004c0.36-0.024,0.697-0.036,1.045-0.036
		C898.617,1124.94,904.216,1140.752,911.702,1156.661z"/>
	<path fill="#FF9D6C" d="M831.873,1681.28c0,0-39.663,80.916-45.963,97.877c-6.3,16.961-24.263,92.928-42.161,97.163
		s-35.608-16.961-17.683-45.553c17.925-28.592,90.858-151.197,95.462-152.408C826.133,1677.147,831.873,1681.28,831.873,1681.28z"/>
	<g>
		<path fill="#FED194" d="M1124.591,2322.635c-0.047,0.233-0.104,0.473-0.151,0.706c-3.657,16.703-8.898,38.429-13.922,58.666
			c-7.779,31.405-15.035,59.239-15.035,59.239l-57.235,1.056l6.649-73.083l5.452-59.92l6.649-72.998l5.429-59.677
			c0,0,37.313-2.033,57.069,33.676C1131.279,2231.568,1136.835,2266.211,1124.591,2322.635z"/>
		<g>
			<g>
				<path fill="#070208" d="M1112.449,2453.867c0.354,2.204,0.68,10.4,1.129,12.102c2.955,11.057,6.892,17.52-55.204,43.74
					c-71.672,30.254-116.855,39.077-145.203,11.182c-25.437-25.049,45.225-48.99,126.806-107.979
					c-0.341,1.204-5.554,38.807,61.756,7.52c2.804-1.312,4.162,2.313,5.001,5.291
					C1110.051,2437.493,1110.716,2443.075,1112.449,2453.867z"/>
			</g>
			<path fill="#FFB113" d="M1058.374,2509.709c-71.672,30.254-116.855,39.077-145.203,11.182c0,0,30.903,17.036,76.056,4.301
				c36.873-10.408,103.544-47.434,124.351-59.223C1116.533,2477.027,1120.47,2483.489,1058.374,2509.709z"/>
			<path fill="#FFFFFF" d="M1034.841,2448.165c-1.138,0.671-2.616,0.341-3.354-0.774c-8.92-13.459-17.785-16.207-17.874-16.233
				c-1.318-0.389-2.083-1.772-1.703-3.094c0.379-1.323,1.748-2.089,3.071-1.719c0.429,0.12,10.631,3.123,20.675,18.281
				c0.764,1.151,0.448,2.704-0.703,3.467C1034.917,2448.119,1034.879,2448.143,1034.841,2448.165z"/>
			<path fill="#FFFFFF" d="M1018.92,2458.184c-1.138,0.671-2.616,0.341-3.353-0.774c-8.92-13.459-17.785-16.207-17.874-16.233
				c-1.317-0.389-2.083-1.772-1.702-3.094c0.379-1.322,1.748-2.089,3.071-1.718c0.429,0.12,10.631,3.123,20.675,18.281
				c0.764,1.151,0.448,2.704-0.703,3.467C1018.996,2458.138,1018.958,2458.161,1018.92,2458.184z"/>
			<path fill="#FFFFFF" d="M1000.127,2471.425c-1.138,0.671-2.616,0.341-3.353-0.774c-8.92-13.459-17.785-16.207-17.874-16.232
				c-1.317-0.39-2.083-1.773-1.702-3.094c0.379-1.323,1.748-2.089,3.071-1.719c0.429,0.12,10.631,3.123,20.675,18.281
				c0.764,1.151,0.448,2.704-0.703,3.467C1000.203,2471.379,1000.165,2471.403,1000.127,2471.425z"/>
		</g>
	</g>
	<g>
		<path fill="#FED194" d="M1542.234,2225.899c0.065,0.229,0.125,0.468,0.19,0.697c4.41,16.521,9.717,38.23,14.533,58.517
			c7.49,31.475,13.806,59.537,13.806,59.537l-50.377,27.187l-27.608-67.993l-22.634-55.748l-27.568-67.918l-22.543-55.521
			c0,0,32.225-18.918,66.158,3.753C1506.414,2141.906,1527.239,2170.143,1542.234,2225.899z"/>
		<g>
			<g>
				<path fill="#070208" d="M1591.628,2348.085c1.325,1.796,5.373,8.93,6.554,10.237c7.697,8.471,14.159,12.408-28.997,64.186
					c-49.816,59.754-85.922,88.315-123.905,76.527c-34.092-10.594,17.721-64.275,63.166-154.108
					c0.249,1.226,12.862,37.033,58.327-21.639c1.89-2.453,4.759,0.147,6.87,2.408
					C1581.988,2334.634,1585.139,2339.289,1591.628,2348.085z"/>
			</g>
			<path fill="#FFB113" d="M1569.184,2422.508c-49.816,59.754-85.922,88.315-123.905,76.527c0,0,35.274,0.967,69.558-31.058
				c27.994-26.159,70.261-89.637,83.344-109.656C1605.878,2366.792,1612.341,2370.73,1569.184,2422.508z"/>
			<path fill="#FFFFFF" d="M1520.047,2378.609c-0.704,1.118-2.168,1.502-3.335,0.85c-14.099-7.87-23.237-6.246-23.328-6.228
				c-1.349,0.258-2.664-0.62-2.932-1.969c-0.27-1.349,0.596-2.658,1.941-2.935c0.437-0.09,10.88-2.1,26.756,6.763
				c1.207,0.673,1.639,2.198,0.966,3.403C1520.094,2378.533,1520.071,2378.572,1520.047,2378.609z"/>
			<path fill="#FFFFFF" d="M1510.493,2394.814c-0.704,1.118-2.168,1.502-3.335,0.85c-14.099-7.87-23.237-6.246-23.328-6.228
				c-1.349,0.258-2.664-0.62-2.932-1.969c-0.27-1.349,0.596-2.658,1.941-2.935c0.437-0.09,10.88-2.1,26.756,6.763
				c1.207,0.673,1.639,2.197,0.966,3.403C1510.54,2394.738,1510.517,2394.777,1510.493,2394.814z"/>
			<path fill="#FFFFFF" d="M1499.866,2415.199c-0.704,1.118-2.168,1.502-3.335,0.85c-14.099-7.87-23.237-6.246-23.328-6.228
				c-1.349,0.258-2.664-0.62-2.932-1.969c-0.27-1.349,0.596-2.658,1.941-2.935c0.437-0.09,10.88-2.1,26.756,6.763
				c1.207,0.673,1.639,2.198,0.965,3.403C1499.913,2415.123,1499.89,2415.162,1499.866,2415.199z"/>
		</g>
	</g>
	<path fill="#FFC890" d="M903.18,1128.691c-0.096,68.428-80.345,117.787-138.031,86.74c-14.37-7.726-33.714-23.121-42.209-37.684
		c-6.092-10.43-4.974-23.094-9.588-34.028c-0.913-2.175-1.97-4.326-3.112-6.452c-4.854-9.048-11.379-17.663-16.677-26.218
		c-5.899-9.528-11.415-19.885-14.25-30.639c-1.91-7.197-2.619-14.587-1.418-22c0-0.036,0.012-0.072,0.024-0.108
		c2.103-12.965,7.69-21.832,15.151-29.81c27.227-17.699,84.191-33.307,126.822-37.224c21.784,4.962,42.45,14.755,59.692,28.981
		c6.032,4.974,11.763,10.706,16.329,17.086c5.527,7.69,9.36,16.341,9.973,25.749c0.817,12.328-3.845,24.223-3.16,36.575
		C903.375,1111.17,903.204,1117.109,903.18,1128.691z"/>
	<path fill="#FF9D6C" d="M892.55,1053.22c-7.894-11.691-17.074,2.607-17.651,11.667c-0.577,9.06-12.772,30.399-68.476,39.603
		c-55.715,9.204-96.327-43.436-104.461-39.374c-8.026,4.013,7.882,70.494,8.279,72.152c-4.854-9.048-11.379-17.663-16.677-26.218
		c-5.899-9.528-11.415-19.885-14.25-30.639c-0.625-7.582-0.997-15.14-1.394-22.108c-0.192-3.316-0.384-6.488-0.613-9.48
		c-0.505-6.729,5.527-13.674,15.764-20.33c27.227-17.699,84.191-33.307,126.822-37.224c21.784,4.962,42.45,14.755,59.692,28.981
		c6.032,4.974,11.763,10.706,16.329,17.086C898.377,1050,896.286,1058.747,892.55,1053.22z"/>
	<path fill="#12133F" d="M903.928,1084.028c-0.012-25.965-16.017-39.422-29.029-36.323c-13.013,3.1-4.182,34.075-13.481,24.163
		c-9.3-9.913-10.537,12.4-45.25,21.688c-34.7,9.3-77.475-11.775-96.063-30.988c-3.148-3.244-5.9-5.527-8.303-7.053
		c-3.484-2.223-6.236-2.908-8.387-2.751c-5.154,0.348-6.861,5.467-6.861,5.467c-9.672,19.068,10.67,73.798,10.67,73.798
		c-21.543-4.914-46.007-47.148-48.482-80.611c-2.475-33.475,24.079-33.306,24.079-33.306s12.484-72.068,81.909-83.843
		c69.413-11.775,137.6,34.713,145.037,80.575c0.168,1.069,0.336,2.127,0.481,3.172
		C916.592,1061.787,903.928,1084.028,903.928,1084.028z"/>
	<path fill="#01032D" d="M903.928,1084.028c-0.012-25.965-16.017-39.422-29.029-36.323c-13.013,3.1-4.182,34.075-13.481,24.163
		c-9.3-9.913-10.537,12.4-45.25,21.688c-34.7,9.3-77.475-11.775-96.063-30.988c-3.148-3.244-5.9-5.527-8.303-7.053
		c25.365,8.038,100.701,29.894,118.928,12.135c0.216-0.216,0.432-0.432,0.649-0.637c15.608-15.644,10.646-42.03-9.528-51.041
		c-25.232-11.282-67.959-26.83-95.078-17.314c-40.444,14.19-2.127-18.936-2.127-18.936s38.233-18.384,70.746-4.157
		c24.127,10.549,85.021,32.057,114.855,42.45C916.592,1061.787,903.928,1084.028,903.928,1084.028z"/>
	<path fill="#FEBD57" d="M1198.713,1457.393c-43.339,25.412-239.31,29.858-293.956,30.615c-9.024,0.12-14.19,0.144-14.19,0.144
		s-4.289,0.901-11.294,1.923c-13.878,2.019-38.389,4.518-61.158,1.37c-7.966-1.093-15.716-2.871-22.721-5.611
		c0,0,0.264-5.599,0.877-15.007c2.427-37.043,10.381-133.106,29.738-178.38c5.9-13.782,12.844-22.865,21.027-24.127
		c2.211-0.324,4.494-0.096,6.885,0.757c0,0,2.992,60.077,32.009,55.427c29.005-4.638,67.923-93.564,63.849-131.208
		c0,0-4.614-7.474,0.288-9.805c4.914-2.319,80.936-31.336,103.56-32.489c22.637-1.166,31.925,0.577,58.611,16.245
		c26.698,15.668,71.96,102.719,81.825,136.374C1203.927,1337.275,1249.189,1427.799,1198.713,1457.393z"/>
	<path fill="#FF8C3E" d="M911.245,1484.92c0,0-2.307,1.238-6.488,3.088c-9.024,0.12-14.19,0.144-14.19,0.144
		s-4.289,0.901-11.294,1.923c-13.878,2.019-38.389,4.518-61.158,1.37c-7.966-1.093-15.716-2.871-22.721-5.611
		c0,0,0.264-5.599,0.877-15.007c21.844,2.751,57.794,5.731,59.236-4.386c2.091-14.563-16.221-73.654-24.776-101.121
		c-8.543-27.467-4.722-72.873-4.722-72.873c5.9-13.782,12.844-22.865,21.027-24.127c0,0.012,0.012,0.012,0.012,0.024
		c3.593,8.303,10.549,112.788,14.731,132.77C865.96,1421.082,911.245,1484.92,911.245,1484.92z"/>
	<path fill="#FF8C3E" d="M857.49,1292.806c0,0,6.093,94.45,40.042,137.974s100.54-19.586,105.328-37.431
		s-1.631-155.598-4.663-178.291c0,0,8.58-21.169,17.72,0s47.006,179.596,21.327,215.286c-25.679,35.69-131.442,44.83-148.852,33.513
		c-17.41-11.316-41.348-146.24-41.348-146.24l6.876-48.541C853.92,1269.076,855.566,1285.915,857.49,1292.806z"/>
	<path fill="#FF8C3E" d="M1041.973,1152.833c0,0,4.846,59.457,29.654,117.779s50.736,88.904,46.819,62.79s0.042-29.908,3.959-24.25
		s37.543,91.454,54.969,113.287s-16.522,31.844-43.943,10.517c-27.42-21.327-51.681-69.079-76.167-111.13
		s-35.062-163.73-35.062-163.73S1035.386,1151.698,1041.973,1152.833z"/>
	<path d="M1066,1277.179c0,0,52.705,90.087,81.37,108.343c28.664,18.256,49.62,27.102,49.62,27.102s0.127,25.05-12.953,24.691
		s-98.788-79.402-111.885-109.016C1059.054,1298.684,1066,1277.179,1066,1277.179z"/>
	<path fill="#1A4EA2" d="M1587.505,2273.884c-56.869,67.899-124.418,50.603-124.418,50.603s-13.687-33.193-43.281-99.35
		c-29.606-66.156-114.903-213.549-127.086-248.946c-12.196-35.397-132.313-221.683-142.178-228.64
		c-9.865-6.969-37.716,230.959-17.987,337.151c19.729,106.204,8.122,271.583,8.122,271.583
		c-19.513,13.818-41.021,19.104-60.221,20.318c-31.625,2.019-57.001-6.969-57.001-6.969s-15.091-100.977-22.048-163.06
		c-6.969-62.095-37.728-201.365-37.728-239.67c0-35.974-12.977-191.236-26.518-280.246c-0.877-5.791-17.41-26.626-18.336-32.009
		c-7.918-46.259-22.06-106.48-39.554-164.574c-15.86-52.675-35.193-103.933-42.09-135.389c-14.515-66.156,0-80.659,0-80.659
		c7.99-11.679,16.737-4.95,16.737-4.95c-5.311,24.067,8.795,131.28,43.063,170.75c34.268,39.458,106.228-23.658,111.791-45.106
		c12.364-47.581-18.396-222.837-16.653-230.959c1.742-8.122,24.956-15.668,33.655-16.821c2.619-0.349,4.578,0.18,6.008,1.094
		c3.352,2.115,3.965,6.284,3.965,6.284c-10.333,62.504,65.472,204.429,106.084,246.207c40.624,41.789,48.169,11.03,48.169,11.03
		s36.563-124.767,53.384-110.253c5.263,4.542,18.804,27.623,35.397,59.524c23.166,44.481,52.279,106.132,73.246,158.579
		c3.112,7.774-2.764,15.764,0,22.901c8.014,20.714,19.417,46.415,23.214,58.683c20.318,65.58,59.644,278.876,109.556,377.522
		C1534.698,2077.156,1587.505,2273.884,1587.505,2273.884z"/>
	<path fill="#0F2470" d="M1278.783,1360.825c-6.404,33.823-18.96,76.225-27.9,83.939c-13.433,11.595-42.099,37.777-115.489-17.385
		c-73.402-55.162-108.045-222.537-108.526-254.678c-0.204-13.818,2.163-20.991,4.914-24.667c3.352,2.115,3.965,6.284,3.965,6.284
		c-10.333,62.504,65.472,204.429,106.084,246.207c40.624,41.789,48.169,11.03,48.169,11.03s36.563-124.767,53.384-110.253
		C1248.649,1305.843,1262.19,1328.924,1278.783,1360.825z"/>
	<path fill="#0F2470" d="M1150.543,1747.552c-9.865-6.969-37.716,230.959-17.987,337.151
		c19.729,106.204,8.122,271.583,8.122,271.583c-19.513,13.818-41.021,19.104-60.221,20.318
		c42.799-29.173,34.184-217.778,19.933-285.653c-14.262-67.863-11.414-119.769-9.132-196.763
		c2.283-76.994,31.372-171.663,33.655-181.36C1127.197,1703.131,1150.543,1747.552,1150.543,1747.552z"/>
	<path fill="#0F2470" d="M486.742,2246.044l809.889-1452.085c3.355-6.016,11.023-8.193,17.039-4.838l1.111,0.62
		c6.016,3.355,8.193,11.023,4.838,17.039l-809.89,1452.085c-3.355,6.016-11.023,8.193-17.039,4.838l-1.111-0.62
		C485.563,2259.728,483.386,2252.06,486.742,2246.044z"/>
	<path fill="#FFC890" d="M890.158,1522.732l-14.118,25.317l-62.516,112.091l-90.908,163c0,0-9.528,54.153-16.617,48.999
		c-7.077-5.143-6.44-23.814-6.44-43.784c0-19.958,33.487-68.896,41.213-79.842s35.409-68.896,40.564-94.645
		c5.155-25.761,20.606-76.622,29.618-99.799c4.686-12.063,6.416-35.578,6.993-55.403c0.072-2.475,0.132-4.89,0.168-7.221
		c0.144,0.024,0.276,0.036,0.42,0.048c3.088,0.433,6.2,0.745,9.324,0.961c0.036,0,0.06,0.012,0.084,0.012
		c19.729,1.418,39.434-0.661,51.33-2.391L890.158,1522.732z"/>
	<path fill="#FFC890" d="M717.867,1865.805c-1.308,1.827-2.501,3.878-2.254,6.012c0.274,2.368,2.272,4.326,4.451,5.797
		c4.691,3.166,10.666,4.851,16.632,4.869c3.223,0.009,6.539-0.483,9.254-1.974s4.725-4.113,4.601-6.879
		c-0.091-2.017-1.265-3.887-2.68-5.497c-3.775-4.295-9.524-7.271-15.709-8.133C725.963,1859.137,721.083,1861.314,717.867,1865.805z
		"/>
	<path fill="#FFC890" d="M728.959,1845.797c-1.277,1.775-2.442,3.768-2.201,5.842c0.268,2.301,2.218,4.204,4.345,5.633
		c4.579,3.076,10.412,4.714,16.235,4.732c3.146,0.009,6.383-0.47,9.033-1.918c2.65-1.449,4.613-3.997,4.491-6.684
		c-0.089-1.96-1.235-3.777-2.617-5.342c-3.685-4.173-9.297-7.066-15.334-7.903C736.862,1839.317,732.098,1841.432,728.959,1845.797z
		"/>
	<path fill="#FFC890" d="M739.448,1827.198c-1.197,1.604-2.289,3.405-2.063,5.279c0.251,2.08,2.079,3.799,4.073,5.09
		c4.293,2.78,9.761,4.26,15.221,4.276c2.949,0.008,5.984-0.424,8.469-1.733c2.485-1.309,4.324-3.612,4.21-6.04
		c-0.083-1.771-1.157-3.413-2.453-4.827c-3.454-3.771-8.716-6.385-14.376-7.142C746.857,1821.342,742.391,1823.254,739.448,1827.198
		z"/>
	<path fill="#FFC890" d="M751.276,1810.044c-1.037,1.526-1.984,3.24-1.788,5.022c0.217,1.978,1.802,3.614,3.53,4.842
		c3.72,2.645,8.459,4.053,13.19,4.068c2.556,0.008,5.186-0.404,7.339-1.649s3.747-3.436,3.648-5.746
		c-0.072-1.685-1.003-3.247-2.126-4.592c-2.994-3.588-7.554-6.074-12.458-6.794C757.697,1804.473,753.827,1806.292,751.276,1810.044
		z"/>
	<path fill="#FA4C6D" d="M584.548,2488.851H12.113c0,0,0.132-0.012,0.396-0.048c5.058-0.697,58.178-8.435,135.605-38.365
		c49.707-19.225,44.469-44.745,49.083-69.581c2.932-15.86,9.889-31.432,37.74-44.913c53.901-26.085,100.412-36.202,120.021-39.603
		c0,0,0,0,0.012,0c6.38-1.105,9.913-1.502,9.913-1.502s98.141,2.283,120.454,7.101c22.301,4.83,82.077,68.379,82.077,68.379
		c-3.292,46.668,43.267,34.016,54.021,74.736C632.189,2485.775,584.548,2488.851,584.548,2488.851z"/>
	<path fill="#D11A4A" d="M584.548,2488.851H12.113c0,0,0.132-0.012,0.396-0.048c11.066-1.177,248.515-29.27,376.946-30.687
		c132.729-1.465,156.986-41.331,128.491-69.104c-42.194-41.126-161.87-92.214-162.976-92.671c6.38-1.105,9.913-1.502,9.913-1.502
		s98.141,2.283,120.454,7.101c22.301,4.83,82.077,68.379,82.077,68.379c-3.292,46.668,43.267,34.016,54.021,74.736
		C632.189,2485.775,584.548,2488.851,584.548,2488.851z"/>
	<path fill="#D11A4A" d="M305.732,2408.9c-29.81,29.33-157.617,41.537-157.617,41.537c49.707-19.225,44.469-44.745,49.083-69.581
		c0.733,0.3,27.936,11.15,83.939-13.589C337.897,2342.203,335.53,2379.571,305.732,2408.9z"/>
	<path d="M1124.914,1712.827c0,0,3.562-7.278,34.28,45.383c0,0-18.285,118.572-33.446,213.549c0,0-5.414-100.036-3.475-134.934
		C1124.212,1801.927,1129.994,1754.247,1124.914,1712.827z"/>
	<path fill="#0F2470" d="M1222.155,1605.514c0,0,58.623,74.733,141.735,29.757
		C1363.89,1635.271,1289.338,1653.249,1222.155,1605.514z"/>
	<path fill="none" stroke="#0F2470" stroke-width="2.0341" stroke-miterlimit="10" d="M946.538,1644.123
		c0,0,72.888,0.658,155.633-34.85"/>
	<path fill="none" stroke="#0F2470" stroke-width="2.0341" stroke-miterlimit="10" d="M1144.806,1596.779
		c0,0,122.963-38.813,170.307-70.367"/>
	<path fill="#FFC890" d="M1177.374,1422.438c0,0-20.185-29.026-27.806-102.849c-7.62-73.823-1.905-118.594-7.144-132.882
		s-28.1-78.11-31.434-93.827s11.431-33.816,14.765-35.245s15.515-36.679,25.517-30.964c3.465,1.98,7.564,5.504,10.131,9.747
		c4.842,8.005,7.882,18.363,16.598,24.277l9.37-16.799c5.239,10.002,16.018,79.942,10.779,98.993
		c-5.239,19.051-4.286,20.956,5.239,50.486c9.526,29.529,46.199,117.165,54.296,158.601c8.097,41.436,1.905,78.11-17.622,86.683
		C1220.533,1447.232,1196.606,1447.178,1177.374,1422.438z"/>
	<path fill="#FF9D6C" d="M813.525,1660.14c22.541-65.568,44.373-134.56,39.795-143.559c-6.885-13.541-26.542-17.026-35.373-17.915
		c0.072-2.475,0.132-4.89,0.168-7.221c22.769,3.148,47.28,0.649,61.158-1.37l10.886,32.658L813.525,1660.14z"/>
	<path d="M890.158,1522.732l-14.118,25.317c-0.553-7.762-2.54-41.088-18.031-46.773c-8.615-3.161-21.644-7.957-30.067-8.81
		c19.729,1.418,39.434-0.661,51.33-2.391L890.158,1522.732z"/>
	<path d="M855.836,1319.497c1.907,11.878,4.323,23.672,7.087,35.366c2.727,11.701,5.849,23.31,9.601,34.691
		c1.886,5.686,3.945,11.31,6.257,16.812c2.258,5.524,4.74,10.936,7.398,16.236c2.691,5.279,5.702,10.397,9.325,15.041
		c3.644,4.588,7.958,8.795,13.471,11.219l-0.115,0.342c-2.966-0.721-5.751-2.142-8.321-3.839c-2.55-1.74-4.865-3.814-6.959-6.07
		c-4.205-4.515-7.589-9.682-10.584-15c-5.942-10.707-9.739-22.319-13.224-33.878c-3.441-11.596-6.226-23.351-8.611-35.172
		c-2.303-11.839-4.249-23.737-5.683-35.701L855.836,1319.497z"/>
	<path d="M1145.478,1205.65c0.421,8.504,0.741,17.001,1.247,25.492l1.391,25.463c0.528,8.482,1.026,16.963,1.662,25.432
		c0.592,8.473,1.236,16.94,2.027,25.392c0.712,8.459,1.569,16.904,2.552,25.33c0.448,4.219,1.002,8.423,1.529,12.632
		c0.606,4.196,1.148,8.403,1.812,12.589c1.321,8.373,2.755,16.735,4.656,24.995c1.836,8.276,4.159,16.448,7.353,24.343
		c-0.907-1.92-1.892-3.818-2.744-5.773c-0.781-1.981-1.644-3.94-2.351-5.953c-0.692-2.016-1.452-4.017-2.089-6.054
		c-0.625-2.04-1.28-4.075-1.881-6.125c-2.326-8.221-4.147-16.571-5.717-24.959c-3.16-16.779-5.16-33.736-6.708-50.707
		c-1.483-16.981-2.436-33.997-2.9-51.022C1144.83,1239.703,1144.834,1222.665,1145.478,1205.65z"/>
	<path d="M854.996,1266.42c0,0,2.932,32.246,13.994,44.691c11.062,12.445,30.489,7.853,61.171-39.63
		c0,0-22.791,62.579-54.327,51.796c0,0-20.801-6.227-22.514-53.247L854.996,1266.42z"/>
	<path d="M855.17,1257.77c0,0,0.012,0.084,0.036,0.252L855.17,1257.77z"/>
	<path fill="#FEBD57" d="M701.645,1007.269c1.824,0,79.118-83.391,177.636,40.02l-7.452,7.404c0,0-68.04-109.805-159.97-45.6
		L701.645,1007.269z"/>
	<path fill="#FEBD57" d="M687.059,1023.901c0,0-15.346-27.753-53.221-21.223c-37.875,6.53-75.749,64.975-75.749,64.975
		s14.04-13.713,51.915-15.019C647.879,1051.327,680.856,1029.451,687.059,1023.901z"/>
	<path fill="#FFD49C" d="M687.059,1023.901c0,0-17.928-24.758,8.047-57.173s53.453-39.499,53.453-39.499
		s-3.435,30.912-12.451,60.536C727.092,1017.39,687.059,1023.901,687.059,1023.901z"/>
	<path fill="#5655CC" d="M486.742,2246.044c0,0-124.58,46.757-121.858,48.798c2.722,2.042,108.613,21.027,202.536,75.475
		l-57.691-111.452L486.742,2246.044z"/>
	<path fill="#FF9D6C" d="M882.079,1066.539c-0.159,2.433,0.229,4.954,1.467,7.054s3.401,3.724,5.827,3.964
		c0.814,0.081,1.721-0.027,2.289-0.615c0.336-0.348,0.508-0.818,0.652-1.28c1.302-4.179,1.288-10.7-2.137-13.973
		C886.183,1057.871,882.358,1062.273,882.079,1066.539z"/>
</g>
</svg>
