<svg xmlns="http://www.w3.org/2000/svg" enable-background="new 0 0 100 100" viewBox="0 0 100 100"><path d="M85,69v-4c0-3.3-2.7-6-6-6h-6.9c-3.5,0-6.8-1.5-9-4.1c-2.3-2.6-3.3-6.1-2.9-9.5l3.1-22.9c0.5-3.9-0.6-7.9-3.2-10.8
	c-2.5-2.9-5.9-4.6-9.7-4.6c-3.9-0.1-7.7,1.5-10.3,4.4c-2.6,2.9-3.8,6.8-3.3,10.7l3.1,23.3c0.5,3.4-0.6,6.9-2.9,9.5
	c-2.3,2.6-5.6,4.1-9,4.1H21c-3.3,0-6,2.7-6,6v4c-3.3,0-6,2.7-6,6v4c0,3.3,2.7,6,6,6v2c0,3.3,2.7,6,6,6h58c3.3,0,6-2.7,6-6v-2
	c3.3,0,6-2.7,6-6v-4C91,71.7,88.3,69,85,69z M19,65c0-1.1,0.9-2,2-2h6.9c4.6,0,9-2,12-5.5c3-3.5,4.4-8.1,3.8-12.7l-3.1-23.3
	c-0.4-2.7,0.5-5.5,2.3-7.5c1.8-2,4.5-3.2,7.2-3.1c2.6,0.1,5,1.2,6.7,3.2c1.8,2.1,2.7,4.9,2.3,7.7l-3.1,22.9
	c-0.6,4.6,0.8,9.2,3.8,12.7c3,3.5,7.4,5.5,12,5.5H79c1.1,0,2,0.9,2,2v4H19V65z M81,87c0,1.1-0.9,2-2,2H21c-1.1,0-2-0.9-2-2v-2h62V87
	z M87,79c0,1.1-0.9,2-2,2h-2H17h-2c-1.1,0-2-0.9-2-2v-4c0-1.1,0.9-2,2-2h2h66h2c1.1,0,2,0.9,2,2V79z"/></svg>