<?xml version="1.0" encoding="utf-8"?>
<!-- Generator: Adobe Illustrator 24.3.0, SVG Export Plug-In . SVG Version: 6.00 Build 0)  -->
<svg version="1.1" id="Layer_1" xmlns="http://www.w3.org/2000/svg" xmlns:xlink="http://www.w3.org/1999/xlink" x="0px" y="0px"
	 viewBox="0 0 24 24" style="enable-background:new 0 0 24 24;" xml:space="preserve">
<style type="text/css">
	.st0{clip-path:url(#SVGID_2_);fill:none;stroke:#303C42;stroke-linecap:round;stroke-linejoin:round;}
</style>
<g>
	<g>
		<defs>
			<rect id="SVGID_1_" width="24" height="24"/>
		</defs>
		<clipPath id="SVGID_2_">
			<use xlink:href="#SVGID_1_"  style="overflow:visible;"/>
		</clipPath>
		<path class="st0" d="M20,3.5c0,1.7-1.3,3-3,3c-1.7,0-3-1.3-3-3c0-1.7,1.3-3,3-3C18.7,0.5,20,1.9,20,3.5L20,3.5z M20,3.5 M17,8.5
			c-1.8,0-3.6,0.5-5.1,1.4c-0.8,0.4-1.4,1.3-1.4,2.2v0.5c0,0.2,0.1,0.5,0.3,0.7c0.2,0.2,0.4,0.3,0.7,0.3h11.1c0.3,0,0.5-0.1,0.7-0.3
			c0.2-0.2,0.3-0.4,0.3-0.7v-0.5c0-0.9-0.5-1.8-1.4-2.2C20.6,9,18.8,8.6,17,8.5L17,8.5z M17,8.5 M0.5,13.5l4.1,0.8
			c0.5,0.1,0.9,0.6,0.8,1.1l-0.7,5.2c-0.1,0.5-0.5,0.9-1,0.9H0.5V13.5z M0.5,13.5 M5.5,15.5c1-0.3,2-0.5,3-0.5
			c1.6,0,2.5,1.1,4.5,1.5c2,0.4,3.5,0.9,3.5,2c0,1.1-1.6,1.6-7,0 M16.5,19c1.5-0.5,3-0.8,4.5-1c1.2,0,2.5,0.5,2.5,1.5
			c-1.7,0.8-7.7,4-10,4c-2.3,0-8.5-3-8.5-3"/>
	</g>
</g>
</svg>
