<?xml version="1.0" encoding="UTF-8" standalone="no"?>
<!-- Created with Inkscape (http://www.inkscape.org/) -->

<svg
   version="1.1"
   id="svg6054"
   xml:space="preserve"
   width="682.66669"
   height="682.66669"
   viewBox="0 0 682.66669 682.66669"
   xmlns="http://www.w3.org/2000/svg"
   xmlns:svg="http://www.w3.org/2000/svg"><defs
     id="defs6058"><clipPath
       clipPathUnits="userSpaceOnUse"
       id="clipPath6068"><path
         d="M 0,512 H 512 V 0 H 0 Z"
         id="path6066" /></clipPath></defs><g
     id="g6060"
     transform="matrix(1.3333333,0,0,-1.3333333,0,682.66667)"><g
       id="g6062"><g
         id="g6064"
         clip-path="url(#clipPath6068)"><g
           id="g6070"
           transform="translate(151.831,62.3076)"><path
             d="m 0,0 h -73.5 l -2.99,-3.659 V -40.92 c 0,-7.639 6.249,-13.889 13.888,-13.889 h 51.792 c 7.639,0 13.889,6.25 13.889,13.889 v 37.382 z"
             style="fill:#6e60b8;fill-opacity:1;fill-rule:nonzero;stroke:none"
             id="path6072" /></g><g
           id="g6074"
           transform="translate(110.6738,21.3877)"><path
             d="m 0,0 v 37.261 l 2.991,3.659 h -35.334 l -2.99,-3.659 V 0 c 0,-7.639 6.25,-13.889 13.888,-13.889 H 13.889 C 6.25,-13.889 0,-7.639 0,0"
             style="fill:#6353b2;fill-opacity:1;fill-rule:nonzero;stroke:none"
             id="path6076" /></g><g
           id="g6078"
           transform="translate(462.0537,251.2344)"><path
             d="m 0,0 h -8.694 c -6.024,-2.278 -10.344,-8.1 -10.344,-14.896 v -27.709 c 0,-6.829 4.362,-12.672 10.43,-14.927 H 0 c 8.463,0 15.387,6.924 15.387,15.386 v 26.759 C 15.387,-6.924 8.463,0 0,0"
             style="fill:#dbedff;fill-opacity:1;fill-rule:nonzero;stroke:none"
             id="path6080" /></g><g
           id="g6082"
           transform="translate(443.5625,209.0889)"><path
             d="m 0,0 v 26.759 c 0,8.463 6.924,15.387 15.387,15.387 h -33.823 c -5.862,0 -10.981,-3.326 -13.576,-8.18 l -1.865,-3.955 11,-33.958 16.583,-12.334 2.229,0.894 H 15.387 C 6.924,-15.387 0,-8.463 0,0"
             style="fill:#b5dcff;fill-opacity:1;fill-rule:nonzero;stroke:none"
             id="path6084" /></g><g
           id="g6086"
           transform="translate(101.2285,242.5869)"><path
             d="m 0,0 c -2.511,5.104 -7.756,8.647 -13.802,8.647 h -8.324 C -28.469,6.594 -33.092,0.622 -33.092,-6.383 v -27.472 c 0,-6.9 4.49,-12.785 10.688,-14.922 l 11.861,9.165 12.333,35.667 z"
             style="fill:#dbedff;fill-opacity:1;fill-rule:nonzero;stroke:none"
             id="path6088" /></g><g
           id="g6090"
           transform="translate(68.5464,209.0889)"><path
             d="m 0,0 v 26.759 c 0,8.463 6.924,15.387 15.387,15.387 h -33.435 c -8.463,0 -15.387,-6.924 -15.387,-15.387 V 0 c 0,-8.463 6.924,-15.387 15.387,-15.387 h 22.942 5.245 l 0.845,0.654 C 4.65,-12.827 0,-6.934 0,0"
             style="fill:#b5dcff;fill-opacity:1;fill-rule:nonzero;stroke:none"
             id="path6092" /></g><g
           id="g6094"
           transform="translate(169.5185,315.4746)"><path
             d="m 0,0 h 172.576 c -18.434,6.868 -34.258,19.093 -45.582,34.782 l -4.766,2.038 H 18.168 L 9.833,30.833 Z"
             style="fill:#ff76aa;fill-opacity:1;fill-rule:nonzero;stroke:none"
             id="path6096" /></g><g
           id="g6098"
           transform="translate(187.687,352.2949)"><path
             d="m 0,0 h -29.438 c -11.787,0 -22.265,-7.505 -26.06,-18.664 l -4.815,-14.161 5.311,-3.995 h 43.106 z"
             style="fill:#ff5595;fill-opacity:1;fill-rule:nonzero;stroke:none"
             id="path6100" /></g><g
           id="g6102"
           transform="translate(389.3281,308.4023)"><path
             d="m 0,0 -6.655,3.196 -52.363,9.876 -3.286,-2.005 h -156.232 l -37.152,-116.495 H 31.357 l 3.544,2.796 z"
             style="fill:#8479c2;fill-opacity:1;fill-rule:nonzero;stroke:none"
             id="path6104" /></g><g
           id="g6106"
           transform="translate(177.0825,319.4697)"><path
             d="m 0,0 h -49.709 l -38.665,-113.699 1.977,-2.796 h 37.152 l 13.973,7.318 z"
             style="fill:#6e60b8;fill-opacity:1;fill-rule:nonzero;stroke:none"
             id="path6108" /></g><g
           id="g6110"
           transform="translate(473.1181,405.8975)"><path
             d="m 0,0 c 0,-54.457 -44.146,-98.603 -98.603,-98.603 -54.457,0 -98.604,44.146 -98.604,98.603 0,54.457 44.147,98.604 98.604,98.604 C -44.146,98.604 0,54.457 0,0"
             style="fill:#60b9fe;fill-opacity:1;fill-rule:nonzero;stroke:none"
             id="path6112" /></g><g
           id="g6114"
           transform="translate(312.9467,405.8975)"><path
             d="M 0,0 C 0,48.127 34.482,88.193 80.086,96.859 74.087,98 67.899,98.604 61.568,98.604 7.111,98.604 -37.035,54.457 -37.035,0 c 0,-54.457 44.146,-98.603 98.603,-98.603 6.331,0 12.519,0.604 18.518,1.744 C 34.482,-88.192 0,-48.126 0,0"
             style="fill:#1ca8ff;fill-opacity:1;fill-rule:nonzero;stroke:none"
             id="path6116" /></g><g
           id="g6118"
           transform="translate(385.916,454.3652)"><path
             d="m 0,0 c 0,-8.708 -7.06,-15.769 -15.769,-15.769 -8.709,0 -15.769,7.061 -15.769,15.769 0,8.709 7.06,15.77 15.769,15.77 C -7.06,15.77 0,8.709 0,0"
             style="fill:#dbedff;fill-opacity:1;fill-rule:nonzero;stroke:none"
             id="path6120" /></g><g
           id="g6122"
           transform="translate(434.5185,62.3076)"><path
             d="m 0,0 h -73.5 l -2.99,-3.659 V -40.92 c 0,-7.639 6.249,-13.889 13.888,-13.889 h 51.792 c 7.639,0 13.889,6.25 13.889,13.889 v 37.382 z"
             style="fill:#6e60b8;fill-opacity:1;fill-rule:nonzero;stroke:none"
             id="path6124" /></g><g
           id="g6126"
           transform="translate(393.3613,21.3877)"><path
             d="m 0,0 v 37.261 l 2.991,3.659 h -35.334 l -2.99,-3.659 V 0 c 0,-7.639 6.25,-13.889 13.888,-13.889 H 13.889 C 6.25,-13.889 0,-7.639 0,0"
             style="fill:#6353b2;fill-opacity:1;fill-rule:nonzero;stroke:none"
             id="path6128" /></g><g
           id="g6130"
           transform="translate(404.5976,210.293)"><path
             d="m 0,0 h -269.299 c -16.517,-7.516 -28.081,-24.177 -28.081,-43.425 v -97.82 c 0,-4.058 1.675,-7.738 4.362,-10.4 H 31.264 c 7.638,0 13.888,6.25 13.888,13.888 v 92.605 C 45.152,-20.318 24.833,0 0,0"
             style="fill:#ff76aa;fill-opacity:1;fill-rule:nonzero;stroke:none"
             id="path6132" /></g><g
           id="g6134"
           transform="translate(108.2851,71.0664)"><path
             d="m 0,0 v 94.802 c 0,21.022 14.228,38.87 33.525,44.425 H 0.055 c -24.833,0 -45.152,-20.319 -45.152,-45.153 V 1.47 c 0,-7.638 6.25,-13.888 13.889,-13.888 H 7.33 C 2.969,-9.982 0,-5.323 0,0"
             style="fill:#ff5595;fill-opacity:1;fill-rule:nonzero;stroke:none"
             id="path6136" /></g><g
           id="g6138"
           transform="translate(395.8554,175.2803)"><path
             d="m 0,0 c -11.567,-5.803 -19.521,-17.743 -19.521,-31.565 0,-13.823 7.954,-25.763 19.521,-31.566 12.396,5.119 21.122,17.32 21.122,31.566 C 21.122,-17.321 12.396,-5.119 0,0"
             style="fill:#ffc365;fill-opacity:1;fill-rule:nonzero;stroke:none"
             id="path6140" /></g><g
           id="g6142"
           transform="translate(377.0258,143.7148)"><path
             d="m 0,0 c 0,13.801 8.193,25.68 19.976,31.062 -4.317,1.973 -9.111,3.081 -14.167,3.081 -18.856,0 -34.142,-15.287 -34.142,-34.143 0,-18.856 15.286,-34.143 34.142,-34.143 5.056,0 9.85,1.108 14.167,3.081 C 8.193,-25.68 0,-13.801 0,0"
             style="fill:#ffa90f;fill-opacity:1;fill-rule:nonzero;stroke:none"
             id="path6144" /></g><g
           id="g6146"
           transform="translate(312.1899,82.9531)"><path
             d="m 0,0 h -70.312 c -4.359,-1.887 -7.411,-6.222 -7.411,-11.273 v -26.063 c 0,-5.053 3.053,-9.388 7.412,-11.273 H 0 c 6.513,0 11.792,5.279 11.792,11.792 v 25.024 C 11.792,-5.28 6.513,0 0,0"
             style="fill:#dbedff;fill-opacity:1;fill-rule:nonzero;stroke:none"
             id="path6148" /></g><g
           id="g6150"
           transform="translate(234.956,46.1357)"><path
             d="m 0,0 v 25.024 c 0,6.513 5.279,11.793 11.792,11.793 h -46 C -40.721,36.817 -46,31.537 -46,25.024 V 0 c 0,-6.513 5.279,-11.792 11.792,-11.792 h 46 C 5.279,-11.792 0,-6.513 0,0"
             style="fill:#b5dcff;fill-opacity:1;fill-rule:nonzero;stroke:none"
             id="path6152" /></g><g
           id="g6154"
           transform="translate(143.1235,175.2803)"><path
             d="m 0,0 c -11.567,-5.803 -19.521,-17.743 -19.521,-31.565 0,-13.823 7.954,-25.763 19.521,-31.566 12.396,5.119 21.122,17.32 21.122,31.566 C 21.122,-17.321 12.396,-5.119 0,0"
             style="fill:#ffc365;fill-opacity:1;fill-rule:nonzero;stroke:none"
             id="path6156" /></g><g
           id="g6158"
           transform="translate(124.2944,143.7148)"><path
             d="m 0,0 c 0,13.801 8.192,25.68 19.976,31.062 -4.317,1.973 -9.111,3.081 -14.167,3.081 -18.856,0 -34.142,-15.287 -34.142,-34.143 0,-18.856 15.286,-34.143 34.142,-34.143 5.056,0 9.85,1.108 14.167,3.081 C 8.192,-25.68 0,-13.801 0,0"
             style="fill:#ffa90f;fill-opacity:1;fill-rule:nonzero;stroke:none"
             id="path6160" /></g><g
           id="g6162"
           transform="translate(416.7011,143.7148)"><path
             d="m 0,0 c 0,-18.856 -15.286,-34.143 -34.143,-34.143 -18.856,0 -34.142,15.287 -34.142,34.143 0,18.856 15.286,34.143 34.142,34.143 C -15.286,34.143 0,18.856 0,0 Z"
             style="fill:none;stroke:#000000;stroke-width:15;stroke-linecap:round;stroke-linejoin:round;stroke-miterlimit:10;stroke-dasharray:none;stroke-opacity:1"
             id="path6164" /></g><g
           id="g6166"
           transform="translate(163.9692,143.7148)"><path
             d="m 0,0 c 0,-18.856 -15.286,-34.143 -34.142,-34.143 -18.857,0 -34.143,15.287 -34.143,34.143 0,18.856 15.286,34.143 34.143,34.143 C -15.286,34.143 0,18.856 0,0 Z"
             style="fill:none;stroke:#000000;stroke-width:15;stroke-linecap:round;stroke-linejoin:round;stroke-miterlimit:10;stroke-dasharray:none;stroke-opacity:1"
             id="path6168" /></g><g
           id="g6170"
           transform="translate(435.5849,58.6484)"><path
             d="m 0,0 h -77.833 v -37.261 c 0,-7.638 6.25,-13.888 13.889,-13.888 h 51.792 c 7.638,0 13.888,6.25 13.888,13.888 V 0.121 C 1.166,0.049 0.589,0 0,0 Z"
             style="fill:none;stroke:#000000;stroke-width:15;stroke-linecap:round;stroke-linejoin:round;stroke-miterlimit:10;stroke-dasharray:none;stroke-opacity:1"
             id="path6172" /></g><g
           id="g6174"
           transform="translate(76.8008,58.6484)"><path
             d="m 0,0 c -0.589,0 -1.166,0.049 -1.736,0.121 v -37.382 c 0,-7.638 6.25,-13.888 13.888,-13.888 h 51.792 c 7.639,0 13.889,6.25 13.889,13.888 V 0 Z"
             style="fill:none;stroke:#000000;stroke-width:15;stroke-linecap:round;stroke-linejoin:round;stroke-miterlimit:10;stroke-dasharray:none;stroke-opacity:1"
             id="path6176" /></g><g
           id="g6178"
           transform="translate(211.6343,162.2988)"><path
             d="M 0,0 H 89.503"
             style="fill:none;stroke:#000000;stroke-width:15;stroke-linecap:round;stroke-linejoin:round;stroke-miterlimit:10;stroke-dasharray:none;stroke-opacity:1"
             id="path6180" /></g><g
           id="g6182"
           transform="translate(211.2485,129.79)"><path
             d="M 0,0 H 89.503"
             style="fill:none;stroke:#000000;stroke-width:15;stroke-linecap:round;stroke-linejoin:round;stroke-miterlimit:10;stroke-dasharray:none;stroke-opacity:1"
             id="path6184" /></g><g
           id="g6186"
           transform="translate(472.8423,405.8975)"><path
             d="m 0,0 c 0,-54.457 -44.146,-98.603 -98.604,-98.603 -54.457,0 -98.603,44.146 -98.603,98.603 0,54.457 44.146,98.604 98.603,98.604 C -44.146,98.604 0,54.457 0,0 Z"
             style="fill:none;stroke:#000000;stroke-width:15;stroke-linecap:round;stroke-linejoin:round;stroke-miterlimit:10;stroke-dasharray:none;stroke-opacity:1"
             id="path6188" /></g><g
           id="g6190"
           transform="translate(385.6401,454.3652)"><path
             d="m 0,0 c 0,-8.708 -7.06,-15.769 -15.769,-15.769 -8.709,0 -15.769,7.061 -15.769,15.769 0,8.709 7.06,15.77 15.769,15.77 C -7.06,15.77 0,8.709 0,0 Z"
             style="fill:none;stroke:#000000;stroke-width:15;stroke-linecap:round;stroke-linejoin:round;stroke-miterlimit:10;stroke-dasharray:none;stroke-opacity:1"
             id="path6192" /></g><g
           id="g6194"
           transform="translate(370.3549,414.8926)"><path
             d="m 0,0 v -30.903 c 0,-2.102 1.704,-3.806 3.806,-3.806 h 25.6 c 1.312,0 2.532,-0.676 3.227,-1.789 l 12.181,-17.517"
             style="fill:none;stroke:#000000;stroke-width:15;stroke-linecap:round;stroke-linejoin:round;stroke-miterlimit:10;stroke-dasharray:none;stroke-opacity:1"
             id="path6196" /></g><g
           id="g6198"
           transform="translate(371.9253,407.8115)"><path
             d="M 0,0 H 31.437"
             style="fill:none;stroke:#000000;stroke-width:15;stroke-linecap:round;stroke-linejoin:round;stroke-miterlimit:10;stroke-dasharray:none;stroke-opacity:1"
             id="path6200" /></g><g
           id="g6202"
           transform="translate(391.5337,350.1982)"><path
             d="m 0,0 c -5.018,-2.79 -10.796,-4.379 -16.945,-4.379 -19.286,0 -34.922,15.635 -34.922,34.922 0,8.149 2.792,15.646 7.471,21.588"
             style="fill:none;stroke:#000000;stroke-width:15;stroke-linecap:round;stroke-linejoin:round;stroke-miterlimit:10;stroke-dasharray:none;stroke-opacity:1"
             id="path6204" /></g><g
           id="g6206"
           transform="translate(374.2387,307.2949)"><path
             d="m 0,0 c -34.69,0 -65.193,17.917 -82.768,45 h -133.498 c -11.786,0 -22.265,-7.505 -26.06,-18.664 l -43.48,-127.86 c 5.945,2.894 12.607,4.522 19.632,4.522 H 30.083 c 7.024,0 13.687,-1.628 19.631,-4.522 L 14.813,1.107 C 9.981,0.379 5.035,0 0,0 Z"
             style="fill:none;stroke:#000000;stroke-width:15;stroke-linecap:round;stroke-linejoin:round;stroke-miterlimit:10;stroke-dasharray:none;stroke-opacity:1"
             id="path6208" /></g><g
           id="g6210"
           transform="translate(374.2387,307.2949)"><path
             d="m 0,0 c -17.219,0 -33.404,4.418 -47.491,12.175 h -199.651 l -38.664,-113.699 c 5.945,2.894 12.607,4.522 19.632,4.522 H 30.083 c 7.024,0 13.687,-1.628 19.631,-4.522 L 14.813,1.107 C 9.981,0.379 5.035,0 0,0 Z"
             style="fill:none;stroke:#000000;stroke-width:15;stroke-linecap:round;stroke-linejoin:round;stroke-miterlimit:10;stroke-dasharray:none;stroke-opacity:1"
             id="path6212" /></g><g
           id="g6214"
           transform="translate(461.7778,251.2344)"><path
             d="m 0,0 h -36.928 c -5.862,0 -10.98,-3.325 -13.576,-8.18 l 12.679,-37.284 c 5.921,-2.883 11.128,-7.022 15.269,-12.068 H 0 c 8.462,0 15.386,6.924 15.386,15.386 v 26.759 C 15.386,-6.924 8.462,0 0,0 Z"
             style="fill:none;stroke:#000000;stroke-width:15;stroke-linecap:round;stroke-linejoin:round;stroke-miterlimit:10;stroke-dasharray:none;stroke-opacity:1"
             id="path6216" /></g><g
           id="g6218"
           transform="translate(88.4326,205.7705)"><path
             d="m 0,0 12.52,36.816 c -2.512,5.105 -7.757,8.648 -13.803,8.648 H -38.21 c -8.463,0 -15.387,-6.924 -15.387,-15.387 V 3.318 c 0,-8.463 6.924,-15.386 15.387,-15.386 h 22.942 C -11.127,-7.022 -5.921,-2.883 0,0 Z"
             style="fill:none;stroke:#000000;stroke-width:15;stroke-linecap:round;stroke-linejoin:round;stroke-miterlimit:10;stroke-dasharray:none;stroke-opacity:1"
             id="path6220" /></g><g
           id="g6222"
           transform="translate(273.5,34.3438)"><path
             d="m 0,0 h 38.414 c 6.512,0 11.792,5.279 11.792,11.792 v 25.024 c 0,6.513 -5.28,11.793 -11.792,11.793 H -73.028 c -6.513,0 -11.792,-5.28 -11.792,-11.793 V 11.792 C -84.82,5.279 -79.541,0 -73.028,0 H -35"
             style="fill:none;stroke:#000000;stroke-width:15;stroke-linecap:round;stroke-linejoin:round;stroke-miterlimit:10;stroke-dasharray:none;stroke-opacity:1"
             id="path6224" /></g><g
           id="g6226"
           transform="translate(449.4736,143.7148)"><path
             d="M 0,0 V 21.426 C 0,46.26 -20.318,66.578 -45.152,66.578 h -296.257 c -24.834,0 -45.153,-20.318 -45.153,-45.152 v -92.605 c 0,-7.637 6.25,-13.887 13.889,-13.887 h 111.879 v 12.511 c 0,6.513 5.28,11.793 11.793,11.793 h 111.441 c 6.513,0 11.792,-5.28 11.792,-11.793 V -85.066 H -13.889 C -6.25,-85.066 0,-78.816 0,-71.179 V -35"
             style="fill:none;stroke:#000000;stroke-width:15;stroke-linecap:round;stroke-linejoin:round;stroke-miterlimit:10;stroke-dasharray:none;stroke-opacity:1"
             id="path6228" /></g></g></g></g></svg>
