<svg height="512" viewBox="0 0 96 96" width="512" xmlns="http://www.w3.org/2000/svg"><g id="Layer_4"><g><g><circle cx="80.142" cy="82.653" fill="#8176be" r="7.789"/><path d="m80.142 92c-5.154 0-9.346-4.194-9.346-9.347s4.193-9.347 9.346-9.347c5.154 0 9.346 4.194 9.346 9.347s-4.192 9.347-9.346 9.347zm0-15.578c-3.436 0-6.231 2.795-6.231 6.231s2.795 6.231 6.231 6.231 6.231-2.795 6.231-6.231-2.795-6.231-6.231-6.231z" fill="#16191e"/></g><g><path d="m55.01 21.611c2.894.965 5.883-1.189 5.883-4.24v-7.021l-5.883-3.446-4.678 7.47z" fill="#efcbbd"/><path d="m56.443 23.402c-.642 0-1.291-.104-1.926-.315-.336-.113-.623-.335-.816-.632l-4.679-7.237c-.328-.509-.333-1.16-.012-1.673l4.679-7.469c.447-.713 1.381-.945 2.108-.515l5.883 3.447c.477.278.77.791.77 1.343v7.019c0 1.96-.912 3.742-2.503 4.89-1.047.756-2.264 1.142-3.504 1.142zm-.457-3.153c.75.122 1.508-.061 2.14-.517.768-.554 1.209-1.415 1.209-2.362v-6.126l-3.808-2.232-3.349 5.348z" fill="#16191e"/></g><g><path d="m40.433 10.35v7.021c0 3.051-2.989 5.205-5.883 4.24l-5.668-5.514 5.668-9.192z" fill="#efcbbd"/><path d="m35.984 23.402c-.642 0-1.291-.104-1.926-.315-.222-.074-.425-.198-.594-.361l-5.667-5.513c-.523-.509-.623-1.313-.24-1.934l5.668-9.193c.444-.724 1.383-.956 2.113-.526l5.883 3.447c.477.278.77.791.77 1.343v7.019c0 1.96-.912 3.742-2.503 4.89-1.048.757-2.264 1.143-3.504 1.143zm-.631-3.185c.807.178 1.633.007 2.313-.485.768-.554 1.209-1.415 1.209-2.362v-6.126l-3.798-2.225-4.213 6.833z" fill="#16191e"/></g><g><path d="m55.578 57.697c-.868 0-21.898 0-22.921 0-3.227 0-6.854 0-8.1 0-1.157 0-2.114-.935-2.114-2.07 0-.645 0-1.38 0-2.07 0-1.135.467-2.181 1.246-2.96.378-.378 35.291-3.366 35.758-3.566z" fill="#8e7e8d"/><path d="m55.578 59.256h-31.022c-2.025 0-3.672-1.628-3.672-3.629v-2.069c0-1.523.605-2.964 1.703-4.062.6-.6.624-.624 23.867-2.767 5.835-.539 11.866-1.095 12.63-1.213.506-.12 1.046.02 1.432.382.451.426.606 1.08.394 1.663l-3.869 10.666c-.222.618-.808 1.029-1.463 1.029zm-31.061-7.241c-.336.452-.517.989-.517 1.543v2.069c0 .274.26.513.556.513h29.93l2.641-7.28c-1.865.183-5.008.476-10.386.971-7.982.737-19.781 1.825-22.224 2.184z" fill="#16191e"/></g><g><path d="m44.31 82.144c-.263 4.625-4.101 8.298-8.791 8.298-4.598 0-8.377-3.531-8.771-8.027" fill="#8176be"/><path d="m35.519 92c-5.324 0-9.858-4.151-10.323-9.449-.075-.858.559-1.613 1.416-1.689.855-.089 1.613.559 1.688 1.415.325 3.705 3.496 6.607 7.22 6.607 3.84 0 7.018-2.999 7.236-6.828.049-.858.787-1.504 1.644-1.467.859.05 1.516.785 1.467 1.645-.313 5.476-4.858 9.766-10.348 9.766z" fill="#16191e"/></g><g><path d="m81.66 72.174-4.068-25.269h3.891c.597 0 1.15-.221 1.57-.641.398-.42.641-.973.641-1.57 0-2.034 0-5.041 0-7.075 0-.597-.243-1.15-.641-1.57-.42-.42-.973-.641-1.57-.641-1.791 0-4.377 0-6.61 0-.553 0-1.061.088-1.548.287l-2.86 8.528v22.601c0 4.525-3.656 8.204-8.204 8.204 0 0 0 0-.023 0-2.354 0-4.616-1.028-6.193-2.811-1.577-1.76-2.308-4.136-2.011-6.49.526-4.228 1.028-8.296 1.028-8.296-2.148 0-7.153 0-10.924 0l-11.472.274c-6.01 1.257-10.489 6.559-10.489 12.912v11.015h48.288z" fill="#f45876"/><path d="m70.465 83.192h-48.288c-.86 0-1.558-.698-1.558-1.558v-11.016c0-6.943 4.932-13.015 11.729-14.437.093-.02.187-.03.281-.033l11.472-.274h10.961c.446 0 .871.191 1.167.526s.434.78.379 1.224l-1.028 8.295c-.243 1.921.35 3.836 1.625 5.257 1.291 1.463 3.123 2.295 5.033 2.295 3.688 0 6.669-2.982 6.669-6.646v-22.601c0-.167.027-.335.081-.495l2.86-8.528c.144-.428.466-.774.884-.945.661-.272 1.361-.404 2.14-.404h6.61c1.017 0 1.967.391 2.673 1.1.716.754 1.096 1.693 1.096 2.669v7.074c0 .976-.379 1.915-1.068 2.64-.733.737-1.683 1.128-2.7 1.128h-2.062l3.777 23.464c.087.539-.115 1.084-.533 1.437l-11.195 9.46c-.28.238-.636.368-1.005.368zm-46.73-3.116h46.16l10.087-8.523-3.928-24.401c-.073-.45.056-.911.352-1.258.296-.348.729-.548 1.186-.548h3.891c.191 0 .344-.059.467-.183.053-.057.187-.233.187-.469v-7.074c0-.237-.134-.413-.214-.498-.096-.096-.248-.154-.44-.154h-6.61c-.118 0-.23.004-.337.017l-2.514 7.493v22.347c0 5.383-4.379 9.762-9.762 9.762-2.825 0-5.508-1.217-7.383-3.338-1.871-2.086-2.744-4.903-2.389-7.717l.811-6.541h-9.161l-11.288.269c-5.29 1.171-9.116 5.926-9.116 11.357v9.459z" fill="#16191e"/></g><g><path d="m88.09 77.234c-1.349-2.699-4.108-4.403-7.123-4.403-.462 0-.936 0-1.411 0-4.039 0-7.562 2.749-8.541 6.67-.308 1.231-.535 2.135-.535 2.135s5.083 0 8.341 0c1.739 0 3.438-.515 4.885-1.479 1.917-1.279 4.384-2.923 4.384-2.923z" fill="#ff94b3"/><path d="m78.821 83.194h-8.341c-.48 0-.933-.222-1.228-.6s-.4-.871-.283-1.337l.535-2.134c1.155-4.622 5.289-7.852 10.052-7.852h1.411c3.63 0 6.893 2.017 8.517 5.264.351.704.124 1.558-.529 1.993l-4.386 2.923c-1.707 1.141-3.695 1.743-5.748 1.743zm-6.345-3.116h6.344c1.436 0 2.826-.422 4.02-1.217l3.122-2.082c-1.199-1.5-3.016-2.391-4.995-2.391h-1.411c-3.331 0-6.222 2.258-7.03 5.492z" fill="#16191e"/></g><g><path d="m34.682 76.59h-3.702c-.86 0-1.558-.698-1.558-1.558 0-.861.697-1.558 1.558-1.558h3.702c.86 0 1.558.698 1.558 1.558-.001.86-.698 1.558-1.558 1.558z" fill="#16191e"/></g><g><path d="m53.813 21.024v-5.8c0-3.209 2.591-5.8 5.8-5.8h.889c-1.334-2.32-3.828-3.867-6.689-3.867-4.273 0-7.733 3.461-7.733 7.733s3.46 7.734 7.733 7.734z" fill="#8e7e8d"/><path d="m53.813 22.583c-5.123 0-9.291-4.168-9.291-9.293 0-5.122 4.168-9.29 9.291-9.29 3.311 0 6.392 1.782 8.04 4.649.277.482.276 1.076-.002 1.556s-.792.778-1.348.778h-.889c-2.339 0-4.242 1.904-4.242 4.242v5.8c-.001.861-.698 1.558-1.559 1.558zm0-15.467c-3.405 0-6.176 2.769-6.176 6.174 0 2.869 1.965 5.285 4.618 5.979v-4.044c0-3.264 2.136-6.039 5.084-6.998-1.018-.711-2.246-1.111-3.526-1.111z" fill="#16191e"/></g><g><path d="m41.275 44.666 3.995-20.632c1.388-2.265 4.482-2.728 6.479-.999l15.151 11.693 4.872 1.072c.609.097 1.145.341 1.583.706.804.633 1.315 1.632 1.315 2.728v.024c0 1.9-1.559 3.459-3.483 3.459l-.609-.171-.39-.097-7.624-1.9-6.479-6.479h-2.144l-.024 8.647 7.283 1.778c1.997.512 3.386 2.29 3.386 4.36v18.829c0 1.924-1.535 3.459-3.459 3.459h-1.632c-1.924 0-3.483-1.535-3.483-3.459v-10.011-6.358l-11.619-1.803-.268-.049" fill="#6ed3ff"/><path d="m61.127 72.702h-1.632c-2.78 0-5.041-2.251-5.041-5.018v-15.034l-10.615-1.654c-.846-.159-1.404-.971-1.246-1.817.158-.845.97-1.402 1.817-1.247l.268.05 11.572 1.795c.759.117 1.319.771 1.319 1.539v16.369c0 1.067.846 1.902 1.925 1.902h1.632c1.066 0 1.901-.835 1.901-1.902v-18.83c0-1.345-.911-2.517-2.214-2.851l-7.267-1.773c-.699-.17-1.19-.798-1.188-1.517l.024-8.647c.002-.858.699-1.554 1.558-1.554h2.144c.413 0 .809.165 1.102.456l6.174 6.174 8.011 2.008c.976-.091 1.742-.906 1.742-1.893 0-.611-.27-1.174-.723-1.53-.26-.217-.541-.339-.865-.391l-4.96-1.089c-.224-.05-.435-.148-.617-.289l-15.15-11.692c-.678-.58-1.487-.815-2.287-.691-.713.111-1.345.493-1.771 1.065l-3.935 20.32c-.164.845-.981 1.4-1.826 1.234-.845-.165-1.397-.982-1.233-1.826l3.995-20.63c.036-.185.104-.359.201-.517.898-1.467 2.39-2.46 4.092-2.723 1.708-.274 3.433.23 4.736 1.358l14.805 11.423 4.531.998c.784.124 1.591.485 2.245 1.03 1.163.917 1.876 2.395 1.876 3.927 0 2.79-2.261 5.042-5.041 5.042-.143 0-.285-.02-.423-.059l-.955-.259-7.622-1.897c-.274-.07-.525-.211-.725-.411l-5.968-5.968-.017 5.813 6.092 1.486c2.7.689 4.574 3.103 4.574 5.872v18.829c.002 2.767-2.249 5.019-5.015 5.019z" fill="#16191e"/></g><g><path d="m21.155 43.045 3.662-19.022c1.384-2.255 4.488-2.724 6.475-.982l1.273 1.13c2.353 2.09 3.433 5.265 2.842 8.356l-1.95 10.183 7.278 1.786c2.009.514 3.394 2.3 3.394 4.354v18.844c0 1.911-1.549 3.461-3.461 3.461h-1.63c-1.924 0-3.483-1.559-3.483-3.483v-10.003-6.341l-11.632-1.808s-.024-.013-.068-.037c-1.676-.921-2.701-2.698-2.701-4.611v-1.827z" fill="#6ed3ff"/><path d="m40.668 72.713h-1.63c-2.78 0-5.041-2.262-5.041-5.042v-15.008l-10.314-1.604c-.175-.026-.344-.083-.5-.167-2.243-1.232-3.587-3.523-3.587-6.02v-1.828c0-.098.009-.198.028-.293l3.662-19.022c.036-.185.104-.363.202-.522.901-1.467 2.397-2.456 4.106-2.714 1.708-.269 3.43.243 4.723 1.376l1.28 1.137c2.75 2.443 4.028 6.202 3.337 9.814l-1.67 8.73 5.842 1.434c2.702.689 4.58 3.099 4.58 5.866v18.844c0 2.767-2.251 5.019-5.018 5.019zm-16.221-24.688 11.348 1.765c.759.117 1.318.771 1.318 1.539v16.343c0 1.063.864 1.925 1.925 1.925h1.63c1.049 0 1.903-.854 1.903-1.904v-18.844c0-1.341-.914-2.51-2.221-2.843l-7.265-1.784c-.805-.198-1.315-.991-1.159-1.806l1.949-10.184c.486-2.538-.413-5.181-2.346-6.898l-1.272-1.13c-.594-.522-1.396-.743-2.195-.632-.715.109-1.35.489-1.776 1.056l-3.574 18.564v1.68c0 1.297.66 2.488 1.735 3.153z" fill="#16191e"/></g><g><path d="m41.275 44.666 12.642-1.949 7.283 1.778c1.997.512 3.386 2.29 3.386 4.36v18.829c0 1.924-1.535 3.459-3.459 3.459h-1.632c-1.924 0-3.483-1.535-3.483-3.459v-10.011-6.358l-11.619-1.803-.268-.049" fill="#ffce44"/><path d="m61.127 72.702h-1.632c-2.78 0-5.041-2.251-5.041-5.018v-15.034l-10.615-1.654c-.846-.159-1.404-.971-1.246-1.817.158-.845.97-1.402 1.817-1.247l.268.05 11.572 1.795c.759.117 1.319.771 1.319 1.539v16.369c0 1.067.846 1.902 1.925 1.902h1.632c1.066 0 1.901-.835 1.901-1.902v-18.83c0-1.345-.911-2.517-2.214-2.851l-6.966-1.699-12.336 1.899c-.851.146-1.646-.452-1.777-1.302s.452-1.645 1.303-1.776l12.642-1.947c.202-.033.408-.026.607.026l7.283 1.778c2.7.689 4.574 3.103 4.574 5.872v18.829c.001 2.766-2.25 5.018-5.016 5.018z" fill="#16191e"/></g><g><path d="m33.457 42.71 7.278 1.786c2.009.514 3.394 2.3 3.394 4.354v18.844c0 1.911-1.549 3.461-3.461 3.461h-1.63c-1.924 0-3.483-1.559-3.483-3.483v-10.003-6.341l-11.632-1.808s-.024-.013-.068-.037c-1.676-.921-2.701-2.698-2.701-4.611z" fill="#ffce44"/><path d="m40.668 72.713h-1.63c-2.78 0-5.041-2.262-5.041-5.042v-15.008l-10.314-1.604c-.175-.026-.344-.083-.5-.167-2.243-1.232-3.587-3.523-3.587-6.02 0-.756.543-1.404 1.288-1.534l12.302-2.162c.212-.037.431-.033.641.022l7.278 1.786c2.702.689 4.58 3.099 4.58 5.866v18.844c.001 2.767-2.25 5.019-5.017 5.019zm-16.221-24.688 11.348 1.765c.759.117 1.318.771 1.318 1.539v16.343c0 1.063.864 1.925 1.925 1.925h1.63c1.049 0 1.903-.854 1.903-1.904v-18.844c0-1.341-.914-2.51-2.221-2.843l-6.946-1.706-10.472 1.841c.277.778.806 1.445 1.515 1.884z" fill="#16191e"/></g><g><path d="m33.354 21.024v-5.8c0-3.209 2.591-5.8 5.8-5.8h.889c-1.334-2.32-3.828-3.867-6.689-3.867-4.273 0-7.733 3.461-7.733 7.733s3.46 7.734 7.733 7.734z" fill="#8e7e8d"/><path d="m33.354 22.583c-5.123 0-9.291-4.168-9.291-9.293 0-5.122 4.168-9.29 9.291-9.29 3.311 0 6.392 1.782 8.04 4.649.277.482.276 1.076-.002 1.556s-.792.778-1.348.778h-.889c-2.339 0-4.242 1.904-4.242 4.242v5.8c-.002.861-.699 1.558-1.559 1.558zm0-15.467c-3.405 0-6.176 2.769-6.176 6.174 0 2.869 1.964 5.285 4.618 5.979v-4.044c0-3.264 2.136-6.039 5.084-6.998-1.019-.711-2.246-1.111-3.526-1.111z" fill="#16191e"/></g><g><path d="m56.443 23.402c-.642 0-1.291-.104-1.926-.315-.816-.272-1.257-1.154-.985-1.971.272-.815 1.154-1.258 1.971-.984.898.298 1.855.154 2.623-.4.769-.554 1.209-1.415 1.209-2.362v-7.02c0-.861.697-1.558 1.558-1.558s1.558.698 1.558 1.558v7.019c0 1.96-.912 3.742-2.503 4.89-1.048.757-2.265 1.143-3.505 1.143z" fill="#16191e"/></g><g><path d="m35.984 23.402c-.642 0-1.291-.104-1.926-.315-.816-.272-1.257-1.154-.985-1.971.272-.815 1.154-1.258 1.971-.984.898.298 1.855.154 2.623-.4.769-.554 1.209-1.415 1.209-2.362v-7.02c0-.861.697-1.558 1.558-1.558.86 0 1.558.698 1.558 1.558v7.019c0 1.96-.912 3.742-2.503 4.89-1.049.757-2.266 1.143-3.505 1.143z" fill="#16191e"/></g><g><path d="m47.59 51.563c-.86 0-1.604-.719-1.604-1.58s.697-1.558 1.558-1.558c.372 0 .713.13.981.348.371.285.611.73.611 1.232 0 .86-.686 1.558-1.546 1.558zm1.512-1.58h.022z" fill="#16191e"/></g><g><path d="m17.211 67.577h-2.626c-.86 0-1.558-.698-1.558-1.558 0-.861.697-1.558 1.558-1.558h2.626c.86 0 1.558.698 1.558 1.558 0 .861-.697 1.558-1.558 1.558z" fill="#16191e"/></g><g><path d="m16.879 74.254h-8.97c-.86 0-1.558-.698-1.558-1.558 0-.861.697-1.558 1.558-1.558h8.969c.86 0 1.558.698 1.558 1.558s-.697 1.558-1.557 1.558z" fill="#16191e"/></g></g></g></svg>