<svg width="90" height="90" viewBox="0 0 90 90" fill="none" xmlns="http://www.w3.org/2000/svg">
<g id="planning_1322186 1" clip-path="url(#clip0_1_1079)">
<path id="Vector" d="M1.75781 23.3789V69.6094C1.75781 71.5519 3.33092 73.125 5.27344 73.125H50.0324L76.6406 51.1805V23.3789H1.75781Z" fill="#EDE9E8"/>
<path id="Vector_2" d="M88.2421 68.9062C88.2421 79.585 79.5849 88.2422 68.9062 88.2422C59.6756 88.2422 51.957 81.7754 50.0324 73.125C47.3414 61.0291 56.5445 49.5703 68.9062 49.5703C79.5169 49.5703 88.2421 58.1609 88.2421 68.9062Z" fill="#4CFFF2"/>
<path id="Vector_3" d="M73.125 8.78906H5.27344C3.33092 8.78906 1.75781 10.3622 1.75781 12.3047V23.3789H76.6406V12.3047C76.6406 10.3622 75.0675 8.78906 73.125 8.78906Z" fill="#ED5575"/>
<g id="Group">
<path id="Vector_4" d="M66.0938 12.3047C66.0938 14.2472 64.5206 15.8203 62.5781 15.8203C60.6356 15.8203 59.0625 14.2472 59.0625 12.3047C59.0625 9.84581 59.0625 7.73232 59.0625 5.27344C59.0625 3.33092 60.6356 1.75781 62.5781 1.75781C64.5186 1.75781 66.0938 3.33298 66.0938 5.27344V12.3047Z" fill="#656D88"/>
<path id="Vector_5" d="M40.957 12.3047C40.957 14.2472 39.3839 15.8203 37.4414 15.8203C35.4989 15.8203 33.9258 14.2472 33.9258 12.3047C33.9258 9.84581 33.9258 7.73232 33.9258 5.27344C33.9258 3.33092 35.4989 1.75781 37.4414 1.75781C39.3819 1.75781 40.957 3.33298 40.957 5.27344V12.3047Z" fill="#656D88"/>
<path id="Vector_6" d="M15.8203 12.3047C15.8203 14.2472 14.2472 15.8203 12.3047 15.8203C10.3622 15.8203 8.78906 14.2472 8.78906 12.3047C8.78906 9.84581 8.78906 7.73232 8.78906 5.27344C8.78906 3.33092 10.3622 1.75781 12.3047 1.75781C14.2451 1.75781 15.8203 3.33298 15.8203 5.27344V12.3047Z" fill="#656D88"/>
</g>
<path id="Vector_7" d="M35.6836 66.0938C35.6836 67.0647 34.8967 67.8516 33.9258 67.8516C32.9549 67.8516 32.168 67.0647 32.168 66.0938C32.168 65.1228 32.9549 64.3359 33.9258 64.3359C34.8967 64.3359 35.6836 65.1228 35.6836 66.0938Z" fill="black"/>
<path id="Vector_8" d="M79.4531 67.1484H70.6641V58.3594C70.6641 57.3885 69.8772 56.6016 68.9062 56.6016C67.9353 56.6016 67.1484 57.3885 67.1484 58.3594V68.9062C67.1484 69.8772 67.9353 70.6641 68.9062 70.6641H79.4531C80.424 70.6641 81.2109 69.8772 81.2109 68.9062C81.2109 67.9353 80.424 67.1484 79.4531 67.1484Z" fill="black"/>
<path id="Vector_9" d="M12.3047 36.2109H23.3789C24.3498 36.2109 25.1367 35.424 25.1367 34.4531C25.1367 33.4822 24.3498 32.6953 23.3789 32.6953H12.3047C11.3338 32.6953 10.5469 33.4822 10.5469 34.4531C10.5469 35.424 11.3338 36.2109 12.3047 36.2109Z" fill="black"/>
<path id="Vector_10" d="M45 32.6953H33.9258C32.9549 32.6953 32.168 33.4822 32.168 34.4531C32.168 35.424 32.9549 36.2109 33.9258 36.2109H45C45.9709 36.2109 46.7578 35.424 46.7578 34.4531C46.7578 33.4822 45.9709 32.6953 45 32.6953Z" fill="black"/>
<path id="Vector_11" d="M12.3047 46.7578H23.3789C24.3498 46.7578 25.1367 45.9709 25.1367 45C25.1367 44.0291 24.3498 43.2422 23.3789 43.2422H12.3047C11.3338 43.2422 10.5469 44.0291 10.5469 45C10.5469 45.9709 11.3338 46.7578 12.3047 46.7578Z" fill="black"/>
<path id="Vector_12" d="M26.8945 64.3359H12.3047C11.3338 64.3359 10.5469 65.1228 10.5469 66.0938C10.5469 67.0647 11.3338 67.8516 12.3047 67.8516H26.8945C27.8654 67.8516 28.6523 67.0647 28.6523 66.0938C28.6523 65.1228 27.8654 64.3359 26.8945 64.3359Z" fill="black"/>
<path id="Vector_13" d="M45 43.2422H33.9258C32.9549 43.2422 32.168 44.0291 32.168 45C32.168 45.9709 32.9549 46.7578 33.9258 46.7578H45C45.9709 46.7578 46.7578 45.9709 46.7578 45C46.7578 44.0291 45.9709 43.2422 45 43.2422Z" fill="black"/>
<path id="Vector_14" d="M12.3047 57.3047H23.3789C24.3498 57.3047 25.1367 56.5178 25.1367 55.5469C25.1367 54.576 24.3498 53.7891 23.3789 53.7891H12.3047C11.3338 53.7891 10.5469 54.576 10.5469 55.5469C10.5469 56.5178 11.3338 57.3047 12.3047 57.3047Z" fill="black"/>
<path id="Vector_15" d="M45 53.7891H33.9258C32.9549 53.7891 32.168 54.576 32.168 55.5469C32.168 56.5178 32.9549 57.3047 33.9258 57.3047H45C45.9709 57.3047 46.7578 56.5178 46.7578 55.5469C46.7578 54.576 45.9709 53.7891 45 53.7891Z" fill="black"/>
<path id="Vector_16" d="M55.5469 36.2109H66.0938C67.0647 36.2109 67.8516 35.424 67.8516 34.4531C67.8516 33.4822 67.0647 32.6953 66.0938 32.6953H55.5469C54.576 32.6953 53.7891 33.4822 53.7891 34.4531C53.7891 35.424 54.576 36.2109 55.5469 36.2109Z" fill="black"/>
<path id="Vector_17" d="M78.3984 50.0688V12.3047C78.3984 9.39674 76.0329 7.03125 73.125 7.03125H67.8516V5.27344C67.8516 2.36 65.4916 0 62.5781 0C59.6702 0 57.3047 2.36549 57.3047 5.27344V7.03125H42.7148V5.27344C42.7148 2.36 40.3548 0 37.4414 0C34.5335 0 32.168 2.36549 32.168 5.27344V7.03125H17.5781V5.27344C17.5781 2.36 15.2181 0 12.3047 0C9.39674 0 7.03125 2.36549 7.03125 5.27344V7.03125H5.27344C2.36549 7.03125 0 9.39674 0 12.3047V69.6094C0 72.5173 2.36549 74.8828 5.27344 74.8828H48.6777C51.3302 83.8456 59.5596 90 68.9062 90C80.5373 90 90 80.5373 90 68.9062C90 60.9082 85.4819 53.6394 78.3984 50.0688ZM60.8203 5.27344C60.8203 4.30389 61.6086 3.51562 62.5781 3.51562C63.5484 3.51562 64.3359 4.30252 64.3359 5.27344V12.3047C64.3359 13.2742 63.5477 14.0625 62.5781 14.0625C61.6086 14.0625 60.8203 13.2742 60.8203 12.3047V5.27344ZM35.6836 5.27344C35.6836 4.30389 36.4719 3.51562 37.4414 3.51562C38.4116 3.51562 39.1992 4.30252 39.1992 5.27344V12.3047C39.1992 13.2742 38.4109 14.0625 37.4414 14.0625C36.4719 14.0625 35.6836 13.2742 35.6836 12.3047V5.27344ZM10.5469 5.27344C10.5469 4.30389 11.3351 3.51562 12.3047 3.51562C13.2749 3.51562 14.0625 4.30252 14.0625 5.27344V12.3047C14.0625 13.2742 13.2742 14.0625 12.3047 14.0625C11.3351 14.0625 10.5469 13.2742 10.5469 12.3047V5.27344ZM5.27344 10.5469H7.03125V12.3047C7.03125 15.2126 9.39674 17.5781 12.3047 17.5781C15.2126 17.5781 17.5781 15.2126 17.5781 12.3047V10.5469H32.168V12.3047C32.168 15.2126 34.5335 17.5781 37.4414 17.5781C40.3493 17.5781 42.7148 15.2126 42.7148 12.3047V10.5469H57.3047V12.3047C57.3047 15.2126 59.6702 17.5781 62.5781 17.5781C65.4861 17.5781 67.8516 15.2126 67.8516 12.3047V10.5469H73.125C74.0945 10.5469 74.8828 11.3351 74.8828 12.3047V21.6211H3.51562V12.3047C3.51562 11.3351 4.30389 10.5469 5.27344 10.5469ZM3.51562 69.6094V25.1367H74.8828V48.6722C72.954 48.1016 70.9531 47.8125 68.9062 47.8125C57.2752 47.8125 47.8125 57.2752 47.8125 68.9062C47.8125 69.7289 47.8619 70.5515 47.9567 71.3672H5.27344C4.30389 71.3672 3.51562 70.5789 3.51562 69.6094ZM68.9062 86.4844C59.4841 86.4844 51.3281 78.807 51.3281 68.9062C51.3281 59.2136 59.2136 51.3281 68.9062 51.3281C78.634 51.3281 86.4844 59.2204 86.4844 68.9062C86.4844 78.5989 78.5989 86.4844 68.9062 86.4844Z" fill="black"/>
</g>
<defs>
<clipPath id="clip0_1_1079">
<rect width="90" height="90" fill="white"/>
</clipPath>
</defs>
</svg>
