<?xml version="1.0" encoding="utf-8"?>
<!-- Generator: Adobe Illustrator 24.3.0, SVG Export Plug-In . SVG Version: 6.00 Build 0)  -->
<svg version="1.1" id="Layer_1" xmlns="http://www.w3.org/2000/svg" xmlns:xlink="http://www.w3.org/1999/xlink" x="0px" y="0px"
	 viewBox="0 0 674 540" style="enable-background:new 0 0 674 540;" xml:space="preserve">
<style type="text/css">
	.st0{fill:#CEC8C0;}
	.st1{fill:#F8EFE3;}
	.st2{fill:#2D2D2D;}
	.st3{fill:#515151;}
	.st4{fill:#FFFFFF;}
	.st5{opacity:0.8;fill:#D1CBC3;enable-background:new    ;}
	.st6{opacity:0.3;}
	.st7{fill:#3A3A3A;}
	.st8{fill:#FEA618;}
	.st9{fill:#CE9D55;}
	.st10{fill:#343434;}
	.st11{fill:#815E2C;}
	.st12{fill:#3C3C3C;}
	.st13{fill:#ECEBE9;}
	.st14{fill:#686663;}
	.st15{fill:#202020;}
	.st16{fill:#FCA61A;}
	.st17{fill:#FFFEFD;}
	.st18{opacity:0.7;fill:#AF6F12;enable-background:new    ;}
	.st19{fill:#AF6F12;}
	.st20{opacity:0.4;fill:#323232;enable-background:new    ;}
	.st21{fill:#E69C24;}
	.st22{fill:#E0BB86;}
	.st23{fill:#484848;}
	.st24{fill:#E8A942;}
	.st25{fill:#DD9328;}
	.st26{fill:#C18021;}
	.st27{fill:#F4C582;}
	.st28{fill:#F79200;}
	.st29{fill:#1CB5B9;}
	.st30{fill:#FCEACD;stroke:#FCEACD;stroke-linecap:round;stroke-linejoin:round;}
	.st31{fill:#FCEACD;}
	.st32{fill:none;stroke:#263238;stroke-linecap:round;stroke-linejoin:round;}
	.st33{fill:#263238;}
	.st34{opacity:0.7;fill:#FFFFFF;enable-background:new    ;}
	.st35{fill:#EBB376;}
	.st36{opacity:0.2;enable-background:new    ;}
	.st37{fill:#D58745;}
	.st38{fill:#DE5753;}
</style>
<path class="st0" d="M382.2,535c152.3,0,275.7-4.9,275.7-10.9s-123.4-10.9-275.7-10.9s-275.7,4.9-275.7,10.9S230,535,382.2,535z"/>
<path class="st1" d="M673.3,303.1l-15-29.7h-13.6v-59h-51.9v66.1h-11.4V159.3l-55.7,16.5v116.5l107.1,191.3c0.4,0.8,40.9,0,40.9,0
	L673.3,303.1z"/>
<path class="st1" d="M476.7,80.5h-21.2l-26.7,18.1v120.9l-13.3,11.8l-1-110.6h-48.8v98.5h-13.1V0l-13.3,43.8l-0.2,4.4
	c-2.5,23-24.5,29.8-24.5,29.8c-43.8,13.3-56.1,87.5-56.1,87.5v94.6l-9.4,5.7V182h-18.4v-24.3l-14.9-1.4v-35.7h-8.9v37.1H194v22.8
	h-16.1v173.6l71.1,17l12.4-10.3l48.2,34.1l1.4-39.7l23.1-51.4c7.3,3.2,14.1,5,18.5,3.7c9.3-2.5,30.7-12,46.1-19.1l-21.4,98.8
	c0,0,31.6,5.8,40.5,6.4c9,0.6,54.4-23.9,54.4-23.9l39.3-86.9V59.4h-34.8V80.5z"/>
<path class="st1" d="M162.1,341.2h-17v-29.8c-40,10.1-39.8,51.2-39.8,51.2v79.1l0,0l-1.7,4.3c0,0,35.8-1.1,59-21.3
	c23.2-20.2,39.8-31,39.8-31V267.1h-40.3V341.2z"/>
<path class="st2" d="M393.1,393.2c0,0,1,24.6,21.3,26.6c13.2,1.3,138.5,14.4,138.5,14.4s33.9,5.9,43.4-37.1
	c11.1-50.4,67.3-252.7,67.3-252.7s2.3-25-10.8-29.9L393.1,393.2z"/>
<path class="st3" d="M584.6,399.2c-3.4,10.6-12.4,19.8-22.8,20.3l-154.9-12.9c-10.4,0.4-16.1-7.9-12.8-18.5l79.5-250.2
	c3.4-10.6,14.6-19.6,25-20l145.3-5.8c10.4-0.4,16.1,7.9,12.8,18.5L584.6,399.2z"/>
<path class="st4" d="M571.7,360.9c-2.6,8.1-9.7,15.2-17.8,15.5l-121.2-7.1c-8.1,0.3-12.6-6-10-14.1l60.8-191.6
	c2.6-8.1,11.4-15,19.5-15.3l113.7-3c8.1-0.3,12.6,6,10,14.1L571.7,360.9z M581.6,129.9c0,0.8-0.3,1.6-0.8,2.2
	c-0.6,0.6-1.3,0.9-2.1,0.9l-35.2,1c-0.8,0-1.6-0.3-2.2-0.8c-0.6-0.6-0.9-1.3-0.9-2.1c0-0.4,0.1-0.8,0.2-1.2c0.1-0.4,0.4-0.7,0.6-1
	c0.3-0.3,0.6-0.5,1-0.7s0.8-0.3,1.1-0.3l35.2-1c0.4,0,0.8,0.1,1.2,0.2s0.7,0.4,1,0.6c0.3,0.3,0.5,0.6,0.7,1
	C581.5,129.1,581.6,129.5,581.6,129.9z"/>
<g>
	<path class="st5" d="M518.9,147.9c0,0-19.1,0.8-25.7,28.8c-6.7,27.9-53.1,174.8-53.1,174.8s-6.5,17.9,25.1,19.7
		c0,0-25.6,19.2-29.8,18.7c-4.2-0.6-41-39.3-43.6-55.4s6-116.9,7.9-132.8c1.9-16,78.4-114.5,78.4-114.5l52.1-34L518.9,147.9z"/>
</g>
<g class="st6">
	<g>
		<path class="st7" d="M412.6,329.8c0,0,148.7,35.2,203.2-47.1c0,0-3.5,162.5-7.9,171.5s-95.6,42.2-133.8,34.7
			c-38.3-7.5-175.1-41.6-181.7-52.4L412.6,329.8z"/>
	</g>
</g>
<path class="st8" d="M495.5,368l-43-79.1l-193.7-3.8l-68.7-67.9l-85,87L95,254.8l6.3-1.3L109,291l81.1-82.9l71.5,70.7l194.9,3.8
	l40.8,75.2L599,267.2l-5.3,14L495.5,368z"/>
<path class="st8" d="M139.8,212.9c-0.4-5.2-1.9-10.2-4.4-14.7s-5.9-8.5-10-11.6c-4.1-3.1-8.8-5.4-13.9-6.6c-5-1.2-10.3-1.3-15.3-0.4
	c-5.1,0.9-9.9,2.9-14.2,5.9c-4.3,2.9-7.9,6.7-10.6,11.1c-2.7,4.4-4.5,9.3-5.1,14.5s-0.3,10.3,1.2,15.3l0,0c0.9,2.9,2.1,5.7,3.6,8.4
	c5.3,11.6,16.4,33.6,31.8,53.6c13.2-15.8,25.3-39.8,31.4-52.9c1.8-2.8,3.1-5.9,4.1-9.1v-0.1l0,0C139.7,222,140.2,217.5,139.8,212.9z
	 M103,236.5c-4.1,0-8.2-1.2-11.6-3.5s-6.1-5.6-7.7-9.4c-1.6-3.8-2-8-1.2-12.1c0.8-4,2.8-7.8,5.7-10.7c2.9-2.9,6.6-4.9,10.7-5.7
	s8.2-0.4,12.1,1.2c3.8,1.6,7.1,4.3,9.4,7.7s3.5,7.5,3.5,11.6c0,2.7-0.5,5.5-1.6,8c-1,2.5-2.6,4.8-4.5,6.8c-1.9,1.9-4.2,3.5-6.8,4.5
	C108.4,236,105.7,236.5,103,236.5z"/>
<path class="st9" d="M592.3,281.5c-11.5-10.1-21.3-23.5-29.2-39.8c-6.6-14.1-11.7-28.8-15-44c-3.8-16.6-6-33.4-6.6-50.4h4.9
	c0.5,16.7,2.7,33.2,6.5,49.5c5.7,24.9,17.7,59.1,42.6,81.1L592.3,281.5z"/>
<path class="st8" d="M237.1,349.6l54.2-40.9c0,0,7-7.5,19.9-10.9l41.1-6.1C352.2,291.7,251.4,364.1,237.1,349.6z"/>
<path class="st8" d="M668.7,472.2v-54c-8.8-9.2-8.8-26.4-8.8-26.4v-22.4c-7.3-17.1-38-60.6-38-60.6c7.3-5.3,10.2-15.8,10.2-15.8
	c-185.6-19.8-286.4,0-286.4,0c-3.5,0.8-7,1.6-10.3,2.4L237,349.6l-79.8,17.2c-49.7,18.4-54.1,48.8-54.1,48.8v27.7
	c-16.1-2.6-2.9,37.6-2.9,37.6l27.8,2h504.2C671.6,481.4,668.7,472.2,668.7,472.2z"/>
<path class="st10" d="M396.2,304.2c-4-7.8-11.2-5.3-11.2-5.3h-32.1c-26.4,0-43.9,8.2-45,8.8l0,0l0,0C282.3,319.9,264,338,254.5,349
	c-1.6,1.8-2.9,3.4-4,4.8c-0.1,2.4,3.5,4.8,18.7,4.8h130.1C401.5,338.4,399.2,310.1,396.2,304.2z M402.5,298.7c0,0,7.3,43.7,5.8,60
	l145.2,1.8c0,0,2.9-0.9,2.4-8.8c0,0-13.4-42.9-62.8-52.9h-90.6L402.5,298.7L402.5,298.7z"/>
<g>
	<path class="st11" d="M242.9,472.2c0,27.8-25,50.4-55.9,50.4s-55.9-22.6-55.9-50.4s25-50.4,55.9-50.4S242.9,444.4,242.9,472.2z"/>
</g>
<g>
	<path class="st11" d="M647,472.2c0,27.8-25,50.4-55.9,50.4s-55.9-22.6-55.9-50.4s25-50.4,55.9-50.4C622,421.9,647,444.4,647,472.2z
		"/>
</g>
<path class="st12" d="M237.1,479.3c0,27-22.4,48.8-50,48.8s-50-21.9-50-48.8c0-27,22.4-48.8,50-48.8S237.1,452.4,237.1,479.3z"/>
<path class="st13" d="M226.1,479.3c0,21-17.5,38.1-39,38.1s-39-17-39-38.1c0-21,17.5-38.1,39-38.1
	C208.6,441.3,226.1,458.3,226.1,479.3z"/>
<path class="st14" d="M218.7,479.3c0,17.1-14.2,30.9-31.7,30.9s-31.7-13.8-31.7-30.9s14.2-30.9,31.7-30.9S218.7,462.3,218.7,479.3z"
	/>
<path class="st13" d="M205.3,479.3c0.1,3.6-0.9,7.2-2.9,10.2c-1.9,3.1-4.8,5.5-8.1,6.9s-7,1.9-10.6,1.2c-3.6-0.7-6.8-2.4-9.4-4.9
	c-2.6-2.5-4.4-5.8-5.1-9.3c-0.7-3.5-0.4-7.2,1-10.6s3.7-6.2,6.7-8.2s6.5-3.1,10.2-3.1c4.8-0.1,9.4,1.8,12.8,5.1
	C203.2,470,205.2,474.6,205.3,479.3z"/>
<path class="st12" d="M642.6,479.3c0,27-22.4,48.8-50,48.8s-50-21.9-50-48.8c0-27,22.4-48.8,50-48.8
	C620.2,430.5,642.6,452.4,642.6,479.3z"/>
<path class="st13" d="M631.6,479.3c0,21-17.5,38.1-39,38.1s-39-17-39-38.1c0-21,17.5-38.1,39-38.1
	C614.1,441.3,631.6,458.3,631.6,479.3z"/>
<path class="st14" d="M624.3,479.3c0,17.1-14.2,30.9-31.7,30.9s-31.7-13.8-31.7-30.9s14.2-30.9,31.7-30.9S624.3,462.3,624.3,479.3z"
	/>
<path class="st13" d="M610.8,479.3c0.1,3.6-0.9,7.2-2.9,10.2c-1.9,3.1-4.8,5.5-8.1,6.9s-7,1.9-10.6,1.2c-3.6-0.7-6.8-2.4-9.4-4.9
	s-4.4-5.8-5.1-9.3c-0.7-3.5-0.4-7.2,1-10.6s3.7-6.2,6.7-8.2s6.5-3.1,10.2-3.1c4.8-0.1,9.4,1.8,12.8,5.1
	C608.8,470,610.7,474.6,610.8,479.3z"/>
<path class="st15" d="M356.2,298.9c0,0,18.6,2.8,20.8,22.6v16.8c0,0,5.5,20.4-10.4,20.4h32.1c0,0,3.8-35.2-2.9-54.5
	c0,0-0.4-5.5-11.2-5.3H356.2z"/>
<path class="st15" d="M261.5,341.2c0,0,112.5,19.4,137.6-12.5v29.9H269C269,358.6,236.2,362.6,261.5,341.2z M408,341.2
	c0,0,133.7,12.8,128.4-19.8c0,0,30.3,29.6,17.1,39l-145.2-1.8L408,341.2z"/>
<path class="st16" d="M294.6,314.8c0,0,47.2-16.7,114.1-15.9l139.2-0.2c0,0,74.3,0.4,84.3-5.7c0,0-198.1-21.7-307.1,2.8L294.6,314.8
	z M113,396.2c0,0,23.1-5.2,42.4-12.8c19.3-7.6,98.6-26.3,98.6-26.3s-14.9-0.6-23.8-6.1l-72.9,15.7
	C157.2,366.8,130.9,374.5,113,396.2z M261.8,358.4c0,0-1,8.9,12.9,7.9s115.4,0.1,115.4,0.1s11.3-0.8,12-7.7L261.8,358.4z
	 M412.1,358.6c0,0-0.8,7.7,7,7.7s1.9,0,1.9,0l113.5,1.8c0,0,19.5,1.1,22.3-7.7L412.1,358.6z"/>
<path class="st17" d="M113,409.4c0,0,6.3-18.9,29.3-21.3c22.9-2.4-0.4,17.3-8.5,21.3S104.7,424.6,113,409.4z"/>
<path class="st17" d="M108.6,402.6c0,0,6.4,2,14-6.3l-7.4,13c0,0-8,2.9-11.2,2L108.6,402.6z"/>
<path class="st18" d="M103.2,434.5c0,0,12,4.5,31.4-13.6c0,0-12,12.9-17.5,22.3h-13.9C103.2,443.2,103.2,434.5,103.2,434.5z"/>
<path class="st19" d="M638.9,417.9c0,0,24.8,28,29.8,10.8v17.1c0,0-3.6,7.7-11.7,1.2C657,446.9,655.4,436.5,638.9,417.9z"/>
<path class="st16" d="M223.5,364.5c0,0,31.5-8.6,41.4,0l-3.1-6.1l-7.8-1.3C254,357.1,218.5,357.5,223.5,364.5z"/>
<path class="st16" d="M274.6,366.3c0,0-44.7-3.9-73.4,3.9c0,0,17.7-14.6,24.8-13C233.1,358.7,264.3,355.7,274.6,366.3z"/>
<path class="st10" d="M525,299.4c0,0,34.7,20.8,42.7,52.1c0,0,1.1,8.5,11.2,8.9h63.6c0,0-19.3-48.8-43.5-57.3
	C599.1,303.1,548.9,298.2,525,299.4z"/>
<path class="st15" d="M553.6,324.7c0,0,58.6,30.9,78,13.2l11,22.5H579c0,0-8.4,1.5-12.3-12.6c-3.9-14.1,1.1,3.7,1.1,3.7L553.6,324.7
	z"/>
<path class="st16" d="M284.6,321.4c0,0,6.9-5,6.7-12.7c0,0,8.3-9.8,40.7-14.4l-20.7,14.4C311.2,308.7,287.3,315.6,284.6,321.4z"/>
<path class="st11" d="M366.4,373.7h17.1c0.9,0,1.8,0.4,2.5,1s1,1.6,1,2.5v2.7c0,0.9-0.4,1.8-1,2.5c-0.7,0.7-1.6,1-2.5,1h-17.1
	c-0.9,0-1.8-0.4-2.5-1c-0.7-0.7-1-1.6-1-2.5v-2.7c0-0.9,0.4-1.8,1-2.5C364.6,374,365.5,373.7,366.4,373.7z M439.7,373.7h17.1
	c0.9,0,1.8,0.4,2.5,1c0.7,0.7,1,1.6,1,2.5v2.7c0,0.9-0.4,1.8-1,2.5c-0.7,0.7-1.6,1-2.5,1h-17.1c-0.9,0-1.8-0.4-2.5-1
	c-0.7-0.7-1-1.6-1-2.5v-2.7c0-0.9,0.4-1.8,1-2.5S438.8,373.7,439.7,373.7z"/>
<path class="st11" d="M489.5,450.3h-94.6l-100.2-0.2c-13.8,1.5-21.4-6.5-25.2-13.5c-2.6-4.8-4.3-10.1-5.1-15.6l-14.5-67.1l1-0.2
	l14.5,67.1l0,0c0.8,5.3,2.4,10.5,5,15.2c5.4,9.7,13.5,14.1,24.2,13h0.1l100.3,0.2h94.6c0.7-0.1,15.1-1.5,15.1-8.8
	c0-3.9,3.7-14.6,11.6-25c6.8-8.8,18.5-20,36.1-22.9l0,0l0,0c0.1,0,9.4,0.1,13.2-6.6c3.9-6.9,0.8-18.4-9.3-34.2l0.9-0.6
	c10.3,16.1,13.4,28,9.3,35.3c-4,7.1-13.2,7.2-14.1,7.1c-17.2,2.9-28.8,13.8-35.4,22.5c-7.8,10.2-11.4,20.5-11.4,24.3
	C505.7,448.8,490.2,450.2,489.5,450.3L489.5,450.3z"/>
<path class="st11" d="M408.5,449.8l-1.1-0.2c8.7-53.1,0.5-90.5,0.4-90.9l1-0.2C409,358.9,417.2,396.5,408.5,449.8z M668.3,418.5
	c-17.6-25.6-44-33.8-63.1-36.1c-12.5-1.5-25.2-1.2-37.7,1.1l-0.2-1c12.5-2.3,25.4-2.7,38-1.1c11.6,1.3,22.9,4.6,33.4,9.8
	c12.3,6.2,22.7,15.4,30.5,26.7L668.3,418.5z M659.9,373.7c0,0-29.6-4.7-12.5,14.3l12.8,8.3L659.9,373.7z"/>
<path class="st20" d="M615,277.3c0,0,18.9,18.1,5.7,28.8c-13.1,10.7-33.5,25.2-33.5,25.2l2.7,22.8c0,0,14,1.7,14,20.6
	s6.8,109.2,6.8,109.2l-69.3,1.1l25-197.9l30.2-9.8C602.8,277.7,608.9,277.7,615,277.3z"/>
<path class="st21" d="M570.7,434.6l20.9,86.3h11.9l-3.7-77.3L570.7,434.6z"/>
<path class="st22" d="M570.7,419.1c0,0,24.8,31.2,31,49.6l-1.9-55L570.7,419.1z"/>
<path class="st21" d="M539.7,431.3l-7.2,89.6l16.1-6.3c13.3-59.3,8.1-59,18.2-108.2L539.7,431.3z"/>
<path class="st22" d="M539.7,403.2c0,0,19.9,49.1,18.1,71.2c0,0,6.2-57.2,12.9-68.4L539.7,403.2z"/>
<path class="st23" d="M544.4,355l-10,130.1c0,0,58.8-20.6,67.2-16.5l-9.8-114.2l-21.1-33.7l-8.9-7.9l-9.4-2.6L544.4,355z"/>
<path class="st24" d="M537.2,267.8c-7.1,9.5-12.8,19.9-17,31l-3.6,8.9l10.3,9.1l13.9-13.7L537.2,267.8z"/>
<path class="st24" d="M554,255.2l-11.2,7.9c0,0-8.7,5.1-10.3,13.9c-1.6,8.7,4.3,21.4,7.5,39.8c0,0,0.8,7.5,1.9,12.1
	c0,0,36.5,9.2,44.8-14.4c0,0,11.5-48.3,0-55.1s-16-5.3-16-5.3L554,255.2z"/>
<path class="st23" d="M573.9,254c0,0-16.1,43.9-8.4,78.6c-2-1-4.3-1.6-6.5-1.7c-3.2,0-5.8,1.7-6.1,1.7c-0.6,0-15.1-62.4,1-77.3
	C570.1,240.2,573.9,254,573.9,254z"/>
<path class="st3" d="M563.9,218.4c0,0-2.6,4.9-2.6,7.6c0,0-13.7,2.2-19.9-9c-6.2-11.3-5-14.7,7.2-17.1c12.3-2.4,23-13,32.1,0
	s10.3,28.6,21.8,27.1s0.8,25.6-17.4,20.8c0,0-11,0.5-23.5-11.6L563.9,218.4z"/>
<path class="st2" d="M571.9,220.6c0,0,21,27.8,30.2,21.9c0,0-16.2,18.8-40.3-5.8L571.9,220.6z"/>
<path class="st21" d="M564.4,228.1c12.8,33.1,3.7,35.8-6.7,41.4s-5.8-8.1-5.8-8.1c4.9-7.5,0-18.5,0-18.5L564.4,228.1z"/>
<path class="st21" d="M539.9,223.7c0,0-3,28.5,13.8,19.8c0,0,7-4.4,10.5-11.1c0,0,8,1,8.1-7.3c0,0,0.7-13.5-8.3-6.7
	c0,0,7.2-17.9-14.1-10.1C549.8,208.3,539.8,213.8,539.9,223.7z"/>
<path class="st3" d="M572.3,206.3c0,0-5.8-3.4-8.3-2.8c-2.6,0.5-3-0.1-3.8,0.3c-0.8,0.5-17,5.5-17,5.5c7.9,17.9,20.8,9.1,20.8,9.1
	L572.3,206.3z"/>
<path class="st2" d="M544.6,212.2c0,0-2.5-8.8,0-11.4c0,0-5.6,9.2-3.1,16.2L544.6,212.2z"/>
<path class="st25" d="M552.3,244.1c0,0,9-3.6,11.8-11.7l2,0.3l1.7,5.2c0,0-6.1,12.2-14,12.2L552.3,244.1z"/>
<path class="st26" d="M535.8,269.5c0,0-7.3,11.6,1.7,36.5l-4,4.2C533.5,310.3,520.2,287.4,535.8,269.5z"/>
<path class="st24" d="M532.3,311.5l-19.6,19.1c-13.9,7.7-17.8-55.6-17.8-55.6l11-2.3l10.8,35L532.3,311.5z"/>
<path class="st26" d="M516.6,307.7l-3.1,10.9c0,0-4.4-4.5,1.5-16L516.6,307.7z"/>
<path class="st24" d="M586.7,259.3c0,0-8.7,16.9,4.6,27.1l23.3,11.1v-11.1C614.6,286.4,603,269.3,586.7,259.3z"/>
<path class="st26" d="M605.3,293.1l9.3-6.6l-5.1-6.6L605.3,293.1z"/>
<path class="st26" d="M578.8,275c0,0,7.4,8.9,12.6,11.4l-1.4,11.1C589.9,297.5,581.1,286.8,578.8,275z"/>
<path class="st24" d="M565.5,330.2l5.2,20.7c0,0,10.6,5.9,21.1,3.6c0,0-6.1-29.1-5.6-34.6L565.5,330.2z"/>
<path class="st24" d="M614.6,286.4c0,0-22.8,14.4-32.7,23.9l1.4,10.5C583.3,320.8,632.7,307,614.6,286.4z"/>
<path class="st21" d="M583.3,320.8c1.7,21.1-10.8,7.7-10.8,7.7c0.4-9.3,9.4-18.2,9.4-18.2L583.3,320.8z"/>
<path class="st24" d="M552.3,330.2l5.4,24.8h-13.3l-2.5-26.2L552.3,330.2z"/>
<path class="st23" d="M532.5,519.7l-15,19.4h24l3.9-8.8l3.2,8.8h6.2l-6.2-24.4L532.5,519.7z"/>
<path class="st23" d="M604.3,514.6l4.6,24.4h-11.4l-0.5-6.7l-7.5,6.7h-15.8l17.9-19.4L604.3,514.6z"/>
<path class="st23" d="M591.8,354.5c0,0,9.6,8.7,9.6,26.2s0.2,88,0.2,88l-29.1-65.5L591.8,354.5z"/>
<path class="st25" d="M554.7,487.2c0,0-19.7,3.1-20.3,10.4v-12.4l22.5-7.4L554.7,487.2z M579.6,470.7l2.3,11c0,0,10.2-9.8,20.2-7.4
	l-0.5-5.7C601.6,468.7,595.1,465.6,579.6,470.7z"/>
<path class="st25" d="M581.9,310.3l-5.1,6.4l6.5,4L581.9,310.3z"/>
<path class="st21" d="M505.8,272.7c0,0-7.7-23.6-18.5-18.9c0,0-7.7,9.8,7.5,21.2L505.8,272.7z"/>
<path class="st2" d="M498.1,265.1c0,0-0.1,2.3-2,2.5c-1.2,0.1-13,1.4-13,1.4s-3.2,0.6-4.1-3.5c-1-4.7-6.3-23.8-6.3-23.8
	s-0.2-2.4,1-2.8L498.1,265.1z"/>
<path class="st3" d="M480.1,265.7c0.1,0.5,0.4,0.9,0.8,1.3c0.4,0.3,0.9,0.6,1.4,0.6l14.6-1.2c0.2,0,0.4,0,0.6-0.1s0.4-0.2,0.5-0.4
	c0.1-0.2,0.2-0.4,0.2-0.6s0-0.4-0.1-0.6l-7.5-23.5c-0.2-0.5-0.5-0.9-0.9-1.3c-0.4-0.3-0.9-0.5-1.4-0.6l-13.7-0.5
	c-0.2,0-0.4,0-0.6,0.1s-0.4,0.2-0.5,0.4s-0.2,0.4-0.2,0.6c0,0.2,0,0.4,0.1,0.6L480.1,265.7z"/>
<path class="st4" d="M481.3,262.1c0.1,0.4,0.3,0.7,0.6,1c0.3,0.3,0.7,0.4,1.1,0.5l11.4-0.7c0.2,0,0.3,0,0.5-0.1s0.3-0.2,0.4-0.3
	c0.1-0.1,0.2-0.3,0.2-0.5s0-0.3-0.1-0.5l-5.7-18c-0.1-0.4-0.4-0.7-0.7-1c-0.3-0.3-0.7-0.4-1.1-0.5l-10.7-0.3c-0.2,0-0.3,0-0.5,0.1
	s-0.3,0.2-0.4,0.3s-0.2,0.3-0.2,0.5s0,0.3,0.1,0.5L481.3,262.1z M480.4,240.3c0,0.1,0,0.1,0.1,0.2c0.1,0.1,0.1,0.1,0.2,0.1l3.3,0.1
	h0.1c0,0,0.1,0,0.1-0.1c0,0,0-0.1,0.1-0.1v-0.1v-0.1c0,0,0-0.1-0.1-0.1c0,0-0.1,0-0.1-0.1H484l-3.3-0.1c-0.1,0-0.1,0-0.2,0.1
	C480.4,240.2,480.4,240.3,480.4,240.3z"/>
<g>
	<path class="st5" d="M486.3,242c0,0,1.8,0.1,2.4,2.7c0.6,2.6,5,16.4,5,16.4s0.6,1.7-2.4,1.9c0.9,0.7,1.8,1.3,2.8,1.8
		c0.4-0.1,3.9-3.7,4.1-5.2s-0.6-11-0.7-12.5c-0.2-1.5-7.4-10.8-7.4-10.8l-4.9-3.2L486.3,242z"/>
</g>
<g class="st6">
	<g>
		<path class="st7" d="M496.3,259.1c0,0-14,3.3-19.1-4.4c0,0,0.3,15.3,0.7,16.1c0.4,0.8,9,4,12.6,3.3s16.5-3.9,17.1-4.9L496.3,259.1
			z"/>
	</g>
</g>
<path class="st21" d="M497.3,257l-11.6-6.2c0,0,0.2,11.9,12.3,13.7l5.8,2.9L497.3,257z"/>
<path class="st24" d="M520.6,175.7c-0.1-1.3-0.5-2.5-1.1-3.6s-1.4-2.1-2.5-2.9c-1-0.8-2.2-1.3-3.4-1.6s-2.5-0.3-3.8-0.1
	s-2.4,0.7-3.5,1.4c-1,0.7-1.9,1.7-2.6,2.7c-0.7,1.1-1.1,2.3-1.3,3.6c-0.2,1.3-0.1,2.5,0.3,3.8l0,0c0.2,0.7,0.5,1.4,0.9,2.1
	c2.1,4.7,4.8,9.1,7.8,13.2c3.2-3.9,6.2-9.8,7.7-13c0.4-0.7,0.8-1.4,1-2.2l0,0l0,0C520.6,177.9,520.7,176.8,520.6,175.7z
	 M511.5,181.5c-1,0-2-0.3-2.9-0.9s-1.5-1.4-1.9-2.3c-0.4-0.9-0.5-2-0.3-3s0.7-1.9,1.4-2.6c0.7-0.7,1.6-1.2,2.6-1.4s2-0.1,3,0.3
	c0.9,0.4,1.7,1,2.3,1.9c0.6,0.8,0.9,1.8,0.9,2.9c0,0.7-0.1,1.3-0.4,2c-0.3,0.6-0.6,1.2-1.1,1.7s-1,0.9-1.7,1.1
	C512.8,181.3,512.2,181.5,511.5,181.5z"/>
<g>
	<path class="st27" d="M31,179l-7-8.5h15L31,179z"/>
</g>
<g>
	<path class="st27" d="M12,72h241c4.4,0,8,3.6,8,8v83c0,4.4-3.6,8-8,8H12c-4.4,0-8-3.6-8-8V80C4,75.6,7.6,72,12,72z"/>
</g>
<path d="M140.3,145.9c0.7,0,1.3,0.1,1.8,0.2c0.5,0.2,0.8,0.4,1,0.8c0.2,0.4,0.3,0.9,0.3,1.6c0,0.4-0.1,0.8-0.2,1.2
	c-0.1,0.3-0.3,0.6-0.5,0.8s-0.6,0.3-1,0.4v0.1c0.1,0,0.3,0.1,0.5,0.2c0.2,0.1,0.3,0.2,0.4,0.4c0.1,0.2,0.2,0.4,0.3,0.7l0.8,2.8H142
	l-0.7-2.8c-0.1-0.3-0.2-0.5-0.4-0.6s-0.4-0.2-0.7-0.2c-0.6,0-1,0-1.4,0s-0.7,0-1,0s-0.5,0-0.7,0v-1.2h3.1c0.4,0,0.7-0.1,0.9-0.1
	c0.2-0.1,0.4-0.2,0.5-0.4s0.1-0.5,0.1-0.9s0-0.7-0.1-0.9s-0.3-0.4-0.5-0.4c-0.2-0.1-0.5-0.1-0.9-0.1c-0.8,0-1.4,0-2,0
	c-0.5,0-0.9,0-1.1,0L137,146c0.3,0,0.7-0.1,1-0.1s0.7,0,1,0C139.4,145.9,139.8,145.9,140.3,145.9z M138.6,146v9H137v-9H138.6z
	 M147.9,148.5c1,0,1.8,0.2,2.2,0.5c0.5,0.4,0.7,0.9,0.7,1.6c0,0.6-0.1,1-0.4,1.3c-0.3,0.3-0.7,0.4-1.4,0.4h-3.6v-1h3.2
	c0.3,0,0.5-0.1,0.6-0.2c0.1-0.2,0.1-0.3,0.1-0.6c0-0.4-0.1-0.6-0.3-0.7c-0.2-0.1-0.5-0.2-1-0.2c-0.4,0-0.7,0.1-0.9,0.2
	c-0.2,0.1-0.4,0.3-0.5,0.6s-0.1,0.7-0.1,1.3s0.1,1,0.2,1.4c0.1,0.3,0.3,0.5,0.6,0.7c0.3,0.1,0.6,0.2,1,0.2c0.3,0,0.7,0,1.1,0
	c0.4,0,0.8-0.1,1.2-0.1l0.2,1c-0.2,0.1-0.5,0.2-0.8,0.2c-0.3,0.1-0.6,0.1-0.9,0.1c-0.3,0-0.6,0.1-0.9,0.1c-0.8,0-1.4-0.1-1.9-0.3
	s-0.8-0.6-1-1.1s-0.3-1.1-0.3-1.9c0-0.8,0.1-1.5,0.3-2s0.6-0.8,1-1.1C146.6,148.6,147.2,148.5,147.9,148.5z M153.9,148.6v6.3
	c0,0.4-0.1,0.7-0.2,1.1c-0.1,0.3-0.3,0.6-0.5,0.9c-0.2,0.3-0.5,0.5-0.8,0.7l-0.9-0.7c0.3-0.3,0.5-0.6,0.6-0.9
	c0.1-0.3,0.2-0.7,0.2-1.1v-6.3H153.9z M153.4,145.8c0.3,0,0.5,0.2,0.5,0.5v0.7c0,0.3-0.2,0.5-0.5,0.5h-0.7c-0.3,0-0.5-0.2-0.5-0.5
	v-0.7c0-0.3,0.2-0.5,0.5-0.5H153.4z M158.5,148.5c1,0,1.8,0.2,2.2,0.5c0.5,0.4,0.7,0.9,0.7,1.6c0,0.6-0.1,1-0.4,1.3
	c-0.3,0.3-0.7,0.4-1.4,0.4H156v-1h3.2c0.3,0,0.5-0.1,0.6-0.2c0.1-0.2,0.1-0.3,0.1-0.6c0-0.4-0.1-0.6-0.3-0.7c-0.2-0.1-0.5-0.2-1-0.2
	c-0.4,0-0.7,0.1-0.9,0.2c-0.2,0.1-0.4,0.3-0.5,0.6s-0.1,0.7-0.1,1.3s0.1,1,0.2,1.4c0.1,0.3,0.3,0.5,0.6,0.7c0.3,0.1,0.6,0.2,1,0.2
	c0.3,0,0.7,0,1.1,0c0.4,0,0.8-0.1,1.2-0.1l0.2,1c-0.2,0.1-0.5,0.2-0.8,0.2c-0.3,0.1-0.6,0.1-0.9,0.1c-0.3,0-0.6,0.1-0.9,0.1
	c-0.8,0-1.4-0.1-1.9-0.3s-0.8-0.6-1-1.1s-0.3-1.1-0.3-1.9c0-0.8,0.1-1.5,0.3-2s0.6-0.8,1-1.1C157.2,148.6,157.8,148.5,158.5,148.5z
	 M165.7,148.5c0.2,0,0.5,0,0.7,0c0.3,0,0.5,0.1,0.8,0.1c0.3,0.1,0.5,0.1,0.7,0.2l-0.2,1c-0.3,0-0.6,0-1,0c-0.3,0-0.6,0-0.8,0
	c-0.4,0-0.8,0.1-1.1,0.2c-0.3,0.1-0.4,0.3-0.5,0.6s-0.2,0.7-0.2,1.2s0.1,1,0.2,1.3c0.1,0.3,0.3,0.5,0.5,0.6c0.3,0.1,0.6,0.2,1.1,0.2
	c0.1,0,0.3,0,0.5,0s0.4,0,0.7,0s0.5,0,0.7-0.1l0.2,1c-0.3,0.1-0.7,0.2-1.1,0.3c-0.4,0.1-0.8,0.1-1.2,0.1c-0.8,0-1.4-0.1-1.8-0.3
	c-0.5-0.2-0.8-0.6-1-1.1s-0.3-1.2-0.3-2s0.1-1.5,0.3-2s0.5-0.8,1-1.1C164.4,148.6,165,148.5,165.7,148.5z M171.5,146.8v6.3
	c0,0.3,0.1,0.5,0.2,0.6c0.1,0.1,0.3,0.2,0.6,0.2h0.9l0.2,1.1c-0.1,0-0.3,0.1-0.5,0.1s-0.4,0.1-0.6,0.1c-0.2,0-0.4,0-0.5,0
	c-0.6,0-1-0.1-1.3-0.4c-0.3-0.3-0.5-0.7-0.5-1.3v-6.6h1.5L171.5,146.8L171.5,146.8z M173.4,148.6v1.1h-4.6v-1l1.2-0.1H173.4z"/>
<path class="st28" d="M195,138h55c1.7,0,3,1.3,3,3v18c0,1.7-1.3,3-3,3h-55c-1.7,0-3-1.3-3-3v-18C192,139.4,193.3,138,195,138z"/>
<path class="st4" d="M206,145c0.1,0,0.3,0,0.4,0.1s0.2,0.2,0.2,0.3l2.7,8.5h-1.7l-2.1-6.9c0-0.1-0.1-0.3-0.1-0.4
	c0-0.1-0.1-0.3-0.1-0.4H205c0,0.1-0.1,0.3-0.1,0.4c0,0.1-0.1,0.3-0.1,0.4l-2,6.9h-1.7l2.7-8.5c0-0.1,0.1-0.2,0.2-0.3
	c0.1-0.1,0.2-0.1,0.4-0.1H206z M207.5,150.2v1.3h-4.6v-1.3H207.5z M213.1,147.5c0.2,0,0.5,0,0.7,0c0.3,0,0.5,0.1,0.8,0.1
	c0.3,0.1,0.5,0.1,0.7,0.2l-0.2,1c-0.3,0-0.6,0-1,0c-0.3,0-0.6,0-0.8,0c-0.4,0-0.8,0.1-1.1,0.2c-0.3,0.1-0.4,0.3-0.5,0.6
	s-0.2,0.7-0.2,1.2s0.1,1,0.2,1.3c0.1,0.3,0.3,0.5,0.5,0.6c0.3,0.1,0.6,0.2,1.1,0.2c0.1,0,0.3,0,0.5,0s0.4,0,0.7,0s0.5,0,0.7-0.1
	l0.2,1c-0.3,0.1-0.7,0.2-1.1,0.3c-0.4,0.1-0.8,0.1-1.2,0.1c-0.8,0-1.4-0.1-1.8-0.3c-0.5-0.2-0.8-0.6-1-1.1s-0.3-1.2-0.3-2
	s0.1-1.5,0.3-2s0.5-0.8,1-1.1C211.7,147.6,212.3,147.5,213.1,147.5z M219.5,147.5c0.2,0,0.5,0,0.7,0c0.3,0,0.5,0.1,0.8,0.1
	c0.3,0.1,0.5,0.1,0.7,0.2l-0.2,1c-0.3,0-0.6,0-1,0c-0.3,0-0.6,0-0.8,0c-0.4,0-0.8,0.1-1.1,0.2c-0.3,0.1-0.4,0.3-0.5,0.6
	s-0.2,0.7-0.2,1.2s0.1,1,0.2,1.3c0.1,0.3,0.3,0.5,0.5,0.6c0.3,0.1,0.6,0.2,1.1,0.2c0.1,0,0.3,0,0.5,0s0.4,0,0.7,0s0.5,0,0.7-0.1
	l0.2,1c-0.3,0.1-0.7,0.2-1.1,0.3c-0.4,0.1-0.8,0.1-1.2,0.1c-0.8,0-1.4-0.1-1.8-0.3c-0.5-0.2-0.8-0.6-1-1.1s-0.3-1.2-0.3-2
	s0.1-1.5,0.3-2s0.5-0.8,1-1.1C218.1,147.6,218.7,147.5,219.5,147.5z M225.9,147.5c1,0,1.8,0.2,2.2,0.5c0.5,0.4,0.7,0.9,0.7,1.6
	c0,0.6-0.1,1-0.4,1.3c-0.3,0.3-0.7,0.4-1.4,0.4h-3.6v-1h3.2c0.3,0,0.5-0.1,0.6-0.2c0.1-0.2,0.1-0.3,0.1-0.6c0-0.4-0.1-0.6-0.3-0.7
	c-0.2-0.1-0.5-0.2-1-0.2c-0.4,0-0.7,0.1-0.9,0.2c-0.2,0.1-0.4,0.3-0.5,0.6s-0.1,0.7-0.1,1.3s0.1,1,0.2,1.4c0.1,0.3,0.3,0.5,0.6,0.7
	c0.3,0.1,0.6,0.2,1,0.2c0.3,0,0.7,0,1.1,0c0.4,0,0.8-0.1,1.2-0.1l0.2,1c-0.2,0.1-0.5,0.2-0.8,0.2c-0.3,0.1-0.6,0.1-0.9,0.1
	c-0.3,0-0.6,0.1-0.9,0.1c-0.8,0-1.4-0.1-1.9-0.3s-0.8-0.6-1-1.1s-0.3-1.1-0.3-1.9c0-0.8,0.1-1.5,0.3-2s0.6-0.8,1-1.1
	C224.5,147.6,225.1,147.5,225.9,147.5z M234.2,147.5c0.8,0,1.4,0.3,1.7,0.9c0.3,0.6,0.5,1.4,0.5,2.5c0,0.8-0.1,1.5-0.3,2
	s-0.4,0.8-0.8,1c-0.4,0.2-0.8,0.3-1.4,0.3c-0.4,0-0.9-0.1-1.3-0.2c-0.4-0.1-0.8-0.3-1.1-0.6l0.1-0.8c0.3,0.1,0.6,0.2,0.9,0.2
	c0.3,0.1,0.6,0.1,0.9,0.1c0.3,0,0.6-0.1,0.8-0.2c0.2-0.1,0.3-0.3,0.4-0.6c0.1-0.3,0.1-0.7,0.1-1.3s0-1-0.1-1.3s-0.2-0.5-0.4-0.6
	s-0.4-0.2-0.7-0.2s-0.6,0.1-0.9,0.2c-0.3,0.1-0.6,0.3-1,0.6l-0.2-0.8c0.2-0.2,0.4-0.4,0.7-0.6c0.3-0.2,0.6-0.3,0.9-0.4
	C233.5,147.5,233.8,147.5,234.2,147.5z M231.5,147.6l0.2,1.2l0.1,0.2v4.1l-0.1,0.2c0,0.3,0,0.5,0.1,0.8c0,0.3,0,0.5,0,0.8v1.7h-1.6
	v-8.9h1.3V147.6z M240,145.8v6.3c0,0.3,0.1,0.5,0.2,0.6c0.1,0.1,0.3,0.2,0.6,0.2h0.9l0.2,1.1c-0.1,0-0.3,0.1-0.5,0.1
	s-0.4,0.1-0.6,0.1c-0.2,0-0.4,0-0.5,0c-0.6,0-1-0.1-1.3-0.4c-0.3-0.3-0.5-0.7-0.5-1.3v-6.6h1.5L240,145.8L240,145.8z M241.9,147.6
	v1.1h-4.6v-1l1.2-0.1H241.9z"/>
<g>
	<circle class="st4" cx="37" cy="106" r="25"/>
	<path class="st29" d="M16.6,127.6c2.6,3.1,5.8,5.7,9.5,7.5s7.7,2.8,11.7,2.9c4.1,0.1,8.1-0.6,11.9-2.1c3.8-1.5,7.2-3.9,10-6.8
		L45.8,126l-19.2-1L16.6,127.6z"/>
	<path class="st30" d="M30.6,118c1.3-4.6-0.2-11.7-0.2-11.7c3.1-3.1,12.6,12.1,12.6,12.1s-0.2,2.7,2.9,7.5c0.2,0.3,0.4,0.6,0.6,0.8
		c-1.9,3.1-6.1,9-9.2,8.4c-3.1-0.6-7.9-6.6-10.6-10.2C29.5,123.2,29.6,121.5,30.6,118z"/>
	<path class="st31" d="M27.7,100.6c0,0-1.5-0.2-1.7,2.5s1,4.2,2.1,4.2h1.7c0.3,1.6,0.6,3.2,1.1,4.8c0.8,3.1,0.8,4.8,7.5,7.5
		s8.4,2.3,10.3-0.6c1.9-2.9,1.9-13.6,2.1-18.2c0.2-4.6,1-9.9,1-9.9c-1.4-1.4-3-2.5-4.8-3.4c-3.1-1.5-12.8,0.2-15.7,1.7s-1.9,9-1.9,9
		L27.7,100.6z"/>
	<path class="st32" d="M47.3,114.3c-2,0.5-4,0.4-5.9-0.3"/>
	<path class="st33" d="M47.2,102.9c0,0.7,0.3,1.3,0.6,1.3s0.6-0.6,0.6-1.3c0-0.7-0.3-1.3-0.6-1.3S47.2,102.2,47.2,102.9z"/>
	<path class="st33" d="M41.2,103.7c0,0.7,0.3,1.3,0.6,1.3c0.4,0,0.6-0.6,0.6-1.3c0-0.7-0.3-1.3-0.6-1.3
		C41.5,102.5,41.2,103,41.2,103.7z"/>
	<path class="st32" d="M49.1,98.9c-0.3-0.3-0.7-0.4-1.1-0.5c-0.4,0-0.8,0-1.2,0.2"/>
	<path class="st32" d="M42.2,99.3c0,0-2.5-1-4.4,1.9"/>
	<path class="st32" d="M45.6,101.8l0.8,8.4l-4,0.4"/>
	<path class="st33" d="M23.2,85.5c0.2-3.4,5.5-2.1,8.8-3.4s9.2-5,14.2-5c1.3-0.1,2.6,0.3,3.7,1c1.1,0.8,1.8,1.9,2.2,3.2L51.8,78
		c0,0,3.4,1.9,3.1,5.4c-0.2,3.5-2.7,7.7-4.4,7.5s-15.9-0.8-16.7,1.3c-0.8,2.1,2.3,6.1,2.3,6.1c-0.2,2.1-3.3,1.7-3.6,2.5
		c-0.1,2,0,4.1,0.2,6.1c0,1.2-0.3,2.3-0.9,3.4c0,1,0.3,2.1,0.9,2.9c0.5,0.6,1.1,1,1.8,1.3s1.4,0.4,2.2,0.4c0,0,4.8-4.4,8.4-3.8
		c3.6,0.6,4.4,2.3,4.4,2.3h0.1c-0.1,0.7-0.2,1.4-0.3,2.1c-0.6-0.9-2.3-3.2-5-3.2c-3.3,0-6.9,4-6.9,4s3.6,2.3,5.4,2.3
		c1.9,0,1.5-2.3,2.7-2.1c1.3,0.2,0.8,1.5,1.5,1.5c0.8-0.1,1.5-0.6,2-1.2c-0.2,0.6-0.4,1.2-0.7,1.8c-1.9,2.9-3.6,3.3-10.3,0.6
		c-6.7-2.7-6.7-4.4-7.5-7.5l-0.2-0.9c0.2-1.5,0.5-3,1-4.4c0.1-2.5-0.3-5-1-5.8c-1.1-1.3-2.9-0.4-2.9-0.4S23,88.9,23.2,85.5z"/>
</g>
<path d="M78.5,98.9c0,1.1-0.2,2.1-0.6,2.8c-0.4,0.8-1,1.3-1.8,1.7c-0.8,0.4-1.8,0.6-2.9,0.6h-2.8V94h3.1c1,0,1.9,0.2,2.7,0.6
	c0.8,0.4,1.3,0.9,1.8,1.7C78.3,96.9,78.5,97.8,78.5,98.9z M76.6,99c0-0.8-0.1-1.4-0.4-2s-0.6-0.9-1.1-1.1c-0.5-0.3-1.1-0.4-1.8-0.4
	H72v7h1.1c1.2,0,2-0.3,2.6-0.9C76.3,101,76.6,100.1,76.6,99z M83.5,96.3c1,0,1.7,0.2,2.2,0.6s0.8,1.1,0.8,2v5.1h-1.2l-0.3-1.1h-0.1
	c-0.2,0.3-0.4,0.5-0.7,0.7c-0.2,0.2-0.5,0.3-0.8,0.4s-0.6,0.1-1.1,0.1c-0.4,0-0.9-0.1-1.2-0.3c-0.4-0.2-0.6-0.4-0.8-0.8
	c-0.2-0.4-0.3-0.8-0.3-1.3c0-0.8,0.3-1.4,0.9-1.8s1.5-0.6,2.6-0.7h1.3v-0.4c0-0.5-0.1-0.8-0.3-1c-0.2-0.2-0.6-0.3-1-0.3
	s-0.8,0.1-1.1,0.2c-0.4,0.1-0.7,0.2-1,0.4l-0.6-1.2c0.4-0.2,0.8-0.4,1.3-0.5C82.4,96.3,82.9,96.3,83.5,96.3z M83.8,100.4
	c-0.8,0-1.3,0.2-1.6,0.4c-0.3,0.2-0.4,0.6-0.4,1s0.1,0.6,0.3,0.8c0.2,0.2,0.5,0.2,0.8,0.2c0.5,0,0.9-0.1,1.3-0.4s0.5-0.7,0.5-1.3
	v-0.6L83.8,100.4z M90.4,104l-2.9-7.6h1.9l1.5,4.4c0.1,0.2,0.1,0.4,0.2,0.6s0.1,0.4,0.1,0.6s0.1,0.4,0.1,0.5h0.1
	c0-0.2,0.1-0.3,0.1-0.5s0.1-0.4,0.2-0.6s0.1-0.4,0.2-0.6l1.5-4.4h1.9l-2.9,7.6H90.4z M98.1,96.4v7.6h-1.8v-7.6H98.1z M97.2,93.5
	c0.3,0,0.5,0.1,0.7,0.2s0.3,0.4,0.3,0.7c0,0.3-0.1,0.6-0.3,0.7c-0.2,0.1-0.4,0.2-0.7,0.2c-0.3,0-0.5-0.1-0.7-0.2s-0.3-0.4-0.3-0.7
	c0-0.3,0.1-0.6,0.3-0.7C96.7,93.6,96.9,93.5,97.2,93.5z M102.8,104.1c-0.9,0-1.6-0.3-2.1-1s-0.8-1.6-0.8-2.9s0.3-2.3,0.8-2.9
	c0.6-0.7,1.3-1,2.2-1c0.4,0,0.7,0.1,1,0.2s0.5,0.2,0.7,0.4c0.2,0.2,0.4,0.4,0.5,0.6h0.1c0-0.1-0.1-0.3-0.1-0.6s0-0.5,0-0.8v-2.7h1.8
	V104h-1.4l-0.3-1h-0.1c-0.1,0.2-0.3,0.4-0.5,0.6s-0.4,0.3-0.7,0.4S103.2,104.1,102.8,104.1z M103.4,102.7c0.7,0,1.1-0.2,1.4-0.6
	s0.4-0.9,0.4-1.7v-0.2c0-0.8-0.1-1.4-0.4-1.9c-0.3-0.4-0.7-0.6-1.4-0.6c-0.5,0-0.9,0.2-1.2,0.7c-0.3,0.4-0.4,1.1-0.4,1.9
	s0.1,1.4,0.4,1.8C102.4,102.5,102.8,102.7,103.4,102.7z M120.9,104h-1.8v-4.4h-4.4v4.4h-1.8V94h1.8v4h4.4v-4h1.8V104z M125.1,96.4
	v7.6h-1.8v-7.6H125.1z M124.2,93.5c0.3,0,0.5,0.1,0.7,0.2s0.3,0.4,0.3,0.7c0,0.3-0.1,0.6-0.3,0.7c-0.2,0.1-0.4,0.2-0.7,0.2
	c-0.3,0-0.5-0.1-0.7-0.2s-0.3-0.4-0.3-0.7c0-0.3,0.1-0.6,0.3-0.7C123.7,93.6,123.9,93.5,124.2,93.5z M130.3,102.7
	c0.2,0,0.4,0,0.6-0.1c0.2,0,0.4-0.1,0.6-0.2v1.3c-0.2,0.1-0.4,0.2-0.7,0.2c-0.3,0.1-0.6,0.1-0.9,0.1c-0.4,0-0.8-0.1-1.2-0.2
	c-0.3-0.1-0.6-0.4-0.8-0.8s-0.3-0.8-0.3-1.5v-3.9h-1V97l1.1-0.6l0.6-1.6h1.1v1.7h2.2v1.3h-2.2v3.9c0,0.4,0.1,0.6,0.3,0.8
	C129.7,102.6,130,102.7,130.3,102.7z M136.1,96.3c0.7,0,1.3,0.1,1.8,0.4s0.9,0.7,1.1,1.2c0.3,0.5,0.4,1.1,0.4,1.8v0.9h-5
	c0,0.7,0.2,1.2,0.6,1.6c0.4,0.4,0.9,0.6,1.5,0.6c0.5,0,0.9,0,1.3-0.1c0.4-0.1,0.8-0.2,1.2-0.4v1.4c-0.4,0.2-0.8,0.3-1.2,0.4
	s-0.9,0.1-1.4,0.1c-0.7,0-1.4-0.1-2-0.4s-1-0.7-1.3-1.3c-0.3-0.6-0.5-1.3-0.5-2.2c0-0.9,0.1-1.6,0.4-2.2c0.3-0.6,0.7-1,1.2-1.3
	C134.8,96.4,135.4,96.3,136.1,96.3z M136.1,97.6c-0.5,0-0.8,0.2-1.1,0.5s-0.5,0.7-0.5,1.3h3.3c0-0.4-0.1-0.7-0.2-0.9
	c-0.1-0.3-0.3-0.5-0.5-0.6C136.7,97.7,136.4,97.6,136.1,97.6z"/>
<path d="M165,91.5l1.9,4l4.1,0.6l-3,3.1l0.7,4.3l-3.7-2.1l-3.7,2.1l0.7-4.3l-3-3.1l4.1-0.6L165,91.5z"/>
<path d="M185.2,100.1H184v1.9h-1v-1.9h-4.1v-0.9l4-5.8h1.1v5.7h1.2V100.1z M182.9,96.4c0-0.2,0-0.4,0-0.6s0-0.3,0-0.5s0-0.3,0-0.4
	s0-0.3,0-0.4l0,0c-0.1,0.2-0.1,0.3-0.2,0.5c-0.1,0.2-0.2,0.3-0.3,0.4l-2.6,3.7h3.1V96.4z M186.3,101.4c0-0.3,0.1-0.5,0.2-0.6
	c0.1-0.1,0.3-0.2,0.5-0.2s0.4,0.1,0.5,0.2c0.2,0.1,0.2,0.3,0.2,0.6c0,0.3-0.1,0.5-0.2,0.6c-0.1,0.1-0.3,0.2-0.5,0.2
	s-0.4-0.1-0.5-0.2C186.3,101.8,186.3,101.6,186.3,101.4z M194.8,102h-5.7v-0.9l2.2-2.3c0.4-0.4,0.8-0.8,1.1-1.2
	c0.3-0.3,0.5-0.7,0.7-1s0.2-0.7,0.2-1.1c0-0.5-0.1-0.8-0.4-1.1c-0.3-0.2-0.6-0.4-1.1-0.4c-0.4,0-0.8,0.1-1.1,0.2s-0.6,0.3-1,0.6
	l-0.6-0.7c0.2-0.2,0.5-0.4,0.7-0.5c0.3-0.2,0.6-0.3,0.9-0.4c0.3-0.1,0.7-0.1,1-0.1c0.5,0,1,0.1,1.4,0.3c0.4,0.2,0.7,0.4,0.9,0.8
	c0.2,0.3,0.3,0.7,0.3,1.2c0,0.3-0.1,0.7-0.2,1c-0.1,0.3-0.3,0.6-0.4,0.9s-0.4,0.6-0.7,0.9s-0.6,0.6-0.9,0.9l-1.8,1.8l0,0h4.3v1.1
	C194.6,102,194.8,102,194.8,102z"/>
<path d="M72.6,123h-1v-7h-2.5v-0.9H75v0.9h-2.4V123z M80.4,120c0,0.5-0.1,0.9-0.2,1.3s-0.3,0.7-0.5,1s-0.5,0.5-0.9,0.6
	c-0.3,0.1-0.7,0.2-1.1,0.2s-0.7-0.1-1.1-0.2c-0.3-0.1-0.6-0.3-0.9-0.6c-0.2-0.3-0.4-0.6-0.6-1c-0.1-0.4-0.2-0.8-0.2-1.3
	c0-0.7,0.1-1.2,0.3-1.7c0.2-0.5,0.5-0.8,0.9-1s0.9-0.4,1.5-0.4c0.5,0,1,0.1,1.4,0.4c0.4,0.2,0.7,0.6,1,1
	C80.3,118.8,80.4,119.4,80.4,120z M75.9,120c0,0.5,0.1,0.9,0.2,1.2c0.1,0.3,0.3,0.6,0.6,0.8c0.3,0.2,0.6,0.3,1,0.3s0.7-0.1,1-0.3
	c0.3-0.2,0.4-0.4,0.6-0.8c0.1-0.3,0.2-0.7,0.2-1.2s-0.1-0.9-0.2-1.2c-0.1-0.3-0.3-0.6-0.6-0.8c-0.2-0.2-0.6-0.3-1-0.3
	c-0.6,0-1,0.2-1.3,0.6C76.1,118.8,75.9,119.3,75.9,120z M80.8,117.1h1l1.3,3.4c0.1,0.2,0.1,0.4,0.2,0.6s0.1,0.4,0.2,0.5
	c0.1,0.2,0.1,0.3,0.1,0.5l0,0c0-0.2,0.1-0.4,0.2-0.7c0.1-0.3,0.2-0.6,0.3-0.9l1.2-3.3h1l-2.5,6.7c-0.1,0.4-0.3,0.7-0.5,1
	s-0.4,0.5-0.7,0.6c-0.3,0.2-0.6,0.2-1,0.2c-0.2,0-0.3,0-0.5,0c-0.1,0-0.2,0-0.3-0.1v-0.8c0.1,0,0.2,0,0.3,0c0.1,0,0.2,0,0.4,0
	c0.2,0,0.4,0,0.6-0.1s0.3-0.2,0.4-0.4c0.1-0.2,0.2-0.3,0.3-0.5l0.3-0.8L80.8,117.1z M92.5,120c0,0.5-0.1,0.9-0.2,1.3s-0.3,0.7-0.6,1
	c-0.2,0.3-0.5,0.5-0.9,0.6c-0.3,0.1-0.7,0.2-1.1,0.2s-0.7-0.1-1.1-0.2c-0.3-0.1-0.6-0.3-0.9-0.6c-0.2-0.3-0.4-0.6-0.6-1
	c-0.1-0.4-0.2-0.8-0.2-1.3c0-0.7,0.1-1.2,0.3-1.7c0.2-0.5,0.5-0.8,0.9-1s0.9-0.4,1.5-0.4c0.5,0,1,0.1,1.4,0.4c0.4,0.2,0.7,0.6,1,1
	C92.3,118.8,92.5,119.4,92.5,120z M88,120c0,0.5,0.1,0.9,0.2,1.2c0.1,0.3,0.3,0.6,0.6,0.8s0.6,0.3,1,0.3s0.7-0.1,1-0.3
	s0.4-0.4,0.6-0.8c0.1-0.3,0.2-0.7,0.2-1.2s-0.1-0.9-0.2-1.2c-0.1-0.3-0.3-0.6-0.6-0.8c-0.2-0.2-0.6-0.3-1-0.3c-0.6,0-1,0.2-1.3,0.6
	C88.1,118.8,88,119.3,88,120z M96,122.3c0.1,0,0.3,0,0.5,0s0.3-0.1,0.4-0.1v0.7c-0.1,0.1-0.2,0.1-0.4,0.1c-0.2,0-0.4,0.1-0.5,0.1
	c-0.3,0-0.6-0.1-0.9-0.2s-0.5-0.3-0.6-0.6c-0.2-0.3-0.2-0.6-0.2-1.1v-3.4h-0.8v-0.5l0.8-0.4l0.4-1.3H95v1.4h1.7v0.7H95v3.4
	c0,0.4,0.1,0.6,0.3,0.8C95.5,122.2,95.7,122.3,96,122.3z M100.2,117c0.7,0,1.3,0.2,1.6,0.5c0.3,0.3,0.5,0.8,0.5,1.5v4h-0.7l-0.2-0.8
	l0,0c-0.2,0.2-0.3,0.4-0.5,0.5s-0.4,0.2-0.6,0.3c-0.2,0.1-0.5,0.1-0.8,0.1c-0.4,0-0.7-0.1-1-0.2s-0.5-0.3-0.7-0.6
	c-0.2-0.3-0.2-0.6-0.2-1c0-0.6,0.2-1,0.7-1.4c0.5-0.3,1.2-0.5,2.1-0.5h1V119c0-0.5-0.1-0.8-0.3-1c-0.2-0.2-0.5-0.3-0.9-0.3
	c-0.3,0-0.6,0-0.9,0.1s-0.5,0.2-0.8,0.3l-0.3-0.7c0.3-0.1,0.6-0.3,0.9-0.4C99.4,117.1,99.8,117,100.2,117z M100.5,120.2
	c-0.7,0-1.2,0.1-1.5,0.4c-0.3,0.2-0.4,0.5-0.4,0.9c0,0.3,0.1,0.6,0.3,0.7c0.2,0.2,0.5,0.2,0.8,0.2c0.5,0,0.9-0.1,1.2-0.4
	c0.3-0.3,0.5-0.7,0.5-1.3v-0.5L100.5,120.2z M112.7,115.1l-2.8,7.9h-1l-2.8-7.9h1l1.8,5c0.1,0.2,0.1,0.4,0.2,0.6s0.1,0.4,0.2,0.6
	s0.1,0.4,0.1,0.5c0-0.2,0.1-0.4,0.1-0.5c0.1-0.2,0.1-0.4,0.2-0.6s0.1-0.4,0.2-0.6l1.8-5H112.7z M114.5,117.1v5.9h-1v-5.9H114.5z
	 M114.1,114.9c0.1,0,0.3,0.1,0.4,0.2s0.2,0.2,0.2,0.5c0,0.2-0.1,0.4-0.2,0.5s-0.2,0.2-0.4,0.2c-0.2,0-0.3-0.1-0.4-0.2
	s-0.2-0.3-0.2-0.5s0.1-0.4,0.2-0.5C113.8,114.9,113.9,114.9,114.1,114.9z M121.5,120c0,0.5-0.1,0.9-0.2,1.3s-0.3,0.7-0.6,1
	c-0.2,0.3-0.5,0.5-0.9,0.6c-0.3,0.1-0.7,0.2-1.1,0.2s-0.7-0.1-1.1-0.2c-0.3-0.1-0.6-0.3-0.9-0.6c-0.2-0.3-0.4-0.6-0.6-1
	c-0.1-0.4-0.2-0.8-0.2-1.3c0-0.7,0.1-1.2,0.3-1.7c0.2-0.5,0.5-0.8,0.9-1s0.9-0.4,1.5-0.4c0.5,0,1,0.1,1.4,0.4c0.4,0.2,0.7,0.6,1,1
	C121.4,118.8,121.5,119.4,121.5,120z M117.1,120c0,0.5,0.1,0.9,0.2,1.2c0.1,0.3,0.3,0.6,0.6,0.8c0.3,0.2,0.6,0.3,1,0.3
	s0.7-0.1,1-0.3c0.3-0.2,0.4-0.4,0.6-0.8c0.1-0.3,0.2-0.7,0.2-1.2s-0.1-0.9-0.2-1.2c-0.1-0.3-0.3-0.6-0.6-0.8c-0.2-0.2-0.6-0.3-1-0.3
	c-0.6,0-1,0.2-1.3,0.6C117.2,118.8,117.1,119.3,117.1,120z M126.9,121.4c0,0.4-0.1,0.7-0.3,1c-0.2,0.3-0.5,0.5-0.8,0.6
	c-0.4,0.1-0.8,0.2-1.3,0.2c-0.4,0-0.8,0-1.1-0.1c-0.3-0.1-0.6-0.2-0.8-0.3v-0.9c0.2,0.1,0.5,0.2,0.8,0.3c0.3,0.1,0.7,0.1,1,0.1
	c0.5,0,0.8-0.1,1.1-0.2c0.2-0.2,0.3-0.4,0.3-0.6c0-0.1,0-0.3-0.1-0.4s-0.2-0.2-0.4-0.4c-0.2-0.1-0.5-0.2-0.9-0.4
	c-0.4-0.1-0.7-0.3-1-0.4s-0.5-0.3-0.6-0.5s-0.2-0.5-0.2-0.8c0-0.5,0.2-0.9,0.6-1.2c0.4-0.3,0.9-0.4,1.6-0.4c0.4,0,0.7,0,1,0.1
	s0.6,0.2,0.9,0.3l-0.3,0.8c-0.2-0.1-0.3-0.1-0.5-0.2s-0.4-0.1-0.5-0.1c-0.2,0-0.4-0.1-0.6-0.1c-0.4,0-0.7,0.1-0.9,0.2
	c-0.2,0.1-0.3,0.3-0.3,0.5s0,0.3,0.1,0.4s0.3,0.2,0.5,0.3c0.2,0.1,0.5,0.2,0.9,0.4c0.4,0.1,0.7,0.3,1,0.4s0.5,0.3,0.6,0.5
	C126.8,120.8,126.9,121.1,126.9,121.4z M130.7,120.5v-0.9h2.7v0.9H130.7z M141.1,118.9h2.7v3.9c-0.4,0.1-0.9,0.2-1.3,0.3
	s-0.9,0.1-1.5,0.1c-0.8,0-1.5-0.2-2.1-0.5s-1-0.8-1.3-1.4s-0.4-1.3-0.4-2.2c0-0.8,0.2-1.5,0.5-2.1s0.8-1.1,1.4-1.4
	c0.6-0.3,1.3-0.5,2.2-0.5c0.4,0,0.9,0,1.2,0.1c0.4,0.1,0.8,0.2,1.1,0.3l-0.4,0.9c-0.3-0.1-0.6-0.2-0.9-0.3c-0.3-0.1-0.7-0.1-1.1-0.1
	c-0.6,0-1.2,0.1-1.6,0.4c-0.4,0.3-0.8,0.6-1,1.1s-0.4,1-0.4,1.7c0,0.6,0.1,1.2,0.3,1.7s0.5,0.9,1,1.1c0.4,0.3,1,0.4,1.7,0.4
	c0.2,0,0.4,0,0.6,0c0.2,0,0.3,0,0.5-0.1c0.2,0,0.3-0.1,0.4-0.1v-2.3H141v-1H141.1z M148.4,117c0.1,0,0.2,0,0.4,0c0.1,0,0.2,0,0.3,0
	l-0.1,0.9c-0.1,0-0.2,0-0.3-0.1c-0.1,0-0.2,0-0.3,0c-0.2,0-0.4,0-0.6,0.1s-0.4,0.2-0.6,0.4c-0.2,0.2-0.3,0.4-0.4,0.6
	c-0.1,0.2-0.1,0.5-0.1,0.8v3.1h-1v-5.9h0.8l0.1,1.1l0,0c0.1-0.2,0.3-0.4,0.5-0.6s0.4-0.3,0.6-0.4C147.8,117,148.1,117,148.4,117z
	 M152.2,117c0.5,0,0.9,0.1,1.3,0.3c0.4,0.2,0.6,0.5,0.8,0.9s0.3,0.9,0.3,1.4v0.6h-4c0,0.7,0.2,1.2,0.5,1.5s0.8,0.5,1.4,0.5
	c0.4,0,0.7,0,1-0.1s0.6-0.2,0.9-0.3v0.8c-0.3,0.1-0.6,0.2-0.9,0.3c-0.3,0.1-0.6,0.1-1,0.1c-0.6,0-1.1-0.1-1.5-0.3
	c-0.4-0.2-0.8-0.6-1-1c-0.2-0.5-0.4-1-0.4-1.7c0-0.6,0.1-1.2,0.3-1.7s0.5-0.8,0.9-1.1C151.2,117.1,151.7,117,152.2,117z
	 M152.2,117.8c-0.5,0-0.8,0.1-1.1,0.5c-0.3,0.3-0.4,0.7-0.5,1.2h3c0-0.3-0.1-0.6-0.2-0.9s-0.3-0.4-0.5-0.6
	C152.8,117.9,152.5,117.8,152.2,117.8z M155,117.1h1l1.3,3.4c0.1,0.2,0.1,0.4,0.2,0.6c0.1,0.2,0.1,0.4,0.2,0.5
	c0.1,0.2,0.1,0.3,0.1,0.5l0,0c0-0.2,0.1-0.4,0.2-0.7c0.1-0.3,0.2-0.6,0.3-0.9l1.2-3.3h1l-2.5,6.7c-0.1,0.4-0.3,0.7-0.5,1
	s-0.4,0.5-0.7,0.6c-0.3,0.2-0.6,0.2-1,0.2c-0.2,0-0.3,0-0.5,0c-0.1,0-0.2,0-0.3-0.1v-0.8c0.1,0,0.2,0,0.3,0s0.2,0,0.4,0
	s0.4,0,0.6-0.1c0.2-0.1,0.3-0.2,0.4-0.4c0.1-0.2,0.2-0.3,0.3-0.5l0.3-0.8L155,117.1z"/>
<path d="M208.9,110.4c-0.6,0-1.1-0.1-1.6-0.2s-0.9-0.2-1.3-0.4V108c0.4,0.2,0.8,0.4,1.4,0.5c0.5,0.1,1.1,0.2,1.5,0.3v-2.1
	c-0.5-0.2-1-0.4-1.4-0.6s-0.7-0.4-0.9-0.6s-0.4-0.5-0.5-0.7c-0.1-0.3-0.2-0.6-0.2-0.9c0-0.5,0.1-0.9,0.4-1.2c0.3-0.3,0.6-0.6,1-0.8
	c0.4-0.2,1-0.3,1.5-0.4v-1.1h0.9v1c0.5,0,1,0.1,1.5,0.2s0.9,0.3,1.4,0.4l-0.6,1.6c-0.4-0.2-0.8-0.3-1.1-0.4
	c-0.4-0.1-0.7-0.1-1.1-0.2v2c0.5,0.2,1,0.4,1.4,0.6c0.5,0.2,0.8,0.5,1.1,0.8s0.4,0.8,0.4,1.3c0,0.7-0.2,1.3-0.7,1.7
	c-0.5,0.5-1.2,0.7-2.2,0.8v1.4h-0.9L208.9,110.4L208.9,110.4z M209.8,108.8c0.3-0.1,0.6-0.1,0.7-0.3c0.1-0.1,0.2-0.3,0.2-0.5
	c0-0.1,0-0.2-0.1-0.3c-0.1-0.1-0.2-0.2-0.3-0.3c-0.1-0.1-0.3-0.2-0.5-0.3L209.8,108.8L209.8,108.8z M208.9,103.1
	c-0.2,0-0.3,0.1-0.5,0.1c-0.1,0.1-0.2,0.1-0.3,0.2s-0.1,0.2-0.1,0.3c0,0.1,0,0.2,0.1,0.3c0.1,0.1,0.2,0.2,0.3,0.3
	c0.1,0.1,0.3,0.2,0.5,0.3V103.1z M224.5,111h-7v-1.5l2.5-2.5c0.5-0.5,0.9-1,1.2-1.3c0.3-0.4,0.5-0.7,0.7-1c0.1-0.3,0.2-0.6,0.2-0.9
	c0-0.4-0.1-0.7-0.3-0.9c-0.2-0.2-0.5-0.3-0.9-0.3s-0.8,0.1-1.1,0.3c-0.4,0.2-0.7,0.4-1.1,0.8l-1.1-1.4c0.3-0.3,0.6-0.5,0.9-0.7
	c0.3-0.2,0.7-0.4,1.1-0.5c0.4-0.1,0.9-0.2,1.5-0.2c0.7,0,1.2,0.1,1.7,0.4c0.5,0.2,0.8,0.6,1.1,1s0.4,0.9,0.4,1.4
	c0,0.4-0.1,0.8-0.2,1.2c-0.1,0.4-0.3,0.7-0.5,1s-0.5,0.7-0.9,1c-0.3,0.3-0.7,0.7-1.2,1.1l-1.3,1.2v0.1h4.4L224.5,111L224.5,111z
	 M232.1,103.2c0,0.5-0.1,0.9-0.3,1.2c-0.2,0.3-0.4,0.6-0.8,0.8c-0.3,0.2-0.7,0.4-1.1,0.5l0,0c0.8,0.1,1.4,0.3,1.8,0.7
	c0.4,0.4,0.6,0.9,0.6,1.6c0,0.6-0.1,1.1-0.4,1.6c-0.3,0.5-0.7,0.8-1.3,1.1c-0.6,0.3-1.3,0.4-2.3,0.4c-0.6,0-1.1,0-1.5-0.1
	s-0.9-0.2-1.3-0.4v-1.8c0.4,0.2,0.9,0.4,1.3,0.5c0.5,0.1,0.9,0.2,1.3,0.2c0.8,0,1.3-0.1,1.6-0.4s0.5-0.6,0.5-1.1
	c0-0.3-0.1-0.5-0.2-0.7c-0.1-0.2-0.4-0.3-0.7-0.4s-0.8-0.2-1.5-0.2H227v-1.6h0.8c0.6,0,1.1-0.1,1.4-0.2c0.3-0.1,0.5-0.3,0.7-0.5
	c0.1-0.2,0.2-0.4,0.2-0.7c0-0.4-0.1-0.6-0.3-0.8c-0.2-0.2-0.6-0.3-1.1-0.3c-0.3,0-0.6,0-0.9,0.1c-0.3,0.1-0.5,0.2-0.7,0.3
	c-0.2,0.1-0.4,0.2-0.5,0.3l-1-1.5c0.3-0.2,0.6-0.4,0.9-0.5c0.3-0.1,0.7-0.3,1.1-0.3s0.8-0.1,1.3-0.1c1,0,1.8,0.2,2.4,0.6
	C231.8,101.9,232.1,102.5,232.1,103.2z M233.8,110c0-0.4,0.1-0.7,0.4-0.9c0.2-0.2,0.5-0.3,0.9-0.3c0.3,0,0.6,0.1,0.8,0.3
	c0.2,0.2,0.3,0.5,0.3,0.9s-0.1,0.7-0.3,0.9c-0.2,0.2-0.5,0.3-0.8,0.3s-0.6-0.1-0.9-0.3C233.9,110.7,233.8,110.4,233.8,110z
	 M244.5,106c0,0.8-0.1,1.5-0.2,2.2c-0.1,0.6-0.3,1.2-0.6,1.6s-0.6,0.8-1.1,1c-0.4,0.2-1,0.3-1.6,0.3c-0.8,0-1.5-0.2-2-0.6
	s-0.9-1-1.1-1.8c-0.2-0.8-0.4-1.7-0.4-2.8c0-1.1,0.1-2,0.3-2.8s0.6-1.4,1.1-1.8s1.2-0.6,2-0.6s1.5,0.2,2,0.6s0.9,1,1.1,1.8
	C244.3,104,244.5,104.9,244.5,106z M239.6,106c0,0.8,0,1.4,0.1,1.9s0.2,0.9,0.4,1.1c0.2,0.3,0.5,0.4,0.8,0.4c0.4,0,0.6-0.1,0.8-0.4
	s0.4-0.6,0.4-1.1c0.1-0.5,0.1-1.2,0.1-1.9s0-1.4-0.1-1.9s-0.2-0.9-0.4-1.1c-0.2-0.3-0.5-0.4-0.8-0.4c-0.4,0-0.6,0.1-0.8,0.4
	s-0.3,0.6-0.4,1.1C239.6,104.6,239.6,105.2,239.6,106z M252.5,106c0,0.8-0.1,1.5-0.2,2.2c-0.1,0.6-0.3,1.2-0.6,1.6s-0.6,0.8-1.1,1
	c-0.4,0.2-1,0.3-1.6,0.3c-0.8,0-1.5-0.2-2-0.6s-0.9-1-1.1-1.8c-0.2-0.8-0.4-1.7-0.4-2.8c0-1.1,0.1-2,0.3-2.8s0.6-1.4,1.1-1.8
	s1.2-0.6,2-0.6s1.5,0.2,2,0.6s0.9,1,1.1,1.8C252.4,104,252.5,104.9,252.5,106z M247.6,106c0,0.8,0,1.4,0.1,1.9s0.2,0.9,0.4,1.1
	c0.2,0.3,0.5,0.4,0.8,0.4c0.4,0,0.6-0.1,0.8-0.4s0.4-0.6,0.4-1.1c0.1-0.5,0.1-1.2,0.1-1.9s0-1.4-0.1-1.9s-0.2-0.9-0.4-1.1
	c-0.2-0.3-0.5-0.4-0.8-0.4c-0.4,0-0.6,0.1-0.8,0.4s-0.3,0.6-0.4,1.1C247.6,104.6,247.6,105.2,247.6,106z"/>
<g>
	<path class="st27" d="M335,127l-7-8.5h15L335,127z"/>
</g>
<g>
	<path class="st27" d="M316,20h241c4.4,0,8,3.6,8,8v83c0,4.4-3.6,8-8,8H316c-4.4,0-8-3.6-8-8V28C308,23.6,311.6,20,316,20z"/>
</g>
<path d="M444.3,93.9c0.7,0,1.3,0.1,1.8,0.2c0.5,0.2,0.8,0.4,1,0.8s0.3,0.9,0.3,1.6c0,0.5-0.1,0.8-0.2,1.2c-0.1,0.3-0.3,0.6-0.5,0.8
	c-0.2,0.2-0.6,0.3-1,0.4V99c0.1,0,0.3,0.1,0.5,0.2s0.3,0.2,0.4,0.4c0.1,0.2,0.2,0.4,0.3,0.7l0.8,2.8H446l-0.7-2.8
	c-0.1-0.3-0.2-0.5-0.4-0.7c-0.2-0.1-0.4-0.2-0.7-0.2c-0.6,0-1,0-1.4,0s-0.7,0-1,0s-0.5,0-0.7,0v-1.2h3.1c0.4,0,0.7-0.1,0.9-0.1
	c0.2-0.1,0.4-0.2,0.5-0.4c0.1-0.2,0.1-0.5,0.1-0.9s0-0.7-0.1-0.9s-0.3-0.4-0.5-0.4c-0.2-0.1-0.5-0.1-0.9-0.1c-0.8,0-1.4,0-2,0
	c-0.5,0-0.9,0-1.1,0L441,94c0.3,0,0.7-0.1,1-0.1s0.6,0,1,0S443.8,93.9,444.3,93.9z M442.6,94v9H441v-9H442.6z M451.9,96.5
	c1,0,1.8,0.2,2.2,0.5c0.5,0.4,0.7,0.9,0.7,1.6c0,0.6-0.1,1-0.4,1.3s-0.7,0.4-1.4,0.4h-3.6v-1h3.2c0.3,0,0.5-0.1,0.6-0.2
	c0.1-0.2,0.1-0.3,0.1-0.6c0-0.4-0.1-0.6-0.3-0.7c-0.2-0.1-0.5-0.2-1-0.2c-0.4,0-0.7,0.1-0.9,0.2c-0.2,0.1-0.4,0.3-0.5,0.6
	c-0.1,0.3-0.1,0.7-0.1,1.3c0,0.6,0.1,1,0.2,1.4c0.1,0.3,0.3,0.5,0.6,0.7c0.3,0.1,0.6,0.2,1,0.2c0.3,0,0.7,0,1.1,0s0.8-0.1,1.2-0.1
	l0.2,1c-0.2,0.1-0.5,0.2-0.8,0.2c-0.3,0.1-0.6,0.1-0.9,0.1s-0.6,0.1-0.9,0.1c-0.8,0-1.4-0.1-1.9-0.3c-0.5-0.2-0.8-0.6-1-1.1
	s-0.3-1.1-0.3-1.9s0.1-1.5,0.3-2c0.2-0.5,0.6-0.8,1-1.1C450.6,96.6,451.2,96.5,451.9,96.5z M457.9,96.6v6.3c0,0.4-0.1,0.7-0.2,1.1
	c-0.1,0.3-0.3,0.6-0.5,0.9s-0.5,0.5-0.8,0.7l-0.9-0.7c0.3-0.3,0.5-0.6,0.6-0.9s0.2-0.7,0.2-1.1v-6.3H457.9z M457.4,93.8
	c0.3,0,0.5,0.2,0.5,0.5V95c0,0.3-0.2,0.5-0.5,0.5h-0.7c-0.3,0-0.5-0.2-0.5-0.5v-0.7c0-0.3,0.2-0.5,0.5-0.5H457.4z M462.5,96.5
	c1,0,1.8,0.2,2.2,0.5c0.5,0.4,0.7,0.9,0.7,1.6c0,0.6-0.1,1-0.4,1.3s-0.7,0.4-1.4,0.4H460v-1h3.2c0.3,0,0.5-0.1,0.6-0.2
	c0.1-0.2,0.1-0.3,0.1-0.6c0-0.4-0.1-0.6-0.3-0.7c-0.2-0.1-0.5-0.2-1-0.2c-0.4,0-0.7,0.1-0.9,0.2c-0.2,0.1-0.4,0.3-0.5,0.6
	c-0.1,0.3-0.1,0.7-0.1,1.3c0,0.6,0.1,1,0.2,1.4c0.1,0.3,0.3,0.5,0.6,0.7c0.3,0.1,0.6,0.2,1,0.2c0.3,0,0.7,0,1.1,0s0.8-0.1,1.2-0.1
	l0.2,1c-0.2,0.1-0.5,0.2-0.8,0.2c-0.3,0.1-0.6,0.1-0.9,0.1s-0.6,0.1-0.9,0.1c-0.8,0-1.4-0.1-1.9-0.3c-0.5-0.2-0.8-0.6-1-1.1
	s-0.3-1.1-0.3-1.9s0.1-1.5,0.3-2c0.2-0.5,0.6-0.8,1-1.1C461.2,96.6,461.8,96.5,462.5,96.5z M469.7,96.5c0.2,0,0.5,0,0.7,0
	c0.3,0,0.5,0.1,0.8,0.1c0.3,0.1,0.5,0.1,0.7,0.2l-0.2,1c-0.3,0-0.6,0-1,0c-0.3,0-0.6,0-0.8,0c-0.4,0-0.8,0.1-1.1,0.2
	c-0.3,0.1-0.4,0.3-0.5,0.6c-0.1,0.3-0.2,0.7-0.2,1.2s0.1,1,0.2,1.3s0.3,0.5,0.5,0.6c0.3,0.1,0.6,0.2,1.1,0.2c0.1,0,0.3,0,0.5,0
	s0.4,0,0.7,0c0.3,0,0.5,0,0.7-0.1l0.2,1c-0.3,0.1-0.7,0.2-1.1,0.3c-0.4,0.1-0.8,0.1-1.2,0.1c-0.8,0-1.4-0.1-1.8-0.3
	c-0.5-0.2-0.8-0.6-1-1.1s-0.3-1.2-0.3-2s0.1-1.5,0.3-2c0.2-0.5,0.5-0.8,1-1.1C468.4,96.6,469,96.5,469.7,96.5z M475.5,94.8v6.3
	c0,0.3,0.1,0.5,0.2,0.6s0.3,0.2,0.6,0.2h0.9l0.2,1.1c-0.1,0-0.3,0.1-0.5,0.1s-0.4,0.1-0.6,0.1s-0.4,0-0.5,0c-0.6,0-1-0.1-1.3-0.4
	s-0.5-0.7-0.5-1.3v-6.6L475.5,94.8L475.5,94.8z M477.4,96.6v1.1h-4.6v-1l1.2-0.1H477.4z"/>
<path class="st28" d="M499,86h55c1.7,0,3,1.3,3,3v18c0,1.7-1.3,3-3,3h-55c-1.7,0-3-1.3-3-3V89C496,87.4,497.3,86,499,86z"/>
<path class="st4" d="M510,93c0.1,0,0.3,0,0.4,0.1s0.2,0.2,0.2,0.3l2.7,8.5h-1.7l-2.1-6.9c0-0.1-0.1-0.3-0.1-0.4s-0.1-0.3-0.1-0.4
	H509c0,0.1-0.1,0.3-0.1,0.4s-0.1,0.3-0.1,0.4l-2,6.9h-1.7l2.7-8.5c0-0.1,0.1-0.2,0.2-0.3c0.1-0.1,0.2-0.1,0.4-0.1H510z M511.5,98.2
	v1.3h-4.6v-1.3H511.5z M517.1,95.5c0.2,0,0.5,0,0.7,0c0.3,0,0.5,0.1,0.8,0.1c0.3,0.1,0.5,0.1,0.7,0.2l-0.2,1c-0.3,0-0.6,0-1,0
	c-0.3,0-0.6,0-0.8,0c-0.4,0-0.8,0.1-1.1,0.2s-0.4,0.3-0.5,0.6c-0.1,0.3-0.2,0.7-0.2,1.2s0.1,1,0.2,1.3c0.1,0.3,0.3,0.5,0.5,0.6
	c0.3,0.1,0.6,0.2,1.1,0.2c0.1,0,0.3,0,0.5,0s0.4,0,0.7,0s0.5,0,0.7-0.1l0.2,1c-0.3,0.1-0.7,0.2-1.1,0.3c-0.4,0.1-0.8,0.1-1.2,0.1
	c-0.8,0-1.4-0.1-1.8-0.3c-0.5-0.2-0.8-0.6-1-1.1s-0.3-1.2-0.3-2s0.1-1.5,0.3-2s0.5-0.8,1-1.1C515.7,95.6,516.3,95.5,517.1,95.5z
	 M523.5,95.5c0.2,0,0.5,0,0.7,0c0.3,0,0.5,0.1,0.8,0.1c0.3,0.1,0.5,0.1,0.7,0.2l-0.2,1c-0.3,0-0.6,0-1,0c-0.3,0-0.6,0-0.8,0
	c-0.4,0-0.8,0.1-1.1,0.2s-0.4,0.3-0.5,0.6c-0.1,0.3-0.2,0.7-0.2,1.2s0.1,1,0.2,1.3c0.1,0.3,0.3,0.5,0.5,0.6c0.3,0.1,0.6,0.2,1.1,0.2
	c0.1,0,0.3,0,0.5,0s0.4,0,0.7,0s0.5,0,0.7-0.1l0.2,1c-0.3,0.1-0.7,0.2-1.1,0.3c-0.4,0.1-0.8,0.1-1.2,0.1c-0.8,0-1.4-0.1-1.8-0.3
	c-0.5-0.2-0.8-0.6-1-1.1s-0.3-1.2-0.3-2s0.1-1.5,0.3-2s0.5-0.8,1-1.1C522.1,95.6,522.7,95.5,523.5,95.5z M529.9,95.5
	c1,0,1.8,0.2,2.2,0.5c0.5,0.4,0.7,0.9,0.7,1.6c0,0.6-0.1,1-0.4,1.3c-0.3,0.3-0.7,0.4-1.4,0.4h-3.6v-1h3.2c0.3,0,0.5-0.1,0.6-0.2
	c0.1-0.2,0.1-0.3,0.1-0.6c0-0.4-0.1-0.6-0.3-0.7s-0.5-0.2-1-0.2c-0.4,0-0.7,0.1-0.9,0.2s-0.4,0.3-0.5,0.6c-0.1,0.3-0.1,0.7-0.1,1.3
	c0,0.6,0.1,1,0.2,1.4c0.1,0.3,0.3,0.5,0.6,0.7c0.3,0.1,0.6,0.2,1,0.2c0.3,0,0.7,0,1.1,0c0.4,0,0.8-0.1,1.2-0.1l0.2,1
	c-0.2,0.1-0.5,0.2-0.8,0.2c-0.3,0.1-0.6,0.1-0.9,0.1c-0.3,0-0.6,0.1-0.9,0.1c-0.8,0-1.4-0.1-1.9-0.3c-0.5-0.2-0.8-0.6-1-1.1
	S527,99.8,527,99s0.1-1.5,0.3-2s0.6-0.8,1-1.1C528.5,95.6,529.1,95.5,529.9,95.5z M538.2,95.5c0.8,0,1.4,0.3,1.7,0.9
	s0.5,1.4,0.5,2.5c0,0.8-0.1,1.5-0.3,2s-0.4,0.8-0.8,1c-0.4,0.2-0.8,0.3-1.4,0.3c-0.4,0-0.9-0.1-1.3-0.2c-0.4-0.1-0.8-0.3-1.1-0.6
	l0.1-0.8c0.3,0.1,0.6,0.2,0.9,0.2c0.3,0.1,0.6,0.1,0.9,0.1c0.3,0,0.6-0.1,0.8-0.2s0.3-0.3,0.4-0.6c0.1-0.3,0.1-0.7,0.1-1.3
	c0-0.6,0-1-0.1-1.3s-0.2-0.5-0.4-0.7c-0.2-0.1-0.4-0.2-0.7-0.2s-0.6,0.1-0.9,0.2c-0.3,0.1-0.6,0.3-1,0.6l-0.2-0.8
	c0.2-0.2,0.4-0.4,0.7-0.6s0.6-0.3,0.9-0.4C537.5,95.5,537.8,95.5,538.2,95.5z M535.5,95.6l0.2,1.2l0.1,0.2v4.1l-0.1,0.2
	c0,0.3,0,0.5,0.1,0.8c0,0.3,0,0.5,0,0.8v1.7h-1.6v-8.9L535.5,95.6L535.5,95.6z M544,93.8v6.3c0,0.3,0.1,0.5,0.2,0.6
	c0.1,0.1,0.3,0.2,0.6,0.2h0.9l0.2,1.1c-0.1,0-0.3,0.1-0.5,0.1s-0.4,0.1-0.6,0.1c-0.2,0-0.4,0-0.5,0c-0.6,0-1-0.1-1.3-0.4
	s-0.5-0.7-0.5-1.3v-6.6L544,93.8L544,93.8z M545.9,95.6v1.1h-4.6v-1l1.2-0.1H545.9z"/>
<g>
	<path class="st34" d="M368,28.2v50.6c0,0,0,0.1,0,0.2c0,0.8-0.2,1.6-0.5,2.2c-0.1,0.2-0.2,0.4-0.3,0.5c-0.5,0.9-1.3,1.6-2.2,2
		c-0.2,0.1-0.5,0.2-0.8,0.2c-0.1,0-0.3,0-0.4,0l0,0c0,0-0.1,0-0.2,0h-43.1h-0.2l0,0c-0.3,0-0.6-0.1-0.9-0.2l0,0h-0.1
		c-0.3-0.1-0.6-0.3-0.9-0.5c-0.2-0.1-0.4-0.3-0.6-0.4c-0.3-0.3-0.5-0.5-0.7-0.9c-0.1-0.2-0.3-0.5-0.4-0.7c-0.4-0.7-0.5-1.6-0.5-2.5
		V28.2c0-2.8,1.9-5.1,4.3-5.2h43.3C366,23,368,25.3,368,28.2z"/>
	<path class="st33" d="M357.6,84.1H329c-0.1-0.8-0.1-1.5,0-2.1c0-0.2,0-0.4,0.1-0.6c0-0.2,0.1-0.3,0.1-0.5c0.6-2.8,2.5-3.6,2.5-3.6
		c0.6-0.1,1.2-0.3,2-0.4c0.4-0.1,0.9-0.1,1.3-0.2l0,0c0.4-0.1,0.9-0.1,1.4-0.2c2.7-0.4,5.8-0.7,8.8-0.6c1,0,1.9,0.1,2.8,0.2
		c0.3,0,0.6,0.1,0.8,0.1c1.7,0.3,3.2,0.7,4.2,1.5l0,0c0.8,0.6,1.7,1.4,2.4,2.5c0.4,0.5,0.7,1.1,1.1,1.6
		C356.9,82.5,357.2,83.2,357.6,84.1L357.6,84.1z"/>
	<path class="st35" d="M351,84.1h-11.5c-0.2,0-0.3-0.1-0.5-0.1c-2.3-0.5-4.5-1.4-6.1-2.8l0,0c-0.1-0.1-0.2-0.2-0.4-0.3
		c1.1-1,1.9-2.5,2.4-4.1l0,0c0.1-0.3,0.2-0.6,0.3-0.9c0.5-1.9,0.8-4,0.8-6.2l0,0c0-0.1,0-0.2,0-0.4c0-1.9,0-3.8-0.2-5.6
		c-0.1-1.6-0.3-3.2-0.6-4.7c-0.1-0.9-0.3-1.7-0.4-2.5l1.3,1.1l0.1,0.1l5.1,4.5l1.5,1.3L348,68c-0.2,0.8-0.4,1.6-0.5,2.4
		c0,0.1,0,0.1,0,0.2c-0.2,1.4-0.3,2.8-0.1,4.1c0,0.2,0.1,0.5,0.1,0.7c0.1,0.3,0.1,0.5,0.2,0.7c0,0.1,0,0.1,0.1,0.2
		c0.3,0.7,0.6,1.3,1.1,1.9c0.7,0.8,1.6,1.5,2.8,2c0.7,0.3,1.5,0.6,2.4,0.8l0,0C355.1,82.4,352.9,83.5,351,84.1z"/>
	<path class="st36" d="M337.7,63.2c-0.1,8.5,6.6,11.4,10,12.1c-0.4-1.5-0.3-3.1,0-4.8L337.7,63.2z"/>
	<path class="st4" d="M355.3,84.1H332l-3-2.1l-0.6-0.4l0.2-0.1l0.6-0.5l2.4-2.2l2-1.8l1.4-1.3l0.2,0.1l1.1,0.7l6.3,4.1l0,0l4.2,2.8
		l1.2-3l0.9-2.3l0.1,0.1l3.9,2l0.4,0.2c0.3,0.2,0.6,0.4,0.9,0.7l0,0c0.3,0.3,0.5,0.6,0.6,0.9c0,0.1,0.1,0.2,0.1,0.3
		C355.3,82.8,355.3,83.4,355.3,84.1L355.3,84.1z"/>
	<path class="st33" d="M356.5,36.6c4.2,2.5,5.2,12.7-0.7,19.5c-5.8,6.8-11.7-17.9-11.7-17.9S353.8,35,356.5,36.6L356.5,36.6z"/>
	<path class="st35" d="M338,71.4c4.6,4.1,10.4,4.1,14.9,1.4c2.9-1.7,5.2-4.5,6.2-8c0.1-0.5,0.2-0.9,0.3-1.4
		c1.5-8.9-0.7-23.3-10.5-26.6c-7-2.4-14.6,1.3-17,8.3c-0.7,2-0.9,4.1-0.6,6.2C332.4,61,332.7,66.8,338,71.4z"/>
	<path class="st33" d="M346.2,53.1c0,0.8,0.5,1.4,1,1.4s0.9-0.7,0.8-1.5c0-0.8-0.5-1.4-1-1.4C346.6,51.6,346.2,52.3,346.2,53.1
		L346.2,53.1z"/>
	<path class="st33" d="M355.2,52.5c0,0.8,0.5,1.4,1,1.4s0.9-0.7,0.8-1.5c0-0.8-0.5-1.4-1-1.4C355.6,51.1,355.2,51.8,355.2,52.5z"/>
	<path class="st37" d="M352.4,53.1c1.1,2.4,2.5,4.6,4.2,6.6c-1.1,0.9-2.4,1.2-3.8,1L352.4,53.1z"/>
	<path class="st33" d="M358.3,48.5c-0.1,0.1-0.3,0.1-0.5,0c-1-0.6-2.3-0.7-3.4-0.2c-0.2,0.1-0.5,0-0.6-0.2s0-0.5,0.2-0.6
		c1.4-0.6,2.9-0.6,4.3,0.2c0.2,0.1,0.3,0.4,0.2,0.6C358.4,48.4,358.4,48.4,358.3,48.5z"/>
	<path class="st33" d="M344.2,49.6c-0.1,0-0.2,0-0.3-0.1c-0.2-0.2-0.2-0.5,0-0.7c1.1-1.1,2.6-1.6,4.1-1.3c0.3,0.1,0.4,0.3,0.4,0.5
		c-0.1,0.3-0.3,0.4-0.6,0.4c-1.2-0.2-2.4,0.3-3.2,1.1C344.5,49.6,344.4,49.7,344.2,49.6L344.2,49.6z"/>
	<path class="st33" d="M337.6,38.7l0.3,1.4c-1.3,0.9-1.3,5.4-0.5,7c1.8,3.4,0.4,9.3-2.1,11.8c0,0-0.3-1.5-1.5-1
		c-1.3,0.5,0,8.6,3,12.2c0,0-4.3-3.1-7.4-11.3c-2.9-7.7-3.9-14.2-2.6-17.4L337.6,38.7L337.6,38.7z"/>
	<path class="st35" d="M327.5,59.6c1.2,2.1,3.2,3.7,5.6,4.4c3.2,0.8,4.7-2,3.8-4.9c-0.8-2.6-3.5-6.3-6.6-5.8
		C327.1,53.7,326,56.9,327.5,59.6z"/>
	<path class="st33" d="M352.4,63.2c-0.5,1.2-1,3.6-1,3.6c-0.2,0-0.4,0-0.7,0c-3-0.2-4.3-1.2-4.8-2.3c-0.3-0.6-0.4-1.2-0.4-1.8
		s0.1-1,0.1-1c1.5,1,4.3,1.4,5.7,1.5C352,63.2,352.4,63.2,352.4,63.2L352.4,63.2z"/>
	<path class="st4" d="M351.4,63.1l-0.3,1c-2.8-0.2-4.7-0.7-5.6-1.5c0-0.6,0.1-1,0.1-1C347.2,62.6,349.9,63,351.4,63.1z"/>
	<path class="st38" d="M350.7,66.7c-3-0.2-4.3-1.2-4.8-2.3c1,0.1,2.2,0.3,3.3,0.8C349.9,65.6,350.4,66.2,350.7,66.7z"/>
	<path class="st33" d="M355.8,63.6c-2.6-2.9-5.2-1.5-5.2-1.5s-1.7-2-3.8-2c-1.8-0.1-3.9,0.6-5.3,2c-0.2,0.2-0.3,0.4-0.5,0.6
		c-0.4,0.6-0.8,1.4-1,2.3c-0.4,1.8-0.5,4,0.2,6l0,0c0.3,1.1,0.8,2.1,1.6,2.9c0.6,0.7,1.4,1.3,2.4,1.7c0.3,0.1,0.6,0.2,1,0.3
		c1,0.3,1.9,0.4,2.9,0.3c0.3,0,0.5,0,0.7,0c2.8-0.4,5.2-2,6.4-4.2c0.3-0.5,0.5-0.9,0.7-1.4C356.7,67.8,356.9,64.8,355.8,63.6z
		 M343,63.3c0.4-1.1,1.1-1.9,2.1-2.1c3.4-0.8,5.2,1.5,5.2,1.5s4.2-1.7,4.7,2.9c0.5,4.4-2.5,6.7-4.3,5.6s-0.3-3.2-0.3-3.2l-2-0.5
		c0.1,1-0.2,2.1-0.8,2.9c0,0.1-0.1,0.1-0.1,0.2c-0.8,0.9-2,1.2-3.2,0.2c-0.9-0.7-1.5-2.2-1.7-3.7C342.5,65.6,342.6,64.4,343,63.3z"
		/>
	<path class="st33" d="M335.7,41.3c1.9-1,5-3.1,10.3-1.2c5.4,1.9,7,2.5,8.8-1.6c1.8-4-1.4-13.2-8.7-13.5c-7.3-0.3-11.8,9.3-11.8,9.3
		s-11.6,4.2-7.6,15L335.7,41.3L335.7,41.3z"/>
	<path class="st33" d="M365.6,79.3v0.6c0,0,0,0.1,0,0.2c0,0.7-0.2,1.3-0.5,1.8c-0.1,0.1-0.2,0.3-0.3,0.4c-0.5,0.7-1.3,1.3-2.1,1.6
		c-0.2,0.1-0.5,0.1-0.7,0.2c-0.1,0-0.3,0-0.4,0l0,0h-0.1h-4.1c-0.3-0.9-0.5-1.7-0.8-2.3c-0.2-0.7-0.4-1.2-0.6-1.7
		c-0.3-0.8-0.5-1.2-0.5-1.4l0,0L365.6,79.3L365.6,79.3z"/>
	<path class="st33" d="M333.2,84.1H323c0.5-0.9,1-1.6,1.5-2.3c0.6-0.7,1.1-1.3,1.7-1.8c2.7-2.3,5.4-2.7,5.4-2.7
		c-0.1,0.3-0.1,0.8,0,1.4c0.1,0.7,0.3,1.5,0.6,2.5C332.4,82.1,332.8,83,333.2,84.1L333.2,84.1z"/>
	<path class="st33" d="M362.7,83.9c-0.2,0.1-0.5,0.1-0.7,0.2c-0.1,0-0.3,0-0.4,0l0,0h-0.1h-5.7c-0.2-0.6-0.4-1.2-0.6-1.8
		c0-0.1-0.1-0.2-0.1-0.3c-0.2-0.6-0.5-1.2-0.8-1.9c-0.4-0.9-0.8-1.7-1.2-2.5l0,0c0.1,0.1,1,0.4,2.3,1.1l0,0c0.7,0.3,1.4,0.8,2.3,1.3
		C359.2,81,360.9,82.3,362.7,83.9L362.7,83.9z"/>
</g>
<path d="M380.1,49.3c0,0.6-0.1,1.1-0.4,1.5s-0.7,0.8-1.3,1c-0.5,0.2-1.2,0.4-1.9,0.4c-0.4,0-0.7,0-1-0.1c-0.3,0-0.6-0.1-0.9-0.2
	c-0.3-0.1-0.6-0.2-0.8-0.3v-1.7c0.4,0.2,0.9,0.4,1.4,0.5s1,0.2,1.5,0.2c0.4,0,0.7-0.1,1-0.2c0.3-0.1,0.5-0.3,0.6-0.4
	c0.1-0.2,0.2-0.4,0.2-0.7s-0.1-0.5-0.2-0.7s-0.4-0.4-0.7-0.5c-0.3-0.2-0.7-0.3-1.1-0.5c-0.3-0.1-0.6-0.3-0.9-0.4
	c-0.3-0.2-0.6-0.4-0.8-0.6c-0.2-0.2-0.4-0.5-0.6-0.8c-0.1-0.3-0.2-0.7-0.2-1.1c0-0.6,0.1-1.1,0.4-1.5s0.7-0.7,1.2-0.9
	s1.1-0.3,1.8-0.3c0.5,0,1,0.1,1.5,0.2c0.5,0.1,0.9,0.3,1.4,0.5l-0.6,1.4c-0.4-0.2-0.8-0.3-1.2-0.4c-0.4-0.1-0.8-0.2-1.2-0.2
	c-0.3,0-0.6,0.1-0.8,0.2c-0.2,0.1-0.4,0.2-0.5,0.4s-0.2,0.4-0.2,0.6c0,0.3,0.1,0.5,0.2,0.7s0.4,0.4,0.6,0.5c0.3,0.2,0.7,0.3,1.1,0.5
	c0.5,0.2,1,0.5,1.4,0.7c0.4,0.3,0.7,0.6,0.9,0.9C380,48.3,380.1,48.8,380.1,49.3z M390.5,44.3c0.9,0,1.5,0.2,1.9,0.7
	c0.4,0.4,0.7,1.1,0.7,2.1V52h-1.8v-4.6c0-0.6-0.1-1-0.3-1.3c-0.2-0.3-0.5-0.4-1-0.4c-0.6,0-1.1,0.2-1.3,0.6c-0.3,0.4-0.4,1-0.4,1.8
	V52h-1.8v-4.6c0-0.4,0-0.7-0.1-0.9c-0.1-0.3-0.2-0.4-0.4-0.6c-0.2-0.1-0.4-0.2-0.7-0.2c-0.4,0-0.8,0.1-1,0.3
	c-0.3,0.2-0.4,0.5-0.5,0.9s-0.2,0.9-0.2,1.4V52h-1.8v-7.6h1.4l0.3,1h0.1c0.2-0.3,0.4-0.5,0.6-0.6c0.2-0.2,0.5-0.3,0.8-0.4
	c0.3-0.1,0.6-0.1,0.9-0.1c0.6,0,1,0.1,1.4,0.3s0.7,0.5,0.9,0.9h0.1c0.2-0.4,0.6-0.7,1-0.9C389.6,44.4,390.1,44.3,390.5,44.3z
	 M397.1,44.4V52h-1.8v-7.6H397.1z M396.2,41.5c0.3,0,0.5,0.1,0.7,0.2c0.2,0.1,0.3,0.4,0.3,0.7s-0.1,0.6-0.3,0.7
	c-0.2,0.1-0.4,0.2-0.7,0.2c-0.3,0-0.5-0.1-0.7-0.2c-0.2-0.1-0.3-0.4-0.3-0.7s0.1-0.6,0.3-0.7C395.7,41.6,395.9,41.5,396.2,41.5z
	 M402.3,50.7c0.2,0,0.4,0,0.6-0.1c0.2,0,0.4-0.1,0.6-0.2v1.3c-0.2,0.1-0.4,0.2-0.7,0.2c-0.3,0.1-0.6,0.1-0.9,0.1
	c-0.4,0-0.8-0.1-1.2-0.2c-0.3-0.1-0.6-0.4-0.8-0.8c-0.2-0.4-0.3-0.8-0.3-1.5v-3.9h-1V45l1.1-0.6l0.6-1.6h1.1v1.7h2.2v1.3h-2.2v3.9
	c0,0.4,0.1,0.6,0.3,0.8C401.7,50.6,402,50.7,402.3,50.7z M406.8,43.9c0,0.3,0,0.6,0,0.9c0,0.3,0,0.5-0.1,0.6h0.1
	c0.2-0.3,0.4-0.5,0.6-0.6c0.2-0.2,0.5-0.3,0.8-0.4c0.3-0.1,0.6-0.1,0.9-0.1c0.6,0,1.1,0.1,1.5,0.3s0.7,0.5,0.9,0.9
	c0.2,0.4,0.3,0.9,0.3,1.6V52H410v-4.6c0-0.6-0.1-1-0.3-1.3s-0.6-0.4-1.1-0.4s-0.8,0.1-1.1,0.3c-0.3,0.2-0.5,0.5-0.6,0.9
	s-0.2,0.9-0.2,1.4V52H405V41.4h1.8V43.9z M426,46.9c0,1.1-0.2,2.1-0.6,2.8c-0.4,0.8-1,1.3-1.8,1.7s-1.8,0.6-2.9,0.6h-2.8V42h3.1
	c1,0,1.9,0.2,2.7,0.6s1.3,0.9,1.8,1.7C425.8,44.9,426,45.8,426,46.9z M424.1,47c0-0.8-0.1-1.4-0.4-2c-0.2-0.5-0.6-0.9-1.1-1.1
	c-0.5-0.3-1.1-0.4-1.8-0.4h-1.3v7h1.1c1.2,0,2-0.3,2.6-0.9C423.8,49,424.1,48.1,424.1,47z M431,44.3c1,0,1.7,0.2,2.2,0.6
	c0.5,0.4,0.8,1.1,0.8,2V52h-1.2l-0.4-1h-0.1c-0.2,0.3-0.4,0.5-0.7,0.7c-0.2,0.2-0.5,0.3-0.8,0.4c-0.3,0.1-0.6,0.1-1.1,0.1
	c-0.4,0-0.9-0.1-1.2-0.3c-0.4-0.2-0.6-0.4-0.8-0.8c-0.2-0.4-0.3-0.8-0.3-1.3c0-0.8,0.3-1.4,0.9-1.8c0.6-0.4,1.5-0.6,2.6-0.7h1.3V47
	c0-0.5-0.1-0.8-0.4-1c-0.2-0.2-0.6-0.3-1-0.3s-0.8,0.1-1.1,0.2c-0.4,0.1-0.7,0.2-1,0.4l-0.6-1.2c0.4-0.2,0.8-0.4,1.3-0.5
	C430,44.3,430.5,44.3,431,44.3z M431.3,48.5c-0.8,0-1.3,0.2-1.6,0.4c-0.3,0.2-0.4,0.6-0.4,1s0.1,0.6,0.3,0.8
	c0.2,0.2,0.5,0.2,0.8,0.2c0.5,0,0.9-0.1,1.3-0.4c0.4-0.3,0.5-0.7,0.5-1.3v-0.6L431.3,48.5z M437.9,52l-2.9-7.6h1.9l1.5,4.4
	c0.1,0.2,0.1,0.4,0.2,0.6c0.1,0.2,0.1,0.4,0.1,0.6c0,0.2,0.1,0.4,0.1,0.5h0.1c0-0.2,0.1-0.3,0.1-0.5s0.1-0.4,0.2-0.6
	c0.1-0.2,0.1-0.4,0.2-0.6l1.5-4.4h1.9l-2.9,7.6H437.9z M445.6,44.4V52h-1.8v-7.6H445.6z M444.7,41.5c0.3,0,0.5,0.1,0.7,0.2
	c0.2,0.1,0.3,0.4,0.3,0.7s-0.1,0.6-0.3,0.7c-0.2,0.1-0.4,0.2-0.7,0.2c-0.3,0-0.5-0.1-0.7-0.2c-0.2-0.1-0.3-0.4-0.3-0.7
	s0.1-0.6,0.3-0.7C444.2,41.6,444.4,41.5,444.7,41.5z M453,49.8c0,0.5-0.1,0.9-0.4,1.3c-0.2,0.3-0.6,0.6-1.1,0.8s-1,0.3-1.7,0.3
	c-0.5,0-1,0-1.4-0.1s-0.7-0.2-1.1-0.4v-1.5c0.4,0.2,0.8,0.3,1.2,0.4c0.5,0.1,0.9,0.2,1.3,0.2c0.5,0,0.8-0.1,1-0.2
	c0.2-0.1,0.3-0.3,0.3-0.6c0-0.1,0-0.3-0.1-0.4c-0.1-0.1-0.2-0.2-0.5-0.4c-0.2-0.1-0.6-0.3-1.1-0.5s-0.9-0.4-1.2-0.6
	c-0.3-0.2-0.6-0.4-0.7-0.7c-0.2-0.3-0.2-0.6-0.2-1c0-0.7,0.3-1.2,0.8-1.5c0.5-0.4,1.3-0.5,2.1-0.5c0.5,0,0.9,0,1.3,0.1
	s0.8,0.2,1.3,0.4l-0.6,1.3c-0.2-0.1-0.5-0.2-0.7-0.3s-0.5-0.1-0.7-0.2c-0.2,0-0.5-0.1-0.7-0.1c-0.4,0-0.7,0.1-0.9,0.2
	c-0.2,0.1-0.3,0.3-0.3,0.5s0,0.3,0.1,0.4c0.1,0.1,0.3,0.2,0.5,0.3c0.3,0.1,0.6,0.3,1.1,0.4c0.5,0.2,0.8,0.4,1.2,0.6
	c0.3,0.2,0.6,0.4,0.8,0.7C452.9,49,453,49.4,453,49.8z"/>
<path d="M469,39.5l1.9,4l4.1,0.6l-3,3.1l0.7,4.3l-3.7-2l-3.7,2l0.7-4.3l-3-3.1l4.1-0.6L469,39.5z"/>
<path d="M489.2,48.1H488V50h-1v-1.9h-4.1v-0.9l4-5.8h1.1v5.7h1.2V48.1z M486.9,44.4c0-0.2,0-0.4,0-0.6c0-0.2,0-0.3,0-0.5
	s0-0.3,0-0.4c0-0.1,0-0.3,0-0.4l0,0c-0.1,0.2-0.1,0.3-0.2,0.5s-0.2,0.3-0.3,0.4l-2.6,3.7h3.1V44.4z M490.3,49.4
	c0-0.3,0.1-0.5,0.2-0.6s0.3-0.2,0.5-0.2s0.4,0.1,0.5,0.2c0.2,0.1,0.2,0.3,0.2,0.6s-0.1,0.5-0.2,0.6s-0.3,0.2-0.5,0.2
	s-0.4-0.1-0.5-0.2C490.3,49.9,490.3,49.6,490.3,49.4z M498.8,50h-5.7v-0.9l2.2-2.3c0.4-0.4,0.8-0.8,1.1-1.2s0.5-0.7,0.7-1
	s0.2-0.7,0.2-1.1c0-0.5-0.1-0.8-0.4-1.1c-0.3-0.2-0.6-0.4-1.1-0.4c-0.4,0-0.8,0.1-1.1,0.2c-0.3,0.1-0.6,0.3-1,0.6l-0.6-0.7
	c0.2-0.2,0.5-0.4,0.7-0.5c0.3-0.2,0.6-0.3,0.9-0.4c0.3-0.1,0.7-0.1,1-0.1c0.5,0,1,0.1,1.4,0.3s0.7,0.4,0.9,0.8
	c0.2,0.3,0.3,0.7,0.3,1.2c0,0.3-0.1,0.7-0.2,1s-0.3,0.6-0.4,0.9c-0.2,0.3-0.4,0.6-0.7,0.9c-0.3,0.3-0.6,0.6-0.9,0.9l-1.8,1.8l0,0
	h4.3V50H498.8z"/>
<path d="M376.6,71h-1v-7h-2.5v-0.9h5.9V64h-2.4V71z M384.4,68c0,0.5-0.1,0.9-0.2,1.3s-0.3,0.7-0.5,1s-0.5,0.5-0.9,0.6
	c-0.3,0.1-0.7,0.2-1.1,0.2s-0.7-0.1-1.1-0.2c-0.3-0.1-0.6-0.3-0.9-0.6s-0.4-0.6-0.6-1c-0.1-0.4-0.2-0.8-0.2-1.3
	c0-0.7,0.1-1.2,0.3-1.6c0.2-0.5,0.5-0.8,0.9-1s0.9-0.4,1.5-0.4c0.5,0,1,0.1,1.4,0.4c0.4,0.2,0.7,0.6,1,1
	C384.3,66.8,384.4,67.4,384.4,68z M379.9,68c0,0.5,0.1,0.9,0.2,1.2c0.1,0.3,0.3,0.6,0.6,0.8c0.3,0.2,0.6,0.3,1,0.3s0.7-0.1,1-0.3
	c0.3-0.2,0.4-0.4,0.6-0.8c0.1-0.3,0.2-0.7,0.2-1.2s-0.1-0.9-0.2-1.2s-0.3-0.6-0.6-0.8c-0.2-0.2-0.6-0.3-1-0.3c-0.6,0-1,0.2-1.3,0.6
	C380.1,66.8,379.9,67.4,379.9,68z M384.8,65.1h1l1.3,3.4c0.1,0.2,0.1,0.4,0.2,0.6s0.1,0.4,0.2,0.5c0.1,0.2,0.1,0.3,0.1,0.5l0,0
	c0-0.2,0.1-0.4,0.2-0.7c0.1-0.3,0.2-0.6,0.3-0.9l1.2-3.3h1l-2.5,6.7c-0.1,0.4-0.3,0.7-0.5,1s-0.4,0.5-0.7,0.6
	c-0.3,0.2-0.6,0.2-1,0.2c-0.2,0-0.3,0-0.5,0c-0.1,0-0.2,0-0.3-0.1v-0.8c0.1,0,0.2,0,0.3,0c0.1,0,0.2,0,0.4,0c0.2,0,0.4,0,0.6-0.1
	s0.3-0.2,0.4-0.4c0.1-0.2,0.2-0.3,0.3-0.6l0.3-0.8L384.8,65.1z M396.5,68c0,0.5-0.1,0.9-0.2,1.3s-0.3,0.7-0.6,1
	c-0.2,0.3-0.5,0.5-0.9,0.6c-0.3,0.1-0.7,0.2-1.1,0.2s-0.7-0.1-1.1-0.2c-0.3-0.1-0.6-0.3-0.9-0.6s-0.4-0.6-0.6-1
	c-0.1-0.4-0.2-0.8-0.2-1.3c0-0.7,0.1-1.2,0.3-1.6c0.2-0.5,0.5-0.8,0.9-1s0.9-0.4,1.5-0.4c0.5,0,1,0.1,1.4,0.4c0.4,0.2,0.7,0.6,1,1
	C396.3,66.8,396.5,67.4,396.5,68z M392,68c0,0.5,0.1,0.9,0.2,1.2c0.1,0.3,0.3,0.6,0.6,0.8c0.3,0.2,0.6,0.3,1,0.3s0.7-0.1,1-0.3
	c0.3-0.2,0.4-0.4,0.6-0.8c0.1-0.3,0.2-0.7,0.2-1.2s-0.1-0.9-0.2-1.2c-0.1-0.3-0.3-0.6-0.6-0.8c-0.2-0.2-0.6-0.3-1-0.3
	c-0.6,0-1,0.2-1.3,0.6C392.1,66.8,392,67.4,392,68z M400,70.3c0.1,0,0.3,0,0.5,0s0.3-0.1,0.4-0.1v0.7c-0.1,0.1-0.2,0.1-0.4,0.1
	c-0.2,0-0.4,0.1-0.6,0.1c-0.3,0-0.6-0.1-0.9-0.2s-0.5-0.3-0.6-0.6c-0.2-0.3-0.2-0.6-0.2-1.1v-3.4h-0.8v-0.5l0.8-0.4l0.4-1.3h0.6V65
	h1.7v0.7H399v3.4c0,0.4,0.1,0.6,0.3,0.8C399.5,70.2,399.7,70.3,400,70.3z M404.2,65c0.7,0,1.3,0.2,1.6,0.5c0.3,0.3,0.5,0.8,0.5,1.5
	v4h-0.7l-0.2-0.8l0,0c-0.2,0.2-0.3,0.4-0.5,0.5s-0.4,0.2-0.6,0.3c-0.2,0.1-0.5,0.1-0.8,0.1c-0.4,0-0.7-0.1-1-0.2s-0.5-0.3-0.7-0.6
	c-0.2-0.3-0.2-0.6-0.2-1c0-0.6,0.2-1,0.7-1.4c0.5-0.3,1.2-0.5,2.1-0.5h1V67c0-0.5-0.1-0.8-0.3-1c-0.2-0.2-0.5-0.3-0.9-0.3
	c-0.3,0-0.6,0-0.9,0.1s-0.5,0.2-0.8,0.3l-0.3-0.7c0.3-0.1,0.6-0.3,0.9-0.4C403.4,65.1,403.8,65,404.2,65z M404.5,68.2
	c-0.7,0-1.2,0.1-1.5,0.4c-0.3,0.2-0.4,0.5-0.4,0.9c0,0.3,0.1,0.6,0.3,0.7c0.2,0.2,0.5,0.2,0.8,0.2c0.5,0,0.9-0.1,1.2-0.4
	c0.3-0.3,0.5-0.7,0.5-1.3v-0.5L404.5,68.2z M416.6,63.2l-2.8,7.9h-1l-2.8-7.9h1l1.8,5c0.1,0.2,0.1,0.4,0.2,0.6s0.1,0.4,0.2,0.6
	s0.1,0.4,0.1,0.5c0-0.2,0.1-0.4,0.1-0.5c0.1-0.2,0.1-0.4,0.2-0.6s0.1-0.4,0.2-0.6l1.8-5C415.6,63.2,416.6,63.2,416.6,63.2z
	 M418.5,65.1V71h-1v-5.9H418.5z M418.1,62.9c0.1,0,0.3,0.1,0.4,0.2c0.1,0.1,0.2,0.2,0.2,0.5c0,0.2-0.1,0.4-0.2,0.5
	c-0.1,0.1-0.2,0.2-0.4,0.2c-0.2,0-0.3-0.1-0.4-0.2s-0.2-0.3-0.2-0.5s0.1-0.4,0.2-0.5C417.8,63,417.9,62.9,418.1,62.9z M425.5,68
	c0,0.5-0.1,0.9-0.2,1.3s-0.3,0.7-0.5,1s-0.5,0.5-0.9,0.6c-0.3,0.1-0.7,0.2-1.1,0.2s-0.7-0.1-1.1-0.2c-0.3-0.1-0.6-0.3-0.9-0.6
	c-0.2-0.3-0.4-0.6-0.6-1c-0.1-0.4-0.2-0.8-0.2-1.3c0-0.7,0.1-1.2,0.3-1.6c0.2-0.5,0.5-0.8,0.9-1s0.9-0.4,1.5-0.4
	c0.5,0,1,0.1,1.4,0.4c0.4,0.2,0.7,0.6,1,1C425.4,66.8,425.5,67.4,425.5,68z M421.1,68c0,0.5,0.1,0.9,0.2,1.2
	c0.1,0.3,0.3,0.6,0.6,0.8c0.3,0.2,0.6,0.3,1,0.3s0.7-0.1,1-0.3c0.3-0.2,0.4-0.4,0.6-0.8c0.1-0.3,0.2-0.7,0.2-1.2s-0.1-0.9-0.2-1.2
	c-0.1-0.3-0.3-0.6-0.6-0.8c-0.2-0.2-0.6-0.3-1-0.3c-0.6,0-1,0.2-1.3,0.6C421.2,66.8,421.1,67.4,421.1,68z M430.9,69.4
	c0,0.4-0.1,0.7-0.3,1c-0.2,0.3-0.5,0.5-0.8,0.6c-0.4,0.1-0.8,0.2-1.3,0.2c-0.4,0-0.8,0-1.1-0.1c-0.3-0.1-0.6-0.2-0.8-0.3v-0.9
	c0.2,0.1,0.5,0.2,0.8,0.3c0.3,0.1,0.7,0.1,1,0.1c0.5,0,0.8-0.1,1.1-0.2c0.2-0.2,0.3-0.4,0.3-0.6c0-0.1,0-0.3-0.1-0.4
	s-0.2-0.2-0.4-0.4c-0.2-0.1-0.5-0.2-0.9-0.4c-0.4-0.1-0.7-0.3-1-0.4s-0.5-0.3-0.6-0.5s-0.2-0.5-0.2-0.8c0-0.5,0.2-0.9,0.6-1.2
	c0.4-0.3,0.9-0.4,1.6-0.4c0.4,0,0.7,0,1,0.1s0.6,0.2,0.9,0.3l-0.3,0.8c-0.2-0.1-0.3-0.1-0.5-0.2s-0.4-0.1-0.5-0.1
	c-0.2,0-0.4-0.1-0.6-0.1c-0.4,0-0.7,0.1-0.9,0.2c-0.2,0.1-0.3,0.3-0.3,0.5s0,0.3,0.1,0.4s0.3,0.2,0.5,0.3c0.2,0.1,0.5,0.2,0.9,0.4
	c0.4,0.1,0.7,0.3,1,0.4s0.5,0.3,0.6,0.5C430.8,68.8,430.9,69.1,430.9,69.4z M434.7,68.5v-0.9h2.7v0.9H434.7z M444,63.2
	c0.7,0,1.2,0.1,1.6,0.2c0.4,0.1,0.8,0.3,1,0.6c0.2,0.3,0.3,0.7,0.3,1.1c0,0.3-0.1,0.6-0.2,0.8c-0.1,0.2-0.3,0.4-0.5,0.6
	s-0.5,0.3-0.8,0.3v0.1c0.3,0.1,0.6,0.1,0.9,0.3c0.3,0.1,0.5,0.3,0.6,0.6c0.2,0.3,0.2,0.6,0.2,1c0,0.5-0.1,0.9-0.3,1.2
	c-0.2,0.3-0.5,0.6-0.9,0.8c-0.4,0.2-0.9,0.3-1.5,0.3h-2.8v-7.9C441.6,63.2,444,63.2,444,63.2z M444.2,66.5c0.7,0,1.1-0.1,1.4-0.3
	c0.2-0.2,0.4-0.5,0.4-1c0-0.4-0.2-0.7-0.5-0.9c-0.3-0.2-0.8-0.3-1.5-0.3h-1.3v2.5H444.2z M442.7,67.3v2.8h1.6c0.7,0,1.2-0.1,1.5-0.4
	s0.4-0.6,0.4-1.1c0-0.3-0.1-0.5-0.2-0.7s-0.3-0.4-0.6-0.5c-0.3-0.1-0.7-0.2-1.1-0.2L442.7,67.3L442.7,67.3z M449.7,71h-1v-8.4h1V71z
	 M453.8,65c0.7,0,1.3,0.2,1.6,0.5c0.3,0.3,0.5,0.8,0.5,1.5v4h-0.7l-0.2-0.8l0,0c-0.2,0.2-0.3,0.4-0.5,0.5s-0.4,0.2-0.6,0.3
	c-0.2,0.1-0.5,0.1-0.8,0.1c-0.4,0-0.7-0.1-1-0.2s-0.5-0.3-0.7-0.6c-0.2-0.3-0.2-0.6-0.2-1c0-0.6,0.2-1,0.7-1.4
	c0.5-0.3,1.2-0.5,2.1-0.5h1V67c0-0.5-0.1-0.8-0.3-1c-0.2-0.2-0.5-0.3-0.9-0.3c-0.3,0-0.6,0-0.9,0.1s-0.5,0.2-0.8,0.3l-0.3-0.7
	c0.3-0.1,0.6-0.3,0.9-0.4C453.1,65.1,453.4,65,453.8,65z M454.1,68.2c-0.7,0-1.2,0.1-1.5,0.4c-0.3,0.2-0.4,0.5-0.4,0.9
	c0,0.3,0.1,0.6,0.3,0.7c0.2,0.2,0.5,0.2,0.8,0.2c0.5,0,0.9-0.1,1.2-0.4c0.3-0.3,0.5-0.7,0.5-1.3v-0.5L454.1,68.2z M460.1,71.1
	c-0.5,0-1-0.1-1.4-0.3c-0.4-0.2-0.7-0.5-1-1c-0.2-0.4-0.3-1-0.3-1.7s0.1-1.3,0.4-1.8s0.6-0.8,1-1s0.9-0.3,1.4-0.3
	c0.3,0,0.6,0,0.9,0.1s0.5,0.1,0.7,0.2l-0.3,0.8c-0.2-0.1-0.4-0.1-0.6-0.2s-0.5-0.1-0.7-0.1c-0.4,0-0.7,0.1-1,0.3
	c-0.3,0.2-0.4,0.4-0.6,0.7c-0.1,0.3-0.2,0.7-0.2,1.2s0.1,0.9,0.2,1.2c0.1,0.3,0.3,0.6,0.6,0.7c0.2,0.2,0.6,0.3,0.9,0.3
	s0.6,0,0.8-0.1c0.2-0.1,0.5-0.1,0.7-0.2v0.9c-0.2,0.1-0.4,0.2-0.7,0.2C460.7,71.1,460.5,71.1,460.1,71.1z M464,67c0,0.1,0,0.3,0,0.5
	s0,0.4,0,0.5l0,0c0-0.1,0.1-0.1,0.2-0.3c0.1-0.1,0.2-0.2,0.3-0.3c0.1-0.1,0.2-0.2,0.2-0.3l1.9-2h1.1l-2.4,2.5l2.6,3.4h-1.2l-2-2.8
	l-0.7,0.6V71h-1v-8.4h1V67z"/>
<path d="M513.6,54.8c-0.6,0-1.1-0.1-1.6-0.2c-0.5-0.1-0.9-0.2-1.3-0.4v-1.8c0.4,0.2,0.8,0.4,1.4,0.5c0.5,0.1,1,0.2,1.5,0.3v-2.1
	c-0.5-0.2-1-0.4-1.4-0.6c-0.4-0.2-0.7-0.4-0.9-0.6c-0.2-0.2-0.4-0.5-0.5-0.7c-0.1-0.3-0.2-0.6-0.2-0.9c0-0.5,0.1-0.8,0.4-1.2
	c0.2-0.3,0.6-0.6,1-0.8c0.4-0.2,0.9-0.3,1.5-0.4v-1h0.9v1c0.5,0,1,0.1,1.4,0.2c0.5,0.1,0.9,0.2,1.3,0.4l-0.6,1.6
	c-0.4-0.2-0.7-0.3-1.1-0.4c-0.4-0.1-0.7-0.1-1-0.2v2c0.5,0.2,1,0.4,1.4,0.6c0.4,0.2,0.8,0.5,1.1,0.8c0.3,0.3,0.4,0.8,0.4,1.3
	c0,0.7-0.2,1.2-0.7,1.7c-0.5,0.4-1.2,0.7-2.2,0.8v1.4h-0.9V54.8z M514.5,53.2c0.3-0.1,0.5-0.1,0.7-0.3c0.1-0.1,0.2-0.3,0.2-0.5
	c0-0.1,0-0.2-0.1-0.3c-0.1-0.1-0.2-0.2-0.3-0.3c-0.1-0.1-0.3-0.2-0.5-0.3V53.2z M513.6,47.7c-0.2,0-0.3,0.1-0.5,0.1
	c-0.1,0.1-0.2,0.1-0.3,0.2c-0.1,0.1-0.1,0.2-0.1,0.3c0,0.1,0,0.2,0.1,0.3c0.1,0.1,0.2,0.2,0.3,0.3c0.1,0.1,0.3,0.2,0.5,0.3V47.7z
	 M528.9,55.4h-6.8v-1.4l2.5-2.5c0.5-0.5,0.9-0.9,1.2-1.3c0.3-0.3,0.5-0.7,0.7-0.9c0.1-0.3,0.2-0.6,0.2-0.9c0-0.4-0.1-0.7-0.3-0.9
	c-0.2-0.2-0.5-0.3-0.9-0.3c-0.4,0-0.7,0.1-1.1,0.3c-0.4,0.2-0.7,0.4-1.1,0.7l-1.1-1.3c0.3-0.2,0.6-0.5,0.9-0.7
	c0.3-0.2,0.7-0.4,1.1-0.5c0.4-0.1,0.9-0.2,1.5-0.2c0.6,0,1.2,0.1,1.6,0.4c0.5,0.2,0.8,0.5,1.1,0.9c0.3,0.4,0.4,0.8,0.4,1.3
	c0,0.4-0.1,0.8-0.2,1.1c-0.1,0.3-0.3,0.7-0.5,1c-0.2,0.3-0.5,0.7-0.8,1c-0.3,0.3-0.7,0.7-1.2,1.1l-1.3,1.2v0.1h4.3V55.4z
	 M533.5,49.1c0.6,0,1.1,0.1,1.6,0.3c0.5,0.2,0.8,0.6,1.1,1c0.3,0.4,0.4,1,0.4,1.6c0,0.7-0.1,1.3-0.4,1.8c-0.3,0.5-0.7,0.9-1.3,1.2
	c-0.6,0.3-1.3,0.4-2.2,0.4c-0.5,0-1,0-1.5-0.1c-0.4-0.1-0.8-0.2-1.2-0.4v-1.8c0.3,0.2,0.7,0.3,1.2,0.5c0.5,0.1,0.9,0.2,1.3,0.2
	c0.4,0,0.8-0.1,1-0.2c0.3-0.1,0.5-0.3,0.6-0.5c0.1-0.2,0.2-0.5,0.2-0.9c0-0.5-0.2-0.8-0.5-1.1c-0.3-0.3-0.8-0.4-1.5-0.4
	c-0.3,0-0.5,0-0.8,0.1c-0.3,0-0.5,0.1-0.7,0.1l-0.8-0.4l0.4-5h5.3v1.8h-3.5l-0.2,1.9c0.2,0,0.3-0.1,0.5-0.1
	C532.9,49.2,533.1,49.1,533.5,49.1z M538,54.4c0-0.4,0.1-0.7,0.3-0.9c0.2-0.2,0.5-0.3,0.8-0.3c0.3,0,0.6,0.1,0.8,0.3
	c0.2,0.2,0.3,0.5,0.3,0.9c0,0.4-0.1,0.7-0.3,0.9c-0.2,0.2-0.5,0.3-0.8,0.3c-0.3,0-0.6-0.1-0.8-0.3C538.1,55.1,538,54.8,538,54.4z
	 M548.4,50.5c0,0.8-0.1,1.5-0.2,2.1c-0.1,0.6-0.3,1.2-0.6,1.6c-0.3,0.4-0.6,0.8-1.1,1c-0.4,0.2-1,0.3-1.6,0.3
	c-0.8,0-1.4-0.2-1.9-0.6c-0.5-0.4-0.9-1-1.1-1.7c-0.2-0.7-0.4-1.6-0.4-2.7c0-1.1,0.1-2,0.3-2.7c0.2-0.7,0.6-1.3,1.1-1.7
	c0.5-0.4,1.2-0.6,2-0.6c0.8,0,1.4,0.2,1.9,0.6c0.5,0.4,0.9,1,1.1,1.7C548.3,48.5,548.4,49.4,548.4,50.5z M543.7,50.5
	c0,0.7,0,1.4,0.1,1.9c0.1,0.5,0.2,0.9,0.4,1.1c0.2,0.2,0.5,0.4,0.8,0.4c0.3,0,0.6-0.1,0.8-0.4c0.2-0.2,0.3-0.6,0.4-1.1
	c0.1-0.5,0.1-1.1,0.1-1.9s0-1.4-0.1-1.9c-0.1-0.5-0.2-0.9-0.4-1.1c-0.2-0.3-0.5-0.4-0.8-0.4c-0.3,0-0.6,0.1-0.8,0.4
	c-0.2,0.2-0.3,0.6-0.4,1.1C543.7,49.1,543.7,49.7,543.7,50.5z M556.3,50.5c0,0.8-0.1,1.5-0.2,2.1c-0.1,0.6-0.3,1.2-0.6,1.6
	c-0.3,0.4-0.6,0.8-1.1,1c-0.4,0.2-1,0.3-1.6,0.3c-0.8,0-1.4-0.2-1.9-0.6c-0.5-0.4-0.9-1-1.1-1.7c-0.2-0.7-0.4-1.6-0.4-2.7
	c0-1.1,0.1-2,0.3-2.7c0.2-0.7,0.6-1.3,1.1-1.7c0.5-0.4,1.2-0.6,2-0.6c0.8,0,1.4,0.2,1.9,0.6c0.5,0.4,0.9,1,1.1,1.7
	C556.2,48.5,556.3,49.4,556.3,50.5z M551.5,50.5c0,0.7,0,1.4,0.1,1.9c0.1,0.5,0.2,0.9,0.4,1.1c0.2,0.2,0.5,0.4,0.8,0.4
	c0.3,0,0.6-0.1,0.8-0.4c0.2-0.2,0.3-0.6,0.4-1.1c0.1-0.5,0.1-1.1,0.1-1.9s0-1.4-0.1-1.9c-0.1-0.5-0.2-0.9-0.4-1.1
	c-0.2-0.3-0.5-0.4-0.8-0.4c-0.3,0-0.6,0.1-0.8,0.4c-0.2,0.2-0.3,0.6-0.4,1.1C551.5,49.1,551.5,49.7,551.5,50.5z"/>
</svg>
